<svg width="85" height="212" viewBox="0 0 85 212" fill="none" xmlns="http://www.w3.org/2000/svg">
<g clip-path="url(#clip0)">
<path fill-rule="evenodd" clip-rule="evenodd" d="M36.8564 192.086C36.8564 192.086 37.1425 192.938 37.3028 194.289C37.4573 195.645 37.4459 196.263 37.4459 196.263C37.4459 196.263 36.7648 197.271 35.3112 197.832C33.8518 198.398 33.062 198.404 33.062 198.404L31.6141 198.146C31.6141 198.146 31.0418 198.679 29.9372 200.304C28.8327 201.929 27.2703 202.994 25.0154 203.303C22.7548 203.606 18.6285 203.509 17.6499 203.074C16.6655 202.639 15.7784 201.523 15.7727 201.168C15.7612 200.813 15.4179 199.96 16.6769 198.81C17.9417 197.654 24.1798 194.386 25.5019 192.086C26.8239 189.785 36.0094 189.676 36.8678 192.091L36.8564 192.086Z" fill="#424852"/>
<path fill-rule="evenodd" clip-rule="evenodd" d="M36.4157 195.296C36.4157 195.296 34.5385 196.098 33.2051 196.87C31.8716 197.643 31.368 197.986 30.4809 198.902C29.5938 199.818 28.558 201.678 26.4977 202.353C24.4431 203.028 19.1149 203.183 18.102 202.748C17.089 202.313 16.2935 201.271 16.2935 201.271C16.2935 201.271 17.6556 202.616 19.3381 202.656C21.015 202.691 24.9982 202.422 26.2287 202.032C27.4534 201.643 28.7297 200.813 30.1948 198.45C31.6599 196.086 35.5286 195.422 36.4214 195.296H36.4157ZM23.0181 200.665C23.0181 200.665 21.2096 200.779 19.1493 200.167C17.0833 199.56 17.4152 198.662 17.4152 198.662C17.4152 198.662 16.179 200.184 18.4511 200.894C20.7231 201.603 23.0238 200.665 23.0238 200.665H23.0181ZM26.904 193.7C26.904 193.7 26.4748 194.112 26.7495 194.524C27.0242 194.936 27.7453 197.523 27.7453 197.523C27.7453 197.523 26.7495 195.508 26.3775 194.867C26.0055 194.22 25.954 193.883 26.0227 193.66C26.0913 193.436 26.1314 193.322 26.1314 193.322C26.1314 193.322 26.5892 193.259 26.9097 193.7H26.904Z" fill="#58606D"/>
<path fill-rule="evenodd" clip-rule="evenodd" d="M60.8016 191.032C60.8016 191.032 63.0451 195.542 63.3026 196.326C63.5544 197.11 63.6345 199.817 63.6345 199.817C63.6345 199.817 63.8406 203.52 59.8401 203.76C55.8397 204.001 54.1629 201.683 54.0484 199.743C53.9282 197.803 53.7108 195.164 53.0984 193.888C52.4918 192.618 52.4918 192.618 52.4918 192.618C52.4918 192.618 52.0511 190.248 52.5261 189.35C53.0011 188.446 59.8401 190.248 60.8016 191.038V191.032Z" fill="#424852"/>
<path fill-rule="evenodd" clip-rule="evenodd" d="M62.6788 199.708C62.6788 199.708 62.4213 202.101 59.5998 202.33C56.7783 202.553 55.4506 200.487 55.2846 199.668C55.1129 198.85 55.7081 201.156 58.3636 201.288C61.0191 201.42 62.2038 200.435 62.6845 199.708H62.6788ZM58.4437 192.583C58.4437 192.583 59.0904 194.163 59.7257 194.626C60.3552 195.09 61.7688 195.416 61.7688 195.416C61.7688 195.416 59.8631 194.678 59.5769 193.922C59.2907 193.167 59.0847 192.589 59.0847 192.589C59.0847 192.589 58.8615 192.08 58.4495 192.583H58.4437ZM56.1488 192.743C56.1488 192.743 56.5609 193.819 56.4063 194.5C56.2461 195.181 55.4792 196.097 55.4792 196.097C55.4792 196.097 56.7612 194.958 56.8871 194.191C57.013 193.419 56.744 192.812 56.744 192.812C56.744 192.812 56.4865 192.6 56.1545 192.743H56.1488Z" fill="#58606D"/>
<path fill-rule="evenodd" clip-rule="evenodd" d="M59.348 86.3009C59.348 86.3009 64.3213 95.0057 63.686 104.42C63.0508 113.84 61.0992 137.625 61.0992 137.625L60.4411 182.894L60.7902 191.01C60.7902 191.01 56.9443 192.051 54.9584 192.126C52.9725 192.2 52.1369 191.954 52.1369 191.954C52.1369 191.954 50.9351 188.795 51.0381 187.616C51.1411 186.437 51.2956 181.246 51.0896 180.222C50.8836 179.197 46.9518 145.357 47.0835 141.454C47.2151 137.551 46.9232 136.011 46.8431 135.405C46.763 134.798 44.3593 115.38 44.3593 115.38C44.3593 115.38 39.695 146.393 40.3818 147.869C41.0686 149.346 39.7408 171.809 38.064 179.953C36.3871 188.097 36.7477 188.125 36.7477 188.125L37.0681 192.853C37.0681 192.853 34.3554 194.009 30.8358 193.579C27.3161 193.15 25.7594 191.593 25.7594 191.593C25.7594 191.593 27.1959 189.516 27.2188 187.45C27.2417 185.384 26.4118 144.361 26.2573 142.301C26.1028 140.241 24.2428 110.155 23.9567 104.06C23.6705 97.9645 27.5221 85.9175 27.5221 85.9175C27.5221 85.9175 51.8565 86.3582 59.348 86.3067V86.3009Z" fill="#23314B"/>
<path fill-rule="evenodd" clip-rule="evenodd" d="M41.0857 95.24C41.0857 95.24 40.9541 106.463 41.0399 107.699C41.1258 108.935 43.7755 110.784 43.7755 110.784C43.7755 110.784 41.8354 108.094 41.9213 107.43C42.0071 106.766 42.1845 95.1484 42.1845 95.1484C42.1845 95.1484 41.658 95.0626 41.08 95.2343L41.0857 95.24Z" fill="#192233"/>
<path d="M16.4538 103.756C16.4538 103.756 18.2165 105.255 18.1821 107.916C18.1764 108.597 17.6728 109.891 17.4725 110.538C17.358 110.904 17.0947 111.636 17.0718 112.014C17.0375 112.598 17.3294 113.754 17.3008 114.338C17.2607 115.064 16.7514 116.919 16.0245 116.965C15.3034 117.016 14.7884 115.099 14.7311 114.378C14.6853 113.725 15.4522 112.169 14.9372 111.768C14.7597 111.631 14.3648 111.894 14.176 112.02C14.0215 112.123 13.6724 112.352 13.6037 112.523C13.5121 112.758 13.4034 113.21 13.329 113.405C13.2946 113.491 13.0257 113.966 13.0943 114.258C13.2431 114.853 13.4949 116.856 13.4949 116.856C13.4949 116.856 14.4335 117.337 14.8456 117.783C15.0402 117.989 15.9959 118.315 16.2306 118.464C16.5797 118.687 17.1062 119.465 16.8486 119.792C16.4881 120.244 14.7597 119.843 14.1531 119.477C13.3004 118.962 11.7895 118.367 11.4461 117.64C11.1142 116.947 10.8738 114.692 10.6449 114.046C10.456 113.514 10.3816 113.33 10.2214 112.741C10.0497 112.117 10.6506 109.816 11.1599 107.934C11.572 106.4 12.6365 103.853 12.6365 103.853L16.4652 103.75L16.4538 103.756Z" fill="#825740"/>
<path d="M17.1062 115.345C17.192 115.5 17.3179 115.723 17.3752 115.82C17.5297 116.089 18.0276 116.587 17.999 116.896C17.9875 117.033 17.6384 117.314 17.6384 117.314C17.6384 117.314 18.577 118.235 18.5713 118.636C18.5713 118.767 18.2565 119.054 18.2565 119.054C18.2565 119.054 18.2565 119.735 18.0963 119.855C17.8788 120.015 17.2664 119.906 16.8315 119.803L16.8429 119.792C17.1004 119.466 16.5739 118.682 16.2248 118.464C15.9902 118.315 15.0344 117.989 14.8398 117.783C14.5079 117.428 13.7296 117.039 13.4778 116.902V116.804C13.4377 116.484 13.2202 114.796 13.0829 114.258C13.0142 113.966 13.2832 113.491 13.3175 113.405C13.3976 113.21 13.5007 112.758 13.5922 112.524C13.6609 112.352 14.01 112.123 14.1645 112.02C14.3477 111.9 14.7483 111.631 14.9257 111.768C15.4408 112.169 14.6739 113.725 14.7197 114.378C14.7712 115.099 15.292 117.016 16.0131 116.965C16.4938 116.93 16.883 116.106 17.1004 115.339L17.1062 115.345ZM12.6193 103.859C12.6193 103.859 12.3847 104.443 12.2988 104.654C12.2015 104.889 12.0241 105.353 12.0241 105.353C12.0241 105.353 14.0043 105.232 14.691 105.232C16.2592 105.232 17.8216 105.862 17.8216 105.862C17.8216 105.862 17.627 105.341 17.3752 104.906C17.1577 104.528 16.6941 103.853 16.6941 103.853L14.5251 103.613L12.6136 103.859H12.6193Z" fill="#5F3722"/>
<path d="M12.253 102.131L12.1672 104.306C12.1672 104.306 14.2675 104.254 15.0001 104.317C17.4667 104.535 18.1993 104.918 18.1993 104.918L18.6514 102.137L12.253 102.131Z" fill="#C4C2CC"/>
<path d="M36.1353 28.315C42.0243 28.315 42.734 27.7427 48.7489 27.7427C48.6058 28.9445 48.7317 35.0682 49.985 36.5333L49.0694 43.8416L46.8717 59.0706L35.3913 48.792L34.5786 39.4005C37.0052 37.3574 36.4558 30.3753 36.1353 28.315Z" fill="#825740"/>
<path d="M36.1353 28.315C42.0243 28.315 42.734 27.7427 48.7489 27.7427C48.6974 28.1662 48.6802 29.2135 48.7374 30.4497C46.8488 34.7935 40.9713 37.7065 36.3528 34.37C36.5474 31.9491 36.307 29.4253 36.1353 28.315ZM49.3212 35.0167C49.4929 35.6748 49.7161 36.2128 49.9851 36.5275L49.0694 43.8359L47.6501 53.6738C46.9805 55.2591 46.2136 56.6784 45.3952 57.7429L35.7175 49.0725C35.5744 48.649 35.4428 48.2254 35.3112 47.7962L34.5844 39.3891C35.5515 38.5764 36.0437 36.9797 36.2726 35.2227C36.2726 35.2227 37.0796 39.5894 38.0754 42.1476C39.0655 44.7058 39.6378 46.56 39.4833 47.3727C39.3288 48.1911 39.552 48.649 39.9468 49.3357C40.3417 50.0168 41.9098 52.2888 41.9957 51.871C42.0815 51.4532 42.3276 49.1812 43.4265 47.636C44.531 46.0908 45.8072 45.032 45.3437 44.1277C44.8801 43.2235 44.9717 42.6054 45.8931 41.1518C46.6886 39.8984 48.7603 36.8709 49.3212 35.0109V35.0167ZM42.1445 37.1685C42.1445 37.1685 42.0129 38.2044 42.3219 38.8683C42.6309 39.5321 43.1174 39.2002 43.1174 39.2002C43.1174 39.2002 42.2818 38.7653 42.1445 37.1742V37.1685Z" fill="#5F3722"/>
<path d="M32.3066 90.2037C42.774 93.2369 50.4944 92.9908 58.2949 88.378C56.7039 84.5493 55.3476 81.2872 53.7565 77.4642C48.726 63.3226 50.7977 44.2934 51.4215 37.6547C50.3914 36.4414 50.1453 35.4513 50.1453 35.4513C50.1453 35.4513 49.6875 35.0679 49.4414 35.4284C48.9893 38.2041 45.4123 41.7066 45.3551 42.5193C45.0976 43.5895 46.1506 43.5494 46.0362 44.1675C45.813 45.3636 44.222 47.2694 43.684 48.3568C43.0258 49.6788 42.4879 54.4919 42.4879 54.4919C42.4879 54.4919 40.5306 51.6361 40.0785 50.9837C38.104 48.0077 39.0083 48.4083 38.9796 46.7944C38.9682 46.2736 38.9625 45.9417 38.5333 44.4251C38.1269 42.9943 36.719 39.7207 36.2383 35.4399C36.2154 35.251 35.7576 35.5257 35.6488 35.7604C34.7675 37.7463 34.5786 39.4117 33.6286 42.2846C31.3852 53.3587 41.0228 77.1723 32.3066 90.2151V90.2037Z" fill="#F2F1F6"/>
<path d="M50.5058 36.3441C50.5058 36.3441 49.47 40.6536 48.5657 45.3865C48.4684 44.7169 48.1594 43.5952 48.1308 43.2404C48.0106 41.6379 47.2552 41.3403 46.7344 41.3289C46.0877 41.3174 45.4295 42.0271 45.3093 42.6624C45.2635 42.9199 45.3379 43.1717 45.481 43.3892C45.3551 43.0801 45.3608 42.7253 45.8759 42.0443C46.391 41.3632 47.6157 42.1473 47.7702 42.8283C47.9705 43.6982 48.4055 45.026 48.5486 45.4838C48.1079 47.7845 47.7016 50.1824 47.4669 52.2313C46.7973 57.9429 47.3582 69.6923 48.8404 75.1635C50.0938 79.7706 54.5692 84.9614 54.9984 89.0991C49.8591 92.2525 41.8583 92.7791 36.204 89.9461C36.5073 86.4894 38.0468 76.8976 38.0468 72.737C38.0468 67.2714 36.0208 53.3358 35.3913 48.7917C35.3169 48.2652 35.2654 47.6929 35.2196 47.092C35.5115 46.886 35.832 46.5655 36.0838 46.0847C36.679 44.9401 37.9152 45.667 38.2643 46.348C38.6191 47.029 38.7278 47.5842 38.7278 47.5842C38.7278 47.5842 39.2372 45.9073 38.064 44.7398C36.8965 43.5723 36.2097 44.8944 35.5973 46.1076C35.46 46.3823 35.3226 46.5998 35.1967 46.7772C34.922 42.2331 35.4027 36.2983 35.4027 36.2983C27.9742 49.1237 39.2315 78.6832 31.5683 90.1064C43.8099 93.9294 50.0995 92.5616 58.4494 88.8073C46.1163 59.6312 53.7909 54.7437 51.4215 37.649C51.1182 37.214 50.8149 36.7791 50.5058 36.3441Z" fill="#C4C2CC"/>
<path d="M64.8249 97.6496C64.8249 97.6496 64.3842 98.4452 64.3041 98.6569C64.0637 99.2864 63.3369 101.644 63.3369 101.644L59.2106 94.0098L60.4239 93.0884L64.8249 97.6496Z" fill="#825740"/>
<path d="M59.5082 93.7808L59.0275 95.12C59.0275 95.12 61.2137 96.2932 61.9405 96.6766C62.9191 97.1802 64.7448 97.9643 64.7448 97.9643C64.7448 97.9643 65.0653 97.1631 65.134 96.8769C65.1855 96.6823 65.4888 95.6808 65.4888 95.6808L59.5025 93.7808H59.5082Z" fill="#C4C2CC"/>
<path d="M22.3714 108.192C22.3714 108.192 26.326 111.952 27.854 110.91C31.1849 108.644 34.241 97.2491 35.0422 88.7676C33.3653 94.1987 30.1318 105.439 28.226 107.768C26.3203 110.097 22.3771 108.197 22.3771 108.197L22.3714 108.192Z" fill="#192233"/>
<path d="M35.397 36.3271C35.397 36.3271 32.0147 39.2287 28.8842 40.1215C19.4698 42.7942 18.0104 44.9289 17.5526 54.2975C17.4267 56.8557 17.3179 59.0362 17.1462 61.0736C17.0318 61.8061 16.9173 62.4757 16.8429 63.0595C16.717 64.0725 16.4423 66.0812 16.242 67.0771C15.8986 68.7882 15.5896 70.3564 15.3092 71.8444C13.7639 77.8078 13.2889 80.9612 13.0142 85.5453C12.7281 90.1924 12.1157 102.491 12.1157 102.491C13.7582 102.457 17.1978 102.646 18.6056 102.949C18.6056 102.949 20.9349 91.131 21.6675 87.5999C22.2798 84.6582 24.0883 76.9035 24.0883 76.9035L26.4119 68.9886C26.4119 68.9886 26.3603 72.7486 26.4119 73.3323C26.532 74.7345 26.3432 77.5617 26.0456 78.9352C25.8167 80.0169 25.3188 82.9299 24.9868 83.9887C24.2714 86.255 23.4988 90.7476 23.1039 93.0883C22.4801 96.7911 21.6675 107.482 21.6675 107.482C21.6675 107.482 25.6221 111.242 27.1501 110.2C30.5038 107.917 32.6958 99.1833 35.2711 87.7659C36.41 82.701 36.8278 72.2164 36.5302 67.4433C36.2612 63.111 34.6874 54.2803 34.3211 50.2628C34.0235 47.0063 35.397 36.3271 35.397 36.3271Z" fill="#23314B"/>
<path d="M50.5059 36.3442C50.5059 36.3442 48.2453 47.0807 48.1308 50.8636C48.0621 53.2158 47.9477 57.9316 48.0621 60.2837C48.2224 63.6775 48.3654 71.169 49.2697 74.4425C49.9507 76.9092 52.011 80.5948 53.8538 82.4376C57.4536 86.0374 58.3235 94.3015 58.3235 94.3015C61.2709 95.6464 63.583 96.6708 65.2713 97.3862C65.2713 97.3862 67.034 92.6017 69.5293 87.5998C71.7326 83.1816 74.3137 75.0892 74.474 72.8687C74.5255 72.2105 72.5854 66.2357 70.6281 60.4268C68.4877 54.0685 67.6693 47.178 66.1012 44.9803C64.7505 43.086 54.1343 38.8051 50.5059 36.35V36.3442ZM59.2049 75.7188C58.6669 71.6554 60.5841 62.1952 60.5841 62.1952C60.5841 62.1952 61.992 66.333 63.1595 69.4578C64.4644 72.9488 64.865 74.4998 64.8192 74.9118C64.6933 76.0278 63.6918 79.2098 62.5987 82.4662C61.4312 81.3045 59.4224 77.3613 59.2049 75.7188Z" fill="#23314B"/>
<path d="M30.7041 39.9268C30.2978 40.8024 26.1657 47.8703 26.12 48.5514C26.3661 49.5472 29.0616 55.1729 30.2119 57.651C29.2104 54.3259 27.7682 49.9821 27.917 48.6372C28.0601 47.3667 29.9372 42.2045 30.6984 39.9268H30.7041Z" fill="#35496E"/>
<path d="M64.8249 74.9116C63.5945 81.1955 60.5155 86.9357 59.1133 94.5417C61.0878 89.637 65.174 79.616 64.8249 74.9116Z" fill="#182234"/>
<path fill-rule="evenodd" clip-rule="evenodd" d="M57.2705 48.1909L53.2415 49.1581L57.2762 49.1352C56.6066 51.5274 52.715 65.692 50.7176 73.5211C52.9782 66.6992 58.2491 48.6316 58.2491 48.6316C58.2491 48.6316 57.2133 42.9886 53.3216 38.4331C55.565 41.5007 56.6238 44.511 57.2762 48.1909H57.2705Z" fill="#182234"/>
<path fill-rule="evenodd" clip-rule="evenodd" d="M26.0685 48.1907L30.0975 49.1579L26.0627 49.135C26.7323 51.5273 33.4054 64.0893 35.4027 71.9242C33.1421 65.1023 25.0898 48.6371 25.0898 48.6371C25.0898 48.6371 26.3317 44.94 30.5954 39.9839C28.3519 43.0514 26.7838 45.6669 26.0627 48.1965L26.0685 48.1907Z" fill="#182234"/>
<path d="M30.0345 40.0815C20.1165 43.6813 18.9547 44.1678 18.4625 54.3205C18.3366 56.873 18.2279 59.0534 18.0562 61.0908C17.9418 61.8177 17.8273 62.493 17.7529 63.0767C17.627 64.0897 17.3523 66.0985 17.152 67.0886C16.8086 68.7941 16.4995 70.3622 16.2191 71.8502C16.0303 72.5827 15.8528 73.2752 15.6926 73.9333C16.7056 75.5415 19.796 55.7455 20.2081 50.9668C20.6831 45.4669 24.5461 42.5596 28.0944 41.0831C28.8728 40.7569 29.508 40.4192 30.0288 40.0873L30.0345 40.0815Z" fill="#35496E"/>
<path fill-rule="evenodd" clip-rule="evenodd" d="M34.0864 92.9049C39.6321 95.8466 48.7432 94.6161 57.9859 91.4971L58.2606 92.1152C51.3643 94.9996 40.7481 97.0656 33.8747 93.8035L34.0922 92.9049H34.0864Z" fill="#192233"/>
<path d="M70.0386 60.2435C68.6422 54.3431 66.8051 46.3652 65.7349 44.963C64.8192 43.7612 57.8657 40.6765 54.512 39.0854C54.512 39.0854 63.0851 44.0702 64.4071 45.2778C65.7292 46.4853 67.8295 53.1699 70.0443 60.2435H70.0386Z" fill="#35496E"/>
<path fill-rule="evenodd" clip-rule="evenodd" d="M50.4086 20.6344C50.4086 20.6344 51.4959 20.3711 51.6905 20.7774C51.8851 21.1895 52.1541 23.0037 51.8965 24.1082C51.6447 25.2128 50.5802 26.7637 50.0938 26.7637C49.6073 26.7637 49.5844 26.6092 49.5844 26.6092C49.4299 27.2903 49.2124 28.7153 49.0407 29.5051C48.1708 32.0232 45.2979 34.2495 43.4264 34.4784C42.568 34.6158 41.6866 34.6329 40.8396 34.4154C39.2315 34.0377 36.6561 31.7371 35.7175 29.4707C35.46 28.9042 35.1967 27.193 35.0765 26.6092C35.0765 26.6092 35.0536 26.7637 34.5672 26.7637C34.0807 26.7637 33.0162 25.2128 32.7644 24.1082C32.5126 23.0037 32.7759 21.1895 32.9704 20.7774C33.165 20.3654 34.2524 20.6344 34.2524 20.6344C33.0448 14.5794 34.6874 9.42864 42.4077 9.47442C50.048 9.52021 51.4559 14.8884 50.4028 20.6344H50.4086Z" fill="#825740"/>
<path fill-rule="evenodd" clip-rule="evenodd" d="M34.4298 23.6332C34.4298 23.6332 33.8747 23.4215 34.012 22.7576C34.1494 22.0937 34.1895 21.6416 33.8575 21.5386C33.5256 21.4413 33.1421 22.626 33.2337 23.576C33.3196 24.526 34.1036 25.6477 34.1036 25.6477C34.1036 25.6477 33.1193 24.6176 33.0964 23.1353C33.0792 21.6531 33.3711 21.1094 33.7717 21.1094C34.1723 21.1094 34.3669 21.6416 34.3669 21.7389C34.3669 21.8362 34.241 22.7118 34.4356 23.6332H34.4298ZM49.9851 23.6332C49.9851 23.6332 50.6432 23.4215 50.483 22.7576C50.3227 22.0937 50.2769 21.6416 50.6661 21.5386C51.061 21.4413 51.5074 22.626 51.4044 23.576C51.3014 24.526 50.3742 25.6477 50.3742 25.6477C50.3742 25.6477 51.5417 24.6176 51.5646 23.1353C51.5875 21.6531 51.2384 21.1094 50.7691 21.1094C50.2941 21.1094 50.0652 21.6416 50.0652 21.7389C50.0652 21.8362 50.214 22.7118 49.9851 23.6332Z" fill="#5F3722"/>
<path fill-rule="evenodd" clip-rule="evenodd" d="M35.0822 26.6378V26.6035C35.0822 26.6035 35.0593 26.758 34.5729 26.758C34.487 26.758 34.3897 26.7122 34.281 26.6321C34.344 26.6664 34.5042 26.7122 34.716 26.3974C34.9907 25.9854 35.191 24.3371 35.1738 25.0067C35.1624 25.333 35.1337 26.014 35.0822 26.6321V26.6378ZM49.5901 26.6378V26.6035C49.5901 26.6035 49.613 26.758 50.0995 26.758C50.1853 26.758 50.2826 26.7122 50.3914 26.6321C50.3284 26.6664 50.1682 26.7122 49.9564 26.3974C49.6817 25.9854 49.4814 24.3371 49.4986 25.0067C49.51 25.333 49.5386 26.014 49.5901 26.6321V26.6378Z" fill="#5F3722"/>
<path fill-rule="evenodd" clip-rule="evenodd" d="M42.671 29.2535C43.0544 29.1505 43.5294 29.0474 43.9472 29.2134C44.4222 29.4023 45.3952 29.5568 45.8072 29.4137C46.2193 29.2706 45.9446 29.0703 46.2021 29.1619C46.4539 29.2478 46.162 29.5053 45.79 29.5682C45.4181 29.6369 45.0403 30.0604 44.2906 29.883C43.5352 29.7056 43.3978 29.7857 42.8598 29.9288C42.4478 30.0375 42.0128 30.0375 41.6065 29.9288C41.0628 29.7857 40.9255 29.7056 40.1757 29.883C39.4203 30.0604 39.2257 29.6312 38.8537 29.5682C38.4817 29.4996 38.1841 29.2478 38.4417 29.1619C38.6935 29.0761 38.4188 29.2706 38.8366 29.4137C39.2486 29.5568 40.0384 29.3966 40.5191 29.2134C40.9255 29.0532 41.3947 29.1505 41.7725 29.2535C42.1616 29.3565 42.2875 29.3622 42.6824 29.2592L42.671 29.2535Z" fill="#5F3722"/>
<path fill-rule="evenodd" clip-rule="evenodd" d="M40.1414 30.7586C40.1414 30.7586 40.6908 31.1134 42.4306 31.0505C44.1704 30.9933 44.7198 30.6899 44.7198 30.6899C44.7198 30.6899 42.4821 32.2638 40.1357 30.7586H40.1414Z" fill="#5F3722"/>
<path fill-rule="evenodd" clip-rule="evenodd" d="M44.4108 24.938C44.4108 24.938 44.9717 25.27 44.9202 25.8308C44.8629 26.3917 44.0846 26.6149 44.2391 26.6263C44.3937 26.6378 45.1319 26.2601 45.1205 25.6019C45.109 24.938 44.4452 24.4001 44.4165 24.938H44.4108Z" fill="#5F3722"/>
<path fill-rule="evenodd" clip-rule="evenodd" d="M43.2891 26.1857C43.0773 26.1742 43.2147 26.0369 43.4608 25.911C43.7126 25.7908 44.2563 25.745 44.2048 25.9968C44.1476 26.2486 43.6954 26.1284 43.2891 26.1857Z" fill="#241714"/>
<path fill-rule="evenodd" clip-rule="evenodd" d="M41.3147 26.2599C41.3147 26.2599 40.7137 26.3401 40.3704 26.2371C40.027 26.134 40.027 25.9166 40.4104 25.8078C40.7881 25.6991 41.1315 25.7735 41.2918 25.991C41.452 26.2084 41.6924 26.5575 42.133 26.5747C42.5737 26.5919 42.6424 26.5175 42.6424 26.5175C42.6424 26.5175 42.0644 26.9467 41.3147 26.2599Z" fill="#241714"/>
<path fill-rule="evenodd" clip-rule="evenodd" d="M40.0727 24.938C40.0727 24.938 39.5119 25.27 39.5634 25.8308C39.6206 26.3917 40.3989 26.6149 40.2444 26.6263C40.0899 26.6378 39.3516 26.2601 39.3631 25.6019C39.3745 24.938 40.0384 24.4001 40.067 24.938H40.0727Z" fill="#5F3722"/>
<path d="M41.8125 24.8007C41.9737 24.8007 42.1044 24.7033 42.1044 24.5832C42.1044 24.4631 41.9737 24.3657 41.8125 24.3657C41.6513 24.3657 41.5207 24.4631 41.5207 24.5832C41.5207 24.7033 41.6513 24.8007 41.8125 24.8007Z" fill="#96664C"/>
<path fill-rule="evenodd" clip-rule="evenodd" d="M41.3261 24.4346C41.3261 24.4346 41.5321 24.1713 42.2017 24.1656C42.877 24.1599 43.3463 24.5147 43.3463 24.5147C43.3463 24.5147 42.402 24.0454 41.3261 24.4403V24.4346Z" fill="#96664C"/>
<path fill-rule="evenodd" clip-rule="evenodd" d="M43.7927 22.4428C43.7927 22.8491 43.4608 22.8376 43.375 22.3226C43.2891 21.8132 43.1632 21.1436 43.6726 20.9891C44.1819 20.8346 46.2079 20.7659 45.7786 20.9548C45.3494 21.1436 44.0674 21.1951 43.7927 22.4428Z" fill="#5F3722"/>
<path fill-rule="evenodd" clip-rule="evenodd" d="M44.5424 21.8191C44.0388 22.4544 44.159 22.0652 44.3822 21.7333C44.6054 21.4071 45.275 21.0522 46.2136 21.0522C47.1521 21.0522 48.188 21.6188 48.188 21.6188C46.9804 21.0236 45.2406 20.9321 44.5367 21.8134L44.5424 21.8191Z" fill="#5F3722"/>
<path fill-rule="evenodd" clip-rule="evenodd" d="M43.2948 20.6514C43.2948 20.6514 43.3807 21.3554 43.9873 21.2237C44.594 21.0921 45.1663 20.8403 46.4368 20.9376C47.7073 21.0349 48.2224 21.4755 48.2224 21.4755C48.2224 21.4755 48.3941 21.6186 48.4742 21.5442C48.5543 21.4641 48.3941 21.3039 48.3941 21.3039C48.3941 21.3039 46.2823 19.2607 43.2948 20.6571V20.6514Z" fill="#241714"/>
<path fill-rule="evenodd" clip-rule="evenodd" d="M45.0575 21.9735C45.0575 21.9735 44.7313 22.1394 44.7542 22.2768C44.7771 22.4142 44.9431 22.3855 45.0404 22.3741C45.1376 22.3626 45.275 22.3111 45.275 22.3111C45.275 22.3111 45.9446 22.5114 46.6714 22.3684C47.3983 22.2253 47.8046 21.7846 47.8046 21.7846C47.8046 21.7846 46.0705 20.6114 45.0632 21.9735H45.0575Z" fill="white"/>
<path fill-rule="evenodd" clip-rule="evenodd" d="M45.0575 21.9735C45.0575 21.9735 44.7313 22.1395 44.7542 22.2768C44.7771 22.4142 44.9431 22.3856 45.0404 22.3741C45.1376 22.3627 45.275 22.3112 45.275 22.3112C45.275 22.3112 45.9446 22.5115 46.6714 22.3684C47.3983 22.2253 47.8046 21.7847 47.8046 21.7847C47.8046 21.7847 47.7416 21.7446 47.6329 21.6816C47.5299 21.9277 47.1751 22.3169 46.2823 22.3455C45.5039 22.3684 45.1834 22.1109 45.069 21.9678L45.0632 21.9735H45.0575Z" fill="#B07E63"/>
<path fill-rule="evenodd" clip-rule="evenodd" d="M47.6844 21.8874C47.7588 21.8245 47.7988 21.7787 47.7988 21.7787C47.7988 21.7787 46.2479 20.7314 45.2235 21.773C45.6355 21.5441 46.4768 21.2751 47.6787 21.8874H47.6844Z" fill="#ADA89F"/>
<path fill-rule="evenodd" clip-rule="evenodd" d="M46.9175 21.3896C46.5741 21.298 46.1678 21.2637 45.7786 21.4068C45.7443 21.4812 45.7271 21.567 45.7271 21.6528C45.7271 21.9962 46.0075 22.2767 46.3509 22.2767C46.6943 22.2767 46.9747 21.9962 46.9747 21.6528C46.9747 21.5613 46.9518 21.4697 46.9175 21.3896Z" fill="#625D54"/>
<path d="M46.3509 21.939C46.5089 21.939 46.6371 21.8109 46.6371 21.6529C46.6371 21.4948 46.5089 21.3667 46.3509 21.3667C46.1929 21.3667 46.0648 21.4948 46.0648 21.6529C46.0648 21.8109 46.1929 21.939 46.3509 21.939Z" fill="#241714"/>
<path d="M46.5455 21.7272C46.6056 21.7272 46.6542 21.6786 46.6542 21.6185C46.6542 21.5584 46.6056 21.5098 46.5455 21.5098C46.4855 21.5098 46.4368 21.5584 46.4368 21.6185C46.4368 21.6786 46.4855 21.7272 46.5455 21.7272Z" fill="white"/>
<path fill-rule="evenodd" clip-rule="evenodd" d="M45.0575 21.9733C45.0575 21.9733 45.3208 21.3723 46.0877 21.275C46.8546 21.1777 47.444 21.4181 47.6901 21.5497C47.9419 21.6814 47.9992 21.6985 48.0564 21.6985C48.1136 21.6985 48.1365 21.6757 48.1365 21.6757C48.1365 21.6757 48.1194 21.7558 47.9934 21.7901C47.8675 21.8245 47.7989 21.7787 47.7989 21.7787C47.7989 21.7787 47.0148 21.3323 46.328 21.338C45.6355 21.3494 45.2578 21.71 45.0575 21.9675V21.9733Z" fill="#241714"/>
<path fill-rule="evenodd" clip-rule="evenodd" d="M40.874 22.4428C40.874 22.8491 41.2059 22.8376 41.2918 22.3226C41.3776 21.8132 41.5035 21.1436 40.9942 20.9891C40.4848 20.8346 38.4589 20.7659 38.8881 20.9548C39.3173 21.1436 40.5993 21.1951 40.874 22.4428Z" fill="#5F3722"/>
<path fill-rule="evenodd" clip-rule="evenodd" d="M40.1242 21.8191C40.6279 22.4544 40.5077 22.0652 40.2845 21.7333C40.0613 21.4071 39.3917 21.0522 38.4531 21.0522C37.5145 21.0522 36.4787 21.6188 36.4787 21.6188C37.6862 21.0236 39.426 20.9321 40.13 21.8134L40.1242 21.8191Z" fill="#5F3722"/>
<path fill-rule="evenodd" clip-rule="evenodd" d="M41.3662 20.6514C41.3662 20.6514 41.2803 21.3554 40.6737 21.2237C40.067 21.0921 39.4947 20.8403 38.2242 20.9376C36.9537 21.0349 36.4386 21.4755 36.4386 21.4755C36.4386 21.4755 36.2669 21.6186 36.1868 21.5442C36.1067 21.4641 36.2669 21.3039 36.2669 21.3039C36.2669 21.3039 38.3787 19.2607 41.3662 20.6571V20.6514Z" fill="#241714"/>
<path fill-rule="evenodd" clip-rule="evenodd" d="M39.6092 21.9735C39.6092 21.9735 39.9354 22.1394 39.9125 22.2768C39.8896 22.4142 39.7236 22.3855 39.6263 22.3741C39.5291 22.3626 39.3917 22.3111 39.3917 22.3111C39.3917 22.3111 38.7221 22.5114 37.9953 22.3684C37.2685 22.2253 36.8621 21.7846 36.8621 21.7846C36.8621 21.7846 38.5962 20.6114 39.6035 21.9735H39.6092Z" fill="white"/>
<path fill-rule="evenodd" clip-rule="evenodd" d="M39.6092 21.9735C39.6092 21.9735 39.9354 22.1395 39.9125 22.2768C39.8896 22.4142 39.7236 22.3856 39.6263 22.3741C39.5291 22.3627 39.3917 22.3112 39.3917 22.3112C39.3917 22.3112 38.7221 22.5115 37.9953 22.3684C37.2685 22.2253 36.8621 21.7847 36.8621 21.7847C36.8621 21.7847 36.9251 21.7446 37.0338 21.6816C37.1368 21.9277 37.4917 22.3169 38.3844 22.3455C39.1628 22.3684 39.4833 22.1109 39.5977 21.9678L39.6035 21.9735H39.6092Z" fill="#B07E63"/>
<path fill-rule="evenodd" clip-rule="evenodd" d="M36.9823 21.8874C36.9079 21.8245 36.8679 21.7787 36.8679 21.7787C36.8679 21.7787 38.4188 20.7314 39.4432 21.773C39.0312 21.5441 38.1899 21.2751 36.988 21.8874H36.9823Z" fill="#ADA89F"/>
<path fill-rule="evenodd" clip-rule="evenodd" d="M37.7435 21.3896C38.0869 21.298 38.4932 21.2637 38.8824 21.4068C38.9167 21.4812 38.9339 21.567 38.9339 21.6528C38.9339 21.9962 38.6534 22.2767 38.3101 22.2767C37.9667 22.2767 37.6862 21.9962 37.6862 21.6528C37.6862 21.5613 37.7091 21.4697 37.7435 21.3896Z" fill="#625D54"/>
<path d="M38.31 21.939C38.4681 21.939 38.5962 21.8109 38.5962 21.6529C38.5962 21.4948 38.4681 21.3667 38.31 21.3667C38.152 21.3667 38.0239 21.4948 38.0239 21.6529C38.0239 21.8109 38.152 21.939 38.31 21.939Z" fill="#241714"/>
<path d="M38.1155 21.7272C38.1755 21.7272 38.2242 21.6786 38.2242 21.6185C38.2242 21.5584 38.1755 21.5098 38.1155 21.5098C38.0554 21.5098 38.0067 21.5584 38.0067 21.6185C38.0067 21.6786 38.0554 21.7272 38.1155 21.7272Z" fill="white"/>
<path fill-rule="evenodd" clip-rule="evenodd" d="M39.6092 21.9733C39.6092 21.9733 39.3459 21.3723 38.579 21.275C37.8121 21.1777 37.2227 21.4181 36.9766 21.5497C36.7248 21.6814 36.6675 21.6985 36.6103 21.6985C36.5531 21.6985 36.5302 21.6757 36.5302 21.6757C36.5302 21.6757 36.5474 21.7558 36.6733 21.7901C36.7992 21.8245 36.8678 21.7787 36.8678 21.7787C36.8678 21.7787 37.6519 21.3323 38.3387 21.338C39.0311 21.3494 39.4089 21.71 39.6092 21.9675V21.9733Z" fill="#241714"/>
</g>
<defs>
<clipPath id="clip0">
<rect width="84.6667" height="211.667" fill="white"/>
</clipPath>
</defs>
</svg>
