<svg width="85" height="212" viewBox="0 0 85 212" fill="none" xmlns="http://www.w3.org/2000/svg">
<path fill-rule="evenodd" clip-rule="evenodd" d="M36.6367 192.086C36.6367 192.086 36.9228 192.938 37.0778 194.292C37.2329 195.645 37.2209 196.265 37.2209 196.265C37.2209 196.265 36.5413 197.267 35.0865 197.833C33.6318 198.4 32.8329 198.406 32.8329 198.406L31.3841 198.149C31.3841 198.149 30.8118 198.68 29.7088 200.308C28.6058 201.935 27.0438 203.002 24.7842 203.306C22.5245 203.611 18.3988 203.515 17.4151 203.08C16.4314 202.645 15.549 201.53 15.5371 201.178C15.5251 200.826 15.1793 199.974 16.4433 198.817C17.7072 197.66 23.9495 194.393 25.2671 192.092C26.5847 189.791 35.7722 189.683 36.6367 192.098V192.086Z" fill="#424852"/>
<path fill-rule="evenodd" clip-rule="evenodd" d="M36.1955 195.299C36.1955 195.299 34.3174 196.104 32.9879 196.873C31.6524 197.648 31.1516 197.988 30.2632 198.906C29.3749 199.824 28.3375 201.685 26.2806 202.358C24.2237 203.032 18.8996 203.187 17.8861 202.752C16.8725 202.317 16.0796 201.273 16.0796 201.273C16.0796 201.273 17.4449 202.621 19.1202 202.656C20.8015 202.692 24.7841 202.424 26.0064 202.036C27.2345 201.649 28.5044 200.814 29.9711 198.453C31.4378 196.092 35.3071 195.424 36.2014 195.299H36.1955ZM22.7988 200.665C22.7988 200.665 20.9923 200.778 18.9294 200.17C16.8666 199.562 17.1945 198.662 17.1945 198.662C17.1945 198.662 15.9544 200.182 18.2259 200.892C20.4974 201.601 22.7988 200.665 22.7988 200.665ZM26.686 193.695C26.686 193.695 26.2568 194.107 26.531 194.518C26.8053 194.93 27.5267 197.517 27.5267 197.517C27.5267 197.517 26.531 195.508 26.1554 194.858C25.7858 194.214 25.7321 193.874 25.7977 193.654C25.8633 193.433 25.905 193.314 25.905 193.314C25.905 193.314 26.3581 193.248 26.6801 193.695H26.686Z" fill="#58606D"/>
<path fill-rule="evenodd" clip-rule="evenodd" d="M60.5801 191.03C60.5801 191.03 62.8219 195.538 63.0782 196.325C63.3346 197.112 63.4061 199.818 63.4061 199.818C63.4061 199.818 63.6088 203.521 59.6143 203.759C55.6138 203.998 53.9384 201.679 53.8192 199.741C53.7 197.803 53.4794 195.162 52.8712 193.886C52.2631 192.616 52.2631 192.616 52.2631 192.616C52.2631 192.616 51.8219 190.249 52.2989 189.349C52.7758 188.449 59.6143 190.249 60.5742 191.036L60.5801 191.03Z" fill="#424852"/>
<path fill-rule="evenodd" clip-rule="evenodd" d="M62.4522 199.705C62.4522 199.705 62.1958 202.102 59.3698 202.322C56.5438 202.549 55.2203 200.48 55.0533 199.663C54.8804 198.847 55.4766 201.148 58.1357 201.285C60.7948 201.422 61.9752 200.432 62.4522 199.705ZM58.2192 192.58C58.2192 192.58 58.869 194.16 59.501 194.619C60.133 195.079 61.54 195.412 61.54 195.412C61.54 195.412 59.6322 194.673 59.346 193.922C59.0598 193.165 58.8511 192.586 58.8511 192.586C58.8511 192.586 58.6305 192.08 58.2192 192.58ZM55.9238 192.741C55.9238 192.741 56.3352 193.815 56.1801 194.5C56.0251 195.186 55.2501 196.098 55.2501 196.098C55.2501 196.098 56.5319 194.959 56.6571 194.19C56.7823 193.421 56.514 192.813 56.514 192.813C56.514 192.813 56.2577 192.604 55.9238 192.747V192.741Z" fill="#58606D"/>
<path fill-rule="evenodd" clip-rule="evenodd" d="M59.1254 86.3018C59.1254 86.3018 62.6191 90.8746 63.4657 104.426C64.3123 117.972 60.8782 137.635 60.8782 137.635L60.2164 182.904L60.5682 191.019C60.5682 191.019 56.7227 192.056 54.7373 192.134C52.752 192.211 51.9173 191.961 51.9173 191.961C51.9173 191.961 50.713 188.801 50.8143 187.626C50.9157 186.446 51.0767 181.259 50.868 180.233C50.7487 179.643 48.2268 165.626 47.1238 155.253C46.313 147.615 46.8019 143.12 46.8555 141.462C46.9867 137.557 46.6946 136.019 46.6171 135.411C46.5336 134.803 44.1369 115.385 44.1369 115.385C44.0594 117.03 39.1526 141.319 40.1602 147.878C41.1678 154.436 39.5163 171.821 37.841 179.965C36.1597 188.109 36.5234 188.139 36.5234 188.139L36.8393 192.867C36.8393 192.867 34.1266 194.024 30.609 193.594C27.0855 193.165 25.5353 191.609 25.5353 191.609C25.5353 191.609 26.9722 189.534 26.996 187.465C27.0199 185.397 26.1912 144.378 26.0362 142.315C25.8811 140.252 22.1668 116.517 23.0492 105.344C23.9316 94.1716 27.3001 85.9321 27.3001 85.9321C27.3001 85.9321 51.6371 86.3733 59.1314 86.3197L59.1254 86.3018Z" fill="#23314B"/>
<path fill-rule="evenodd" clip-rule="evenodd" d="M40.8637 95.2387C40.8637 95.2387 40.7326 106.459 40.822 107.693C40.9114 108.928 43.5586 110.782 43.5586 110.782C43.5586 110.782 41.6209 108.093 41.7044 107.431C41.7938 106.769 41.9667 95.1493 41.9667 95.1493C41.9667 95.1493 41.4361 95.0599 40.8637 95.2387Z" fill="#192233"/>
<path d="M16.2286 103.752C16.2286 103.752 17.9874 105.255 17.9576 107.914C17.9517 108.594 17.4449 109.887 17.2481 110.531C17.1349 110.901 16.8666 111.628 16.8487 112.01C16.8129 112.594 17.1051 113.751 17.0752 114.335C17.0335 115.062 16.5267 116.917 15.7994 116.964C15.078 117.012 14.5593 115.098 14.5056 114.377C14.4579 113.727 15.227 112.171 14.7143 111.771C14.5354 111.634 14.1419 111.903 13.9571 112.022C13.8021 112.123 13.4503 112.35 13.3848 112.523C13.2894 112.755 13.188 113.208 13.1105 113.405C13.0807 113.488 12.8064 113.965 12.878 114.258C13.027 114.854 13.2774 116.857 13.2774 116.857C13.2774 116.857 14.2194 117.34 14.6308 117.781C14.8216 117.99 15.7815 118.312 16.014 118.461C16.3658 118.681 16.8904 119.462 16.6341 119.79C16.2704 120.243 14.5473 119.844 13.9392 119.474C13.0866 118.962 11.5783 118.359 11.2325 117.632C10.9045 116.934 10.6601 114.687 10.4335 114.043C10.2487 113.506 10.1712 113.327 10.0102 112.737C9.83735 112.111 10.4395 109.81 10.9463 107.932C11.3577 106.4 12.4189 103.854 12.4189 103.854L16.2465 103.752H16.2286Z" fill="#825740"/>
<path d="M16.8845 115.343C16.9739 115.498 17.0931 115.724 17.1527 115.82C17.3078 116.088 17.8086 116.583 17.7788 116.893C17.7668 117.03 17.421 117.31 17.421 117.31C17.421 117.31 18.363 118.228 18.3571 118.634C18.3571 118.765 18.0411 119.051 18.0411 119.051C18.0411 119.051 18.0411 119.731 17.8801 119.85C17.6655 120.011 17.0514 119.904 16.6162 119.796L16.6281 119.784C16.8845 119.456 16.3598 118.675 16.008 118.455C15.7755 118.306 14.8156 117.984 14.6248 117.775C14.2969 117.417 13.5219 117.036 13.2655 116.899V116.797C13.2238 116.475 13.0032 114.788 12.872 114.252C12.8005 113.959 13.0747 113.482 13.1045 113.399C13.182 113.202 13.2894 112.749 13.3788 112.517C13.4503 112.344 13.7961 112.117 13.9511 112.016C14.136 111.897 14.5354 111.628 14.7083 111.765C15.227 112.165 14.4579 113.721 14.4996 114.371C14.5533 115.092 15.072 117.006 15.7934 116.958C16.2763 116.929 16.6639 116.1 16.8785 115.337L16.8845 115.343ZM12.401 103.854C12.401 103.854 12.1685 104.438 12.0791 104.647C11.9837 104.879 11.8048 105.344 11.8048 105.344C11.8048 105.344 13.7842 105.225 14.4698 105.225C16.0378 105.225 17.6059 105.857 17.6059 105.857C17.6059 105.857 17.4091 105.338 17.1587 104.903C16.9381 104.522 16.479 103.848 16.479 103.848L14.3089 103.609L12.3951 103.854H12.401Z" fill="#5F3722"/>
<path d="M12.0314 102.131L11.9479 104.307C11.9479 104.307 14.0465 104.253 14.7799 104.319C17.2422 104.54 17.9755 104.921 17.9755 104.921L18.4286 102.137L12.0314 102.131Z" fill="#C4C2CC"/>
<path d="M35.9093 28.315C41.7998 28.315 42.5092 27.7427 48.5249 27.7427C48.3818 28.947 48.8051 35.9285 51.9829 36.7274L48.8409 43.8401L46.6409 59.0731L35.1581 48.7946L32.9581 37.5144C36.5532 35.1535 36.2312 30.3779 35.9093 28.321V28.315Z" fill="#825740"/>
<path d="M35.9093 28.315C41.7997 28.315 42.5092 27.7427 48.5249 27.7427C48.4772 28.166 48.4593 29.2153 48.513 30.4494C46.7005 35.1773 40.0171 37.1865 35.5992 33.9909C36.3624 31.8505 36.0822 29.424 35.9152 28.315H35.9093ZM49.9439 34.9269C50.3433 35.8212 50.7607 35.9405 51.029 36.2624L48.8409 43.8461L47.4219 53.6834C46.7482 55.2693 45.9851 56.6883 45.1623 57.7495L35.48 49.0808C35.3369 48.6575 35.2058 48.2342 35.0746 47.8049L33.2383 37.3117C34.2041 36.5009 34.7347 35.9405 35.2713 34.7898C35.2713 34.7898 35.0448 37.0077 35.5456 38.528C36.5234 41.509 37.5071 41.9383 38.0019 43.1128C39.0691 45.6407 39.3971 46.5588 39.242 47.3697C39.087 48.1865 39.3076 48.6455 39.7071 49.3312C40.1065 50.0168 41.6686 52.2883 41.758 51.865C41.8474 51.4477 42.0859 49.1762 43.1889 47.632C44.2919 46.0878 45.5677 45.0325 45.1087 44.1263C44.6436 43.2201 44.7986 42.5046 45.6572 41.1513C46.5157 39.7979 49.3715 36.7751 49.9379 34.915L49.9439 34.9269ZM41.919 37.1746C41.919 37.1746 41.7878 38.212 42.0978 38.8738C42.4079 39.5356 42.8908 39.2017 42.8908 39.2017C42.8908 39.2017 42.0502 38.7665 41.919 37.1746Z" fill="#5F3722"/>
<path d="M32.0817 90.2006C42.551 93.2353 50.2658 92.9849 58.0701 88.3703C56.4783 84.5426 55.1249 81.2814 53.533 77.4538C48.5011 63.3119 51.9829 44.5077 52.6029 37.8719C52.1319 37.3175 51.8219 36.8107 51.6252 36.4172C51.4761 36.1191 51.0469 34.9446 50.5043 35.7435C50.0512 38.5158 45.1862 41.6995 45.1266 42.5044C44.8702 43.5716 45.9255 43.5358 45.8062 44.1499C45.5856 45.3483 43.9938 47.2561 43.4572 48.3353C42.8014 49.6588 42.2588 54.4702 42.2588 54.4702C42.2588 54.4702 40.3033 51.6144 39.8442 50.9586C37.8708 47.9835 38.771 48.383 38.7472 46.7732C38.7412 46.2545 38.7293 45.9207 38.3 44.4063C37.8946 42.9754 34.9375 40.3939 34.4545 36.1072C34.4307 35.9164 33.7928 36.0714 33.7093 36.5185C28.2183 49.1461 41.3705 76.2733 32.0697 90.1946L32.0817 90.2006Z" fill="#F2F1F6"/>
<path d="M51.6729 36.4235C51.6729 36.4235 49.2523 40.6506 48.346 45.3845C48.2507 44.7167 47.9406 43.5899 47.9108 43.2381C47.7916 41.6403 47.0344 41.3422 46.5157 41.3303C45.8718 41.3184 45.21 42.0278 45.0908 42.6658C45.0431 42.9221 45.1206 43.1726 45.2637 43.3932C45.1325 43.0831 45.1385 42.7314 45.6572 42.0457C46.1759 41.3601 47.3921 42.1471 47.5531 42.8268C47.7558 43.6972 48.191 45.0267 48.3282 45.4799C47.887 47.7812 47.4816 50.1779 47.2431 52.2289C46.5753 57.9405 47.1298 69.6916 48.6143 75.1588C49.8664 79.7615 54.3379 84.9604 54.7671 89.098C49.6279 92.2519 41.6268 92.7766 35.9689 89.9446C36.273 86.4867 37.8171 76.8938 37.8171 72.7323C37.8171 67.2651 35.79 53.3318 35.164 48.7888C35.0925 48.2641 35.0388 47.6918 34.9971 47.0896C35.2892 46.8809 35.6112 46.5649 35.8616 46.082C36.4578 44.9373 37.6919 45.6647 38.0437 46.3444C38.3954 47.03 38.5087 47.5785 38.5087 47.5785C38.5087 47.5785 39.0155 45.9032 37.8469 44.7346C36.6784 43.566 35.9927 44.8896 35.3786 46.0999C35.2415 46.3742 35.1044 46.5948 34.9792 46.7677C34.7049 42.2246 33.7272 36.513 33.7272 36.513C33.5841 36.7634 33.0594 37.0197 32.9342 37.2821C26.3879 50.488 38.8664 78.891 31.3483 90.0937C43.5943 93.9153 49.8783 92.55 58.2311 88.794C45.8957 59.6158 54.9579 54.8104 52.591 37.7173C52.2869 37.2821 51.9829 36.8468 51.6788 36.4116L51.6729 36.4235Z" fill="#C4C2CC"/>
<path d="M64.6045 97.6475C64.6045 97.6475 64.1633 98.4464 64.0858 98.6551C63.8414 99.287 63.114 101.642 63.114 101.642L58.9883 94.0047L60.2045 93.0806L64.6045 97.6415V97.6475Z" fill="#825740"/>
<path d="M59.2864 93.7778L58.8094 95.1133C58.8094 95.1133 60.9915 96.2878 61.7248 96.6694C62.7086 97.1702 64.527 97.9572 64.527 97.9572C64.527 97.9572 64.8489 97.1523 64.9205 96.8721C64.9682 96.6754 65.2723 95.6797 65.2723 95.6797L59.2864 93.7778Z" fill="#C4C2CC"/>
<path d="M22.1489 108.194C22.1489 108.194 26.1017 111.95 27.634 110.907C30.9608 108.642 34.0253 97.2422 34.8182 88.7642C33.1369 94.1956 29.9055 105.434 27.9977 107.765C26.0898 110.096 22.1489 108.194 22.1489 108.194Z" fill="#192233"/>
<path d="M33.5185 36.7276C22.7332 43.5303 15.1912 38.0929 14.6904 52.2885C14.0584 70.27 11.465 86.9696 11.7869 102.495C11.8227 104.134 16.8725 102.65 18.2855 102.948C20.414 91.3517 23.8779 83.2612 25.6307 68.9882C25.6307 75.4033 28.3315 81.4488 26.4177 87.7983C23.5679 97.2362 21.9343 101.893 21.4096 107.485C21.4096 107.485 25.4101 111.241 26.9305 110.198C30.2573 107.914 32.3321 99.1798 34.7467 87.7626C35.8198 82.7008 36.0941 72.2136 35.7304 67.438C35.4025 63.1036 33.7093 54.2739 33.2919 50.2555C32.9521 47.0002 33.5245 36.7217 33.5245 36.7217L33.5185 36.7276Z" fill="#23314B"/>
<path d="M51.81 36.6084C51.81 36.6084 48.9303 47.0777 48.7515 50.8636C48.6382 53.2186 48.4414 57.9286 48.513 60.2836C48.6084 63.6819 48.6203 71.1702 49.4669 74.4434C50.1048 76.9117 52.0962 80.5962 53.9086 82.4385C57.4441 86.0336 58.1595 94.3029 58.1595 94.3029C61.0869 95.6444 63.3763 96.6758 65.0516 97.3853C65.0516 97.3853 66.8999 92.6037 69.4874 87.5956C71.7708 83.1778 74.4955 75.0873 74.6982 72.8635C74.7578 72.2017 74.4776 65.9594 72.6592 59.9438C70.7275 53.5525 71.6635 47.5785 69.076 44.3113C65.9996 40.4241 55.3932 39.0648 51.81 36.6084ZM60.9975 62.1914C60.9975 62.1914 62.333 66.3291 63.4419 69.4591C64.682 72.9469 65.0576 74.4971 65.0039 74.9144C64.8609 76.0293 62.3091 83.303 61.1584 86.5582C56.9194 80.0238 59.4831 68.4277 60.9975 62.1974V62.1914Z" fill="#23314B"/>
<path d="M29.5299 39.9292C29.1364 40.8056 25.0942 47.8706 25.0644 48.5562C25.3207 49.5519 28.0931 55.1801 29.2795 57.6543C28.2302 54.3334 26.7337 49.9812 26.8649 48.6397C26.9901 47.3698 28.7966 42.2067 29.5299 39.9292Z" fill="#35496E"/>
<path d="M64.9861 75.0332C63.7519 81.3172 60.288 86.9334 58.8869 94.541C60.8603 89.6402 65.3319 79.7313 64.9861 75.0332Z" fill="#182234"/>
<path fill-rule="evenodd" clip-rule="evenodd" d="M57.933 48.1926L53.8848 49.1584L57.9151 49.1346C57.2056 51.5253 53.056 65.6911 50.9157 73.5192C53.3005 66.6987 58.8929 48.6278 58.8929 48.6278C58.8929 48.6278 57.9568 42.9817 54.1531 38.4268C56.3411 41.4972 57.3427 44.508 57.933 48.1866V48.1926Z" fill="#182234"/>
<path fill-rule="evenodd" clip-rule="evenodd" d="M25.0047 48.1926L29.047 49.1585L25.0167 49.1346C25.7142 51.5254 32.5646 64.0874 34.6692 71.9215C32.3201 65.1009 24.0449 48.6338 24.0449 48.6338C24.0449 48.6338 25.2373 44.9374 29.4345 39.9829C27.2286 43.0534 25.6963 45.6647 25.0107 48.1926H25.0047Z" fill="#182234"/>
<path d="M25.2551 40.6089C17.1587 42.7016 15.5013 44.1146 15.1435 54.2619C14.8812 61.786 15.1793 61.7145 14.1479 69.0835C15.4178 65.6911 16.4731 56.0505 16.8487 50.9113C17.3137 44.5438 20.1815 42.2544 25.2551 40.6089Z" fill="#35496E"/>
<path fill-rule="evenodd" clip-rule="evenodd" d="M33.8643 92.9017C39.409 95.8409 48.5189 94.6128 57.766 91.4946L58.0403 92.1147C51.1422 95.0003 40.5298 97.0632 33.6497 93.8019L33.8643 92.9017Z" fill="#192233"/>
<path d="M71.8722 57.994C70.5784 52.0975 70.3579 47.2564 68.7421 44.5615C67.508 42.4987 60.1568 40.1914 56.83 38.6055C56.83 38.6055 65.2782 42.5821 67.4066 44.8775C69.5291 47.1669 69.7855 50.917 71.8782 57.994H71.8722Z" fill="#35496E"/>
<path fill-rule="evenodd" clip-rule="evenodd" d="M50.4089 20.63C50.4089 20.63 51.494 20.3617 51.6907 20.7731C51.8875 21.1845 52.1558 22.9969 51.8994 24.1058C51.6431 25.2148 50.5818 26.7589 50.0989 26.7589C49.616 26.7589 49.5921 26.6039 49.5921 26.6039C49.4371 27.2836 49.2225 28.7085 49.0496 29.4955C48.1791 32.0115 45.3114 34.2413 43.4333 34.4678C42.5748 34.605 41.6924 34.6229 40.8458 34.4082C39.242 34.0267 36.6605 31.7313 35.7244 29.4597C35.4681 28.8934 35.2058 27.1823 35.0806 26.598C35.0806 26.598 35.0567 26.753 34.5738 26.753C34.0909 26.753 33.0237 25.2029 32.7732 24.0999C32.5169 22.9909 32.7852 21.1785 32.9819 20.7671C33.1787 20.3557 34.2638 20.624 34.2638 20.624C33.0535 14.5666 34.699 9.42138 42.4198 9.46908C50.0572 9.51678 51.4702 14.8826 50.4149 20.624L50.4089 20.63Z" fill="#825740"/>
<path fill-rule="evenodd" clip-rule="evenodd" d="M34.4307 23.6289C34.4307 23.6289 33.8762 23.4202 34.0134 22.7525C34.1505 22.0907 34.1863 21.6376 33.8583 21.5362C33.5245 21.4348 33.1429 22.6213 33.2323 23.5752C33.3218 24.5291 34.1028 25.644 34.1028 25.644C34.1028 25.644 33.119 24.6126 33.0952 23.134C33.0773 21.6495 33.3695 21.1069 33.7689 21.1069C34.1684 21.1069 34.3651 21.6376 34.3651 21.7389C34.3651 21.8403 34.2399 22.7107 34.4307 23.6289ZM49.9856 23.6289C49.9856 23.6289 50.6474 23.4202 50.4805 22.7525C50.3195 22.0907 50.2718 21.6376 50.6653 21.5362C51.0588 21.4348 51.5059 22.6213 51.4046 23.5752C51.3032 24.5291 50.3731 25.644 50.3731 25.644C50.3731 25.644 51.5417 24.6126 51.5655 23.134C51.5894 21.6495 51.2436 21.1069 50.7666 21.1069C50.2956 21.1069 50.0631 21.6376 50.0631 21.7389C50.0631 21.8403 50.2122 22.7107 49.9797 23.6289H49.9856Z" fill="#5F3722"/>
<path fill-rule="evenodd" clip-rule="evenodd" d="M35.0806 26.6396V26.6097C35.0806 26.6097 35.0567 26.7648 34.5738 26.7648C34.4903 26.7648 34.389 26.7171 34.2816 26.6396C34.3413 26.6753 34.5022 26.7171 34.7169 26.407C34.9971 25.9957 35.1938 24.3501 35.176 25.0179C35.164 25.3458 35.1342 26.0255 35.0865 26.6455L35.0806 26.6396ZM49.5862 26.6396V26.6097C49.5862 26.6097 49.61 26.7648 50.0929 26.7648C50.1764 26.7648 50.2778 26.7171 50.3851 26.6396C50.3255 26.6753 50.1645 26.7171 49.9498 26.407C49.6696 25.9957 49.4729 24.3501 49.4908 25.0179C49.5027 25.3458 49.5325 26.0255 49.5802 26.6455L49.5862 26.6396Z" fill="#5F3722"/>
<path fill-rule="evenodd" clip-rule="evenodd" d="M42.6702 29.2569C43.0518 29.1555 43.5287 29.0541 43.9461 29.2151C44.423 29.3999 45.3949 29.5609 45.8062 29.4178C46.2176 29.2747 45.9434 29.078 46.1997 29.1615C46.4561 29.2509 46.158 29.5013 45.7884 29.5669C45.4187 29.6325 45.0431 30.0617 44.2859 29.8829C43.5347 29.704 43.3976 29.7815 42.855 29.9246C42.4437 30.0319 42.0084 30.0319 41.597 29.9246C41.0545 29.7815 40.9174 29.704 40.1662 29.8829C39.4149 30.0617 39.2182 29.6325 38.8426 29.5669C38.4729 29.5013 38.1748 29.2449 38.4312 29.1615C38.6876 29.072 38.4074 29.2747 38.8247 29.4178C39.2361 29.5609 40.029 29.4059 40.506 29.2151C40.9114 29.0541 41.3824 29.1495 41.764 29.2509C42.1515 29.3523 42.2767 29.3642 42.6762 29.2569H42.6702Z" fill="#5F3722"/>
<path fill-rule="evenodd" clip-rule="evenodd" d="M40.1423 30.7594C40.1423 30.7594 40.6908 31.1112 42.4317 31.0516C44.1726 30.992 44.7212 30.6938 44.7212 30.6938C44.7212 30.6938 42.4854 32.2678 40.1364 30.7594H40.1423Z" fill="#5F3722"/>
<path fill-rule="evenodd" clip-rule="evenodd" d="M44.4111 24.9406C44.4111 24.9406 44.9715 25.2685 44.9179 25.8349C44.8642 26.3953 44.0772 26.6159 44.2323 26.6278C44.3873 26.6398 45.1266 26.2641 45.1146 25.6024C45.1027 24.9406 44.4409 24.398 44.4111 24.9406Z" fill="#5F3722"/>
<path fill-rule="evenodd" clip-rule="evenodd" d="M43.2903 26.1864C43.0816 26.1745 43.2128 26.0374 43.4632 25.9122C43.7136 25.7929 44.2621 25.7452 44.2025 25.9956C44.1488 26.252 43.6957 26.1268 43.2903 26.1804V26.1864Z" fill="#241714"/>
<path fill-rule="evenodd" clip-rule="evenodd" d="M41.3168 26.2581C41.3168 26.2581 40.7147 26.3416 40.3748 26.2343C40.035 26.1269 40.035 25.9123 40.4106 25.805C40.7922 25.6977 41.132 25.7692 41.293 25.9898C41.454 26.2044 41.6924 26.5562 42.1336 26.5741C42.5748 26.592 42.6404 26.5204 42.6404 26.5204C42.6404 26.5204 42.0621 26.9497 41.3109 26.2641L41.3168 26.2581Z" fill="#241714"/>
<path fill-rule="evenodd" clip-rule="evenodd" d="M40.0708 24.9406C40.0708 24.9406 39.5103 25.2685 39.564 25.8349C39.6176 26.3953 40.4046 26.6159 40.2496 26.6278C40.0946 26.6398 39.3553 26.2641 39.3672 25.6024C39.3792 24.9406 40.0409 24.398 40.0708 24.9406Z" fill="#5F3722"/>
<path d="M41.8117 24.7916C41.973 24.7916 42.1038 24.6955 42.1038 24.5769C42.1038 24.4584 41.973 24.3623 41.8117 24.3623C41.6503 24.3623 41.5195 24.4584 41.5195 24.5769C41.5195 24.6955 41.6503 24.7916 41.8117 24.7916Z" fill="#96664C"/>
<path fill-rule="evenodd" clip-rule="evenodd" d="M41.3228 24.4339C41.3228 24.4339 41.5255 24.1716 42.1992 24.1656C42.8729 24.1596 43.3439 24.5114 43.3439 24.5114C43.3439 24.5114 42.4019 24.0404 41.3228 24.4339Z" fill="#96664C"/>
<path fill-rule="evenodd" clip-rule="evenodd" d="M43.7911 22.4423C43.7911 22.8477 43.4572 22.8357 43.3737 22.323C43.2903 21.8103 43.1591 21.1425 43.6718 20.9875C44.1846 20.8325 46.2057 20.761 45.7764 20.9517C45.3472 21.1425 44.0653 21.1902 43.7911 22.4423Z" fill="#5F3722"/>
<path fill-rule="evenodd" clip-rule="evenodd" d="M44.5423 21.8164C44.0355 22.4543 44.1548 22.0608 44.3813 21.7329C44.6079 21.405 45.2756 21.0532 46.2117 21.0532C47.1537 21.0532 48.1851 21.6196 48.1851 21.6196C46.9808 21.0234 45.2339 20.934 44.5363 21.8164H44.5423Z" fill="#5F3722"/>
<path fill-rule="evenodd" clip-rule="evenodd" d="M43.2962 20.6536C43.2962 20.6536 43.3797 21.3572 43.9878 21.226C44.596 21.0948 45.1683 20.8444 46.4382 20.9398C47.7141 21.0352 48.2209 21.4764 48.2209 21.4764C48.2209 21.4764 48.3878 21.6195 48.4713 21.542C48.5488 21.4645 48.3938 21.3035 48.3938 21.3035C48.3938 21.3035 46.2832 19.2585 43.2962 20.6536Z" fill="#241714"/>
<path fill-rule="evenodd" clip-rule="evenodd" d="M45.055 21.9711C45.055 21.9711 44.7271 22.138 44.7509 22.2752C44.7748 22.4123 44.9417 22.3825 45.0371 22.3705C45.1325 22.3586 45.2696 22.305 45.2696 22.305C45.2696 22.305 45.9433 22.5077 46.6707 22.3646C47.3981 22.2215 47.8035 21.7803 47.8035 21.7803C47.8035 21.7803 46.0745 20.6058 45.061 21.9711H45.055Z" fill="white"/>
<path fill-rule="evenodd" clip-rule="evenodd" d="M45.055 21.9713C45.055 21.9713 44.7271 22.1383 44.7509 22.2754C44.7748 22.4125 44.9417 22.3827 45.0371 22.3708C45.1325 22.3589 45.2696 22.3052 45.2696 22.3052C45.2696 22.3052 45.9433 22.5079 46.6707 22.3648C47.3981 22.2217 47.8035 21.7806 47.8035 21.7806C47.8035 21.7806 47.7379 21.7388 47.6306 21.6792C47.5233 21.9236 47.1775 22.3171 46.2772 22.341C45.4962 22.3648 45.1802 22.1085 45.061 21.9654L45.055 21.9713Z" fill="#B07E63"/>
<path fill-rule="evenodd" clip-rule="evenodd" d="M47.6843 21.888C47.7618 21.8224 47.7975 21.7806 47.7975 21.7806C47.7975 21.7806 46.2474 20.7313 45.222 21.7747C45.6333 21.5481 46.474 21.2798 47.6783 21.888H47.6843Z" fill="#ADA89F"/>
<path fill-rule="evenodd" clip-rule="evenodd" d="M46.9211 21.3928C46.5753 21.3034 46.1699 21.2676 45.7824 21.4107C45.7526 21.4882 45.7287 21.5717 45.7287 21.6552C45.7287 22.001 46.0089 22.2812 46.3547 22.2812C46.7005 22.2812 46.9808 22.001 46.9808 21.6552C46.9808 21.5598 46.9569 21.4703 46.9211 21.3928Z" fill="#625D54"/>
<path d="M46.3547 21.9415C46.5128 21.9415 46.6409 21.8134 46.6409 21.6553C46.6409 21.4973 46.5128 21.3691 46.3547 21.3691C46.1967 21.3691 46.0685 21.4973 46.0685 21.6553C46.0685 21.8134 46.1967 21.9415 46.3547 21.9415Z" fill="#241714"/>
<path d="M46.5455 21.7268C46.6048 21.7268 46.6528 21.6788 46.6528 21.6195C46.6528 21.5603 46.6048 21.5122 46.5455 21.5122C46.4862 21.5122 46.4382 21.5603 46.4382 21.6195C46.4382 21.6788 46.4862 21.7268 46.5455 21.7268Z" fill="white"/>
<path fill-rule="evenodd" clip-rule="evenodd" d="M45.055 21.9715C45.055 21.9715 45.3174 21.3693 46.0865 21.2739C46.8496 21.1785 47.4398 21.417 47.6902 21.5482C47.9406 21.6793 48.0003 21.6972 48.0599 21.6972C48.1195 21.6972 48.1374 21.6734 48.1374 21.6734C48.1374 21.6734 48.1195 21.7509 47.9943 21.7866C47.8691 21.8224 47.8035 21.7747 47.8035 21.7747C47.8035 21.7747 47.0225 21.3276 46.3309 21.3335C45.6393 21.3455 45.2637 21.7032 45.061 21.9655L45.055 21.9715Z" fill="#241714"/>
<path fill-rule="evenodd" clip-rule="evenodd" d="M40.8756 22.4423C40.8756 22.8477 41.2095 22.8357 41.293 22.323C41.3765 21.8103 41.5076 21.1425 40.9949 20.9875C40.4822 20.8325 38.461 20.761 38.8903 20.9517C39.3196 21.1425 40.6014 21.1902 40.8756 22.4423Z" fill="#5F3722"/>
<path fill-rule="evenodd" clip-rule="evenodd" d="M40.1244 21.8164C40.6312 22.4543 40.512 22.0608 40.2854 21.7329C40.0588 21.405 39.3911 21.0532 38.4551 21.0532C37.5131 21.0532 36.4816 21.6196 36.4816 21.6196C37.686 21.0234 39.4328 20.934 40.1304 21.8164H40.1244Z" fill="#5F3722"/>
<path fill-rule="evenodd" clip-rule="evenodd" d="M41.3645 20.6536C41.3645 20.6536 41.2811 21.3572 40.6729 21.226C40.0648 21.0948 39.4924 20.8444 38.2225 20.9398C36.9467 21.0352 36.4399 21.4764 36.4399 21.4764C36.4399 21.4764 36.273 21.6195 36.1895 21.542C36.112 21.4645 36.267 21.3035 36.267 21.3035C36.267 21.3035 38.3775 19.2585 41.3645 20.6536Z" fill="#241714"/>
<path fill-rule="evenodd" clip-rule="evenodd" d="M39.6117 21.9711C39.6117 21.9711 39.9396 22.138 39.9157 22.2752C39.8919 22.4123 39.725 22.3825 39.6296 22.3705C39.5342 22.3586 39.397 22.305 39.397 22.305C39.397 22.305 38.7233 22.5077 37.996 22.3646C37.2686 22.2215 36.8632 21.7803 36.8632 21.7803C36.8632 21.7803 38.5922 20.6058 39.6057 21.9711H39.6117Z" fill="white"/>
<path fill-rule="evenodd" clip-rule="evenodd" d="M39.6117 21.9713C39.6117 21.9713 39.9396 22.1383 39.9157 22.2754C39.8919 22.4125 39.725 22.3827 39.6296 22.3708C39.5342 22.3589 39.397 22.3052 39.397 22.3052C39.397 22.3052 38.7233 22.5079 37.996 22.3648C37.2686 22.2217 36.8632 21.7806 36.8632 21.7806C36.8632 21.7806 36.9288 21.7388 37.0361 21.6792C37.1434 21.9236 37.4892 22.3171 38.3895 22.341C39.1705 22.3648 39.4865 22.1085 39.6057 21.9654L39.6117 21.9713Z" fill="#B07E63"/>
<path fill-rule="evenodd" clip-rule="evenodd" d="M36.9824 21.888C36.9049 21.8224 36.8692 21.7806 36.8692 21.7806C36.8692 21.7806 38.4193 20.7313 39.4448 21.7747C39.0334 21.5481 38.1927 21.2798 36.9884 21.888H36.9824Z" fill="#ADA89F"/>
<path fill-rule="evenodd" clip-rule="evenodd" d="M37.7456 21.3928C38.0914 21.3034 38.4968 21.2676 38.8843 21.4107C38.9141 21.4882 38.938 21.5717 38.938 21.6552C38.938 22.001 38.6578 22.2812 38.312 22.2812C37.9662 22.2812 37.6859 22.001 37.6859 21.6552C37.6859 21.5598 37.7098 21.4703 37.7456 21.3928Z" fill="#625D54"/>
<path d="M38.312 21.9415C38.47 21.9415 38.5981 21.8134 38.5981 21.6553C38.5981 21.4973 38.47 21.3691 38.312 21.3691C38.1539 21.3691 38.0258 21.4973 38.0258 21.6553C38.0258 21.8134 38.1539 21.9415 38.312 21.9415Z" fill="#241714"/>
<path d="M38.1212 21.7268C38.1804 21.7268 38.2285 21.6788 38.2285 21.6195C38.2285 21.5603 38.1804 21.5122 38.1212 21.5122C38.0619 21.5122 38.0139 21.5603 38.0139 21.6195C38.0139 21.6788 38.0619 21.7268 38.1212 21.7268Z" fill="white"/>
<path fill-rule="evenodd" clip-rule="evenodd" d="M39.6117 21.9715C39.6117 21.9715 39.3494 21.3693 38.5803 21.2739C37.8171 21.1785 37.2269 21.417 36.9765 21.5482C36.7261 21.6793 36.6665 21.6972 36.6068 21.6972C36.5472 21.6972 36.5293 21.6734 36.5293 21.6734C36.5293 21.6734 36.5472 21.7509 36.6724 21.7866C36.7976 21.8224 36.8632 21.7747 36.8632 21.7747C36.8632 21.7747 37.6442 21.3276 38.3358 21.3335C39.0274 21.3455 39.403 21.7032 39.6057 21.9655L39.6117 21.9715Z" fill="#241714"/>
</svg>
