<svg width="85" height="212" viewBox="0 0 85 212" fill="none" xmlns="http://www.w3.org/2000/svg">
<path fill-rule="evenodd" clip-rule="evenodd" d="M36.7057 192.131C36.7057 192.131 36.9971 192.98 37.1522 194.339C37.3072 195.69 37.2948 196.311 37.2948 196.311C37.2948 196.311 36.6188 197.315 35.1615 197.88C33.7042 198.444 32.9104 198.45 32.9104 198.45L31.4593 198.19C31.4593 198.19 30.8826 198.723 29.7788 200.348C28.6749 201.972 27.1122 203.039 24.8549 203.343C22.5976 203.647 18.4676 203.554 17.4877 203.113C16.5017 202.679 15.6211 201.563 15.6087 201.21C15.5963 200.856 15.2491 200.007 16.5141 198.847C17.7792 197.693 24.0177 194.425 25.3386 192.118C26.6595 189.818 35.8437 189.712 36.7057 192.125V192.131Z" fill="#424852"/>
<path fill-rule="evenodd" clip-rule="evenodd" d="M36.2654 195.343C36.2654 195.343 34.3864 196.15 33.0531 196.919C31.7198 197.694 31.2113 198.035 30.3245 198.946C29.4377 199.864 28.3959 201.725 26.3432 202.394C24.2844 203.064 18.9575 203.225 17.9467 202.791C16.9358 202.357 16.1359 201.315 16.1359 201.315C16.1359 201.315 17.5002 202.661 19.1807 202.698C20.8613 202.735 24.8425 202.462 26.0704 202.078C27.2983 201.687 28.5695 200.856 30.033 198.494C31.4965 196.131 35.3662 195.467 36.2654 195.343ZM22.8705 200.708C22.8705 200.708 21.0597 200.819 19.0009 200.211C16.9358 199.604 17.2645 198.705 17.2645 198.705C17.2645 198.705 16.0242 200.23 18.3001 200.937C20.5698 201.65 22.8705 200.708 22.8705 200.708ZM26.7587 193.737C26.7587 193.737 26.3308 194.153 26.6037 194.562C26.8828 194.971 27.6021 197.563 27.6021 197.563C27.6021 197.563 26.6037 195.554 26.2316 194.903C25.8595 194.258 25.8099 193.917 25.8719 193.7C25.9402 193.477 25.9774 193.359 25.9774 193.359C25.9774 193.359 26.4363 193.297 26.7525 193.737H26.7587Z" fill="#58606D"/>
<path fill-rule="evenodd" clip-rule="evenodd" d="M60.649 191.076C60.649 191.076 62.8939 195.585 63.1481 196.372C63.4024 197.16 63.4768 199.864 63.4768 199.864C63.4768 199.864 63.6814 203.566 59.6816 203.808C55.6817 204.049 54.0074 201.73 53.8895 199.789C53.7717 197.848 53.5485 195.206 52.9407 193.935C52.333 192.664 52.333 192.664 52.333 192.664C52.333 192.664 51.8927 190.295 52.3702 189.396C52.8477 188.497 59.6878 190.295 60.649 191.083V191.076Z" fill="#424852"/>
<path fill-rule="evenodd" clip-rule="evenodd" d="M62.528 199.746C62.528 199.746 62.2675 202.14 59.4459 202.363C56.6243 202.586 55.2972 200.521 55.1298 199.702C54.9624 198.884 55.5515 201.191 58.2119 201.321C60.866 201.457 62.0505 200.465 62.528 199.746ZM58.2925 192.621C58.2925 192.621 58.9374 194.202 59.57 194.661C60.2025 195.12 61.6102 195.455 61.6102 195.455C61.6102 195.455 59.7064 194.717 59.4149 193.96C59.1297 193.204 58.9188 192.627 58.9188 192.627C58.9188 192.627 58.6956 192.118 58.2863 192.621H58.2925ZM55.998 192.782C55.998 192.782 56.4135 193.855 56.2522 194.537C56.0972 195.219 55.322 196.131 55.322 196.131C55.322 196.131 56.5995 194.989 56.7297 194.221C56.8538 193.452 56.5871 192.844 56.5871 192.844C56.5871 192.844 56.3329 192.633 55.998 192.776V192.782Z" fill="#58606D"/>
<path fill-rule="evenodd" clip-rule="evenodd" d="M59.1917 86.3422C59.1917 86.3422 65.9015 95.5326 65.2628 104.946C64.6302 114.366 63.8489 137.993 63.8489 137.993L64.2209 150.34L61.9761 184.571L61.4241 191.151C61.4241 191.151 56.7855 192.087 54.8011 192.162C52.8167 192.236 51.9795 191.988 51.9795 191.988C51.9795 191.988 50.0385 188.776 50.1377 187.597C50.2369 186.419 50.3982 181.229 50.1873 180.199C49.9765 179.176 45.8898 148.244 46.02 144.343C46.1503 140.436 45.8588 138.898 45.7782 138.291C45.6976 137.683 44.1969 115.408 44.1969 115.408C44.1969 115.408 39.5335 146.421 40.2218 147.897C40.9102 149.372 41.1458 171.958 39.4714 180.1C37.7909 188.242 38.4916 188.528 38.4916 188.528L36.9041 192.881C36.9041 192.881 34.1941 194.034 30.6718 193.607C27.1494 193.179 25.5991 191.622 25.5991 191.622C25.5991 191.622 26.2378 189.067 26.2626 187.002C26.2874 184.937 24.055 144.548 23.8999 142.489C23.7449 140.43 21.9341 112.673 21.655 106.577C21.3698 100.481 27.3665 85.9453 27.3665 85.9453C27.3665 85.9453 51.7005 86.3856 59.1917 86.336V86.3422Z" fill="#23314B"/>
<path fill-rule="evenodd" clip-rule="evenodd" d="M40.904 95.6383C40.904 95.6383 40.7985 106.503 40.8854 107.737C40.9722 108.971 43.6201 110.825 43.6201 110.825C43.6201 110.825 41.6791 108.134 41.766 107.477C41.8528 106.813 42.0016 95.5515 42.0016 95.5515C42.0016 95.5515 41.4745 95.4647 40.8978 95.6383H40.904Z" fill="#192233"/>
<path d="M16.4707 103.799C16.4707 103.799 18.3931 105.299 18.3559 107.96C18.3497 108.636 17.7978 109.932 17.5808 110.577C17.4567 110.943 17.1653 111.674 17.1405 112.053C17.1033 112.636 17.4257 113.795 17.3885 114.378C17.3451 115.11 16.787 116.958 15.9932 117.008C15.2057 117.057 14.6413 115.141 14.5855 114.422C14.5359 113.77 15.3731 112.214 14.8088 111.811C14.6165 111.674 14.1824 111.941 13.9778 112.059C13.8104 112.158 13.4259 112.388 13.3515 112.561C13.2522 112.797 13.1344 113.25 13.0476 113.442C13.0104 113.522 12.7127 114 12.7933 114.291C12.9546 114.887 13.2274 116.89 13.2274 116.89C13.2274 116.89 14.2569 117.373 14.7034 117.814C14.9142 118.025 15.9622 118.347 16.2165 118.496C16.601 118.719 17.1777 119.5 16.8924 119.829C16.4955 120.282 14.6165 119.885 13.9468 119.513C13.0166 118.998 11.367 118.403 10.995 117.671C10.6353 116.977 10.3686 114.725 10.1206 114.08C9.91593 113.547 9.82912 113.361 9.65548 112.778C9.46944 112.152 10.1268 109.851 10.6787 107.972C11.1314 106.44 12.291 103.892 12.291 103.892L16.4645 103.792L16.4707 103.799Z" fill="#825740"/>
<path d="M17.1839 115.383C17.2769 115.538 17.4134 115.761 17.4754 115.86C17.6428 116.133 18.1885 116.629 18.1575 116.933C18.1451 117.07 17.7668 117.349 17.7668 117.349C17.7668 117.349 18.7962 118.267 18.79 118.676C18.79 118.806 18.4428 119.098 18.4428 119.098C18.4428 119.098 18.4428 119.773 18.2629 119.898C18.0273 120.059 17.3575 119.953 16.8862 119.848L16.8986 119.836C17.1839 119.507 16.6072 118.725 16.2227 118.502C15.9684 118.353 14.9204 118.031 14.7096 117.82C14.3499 117.467 13.4941 117.088 13.2151 116.952L13.2213 116.84C13.1778 116.518 12.936 114.831 12.7934 114.292C12.7127 114 13.0104 113.523 13.0476 113.442C13.1344 113.243 13.2461 112.797 13.3515 112.561C13.4259 112.388 13.8104 112.164 13.9778 112.059C14.1825 111.935 14.6166 111.675 14.8088 111.811C15.3731 112.208 14.5359 113.764 14.5855 114.422C14.6414 115.141 15.2057 117.057 15.9932 117.008C16.5204 116.977 16.9421 116.152 17.1777 115.383H17.1839ZM12.2911 103.898C12.2911 103.898 12.0368 104.481 11.9438 104.692C11.8384 104.928 11.6461 105.393 11.6461 105.393C11.6461 105.393 13.8042 105.275 14.5545 105.275C16.2661 105.275 17.9715 105.907 17.9715 105.907C17.9715 105.907 17.7606 105.386 17.4878 104.952C17.2521 104.574 16.7436 103.898 16.7436 103.898L14.3809 103.656L12.2911 103.898Z" fill="#5F3722"/>
<path d="M11.4973 102.174L11.398 104.351C11.398 104.351 13.7794 104.295 14.6103 104.363C17.4071 104.58 18.2381 104.965 18.2381 104.965L18.7528 102.181L11.4911 102.174H11.4973Z" fill="#C4C2CC"/>
<path d="M35.7196 28.3537C42.1008 28.3537 42.3675 27.7832 48.8851 27.7832C48.73 28.9863 49.685 34.9891 51.0369 36.4527L49.4742 43.8818L47.0929 59.1123L34.6592 48.8305L33.5678 38.4433C35.9863 36.5333 36.0669 30.4126 35.7196 28.3537Z" fill="#825740"/>
<path d="M35.7941 28.3539C42.2124 28.3539 42.4357 27.833 48.9905 27.833C48.9347 28.2609 49.0649 29.3027 49.1269 30.543C48.3766 31.6034 47.2913 32.7755 44.3829 34.6979C41.4745 36.6203 37.8653 35.8389 35.5336 34.2886C35.7445 31.8701 35.9863 29.4578 35.7941 28.3539ZM50.1625 34.7909C50.3548 35.4482 50.6338 35.9629 50.9315 36.2792L49.5238 43.882L47.9735 53.7173C47.2417 55.3049 46.4107 56.7188 45.5178 57.7854L34.9755 49.116C34.8205 48.6943 34.6716 48.2664 34.5352 47.8385L33.5802 38.4373C34.6344 37.6249 35.0127 36.5955 35.4096 34.9707L35.5832 35.2684C35.5832 35.2684 36.4638 39.6341 37.5428 42.1891C38.6219 44.744 39.2482 46.5982 39.0808 47.4168C38.9133 48.2354 39.1552 48.6943 39.5831 49.3764C40.0172 50.0586 41.7225 52.3282 41.8156 51.9128C41.9086 51.4911 42.1752 49.2214 43.3783 47.6772C44.5813 46.1331 45.9704 45.0727 45.4681 44.1735C44.9658 43.2681 45.1333 42.5488 46.0697 41.1969C47.0061 39.845 49.561 36.6451 50.1687 34.7847L50.1625 34.7909ZM41.9768 37.2094C41.9768 37.2094 41.8342 38.245 42.169 38.9086C42.5039 39.5721 43.031 39.2372 43.031 39.2372C43.031 39.2372 42.1194 38.8032 41.9768 37.2094Z" fill="#5F3722"/>
<path d="M31.0687 90.2428C43.093 93.2815 51.9423 93.0272 60.8722 88.4134C59.0304 84.5872 57.4553 81.3253 55.6135 77.4991C49.7657 63.3601 52.0477 44.3282 52.7299 37.6866C51.5392 36.4773 51.254 35.4851 51.254 35.4851C51.254 35.4851 50.7269 35.1006 50.4478 35.4603C49.9393 38.2323 45.8588 41.7423 45.7968 42.5484C45.5054 43.6151 46.7146 43.5778 46.5906 44.1918C46.3425 45.3886 44.5255 47.2986 43.9178 48.3777C43.1675 49.6986 42.5783 54.517 42.5783 54.517C42.5783 54.517 40.321 51.6644 39.7939 51.007C37.5118 48.0304 38.5537 48.4335 38.5103 46.8211C38.4979 46.3002 38.4854 45.9716 37.9893 44.4522C37.518 43.0197 35.8809 39.7454 35.3104 35.4665C35.2856 35.2743 34.5104 35.9006 34.3864 36.1301C33.388 38.1145 33.4252 39.4354 32.3523 42.3066C29.8346 53.3821 41.0156 77.1952 31.0873 90.2366L31.0687 90.2428Z" fill="#F2F1F6"/>
<path d="M51.6695 36.3843C51.6695 36.3843 50.5036 40.6942 49.4928 45.4258C49.3812 44.7561 49.0153 43.6336 48.9843 43.2802C48.8355 41.6802 47.9673 41.3825 47.3719 41.3701C46.634 41.3577 45.8774 42.0709 45.7472 42.7034C45.6976 42.9577 45.7844 43.2119 45.9456 43.429C45.7968 43.1189 45.803 42.7654 46.3921 42.0833C46.9813 41.4012 48.3828 42.1887 48.5688 42.8647C48.8044 43.7391 49.3068 45.0599 49.4742 45.5188C48.9843 47.8195 48.5316 50.2194 48.2649 52.2659C47.527 57.9773 48.2277 69.7288 49.9579 75.1984C51.4152 79.806 56.5747 84.9965 57.0894 89.139C51.2106 92.2892 42.0326 92.8163 35.5336 89.9885C35.8623 86.5282 37.5862 76.9409 37.5614 72.7799C37.5304 67.3103 35.1367 53.3759 34.3926 48.8365C34.3057 48.3094 34.2375 47.7389 34.1879 47.1374C34.5228 46.9265 34.8887 46.6103 35.1739 46.1328C35.8499 44.9855 37.27 45.7111 37.6793 46.3994C38.0886 47.0816 38.2188 47.6335 38.2188 47.6335C38.2188 47.6335 38.7893 45.9591 37.4436 44.7871C36.0979 43.6212 35.3228 44.9421 34.6158 46.1514C34.4546 46.4242 34.3057 46.6475 34.1631 46.8211C33.8282 42.2755 34.1197 36.6819 34.1197 36.6819C33.8406 37.0354 33.6546 37.1718 33.4438 37.4571C25.7107 50.3931 38.6591 78.9254 30.2005 89.9885C44.2651 93.8086 51.4958 92.5993 61.0583 88.8475C46.758 59.6703 55.5391 54.7898 52.7299 37.6928C52.3764 37.2587 52.0291 36.8246 51.6757 36.3843H51.6695Z" fill="#C4C2CC"/>
<path d="M64.6736 97.6908C64.6736 97.6908 64.2333 98.4846 64.1527 98.7016C63.9109 99.3341 63.1853 101.691 63.1853 101.691L59.0552 94.0568L60.2707 93.1328L64.6736 97.697V97.6908Z" fill="#825740"/>
<path d="M59.3591 93.8213L58.8816 95.1608C58.8816 95.1608 61.0645 96.3328 61.7962 96.7173C62.776 97.2196 64.5992 98.0072 64.5992 98.0072C64.5992 98.0072 64.9217 97.2072 64.9899 96.922C65.0395 96.7235 65.3434 95.7251 65.3434 95.7251L59.3591 93.8213Z" fill="#C4C2CC"/>
<path d="M33.4934 37.3705C33.4934 37.3705 31.0253 39.2681 27.906 40.1611C18.5234 42.8338 16.4397 44.7314 16.0925 54.1016C15.8568 60.489 15.1561 65.4625 14.0584 71.6452C12.5825 77.6109 12.0926 80.972 11.8632 85.5858C11.6337 90.2057 11.1624 102.534 11.1624 102.534C12.8058 102.503 17.3265 102.689 18.7404 102.987C20.4334 95.8118 23.0752 82.4417 24.148 79.8185C24.241 82.8572 22.6721 87.843 21.8721 92.9591C21.2954 96.6613 20.6814 107.315 20.6814 107.315C20.6814 107.315 25.4813 111.278 27.0006 110.236C30.3307 107.954 32.4206 99.2163 34.8577 87.7996C35.9367 82.7332 36.2282 72.2529 35.8747 67.4779C35.5522 63.1432 33.8779 54.3125 33.4624 50.3002C33.1275 47.0445 33.4934 37.3643 33.4934 37.3643V37.3705Z" fill="#23314B"/>
<path d="M51.7439 36.4775C51.7439 36.4775 49.0897 47.119 48.9037 50.9018C48.7859 53.2521 48.5812 57.9713 48.6432 60.3216C48.7362 63.72 48.73 71.205 49.5672 74.4855C50.1998 76.9536 52.1904 80.6372 53.995 82.479C57.5235 86.0757 58.2243 94.3421 58.2243 94.3421C61.1451 95.6878 63.6752 96.8164 65.3496 97.5296C65.3496 97.5296 68.0224 92.674 70.5339 87.6261C73.0764 82.51 74.85 75.1366 75.0547 72.9165C75.1167 72.2592 74.571 65.9959 73.0268 59.7883C71.2905 52.8056 69.5169 46.933 67.7805 44.5889C66.41 42.7409 55.1174 38.3193 51.7377 36.4775H51.7439ZM62.0567 74.6777C61.6722 70.7833 60.5808 64.9354 60.5808 64.9354C60.5808 64.9354 61.1203 67.2671 62.2303 70.3926C63.4644 73.8839 64.0659 74.3428 64.1279 74.6095C63.9419 75.6389 63.6814 76.6249 63.0365 79.0682C62.9001 78.5225 62.1497 75.6637 62.0629 74.6839L62.0567 74.6777Z" fill="#23314B"/>
<path d="M30.5539 39.9686C30.1447 40.843 26.0146 47.9125 25.9712 48.5946C26.213 49.5869 28.9106 55.2177 30.064 57.692C29.0594 54.3681 27.6207 50.0209 27.7695 48.6753C27.9122 47.404 29.7912 42.2383 30.5539 39.9624V39.9686Z" fill="#35496E"/>
<path d="M64.4194 75.1489C63.2287 81.2014 60.0474 86.2865 58.6149 93.4862C58.6459 93.6971 58.9622 94.3296 59.0428 94.7265C61.0148 89.8213 64.7728 79.8557 64.4256 75.1551L64.4194 75.1489Z" fill="#182234"/>
<path fill-rule="evenodd" clip-rule="evenodd" d="M57.1204 48.235L53.0896 49.2024L57.1204 49.1776C56.4507 51.5713 52.5562 65.7289 50.5594 73.5674C52.8167 66.746 58.0878 48.6753 58.0878 48.6753C58.0878 48.6753 57.0522 43.0321 53.164 38.4741C55.4089 41.5438 56.4631 44.5576 57.1204 48.235Z" fill="#182234"/>
<path fill-rule="evenodd" clip-rule="evenodd" d="M25.9153 48.235L29.9462 49.2024L25.9153 49.1776C26.5851 51.5713 33.2577 64.1352 35.2545 71.9674C32.9973 65.146 24.9417 48.6753 24.9417 48.6753C24.9417 48.6753 26.1882 44.9793 30.4423 40.0244C28.1974 43.0941 26.6285 45.7048 25.9091 48.235H25.9153Z" fill="#182234"/>
<path d="M28.2967 40.4399C18.3807 44.0367 17.2211 44.5266 16.725 54.6782C16.601 57.2331 16.4893 59.4098 16.3219 61.4438C16.2041 62.1756 16.0925 62.8453 16.018 63.4283C15.8878 64.4391 15.615 66.4483 15.4165 67.4405C15.0754 69.1459 14.7654 70.7148 14.4863 72.2031C14.2941 72.9411 14.1204 73.6294 13.9592 74.2868C14.97 75.8929 18.0645 56.0983 18.4738 51.3233C18.9513 45.8227 22.8147 42.9205 26.3556 41.4384C27.1308 41.1159 27.7695 40.7748 28.2905 40.4399H28.2967Z" fill="#35496E"/>
<path fill-rule="evenodd" clip-rule="evenodd" d="M33.9337 92.9468C39.4776 95.8862 48.5874 94.6583 57.8336 91.5391L58.1064 92.1592C51.2106 95.0428 40.5939 97.1079 33.7166 93.846L33.9337 92.9468Z" fill="#192233"/>
<path d="M74.0625 67.844C73.7462 65.5743 73.2563 62.7713 72.5617 59.9807C70.8626 53.1654 69.1324 47.4354 67.4394 45.1471C66.2736 43.572 57.7468 40.0868 53.3934 38.0342C53.3934 38.0342 63.9047 43.9006 65.7155 45.5564C67.3278 47.0261 71.1912 58.6722 74.0625 67.844Z" fill="#35496E"/>
<path d="M21.4566 107.879C21.4566 107.879 25.4068 111.637 26.9386 110.596C30.2687 108.332 33.7228 97.0147 34.5228 88.5312C32.8422 93.9636 29.2145 105.12 27.3107 107.451C25.4069 109.777 21.4566 107.879 21.4566 107.879Z" fill="#192233"/>
<path fill-rule="evenodd" clip-rule="evenodd" d="M50.4044 20.6766C50.4044 20.6766 51.4896 20.4099 51.688 20.8192C51.8865 21.2285 52.1531 23.0455 51.8989 24.1493C51.6446 25.2531 50.5842 26.8035 50.0943 26.8035C49.6106 26.8035 49.5858 26.6484 49.5858 26.6484C49.4308 27.3306 49.2137 28.7569 49.0401 29.5445C48.1719 32.0622 45.3007 34.2885 43.4279 34.5179C42.5721 34.6543 41.6853 34.673 40.8419 34.4559C39.2358 34.0776 36.656 31.7769 35.7196 29.5072C35.4654 28.9429 35.1987 27.2314 35.0747 26.6484C35.0747 26.6484 35.0499 26.8035 34.5662 26.8035C34.0825 26.8035 33.0158 25.2531 32.7616 24.1493C32.5073 23.0455 32.774 21.2285 32.9724 20.8192C33.1709 20.4099 34.2561 20.6766 34.2561 20.6766C33.0469 14.6179 34.6964 9.47076 42.4109 9.52038C50.0509 9.56378 51.4586 14.9341 50.4044 20.6766Z" fill="#825740"/>
<path fill-rule="evenodd" clip-rule="evenodd" d="M34.4297 23.6719C34.4297 23.6719 33.8716 23.461 34.0081 22.7975C34.1445 22.134 34.1817 21.6813 33.853 21.582C33.5182 21.4828 33.1399 22.6673 33.2267 23.6161C33.3135 24.5649 34.0949 25.6873 34.0949 25.6873C34.0949 25.6873 33.1089 24.6579 33.0903 23.1758C33.0717 21.6937 33.3631 21.1479 33.7662 21.1479C34.1693 21.1479 34.3615 21.6813 34.3615 21.7805C34.3615 21.8797 34.2375 22.7541 34.4297 23.6719ZM49.9827 23.6719C49.9827 23.6719 50.64 23.461 50.4788 22.7975C50.3175 22.134 50.2679 21.6813 50.6648 21.582C51.0555 21.4828 51.5082 22.6673 51.4028 23.6161C51.2973 24.5649 50.3734 25.6873 50.3734 25.6873C50.3734 25.6873 51.5392 24.6579 51.564 23.1758C51.5888 21.6937 51.2415 21.1479 50.764 21.1479C50.2927 21.1479 50.0571 21.6813 50.0571 21.7805C50.0571 21.8797 50.2059 22.7541 49.9765 23.6719H49.9827Z" fill="#5F3722"/>
<path fill-rule="evenodd" clip-rule="evenodd" d="M35.0809 26.6857V26.6547C35.0809 26.6547 35.0561 26.8097 34.5724 26.8097C34.4918 26.8097 34.3863 26.7663 34.2809 26.6857C34.3429 26.7229 34.5042 26.7663 34.715 26.45C34.9941 26.0407 35.1925 24.3912 35.1739 25.0609C35.1615 25.3896 35.1367 26.0655 35.0871 26.6857H35.0809ZM49.5858 26.6857V26.6547C49.5858 26.6547 49.6106 26.8097 50.0943 26.8097C50.1749 26.8097 50.2803 26.7663 50.3858 26.6857C50.3237 26.7229 50.1625 26.7663 49.9517 26.45C49.6726 26.0407 49.4742 24.3912 49.4928 25.0609C49.5052 25.3896 49.53 26.0655 49.5796 26.6857H49.5858Z" fill="#5F3722"/>
<path fill-rule="evenodd" clip-rule="evenodd" d="M42.6713 29.2962C43.0558 29.1969 43.5333 29.0915 43.9426 29.2528C44.4201 29.4388 45.3875 29.6 45.803 29.4574C46.2185 29.3148 45.9394 29.1163 46.1937 29.2031C46.4479 29.29 46.1503 29.5442 45.7782 29.6124C45.4061 29.6806 45.0278 30.1023 44.2775 29.9287C43.5271 29.7551 43.3845 29.8295 42.8449 29.9721C42.4357 30.0775 41.9954 30.0775 41.5861 29.9721C41.0466 29.8295 40.9101 29.7489 40.1536 29.9287C39.4032 30.1023 39.2048 29.6806 38.8327 29.6124C38.4606 29.5442 38.1629 29.29 38.4172 29.2031C38.6715 29.1163 38.3986 29.3148 38.8079 29.4574C39.2234 29.6 40.0109 29.445 40.4884 29.2528C40.8977 29.0915 41.3628 29.1907 41.7473 29.29C42.138 29.3954 42.262 29.4016 42.6589 29.2962H42.6713Z" fill="#5F3722"/>
<path fill-rule="evenodd" clip-rule="evenodd" d="M40.1412 30.8036C40.1412 30.8036 40.6931 31.157 42.4295 31.095C44.172 31.033 44.7178 30.7354 44.7178 30.7354C44.7178 30.7354 42.4791 32.3105 40.135 30.8036H40.1412Z" fill="#5F3722"/>
<path fill-rule="evenodd" clip-rule="evenodd" d="M44.4139 24.9802C44.4139 24.9802 44.9782 25.3089 44.9224 25.8732C44.8666 26.4375 44.0852 26.6546 44.2403 26.667C44.3953 26.6794 45.1333 26.3011 45.1208 25.6438C45.1084 24.9802 44.4511 24.4407 44.4139 24.9802Z" fill="#5F3722"/>
<path fill-rule="evenodd" clip-rule="evenodd" d="M43.2852 26.2268C43.0744 26.2144 43.2108 26.0779 43.4589 25.9539C43.7069 25.8299 44.2526 25.7865 44.203 26.0407C44.1472 26.295 43.6945 26.1709 43.2852 26.2268Z" fill="#241714"/>
<path fill-rule="evenodd" clip-rule="evenodd" d="M41.3132 26.3071C41.3132 26.3071 40.7117 26.3878 40.3706 26.2823C40.0296 26.1769 40.0296 25.9599 40.4078 25.8544C40.7861 25.7428 41.1272 25.8234 41.2884 26.0343C41.4497 26.2513 41.6915 26.6048 42.1318 26.6172C42.5721 26.6358 42.6403 26.5614 42.6403 26.5614C42.6403 26.5614 42.0636 26.9893 41.3132 26.3009V26.3071Z" fill="#241714"/>
<path fill-rule="evenodd" clip-rule="evenodd" d="M40.073 24.9802C40.073 24.9802 39.5086 25.3089 39.5644 25.8732C39.6203 26.4375 40.4016 26.6546 40.2466 26.667C40.0916 26.6794 39.3536 26.3011 39.366 25.6438C39.3784 24.9802 40.0357 24.4407 40.073 24.9802Z" fill="#5F3722"/>
<path d="M41.8093 24.8374C41.9703 24.8374 42.1008 24.7402 42.1008 24.6204C42.1008 24.5005 41.9703 24.4033 41.8093 24.4033C41.6483 24.4033 41.5179 24.5005 41.5179 24.6204C41.5179 24.7402 41.6483 24.8374 41.8093 24.8374Z" fill="#96664C"/>
<path fill-rule="evenodd" clip-rule="evenodd" d="M41.3256 24.4717C41.3256 24.4717 41.5303 24.205 42.2 24.1988C42.8698 24.1926 43.3473 24.5461 43.3473 24.5461C43.3473 24.5461 42.4047 24.0748 41.3256 24.4717Z" fill="#96664C"/>
<path fill-rule="evenodd" clip-rule="evenodd" d="M43.7938 22.4873C43.7938 22.8904 43.4589 22.878 43.3783 22.3695C43.2976 21.8548 43.1612 21.1912 43.6759 21.0362C44.1906 20.8812 46.2123 20.813 45.7844 20.999C45.3565 21.1912 44.0728 21.2346 43.7999 22.4873H43.7938Z" fill="#5F3722"/>
<path fill-rule="evenodd" clip-rule="evenodd" d="M44.5379 21.8611C44.0356 22.4998 44.1534 22.1029 44.3767 21.7804C44.5999 21.4518 45.2697 21.1045 46.2123 21.1045C47.1549 21.1045 48.1905 21.6688 48.1905 21.6688C46.9812 21.0735 45.2387 20.9805 44.5441 21.8673L44.5379 21.8611Z" fill="#5F3722"/>
<path fill-rule="evenodd" clip-rule="evenodd" d="M43.2976 20.6954C43.2976 20.6954 43.3783 21.3961 43.986 21.2659C44.5937 21.1357 45.1642 20.8876 46.4355 20.9806C47.7068 21.0736 48.2215 21.5139 48.2215 21.5139C48.2215 21.5139 48.3889 21.6628 48.4696 21.5822C48.5502 21.5077 48.3889 21.3403 48.3889 21.3403C48.3889 21.3403 46.2743 19.2939 43.2914 20.6892L43.2976 20.6954Z" fill="#241714"/>
<path fill-rule="evenodd" clip-rule="evenodd" d="M45.0588 22.016C45.0588 22.016 44.7302 22.1835 44.755 22.3199C44.7798 22.4563 44.9472 22.4253 45.0402 22.4129C45.1332 22.4005 45.2697 22.3447 45.2697 22.3447C45.2697 22.3447 45.9394 22.5493 46.665 22.4067C47.3905 22.2641 47.7936 21.8238 47.7936 21.8238C47.7936 21.8238 46.0634 20.6517 45.0526 22.016H45.0588Z" fill="white"/>
<path fill-rule="evenodd" clip-rule="evenodd" d="M45.0588 22.0164C45.0588 22.0164 44.7302 22.1839 44.755 22.3203C44.7798 22.4567 44.9472 22.4257 45.0402 22.4133C45.1332 22.4009 45.2697 22.3451 45.2697 22.3451C45.2697 22.3451 45.9394 22.5497 46.665 22.4071C47.3905 22.2645 47.7936 21.8242 47.7936 21.8242C47.7936 21.8242 47.7316 21.7808 47.62 21.7188C47.5146 21.9668 47.1673 22.3575 46.2681 22.3823C45.4867 22.4009 45.1705 22.1466 45.0526 22.0102L45.0464 22.0164H45.0588Z" fill="#B07E63"/>
<path fill-rule="evenodd" clip-rule="evenodd" d="M47.682 21.9295C47.7564 21.8675 47.7998 21.8241 47.7998 21.8241C47.7998 21.8241 46.2495 20.7761 45.2263 21.8179C45.6355 21.5884 46.4789 21.3218 47.682 21.9295Z" fill="#ADA89F"/>
<path fill-rule="evenodd" clip-rule="evenodd" d="M46.9192 21.4331C46.572 21.3401 46.1689 21.3091 45.7782 21.4517C45.7472 21.5262 45.7286 21.613 45.7286 21.6998C45.7286 22.0471 46.0076 22.3261 46.3549 22.3261C46.7022 22.3261 46.9812 22.0471 46.9812 21.6998C46.9812 21.6068 46.9626 21.5137 46.9254 21.4331H46.9192Z" fill="#625D54"/>
<path d="M46.3549 21.9851C46.5124 21.9851 46.6402 21.8574 46.6402 21.6998C46.6402 21.5423 46.5124 21.4146 46.3549 21.4146C46.1974 21.4146 46.0696 21.5423 46.0696 21.6998C46.0696 21.8574 46.1974 21.9851 46.3549 21.9851Z" fill="#241714"/>
<path d="M46.5471 21.768C46.6054 21.768 46.6526 21.7208 46.6526 21.6626C46.6526 21.6043 46.6054 21.5571 46.5471 21.5571C46.4889 21.5571 46.4417 21.6043 46.4417 21.6626C46.4417 21.7208 46.4889 21.768 46.5471 21.768Z" fill="white"/>
<path fill-rule="evenodd" clip-rule="evenodd" d="M45.0588 22.016C45.0588 22.016 45.3255 21.4145 46.0883 21.3215C46.851 21.2284 47.4401 21.4641 47.6944 21.6005C47.9425 21.7369 48.0045 21.7493 48.0603 21.7493C48.1223 21.7493 48.1409 21.7245 48.1409 21.7245C48.1409 21.7245 48.1223 21.799 47.9983 21.8362C47.868 21.8734 47.806 21.83 47.806 21.83C47.806 21.83 47.0247 21.3835 46.3301 21.3897C45.6418 21.3959 45.2635 21.7617 45.0588 22.0222V22.016Z" fill="#241714"/>
<path fill-rule="evenodd" clip-rule="evenodd" d="M40.873 22.4873C40.873 22.8904 41.2078 22.878 41.2884 22.3695C41.3691 21.8548 41.5055 21.1912 40.9908 21.0362C40.4761 20.8812 38.4544 20.813 38.8823 20.999C39.3102 21.1912 40.5939 21.2346 40.8667 22.4873H40.873Z" fill="#5F3722"/>
<path fill-rule="evenodd" clip-rule="evenodd" d="M40.1226 21.8611C40.6249 22.4998 40.5071 22.1029 40.2838 21.7804C40.0606 21.4518 39.3908 21.1045 38.4482 21.1045C37.5056 21.1045 36.47 21.6688 36.47 21.6688C37.6793 21.0735 39.4218 20.9805 40.1164 21.8673L40.1226 21.8611Z" fill="#5F3722"/>
<path fill-rule="evenodd" clip-rule="evenodd" d="M41.369 20.6954C41.369 20.6954 41.2884 21.3961 40.6807 21.2659C40.073 21.1357 39.5024 20.8876 38.2312 20.9806C36.9599 21.0736 36.4452 21.5139 36.4452 21.5139C36.4452 21.5139 36.2778 21.6628 36.1971 21.5822C36.1165 21.5077 36.2778 21.3403 36.2778 21.3403C36.2778 21.3403 38.3924 19.2939 41.3752 20.6892L41.369 20.6954Z" fill="#241714"/>
<path fill-rule="evenodd" clip-rule="evenodd" d="M39.6079 22.016C39.6079 22.016 39.9365 22.1835 39.9117 22.3199C39.8869 22.4563 39.7195 22.4253 39.6265 22.4129C39.5334 22.4005 39.397 22.3447 39.397 22.3447C39.397 22.3447 38.7273 22.5493 38.0017 22.4067C37.2762 22.2641 36.8731 21.8238 36.8731 21.8238C36.8731 21.8238 38.6032 20.6517 39.6141 22.016H39.6079Z" fill="white"/>
<path fill-rule="evenodd" clip-rule="evenodd" d="M39.6079 22.0164C39.6079 22.0164 39.9365 22.1839 39.9117 22.3203C39.8869 22.4567 39.7195 22.4257 39.6265 22.4133C39.5334 22.4009 39.397 22.3451 39.397 22.3451C39.397 22.3451 38.7273 22.5497 38.0017 22.4071C37.2762 22.2645 36.8731 21.8242 36.8731 21.8242C36.8731 21.8242 36.9351 21.7808 37.0467 21.7188C37.1521 21.9668 37.4994 22.3575 38.3986 22.3823C39.18 22.4009 39.4962 22.1466 39.6141 22.0102L39.6203 22.0164H39.6079Z" fill="#B07E63"/>
<path fill-rule="evenodd" clip-rule="evenodd" d="M36.9785 21.9295C36.9041 21.8675 36.8607 21.8241 36.8607 21.8241C36.8607 21.8241 38.411 20.7761 39.4342 21.8179C39.025 21.5884 38.1816 21.3218 36.9785 21.9295Z" fill="#ADA89F"/>
<path fill-rule="evenodd" clip-rule="evenodd" d="M37.7475 21.4331C38.0947 21.3401 38.4978 21.3091 38.8885 21.4517C38.9195 21.5262 38.9381 21.613 38.9381 21.6998C38.9381 22.0471 38.6591 22.3261 38.3118 22.3261C37.9645 22.3261 37.6855 22.0471 37.6855 21.6998C37.6855 21.6068 37.7041 21.5137 37.7413 21.4331H37.7475Z" fill="#625D54"/>
<path d="M38.3118 21.9851C38.4693 21.9851 38.597 21.8574 38.597 21.6998C38.597 21.5423 38.4693 21.4146 38.3118 21.4146C38.1542 21.4146 38.0265 21.5423 38.0265 21.6998C38.0265 21.8574 38.1542 21.9851 38.3118 21.9851Z" fill="#241714"/>
<path d="M38.1196 21.768C38.1778 21.768 38.225 21.7208 38.225 21.6626C38.225 21.6043 38.1778 21.5571 38.1196 21.5571C38.0613 21.5571 38.0141 21.6043 38.0141 21.6626C38.0141 21.7208 38.0613 21.768 38.1196 21.768Z" fill="white"/>
<path fill-rule="evenodd" clip-rule="evenodd" d="M39.6079 22.016C39.6079 22.016 39.3412 21.4145 38.5785 21.3215C37.8157 21.2284 37.2266 21.4641 36.9723 21.6005C36.7243 21.7369 36.6622 21.7493 36.6064 21.7493C36.5444 21.7493 36.5258 21.7245 36.5258 21.7245C36.5258 21.7245 36.5444 21.799 36.6684 21.8362C36.7987 21.8734 36.8607 21.83 36.8607 21.83C36.8607 21.83 37.6421 21.3835 38.3366 21.3897C39.025 21.3959 39.4032 21.7617 39.6079 22.0222V22.016Z" fill="#241714"/>
</svg>
