<svg width="85" height="212" viewBox="0 0 85 212" fill="none" xmlns="http://www.w3.org/2000/svg">
<g clip-path="url(#clip0)">
<path fill-rule="evenodd" clip-rule="evenodd" d="M35.6202 19.3755H49.1609V23.6105H35.6202V19.3755Z" fill="#825740"/>
<path fill-rule="evenodd" clip-rule="evenodd" d="M43.7927 22.4432C43.7927 22.8496 43.4608 22.8381 43.3749 22.3231C43.2891 21.8137 43.1632 21.1441 43.6725 20.9896C44.1819 20.8351 46.2078 20.7664 45.7786 20.9552C45.3494 21.1441 44.0674 21.1956 43.7927 22.4432Z" fill="#5F3722"/>
<path fill-rule="evenodd" clip-rule="evenodd" d="M44.5424 21.8196C44.0388 22.4549 44.159 22.0657 44.3822 21.7338C44.6111 21.4076 45.275 21.0527 46.2136 21.0527C47.1521 21.0527 48.188 21.6193 48.188 21.6193C46.9804 21.0241 45.2406 20.9326 44.5367 21.8139L44.5424 21.8196Z" fill="#5F3722"/>
<path fill-rule="evenodd" clip-rule="evenodd" d="M43.3005 20.6519C43.3005 20.6519 43.3864 21.3558 43.993 21.2242C44.5997 21.0926 45.172 20.8408 46.4425 20.9381C47.713 21.0354 48.2281 21.476 48.2281 21.476C48.2281 21.476 48.3998 21.6191 48.4799 21.5447C48.56 21.4646 48.3998 21.3043 48.3998 21.3043C48.3998 21.3043 46.288 19.2612 43.3005 20.6576V20.6519Z" fill="#241714"/>
<path fill-rule="evenodd" clip-rule="evenodd" d="M45.0575 21.974C45.0575 21.974 44.7313 22.1399 44.7542 22.2773C44.7771 22.4146 44.9431 22.386 45.0404 22.3746C45.1376 22.3631 45.275 22.3116 45.275 22.3116C45.275 22.3116 45.9503 22.5119 46.6714 22.3689C47.3983 22.2258 47.8046 21.7851 47.8046 21.7851C47.8046 21.7851 46.0705 20.6119 45.0632 21.974H45.0575Z" fill="white"/>
<path fill-rule="evenodd" clip-rule="evenodd" d="M45.0575 21.974C45.0575 21.974 44.7313 22.14 44.7542 22.2773C44.7771 22.4147 44.9431 22.3861 45.0404 22.3746C45.1376 22.3632 45.275 22.3117 45.275 22.3117C45.275 22.3117 45.9503 22.512 46.6714 22.3689C47.3983 22.2258 47.8046 21.7851 47.8046 21.7851C47.8046 21.7851 47.7416 21.7451 47.6329 21.6821C47.5299 21.9282 47.1751 22.3174 46.2823 22.346C45.5039 22.3689 45.1834 22.1114 45.069 21.9683L45.0632 21.974H45.0575Z" fill="#B07E63"/>
<path fill-rule="evenodd" clip-rule="evenodd" d="M47.6844 21.8879C47.7588 21.825 47.7988 21.7792 47.7988 21.7792C47.7988 21.7792 46.2479 20.7319 45.2235 21.7735C45.6355 21.5445 46.4768 21.2756 47.6787 21.8879H47.6844Z" fill="#ADA89F"/>
<path fill-rule="evenodd" clip-rule="evenodd" d="M46.9175 21.3901C46.5741 21.2985 46.1678 21.2642 45.7786 21.4072C45.7443 21.4816 45.7271 21.5675 45.7271 21.6533C45.7271 21.9967 46.0075 22.2771 46.3509 22.2771C46.6943 22.2771 46.9747 21.9967 46.9747 21.6533C46.9747 21.5618 46.9518 21.4702 46.9175 21.3901Z" fill="#506E15"/>
<path fill-rule="evenodd" clip-rule="evenodd" d="M46.3509 21.373C46.5112 21.373 46.6371 21.499 46.6371 21.6592C46.6371 21.8194 46.5112 21.9454 46.3509 21.9454C46.1907 21.9454 46.0648 21.8194 46.0648 21.6592C46.0648 21.499 46.1907 21.373 46.3509 21.373Z" fill="#241714"/>
<path fill-rule="evenodd" clip-rule="evenodd" d="M46.5455 21.5161C46.6027 21.5161 46.6542 21.5619 46.6542 21.6249C46.6542 21.6821 46.6085 21.7336 46.5455 21.7336C46.4883 21.7336 46.4368 21.6878 46.4368 21.6249C46.4368 21.5676 46.4826 21.5161 46.5455 21.5161Z" fill="white"/>
<path fill-rule="evenodd" clip-rule="evenodd" d="M45.0575 21.9737C45.0575 21.9737 45.3208 21.3728 46.0877 21.2755C46.8546 21.1782 47.444 21.4186 47.6901 21.5502C47.9419 21.6819 47.9992 21.699 48.0564 21.699C48.1136 21.699 48.1365 21.6761 48.1365 21.6761C48.1365 21.6761 48.1194 21.7563 47.9934 21.7906C47.8675 21.8249 47.7989 21.7792 47.7989 21.7792C47.7989 21.7792 47.0148 21.3328 46.328 21.3385C45.6355 21.3499 45.2578 21.7105 45.0575 21.968V21.9737Z" fill="#241714"/>
<path fill-rule="evenodd" clip-rule="evenodd" d="M40.874 22.4432C40.874 22.8496 41.2059 22.8381 41.2918 22.3231C41.3776 21.8137 41.5035 21.1441 40.9942 20.9896C40.4848 20.8351 38.4588 20.7664 38.8881 20.9552C39.3173 21.1441 40.5993 21.1956 40.874 22.4432Z" fill="#5F3722"/>
<path fill-rule="evenodd" clip-rule="evenodd" d="M40.1242 21.8196C40.6279 22.4549 40.5077 22.0657 40.2845 21.7338C40.0556 21.4076 39.3917 21.0527 38.4531 21.0527C37.5145 21.0527 36.4787 21.6193 36.4787 21.6193C37.6862 21.0241 39.426 20.9326 40.13 21.8139L40.1242 21.8196Z" fill="#5F3722"/>
<path fill-rule="evenodd" clip-rule="evenodd" d="M41.3662 20.6519C41.3662 20.6519 41.2803 21.3558 40.6737 21.2242C40.067 21.0926 39.4947 20.8408 38.2242 20.9381C36.9537 21.0354 36.4386 21.476 36.4386 21.476C36.4386 21.476 36.2669 21.6191 36.1868 21.5447C36.1067 21.4646 36.2669 21.3043 36.2669 21.3043C36.2669 21.3043 38.3787 19.2612 41.3662 20.6576V20.6519Z" fill="#241714"/>
<path fill-rule="evenodd" clip-rule="evenodd" d="M39.6092 21.974C39.6092 21.974 39.9354 22.1399 39.9125 22.2773C39.8896 22.4146 39.7236 22.386 39.6263 22.3746C39.5291 22.3631 39.3917 22.3116 39.3917 22.3116C39.3917 22.3116 38.7164 22.5119 37.9953 22.3689C37.2685 22.2258 36.8621 21.7851 36.8621 21.7851C36.8621 21.7851 38.5962 20.6119 39.6035 21.974H39.6092Z" fill="white"/>
<path fill-rule="evenodd" clip-rule="evenodd" d="M39.6092 21.974C39.6092 21.974 39.9354 22.14 39.9125 22.2773C39.8896 22.4147 39.7236 22.3861 39.6263 22.3746C39.5291 22.3632 39.3917 22.3117 39.3917 22.3117C39.3917 22.3117 38.7164 22.512 37.9953 22.3689C37.2685 22.2258 36.8621 21.7851 36.8621 21.7851C36.8621 21.7851 36.9251 21.7451 37.0338 21.6821C37.1368 21.9282 37.4917 22.3174 38.3844 22.346C39.1628 22.3689 39.4833 22.1114 39.5977 21.9683L39.6035 21.974H39.6092Z" fill="#B07E63"/>
<path fill-rule="evenodd" clip-rule="evenodd" d="M36.9823 21.8879C36.9079 21.825 36.8678 21.7792 36.8678 21.7792C36.8678 21.7792 38.4188 20.7319 39.4432 21.7735C39.0312 21.5445 38.1899 21.2756 36.988 21.8879H36.9823Z" fill="#ADA89F"/>
<path fill-rule="evenodd" clip-rule="evenodd" d="M37.7435 21.3901C38.0868 21.2985 38.4932 21.2642 38.8824 21.4072C38.9167 21.4816 38.9339 21.5675 38.9339 21.6533C38.9339 21.9967 38.6534 22.2771 38.31 22.2771C37.9667 22.2771 37.6862 21.9967 37.6862 21.6533C37.6862 21.5618 37.7091 21.4702 37.7435 21.3901Z" fill="#506E15"/>
<path fill-rule="evenodd" clip-rule="evenodd" d="M38.31 21.373C38.1498 21.373 38.0239 21.499 38.0239 21.6592C38.0239 21.8194 38.1498 21.9454 38.31 21.9454C38.4703 21.9454 38.5962 21.8194 38.5962 21.6592C38.5962 21.499 38.4703 21.373 38.31 21.373Z" fill="#241714"/>
<path fill-rule="evenodd" clip-rule="evenodd" d="M38.1155 21.5161C38.0582 21.5161 38.0067 21.5619 38.0067 21.6249C38.0067 21.6821 38.0525 21.7336 38.1155 21.7336C38.1727 21.7336 38.2242 21.6878 38.2242 21.6249C38.2242 21.5676 38.1784 21.5161 38.1155 21.5161Z" fill="white"/>
<path fill-rule="evenodd" clip-rule="evenodd" d="M39.6092 21.9737C39.6092 21.9737 39.3459 21.3728 38.579 21.2755C37.8121 21.1782 37.2227 21.4186 36.9766 21.5502C36.7248 21.6819 36.6675 21.699 36.6103 21.699C36.5531 21.699 36.5302 21.6761 36.5302 21.6761C36.5302 21.6761 36.5474 21.7563 36.6733 21.7906C36.7992 21.8249 36.8678 21.7792 36.8678 21.7792C36.8678 21.7792 37.6519 21.3328 38.3387 21.3385C39.0311 21.3499 39.4089 21.7105 39.6092 21.968V21.9737Z" fill="#241714"/>
</g>
<defs>
<clipPath id="clip0">
<rect width="84.6667" height="211.667" fill="white"/>
</clipPath>
</defs>
</svg>
