<svg width="85" height="212" viewBox="0 0 85 212" fill="none" xmlns="http://www.w3.org/2000/svg">
<path fill-rule="evenodd" clip-rule="evenodd" d="M36.8599 192.134C36.8599 192.134 37.151 192.989 37.3059 194.34C37.4608 195.692 37.4467 196.312 37.4467 196.312C37.4467 196.312 36.766 197.317 35.3108 197.885C33.8556 198.453 33.0576 198.457 33.0576 198.457L31.6071 198.199C31.6071 198.199 31.0344 198.73 29.9312 200.358C28.8281 201.983 27.2649 203.053 25.007 203.358C22.7491 203.663 18.6229 203.565 17.6371 203.128C16.6513 202.691 15.7688 201.574 15.7594 201.222C15.75 200.87 15.4026 200.016 16.6654 198.861C17.9281 197.706 24.1714 194.439 25.4905 192.134C26.8096 189.829 35.9962 189.726 36.8599 192.139V192.134Z" fill="#424852"/>
<path fill-rule="evenodd" clip-rule="evenodd" d="M36.4186 195.345C36.4186 195.345 34.5409 196.148 33.2078 196.922C31.8746 197.692 31.3676 198.035 30.4804 198.955C29.5932 199.87 28.5558 201.734 26.495 202.405C24.439 203.076 19.111 203.236 18.0971 202.799C17.0831 202.363 16.2898 201.321 16.2898 201.321C16.2898 201.321 17.6511 202.668 19.3316 202.705C21.0122 202.743 24.9929 202.471 26.2181 202.081C27.4433 201.691 28.7154 200.861 30.1847 198.499C31.6493 196.138 35.5173 195.472 36.4139 195.35L36.4186 195.345ZM23.0213 200.71C23.0213 200.71 21.214 200.823 19.1486 200.213C17.0831 199.603 17.4117 198.706 17.4117 198.706C17.4117 198.706 16.1724 200.227 18.4444 200.94C20.7164 201.649 23.0166 200.71 23.0166 200.71H23.0213ZM26.9081 193.744C26.9081 193.744 26.4762 194.157 26.7532 194.57C27.0302 194.983 27.7484 197.57 27.7484 197.57C27.7484 197.57 26.7485 195.556 26.3777 194.913C26.0068 194.265 25.9552 193.927 26.0209 193.707C26.0866 193.486 26.1289 193.369 26.1289 193.369C26.1289 193.369 26.5842 193.303 26.9034 193.749L26.9081 193.744Z" fill="#58606D"/>
<path fill-rule="evenodd" clip-rule="evenodd" d="M60.8051 191.079C60.8051 191.079 63.049 195.585 63.3024 196.374C63.5559 197.158 63.631 199.866 63.631 199.866C63.631 199.866 63.8376 203.57 59.8381 203.809C55.8386 204.049 54.1628 201.73 54.0454 199.791C53.9281 197.852 53.7075 195.21 53.0972 193.937C52.487 192.665 52.487 192.665 52.487 192.665C52.487 192.665 52.0457 190.299 52.5245 189.393C52.9986 188.492 59.8381 190.29 60.8004 191.079H60.8051Z" fill="#424852"/>
<path fill-rule="evenodd" clip-rule="evenodd" d="M62.6781 199.754C62.6781 199.754 62.4199 202.148 59.5987 202.373C56.7775 202.599 55.449 200.528 55.28 199.712C55.111 198.895 55.7025 201.195 58.3594 201.331C61.0163 201.467 62.1993 200.477 62.6781 199.754ZM58.4439 192.628C58.4439 192.628 59.0917 194.21 59.7254 194.67C60.3592 195.13 61.7674 195.459 61.7674 195.459C61.7674 195.459 59.8616 194.722 59.5752 193.966C59.2889 193.21 59.0823 192.628 59.0823 192.628C59.0823 192.628 58.8617 192.121 58.4486 192.623L58.4439 192.628ZM56.1484 192.788C56.1484 192.788 56.5615 193.863 56.4019 194.543C56.2423 195.229 55.4725 196.139 55.4725 196.139C55.4725 196.139 56.754 195.003 56.8807 194.229C57.0075 193.459 56.7399 192.849 56.7399 192.849C56.7399 192.849 56.4817 192.637 56.1484 192.783V192.788Z" fill="#58606D"/>
<path fill-rule="evenodd" clip-rule="evenodd" d="M59.3498 86.3459C59.3498 86.3459 64.3257 95.0489 63.6873 104.47C63.0536 113.892 61.1008 137.677 61.1008 137.677L60.4436 182.943L60.7909 191.055C60.7909 191.055 56.9464 192.093 54.9607 192.172C52.9751 192.247 52.1395 191.999 52.1395 191.999C52.1395 191.999 50.9378 188.839 51.0364 187.661C51.1396 186.483 51.2945 181.291 51.088 180.268C50.8814 179.244 46.9477 145.404 47.0791 141.498C47.2106 137.593 46.9195 136.058 46.8397 135.447C46.7599 134.842 44.3565 115.422 44.3565 115.422C44.3565 115.422 39.6904 146.437 40.3805 147.915C41.0705 149.394 39.7374 171.856 38.0615 180C36.381 188.145 36.7425 188.173 36.7425 188.173L37.0617 192.9C37.0617 192.9 34.3484 194.055 30.8277 193.628C27.3071 193.2 25.7533 191.642 25.7533 191.642C25.7533 191.642 27.1897 189.562 27.2132 187.497C27.2367 185.431 26.4058 144.409 26.2556 142.348C26.1007 140.287 24.2371 110.202 23.9554 104.104C23.6738 98.0063 27.523 85.9609 27.523 85.9609C27.523 85.9609 51.8578 86.3975 59.3498 86.3506V86.3459Z" fill="#23314B"/>
<path fill-rule="evenodd" clip-rule="evenodd" d="M41.0848 95.2835C41.0848 95.2835 40.9533 106.507 41.0425 107.742C41.1317 108.977 43.7745 110.831 43.7745 110.831C43.7745 110.831 41.8358 108.141 41.9203 107.479C42.0095 106.817 42.1832 95.1991 42.1832 95.1991C42.1832 95.1991 41.6528 95.1099 41.0801 95.2882L41.0848 95.2835Z" fill="#192233"/>
<path d="M16.4541 103.799C16.4541 103.799 18.2144 105.301 18.1816 107.962C18.1722 108.643 17.6699 109.934 17.4728 110.582C17.3601 110.948 17.0925 111.68 17.0691 112.06C17.0362 112.643 17.3272 113.802 17.2944 114.384C17.2521 115.112 16.7452 116.961 16.0175 117.013C15.2946 117.06 14.7783 115.145 14.7266 114.426C14.6797 113.774 15.4495 112.22 14.9332 111.816C14.7548 111.68 14.3605 111.943 14.1727 112.065C14.0178 112.168 13.6657 112.394 13.6 112.567C13.5061 112.802 13.3982 113.253 13.3231 113.45C13.2902 113.534 13.0179 114.009 13.0884 114.3C13.2339 114.896 13.4874 116.9 13.4874 116.9C13.4874 116.9 14.4309 117.379 14.8393 117.825C15.0318 118.032 15.9894 118.355 16.2241 118.506C16.5762 118.726 17.1019 119.51 16.8437 119.834C16.4823 120.289 14.7548 119.886 14.1446 119.52C13.2949 119.003 11.7834 118.407 11.436 117.679C11.1074 116.985 10.8633 114.731 10.638 114.088C10.4502 113.553 10.3751 113.37 10.2108 112.783C10.0371 112.159 10.6427 109.859 11.1496 107.976C11.5627 106.446 12.6236 103.897 12.6236 103.897L16.4494 103.794L16.4541 103.799Z" fill="#C99676"/>
<path d="M17.1067 115.389C17.1912 115.544 17.3179 115.769 17.3742 115.868C17.5292 116.14 18.0267 116.633 17.9986 116.943C17.9845 117.079 17.6418 117.361 17.6418 117.361C17.6418 117.361 18.5854 118.281 18.576 118.684C18.576 118.816 18.2615 119.102 18.2615 119.102C18.2615 119.102 18.2615 119.783 18.0972 119.9C17.8812 120.06 17.271 119.952 16.8344 119.849L16.8438 119.839C17.102 119.515 16.5762 118.731 16.2242 118.511C15.9895 118.36 15.0318 118.037 14.8394 117.83C14.5108 117.473 13.7315 117.088 13.4827 116.952V116.854C13.4405 116.534 13.2246 114.845 13.0884 114.309C13.018 114.014 13.2903 113.54 13.3231 113.46C13.3982 113.263 13.5062 112.812 13.6001 112.577C13.6705 112.408 14.0179 112.178 14.1728 112.075C14.3559 111.953 14.7549 111.69 14.9333 111.826C15.4496 112.225 14.6798 113.784 14.7267 114.436C14.7783 115.159 15.2994 117.074 16.0176 117.023C16.5011 116.99 16.886 116.164 17.1067 115.398V115.389ZM12.6237 103.902C12.6237 103.902 12.3937 104.484 12.3045 104.696C12.2106 104.93 12.0322 105.395 12.0322 105.395C12.0322 105.395 14.0132 105.278 14.6985 105.278C16.2664 105.278 17.8343 105.907 17.8343 105.907C17.8343 105.907 17.6371 105.386 17.3883 104.949C17.1724 104.569 16.7077 103.898 16.7077 103.898L14.5389 103.658L12.6237 103.902Z" fill="#B07C5C"/>
<path d="M12.2527 102.175L12.1682 104.348C12.1682 104.348 14.2712 104.297 15.0035 104.362C17.468 104.583 18.2003 104.963 18.2003 104.963L18.6556 102.179L12.2574 102.175H12.2527Z" fill="#C4C2CC"/>
<path d="M36.1369 28.353C42.0282 28.353 42.737 27.7803 48.7503 27.7803C48.6094 28.982 48.7362 35.1079 49.9848 36.5679L49.0695 43.8767L46.8679 59.1095L35.3858 48.8291L34.5737 39.436C37.0006 37.394 36.4514 30.4137 36.1322 28.353H36.1369Z" fill="#C99676"/>
<path d="M36.1369 28.353C42.0282 28.353 42.737 27.7803 48.7503 27.7803C48.6986 28.2074 48.6846 29.2496 48.7409 30.4888C48.0555 31.5497 46.7599 32.958 44.3518 34.6996C41.4273 36.8119 38.4981 35.9576 36.3575 34.4132C36.55 31.9957 36.3106 29.4655 36.1416 28.3577L36.1369 28.353ZM49.323 35.0563C49.4966 35.7135 49.7173 36.2533 49.9848 36.5679L49.0695 43.8767L47.6471 53.7158C46.9759 55.3025 46.2107 56.7201 45.3892 57.7857L35.7097 49.1155C35.5689 48.693 35.4328 48.2658 35.3013 47.8387L34.5737 39.4313C35.5407 38.6192 36.0336 37.0232 36.259 35.2629C36.259 35.2629 37.0664 39.6285 38.0615 42.1868C39.052 44.7452 39.6247 46.5947 39.4745 47.4115C39.3196 48.2283 39.5402 48.6883 39.9392 49.3737C40.3382 50.059 41.9014 52.3263 41.9906 51.9086C42.0798 51.4908 42.3192 49.2188 43.4223 47.6744C44.5255 46.13 45.8023 45.0738 45.3423 44.1678C44.8775 43.2618 44.9667 42.6469 45.8915 41.1917C46.6895 39.9383 48.7597 36.9105 49.3183 35.0469L49.323 35.0563ZM42.1455 37.211C42.1455 37.211 42.0141 38.2484 42.3239 38.9103C42.6337 39.5721 43.1172 39.2389 43.1172 39.2389C43.1172 39.2389 42.2816 38.8023 42.1455 37.211Z" fill="#B07C5C"/>
<path d="M32.3065 90.2461C42.7746 93.2832 50.4919 93.0297 58.2936 88.42C56.7023 84.5942 55.3504 81.3317 53.759 77.506C48.7268 63.367 50.8017 44.3366 51.4213 37.6943C50.3886 36.4832 50.1445 35.4927 50.1445 35.4927C50.1445 35.4927 49.6845 35.1078 49.4403 35.4692C48.985 38.2435 45.4127 41.7501 45.3564 42.5575C45.0982 43.6278 46.1544 43.5855 46.037 44.2052C45.8164 45.4022 44.2251 47.3081 43.6852 48.3924C43.028 49.7162 42.4882 54.5278 42.4882 54.5278C42.4882 54.5278 40.5307 51.6737 40.0754 51.0165C38.1038 48.0403 39.0051 48.4441 38.9769 46.8292C38.9675 46.3082 38.9629 45.9749 38.531 44.4587C38.1273 43.0269 36.7143 39.7551 36.2355 35.4692C36.212 35.2815 35.7567 35.5584 35.644 35.7884C34.7662 37.7741 34.5738 39.4405 33.6208 42.3134C31.377 53.3871 41.0142 77.2008 32.3018 90.2461H32.3065Z" fill="#F2F1F6"/>
<path d="M50.5107 36.3846C50.5107 36.3846 49.478 40.6939 48.572 45.4257C48.4781 44.7544 48.1683 43.6325 48.1401 43.2758C48.0181 41.675 47.2623 41.3793 46.7459 41.3652C46.0981 41.3511 45.4409 42.0646 45.3236 42.6984C45.2766 42.9565 45.3518 43.2053 45.4926 43.426C45.3658 43.1162 45.3705 42.7641 45.8869 42.0787C46.4033 41.3934 47.6237 42.182 47.7787 42.8627C47.9805 43.7358 48.4124 45.0596 48.5532 45.5196C48.1166 47.8245 47.7082 50.2185 47.4688 52.2699C46.8023 57.978 47.3609 69.7324 48.8442 75.2011C50.0976 79.8062 54.5712 85.0027 54.9984 89.1383C49.8582 92.2928 41.8593 92.8185 36.2027 89.9879C36.5078 86.5283 38.0475 76.938 38.0475 72.7789C38.0475 67.3102 36.0196 53.3777 35.3906 48.8337C35.3202 48.308 35.2639 47.7353 35.2216 47.1344C35.5127 46.9279 35.8366 46.6086 36.0854 46.1298C36.6815 44.9845 37.9161 45.7121 38.2682 46.3927C38.6202 47.0781 38.7329 47.6273 38.7329 47.6273C38.7329 47.6273 39.2399 45.9515 38.071 44.7826C36.9022 43.6137 36.2168 44.9375 35.6019 46.1486C35.461 46.4209 35.3296 46.6415 35.2028 46.8152C34.9306 42.2712 35.4094 36.333 35.4094 36.333C27.9831 49.1623 39.2399 78.7171 31.5742 90.1428C43.8167 93.9639 50.1023 92.5979 58.458 88.8425C46.1216 59.6633 53.7966 54.7813 51.4261 37.6849C51.1209 37.2484 50.8158 36.8165 50.5107 36.3799V36.3846Z" fill="#C4C2CC"/>
<path d="M64.828 97.6917C64.828 97.6917 64.3867 98.4897 64.3069 98.7009C64.0628 99.33 63.3352 101.691 63.3352 101.691L59.209 94.0537L60.4248 93.1289L64.828 97.6917Z" fill="#B07C5C"/>
<path d="M59.5142 93.8232L59.0354 95.1611C59.0354 95.1611 61.2182 96.3346 61.9505 96.7196C62.9316 97.2219 64.753 98.0058 64.753 98.0058C64.753 98.0058 65.0722 97.2031 65.1426 96.9167C65.1895 96.7196 65.4946 95.7244 65.4946 95.7244L59.5095 93.8232H59.5142Z" fill="#C4C2CC"/>
<path d="M22.3735 108.234C22.3735 108.234 26.3261 111.994 27.8564 110.952C31.1846 108.685 34.2452 97.2873 35.0432 88.8096C33.3627 94.2408 30.1284 105.479 28.2272 107.807C26.3214 110.135 22.3735 108.234 22.3735 108.234Z" fill="#192233"/>
<path d="M35.3954 36.3711C35.3954 36.3711 32.0155 39.2721 28.8798 40.164C19.4632 42.835 18.008 44.9709 17.548 54.3406C17.4212 56.8942 17.3133 59.077 17.1443 61.1143C17.0269 61.8466 16.9142 62.5132 16.8391 63.1C16.7124 64.1139 16.4354 66.123 16.2383 67.1182C15.8956 68.8269 15.5905 70.3995 15.3088 71.8829C13.7597 77.8492 13.2903 80.999 13.0134 85.5853C12.7317 90.2326 12.1121 102.536 12.1121 102.536C13.755 102.503 17.1959 102.691 18.6042 102.991C18.6042 102.991 20.9325 91.1761 21.6648 87.6413C22.275 84.6981 24.087 76.9432 24.087 76.9432L26.4106 69.0288C26.4106 69.0288 26.359 72.7888 26.4106 73.3756C26.5327 74.7745 26.3402 77.6051 26.0445 78.9805C25.8145 80.0602 25.3169 82.98 24.9836 84.0315C24.2701 86.2988 23.4955 90.7912 23.1012 93.1336C22.4816 96.8373 21.6648 107.531 21.6648 107.531C21.6648 107.531 25.6173 111.291 27.1476 110.249C30.504 107.963 32.6962 99.2314 35.2686 87.8103C36.4093 82.7453 36.8271 72.2631 36.5267 67.4891C36.2591 63.1563 34.6819 54.3218 34.3204 50.3082C34.0247 47.0504 35.3954 36.3711 35.3954 36.3711Z" fill="#23314B"/>
<path d="M50.5106 36.3848C50.5106 36.3848 48.248 47.1204 48.1353 50.904C48.0649 53.2558 47.9522 57.9735 48.0649 60.3206C48.2245 63.7145 48.3653 71.2065 49.2713 74.483C49.952 76.9522 52.0127 80.6325 53.8576 82.4773C57.4533 86.0731 58.3264 94.3396 58.3264 94.3396C61.2744 95.6821 63.584 96.7102 65.2786 97.4237C65.2786 97.4237 67.0436 92.6403 69.5362 87.6362C71.7425 83.219 74.3196 75.1261 74.4839 72.9058C74.5309 72.2439 72.5922 66.2682 70.6347 60.4661C68.4894 54.1054 67.6773 47.2143 66.1095 45.0174C64.7575 43.1257 54.1392 38.8398 50.5153 36.3848H50.5106ZM59.209 75.7599C58.6691 71.6994 60.5891 62.2358 60.5891 62.2358C60.5891 62.2358 61.9973 66.3761 63.1662 69.5025C64.4712 72.9903 64.8749 74.5441 64.8279 74.9572C64.7012 76.0697 63.7013 79.2571 62.6076 82.5102C61.4434 81.3507 59.4296 77.4028 59.2137 75.7599H59.209Z" fill="#23314B"/>
<path d="M30.7058 39.9717C30.2974 40.8448 26.1665 47.9143 26.1243 48.5997C26.3684 49.5948 29.0675 55.2232 30.2176 57.697C29.2131 54.3735 27.7766 50.0267 27.9222 48.6841C28.063 47.4167 29.9407 42.2484 30.7058 39.9717Z" fill="#35496E"/>
<path d="M64.8281 74.957C63.5982 81.2379 60.5188 86.9789 59.1152 94.5883C61.0868 89.6828 65.1755 79.6606 64.8281 74.957Z" fill="#182234"/>
<path fill-rule="evenodd" clip-rule="evenodd" d="M57.2752 48.2378L53.2428 49.2048L57.2752 49.1813C56.6086 51.5707 52.7124 65.7378 50.7126 73.5678C52.9706 66.7471 58.2422 48.6791 58.2422 48.6791C58.2422 48.6791 57.2048 43.0366 53.3179 38.4785C55.5618 41.5485 56.618 44.5575 57.2752 48.2378Z" fill="#182234"/>
<path fill-rule="evenodd" clip-rule="evenodd" d="M26.0725 48.2375L30.1049 49.2045L26.0725 49.1811C26.7391 51.5704 33.419 64.1369 35.414 71.9668C33.1561 65.1461 25.1008 48.6788 25.1008 48.6788C25.1008 48.6788 26.3448 44.9844 30.6025 40.0273C28.3586 43.0974 26.7861 45.7074 26.0678 48.2375H26.0725Z" fill="#182234"/>
<path d="M30.0393 40.1219C20.1204 43.7223 18.9609 44.2105 18.468 54.3594C18.3413 56.9131 18.2333 59.0912 18.0643 61.1285C17.947 61.8561 17.8343 62.5274 17.7592 63.1142C17.6324 64.1234 17.3555 66.1325 17.1583 67.1277C16.8157 68.8364 16.5105 70.4043 16.2289 71.8877C16.0364 72.6246 15.8627 73.3147 15.7031 73.9719C16.7124 75.5773 19.8059 55.7865 20.219 51.0031C20.6931 45.5062 24.5564 42.5957 28.1052 41.1171C28.8845 40.7932 29.5229 40.4505 30.044 40.1172L30.0393 40.1219Z" fill="#35496E"/>
<path fill-rule="evenodd" clip-rule="evenodd" d="M34.0902 92.9456C39.6341 95.8841 48.7455 94.6543 57.9885 91.542L58.2607 92.1616C51.3649 95.0439 40.7466 97.114 33.8743 93.8469L34.0902 92.9456Z" fill="#192233"/>
<path d="M70.0434 60.2875C68.6445 54.3869 66.809 46.4067 65.7388 45.0031C64.8234 43.8014 57.8713 40.7126 54.5149 39.126C54.5149 39.126 63.0912 44.1112 64.4103 45.3177C65.7294 46.5241 67.8324 53.2086 70.0481 60.2875H70.0434Z" fill="#35496E"/>
<path fill-rule="evenodd" clip-rule="evenodd" d="M50.0366 20.7247C50.0366 20.7247 51.074 20.4618 51.2618 20.8702C51.4496 21.2786 51.7031 23.0859 51.459 24.189C51.2149 25.2922 50.2009 26.8366 49.7409 26.8366C49.2761 26.8366 49.2574 26.6817 49.2574 26.6817C49.2151 28.7706 49.417 29.6766 47.7599 31.3336C46.6333 32.4602 44.8073 33.9342 44.474 34.244C43.8215 34.8496 40.8313 34.8261 40.2069 34.244C39.8783 33.9342 38.0476 32.4602 36.921 31.3336C35.2639 29.6766 35.4658 28.7706 35.4235 26.6817C35.4235 26.6817 35.4 26.8366 34.94 26.8366C34.4753 26.8366 33.4613 25.2922 33.2219 24.189C32.9778 23.0859 33.2313 21.2786 33.4191 20.8702C33.6068 20.4618 34.6443 20.7247 34.6443 20.7247C33.8416 16.1385 34.081 12.0169 37.7425 10.5148C40.6951 9.30367 43.9952 9.30367 46.9478 10.5148C50.6093 12.0122 50.8487 16.1385 50.046 20.7247H50.0366Z" fill="#C99676"/>
<path fill-rule="evenodd" clip-rule="evenodd" d="M34.7991 23.7153C34.7991 23.7153 34.2687 23.5041 34.4001 22.8422C34.5316 22.1803 34.5691 21.7297 34.2499 21.6311C33.9354 21.5325 33.5693 22.7108 33.6538 23.659C33.7383 24.6072 34.4846 25.7198 34.4846 25.7198C34.4846 25.7198 33.5458 24.6964 33.527 23.2177C33.5082 21.7391 33.7899 21.1992 34.1701 21.1992C34.5504 21.1992 34.7381 21.7297 34.7381 21.8282C34.7381 21.9268 34.6161 22.7999 34.8038 23.7153H34.7991ZM49.6376 23.7153C49.6376 23.7153 50.2666 23.5041 50.1117 22.8422C49.9568 22.1803 49.9145 21.7297 50.2901 21.6311C50.6656 21.5325 51.0928 22.7108 50.9942 23.659C50.8956 24.6072 50.0131 25.7198 50.0131 25.7198C50.0131 25.7198 51.1256 24.6964 51.1491 23.2177C51.1726 21.7391 50.8393 21.1992 50.3886 21.1992C49.938 21.1992 49.7174 21.7297 49.7174 21.8282C49.7174 21.9268 49.8629 22.7999 49.6423 23.7153H49.6376Z" fill="#B07C5C"/>
<path fill-rule="evenodd" clip-rule="evenodd" d="M35.4141 26.7141V26.6812C35.4141 26.6812 35.3906 26.8361 34.9306 26.8361C34.8508 26.8361 34.7569 26.7892 34.6489 26.7094C34.71 26.7469 34.8602 26.7892 35.062 26.4747C35.3249 26.0663 35.5174 24.4233 35.4986 25.0899C35.4892 25.4138 35.461 26.0944 35.4141 26.7094V26.7141ZM49.2526 26.7141V26.6812C49.2526 26.6812 49.2761 26.8361 49.7361 26.8361C49.8159 26.8361 49.9098 26.7892 50.0178 26.7094C49.9568 26.7469 49.8066 26.7892 49.6047 26.4747C49.3418 26.0663 49.1494 24.4233 49.1681 25.0899C49.1775 25.4138 49.2057 26.0944 49.2526 26.7094V26.7141Z" fill="#B07C5C"/>
<path fill-rule="evenodd" clip-rule="evenodd" d="M40.479 20.4099C40.9109 20.7291 41.6056 21.7712 41.2958 22.7195C40.986 23.6677 40.5307 23.5973 40.7184 23.3015C40.9062 23.0058 41.047 22.1561 40.08 21.3159C39.1083 20.4803 38.9346 20.2456 38.6671 20.1142C38.4042 19.9827 39.8923 20.0391 40.4743 20.4099H40.479Z" fill="#B07C5C"/>
<path fill-rule="evenodd" clip-rule="evenodd" d="M37.0898 21.231C37.0898 21.231 37.916 20.9071 38.9112 20.9588C39.9017 21.0151 40.4087 21.6019 40.6715 22.0243C40.9344 22.4468 40.9015 21.8788 40.4978 21.4047C40.0941 20.9306 39.6623 20.7053 38.6859 20.8226C37.7095 20.94 37.1462 21.0996 37.0945 21.231H37.0898Z" fill="#85583C"/>
<path fill-rule="evenodd" clip-rule="evenodd" d="M40.1928 22.8604C40.1083 22.8838 39.6576 23.1092 39.0521 23.1561C38.4465 23.2077 38.4935 23.1937 38.5498 23.2218C38.6061 23.25 39.606 23.2547 40.066 23.0622C40.5214 22.8698 40.2913 22.8134 40.1928 22.8604Z" fill="#B07C5C"/>
<path fill-rule="evenodd" clip-rule="evenodd" d="M35.7802 20.1985C35.7802 20.1985 36.7425 20.1516 37.0805 20.1563C37.4231 20.1609 38.8736 20.3018 39.8125 20.4848C40.7513 20.6679 41.1034 20.8463 41.2583 20.9261C41.4132 21.0012 41.5447 20.7618 41.5869 20.5271C41.6292 20.2971 41.5775 19.9966 40.4087 19.7572C39.2398 19.5131 38.315 19.0625 37.6203 19.0625C36.9255 19.0625 35.8881 19.7901 35.6581 19.8981C35.4281 20.006 35.3952 20.2501 35.7802 20.1938V20.1985Z" fill="#413024"/>
<path fill-rule="evenodd" clip-rule="evenodd" d="M37.4888 21.64C37.4888 21.64 38.146 21.1988 38.8502 21.2082C39.5543 21.2175 40.1035 21.7668 40.2819 21.9921C40.465 22.2174 40.6574 22.2737 40.5682 22.4287C40.479 22.5836 40.3758 22.5507 40.2913 22.5131C40.2068 22.4756 39.9439 22.4193 39.8265 22.4897C39.7092 22.5601 38.7891 22.7619 38.2023 22.3911C37.6109 22.0203 37.4841 21.64 37.4841 21.64H37.4888Z" fill="white"/>
<path fill-rule="evenodd" clip-rule="evenodd" d="M37.4888 21.6397C37.4888 21.6397 37.5169 21.6209 37.5686 21.5928C37.6625 21.7899 38.0286 22.4518 38.8032 22.5363C39.6434 22.6302 40.1926 22.311 40.1973 21.8932C40.2302 21.9308 40.2631 21.9636 40.2865 21.9965C40.4696 22.2218 40.6621 22.2781 40.5729 22.433C40.4837 22.5879 40.3804 22.5551 40.2959 22.5175C40.2114 22.48 39.9485 22.4236 39.8312 22.4941C39.7138 22.5645 38.7938 22.7663 38.207 22.3955C37.6155 22.0246 37.4888 21.6444 37.4888 21.6444V21.6397Z" fill="#EDBA9D"/>
<path fill-rule="evenodd" clip-rule="evenodd" d="M37.4888 21.64C37.4888 21.64 38.146 21.1988 38.8501 21.2082C39.4603 21.2175 39.9532 21.6306 40.1926 21.8841C39.9955 21.7574 39.6293 21.5133 39.1317 21.4804C38.3948 21.4335 37.808 21.6494 37.5545 21.7668C37.5075 21.687 37.4888 21.6353 37.4888 21.6353V21.64Z" fill="#ADA89F"/>
<path fill-rule="evenodd" clip-rule="evenodd" d="M38.423 21.25C38.5592 21.2218 38.7 21.2031 38.8455 21.2078C39.038 21.2124 39.2211 21.2547 39.39 21.3204C39.5074 21.4472 39.5778 21.6161 39.5778 21.8039C39.5778 22.1982 39.2586 22.5127 38.869 22.5127C38.4747 22.5127 38.1602 22.1935 38.1602 21.8039C38.1602 21.5786 38.2634 21.3814 38.423 21.25Z" fill="#625D54"/>
<path d="M38.8689 22.0903C39.027 22.0903 39.1552 21.9621 39.1552 21.8039C39.1552 21.6458 39.027 21.5176 38.8689 21.5176C38.7107 21.5176 38.5825 21.6458 38.5825 21.8039C38.5825 21.9621 38.7107 22.0903 38.8689 22.0903Z" fill="#402F24"/>
<path d="M38.6718 21.8465C38.747 21.8465 38.8079 21.7855 38.8079 21.7104C38.8079 21.6352 38.747 21.5742 38.6718 21.5742C38.5966 21.5742 38.5356 21.6352 38.5356 21.7104C38.5356 21.7855 38.5966 21.8465 38.6718 21.8465Z" fill="white"/>
<path fill-rule="evenodd" clip-rule="evenodd" d="M37.1321 21.5456C37.1321 21.5456 37.2964 21.5878 37.5875 21.4517C37.8785 21.3156 38.3432 21.0902 38.9394 21.1466C39.5356 21.2076 39.7468 21.3766 39.9581 21.555C40.1693 21.738 40.3336 22.0478 40.3336 22.0478C40.3336 22.0478 39.7938 21.3484 39.0004 21.2498C38.2071 21.1513 37.6485 21.7005 37.3997 21.6723C37.1509 21.6441 37.1274 21.5409 37.1274 21.5409L37.1321 21.5456Z" fill="#413024"/>
<path fill-rule="evenodd" clip-rule="evenodd" d="M41.1504 27.2682C41.1504 27.2682 40.5543 27.1696 40.4463 26.6298C40.3383 26.0899 40.9204 25.7567 40.9439 25.5924C40.9674 25.4281 40.6904 25.3717 40.4792 25.7707C40.2679 26.1697 39.9722 27.0804 41.1504 27.2682Z" fill="#B07C5C"/>
<path fill-rule="evenodd" clip-rule="evenodd" d="M44.0186 27.2682C44.0186 27.2682 44.6147 27.1696 44.7227 26.6298C44.8307 26.0899 44.2486 25.7567 44.2251 25.5924C44.2016 25.4281 44.4786 25.3717 44.6898 25.7707C44.9011 26.1697 45.1968 27.0804 44.0186 27.2682Z" fill="#B07C5C"/>
<path fill-rule="evenodd" clip-rule="evenodd" d="M43.3707 26.9769C43.3707 26.9769 43.8402 27.0755 44.0326 26.9394C44.2251 26.8032 44.0092 26.7234 43.6571 26.7704C43.305 26.8126 42.9811 27.1412 42.9811 27.1412C42.9811 27.1412 43.2956 26.9065 43.3707 26.9816V26.9769ZM41.7982 26.9769C41.7982 26.9769 41.3288 27.0755 41.1363 26.9394C40.9438 26.8032 41.1598 26.7234 41.5118 26.7704C41.8639 26.8126 42.1878 27.1412 42.1878 27.1412C42.1878 27.1412 41.8733 26.9065 41.7982 26.9816V26.9769Z" fill="#633C24"/>
<path fill-rule="evenodd" clip-rule="evenodd" d="M39.7186 29.6993C39.4135 29.704 39.1084 29.6101 39.1882 29.4365C39.2727 29.2581 39.5731 29.582 39.7233 29.535C39.8735 29.4928 40.4603 29.2581 40.7607 29.0703C41.0565 28.8825 41.4461 28.6666 41.9296 28.8732C42.446 29.0891 42.5868 29.0891 43.1031 28.8732C43.5866 28.6713 43.9763 28.8825 44.272 29.0703C44.5677 29.2581 45.1592 29.4881 45.3094 29.535C45.4596 29.5773 45.7601 29.2581 45.8446 29.4365C45.9291 29.6148 45.6192 29.7087 45.3141 29.6993C44.9949 29.7322 44.5537 29.7275 43.9152 29.6242C43.5444 29.5632 43.366 29.6477 43.1031 29.7228C42.9342 29.8449 42.0986 29.8449 41.9296 29.7228C41.6667 29.6477 41.4883 29.5632 41.1175 29.6242C40.4791 29.7275 40.0378 29.7322 39.7186 29.6993Z" fill="#A37050"/>
<path fill-rule="evenodd" clip-rule="evenodd" d="M44.2766 30.0234C44.2766 30.0234 43.5443 30.0281 43.0796 30.1267C42.6148 30.2253 42.1266 30.1783 41.784 30.1455C41.4413 30.1126 41.4037 30.46 41.8497 30.6712C42.2956 30.8825 42.5116 30.6102 42.5444 30.4882C42.5773 30.3661 42.6618 30.3943 42.6712 30.4929C42.6806 30.5914 42.981 30.8731 43.7696 30.6712C44.5582 30.4694 44.5864 30.1126 44.2766 30.0281V30.0234Z" fill="#E6B79A"/>
<path fill-rule="evenodd" clip-rule="evenodd" d="M41.1082 31.0935C41.1082 31.0935 41.4837 31.3188 42.6291 31.3423C43.7745 31.3657 44.2721 31.0137 44.2721 31.0137C44.2721 31.0137 43.7463 31.53 42.6666 31.5582C41.587 31.5864 41.1082 31.0935 41.1082 31.0935Z" fill="#A16E4F"/>
<path fill-rule="evenodd" clip-rule="evenodd" d="M44.1875 20.4099C43.7557 20.7291 43.2581 21.283 43.2675 22.1796C43.2769 23.0715 43.4834 22.6162 43.5444 22.2406C43.6055 21.8651 44.0608 21.3206 44.657 20.7667C45.2531 20.2174 45.7272 20.2456 45.9901 20.1142C46.253 19.9827 44.7649 20.0391 44.1828 20.4099H44.1875Z" fill="#B07C5C"/>
<path fill-rule="evenodd" clip-rule="evenodd" d="M47.5768 21.231C47.5768 21.231 46.7506 20.9071 45.7554 20.9588C44.7649 21.0151 44.258 21.6019 43.9951 22.0243C43.7322 22.4468 43.7651 21.8788 44.1688 21.4047C44.5725 20.9306 45.0043 20.7053 45.9807 20.8226C46.9571 20.94 47.5204 21.0996 47.5721 21.231H47.5768Z" fill="#85583C"/>
<path fill-rule="evenodd" clip-rule="evenodd" d="M44.474 22.8604C44.5585 22.8838 45.0091 23.1092 45.6147 23.1561C46.2202 23.2077 46.1733 23.1937 46.1169 23.2218C46.0606 23.25 45.0607 23.2547 44.6007 23.0622C44.1454 22.8698 44.3754 22.8134 44.474 22.8604Z" fill="#B07C5C"/>
<path fill-rule="evenodd" clip-rule="evenodd" d="M48.8912 20.1985C48.8912 20.1985 47.9289 20.1516 47.5909 20.1563C47.2482 20.1609 45.7977 20.3018 44.8588 20.4848C43.92 20.6679 43.5679 20.8463 43.413 20.9261C43.2581 21.0012 43.1267 20.7618 43.0844 20.5271C43.0422 20.2971 43.0938 19.9966 44.2627 19.7572C45.4315 19.5131 46.3563 19.0625 47.051 19.0625C47.7458 19.0625 48.7832 19.7901 49.0132 19.8981C49.2432 20.006 49.2761 20.2501 48.8912 20.1938V20.1985Z" fill="#413024"/>
<path fill-rule="evenodd" clip-rule="evenodd" d="M47.1825 21.64C47.1825 21.64 46.5253 21.1988 45.8212 21.2082C45.117 21.2175 44.5678 21.7668 44.3894 21.9921C44.2063 22.2174 44.0139 22.2737 44.1031 22.4287C44.1923 22.5836 44.2955 22.5507 44.38 22.5131C44.4645 22.4756 44.7274 22.4193 44.8448 22.4897C44.9621 22.5601 45.8822 22.7619 46.469 22.3911C47.0604 22.0203 47.1872 21.64 47.1872 21.64H47.1825Z" fill="white"/>
<path fill-rule="evenodd" clip-rule="evenodd" d="M47.1825 21.6397C47.1825 21.6397 47.1544 21.6209 47.1027 21.5928C47.0088 21.7899 46.6427 22.4518 45.8682 22.5363C45.0279 22.6302 44.4787 22.311 44.474 21.8932C44.4411 21.9308 44.4083 21.9636 44.3848 21.9965C44.2017 22.2218 44.0092 22.2781 44.0984 22.433C44.1876 22.5879 44.2909 22.5551 44.3754 22.5175C44.4599 22.48 44.7228 22.4236 44.8401 22.4941C44.9575 22.5645 45.8775 22.7663 46.4643 22.3955C47.0558 22.0246 47.1825 21.6444 47.1825 21.6444V21.6397Z" fill="#EDBA9D"/>
<path fill-rule="evenodd" clip-rule="evenodd" d="M47.1824 21.64C47.1824 21.64 46.5252 21.1988 45.8211 21.2082C45.2108 21.2175 44.7179 21.6306 44.4785 21.8841C44.6757 21.7574 45.0418 21.5133 45.5394 21.4804C46.2764 21.4335 46.8632 21.6494 47.1167 21.7668C47.1636 21.687 47.1824 21.6353 47.1824 21.6353V21.64Z" fill="#ADA89F"/>
<path fill-rule="evenodd" clip-rule="evenodd" d="M46.2436 21.25C46.1075 21.2218 45.9667 21.2031 45.8212 21.2078C45.6287 21.2124 45.4456 21.2547 45.2766 21.3204C45.1593 21.4472 45.0889 21.6161 45.0889 21.8039C45.0889 22.1982 45.4081 22.5127 45.7977 22.5127C46.192 22.5127 46.5065 22.1935 46.5065 21.8039C46.5065 21.5786 46.4032 21.3814 46.2436 21.25Z" fill="#625D54"/>
<path d="M45.7976 22.0903C45.9557 22.0903 46.0839 21.9621 46.0839 21.8039C46.0839 21.6458 45.9557 21.5176 45.7976 21.5176C45.6394 21.5176 45.5112 21.6458 45.5112 21.8039C45.5112 21.9621 45.6394 22.0903 45.7976 22.0903Z" fill="#402F24"/>
<path d="M45.6051 21.8465C45.6803 21.8465 45.7413 21.7855 45.7413 21.7104C45.7413 21.6352 45.6803 21.5742 45.6051 21.5742C45.5299 21.5742 45.469 21.6352 45.469 21.7104C45.469 21.7855 45.5299 21.8465 45.6051 21.8465Z" fill="white"/>
<path fill-rule="evenodd" clip-rule="evenodd" d="M47.5345 21.5456C47.5345 21.5456 47.3702 21.5878 47.0791 21.4517C46.7881 21.3156 46.3234 21.0902 45.7272 21.1466C45.131 21.2076 44.9198 21.3766 44.7085 21.555C44.4973 21.738 44.333 22.0478 44.333 22.0478C44.333 22.0478 44.8728 21.3484 45.6662 21.2498C46.4595 21.1513 47.0181 21.7005 47.2669 21.6723C47.5157 21.6441 47.5392 21.5409 47.5392 21.5409L47.5345 21.5456Z" fill="#413024"/>
<path d="M42.8403 25.9484C42.9984 25.9484 43.1267 25.8245 43.1267 25.6715C43.1267 25.5185 42.9984 25.3945 42.8403 25.3945C42.6822 25.3945 42.554 25.5185 42.554 25.6715C42.554 25.8245 42.6822 25.9484 42.8403 25.9484Z" fill="#E6B79A"/>
</svg>
