<svg width="85" height="212" viewBox="0 0 85 212" fill="none" xmlns="http://www.w3.org/2000/svg">
<path fill-rule="evenodd" clip-rule="evenodd" d="M36.859 192.134C36.859 192.134 37.1502 192.988 37.3032 194.34C37.4563 195.693 37.4464 196.315 37.4464 196.315C37.4464 196.315 36.7652 197.317 35.309 197.884C33.8528 198.452 33.0581 198.457 33.0581 198.457L31.6068 198.2C31.6068 198.2 31.0342 198.733 29.9285 200.357C28.8228 201.981 27.2629 203.048 25.007 203.354C22.7462 203.66 18.6244 203.561 17.6372 203.127C16.6549 202.692 15.7664 201.577 15.7565 201.221C15.7466 200.866 15.4011 200.017 16.6648 198.862C17.9284 197.707 24.1679 194.439 25.4908 192.134C26.8088 189.828 35.9951 189.725 36.859 192.139V192.134Z" fill="#424852"/>
<path fill-rule="evenodd" clip-rule="evenodd" d="M36.4197 195.347C36.4197 195.347 34.544 196.152 33.2112 196.922C31.8784 197.692 31.37 198.037 30.4864 198.95C29.5978 199.869 28.5612 201.73 26.5028 202.401C24.4444 203.072 19.1182 203.23 18.1062 202.796C17.0943 202.361 16.2996 201.32 16.2996 201.32C16.2996 201.32 17.662 202.667 19.3403 202.702C21.0186 202.737 25.0022 202.47 26.2264 202.08C27.4506 201.69 28.7241 200.861 30.1902 198.496C31.6563 196.132 35.5263 195.465 36.4197 195.342V195.347ZM23.0227 200.713C23.0227 200.713 21.2161 200.826 19.1527 200.214C17.0894 199.607 17.4201 198.709 17.4201 198.709C17.4201 198.709 16.1811 200.229 18.4518 200.94C20.7224 201.651 23.0227 200.713 23.0227 200.713ZM26.9076 193.743C26.9076 193.743 26.4781 194.157 26.7546 194.567C27.031 194.977 27.7517 197.563 27.7517 197.563C27.7517 197.563 26.7546 195.549 26.3843 194.908C26.0141 194.261 25.9598 193.925 26.0289 193.703C26.098 193.481 26.1375 193.363 26.1375 193.363C26.1375 193.363 26.5917 193.298 26.9125 193.743H26.9076Z" fill="#58606D"/>
<path fill-rule="evenodd" clip-rule="evenodd" d="M60.8048 191.082C60.8048 191.082 63.0508 195.589 63.3025 196.374C63.5592 197.159 63.6332 199.864 63.6332 199.864C63.6332 199.864 63.8356 203.566 59.8373 203.808C55.8389 204.05 54.1606 201.73 54.0421 199.79C53.9236 197.85 53.7015 195.209 53.0943 193.935C52.4872 192.662 52.4872 192.662 52.4872 192.662C52.4872 192.662 52.0478 190.292 52.5217 189.394C52.9956 188.491 59.8373 190.292 60.7998 191.082H60.8048Z" fill="#424852"/>
<path fill-rule="evenodd" clip-rule="evenodd" d="M62.6806 199.755C62.6806 199.755 62.4239 202.149 59.6004 202.376C56.7768 202.603 55.4539 200.53 55.2811 199.715C55.1133 198.896 55.7057 201.201 58.3614 201.334C61.0171 201.468 62.1968 200.48 62.6806 199.755ZM58.4453 192.627C58.4453 192.627 59.0919 194.206 59.7238 194.67C60.3556 195.134 61.7624 195.46 61.7624 195.46C61.7624 195.46 59.857 194.725 59.5707 193.969C59.2844 193.214 59.0771 192.632 59.0771 192.632C59.0771 192.632 58.855 192.123 58.4453 192.627ZM56.1499 192.79C56.1499 192.79 56.5646 193.866 56.4066 194.547C56.2486 195.228 55.4786 196.141 55.4786 196.141C55.4786 196.141 56.7571 195.001 56.8854 194.231C57.0138 193.461 56.7423 192.854 56.7423 192.854C56.7423 192.854 56.4856 192.642 56.1499 192.79Z" fill="#58606D"/>
<path fill-rule="evenodd" clip-rule="evenodd" d="M59.3486 86.3449C59.3486 86.3449 62.8435 90.9209 63.6876 104.466C64.5317 118.011 61.101 137.672 61.101 137.672L60.4395 182.943L60.79 191.058C60.79 191.058 56.9447 192.099 54.9603 192.173C52.9759 192.247 52.1417 192.001 52.1417 192.001C52.1417 192.001 50.9373 188.841 51.0409 187.667C51.1446 186.487 51.3025 181.299 51.0903 180.272C50.9718 179.68 48.4494 165.666 47.3486 155.295C46.539 147.658 47.0277 143.161 47.082 141.508C47.2153 137.603 46.9241 136.063 46.8402 135.456C46.7612 134.849 44.3572 115.429 44.3572 115.429C44.2832 117.073 39.3716 141.364 40.3786 147.92C41.3856 154.475 39.7369 171.861 38.0586 180.006C36.3802 188.15 36.7406 188.18 36.7406 188.18L37.0565 192.904C37.0565 192.904 34.3465 194.059 30.822 193.63C27.3024 193.2 25.7475 191.645 25.7475 191.645C25.7475 191.645 27.184 189.567 27.2037 187.499C27.2284 185.43 26.3991 144.41 26.2461 142.352C26.0931 140.288 22.3761 116.555 23.2597 105.379C24.1383 94.2035 27.5147 85.9648 27.5147 85.9648C27.5147 85.9648 51.8505 86.4042 59.3437 86.3548L59.3486 86.3449Z" fill="#23314B"/>
<path fill-rule="evenodd" clip-rule="evenodd" d="M41.0845 95.2849C41.0845 95.2849 40.9512 106.51 41.0401 107.744C41.1289 108.978 43.7748 110.829 43.7748 110.829C43.7748 110.829 41.8348 108.139 41.9237 107.477C42.0125 106.816 42.1902 95.196 42.1902 95.196C42.1902 95.196 41.662 95.1072 41.0894 95.2849H41.0845Z" fill="#192233"/>
<path d="M16.4525 103.8C16.4525 103.8 18.2147 105.3 18.1801 107.961C18.1703 108.637 17.6668 109.936 17.4693 110.582C17.3558 110.948 17.0892 111.678 17.0695 112.058C17.0349 112.641 17.3262 113.801 17.2966 114.383C17.2571 115.114 16.7486 116.965 16.0181 117.009C15.2974 117.059 14.7791 115.143 14.7248 114.423C14.6803 113.771 15.4504 112.216 14.9321 111.816C14.7544 111.678 14.3595 111.945 14.1719 112.068C14.0189 112.172 13.6684 112.399 13.5993 112.572C13.5055 112.804 13.4018 113.258 13.3229 113.455C13.2883 113.539 13.0168 114.013 13.0909 114.309C13.239 114.906 13.4907 116.911 13.4907 116.911C13.4907 116.911 14.4335 117.389 14.8432 117.834C15.0358 118.041 15.9934 118.367 16.2303 118.515C16.5808 118.737 17.109 119.517 16.8474 119.843C16.487 120.297 14.7593 119.897 14.1522 119.527C13.2982 119.013 11.7926 118.416 11.4422 117.686C11.1114 116.989 10.8695 114.739 10.6425 114.092C10.4549 113.559 10.3759 113.376 10.218 112.789C10.0452 112.162 10.6474 109.862 11.1559 107.981C11.5705 106.451 12.6318 103.903 12.6318 103.903L16.4574 103.8H16.4525Z" fill="#C99676"/>
<path d="M17.109 115.385C17.1978 115.543 17.3212 115.765 17.3755 115.864C17.5285 116.135 18.0271 116.629 18.0024 116.94C17.9925 117.078 17.6421 117.354 17.6421 117.354C17.6421 117.354 18.5849 118.273 18.575 118.677C18.575 118.811 18.2591 119.097 18.2591 119.097C18.2591 119.097 18.2591 119.773 18.0962 119.897C17.879 120.054 17.2669 119.951 16.8325 119.847L16.8424 119.837C17.0991 119.512 16.5758 118.727 16.2254 118.509C15.9934 118.361 15.0357 118.036 14.8383 117.828C14.5075 117.473 13.7325 117.088 13.4808 116.95V116.851C13.4413 116.53 13.2192 114.842 13.0859 114.304C13.0168 114.013 13.2883 113.534 13.3179 113.45C13.3969 113.252 13.5005 112.803 13.5943 112.566C13.6634 112.393 14.0139 112.166 14.1669 112.063C14.3545 111.939 14.7494 111.678 14.9271 111.811C15.4454 112.211 14.6754 113.766 14.7198 114.417C14.7741 115.138 15.2924 117.053 16.0131 117.004C16.4969 116.969 16.8819 116.145 17.0991 115.38L17.109 115.385ZM12.6219 103.898C12.6219 103.898 12.3899 104.481 12.301 104.693C12.2072 104.925 12.0295 105.394 12.0295 105.394C12.0295 105.394 14.009 105.275 14.6951 105.275C16.2599 105.275 17.8296 105.907 17.8296 105.907C17.8296 105.907 17.6322 105.384 17.3854 104.95C17.1682 104.569 16.7042 103.898 16.7042 103.898L14.5372 103.656L12.6219 103.903V103.898Z" fill="#B07C5C"/>
<path d="M12.2516 102.176L12.1677 104.348C12.1677 104.348 14.2706 104.293 15.0011 104.358C17.4643 104.58 18.1998 104.96 18.1998 104.96L18.654 102.176L12.2516 102.171V102.176Z" fill="#C4C2CC"/>
<path d="M36.1382 28.3539C42.0321 28.3539 42.7379 27.7812 48.7503 27.7812C48.6071 28.9808 49.0267 35.9656 52.2106 36.7702L49.0712 43.8833L46.8696 59.1166L35.3879 48.8344L33.1863 37.5501C36.7799 35.1906 36.459 30.4123 36.1382 28.3539Z" fill="#C99676"/>
<path d="M36.1382 28.3539C42.0321 28.3539 42.738 27.7812 48.7504 27.7812C48.701 28.2058 48.6813 29.2523 48.7405 30.4863C48.0544 31.5476 47.0177 32.7718 44.3522 34.6969C41.6866 36.6221 37.9696 35.5805 35.8273 34.0306C36.5874 31.8882 36.311 29.4596 36.1432 28.3539H36.1382ZM50.172 34.9635C50.5719 35.8619 50.9865 35.9804 51.258 36.2963L49.0663 43.8833L47.6447 53.7213C46.9733 55.3058 46.2082 56.7225 45.3888 57.7888L35.7088 49.1207C35.5656 48.6962 35.4324 48.2717 35.304 47.8471L33.4727 37.3576C34.4402 36.5431 34.9683 35.9853 35.5064 34.8401C35.5064 34.8401 35.2793 37.0565 35.7779 38.5818C36.7602 41.5633 37.7425 41.9927 38.2361 43.1676C39.3024 45.6949 39.6282 46.6131 39.4751 47.4276C39.3221 48.242 39.5393 48.706 39.9392 49.3922C40.3341 50.0734 41.9038 52.349 41.9877 51.9294C42.0766 51.5098 42.3184 49.2392 43.4192 47.6941C44.52 46.1491 45.7985 45.0927 45.3394 44.1894C44.8754 43.286 45.0284 42.5653 45.8923 41.2128C46.7512 39.8603 49.6093 36.8343 50.172 34.9734V34.9635ZM42.1457 37.2095C42.1457 37.2095 42.0124 38.2461 42.3234 38.9076C42.6344 39.569 43.1181 39.2383 43.1181 39.2383C43.1181 39.2383 42.2789 38.8039 42.1457 37.2095Z" fill="#B07C5C"/>
<path d="M32.3076 90.2448C42.7774 93.2806 50.4928 93.0289 58.297 88.4184C56.7075 84.5928 55.3501 81.3299 53.7606 77.5043C48.7256 63.3619 52.2106 44.5597 52.8326 37.9205C52.3587 37.3676 52.0527 36.8592 51.8552 36.4692C51.7071 36.173 51.2777 34.9933 50.7347 35.7929C50.2805 38.5671 45.4134 41.7461 45.3541 42.5556C45.0975 43.6268 46.1489 43.5824 46.0354 44.1994C45.8132 45.3989 44.2237 47.3043 43.6857 48.3853C43.0292 49.7083 42.4911 54.5211 42.4911 54.5211C42.4911 54.5211 40.5364 51.668 40.0773 51.0114C38.1028 48.0349 39.0061 48.4396 38.9814 46.8255C38.9716 46.3072 38.9666 45.9715 38.5372 44.4561C38.1324 43.0246 35.1756 40.4429 34.6918 36.1582C34.6721 35.9707 34.0304 36.1237 33.9465 36.5679C28.4524 49.1998 41.6075 76.3196 32.3076 90.2448Z" fill="#F2F1F6"/>
<path d="M51.8997 36.4639C51.8997 36.4639 49.476 40.6942 48.5727 45.4281C48.4789 44.7568 48.1679 43.6362 48.1383 43.2808C48.0149 41.6815 47.2597 41.3853 46.7413 41.3705C46.0947 41.3557 45.4332 42.0715 45.3197 42.7033C45.2753 42.96 45.3493 43.2117 45.4925 43.4289C45.3641 43.1229 45.3691 42.7675 45.8874 42.0863C46.4057 41.4001 47.6249 42.1899 47.7829 42.8711C47.9853 43.7448 48.4197 45.0678 48.5579 45.5268C48.1186 47.8321 47.7138 50.2262 47.4719 52.2747C46.8055 57.986 47.3633 69.7392 48.8442 75.2036C50.098 79.8092 54.5703 85.0021 54.9997 89.1436C49.8611 92.2979 41.8594 92.8261 36.2024 89.9926C36.5085 86.5323 38.0486 76.9412 38.0486 72.7799C38.0486 67.3105 36.0198 53.3755 35.3929 48.8341C35.3188 48.3059 35.2645 47.7333 35.2251 47.1361C35.5163 46.9287 35.8372 46.6079 36.0889 46.1291C36.6862 44.9838 37.9203 45.7095 38.2707 46.3956C38.6212 47.0768 38.7347 47.6297 38.7347 47.6297C38.7347 47.6297 39.2432 45.9563 38.0733 44.7864C36.9034 43.6165 36.2222 44.9394 35.6051 46.1537C35.4669 46.4302 35.3337 46.6474 35.2053 46.8201C34.9338 42.2788 33.9564 36.5675 33.9564 36.5675C33.8133 36.8193 33.29 37.076 33.1617 37.3376C26.6162 50.5421 39.0951 78.9453 31.5772 90.1506C43.824 93.9713 50.1079 92.6039 58.46 88.8524C46.1243 59.6742 55.1873 54.8712 52.8179 37.772C52.5118 37.3376 52.2107 36.9032 51.9047 36.4688L51.8997 36.4639Z" fill="#C4C2CC"/>
<path d="M64.8279 97.693C64.8279 97.693 64.3885 98.4877 64.3095 98.7C64.0677 99.3318 63.342 101.686 63.342 101.686L59.2153 94.05L60.4297 93.127L64.8328 97.6881L64.8279 97.693Z" fill="#B07C5C"/>
<path d="M59.5164 93.8232L59.0376 95.161C59.0376 95.161 61.2194 96.3358 61.9549 96.7208C62.9372 97.2243 64.7587 98.0092 64.7587 98.0092C64.7587 98.0092 65.0796 97.2046 65.1487 96.9232C65.198 96.7258 65.4992 95.7286 65.4992 95.7286L59.5164 93.8282V93.8232Z" fill="#C4C2CC"/>
<path d="M22.376 108.238C22.376 108.238 26.3299 111.994 27.8602 110.953C31.1872 108.687 34.2477 97.2891 35.0474 88.8086C33.369 94.2385 30.1358 105.478 28.2304 107.808C26.325 110.138 22.3809 108.238 22.3809 108.238H22.376Z" fill="#192233"/>
<path d="M33.7441 36.7705C22.9584 43.5727 15.4158 38.1379 14.9172 52.3296C14.2854 70.3074 11.6938 87.0117 12.0097 102.541C12.0443 104.185 17.0941 102.694 18.5059 102.995C20.6334 91.4001 24.0986 83.3096 25.8559 69.0339C25.8559 75.4461 28.5561 81.493 26.6408 87.846C23.7877 97.2841 22.1537 101.939 21.6305 107.532C21.6305 107.532 25.6338 111.288 27.1492 110.247C30.4763 107.961 32.5495 99.229 34.9633 87.8114C36.0345 82.7468 36.3109 72.2622 35.9506 67.4888C35.6248 63.1548 33.9317 54.3238 33.5121 50.3057C33.1715 47.0478 33.7441 36.7705 33.7441 36.7705Z" fill="#23314B"/>
<path d="M52.0329 36.6514C52.0329 36.6514 49.1551 47.1212 48.9724 50.9023C48.8589 53.2569 48.6664 57.9711 48.7306 60.3207C48.8293 63.7169 48.8342 71.2052 49.6833 74.4828C50.32 76.951 52.3143 80.6334 54.1259 82.4796C57.6602 86.0781 58.3809 94.3414 58.3809 94.3414C61.3032 95.6841 63.5936 96.7108 65.2769 97.4266C65.2769 97.4266 67.128 92.6433 69.7146 87.638C72.0001 83.22 74.7249 75.1246 74.9273 72.9082C74.9865 72.2467 74.7052 66.0024 72.8886 59.99C70.9585 53.5975 71.8964 47.6247 69.3049 44.3569C66.2247 40.472 55.6216 39.1096 52.0378 36.6563L52.0329 36.6514ZM61.2242 62.236C61.2242 62.236 62.562 66.3775 63.6726 69.5022C64.9116 72.9921 65.2868 74.5421 65.2325 74.9567C65.0893 76.0723 62.5373 83.3484 61.3822 86.6014C57.1419 80.0658 59.7088 68.4705 61.2242 62.236Z" fill="#23314B"/>
<path d="M29.7556 39.9688C29.3607 40.8425 25.3229 47.9112 25.2883 48.5973C25.545 49.5895 28.3192 55.2218 29.5039 57.6949C28.4574 54.3727 26.9568 50.0239 27.0901 48.6812C27.2135 47.4126 29.0251 42.2493 29.7556 39.9688Z" fill="#35496E"/>
<path d="M65.2127 75.0801C63.9787 81.359 60.5184 86.9814 59.1165 94.5882C61.091 89.6865 65.5632 79.7794 65.2127 75.0801Z" fill="#182234"/>
<path fill-rule="evenodd" clip-rule="evenodd" d="M58.159 48.2375L54.1112 49.205L58.1441 49.1803C57.4333 51.5695 53.2819 65.7365 51.1445 73.5704C53.5287 66.7485 59.1215 48.6818 59.1215 48.6818C59.1215 48.6818 58.1836 43.0396 54.3778 38.4785C56.5695 41.5439 57.5715 44.56 58.159 48.2375Z" fill="#182234"/>
<path fill-rule="evenodd" clip-rule="evenodd" d="M25.2292 48.2373L29.272 49.2048L25.2391 49.1801C25.94 51.5693 32.7866 64.137 34.8895 71.9659C32.5398 65.144 24.2617 48.6766 24.2617 48.6766C24.2617 48.6766 25.4563 44.9794 29.6472 40.0283C27.4407 43.0937 25.9104 45.71 25.2243 48.2373H25.2292Z" fill="#182234"/>
<path d="M25.4808 40.6504C17.3854 42.7434 15.7268 44.1552 15.3714 54.3041C15.1048 61.827 15.4109 61.7579 14.3743 69.1228C15.6429 65.7266 16.6992 56.0861 17.0744 50.9475C17.5384 44.5797 20.4113 42.2893 25.4808 40.6455V40.6504Z" fill="#35496E"/>
<path fill-rule="evenodd" clip-rule="evenodd" d="M34.0898 92.9498C39.6332 95.8918 48.7455 94.6577 57.9911 91.543L58.2626 92.1649C51.3667 95.0477 40.7488 97.116 33.8726 93.8531L34.0898 92.9547V92.9498Z" fill="#192233"/>
<path d="M72.0989 58.0409C70.8056 52.1421 70.5835 47.3046 68.9693 44.6094C67.7352 42.551 60.3851 40.2408 57.0581 38.6562C57.0581 38.6562 65.509 42.6349 67.6316 44.9253C69.7542 47.2157 70.0108 50.9623 72.0989 58.0409Z" fill="#35496E"/>
<path fill-rule="evenodd" clip-rule="evenodd" d="M50.0339 20.7275C50.0339 20.7275 51.0705 20.461 51.2581 20.8707C51.4457 21.2804 51.6974 23.0871 51.4555 24.1878C51.2137 25.2886 50.1968 26.8337 49.7377 26.8337C49.2737 26.8337 49.254 26.6807 49.254 26.6807C49.2095 28.7687 49.4119 29.677 47.7534 31.3355C46.6279 32.461 44.7965 33.937 44.4658 34.2479C43.8142 34.8551 40.8228 34.8304 40.1959 34.2479C39.8652 33.937 38.0339 32.461 36.9084 31.3355C35.2498 29.677 35.4522 28.7736 35.4078 26.6807C35.4078 26.6807 35.388 26.8337 34.924 26.8337C34.46 26.8337 33.4481 25.2886 33.2062 24.1878C32.9643 23.0871 33.2161 21.2754 33.4036 20.8707C33.5912 20.461 34.6278 20.7275 34.6278 20.7275C33.8232 16.1417 34.0651 12.02 37.7278 10.5193C40.6797 9.30996 43.9821 9.30996 46.9339 10.5193C50.5917 12.02 50.8385 16.1417 50.0339 20.7275Z" fill="#C99676"/>
<path fill-rule="evenodd" clip-rule="evenodd" d="M34.7958 23.7137C34.7958 23.7137 34.2627 23.5064 34.3959 22.8449C34.5243 22.1835 34.5638 21.7294 34.2478 21.6306C33.9319 21.5319 33.5666 22.7117 33.6506 23.6594C33.7345 24.6072 34.4799 25.7228 34.4799 25.7228C34.4799 25.7228 33.537 24.696 33.5222 23.2201C33.5025 21.7442 33.7838 21.2012 34.1639 21.2012C34.544 21.2012 34.7316 21.7294 34.7316 21.8281C34.7316 21.9268 34.6082 22.8005 34.7958 23.7137ZM49.6342 23.7137C49.6342 23.7137 50.2611 23.5064 50.108 22.8449C49.955 22.1835 49.9106 21.7294 50.2858 21.6306C50.6609 21.5319 51.0904 22.7117 50.9916 23.6594C50.8929 24.6072 50.0093 25.7228 50.0093 25.7228C50.0093 25.7228 51.1249 24.696 51.1447 23.2201C51.1644 21.7442 50.8337 21.2012 50.3845 21.2012C49.9303 21.2012 49.7131 21.7294 49.7131 21.8281C49.7131 21.9268 49.8563 22.8005 49.6342 23.7137Z" fill="#B07C5C"/>
<path fill-rule="evenodd" clip-rule="evenodd" d="M35.4177 26.715V26.6805C35.4177 26.6805 35.398 26.8335 34.934 26.8335C34.855 26.8335 34.7612 26.7891 34.6526 26.7101C34.7118 26.7447 34.8648 26.7891 35.0672 26.4781C35.3338 26.0684 35.5214 24.4295 35.5066 25.0959C35.4967 25.4217 35.4671 26.098 35.4226 26.715H35.4177ZM49.259 26.715V26.6805C49.259 26.6805 49.2787 26.8335 49.7427 26.8335C49.8217 26.8335 49.9155 26.7891 50.0241 26.7101C49.9649 26.7447 49.8118 26.7891 49.6095 26.4781C49.3429 26.0684 49.1553 24.4295 49.1701 25.0959C49.18 25.4217 49.2096 26.098 49.254 26.715H49.259Z" fill="#B07C5C"/>
<path fill-rule="evenodd" clip-rule="evenodd" d="M40.4824 20.4119C40.9118 20.7327 41.6078 21.7743 41.3018 22.7221C40.9908 23.6698 40.5367 23.6007 40.7242 23.3045C40.9118 23.0084 41.055 22.1593 40.0825 21.3202C39.1101 20.481 38.9373 20.249 38.6708 20.1206C38.4042 19.9874 39.895 20.0417 40.4774 20.4168L40.4824 20.4119Z" fill="#B07C5C"/>
<path fill-rule="evenodd" clip-rule="evenodd" d="M37.0911 21.2317C37.0911 21.2317 37.9204 20.9059 38.9125 20.9602C39.9047 21.0145 40.4082 21.6019 40.6748 22.0264C40.9364 22.4509 40.9019 21.8832 40.502 21.4094C40.0972 20.9355 39.6629 20.7084 38.6904 20.8269C37.713 20.9404 37.1503 21.1033 37.096 21.2366L37.0911 21.2317Z" fill="#85583C"/>
<path fill-rule="evenodd" clip-rule="evenodd" d="M40.1959 22.8603C40.112 22.88 39.6628 23.1071 39.0556 23.1564C38.4485 23.2058 38.4978 23.1959 38.5521 23.2206C38.6064 23.2502 39.6085 23.2552 40.0676 23.0627C40.5266 22.8701 40.2946 22.8158 40.1959 22.8603Z" fill="#B07C5C"/>
<path fill-rule="evenodd" clip-rule="evenodd" d="M35.778 20.1998C35.778 20.1998 36.7406 20.1504 37.0812 20.1554C37.4218 20.1603 38.8731 20.2985 39.8159 20.4861C40.7538 20.6687 41.1042 20.8514 41.2622 20.9254C41.4152 21.0044 41.5485 20.7576 41.5929 20.5305C41.6374 20.2985 41.5831 20.0023 40.4132 19.7605C39.2433 19.5186 38.3202 19.0645 37.6242 19.0645C36.9282 19.0645 35.8916 19.7901 35.6596 19.9036C35.4275 20.0122 35.393 20.2541 35.783 20.1998H35.778Z" fill="#413024"/>
<path fill-rule="evenodd" clip-rule="evenodd" d="M37.4861 21.6415C37.4861 21.6415 38.1426 21.2022 38.8485 21.2121C39.5544 21.222 40.0974 21.7699 40.28 21.9969C40.4626 22.224 40.6552 22.2783 40.5663 22.4313C40.4775 22.5844 40.3738 22.5547 40.2899 22.5152C40.206 22.4758 39.9443 22.4215 39.8259 22.4955C39.7123 22.5695 38.7893 22.767 38.2018 22.3968C37.6144 22.0266 37.4861 21.6465 37.4861 21.6465V21.6415Z" fill="white"/>
<path fill-rule="evenodd" clip-rule="evenodd" d="M37.4861 21.6412C37.4861 21.6412 37.5157 21.6214 37.5651 21.5918C37.6589 21.7892 38.0241 22.4507 38.7991 22.5346C39.6383 22.6284 40.1912 22.3076 40.1961 21.8929C40.2306 21.9324 40.2603 21.967 40.2849 21.9966C40.4676 22.2236 40.6601 22.2779 40.5712 22.431C40.4824 22.584 40.3787 22.5544 40.2948 22.5149C40.2109 22.4754 39.9493 22.4211 39.8308 22.4951C39.7173 22.5692 38.7942 22.7666 38.2068 22.3964C37.6194 22.0262 37.491 21.6461 37.491 21.6461L37.4861 21.6412Z" fill="#EDBA9D"/>
<path fill-rule="evenodd" clip-rule="evenodd" d="M37.4861 21.6415C37.4861 21.6415 38.1426 21.2022 38.8485 21.2121C39.4606 21.222 39.9493 21.6317 40.1912 21.8883C39.9937 21.76 39.6284 21.5181 39.1299 21.4885C38.3944 21.4441 37.8069 21.6613 37.5552 21.7748C37.5058 21.6958 37.491 21.6465 37.491 21.6465L37.4861 21.6415Z" fill="#ADA89F"/>
<path fill-rule="evenodd" clip-rule="evenodd" d="M38.4238 21.2515C38.562 21.2218 38.7002 21.207 38.8483 21.207C39.0408 21.212 39.2235 21.2564 39.3913 21.3206C39.5098 21.4489 39.5789 21.6167 39.5789 21.8043C39.5789 22.1943 39.2629 22.5151 38.868 22.5151C38.4781 22.5151 38.1572 22.1992 38.1572 21.8043C38.1572 21.5822 38.2609 21.3798 38.4188 21.2515H38.4238Z" fill="#625D54"/>
<path d="M38.8681 22.0902C39.0262 22.0902 39.1544 21.962 39.1544 21.8039C39.1544 21.6458 39.0262 21.5176 38.8681 21.5176C38.71 21.5176 38.5818 21.6458 38.5818 21.8039C38.5818 21.962 38.71 22.0902 38.8681 22.0902Z" fill="#402F24"/>
<path d="M38.6707 21.8487C38.747 21.8487 38.8089 21.7868 38.8089 21.7105C38.8089 21.6341 38.747 21.5723 38.6707 21.5723C38.5944 21.5723 38.5325 21.6341 38.5325 21.7105C38.5325 21.7868 38.5944 21.8487 38.6707 21.8487Z" fill="white"/>
<path fill-rule="evenodd" clip-rule="evenodd" d="M37.1306 21.5477C37.1306 21.5477 37.2984 21.5921 37.5897 21.4539C37.8809 21.3157 38.3449 21.0886 38.9422 21.1528C39.5395 21.212 39.7518 21.3798 39.9591 21.5625C40.1664 21.7451 40.3342 22.0561 40.3342 22.0561C40.3342 22.0561 39.7913 21.3552 39.0015 21.2614C38.2117 21.1627 37.6489 21.7106 37.4021 21.681C37.1553 21.6513 37.1306 21.5477 37.1306 21.5477Z" fill="#413024"/>
<path fill-rule="evenodd" clip-rule="evenodd" d="M41.1486 27.2688C41.1486 27.2688 40.5513 27.1701 40.4427 26.6271C40.3341 26.089 40.9166 25.7583 40.9413 25.5905C40.961 25.4226 40.6895 25.3683 40.4772 25.7682C40.2699 26.1631 39.9688 27.0812 41.1486 27.2688Z" fill="#B07C5C"/>
<path fill-rule="evenodd" clip-rule="evenodd" d="M44.0215 27.2688C44.0215 27.2688 44.6188 27.1701 44.7274 26.6271C44.836 26.089 44.2535 25.7583 44.2288 25.5905C44.2091 25.4226 44.4806 25.3683 44.6928 25.7682C44.9001 26.1631 45.2013 27.0812 44.0215 27.2688Z" fill="#B07C5C"/>
<path fill-rule="evenodd" clip-rule="evenodd" d="M43.37 26.9776C43.37 26.9776 43.839 27.0763 44.0315 26.9381C44.224 26.7999 44.0117 26.7209 43.6563 26.7653C43.3059 26.8098 42.9801 27.1355 42.9801 27.1355C42.9801 27.1355 43.291 26.8986 43.37 26.9776ZM41.8003 26.9776C41.8003 26.9776 41.3313 27.0763 41.1388 26.9381C40.9463 26.7999 41.1586 26.7209 41.514 26.7653C41.8645 26.8098 42.1903 27.1355 42.1903 27.1355C42.1903 27.1355 41.8793 26.8986 41.8003 26.9776Z" fill="#633C24"/>
<path fill-rule="evenodd" clip-rule="evenodd" d="M39.7171 29.7025C39.416 29.7074 39.105 29.6136 39.189 29.4359C39.2729 29.2582 39.574 29.5791 39.7221 29.5347C39.8702 29.4902 40.4625 29.2582 40.7587 29.0706C41.0549 28.8831 41.4399 28.6708 41.9286 28.8732C42.4469 29.0904 42.5851 29.0904 43.1034 28.8732C43.5872 28.6708 43.9722 28.8831 44.2733 29.0706C44.5695 29.2582 45.1618 29.4902 45.3099 29.5347C45.458 29.5791 45.7641 29.2582 45.843 29.4359C45.9269 29.6136 45.616 29.7074 45.3149 29.7025C44.994 29.737 44.5547 29.7321 43.913 29.6235C43.5427 29.5643 43.365 29.6482 43.1034 29.7222C42.9356 29.8456 42.1013 29.8456 41.9286 29.7222C41.662 29.6482 41.4893 29.5643 41.119 29.6235C40.4773 29.7272 40.038 29.7321 39.7171 29.7025Z" fill="#A37050"/>
<path fill-rule="evenodd" clip-rule="evenodd" d="M44.2783 30.0274C44.2783 30.0274 43.5428 30.0323 43.0837 30.1311C42.6197 30.2298 42.131 30.1804 41.7904 30.1459C41.4498 30.1113 41.4103 30.4618 41.8546 30.6691C42.2988 30.8764 42.516 30.6099 42.5506 30.4865C42.5851 30.3631 42.6641 30.3927 42.6789 30.4914C42.6888 30.5901 42.9899 30.8715 43.7748 30.6691C44.5646 30.4667 44.5892 30.1113 44.2832 30.0225L44.2783 30.0274Z" fill="#E6B79A"/>
<path fill-rule="evenodd" clip-rule="evenodd" d="M41.1091 31.0937C41.1091 31.0937 41.4843 31.3208 42.6295 31.3405C43.7747 31.3602 44.2733 31.0098 44.2733 31.0098C44.2733 31.0098 43.75 31.5281 42.669 31.5577C41.5879 31.5873 41.1091 31.0937 41.1091 31.0937Z" fill="#A16E4F"/>
<path fill-rule="evenodd" clip-rule="evenodd" d="M44.1844 20.4119C43.7549 20.7328 43.2564 21.2857 43.2663 22.1791C43.2761 23.0726 43.4835 22.6184 43.5427 22.2433C43.6069 21.8681 44.061 21.3202 44.6533 20.7723C45.2457 20.2194 45.7245 20.249 45.9861 20.1158C46.2527 19.9825 44.7619 20.0368 44.1795 20.4119H44.1844Z" fill="#B07C5C"/>
<path fill-rule="evenodd" clip-rule="evenodd" d="M47.5757 21.2317C47.5757 21.2317 46.7464 20.9059 45.7543 20.9602C44.7621 21.0145 44.2586 21.6019 43.992 22.0264C43.7304 22.4509 43.7649 21.8832 44.1648 21.4094C44.5695 20.9355 45.0039 20.7084 45.9764 20.8269C46.9538 20.9404 47.5165 21.1033 47.5708 21.2366L47.5757 21.2317Z" fill="#85583C"/>
<path fill-rule="evenodd" clip-rule="evenodd" d="M44.4756 22.8603C44.5595 22.88 45.0087 23.1071 45.6159 23.1564C46.223 23.2058 46.1737 23.1959 46.1194 23.2206C46.0651 23.2502 45.063 23.2552 44.6039 23.0627C44.1449 22.8701 44.3769 22.8158 44.4756 22.8603Z" fill="#B07C5C"/>
<path fill-rule="evenodd" clip-rule="evenodd" d="M48.8887 20.1998C48.8887 20.1998 47.9262 20.1504 47.5856 20.1554C47.245 20.1603 45.7937 20.2985 44.8509 20.4861C43.913 20.6687 43.5625 20.8514 43.4045 20.9254C43.2515 21.0044 43.1182 20.7576 43.0738 20.5305C43.0294 20.2985 43.0837 20.0023 44.2536 19.7605C45.4235 19.5186 46.3466 19.0645 47.0426 19.0645C47.7386 19.0645 48.7752 19.7901 49.0072 19.9036C49.2392 20.0122 49.2738 20.2541 48.8838 20.1998H48.8887Z" fill="#413024"/>
<path fill-rule="evenodd" clip-rule="evenodd" d="M47.1807 21.6415C47.1807 21.6415 46.5242 21.2022 45.8183 21.2121C45.1124 21.222 44.5694 21.7699 44.3868 21.9969C44.2041 22.224 44.0116 22.2783 44.1005 22.4313C44.1893 22.5844 44.293 22.5547 44.3769 22.5152C44.4608 22.4758 44.7225 22.4215 44.8409 22.4955C44.9545 22.5695 45.8775 22.767 46.465 22.3968C47.0524 22.0266 47.1807 21.6465 47.1807 21.6465V21.6415Z" fill="white"/>
<path fill-rule="evenodd" clip-rule="evenodd" d="M47.1808 21.6412C47.1808 21.6412 47.1511 21.6214 47.1018 21.5918C47.008 21.7892 46.6427 22.4507 45.8677 22.5346C45.0286 22.6284 44.4757 22.3076 44.4708 21.8929C44.4362 21.9324 44.4066 21.967 44.3819 21.9966C44.1993 22.2236 44.0067 22.2779 44.0956 22.431C44.1845 22.584 44.2881 22.5544 44.372 22.5149C44.4559 22.4754 44.7176 22.4211 44.836 22.4951C44.9496 22.5692 45.8727 22.7666 46.4601 22.3964C47.0475 22.0262 47.1758 21.6461 47.1758 21.6461L47.1808 21.6412Z" fill="#EDBA9D"/>
<path fill-rule="evenodd" clip-rule="evenodd" d="M47.1807 21.6415C47.1807 21.6415 46.5241 21.2022 45.8182 21.2121C45.2062 21.222 44.7175 21.6317 44.4756 21.8883C44.673 21.76 45.0383 21.5181 45.5369 21.4885C46.2724 21.4441 46.8598 21.6613 47.1115 21.7748C47.1609 21.6958 47.1757 21.6465 47.1757 21.6465L47.1807 21.6415Z" fill="#ADA89F"/>
<path fill-rule="evenodd" clip-rule="evenodd" d="M46.243 21.2515C46.1048 21.2218 45.9665 21.207 45.8185 21.207C45.6259 21.212 45.4433 21.2564 45.2755 21.3206C45.157 21.4489 45.0879 21.6167 45.0879 21.8043C45.0879 22.1943 45.4038 22.5151 45.7987 22.5151C46.1887 22.5151 46.5095 22.1992 46.5095 21.8043C46.5095 21.5822 46.4059 21.3798 46.2479 21.2515H46.243Z" fill="#625D54"/>
<path d="M45.7985 22.0902C45.9566 22.0902 46.0848 21.962 46.0848 21.8039C46.0848 21.6458 45.9566 21.5176 45.7985 21.5176C45.6404 21.5176 45.5122 21.6458 45.5122 21.8039C45.5122 21.962 45.6404 22.0902 45.7985 22.0902Z" fill="#402F24"/>
<path d="M45.606 21.8487C45.6823 21.8487 45.7442 21.7868 45.7442 21.7105C45.7442 21.6341 45.6823 21.5723 45.606 21.5723C45.5297 21.5723 45.4678 21.6341 45.4678 21.7105C45.4678 21.7868 45.5297 21.8487 45.606 21.8487Z" fill="white"/>
<path fill-rule="evenodd" clip-rule="evenodd" d="M47.5362 21.5477C47.5362 21.5477 47.3683 21.5921 47.0771 21.4539C46.7858 21.3157 46.3218 21.0886 45.7245 21.1528C45.1273 21.212 44.915 21.3798 44.7077 21.5625C44.5004 21.7451 44.3325 22.0561 44.3325 22.0561C44.3325 22.0561 44.8755 21.3552 45.6653 21.2614C46.4551 21.1627 47.0178 21.7106 47.2647 21.681C47.5115 21.6513 47.5362 21.5477 47.5362 21.5477Z" fill="#413024"/>
<path d="M42.8417 25.9503C42.9998 25.9503 43.128 25.8266 43.128 25.6739C43.128 25.5212 42.9998 25.3975 42.8417 25.3975C42.6836 25.3975 42.5554 25.5212 42.5554 25.6739C42.5554 25.8266 42.6836 25.9503 42.8417 25.9503Z" fill="#E6B79A"/>
</svg>
