<svg width="85" height="212" viewBox="0 0 85 212" fill="none" xmlns="http://www.w3.org/2000/svg">
<path fill-rule="evenodd" clip-rule="evenodd" d="M36.6952 192.135C36.6952 192.135 36.9849 192.989 37.1401 194.344C37.2952 195.699 37.2849 196.315 37.2849 196.315C37.2849 196.315 36.6073 197.318 35.1486 197.887C33.6899 198.456 32.8985 198.456 32.8985 198.456L31.4502 198.198C31.4502 198.198 30.8761 198.731 29.7743 200.355C28.6725 201.979 27.1104 203.05 24.85 203.355C22.5896 203.66 18.4671 203.562 17.4791 203.127C16.4963 202.693 15.6118 201.575 15.6014 201.224C15.5911 200.872 15.2445 200.018 16.5066 198.865C17.7688 197.712 24.0121 194.442 25.3311 192.141C26.6501 189.839 35.8366 189.735 36.7004 192.146L36.6952 192.135Z" fill="#424852"/>
<path fill-rule="evenodd" clip-rule="evenodd" d="M36.2505 195.347C36.2505 195.347 34.3728 196.149 33.0383 196.925C31.7038 197.696 31.1969 198.037 30.3124 198.958C29.4227 199.873 28.3882 201.736 26.3295 202.408C24.2708 203.08 18.9482 203.241 17.9344 202.801C16.9206 202.367 16.1292 201.322 16.1292 201.322C16.1292 201.322 17.4895 202.672 19.1706 202.708C20.8517 202.744 24.8346 202.475 26.0605 202.087C27.2864 201.699 28.5589 200.867 30.0227 198.503C31.4865 196.139 35.3556 195.472 36.2505 195.353V195.347ZM22.8535 200.711C22.8535 200.711 21.0431 200.825 18.9844 200.215C16.9206 199.604 17.2516 198.704 17.2516 198.704C17.2516 198.704 16.0102 200.225 18.2861 200.939C20.5569 201.648 22.8587 200.711 22.8587 200.711H22.8535ZM26.7381 193.744C26.7381 193.744 26.3088 194.158 26.5829 194.572C26.8571 194.98 27.5812 197.572 27.5812 197.572C27.5812 197.572 26.5829 195.559 26.2105 194.913C25.8381 194.266 25.7864 193.93 25.8536 193.708C25.9208 193.485 25.9622 193.366 25.9622 193.366C25.9622 193.366 26.4174 193.304 26.7381 193.744Z" fill="#58606D"/>
<path fill-rule="evenodd" clip-rule="evenodd" d="M60.634 191.08C60.634 191.08 62.8789 195.591 63.1323 196.372C63.3858 197.158 63.4634 199.863 63.4634 199.863C63.4634 199.863 63.6703 203.567 59.6667 203.805C55.6683 204.048 53.9924 201.725 53.8734 199.786C53.7544 197.846 53.5372 195.203 52.9268 193.93C52.3165 192.658 52.3165 192.658 52.3165 192.658C52.3165 192.658 51.8768 190.289 52.3527 189.389C52.8285 188.489 59.6667 190.289 60.6288 191.075L60.634 191.08Z" fill="#424852"/>
<path fill-rule="evenodd" clip-rule="evenodd" d="M62.5117 199.754C62.5117 199.754 62.2531 202.149 59.4288 202.377C56.6046 202.605 55.2804 200.53 55.1097 199.713C54.939 198.896 55.5339 201.198 58.1926 201.332C60.8513 201.467 62.0306 200.479 62.5117 199.754ZM58.2753 192.627C58.2753 192.627 58.9219 194.204 59.553 194.67C60.184 195.13 61.5961 195.461 61.5961 195.461C61.5961 195.461 59.6875 194.727 59.403 193.972C59.1185 193.216 58.9116 192.637 58.9116 192.637C58.9116 192.637 58.6891 192.13 58.2753 192.632V192.627ZM55.9787 192.787C55.9787 192.787 56.3925 193.863 56.2322 194.546C56.0718 195.228 55.3011 196.144 55.3011 196.144C55.3011 196.144 56.5787 195.006 56.708 194.235C56.8322 193.465 56.5684 192.854 56.5684 192.854C56.5684 192.854 56.3098 192.642 55.9787 192.787Z" fill="#58606D"/>
<path fill-rule="evenodd" clip-rule="evenodd" d="M59.1805 86.3454C59.1805 86.3454 65.8893 95.5319 65.2531 104.951C64.6169 114.37 63.841 137.999 63.841 137.999L64.2134 150.351L61.9685 184.583L61.4202 191.162C61.4202 191.162 56.7804 192.094 54.7942 192.171C52.8079 192.249 51.9751 191.995 51.9751 191.995C51.9751 191.995 50.0302 188.783 50.1337 187.609C50.2371 186.43 50.3923 181.236 50.1854 180.212C49.9785 179.188 45.887 148.256 46.0215 144.356C46.156 140.451 45.8611 138.914 45.7835 138.304C45.7008 137.699 44.2007 115.42 44.2007 115.42C44.2007 115.42 39.5351 146.435 40.223 147.915C40.911 149.394 41.1489 171.972 39.4678 180.119C37.7867 188.261 38.485 188.545 38.485 188.545L36.897 192.9C36.897 192.9 34.1866 194.059 30.6641 193.63C27.1416 193.2 25.5898 191.644 25.5898 191.644C25.5898 191.644 26.2312 189.088 26.2519 187.024C26.2777 184.955 24.0432 144.573 23.8932 142.509C23.738 140.451 21.9276 112.689 21.6431 106.596C21.3586 100.503 27.3536 85.9678 27.3536 85.9678C27.3536 85.9678 51.6906 86.4074 59.1805 86.3557V86.3454Z" fill="#23314B"/>
<path fill-rule="evenodd" clip-rule="evenodd" d="M40.8903 95.6412C40.8903 95.6412 40.7868 106.509 40.8748 107.74C40.9627 108.976 43.6111 110.828 43.6111 110.828C43.6111 110.828 41.6714 108.138 41.7593 107.476C41.8472 106.814 41.9972 95.5532 41.9972 95.5532C41.9972 95.5532 41.4696 95.4653 40.8955 95.6412H40.8903Z" fill="#192233"/>
<path d="M16.455 103.798C16.455 103.798 18.374 105.298 18.343 107.962C18.3327 108.639 17.7844 109.933 17.5671 110.584C17.443 110.952 17.1533 111.681 17.1274 112.064C17.0912 112.648 17.4119 113.807 17.3757 114.386C17.3292 115.115 16.7757 116.967 15.9843 117.014C15.1981 117.06 14.6343 115.146 14.5722 114.427C14.5205 113.776 15.3636 112.219 14.7946 111.821C14.6032 111.686 14.1687 111.95 13.967 112.069C13.7963 112.172 13.4135 112.4 13.3411 112.571C13.2377 112.803 13.1239 113.258 13.0411 113.455C13.0049 113.538 12.7101 114.014 12.7877 114.309C12.948 114.903 13.2222 116.91 13.2222 116.91C13.2222 116.91 14.2515 117.391 14.6963 117.836C14.9084 118.043 15.9533 118.369 16.2067 118.519C16.5895 118.741 17.1637 119.522 16.8843 119.848C16.486 120.304 14.6032 119.9 13.9411 119.533C13.0101 119.016 11.3652 118.421 10.9876 117.691C10.6255 116.998 10.3617 114.743 10.1186 114.102C9.9117 113.569 9.82894 113.383 9.65308 112.798C9.46169 112.172 10.1238 109.87 10.6772 107.993C11.1273 106.462 12.2859 103.912 12.2859 103.912L16.4602 103.808L16.455 103.798Z" fill="#C99676"/>
<path d="M17.1687 115.385C17.2618 115.54 17.4015 115.762 17.4636 115.861C17.6343 116.13 18.1774 116.626 18.1464 116.937C18.1308 117.071 17.7532 117.35 17.7532 117.35C17.7532 117.35 18.7826 118.271 18.7722 118.674C18.7722 118.809 18.4257 119.093 18.4257 119.093C18.4257 119.093 18.4257 119.771 18.2498 119.89C18.0119 120.05 17.3446 119.942 16.8739 119.838L16.8842 119.828C17.1687 119.502 16.5894 118.721 16.2066 118.499C15.9532 118.349 14.9083 118.028 14.6962 117.816C14.3342 117.459 13.4962 117.076 13.2169 116.937L13.2117 116.838C13.1652 116.518 12.9272 114.831 12.7824 114.293C12.7048 113.998 13.0048 113.528 13.0358 113.44C13.1186 113.243 13.2376 112.793 13.3359 112.555C13.4134 112.385 13.7962 112.157 13.9617 112.054C14.1635 111.929 14.598 111.666 14.7894 111.805C15.3532 112.204 14.5152 113.761 14.5669 114.412C14.6238 115.131 15.1876 117.05 15.979 116.999C16.5066 116.968 16.9256 116.14 17.1636 115.374L17.1687 115.385ZM12.2755 103.896C12.2755 103.896 12.022 104.481 11.9289 104.693C11.8255 104.926 11.6289 105.391 11.6289 105.391C11.6289 105.391 13.791 105.272 14.5411 105.272C16.2532 105.272 17.9601 105.903 17.9601 105.903C17.9601 105.903 17.7481 105.381 17.4739 104.946C17.236 104.569 16.7291 103.891 16.7291 103.891L14.3652 103.653L12.2755 103.896Z" fill="#B07C5C"/>
<path d="M11.484 102.179L11.3857 104.351C11.3857 104.351 13.7703 104.3 14.6031 104.362C17.4014 104.584 18.2291 104.962 18.2291 104.962L18.7463 102.179L11.484 102.174V102.179Z" fill="#C4C2CC"/>
<path d="M35.4589 28.3564C41.8418 28.3564 42.3591 27.7822 48.8765 27.7822C48.7214 28.9823 49.6783 34.9876 51.0335 36.4515L49.4714 43.8793L47.0868 59.1125L34.652 48.8346L33.5605 38.4481C36.1934 36.4049 35.8054 30.4151 35.4589 28.3564Z" fill="#C99676"/>
<path d="M35.4589 28.3564C41.8781 28.3564 42.4212 27.834 48.9748 27.834C48.9179 28.2581 49.0524 29.303 49.1093 30.5392C48.3593 31.5996 47.273 32.7686 44.3661 34.698C41.4591 36.6222 37.8486 35.8411 35.5158 34.2894C35.7279 31.8686 35.6451 29.4633 35.4589 28.3564ZM50.149 34.7911C50.3404 35.448 50.6197 35.9653 50.9145 36.2808L49.5076 43.8845L47.961 53.7227C47.2317 55.3055 46.3989 56.728 45.504 57.7935L34.9623 49.1243C34.8071 48.7002 34.6623 48.276 34.5175 47.8467L33.5605 38.4481C34.6158 37.636 34.9934 36.6067 35.3916 34.9773L35.5623 35.2721C35.5623 35.2721 36.4417 39.6378 37.5227 42.1931C38.6038 44.7483 39.2297 46.6053 39.059 47.4174C38.8883 48.2346 39.1314 48.695 39.5607 49.3778C39.9952 50.0605 41.697 52.3313 41.7953 51.9123C41.8936 51.4933 42.1574 49.2226 43.3574 47.6812C44.5574 46.1397 45.9489 45.0794 45.4471 44.1742C44.9454 43.269 45.1109 42.55 46.0471 41.1999C46.9834 39.8447 49.5335 36.6481 50.149 34.7859V34.7911ZM41.966 37.2119C41.966 37.2119 41.8212 38.2464 42.1574 38.9085C42.4936 39.5706 43.0212 39.2395 43.0212 39.2395C43.0212 39.2395 42.1108 38.805 41.966 37.2119Z" fill="#B07C5C"/>
<path d="M31.052 90.2458C43.0782 93.2821 51.9285 93.0338 60.8564 88.4199C59.0098 84.5922 57.4425 81.3335 55.5959 77.5058C49.7509 63.3639 52.032 44.334 52.7096 37.6924C51.5199 36.4821 51.2302 35.4889 51.2302 35.4889C51.2302 35.4889 50.7026 35.1061 50.4233 35.4682C49.9164 38.2407 45.8352 41.7477 45.7732 42.5547C45.4835 43.6254 46.6939 43.584 46.5646 44.1995C46.3163 45.3996 44.5007 47.3031 43.8903 48.3842C43.1403 49.7083 42.5506 54.5188 42.5506 54.5188C42.5506 54.5188 40.2902 51.6636 39.7678 51.0066C37.4867 48.0324 38.5264 48.4307 38.485 46.822C38.4747 46.2996 38.4643 45.9686 37.9626 44.453C37.4919 43.0202 35.8573 39.7511 35.2832 35.4631C35.2573 35.2717 34.4814 35.8976 34.3573 36.1251C33.359 38.1062 33.4004 39.4356 32.3193 42.3064C29.8002 53.3809 40.9782 77.1954 31.052 90.2406V90.2458Z" fill="#F2F1F6"/>
<path d="M51.6543 36.3838C51.6543 36.3838 50.4905 40.6925 49.4767 45.4255C49.3629 44.753 49.0008 43.6306 48.9697 43.2788C48.8197 41.6805 47.9559 41.3805 47.3611 41.3702C46.6214 41.3546 45.8662 42.0685 45.7369 42.7047C45.6852 42.9633 45.7731 43.2116 45.9334 43.4288C45.7834 43.1185 45.7886 42.7668 46.3783 42.084C46.968 41.4012 48.3697 42.1874 48.5559 42.865C48.7887 43.7392 49.2956 45.0634 49.4611 45.5186C48.9697 47.8204 48.5146 50.2204 48.2508 52.2688C47.5111 57.9793 48.2146 69.7314 49.9422 75.1988C51.4009 79.8024 56.5631 85.0008 57.0752 89.1389C51.194 92.2942 42.0178 92.8218 35.5159 89.9872C35.8469 86.5267 37.5642 76.9368 37.5435 72.778C37.5177 67.3106 35.1176 53.3757 34.3727 48.8342C34.2848 48.3066 34.2227 47.7376 34.171 47.1376C34.5021 46.9307 34.8745 46.61 35.1538 46.1341C35.8314 44.9858 37.2487 45.7151 37.6573 46.3979C38.066 47.0807 38.1953 47.6341 38.1953 47.6341C38.1953 47.6341 38.7694 45.9582 37.4194 44.7892C36.0745 43.6202 35.2935 44.9444 34.5952 46.1548C34.4348 46.4289 34.2848 46.6462 34.14 46.822C33.8038 42.2805 34.0934 36.6838 34.0934 36.6838C33.8089 37.0407 33.6279 37.1752 33.4158 37.4597C25.6828 50.3963 38.6298 78.9334 30.1726 89.9924C44.2368 93.8149 51.4681 92.6045 61.0322 88.8492C46.73 59.6707 55.5079 54.7878 52.7043 37.6925C52.3526 37.258 52.0009 36.8235 51.6491 36.389L51.6543 36.3838Z" fill="#C4C2CC"/>
<path d="M64.6581 97.6947C64.6581 97.6947 64.2185 98.4913 64.1409 98.7034C63.8978 99.3344 63.1736 101.693 63.1736 101.693L59.0459 94.0584L60.2615 93.1377L64.6633 97.6999L64.6581 97.6947Z" fill="#B07C5C"/>
<path d="M59.346 93.8255L58.865 95.16C58.865 95.16 61.0478 96.3342 61.7823 96.717C62.7651 97.2187 64.5859 98.0049 64.5859 98.0049C64.5859 98.0049 64.9066 97.2032 64.979 96.9187C65.0255 96.7221 65.3307 95.7238 65.3307 95.7238L59.346 93.8203V93.8255Z" fill="#C4C2CC"/>
<path d="M33.478 37.3714C33.478 37.3714 31.0107 39.2697 27.8865 40.1646C18.5034 42.8336 16.4188 44.732 16.0723 54.1047C15.8343 60.4928 15.1309 65.4688 14.0395 71.6501C12.5601 77.614 12.0739 80.9762 11.8463 85.5901C11.6187 90.2093 11.1428 102.541 11.1428 102.541C12.7825 102.51 17.3085 102.696 18.7206 102.996C20.4121 95.8215 23.0553 82.4504 24.1312 79.8279C24.2243 82.8694 22.657 87.8506 21.8552 92.9714C21.2759 96.675 20.6655 107.33 20.6655 107.33C20.6655 107.33 25.4657 111.293 26.9813 110.248C30.3124 107.962 32.3969 99.2302 34.8384 87.8092C35.9195 82.7452 36.2143 72.2604 35.8574 67.4861C35.5367 63.1515 33.8608 54.3219 33.447 50.3028C33.1108 47.0493 33.478 37.3662 33.478 37.3662V37.3714Z" fill="#23314B"/>
<path d="M51.7319 36.4766C51.7319 36.4766 49.0783 47.1217 48.8869 50.9029C48.7732 53.2564 48.5662 57.9686 48.6283 60.3221C48.7214 63.7205 48.7163 71.2052 49.5542 74.4847C50.1853 76.952 52.1767 80.6349 53.9819 82.4815C57.5096 86.0816 58.2131 94.3422 58.2131 94.3422C61.1356 95.687 63.6598 96.8198 65.3409 97.5337C65.3409 97.5337 68.0151 92.6766 70.5238 87.6282C73.0687 82.5073 74.8378 75.1416 75.0447 72.9174C75.1067 72.2553 74.5636 65.9965 73.017 59.7894C71.279 52.8064 69.5048 46.9355 67.7668 44.5923C66.3961 42.7406 55.1044 38.318 51.7267 36.4766H51.7319ZM62.046 74.676C61.6632 70.7811 60.5718 64.9361 60.5718 64.9361C60.5718 64.9361 61.1149 67.2689 62.2167 70.3931C63.4529 73.8846 64.0529 74.345 64.1098 74.6088C63.9236 75.6381 63.6598 76.6261 63.0184 79.0676C62.8839 78.5193 62.1287 75.664 62.046 74.6812V74.676Z" fill="#23314B"/>
<path d="M30.5399 39.9688C30.1313 40.8429 25.9984 47.9087 25.957 48.5966C26.2001 49.5897 28.9002 55.2175 30.0537 57.6952C29.0502 54.3692 27.6123 50.0242 27.7623 48.6794C27.9071 47.4121 29.7847 42.2447 30.5451 39.9688H30.5399Z" fill="#35496E"/>
<path d="M64.4048 75.1523C63.2151 81.2094 60.0339 86.2889 58.5959 93.4891C58.627 93.7012 58.9425 94.3323 59.0201 94.7254C60.9908 89.8218 64.7513 79.8542 64.3996 75.1523H64.4048Z" fill="#182234"/>
<path fill-rule="evenodd" clip-rule="evenodd" d="M57.1061 48.2343L53.0767 49.2016L57.1113 49.1757C56.4441 51.5654 52.5491 65.7331 50.5525 73.5644C52.8129 66.7418 58.0838 48.674 58.0838 48.674C58.0838 48.674 57.0441 43.0307 53.1595 38.4736C55.4044 41.541 56.4596 44.5566 57.1165 48.2343H57.1061Z" fill="#182234"/>
<path fill-rule="evenodd" clip-rule="evenodd" d="M25.9002 48.2343L29.9296 49.2015L25.895 49.1757C26.5623 51.5654 33.2401 64.1296 35.2367 71.9661C32.9763 65.1434 24.9277 48.6739 24.9277 48.6739C24.9277 48.6739 26.1743 44.9755 30.4314 40.0254C28.1865 43.0927 26.6192 45.7101 25.9002 48.2343Z" fill="#182234"/>
<path d="M28.2846 40.4395C18.3688 44.0396 17.205 44.531 16.7136 54.6796C16.5894 57.2348 16.4756 59.4125 16.3101 61.4505C16.1911 62.1798 16.0825 62.8522 16.0049 63.4367C15.8756 64.4506 15.6015 66.4575 15.4049 67.4506C15.0635 69.1576 14.7532 70.7249 14.4738 72.2146C14.2825 72.9491 14.1066 73.6422 13.9514 74.2991C14.9601 75.9078 18.0533 56.1124 18.4671 51.3329C18.943 45.8344 22.8069 42.9275 26.3501 41.4481C27.126 41.1222 27.7674 40.786 28.2846 40.4498V40.4395Z" fill="#35496E"/>
<path fill-rule="evenodd" clip-rule="evenodd" d="M33.9228 92.946C39.4678 95.884 48.5767 94.653 57.8201 91.5391L58.0943 92.1598C51.1992 95.0461 40.5799 97.1099 33.7056 93.846L33.9228 92.946Z" fill="#192233"/>
<path d="M74.0465 67.8489C73.731 65.5781 73.2396 62.7746 72.5465 59.9866C70.8499 53.1743 69.1171 47.4431 67.4256 45.1516C66.2618 43.574 57.7322 40.0929 53.3821 38.0342C53.3821 38.0342 63.8979 43.9051 65.7032 45.5551C67.3118 47.0293 71.1809 58.6728 74.0517 67.8437L74.0465 67.8489Z" fill="#35496E"/>
<path d="M21.4414 107.885C21.4414 107.885 25.3933 111.645 26.9243 110.6C30.2503 108.335 33.7108 97.0169 34.5073 88.5391C32.8262 93.9703 29.1951 105.128 27.2916 107.46C25.3881 109.788 21.4414 107.89 21.4414 107.89V107.885Z" fill="#192233"/>
<path fill-rule="evenodd" clip-rule="evenodd" d="M50.0352 20.7266C50.0352 20.7266 51.0697 20.4628 51.2611 20.8714C51.4473 21.28 51.7008 23.0853 51.4577 24.1922C51.2146 25.2939 50.2007 26.8405 49.7404 26.8405C49.2749 26.8405 49.2542 26.6854 49.2542 26.6854C49.2076 28.7751 49.4145 29.6803 47.7541 31.3355C46.6317 32.458 44.8006 33.9373 44.4695 34.2477C43.8178 34.8529 40.828 34.8322 40.2022 34.2477C39.8711 33.9373 38.04 32.4631 36.9176 31.3355C35.2572 29.6751 35.4641 28.7751 35.4175 26.6854C35.4175 26.6854 35.3968 26.8405 34.9313 26.8405C34.4658 26.8405 33.4519 25.2991 33.214 24.1922C32.9709 23.0904 33.2243 21.28 33.4106 20.8714C33.5968 20.4628 34.6365 20.7266 34.6365 20.7266C33.8295 16.1385 34.0726 12.0159 37.7348 10.5211C40.6884 9.31069 43.9885 9.31069 46.942 10.5211C50.6042 12.0211 50.8473 16.1437 50.0404 20.7266H50.0352Z" fill="#C99676"/>
<path fill-rule="evenodd" clip-rule="evenodd" d="M34.7968 23.7167C34.7968 23.7167 34.264 23.5098 34.3985 22.8477C34.5278 22.1856 34.564 21.7356 34.2485 21.6373C33.9329 21.5391 33.5709 22.7184 33.6536 23.665C33.7364 24.6116 34.4812 25.7288 34.4812 25.7288C34.4812 25.7288 33.5398 24.7047 33.5191 23.2253C33.4985 21.746 33.7778 21.208 34.1605 21.208C34.5433 21.208 34.7295 21.7356 34.7295 21.8339C34.7295 21.9322 34.6106 22.8063 34.7968 23.7167ZM49.6369 23.7167C49.6369 23.7167 50.2679 23.5098 50.1128 22.8477C49.9576 22.1856 49.9162 21.7356 50.2886 21.6373C50.6611 21.5391 51.0956 22.7184 50.9921 23.665C50.8938 24.6116 50.0093 25.7288 50.0093 25.7288C50.0093 25.7288 51.1214 24.7047 51.1473 23.2253C51.168 21.746 50.8369 21.208 50.3869 21.208C49.9369 21.208 49.7145 21.7356 49.7145 21.8339C49.7145 21.9322 49.8593 22.8063 49.6369 23.7167Z" fill="#B07C5C"/>
<path fill-rule="evenodd" clip-rule="evenodd" d="M35.4174 26.7111V26.68C35.4174 26.68 35.3967 26.8352 34.9312 26.8352C34.8536 26.8352 34.7553 26.7887 34.6519 26.7111C34.7139 26.7473 34.8639 26.7887 35.0657 26.4783C35.3295 26.0697 35.5208 24.43 35.5053 25.0972C35.495 25.4231 35.4691 26.1007 35.4226 26.7162L35.4174 26.7111ZM49.254 26.7111V26.68C49.254 26.68 49.2747 26.8352 49.7403 26.8352C49.8179 26.8352 49.9161 26.7887 50.0196 26.7111C49.9575 26.7473 49.8075 26.7887 49.6058 26.4783C49.342 26.0697 49.1506 24.43 49.1661 25.0972C49.1765 25.4231 49.2023 26.1007 49.2489 26.7162L49.254 26.7111Z" fill="#B07C5C"/>
<path fill-rule="evenodd" clip-rule="evenodd" d="M40.4813 20.411C40.9106 20.7317 41.6089 21.7714 41.2986 22.718C40.9882 23.6646 40.533 23.5973 40.7244 23.2973C40.9106 22.9973 41.0555 22.149 40.083 21.311C39.1106 20.4731 38.9347 20.2403 38.6709 20.111C38.4071 19.9765 39.8968 20.0334 40.4813 20.411Z" fill="#B07C5C"/>
<path fill-rule="evenodd" clip-rule="evenodd" d="M37.0933 21.228C37.0933 21.228 37.9209 20.9021 38.914 20.959C39.9071 21.0159 40.4141 21.6004 40.6727 22.0246C40.9365 22.4487 40.9003 21.8797 40.502 21.4038C40.0985 20.928 39.664 20.7055 38.6864 20.8193C37.7088 20.9331 37.1502 21.0935 37.0933 21.228Z" fill="#85583C"/>
<path fill-rule="evenodd" clip-rule="evenodd" d="M40.1918 22.8627C40.109 22.8834 39.659 23.111 39.0486 23.1628C38.4435 23.2145 38.49 23.199 38.5469 23.23C38.6038 23.2559 39.6073 23.261 40.0625 23.0696C40.5177 22.8783 40.2901 22.8214 40.1918 22.8679V22.8627Z" fill="#B07C5C"/>
<path fill-rule="evenodd" clip-rule="evenodd" d="M35.7795 20.1985C35.7795 20.1985 36.7416 20.152 37.083 20.152C37.4244 20.1571 38.8779 20.2968 39.8193 20.483C40.7607 20.6692 41.1072 20.8451 41.2624 20.9227C41.4176 21.0003 41.5469 20.7572 41.5935 20.5244C41.64 20.2916 41.5831 19.9968 40.4141 19.7537C39.2451 19.5106 38.3192 19.0605 37.6261 19.0605C36.933 19.0605 35.8933 19.7899 35.6657 19.8985C35.4329 20.0071 35.4019 20.2502 35.7847 20.1985H35.7795Z" fill="#413024"/>
<path fill-rule="evenodd" clip-rule="evenodd" d="M37.4864 21.6365C37.4864 21.6365 38.1433 21.1969 38.8468 21.2072C39.5502 21.2176 40.0985 21.7658 40.2796 21.9883C40.4606 22.2159 40.652 22.2676 40.5641 22.4228C40.4761 22.5779 40.3727 22.5417 40.2899 22.5055C40.2071 22.4693 39.9433 22.4124 39.8244 22.4848C39.7106 22.5573 38.7899 22.7538 38.2002 22.3866C37.6105 22.0193 37.4812 21.6365 37.4812 21.6365H37.4864Z" fill="white"/>
<path fill-rule="evenodd" clip-rule="evenodd" d="M37.4864 21.6364C37.4864 21.6364 37.5122 21.6157 37.564 21.5898C37.6571 21.7864 38.0243 22.4485 38.795 22.5313C39.633 22.6244 40.1865 22.3088 40.1916 21.8899C40.2278 21.9261 40.2589 21.9623 40.2796 21.9933C40.4606 22.2209 40.652 22.2726 40.5641 22.4278C40.4761 22.583 40.3727 22.5468 40.2899 22.5106C40.2071 22.4744 39.9433 22.4175 39.8244 22.4899C39.7106 22.5623 38.7899 22.7588 38.2002 22.3916C37.6105 22.0243 37.4812 21.6416 37.4812 21.6416L37.4864 21.6364Z" fill="#EDBA9D"/>
<path fill-rule="evenodd" clip-rule="evenodd" d="M37.4864 21.6365C37.4864 21.6365 38.1433 21.1969 38.8468 21.2072C39.4571 21.2176 39.9485 21.6262 40.1865 21.8848C39.9847 21.7555 39.6226 21.5124 39.1261 21.4814C38.3916 21.4348 37.8019 21.6521 37.5484 21.7659C37.5019 21.6831 37.4812 21.6365 37.4812 21.6365H37.4864Z" fill="#ADA89F"/>
<path fill-rule="evenodd" clip-rule="evenodd" d="M38.4227 21.2482C38.5572 21.2224 38.7021 21.2017 38.8469 21.2069C39.0434 21.212 39.2245 21.2534 39.39 21.3206C39.509 21.4448 39.5762 21.6155 39.5762 21.8017C39.5762 22.1948 39.2607 22.5103 38.8676 22.5103C38.4745 22.5103 38.1589 22.1948 38.1589 21.8017C38.1589 21.5793 38.2624 21.3775 38.4227 21.2482Z" fill="#625D54"/>
<path d="M38.8726 22.0866C39.0297 22.0866 39.1571 21.9592 39.1571 21.8021C39.1571 21.645 39.0297 21.5176 38.8726 21.5176C38.7155 21.5176 38.5881 21.645 38.5881 21.8021C38.5881 21.9592 38.7155 22.0866 38.8726 22.0866Z" fill="#402F24"/>
<path d="M38.6709 21.8487C38.748 21.8487 38.8106 21.7861 38.8106 21.709C38.8106 21.6319 38.748 21.5693 38.6709 21.5693C38.5938 21.5693 38.5312 21.6319 38.5312 21.709C38.5312 21.7861 38.5938 21.8487 38.6709 21.8487Z" fill="white"/>
<path fill-rule="evenodd" clip-rule="evenodd" d="M37.1348 21.5431C37.1348 21.5431 37.3003 21.5897 37.59 21.45C37.8796 21.3104 38.3451 21.088 38.94 21.1449C39.5348 21.2069 39.7469 21.3725 39.959 21.5535C40.1711 21.7345 40.3366 22.0501 40.3366 22.0501C40.3366 22.0501 39.7935 21.3518 39.0021 21.2535C38.2107 21.1552 37.652 21.7035 37.4037 21.6776C37.1555 21.6518 37.1348 21.5431 37.1348 21.5431Z" fill="#413024"/>
<path fill-rule="evenodd" clip-rule="evenodd" d="M41.1487 27.2696C41.1487 27.2696 40.5538 27.1713 40.4452 26.6282C40.3366 26.0902 40.9211 25.7592 40.9418 25.5937C40.9625 25.4282 40.6883 25.3713 40.4762 25.7695C40.2642 26.1678 39.9693 27.0834 41.1487 27.2696Z" fill="#B07C5C"/>
<path fill-rule="evenodd" clip-rule="evenodd" d="M44.0193 27.2696C44.0193 27.2696 44.6141 27.1713 44.7228 26.6282C44.8314 26.0902 44.2469 25.7592 44.2262 25.5937C44.2055 25.4282 44.4796 25.3713 44.6917 25.7695C44.9038 26.1678 45.1986 27.0834 44.0193 27.2696Z" fill="#B07C5C"/>
<path fill-rule="evenodd" clip-rule="evenodd" d="M43.3677 26.9743C43.3677 26.9743 43.8384 27.0726 44.0298 26.9381C44.2212 26.7985 44.0091 26.7209 43.6574 26.7674C43.3056 26.814 42.9797 27.1347 42.9797 27.1347C42.9797 27.1347 43.2901 26.9019 43.3729 26.9743H43.3677ZM41.7952 26.9743C41.7952 26.9743 41.3245 27.0726 41.1331 26.9381C40.9417 26.7985 41.1538 26.7209 41.5056 26.7674C41.8573 26.814 42.1832 27.1347 42.1832 27.1347C42.1832 27.1347 41.8728 26.9019 41.7901 26.9743H41.7952Z" fill="#633C24"/>
<path fill-rule="evenodd" clip-rule="evenodd" d="M39.721 29.7008C39.4159 29.7059 39.1107 29.6128 39.1934 29.437C39.2762 29.2611 39.5814 29.5818 39.7262 29.5352C39.8762 29.4887 40.4659 29.2611 40.7607 29.0697C41.0607 28.8835 41.4435 28.6663 41.9297 28.8732C42.447 29.0904 42.5867 29.0904 43.1039 28.8732C43.5901 28.6714 43.9729 28.8835 44.2729 29.0697C44.5729 29.2559 45.1626 29.4887 45.3074 29.5352C45.4574 29.5818 45.7574 29.2611 45.8402 29.437C45.923 29.6128 45.6126 29.7059 45.3126 29.7008C44.9919 29.7318 44.5522 29.7266 43.9108 29.6232C43.5384 29.5611 43.3625 29.6439 43.0987 29.7215C42.928 29.8456 42.0953 29.8456 41.9246 29.7215C41.6608 29.649 41.4849 29.5663 41.1125 29.6232C40.4711 29.7266 40.0314 29.7318 39.7107 29.7008H39.721Z" fill="#A37050"/>
<path fill-rule="evenodd" clip-rule="evenodd" d="M44.2781 30.0267C44.2781 30.0267 43.5436 30.0318 43.0832 30.1301C42.6177 30.2284 42.1315 30.1818 41.7901 30.1456C41.4487 30.1146 41.4073 30.4612 41.8573 30.6681C42.3022 30.8801 42.5194 30.606 42.5505 30.487C42.5815 30.368 42.6643 30.3939 42.6798 30.4922C42.6901 30.5905 42.9901 30.875 43.7764 30.6681C44.5626 30.4663 44.5936 30.1094 44.2833 30.0215L44.2781 30.0267Z" fill="#E6B79A"/>
<path fill-rule="evenodd" clip-rule="evenodd" d="M41.1072 31.0974C41.1072 31.0974 41.4796 31.325 42.6279 31.3457C43.7762 31.3664 44.2728 31.0146 44.2728 31.0146C44.2728 31.0146 43.7504 31.5319 42.6693 31.5629C41.5882 31.5888 41.1072 31.0974 41.1072 31.0974Z" fill="#A16E4F"/>
<path fill-rule="evenodd" clip-rule="evenodd" d="M44.1849 20.411C43.7556 20.7317 43.2539 21.2852 43.2694 22.18C43.2797 23.0749 43.4866 22.6197 43.5487 22.2421C43.6108 21.8645 44.066 21.3214 44.6608 20.7679C45.2557 20.2145 45.7315 20.2455 45.9953 20.111C46.2591 19.9765 44.7694 20.0334 44.1849 20.411Z" fill="#B07C5C"/>
<path fill-rule="evenodd" clip-rule="evenodd" d="M47.5783 21.228C47.5783 21.228 46.7507 20.9021 45.7575 20.959C44.7644 21.0159 44.2575 21.6004 43.9989 22.0246C43.7351 22.4487 43.7713 21.8797 44.1696 21.4038C44.573 20.928 45.0075 20.7055 45.9851 20.8193C46.9627 20.9331 47.5214 21.0935 47.5783 21.228Z" fill="#85583C"/>
<path fill-rule="evenodd" clip-rule="evenodd" d="M44.4748 22.8627C44.5575 22.8834 45.0076 23.111 45.6179 23.1628C46.2231 23.2145 46.1766 23.199 46.1197 23.23C46.0628 23.2559 45.0593 23.261 44.6041 23.0696C44.1489 22.8783 44.3765 22.8214 44.4748 22.8679V22.8627Z" fill="#B07C5C"/>
<path fill-rule="evenodd" clip-rule="evenodd" d="M48.8921 20.1985C48.8921 20.1985 47.93 20.152 47.5886 20.152C47.2472 20.1571 45.7937 20.2968 44.8523 20.483C43.9109 20.6692 43.5643 20.8451 43.4091 20.9227C43.254 21.0003 43.1247 20.7572 43.0781 20.5244C43.0315 20.2916 43.0884 19.9968 44.2574 19.7537C45.4264 19.5106 46.3523 19.0605 47.0455 19.0605C47.7386 19.0605 48.7783 19.7899 49.0059 19.8985C49.2386 20.0071 49.2697 20.2502 48.8869 20.1985H48.8921Z" fill="#413024"/>
<path fill-rule="evenodd" clip-rule="evenodd" d="M47.1801 21.6365C47.1801 21.6365 46.5231 21.1969 45.8197 21.2072C45.1162 21.2176 44.5679 21.7658 44.3869 21.9883C44.2058 22.2159 44.0144 22.2676 44.1024 22.4228C44.1903 22.5779 44.2938 22.5417 44.3765 22.5055C44.4593 22.4693 44.7231 22.4124 44.8421 22.4848C44.9559 22.5573 45.8766 22.7538 46.4662 22.3866C47.0559 22.0193 47.1852 21.6365 47.1852 21.6365H47.1801Z" fill="white"/>
<path fill-rule="evenodd" clip-rule="evenodd" d="M47.1801 21.6364C47.1801 21.6364 47.1542 21.6157 47.1025 21.5898C47.0094 21.7864 46.6421 22.4485 45.8714 22.5313C45.0334 22.6244 44.48 22.3088 44.4748 21.8899C44.4386 21.9261 44.4076 21.9623 44.3869 21.9933C44.2058 22.2209 44.0144 22.2726 44.1024 22.4278C44.1903 22.583 44.2938 22.5468 44.3765 22.5106C44.4593 22.4744 44.7231 22.4175 44.8421 22.4899C44.9559 22.5623 45.8766 22.7588 46.4662 22.3916C47.0559 22.0243 47.1852 21.6416 47.1852 21.6416L47.1801 21.6364Z" fill="#EDBA9D"/>
<path fill-rule="evenodd" clip-rule="evenodd" d="M47.1801 21.6365C47.1801 21.6365 46.5232 21.1969 45.8197 21.2072C45.2093 21.2176 44.7179 21.6262 44.48 21.8848C44.6817 21.7555 45.0438 21.5124 45.5404 21.4814C46.2749 21.4348 46.8645 21.6521 47.118 21.7659C47.1645 21.6831 47.1852 21.6365 47.1852 21.6365H47.1801Z" fill="#ADA89F"/>
<path fill-rule="evenodd" clip-rule="evenodd" d="M46.2438 21.2482C46.1093 21.2224 45.9645 21.2017 45.8197 21.2069C45.6231 21.212 45.4421 21.2534 45.2765 21.3206C45.1576 21.4448 45.0903 21.6155 45.0903 21.8017C45.0903 22.1948 45.4059 22.5103 45.799 22.5103C46.1921 22.5103 46.5076 22.1948 46.5076 21.8017C46.5076 21.5793 46.4042 21.3775 46.2438 21.2482Z" fill="#625D54"/>
<path d="M45.7989 22.0866C45.956 22.0866 46.0834 21.9592 46.0834 21.8021C46.0834 21.645 45.956 21.5176 45.7989 21.5176C45.6418 21.5176 45.5144 21.645 45.5144 21.8021C45.5144 21.9592 45.6418 22.0866 45.7989 22.0866Z" fill="#402F24"/>
<path d="M45.6074 21.8487C45.6846 21.8487 45.7471 21.7861 45.7471 21.709C45.7471 21.6319 45.6846 21.5693 45.6074 21.5693C45.5303 21.5693 45.4678 21.6319 45.4678 21.709C45.4678 21.7861 45.5303 21.8487 45.6074 21.8487Z" fill="white"/>
<path fill-rule="evenodd" clip-rule="evenodd" d="M47.5368 21.5431C47.5368 21.5431 47.3713 21.5897 47.0816 21.45C46.7919 21.3104 46.3264 21.088 45.7316 21.1449C45.1367 21.2069 44.9246 21.3725 44.7126 21.5535C44.5005 21.7345 44.335 22.0501 44.335 22.0501C44.335 22.0501 44.8781 21.3518 45.6695 21.2535C46.4609 21.1552 47.0195 21.7035 47.2678 21.6776C47.5161 21.6518 47.5368 21.5431 47.5368 21.5431Z" fill="#413024"/>
<path d="M42.8402 25.9448C42.9973 25.9448 43.1247 25.822 43.1247 25.6706C43.1247 25.5192 42.9973 25.3965 42.8402 25.3965C42.683 25.3965 42.5557 25.5192 42.5557 25.6706C42.5557 25.822 42.683 25.9448 42.8402 25.9448Z" fill="#E6B79A"/>
</svg>
