<svg width="85" height="212" viewBox="0 0 85 212" fill="none" xmlns="http://www.w3.org/2000/svg">
<path fill-rule="evenodd" clip-rule="evenodd" d="M35.325 18.3027H49.3466V24.0109H35.325V18.3027Z" fill="#C99676"/>
<path fill-rule="evenodd" clip-rule="evenodd" d="M40.4793 20.4109C40.9111 20.7301 41.6059 21.7722 41.2961 22.7204C40.9863 23.6687 40.5309 23.5982 40.7187 23.3025C40.9064 23.0068 41.0473 22.1571 40.0803 21.3169C39.1086 20.4813 38.9349 20.2466 38.6673 20.1151C38.4044 19.9837 39.8925 20.04 40.4746 20.4109H40.4793Z" fill="#B07C5C"/>
<path fill-rule="evenodd" clip-rule="evenodd" d="M37.0901 21.232C37.0901 21.232 37.9163 20.9081 38.9114 20.9597C39.9019 21.0161 40.4089 21.6028 40.6718 22.0253C40.9347 22.4478 40.9018 21.8798 40.4981 21.4057C40.0944 20.9316 39.6625 20.7062 38.6861 20.8236C37.7097 20.941 37.1464 21.1006 37.0948 21.232H37.0901Z" fill="#85583C"/>
<path fill-rule="evenodd" clip-rule="evenodd" d="M40.193 22.8613C40.1085 22.8848 39.6579 23.1101 39.0523 23.1571C38.4468 23.2087 38.4937 23.1946 38.55 23.2228C38.6064 23.251 39.6062 23.2557 40.0663 23.0632C40.5216 22.8707 40.2916 22.8144 40.193 22.8613Z" fill="#B07C5C"/>
<path fill-rule="evenodd" clip-rule="evenodd" d="M35.7804 20.1995C35.7804 20.1995 36.7427 20.1525 37.0807 20.1572C37.4234 20.1619 38.8739 20.3027 39.8127 20.4858C40.7516 20.6689 41.1036 20.8473 41.2586 20.9271C41.4135 21.0022 41.5449 20.7628 41.5871 20.5281C41.6294 20.2981 41.5778 19.9976 40.4089 19.7582C39.24 19.5141 38.3153 19.0635 37.6205 19.0635C36.9258 19.0635 35.8884 19.7911 35.6584 19.899C35.4283 20.007 35.3955 20.2511 35.7804 20.1948V20.1995Z" fill="#413024"/>
<path fill-rule="evenodd" clip-rule="evenodd" d="M37.4891 21.641C37.4891 21.641 38.1463 21.1997 38.8504 21.2091C39.5545 21.2185 40.1037 21.7677 40.2821 21.9931C40.4652 22.2184 40.6577 22.2747 40.5685 22.4296C40.4793 22.5845 40.376 22.5517 40.2915 22.5141C40.207 22.4766 39.9441 22.4202 39.8268 22.4907C39.7094 22.5611 38.7894 22.7629 38.2026 22.3921C37.6111 22.0212 37.4844 21.641 37.4844 21.641H37.4891Z" fill="white"/>
<path fill-rule="evenodd" clip-rule="evenodd" d="M37.489 21.6407C37.489 21.6407 37.5172 21.6219 37.5688 21.5938C37.6627 21.7909 38.0289 22.4528 38.8034 22.5373C39.6437 22.6312 40.1929 22.312 40.1976 21.8942C40.2304 21.9317 40.2633 21.9646 40.2868 21.9975C40.4698 22.2228 40.6623 22.2791 40.5731 22.434C40.4839 22.5889 40.3807 22.5561 40.2962 22.5185C40.2117 22.481 39.9488 22.4246 39.8314 22.495C39.7141 22.5655 38.794 22.7673 38.2072 22.3965C37.6158 22.0256 37.489 21.6454 37.489 21.6454V21.6407Z" fill="#EDBA9D"/>
<path fill-rule="evenodd" clip-rule="evenodd" d="M37.489 21.641C37.489 21.641 38.1462 21.1997 38.8503 21.2091C39.4606 21.2185 39.9535 21.6316 40.1929 21.8851C39.9957 21.7584 39.6296 21.5143 39.132 21.4814C38.395 21.4345 37.8082 21.6504 37.5547 21.7677C37.5078 21.6879 37.489 21.6363 37.489 21.6363V21.641Z" fill="#ADA89F"/>
<path fill-rule="evenodd" clip-rule="evenodd" d="M38.4233 21.251C38.5594 21.2228 38.7002 21.204 38.8458 21.2087C39.0382 21.2134 39.2213 21.2557 39.3903 21.3214C39.5076 21.4481 39.5781 21.6171 39.5781 21.8049C39.5781 22.1992 39.2588 22.5137 38.8692 22.5137C38.4749 22.5137 38.1604 22.1945 38.1604 21.8049C38.1604 21.5796 38.2637 21.3824 38.4233 21.251Z" fill="#94470C"/>
<path fill-rule="evenodd" clip-rule="evenodd" d="M38.8691 21.5186C39.0287 21.5186 39.1555 21.6453 39.1555 21.8049C39.1555 21.9645 39.0287 22.0912 38.8691 22.0912C38.7095 22.0912 38.5828 21.9645 38.5828 21.8049C38.5828 21.6453 38.7095 21.5186 38.8691 21.5186Z" fill="#402F24"/>
<path fill-rule="evenodd" clip-rule="evenodd" d="M38.672 21.5703C38.7471 21.5703 38.8082 21.6313 38.8082 21.7064C38.8082 21.7816 38.7471 21.8426 38.672 21.8426C38.5969 21.8426 38.5359 21.7816 38.5359 21.7064C38.5359 21.6313 38.5969 21.5703 38.672 21.5703Z" fill="white"/>
<path fill-rule="evenodd" clip-rule="evenodd" d="M37.1324 21.5465C37.1324 21.5465 37.2967 21.5888 37.5877 21.4527C37.8788 21.3165 38.3435 21.0912 38.9397 21.1475C39.5358 21.2086 39.7471 21.3776 39.9583 21.5559C40.1695 21.739 40.3338 22.0488 40.3338 22.0488C40.3338 22.0488 39.794 21.3494 39.0007 21.2508C38.2074 21.1522 37.6487 21.7015 37.4 21.6733C37.1512 21.6451 37.1277 21.5418 37.1277 21.5418L37.1324 21.5465Z" fill="#413024"/>
<path fill-rule="evenodd" clip-rule="evenodd" d="M44.1878 20.4109C43.7559 20.7301 43.2583 21.284 43.2677 22.1806C43.2771 23.0725 43.4836 22.6172 43.5447 22.2416C43.6057 21.8661 44.061 21.3216 44.6572 20.7676C45.2534 20.2184 45.7275 20.2466 45.9904 20.1151C46.2532 19.9837 44.7652 20.04 44.1831 20.4109H44.1878Z" fill="#B07C5C"/>
<path fill-rule="evenodd" clip-rule="evenodd" d="M47.577 21.232C47.577 21.232 46.7508 20.9081 45.7557 20.9597C44.7652 21.0161 44.2582 21.6028 43.9953 22.0253C43.7325 22.4478 43.7653 21.8798 44.169 21.4057C44.5727 20.9316 45.0046 20.7062 45.981 20.8236C46.9574 20.941 47.5207 21.1006 47.5723 21.232H47.577Z" fill="#85583C"/>
<path fill-rule="evenodd" clip-rule="evenodd" d="M44.4742 22.8613C44.5587 22.8848 45.0093 23.1101 45.6149 23.1571C46.2205 23.2087 46.1735 23.1946 46.1172 23.2228C46.0608 23.251 45.061 23.2557 44.6009 23.0632C44.1456 22.8707 44.3756 22.8144 44.4742 22.8613Z" fill="#B07C5C"/>
<path fill-rule="evenodd" clip-rule="evenodd" d="M48.8914 20.1995C48.8914 20.1995 47.9291 20.1525 47.5911 20.1572C47.2484 20.1619 45.7979 20.3027 44.8591 20.4858C43.9202 20.6689 43.5682 20.8473 43.4133 20.9271C43.2584 21.0022 43.1269 20.7628 43.0847 20.5281C43.0424 20.2981 43.0941 19.9976 44.2629 19.7582C45.4318 19.5141 46.3565 19.0635 47.0513 19.0635C47.746 19.0635 48.7834 19.7911 49.0135 19.899C49.2435 20.007 49.2763 20.2511 48.8914 20.1948V20.1995Z" fill="#413024"/>
<path fill-rule="evenodd" clip-rule="evenodd" d="M47.1827 21.641C47.1827 21.641 46.5255 21.1997 45.8214 21.2091C45.1173 21.2185 44.568 21.7677 44.3897 21.9931C44.2066 22.2184 44.0141 22.2747 44.1033 22.4296C44.1925 22.5845 44.2958 22.5517 44.3803 22.5141C44.4648 22.4766 44.7277 22.4202 44.845 22.4907C44.9624 22.5611 45.8824 22.7629 46.4692 22.3921C47.0607 22.0212 47.1874 21.641 47.1874 21.641H47.1827Z" fill="white"/>
<path fill-rule="evenodd" clip-rule="evenodd" d="M47.1828 21.6407C47.1828 21.6407 47.1546 21.6219 47.103 21.5938C47.0091 21.7909 46.6429 22.4528 45.8684 22.5373C45.0281 22.6312 44.4789 22.312 44.4742 21.8942C44.4414 21.9317 44.4085 21.9646 44.385 21.9975C44.202 22.2228 44.0095 22.2791 44.0987 22.434C44.1879 22.5889 44.2911 22.5561 44.3756 22.5185C44.4601 22.481 44.723 22.4246 44.8404 22.495C44.9577 22.5655 45.8778 22.7673 46.4646 22.3965C47.056 22.0256 47.1828 21.6454 47.1828 21.6454V21.6407Z" fill="#EDBA9D"/>
<path fill-rule="evenodd" clip-rule="evenodd" d="M47.1826 21.641C47.1826 21.641 46.5254 21.1997 45.8213 21.2091C45.2111 21.2185 44.7182 21.6316 44.4788 21.8851C44.6759 21.7584 45.0421 21.5143 45.5397 21.4814C46.2766 21.4345 46.8634 21.6504 47.1169 21.7677C47.1639 21.6879 47.1826 21.6363 47.1826 21.6363V21.641Z" fill="#ADA89F"/>
<path fill-rule="evenodd" clip-rule="evenodd" d="M46.2439 21.251C46.1078 21.2228 45.9669 21.204 45.8214 21.2087C45.6289 21.2134 45.4459 21.2557 45.2769 21.3214C45.1595 21.4481 45.0891 21.6171 45.0891 21.8049C45.0891 22.1992 45.4083 22.5137 45.7979 22.5137C46.1923 22.5137 46.5068 22.1945 46.5068 21.8049C46.5068 21.5796 46.4035 21.3824 46.2439 21.251Z" fill="#94470C"/>
<path fill-rule="evenodd" clip-rule="evenodd" d="M45.7978 21.5186C45.6382 21.5186 45.5115 21.6453 45.5115 21.8049C45.5115 21.9645 45.6382 22.0912 45.7978 22.0912C45.9574 22.0912 46.0842 21.9645 46.0842 21.8049C46.0842 21.6453 45.9574 21.5186 45.7978 21.5186Z" fill="#402F24"/>
<path fill-rule="evenodd" clip-rule="evenodd" d="M45.6054 21.5703C45.5303 21.5703 45.4692 21.6313 45.4692 21.7064C45.4692 21.7816 45.5303 21.8426 45.6054 21.8426C45.6805 21.8426 45.7415 21.7816 45.7415 21.7064C45.7415 21.6313 45.6805 21.5703 45.6054 21.5703Z" fill="white"/>
<path fill-rule="evenodd" clip-rule="evenodd" d="M47.5347 21.5465C47.5347 21.5465 47.3704 21.5888 47.0794 21.4527C46.7883 21.3165 46.3236 21.0912 45.7274 21.1475C45.1313 21.2086 44.92 21.3776 44.7088 21.5559C44.4975 21.739 44.3333 22.0488 44.3333 22.0488C44.3333 22.0488 44.8731 21.3494 45.6664 21.2508C46.4597 21.1522 47.0183 21.7015 47.2671 21.6733C47.5159 21.6451 47.5394 21.5418 47.5394 21.5418L47.5347 21.5465Z" fill="#413024"/>
</svg>
