<svg width="320" height="780" viewBox="0 0 320 780" fill="none" xmlns="http://www.w3.org/2000/svg">
<path d="M114.133 333.565C114.133 333.565 111.343 352.035 110.753 356.385C110.223 360.285 108.823 368.705 108.253 372.595C107.763 375.945 106.593 384.065 106.323 385.805C105.943 388.295 105.783 399.175 106.503 403.905C107.193 408.455 109.303 415.595 110.613 420.035C112.823 427.565 112.683 429.955 115.753 430.855C119.983 432.085 116.013 409.705 116.013 409.705L114.133 333.565Z" fill="#DBA481"/>
<path d="M133.113 565.425C136.863 585.335 141.783 622.865 144.353 642.965C145.013 648.145 145.393 656.615 144.993 661.815C144.713 665.585 143.193 674.025 139.453 684.445C135.713 694.865 132.923 703.885 132.633 704.145C130.323 706.265 128.003 708.465 125.083 714.165C123.033 718.175 122.683 723.785 121.503 725.275C136.793 721.155 155.123 729.205 163.463 691.285C165.053 684.035 165.663 676.625 165.673 669.205C165.693 657.055 165.203 644.905 164.213 632.795C163.333 622.105 162.043 611.375 158.943 601.095C156.813 594.025 153.543 586.845 147.463 582.665C145.763 581.495 143.773 580.565 141.703 580.685C139.653 580.815 133.563 564.235 133.113 565.425Z" fill="#BF8766"/>
<path d="M122.062 713.876C116.822 719.516 110.502 729.676 110.502 729.676C110.502 729.676 132.442 730.026 136.942 728.876C153.902 724.546 151.422 721.036 151.422 721.036L155.682 701.516C155.682 701.516 157.692 728.366 133.432 712.576C127.792 708.906 132.632 704.156 132.632 704.156C132.632 704.156 127.862 707.636 122.062 713.876Z" fill="#BA9F8A"/>
<path d="M114.163 401.635C114.163 401.635 113.713 423.545 116.643 444.465C118.013 454.255 123.853 485.275 123.853 485.275L152.213 415.105L114.163 401.635Z" fill="#C08766"/>
<path d="M167.622 476.525C167.622 476.525 166.142 495.595 165.682 501.175C164.992 509.555 162.982 522.955 162.982 522.955C162.982 522.955 166.842 534.085 167.752 538.735C169.202 546.075 170.002 564.635 170.002 564.635L143.592 522.325L167.622 476.525Z" fill="#C08766"/>
<path d="M117.512 415.025C117.512 415.025 118.562 432.405 118.992 437.005C119.772 445.375 125.502 479.035 125.502 479.035C125.502 479.035 124.032 446.825 124.112 436.505C124.152 431.245 125.532 416.745 125.532 416.745L117.512 415.025Z" fill="#EDBA9D"/>
<path d="M137.592 133.825C137.592 133.825 141.122 143.965 141.652 146.925C142.152 149.725 142.692 155.875 141.222 158.315C139.782 160.705 134.462 162.695 132.132 164.015C126.622 167.155 114.042 169.855 110.592 179.905C107.022 190.315 111.542 205.745 111.542 205.745L125.672 232.625L180.282 201.525L159.692 130.455L137.592 133.825Z" fill="#D7A485"/>
<path d="M142.322 417.175C142.322 417.175 123.332 475.965 117.802 493.355C117.182 495.315 114.562 501.655 114.652 509.775C114.742 517.005 117.252 523.895 118.802 528.205C121.362 535.285 129.642 554.865 131.682 560.805C136.642 575.285 143.702 598.205 146.212 612.015C148.062 622.245 150.202 639.075 151.292 656.305C151.652 661.945 149.682 676.015 148.782 685.145C147.082 702.245 142.042 725.935 149.082 731.255C177.412 752.655 181.162 679.565 181.162 679.565C181.162 679.565 178.012 668.835 173.862 657.005C166.522 636.095 173.542 581.445 170.022 561.895C167.072 545.515 146.772 519.215 146.772 519.215C146.772 519.215 164.322 488.755 170.772 477.285C175.022 469.715 187.562 447.965 187.562 447.965L142.322 417.175Z" fill="#D7A485"/>
<path d="M121.762 491.875C121.762 491.875 129.862 462.175 132.682 453.455C135.742 443.975 146.682 417.875 146.682 417.875L154.432 419.455C154.432 419.455 141.872 443.285 137.682 452.705C134.292 460.325 121.762 491.875 121.762 491.875Z" fill="#EDBA9D"/>
<path d="M154.822 674.055C152.032 673.675 151.172 683.455 150.822 686.675C150.142 693.055 148.082 708.225 148.082 708.225C148.082 708.225 150.922 694.695 152.552 688.735C153.372 685.735 157.402 674.415 154.822 674.055Z" fill="#EDBA9D"/>
<path d="M161.392 433.835C159.382 432.895 157.362 431.995 155.322 431.125C155.322 430.535 155.292 429.945 155.212 429.395C155.202 429.345 155.172 429.315 155.162 429.275C155.152 429.185 155.162 429.085 155.152 428.995C155.132 428.805 155.022 428.665 154.882 428.565C154.882 428.495 154.882 428.415 154.882 428.345C154.802 427.025 154.502 425.715 154.302 424.405C154.232 423.905 153.382 423.915 153.302 424.405C153.142 425.365 153.342 426.295 153.502 427.245C153.662 428.245 153.662 429.265 153.652 430.275C153.642 430.305 153.642 430.355 153.642 430.395C152.552 429.935 151.452 429.495 150.352 429.055C150.362 429.005 150.352 428.945 150.362 428.895C150.402 428.605 150.212 428.405 150.002 428.325C149.962 427.955 149.972 427.575 149.882 427.215C149.752 426.695 148.962 426.695 148.822 427.215C148.762 427.465 148.742 427.715 148.742 427.975C148.712 428.115 148.712 428.265 148.722 428.415C147.332 427.875 145.932 427.345 144.532 426.835C144.552 426.705 144.532 426.555 144.442 426.475C144.312 426.355 144.102 426.305 143.952 426.415C143.882 426.465 143.832 426.515 143.782 426.565C143.562 426.485 143.342 426.405 143.122 426.325C143.112 426.305 143.112 426.285 143.102 426.255C143.052 426.045 142.802 425.895 142.592 425.965C142.522 425.985 142.472 426.025 142.422 426.065C141.472 425.725 140.512 425.405 139.552 425.075C139.372 425.995 139.122 426.905 138.832 427.795C142.142 428.915 145.432 430.115 148.692 431.405C148.702 431.795 148.702 432.175 148.732 432.565C148.792 433.345 148.932 434.115 149.032 434.895C149.122 435.595 149.152 436.315 149.412 436.985C149.542 437.325 149.732 437.615 149.972 437.855C149.992 437.895 150.012 437.945 150.032 437.985C150.152 438.165 150.262 438.365 150.432 438.515C150.652 438.705 150.882 438.895 151.192 438.915C151.362 438.925 151.512 438.885 151.662 438.835C151.712 438.845 151.752 438.865 151.802 438.865C152.382 438.925 152.912 438.695 153.322 438.285C154.182 437.415 154.552 435.995 154.862 434.845C154.932 434.575 154.982 434.305 155.042 434.025C161.212 436.705 167.252 439.675 173.132 442.945C177.962 445.635 181.102 448.085 185.742 451.075C186.212 450.255 186.682 449.435 187.152 448.615C178.592 442.715 170.772 438.215 161.392 433.835ZM153.412 433.705C153.272 434.215 153.072 434.705 152.852 435.195C152.772 435.375 152.682 435.565 152.602 435.745C152.552 435.865 152.492 435.985 152.442 436.105C152.382 436.165 152.362 436.215 152.362 436.265C152.122 436.155 151.822 436.295 151.732 436.525C151.702 436.385 151.682 436.245 151.662 436.145C151.492 435.395 151.302 434.665 151.062 433.925C150.882 433.355 150.792 432.785 150.702 432.205C151.632 432.585 152.562 432.975 153.492 433.375C153.462 433.485 153.442 433.595 153.412 433.705Z" fill="#BF8766"/>
<path d="M128.372 225.775C128.372 225.775 129.792 215.235 131.682 212.335C137.562 203.305 150.372 194.245 150.372 194.245C150.372 194.245 140.102 204.995 133.552 214.525C131.882 216.955 128.372 225.775 128.372 225.775Z" fill="#BF8766"/>
<path d="M129.822 222.145C129.822 222.145 134.792 214.395 132.762 208.145C131.432 204.055 129.032 197.815 129.032 197.815C129.032 197.815 130.922 208.275 131.132 210.085C131.562 213.875 129.822 222.145 129.822 222.145Z" fill="#BF8766"/>
<path d="M115.462 202.486C115.462 202.486 105.662 217.585 106.012 227.035C106.612 243.415 110.132 247.396 110.132 247.396C110.132 247.396 117.922 268.736 119.042 286.206C119.732 296.876 115.152 318.045 114.272 328.695C112.382 351.575 114.422 419.185 114.422 419.185C114.422 419.185 132.942 422.416 139.102 425.046C163.062 435.256 186.912 449.616 186.912 449.616C186.912 449.616 204.562 413.955 208.252 403.345C215.372 382.875 217.842 374.155 214.962 354.155C212.432 336.575 205.372 320.615 198.802 310.905C193.422 302.955 183.032 277.505 183.032 277.505L190.902 226.546C190.902 226.546 183.162 223.186 178.112 212.846C175.832 208.176 170.302 198.646 170.302 198.646C170.302 198.646 157.552 210.245 129.432 209.665C112.782 209.345 115.462 202.486 115.462 202.486Z" fill="#D5C1B5"/>
<path d="M114.592 206.705C114.592 206.705 118.742 212.925 127.942 214.185C143.432 216.305 161.882 206.115 161.882 206.115C161.882 206.115 141.672 212.885 128.962 211.945C120.212 211.295 114.592 206.705 114.592 206.705Z" fill="#E0D0C4"/>
<path d="M128.902 385.806C138.892 393.496 152.212 396.696 164.602 394.386C152.272 394.836 139.842 391.656 128.902 385.806Z" fill="#B99E8A"/>
<path d="M163.422 389.395C146.792 379.685 134.892 362.255 131.912 343.235C137.462 360.845 148.802 376.575 163.422 389.395Z" fill="#B99E8A"/>
<path d="M150.313 359.855C148.753 367.265 145.203 373.855 140.893 380.085C138.513 383.525 139.953 387.085 140.893 391.165C142.003 396.015 142.863 400.985 142.853 405.355C144.363 405.285 143.993 403.325 144.263 401.835C146.733 387.935 149.213 374.045 150.313 359.855Z" fill="#B99E8A"/>
<path d="M190.422 294.675L193.802 301.895C193.802 301.895 191.292 313.165 182.032 332.635C178.652 339.725 172.252 357.475 171.272 365.265C170.662 370.145 173.272 379.935 173.282 384.855C173.292 389.175 172.022 397.745 171.772 402.055C171.542 406.175 171.452 414.515 170.392 418.505C169.892 420.375 167.802 424.515 165.882 424.285C164.012 424.065 165.252 418.255 165.252 418.255L166.132 388.495L165.502 361.495L180.822 315.915L190.422 294.675Z" fill="#B99E8A"/>
<path d="M172.292 116.575C172.292 116.575 171.662 129.495 171.682 133.815C171.742 144.485 177.842 150.655 182.202 151.595C193.842 154.125 206.602 152.565 212.612 161.875C218.142 170.445 212.412 186.865 210.542 196.165C209.272 202.495 207.692 218.525 206.352 225.765C205.042 232.815 200.422 249.995 198.792 256.985C197.662 261.845 196.582 270.355 195.592 274.615C193.252 284.635 193.092 295.325 183.812 317.825C178.462 330.805 173.542 342.555 169.992 354.185C169.452 355.965 169.342 362.995 169.212 365.235C169.072 367.715 170.312 372.725 170.552 374.995C170.952 378.765 171.312 386.365 171.082 390.155C170.942 392.555 170.192 397.305 169.842 399.675C169.632 401.105 169.072 405.395 169.072 405.395L169.372 413.135C169.372 413.135 168.552 425.035 165.722 424.615C163.602 424.295 163.862 415.075 163.862 415.075C163.862 415.075 163.582 409.605 163.522 407.775C163.472 406.225 163.752 399.865 163.752 399.865C163.752 399.865 163.232 405.255 163.022 407.165C162.782 409.335 162.542 413.785 162.522 416.165C162.492 418.975 162.482 424.095 162.342 426.895C162.242 428.915 161.712 435.275 159.742 434.985C157.672 434.685 157.612 428.515 157.512 426.265C157.402 423.775 157.002 418.785 156.982 416.295C156.962 414.275 157.402 410.255 157.262 408.225C157.182 407.025 157.272 403.595 157.272 403.595C157.272 403.595 155.462 406.955 155.122 408.215C154.522 410.445 154.492 415.135 154.422 417.445C154.362 419.305 154.052 424.885 154.052 424.885L154.082 431.965C154.082 431.965 153.082 438.165 151.412 438.105C149.722 438.045 149.122 431.725 149.122 431.725L149.312 424.805C149.312 424.805 148.872 419.095 148.932 417.195C149.012 414.785 149.512 410.005 149.302 407.605C149.212 406.565 148.742 403.655 148.742 403.655C148.742 403.655 147.572 410.595 147.342 412.915C147.172 414.695 147.212 418.315 146.702 420.025C146.132 421.945 145.172 427.615 143.202 427.255C141.852 427.005 142.392 422.675 142.272 421.305C142.092 419.165 142.232 415.225 142.412 413.205C142.622 410.775 142.802 405.715 142.882 403.275C142.982 400.355 143.122 394.435 142.332 391.905C141.472 389.165 140.052 384.935 140.782 382.725C142.012 378.995 146.192 375.375 147.582 372.325C148.452 370.415 149.562 366.175 149.722 364.085C149.882 362.015 149.942 357.255 150.612 355.295C151.832 351.745 157.532 337.555 159.492 331.025C163.222 318.545 169.102 291.875 172.502 279.075C173.592 274.965 178.082 262.065 178.082 262.065C178.082 262.065 178.112 238.775 178.422 231.495C178.742 223.855 179.672 219.785 179.672 219.785C179.672 219.785 170.332 204.195 168.142 191.745C165.492 176.665 155.402 131.555 155.402 131.555L172.292 116.575Z" fill="#D7A485"/>
<path d="M212.872 366.315C212.872 366.315 214.632 383.785 203.732 408.515C200.542 415.745 187.052 442.745 187.052 442.745C187.052 442.745 196.852 420.155 199.992 412.825C209.592 390.405 212.872 366.315 212.872 366.315Z" fill="#B99E8A"/>
<path d="M179.772 220.225C179.772 220.225 177.602 216.145 174.812 210.605C173.552 208.115 176.692 205.465 179.182 196.765C180.142 193.415 182.022 184.095 182.022 184.095C182.022 184.095 181.002 193.475 180.832 195.855C180.522 200.275 180.472 208.655 180.282 211.315C180.112 213.745 179.772 220.225 179.772 220.225Z" fill="#BF8766"/>
<path d="M197.062 152.955C185.042 161.385 176.032 174.255 171.562 188.105C170.272 192.095 169.372 196.185 168.852 200.335C168.692 201.575 170.612 202.025 170.782 200.775C172.662 186.635 179.132 173.255 189.012 162.905C191.862 159.925 195.002 157.325 198.312 154.885C199.502 154.015 198.292 152.095 197.062 152.955Z" fill="#D4C1B5"/>
<path d="M126.292 166.265C125.802 165.355 124.502 165.645 124.202 166.535C123.732 167.925 124.202 169.805 124.242 171.265C124.282 172.815 124.252 174.365 124.162 175.905C123.972 179.115 123.452 182.285 122.682 185.405C121.132 191.625 118.562 197.555 114.982 202.865C114.372 203.775 113.822 207.605 114.442 206.715C118.222 201.255 123.102 192.195 124.812 185.765C125.652 182.605 126.202 179.365 126.522 176.115C126.692 174.435 126.782 172.745 126.792 171.055C126.802 169.565 127.022 167.625 126.292 166.265Z" fill="#D4C1B5"/>
<path d="M182.563 695.614C182.563 694.804 182.842 693.264 182.832 692.454C183.032 691.844 185.722 680.834 186.262 678.704C186.592 677.404 183.693 679.664 183.343 680.974C183.043 682.114 182.722 683.244 182.412 684.374C182.392 683.114 182.362 681.854 182.352 680.594C182.332 679.374 180.452 679.234 180.432 680.474C180.392 684.324 180.322 688.184 180.292 692.034C180.142 692.614 179.952 693.204 180.112 693.804C180.142 693.924 180.202 694.034 180.272 694.134C180.272 694.574 180.262 695.024 180.262 695.464C180.262 697.924 180.262 700.384 180.262 702.844C180.262 704.074 180.262 705.304 180.262 706.534C180.262 707.764 180.122 709.064 180.382 710.274C180.592 711.224 182.332 711.494 182.442 710.394C182.692 707.824 182.582 705.544 182.572 703.234C182.572 700.704 182.573 698.154 182.563 695.614Z" fill="#A68C7A"/>
<path d="M138.092 748.694C138.092 748.694 136.782 741.244 138.122 734.054C139.012 729.304 145.522 713.804 145.522 713.804C145.522 713.804 145.202 718.594 148.832 720.664C153.232 723.184 160.902 724.044 164.122 723.254C168.542 722.164 174.202 720.534 173.912 712.154C173.612 703.404 173.622 702.114 177.752 676.644C178.292 673.304 176.822 666.514 176.032 663.224C175.642 661.584 173.782 656.854 173.782 656.854C173.782 656.854 185.672 666.894 186.642 671.824C187.932 678.414 182.802 687.394 182.212 690.154C180.372 698.714 177.272 710.534 176.192 719.224C175.892 721.654 175.852 726.774 174.632 728.894C172.232 733.074 163.402 738.094 159.192 740.434C154.232 743.204 138.092 748.694 138.092 748.694Z" fill="#D4C1B5"/>
<path d="M163.322 326.285C163.322 326.285 167.912 306.525 171.672 291.245C172.132 289.365 173.792 277.835 176.932 278.675C181.022 279.765 178.202 291.065 176.742 295.035C173.772 303.125 163.322 326.285 163.322 326.285Z" fill="#EDBA9D"/>
<path d="M141.562 206.584C141.562 206.584 143.472 203.094 147.482 199.464C148.262 198.754 151.132 197.804 151.842 199.654C152.692 201.854 149.412 202.314 148.692 202.534C145.162 203.604 141.562 206.584 141.562 206.584Z" fill="#EDBA9D"/>
<path d="M128.742 202.715C127.972 201.235 123.862 199.595 123.862 199.595C123.862 199.595 127.872 203.425 128.192 204.015C130.292 207.865 130.042 208.365 130.042 208.365C130.042 208.365 129.952 205.035 128.742 202.715Z" fill="#EDBA9D"/>
<path d="M110.852 193.524C110.852 193.524 110.092 185.214 112.972 179.194C115.052 174.844 119.042 171.814 119.042 171.814C119.042 171.814 114.002 179.694 113.232 181.634C111.852 185.084 110.852 193.524 110.852 193.524Z" fill="#EDBA9D"/>
<path d="M111.922 378.545C112.362 381.445 113.292 384.265 114.662 386.865C115.112 387.725 115.622 388.555 115.962 389.465C116.842 391.805 117.192 393.405 117.512 395.875C118.162 400.915 119.212 404.055 119.942 406.595C120.592 408.865 120.232 411.765 119.282 411.825C118.662 411.865 117.222 409.785 115.842 405.855C114.892 403.145 113.712 399.105 113.442 401.365C112.982 405.225 110.882 396.495 109.762 394.415C108.632 392.315 107.582 390.015 107.782 387.635L111.922 378.545Z" fill="#DAA480"/>
<path d="M174.723 110.685C174.723 110.685 175.883 112.895 176.503 112.905C179.593 112.955 179.503 110.525 182.653 105.165C185.043 101.085 186.403 95.5251 185.653 93.0951C185.293 91.9451 183.743 89.6151 182.553 89.3851C181.333 89.1451 177.923 91.1551 177.923 91.1551L174.723 110.685Z" fill="url(#paint0_linear)"/>
<path d="M137.242 132.466C137.242 132.466 140.842 143.536 141.452 146.216C142.812 152.196 141.672 157.276 141.672 157.276C141.672 157.276 151.362 160.166 154.472 159.256C160.512 157.486 177.792 149.166 177.792 149.166C177.792 149.166 171.752 140.766 171.712 133.206C171.682 127.056 172.282 115.596 172.282 115.596L149.112 129.876L137.242 132.466Z" fill="url(#paint1_linear)"/>
<path d="M169.023 124.595C171.693 122.255 174.193 114.755 174.883 112.005C176.363 106.055 179.073 96.2154 179.853 90.8354C181.663 78.4654 178.743 67.2154 170.003 60.2554C165.263 56.4854 159.103 51.6054 147.213 52.0254C133.843 52.4954 128.913 60.3054 125.183 65.1654C121.883 69.4754 120.703 74.6554 120.893 78.0454C121.033 80.4954 121.933 86.6554 122.103 89.1054C122.323 92.3654 120.943 97.6854 121.193 100.545C121.473 103.745 124.073 111.235 125.163 114.245C126.413 117.725 127.793 123.625 129.573 126.865C132.223 131.675 139.323 136.365 143.603 136.815C150.763 137.545 161.983 130.785 169.023 124.595Z" fill="#D6A384"/>
<path d="M142.963 113.036C142.963 113.036 143.113 112.686 143.133 112.556C143.193 112.206 143.143 111.486 143.233 111.146C143.363 110.656 143.653 110.566 143.903 110.516C144.173 110.466 144.683 110.606 144.883 110.766C145.113 110.956 145.463 111.526 145.653 111.776C145.763 111.926 146.193 112.306 146.193 112.306C146.193 112.306 145.233 113.646 144.723 113.736C144.263 113.846 142.963 113.036 142.963 113.036Z" fill="url(#paint2_linear)"/>
<path d="M138.603 114.046C138.013 114.186 136.633 112.186 136.543 110.876C136.453 109.566 137.193 108.276 138.263 107.516C137.783 108.396 137.683 109.026 138.563 109.496C139.443 109.966 141.163 110.226 141.923 109.846C142.813 109.396 143.193 109.266 143.573 107.956C144.053 109.036 145.343 109.486 146.303 109.236C147.263 108.986 147.873 107.836 147.553 106.906C147.993 107.716 148.433 108.556 148.553 109.476C148.673 110.396 148.483 111.716 147.713 112.236C146.943 112.756 146.093 112.746 145.303 111.316C144.983 110.736 144.293 110.346 143.693 110.616C143.093 110.886 143.173 111.716 143.183 112.296C143.203 113.066 142.603 113.736 141.863 113.516C141.123 113.296 140.663 112.586 140.153 111.996C139.643 111.416 138.573 110.566 138.383 111.226C138.213 111.806 139.923 113.726 138.603 114.046Z" fill="url(#paint3_linear)"/>
<path d="M139.803 106.516C139.483 106.796 139.473 107.326 139.713 107.676C139.953 108.026 140.383 108.206 140.813 108.236C141.233 108.266 141.653 108.156 142.063 108.026C142.563 107.866 142.763 107.196 142.533 106.726C142.303 106.256 141.753 106.006 141.233 105.986C140.713 105.966 140.213 106.156 139.803 106.516Z" fill="url(#paint4_radial)"/>
<path d="M139.123 113.526C139.123 113.526 138.973 112.886 138.903 112.676C138.833 112.486 138.623 112.126 138.543 111.936C138.483 111.786 138.393 111.446 138.393 111.306C138.393 111.196 138.433 111.026 138.513 110.996C138.683 110.916 139.073 111.036 139.233 111.126C139.463 111.256 139.883 111.586 140.063 111.776C140.273 112.006 140.633 112.516 140.823 112.766C140.923 112.896 141.293 113.266 141.293 113.266C141.293 113.266 140.413 113.666 140.113 113.696C139.873 113.716 139.123 113.526 139.123 113.526Z" fill="url(#paint5_linear)"/>
<path d="M143.083 103.715C143.083 103.715 143.203 99.9145 144.093 96.6945C145.233 92.5445 146.133 90.0445 147.223 88.9645C149.693 86.5045 154.693 87.0145 154.693 87.0145C154.693 87.0145 152.793 87.7245 148.763 91.4645C143.553 96.2845 143.083 103.715 143.083 103.715Z" fill="url(#paint6_linear)"/>
<path d="M130.723 89.2354C130.723 89.2354 135.323 89.4353 136.623 90.2253C137.713 90.8853 139.593 93.1853 139.973 94.4253C141.763 100.315 139.773 104.535 139.773 104.535C139.773 104.535 141.413 98.7553 138.403 95.0653C134.843 90.7053 130.723 89.2354 130.723 89.2354Z" fill="url(#paint7_linear)"/>
<path d="M146.913 89.3349C146.913 89.3349 156.213 86.0849 159.343 86.6249C161.503 86.9949 165.553 87.7349 165.553 87.7349C165.553 87.7349 161.793 85.5649 159.453 84.8949C156.523 84.0549 147.403 86.7849 147.403 86.7849L146.913 89.3349Z" fill="#413024"/>
<path d="M136.703 90.2253L135.793 88.1553C135.793 88.1553 128.743 87.4553 126.693 88.6053C125.273 89.3953 122.973 92.5053 122.973 92.5053C122.973 92.5053 125.693 90.4053 127.053 89.9053C129.193 89.0953 136.703 90.2253 136.703 90.2253Z" fill="#413024"/>
<path d="M149.143 96.7051C149.143 96.7051 152.403 92.5551 156.233 92.0451C159.433 91.6151 163.633 94.1551 163.633 94.1551C163.633 94.1551 159.763 96.4651 156.503 96.9851C154.693 97.2751 149.143 96.7051 149.143 96.7051Z" fill="#E5DDDA"/>
<path d="M125.062 97.3354C125.062 97.3354 126.753 95.0554 130.553 94.8954C134.433 94.7254 136.382 97.8154 136.382 97.8154C136.382 97.8154 131.213 98.9154 129.623 98.9454C127.463 98.9954 125.062 97.3354 125.062 97.3354Z" fill="#E3DDDA"/>
<path d="M156.213 96.7756C157.527 96.7756 158.593 95.7101 158.593 94.3956C158.593 93.0812 157.527 92.0156 156.213 92.0156C154.899 92.0156 153.833 93.0812 153.833 94.3956C153.833 95.7101 154.899 96.7756 156.213 96.7756Z" fill="url(#paint8_radial)"/>
<path d="M131.463 98.5156C132.634 98.5156 133.583 97.6202 133.583 96.5156C133.583 95.4111 132.634 94.5156 131.463 94.5156C130.292 94.5156 129.343 95.4111 129.343 96.5156C129.343 97.6202 130.292 98.5156 131.463 98.5156Z" fill="url(#paint9_radial)"/>
<path d="M131.443 97.6355C132.05 97.6355 132.543 97.1431 132.543 96.5355C132.543 95.928 132.05 95.4355 131.443 95.4355C130.835 95.4355 130.343 95.928 130.343 96.5355C130.343 97.1431 130.835 97.6355 131.443 97.6355Z" fill="#402F24"/>
<path d="M156.223 95.6252C156.869 95.6252 157.393 95.1013 157.393 94.4552C157.393 93.809 156.869 93.2852 156.223 93.2852C155.577 93.2852 155.053 93.809 155.053 94.4552C155.053 95.1013 155.577 95.6252 156.223 95.6252Z" fill="#402F24"/>
<path d="M149.112 96.7056C149.112 96.7056 151.522 94.3656 152.982 93.5656C157.282 91.2256 163.632 94.1556 163.632 94.1556L166.712 92.9956C166.712 92.9956 160.802 91.5256 158.792 91.2156C152.512 90.2556 149.112 96.7056 149.112 96.7056Z" fill="#402F24"/>
<path d="M136.383 97.8154C136.383 97.8154 134.793 95.6454 131.823 95.1654C127.473 94.4654 125.063 97.3454 125.063 97.3454L123.053 96.5954C123.053 96.5954 127.583 93.2554 131.243 93.7954C134.343 94.2554 136.383 97.8154 136.383 97.8154Z" fill="#402F24"/>
<path d="M133.082 119.105C133.082 119.105 133.942 119.525 135.222 121.045C136.682 122.785 139.412 125.825 143.022 125.665C148.372 125.425 151.612 121.835 153.312 119.615C154.332 118.285 155.042 117.775 155.042 117.775C155.042 117.775 149.362 119.655 141.682 120.045C137.292 120.285 133.082 119.105 133.082 119.105Z" fill="#B14F49"/>
<path d="M136.103 119.946C136.103 119.946 138.363 121.856 141.803 121.736C146.583 121.566 150.873 118.966 150.873 118.966C150.873 118.966 144.673 120.106 141.593 120.186C139.723 120.226 136.103 119.946 136.103 119.946Z" fill="#E2DDDA"/>
<path d="M133.032 119.116C133.032 119.116 133.632 119.366 134.532 119.296C136.592 119.116 139.262 118.016 141.972 117.786C144.972 117.526 150.492 118.266 152.272 118.266C154.042 118.266 155.052 117.786 155.052 117.786C155.052 117.786 150.592 119.856 142.562 120.596C137.112 121.096 133.032 119.116 133.032 119.116Z" fill="#BD5955"/>
<path d="M148.742 94.7651C149.242 92.8251 150.612 91.1351 152.402 90.2251C154.192 89.3251 156.362 89.2251 158.222 89.9651C154.572 89.6851 150.822 91.3851 148.742 94.7651Z" fill="#BE8766"/>
<path d="M137.122 96.0254C136.412 94.1454 134.812 92.6354 132.892 92.0454C130.972 91.4554 128.792 91.7954 127.152 92.9454C128.882 92.2954 130.842 92.2454 132.602 92.8154C134.362 93.3754 135.932 94.5554 137.122 96.0254Z" fill="#BE8766"/>
<defs>
<linearGradient id="paint0_linear" x1="186.808" y1="102.149" x2="176.669" y2="100.753" gradientUnits="userSpaceOnUse">
<stop stop-color="#BE8866"/>
<stop offset="0.1606" stop-color="#C28D6C"/>
<stop offset="1" stop-color="#D6A485"/>
</linearGradient>
<linearGradient id="paint1_linear" x1="156.337" y1="132.623" x2="159.094" y2="151.856" gradientUnits="userSpaceOnUse">
<stop stop-color="#BE8866"/>
<stop offset="1" stop-color="#D6A485"/>
</linearGradient>
<linearGradient id="paint2_linear" x1="144.893" y1="113.775" x2="144.205" y2="111.332" gradientUnits="userSpaceOnUse">
<stop stop-color="#D6A485" stop-opacity="0"/>
<stop offset="1" stop-color="#BE8766"/>
</linearGradient>
<linearGradient id="paint3_linear" x1="143.297" y1="113.397" x2="142.085" y2="108.239" gradientUnits="userSpaceOnUse">
<stop stop-color="#BE8866"/>
<stop offset="0.4324" stop-color="#CA9675"/>
<stop offset="1" stop-color="#D6A485"/>
</linearGradient>
<radialGradient id="paint4_radial" cx="0" cy="0" r="1" gradientUnits="userSpaceOnUse" gradientTransform="translate(141.087 107.113) rotate(11.0054) scale(1.40799 0.870102)">
<stop stop-color="#EED5C5"/>
<stop offset="1" stop-color="#D5A484"/>
</radialGradient>
<linearGradient id="paint5_linear" x1="139.003" y1="111.409" x2="140.391" y2="113.687" gradientUnits="userSpaceOnUse">
<stop stop-color="#BE8866"/>
<stop offset="0.6474" stop-color="#CC9878" stop-opacity="0.3526"/>
<stop offset="1" stop-color="#D6A485" stop-opacity="0"/>
</linearGradient>
<linearGradient id="paint6_linear" x1="144.749" y1="91.866" x2="148.944" y2="95.4147" gradientUnits="userSpaceOnUse">
<stop stop-color="#BE8866"/>
<stop offset="0.4324" stop-color="#CA9675"/>
<stop offset="1" stop-color="#D6A485"/>
</linearGradient>
<linearGradient id="paint7_linear" x1="140.081" y1="93.3147" x2="136.82" y2="95.7256" gradientUnits="userSpaceOnUse">
<stop stop-color="#BE8866"/>
<stop offset="0.622" stop-color="#CB9877"/>
<stop offset="1" stop-color="#D6A485"/>
</linearGradient>
<radialGradient id="paint8_radial" cx="0" cy="0" r="1" gradientUnits="userSpaceOnUse" gradientTransform="translate(156.212 94.3927) scale(2.375)">
<stop stop-color="#67655D"/>
<stop offset="0.4792" stop-color="#66635B"/>
<stop offset="0.6518" stop-color="#625E55"/>
<stop offset="0.7748" stop-color="#5C544B"/>
<stop offset="0.8743" stop-color="#52473E"/>
<stop offset="0.9585" stop-color="#46372E"/>
<stop offset="1" stop-color="#3F2E24"/>
</radialGradient>
<radialGradient id="paint9_radial" cx="0" cy="0" r="1" gradientUnits="userSpaceOnUse" gradientTransform="translate(131.461 96.5177) scale(2.0634)">
<stop stop-color="#67655D"/>
<stop offset="0.4792" stop-color="#66635B"/>
<stop offset="0.6518" stop-color="#625E55"/>
<stop offset="0.7748" stop-color="#5C544B"/>
<stop offset="0.8743" stop-color="#52473E"/>
<stop offset="0.9585" stop-color="#46372E"/>
<stop offset="1" stop-color="#3F2E24"/>
</radialGradient>
</defs>
</svg>
