<svg width="110" height="172" viewBox="0 0 110 172" fill="none" xmlns="http://www.w3.org/2000/svg">
<g clip-path="url(#clip0)">
<path d="M-29.8375 113.635C-29.8375 113.635 -30.2875 135.545 -27.3575 156.465C-25.9875 166.255 -20.1475 197.275 -20.1475 197.275L8.21255 127.105L-29.8375 113.635Z" fill="#C08766"/>
<path d="M-1.67832 129.175C-1.67832 129.175 -20.6683 187.965 -26.1983 205.355C-26.8183 207.315 -29.4383 213.655 -29.3483 221.775C-29.2583 229.005 -26.7483 235.895 -25.1983 240.205C-22.6383 247.285 -14.3583 266.865 -12.3183 272.805C-7.35831 287.285 -0.298309 310.205 2.21169 324.015C4.06169 334.245 6.20168 351.075 7.29168 368.305C7.65168 373.945 5.6817 388.015 4.7817 397.145C3.0817 414.245 -1.95832 437.935 5.08168 443.255C33.4117 464.655 37.1617 391.565 37.1617 391.565C37.1617 391.565 34.0117 380.835 29.8617 369.005C22.5217 348.095 29.5417 293.445 26.0217 273.895C23.0717 257.515 2.77169 231.215 2.77169 231.215C2.77169 231.215 20.3217 200.755 26.7717 189.285C31.0217 181.715 43.5617 159.965 43.5617 159.965L-1.67832 129.175Z" fill="#D7A485"/>
<path d="M-22.2383 203.875C-22.2383 203.875 -14.1383 174.175 -11.3183 165.455C-8.25827 155.975 2.68173 129.875 2.68173 129.875L10.4317 131.455C10.4317 131.455 -2.12827 155.285 -6.31827 164.705C-9.70827 172.325 -22.2383 203.875 -22.2383 203.875Z" fill="#EDBA9D"/>
<path d="M17.392 145.835C15.382 144.895 13.362 143.995 11.322 143.125C11.322 142.535 11.292 141.945 11.212 141.395C11.202 141.345 11.172 141.315 11.162 141.275C11.152 141.185 11.162 141.085 11.152 140.995C11.132 140.805 11.022 140.665 10.882 140.565C10.882 140.495 10.882 140.415 10.882 140.345C10.802 139.025 10.502 137.715 10.302 136.405C10.232 135.905 9.38203 135.915 9.30203 136.405C9.14203 137.365 9.34204 138.295 9.50204 139.245C9.66204 140.245 9.66204 141.265 9.65204 142.275C9.64204 142.305 9.64203 142.355 9.64203 142.395C8.55203 141.935 7.45202 141.495 6.35202 141.055C6.36202 141.005 6.35203 140.945 6.36203 140.895C6.40203 140.605 6.21204 140.405 6.00204 140.325C5.96204 139.955 5.97202 139.575 5.88202 139.215C5.75202 138.695 4.96202 138.695 4.82202 139.215C4.76202 139.465 4.74203 139.715 4.74203 139.975C4.71203 140.115 4.71202 140.265 4.72202 140.415C3.33202 139.875 1.93204 139.345 0.532043 138.835C0.552043 138.705 0.532017 138.555 0.442017 138.475C0.312017 138.355 0.102026 138.305 -0.0479736 138.415C-0.117974 138.465 -0.167957 138.515 -0.217957 138.565C-0.437957 138.485 -0.65796 138.405 -0.87796 138.325C-0.88796 138.305 -0.88798 138.285 -0.89798 138.255C-0.94798 138.045 -1.19796 137.895 -1.40796 137.965C-1.47796 137.985 -1.52797 138.025 -1.57797 138.065C-2.52797 137.725 -3.48797 137.405 -4.44797 137.075C-4.62797 137.995 -4.87797 138.905 -5.16797 139.795C-1.85797 140.915 1.43202 142.115 4.69202 143.405C4.70202 143.795 4.70203 144.175 4.73203 144.565C4.79203 145.345 4.93204 146.115 5.03204 146.895C5.12204 147.595 5.15202 148.315 5.41202 148.985C5.54202 149.325 5.73202 149.615 5.97202 149.855C5.99202 149.895 6.01204 149.945 6.03204 149.985C6.15204 150.165 6.26204 150.365 6.43204 150.515C6.65204 150.705 6.88202 150.895 7.19202 150.915C7.36202 150.925 7.51202 150.885 7.66202 150.835C7.71202 150.845 7.75203 150.865 7.80203 150.865C8.38203 150.925 8.91202 150.695 9.32202 150.285C10.182 149.415 10.552 147.995 10.862 146.845C10.932 146.575 10.982 146.305 11.042 146.025C17.212 148.705 23.252 151.675 29.132 154.945C33.962 157.635 37.102 160.085 41.742 163.075C42.212 162.255 42.682 161.435 43.152 160.615C34.592 154.715 26.772 150.215 17.392 145.835ZM9.41202 145.705C9.27202 146.215 9.07202 146.705 8.85202 147.195C8.77202 147.375 8.68202 147.565 8.60202 147.745C8.55202 147.865 8.49202 147.985 8.44202 148.105C8.38202 148.165 8.36203 148.215 8.36203 148.265C8.12203 148.155 7.82203 148.295 7.73203 148.525C7.70203 148.385 7.68202 148.245 7.66202 148.145C7.49202 147.395 7.30204 146.665 7.06204 145.925C6.88204 145.355 6.79203 144.785 6.70203 144.205C7.63203 144.585 8.56203 144.975 9.49203 145.375C9.46203 145.485 9.44202 145.595 9.41202 145.705Z" fill="#BF8766"/>
<path d="M-28.5379 -85.5145C-28.5379 -85.5145 -38.3379 -70.4145 -37.9879 -60.9645C-37.3879 -44.5845 -33.8679 -40.6045 -33.8679 -40.6045C-33.8679 -40.6045 -26.0779 -19.2645 -24.9579 -1.79449C-24.2679 8.87551 -28.8479 30.0455 -29.7279 40.6955C-31.6179 63.5755 -29.5779 131.185 -29.5779 131.185C-29.5779 131.185 -11.0579 134.416 -4.89792 137.046C19.0621 147.256 42.9121 161.616 42.9121 161.616C42.9121 161.616 60.5621 125.955 64.2521 115.345C71.3721 94.8755 73.8421 86.1555 70.9621 66.1555C68.4321 48.5755 61.3721 32.6155 54.8021 22.9055C49.4221 14.9555 39.0321 -10.4945 39.0321 -10.4945L46.9021 -61.4545C46.9021 -61.4545 39.1621 -64.8145 34.1121 -75.1545C31.8321 -79.8245 26.3021 -89.3545 26.3021 -89.3545C26.3021 -89.3545 13.5521 -77.7545 -14.5679 -78.3345C-31.2179 -78.6545 -28.5379 -85.5145 -28.5379 -85.5145Z" fill="#D5C1B5"/>
<path d="M-15.0977 97.8057C-5.10766 105.496 8.21233 108.696 20.6023 106.386C8.27233 106.836 -4.15766 103.656 -15.0977 97.8057Z" fill="#B99E8A"/>
<path d="M19.4221 101.395C2.79212 91.6854 -9.10789 74.2554 -12.0879 55.2354C-6.53789 72.8454 4.80212 88.5754 19.4221 101.395Z" fill="#B99E8A"/>
<path d="M6.31273 71.8555C4.75273 79.2655 1.20271 85.8555 -3.10729 92.0855C-5.48729 95.5255 -4.04729 99.0855 -3.10729 103.165C-1.99729 108.015 -1.1373 112.985 -1.1473 117.355C0.362705 117.285 -0.00729182 115.325 0.262708 113.835C2.73271 99.9355 5.21273 86.0455 6.31273 71.8555Z" fill="#B99E8A"/>
<path d="M46.4217 6.6748L49.8017 13.8948C49.8017 13.8948 47.2917 25.1648 38.0317 44.6348C34.6517 51.7248 28.2517 69.4748 27.2717 77.2648C26.6617 82.1448 29.2717 91.9348 29.2817 96.8548C29.2917 101.175 28.0217 109.745 27.7717 114.055C27.5417 118.175 27.4517 126.515 26.3917 130.505C25.8917 132.375 23.8017 136.515 21.8817 136.285C20.0117 136.065 21.2517 130.255 21.2517 130.255L22.1317 100.495L21.5017 73.4948L36.8217 27.9148L46.4217 6.6748Z" fill="#B99E8A"/>
<path d="M28.292 -171.425C28.292 -171.425 27.662 -158.505 27.682 -154.185C27.742 -143.515 33.842 -137.345 38.202 -136.405C49.842 -133.875 62.602 -135.435 68.612 -126.125C74.142 -117.555 68.412 -101.135 66.542 -91.8348C65.272 -85.5048 63.692 -69.4748 62.352 -62.2348C61.042 -55.1848 56.422 -38.0048 54.792 -31.0148C53.662 -26.1548 52.582 -17.6448 51.592 -13.3848C49.252 -3.3648 49.092 7.3252 39.812 29.8252C34.462 42.8052 29.542 54.5552 25.992 66.1852C25.452 67.9652 25.342 74.9952 25.212 77.2352C25.072 79.7152 26.312 84.7252 26.552 86.9952C26.952 90.7652 27.312 98.3652 27.082 102.155C26.942 104.555 26.192 109.305 25.842 111.675C25.632 113.105 25.072 117.395 25.072 117.395L25.372 125.135C25.372 125.135 24.5519 137.035 21.7219 136.615C19.6019 136.295 19.862 127.075 19.862 127.075C19.862 127.075 19.582 121.605 19.522 119.775C19.472 118.225 19.752 111.865 19.752 111.865C19.752 111.865 19.232 117.255 19.022 119.165C18.782 121.335 18.542 125.785 18.522 128.165C18.492 130.975 18.482 136.095 18.342 138.895C18.242 140.915 17.712 147.275 15.742 146.985C13.672 146.685 13.612 140.515 13.512 138.265C13.402 135.775 13.002 130.785 12.982 128.295C12.962 126.275 13.402 122.255 13.262 120.225C13.182 119.025 13.272 115.595 13.272 115.595C13.272 115.595 11.462 118.955 11.122 120.215C10.522 122.445 10.492 127.135 10.422 129.445C10.362 131.305 10.052 136.885 10.052 136.885L10.082 143.965C10.082 143.965 9.08195 150.165 7.41195 150.105C5.72195 150.045 5.12197 143.725 5.12197 143.725L5.31197 136.805C5.31197 136.805 4.87197 131.095 4.93197 129.195C5.01197 126.785 5.51196 122.005 5.30196 119.605C5.21196 118.565 4.74197 115.655 4.74197 115.655C4.74197 115.655 3.57197 122.595 3.34197 124.915C3.17197 126.695 3.21196 130.315 2.70196 132.025C2.13196 133.945 1.17196 139.615 -0.798041 139.255C-2.14804 139.005 -1.60803 134.675 -1.72803 133.305C-1.90803 131.165 -1.76805 127.225 -1.58805 125.205C-1.37805 122.775 -1.19805 117.715 -1.11805 115.275C-1.01805 112.355 -0.878036 106.435 -1.66804 103.905C-2.52804 101.165 -3.94802 96.9352 -3.21802 94.7252C-1.98802 90.9952 2.19196 87.3752 3.58196 84.3252C4.45196 82.4152 5.56195 78.1752 5.72195 76.0852C5.88195 74.0152 5.94196 69.2552 6.61196 67.2952C7.83196 63.7452 13.532 49.5552 15.492 43.0252C19.222 30.5452 25.102 3.8752 28.502 -8.9248C29.592 -13.0348 34.082 -25.9348 34.082 -25.9348C34.082 -25.9348 34.112 -49.2248 34.422 -56.5048C34.742 -64.1448 35.672 -68.2148 35.672 -68.2148C35.672 -68.2148 26.332 -83.8048 24.142 -96.2548C21.492 -111.335 11.402 -156.445 11.402 -156.445L28.292 -171.425Z" fill="#D7A485"/>
<path d="M68.8718 78.3154C68.8718 78.3154 70.6318 95.7854 59.7318 120.515C56.5418 127.745 43.0518 154.745 43.0518 154.745C43.0518 154.745 52.8518 132.155 55.9918 124.825C65.5918 102.405 68.8718 78.3154 68.8718 78.3154Z" fill="#B99E8A"/>
<path d="M19.3223 38.2845C19.3223 38.2845 23.9123 18.5246 27.6723 3.24455C28.1323 1.36455 29.7923 -10.1655 32.9323 -9.32546C37.0223 -8.23546 34.2023 3.06453 32.7423 7.03453C29.7723 15.1245 19.3223 38.2845 19.3223 38.2845Z" fill="#EDBA9D"/>
</g>
<defs>
<clipPath id="clip0">
<rect width="110" height="172" fill="white"/>
</clipPath>
</defs>
</svg>
