<svg width="110" height="172" viewBox="0 0 110 172" fill="none" xmlns="http://www.w3.org/2000/svg">
<g opacity="0.9882">
<path d="M82.1502 67.2302C78.1402 43.8002 52.7702 19.0202 50.2802 14.7002C50.2402 14.7002 46.3402 24.7302 44.6202 30.1802C42.2102 69.5302 33.7702 107.28 23.0602 145.19C22.6302 146.67 22.1302 148.11 21.7002 149.59C34.0002 155.97 43.0302 161.27 43.0302 161.27C43.0302 161.27 63.0502 130.61 68.7502 121.02C78.3102 104.91 85.4902 87.0002 82.1502 67.2302Z" fill="#D5C3B6"/>
<path opacity="0.9882" d="M78.7302 83.1504C78.7302 83.1504 76.6202 99.4104 63.6602 122.86C59.8802 129.71 43.1602 154.48 43.1602 154.48C43.1602 154.48 54.8502 133.02 58.6002 126.04C70.0402 104.73 78.7302 83.1504 78.7302 83.1504Z" fill="#B9A08C"/>
</g>
</svg>
