<svg width="110" height="172" viewBox="0 0 110 172" fill="none" xmlns="http://www.w3.org/2000/svg">
<path d="M79.19 70.62C76.66 56.86 69.67 38.35 60.79 28.69C58.92 26.65 52.6 18.82 50.11 14.5C50.07 14.5 46.63 30.94 44.92 36.39C42.51 75.74 22.43 148.32 22 149.8C34.3 156.18 43.08 161.86 43.08 161.86C43.08 161.86 62.13 129.75 66.8 119.61C73.48 105.09 82.81 90.34 79.19 70.62Z" fill="#D5C3B6"/>
<path d="M77.4704 81.8301C77.4704 81.8301 74.3604 97.3401 61.4004 120.8C57.6204 127.65 41.9004 153.17 41.9004 153.17C41.9004 153.17 53.5904 131.71 57.3404 124.73C68.7804 103.41 77.4704 81.8301 77.4704 81.8301Z" fill="#B9A08C"/>
</svg>
