<svg width="72" height="111" viewBox="0 0 72 111" fill="none" xmlns="http://www.w3.org/2000/svg">
<g clip-path="url(#clip0)">
<path d="M66.5917 -45.1749C66.5917 -45.1749 70.1217 -35.0349 70.6517 -32.0749C71.1517 -29.2749 71.6917 -23.1249 70.2217 -20.6849C68.7817 -18.2949 63.4617 -16.3049 61.1317 -14.9849C55.6217 -11.8449 43.0417 -9.14493 39.5917 0.905075C36.0217 11.3151 40.5417 26.7451 40.5417 26.7451L54.6717 53.6251L109.282 22.5251L88.6917 -48.5449L66.5917 -45.1749Z" fill="#D7A485"/>
<path d="M57.3721 46.7751C57.3721 46.7751 58.7921 36.2351 60.6821 33.3351C66.5621 24.3051 79.3721 15.2451 79.3721 15.2451C79.3721 15.2451 69.1021 25.9951 62.5521 35.5251C60.8821 37.9551 57.3721 46.7751 57.3721 46.7751Z" fill="#BF8766"/>
<path d="M58.8222 43.1454C58.8222 43.1454 63.7922 35.3954 61.7622 29.1454C60.4322 25.0554 58.0322 18.8154 58.0322 18.8154C58.0322 18.8154 59.9222 29.2754 60.1322 31.0854C60.5622 34.8754 58.8222 43.1454 58.8222 43.1454Z" fill="#BF8766"/>
<path d="M44.4621 23.4855C44.4621 23.4855 34.6621 38.5855 35.0121 48.0355C35.6121 64.4155 39.1321 68.3955 39.1321 68.3955C39.1321 68.3955 46.9221 89.7355 48.0421 107.206C48.7321 117.876 44.1521 139.045 43.2721 149.695C41.3821 172.575 43.4221 240.185 43.4221 240.185C43.4221 240.185 61.9421 243.416 68.1021 246.046C92.0621 256.256 115.912 270.616 115.912 270.616C115.912 270.616 133.562 234.955 137.252 224.345C144.372 203.875 146.842 195.155 143.962 175.155C141.432 157.575 134.372 141.615 127.802 131.905C122.422 123.955 112.032 98.5055 112.032 98.5055L119.902 47.5455C119.902 47.5455 112.162 44.1855 107.112 33.8455C104.832 29.1755 99.3021 19.6455 99.3021 19.6455C99.3021 19.6455 86.5521 31.2455 58.4321 30.6655C41.7821 30.3455 44.4621 23.4855 44.4621 23.4855Z" fill="#D5C1B5"/>
<path d="M43.5918 27.7052C43.5918 27.7052 47.7418 33.9252 56.9418 35.1852C72.4318 37.3052 90.8818 27.1152 90.8818 27.1152C90.8818 27.1152 70.6718 33.8852 57.9618 32.9452C49.2118 32.2952 43.5918 27.7052 43.5918 27.7052Z" fill="#E0D0C4"/>
<path d="M101.292 -62.4248C101.292 -62.4248 100.662 -49.5048 100.682 -45.1848C100.742 -34.5148 106.842 -28.3448 111.202 -27.4048C122.842 -24.8748 135.602 -26.4348 141.612 -17.1248C147.142 -8.5548 141.412 7.86519 139.542 17.1652C138.272 23.4952 136.692 39.5252 135.352 46.7652C134.042 53.8152 129.422 70.9952 127.792 77.9852C126.662 82.8452 125.582 91.3552 124.592 95.6152C122.252 105.635 122.092 116.325 112.812 138.825C107.462 151.805 102.542 163.555 98.992 175.185C98.452 176.965 98.342 183.995 98.212 186.235C98.072 188.715 99.312 193.725 99.552 195.995C99.952 199.765 100.312 207.365 100.082 211.155C99.942 213.555 99.192 218.305 98.842 220.675C98.632 222.105 98.072 226.395 98.072 226.395L98.372 234.135C98.372 234.135 97.5519 246.035 94.7219 245.615C92.6019 245.295 92.862 236.075 92.862 236.075C92.862 236.075 92.582 230.605 92.522 228.775C92.472 227.225 92.752 220.865 92.752 220.865C92.752 220.865 92.232 226.255 92.022 228.165C91.782 230.335 91.542 234.785 91.522 237.165C91.492 239.975 91.482 245.095 91.342 247.895C91.242 249.915 90.712 256.275 88.742 255.985C86.672 255.685 86.612 249.515 86.512 247.265C86.402 244.775 86.002 239.785 85.982 237.295C85.962 235.275 86.402 231.255 86.262 229.225C86.182 228.025 86.272 224.595 86.272 224.595C86.272 224.595 84.462 227.955 84.122 229.215C83.522 231.445 83.492 236.135 83.422 238.445C83.362 240.305 83.052 245.885 83.052 245.885L83.082 252.965C83.082 252.965 82.082 259.165 80.412 259.105C78.722 259.045 78.122 252.725 78.122 252.725L78.312 245.805C78.312 245.805 77.872 240.095 77.932 238.195C78.012 235.785 78.512 231.005 78.302 228.605C78.212 227.565 77.742 224.655 77.742 224.655C77.742 224.655 76.572 231.595 76.342 233.915C76.172 235.695 76.212 239.315 75.702 241.025C75.132 242.945 74.172 248.615 72.202 248.255C70.852 248.005 71.392 243.675 71.272 242.305C71.092 240.165 71.232 236.225 71.412 234.205C71.622 231.775 71.802 226.715 71.882 224.275C71.982 221.355 72.122 215.435 71.332 212.905C70.472 210.165 69.052 205.935 69.782 203.725C71.012 199.995 75.192 196.375 76.582 193.325C77.452 191.415 78.5619 187.175 78.7219 185.085C78.8819 183.015 78.942 178.255 79.612 176.295C80.832 172.745 86.532 158.555 88.492 152.025C92.222 139.545 98.102 112.875 101.502 100.075C102.592 95.9652 107.082 83.0652 107.082 83.0652C107.082 83.0652 107.112 59.7752 107.422 52.4952C107.742 44.8552 108.672 40.7852 108.672 40.7852C108.672 40.7852 99.332 25.1952 97.142 12.7452C94.492 -2.33481 84.402 -47.4448 84.402 -47.4448L101.292 -62.4248Z" fill="#D7A485"/>
<path d="M55.2923 -12.735C54.8023 -13.645 53.5023 -13.355 53.2023 -12.465C52.7323 -11.075 53.2023 -9.19496 53.2423 -7.73496C53.2823 -6.18496 53.2523 -4.63496 53.1623 -3.09496C52.9723 0.115044 52.4523 3.28504 51.6823 6.40504C50.1323 12.625 47.5623 18.555 43.9823 23.865C43.3723 24.775 42.8223 28.605 43.4423 27.715C47.2223 22.255 52.1023 13.195 53.8123 6.76504C54.6523 3.60504 55.2023 0.365035 55.5223 -2.88496C55.6923 -4.56496 55.7823 -6.25496 55.7923 -7.94496C55.8023 -9.43496 56.0223 -11.375 55.2923 -12.735Z" fill="#D4C1B5"/>
<path d="M70.5625 27.5841C70.5625 27.5841 72.4725 24.0941 76.4825 20.4641C77.2625 19.7541 80.1325 18.8042 80.8425 20.6542C81.6925 22.8542 78.4125 23.3142 77.6925 23.5342C74.1625 24.6042 70.5625 27.5841 70.5625 27.5841Z" fill="#EDBA9D"/>
<path d="M57.7423 23.7147C56.9723 22.2347 52.8623 20.5947 52.8623 20.5947C52.8623 20.5947 56.8723 24.4247 57.1923 25.0147C59.2923 28.8647 59.0423 29.3647 59.0423 29.3647C59.0423 29.3647 58.9523 26.0347 57.7423 23.7147Z" fill="#EDBA9D"/>
<path d="M39.8524 14.5244C39.8524 14.5244 39.0924 6.21444 41.9724 0.194443C44.0524 -4.15556 48.0424 -7.18555 48.0424 -7.18555C48.0424 -7.18555 43.0024 0.694445 42.2324 2.63445C40.8524 6.08445 39.8524 14.5244 39.8524 14.5244Z" fill="#EDBA9D"/>
</g>
<defs>
<clipPath id="clip0">
<rect width="72" height="111" fill="white"/>
</clipPath>
</defs>
</svg>
