<svg width="110" height="48" viewBox="0 0 110 48" fill="none" xmlns="http://www.w3.org/2000/svg">
<path d="M15.5009 31.5402C32.2409 29.9902 49.1109 28.0402 65.9209 27.1302C66.4209 23.6402 66.8909 20.1802 67.3509 16.7002C61.5909 17.4402 55.8209 18.1402 50.0709 18.8702C38.6309 20.3102 27.1809 21.7502 15.7309 23.2102C15.4109 25.5802 15.0409 27.9602 15.1809 29.5702C15.2209 30.1102 15.3509 30.7802 15.5009 31.5402Z" fill="#D5A384"/>
<path d="M37.7211 29.3799C38.4011 26.7899 39.8211 23.2299 42.7911 20.4899C43.1011 20.1999 43.4011 19.9399 43.6811 19.6699C42.4311 19.8399 41.1811 19.9899 39.9411 20.1399C39.3511 21.4799 38.7811 23.3099 38.1211 25.7099C37.7811 26.9299 37.5611 28.2399 37.4111 29.3899C37.4911 29.3999 37.6011 29.3799 37.7211 29.3799Z" fill="url(#paint0_linear)"/>
<path d="M32.401 24.0998C33.781 25.7898 34.171 27.9098 34.201 29.7298C34.351 29.7198 34.511 29.6998 34.651 29.6898C34.791 28.0098 34.701 25.8798 33.961 23.4598C33.771 22.8198 33.181 21.9198 32.521 21.0898C31.601 21.1998 30.701 21.3198 29.791 21.4298C30.661 22.1698 31.551 23.0498 32.401 24.0998Z" fill="url(#paint1_linear)"/>
<path d="M43.1504 25.7403C43.1504 25.7403 46.4104 21.5903 50.2404 21.0803C53.4504 20.6503 57.6504 23.1903 57.6504 23.1903C57.6504 23.1903 53.7804 25.5103 50.5204 26.0203C48.7204 26.3003 43.1504 25.7403 43.1504 25.7403Z" fill="#E3DDDA"/>
<path d="M19.0605 26.3601C19.0605 26.3601 20.7505 24.0801 24.5605 23.9101C28.4405 23.7401 30.3905 26.8401 30.3905 26.8401C30.3905 26.8401 25.2105 27.9401 23.6105 27.9701C21.4505 28.0301 19.0605 26.3601 19.0605 26.3601Z" fill="#E1DDDA"/>
<path d="M50.2413 25.8C51.5558 25.8 52.6213 24.7345 52.6213 23.42C52.6213 22.1056 51.5558 21.04 50.2413 21.04C48.9269 21.04 47.8613 22.1056 47.8613 23.42C47.8613 24.7345 48.9269 25.8 50.2413 25.8Z" fill="url(#paint2_radial)"/>
<path d="M25.461 27.5498C26.6374 27.5498 27.591 26.6544 27.591 25.5498C27.591 24.4452 26.6374 23.5498 25.461 23.5498C24.2847 23.5498 23.3311 24.4452 23.3311 25.5498C23.3311 26.6544 24.2847 27.5498 25.461 27.5498Z" fill="url(#paint3_radial)"/>
<path d="M25.4408 26.66C26.0483 26.66 26.5408 26.1675 26.5408 25.56C26.5408 24.9524 26.0483 24.46 25.4408 24.46C24.8333 24.46 24.3408 24.9524 24.3408 25.56C24.3408 26.1675 24.8333 26.66 25.4408 26.66Z" fill="#402F26"/>
<path d="M50.2511 24.6603C50.8972 24.6603 51.4211 24.1365 51.4211 23.4903C51.4211 22.8441 50.8972 22.3203 50.2511 22.3203C49.6049 22.3203 49.0811 22.8441 49.0811 23.4903C49.0811 24.1365 49.6049 24.6603 50.2511 24.6603Z" fill="#402F26"/>
<path d="M43.1309 25.7399C43.1309 25.7399 45.5409 23.3999 47.0009 22.5899C51.3009 20.2499 57.6609 23.1799 57.6609 23.1799L60.7409 22.0199C60.7409 22.0199 54.8209 20.5399 52.8109 20.2399C46.5309 19.2799 43.1309 25.7399 43.1309 25.7399Z" fill="#402F26"/>
<path d="M30.3808 26.8505C30.3808 26.8505 28.7908 24.6705 25.8208 24.2005C21.4608 23.5005 19.0608 26.3805 19.0608 26.3805L17.0508 25.6305C17.0508 25.6305 21.5808 22.2805 25.2508 22.8305C28.3408 23.2805 30.3808 26.8505 30.3808 26.8505Z" fill="#402F26"/>
<path d="M50.0812 18.86C48.7912 19.03 47.5112 19.19 46.2212 19.36C44.5312 20.29 43.2312 21.92 42.7412 23.79C44.8212 20.4 48.5612 18.71 52.2312 18.99C51.9412 18.88 51.6412 18.79 51.3412 18.71C50.9412 18.76 50.5212 18.81 50.0812 18.86Z" fill="#BE8868"/>
<path d="M28.1911 21.6406C27.6711 21.7206 27.1311 21.7706 26.6211 21.8406C28.3811 22.4106 29.9311 23.5806 31.1311 25.0506C30.5811 23.6306 29.5111 22.4006 28.1911 21.6406Z" fill="#BE8868"/>
<defs>
<linearGradient id="paint0_linear" x1="37.7051" y1="22.1391" x2="41.9038" y2="25.6917" gradientUnits="userSpaceOnUse">
<stop stop-color="#BE8866"/>
<stop offset="0.4324" stop-color="#C99775"/>
<stop offset="1" stop-color="#D4A485"/>
</linearGradient>
<linearGradient id="paint1_linear" x1="34.9682" y1="23.53" x2="31.7042" y2="25.9437" gradientUnits="userSpaceOnUse">
<stop stop-color="#BE8866"/>
<stop offset="0.622" stop-color="#CB9877"/>
<stop offset="1" stop-color="#D4A485"/>
</linearGradient>
<radialGradient id="paint2_radial" cx="0" cy="0" r="1" gradientUnits="userSpaceOnUse" gradientTransform="translate(50.2374 23.4171) scale(2.3783)">
<stop stop-color="#9BCCD7"/>
<stop offset="0.2629" stop-color="#8CB8C1"/>
<stop offset="1" stop-color="#658B92"/>
</radialGradient>
<radialGradient id="paint3_radial" cx="0" cy="0" r="1" gradientUnits="userSpaceOnUse" gradientTransform="translate(25.4576 25.5474) scale(2.12848 1.99857)">
<stop stop-color="#9BCCD7"/>
<stop offset="0.2629" stop-color="#8CB8C1"/>
<stop offset="1" stop-color="#658B92"/>
</radialGradient>
</defs>
</svg>
