<svg width="110" height="172" viewBox="0 0 110 172" fill="none" xmlns="http://www.w3.org/2000/svg">
<path d="M100.755 151.189C100.755 151.189 80.805 134.849 83.785 80.0391C85.195 54.2391 61.665 38.429 40.355 41.669C8.74497 46.479 15.275 77.019 15.275 77.019C15.275 77.019 17.165 60.139 35.015 59.079C35.015 59.019 34.955 57.349 35.295 55.499C35.675 53.429 37.305 50.129 37.305 50.129C37.305 50.129 37.145 52.359 36.955 55.849C36.895 56.949 37.015 59.019 37.015 59.019C37.015 59.019 37.895 59.049 38.935 59.049C66.435 58.859 65.085 85.069 69.545 90.569C71.435 92.929 73.035 88.5291 73.695 86.2591C74.325 84.6291 76.425 83.7491 77.815 85.2891C79.135 86.7691 81.055 89.059 78.565 95.599C77.155 99.279 75.675 101.569 74.575 103.579C73.385 105.749 72.185 107.629 70.925 107.509C69.195 107.319 69.195 105.399 68.445 106.249C65.865 109.079 66.375 111.149 65.965 114.829C65.715 116.969 65.465 127.119 65.745 129.789C66.275 134.469 68.825 140.539 71.845 144.179C75.145 148.139 86.235 148.229 89.225 148.579C94.195 149.119 100.755 151.189 100.755 151.189Z" fill="#402F26"/>
<path d="M35.0445 59.0591C35.0445 59.0591 30.0445 60.4391 25.3645 70.9391C19.8645 83.2591 15.9645 89.8591 16.5345 109.879C17.2545 136.119 33.5045 147.679 33.5045 147.679C33.5045 147.679 19.2045 142.929 13.9545 116.979C8.92454 92.1492 21.2745 64.2491 21.2745 64.2491L25.1045 60.8891L29.2545 57.8691L35.0445 59.0591Z" fill="#402F26"/>
<path d="M37.0244 59.0195L40.1044 57.0695L44.9444 56.4395C44.9444 56.4395 57.3244 69.3594 62.8844 87.8694C75.9244 131.239 56.5044 144.999 56.5044 144.999C56.5044 144.999 75.4844 131.549 57.8544 90.1295C45.2944 60.5295 37.0244 59.0195 37.0244 59.0195Z" fill="#402F26"/>
<path d="M100.755 151.189C100.755 151.189 80.805 134.849 83.785 80.0391C85.195 54.2391 61.665 38.429 40.355 41.669C8.74497 46.479 15.275 77.019 15.275 77.019C15.275 77.019 17.165 60.139 35.015 59.079C35.015 59.019 34.955 57.349 35.295 55.499C35.675 53.429 37.305 50.129 37.305 50.129C37.305 50.129 37.145 52.359 36.955 55.849C36.895 56.949 37.015 59.019 37.015 59.019C37.015 59.019 37.895 59.049 38.935 59.049C66.435 58.859 65.085 85.069 69.545 90.569C71.435 92.929 73.035 88.5291 73.695 86.2591C74.325 84.6291 76.425 83.7491 77.815 85.2891C79.135 86.7691 81.055 89.059 78.565 95.599C77.155 99.279 75.675 101.569 74.575 103.579C73.385 105.749 72.185 107.629 70.925 107.509C69.195 107.319 69.195 105.399 68.445 106.249C65.865 109.079 66.375 111.149 65.965 114.829C65.715 116.969 65.465 127.119 65.745 129.789C66.275 134.469 68.825 140.539 71.845 144.179C75.145 148.139 86.235 148.229 89.225 148.579C94.195 149.119 100.755 151.189 100.755 151.189Z" fill="url(#paint0_linear)"/>
<path d="M35.0445 59.0591C35.0445 59.0591 30.0445 60.4391 25.3645 70.9391C19.8645 83.2591 15.9645 89.8591 16.5345 109.879C17.2545 136.119 33.5045 147.679 33.5045 147.679C33.5045 147.679 19.2045 142.929 13.9545 116.979C8.92454 92.1492 21.2745 64.2491 21.2745 64.2491L25.1045 60.8891L29.2545 57.8691L35.0445 59.0591Z" fill="url(#paint1_linear)"/>
<path d="M37.0244 59.0195L40.1044 57.0695L44.9444 56.4395C44.9444 56.4395 57.3244 69.3594 62.8844 87.8694C75.9244 131.239 56.5044 144.999 56.5044 144.999C56.5044 144.999 75.4844 131.549 57.8544 90.1295C45.2944 60.5295 37.0244 59.0195 37.0244 59.0195Z" fill="url(#paint2_linear)"/>
<path d="M100.755 151.189C100.755 151.189 80.805 134.849 83.785 80.0391C85.195 54.2391 61.665 38.429 40.355 41.669C8.74497 46.479 15.275 77.019 15.275 77.019C15.275 77.019 17.165 60.139 35.015 59.079C35.015 59.019 34.955 57.349 35.295 55.499C35.675 53.429 37.305 50.129 37.305 50.129C37.305 50.129 37.145 52.359 36.955 55.849C36.895 56.949 37.015 59.019 37.015 59.019C37.015 59.019 37.895 59.049 38.935 59.049C66.435 58.859 65.085 85.069 69.545 90.569C71.435 92.929 73.035 88.5291 73.695 86.2591C74.325 84.6291 76.425 83.7491 77.815 85.2891C79.135 86.7691 81.055 89.059 78.565 95.599C77.155 99.279 75.675 101.569 74.575 103.579C73.385 105.749 72.185 107.629 70.925 107.509C69.195 107.319 69.195 105.399 68.445 106.249C65.865 109.079 66.375 111.149 65.965 114.829C65.715 116.969 65.465 127.119 65.745 129.789C66.275 134.469 68.825 140.539 71.845 144.179C75.145 148.139 86.235 148.229 89.225 148.579C94.195 149.119 100.755 151.189 100.755 151.189Z" fill="url(#paint3_linear)"/>
<path d="M35.0445 59.0591C35.0445 59.0591 30.0445 60.4391 25.3645 70.9391C19.8645 83.2591 15.9645 89.8591 16.5345 109.879C17.2545 136.119 33.5045 147.679 33.5045 147.679C33.5045 147.679 19.2045 142.929 13.9545 116.979C8.92454 92.1492 21.2745 64.2491 21.2745 64.2491L25.1045 60.8891L29.2545 57.8691L35.0445 59.0591Z" fill="url(#paint4_linear)"/>
<path d="M37.0244 59.0195L40.1044 57.0695L44.9444 56.4395C44.9444 56.4395 57.3244 69.3594 62.8844 87.8694C75.9244 131.239 56.5044 144.999 56.5044 144.999C56.5044 144.999 75.4844 131.549 57.8544 90.1295C45.2944 60.5295 37.0244 59.0195 37.0244 59.0195Z" fill="url(#paint5_linear)"/>
<path d="M100.755 151.189C100.755 151.189 80.805 134.849 83.785 80.0391C85.195 54.2391 61.665 38.429 40.355 41.669C8.74497 46.479 15.275 77.019 15.275 77.019C15.275 77.019 17.165 60.139 35.015 59.079C35.015 59.019 34.955 57.349 35.295 55.499C35.675 53.429 37.305 50.129 37.305 50.129C37.305 50.129 37.145 52.359 36.955 55.849C36.895 56.949 37.015 59.019 37.015 59.019C37.015 59.019 37.895 59.049 38.935 59.049C66.435 58.859 65.085 85.069 69.545 90.569C71.435 92.929 73.035 88.5291 73.695 86.2591C74.325 84.6291 76.425 83.7491 77.815 85.2891C79.135 86.7691 81.055 89.059 78.565 95.599C77.155 99.279 75.675 101.569 74.575 103.579C73.385 105.749 72.185 107.629 70.925 107.509C69.195 107.319 69.195 105.399 68.445 106.249C65.865 109.079 66.375 111.149 65.965 114.829C65.715 116.969 65.465 127.119 65.745 129.789C66.275 134.469 68.825 140.539 71.845 144.179C75.145 148.139 86.235 148.229 89.225 148.579C94.195 149.119 100.755 151.189 100.755 151.189Z" fill="url(#paint6_linear)"/>
<path d="M35.0445 59.0591C35.0445 59.0591 30.0445 60.4391 25.3645 70.9391C19.8645 83.2591 15.9645 89.8591 16.5345 109.879C17.2545 136.119 33.5045 147.679 33.5045 147.679C33.5045 147.679 19.2045 142.929 13.9545 116.979C8.92454 92.1492 21.2745 64.2491 21.2745 64.2491L25.1045 60.8891L29.2545 57.8691L35.0445 59.0591Z" fill="url(#paint7_linear)"/>
<path d="M37.0244 59.0195L40.1044 57.0695L44.9444 56.4395C44.9444 56.4395 57.3244 69.3594 62.8844 87.8694C75.9244 131.239 56.5044 144.999 56.5044 144.999C56.5044 144.999 75.4844 131.549 57.8544 90.1295C45.2944 60.5295 37.0244 59.0195 37.0244 59.0195Z" fill="url(#paint8_linear)"/>
<defs>
<linearGradient id="paint0_linear" x1="44.1094" y1="54.0528" x2="66.4301" y2="139.903" gradientUnits="userSpaceOnUse">
<stop stop-color="#C2562E"/>
<stop offset="1" stop-color="#8B402A"/>
</linearGradient>
<linearGradient id="paint1_linear" x1="26.6218" y1="77.1276" x2="23.302" y2="122.182" gradientUnits="userSpaceOnUse">
<stop stop-color="#C2562E"/>
<stop offset="0.379" stop-color="#B04F2B"/>
<stop offset="1" stop-color="#8B402A"/>
</linearGradient>
<linearGradient id="paint2_linear" x1="49.0837" y1="81.4194" x2="56.4673" y2="105.777" gradientUnits="userSpaceOnUse">
<stop stop-color="#C2562E"/>
<stop offset="1" stop-color="#8B402A"/>
</linearGradient>
<linearGradient id="paint3_linear" x1="53.8728" y1="59.6941" x2="59.9945" y2="141.866" gradientUnits="userSpaceOnUse">
<stop stop-color="#F5EFC7"/>
<stop offset="0.5" stop-color="#E0C899"/>
<stop offset="1" stop-color="#C1A16A"/>
</linearGradient>
<linearGradient id="paint4_linear" x1="23.9037" y1="78.3597" x2="23.9037" y2="142.579" gradientUnits="userSpaceOnUse">
<stop stop-color="#F5EFC7"/>
<stop offset="0.1947" stop-color="#F1E6BB"/>
<stop offset="0.5478" stop-color="#E1CA9B"/>
<stop offset="1" stop-color="#C1A16A"/>
</linearGradient>
<linearGradient id="paint5_linear" x1="46.8633" y1="58.3953" x2="63.8782" y2="136.263" gradientUnits="userSpaceOnUse">
<stop stop-color="#F5EFC7"/>
<stop offset="0.8165" stop-color="#CBAE7A"/>
<stop offset="1" stop-color="#C1A16A"/>
</linearGradient>
<linearGradient id="paint6_linear" x1="57.7407" y1="59.6352" x2="57.7407" y2="149.049" gradientUnits="userSpaceOnUse">
<stop stop-color="#9B6B50"/>
<stop offset="1" stop-color="#734A39"/>
</linearGradient>
<linearGradient id="paint7_linear" x1="23.9031" y1="78.3528" x2="23.9031" y2="142.572" gradientUnits="userSpaceOnUse">
<stop stop-color="#9B6B50"/>
<stop offset="0.3925" stop-color="#8F6147"/>
<stop offset="1" stop-color="#744A39"/>
</linearGradient>
<linearGradient id="paint8_linear" x1="46.8627" y1="58.3982" x2="63.8775" y2="136.266" gradientUnits="userSpaceOnUse">
<stop stop-color="#9B6B50"/>
<stop offset="1" stop-color="#754C3A"/>
</linearGradient>
</defs>
</svg>
