<svg width="110" height="172" viewBox="0 0 110 172" fill="none" xmlns="http://www.w3.org/2000/svg">
<path d="M79.3782 118.493C79.3782 118.493 85.0081 97.6534 79.9081 76.4234C69.7681 34.2934 39.8482 43.1834 39.8482 43.1834C39.8482 43.1834 22.6581 39.3934 13.4381 55.0534C-4.31185 85.1434 8.55815 120.023 8.55815 120.023C8.55815 120.023 10.0581 123.503 12.7381 128.103C14.7681 131.613 24.5781 144.043 26.1081 146.493C23.6881 140.923 11.8981 107.993 24.4881 72.5734C28.6981 60.7334 34.9681 58.8634 34.9681 58.8634C34.9681 58.8634 35.1681 57.1334 35.4981 55.2734C35.8881 53.2134 37.2782 49.8634 37.2782 49.8634C37.2782 49.8634 37.1082 52.1234 36.9182 55.6034C36.8582 56.6934 36.9781 58.8034 36.9781 58.8034C36.9781 58.8034 41.9682 71.7634 53.7782 75.8834C67.1782 80.5634 68.2081 95.6334 69.9981 95.5534C70.9981 95.5234 70.7482 91.5134 71.7782 88.8634C72.5282 86.9134 72.8881 86.2434 73.7281 85.5234C74.5681 84.8034 76.8482 83.4334 78.2682 85.8034C80.9382 90.2634 79.4081 95.5234 75.3981 102.183C70.5781 110.183 69.0781 106.303 69.0781 106.303C69.0781 106.303 67.9381 109.593 67.5481 110.673C67.1881 111.733 66.0681 114.883 66.0681 114.883C66.0681 114.883 64.7881 118.173 64.9581 123.883C65.0681 127.593 66.3281 133.163 66.3281 133.163C66.3281 133.163 68.8082 129.713 72.0982 126.063C75.6682 122.093 79.3782 118.493 79.3782 118.493Z" fill="#402F26"/>
<path d="M79.3782 118.493C79.3782 118.493 85.0081 97.6534 79.9081 76.4234C69.7681 34.2934 39.8482 43.1834 39.8482 43.1834C39.8482 43.1834 22.6581 39.3934 13.4381 55.0534C-4.31185 85.1434 8.55815 120.023 8.55815 120.023C8.55815 120.023 10.0581 123.503 12.7381 128.103C14.7681 131.613 24.5781 144.043 26.1081 146.493C23.6881 140.923 11.8981 107.993 24.4881 72.5734C28.6981 60.7334 34.9681 58.8634 34.9681 58.8634C34.9681 58.8634 35.1681 57.1334 35.4981 55.2734C35.8881 53.2134 37.2782 49.8634 37.2782 49.8634C37.2782 49.8634 37.1082 52.1234 36.9182 55.6034C36.8582 56.6934 36.9781 58.8034 36.9781 58.8034C36.9781 58.8034 41.9682 71.7634 53.7782 75.8834C67.1782 80.5634 68.2081 95.6334 69.9981 95.5534C70.9981 95.5234 70.7482 91.5134 71.7782 88.8634C72.5282 86.9134 72.8881 86.2434 73.7281 85.5234C74.5681 84.8034 76.8482 83.4334 78.2682 85.8034C80.9382 90.2634 79.4081 95.5234 75.3981 102.183C70.5781 110.183 69.0781 106.303 69.0781 106.303C69.0781 106.303 67.9381 109.593 67.5481 110.673C67.1881 111.733 66.0681 114.883 66.0681 114.883C66.0681 114.883 64.7881 118.173 64.9581 123.883C65.0681 127.593 66.3281 133.163 66.3281 133.163C66.3281 133.163 68.8082 129.713 72.0982 126.063C75.6682 122.093 79.3782 118.493 79.3782 118.493Z" fill="url(#paint0_linear)"/>
<path d="M79.3782 118.493C79.3782 118.493 85.0081 97.6534 79.9081 76.4234C69.7681 34.2934 39.8482 43.1834 39.8482 43.1834C39.8482 43.1834 22.6581 39.3934 13.4381 55.0534C-4.31185 85.1434 8.55815 120.023 8.55815 120.023C8.55815 120.023 10.0581 123.503 12.7381 128.103C14.7681 131.613 24.5781 144.043 26.1081 146.493C23.6881 140.923 11.8981 107.993 24.4881 72.5734C28.6981 60.7334 34.9681 58.8634 34.9681 58.8634C34.9681 58.8634 35.1681 57.1334 35.4981 55.2734C35.8881 53.2134 37.2782 49.8634 37.2782 49.8634C37.2782 49.8634 37.1082 52.1234 36.9182 55.6034C36.8582 56.6934 36.9781 58.8034 36.9781 58.8034C36.9781 58.8034 41.9682 71.7634 53.7782 75.8834C67.1782 80.5634 68.2081 95.6334 69.9981 95.5534C70.9981 95.5234 70.7482 91.5134 71.7782 88.8634C72.5282 86.9134 72.8881 86.2434 73.7281 85.5234C74.5681 84.8034 76.8482 83.4334 78.2682 85.8034C80.9382 90.2634 79.4081 95.5234 75.3981 102.183C70.5781 110.183 69.0781 106.303 69.0781 106.303C69.0781 106.303 67.9381 109.593 67.5481 110.673C67.1881 111.733 66.0681 114.883 66.0681 114.883C66.0681 114.883 64.7881 118.173 64.9581 123.883C65.0681 127.593 66.3281 133.163 66.3281 133.163C66.3281 133.163 68.8082 129.713 72.0982 126.063C75.6682 122.093 79.3782 118.493 79.3782 118.493Z" fill="url(#paint1_linear)"/>
<path d="M79.3782 118.493C79.3782 118.493 85.0081 97.6534 79.9081 76.4234C69.7681 34.2934 39.8482 43.1834 39.8482 43.1834C39.8482 43.1834 22.6581 39.3934 13.4381 55.0534C-4.31185 85.1434 8.55815 120.023 8.55815 120.023C8.55815 120.023 10.0581 123.503 12.7381 128.103C14.7681 131.613 24.5781 144.043 26.1081 146.493C23.6881 140.923 11.8981 107.993 24.4881 72.5734C28.6981 60.7334 34.9681 58.8634 34.9681 58.8634C34.9681 58.8634 35.1681 57.1334 35.4981 55.2734C35.8881 53.2134 37.2782 49.8634 37.2782 49.8634C37.2782 49.8634 37.1082 52.1234 36.9182 55.6034C36.8582 56.6934 36.9781 58.8034 36.9781 58.8034C36.9781 58.8034 41.9682 71.7634 53.7782 75.8834C67.1782 80.5634 68.2081 95.6334 69.9981 95.5534C70.9981 95.5234 70.7482 91.5134 71.7782 88.8634C72.5282 86.9134 72.8881 86.2434 73.7281 85.5234C74.5681 84.8034 76.8482 83.4334 78.2682 85.8034C80.9382 90.2634 79.4081 95.5234 75.3981 102.183C70.5781 110.183 69.0781 106.303 69.0781 106.303C69.0781 106.303 67.9381 109.593 67.5481 110.673C67.1881 111.733 66.0681 114.883 66.0681 114.883C66.0681 114.883 64.7881 118.173 64.9581 123.883C65.0681 127.593 66.3281 133.163 66.3281 133.163C66.3281 133.163 68.8082 129.713 72.0982 126.063C75.6682 122.093 79.3782 118.493 79.3782 118.493Z" fill="url(#paint2_linear)"/>
<defs>
<linearGradient id="paint0_linear" x1="43.0417" y1="132.102" x2="43.0417" y2="60.8856" gradientUnits="userSpaceOnUse">
<stop stop-color="#8B3F2A"/>
<stop offset="1" stop-color="#C1562E"/>
</linearGradient>
<linearGradient id="paint1_linear" x1="43.0473" y1="132.095" x2="43.0473" y2="60.8794" gradientUnits="userSpaceOnUse">
<stop stop-color="#C0A06A"/>
<stop offset="1" stop-color="#F2EEC7"/>
</linearGradient>
<linearGradient id="paint2_linear" x1="43.0478" y1="132.095" x2="43.0478" y2="60.8794" gradientUnits="userSpaceOnUse">
<stop stop-color="#744B3A"/>
<stop offset="1" stop-color="#9A6B50"/>
</linearGradient>
</defs>
</svg>
