<svg width="85" height="212" viewBox="0 0 85 212" fill="none" xmlns="http://www.w3.org/2000/svg">
<g clip-path="url(#clip0)">
<path fill-rule="evenodd" clip-rule="evenodd" d="M36.1271 34.9237C36.1271 34.9237 36.9296 36.7925 37.3384 39.0331C37.7472 41.2738 37.6922 42.1779 36.3362 42.8613C34.9802 43.5448 31.9861 44.9318 30.8263 45.5613C29.6666 46.1907 28.5707 47.7812 28.7658 50.7563C28.9609 53.7314 29.6666 56.245 29.6666 56.245C29.6666 56.245 47.3052 61.1839 49.9511 58.8467C52.5969 56.5096 55.9052 41.4546 52.4577 40.919C52.2871 40.8925 50.951 40.6891 50.7928 40.6684C47.7502 40.2663 46.8926 40.7823 45.7829 38.0458C44.6155 35.1666 45.4312 30.1836 45.4312 30.1836C45.4312 30.1836 39.7299 35.0388 36.1271 34.9238V34.9237Z" fill="#EAD6BA"/>
<path fill-rule="evenodd" clip-rule="evenodd" d="M48.0191 48.8672C48.0191 48.8672 47.0884 53.7347 45.7214 55.8294C44.3544 57.924 47.5074 60.592 47.8823 57.3949C48.2571 54.1978 48.0191 48.8672 48.0191 48.8672V48.8672Z" fill="#D2B58D"/>
<path fill-rule="evenodd" clip-rule="evenodd" d="M30.174 111.068C30.174 111.068 30.1353 114.071 31.4012 121.842C31.6406 123.312 31.9088 125.058 32.1864 126.924C33.7275 122.056 36.0835 114.907 36.7996 112.739C32.7629 111.183 30.4956 111.076 30.1741 111.068H30.174ZM35.7922 152.465C36.8771 160.223 38.3925 171.736 38.2565 174.593C38.0467 179.003 34.9519 186.466 34.9519 186.466C34.9519 186.466 33.7578 187.449 35.1636 188.694C36.5694 189.939 37.9767 189.957 37.9767 189.957L38.336 189.413C38.3214 189.176 38.3625 189.019 38.3625 189.019C38.3625 189.019 38.3625 189.019 38.9928 183.441C39.6231 177.864 40.2506 175.628 39.162 166.189C38.6756 161.973 37.2922 157.018 35.7924 152.465L35.7922 152.465ZM44.8867 149.092C44.9427 147.099 44.9053 145.313 44.7051 144.1C43.9114 139.293 43.0257 138.228 43.0257 138.228C43.0257 138.228 43.5859 133.59 44.0771 128.342C41.4607 132.893 38.9618 137.068 38.9618 137.068C38.9618 137.068 40.735 138.586 43.337 143.966C44.14 145.626 44.6162 147.338 44.8868 149.092H44.8867Z" fill="#D2B58D"/>
<path fill-rule="evenodd" clip-rule="evenodd" d="M30.6147 54.7156C31.2216 55.2368 32.6304 55.8711 35.8467 55.6095C40.0532 55.2673 43.4357 53.6556 44.5714 53.0541C46.5343 43.6622 49.7557 41.1689 51.2094 40.5116C51.9891 40.1589 52.3049 40.445 52.4348 40.7721C52.4217 40.7735 47.6936 41.2978 45.2047 53.4799C45.5779 54.5159 46.426 56.657 47.7953 58.971C49.7135 62.2121 48.2867 73.5824 48.2867 73.5824C48.2867 73.5824 49.8013 77.1831 51.8518 80.8654C53.9024 84.5475 58.2224 92.115 56.812 100.491C55.4015 108.868 49.3134 119.12 49.3134 119.12C49.3134 119.12 44.7704 116.258 38.9845 113.654C33.1985 111.05 30.1337 111.069 30.1337 111.069C30.1337 111.069 29.2125 90.4189 30.4556 84.3082C31.6986 78.1974 31.6271 75.5789 30.8816 72.4247C30.136 69.2703 29.1608 66.0794 29.1608 66.0794C29.1608 66.0794 25.087 61.6264 30.007 54.3578C30.0402 54.2937 30.0752 54.2284 30.1116 54.162C31.2495 52.092 33.2807 48.9448 32.7128 44.5958C32.6801 44.1043 33.3573 44.0198 33.3741 44.3415C33.8836 49.0101 31.9205 52.3288 30.7291 54.501C30.689 54.574 30.6511 54.6456 30.6151 54.7156H30.6147Z" fill="#D5C1B5"/>
<path fill-rule="evenodd" clip-rule="evenodd" d="M36.7989 112.74C35.8491 115.616 32.0153 127.252 31.0229 130.708C29.8874 134.662 29.84 135.501 31.1646 139.557C32.4891 143.614 38.0727 156.751 39.1613 166.19C40.25 175.629 39.6224 177.865 38.9921 183.442C38.3619 189.02 38.3619 189.02 38.3619 189.02C38.3619 189.02 37.7873 191.218 41.6973 191.548C45.6074 191.879 45.9062 189.672 45.8449 187.534C45.7836 185.397 46.1821 183.038 46.6222 180.844C47.0624 178.65 47.0117 177.409 46.0118 174.402C45.012 171.395 44.8279 167.631 44.9694 161.444C45.1109 155.257 45.9378 149.347 43.336 143.967C40.7342 138.587 38.9608 137.069 38.9608 137.069C38.9608 137.069 46.6519 124.218 49.1752 119.035C48.3779 118.542 44.183 115.994 38.9837 113.655C38.2058 113.304 37.4774 113.002 36.7985 112.74L36.7989 112.74Z" fill="#EAD6BA"/>
<path fill-rule="evenodd" clip-rule="evenodd" d="M34.988 186.379C34.2555 186.957 32.7156 188.276 31.1138 190.294C28.8951 193.089 29.5008 193.228 30.1734 193.23C30.8047 193.232 35.546 193.572 36.954 192.747C37.0675 192.372 37.1857 192.008 37.301 191.67C37.5735 190.872 37.7946 190.328 37.9695 189.957C37.8631 189.954 36.5127 189.889 35.1635 188.695C33.7577 187.45 34.9518 186.467 34.9518 186.467L34.988 186.379V186.379Z" fill="#BA9F8A"/>
<path fill-rule="evenodd" clip-rule="evenodd" d="M38.3325 189.319C38.1522 189.555 37.8189 190.152 37.3008 191.671C36.4557 194.147 35.4649 197.984 37.1849 197.852C38.9049 197.719 46.0837 195.165 46.3307 192.021C46.5777 188.878 47.2546 186.879 47.6934 184.433C48.1321 181.988 49.2266 180.48 49.2856 178.808C49.3402 177.263 48.1386 175.922 46.0758 174.596C47.0138 177.463 47.0531 178.698 46.6226 180.844C46.1824 183.039 45.784 185.397 45.8452 187.535C45.9065 189.672 45.6077 191.879 41.6977 191.549C38.6857 191.294 38.3348 189.932 38.3327 189.319H38.3325Z" fill="#D4C1B5"/>
<path fill-rule="evenodd" clip-rule="evenodd" d="M48.9413 180.473C48.8747 181.004 48.7701 181.661 48.6057 182.405C48.1192 184.611 48.2977 187.892 48.2801 188.688C48.1787 188.884 47.3809 188.861 47.3828 188.725L47.4259 185.771C47.5204 185.333 47.611 184.891 47.6932 184.432C47.9849 182.806 48.5667 181.594 48.9413 180.473V180.473Z" fill="#A68C7A"/>
<path fill-rule="evenodd" clip-rule="evenodd" d="M40.1272 178.237C40.1272 178.237 38.9807 185.866 38.8484 187.806C38.7161 189.747 42.1998 177.686 40.1272 178.237Z" fill="#EDE4D3"/>
<path fill-rule="evenodd" clip-rule="evenodd" d="M30.9396 111.481C30.9396 111.481 31.0423 114.342 31.6376 118.751C32.233 123.161 32.6301 124.308 32.5692 123.939C32.5086 123.571 32.0564 111.85 32.0564 111.85C32.0564 111.85 31.6357 111.35 30.9395 111.481H30.9396Z" fill="#EAD6BA"/>
<path fill-rule="evenodd" clip-rule="evenodd" d="M37.4615 113.648L39.0031 114.441C39.0031 114.441 36.7929 118.679 34.1821 124.712C31.5714 130.745 31.2627 131.428 31.2627 131.428C31.2627 131.428 32.9801 126.401 37.4615 113.648Z" fill="#EDE4D3"/>
<path fill-rule="evenodd" clip-rule="evenodd" d="M36.7993 112.74L36.4131 113.911C40.2918 114.256 47.0896 117.802 48.4458 120.476C48.7197 119.951 48.966 119.466 49.176 119.035C48.3786 118.542 44.1838 115.994 38.9845 113.654C38.2065 113.304 37.4781 113.002 36.7992 112.74H36.7993Z" fill="#D2B58D"/>
<path fill-rule="evenodd" clip-rule="evenodd" d="M29.9166 90.0605C29.9166 90.0605 27.554 99.6271 27.9058 104.633C28.2576 109.639 28.2636 108.298 28.8293 110.281C29.395 112.265 29.6455 113.167 29.6455 113.167C29.6455 113.167 30.338 114.267 30.3146 113.96C30.2913 113.653 29.944 106.179 29.944 106.179C29.944 106.179 30.33 107.412 30.7379 108.272C31.1459 109.131 31.3443 109.319 31.5977 109.187C31.8512 109.054 31.5785 107.576 31.2684 106.585C30.9583 105.593 31.0902 104.225 30.7373 102.914C30.3846 101.602 29.8487 100.831 29.8487 100.831C29.8522 96.6308 29.8113 94.7235 29.9165 90.0605H29.9166Z" fill="#EAD6BA"/>
<path fill-rule="evenodd" clip-rule="evenodd" d="M55.5572 92.8027C56.0236 95.1579 56.1705 97.7001 55.7284 100.325C54.3805 108.33 48.5627 118.127 48.5627 118.127C48.5627 118.127 48.2133 117.907 47.5869 117.535C48.7844 115.526 50.8966 111.529 53.2907 104.957C55.2578 99.5564 55.6359 95.4599 55.5572 92.8029V92.8027Z" fill="#B99E8A"/>
<path fill-rule="evenodd" clip-rule="evenodd" d="M49.1129 75.4395C49.7536 76.8302 50.3048 78.0826 51.4355 80.1131L51.5725 80.3591C50.6237 80.9669 49.7229 81.9756 47.471 87.1555C45.219 92.3355 45.0372 95.4302 45.3512 98.3788C45.6652 101.328 45.7931 101.214 45.533 104.264C45.2729 107.313 44.5871 111.515 44.0595 112.328C43.532 113.141 43.1682 113.13 43.1682 113.13C43.1682 113.13 42.954 114.751 42.515 115.342L42.2513 115.209C42.1529 114.029 41.6809 108.421 41.5528 107.908C41.4095 107.335 41.0457 110.499 41.0457 110.499C41.0457 110.499 41.0347 110.907 41.0483 112.942C41.054 113.801 41.0463 114.31 41.0356 114.612C40.6131 114.408 40.1803 114.203 39.7394 114L39.5023 107.765C39.5023 107.765 39.2749 110.318 38.8738 111.921C38.6913 112.651 38.4351 113.072 38.21 113.315L38.0477 113.246C37.9571 113.026 37.9117 112.785 37.9252 112.518C38.031 110.429 37.7662 104.961 42.9696 91.2027C47.3424 79.6409 46.4315 75.8524 49.1129 75.4396V75.4395Z" fill="#A38976"/>
<path d="M32.9863 93.924C32.9895 93.9315 34.0849 96.5694 40.4519 98.5146L40.3498 98.8507C33.8239 96.8569 33.151 94.3577 33.1477 94.3497L32.9863 93.9238V93.924ZM33.0071 100.371C33.0184 100.378 36.9119 102.887 40.7159 101.85L40.8084 102.189C36.8515 103.268 33.5245 100.996 33.5129 100.989L33.0073 100.371H33.0071Z" fill="#B99E8A"/>
<path fill-rule="evenodd" clip-rule="evenodd" d="M36.127 34.924C36.127 34.924 36.9294 36.7928 37.3383 39.0334C37.3705 39.2099 37.3998 39.3779 37.4257 39.5382C38.3232 39.8064 39.6872 39.8377 41.2003 38.5496C42.829 37.1631 44.2768 35.407 45.1577 34.2491C45.1168 32.1039 45.4311 30.1836 45.4311 30.1836C45.4311 30.1836 39.7298 35.0388 36.127 34.9238V34.924Z" fill="#D2B58D"/>
<path fill-rule="evenodd" clip-rule="evenodd" d="M36.127 34.9238C36.127 34.9238 36.45 35.6763 36.7906 36.7988C38.8192 37.5649 40.1249 36.7184 42.3132 35.3722C43.6795 34.5317 44.5911 33.5337 45.185 32.675C45.2572 31.2471 45.4313 30.1836 45.4313 30.1836C45.4313 30.1836 39.7299 35.0388 36.1271 34.9238H36.127Z" fill="#C2A67E"/>
<path fill-rule="evenodd" clip-rule="evenodd" d="M44.4312 15.7807C47.4479 18.1983 48.1795 21.3092 47.3234 24.8899C46.7881 27.1292 46.4581 28.455 46.1694 29.5051C45.4055 32.2814 45.5145 32.7604 42.882 34.4355C40.6788 35.8374 38.814 36.809 37.3254 36.2406C33.9465 34.9504 33.6018 31.9261 32.3119 28.4055C31.7712 26.9297 32.2447 26.5454 32.2342 24.9784C32.2237 23.4112 32.057 23.3393 31.9523 21.8606C31.8907 20.9913 31.5261 19.1059 33.2149 16.8275C35.979 13.0982 40.8653 12.9225 44.4312 15.7808V15.7807Z" fill="#EAD6BA"/>
<path fill-rule="evenodd" clip-rule="evenodd" d="M47.5086 23.9775C47.7331 23.8611 48.0301 23.78 48.3448 23.8966C49.0024 24.1402 49.4612 25.4131 48.6324 27.0501C47.8035 28.6871 47.4227 29.47 47.2259 29.749C47.0424 30.0089 46.4194 30.268 46.1426 29.604C46.4382 28.5379 46.7716 27.2 47.3239 24.89C47.3976 24.5823 47.459 24.2781 47.5088 23.9775H47.5086Z" fill="#EAD6BA"/>
<path fill-rule="evenodd" clip-rule="evenodd" d="M46.2884 29.8433C46.2338 29.782 46.1843 29.7032 46.1426 29.6032C46.4382 28.5371 46.7716 27.1992 47.3239 24.8892C47.3646 24.7194 47.4015 24.5506 47.4347 24.383C47.6048 24.3188 47.821 24.2723 48.0822 24.2827C48.8169 24.3121 48.8592 25.7435 48.5947 26.3885C48.3302 27.0335 48.3302 27.0335 48.3302 27.0335C48.3302 27.0335 48.5893 26.1956 48.5286 25.468C48.468 24.7403 47.8451 24.7679 47.6798 24.9499C47.5144 25.1317 47.2386 25.628 47.3599 26.2232C47.4812 26.8185 47.3489 27.5572 47.0402 27.7556C46.7867 27.9185 46.3103 29.2188 46.2884 29.8435V29.8433Z" fill="#D2B58D"/>
<path fill-rule="evenodd" clip-rule="evenodd" d="M31.8373 45.4082C31.4915 45.5794 31.1911 45.7323 30.9693 45.8526C29.9817 46.3886 29.0486 47.7431 29.2146 50.2768C29.3176 51.8471 29.5875 53.2661 29.778 54.1184L29.7782 54.1185C29.7782 54.1185 29.1682 51.2084 29.8339 48.4446C30.2606 46.6727 31.2105 45.8038 31.8374 45.4082H31.8373Z" fill="#EDE4D3"/>
<path fill-rule="evenodd" clip-rule="evenodd" d="M37.8167 100.475C37.2529 101.13 36.8992 103.514 36.947 105.632C36.9949 107.75 36.8281 109.689 36.8281 109.689C36.8281 109.689 37.8892 110.457 38.1731 107.969C38.295 106.899 37.9991 105.095 37.8364 104.078C37.6205 102.73 37.8165 100.475 37.8165 100.475H37.8167Z" fill="#D2B58D"/>
<path fill-rule="evenodd" clip-rule="evenodd" d="M52.516 40.9277C53.4122 41.1157 54.4924 41.4445 55.2148 42.0063C56.653 43.1244 57.3144 44.4033 56.5207 48.4382C55.7269 52.4731 55.6633 51.0572 55.0976 55.2578C54.5319 59.4584 54.3705 60.5127 53.7582 62.9477C53.1458 65.3825 52.4421 68.004 52.116 69.9568C51.79 71.9096 51.6593 75.4161 49.8103 80.696C47.9614 85.9758 46.7472 88.0217 45.7599 91.1201C44.7725 94.2184 44.7527 94.2353 44.7215 94.782C44.6903 95.3286 44.8187 95.6556 44.65 96.328C44.4813 97.0004 44.6702 97.5423 44.8117 98.3434C44.9532 99.1446 45.4466 100.532 45.1365 103.118C44.8266 105.705 44.6982 106.862 44.6062 107.768C44.5142 108.675 44.4813 110.781 44.1945 111.817C43.9077 112.854 43.4102 112.684 43.3174 111.748C43.2245 110.813 43.2632 108.885 43.2133 107.683C43.1635 106.481 43.1852 105.957 43.1852 105.957C43.1852 105.957 42.744 109.48 42.7946 110.66C42.845 111.84 42.8025 115.307 42.2361 115.238C41.6696 115.169 41.3611 110.66 41.3389 109.822C41.3168 108.984 41.4706 106.944 41.4706 106.944C41.4706 106.944 41.2394 106.757 41.1512 107.33C41.063 107.904 40.7084 110.821 40.7084 110.821C40.7084 110.821 40.7323 113.802 40.6331 114.761C40.5339 115.72 40.2854 116.107 39.92 116.075C39.5548 116.043 39.4537 115.611 39.326 113.955C39.1984 112.3 39.2341 110.936 39.2741 110.318C39.314 109.7 39.3875 107.077 39.3875 107.077C39.3875 107.077 39.1117 106.757 39.0566 107.253C39.0015 107.749 38.8337 109.53 38.8337 109.53C38.8337 109.53 38.6598 111.685 38.4173 112.523C38.1748 113.361 37.6332 113.607 37.5401 112.889C37.4471 112.17 37.5066 109.944 37.5388 109.487C37.571 109.03 37.6366 105.598 37.5127 104.519C37.3889 103.44 37.3559 101.557 37.6714 100.767C39.1422 97.0836 39.263 96.0204 40.3609 92.4265C40.9745 90.4186 42.4407 86.9531 43.3457 81.635C44.597 74.282 46.9763 69.6847 46.9766 69.4974C46.9771 69.2079 47.6656 49.7755 47.8092 47.7105C48.0261 44.5913 50.5844 41.316 52.5158 40.9279L52.516 40.9277Z" fill="#EAD6BA"/>
<path fill-rule="evenodd" clip-rule="evenodd" d="M30.543 55.2194C31.1499 55.7405 32.5587 56.3749 35.775 56.1132C39.962 55.7727 43.3322 54.1744 44.4833 53.5664C43.5615 54.2575 38.144 56.9014 34.6812 56.7632C31.092 56.6201 30.543 55.2194 30.543 55.2194V55.2194Z" fill="#E0D0C4"/>
<path fill-rule="evenodd" clip-rule="evenodd" d="M32.2881 52.6641C32.2881 52.6641 33.1899 53.2436 33.712 54.4673C33.8557 54.8043 33.9432 55.1043 33.9947 55.362C34.1542 55.3652 34.3192 55.3664 34.49 55.3655C34.2528 54.4078 33.6779 53.103 32.2881 52.6642V52.6641Z" fill="#EDE4D3"/>
<path fill-rule="evenodd" clip-rule="evenodd" d="M40.1782 52.3867C40.1782 52.3867 39.2495 52.7077 38.3702 53.412C37.7642 53.8974 37.2406 54.7246 36.9512 55.2459C37.1881 55.218 37.4217 55.1863 37.6523 55.1514C38.0513 54.3645 38.8569 53.1014 40.1781 52.3867H40.1782Z" fill="#EDE4D3"/>
<path fill-rule="evenodd" clip-rule="evenodd" d="M35.4681 55.6361C35.2551 54.8172 34.85 53.8698 34.0898 53.002C34.0898 53.002 34.5989 54.1942 34.6084 55.6688C34.8783 55.6656 35.1646 55.6549 35.468 55.6361H35.4681Z" fill="#D2B58D"/>
<path fill-rule="evenodd" clip-rule="evenodd" d="M36.656 25.3705C36.8748 26.4771 36.6344 27.033 36.6212 26.5313C36.6061 25.9582 36.3106 25.1933 36.258 25.1175C35.6713 24.2719 35.4013 24.4174 35.4013 24.4174C35.1863 24.149 36.4037 24.0949 36.656 25.3705V25.3705Z" fill="#D2B58D"/>
<path fill-rule="evenodd" clip-rule="evenodd" d="M39.5409 24.168C39.5409 24.168 38.5245 24.2917 38.3106 25.3489C38.0967 26.4059 38.1368 26.562 38.1368 26.562C38.1368 26.562 38.6353 24.6671 39.5409 24.168Z" fill="#D2B58D"/>
<path d="M37.2541 28.0705C37.4023 28.086 37.5305 28.0273 37.5404 27.9395C37.5503 27.8516 37.4381 27.768 37.2899 27.7525C37.1417 27.7371 37.0135 27.7958 37.0036 27.8836C36.9937 27.9714 37.1059 28.0551 37.2541 28.0705Z" fill="#EDE4D3"/>
<path fill-rule="evenodd" clip-rule="evenodd" d="M38.8416 28.1348C38.8416 28.1348 39.0498 28.3214 38.8816 28.8441C38.7135 29.3666 38.3564 29.2114 38.3564 29.2114C38.3564 29.2114 38.7159 29.5768 38.9965 29.1209C39.2769 28.6649 39.0161 28.2529 38.8418 28.1348H38.8416Z" fill="#D2B58D"/>
<path fill-rule="evenodd" clip-rule="evenodd" d="M36.2575 28.3223C36.2575 28.3223 36.1124 28.4772 36.1483 28.8535C36.1841 29.2298 36.4427 29.4315 36.5458 29.4174C36.6491 29.4032 36.2971 29.5441 36.112 29.1297C35.9268 28.7153 36.2575 28.3223 36.2575 28.3223V28.3223Z" fill="#D2B58D"/>
<path fill-rule="evenodd" clip-rule="evenodd" d="M36.5728 29.0878C36.5728 29.0878 36.5149 28.8281 36.7236 28.923C36.9326 29.0178 36.9696 29.2264 37.1736 29.3637C37.3776 29.5011 37.636 29.4596 37.6551 29.2607C37.6744 29.0619 37.7159 28.8204 37.9431 28.8724C38.1702 28.9243 38.3406 29.1948 38.3406 29.1948C38.3406 29.1948 38.1421 28.9781 37.9342 28.9964C37.7263 29.0148 37.7004 29.1518 37.6414 29.3183C37.5823 29.4849 37.2984 29.5302 37.0208 29.2663C36.7432 29.0026 36.6198 29.0571 36.5725 29.0878H36.5728Z" fill="#C2A67E"/>
<path fill-rule="evenodd" clip-rule="evenodd" d="M35.5723 31.9699C35.3905 31.7778 35.4024 31.7697 35.2935 31.8008C35.1847 31.832 35.0289 31.5943 35.2826 31.6771C35.5362 31.7599 35.6631 31.795 35.905 31.7089C36.1469 31.6228 36.7603 31.0688 37.7598 31.0843C38.7594 31.0998 39.654 31.571 40.1289 31.5278C40.6038 31.4847 40.6454 31.2523 40.7048 31.3298C40.7643 31.4075 40.6013 31.4956 40.4899 31.5239C40.3786 31.5523 40.1023 31.6696 39.781 32.2148C39.2317 33.147 38.5182 33.4759 37.6469 33.4269C36.8317 33.381 36.3083 32.7701 35.5722 31.9697L35.5723 31.9699Z" fill="#BE7B63"/>
<path fill-rule="evenodd" clip-rule="evenodd" d="M36.0469 31.9965C37.1126 32.141 38.4751 32.0514 39.4547 31.8887C39.4547 31.8887 38.7581 32.3735 37.681 32.4097C36.604 32.4458 36.0469 31.9965 36.0469 31.9965V31.9965Z" fill="white"/>
<path fill-rule="evenodd" clip-rule="evenodd" d="M36.9838 32.5402C36.9838 32.5402 37.6014 32.7519 38.4176 32.5532C39.2336 32.3543 39.5965 32.0993 39.5187 32.2247C39.4409 32.3499 38.7846 33.1196 37.8043 33.0979C36.8241 33.0764 36.6513 32.4062 36.9838 32.5404V32.5402Z" fill="#C88B72"/>
<path fill-rule="evenodd" clip-rule="evenodd" d="M32.7367 24.1401C32.7367 24.1401 33.1202 23.8834 33.8754 23.833C34.6305 23.7826 36.0649 23.8956 36.0649 23.8956C36.0649 23.8956 36.1798 23.8505 36.1341 23.6203C36.0884 23.3901 35.9922 23.3249 35.7241 23.2906C35.4559 23.2565 33.7731 23.0459 33.3344 23.4478C32.8958 23.8495 32.8243 23.9442 32.7761 23.9987C32.7761 23.9987 32.517 24.2609 32.737 24.1401H32.7367Z" fill="#413024"/>
<path fill-rule="evenodd" clip-rule="evenodd" d="M43.5862 23.6653C43.5862 23.6653 42.7088 23.4372 41.9533 23.4809C41.1976 23.5245 39.3876 23.7767 39.3876 23.7767C39.3876 23.7767 39.268 23.7459 39.2848 23.512C39.3017 23.2779 39.3888 23.2012 39.6508 23.1339C39.9127 23.0667 41.903 22.7884 42.4422 23.0312C42.9813 23.274 43.5 23.487 43.6337 23.5704C43.7529 23.6446 43.8262 23.7172 43.5861 23.6651L43.5862 23.6653Z" fill="#413024"/>
<path fill-rule="evenodd" clip-rule="evenodd" d="M32.9502 25.3896C32.9502 25.3896 33.709 25.9311 34.2603 26.055C34.8117 26.179 35.8074 26.0405 35.8074 26.0405C35.8074 26.0405 35.8485 26.0955 35.9277 26.0816C36.0067 26.0678 35.73 25.5018 34.7408 25.2206C33.7515 24.9395 33.0402 25.3247 32.9502 25.3895V25.3896Z" fill="white"/>
<path fill-rule="evenodd" clip-rule="evenodd" d="M32.9502 25.3895C32.9502 25.3895 33.0012 25.426 33.0864 25.482C33.3732 25.3948 34.188 25.197 34.9729 25.4725C35.4004 25.6226 35.6662 25.8609 35.8383 26.0663C35.8584 26.0782 35.8884 26.0885 35.9278 26.0817C36.0069 26.0677 35.7302 25.5017 34.7409 25.2206C33.7518 24.9395 33.0407 25.3248 32.9503 25.3897L32.9502 25.3895Z" fill="#ADA89F"/>
<path fill-rule="evenodd" clip-rule="evenodd" d="M35.291 25.437C35.1393 25.3571 34.957 25.2821 34.7408 25.2206C34.5819 25.1754 34.4303 25.1476 34.2873 25.1328C34.2357 25.2067 34.2016 25.2942 34.1916 25.3902C34.1596 25.6931 34.3794 25.9643 34.6821 25.9961C34.985 26.028 35.2563 25.8084 35.288 25.5055C35.2906 25.4825 35.2915 25.4596 35.291 25.437V25.437Z" fill="#625D54"/>
<path d="M34.716 25.6795C34.8446 25.693 34.9598 25.5998 34.9733 25.4712C34.9868 25.3427 34.8936 25.2275 34.765 25.2139C34.6365 25.2004 34.5213 25.2937 34.5077 25.4222C34.4942 25.5508 34.5875 25.666 34.716 25.6795Z" fill="#402F24"/>
<path d="M34.1887 25.6655C34.268 25.6684 34.3346 25.6065 34.3375 25.5272C34.3404 25.4479 34.2785 25.3812 34.1992 25.3783C34.1199 25.3754 34.0533 25.4373 34.0504 25.5166C34.0475 25.5959 34.1094 25.6626 34.1887 25.6655Z" fill="white"/>
<path fill-rule="evenodd" clip-rule="evenodd" d="M39.6926 25.8933C39.6926 25.8933 39.6186 25.9397 39.6143 25.9903C39.6103 26.0409 39.7596 26.0121 39.7596 26.0121C39.7596 26.0121 41.1812 26.2217 41.8097 25.9906C42.4381 25.7595 43.352 25.2164 43.352 25.2164C43.352 25.2164 41.3259 24.4312 39.6925 25.8933H39.6926Z" fill="white"/>
<path fill-rule="evenodd" clip-rule="evenodd" d="M39.6926 25.8952C39.6926 25.8952 39.6186 25.9415 39.6143 25.9921C39.6103 26.0427 39.7598 26.0139 39.7598 26.0139L39.7808 26.0169C39.9469 25.8815 40.4069 25.5513 41.1969 25.315C41.8065 25.1326 42.5575 25.2691 43.0582 25.3867C43.2361 25.2873 43.3523 25.2184 43.3523 25.2184C43.3523 25.2184 41.3262 24.4332 39.6928 25.8953L39.6926 25.8952Z" fill="#ADA89F"/>
<path fill-rule="evenodd" clip-rule="evenodd" d="M41.8311 25.0137C41.5102 25.0322 41.1605 25.0922 40.8045 25.2226C40.7937 25.2636 40.7872 25.3065 40.7856 25.3506C40.7738 25.673 41.0256 25.9441 41.3481 25.9558C41.6705 25.9676 41.9416 25.7157 41.9534 25.3933C41.9586 25.2508 41.9123 25.1181 41.8311 25.0137V25.0137Z" fill="#625D54"/>
<path d="M41.3606 25.6201C41.4976 25.6252 41.6126 25.5182 41.6176 25.3813C41.6226 25.2444 41.5157 25.1293 41.3788 25.1243C41.2419 25.1193 41.1268 25.2262 41.1218 25.3632C41.1168 25.5001 41.2237 25.6151 41.3606 25.6201Z" fill="#402F24"/>
<path d="M40.8763 25.6889C40.9556 25.6864 41.0178 25.6201 41.0153 25.5408C41.0128 25.4615 40.9465 25.3992 40.8672 25.4017C40.7879 25.4042 40.7257 25.4705 40.7282 25.5498C40.7307 25.6292 40.797 25.6914 40.8763 25.6889Z" fill="white"/>
<path fill-rule="evenodd" clip-rule="evenodd" d="M32.9502 25.3883C32.9502 25.3883 33.709 25.9296 34.2606 26.0536C34.8118 26.1774 35.8077 26.0392 35.8077 26.0392C35.8077 26.0392 35.8488 26.0941 35.928 26.0803C35.9485 26.0767 35.945 26.0363 35.912 25.9739C35.6715 25.9659 35.1653 26.2019 34.4468 26.0359C33.5648 25.8319 33.0151 25.3496 33.0151 25.3496C32.9839 25.3665 32.9619 25.38 32.9503 25.3883H32.9502Z" fill="#ADA89F"/>
<path fill-rule="evenodd" clip-rule="evenodd" d="M39.6926 25.8943C39.6926 25.8943 39.6186 25.9406 39.6143 25.9912C39.6103 26.0418 39.7598 26.013 39.7598 26.013C39.7598 26.013 41.1812 26.2227 41.8098 25.9917C42.4383 25.7606 43.3522 25.2175 43.3522 25.2175C43.3522 25.2175 43.3052 25.1994 43.2206 25.1738C42.8646 25.407 42.1583 25.9295 41.4087 26.0365C40.6614 26.1432 39.9466 25.9629 39.6983 25.8891L39.6925 25.8943H39.6926Z" fill="#ADA89F"/>
<path fill-rule="evenodd" clip-rule="evenodd" d="M32.4582 25.1005C32.4582 25.1005 32.5232 25.1933 32.6951 25.2973C32.867 25.4015 32.985 25.4135 32.985 25.4135C32.985 25.4135 33.5229 25.071 34.4614 25.2396C35.4 25.4084 35.8139 25.8142 35.8139 25.8142C35.8139 25.8142 35.2978 25.1069 34.2036 25.0217C33.1095 24.9366 32.7567 25.2782 32.458 25.1004L32.4582 25.1005Z" fill="#402F24"/>
<path fill-rule="evenodd" clip-rule="evenodd" d="M39.6436 25.9349C39.6436 25.9349 40.3697 25.1053 41.4153 24.8664C42.461 24.6277 43.4259 24.8762 43.5574 24.9033C43.6888 24.9301 44.0276 24.8653 44.0564 24.8331C44.0851 24.8011 44.0243 24.9125 43.7634 25.0558C43.5026 25.1989 43.3067 25.1917 43.3439 25.2218C43.3809 25.2518 41.301 24.6013 39.6437 25.9349H39.6436Z" fill="#402F24"/>
</g>
<defs>
<clipPath id="clip0">
<rect width="84.6667" height="211.667" fill="white"/>
</clipPath>
</defs>
</svg>
