<svg width="85" height="212" viewBox="0 0 85 212" fill="none" xmlns="http://www.w3.org/2000/svg">
<path fill-rule="evenodd" clip-rule="evenodd" d="M35.2558 34.6436C35.2558 34.6436 36.1142 36.5151 36.5516 38.7589C36.989 41.0028 36.9302 41.9079 35.4794 42.5927C34.0285 43.277 30.8254 44.6663 29.5848 45.2965C28.3443 45.9267 27.1719 47.5197 27.3807 50.4989C27.5895 53.4785 28.3443 55.9954 28.3443 55.9954C28.3443 55.9954 47.2147 60.9415 50.0455 58.601C52.8763 56.2606 56.4155 41.1839 52.7271 40.6472C52.5444 40.6207 51.1154 40.417 50.946 40.3963C47.691 39.9936 46.7734 40.5104 45.5862 37.77C44.3371 34.8866 45.21 29.8965 45.21 29.8965C45.21 29.8965 39.1106 34.7589 35.2558 34.6436V34.6436Z" fill="#EAD6BA"/>
<path fill-rule="evenodd" clip-rule="evenodd" d="M47.9797 48.6074C47.9797 48.6074 46.9842 53.4819 45.5216 55.5797C44.0591 57.6774 47.4325 60.349 47.8333 57.1474C48.2344 53.9458 47.9797 48.6074 47.9797 48.6074Z" fill="#D2B58D"/>
<path fill-rule="evenodd" clip-rule="evenodd" d="M28.8869 110.898C28.8869 110.898 28.8452 113.906 30.1998 121.688C30.4557 123.16 30.7428 124.908 31.0396 126.777C32.6883 121.902 35.209 114.743 35.9748 112.572C31.6561 111.013 29.2304 110.905 28.8869 110.898V110.898ZM34.8975 152.355C36.0581 160.124 37.6792 171.654 37.5339 174.514C37.3096 178.931 33.9985 186.405 33.9985 186.405C33.9985 186.405 32.721 187.39 34.2248 188.636C35.7286 189.883 37.2344 189.901 37.2344 189.901L37.6188 189.356C37.6032 189.119 37.6472 188.961 37.6472 188.961C37.6472 188.961 37.6472 188.961 38.3214 183.376C38.9957 177.79 39.6671 175.551 38.5026 166.098C37.9822 161.876 36.5025 156.915 34.8975 152.354V152.355ZM44.6273 148.976C44.6873 146.981 44.6471 145.192 44.4329 143.977C43.5838 139.164 42.6362 138.097 42.6362 138.097C42.6362 138.097 43.2356 133.453 43.7611 128.197C40.9618 132.754 38.2883 136.935 38.2883 136.935C38.2883 136.935 40.1855 138.456 42.9688 143.843C43.828 145.506 44.3375 147.22 44.6269 148.976H44.6273Z" fill="#D2B58D"/>
<path fill-rule="evenodd" clip-rule="evenodd" d="M29.3593 54.4629C30.0086 54.9848 31.5155 55.6201 34.9567 55.358C39.4568 55.0156 43.0756 53.4012 44.2908 52.799C46.3905 43.3936 49.8371 40.8966 51.3923 40.2384C52.2266 39.8851 52.5647 40.1718 52.7034 40.4993C52.6893 40.5005 47.631 41.0259 44.9685 53.2255C45.3677 54.2631 46.2748 56.4072 47.7401 58.7243C49.7923 61.9699 48.2655 73.357 48.2655 73.357C48.2655 73.357 49.8858 76.9629 52.0798 80.6506C54.2734 84.3383 58.8954 91.9166 57.3862 100.305C55.8773 108.693 49.3639 118.961 49.3639 118.961C49.3639 118.961 44.5034 116.095 38.3137 113.487C32.1235 110.879 28.8448 110.898 28.8448 110.898C28.8448 110.898 27.8283 90.2277 28.8803 84.0543C30.0651 77.102 28.8281 70.2512 27.8037 65.8434C27.8037 65.8434 23.4453 61.3837 28.7089 54.105C28.7443 54.0407 28.7817 53.9757 28.8207 53.9091C30.0378 51.8362 32.2112 48.6841 31.6036 44.3288C31.5685 43.8365 32.2934 43.752 32.3109 44.0745C32.8562 48.7499 30.756 52.0734 29.4812 54.2483C29.4384 54.3215 29.3979 54.3932 29.3593 54.4633V54.4629Z" fill="#D5C1B5"/>
<path fill-rule="evenodd" clip-rule="evenodd" d="M35.9755 112.571C34.9594 115.452 30.8576 127.104 29.7963 130.565C28.5815 134.525 28.5308 135.365 29.9478 139.427C31.3648 143.489 37.3384 156.646 38.5029 166.098C39.6675 175.551 38.996 177.79 38.3218 183.375C37.6476 188.961 37.6476 188.961 37.6476 188.961C37.6476 188.961 37.033 191.162 41.2161 191.493C45.3992 191.824 45.719 189.614 45.6532 187.473C45.5877 185.332 46.0138 182.97 46.4847 180.773C46.9556 178.575 46.9015 177.333 45.8315 174.322C44.762 171.311 44.5649 167.54 44.7164 161.344C44.868 155.148 45.7525 149.23 42.9688 143.842C40.1851 138.455 38.2883 136.934 38.2883 136.934C38.2883 136.934 46.6635 124.151 49.363 118.96C48.5101 118.466 41.5102 114.833 38.3129 113.486C35.1155 112.139 36.7011 112.832 35.9751 112.57L35.9755 112.571Z" fill="#EAD6BA"/>
<path fill-rule="evenodd" clip-rule="evenodd" d="M34.0374 186.316C33.2537 186.895 31.6062 188.216 29.8924 190.237C27.5189 193.035 28.167 193.175 28.8864 193.177C29.5617 193.18 34.6341 193.52 36.1406 192.694C36.2621 192.318 36.3883 191.953 36.5118 191.615C36.8031 190.816 37.0399 190.271 37.2269 189.9C37.1128 189.897 35.6681 189.832 34.2247 188.635C32.7209 187.389 33.9984 186.404 33.9984 186.404L34.037 186.316H34.0374Z" fill="#BA9F8A"/>
<path fill-rule="evenodd" clip-rule="evenodd" d="M37.6164 189.262C37.4233 189.498 37.0669 190.096 36.5126 191.617C35.6086 194.097 34.5484 197.939 36.3888 197.807C38.2287 197.675 45.909 195.116 46.1731 191.968C46.4376 188.82 47.1616 186.818 47.631 184.369C48.1003 181.921 49.2711 180.41 49.3342 178.736C49.3926 177.189 48.1069 175.845 45.9005 174.518C46.9038 177.39 46.9463 178.626 46.4855 180.775C46.0146 182.973 45.5881 185.334 45.6539 187.475C45.7194 189.616 45.3996 191.826 41.2169 191.495C37.9946 191.24 37.6192 189.876 37.6168 189.262L37.6164 189.262Z" fill="#D4C1B5"/>
<path fill-rule="evenodd" clip-rule="evenodd" d="M48.9662 180.402C48.895 180.934 48.7832 181.592 48.6071 182.338C48.0868 184.547 48.2776 187.833 48.2589 188.63C48.1503 188.825 47.2969 188.802 47.2988 188.667L47.3448 185.708C47.4461 185.27 47.543 184.827 47.6311 184.368C47.9434 182.739 48.5658 181.525 48.9662 180.402V180.402Z" fill="#A68C7A"/>
<path fill-rule="evenodd" clip-rule="evenodd" d="M39.5363 178.165C39.5363 178.165 38.3098 185.805 38.168 187.748C38.0262 189.691 41.7533 177.613 39.5363 178.165Z" fill="#EDE4D3"/>
<path fill-rule="evenodd" clip-rule="evenodd" d="M29.7074 111.311C29.7074 111.311 29.8173 114.176 30.4541 118.592C31.0909 123.008 31.5158 124.156 31.4508 123.787C31.3857 123.419 30.902 111.681 30.902 111.681C30.902 111.681 30.4517 111.18 29.707 111.311H29.7074Z" fill="#EAD6BA"/>
<path fill-rule="evenodd" clip-rule="evenodd" d="M36.6842 113.482L38.3337 114.276C38.3337 114.276 35.9691 118.52 33.176 124.562C30.383 130.604 30.0527 131.288 30.0527 131.288C30.0527 131.288 31.89 126.254 36.6846 113.483L36.6842 113.482Z" fill="#EDE4D3"/>
<path fill-rule="evenodd" clip-rule="evenodd" d="M35.9748 112.572L35.5615 113.745C39.7111 114.09 47.1309 117.727 48.5817 120.405C48.875 119.879 49.1383 119.393 49.3631 118.961C48.9023 118.695 46.7149 117.407 44.2358 116.165C42.1248 115.106 39.7832 114.107 38.3129 113.488C35.1156 112.141 36.7012 112.834 35.9752 112.572H35.9748Z" fill="#D2B58D"/>
<path fill-rule="evenodd" clip-rule="evenodd" d="M28.4284 89.8363C28.4284 89.8363 26.0852 99.4403 26.4619 104.453C26.8381 109.466 26.8448 108.124 27.45 110.11C28.0553 112.096 28.3232 112.999 28.3232 112.999C28.3232 112.999 29.0641 114.101 29.0391 113.793C29.0142 113.486 28.6426 106.002 28.6426 106.002C28.6426 106.002 29.0555 107.236 29.4921 108.097C29.9283 108.958 30.141 109.146 30.4121 109.014C30.6832 108.881 30.3914 107.401 30.0596 106.408C29.7277 105.414 29.8687 104.045 29.4917 102.731C29.1143 101.417 28.541 100.645 28.541 100.645C28.5445 96.4389 28.3162 94.5055 28.4288 89.8359L28.4284 89.8363Z" fill="#EAD6BA"/>
<path fill-rule="evenodd" clip-rule="evenodd" d="M56.0433 92.6055C56.5422 94.9642 56.6996 97.5099 56.2264 100.139C54.7845 108.155 48.5604 117.967 48.5604 117.967C48.5604 117.967 48.1865 117.746 47.5166 117.374C48.7976 115.362 51.0574 111.359 53.6187 104.777C55.7231 99.3689 56.1278 95.2665 56.0437 92.6055H56.0433Z" fill="#B99E8A"/>
<path fill-rule="evenodd" clip-rule="evenodd" d="M49.1492 75.2168C49.8347 76.6096 50.4244 77.8638 51.6342 79.8973L51.7806 80.1434C50.7656 80.7522 49.8016 81.7622 47.3926 86.9498C44.9832 92.137 44.7889 95.2365 45.1246 98.1892C45.4604 101.142 45.5975 101.029 45.319 104.083C45.0405 107.136 44.3067 111.344 43.7427 112.159C43.1784 112.973 42.7893 112.962 42.7893 112.962C42.7893 112.962 42.5602 114.585 42.0905 115.176L41.8085 115.044C41.7034 113.862 41.1986 108.245 41.0611 107.732C40.9076 107.158 40.5185 110.326 40.5185 110.326C40.5185 110.326 40.5068 110.735 40.5213 112.773C40.5275 113.634 40.5193 114.143 40.5076 114.445C40.0554 114.241 39.5927 114.036 39.121 113.832L38.8675 107.588C38.8675 107.588 38.6241 110.146 38.1952 111.751C38.0001 112.482 37.7259 112.904 37.4852 113.147L37.3115 113.078C37.2145 112.858 37.1658 112.616 37.1802 112.349C37.2936 110.257 37.01 104.781 42.577 91.0028C47.2551 79.4244 46.2806 75.63 49.1492 75.2168V75.2168Z" fill="#A38976"/>
<path d="M31.8965 93.7289C31.9 93.7367 33.0716 96.3782 39.8833 98.326L39.7743 98.6626C32.7923 96.666 32.0725 94.1632 32.069 94.155L31.8965 93.7285V93.7289ZM31.9187 100.185C31.9308 100.192 36.096 102.705 40.1657 101.666L40.2647 102.006C36.0313 103.086 32.4721 100.811 32.4597 100.804L31.9187 100.186V100.185Z" fill="#B99E8A"/>
<path fill-rule="evenodd" clip-rule="evenodd" d="M35.2562 34.6436C35.2562 34.6436 36.1147 36.5151 36.5521 38.7589C36.5867 38.9354 36.6179 39.104 36.6456 39.2645C37.6056 39.5332 39.0647 39.5644 40.6838 38.2744C42.4264 36.8859 43.9753 35.1273 44.9175 33.9678C44.8739 31.8194 45.21 29.8965 45.21 29.8965C45.21 29.8965 39.1106 34.7589 35.2559 34.6436H35.2562Z" fill="#D2B58D"/>
<path fill-rule="evenodd" clip-rule="evenodd" d="M35.2562 34.6436C35.2562 34.6436 35.6021 35.3972 35.9663 36.5213C37.541 37.8397 39.3778 36.7939 41.2789 35.6991C43.1804 34.6042 44.7909 33.2184 44.9467 32.3915C45.0239 30.9613 45.21 29.8965 45.21 29.8965C45.21 29.8965 39.1106 34.7589 35.2559 34.6436H35.2562Z" fill="#C2A67E"/>
<path fill-rule="evenodd" clip-rule="evenodd" d="M43.8154 15.7357C46.832 18.1532 47.5635 21.2641 46.7078 24.845C45.8517 28.4256 45.4817 30.1464 45.1093 31.1715C44.737 32.1966 44.4417 33.0492 42.2388 34.4514C40.0358 35.8531 38.1854 36.7645 36.71 36.1959C35.2346 35.6272 33.8589 34.7836 33.1637 33.0465C32.4681 31.3094 31.915 29.7697 31.5777 28.2998C31.2404 26.8302 31.6295 26.5007 31.619 24.9334C31.6085 23.3665 31.4418 23.2941 31.337 21.8156C31.2755 20.9462 30.9109 19.0607 32.5997 16.7826C35.3635 13.0532 40.2501 12.8776 43.8162 15.736L43.8154 15.7357Z" fill="#EAD6BA"/>
<path fill-rule="evenodd" clip-rule="evenodd" d="M46.8926 23.9326C47.117 23.8162 47.4141 23.7351 47.7288 23.8516C48.3863 24.095 48.8451 25.3683 48.0163 27.0053C47.1875 28.6423 46.7999 29.4345 46.6098 29.7041C46.4198 29.9736 45.8429 30.2416 45.5664 29.5775C45.862 28.5114 46.3948 26.1539 46.708 24.8452C47.0208 23.5365 46.8432 24.2333 46.8926 23.9326V23.9326Z" fill="#EAD6BA"/>
<path fill-rule="evenodd" clip-rule="evenodd" d="M45.6719 29.7986C45.6174 29.7374 45.5983 29.7102 45.5566 29.6105C45.8523 28.5444 46.4108 26.0844 46.7072 24.8447C47.0036 23.6049 46.7847 24.5062 46.8178 24.3383C46.988 24.2741 47.2042 24.2277 47.4651 24.2379C48.1997 24.2671 48.2422 25.6984 47.9777 26.3434C47.7132 26.9884 47.7132 26.9884 47.7132 26.9884C47.7132 26.9884 47.9722 26.1506 47.9115 25.4231C47.8507 24.6955 47.2279 24.7232 47.0624 24.905C46.8969 25.0869 46.6211 25.5831 46.7426 26.1783C46.8638 26.7734 46.7317 27.5123 46.4229 27.7105C46.1693 27.8733 45.693 29.1735 45.6711 29.7982L45.6719 29.7986Z" fill="#D2B58D"/>
<path fill-rule="evenodd" clip-rule="evenodd" d="M30.6673 45.143C30.2977 45.3143 29.976 45.4674 29.7388 45.5882C28.6821 46.1249 27.6838 47.4815 27.8614 50.0186C27.9717 51.591 28.2603 53.0122 28.464 53.8656C28.464 53.8656 27.8116 50.9514 28.5236 48.1833C28.9801 46.4088 29.9962 45.5387 30.6669 45.1426L30.6673 45.143Z" fill="#EDE4D3"/>
<path fill-rule="evenodd" clip-rule="evenodd" d="M37.0647 100.289C36.4614 100.945 36.0832 103.333 36.1342 105.454C36.1856 107.575 36.0068 109.516 36.0068 109.516C36.0068 109.516 37.1422 110.286 37.4456 107.794C37.5761 106.723 37.2594 104.916 37.0853 103.898C36.8544 102.548 37.0643 100.289 37.0643 100.289H37.0647Z" fill="#D2B58D"/>
<path fill-rule="evenodd" clip-rule="evenodd" d="M52.7903 40.6562C53.7492 40.8444 54.9048 41.1739 55.6775 41.7363C57.216 42.8561 57.8801 43.799 57.1958 48.2108C56.6053 52.0196 55.334 58.186 54.1192 62.7079C53.4641 65.1461 52.8101 67.8048 52.4615 69.7604C52.1129 71.716 51.8738 75.1946 49.8956 80.4819C47.9174 85.7692 46.6184 87.8183 45.5621 90.921C44.5058 94.0236 44.4844 94.0408 44.4513 94.588C44.4178 95.1352 44.5553 95.4628 44.375 96.1362C44.1942 96.8096 44.3964 97.3522 44.5479 98.1545C44.699 98.9569 45.2272 100.347 44.8953 102.936C44.5639 105.526 44.4264 106.685 44.3278 107.593C44.2293 108.501 44.1942 110.61 43.8873 111.648C43.5804 112.686 43.0484 112.515 42.9487 111.579C42.8493 110.642 42.8906 108.712 42.8373 107.508C42.7839 106.304 42.8073 105.779 42.8073 105.779C42.8073 105.779 42.3352 109.307 42.3893 110.488C42.4435 111.67 42.3979 115.142 41.7919 115.073C41.1858 115.004 40.8559 110.488 40.8322 109.65C40.8084 108.811 40.9732 106.767 40.9732 106.767C40.9732 106.767 40.7258 106.58 40.6316 107.154C40.5373 107.729 40.158 110.651 40.158 110.651C40.158 110.651 40.1837 113.635 40.0773 114.596C39.9714 115.556 39.7054 115.943 39.3147 115.912C38.9241 115.88 38.8158 115.447 38.6791 113.789C38.5424 112.131 38.5809 110.765 38.6234 110.147C38.6662 109.528 38.7445 106.901 38.7445 106.901C38.7445 106.901 38.4497 106.581 38.3905 107.078C38.3317 107.575 38.1521 109.357 38.1521 109.357C38.1521 109.357 37.9659 111.516 37.7065 112.355C37.4471 113.194 36.8676 113.441 36.7682 112.721C36.6689 112.002 36.7324 109.772 36.7667 109.314C36.8014 108.857 36.8715 105.42 36.7386 104.339C36.6062 103.259 36.5708 101.372 36.9085 100.582C38.482 96.8934 38.6109 95.8285 39.786 92.2292C40.4423 90.2183 42.0112 86.748 42.979 81.4221C44.3177 74.0584 46.863 69.4547 46.8634 69.2669C46.8638 68.9772 47.6003 49.5163 47.7542 47.4485C47.9863 44.3248 50.7232 41.045 52.7895 40.6562H52.7903Z" fill="#EAD6BA"/>
<path fill-rule="evenodd" clip-rule="evenodd" d="M29.2832 54.9698C29.9325 55.4917 31.4398 56.127 34.8805 55.8648C39.3601 55.5236 42.9656 53.9232 44.1971 53.3145C43.2109 54.0066 37.415 56.6543 33.7105 56.5157C29.8706 56.3723 29.2832 54.9694 29.2832 54.9694V54.9698Z" fill="#E0D0C4"/>
<path fill-rule="evenodd" clip-rule="evenodd" d="M31.1494 52.4105C31.1494 52.4105 32.1142 52.9909 32.6727 54.2162C32.8266 54.5539 32.92 54.8542 32.9753 55.112C33.1459 55.1152 33.3228 55.1163 33.5054 55.1155C33.2515 54.1566 32.6365 52.8499 31.1498 52.4102L31.1494 52.4105Z" fill="#EDE4D3"/>
<path fill-rule="evenodd" clip-rule="evenodd" d="M39.5901 52.1328C39.5901 52.1328 38.5965 52.4541 37.6559 53.1595C37.0074 53.6456 36.4473 54.474 36.1377 54.9959C36.3913 54.9679 36.6409 54.9364 36.8879 54.9013C37.3147 54.1134 38.1767 52.8483 39.5901 52.1328Z" fill="#EDE4D3"/>
<path fill-rule="evenodd" clip-rule="evenodd" d="M34.5508 55.3861C34.3229 54.5658 33.8894 53.617 33.0762 52.748C33.0762 52.748 33.6211 53.9418 33.6312 55.4188C33.9198 55.4157 34.2263 55.4051 34.5508 55.3861Z" fill="#D2B58D"/>
<path fill-rule="evenodd" clip-rule="evenodd" d="M36.0094 25.3255C36.2283 26.4321 35.9879 26.9879 35.9747 26.4862C35.9595 25.9133 35.6643 25.1483 35.6113 25.0723C35.0247 24.2268 34.7548 24.3724 34.7548 24.3724C34.5398 24.1041 35.7574 24.0499 36.0094 25.3255Z" fill="#D2B58D"/>
<path fill-rule="evenodd" clip-rule="evenodd" d="M38.8944 24.123C38.8944 24.123 37.8778 24.2469 37.664 25.304C37.4502 26.3611 37.4903 26.5172 37.4903 26.5172C37.4903 26.5172 37.9888 24.6224 38.8944 24.123V24.123Z" fill="#D2B58D"/>
<path d="M36.6067 28.0254C36.755 28.0409 36.8832 27.9822 36.8931 27.8945C36.903 27.8067 36.7908 27.723 36.6425 27.7076C36.4942 27.6922 36.366 27.7508 36.3561 27.8386C36.3463 27.9264 36.4585 28.01 36.6067 28.0254Z" fill="#EDE4D3"/>
<path fill-rule="evenodd" clip-rule="evenodd" d="M38.1939 28.0898C38.1939 28.0898 38.4023 28.2764 38.234 28.7991C38.0658 29.3218 37.709 29.1664 37.709 29.1664C37.709 29.1664 38.0685 29.5317 38.3489 29.076C38.6293 28.6199 38.3684 28.2079 38.1943 28.0898H38.1939Z" fill="#D2B58D"/>
<path fill-rule="evenodd" clip-rule="evenodd" d="M35.6101 28.2773C35.6101 28.2773 35.4648 28.4324 35.5007 28.8086C35.5365 29.1849 35.7951 29.3866 35.8983 29.3726C36.0016 29.3586 35.6495 29.4992 35.4644 29.0851C35.2794 28.6707 35.6101 28.2777 35.6101 28.2777V28.2773Z" fill="#D2B58D"/>
<path fill-rule="evenodd" clip-rule="evenodd" d="M35.9254 29.0428C35.9254 29.0428 35.8673 28.783 36.0761 28.8781C36.2853 28.9727 36.3223 29.1815 36.526 29.3186C36.7301 29.4561 36.9883 29.4144 37.0074 29.2157C37.0265 29.0171 37.0681 28.7756 37.2952 28.8274C37.5223 28.8792 37.6929 29.1499 37.6929 29.1499C37.6929 29.1499 37.4942 28.933 37.2866 28.9517C37.0787 28.97 37.0529 29.1071 36.9937 29.2734C36.9345 29.4401 36.6506 29.4853 36.3733 29.2216C36.0956 28.9579 35.9721 29.0124 35.925 29.0428H35.9254Z" fill="#C2A67E"/>
<path fill-rule="evenodd" clip-rule="evenodd" d="M34.926 31.9251C34.7441 31.733 34.7562 31.7249 34.6471 31.756C34.5384 31.7872 34.3822 31.5496 34.6362 31.6322C34.8897 31.7151 35.0167 31.7502 35.2586 31.6641C35.5005 31.578 36.1139 31.0242 37.1133 31.0394C38.1128 31.0549 39.0074 31.5258 39.4822 31.483C39.957 31.4398 39.9987 31.2076 40.0583 31.2851C40.1179 31.3626 39.9547 31.4507 39.8433 31.4791C39.7319 31.5075 39.4557 31.6248 39.1344 32.1701C38.5852 33.1025 37.8717 33.4312 37.0004 33.3821C36.1852 33.3362 35.6617 32.7255 34.9256 31.9251H34.926Z" fill="#BE7B63"/>
<path fill-rule="evenodd" clip-rule="evenodd" d="M35.3998 31.9516C36.4654 32.0961 37.8279 32.0066 38.8074 31.8438C38.8074 31.8438 38.111 32.3287 37.0337 32.3649C35.9568 32.4011 35.3994 31.9516 35.3994 31.9516H35.3998Z" fill="white"/>
<path fill-rule="evenodd" clip-rule="evenodd" d="M36.3377 32.4953C36.3377 32.4953 36.9555 32.7072 37.7714 32.5081C38.5874 32.3095 38.9504 32.0544 38.8725 32.1798C38.7946 32.3052 38.1383 33.0748 37.158 33.053C36.1776 33.0316 36.0047 32.3613 36.3373 32.4953H36.3377Z" fill="#C88B72"/>
<path fill-rule="evenodd" clip-rule="evenodd" d="M32.0899 24.0948C32.0899 24.0948 32.4736 23.8381 33.2288 23.7879C33.984 23.7376 35.4181 23.8506 35.4181 23.8506C35.4181 23.8506 35.533 23.8054 35.4875 23.5752C35.4415 23.345 35.3457 23.28 35.0773 23.2457C34.809 23.2114 33.1264 23.0011 32.6878 23.4027C32.2492 23.8046 32.1776 23.8989 32.1297 23.9534C32.1297 23.9534 31.8707 24.2155 32.0903 24.0948H32.0899Z" fill="#413024"/>
<path fill-rule="evenodd" clip-rule="evenodd" d="M42.9404 23.6202C42.9404 23.6202 42.0629 23.392 41.3077 23.436C40.5521 23.4796 38.7421 23.7316 38.7421 23.7316C38.7421 23.7316 38.6226 23.7008 38.6393 23.4671C38.6561 23.233 38.7433 23.1563 39.0054 23.0889C39.2672 23.0216 41.2574 22.7435 41.7969 22.9865C42.3359 23.2291 42.8547 23.4422 42.9883 23.5256C43.1075 23.5999 43.1807 23.6724 42.9408 23.6202H42.9404Z" fill="#413024"/>
<path fill-rule="evenodd" clip-rule="evenodd" d="M32.3037 25.3448C32.3037 25.3448 33.0624 25.8862 33.614 26.01C34.1655 26.1339 35.161 25.9956 35.161 25.9956C35.161 25.9956 35.2023 26.0505 35.2814 26.0369C35.3604 26.0229 35.0835 25.457 34.0946 25.1758C33.1053 24.8945 32.3941 25.2798 32.3041 25.3448H32.3037Z" fill="white"/>
<path fill-rule="evenodd" clip-rule="evenodd" d="M32.3037 25.3448C32.3037 25.3448 32.3547 25.3814 32.44 25.4371C32.7267 25.3499 33.5415 25.152 34.3263 25.4278C34.754 25.5777 35.0196 25.8161 35.1918 26.0217C35.212 26.0338 35.242 26.0439 35.2814 26.0369C35.3604 26.0229 35.0835 25.457 34.0942 25.1758C33.1053 24.8945 32.3941 25.2798 32.3037 25.3448V25.3448Z" fill="#ADA89F"/>
<path fill-rule="evenodd" clip-rule="evenodd" d="M34.6446 25.3921C34.4927 25.3122 34.3104 25.2371 34.0943 25.1755C33.9353 25.1303 33.7838 25.1027 33.6409 25.0879C33.5895 25.1619 33.5552 25.2491 33.5451 25.3453C33.5131 25.648 33.7328 25.9194 34.0358 25.9514C34.3385 25.9833 34.6099 25.7637 34.6419 25.4606C34.6442 25.4377 34.6454 25.4147 34.645 25.3921H34.6446Z" fill="#625D54"/>
<path d="M34.0685 25.6345C34.1971 25.648 34.3122 25.5548 34.3258 25.4262C34.3393 25.2977 34.246 25.1825 34.1175 25.169C33.989 25.1555 33.8738 25.2487 33.8603 25.3773C33.8468 25.5058 33.94 25.621 34.0685 25.6345Z" fill="#402F24"/>
<path d="M33.5412 25.6206C33.6205 25.6235 33.6872 25.5616 33.6901 25.4823C33.693 25.403 33.6311 25.3363 33.5518 25.3334C33.4725 25.3305 33.4058 25.3924 33.4029 25.4717C33.4 25.551 33.4619 25.6176 33.5412 25.6206Z" fill="white"/>
<path fill-rule="evenodd" clip-rule="evenodd" d="M39.0462 25.8484C39.0462 25.8484 38.9721 25.8948 38.9679 25.9454C38.9636 25.9961 39.1131 25.9672 39.1131 25.9672C39.1131 25.9672 40.5348 26.1768 41.1634 25.9458C41.792 25.7148 42.7058 25.1715 42.7058 25.1715C42.7058 25.1715 40.6797 24.3863 39.0462 25.8484Z" fill="white"/>
<path fill-rule="evenodd" clip-rule="evenodd" d="M39.0462 25.85C39.0462 25.85 38.9721 25.8964 38.9679 25.947C38.9636 25.9976 39.1131 25.9688 39.1131 25.9688L39.1342 25.9719C39.3001 25.8364 39.7601 25.5065 40.5504 25.2701C41.1599 25.0874 41.9108 25.2241 42.4117 25.3417C42.5897 25.2424 42.7058 25.1735 42.7058 25.1735C42.7058 25.1735 40.6797 24.3883 39.0462 25.8504V25.85Z" fill="#ADA89F"/>
<path fill-rule="evenodd" clip-rule="evenodd" d="M41.1848 24.9688C40.8639 24.9871 40.5141 25.0474 40.1581 25.1775C40.1472 25.2184 40.141 25.2613 40.1391 25.3057C40.1274 25.6282 40.379 25.8992 40.7015 25.9109C41.024 25.9226 41.2951 25.671 41.3067 25.3485C41.3118 25.2059 41.2655 25.0735 41.1844 24.9688H41.1848Z" fill="#625D54"/>
<path d="M40.7141 25.5751C40.851 25.5801 40.966 25.4732 40.971 25.3363C40.9761 25.1994 40.8691 25.0844 40.7322 25.0794C40.5953 25.0744 40.4803 25.1813 40.4753 25.3182C40.4703 25.4551 40.5772 25.5701 40.7141 25.5751Z" fill="#402F24"/>
<path d="M40.2298 25.644C40.3091 25.6415 40.3714 25.5752 40.3689 25.4959C40.3664 25.4166 40.3001 25.3543 40.2208 25.3568C40.1414 25.3593 40.0792 25.4256 40.0817 25.5049C40.0842 25.5842 40.1505 25.6465 40.2298 25.644Z" fill="white"/>
<path fill-rule="evenodd" clip-rule="evenodd" d="M32.3037 25.3452C32.3037 25.3452 33.0624 25.8866 33.614 26.0104C34.1651 26.1343 35.161 25.996 35.161 25.996C35.161 25.996 35.2023 26.051 35.2814 26.0373C35.3016 26.0338 35.2985 25.9933 35.2654 25.931C35.0251 25.9228 34.5187 26.1592 33.8001 25.9929C32.9179 25.7888 32.3684 25.3066 32.3684 25.3066C32.3372 25.3234 32.3154 25.337 32.3037 25.3452V25.3452Z" fill="#ADA89F"/>
<path fill-rule="evenodd" clip-rule="evenodd" d="M39.0462 25.8495C39.0462 25.8495 38.9721 25.8958 38.9679 25.9464C38.9636 25.9971 39.1131 25.9683 39.1131 25.9683C39.1131 25.9683 40.5348 26.1778 41.163 25.9468C41.7913 25.7159 42.7054 25.1725 42.7054 25.1725C42.7054 25.1725 42.6587 25.1546 42.5738 25.1289C42.2178 25.3622 41.5116 25.8845 40.7619 25.9916C40.0148 26.0983 39.2997 25.918 39.0516 25.8444L39.0458 25.8495H39.0462Z" fill="#ADA89F"/>
<path fill-rule="evenodd" clip-rule="evenodd" d="M31.8115 25.0558C31.8115 25.0558 31.8766 25.1485 32.0483 25.2525C32.2201 25.3565 32.3381 25.3685 32.3381 25.3685C32.3381 25.3685 32.876 25.0262 33.8147 25.1948C34.7533 25.3635 35.1674 25.7693 35.1674 25.7693C35.1674 25.7693 34.6513 25.062 33.5572 24.9767C32.4631 24.8918 32.1103 25.2334 31.8115 25.0554V25.0558Z" fill="#402F24"/>
<path fill-rule="evenodd" clip-rule="evenodd" d="M38.9971 25.8899C38.9971 25.8899 39.7231 25.0602 40.7689 24.8215C41.8146 24.5827 42.7794 24.8312 42.911 24.8585C43.0423 24.8854 43.3812 24.8203 43.41 24.7884C43.4388 24.7564 43.378 24.8678 43.1171 25.0112C42.8561 25.1545 42.6602 25.1471 42.6976 25.1771C42.7346 25.2071 40.6547 24.5566 38.9975 25.8902L38.9971 25.8899Z" fill="#402F24"/>
</svg>
