<svg width="85" height="212" viewBox="0 0 85 212" fill="none" xmlns="http://www.w3.org/2000/svg">
<path fill-rule="evenodd" clip-rule="evenodd" d="M34.7147 34.3126C35.6447 36.2533 37.0609 41.6212 35.2894 42.462C33.7871 43.1752 30.5931 44.7102 29.297 45.3403C28.0009 45.9704 26.7759 47.5633 26.9941 50.5429C27.2123 53.5224 28.0009 56.0398 28.0009 56.0398C28.0009 56.0398 47.7176 60.9858 50.6751 58.6451C53.6327 56.3045 57.331 41.2282 53.4773 40.6918C53.2868 40.6654 51.7933 40.4616 51.6165 40.4409C48.2157 40.0384 47.2567 40.5547 46.0165 37.8147C44.7117 34.9314 45.6235 29.9414 45.6235 29.9414C45.6235 29.9414 38.7431 34.429 34.7159 34.3139L34.7147 34.3126Z" fill="#EAD6BA"/>
<path fill-rule="evenodd" clip-rule="evenodd" d="M48.5155 48.6523C48.5155 48.6523 47.4753 53.5266 45.9472 55.6245C44.4191 57.7224 47.9438 60.3938 48.3627 57.1923C48.7815 53.9907 48.5155 48.6523 48.5155 48.6523V48.6523Z" fill="#D2B58D"/>
<path fill-rule="evenodd" clip-rule="evenodd" d="M28.5675 110.944C28.5675 110.944 28.5241 113.951 29.9391 121.733C30.2063 123.205 30.5063 124.954 30.817 126.822C32.54 121.947 35.1731 114.788 35.9736 112.617C31.4615 111.058 28.9272 110.951 28.5675 110.943V110.944ZM33.8996 148.366C35.1121 156.135 37.2804 170.874 37.0873 174.512C36.8943 178.151 33.7047 186.131 33.7047 186.131C33.7047 186.131 32.574 187.435 34.1449 188.682C35.7164 189.928 37.2892 189.947 37.2892 189.947L37.691 189.402C37.6747 189.165 37.7206 189.008 37.7206 189.008C37.7206 189.008 37.7206 189.008 38.4249 183.422C38.7375 180.946 39.1425 178.613 39.2418 176.188C39.367 173.142 39.1035 169.951 38.6136 166.145C37.7338 159.308 35.5756 152.926 33.899 148.366L33.8996 148.366ZM45.7197 151.69C45.7826 149.695 45.587 147.28 45.1638 144.398C44.7406 141.516 42.9339 138.143 42.9339 138.143C42.9339 138.143 43.5602 133.499 44.1092 128.243C41.1844 132.8 38.391 136.981 38.391 136.981C38.391 136.981 41.3787 140.364 43.2816 143.889C45.1846 147.415 45.4172 149.934 45.7197 151.69Z" fill="#D2B58D"/>
<path fill-rule="evenodd" clip-rule="evenodd" d="M29.0606 54.5082C29.7391 55.0302 31.3138 55.6653 34.909 55.4031C39.611 55.0604 43.3923 53.4467 44.662 52.8443C46.8561 43.439 50.4569 40.9418 52.0819 40.2834C52.9535 39.93 53.3063 40.2167 53.4516 40.5444C53.4371 40.5456 48.1515 41.0707 45.3694 53.2706C45.7864 54.3082 46.7347 56.452 48.2653 58.7694C50.4098 62.0149 48.8143 73.4017 48.8143 73.4017C48.8143 73.4017 50.5072 77.0076 52.7994 80.6953C55.0916 84.3829 60.0974 92.1814 58.5642 101.893C57.0317 111.604 51.0562 119.7 51.0562 119.7C51.0562 119.7 44.8833 116.139 38.4155 113.531C31.9477 110.923 28.5222 110.942 28.5222 110.942C28.5222 110.942 27.6129 90.9438 27.4268 84.6715C27.1991 77.0145 27.4368 74.0444 27.4664 70.853C27.4758 69.7965 26.5394 66.549 26.464 66.0183C26.464 66.0183 22.4066 61.4716 27.906 54.1932C27.9431 54.129 27.9821 54.0636 28.0229 53.997C29.2951 51.9242 32.0395 48.7277 31.4043 44.3729C31.3678 43.8805 32.125 43.7962 32.1432 44.1182C32.713 48.7938 30.5183 52.1167 29.1863 54.2919C29.1417 54.3649 29.0989 54.4365 29.0587 54.507L29.0606 54.5082Z" fill="#D5C1B5"/>
<path fill-rule="evenodd" clip-rule="evenodd" d="M35.9734 112.616C34.9112 115.496 30.6262 127.148 29.5168 130.609C28.2478 134.569 28.1944 135.41 29.6753 139.471C31.1557 143.534 37.3977 156.69 38.6146 166.142C39.8314 175.594 39.1302 177.834 38.4253 183.419C37.721 189.005 37.721 189.005 37.721 189.005C37.721 189.005 37.0789 191.205 41.4495 191.537C45.8201 191.868 46.154 189.658 46.0861 187.517C46.0175 185.376 46.4628 183.015 46.9552 180.817C47.4469 178.619 47.3903 177.377 46.2728 174.366C45.1554 171.355 45.5666 167.717 45.7251 161.521C45.883 155.325 46.8074 149.407 43.8995 144.019C40.991 138.632 39.8465 137.42 39.8465 137.42C39.8465 137.42 48.3613 124.718 51.1817 119.526C50.2906 119.033 41.7576 114.878 38.4165 113.531C35.076 112.184 36.7324 112.877 35.974 112.615L35.9734 112.616Z" fill="#EAD6BA"/>
<path fill-rule="evenodd" clip-rule="evenodd" d="M33.719 186.074C32.9002 186.653 31.7532 187.873 29.6176 190.283C27.4826 192.692 27.8146 193.221 28.5667 193.223C29.2723 193.226 34.5724 193.566 36.1464 192.74C36.2734 192.363 36.4055 191.999 36.5344 191.661C36.8388 190.862 37.0859 190.317 37.2815 189.946C37.1626 189.943 35.6842 189.903 34.1447 188.681C32.6047 187.46 33.6788 186.162 33.6788 186.162L33.719 186.074Z" fill="#BA9F8A"/>
<path fill-rule="evenodd" clip-rule="evenodd" d="M37.6879 189.305C37.486 189.541 36.7842 189.724 36.0221 191.725C35.2599 193.725 34.482 197.983 36.4044 197.85C38.3268 197.718 46.3517 195.16 46.6278 192.011C46.9039 188.863 47.6604 186.861 48.1509 184.412C48.6414 181.963 49.8645 180.453 49.9306 178.779C49.9916 177.232 48.6483 175.888 46.3429 174.561C47.3912 177.433 47.4353 178.668 46.9542 180.818C46.4618 183.016 46.0165 185.378 46.0851 187.518C46.1536 189.659 45.8197 191.869 41.4485 191.538C38.0816 191.283 37.6892 189.919 37.6873 189.305H37.6879Z" fill="#D4C1B5"/>
<path fill-rule="evenodd" clip-rule="evenodd" d="M49.5466 180.447C49.4724 180.979 49.3555 181.637 49.1718 182.382C48.6279 184.591 48.8279 187.877 48.8077 188.675C48.6945 188.87 47.8022 188.847 47.8047 188.711L47.8525 185.752C47.9581 185.314 48.0594 184.871 48.1512 184.412C48.4776 182.783 49.1278 181.57 49.546 180.447H49.5466Z" fill="#A68C7A"/>
<path fill-rule="evenodd" clip-rule="evenodd" d="M39.6943 178.21C39.6943 178.21 38.4126 185.85 38.2649 187.793C38.1171 189.736 42.011 177.658 39.6943 178.21Z" fill="#EDE4D3"/>
<path fill-rule="evenodd" clip-rule="evenodd" d="M29.4238 111.356C29.4238 111.356 29.5389 114.221 30.2042 118.637C30.8696 123.053 31.3136 124.201 31.2456 123.832C31.1777 123.463 30.6727 111.726 30.6727 111.726C30.6727 111.726 30.2024 111.225 29.4245 111.356H29.4238Z" fill="#EAD6BA"/>
<path fill-rule="evenodd" clip-rule="evenodd" d="M36.7136 113.527L38.4367 114.321C38.4367 114.321 35.9659 118.565 33.0473 124.607C30.1288 130.648 29.7842 131.333 29.7842 131.333C29.7842 131.333 31.7041 126.299 36.7136 113.527V113.527Z" fill="#EDE4D3"/>
<path fill-rule="evenodd" clip-rule="evenodd" d="M35.974 112.617L35.542 113.789C39.878 114.135 48.8493 118.293 50.3649 120.972C50.6711 120.445 50.9466 119.96 51.1811 119.528C50.6994 119.261 47.1948 117.452 44.6051 116.209C42.3991 115.151 39.9528 114.152 38.4165 113.533C35.076 112.186 36.7324 112.879 35.974 112.617V112.617Z" fill="#D2B58D"/>
<path fill-rule="evenodd" clip-rule="evenodd" d="M27.4974 90.0762C27.4974 90.0762 25.6391 99.4846 26.0321 104.498C26.4252 109.511 26.4321 108.169 27.0647 110.154C27.6974 112.14 27.9772 113.044 27.9772 113.044C27.9772 113.044 28.7513 114.146 28.7249 113.838C28.6991 113.531 28.3105 106.047 28.3105 106.047C28.3105 106.047 28.7419 107.281 29.1978 108.142C29.6537 109.003 29.8757 109.191 30.1587 109.058C30.4423 108.926 30.1373 107.446 29.7908 106.452C29.4443 105.459 29.5915 104.09 29.1972 102.776C28.8029 101.462 28.2036 100.69 28.2036 100.69C27.903 99.7424 27.6804 93.7286 27.4967 90.0762H27.4974Z" fill="#EAD6BA"/>
<path fill-rule="evenodd" clip-rule="evenodd" d="M56.9413 92.651C57.4626 95.0099 57.6268 97.5555 57.1325 100.184C55.6257 108.2 49.1227 118.012 49.1227 118.012C49.1227 118.012 48.7321 117.792 48.0322 117.419C49.3704 115.406 51.7318 111.404 54.4082 104.822C56.6074 99.4138 57.03 95.3117 56.9419 92.6504L56.9413 92.651Z" fill="#B99E8A"/>
<path fill-rule="evenodd" clip-rule="evenodd" d="M49.7383 75.2617C50.4545 76.6546 51.2004 78.1218 52.4644 80.1555L52.6889 80.5177C51.628 81.1265 50.4193 81.8075 47.9026 86.995C45.3853 92.1825 45.1822 95.2815 45.5331 98.2346C45.884 101.188 46.0274 101.074 45.7362 104.128C45.4457 107.181 44.6784 111.39 44.0892 112.204C43.4993 113.018 43.0931 113.007 43.0931 113.007C43.0931 113.007 42.8535 114.63 42.363 115.221L42.068 115.089C41.958 113.907 41.4304 108.291 41.287 107.777C41.1266 107.203 40.7198 110.372 40.7198 110.372C40.7198 110.372 40.7072 110.78 40.7229 112.819C40.7292 113.679 40.721 114.189 40.7084 114.491C40.2362 114.286 39.7526 114.082 39.2596 113.878L38.9948 107.634C38.9948 107.634 38.7401 110.191 38.2924 111.796C38.088 112.527 37.8019 112.949 37.5503 113.192L37.3692 113.123C37.2679 112.903 37.217 112.661 37.2321 112.393C37.3503 110.302 37.0541 104.826 42.8711 91.0474C47.7592 79.4688 46.7411 75.6749 49.7383 75.2617V75.2617Z" fill="#A38976"/>
<path d="M31.7119 93.7741C31.7157 93.7816 32.9401 96.4235 40.0569 98.371L39.9431 98.7075C32.6483 96.7108 31.8962 94.208 31.8924 94.1998L31.7119 93.7734V93.7741ZM31.7352 100.231C31.7478 100.237 36.1001 102.75 40.3525 101.712L40.4556 102.051C36.0328 103.132 32.3137 100.856 32.3005 100.849L31.7352 100.231V100.231Z" fill="#B99E8A"/>
<path fill-rule="evenodd" clip-rule="evenodd" d="M34.5641 34.688C34.5641 34.688 35.5181 36.5595 36.0036 38.8033C36.0419 38.98 36.0765 39.1479 36.1073 39.3089C37.1739 39.5774 38.7951 39.6089 40.5936 38.3191C42.5299 36.9306 44.2505 35.1716 45.2975 34.0127C45.2491 31.8645 45.6226 29.9414 45.6226 29.9414C45.6226 29.9414 38.846 34.8038 34.5635 34.6887L34.5641 34.688Z" fill="#D2B58D"/>
<path fill-rule="evenodd" clip-rule="evenodd" d="M34.5641 34.688C34.5641 34.688 34.9483 35.4414 35.3527 36.5658C37.1022 37.8839 39.1428 36.8381 41.2552 35.7433C43.3675 34.6484 45.1573 33.2624 45.3302 32.4361C45.4164 31.0061 45.6226 29.9414 45.6226 29.9414C45.6226 29.9414 38.846 34.8038 34.5635 34.6887L34.5641 34.688Z" fill="#C2A67E"/>
<path fill-rule="evenodd" clip-rule="evenodd" d="M43.9479 15.7808C47.0865 18.1988 47.8481 21.3092 46.9576 24.8899C46.0671 28.4706 45.6816 30.1912 45.2943 31.2162C44.9069 32.2413 44.6 33.094 42.3072 34.4957C40.015 35.8975 38.0894 36.8087 36.5543 36.2402C35.0193 35.6717 33.588 34.8278 32.8642 33.0909C32.1404 31.3539 31.565 29.8139 31.2141 28.3442C30.8632 26.8746 31.2681 26.545 31.2568 24.9779C31.2461 23.4108 31.0726 23.3385 30.9631 21.86C30.899 20.9909 30.5198 19.1056 32.2768 16.8273C35.1526 13.0981 40.2376 12.9227 43.9479 15.7808V15.7808Z" fill="#EAD6BA"/>
<path fill-rule="evenodd" clip-rule="evenodd" d="M47.0124 23.9765C47.2369 23.8601 47.506 23.7155 47.9922 23.8953C48.4783 24.0752 49.1084 25.4115 48.2795 27.0491C47.4507 28.686 47.0633 29.4784 46.8734 29.7481C46.6835 30.0173 45.9515 30.2864 45.6748 29.6224C45.9704 28.5564 46.5156 26.1976 46.8281 24.8889C47.1413 23.5803 46.9633 24.277 47.013 23.9765H47.0124Z" fill="#EAD6BA"/>
<path fill-rule="evenodd" clip-rule="evenodd" d="M45.9354 29.8432C45.8807 29.7822 45.8618 29.7546 45.8203 29.6552C46.1159 28.5893 46.6743 26.1292 46.9711 24.8897C47.2673 23.6496 47.0485 24.5514 47.0818 24.3835C47.2516 24.3193 47.4679 24.2728 47.7295 24.2835C48.464 24.313 48.5068 25.7443 48.2421 26.3889C47.9773 27.0341 47.9773 27.0341 47.9773 27.0341C47.9773 27.0341 48.2364 26.1965 48.1754 25.4689C48.115 24.7413 47.4918 24.769 47.3264 24.9507C47.161 25.1324 46.885 25.6286 47.0063 26.2241C47.1277 26.8197 46.9957 27.558 46.6869 27.7567C46.4334 27.9196 45.9568 29.22 45.9354 29.8445V29.8432Z" fill="#D2B58D"/>
<path fill-rule="evenodd" clip-rule="evenodd" d="M30.4279 45.1881C30.0418 45.3598 29.7053 45.5126 29.4576 45.6334C28.3533 46.1704 27.3106 47.5269 27.4962 50.0637C27.6112 51.6365 27.9131 53.0571 28.1256 53.9104C28.1256 53.9104 27.444 50.9963 28.1879 48.228C28.6652 46.4534 29.7267 45.5831 30.4279 45.1875V45.1881Z" fill="#EDE4D3"/>
<path fill-rule="evenodd" clip-rule="evenodd" d="M37.1108 100.335C36.4806 100.991 36.0851 103.378 36.1385 105.499C36.192 107.621 36.0059 109.562 36.0059 109.562C36.0059 109.562 37.1919 110.331 37.5095 107.839C37.6459 106.768 37.3151 104.962 37.1328 103.943C36.8913 102.593 37.1108 100.334 37.1108 100.334V100.335Z" fill="#D2B58D"/>
<path fill-rule="evenodd" clip-rule="evenodd" d="M53.5426 40.6998C54.5444 40.8879 55.7518 41.2174 56.5593 41.7802C58.1666 42.9002 59.103 44.4164 58.388 48.8279C57.7711 52.6363 56.7291 58.5828 55.46 63.1049C54.7758 65.543 54.0923 68.2018 53.7281 70.157C53.364 72.1127 52.9157 75.3262 50.8486 80.6137C48.7821 85.9011 47.0937 87.8619 45.99 90.9647C44.8864 94.0675 44.8643 94.0845 44.8291 94.6316C44.7945 95.1787 44.9379 95.5063 44.7493 96.1798C44.5606 96.8534 44.7719 97.3961 44.9297 98.1979C45.0882 99.0003 45.6397 100.389 45.2932 102.98C44.9467 105.57 44.8033 106.728 44.7002 107.636C44.5977 108.545 44.5606 110.653 44.2399 111.691C43.9192 112.729 43.3633 112.559 43.2595 111.622C43.1557 110.685 43.1991 108.755 43.1432 107.551C43.0872 106.347 43.1117 105.822 43.1117 105.822C43.1117 105.822 42.6187 109.35 42.6746 110.532C42.7312 111.713 42.6835 115.185 42.0502 115.116C41.4169 115.047 41.0723 110.532 41.0472 109.693C41.0226 108.854 41.1943 106.811 41.1943 106.811C41.1943 106.811 40.9359 106.623 40.8371 107.197C40.7384 107.772 40.3422 110.693 40.3422 110.693C40.3422 110.693 40.3692 113.678 40.2579 114.639C40.1473 115.6 39.8693 115.986 39.4612 115.955C39.053 115.923 38.9398 115.491 38.7971 113.833C38.6543 112.174 38.6946 110.809 38.7386 110.19C38.7833 109.571 38.865 106.944 38.865 106.944C38.865 106.944 38.5569 106.624 38.4952 107.121C38.4336 107.618 38.2462 109.4 38.2462 109.4C38.2462 109.4 38.0519 111.559 37.7809 112.398C37.5098 113.236 36.9042 113.484 36.8005 112.764C36.6967 112.044 36.7634 109.815 36.7992 109.357C36.835 108.899 36.9086 105.462 36.7703 104.382C36.6319 103.302 36.5948 101.416 36.9476 100.625C38.5921 96.9357 38.7267 95.8711 39.9542 92.2721C40.6403 90.261 42.2791 86.791 43.2903 81.4651C44.6889 74.1012 47.349 69.4973 47.349 69.3099C47.3496 69.02 48.1193 49.5592 48.2797 47.4915C48.5224 44.368 51.3819 41.0879 53.5407 40.6992L53.5426 40.6998Z" fill="#EAD6BA"/>
<path fill-rule="evenodd" clip-rule="evenodd" d="M28.9805 55.0145C29.659 55.5365 31.2337 56.1716 34.8289 55.91C39.5095 55.5692 43.2764 53.9687 44.5636 53.3594C43.5329 54.0518 37.4776 56.6993 33.6064 56.5609C29.5942 56.4175 28.9805 55.0145 28.9805 55.0145V55.0145Z" fill="#E0D0C4"/>
<path fill-rule="evenodd" clip-rule="evenodd" d="M30.9307 52.4551C30.9307 52.4551 31.9387 53.0355 32.5223 54.2612C32.6833 54.5989 32.7808 54.8988 32.8386 55.1573C33.0172 55.1604 33.2015 55.1617 33.392 55.1604C33.1266 54.2014 32.4846 52.8947 30.9307 52.4551V52.4551Z" fill="#EDE4D3"/>
<path fill-rule="evenodd" clip-rule="evenodd" d="M39.7507 52.1784C39.7507 52.1784 38.7124 52.4997 37.7295 53.2053C37.0523 53.6914 36.4668 54.5196 36.1436 55.0416C36.4083 55.0139 36.6693 54.9818 36.9271 54.9466C37.373 54.1586 38.2735 52.894 39.7507 52.1777V52.1784Z" fill="#EDE4D3"/>
<path fill-rule="evenodd" clip-rule="evenodd" d="M34.485 55.431C34.2467 54.611 33.7939 53.6621 32.9443 52.793C32.9443 52.793 33.5135 53.9872 33.5241 55.4637C33.826 55.4606 34.1461 55.4499 34.485 55.431Z" fill="#D2B58D"/>
<path fill-rule="evenodd" clip-rule="evenodd" d="M36.236 25.335C36.4548 26.4418 36.2146 26.9977 36.2014 26.4959C36.1863 25.923 35.8907 25.1583 35.8379 25.0822C35.2512 24.2364 34.9814 24.3823 34.9814 24.3823C34.7663 24.1138 35.9838 24.0597 36.236 25.3356V25.335Z" fill="#D2B58D"/>
<path fill-rule="evenodd" clip-rule="evenodd" d="M39.121 24.1328C39.121 24.1328 38.1048 24.2567 37.891 25.3138C37.6771 26.3709 37.7168 26.5269 37.7168 26.5269C37.7168 26.5269 38.2154 24.6321 39.121 24.1328V24.1328Z" fill="#D2B58D"/>
<path d="M36.8332 28.0354C36.9815 28.0508 37.1097 27.9921 37.1196 27.9043C37.1294 27.8165 37.0173 27.7328 36.869 27.7174C36.7208 27.702 36.5926 27.7606 36.5827 27.8485C36.5728 27.9363 36.685 28.02 36.8332 28.0354Z" fill="#EDE4D3"/>
<path fill-rule="evenodd" clip-rule="evenodd" d="M38.4204 28.0996C38.4204 28.0996 38.6286 28.2864 38.4606 28.809C38.2927 29.3315 37.9355 29.1762 37.9355 29.1762C37.9355 29.1762 38.2953 29.5416 38.5757 29.0857C38.8562 28.6297 38.5952 28.2178 38.421 28.0996H38.4204Z" fill="#D2B58D"/>
<path fill-rule="evenodd" clip-rule="evenodd" d="M35.8368 28.2871C35.8368 28.2871 35.6916 28.4418 35.7274 28.8185C35.7633 29.1946 36.0217 29.3964 36.1248 29.3826C36.228 29.3681 35.8764 29.509 35.6909 29.0952C35.506 28.6808 35.8368 28.2877 35.8368 28.2877V28.2871Z" fill="#D2B58D"/>
<path fill-rule="evenodd" clip-rule="evenodd" d="M36.1529 29.0528C36.1529 29.0528 36.095 28.7931 36.3038 28.8881C36.5126 28.983 36.5497 29.1912 36.7541 29.3289C36.9578 29.466 37.2163 29.4245 37.2358 29.2258C37.2553 29.027 37.2968 28.7856 37.5238 28.8371C37.7508 28.8893 37.9212 29.1597 37.9212 29.1597C37.9212 29.1597 37.7225 28.9428 37.515 28.9616C37.3068 28.9799 37.281 29.117 37.2219 29.2836C37.1628 29.4503 36.8792 29.4955 36.6012 29.2314C36.3239 28.9679 36.2 29.022 36.1529 29.0528V29.0528Z" fill="#C2A67E"/>
<path fill-rule="evenodd" clip-rule="evenodd" d="M35.1532 31.9346C34.9714 31.7428 34.9834 31.7346 34.8746 31.7654C34.7658 31.7962 34.6098 31.5592 34.8639 31.6415C35.1173 31.7246 35.2443 31.7591 35.4865 31.6736C35.7286 31.5875 36.3417 31.0334 37.341 31.0492C38.3402 31.0649 39.2351 31.5359 39.7099 31.4925C40.1847 31.4491 40.2262 31.2171 40.2859 31.2944C40.3457 31.3718 40.1822 31.4598 40.0709 31.4887C39.9595 31.517 39.6835 31.6346 39.3621 32.1798C38.8131 33.1124 38.0994 33.4413 37.2284 33.3917C36.4134 33.3458 35.8896 32.7351 35.1538 31.9346H35.1532Z" fill="#BE7B63"/>
<path fill-rule="evenodd" clip-rule="evenodd" d="M35.627 31.9611C36.6929 32.1057 38.055 32.0158 39.0348 31.8535C39.0348 31.8535 38.338 32.3384 37.2614 32.3742C36.1841 32.4101 35.6276 31.9611 35.6276 31.9611H35.627Z" fill="white"/>
<path fill-rule="evenodd" clip-rule="evenodd" d="M36.5639 32.5048C36.5639 32.5048 37.1815 32.7167 37.9977 32.518C38.814 32.3192 39.1768 32.0639 39.0989 32.1897C39.0209 32.3148 38.365 33.0846 37.3846 33.0632C36.4042 33.0418 36.2313 32.3714 36.5639 32.5054V32.5048Z" fill="#C88B72"/>
<path fill-rule="evenodd" clip-rule="evenodd" d="M32.3165 24.1043C32.3165 24.1043 32.7001 23.8477 33.4554 23.7974C34.2107 23.7471 35.6451 23.8603 35.6451 23.8603C35.6451 23.8603 35.7602 23.815 35.7143 23.5849C35.6684 23.3547 35.5721 23.2893 35.3043 23.2553C35.0364 23.2214 33.3535 23.0107 32.9146 23.4125C32.4756 23.8144 32.4046 23.9087 32.3562 23.9634C32.3562 23.9634 32.0971 24.2257 32.3172 24.1049L32.3165 24.1043Z" fill="#413024"/>
<path fill-rule="evenodd" clip-rule="evenodd" d="M43.1663 23.63C43.1663 23.63 42.2891 23.4017 41.5332 23.4457C40.7773 23.4891 38.9674 23.7413 38.9674 23.7413C38.9674 23.7413 38.848 23.7105 38.8649 23.4765C38.8819 23.2426 38.9687 23.1659 39.2309 23.0986C39.4925 23.0313 41.4829 22.7534 42.0224 22.9961C42.5614 23.2388 43.0802 23.452 43.2141 23.535C43.3336 23.6092 43.4066 23.6816 43.1663 23.63V23.63Z" fill="#413024"/>
<path fill-rule="evenodd" clip-rule="evenodd" d="M32.5303 25.3546C32.5303 25.3546 33.2893 25.896 33.8402 26.0199C34.3917 26.1438 35.3872 26.0054 35.3872 26.0054C35.3872 26.0054 35.4281 26.0602 35.5073 26.0463C35.5865 26.0325 35.3098 25.4665 34.3206 25.1854C33.3314 24.9043 32.6202 25.2898 32.5303 25.3546V25.3546Z" fill="white"/>
<path fill-rule="evenodd" clip-rule="evenodd" d="M32.5303 25.3546C32.5303 25.3546 32.5812 25.3911 32.6667 25.447C32.9535 25.3596 33.7685 25.1621 34.5533 25.4376C34.9809 25.5879 35.247 25.8262 35.4186 26.0312C35.4388 26.0432 35.4689 26.0532 35.5079 26.0463C35.5872 26.0325 35.3105 25.4665 34.3206 25.1854C33.3314 24.9043 32.6202 25.2898 32.5303 25.3546V25.3546Z" fill="#ADA89F"/>
<path fill-rule="evenodd" clip-rule="evenodd" d="M34.8709 25.4001C34.7194 25.3202 34.537 25.2454 34.3207 25.1837C34.1616 25.1385 34.01 25.1108 33.8672 25.0957C33.8157 25.1699 33.7817 25.2573 33.7717 25.3529C33.7396 25.656 33.9597 25.9271 34.2622 25.9585C34.5653 25.9906 34.8363 25.7711 34.8678 25.468C34.8703 25.4447 34.8715 25.4221 34.8709 25.3994V25.4001Z" fill="#625D54"/>
<path d="M34.2952 25.6446C34.4239 25.6581 34.5391 25.5648 34.5526 25.4362C34.5662 25.3076 34.4729 25.1923 34.3442 25.1788C34.2156 25.1653 34.1004 25.2586 34.0868 25.3872C34.0733 25.5158 34.1666 25.6311 34.2952 25.6446Z" fill="#402F24"/>
<path d="M33.7687 25.6282C33.848 25.6312 33.9146 25.5693 33.9175 25.49C33.9204 25.4108 33.8585 25.3441 33.7793 25.3412C33.7 25.3383 33.6334 25.4002 33.6305 25.4795C33.6275 25.5587 33.6894 25.6253 33.7687 25.6282Z" fill="white"/>
<path fill-rule="evenodd" clip-rule="evenodd" d="M39.2721 25.8578C39.2721 25.8578 39.1979 25.9044 39.1935 25.9547C39.1891 26.005 39.3387 25.9767 39.3387 25.9767C39.3387 25.9767 40.7606 26.1861 41.3888 25.9553C42.017 25.7245 42.9314 25.1812 42.9314 25.1812C42.9314 25.1812 40.9052 24.3963 39.2721 25.8578V25.8578Z" fill="white"/>
<path fill-rule="evenodd" clip-rule="evenodd" d="M39.2721 25.8578C39.2721 25.8578 39.1979 25.9044 39.1935 25.9547C39.1891 26.005 39.3387 25.9767 39.3387 25.9767L39.3595 25.9798C39.5255 25.8446 39.9852 25.5145 40.7757 25.278C41.385 25.0956 42.1365 25.2321 42.6371 25.3497C42.8151 25.2503 42.9314 25.1812 42.9314 25.1812C42.9314 25.1812 40.9052 24.3963 39.2721 25.8578Z" fill="#ADA89F"/>
<path fill-rule="evenodd" clip-rule="evenodd" d="M41.4118 24.9785C41.0911 24.9968 40.7414 25.0571 40.3855 25.1873C40.3748 25.2282 40.3679 25.2709 40.3666 25.3156C40.3547 25.6382 40.6068 25.9092 40.9294 25.9212C41.2521 25.9331 41.5231 25.681 41.535 25.359C41.5401 25.2162 41.4942 25.0842 41.413 24.9791L41.4118 24.9785Z" fill="#625D54"/>
<path d="M40.9408 25.5833C41.0778 25.5883 41.1929 25.4813 41.1979 25.3443C41.203 25.2073 41.096 25.0922 40.959 25.0872C40.822 25.0822 40.7069 25.1892 40.7019 25.3262C40.6969 25.4632 40.8038 25.5783 40.9408 25.5833Z" fill="#402F24"/>
<path d="M40.4563 25.6537C40.5356 25.6512 40.5978 25.5849 40.5953 25.5056C40.5928 25.4263 40.5265 25.3641 40.4473 25.3666C40.368 25.3691 40.3057 25.4354 40.3082 25.5146C40.3107 25.5939 40.377 25.6562 40.4563 25.6537Z" fill="white"/>
<path fill-rule="evenodd" clip-rule="evenodd" d="M32.5303 25.3528C32.5303 25.3528 33.2893 25.8943 33.8408 26.0181C34.3923 26.142 35.3878 26.0037 35.3878 26.0037C35.3878 26.0037 35.4287 26.0584 35.5079 26.0446C35.5281 26.0408 35.5249 26.0005 35.4922 25.9383C35.252 25.9301 34.7451 26.1666 34.027 26.0005C33.1447 25.7968 32.595 25.3145 32.595 25.3145C32.5636 25.3314 32.5422 25.3446 32.5303 25.3534V25.3528Z" fill="#ADA89F"/>
<path fill-rule="evenodd" clip-rule="evenodd" d="M39.2721 25.8587C39.2721 25.8587 39.1979 25.9053 39.1935 25.9556C39.1891 26.0059 39.3387 25.9776 39.3387 25.9776C39.3387 25.9776 40.7599 26.187 41.3888 25.9562C42.017 25.7254 42.9314 25.1821 42.9314 25.1821C42.9314 25.1821 42.8842 25.1638 42.8 25.1387C42.444 25.372 41.7378 25.8946 40.9882 26.0015C40.2411 26.1084 39.5261 25.9279 39.2777 25.8543L39.2721 25.8593V25.8587Z" fill="#ADA89F"/>
<path fill-rule="evenodd" clip-rule="evenodd" d="M32.0381 25.0644C32.0381 25.0644 32.1029 25.1569 32.2752 25.2613C32.4468 25.3657 32.5651 25.3776 32.5651 25.3776C32.5651 25.3776 33.1027 25.0349 34.0416 25.2041C34.9805 25.3726 35.3943 25.7788 35.3943 25.7788C35.3943 25.7788 34.878 25.0714 33.7838 24.9865C32.6896 24.9016 32.3368 25.243 32.0381 25.0651V25.0644Z" fill="#402F24"/>
<path fill-rule="evenodd" clip-rule="evenodd" d="M39.2233 25.8997C39.2233 25.8997 39.9496 25.0702 40.9948 24.8313C42.0406 24.5923 43.0053 24.8413 43.1367 24.8684C43.2681 24.8954 43.6071 24.8306 43.6354 24.7986C43.6643 24.7665 43.6033 24.8778 43.3423 25.0212C43.0813 25.1646 42.8858 25.157 42.9229 25.1872C42.96 25.2174 40.8803 24.5665 39.2227 25.9003L39.2233 25.8997Z" fill="#402F24"/>
</svg>
