<svg width="85" height="212" viewBox="0 0 85 212" fill="none" xmlns="http://www.w3.org/2000/svg">
<path fill-rule="evenodd" clip-rule="evenodd" d="M36.128 34.9238C36.128 34.9238 36.9296 36.791 37.3385 39.0317C37.7474 41.2724 37.3063 42.3991 35.7514 43.1493C34.1964 43.8994 31.9847 44.9296 30.8257 45.5606C29.6667 46.1916 27.954 47.4922 28.1472 50.4701C28.3436 53.4448 29.6667 56.2456 29.6667 56.2456C29.6667 56.2456 47.3057 61.1842 49.952 58.8469C52.5983 56.5096 55.9046 41.4559 52.4599 40.9182C52.2892 40.8925 50.9532 40.6864 50.7955 40.6671C49.9198 40.5673 46.8968 40.7798 45.7861 38.0433C44.6175 35.1652 45.4352 30.1816 45.4352 30.1816C45.4352 30.1816 39.7337 35.0364 36.1312 34.9206L36.128 34.9238Z" fill="#EAD6BA"/>
<path fill-rule="evenodd" clip-rule="evenodd" d="M48.0204 48.8672C48.0204 48.8672 47.09 53.7349 45.7217 55.8307C44.3535 57.9265 47.5085 60.5921 47.8819 57.3953C48.2554 54.1985 48.0204 48.8672 48.0204 48.8672V48.8672Z" fill="#D2B58D"/>
<path fill-rule="evenodd" clip-rule="evenodd" d="M29.847 111.068C29.847 111.068 29.6313 113.959 30.3847 118.579C31.138 123.199 31.9074 125.057 32.1843 126.924C33.7264 122.056 36.083 114.906 36.7977 112.739C32.7606 111.181 30.169 111.075 29.847 111.068ZM35.79 152.466C36.8749 160.225 38.3912 171.737 38.2528 174.593C38.0435 179.003 34.9497 186.466 34.9497 186.466C34.9497 186.466 33.7553 187.448 35.1622 188.694C36.5691 189.94 37.9759 189.956 37.9759 189.956L38.3365 189.412C38.3204 189.177 38.3623 189.019 38.3623 189.019C38.3623 189.019 38.3623 189.019 38.9933 183.44C39.6243 177.861 40.252 175.626 39.1639 166.187C38.6778 161.97 37.2934 157.015 35.7932 152.463L35.79 152.466ZM45.0618 150.283C45.1165 148.291 45.3322 146.823 44.8364 143.813C44.3406 140.802 43.0915 140.059 42.3414 137.28C41.5913 134.502 45.2614 129.445 45.1777 125.211C44.875 124.316 37.4834 134.225 38.4975 137C39.5116 139.779 41.6331 140.445 43.3362 143.964C45.0392 147.483 44.7913 148.526 45.0618 150.28V150.283Z" fill="#D2B58D"/>
<path fill-rule="evenodd" clip-rule="evenodd" d="M30.6165 54.7163C31.2249 55.2378 32.6318 55.872 35.8479 55.6113C40.0557 55.27 43.436 53.6571 44.5724 53.0551C46.5362 43.6642 49.7556 41.1692 51.2108 40.5124C51.9899 40.1583 52.3053 40.4448 52.4373 40.7732C52.4245 40.7732 47.6952 41.298 45.2066 53.48C45.5801 54.5167 46.4268 56.6576 47.7982 58.9723C49.717 62.2142 48.2908 73.585 48.2908 73.585C48.2908 73.585 49.8039 77.1843 51.8546 80.8672C53.9054 84.5502 58.2258 92.1157 56.8157 100.492C55.4056 108.869 49.3178 119.123 49.3178 119.123C49.3178 119.123 44.7752 116.261 38.99 113.656C33.2048 111.052 29.8535 111.071 29.8535 111.071C29.8535 111.071 29.7215 109.085 29.6732 106.377C29.5637 99.942 29.5863 88.6098 30.4587 84.3087C31.1573 80.8672 31.299 79.5473 31.3344 77.0748C31.3795 73.8458 30.3235 74.6603 29.9307 71.2767C29.4028 66.731 29.1645 66.0807 29.1645 66.0807C29.1645 66.0807 25.092 61.6283 30.0112 54.3589C30.0434 54.2946 30.0788 54.2302 30.1142 54.1626C31.2507 52.0925 33.2821 48.944 32.7155 44.5978C32.6833 44.1053 33.3594 44.0216 33.3755 44.3435C33.8841 49.0116 31.9235 52.3307 30.7291 54.5038C30.6905 54.5779 30.6519 54.6487 30.6165 54.7195V54.7163Z" fill="#D5C1B5"/>
<path fill-rule="evenodd" clip-rule="evenodd" d="M36.8009 112.739C33.823 116.1 32.0169 127.252 31.0253 130.707C29.8889 134.66 29.8438 135.5 31.167 139.557C31.7722 141.414 32.9859 145.48 34.5377 149.917C36.3759 155.174 38.5747 161.072 39.1639 166.19C40.252 175.63 39.6243 177.864 38.9933 183.443C38.3623 189.022 38.3623 189.022 38.3623 189.022C38.3623 189.022 37.7892 191.221 41.6975 191.549C45.6091 191.881 45.9052 189.672 45.8441 187.535C45.7829 185.397 46.1821 183.041 46.6199 180.845C47.061 178.649 47.0095 177.41 46.0083 174.403C45.007 171.396 45.2517 169.597 45.7378 162.105C46.224 154.617 47.5342 149.485 44.933 144.46C42.3317 139.431 39.9494 139.582 38.9578 137.068C37.9663 134.554 46.7358 126.953 49.1729 119.033C48.3745 118.541 44.1797 115.994 38.9804 113.654C38.2013 113.303 37.4737 113 36.7944 112.739H36.8009Z" fill="#EAD6BA"/>
<path fill-rule="evenodd" clip-rule="evenodd" d="M34.9884 186.379C34.2544 186.955 32.7155 188.275 31.1155 190.294C28.8973 193.088 29.5026 193.227 30.1754 193.23C30.8064 193.233 35.5485 193.571 36.9554 192.747C37.0681 192.37 37.1872 192.006 37.3031 191.668C37.5767 190.87 37.7957 190.326 37.9727 189.956C37.8665 189.952 36.5144 189.888 35.1654 188.694C33.7586 187.448 34.953 186.466 34.953 186.466L34.9884 186.379Z" fill="#BA9F8A"/>
<path fill-rule="evenodd" clip-rule="evenodd" d="M38.3333 189.318C38.153 189.553 37.8182 190.152 37.3031 191.668C36.4564 194.144 35.4681 197.981 37.1872 197.849C38.9063 197.717 46.0855 195.161 46.3334 192.019C46.5813 188.877 47.2574 186.878 47.6952 184.431C48.133 181.984 49.2276 180.477 49.2888 178.807C49.3435 177.261 48.1427 175.919 46.0791 174.596C47.0159 177.464 47.0578 178.697 46.6264 180.844C46.1853 183.04 45.7894 185.397 45.8505 187.534C45.9117 189.672 45.6123 191.88 41.704 191.549C38.6906 191.295 38.3397 189.933 38.3397 189.321L38.3333 189.318Z" fill="#D4C1B5"/>
<path fill-rule="evenodd" clip-rule="evenodd" d="M48.9411 180.475C48.8735 181.006 48.7705 181.663 48.6063 182.407C48.1202 184.612 48.2972 187.892 48.2811 188.691C48.1813 188.887 47.3829 188.861 47.3829 188.726L47.4248 185.771C47.5181 185.333 47.6115 184.892 47.692 184.431C47.985 182.806 48.5644 181.592 48.9411 180.472V180.475Z" fill="#A68C7A"/>
<path fill-rule="evenodd" clip-rule="evenodd" d="M40.1265 178.24C40.1265 178.24 38.9804 185.87 38.8484 187.808C38.7164 189.749 42.1997 177.686 40.1265 178.24Z" fill="#EDE4D3"/>
<path fill-rule="evenodd" clip-rule="evenodd" d="M30.9416 111.48C30.9416 111.48 31.0446 114.342 31.6402 118.75C32.2358 123.16 32.6318 124.306 32.5706 123.939C32.5095 123.572 32.0587 111.85 32.0587 111.85C32.0587 111.85 31.637 111.351 30.9416 111.48Z" fill="#EAD6BA"/>
<path fill-rule="evenodd" clip-rule="evenodd" d="M37.3546 113.959L39.0061 114.442C39.0061 114.442 36.7944 118.679 34.1835 124.712C31.5726 130.745 31.2636 131.428 31.2636 131.428C33.5686 125.488 34.4185 117.504 37.3546 113.956V113.959Z" fill="#EDE4D3"/>
<path fill-rule="evenodd" clip-rule="evenodd" d="M36.8009 112.739L36.0508 113.782C40.3486 114.062 47.3153 117.8 48.6707 120.475C48.8864 119.938 49.0377 119.465 49.1761 119.033C48.3777 118.541 44.1829 115.994 38.9836 113.654C38.2045 113.303 37.4769 113 36.7977 112.739H36.8009Z" fill="#D2B58D"/>
<path fill-rule="evenodd" clip-rule="evenodd" d="M29.9179 90.0615C29.9179 90.0615 27.4068 99.6295 27.6804 104.632C27.9541 109.639 27.9798 108.299 28.5174 110.282C29.0519 112.266 29.2901 113.167 29.2901 113.167C29.2901 113.167 29.9662 114.268 29.9468 113.959C29.9275 113.653 29.6957 106.178 29.6957 106.178C29.6957 106.178 30.0627 107.411 30.4587 108.27C30.8547 109.13 31.0479 109.317 31.3054 109.185C31.5597 109.053 31.3119 107.575 31.0157 106.583C30.7195 105.592 30.874 104.224 30.5424 102.913C30.2108 101.603 29.6861 100.83 29.6861 100.83C29.7537 96.629 29.744 94.7232 29.9211 90.0615H29.9179Z" fill="#EAD6BA"/>
<path fill-rule="evenodd" clip-rule="evenodd" d="M55.5569 92.8047C56.0237 95.1613 56.1718 97.7014 55.7275 100.328C54.3786 108.332 48.5612 118.131 48.5612 118.131C48.5612 118.131 48.2103 117.913 47.5858 117.539C48.7834 115.53 50.8953 111.532 53.2905 104.961C55.2575 99.5621 55.6374 95.4639 55.5569 92.8079V92.8047Z" fill="#B99E8A"/>
<path fill-rule="evenodd" clip-rule="evenodd" d="M49.115 75.4395C49.7556 76.8302 50.3061 78.0826 51.4361 80.114L51.5746 80.3586C50.6248 80.9671 49.7234 81.9748 47.4731 87.1547C45.2227 92.3347 45.0392 95.4285 45.3547 98.3774C45.6702 101.326 45.7958 101.214 45.535 104.262C45.2743 107.311 44.5885 111.512 44.0606 112.327C43.5326 113.141 43.1688 113.129 43.1688 113.129C43.1688 113.129 42.9531 114.748 42.5153 115.34L42.2513 115.208C42.1515 114.03 41.6814 108.419 41.5527 107.907C41.4078 107.334 41.044 110.498 41.044 110.498C41.044 110.498 41.0343 110.907 41.0472 112.942C41.0537 113.801 41.044 114.31 41.0343 114.613C40.6126 114.41 40.178 114.204 39.7369 114.001L39.4987 107.765C39.4987 107.765 39.2701 110.318 38.8709 111.921C38.6874 112.652 38.4331 113.074 38.2077 113.315L38.0468 113.248C37.9566 113.029 37.9116 112.787 37.9244 112.52C38.0307 110.431 37.7667 104.964 42.9692 91.2047C47.3411 79.6439 46.43 75.8547 49.1117 75.4427L49.115 75.4395Z" fill="#A38976"/>
<path d="M32.9859 93.9248C32.9891 93.9312 34.0837 96.5711 40.4516 98.5156L40.3486 98.8504C33.823 96.8576 33.1501 94.3562 33.1469 94.3498L32.9859 93.9248ZM33.0052 100.373C33.0181 100.38 36.9103 102.891 40.7156 101.851L40.809 102.189C36.8524 103.267 33.5236 100.995 33.5139 100.988L33.0085 100.37L33.0052 100.373Z" fill="#B99E8A"/>
<path fill-rule="evenodd" clip-rule="evenodd" d="M36.128 34.9238C36.128 34.9238 36.9296 36.791 37.3385 39.0317C37.3707 39.2087 37.3997 39.3762 37.4254 39.5371C38.3236 39.8043 39.6854 39.8365 41.1985 38.5488C42.8275 37.1612 44.2762 35.4067 45.1551 34.2477C45.1133 32.1036 45.4288 30.1816 45.4288 30.1816C45.4288 30.1816 39.7273 35.0364 36.1248 34.9206L36.128 34.9238Z" fill="#D2B58D"/>
<path fill-rule="evenodd" clip-rule="evenodd" d="M36.128 34.9238C36.128 34.9238 36.45 35.6771 36.7912 36.7974C38.8194 37.5637 40.1265 36.717 42.3124 35.3713C43.6774 34.531 44.5917 33.533 45.1841 32.6734C45.2549 31.244 45.4288 30.1816 45.4288 30.1816C45.4288 30.1816 39.7273 35.0364 36.1248 34.9206L36.128 34.9238Z" fill="#C2A67E"/>
<path fill-rule="evenodd" clip-rule="evenodd" d="M31.1316 45.7412C30.7871 45.9118 30.4845 46.0664 30.2623 46.1855C29.274 46.7199 28.3404 48.0753 28.5078 50.6089C28.6108 52.1799 28.8812 53.5997 29.0712 54.4496C29.0712 54.4496 28.4627 51.5393 29.1259 48.7771C29.5541 47.0064 30.5038 46.1372 31.1283 45.7412H31.1316Z" fill="#EDE4D3"/>
<path fill-rule="evenodd" clip-rule="evenodd" d="M37.8182 100.477C37.2548 101.133 36.9007 103.516 36.949 105.634C36.9973 107.752 36.8298 109.69 36.8298 109.69C36.8298 109.69 37.8922 110.46 38.1755 107.971C38.2979 106.902 38.0017 105.096 37.8375 104.079C37.6218 102.73 37.8182 100.477 37.8182 100.477V100.477Z" fill="#EAD6BA"/>
<path fill-rule="evenodd" clip-rule="evenodd" d="M52.5178 40.9277C53.4128 41.1145 54.4945 41.4461 55.2157 42.0062C56.6547 43.1233 57.8652 44.292 57.0732 48.3291C56.278 52.3629 55.7018 50.6406 55.6503 55.1477C55.5988 59.423 55.2028 60.6496 54.4205 63.1253C53.6382 65.5978 52.3601 68.5563 52.0349 70.5073C51.7098 72.4614 51.6615 75.4168 49.8103 80.6966C47.9624 85.9764 46.7487 88.0239 45.7604 91.1209C44.772 94.2179 44.7527 94.2372 44.7205 94.7813C44.6883 95.3286 44.8171 95.6538 44.6497 96.3266C44.4823 96.9995 44.669 97.5403 44.8107 98.3419C44.9523 99.1436 45.4449 100.531 45.1358 103.116C44.8268 105.701 44.698 106.86 44.6046 107.765C44.5113 108.673 44.4791 110.778 44.1925 111.815C43.906 112.852 43.407 112.681 43.3169 111.747C43.2235 110.811 43.2621 108.885 43.2139 107.681C43.1656 106.481 43.1849 105.956 43.1849 105.956C43.1849 105.956 42.7438 109.478 42.7953 110.659C42.8468 111.838 42.8018 115.305 42.2384 115.237C41.6718 115.17 41.3627 110.659 41.3402 109.822C41.3176 108.985 41.4722 106.944 41.4722 106.944C41.4722 106.944 41.2404 106.757 41.1535 107.33C41.0665 107.903 40.7092 110.82 40.7092 110.82C40.7092 110.82 40.7317 113.801 40.6351 114.761C40.5353 115.72 40.2874 116.106 39.9237 116.074C39.5599 116.042 39.4569 115.611 39.3281 113.956C39.1993 112.301 39.2347 110.936 39.2766 110.318C39.3152 109.7 39.3892 107.076 39.3892 107.076C39.3892 107.076 39.1124 106.757 39.0576 107.253C39.0029 107.749 38.8355 109.529 38.8355 109.529C38.8355 109.529 38.6617 111.683 38.4202 112.523C38.1788 113.36 37.6347 113.608 37.5445 112.89C37.4512 112.172 37.5124 109.945 37.5445 109.487C37.5767 109.03 37.6411 105.598 37.5188 104.52C37.3965 103.441 37.361 101.558 37.6765 100.769C39.1478 97.0864 39.2669 96.024 40.3647 92.428C40.9796 90.4191 42.3382 85.5224 42.776 79.631C43.3233 72.2522 46.4976 69.461 46.5395 69.2807C47.09 66.8501 46.2755 64.281 46.4847 58.6214C46.6586 53.9823 48.587 53.1871 47.8143 47.7142C48.03 44.5946 50.5894 41.3205 52.521 40.931L52.5178 40.9277Z" fill="#EAD6BA"/>
<path fill-rule="evenodd" clip-rule="evenodd" d="M30.5456 55.2218C31.1541 55.7434 32.561 56.3776 35.7771 56.1168C39.9655 55.7756 43.333 54.1788 44.4855 53.5703C43.5648 54.2625 38.1466 56.9056 34.6825 56.7671C31.0929 56.6255 30.5456 55.2218 30.5456 55.2218V55.2218Z" fill="#E0D0C4"/>
<path fill-rule="evenodd" clip-rule="evenodd" d="M32.2873 52.666C32.2873 52.666 33.1887 53.2455 33.7103 54.4689C33.8552 54.8069 33.9421 55.1063 33.9936 55.3638C34.1546 55.3671 34.3187 55.3671 34.4894 55.3671C34.2511 54.4109 33.6781 53.1038 32.2873 52.666V52.666Z" fill="#EDE4D3"/>
<path fill-rule="evenodd" clip-rule="evenodd" d="M40.178 52.3887C40.178 52.3887 39.2476 52.7106 38.3687 53.4124C37.7635 53.8986 37.2387 54.7259 36.949 55.2475C37.1872 55.2185 37.419 55.1863 37.6508 55.1541C38.05 54.3686 38.8548 53.1034 40.178 52.3887Z" fill="#EDE4D3"/>
<path fill-rule="evenodd" clip-rule="evenodd" d="M35.4681 55.6374C35.2556 54.8196 34.8499 53.8699 34.0902 53.0039C34.0902 53.0039 34.5988 54.1951 34.6085 55.6695C34.8789 55.6663 35.1654 55.6567 35.4681 55.6374Z" fill="#D2B58D"/>
<path fill-rule="evenodd" clip-rule="evenodd" d="M44.4243 15.7941C47.4409 18.2119 48.1717 21.3218 47.3153 24.905C46.7809 27.1456 46.4493 28.4688 46.1628 29.5215C45.3998 32.2966 45.5092 32.7763 42.8758 34.4504C40.6738 35.8508 38.8065 36.8231 37.3192 36.2565C33.9388 34.9655 33.5944 31.9425 32.3066 28.4205C31.7658 26.946 32.239 26.5597 32.2294 24.9919C32.2197 23.424 32.0523 23.3532 31.9461 21.8755C31.8849 21.0063 31.5211 19.1198 33.208 16.8437C35.9735 13.1156 40.8573 12.9386 44.4243 15.7974V15.7941Z" fill="#EAD6BA"/>
<path fill-rule="evenodd" clip-rule="evenodd" d="M47.502 23.9904C47.7274 23.8745 48.0236 23.7941 48.3391 23.91C48.9958 24.1546 49.4562 25.4263 48.6256 27.0649C47.7982 28.7004 47.4151 29.4859 47.2187 29.7628C47.0352 30.0235 46.4107 30.2811 46.1338 29.6179C46.43 28.5523 46.7616 27.213 47.3153 24.9047C47.3894 24.5957 47.4505 24.2931 47.4988 23.9937L47.502 23.9904Z" fill="#EAD6BA"/>
<path fill-rule="evenodd" clip-rule="evenodd" d="M46.2819 29.8561C46.2272 29.7949 46.1789 29.7144 46.137 29.6146C46.4332 28.549 46.7648 27.2098 47.3185 24.9015C47.3604 24.7308 47.3958 24.5634 47.428 24.396C47.5986 24.3316 47.8143 24.2866 48.0751 24.2962C48.8091 24.3252 48.851 25.7578 48.587 26.4017C48.323 27.0456 48.323 27.0456 48.323 27.0456C48.323 27.0456 48.5805 26.2085 48.5226 25.481C48.4614 24.7534 47.8401 24.7824 47.6727 24.9626C47.5085 25.1461 47.2316 25.6419 47.3539 26.2375C47.4763 26.8331 47.3443 27.5703 47.0352 27.7699C46.7809 27.9341 46.3044 29.2315 46.2851 29.8593L46.2819 29.8561Z" fill="#D2B58D"/>
<path fill-rule="evenodd" clip-rule="evenodd" d="M36.6495 25.384C36.8685 26.4915 36.627 27.0452 36.6141 26.5462C36.598 25.9732 36.3051 25.207 36.2503 25.1329C35.6644 24.2862 35.394 24.4343 35.394 24.4343C35.1783 24.1671 36.3952 24.1124 36.6495 25.3872V25.384Z" fill="#D2B58D"/>
<path fill-rule="evenodd" clip-rule="evenodd" d="M39.5341 24.1807C39.5341 24.1807 38.5168 24.303 38.3043 25.3622C38.0918 26.4181 38.1305 26.5759 38.1305 26.5759C38.1305 26.5759 38.6295 24.6797 39.5341 24.1807Z" fill="#D2B58D"/>
<path d="M37.2463 28.0827C37.3941 28.0981 37.5219 28.0394 37.5318 27.9518C37.5416 27.8641 37.4298 27.7805 37.282 27.7651C37.1342 27.7498 37.0064 27.8084 36.9965 27.8961C36.9866 27.9838 37.0985 28.0673 37.2463 28.0827Z" fill="#EDE4D3"/>
<path fill-rule="evenodd" clip-rule="evenodd" d="M38.8323 28.1475C38.8323 28.1475 39.0415 28.3342 38.8709 28.8557C38.7035 29.3773 38.3462 29.2227 38.3462 29.2227C38.3462 29.2227 38.7067 29.5897 38.9868 29.1326C39.2669 28.6754 39.0061 28.2634 38.8323 28.1475Z" fill="#D2B58D"/>
<path fill-rule="evenodd" clip-rule="evenodd" d="M36.2503 28.334C36.2503 28.334 36.1055 28.4885 36.1409 28.8652C36.1763 29.2418 36.4338 29.4447 36.5401 29.4286C36.6431 29.4157 36.2922 29.5541 36.1055 29.142C35.9188 28.7267 36.2503 28.334 36.2503 28.334Z" fill="#D2B58D"/>
<path fill-rule="evenodd" clip-rule="evenodd" d="M36.5658 29.0997C36.5658 29.0997 36.5079 28.8389 36.7172 28.9355C36.9264 29.0289 36.9618 29.2381 37.1679 29.3766C37.3707 29.515 37.6315 29.4731 37.6508 29.2735C37.6701 29.0739 37.7119 28.8325 37.9373 28.884C38.1659 28.9355 38.3365 29.2059 38.3365 29.2059C38.3365 29.2059 38.1369 28.9902 37.9309 29.0063C37.7216 29.0256 37.6958 29.1609 37.6379 29.3283C37.58 29.4957 37.2934 29.5407 37.0166 29.2768C36.7397 29.0128 36.6141 29.0675 36.5691 29.0997H36.5658Z" fill="#C2A67E"/>
<path fill-rule="evenodd" clip-rule="evenodd" d="M35.5646 31.9814C35.3811 31.7882 35.394 31.7818 35.2845 31.8107C35.1751 31.8429 35.0206 31.6047 35.2749 31.6884C35.5292 31.7721 35.6548 31.8075 35.8962 31.7206C36.1377 31.6337 36.7526 31.08 37.7506 31.096C38.7486 31.1121 39.6436 31.5822 40.12 31.5403C40.5965 31.4985 40.6351 31.2635 40.6963 31.3439C40.7542 31.4212 40.5933 31.5081 40.4806 31.5371C40.3679 31.5661 40.0943 31.682 39.7723 32.2293C39.2218 33.1629 38.5103 33.4913 37.6379 33.443C36.8234 33.3979 36.2986 32.7862 35.5646 31.9846V31.9814Z" fill="#BE7B63"/>
<path fill-rule="evenodd" clip-rule="evenodd" d="M36.0411 32.0096C37.1067 32.1544 38.4685 32.0643 39.4504 31.9033C39.4504 31.9033 38.755 32.3894 37.6765 32.4249C36.598 32.4603 36.0411 32.0128 36.0411 32.0128V32.0096Z" fill="white"/>
<path fill-rule="evenodd" clip-rule="evenodd" d="M36.9779 32.554C36.9779 32.554 37.596 32.7665 38.4105 32.5669C39.225 32.3673 39.5888 32.113 39.5116 32.2385C39.4343 32.3641 38.7776 33.1335 37.7956 33.111C36.8137 33.0884 36.6431 32.4188 36.9747 32.554H36.9779Z" fill="#C88B72"/>
<path fill-rule="evenodd" clip-rule="evenodd" d="M32.7284 24.1516C32.7284 24.1516 33.1115 23.894 33.868 23.8458C34.6246 23.7942 36.0572 23.9069 36.0572 23.9069C36.0572 23.9069 36.1731 23.8619 36.1248 23.6301C36.0797 23.4015 35.9831 23.3339 35.7159 23.3017C35.4487 23.2663 33.765 23.057 33.3272 23.4594C32.8893 23.8619 32.8185 23.9552 32.7702 24.0099C32.7702 24.0099 32.5127 24.2707 32.7316 24.1516H32.7284Z" fill="#413024"/>
<path fill-rule="evenodd" clip-rule="evenodd" d="M43.5776 23.6782C43.5776 23.6782 42.6987 23.4497 41.9454 23.4947C41.1889 23.5398 39.3796 23.7909 39.3796 23.7909C39.3796 23.7909 39.2605 23.7587 39.2766 23.5269C39.2926 23.2919 39.3796 23.2147 39.6436 23.1503C39.9043 23.0827 41.8971 22.8058 42.4347 23.0472C42.9724 23.2887 43.4939 23.5044 43.6259 23.5849C43.745 23.6589 43.8191 23.733 43.5776 23.6782V23.6782Z" fill="#413024"/>
<path fill-rule="evenodd" clip-rule="evenodd" d="M32.9441 25.4002C32.9441 25.4002 33.7038 25.941 34.2543 26.0666C34.8049 26.1922 35.8029 26.0537 35.8029 26.0537C35.8029 26.0537 35.8447 26.1084 35.922 26.0956C36.0025 26.0827 35.7256 25.5161 34.734 25.236C33.7457 24.9559 33.0342 25.339 32.9441 25.4034V25.4002Z" fill="white"/>
<path fill-rule="evenodd" clip-rule="evenodd" d="M32.9441 25.4005C32.9441 25.4005 32.9956 25.4359 33.0793 25.4938C33.3658 25.4069 34.1803 25.2073 34.9658 25.4842C35.394 25.6355 35.658 25.8737 35.8318 26.0765C35.8512 26.0894 35.8833 26.0991 35.922 26.0926C36.0025 26.0798 35.7256 25.5132 34.734 25.2331C33.7457 24.953 33.0342 25.3361 32.9441 25.4005Z" fill="#ADA89F"/>
<path fill-rule="evenodd" clip-rule="evenodd" d="M35.2845 25.4491C35.1332 25.3686 34.9497 25.2946 34.734 25.2334C34.5763 25.1883 34.425 25.1594 34.2801 25.1465C34.2286 25.2205 34.1932 25.3075 34.1835 25.404C34.1513 25.7067 34.3702 25.9771 34.6729 26.0093C34.9755 26.0415 35.2459 25.8226 35.2781 25.5199C35.2813 25.4974 35.2813 25.4749 35.2813 25.4523L35.2845 25.4491Z" fill="#625D54"/>
<path d="M34.7083 25.6916C34.8367 25.7051 34.9517 25.6119 34.9652 25.4835C34.9787 25.3551 34.8856 25.2401 34.7572 25.2266C34.6288 25.2131 34.5138 25.3062 34.5003 25.4346C34.4868 25.563 34.5799 25.6781 34.7083 25.6916Z" fill="#402F24"/>
<path d="M34.1808 25.6771C34.2601 25.68 34.3267 25.6181 34.3296 25.5389C34.3325 25.4596 34.2706 25.393 34.1914 25.39C34.1121 25.3871 34.0455 25.449 34.0426 25.5283C34.0396 25.6076 34.1015 25.6742 34.1808 25.6771Z" fill="white"/>
<path fill-rule="evenodd" clip-rule="evenodd" d="M39.6854 25.9064C39.6854 25.9064 39.6114 25.9515 39.6081 26.003C39.6049 26.0545 39.753 26.0255 39.753 26.0255C39.753 26.0255 41.176 26.2348 41.8038 26.003C42.4315 25.7712 43.3458 25.2303 43.3458 25.2303C43.3458 25.2303 41.3208 24.4448 39.6854 25.9064V25.9064Z" fill="white"/>
<path fill-rule="evenodd" clip-rule="evenodd" d="M39.6854 25.9064C39.6854 25.9064 39.6114 25.9515 39.6081 26.003C39.6049 26.0545 39.753 26.0255 39.753 26.0255L39.7756 26.0287C39.943 25.8935 40.4001 25.5619 41.1921 25.3269C41.8005 25.1434 42.5539 25.2819 43.0529 25.3978C43.2299 25.298 43.3458 25.2303 43.3458 25.2303C43.3458 25.2303 41.3208 24.4448 39.6854 25.9064V25.9064Z" fill="#ADA89F"/>
<path fill-rule="evenodd" clip-rule="evenodd" d="M41.8231 25.0244C41.5011 25.0437 41.1534 25.1017 40.7961 25.2337C40.7864 25.2755 40.78 25.3174 40.7768 25.3624C40.7639 25.6844 41.0182 25.9548 41.3402 25.9677C41.6621 25.9806 41.9325 25.7262 41.9454 25.4043C41.9518 25.2626 41.9036 25.1307 41.8231 25.0244Z" fill="#625D54"/>
<path d="M41.3533 25.6312C41.4901 25.6362 41.605 25.5294 41.61 25.3927C41.615 25.2559 41.5082 25.141 41.3714 25.136C41.2347 25.131 41.1198 25.2378 41.1148 25.3745C41.1098 25.5113 41.2166 25.6262 41.3533 25.6312Z" fill="#402F24"/>
<path d="M40.8685 25.7016C40.9478 25.6991 41.0101 25.6328 41.0076 25.5535C41.0051 25.4742 40.9388 25.4119 40.8595 25.4144C40.7802 25.4169 40.718 25.4832 40.7205 25.5625C40.723 25.6418 40.7893 25.704 40.8685 25.7016Z" fill="white"/>
<path fill-rule="evenodd" clip-rule="evenodd" d="M32.9441 25.4006C32.9441 25.4006 33.7038 25.9415 34.2543 26.0671C34.8049 26.1894 35.8029 26.0542 35.8029 26.0542C35.8029 26.0542 35.8447 26.1089 35.922 26.096C35.9413 26.0928 35.9381 26.051 35.9059 25.9898C35.6644 25.9834 35.159 26.2184 34.4411 26.051C33.559 25.8481 33.0084 25.3652 33.0084 25.3652C32.9763 25.3813 32.9569 25.3942 32.9441 25.4039V25.4006Z" fill="#ADA89F"/>
<path fill-rule="evenodd" clip-rule="evenodd" d="M39.6854 25.9057C39.6854 25.9057 39.6114 25.9508 39.6081 26.0023C39.6049 26.0538 39.753 26.0248 39.753 26.0248C39.753 26.0248 41.176 26.2341 41.8038 26.0023C42.4315 25.7705 43.3458 25.2296 43.3458 25.2296C43.3458 25.2296 43.2975 25.2103 43.2138 25.1846C42.8565 25.4164 42.1514 25.9411 41.4013 26.0474C40.6544 26.1536 39.9397 25.9733 39.6918 25.8993L39.6854 25.9057Z" fill="#ADA89F"/>
<path fill-rule="evenodd" clip-rule="evenodd" d="M32.4515 25.1105C32.4515 25.1105 32.5159 25.2039 32.6897 25.3069C32.8604 25.4099 32.9795 25.4228 32.9795 25.4228C32.9795 25.4228 33.5171 25.0816 34.4572 25.249C35.3972 25.4164 35.8093 25.822 35.8093 25.822C35.8093 25.822 35.2942 25.1138 34.1996 25.0301C33.105 24.9464 32.7541 25.2876 32.4547 25.1073L32.4515 25.1105Z" fill="#402F24"/>
<path fill-rule="evenodd" clip-rule="evenodd" d="M39.6371 25.9478C39.6371 25.9478 40.3647 25.1172 41.4078 24.8789C42.4541 24.6407 43.4199 24.8886 43.5486 24.9144C43.6806 24.9401 44.0187 24.8757 44.0477 24.8435C44.0766 24.8113 44.0155 24.924 43.7547 25.0657C43.4939 25.2073 43.2975 25.2009 43.3362 25.2331C43.3748 25.262 41.2919 24.6117 39.6371 25.9478V25.9478Z" fill="#402F24"/>
</svg>
