<svg width="85" height="212" viewBox="0 0 85 212" fill="none" xmlns="http://www.w3.org/2000/svg">
<g clip-path="url(#clip0)">
<path fill-rule="evenodd" clip-rule="evenodd" d="M32.2988 22.6074H44.3595V27.0172H32.2988V22.6074Z" fill="#EAD6BA"/>
<path fill-rule="evenodd" clip-rule="evenodd" d="M36.656 25.3705C36.8748 26.4771 36.6344 27.033 36.6212 26.5313C36.6061 25.9582 36.3106 25.1933 36.258 25.1175C35.6713 24.2719 35.4013 24.4174 35.4013 24.4174C35.1863 24.149 36.4037 24.0949 36.656 25.3705Z" fill="#D2B58D"/>
<path fill-rule="evenodd" clip-rule="evenodd" d="M39.5409 24.168C39.5409 24.168 38.5245 24.2917 38.3106 25.3489C38.0967 26.4059 38.1368 26.562 38.1368 26.562C38.1368 26.562 38.6353 24.6671 39.5409 24.168Z" fill="#D2B58D"/>
<path fill-rule="evenodd" clip-rule="evenodd" d="M32.7357 24.1401C32.7357 24.1401 33.1193 23.8834 33.8745 23.8331C34.6297 23.7826 36.064 23.8958 36.064 23.8958C36.064 23.8958 36.179 23.8506 36.1332 23.6203C36.0875 23.3901 35.9913 23.3249 35.7232 23.2906C35.4549 23.2565 33.7722 23.0459 33.3335 23.4478C32.8949 23.8495 32.8234 23.9442 32.7752 23.9987C32.7752 23.9987 32.5161 24.2608 32.7359 24.1401H32.7357Z" fill="#413024"/>
<path fill-rule="evenodd" clip-rule="evenodd" d="M43.5861 23.6651C43.5861 23.6651 42.7086 23.4369 41.9533 23.4806C41.1976 23.5242 39.3878 23.7765 39.3878 23.7765C39.3878 23.7765 39.268 23.7459 39.2848 23.5119C39.3017 23.2778 39.3888 23.2012 39.6508 23.1339C39.9127 23.0667 41.903 22.7884 42.4422 23.0312C42.9814 23.274 43.5 23.487 43.6337 23.5704C43.753 23.6448 43.8262 23.7172 43.5861 23.6651Z" fill="#413024"/>
<path fill-rule="evenodd" clip-rule="evenodd" d="M32.9502 25.3897C32.9502 25.3897 33.709 25.931 34.2606 26.055C34.8118 26.1788 35.8077 26.0406 35.8077 26.0406C35.8077 26.0406 35.8488 26.0955 35.928 26.0817C36.007 26.0677 35.7303 25.5017 34.7411 25.2206C33.7519 24.9395 33.0408 25.3248 32.9505 25.3897H32.9502Z" fill="white"/>
<path fill-rule="evenodd" clip-rule="evenodd" d="M32.9502 25.3895C32.9502 25.3895 33.0012 25.426 33.0864 25.482C33.3732 25.3948 34.188 25.197 34.9729 25.4725C35.4004 25.6226 35.6662 25.8609 35.8383 26.0663C35.8584 26.0782 35.8884 26.0885 35.9278 26.0817C36.0069 26.0677 35.7302 25.5017 34.7409 25.2206C33.7518 24.9395 33.0407 25.3248 32.9503 25.3897L32.9502 25.3895Z" fill="#ADA89F"/>
<path fill-rule="evenodd" clip-rule="evenodd" d="M35.2912 25.4372C35.1394 25.3573 34.9571 25.2824 34.7408 25.2207C34.5822 25.1756 34.4303 25.1477 34.2874 25.1328C34.2358 25.2069 34.2018 25.2943 34.1915 25.3904C34.1598 25.6932 34.3794 25.9645 34.6823 25.9963C34.9851 26.0282 35.2564 25.8084 35.2883 25.5057C35.2907 25.4826 35.2916 25.4599 35.2912 25.4372Z" fill="#293D45"/>
<path fill-rule="evenodd" clip-rule="evenodd" d="M34.7646 25.2142C34.8931 25.2277 34.9863 25.3429 34.9729 25.4717C34.9594 25.6003 34.8441 25.6935 34.7154 25.6799C34.5868 25.6664 34.4936 25.5512 34.5072 25.4225C34.5207 25.294 34.6359 25.2008 34.7644 25.2142H34.7646Z" fill="#081A1C"/>
<path fill-rule="evenodd" clip-rule="evenodd" d="M34.1988 25.3771C34.2781 25.3799 34.34 25.4466 34.3371 25.5259C34.3343 25.6053 34.2676 25.6671 34.1882 25.6643C34.1089 25.6613 34.047 25.5947 34.0499 25.5154C34.0528 25.4361 34.1194 25.374 34.1988 25.3771Z" fill="white"/>
<path fill-rule="evenodd" clip-rule="evenodd" d="M39.6926 25.8932C39.6926 25.8932 39.6186 25.9396 39.6143 25.9901C39.6103 26.0407 39.7598 26.012 39.7598 26.012C39.7598 26.012 41.1812 26.2217 41.8098 25.9906C42.4383 25.7595 43.3522 25.2164 43.3522 25.2164C43.3522 25.2164 41.326 24.4312 39.6926 25.8933V25.8932Z" fill="white"/>
<path fill-rule="evenodd" clip-rule="evenodd" d="M39.6926 25.8932C39.6926 25.8932 39.6186 25.9396 39.6143 25.9901C39.6103 26.0407 39.7598 26.012 39.7598 26.012L39.7808 26.015C39.9469 25.8795 40.4069 25.5494 41.1969 25.3131C41.8065 25.1306 42.5575 25.2671 43.0582 25.3847C43.2361 25.2854 43.3523 25.2164 43.3523 25.2164C43.3523 25.2164 41.3262 24.4312 39.6928 25.8933L39.6926 25.8932Z" fill="#ADA89F"/>
<path fill-rule="evenodd" clip-rule="evenodd" d="M41.8311 25.0137C41.5105 25.0322 41.1607 25.0921 40.8047 25.2226C40.7938 25.2636 40.7872 25.3065 40.7856 25.3506C40.7738 25.673 41.0256 25.9441 41.3481 25.9558C41.6705 25.9677 41.9415 25.7157 41.9534 25.3933C41.9586 25.2508 41.9123 25.1181 41.831 25.0137H41.8311Z" fill="#293D45"/>
<path fill-rule="evenodd" clip-rule="evenodd" d="M41.3793 25.1232C41.5162 25.1283 41.6232 25.2433 41.6181 25.3803C41.613 25.5172 41.498 25.6242 41.3611 25.6192C41.2241 25.6141 41.1173 25.4991 41.1222 25.362C41.1274 25.2251 41.2424 25.1181 41.3793 25.1232Z" fill="#081A1C"/>
<path fill-rule="evenodd" clip-rule="evenodd" d="M40.8667 25.4024C40.9459 25.3999 41.0123 25.4622 41.0148 25.5415C41.0174 25.6208 40.9551 25.6871 40.8757 25.6895C40.7964 25.692 40.7302 25.6297 40.7276 25.5505C40.7251 25.4712 40.7874 25.405 40.8667 25.4024Z" fill="white"/>
<path fill-rule="evenodd" clip-rule="evenodd" d="M32.9502 25.3883C32.9502 25.3883 33.709 25.9296 34.2606 26.0536C34.8118 26.1774 35.8077 26.0392 35.8077 26.0392C35.8077 26.0392 35.8488 26.0941 35.928 26.0803C35.9485 26.0767 35.945 26.0363 35.912 25.9739C35.6715 25.9659 35.1653 26.2019 34.4468 26.0359C33.5648 25.8319 33.0151 25.3496 33.0151 25.3496C32.9839 25.3665 32.9619 25.38 32.9503 25.3883H32.9502Z" fill="#ADA89F"/>
<path fill-rule="evenodd" clip-rule="evenodd" d="M39.6926 25.8943C39.6926 25.8943 39.6186 25.9406 39.6143 25.9912C39.6103 26.0418 39.7598 26.013 39.7598 26.013C39.7598 26.013 41.1812 26.2227 41.8098 25.9917C42.4383 25.7606 43.3522 25.2175 43.3522 25.2175C43.3522 25.2175 43.3052 25.1994 43.2206 25.1738C42.8646 25.407 42.1583 25.9295 41.4087 26.0365C40.6614 26.1432 39.9466 25.9629 39.6983 25.8891L39.6925 25.8943H39.6926Z" fill="#ADA89F"/>
<path fill-rule="evenodd" clip-rule="evenodd" d="M32.4582 25.1005C32.4582 25.1005 32.5232 25.1933 32.6951 25.2973C32.867 25.4015 32.985 25.4135 32.985 25.4135C32.985 25.4135 33.5229 25.071 34.4614 25.2396C35.4 25.4084 35.8139 25.8142 35.8139 25.8142C35.8139 25.8142 35.2978 25.1069 34.2036 25.0217C33.1095 24.9366 32.7567 25.2782 32.458 25.1004L32.4582 25.1005Z" fill="#402F24"/>
<path fill-rule="evenodd" clip-rule="evenodd" d="M39.6436 25.9349C39.6436 25.9349 40.3697 25.1053 41.4153 24.8664C42.461 24.6277 43.4259 24.8762 43.5574 24.9033C43.6888 24.9301 44.0276 24.8653 44.0564 24.8331C44.0851 24.8011 44.0243 24.9125 43.7634 25.0558C43.5026 25.1989 43.3067 25.1917 43.3439 25.2218C43.3809 25.2518 41.301 24.6013 39.6437 25.9349H39.6436Z" fill="#402F24"/>
</g>
<defs>
<clipPath id="clip0">
<rect width="84.6667" height="211.667" fill="white"/>
</clipPath>
</defs>
</svg>
