<svg width="85" height="212" viewBox="0 0 85 212" fill="none" xmlns="http://www.w3.org/2000/svg">
<path fill-rule="evenodd" clip-rule="evenodd" d="M31.6924 22.5625H43.7533V26.9723H31.6924V22.5625Z" fill="#EAD6BA"/>
<path fill-rule="evenodd" clip-rule="evenodd" d="M36.0094 25.3275C36.2283 26.434 35.9879 26.9898 35.9747 26.4881C35.9595 25.9152 35.6643 25.1503 35.6113 25.0743C35.0247 24.2287 34.7548 24.3744 34.7548 24.3744C34.5398 24.106 35.7574 24.0519 36.0094 25.3275Z" fill="#D2B58D"/>
<path fill-rule="evenodd" clip-rule="evenodd" d="M38.8944 24.123C38.8944 24.123 37.8778 24.2469 37.664 25.304C37.4502 26.3611 37.4903 26.5172 37.4903 26.5172C37.4903 26.5172 37.9888 24.6224 38.8944 24.123Z" fill="#D2B58D"/>
<path fill-rule="evenodd" clip-rule="evenodd" d="M32.0899 24.0948C32.0899 24.0948 32.4736 23.8381 33.2288 23.7879C33.984 23.7372 35.4181 23.8506 35.4181 23.8506C35.4181 23.8506 35.533 23.8054 35.4875 23.5752C35.4415 23.345 35.3457 23.28 35.0773 23.2457C34.809 23.2114 33.1264 23.0011 32.6878 23.4027C32.2492 23.8042 32.1776 23.8989 32.1297 23.9534C32.1297 23.9534 31.8707 24.2155 32.0903 24.0948H32.0899Z" fill="#413024"/>
<path fill-rule="evenodd" clip-rule="evenodd" d="M42.9395 23.6206C42.9395 23.6206 42.062 23.3923 41.3068 23.436C40.5512 23.4796 38.7412 23.732 38.7412 23.732C38.7412 23.732 38.6213 23.7012 38.6384 23.4671C38.6551 23.233 38.7424 23.1563 39.0045 23.0889C39.2663 23.0216 41.2569 22.7435 41.796 22.9865C42.335 23.2291 42.8538 23.4422 42.9874 23.5256C43.1066 23.5999 43.1798 23.6724 42.9399 23.6202L42.9395 23.6206Z" fill="#413024"/>
<path fill-rule="evenodd" clip-rule="evenodd" d="M32.3037 25.3448C32.3037 25.3448 33.0624 25.8862 33.614 26.01C34.1651 26.1339 35.161 25.9956 35.161 25.9956C35.161 25.9956 35.2023 26.0505 35.2814 26.0369C35.3604 26.0229 35.0835 25.457 34.0942 25.1758C33.1053 24.8945 32.3941 25.2798 32.3037 25.3448Z" fill="white"/>
<path fill-rule="evenodd" clip-rule="evenodd" d="M32.3037 25.3448C32.3037 25.3448 32.3547 25.3814 32.44 25.4371C32.7267 25.3499 33.5415 25.152 34.3263 25.4278C34.754 25.5777 35.0196 25.8161 35.1918 26.0217C35.212 26.0338 35.242 26.0439 35.2814 26.0369C35.3604 26.0229 35.0835 25.457 34.0942 25.1758C33.1053 24.8945 32.3941 25.2798 32.3037 25.3448Z" fill="#ADA89F"/>
<path fill-rule="evenodd" clip-rule="evenodd" d="M34.6445 25.3925C34.4926 25.3126 34.3104 25.2378 34.0942 25.1759C33.9357 25.1307 33.7838 25.1031 33.6408 25.0879C33.5894 25.1619 33.5551 25.2495 33.545 25.3453C33.5135 25.648 33.7327 25.9194 34.0358 25.9514C34.3388 25.9833 34.6099 25.7637 34.6418 25.4606C34.6441 25.4377 34.6449 25.4147 34.6445 25.3921V25.3925Z" fill="#293D45"/>
<path fill-rule="evenodd" clip-rule="evenodd" d="M34.1181 25.1692C34.2466 25.1829 34.3397 25.2978 34.3265 25.4267C34.3128 25.5552 34.1975 25.6483 34.069 25.6351C33.9405 25.6214 33.8474 25.5065 33.8606 25.3776C33.8743 25.2491 33.9892 25.156 34.1181 25.1692Z" fill="#081A1C"/>
<path fill-rule="evenodd" clip-rule="evenodd" d="M33.5522 25.3341C33.6317 25.3368 33.6936 25.4034 33.6905 25.4829C33.6878 25.5623 33.6208 25.6243 33.5417 25.6212C33.4622 25.618 33.4003 25.5514 33.4034 25.4724C33.4062 25.3929 33.4732 25.331 33.5522 25.3341Z" fill="white"/>
<path fill-rule="evenodd" clip-rule="evenodd" d="M39.0462 25.8504C39.0462 25.8504 38.9721 25.8967 38.9679 25.9474C38.9636 25.998 39.1131 25.9692 39.1131 25.9692C39.1131 25.9692 40.5348 26.1787 41.163 25.9478C41.7913 25.7168 42.7054 25.1735 42.7054 25.1735C42.7054 25.1735 40.6793 24.3883 39.0458 25.8504H39.0462Z" fill="white"/>
<path fill-rule="evenodd" clip-rule="evenodd" d="M39.0462 25.85C39.0462 25.85 38.9721 25.8964 38.9679 25.947C38.9636 25.9976 39.1131 25.9688 39.1131 25.9688L39.1342 25.9719C39.3001 25.8364 39.7601 25.5065 40.5504 25.2701C41.1599 25.0874 41.9108 25.2241 42.4117 25.3417C42.5897 25.2424 42.7058 25.1735 42.7058 25.1735C42.7058 25.1735 40.6797 24.3883 39.0462 25.8504V25.85Z" fill="#ADA89F"/>
<path fill-rule="evenodd" clip-rule="evenodd" d="M41.1854 24.9688C40.8649 24.9871 40.5151 25.0474 40.1591 25.1775C40.1482 25.2184 40.1416 25.2613 40.14 25.3057C40.1284 25.6282 40.38 25.8992 40.7025 25.9109C41.025 25.923 41.296 25.671 41.3077 25.3485C41.3128 25.2059 41.2664 25.0731 41.1854 24.9688Z" fill="#293D45"/>
<path fill-rule="evenodd" clip-rule="evenodd" d="M40.7328 25.0783C40.8695 25.0834 40.9766 25.1983 40.9716 25.3354C40.9665 25.4721 40.8516 25.5792 40.7145 25.5741C40.5774 25.5691 40.4707 25.4542 40.4758 25.3171C40.4808 25.1803 40.5957 25.0732 40.7328 25.0783Z" fill="#081A1C"/>
<path fill-rule="evenodd" clip-rule="evenodd" d="M40.2202 25.3575C40.2992 25.3551 40.3658 25.4171 40.3682 25.4965C40.3705 25.576 40.3082 25.6422 40.2291 25.6445C40.1497 25.6469 40.0835 25.5849 40.0811 25.5055C40.0788 25.426 40.1407 25.3598 40.2202 25.3575Z" fill="white"/>
<path fill-rule="evenodd" clip-rule="evenodd" d="M32.3037 25.3452C32.3037 25.3452 33.0624 25.8866 33.614 26.0104C34.1651 26.1343 35.161 25.996 35.161 25.996C35.161 25.996 35.2023 26.051 35.2814 26.0373C35.3016 26.0338 35.2985 25.9933 35.2654 25.931C35.0251 25.9228 34.5187 26.1592 33.8001 25.9929C32.9179 25.7888 32.3684 25.3066 32.3684 25.3066C32.3372 25.3234 32.3154 25.337 32.3037 25.3452Z" fill="#ADA89F"/>
<path fill-rule="evenodd" clip-rule="evenodd" d="M39.0462 25.8495C39.0462 25.8495 38.9721 25.8958 38.9679 25.9464C38.9636 25.9971 39.1131 25.9683 39.1131 25.9683C39.1131 25.9683 40.5348 26.1778 41.163 25.9468C41.7913 25.7159 42.7054 25.1725 42.7054 25.1725C42.7054 25.1725 42.6587 25.1546 42.5738 25.1289C42.2178 25.3622 41.5116 25.8845 40.7619 25.9916C40.0148 26.0983 39.2997 25.918 39.0516 25.8444L39.0458 25.8495H39.0462Z" fill="#ADA89F"/>
<path fill-rule="evenodd" clip-rule="evenodd" d="M31.8115 25.0558C31.8115 25.0558 31.8766 25.1485 32.0483 25.2525C32.2201 25.3565 32.3381 25.3685 32.3381 25.3685C32.3381 25.3685 32.876 25.0262 33.8147 25.1948C34.7533 25.3635 35.1674 25.7693 35.1674 25.7693C35.1674 25.7693 34.6513 25.062 33.5572 24.9767C32.4631 24.8918 32.1103 25.2334 31.8115 25.0554V25.0558Z" fill="#402F24"/>
<path fill-rule="evenodd" clip-rule="evenodd" d="M38.9971 25.8918C38.9971 25.8918 39.7231 25.0622 40.7689 24.8234C41.8146 24.5847 42.7794 24.8332 42.911 24.8604C43.0423 24.8873 43.3812 24.8223 43.41 24.7903C43.4388 24.7584 43.378 24.8698 43.1171 25.0131C42.8561 25.1565 42.6602 25.1491 42.6976 25.179C42.7346 25.209 40.6547 24.5586 38.9975 25.8922L38.9971 25.8918Z" fill="#402F24"/>
</svg>
