<svg width="85" height="212" viewBox="0 0 85 212" fill="none" xmlns="http://www.w3.org/2000/svg">
<path fill-rule="evenodd" clip-rule="evenodd" d="M31.7578 22.6074H43.8187V27.017H31.7578V22.6074Z" fill="#EAD6BA"/>
<path fill-rule="evenodd" clip-rule="evenodd" d="M36.236 25.335C36.4548 26.4418 36.2146 26.9977 36.2014 26.4959C36.1863 25.923 35.8907 25.1583 35.8379 25.0822C35.2512 24.2364 34.9814 24.3823 34.9814 24.3823C34.7663 24.1138 35.9838 24.0597 36.236 25.3356V25.335Z" fill="#D2B58D"/>
<path fill-rule="evenodd" clip-rule="evenodd" d="M39.121 24.1309C39.121 24.1309 38.1048 24.2547 37.891 25.3119C37.6771 26.369 37.7168 26.5249 37.7168 26.5249C37.7168 26.5249 38.2154 24.6302 39.121 24.1309Z" fill="#D2B58D"/>
<path fill-rule="evenodd" clip-rule="evenodd" d="M32.3165 24.1043C32.3165 24.1043 32.7001 23.8477 33.4554 23.7974C34.2107 23.7471 35.6451 23.8603 35.6451 23.8603C35.6451 23.8603 35.7602 23.815 35.7143 23.5849C35.6684 23.3547 35.5721 23.2893 35.3043 23.2553C35.0364 23.2214 33.3535 23.0107 32.9146 23.4125C32.4756 23.8144 32.4046 23.9087 32.3562 23.9634C32.3562 23.9634 32.0971 24.2257 32.3172 24.1049L32.3165 24.1043Z" fill="#413024"/>
<path fill-rule="evenodd" clip-rule="evenodd" d="M43.1663 23.6294C43.1663 23.6294 42.2891 23.4011 41.5338 23.4451C40.7779 23.4885 38.9681 23.7413 38.9681 23.7413C38.9681 23.7413 38.8479 23.7105 38.8649 23.4765C38.8819 23.2426 38.9687 23.1659 39.2309 23.0986C39.4925 23.0313 41.4835 22.7534 42.0224 22.9961C42.5614 23.2388 43.0802 23.452 43.2141 23.535C43.3336 23.6092 43.4066 23.6816 43.1663 23.63V23.6294Z" fill="#413024"/>
<path fill-rule="evenodd" clip-rule="evenodd" d="M32.5303 25.3526C32.5303 25.3526 33.2893 25.8941 33.8408 26.018C34.3923 26.1418 35.3878 26.0035 35.3878 26.0035C35.3878 26.0035 35.4287 26.0582 35.5079 26.0444C35.5872 26.0305 35.3105 25.4646 34.3206 25.1835C33.3314 24.9024 32.6202 25.2879 32.5303 25.3526Z" fill="white"/>
<path fill-rule="evenodd" clip-rule="evenodd" d="M32.5303 25.3526C32.5303 25.3526 32.5812 25.3891 32.6667 25.4451C32.9535 25.3577 33.7685 25.1602 34.5533 25.4356C34.9809 25.5859 35.247 25.8243 35.4186 26.0293C35.4388 26.0412 35.4689 26.0513 35.5079 26.0444C35.5872 26.0305 35.3105 25.4646 34.3206 25.1835C33.3314 24.9024 32.6202 25.2879 32.5303 25.3526Z" fill="#ADA89F"/>
<path fill-rule="evenodd" clip-rule="evenodd" d="M34.8708 25.4001C34.7192 25.3202 34.5369 25.2454 34.3206 25.1837C34.1621 25.1385 34.0099 25.1108 33.8671 25.0957C33.8156 25.1699 33.7816 25.2573 33.7716 25.3529C33.7401 25.656 33.9596 25.9271 34.2621 25.9585C34.5652 25.9906 34.8362 25.7705 34.8683 25.468C34.8708 25.4447 34.8714 25.4221 34.8714 25.3994L34.8708 25.4001Z" fill="#293D45"/>
<path fill-rule="evenodd" clip-rule="evenodd" d="M34.3445 25.1791C34.4728 25.1929 34.5665 25.308 34.5527 25.4363C34.5388 25.5646 34.4237 25.6583 34.2954 25.6444C34.1672 25.6306 34.0735 25.5155 34.0873 25.3872C34.1005 25.259 34.2162 25.1653 34.3445 25.1791Z" fill="#081A1C"/>
<path fill-rule="evenodd" clip-rule="evenodd" d="M33.779 25.3419C33.8583 25.3451 33.9205 25.4117 33.9174 25.491C33.9142 25.5702 33.8476 25.6324 33.7683 25.6293C33.6891 25.6262 33.6269 25.5595 33.63 25.4803C33.6331 25.401 33.6998 25.3388 33.779 25.3419Z" fill="white"/>
<path fill-rule="evenodd" clip-rule="evenodd" d="M39.2721 25.8578C39.2721 25.8578 39.1979 25.9044 39.1935 25.9547C39.1891 26.005 39.3387 25.9767 39.3387 25.9767C39.3387 25.9767 40.7599 26.1861 41.3888 25.9553C42.017 25.7245 42.9314 25.1812 42.9314 25.1812C42.9314 25.1812 40.9052 24.3963 39.2721 25.8578Z" fill="white"/>
<path fill-rule="evenodd" clip-rule="evenodd" d="M39.2721 25.8578C39.2721 25.8578 39.1979 25.9044 39.1935 25.9547C39.1891 26.005 39.3387 25.9767 39.3387 25.9767L39.3595 25.9798C39.5255 25.8446 39.9852 25.5145 40.7757 25.278C41.385 25.0956 42.1365 25.2321 42.6371 25.3497C42.8151 25.2503 42.9314 25.1812 42.9314 25.1812C42.9314 25.1812 40.9052 24.3963 39.2721 25.8578Z" fill="#ADA89F"/>
<path fill-rule="evenodd" clip-rule="evenodd" d="M41.4108 24.9766C41.0901 24.9948 40.7404 25.0552 40.3845 25.1853C40.3738 25.2262 40.3669 25.269 40.3656 25.3136C40.3537 25.6362 40.6059 25.9073 40.9285 25.9192C41.2511 25.9312 41.5221 25.679 41.5341 25.357C41.5391 25.2143 41.4932 25.0816 41.4114 24.9772L41.4108 24.9766Z" fill="#293D45"/>
<path fill-rule="evenodd" clip-rule="evenodd" d="M40.9595 25.0881C41.0966 25.0931 41.2035 25.2082 41.1985 25.3453C41.1935 25.4824 41.0784 25.5893 40.9413 25.5842C40.8042 25.5792 40.6973 25.4641 40.7023 25.327C40.7073 25.1899 40.8224 25.083 40.9595 25.0881Z" fill="#081A1C"/>
<path fill-rule="evenodd" clip-rule="evenodd" d="M40.4476 25.3659C40.5269 25.3633 40.5935 25.4256 40.5961 25.5048C40.5986 25.5841 40.5363 25.6507 40.4571 25.6526C40.3778 25.6551 40.3112 25.5929 40.3087 25.5136C40.3062 25.4344 40.3684 25.3677 40.4476 25.3652V25.3659Z" fill="white"/>
<path fill-rule="evenodd" clip-rule="evenodd" d="M32.5303 25.3528C32.5303 25.3528 33.2893 25.8943 33.8408 26.0181C34.3923 26.142 35.3878 26.0037 35.3878 26.0037C35.3878 26.0037 35.4287 26.0584 35.5079 26.0446C35.5281 26.0408 35.5249 26.0005 35.4922 25.9383C35.252 25.9301 34.7451 26.1666 34.027 26.0005C33.1447 25.7968 32.595 25.3145 32.595 25.3145C32.5636 25.3314 32.5422 25.3446 32.5303 25.3534V25.3528Z" fill="#ADA89F"/>
<path fill-rule="evenodd" clip-rule="evenodd" d="M39.2721 25.8587C39.2721 25.8587 39.1979 25.9053 39.1935 25.9556C39.1891 26.0059 39.3387 25.9776 39.3387 25.9776C39.3387 25.9776 40.7599 26.187 41.3888 25.9562C42.017 25.7254 42.9314 25.1821 42.9314 25.1821C42.9314 25.1821 42.8842 25.1638 42.8 25.1387C42.444 25.372 41.7378 25.8946 40.9882 26.0015C40.2411 26.1084 39.5261 25.9279 39.2777 25.8543L39.2721 25.8593V25.8587Z" fill="#ADA89F"/>
<path fill-rule="evenodd" clip-rule="evenodd" d="M32.0381 25.0644C32.0381 25.0644 32.1029 25.1569 32.2752 25.2613C32.4468 25.3657 32.5651 25.3776 32.5651 25.3776C32.5651 25.3776 33.1027 25.0349 34.0416 25.2041C34.9805 25.3726 35.3943 25.7788 35.3943 25.7788C35.3943 25.7788 34.878 25.0714 33.7838 24.9865C32.6896 24.9016 32.3368 25.243 32.0381 25.0651V25.0644Z" fill="#402F24"/>
<path fill-rule="evenodd" clip-rule="evenodd" d="M39.2233 25.8997C39.2233 25.8997 39.9496 25.0702 40.9948 24.8313C42.0406 24.5923 43.0053 24.8413 43.1367 24.8684C43.2681 24.8954 43.6071 24.8306 43.6354 24.7986C43.6643 24.7665 43.6033 24.8778 43.3423 25.0212C43.0813 25.1646 42.8858 25.157 42.9229 25.1872C42.96 25.2174 40.8803 24.5665 39.2227 25.9003L39.2233 25.8997Z" fill="#402F24"/>
</svg>
