<svg width="85" height="212" viewBox="0 0 85 212" fill="none" xmlns="http://www.w3.org/2000/svg">
<g clip-path="url(#clip0)">
<path fill-rule="evenodd" clip-rule="evenodd" d="M36.0803 34.9288C36.0803 34.9288 36.8823 36.7979 37.2915 39.0386C37.7007 41.2793 37.645 42.1828 36.2898 42.8669C34.9346 43.5511 31.9393 44.9374 30.7805 45.5676C29.6201 46.1977 28.5251 47.787 28.7199 50.7626C28.9147 53.7381 29.6201 56.2505 29.6201 56.2505C29.6201 56.2505 47.2592 61.1902 49.9042 58.8529C52.5508 56.5157 55.8586 41.461 52.41 40.9258C52.2398 40.8996 50.9042 40.6966 50.7454 40.6754C47.7027 40.2727 46.8451 40.7899 45.7354 38.0533C44.5684 35.1743 45.3835 30.1904 45.3835 30.1904C45.3835 30.1904 39.6827 35.045 36.0786 34.9304L36.0803 34.9288Z" fill="#C78C68"/>
<path fill-rule="evenodd" clip-rule="evenodd" d="M47.9729 48.8735C47.9729 48.8735 47.0416 53.7412 45.6749 55.8362C44.3083 57.9312 47.4606 60.5991 47.8354 57.4009C48.2102 54.2044 47.9729 48.8735 47.9729 48.8735Z" fill="#AD7755"/>
<path fill-rule="evenodd" clip-rule="evenodd" d="M30.1276 111.074C30.1276 111.074 30.0883 114.078 31.3551 121.849C31.5941 123.319 31.8625 125.065 32.1408 126.931C33.6826 122.063 36.0378 114.914 36.7531 112.747C32.7169 111.19 30.45 111.084 30.1276 111.076V111.074ZM35.7465 152.471C36.8316 160.229 38.3473 171.741 38.2114 174.598C38.0019 179.007 34.9068 186.47 34.9068 186.47C34.9068 186.47 33.712 187.454 35.118 188.698C36.5239 189.944 37.9315 189.962 37.9315 189.962L38.2916 189.418C38.2769 189.181 38.3178 189.024 38.3178 189.024C38.3178 189.024 38.3178 189.024 38.9479 183.446C39.5781 177.868 40.205 175.632 39.1165 166.193C38.6304 161.977 37.2474 157.022 35.7465 152.469V152.471ZM44.8402 149.097C44.8958 147.105 44.8582 145.318 44.6585 144.105C43.8647 139.298 42.9792 138.233 42.9792 138.233C42.9792 138.233 43.539 133.596 44.03 128.347C41.4129 132.897 38.9152 137.072 38.9152 137.072C38.9152 137.072 40.6878 138.591 43.2902 143.969C44.0938 145.631 44.5701 147.341 44.8402 149.096V149.097Z" fill="#AD7755"/>
<path fill-rule="evenodd" clip-rule="evenodd" d="M30.5677 54.7218C31.1749 55.2423 32.5842 55.8773 35.8004 55.6154C40.0068 55.2734 43.3899 53.6612 44.5258 53.0605C46.4882 43.6689 49.7093 41.1762 51.1644 40.5182C51.9435 40.1663 52.2594 40.4511 52.3903 40.7784C52.3772 40.7801 47.6487 41.3038 45.1608 53.486C45.534 54.5221 46.3818 56.663 47.7518 58.9773C49.67 62.218 48.2428 73.5884 48.2428 73.5884C48.2428 73.5884 49.7568 77.1893 51.8076 80.8719C53.8585 84.5546 58.1778 92.1212 56.7669 100.498C55.3561 108.875 49.269 119.127 49.269 119.127C49.269 119.127 44.7255 116.266 38.9396 113.662C33.1538 111.058 30.0881 111.076 30.0881 111.076C30.0881 111.076 29.1667 90.4272 30.4106 84.3156C31.6529 78.204 31.5825 75.5869 30.8361 72.4329C30.0898 69.2789 29.1159 66.0873 29.1159 66.0873C29.1159 66.0873 25.0421 61.6337 29.9621 54.3666C29.9949 54.3028 30.0309 54.2373 30.0669 54.1702C31.2044 52.0997 33.2356 48.9523 32.6676 44.6035C32.6349 44.1125 33.3125 44.0274 33.3289 44.3498C33.8379 49.0178 31.8755 52.3371 30.6839 54.509C30.6446 54.5827 30.6054 54.653 30.5693 54.7234L30.5677 54.7218Z" fill="#D5C1B5"/>
<path fill-rule="evenodd" clip-rule="evenodd" d="M36.7528 112.746C35.8035 115.621 31.9686 127.257 30.9768 130.714C29.8409 134.668 29.7934 135.506 31.1192 139.564C32.4433 143.619 38.0278 156.757 39.1163 166.196C40.2047 175.636 39.5778 177.871 38.9477 183.449C38.3175 189.027 38.3175 189.027 38.3175 189.027C38.3175 189.027 37.743 191.225 41.6532 191.556C45.5634 191.887 45.8612 189.68 45.8007 187.543C45.7401 185.405 46.1379 183.047 46.5781 180.852C47.0184 178.657 46.9677 177.416 45.9676 174.41C44.9676 171.403 44.7843 167.638 44.925 161.452C45.0658 155.265 45.894 149.354 43.2916 143.975C40.6892 138.595 38.9166 137.077 38.9166 137.077C38.9166 137.077 46.6076 124.227 49.1314 119.044C48.3344 118.551 44.1394 116.003 38.9395 113.664C38.162 113.314 37.4337 113.011 36.7545 112.749L36.7528 112.746Z" fill="#C78C68"/>
<path fill-rule="evenodd" clip-rule="evenodd" d="M34.9413 186.384C34.208 186.962 32.6695 188.281 31.0671 190.299C28.8493 193.094 29.4549 193.234 30.1276 193.235C30.7594 193.237 35.4994 193.577 36.9086 192.752C37.0216 192.378 37.141 192.014 37.2556 191.675C37.5273 190.877 37.7499 190.333 37.9234 189.963C37.817 189.96 36.4667 189.895 35.118 188.701C33.7121 187.456 34.9069 186.474 34.9069 186.474L34.9429 186.385L34.9413 186.384Z" fill="#BA9F8A"/>
<path fill-rule="evenodd" clip-rule="evenodd" d="M38.2867 189.324C38.1066 189.559 37.7728 190.157 37.2555 191.676C36.411 194.152 35.4191 197.989 37.1393 197.856C38.8595 197.723 46.0383 195.168 46.2854 192.026C46.5326 188.882 47.2102 186.883 47.6488 184.438C48.0875 181.993 49.1824 180.484 49.2414 178.813C49.2954 177.267 48.094 175.925 46.0317 174.6C46.9696 177.467 47.0088 178.701 46.5784 180.849C46.1381 183.044 45.7404 185.4 45.8009 187.54C45.8615 189.677 45.5636 191.884 41.6535 191.553C38.6419 191.298 38.29 189.936 38.2883 189.324H38.2867Z" fill="#D4C1B5"/>
<path fill-rule="evenodd" clip-rule="evenodd" d="M48.8941 180.477C48.827 181.009 48.7223 181.665 48.5586 182.41C48.0725 184.615 48.2509 187.896 48.2329 188.693C48.1314 188.888 47.3343 188.865 47.3359 188.729L47.3785 185.775C47.4734 185.338 47.5634 184.895 47.6453 184.436C47.9366 182.809 48.5193 181.598 48.8925 180.477H48.8941Z" fill="#A68C7A"/>
<path fill-rule="evenodd" clip-rule="evenodd" d="M40.0803 178.243C40.0803 178.243 38.9346 185.872 38.802 187.811C38.6695 189.751 42.1541 177.691 40.0803 178.243Z" fill="#D49D7B"/>
<path fill-rule="evenodd" clip-rule="evenodd" d="M30.8936 111.485C30.8936 111.485 30.9967 114.346 31.5908 118.756C32.1866 123.165 32.5827 124.312 32.5221 123.944C32.4615 123.576 32.0098 111.855 32.0098 111.855C32.0098 111.855 31.5892 111.356 30.8936 111.485Z" fill="#C78C68"/>
<path fill-rule="evenodd" clip-rule="evenodd" d="M37.4141 113.654L38.9559 114.446C38.9559 114.446 36.7463 118.683 34.1358 124.716C31.5252 130.75 31.2158 131.434 31.2158 131.434C31.2158 131.434 32.9328 126.407 37.4141 113.654Z" fill="#D49D7B"/>
<path fill-rule="evenodd" clip-rule="evenodd" d="M36.753 112.746L36.3667 113.916C40.2458 114.261 47.0431 117.807 48.4 120.481C48.6733 119.956 48.9205 119.471 49.13 119.039C48.3329 118.546 44.1379 115.998 38.938 113.659C38.1606 113.309 37.4322 113.006 36.753 112.744V112.746Z" fill="#AD7755"/>
<path fill-rule="evenodd" clip-rule="evenodd" d="M29.8702 90.0651C29.8702 90.0651 27.5084 99.6318 27.8587 104.637C28.2106 109.642 28.2171 108.302 28.7818 110.285C29.3481 112.269 29.5985 113.171 29.5985 113.171C29.5985 113.171 30.322 114.227 30.299 113.919C30.2761 113.611 29.898 106.184 29.898 106.184C29.898 106.184 30.2843 107.416 30.6919 108.275C31.0994 109.135 31.2975 109.323 31.5512 109.19C31.8048 109.058 31.5315 107.58 31.2222 106.588C30.9128 105.596 31.0438 104.229 30.6919 102.917C30.34 101.606 29.8031 100.833 29.8031 100.833C29.8064 96.6333 29.7655 94.7265 29.8702 90.0635V90.0651Z" fill="#AD7755"/>
<path fill-rule="evenodd" clip-rule="evenodd" d="M55.5098 92.8083C55.9763 95.1635 56.1236 97.7054 55.6817 100.331C54.333 108.334 48.516 118.132 48.516 118.132C48.516 118.132 48.1674 117.913 47.5405 117.539C48.7386 115.529 50.85 111.533 53.2446 104.961C55.2119 99.5615 55.59 95.4647 55.5114 92.8066L55.5098 92.8083Z" fill="#B99E8A"/>
<path fill-rule="evenodd" clip-rule="evenodd" d="M49.0659 75.4442C49.7059 76.8354 50.2575 78.0875 51.3885 80.1171L51.5259 80.3626C50.5766 80.9698 49.6764 81.9797 47.4243 87.1583C45.1721 92.3386 44.9905 95.4336 45.3047 98.3814C45.619 101.331 45.7466 101.216 45.4864 104.265C45.2261 107.315 44.5404 111.516 44.0133 112.33C43.4863 113.143 43.1213 113.132 43.1213 113.132C43.1213 113.132 42.9069 114.752 42.4682 115.343L42.2047 115.21C42.1065 114.03 41.6351 108.421 41.5058 107.909C41.3618 107.336 40.9985 110.5 40.9985 110.5C40.9985 110.5 40.987 110.907 41.0017 112.943C41.0066 113.803 41.0001 114.312 40.9886 114.613C40.5664 114.408 40.1326 114.205 39.6923 114.001L39.455 107.766C39.455 107.766 39.2275 110.32 38.8265 111.922C38.6432 112.652 38.3879 113.073 38.162 113.317L38 113.248C37.9099 113.029 37.8641 112.786 37.8772 112.52C37.9836 110.431 37.7184 104.963 42.9216 91.2043C47.295 79.6424 46.3833 75.8534 49.0643 75.4409L49.0659 75.4442Z" fill="#A38976"/>
<path d="M32.9395 93.9297C32.9427 93.9379 34.0377 96.5747 40.4046 98.5207L40.3031 98.8563C33.7775 96.8627 33.1048 94.3634 33.1015 94.3552L32.9395 93.9297ZM32.9607 100.377C32.9722 100.383 36.866 102.892 40.6698 101.855L40.7614 102.194C36.8054 103.272 33.4779 101 33.4665 100.994L32.9607 100.377Z" fill="#B99E8A"/>
<path fill-rule="evenodd" clip-rule="evenodd" d="M36.0803 34.9285C36.0803 34.9285 36.8823 36.7976 37.2914 39.0383C37.3242 39.2151 37.3536 39.382 37.3782 39.5424C38.2751 39.8108 39.6402 39.8419 41.1525 38.5538C42.781 37.1675 44.2296 35.4113 45.1101 34.2541C45.0692 32.1084 45.3835 30.1885 45.3835 30.1885C45.3835 30.1885 39.6827 35.043 36.0786 34.9285H36.0803Z" fill="#AD7755"/>
<path fill-rule="evenodd" clip-rule="evenodd" d="M36.0803 34.9285C36.0803 34.9285 36.4027 35.6814 36.7431 36.8042C38.771 37.5702 40.0772 36.724 42.2655 35.3769C43.6322 34.5356 44.5438 33.5389 45.1379 32.6796C45.21 31.2524 45.3835 30.1885 45.3835 30.1885C45.3835 30.1885 39.6827 35.043 36.0786 34.9285H36.0803Z" fill="#784A2E"/>
<path fill-rule="evenodd" clip-rule="evenodd" d="M44.3848 15.787C47.4013 18.2044 48.133 21.3159 47.2769 24.8954C46.4209 28.4766 46.0903 29.7221 45.6124 31.2378C45.1345 32.755 45.0395 33.0382 42.8365 34.4408C40.6334 35.8435 38.7561 36.8469 37.2798 36.2462C35.8051 35.6439 34.5055 34.8419 33.8099 33.1036C33.1143 31.3671 32.8066 29.8858 32.2664 28.4111C31.7263 26.9348 32.1993 26.5518 32.1895 24.9838C32.1797 23.4174 32.0127 23.3454 31.908 21.8658C31.8458 20.9967 31.4824 19.1112 33.1699 16.8328C35.9344 13.1044 40.82 12.9276 44.3865 15.7853L44.3848 15.787Z" fill="#C78C68"/>
<path fill-rule="evenodd" clip-rule="evenodd" d="M47.4622 23.9838C47.6864 23.8676 47.9843 23.7858 48.2986 23.9036C48.9565 24.1475 49.4148 25.4209 48.5866 27.0576C47.7585 28.6944 47.3771 29.4767 47.1807 29.7566C46.9974 30.0169 46.3738 30.2755 46.0972 29.6109C46.3934 28.5454 46.7257 27.2066 47.2789 24.8971C47.3525 24.5894 47.4147 24.285 47.4638 23.9838H47.4622Z" fill="#C78C68"/>
<path fill-rule="evenodd" clip-rule="evenodd" d="M46.2409 29.8498C46.1869 29.7892 46.1361 29.709 46.0952 29.6092C46.3915 28.5437 46.7237 27.2048 47.2769 24.8954C47.3179 24.7252 47.3539 24.5566 47.3882 24.3896C47.5585 24.3258 47.7745 24.2783 48.0364 24.2898C48.7713 24.3193 48.8138 25.7498 48.5487 26.3963C48.2835 27.0412 48.2835 27.0412 48.2835 27.0412C48.2835 27.0412 48.5421 26.2031 48.4816 25.4764C48.421 24.7481 47.7974 24.7759 47.6321 24.9576C47.4668 25.1393 47.1902 25.6352 47.3129 26.231C47.4341 26.8267 47.3015 27.5649 46.9938 27.763C46.7401 27.9266 46.2638 29.2262 46.2425 29.8514L46.2409 29.8498Z" fill="#AD7755"/>
<path fill-rule="evenodd" clip-rule="evenodd" d="M31.7904 45.4136C31.4451 45.5854 31.1439 45.7376 30.923 45.8588C29.936 46.394 29.0014 47.7492 29.1684 50.2829C29.2715 51.8525 29.5416 53.2715 29.7314 54.1243C29.7314 54.1243 29.1209 51.2142 29.7871 48.4497C30.2143 46.6771 31.1636 45.8097 31.7904 45.4136Z" fill="#D49D7B"/>
<path fill-rule="evenodd" clip-rule="evenodd" d="M37.7708 100.48C37.2078 101.134 36.8526 103.519 36.9017 105.637C36.9492 107.755 36.7822 109.693 36.7822 109.693C36.7822 109.693 37.8428 110.46 38.1276 107.973C38.2504 106.902 37.9541 105.099 37.7905 104.082C37.5744 102.733 37.7708 100.478 37.7708 100.478V100.48Z" fill="#AD7755"/>
<path fill-rule="evenodd" clip-rule="evenodd" d="M52.4687 40.9336C53.3656 41.1218 54.4458 41.4508 55.1676 42.0122C56.6063 43.1301 57.2676 44.4084 56.4737 48.4446C55.6799 52.4791 55.6161 51.0634 55.0514 55.2649C54.4851 59.4647 54.3247 60.5204 53.7126 62.9542C53.1004 65.3897 52.3966 68.0101 52.0709 69.9627C51.7452 71.9154 51.6143 75.4212 49.7648 80.7014C47.9153 85.9815 46.7024 88.0274 45.7138 91.1257C44.7269 94.2241 44.7073 94.2404 44.6762 94.7871C44.6451 95.3338 44.7727 95.6611 44.6041 96.3338C44.4356 97.0065 44.6238 97.5483 44.7662 98.3486C44.9069 99.149 45.4012 100.537 45.0919 103.123C44.7825 105.709 44.6532 106.866 44.5616 107.773C44.4699 108.68 44.4372 110.786 44.1491 111.822C43.8627 112.858 43.3651 112.69 43.2718 111.754C43.1785 110.817 43.2178 108.891 43.1671 107.688C43.118 106.485 43.1393 105.961 43.1393 105.961C43.1393 105.961 42.6973 109.483 42.7481 110.663C42.7988 111.844 42.7563 115.31 42.1899 115.241C41.6236 115.173 41.3143 110.663 41.293 109.825C41.2701 108.987 41.424 106.948 41.424 106.948C41.424 106.948 41.1932 106.761 41.1048 107.334C41.0164 107.907 40.6612 110.825 40.6612 110.825C40.6612 110.825 40.6858 113.806 40.586 114.765C40.4861 115.724 40.239 116.111 39.8723 116.079C39.5073 116.048 39.4059 115.616 39.2782 113.96C39.1505 112.303 39.1865 110.94 39.2258 110.323C39.2651 109.704 39.3388 107.082 39.3388 107.082C39.3388 107.082 39.0638 106.763 39.0081 107.259C38.9525 107.755 38.7855 109.536 38.7855 109.536C38.7855 109.536 38.612 111.691 38.3698 112.529C38.1276 113.367 37.5858 113.613 37.4925 112.894C37.3992 112.176 37.4598 109.95 37.4909 109.493C37.5236 109.037 37.5891 105.604 37.4647 104.526C37.3403 103.447 37.3076 101.563 37.6235 100.774C39.0949 97.0916 39.2144 96.0278 40.3126 92.4335C40.9264 90.4252 42.3929 86.9602 43.298 81.6425C44.5501 74.2903 46.9283 69.6927 46.9283 69.5045C46.9283 69.2147 47.6174 49.7834 47.7614 47.7179C47.9791 44.5982 50.5373 41.3231 52.4687 40.9352V40.9336Z" fill="#C78C68"/>
<path fill-rule="evenodd" clip-rule="evenodd" d="M30.4976 55.2259C31.1048 55.7463 32.514 56.3814 35.7302 56.1195C39.917 55.7791 43.287 54.18 44.4393 53.5728C43.5178 54.2635 38.1002 56.9084 34.6369 56.7693C31.0475 56.6269 30.4992 55.2259 30.4992 55.2259H30.4976Z" fill="#E0D0C4"/>
<path fill-rule="evenodd" clip-rule="evenodd" d="M32.2402 52.6709C32.2402 52.6709 33.1421 53.2503 33.6642 54.4746C33.8082 54.8118 33.895 55.1113 33.9474 55.3699C34.1061 55.3732 34.2714 55.3748 34.4433 55.3732C34.206 54.4157 33.6315 53.1112 32.2419 52.6725L32.2402 52.6709Z" fill="#D49D7B"/>
<path fill-rule="evenodd" clip-rule="evenodd" d="M40.131 52.3928C40.131 52.3928 39.2029 52.7135 38.3224 53.4173C37.7168 53.9035 37.193 54.73 36.9033 55.2505C37.1406 55.2227 37.3747 55.1916 37.6038 55.1556C38.0032 54.3683 38.8085 53.1064 40.1293 52.3911L40.131 52.3928Z" fill="#D49D7B"/>
<path fill-rule="evenodd" clip-rule="evenodd" d="M35.4206 55.6413C35.2078 54.823 34.8019 53.8753 34.0425 53.0078C34.0425 53.0078 34.5515 54.1994 34.5613 55.6741C34.8314 55.6708 35.1178 55.661 35.4206 55.6413Z" fill="#AD7755"/>
<path d="M37.1107 28.6697C37.266 28.7069 37.4134 28.5663 37.4399 28.3558C37.4664 28.1452 37.3619 27.9444 37.2066 27.9072C37.0512 27.87 36.9038 28.0105 36.8773 28.2211C36.8509 28.4317 36.9553 28.6325 37.1107 28.6697Z" fill="#D49D7B"/>
<path fill-rule="evenodd" clip-rule="evenodd" d="M38.8741 28.6909C38.8741 28.6909 39.0951 28.889 38.9167 29.4455C38.7383 30.0019 38.3569 29.8366 38.3569 29.8366C38.3569 29.8366 38.7399 30.2262 39.0378 29.7401C39.3357 29.254 39.0591 28.8153 38.8725 28.6909H38.8741Z" fill="#9E6B4C"/>
<path fill-rule="evenodd" clip-rule="evenodd" d="M36.1246 28.8892C36.1246 28.8892 35.9707 29.0545 36.0084 29.4538C36.046 29.8548 36.321 30.0692 36.4323 30.0545C36.542 30.0398 36.1671 30.1887 35.9707 29.7484C35.7743 29.3082 36.1262 28.8892 36.1262 28.8892H36.1246Z" fill="#9E6B4C"/>
<path fill-rule="evenodd" clip-rule="evenodd" d="M36.4601 29.7042C36.4601 29.7042 36.3979 29.4276 36.6205 29.5291C36.8431 29.6306 36.8824 29.8515 37.1001 29.9988C37.3178 30.1445 37.5928 30.1003 37.6124 29.8892C37.6337 29.678 37.6779 29.4211 37.9185 29.4751C38.1607 29.5307 38.3424 29.8188 38.3424 29.8188C38.3424 29.8188 38.1312 29.588 37.9103 29.6076C37.6893 29.6273 37.6615 29.7729 37.5993 29.9497C37.5371 30.1265 37.2343 30.1756 36.9381 29.8941C36.6418 29.6125 36.5109 29.6715 36.4601 29.7042Z" fill="#78492B"/>
<path fill-rule="evenodd" clip-rule="evenodd" d="M35.2063 31.7302C34.9952 31.4749 34.8675 31.5272 34.7415 31.5649C34.6154 31.6025 34.4698 31.2212 34.766 31.3374C35.0623 31.452 34.9903 31.6615 35.55 31.5272C35.8725 31.4503 36.3209 31.1655 36.7334 31.046C37.0558 30.9511 37.1115 31.1933 37.4241 31.1622C37.6794 31.1377 37.7318 30.9626 37.956 30.9462C38.596 30.9004 39.5846 31.542 40.5699 31.3488C40.8874 31.2866 41.0298 30.992 41.0986 31.0951C41.1673 31.1983 40.9774 31.3063 40.8481 31.3407C40.7188 31.3734 40.6599 31.6025 40.1754 32.2769C39.763 32.8514 39.2392 33.7286 37.6025 33.7074C36.0198 33.6861 35.8839 32.5764 35.2047 31.7335L35.2063 31.7302Z" fill="#A8433E"/>
<path fill-rule="evenodd" clip-rule="evenodd" d="M39.1638 25.6301C39.1638 25.6301 38.0295 23.9917 39.6925 23.7086C41.3554 23.4271 43.3718 24.4517 43.1738 25.365C42.9757 26.2783 40.7498 27.5205 39.1638 25.6301Z" fill="#B37B58"/>
<path fill-rule="evenodd" clip-rule="evenodd" d="M36.1558 31.904C36.5846 32.0203 38.2672 31.904 39.1494 31.832C39.1494 31.832 38.4374 32.3705 37.5044 32.3803C36.5715 32.3902 36.1558 31.904 36.1558 31.904Z" fill="white"/>
<path fill-rule="evenodd" clip-rule="evenodd" d="M38.555 24.1196C38.7857 24.0672 40.6058 23.3585 41.1868 23.1343C41.7695 22.91 42.2589 22.9493 42.6746 23.1474C43.092 23.3454 43.5274 23.5582 43.5274 23.5582C43.5274 23.5582 43.7385 23.5255 43.6207 23.3994C43.5012 23.2734 42.7401 22.7644 42.3833 22.6122C42.0265 22.4599 40.7367 22.658 39.5386 23.0688C39.4994 23.0819 38.0067 23.4649 38.5533 24.1212L38.555 24.1196Z" fill="#413024"/>
<path fill-rule="evenodd" clip-rule="evenodd" d="M35.5925 23.9476C35.5925 23.9476 36.4616 24.6252 36.6188 25.419C36.7759 26.2128 36.5647 27.7465 36.5647 27.7465C36.5647 27.7465 36.7808 26.311 36.1916 25.3994C35.6023 24.4877 34.6465 23.8887 34.6465 23.8887L35.5909 23.946L35.5925 23.9476Z" fill="#B37B58"/>
<path fill-rule="evenodd" clip-rule="evenodd" d="M38.8348 24.1738C38.8348 24.1738 38.1179 24.4423 37.9951 25.4619C37.8724 26.4816 37.9264 26.6322 37.9264 26.6322C37.9264 26.6322 38.3356 24.5797 38.8348 24.1755V24.1738Z" fill="#B37B58"/>
<path fill-rule="evenodd" clip-rule="evenodd" d="M35.9135 25.6235C35.9135 25.6235 36.3194 24.4205 35.3521 23.9344C34.3848 23.4483 32.149 24.4533 32.3193 25.3666C32.4895 26.2799 34.5567 27.5156 35.9152 25.6252L35.9135 25.6235Z" fill="#B37B58"/>
<path fill-rule="evenodd" clip-rule="evenodd" d="M32.2095 23.7954C32.2095 23.7954 32.5565 23.432 33 23.5171C33.4436 23.6039 35.4011 24.0458 35.5664 24.0998C35.7317 24.1522 35.771 24.1194 35.771 24.1194C35.771 24.1194 36.082 23.689 35.4011 23.4516C34.7202 23.2143 33.1261 23.0817 32.9346 23.0621C32.7431 23.0425 32.3732 23.2994 32.2471 23.486C32.1211 23.671 32.1113 23.869 32.2111 23.797L32.2095 23.7954Z" fill="#413024"/>
<path fill-rule="evenodd" clip-rule="evenodd" d="M38.9888 24.9872C38.9888 24.9872 39.4978 24.3113 40.7499 24.1803C42.002 24.0494 43.0642 24.966 43.0642 24.966C43.0642 24.966 42.3359 24.0052 41.056 23.9545C39.776 23.9037 39.1574 24.7041 38.9888 24.9872Z" fill="#784A2E"/>
<path fill-rule="evenodd" clip-rule="evenodd" d="M39.3782 25.8301C38.897 26.2098 38.6613 25.619 39.1376 25.3636C39.1376 25.3636 39.6532 24.5125 40.9347 24.5927C42.2147 24.6729 42.6124 25.3014 42.6124 25.3014C42.6124 25.3014 42.2998 26.0871 41.2228 26.1902C40.1458 26.2917 39.5173 25.9463 39.3782 25.8301Z" fill="white"/>
<path fill-rule="evenodd" clip-rule="evenodd" d="M39.3782 25.8299C38.897 26.2096 38.6613 25.6188 39.1376 25.3635C39.1376 25.3635 39.172 25.3062 39.2456 25.2227C39.2964 25.4273 39.5206 25.9576 40.4863 26.0771C41.5256 26.2064 42.3881 25.6368 42.4847 25.1572C42.5731 25.2423 42.6107 25.3013 42.6107 25.3013C42.6107 25.3013 42.2981 26.0869 41.2212 26.19C40.1442 26.2915 39.5157 25.9461 39.3766 25.8299H39.3782Z" fill="#E3A986"/>
<path fill-rule="evenodd" clip-rule="evenodd" d="M39.1377 25.3651C39.1377 25.3651 39.6533 24.514 40.9348 24.5942C42.2148 24.6744 42.6125 25.3029 42.6125 25.3029C42.6125 25.3029 42.5765 25.3946 42.4848 25.5206C41.398 24.9919 39.9839 25.1196 39.1393 25.3651H39.1377Z" fill="#ADA89F"/>
<path fill-rule="evenodd" clip-rule="evenodd" d="M40.547 24.7517C40.6681 24.7403 40.7958 24.7386 40.9333 24.7468C41.1772 24.7615 41.3899 24.7976 41.5732 24.845C41.6633 24.9629 41.7156 25.1085 41.7156 25.2673C41.7156 25.6536 41.403 25.9662 41.0168 25.9662C40.6305 25.9662 40.3179 25.6536 40.3179 25.2673C40.3179 25.0627 40.4063 24.8794 40.5454 24.7517H40.547Z" fill="#625D54"/>
<path d="M41.0186 25.6583C41.2347 25.6583 41.4098 25.4832 41.4098 25.2672C41.4098 25.0511 41.2347 24.876 41.0186 24.876C40.8026 24.876 40.6274 25.0511 40.6274 25.2672C40.6274 25.4832 40.8026 25.6583 41.0186 25.6583Z" fill="#413024"/>
<path d="M41.0219 25.305C41.0933 25.305 41.1512 25.2471 41.1512 25.1757C41.1512 25.1043 41.0933 25.0464 41.0219 25.0464C40.9505 25.0464 40.8926 25.1043 40.8926 25.1757C40.8926 25.2471 40.9505 25.305 41.0219 25.305Z" fill="white"/>
<path fill-rule="evenodd" clip-rule="evenodd" d="M39.1787 25.3394C39.1787 25.3394 39.7401 24.7845 40.8253 24.8385C41.9104 24.8909 42.5537 25.4163 42.5537 25.4163C42.5537 25.4163 42.9285 25.5407 43.3213 25.359C43.7141 25.1773 43.7878 24.8058 43.7878 24.8058C43.7878 24.8058 43.6666 24.9629 43.2149 24.9597C42.7632 24.958 42.2525 24.557 41.5896 24.3835C40.9267 24.2084 39.5748 24.2673 39.1787 25.341V25.3394Z" fill="#413024"/>
<path fill-rule="evenodd" clip-rule="evenodd" d="M32.6335 24.8742C32.6335 24.8742 33.2702 24.226 34.2588 24.1245C35.2473 24.0231 35.74 24.699 35.848 24.9838C35.956 25.267 35.9495 25.267 35.9495 25.267C35.9495 25.267 35.6172 24.4339 34.5697 24.2882C33.5239 24.1425 32.6711 24.8382 32.6318 24.8742H32.6335Z" fill="#784A2E"/>
<path fill-rule="evenodd" clip-rule="evenodd" d="M35.6843 25.8233C36.1344 26.203 36.3538 25.6121 35.9086 25.3568C35.9086 25.3568 35.4274 24.5057 34.2309 24.5859C33.0345 24.6661 32.6646 25.2946 32.6646 25.2946C32.6646 25.2946 32.9575 26.0802 33.9625 26.1817C34.9674 26.2832 35.555 25.9378 35.6843 25.8216V25.8233Z" fill="white"/>
<path fill-rule="evenodd" clip-rule="evenodd" d="M35.6843 25.8236C36.1344 26.2033 36.3538 25.6124 35.9086 25.3571C35.9086 25.3571 35.8758 25.2998 35.8071 25.2163C35.7596 25.4209 35.5518 25.9512 34.6483 26.0707C33.6777 26.2 32.8724 25.6304 32.7824 25.1509C32.6989 25.236 32.6646 25.2949 32.6646 25.2949C32.6646 25.2949 32.9575 26.0805 33.9625 26.182C34.9674 26.2835 35.555 25.9381 35.6843 25.8219V25.8236Z" fill="#E3A986"/>
<path fill-rule="evenodd" clip-rule="evenodd" d="M35.9086 25.3568C35.9086 25.3568 35.4274 24.5057 34.2309 24.5859C33.0345 24.6661 32.6646 25.2946 32.6646 25.2946C32.6646 25.2946 32.6989 25.3863 32.784 25.5123C33.5811 25.0131 35.0018 24.9853 35.9069 25.3568H35.9086Z" fill="#ADA89F"/>
<path fill-rule="evenodd" clip-rule="evenodd" d="M35.1393 24.7434C35.0182 24.732 34.8905 24.7303 34.7531 24.7385C34.5092 24.7532 34.2964 24.7893 34.1131 24.8367C34.0231 24.9546 33.9707 25.1002 33.9707 25.259C33.9707 25.6453 34.2833 25.9579 34.6696 25.9579C35.0559 25.9579 35.3685 25.6453 35.3685 25.259C35.3685 25.0544 35.2801 24.8711 35.141 24.7434H35.1393Z" fill="#625D54"/>
<path d="M34.668 25.65C34.8841 25.65 35.0592 25.4749 35.0592 25.2589C35.0592 25.0428 34.8841 24.8677 34.668 24.8677C34.452 24.8677 34.2769 25.0428 34.2769 25.2589C34.2769 25.4749 34.452 25.65 34.668 25.65Z" fill="#413024"/>
<path d="M34.6645 25.2982C34.7359 25.2982 34.7938 25.2403 34.7938 25.1689C34.7938 25.0974 34.7359 25.0396 34.6645 25.0396C34.593 25.0396 34.5352 25.0974 34.5352 25.1689C34.5352 25.2403 34.593 25.2982 34.6645 25.2982Z" fill="white"/>
<path fill-rule="evenodd" clip-rule="evenodd" d="M35.8711 25.3323C35.8711 25.3323 35.362 24.7938 34.3489 24.8478C33.3358 24.9002 32.7203 25.4092 32.7203 25.4092C32.2899 25.5074 32.2702 25.1686 32.2588 24.9575C32.3799 25.1162 33.0264 24.6187 33.5764 24.4632C34.195 24.288 35.5028 24.2602 35.8711 25.3339V25.3323Z" fill="#413024"/>
<path fill-rule="evenodd" clip-rule="evenodd" d="M32.8169 26.0771C33.3799 26.7024 34.8628 26.7466 35.3751 26.1295C34.6942 27.0903 33.1197 26.817 32.8169 26.0771Z" fill="#784A2E"/>
<path fill-rule="evenodd" clip-rule="evenodd" d="M39.6143 26.0737C40.2559 26.6875 41.9482 26.7039 42.5326 26.077C41.7567 27.0509 39.9612 26.8086 39.6143 26.0737Z" fill="#784A2E"/>
<path fill-rule="evenodd" clip-rule="evenodd" d="M35.9411 32.6815C35.5172 32.0203 35.7562 32.0268 36 32.1856C36.2456 32.3443 36.5778 32.8026 37.7661 32.6815C38.9544 32.5604 39.4863 31.9744 39.7433 31.8419C40.0019 31.7093 40.2326 31.7617 40.015 32.1659C39.7973 32.5702 38.8578 33.549 37.6924 33.5293C36.5287 33.5097 36.059 32.8419 35.9395 32.6815H35.9411Z" fill="#BD5A55"/>
<path fill-rule="evenodd" clip-rule="evenodd" d="M37.0475 32.8304C37.0475 32.8304 37.334 32.9761 38.3275 32.7273C39.3226 32.4785 39.7645 32.1348 39.6696 32.3083C39.5747 32.4802 38.7563 33.4246 37.5615 33.3607C36.3667 33.2969 36.514 32.7715 37.0475 32.8321V32.8304Z" fill="#D4726F"/>
<path fill-rule="evenodd" clip-rule="evenodd" d="M32.0356 26.6696C32.088 26.2129 32.1944 25.7334 32.1895 24.9838C32.183 23.9886 32.1126 23.5958 32.0356 23.0639V22.4976H44.0198V27.4912H32.0356V26.6696Z" fill="#C78C68"/>
<path fill-rule="evenodd" clip-rule="evenodd" d="M39.1633 25.6301C39.1633 25.6301 38.029 23.9917 39.692 23.7086C41.3549 23.4271 43.3713 24.4517 43.1733 25.365C42.9753 26.2783 40.7493 27.5205 39.1633 25.6301Z" fill="#B37B58"/>
<path fill-rule="evenodd" clip-rule="evenodd" d="M38.5545 24.1196C38.7853 24.0672 40.6053 23.3585 41.1863 23.1343C41.769 22.91 42.2584 22.9493 42.6741 23.1474C43.0915 23.3454 43.5269 23.5582 43.5269 23.5582C43.5269 23.5582 43.738 23.5255 43.6202 23.3994C43.5007 23.2734 42.7396 22.7644 42.3828 22.6122C42.026 22.4599 40.7362 22.658 39.5382 23.0688C39.4989 23.0819 38.0062 23.4649 38.5528 24.1212L38.5545 24.1196Z" fill="#413024"/>
<path fill-rule="evenodd" clip-rule="evenodd" d="M35.5923 23.9476C35.5923 23.9476 36.4615 24.6252 36.6186 25.419C36.7348 26.0132 36.648 27.0197 36.5957 27.4895H36.5908C36.6235 27.0361 36.6284 26.0737 36.193 25.3994C35.6038 24.4877 34.6479 23.8887 34.6479 23.8887L35.5923 23.946V23.9476Z" fill="#B37B58"/>
<path fill-rule="evenodd" clip-rule="evenodd" d="M38.8343 24.1738C38.8343 24.1738 38.1174 24.4423 37.9946 25.4619C37.8719 26.4816 37.9259 26.6322 37.9259 26.6322C37.9259 26.6322 38.3351 24.5797 38.8343 24.1755V24.1738Z" fill="#B37B58"/>
<path fill-rule="evenodd" clip-rule="evenodd" d="M35.913 25.6235C35.913 25.6235 36.319 24.4205 35.3516 23.9344C34.3843 23.4483 32.1486 24.4533 32.3188 25.3666C32.489 26.2799 34.5562 27.5156 35.9147 25.6252L35.913 25.6235Z" fill="#B37B58"/>
<path fill-rule="evenodd" clip-rule="evenodd" d="M32.209 23.7954C32.209 23.7954 32.556 23.432 32.9995 23.5171C33.4431 23.6039 35.4006 24.0458 35.5659 24.0998C35.7313 24.1522 35.7705 24.1194 35.7705 24.1194C35.7705 24.1194 36.0815 23.689 35.4006 23.4516C34.7197 23.2143 33.1256 23.0817 32.9341 23.0621C32.7426 23.0425 32.3727 23.2994 32.2466 23.486C32.1206 23.671 32.1108 23.869 32.2106 23.797L32.209 23.7954Z" fill="#413024"/>
<path fill-rule="evenodd" clip-rule="evenodd" d="M38.9883 24.9872C38.9883 24.9872 39.4973 24.3113 40.7494 24.1803C42.0015 24.0494 43.0637 24.966 43.0637 24.966C43.0637 24.966 42.3354 24.0052 41.0555 23.9545C39.7755 23.9037 39.1569 24.7041 38.9883 24.9872Z" fill="#784A2E"/>
<path fill-rule="evenodd" clip-rule="evenodd" d="M39.3777 25.8301C38.8965 26.2098 38.6608 25.619 39.1371 25.3636C39.1371 25.3636 39.6527 24.5125 40.9342 24.5927C42.2142 24.6729 42.6119 25.3014 42.6119 25.3014C42.6119 25.3014 42.2993 26.0871 41.2223 26.1902C40.1453 26.2917 39.5168 25.9463 39.3777 25.8301Z" fill="white"/>
<path fill-rule="evenodd" clip-rule="evenodd" d="M39.3777 25.8299C38.8965 26.2096 38.6608 25.6188 39.1371 25.3635C39.1371 25.3635 39.1715 25.3062 39.2451 25.2227C39.2959 25.4273 39.5201 25.9576 40.4858 26.0771C41.5251 26.2064 42.3877 25.6368 42.4842 25.1572C42.5726 25.2423 42.6103 25.3013 42.6103 25.3013C42.6103 25.3013 42.2976 26.0869 41.2207 26.19C40.1437 26.2915 39.5152 25.9461 39.3761 25.8299H39.3777Z" fill="#E3A986"/>
<path fill-rule="evenodd" clip-rule="evenodd" d="M39.1372 25.3651C39.1372 25.3651 39.6528 24.514 40.9343 24.5942C42.2143 24.6744 42.612 25.3029 42.612 25.3029C42.612 25.3029 42.576 25.3946 42.4843 25.5206C41.3975 24.9919 39.9834 25.1196 39.1388 25.3651H39.1372Z" fill="#ADA89F"/>
<path fill-rule="evenodd" clip-rule="evenodd" d="M40.5465 24.7517C40.6676 24.7403 40.7953 24.7386 40.9328 24.7468C41.1767 24.7615 41.3894 24.7976 41.5728 24.845C41.6628 24.9629 41.7152 25.1085 41.7152 25.2673C41.7152 25.6536 41.4025 25.9662 41.0163 25.9662C40.63 25.9662 40.3174 25.6536 40.3174 25.2673C40.3174 25.0627 40.4058 24.8794 40.5449 24.7517H40.5465Z" fill="#9E5311"/>
<path fill-rule="evenodd" clip-rule="evenodd" d="M41.0181 24.876C41.2342 24.876 41.4093 25.0511 41.4093 25.2672C41.4093 25.4832 41.2342 25.6583 41.0181 25.6583C40.8021 25.6583 40.627 25.4832 40.627 25.2672C40.627 25.0511 40.8021 24.876 41.0181 24.876Z" fill="#413024"/>
<path fill-rule="evenodd" clip-rule="evenodd" d="M41.0214 25.0464C41.0934 25.0464 41.1507 25.1037 41.1507 25.1757C41.1507 25.2477 41.0934 25.305 41.0214 25.305C40.9494 25.305 40.8921 25.2477 40.8921 25.1757C40.8921 25.1037 40.9494 25.0464 41.0214 25.0464Z" fill="white"/>
<path fill-rule="evenodd" clip-rule="evenodd" d="M39.1782 25.3394C39.1782 25.3394 39.7396 24.7845 40.8248 24.8385C41.9099 24.8909 42.5532 25.4163 42.5532 25.4163C42.5532 25.4163 42.928 25.5407 43.3208 25.359C43.7136 25.1773 43.7873 24.8058 43.7873 24.8058C43.7873 24.8058 43.6662 24.9629 43.2144 24.9597C42.7627 24.958 42.252 24.557 41.5891 24.3835C40.9263 24.2084 39.5743 24.2673 39.1782 25.341V25.3394Z" fill="#413024"/>
<path fill-rule="evenodd" clip-rule="evenodd" d="M32.633 24.8742C32.633 24.8742 33.2697 24.226 34.2583 24.1245C35.2469 24.0231 35.7395 24.699 35.8475 24.9838C35.9556 25.267 35.949 25.267 35.949 25.267C35.949 25.267 35.6168 24.4339 34.5692 24.2882C33.5234 24.1425 32.6706 24.8382 32.6313 24.8742H32.633Z" fill="#784A2E"/>
<path fill-rule="evenodd" clip-rule="evenodd" d="M35.6838 25.8233C36.1339 26.203 36.3533 25.6121 35.9081 25.3568C35.9081 25.3568 35.4269 24.5057 34.2304 24.5859C33.034 24.6661 32.6641 25.2946 32.6641 25.2946C32.6641 25.2946 32.957 26.0802 33.962 26.1817C34.9669 26.2832 35.5545 25.9378 35.6838 25.8216V25.8233Z" fill="white"/>
<path fill-rule="evenodd" clip-rule="evenodd" d="M35.6838 25.8236C36.1339 26.2033 36.3533 25.6124 35.9081 25.3571C35.9081 25.3571 35.8753 25.2998 35.8066 25.2163C35.7591 25.4209 35.5513 25.9512 34.6478 26.0707C33.6772 26.2 32.8719 25.6304 32.7819 25.1509C32.6984 25.236 32.6641 25.2949 32.6641 25.2949C32.6641 25.2949 32.957 26.0805 33.962 26.182C34.9669 26.2835 35.5545 25.9381 35.6838 25.8219V25.8236Z" fill="#E3A986"/>
<path fill-rule="evenodd" clip-rule="evenodd" d="M35.9081 25.3568C35.9081 25.3568 35.4269 24.5057 34.2304 24.5859C33.034 24.6661 32.6641 25.2946 32.6641 25.2946C32.6641 25.2946 32.6984 25.3863 32.7835 25.5123C33.5806 25.0131 35.0013 24.9853 35.9064 25.3568H35.9081Z" fill="#ADA89F"/>
<path fill-rule="evenodd" clip-rule="evenodd" d="M35.1388 24.7434C35.0177 24.732 34.8901 24.7303 34.7526 24.7385C34.5087 24.7532 34.2959 24.7893 34.1126 24.8367C34.0226 24.9546 33.9702 25.1002 33.9702 25.259C33.9702 25.6453 34.2828 25.9579 34.6691 25.9579C35.0554 25.9579 35.368 25.6453 35.368 25.259C35.368 25.0544 35.2796 24.8711 35.1405 24.7434H35.1388Z" fill="#9E5311"/>
<path fill-rule="evenodd" clip-rule="evenodd" d="M34.6675 24.8696C34.4515 24.8696 34.2764 25.0448 34.2764 25.2608C34.2764 25.4769 34.4515 25.652 34.6675 25.652C34.8836 25.652 35.0587 25.4769 35.0587 25.2608C35.0587 25.0448 34.8836 24.8696 34.6675 24.8696Z" fill="#413024"/>
<path fill-rule="evenodd" clip-rule="evenodd" d="M34.664 25.0396C34.592 25.0396 34.5347 25.0968 34.5347 25.1689C34.5347 25.2409 34.592 25.2982 34.664 25.2982C34.736 25.2982 34.7933 25.2409 34.7933 25.1689C34.7933 25.0968 34.736 25.0396 34.664 25.0396Z" fill="white"/>
<path fill-rule="evenodd" clip-rule="evenodd" d="M35.8706 25.3323C35.8706 25.3323 35.3616 24.7938 34.3484 24.8478C33.3353 24.9002 32.7199 25.4092 32.7199 25.4092C32.2894 25.5074 32.2698 25.1686 32.2583 24.9575C32.3794 25.1162 33.0259 24.6187 33.5759 24.4632C34.1946 24.288 35.5023 24.2602 35.8706 25.3339V25.3323Z" fill="#413024"/>
<path fill-rule="evenodd" clip-rule="evenodd" d="M32.8164 26.0771C33.3794 26.7024 34.8623 26.7466 35.3746 26.1295C34.6937 27.0903 33.1192 26.817 32.8164 26.0771Z" fill="#784A2E"/>
<path fill-rule="evenodd" clip-rule="evenodd" d="M39.6138 26.0737C40.2554 26.6875 41.9478 26.7039 42.5321 26.077C41.7563 27.0509 39.9608 26.8086 39.6138 26.0737Z" fill="#784A2E"/>
</g>
<defs>
<clipPath id="clip0">
<rect width="84.6667" height="211.667" fill="white"/>
</clipPath>
</defs>
</svg>
