<svg width="85" height="212" viewBox="0 0 85 212" fill="none" xmlns="http://www.w3.org/2000/svg">
<path fill-rule="evenodd" clip-rule="evenodd" d="M35.2556 34.6448C35.2556 34.6448 36.1147 36.5168 36.5517 38.7601C36.9888 41.0034 36.9306 41.9094 35.4788 42.594C34.0289 43.2786 30.8253 44.6685 29.5835 45.2987C28.3437 45.929 27.1714 47.5214 27.3796 50.5019C27.5878 53.4805 28.3437 55.9977 28.3437 55.9977C28.3437 55.9977 47.2131 60.9439 50.0454 58.603C52.8758 56.2621 56.4153 41.1854 52.7277 40.6489C52.5457 40.6226 51.1164 40.4182 50.9458 40.3976C47.6914 39.9943 46.7742 40.512 45.5869 37.7716C44.3377 34.8887 45.2099 29.8975 45.2099 29.8975C45.2099 29.8975 39.1102 34.7592 35.2556 34.6448Z" fill="#C78C68"/>
<path fill-rule="evenodd" clip-rule="evenodd" d="M47.9784 48.6094C47.9784 48.6094 46.9824 53.4843 45.5194 55.5813C44.0563 57.6783 47.4307 60.3512 47.8302 57.1494C48.2316 53.9476 47.9765 48.6094 47.9765 48.6094H47.9784Z" fill="#AD7755"/>
<path fill-rule="evenodd" clip-rule="evenodd" d="M28.8873 110.899C28.8873 110.899 28.8461 113.906 30.2003 121.688C30.4554 123.158 30.7424 124.908 31.0406 126.777C32.6894 121.902 35.2103 114.742 35.9756 112.572C31.6577 111.013 29.2306 110.906 28.8873 110.899ZM34.8971 152.355C36.0581 160.124 37.6787 171.654 37.5343 174.515C37.3092 178.932 33.9986 186.405 33.9986 186.405C33.9986 186.405 32.7213 187.39 34.2256 188.635C35.7299 189.882 37.236 189.899 37.236 189.899L37.6206 189.353C37.6055 189.117 37.6487 188.959 37.6487 188.959C37.6487 188.959 37.6487 188.959 38.3221 183.374C38.9954 177.788 39.6669 175.548 38.5021 166.097C37.9826 161.875 36.5026 156.913 34.8971 152.354V152.355ZM44.6262 148.977C44.6863 146.982 44.6469 145.192 44.4312 143.979C43.5815 139.166 42.6343 138.098 42.6343 138.098C42.6343 138.098 43.2345 133.454 43.7597 128.198C40.9612 132.756 38.2864 136.937 38.2864 136.937C38.2864 136.937 40.1827 138.458 42.9663 143.845C43.8253 145.509 44.3355 147.222 44.6244 148.979L44.6262 148.977Z" fill="#AD7755"/>
<path fill-rule="evenodd" clip-rule="evenodd" d="M29.3582 54.465C30.0072 54.9864 31.5153 55.6223 34.9553 55.3597C39.4551 55.0165 43.0751 53.4034 44.2887 52.8013C46.3895 43.3966 49.8351 40.8981 51.3901 40.2398C52.2247 39.8872 52.5624 40.1723 52.7012 40.5005C52.688 40.5024 47.6293 41.0276 44.9658 53.227C45.3653 54.2643 46.2732 56.4082 47.7381 58.7266C49.7901 61.9715 48.2633 73.3588 48.2633 73.3588C48.2633 73.3588 49.8839 76.9639 52.0766 80.6515C54.2711 84.3391 58.8928 91.9169 57.3829 100.305C55.8748 108.693 49.3606 118.961 49.3606 118.961C49.3606 118.961 44.5007 116.094 38.3109 113.487C32.1211 110.88 28.8424 110.899 28.8424 110.899C28.8424 110.899 27.8258 90.2288 28.878 84.0559C30.0635 77.1046 28.8255 70.2527 27.8014 65.8448C27.8014 65.8448 23.4423 61.3844 28.7074 54.1067C28.743 54.043 28.7805 53.9773 28.8199 53.9117C30.0372 51.839 32.2111 48.686 31.6034 44.3325C31.5678 43.8411 32.2937 43.7567 32.3106 44.0774C32.8564 48.7535 30.7556 52.0754 29.4801 54.2512C29.437 54.3243 29.3976 54.3956 29.3582 54.4669V54.465Z" fill="#D5C1B5"/>
<path fill-rule="evenodd" clip-rule="evenodd" d="M35.9738 112.572C34.9571 115.451 30.8569 127.105 29.7953 130.566C28.5798 134.525 28.5292 135.366 29.9472 139.428C31.3633 143.491 37.3374 156.647 38.5022 166.099C39.667 175.55 38.9955 177.79 38.3221 183.376C37.6488 188.962 37.6488 188.962 37.6488 188.962C37.6488 188.962 37.0335 191.162 41.2163 191.494C45.3991 191.826 45.7198 189.614 45.6542 187.474C45.5885 185.334 46.0143 182.972 46.4851 180.774C46.9559 178.576 46.9015 177.334 45.8324 174.324C44.7632 171.313 44.5663 167.543 44.7164 161.346C44.8683 155.15 45.7517 149.231 42.9682 143.844C40.1847 138.457 38.2884 136.936 38.2884 136.936C38.2884 136.936 46.6633 124.153 49.3624 118.961C48.509 118.468 41.5089 114.834 38.3128 113.488C35.1147 112.141 36.7015 112.835 35.9756 112.572H35.9738Z" fill="#C78C68"/>
<path fill-rule="evenodd" clip-rule="evenodd" d="M34.0364 186.317C33.2524 186.895 31.6055 188.217 29.8911 190.237C27.5184 193.036 28.1655 193.174 28.8858 193.178C29.561 193.18 34.6329 193.521 36.1391 192.694C36.261 192.319 36.3866 191.955 36.5104 191.616C36.8012 190.817 37.0394 190.273 37.2251 189.901C37.1107 189.898 35.6664 189.834 34.2221 188.637C32.7178 187.39 33.9951 186.407 33.9951 186.407L34.0345 186.319L34.0364 186.317Z" fill="#BA9F8A"/>
<path fill-rule="evenodd" clip-rule="evenodd" d="M37.6148 189.261C37.4216 189.498 37.0652 190.096 36.51 191.615C35.606 194.095 34.5462 197.938 36.3863 197.805C38.2263 197.672 45.9072 195.114 46.1698 191.966C46.4343 188.819 47.1583 186.815 47.6272 184.368C48.0962 181.918 49.2666 180.408 49.3304 178.735C49.3885 177.188 48.1037 175.845 45.896 174.517C46.8995 177.388 46.9407 178.624 46.4812 180.774C46.0104 182.972 45.5846 185.334 45.6503 187.474C45.7159 189.614 45.3952 191.825 41.2124 191.493C37.99 191.238 37.6148 189.875 37.6129 189.261H37.6148Z" fill="#D4C1B5"/>
<path fill-rule="evenodd" clip-rule="evenodd" d="M48.9649 180.403C48.8936 180.936 48.781 181.592 48.6066 182.339C48.087 184.546 48.2765 187.832 48.2577 188.631C48.1489 188.827 47.2955 188.804 47.2974 188.669L47.3443 185.711C47.4455 185.272 47.5431 184.829 47.6312 184.37C47.9426 182.742 48.5653 181.528 48.9667 180.405L48.9649 180.403Z" fill="#A68C7A"/>
<path fill-rule="evenodd" clip-rule="evenodd" d="M39.5358 178.165C39.5358 178.165 38.3091 185.805 38.1685 187.748C38.0278 189.691 41.7529 177.613 39.5358 178.165Z" fill="#D49D7B"/>
<path fill-rule="evenodd" clip-rule="evenodd" d="M29.707 111.312C29.707 111.312 29.8177 114.176 30.4536 118.593C31.0913 123.008 31.5152 124.158 31.4495 123.789C31.3839 123.419 30.9018 111.683 30.9018 111.683C30.9018 111.683 30.4517 111.182 29.707 111.313V111.312Z" fill="#C78C68"/>
<path fill-rule="evenodd" clip-rule="evenodd" d="M36.6827 113.482L38.3315 114.275C38.3315 114.275 35.9662 118.518 33.1733 124.562C30.3804 130.603 30.0503 131.288 30.0503 131.288C30.0503 131.288 31.8885 126.253 36.6827 113.482Z" fill="#D49D7B"/>
<path fill-rule="evenodd" clip-rule="evenodd" d="M35.8668 112.535L35.561 113.746C39.7101 114.091 47.1303 117.728 48.5802 120.407C48.8728 119.88 49.1373 119.394 49.3605 118.963C48.8991 118.696 46.712 117.41 44.2323 116.166C42.1222 115.108 39.7795 114.108 38.3089 113.489C35.1109 112.143 36.5889 112.797 35.863 112.535H35.8668Z" fill="#AD7755"/>
<path fill-rule="evenodd" clip-rule="evenodd" d="M28.4521 89.8296C28.4521 89.8296 26.0831 99.4406 26.4601 104.452C26.8371 109.466 26.8427 108.123 27.4486 110.11C28.0544 112.096 28.3226 112.998 28.3226 112.998C28.3226 112.998 29.0917 114.011 29.0673 113.703C29.0429 113.396 28.6415 106 28.6415 106C28.6415 106 29.0542 107.234 29.4912 108.095C29.9282 108.956 30.1402 109.144 30.4103 109.012C30.6823 108.879 30.3897 107.399 30.0577 106.407C29.7257 105.413 29.8663 104.044 29.4893 102.731C29.1123 101.418 28.5384 100.645 28.5384 100.645C28.5421 96.4395 28.3395 94.4982 28.4521 89.8296Z" fill="#B37B58"/>
<path fill-rule="evenodd" clip-rule="evenodd" d="M56.0415 92.6074C56.5405 94.9652 56.698 97.5123 56.2253 100.14C54.7829 108.157 48.5594 117.969 48.5594 117.969C48.5594 117.969 48.1861 117.749 47.5146 117.376C48.7957 115.363 51.0559 111.361 53.6163 104.779C55.7208 99.3712 56.1259 95.269 56.0415 92.6074Z" fill="#B99E8A"/>
<path fill-rule="evenodd" clip-rule="evenodd" d="M49.1488 75.2177C49.8335 76.6113 50.4243 77.8643 51.6341 79.8975L51.7804 80.1433C50.7657 80.7529 49.8016 81.762 47.3932 86.9501C44.9848 92.1383 44.7897 95.2369 45.1255 98.1892C45.4612 101.142 45.5982 101.029 45.3206 104.083C45.043 107.136 44.3077 111.345 43.745 112.159C43.1804 112.973 42.7921 112.962 42.7921 112.962C42.7921 112.962 42.5633 114.585 42.0925 115.177L41.8111 115.044C41.7061 113.863 41.2015 108.247 41.0646 107.733C40.9108 107.159 40.5225 110.327 40.5225 110.327C40.5225 110.327 40.5113 110.736 40.5244 112.773C40.5301 113.634 40.5225 114.144 40.5113 114.446C40.0593 114.241 39.596 114.037 39.1252 113.832L38.8719 107.588C38.8719 107.588 38.6281 110.145 38.2004 111.75C38.0054 112.482 37.7315 112.904 37.4896 113.146L37.3151 113.077C37.2176 112.855 37.1688 112.613 37.1838 112.347C37.2964 110.256 37.0131 104.779 42.5802 91.0016C47.2581 79.423 46.2847 75.6285 49.1526 75.2158L49.1488 75.2177Z" fill="#A38976"/>
<path d="M31.896 93.731C31.8997 93.7385 33.0721 96.3794 39.8827 98.3283L39.7739 98.6659C32.7926 96.6702 32.0723 94.1661 32.0686 94.1586L31.896 93.7328V93.731ZM31.9185 100.187C31.9298 100.195 36.0957 102.706 40.1659 101.667L40.2653 102.006C36.0319 103.087 32.4737 100.812 32.4606 100.804L31.9204 100.185L31.9185 100.187Z" fill="#B99E8A"/>
<path fill-rule="evenodd" clip-rule="evenodd" d="M35.2554 34.6447C35.2554 34.6447 36.1144 36.5167 36.5515 38.76C36.5852 38.9363 36.6171 39.1051 36.6453 39.2646C37.6056 39.5328 39.0649 39.5647 40.6836 38.2742C42.4261 36.8862 43.9754 35.1268 44.917 33.9676C44.8739 31.82 45.2096 29.8955 45.2096 29.8955C45.2096 29.8955 39.1099 34.7573 35.2554 34.6429V34.6447Z" fill="#AD7755"/>
<path fill-rule="evenodd" clip-rule="evenodd" d="M35.2553 34.6449C35.2553 34.6449 35.6004 35.3989 35.9662 36.5225C37.5418 37.8411 39.3781 36.7944 41.2781 35.7009C43.1801 34.6055 44.7894 33.2194 44.9451 32.3941C45.022 30.9648 45.2077 29.8994 45.2077 29.8994C45.2077 29.8994 39.108 34.7612 35.2534 34.6468L35.2553 34.6449Z" fill="#784A2E"/>
<path fill-rule="evenodd" clip-rule="evenodd" d="M43.8141 15.7378C46.8302 18.1556 47.5617 21.2655 46.7064 24.8462C45.8511 28.4269 45.4797 30.1469 45.1083 31.1729C44.7351 32.1989 44.4406 33.0504 42.2385 34.4534C40.0346 35.8546 38.1852 36.7662 36.709 36.1978C35.2328 35.6295 33.8579 34.7854 33.1621 33.0486C32.4662 31.3117 31.9129 29.7717 31.5752 28.3012C31.2376 26.8307 31.6278 26.5024 31.6165 24.9343C31.6052 23.3681 31.4402 23.295 31.3351 21.8169C31.2732 20.9485 30.9094 19.0616 32.5975 16.7845C35.3622 13.0556 40.2484 12.8793 43.8141 15.7378Z" fill="#C78C68"/>
<path fill-rule="evenodd" clip-rule="evenodd" d="M46.8788 23.9328C47.1039 23.8165 47.2408 23.674 47.7266 23.8541C48.2124 24.0341 48.8427 25.3696 48.0136 27.0071C47.1846 28.6446 46.7982 29.4361 46.6068 29.7062C46.4174 29.9763 45.8397 30.2445 45.564 29.5805C46.0404 27.8624 46.3743 25.6041 46.8769 23.9347L46.8788 23.9328Z" fill="#C78C68"/>
<path fill-rule="evenodd" clip-rule="evenodd" d="M45.6711 29.8001C45.6167 29.7382 45.5979 29.7119 45.5566 29.6125C45.853 28.5471 46.4101 26.0862 46.7064 24.8464C47.0028 23.6066 46.7833 24.5088 46.8171 24.34C46.9878 24.2762 47.2035 24.2293 47.4642 24.2406C48.1995 24.2706 48.2407 25.7017 47.9763 26.347C47.7118 26.9922 47.7118 26.9922 47.7118 26.9922C47.7118 26.9922 47.9706 26.1538 47.9106 25.426C47.8506 24.6982 47.2279 24.7264 47.0609 24.9083C46.8959 25.0902 46.6202 25.5873 46.7402 26.1819C46.8621 26.7765 46.7289 27.5155 46.4213 27.7143C46.1681 27.8775 45.6917 29.1774 45.6692 29.802L45.6711 29.8001Z" fill="#AD7755"/>
<path fill-rule="evenodd" clip-rule="evenodd" d="M30.6676 45.145C30.2981 45.3157 29.9755 45.4695 29.7391 45.5896C28.6831 46.126 27.6834 47.4821 27.8616 50.0199C27.9722 51.5918 28.2611 53.0135 28.4636 53.867C28.4636 53.867 27.8109 50.9522 28.5237 48.1855C28.9795 46.4111 29.9961 45.5408 30.6676 45.145Z" fill="#D49D7B"/>
<path fill-rule="evenodd" clip-rule="evenodd" d="M37.0637 100.29C36.4598 100.947 36.0828 103.334 36.1334 105.456C36.184 107.577 36.0059 109.518 36.0059 109.518C36.0059 109.518 37.1407 110.287 37.4445 107.797C37.5758 106.726 37.2588 104.919 37.0844 103.901C36.8537 102.55 37.0637 100.292 37.0637 100.292V100.29Z" fill="#B37B58"/>
<path fill-rule="evenodd" clip-rule="evenodd" d="M52.7893 40.6562C53.7478 40.8437 54.9032 41.1739 55.676 41.7366C57.2141 42.8564 57.8781 43.7998 57.1935 48.2114C56.6026 52.021 55.3309 58.1864 54.1173 62.7086C53.4627 65.147 52.8081 67.8049 52.4592 69.7612C52.1103 71.7176 51.8721 75.1951 49.8933 80.4827C47.9144 85.7702 46.6165 87.8185 45.5604 90.9209C44.5044 94.0233 44.4819 94.0401 44.45 94.5878C44.4163 95.1355 44.5532 95.4619 44.3731 96.1353C44.1931 96.8087 44.3956 97.3507 44.5457 98.1535C44.6976 98.9563 45.2247 100.346 44.8927 102.935C44.5607 105.525 44.4238 106.684 44.3262 107.592C44.2287 108.5 44.1931 110.608 43.8855 111.647C43.5778 112.684 43.047 112.516 42.9476 111.578C42.8482 110.64 42.8895 108.71 42.8369 107.508C42.7844 106.303 42.8069 105.778 42.8069 105.778C42.8069 105.778 42.3343 109.306 42.3887 110.488C42.4431 111.67 42.398 115.142 41.7922 115.072C41.1863 115.003 40.8562 110.488 40.8318 109.648C40.8074 108.809 40.9725 106.765 40.9725 106.765C40.9725 106.765 40.7249 106.577 40.6311 107.151C40.5373 107.725 40.1566 110.647 40.1566 110.647C40.1566 110.647 40.1828 113.632 40.0759 114.592C39.969 115.552 39.7045 115.941 39.3125 115.909C38.9224 115.877 38.8136 115.446 38.6767 113.786C38.5397 112.127 38.5791 110.762 38.6204 110.143C38.6635 109.524 38.7423 106.898 38.7423 106.898C38.7423 106.898 38.4478 106.577 38.3878 107.074C38.3297 107.571 38.1496 109.353 38.1496 109.353C38.1496 109.353 37.9639 111.512 37.7032 112.351C37.4443 113.189 36.8648 113.437 36.7653 112.716C36.6659 111.996 36.7297 109.768 36.7635 109.31C36.7972 108.852 36.8685 105.416 36.7353 104.336C36.6022 103.255 36.5684 101.368 36.9041 100.579C38.4778 96.8893 38.6073 95.8258 39.7814 92.2264C40.4379 90.2156 42.006 86.7456 42.9739 81.4186C44.3131 74.0547 46.8584 69.4517 46.8584 69.2642C46.8584 68.9734 47.5956 49.5132 47.7494 47.4462C47.982 44.3231 50.7186 41.0426 52.7856 40.6543L52.7893 40.6562Z" fill="#C78C68"/>
<path fill-rule="evenodd" clip-rule="evenodd" d="M29.2812 54.9697C29.9302 55.4911 31.4383 56.127 34.8783 55.8644C39.3574 55.523 42.9625 53.9231 44.1948 53.3135C43.2082 54.0056 37.4124 56.6541 33.7079 56.5153C29.8683 56.3727 29.2812 54.9697 29.2812 54.9697Z" fill="#E0D0C4"/>
<path fill-rule="evenodd" clip-rule="evenodd" d="M31.1475 52.4111C31.1475 52.4111 32.1116 52.9907 32.6705 54.2174C32.8243 54.555 32.9181 54.8551 32.9725 55.114C33.1432 55.1177 33.3195 55.1177 33.5033 55.1177C33.2501 54.1593 32.6349 52.8519 31.1475 52.413V52.4111Z" fill="#D49D7B"/>
<path fill-rule="evenodd" clip-rule="evenodd" d="M39.5899 52.1338C39.5899 52.1338 38.5958 52.4545 37.6561 53.1598C37.0071 53.6456 36.4482 54.4747 36.1387 54.9961C36.3919 54.968 36.6414 54.9361 36.8889 54.9023C37.3166 54.1145 38.1775 52.8503 39.5918 52.1338H39.5899Z" fill="#D49D7B"/>
<path fill-rule="evenodd" clip-rule="evenodd" d="M34.55 55.3882C34.3211 54.5685 33.8879 53.6194 33.0757 52.751C33.0757 52.751 33.6196 53.9458 33.6309 55.422C33.9197 55.4182 34.2255 55.4088 34.55 55.3901V55.3882Z" fill="#AD7755"/>
<path d="M36.5576 28.6287C36.7123 28.6658 36.8594 28.5237 36.8861 28.3115C36.9128 28.0992 36.809 27.8971 36.6542 27.86C36.4995 27.823 36.3524 27.965 36.3257 28.1773C36.299 28.3896 36.4028 28.5917 36.5576 28.6287Z" fill="#D49D7B"/>
<path fill-rule="evenodd" clip-rule="evenodd" d="M38.322 28.646C38.322 28.646 38.5433 28.8448 38.3651 29.4019C38.1869 29.959 37.8062 29.7939 37.8062 29.7939C37.8062 29.7939 38.1888 30.1822 38.487 29.6983C38.7853 29.2125 38.5077 28.7735 38.322 28.6479V28.646Z" fill="#9E6B4C"/>
<path fill-rule="evenodd" clip-rule="evenodd" d="M35.5725 28.8447C35.5725 28.8447 35.4187 29.0098 35.4562 29.4093C35.4937 29.8107 35.7694 30.0245 35.8801 30.0095C35.9908 29.9945 35.6156 30.1446 35.4187 29.7038C35.2217 29.263 35.5744 28.8447 35.5744 28.8447H35.5725Z" fill="#9E6B4C"/>
<path fill-rule="evenodd" clip-rule="evenodd" d="M35.9078 29.661C35.9078 29.661 35.8459 29.3853 36.0691 29.4847C36.2923 29.586 36.3317 29.8073 36.5474 29.9536C36.765 30.0999 37.0388 30.0549 37.0595 29.8448C37.0801 29.6329 37.1251 29.3759 37.3652 29.4322C37.6072 29.4866 37.7891 29.7754 37.7891 29.7754C37.7891 29.7754 37.5771 29.5447 37.3558 29.5635C37.1345 29.5822 37.1063 29.7285 37.0444 29.9067C36.9807 30.0849 36.6787 30.1318 36.3842 29.8523C36.0878 29.571 35.9565 29.6291 35.9078 29.6629V29.661Z" fill="#78492B"/>
<path fill-rule="evenodd" clip-rule="evenodd" d="M34.6531 31.6866C34.4411 31.4315 34.3136 31.484 34.1879 31.5197C34.0604 31.5572 33.9159 31.1764 34.2123 31.2927C34.5086 31.4071 34.4355 31.6172 34.9963 31.4822C35.3189 31.4053 35.7672 31.1202 36.1799 31.0001C36.5025 30.9063 36.5569 31.1483 36.872 31.1164C37.1271 31.092 37.1796 30.9157 37.4047 30.9007C38.0443 30.8557 39.0328 31.4972 40.0175 31.304C40.3364 31.2421 40.4771 30.9476 40.5465 31.0508C40.6159 31.1539 40.4264 31.2627 40.2951 31.2965C40.1657 31.3302 40.1076 31.5591 39.6236 32.2324C39.211 32.8064 38.6877 33.6842 37.0502 33.6617C35.4671 33.6411 35.3321 32.5307 34.6512 31.6885L34.6531 31.6866Z" fill="#A8433E"/>
<path fill-rule="evenodd" clip-rule="evenodd" d="M38.6109 25.5848C38.6109 25.5848 37.478 23.9455 39.1399 23.6641C40.8036 23.3828 42.82 24.4069 42.6211 25.3204C42.4223 26.2338 40.1978 27.4755 38.6109 25.5848Z" fill="#B37B58"/>
<path fill-rule="evenodd" clip-rule="evenodd" d="M35.6021 31.8608C36.0297 31.9771 37.7141 31.8608 38.5957 31.7896C38.5957 31.7896 37.8829 32.3279 36.9507 32.3373C36.0185 32.3466 35.6021 31.8608 35.6021 31.8608Z" fill="white"/>
<path fill-rule="evenodd" clip-rule="evenodd" d="M38.003 24.0751C38.2337 24.0225 40.0531 23.3135 40.6365 23.0903C41.2179 22.8652 41.7075 22.9046 42.1239 23.1034C42.5403 23.3023 42.9773 23.5142 42.9773 23.5142C42.9773 23.5142 43.1893 23.4805 43.0692 23.3548C42.9511 23.2291 42.1895 22.7189 41.8332 22.567C41.4768 22.4151 40.1863 22.6139 38.9896 23.0228C38.9502 23.0359 37.4572 23.4186 38.0049 24.0751H38.003Z" fill="#413024"/>
<path fill-rule="evenodd" clip-rule="evenodd" d="M35.0396 23.9044C35.0396 23.9044 35.9099 24.5834 36.0656 25.3768C36.2213 26.1702 36.0112 27.7046 36.0112 27.7046C36.0112 27.7046 36.2269 26.2697 35.6379 25.3581C35.049 24.4465 34.0942 23.8481 34.0942 23.8481L35.0396 23.9063V23.9044Z" fill="#B37B58"/>
<path fill-rule="evenodd" clip-rule="evenodd" d="M38.2825 24.1294C38.2825 24.1294 37.5659 24.3976 37.4421 25.4161C37.3183 26.4346 37.3727 26.5865 37.3727 26.5865C37.3727 26.5865 37.7816 24.5345 38.2825 24.1294Z" fill="#B37B58"/>
<path fill-rule="evenodd" clip-rule="evenodd" d="M35.3604 25.5795C35.3604 25.5795 35.7655 24.3772 34.7996 23.8895C33.8317 23.4018 31.5959 24.4091 31.7666 25.3207C31.9373 26.2341 34.0043 27.4702 35.3623 25.5776L35.3604 25.5795Z" fill="#B37B58"/>
<path fill-rule="evenodd" clip-rule="evenodd" d="M31.6558 23.7507C31.6558 23.7507 32.0028 23.3868 32.4455 23.4731C32.8881 23.5593 34.8464 24.002 35.0114 24.0545C35.1765 24.1071 35.2159 24.0752 35.2159 24.0752C35.2159 24.0752 35.5272 23.6456 34.8464 23.4074C34.1655 23.1692 32.5711 23.0379 32.3798 23.0173C32.1885 22.9966 31.8171 23.2555 31.6914 23.4412C31.5658 23.6269 31.5564 23.8257 31.6558 23.7525V23.7507Z" fill="#413024"/>
<path fill-rule="evenodd" clip-rule="evenodd" d="M38.4365 24.9416C38.4365 24.9416 38.9467 24.2644 40.1978 24.1331C41.4489 24.0018 42.5124 24.9191 42.5124 24.9191C42.5124 24.9191 41.7846 23.9587 40.5035 23.9081C39.2224 23.8574 38.6053 24.6583 38.4365 24.9416Z" fill="#784A2E"/>
<path fill-rule="evenodd" clip-rule="evenodd" d="M38.8249 25.7854C38.3429 26.1643 38.1084 25.5753 38.5848 25.3202C38.5848 25.3202 39.1006 24.4687 40.3817 24.5493C41.6628 24.63 42.0586 25.2583 42.0586 25.2583C42.0586 25.2583 41.7454 26.0443 40.6687 26.1455C39.5921 26.2468 38.9618 25.9017 38.8249 25.7854Z" fill="white"/>
<path fill-rule="evenodd" clip-rule="evenodd" d="M38.8249 25.7858C38.3429 26.1646 38.1084 25.5757 38.5848 25.3206C38.5848 25.3206 38.6186 25.2643 38.6936 25.1799C38.7443 25.3844 38.9675 25.9133 39.9334 26.0333C40.9726 26.1628 41.8354 25.5926 41.931 25.1143C42.0192 25.1987 42.0567 25.2587 42.0567 25.2587C42.0567 25.2587 41.7435 26.0446 40.6668 26.1459C39.5902 26.2472 38.96 25.902 38.823 25.7858H38.8249Z" fill="#E3A986"/>
<path fill-rule="evenodd" clip-rule="evenodd" d="M38.585 25.3202C38.585 25.3202 39.1008 24.4687 40.3819 24.5493C41.663 24.63 42.0587 25.2583 42.0587 25.2583C42.0587 25.2583 42.0212 25.3503 41.9312 25.4759C40.8452 24.947 39.4309 25.0745 38.585 25.3202Z" fill="#ADA89F"/>
<path fill-rule="evenodd" clip-rule="evenodd" d="M39.9955 24.707C40.1156 24.6958 40.245 24.6939 40.3819 24.7033C40.6257 24.7183 40.8377 24.7539 41.0215 24.8008C41.1115 24.919 41.1641 25.0653 41.1641 25.2228C41.1641 25.6092 40.8508 25.9206 40.4663 25.9206C40.0799 25.9206 39.7686 25.6074 39.7686 25.2228C39.7686 25.0184 39.8567 24.8346 39.9955 24.707Z" fill="#625D54"/>
<path d="M40.4663 25.6128C40.6818 25.6128 40.8565 25.4381 40.8565 25.2227C40.8565 25.0072 40.6818 24.8325 40.4663 24.8325C40.2508 24.8325 40.0762 25.0072 40.0762 25.2227C40.0762 25.4381 40.2508 25.6128 40.4663 25.6128Z" fill="#413024"/>
<path d="M40.4702 25.2603C40.5417 25.2603 40.5997 25.2024 40.5997 25.1309C40.5997 25.0594 40.5417 25.0015 40.4702 25.0015C40.3988 25.0015 40.3408 25.0594 40.3408 25.1309C40.3408 25.2024 40.3988 25.2603 40.4702 25.2603Z" fill="white"/>
<path fill-rule="evenodd" clip-rule="evenodd" d="M38.626 25.2959C38.626 25.2959 39.1868 24.7407 40.2728 24.7951C41.3589 24.8476 42.0003 25.3728 42.0003 25.3728C42.0003 25.3728 42.3755 25.4966 42.7675 25.3147C43.1595 25.1327 43.2327 24.7613 43.2327 24.7613C43.2327 24.7613 43.1107 24.917 42.6606 24.9151C42.2104 24.9133 41.6984 24.5137 41.0362 24.3393C40.3741 24.1649 39.0199 24.223 38.626 25.2959Z" fill="#413024"/>
<path fill-rule="evenodd" clip-rule="evenodd" d="M32.0796 24.8289C32.0796 24.8289 32.7154 24.1818 33.7058 24.0786C34.6943 23.9773 35.1876 24.6544 35.2945 24.9377C35.4033 25.2209 35.3958 25.2209 35.3958 25.2209C35.3958 25.2209 35.0638 24.3881 34.0172 24.2418C32.9705 24.0955 32.1171 24.7914 32.0796 24.827V24.8289Z" fill="#784A2E"/>
<path fill-rule="evenodd" clip-rule="evenodd" d="M35.1313 25.7781C35.5814 26.157 35.8009 25.568 35.3563 25.3129C35.3563 25.3129 34.8743 24.4614 33.6795 24.542C32.4847 24.6227 32.1133 25.251 32.1133 25.251C32.1133 25.251 32.4059 26.0369 33.4113 26.1382C34.4166 26.2395 35.0037 25.8944 35.1331 25.7781H35.1313Z" fill="white"/>
<path fill-rule="evenodd" clip-rule="evenodd" d="M35.1317 25.7779C35.5818 26.1568 35.8013 25.5679 35.3568 25.3128C35.3568 25.3128 35.3249 25.2565 35.2555 25.1721C35.2086 25.3765 34.9985 25.9055 34.0963 26.0255C33.1266 26.155 32.32 25.5847 32.23 25.1064C32.1475 25.1909 32.1118 25.2509 32.1118 25.2509C32.1118 25.2509 32.4044 26.0368 33.4098 26.1381C34.4152 26.2394 35.0023 25.8942 35.1317 25.7779Z" fill="#E3A986"/>
<path fill-rule="evenodd" clip-rule="evenodd" d="M35.3549 25.3129C35.3549 25.3129 34.8728 24.4614 33.678 24.542C32.4832 24.6227 32.1118 25.251 32.1118 25.251C32.1118 25.251 32.1456 25.3429 32.2319 25.4686C33.029 24.9697 34.4489 24.9415 35.3549 25.3129Z" fill="#ADA89F"/>
<path fill-rule="evenodd" clip-rule="evenodd" d="M34.5855 24.6992C34.4655 24.688 34.3361 24.6861 34.1992 24.6955C33.9553 24.7105 33.7434 24.7461 33.5595 24.793C33.4695 24.9112 33.417 25.0575 33.417 25.215C33.417 25.6014 33.7302 25.9128 34.1147 25.9128C34.5011 25.9128 34.8125 25.5995 34.8125 25.215C34.8125 25.0106 34.7243 24.8268 34.5855 24.6992Z" fill="#625D54"/>
<path d="M34.1167 25.605C34.3322 25.605 34.5068 25.4303 34.5068 25.2148C34.5068 24.9994 34.3322 24.8247 34.1167 24.8247C33.9012 24.8247 33.7266 24.9994 33.7266 25.2148C33.7266 25.4303 33.9012 25.605 34.1167 25.605Z" fill="#413024"/>
<path d="M34.1128 25.2525C34.1843 25.2525 34.2422 25.1946 34.2422 25.1231C34.2422 25.0516 34.1843 24.9937 34.1128 24.9937C34.0413 24.9937 33.9834 25.0516 33.9834 25.1231C33.9834 25.1946 34.0413 25.2525 34.1128 25.2525Z" fill="white"/>
<path fill-rule="evenodd" clip-rule="evenodd" d="M35.3172 25.2886C35.3172 25.2886 34.8089 24.7503 33.7941 24.8028C32.7812 24.8553 32.166 25.3636 32.166 25.3636C31.7365 25.4612 31.7158 25.1236 31.7046 24.9116C31.8265 25.071 32.4717 24.5721 33.0232 24.4164C33.6403 24.242 34.9495 24.2138 35.319 25.2867L35.3172 25.2886Z" fill="#413024"/>
<path fill-rule="evenodd" clip-rule="evenodd" d="M32.2637 26.0332C32.8264 26.6578 34.31 26.7028 34.8221 26.0857C34.1412 27.0461 32.5675 26.7741 32.2637 26.0332Z" fill="#784A2E"/>
<path fill-rule="evenodd" clip-rule="evenodd" d="M39.061 26.0293C39.7025 26.6426 41.3944 26.6595 41.9796 26.033C41.2031 27.0065 39.408 26.7646 39.061 26.0293Z" fill="#784A2E"/>
<path fill-rule="evenodd" clip-rule="evenodd" d="M35.3885 32.6377C34.9646 31.9756 35.2028 31.9831 35.4486 32.1425C35.6924 32.302 36.0263 32.7596 37.2155 32.6377C38.4046 32.5177 38.9355 31.9306 39.1924 31.7974C39.4513 31.6642 39.682 31.7186 39.4644 32.1219C39.2468 32.5252 38.3071 33.5043 37.1423 33.4855C35.9775 33.4649 35.5086 32.7971 35.3885 32.6377Z" fill="#BD5A55"/>
<path fill-rule="evenodd" clip-rule="evenodd" d="M36.4953 32.7858C36.4953 32.7858 36.7804 32.9302 37.7764 32.6827C38.7705 32.4332 39.2132 32.0899 39.1194 32.2625C39.0237 32.4351 38.2059 33.3804 37.0111 33.3148C35.8163 33.251 35.9626 32.7258 36.4972 32.7858H36.4953Z" fill="#D4726F"/>
</svg>
