<svg width="85" height="212" viewBox="0 0 85 212" fill="none" xmlns="http://www.w3.org/2000/svg">
<path fill-rule="evenodd" clip-rule="evenodd" d="M34.7151 34.3133C35.6457 36.2528 37.0607 41.6209 35.2904 42.4627C33.7887 43.1755 30.5949 44.711 29.2984 45.3413C28.0018 45.9716 26.7772 47.5643 26.995 50.5444C27.2129 53.5246 28.0018 56.0415 28.0018 56.0415C28.0018 56.0415 47.7186 60.9866 50.6755 58.6473C53.6324 56.3059 57.3316 41.2296 53.478 40.6945C53.2876 40.667 51.7944 40.4639 51.6167 40.4428C48.2156 40.0409 47.2575 40.557 46.016 37.8159C44.7109 34.933 45.6225 29.9414 45.6225 29.9414C45.6225 29.9414 38.7422 34.4296 34.7151 34.3133Z" fill="#C78C68"/>
<path fill-rule="evenodd" clip-rule="evenodd" d="M48.5155 48.6535C48.5155 48.6535 47.4749 53.5287 45.9478 55.6248C44.4207 57.7229 47.9444 60.3943 48.3632 57.1921C48.782 53.9898 48.5155 48.6514 48.5155 48.6514V48.6535Z" fill="#AD7755"/>
<path fill-rule="evenodd" clip-rule="evenodd" d="M28.5685 110.944C28.5685 110.944 28.5262 113.952 29.9412 121.733C30.2077 123.205 30.508 124.955 30.8189 126.822C32.5427 121.947 35.176 114.787 35.9755 112.617C31.464 111.059 28.9281 110.951 28.5685 110.944ZM33.9006 148.366C35.1126 156.135 37.2805 170.875 37.088 174.513C36.8956 178.151 33.706 186.131 33.706 186.131C33.706 186.131 32.5745 187.436 34.146 188.682C35.7175 189.928 37.2911 189.947 37.2911 189.947L37.693 189.401C37.676 189.164 37.7226 189.006 37.7226 189.006C37.7226 189.006 37.7226 189.006 38.4269 183.42C38.7399 180.943 39.1439 178.61 39.2433 176.186C39.3681 173.14 39.1058 169.949 38.6151 166.144C37.7353 159.306 35.5779 152.924 33.9006 148.364V148.366ZM45.7197 151.691C45.7831 149.697 45.5864 147.281 45.1634 144.399C44.7404 141.516 42.9341 138.142 42.9341 138.142C42.9341 138.142 43.5602 133.497 44.1101 128.241C41.185 132.799 38.3909 136.981 38.3909 136.981C38.3909 136.981 41.3795 140.363 43.281 143.889C45.1846 147.415 45.4172 149.934 45.7197 151.689V151.691Z" fill="#AD7755"/>
<path fill-rule="evenodd" clip-rule="evenodd" d="M29.0612 54.5076C29.7402 55.0301 31.3138 55.6646 34.9094 55.4023C39.6113 55.0597 43.393 53.4459 44.6621 52.8431C46.8554 43.4373 50.4574 40.9415 52.0818 40.2816C52.9532 39.9284 53.3064 40.2139 53.4523 40.5418C53.4375 40.5439 48.152 41.0684 45.3706 53.2682C45.7873 54.3067 46.7348 56.4493 48.2662 58.7674C50.4109 62.0141 48.8161 73.3995 48.8161 73.3995C48.8161 73.3995 50.5082 77.0058 52.8009 80.6923C55.0937 84.3789 60.0979 92.1794 58.5666 101.89C57.0332 111.6 51.0581 119.697 51.0581 119.697C51.0581 119.697 44.8863 116.135 38.4183 113.527C31.9504 110.919 28.524 110.938 28.524 110.938C28.524 110.938 27.6145 90.9399 27.4284 84.6687C27.2 77.0121 27.439 74.0425 27.4686 70.8509C27.4791 69.7933 26.5422 66.5467 26.466 66.0158C26.466 66.0158 22.4093 61.4684 27.9085 54.1904C27.9466 54.1269 27.9847 54.0614 28.0248 53.9937C29.296 51.9209 32.0414 48.725 31.4069 44.3701C31.3709 43.8772 32.1281 43.7926 32.145 44.1162C32.714 48.7906 30.5206 52.1155 29.1881 54.2898C29.1437 54.3638 29.1014 54.4357 29.0612 54.5055V54.5076Z" fill="#D5C1B5"/>
<path fill-rule="evenodd" clip-rule="evenodd" d="M35.9735 112.618C34.9117 115.499 30.6266 127.151 29.5161 130.611C28.2471 134.57 28.1942 135.41 29.6748 139.473C31.1553 143.536 37.3969 156.692 38.6131 166.144C39.8293 175.597 39.1292 177.836 38.4249 183.422C37.7205 189.008 37.7205 189.008 37.7205 189.008C37.7205 189.008 37.0775 191.208 41.4494 191.54C45.8192 191.872 46.1534 189.662 46.0857 187.519C46.018 185.379 46.4622 183.016 46.955 180.819C47.4478 178.621 47.3907 177.38 46.2718 174.368C45.155 171.356 45.5654 167.718 45.724 161.523C45.8826 155.328 46.8069 149.408 43.8987 144.02C40.9904 138.633 39.8462 137.421 39.8462 137.421C39.8462 137.421 48.3615 124.718 51.1809 119.528C50.2905 119.035 41.7561 114.879 38.4164 113.532C35.0746 112.184 36.7328 112.878 35.9735 112.616V112.618Z" fill="#C78C68"/>
<path fill-rule="evenodd" clip-rule="evenodd" d="M33.7208 186.074C32.9022 186.654 31.7537 187.872 29.6196 190.283C27.4834 192.692 27.8176 193.221 28.5684 193.223C29.2749 193.225 34.5731 193.566 36.1489 192.739C36.2758 192.363 36.4069 191.999 36.5359 191.66C36.8405 190.861 37.088 190.317 37.2826 189.945C37.1641 189.941 35.6857 189.903 34.1459 188.68C32.6061 187.458 33.6806 186.161 33.6806 186.161L33.7208 186.072V186.074Z" fill="#BA9F8A"/>
<path fill-rule="evenodd" clip-rule="evenodd" d="M37.6886 189.306C37.4877 189.541 36.7855 189.725 36.024 191.726C35.2626 193.727 34.4843 197.984 36.4069 197.851C38.3295 197.718 46.3541 195.161 46.6312 192.011C46.9083 188.864 47.6633 186.861 48.154 184.412C48.6447 181.963 49.8673 180.453 49.9328 178.779C49.9942 177.231 48.6511 175.888 46.3456 174.562C47.3947 177.434 47.437 178.669 46.9569 180.821C46.4641 183.018 46.0199 185.381 46.0876 187.521C46.1553 189.662 45.8211 191.872 41.4513 191.542C38.0841 191.286 37.6928 189.922 37.6907 189.308L37.6886 189.306Z" fill="#D4C1B5"/>
<path fill-rule="evenodd" clip-rule="evenodd" d="M49.5478 180.448C49.4738 180.981 49.3575 181.637 49.1735 182.384C48.6299 184.592 48.8287 187.879 48.8097 188.676C48.6955 188.871 47.805 188.847 47.8071 188.712L47.8558 185.753C47.9615 185.315 48.0631 184.871 48.154 184.412C48.4797 182.783 49.1312 181.569 49.55 180.446L49.5478 180.448Z" fill="#A68C7A"/>
<path fill-rule="evenodd" clip-rule="evenodd" d="M39.6937 178.21C39.6937 178.21 38.412 185.85 38.2639 187.794C38.1158 189.737 42.0097 177.658 39.6937 178.21Z" fill="#D49D7B"/>
<path fill-rule="evenodd" clip-rule="evenodd" d="M29.4248 111.355C29.4248 111.355 29.539 114.221 30.2053 118.635C30.8715 123.051 31.3136 124.2 31.2459 123.83C31.1782 123.462 30.6727 111.723 30.6727 111.723C30.6727 111.723 30.2032 111.222 29.4248 111.353V111.355Z" fill="#C78C68"/>
<path fill-rule="evenodd" clip-rule="evenodd" d="M36.7137 113.527L38.4375 114.32C38.4375 114.32 35.967 118.563 33.0482 124.606C30.1294 130.648 29.7847 131.332 29.7847 131.332C29.7847 131.332 31.7052 126.298 36.7137 113.527Z" fill="#D49D7B"/>
<path fill-rule="evenodd" clip-rule="evenodd" d="M35.7533 112.542L35.5439 113.789C39.8799 114.136 48.852 118.292 50.3664 120.972C50.6731 120.446 50.9481 119.959 51.1829 119.528C50.7006 119.261 47.1959 117.453 44.6071 116.209C42.401 115.149 39.9518 114.16 38.4183 113.533C35.8379 112.478 36.5127 112.804 35.7533 112.542Z" fill="#AD7755"/>
<path fill-rule="evenodd" clip-rule="evenodd" d="M27.697 89.9712C27.697 89.9712 25.6411 99.4848 26.0324 104.498C26.4258 109.51 26.4322 108.167 27.0646 110.155C27.697 112.141 27.9762 113.045 27.9762 113.045C27.9762 113.045 28.8497 114.106 28.8243 113.8C28.799 113.493 28.3104 106.048 28.3104 106.048C28.3104 106.048 28.7419 107.283 29.1987 108.144C29.6556 109.005 29.8777 109.193 30.159 109.06C30.4424 108.927 30.1378 107.448 29.7909 106.454C29.4441 105.46 29.5921 104.091 29.1966 102.778C28.8032 101.465 28.2025 100.693 28.2025 100.693C27.9022 99.745 27.8789 93.6239 27.6949 89.9733L27.697 89.9712Z" fill="#B37B58"/>
<path fill-rule="evenodd" clip-rule="evenodd" d="M56.9421 92.6514C57.4624 95.0097 57.6274 97.5562 57.1324 100.185C55.6265 108.201 49.1226 118.013 49.1226 118.013C49.1226 118.013 48.7313 117.793 48.0312 117.421C49.3701 115.41 51.7305 111.406 54.4061 104.824C56.6058 99.4154 57.0288 95.3121 56.94 92.6514H56.9421Z" fill="#B99E8A"/>
<path fill-rule="evenodd" clip-rule="evenodd" d="M49.7385 75.2609C50.4555 76.6547 51.2 78.1205 52.4648 80.1552L52.689 80.5169C51.6294 81.126 50.4196 81.8071 47.9026 86.9933C45.3857 92.1816 45.1826 95.2801 45.5337 98.2328C45.8848 101.185 46.0286 101.073 45.7368 104.125C45.447 107.18 44.6792 111.386 44.0891 112.201C43.499 113.015 43.0929 113.005 43.0929 113.005C43.0929 113.005 42.8539 114.627 42.3632 115.219L42.0692 115.086C41.9592 113.903 41.4326 108.288 41.2887 107.774C41.128 107.201 40.7219 110.369 40.7219 110.369C40.7219 110.369 40.7092 110.777 40.724 112.816C40.7304 113.677 40.7219 114.187 40.7092 114.489C40.2376 114.286 39.7532 114.081 39.2604 113.876L38.996 107.632C38.996 107.632 38.7422 110.189 38.2938 111.795C38.0907 112.527 37.8031 112.947 37.5514 113.191L37.3695 113.121C37.268 112.901 37.2172 112.658 37.232 112.391C37.3505 110.299 37.0544 104.823 42.8708 91.0458C47.7588 79.4678 46.7414 75.6733 49.7385 75.2588V75.2609Z" fill="#A38976"/>
<path d="M31.7134 93.7744C31.7176 93.7829 32.9422 96.4246 40.0595 98.3726L39.9453 98.7089C32.6504 96.7123 31.8974 94.2101 31.8953 94.2017L31.7155 93.7744H31.7134ZM31.7366 100.232C31.7493 100.238 36.1022 102.751 40.3535 101.712L40.4571 102.053C36.0345 103.134 32.3141 100.858 32.3014 100.851L31.7366 100.234V100.232Z" fill="#B99E8A"/>
<path fill-rule="evenodd" clip-rule="evenodd" d="M34.5645 34.6876C34.5645 34.6876 35.5184 36.5595 36.0048 38.8036C36.0429 38.9792 36.0789 39.1484 36.1085 39.3091C37.1745 39.5777 38.7967 39.6094 40.5945 38.3192C42.5298 36.9317 44.2515 35.172 45.2985 34.0129C45.2498 31.864 45.6242 29.9414 45.6242 29.9414C45.6242 29.9414 38.8475 34.804 34.5645 34.6876Z" fill="#AD7755"/>
<path fill-rule="evenodd" clip-rule="evenodd" d="M34.5645 34.6873C34.5645 34.6873 34.9494 35.4403 35.3534 36.5655C37.1025 37.8832 39.1436 36.8384 41.2566 35.7427C43.3695 34.6471 45.1589 33.2618 45.3323 32.4348C45.4191 31.005 45.6242 29.939 45.6242 29.939C45.6242 29.939 38.8475 34.8015 34.5645 34.6852V34.6873Z" fill="#784A2E"/>
<path fill-rule="evenodd" clip-rule="evenodd" d="M43.9495 15.7807C47.0882 18.1983 47.8497 21.3095 46.9592 24.8904C46.0688 28.4712 45.6838 30.1908 45.2968 31.2166C44.9097 32.2424 44.603 33.0948 42.3103 34.4971C40.0175 35.8994 38.0928 36.811 36.5573 36.242C35.0217 35.6731 33.5898 34.8291 32.8664 33.0927C32.1431 31.3562 31.5678 29.8164 31.2167 28.3464C30.8656 26.8764 31.2696 26.5465 31.259 24.9792C31.2484 23.4119 31.075 23.34 30.965 21.8616C30.9015 20.9923 30.5208 19.1077 32.2785 16.8277C35.155 13.0988 40.2396 12.9232 43.9495 15.7807Z" fill="#C78C68"/>
<path fill-rule="evenodd" clip-rule="evenodd" d="M47.0141 23.9768C47.2383 23.8605 47.507 23.7167 47.9934 23.8965C48.4799 24.0763 49.1102 25.413 48.2811 27.0501C47.452 28.6871 47.0649 29.4803 46.8745 29.7489C46.6842 30.0175 45.9524 30.2882 45.6753 29.6241C45.9714 28.5581 46.515 26.1998 46.828 24.8906C47.141 23.5813 46.9634 24.2793 47.012 23.979L47.0141 23.9768Z" fill="#C78C68"/>
<path fill-rule="evenodd" clip-rule="evenodd" d="M45.9352 29.8439C45.8802 29.7825 45.8611 29.755 45.8188 29.6556C46.115 28.5896 46.6733 26.1298 46.9695 24.8904C47.2656 23.6509 47.0477 24.5519 47.0794 24.3849C47.2486 24.3214 47.4665 24.2749 47.7266 24.2854C48.4606 24.3151 48.5029 25.747 48.2385 26.3921C47.9741 27.0372 47.9741 27.0372 47.9741 27.0372C47.9741 27.0372 48.2322 26.1996 48.1729 25.472C48.1116 24.7444 47.4898 24.7719 47.3248 24.9538C47.1598 25.1357 46.8827 25.6328 47.0054 26.2271C47.126 26.8214 46.9948 27.5617 46.686 27.7605C46.4322 27.9234 45.9563 29.2242 45.9352 29.8481V29.8439Z" fill="#AD7755"/>
<path fill-rule="evenodd" clip-rule="evenodd" d="M30.4278 45.189C30.0407 45.3603 29.7044 45.5126 29.457 45.6331C28.3529 46.1704 27.3102 47.5261 27.4963 50.0642C27.6105 51.6357 27.913 53.0571 28.1266 53.9116C28.1266 53.9116 27.4455 50.997 28.1879 48.2305C28.6659 46.4559 29.7277 45.5866 30.4278 45.189Z" fill="#D49D7B"/>
<path fill-rule="evenodd" clip-rule="evenodd" d="M37.1111 100.333C36.4808 100.989 36.0853 103.377 36.1381 105.498C36.191 107.619 36.0049 109.561 36.0049 109.561C36.0049 109.561 37.1914 110.331 37.5087 107.839C37.6441 106.767 37.3141 104.961 37.1322 103.943C36.8911 102.594 37.1111 100.335 37.1111 100.335V100.333Z" fill="#B37B58"/>
<path fill-rule="evenodd" clip-rule="evenodd" d="M53.5433 40.7008C54.5459 40.8891 55.7536 41.219 56.5594 41.7817C58.1669 42.9005 59.1039 44.417 58.389 48.8291C57.7714 52.6384 56.7307 58.5839 55.4617 63.1059C54.7764 65.5446 54.0932 68.2033 53.7294 70.1576C53.3657 72.114 52.9173 75.3268 50.8508 80.6145C48.7844 85.9023 47.0966 87.8629 45.9925 90.9657C44.8884 94.0686 44.8673 94.0855 44.8313 94.6333C44.7953 95.1811 44.9392 95.5089 44.7509 96.1815C44.5627 96.8541 44.7742 97.3977 44.9307 98.1993C45.0893 99.0009 45.6414 100.391 45.2945 102.982C44.9476 105.573 44.8038 106.729 44.7023 107.639C44.5986 108.546 44.5627 110.655 44.2412 111.694C43.9197 112.732 43.3634 112.561 43.2598 111.624C43.1562 110.687 43.1985 108.756 43.1435 107.552C43.0885 106.349 43.1117 105.824 43.1117 105.824C43.1117 105.824 42.6189 109.352 42.6739 110.534C42.731 111.717 42.6824 115.188 42.05 115.12C41.4176 115.05 41.0728 110.534 41.0474 109.697C41.022 108.857 41.1955 106.814 41.1955 106.814C41.1955 106.814 40.9374 106.628 40.838 107.201C40.7386 107.774 40.3431 110.697 40.3431 110.697C40.3431 110.697 40.3706 113.682 40.2585 114.642C40.1485 115.602 39.8693 115.989 39.4611 115.958C39.0529 115.926 38.9408 115.494 38.797 113.834C38.6531 112.176 38.6933 110.809 38.7377 110.192C38.7822 109.572 38.8647 106.945 38.8647 106.945C38.8647 106.945 38.5559 106.626 38.4945 107.123C38.4332 107.62 38.2449 109.403 38.2449 109.403C38.2449 109.403 38.0503 111.56 37.7796 112.4C37.5089 113.24 36.904 113.485 36.7982 112.766C36.6946 112.047 36.7601 109.817 36.7961 109.358C36.8321 108.902 36.9061 105.465 36.7665 104.384C36.629 103.303 36.5909 101.416 36.9442 100.625C38.5876 96.9366 38.7229 95.8727 39.9497 92.2729C40.635 90.2614 42.2742 86.7906 43.2852 81.4648C44.6832 74.1001 47.344 69.4977 47.344 69.3094C47.344 69.0197 48.1139 49.5588 48.2747 47.4903C48.5179 44.3663 51.3775 41.0858 53.537 40.6987L53.5433 40.7008Z" fill="#C78C68"/>
<path fill-rule="evenodd" clip-rule="evenodd" d="M28.981 55.0135C29.6599 55.536 31.2335 56.1705 34.8292 55.9082C39.5098 55.5677 43.2768 53.9666 44.5628 53.3574C43.5327 54.0491 37.4772 56.6971 33.6066 56.5597C29.5943 56.4158 28.981 55.0135 28.981 55.0135Z" fill="#E0D0C4"/>
<path fill-rule="evenodd" clip-rule="evenodd" d="M30.9312 52.4541C30.9312 52.4541 31.94 53.0336 32.5238 54.2604C32.6846 54.5988 32.7818 54.8991 32.839 55.1572C33.0166 55.1614 33.2027 55.1614 33.3931 55.1614C33.1287 54.2033 32.4857 52.8962 30.9312 52.4562V52.4541Z" fill="#D49D7B"/>
<path fill-rule="evenodd" clip-rule="evenodd" d="M39.7509 52.1769C39.7509 52.1769 38.7124 52.4984 37.7289 53.2027C37.0521 53.6892 36.4662 54.5183 36.1426 55.0386C36.407 55.0111 36.6692 54.9794 36.9273 54.9434C37.3736 54.1545 38.2746 52.8897 39.7509 52.1748V52.1769Z" fill="#D49D7B"/>
<path fill-rule="evenodd" clip-rule="evenodd" d="M34.4866 55.4319C34.2476 54.6113 33.7949 53.6637 32.9468 52.7944C32.9468 52.7944 33.5157 53.9873 33.5263 55.4658C33.8288 55.4615 34.1481 55.451 34.4866 55.4341V55.4319Z" fill="#AD7755"/>
<path d="M36.3817 28.671C36.5369 28.7082 36.6842 28.5667 36.7108 28.3551C36.7374 28.1434 36.6333 27.9418 36.4781 27.9046C36.323 27.8675 36.1757 28.009 36.1491 28.2206C36.1224 28.4322 36.2266 28.6339 36.3817 28.671Z" fill="#D49D7B"/>
<path fill-rule="evenodd" clip-rule="evenodd" d="M38.1455 28.6909C38.1455 28.6909 38.3676 28.8897 38.1878 29.446C38.008 30.0023 37.6294 29.8373 37.6294 29.8373C37.6294 29.8373 38.0122 30.2265 38.3105 29.74C38.6087 29.2556 38.3316 28.8157 38.1455 28.6909Z" fill="#9E6B4C"/>
<path fill-rule="evenodd" clip-rule="evenodd" d="M35.3959 28.8877C35.3959 28.8877 35.2415 29.0527 35.2796 29.4524C35.3176 29.8522 35.5926 30.0679 35.7026 30.0531C35.8126 30.0383 35.4382 30.1885 35.2415 29.7464C35.0448 29.3044 35.3959 28.8877 35.3959 28.8877Z" fill="#9E6B4C"/>
<path fill-rule="evenodd" clip-rule="evenodd" d="M35.7324 29.7044C35.7324 29.7044 35.671 29.4273 35.8931 29.5288C36.1152 29.6303 36.1554 29.8524 36.3711 29.9984C36.589 30.1443 36.8639 30.0999 36.883 29.8884C36.9041 29.6769 36.9485 29.4188 37.1897 29.4738C37.4308 29.5288 37.6127 29.8165 37.6127 29.8165C37.6127 29.8165 37.4012 29.5859 37.1812 29.605C36.9591 29.624 36.9316 29.7699 36.8703 29.9476C36.8068 30.1253 36.5044 30.1739 36.2104 29.8926C35.9143 29.6113 35.7831 29.6705 35.7324 29.7022V29.7044Z" fill="#78492B"/>
<path fill-rule="evenodd" clip-rule="evenodd" d="M34.4779 31.7301C34.2664 31.4763 34.1395 31.5271 34.0126 31.5652C33.8857 31.6011 33.7418 31.2225 34.0358 31.3367C34.332 31.4531 34.26 31.6603 34.8205 31.525C35.142 31.4467 35.5925 31.1633 36.005 31.0427C36.3265 30.9476 36.3836 31.1908 36.6966 31.1591C36.9525 31.1337 37.0054 30.9581 37.2296 30.9433C37.8705 30.8968 38.8582 31.5398 39.8417 31.3473C40.159 31.2839 40.3028 30.9899 40.3705 31.0935C40.4403 31.1971 40.2499 31.305 40.1209 31.3389C39.9919 31.3727 39.9327 31.6011 39.4483 32.2737C39.0359 32.849 38.5135 33.7268 36.8764 33.7035C35.2922 33.6824 35.1589 32.5719 34.4779 31.7301Z" fill="#A8433E"/>
<path fill-rule="evenodd" clip-rule="evenodd" d="M38.4355 25.6285C38.4355 25.6285 37.3018 23.9893 38.9643 23.708C40.6267 23.4267 42.6445 24.4525 42.4457 25.3641C42.2469 26.2778 40.0218 27.5194 38.4355 25.6285Z" fill="#B37B58"/>
<path fill-rule="evenodd" clip-rule="evenodd" d="M35.4258 31.9039C35.8551 32.0203 37.5387 31.9039 38.4186 31.832C38.4186 31.832 37.7058 32.3714 36.7731 32.3798C35.8403 32.3883 35.4258 31.9039 35.4258 31.9039Z" fill="white"/>
<path fill-rule="evenodd" clip-rule="evenodd" d="M37.8265 24.1182C38.057 24.0653 39.8781 23.3568 40.4598 23.1326C41.0414 22.9084 41.5321 22.9464 41.9488 23.1453C42.3654 23.3441 42.8011 23.5556 42.8011 23.5556C42.8011 23.5556 43.0127 23.5217 42.8942 23.397C42.7758 23.2722 42.0143 22.7624 41.6569 22.6101C41.2994 22.4579 40.0092 22.6567 38.8121 23.067C38.7719 23.0797 37.2808 23.4625 37.8265 24.1182Z" fill="#413024"/>
<path fill-rule="evenodd" clip-rule="evenodd" d="M34.8629 23.9468C34.8629 23.9468 35.7322 24.6257 35.8887 25.4189C36.0453 26.212 35.8337 27.7454 35.8337 27.7454C35.8337 27.7454 36.0495 26.3114 35.4615 25.3998C34.8735 24.4882 33.9175 23.8896 33.9175 23.8896L34.8629 23.9468Z" fill="#B37B58"/>
<path fill-rule="evenodd" clip-rule="evenodd" d="M38.1078 24.1733C38.1078 24.1733 37.3908 24.442 37.2681 25.4614C37.1455 26.4809 37.1983 26.6311 37.1983 26.6311C37.1983 26.6311 37.6087 24.5794 38.1078 24.1733Z" fill="#B37B58"/>
<path fill-rule="evenodd" clip-rule="evenodd" d="M35.1845 25.6221C35.1845 25.6221 35.5906 24.4186 34.6219 23.9322C33.6553 23.4457 31.4176 24.4504 31.5889 25.3641C31.7581 26.2778 33.8267 27.513 35.1845 25.6221Z" fill="#B37B58"/>
<path fill-rule="evenodd" clip-rule="evenodd" d="M31.4811 23.7945C31.4811 23.7945 31.8279 23.4307 32.2721 23.5174C32.7142 23.6041 34.6727 24.0462 34.8377 24.0991C35.0027 24.1519 35.0429 24.1181 35.0429 24.1181C35.0429 24.1181 35.3538 23.6887 34.6727 23.4497C33.9917 23.2107 32.3969 23.0796 32.2044 23.0606C32.0119 23.0415 31.6418 23.2996 31.517 23.4836C31.3922 23.6697 31.3817 23.8664 31.4811 23.7945Z" fill="#413024"/>
<path fill-rule="evenodd" clip-rule="evenodd" d="M38.2622 24.9853C38.2622 24.9853 38.7719 24.3085 40.022 24.1774C41.2741 24.0462 42.3359 24.962 42.3359 24.962C42.3359 24.962 41.6083 24.0018 40.3286 23.951C39.049 23.9003 38.4293 24.6998 38.2622 24.9832V24.9853Z" fill="#784A2E"/>
<path fill-rule="evenodd" clip-rule="evenodd" d="M38.6492 25.8293C38.1669 26.2079 37.9321 25.6199 38.408 25.364C38.408 25.364 38.9241 24.5137 40.2037 24.592C41.4834 24.6724 41.881 25.3006 41.881 25.3006C41.881 25.3006 41.568 26.0874 40.4914 26.1889C39.4148 26.2904 38.7845 25.9457 38.647 25.8293H38.6492Z" fill="white"/>
<path fill-rule="evenodd" clip-rule="evenodd" d="M38.6492 25.8292C38.1669 26.2078 37.9321 25.6198 38.408 25.3639C38.408 25.3639 38.4419 25.3067 38.5159 25.2243C38.5667 25.4294 38.7909 25.9582 39.7575 26.0788C40.796 26.2078 41.6589 25.6388 41.7562 25.1587C41.845 25.2433 41.8831 25.3025 41.8831 25.3025C41.8831 25.3025 41.5701 26.0893 40.4935 26.1909C39.4169 26.2924 38.7866 25.9476 38.6492 25.8313V25.8292Z" fill="#E3A986"/>
<path fill-rule="evenodd" clip-rule="evenodd" d="M38.4103 25.364C38.4103 25.364 38.9264 24.5137 40.206 24.592C41.4856 24.6724 41.8833 25.3006 41.8833 25.3006C41.8833 25.3006 41.8473 25.3936 41.7543 25.5184C40.6671 24.9896 39.2542 25.1187 38.4082 25.3619L38.4103 25.364Z" fill="#ADA89F"/>
<path fill-rule="evenodd" clip-rule="evenodd" d="M39.8188 24.7507C39.9393 24.7401 40.0683 24.738 40.2058 24.7464C40.4512 24.7612 40.6627 24.7972 40.8446 24.8437C40.9334 24.9622 40.9863 25.1081 40.9863 25.2667C40.9863 25.6517 40.6733 25.9647 40.2883 25.9647C39.9034 25.9647 39.5903 25.6517 39.5903 25.2667C39.5903 25.0616 39.6792 24.8776 39.8188 24.7507Z" fill="#625D54"/>
<path d="M40.2902 25.6581C40.5063 25.6581 40.6815 25.4829 40.6815 25.2668C40.6815 25.0507 40.5063 24.8755 40.2902 24.8755C40.0741 24.8755 39.8989 25.0507 39.8989 25.2668C39.8989 25.4829 40.0741 25.6581 40.2902 25.6581Z" fill="#413024"/>
<path d="M40.2926 25.3049C40.3639 25.3049 40.4216 25.2472 40.4216 25.1759C40.4216 25.1046 40.3639 25.0469 40.2926 25.0469C40.2213 25.0469 40.1636 25.1046 40.1636 25.1759C40.1636 25.2472 40.2213 25.3049 40.2926 25.3049Z" fill="white"/>
<path fill-rule="evenodd" clip-rule="evenodd" d="M38.4502 25.3383C38.4502 25.3383 39.0107 24.7841 40.0978 24.837C41.1829 24.8899 41.8259 25.4144 41.8259 25.4144C41.8259 25.4144 42.2002 25.5392 42.5936 25.3573C42.987 25.1754 43.059 24.8053 43.059 24.8053C43.059 24.8053 42.9363 24.9618 42.4858 24.9597C42.0353 24.9576 41.5234 24.5578 40.8614 24.3823C40.1994 24.2067 38.8457 24.266 38.4502 25.3383Z" fill="#413024"/>
<path fill-rule="evenodd" clip-rule="evenodd" d="M31.9043 24.8733C31.9043 24.8733 32.5409 24.2261 33.5308 24.1245C34.5207 24.023 35.0114 24.6998 35.1213 24.9833C35.2292 25.2667 35.2229 25.2667 35.2229 25.2667C35.2229 25.2667 34.8908 24.4333 33.8438 24.2874C32.7969 24.1415 31.9445 24.8373 31.9064 24.8733H31.9043Z" fill="#784A2E"/>
<path fill-rule="evenodd" clip-rule="evenodd" d="M34.9562 25.823C35.4067 26.2016 35.6267 25.6115 35.1804 25.3577C35.1804 25.3577 34.6982 24.5074 33.5031 24.5857C32.3081 24.666 31.938 25.2942 31.938 25.2942C31.938 25.2942 32.2299 26.081 33.2345 26.1825C34.2392 26.2841 34.8272 25.9393 34.9562 25.823Z" fill="white"/>
<path fill-rule="evenodd" clip-rule="evenodd" d="M34.9564 25.8228C35.4069 26.2014 35.6269 25.6113 35.1806 25.3575C35.1806 25.3575 35.1488 25.3004 35.079 25.2179C35.0325 25.4231 34.8231 25.9518 33.92 26.0724C32.9492 26.2014 32.1433 25.6325 32.0545 25.1523C31.972 25.2369 31.936 25.2962 31.936 25.2962C31.936 25.2962 32.2279 26.083 33.2326 26.1845C34.2372 26.286 34.8252 25.9413 34.9543 25.8249L34.9564 25.8228Z" fill="#E3A986"/>
<path fill-rule="evenodd" clip-rule="evenodd" d="M35.1804 25.3577C35.1804 25.3577 34.6982 24.5074 33.5031 24.5857C32.3081 24.666 31.938 25.2942 31.938 25.2942C31.938 25.2942 31.9718 25.3873 32.0585 25.5121C32.8559 25.0129 34.2752 24.9854 35.1825 25.3555L35.1804 25.3577Z" fill="#ADA89F"/>
<path fill-rule="evenodd" clip-rule="evenodd" d="M34.4107 24.7424C34.2901 24.7318 34.1611 24.7297 34.0236 24.7381C33.7783 24.7529 33.5668 24.7889 33.3849 24.8354C33.296 24.9539 33.2432 25.0998 33.2432 25.2584C33.2432 25.6434 33.5562 25.9564 33.9411 25.9564C34.3261 25.9564 34.6391 25.6434 34.6391 25.2584C34.6391 25.0533 34.5503 24.8693 34.4107 24.7424Z" fill="#625D54"/>
<path d="M33.9411 25.6498C34.1572 25.6498 34.3324 25.4746 34.3324 25.2585C34.3324 25.0424 34.1572 24.8672 33.9411 24.8672C33.725 24.8672 33.5498 25.0424 33.5498 25.2585C33.5498 25.4746 33.725 25.6498 33.9411 25.6498Z" fill="#413024"/>
<path d="M33.9371 25.2966C34.0084 25.2966 34.0661 25.2389 34.0661 25.1676C34.0661 25.0963 34.0084 25.0386 33.9371 25.0386C33.8659 25.0386 33.8081 25.0963 33.8081 25.1676C33.8081 25.2389 33.8659 25.2966 33.9371 25.2966Z" fill="white"/>
<path fill-rule="evenodd" clip-rule="evenodd" d="M35.1423 25.3324C35.1423 25.3324 34.6326 24.7951 33.6195 24.848C32.6064 24.9009 31.9909 25.4085 31.9909 25.4085C31.5615 25.5058 31.5404 25.1674 31.5298 24.9559C31.6503 25.1145 32.2976 24.6175 32.8475 24.461C33.4651 24.2875 34.7743 24.2579 35.1423 25.3324Z" fill="#413024"/>
<path fill-rule="evenodd" clip-rule="evenodd" d="M32.0879 26.0767C32.6505 26.7006 34.1332 26.745 34.6471 26.1295C33.9661 27.0898 32.3925 26.8169 32.0879 26.0767Z" fill="#784A2E"/>
<path fill-rule="evenodd" clip-rule="evenodd" d="M38.8857 26.0728C39.5287 26.6861 41.2187 26.703 41.8046 26.077C41.0283 27.0499 39.2326 26.8088 38.8857 26.0728Z" fill="#784A2E"/>
<path fill-rule="evenodd" clip-rule="evenodd" d="M35.2121 32.6824C34.789 32.0204 35.0259 32.0288 35.2713 32.1853C35.5166 32.344 35.8487 32.803 37.0374 32.6824C38.226 32.5618 38.7569 31.9738 39.015 31.8427C39.273 31.7095 39.5036 31.7623 39.2857 32.1663C39.0678 32.5703 38.1287 33.5496 36.9633 33.5284C35.8 33.5094 35.3284 32.841 35.2099 32.6803L35.2121 32.6824Z" fill="#BD5A55"/>
<path fill-rule="evenodd" clip-rule="evenodd" d="M36.3202 32.8303C36.3202 32.8303 36.6057 32.9763 37.5998 32.7267C38.5939 32.4771 39.036 32.1345 38.9429 32.3079C38.8477 32.4792 38.0292 33.4247 36.8342 33.3612C35.6391 33.2956 35.7851 32.7732 36.3202 32.8324V32.8303Z" fill="#D4726F"/>
</svg>
