<svg width="85" height="212" viewBox="0 0 85 212" fill="none" xmlns="http://www.w3.org/2000/svg">
<path fill-rule="evenodd" clip-rule="evenodd" d="M36.1237 34.9203C36.1237 34.9203 36.9258 36.7873 37.3407 39.0277C37.7556 41.2682 37.3131 42.3884 35.7503 43.1491C34.2014 43.8959 31.9886 44.9331 30.8269 45.5555C29.6651 46.1916 27.9502 47.4916 28.1439 50.4651C28.3375 53.4385 29.6651 56.246 29.6651 56.246C29.6651 56.246 47.2983 61.1833 49.9536 58.846C52.5951 56.5087 55.9143 41.448 52.4568 40.9224C52.2909 40.8948 50.9494 40.6873 50.7972 40.6735C49.926 40.5767 46.8972 40.7841 45.7908 38.0458C44.6291 35.1692 45.4451 30.1904 45.4451 30.1904C45.4451 30.1904 39.7471 35.0447 36.1375 34.9341L36.1237 34.9203Z" fill="#C78C68"/>
<path fill-rule="evenodd" clip-rule="evenodd" d="M48.0175 48.8605C48.0175 48.8605 47.0908 53.7286 45.7217 55.817C44.3525 57.9053 47.5057 60.5744 47.8791 57.3797C48.2526 54.185 48.0175 48.8467 48.0175 48.8467V48.8605Z" fill="#AD7755"/>
<path fill-rule="evenodd" clip-rule="evenodd" d="M29.8449 111.068C29.8449 111.068 29.6375 113.958 30.3843 118.577C31.1311 123.196 31.9056 125.05 32.1822 126.917C33.7173 122.048 36.0822 114.898 36.8014 112.727C32.7631 111.164 30.1769 111.068 29.8449 111.054V111.068ZM35.7918 152.46C36.8705 160.219 38.3918 171.726 38.2535 174.588C38.0461 179 34.9482 186.468 34.9482 186.468C34.9482 186.468 33.7588 187.45 35.1556 188.695C36.5663 189.94 37.9631 189.953 37.9631 189.953L38.3227 189.414C38.3088 189.179 38.3503 189.027 38.3503 189.027C38.3503 189.027 38.3503 189.027 38.9865 183.453C39.6227 177.88 40.245 175.639 39.1525 166.207C38.6684 161.989 37.2854 157.038 35.778 152.488L35.7918 152.46ZM45.0578 150.275C45.1132 148.284 45.3344 146.818 44.8366 143.803C44.3387 140.788 43.094 140.041 42.3472 137.275C41.6004 134.495 45.2653 129.447 45.1823 125.202C44.878 124.303 37.4929 134.219 38.5025 136.999C39.512 139.778 41.6419 140.442 43.3429 143.969C45.044 147.496 44.7951 148.533 45.0717 150.289L45.0578 150.275Z" fill="#AD7755"/>
<path fill-rule="evenodd" clip-rule="evenodd" d="M30.6194 54.7106C31.2279 55.2362 32.6386 55.8723 35.8471 55.6096C40.0514 55.2638 43.4397 53.6595 44.5738 53.051C46.5376 43.6605 49.76 41.1711 51.2121 40.5073C51.9866 40.1477 52.3047 40.4382 52.443 40.7701C52.4292 40.7701 47.6993 41.2956 45.21 53.4798C45.5834 54.517 46.427 56.6606 47.7962 58.9702C49.7185 62.2064 48.294 73.5884 48.294 73.5884C48.294 73.5884 49.8153 77.1842 51.8622 80.8768C53.909 84.5556 58.2377 92.1205 56.8271 100.501C55.4164 108.882 49.3313 119.13 49.3313 119.13C49.3313 119.13 44.7951 116.268 39.0003 113.668C33.2194 111.068 29.8588 111.081 29.8588 111.081C29.8588 111.081 29.7205 109.09 29.679 106.393C29.5683 99.9621 29.596 88.6216 30.4673 84.3205C31.1726 80.8768 31.3109 79.563 31.3386 77.0874C31.3801 73.865 30.329 74.6672 29.9279 71.2927C29.4024 66.7426 29.1673 66.0926 29.1673 66.0926C29.1673 66.0926 25.0874 61.6394 30.0109 54.3649C30.0386 54.2957 30.08 54.2404 30.1215 54.1713C31.2556 52.0968 33.2886 48.9574 32.7216 44.601C32.6939 44.1031 33.3716 44.0201 33.3854 44.352C33.8971 49.0265 31.9333 52.3457 30.7439 54.517C30.7024 54.5862 30.6609 54.6553 30.6332 54.7383L30.6194 54.7106Z" fill="#D5C1B5"/>
<path fill-rule="evenodd" clip-rule="evenodd" d="M36.8014 112.741C33.828 116.102 32.0162 127.249 31.0205 130.706C29.8864 134.662 29.8311 135.505 31.1588 139.557C31.7673 141.411 32.9705 145.477 34.5333 149.916C36.3727 155.171 38.5716 161.077 39.1663 166.194C40.2589 175.626 39.6227 177.866 39.0003 183.44C38.3642 189.013 38.3642 189.013 38.3642 189.013C38.3642 189.013 37.7833 191.212 41.6972 191.544C45.611 191.876 45.9015 189.663 45.8462 187.533C45.7908 185.39 46.1781 183.039 46.6206 180.84C47.0632 178.641 47.0079 177.41 46.0121 174.395C45.0164 171.394 45.2515 169.582 45.7355 162.1C46.2196 154.604 47.5334 149.487 44.9334 144.453C42.3334 139.433 39.9546 139.571 38.9589 137.068C37.9631 134.551 46.7313 126.958 49.1792 119.034C48.377 118.536 44.1866 115.991 38.9865 113.654C38.212 113.308 37.4791 113.004 36.8014 112.741V112.741Z" fill="#C78C68"/>
<path fill-rule="evenodd" clip-rule="evenodd" d="M34.9897 186.371C34.2567 186.952 32.7216 188.266 31.1173 190.285C28.9045 193.079 29.4992 193.217 30.1769 193.217C30.813 193.217 35.5429 193.563 36.9535 192.733C37.0642 192.359 37.1886 192 37.2993 191.654C37.5759 190.852 37.7971 190.313 37.9631 189.939C37.8525 189.939 36.511 189.87 35.1556 188.681C33.745 187.436 34.9482 186.454 34.9482 186.454L34.9897 186.371Z" fill="#BA9F8A"/>
<path fill-rule="evenodd" clip-rule="evenodd" d="M38.3365 189.317C38.1567 189.552 37.8248 190.147 37.2992 191.668C36.4556 194.144 35.4599 197.988 37.1886 197.85C38.9035 197.712 46.0812 195.167 46.3302 192.014C46.5791 188.874 47.2568 186.869 47.6993 184.421C48.1419 181.973 49.2345 180.466 49.2898 178.792C49.3451 177.243 48.1419 175.902 46.0812 174.574C47.0217 177.437 47.0632 178.682 46.6344 180.825C46.1919 183.024 45.7908 185.375 45.86 187.519C45.9153 189.663 45.6249 191.862 41.711 191.53C38.6961 191.281 38.3503 189.912 38.3503 189.303L38.3365 189.317Z" fill="#D4C1B5"/>
<path fill-rule="evenodd" clip-rule="evenodd" d="M48.944 180.466C48.8749 180.991 48.7781 181.655 48.6121 182.402C48.1281 184.601 48.3079 187.892 48.2802 188.681C48.1834 188.874 47.3813 188.847 47.3813 188.722L47.4227 185.763C47.5196 185.32 47.6025 184.878 47.6855 184.421C47.9759 182.789 48.5568 181.586 48.9302 180.466H48.944Z" fill="#A68C7A"/>
<path fill-rule="evenodd" clip-rule="evenodd" d="M40.1206 178.239C40.1206 178.239 38.9727 185.873 38.8482 187.809C38.7099 189.746 42.195 177.686 40.1206 178.239Z" fill="#D49D7B"/>
<path fill-rule="evenodd" clip-rule="evenodd" d="M30.9375 111.483C30.9375 111.483 31.0343 114.346 31.629 118.757C32.2237 123.169 32.6248 124.317 32.5556 123.944C32.5003 123.57 32.0439 111.856 32.0439 111.856C32.0439 111.856 31.629 111.358 30.9237 111.483H30.9375Z" fill="#C78C68"/>
<path fill-rule="evenodd" clip-rule="evenodd" d="M37.3546 113.958L39.0003 114.442C39.0003 114.442 36.7875 118.674 34.1737 124.718C31.5598 130.748 31.2556 131.439 31.2556 131.439C33.5652 125.506 34.4088 117.512 37.3407 113.972L37.3546 113.958Z" fill="#D49D7B"/>
<path fill-rule="evenodd" clip-rule="evenodd" d="M36.8014 112.741L36.0546 113.792C40.3557 114.069 47.3259 117.817 48.6813 120.486C48.9026 119.947 49.0547 119.476 49.193 119.048C48.3908 118.55 44.2004 116.005 39.0003 113.668C38.2259 113.322 37.4929 113.018 36.8152 112.755L36.8014 112.741Z" fill="#AD7755"/>
<path fill-rule="evenodd" clip-rule="evenodd" d="M29.9141 90.0597C29.9141 90.0597 27.397 99.63 27.6736 104.636C27.9502 109.643 27.9779 108.301 28.5034 110.279C29.0428 112.257 29.2779 113.17 29.2779 113.17C29.2779 113.17 29.9556 114.276 29.9279 113.958C29.9141 113.654 29.679 106.172 29.679 106.172C29.679 106.172 30.0524 107.402 30.4396 108.26C30.8407 109.117 31.0343 109.311 31.2832 109.173C31.5322 109.034 31.2832 107.568 30.9928 106.573C30.7024 105.577 30.8545 104.208 30.5226 102.908C30.1907 101.594 29.6651 100.819 29.6651 100.819C29.7343 96.6151 29.7205 94.7066 29.9003 90.0459L29.9141 90.0597Z" fill="#AD7755"/>
<path fill-rule="evenodd" clip-rule="evenodd" d="M55.5547 92.798C56.025 95.1491 56.1633 97.6938 55.7207 100.321C54.3792 108.329 48.5568 118.121 48.5568 118.121C48.5568 118.121 48.2111 117.899 47.5749 117.526C48.7781 115.521 50.8802 111.524 53.2728 104.941C55.2367 99.547 55.6239 95.4395 55.5409 92.7842L55.5547 92.798Z" fill="#B99E8A"/>
<path fill-rule="evenodd" clip-rule="evenodd" d="M49.11 75.4414C49.7462 76.8382 50.2994 78.0829 51.4334 80.1159L51.5717 80.3649C50.6175 80.9734 49.7185 81.983 47.4642 87.1553C45.21 92.3416 45.0302 95.4256 45.3483 98.3852C45.6664 101.331 45.7908 101.22 45.5281 104.277C45.2653 107.319 44.5876 111.524 44.0483 112.34C43.5227 113.156 43.1631 113.142 43.1631 113.142C43.1631 113.142 42.9557 114.76 42.5131 115.355L42.2504 115.216C42.1536 114.041 41.6833 108.426 41.545 107.914C41.4067 107.347 41.0333 110.5 41.0333 110.5C41.0333 110.5 41.0195 110.901 41.0333 112.948C41.0333 113.806 41.0333 114.317 41.0195 114.622C40.5908 114.414 40.162 114.207 39.7195 114.013L39.4844 107.776C39.4844 107.776 39.2631 110.334 38.862 111.939C38.6823 112.672 38.4195 113.086 38.1982 113.335L38.0322 113.266C37.9354 113.045 37.8939 112.81 37.9078 112.533C38.0184 110.445 37.7556 104.982 42.9557 91.2213C47.3259 79.6595 46.4132 75.8701 49.0962 75.4552L49.11 75.4414Z" fill="#A38976"/>
<path d="M32.9843 93.9189C32.9843 93.9328 34.0769 96.5605 40.4525 98.5105L40.3557 98.8424C33.8279 96.8509 33.1503 94.3477 33.1503 94.3477L32.9843 93.9189V93.9189ZM32.9981 100.364C33.012 100.378 36.8982 102.881 40.7014 101.843L40.7982 102.189C36.8429 103.268 33.5098 101 33.496 100.986L32.9843 100.364H32.9981Z" fill="#B99E8A"/>
<path fill-rule="evenodd" clip-rule="evenodd" d="M36.1237 34.9203C36.1237 34.9203 36.9259 36.7873 37.3407 39.0277C37.3684 39.2075 37.3961 39.3735 37.4237 39.5394C38.3227 39.8022 39.6918 39.8437 41.1993 38.5575C42.8312 37.1745 44.2695 35.4181 45.1546 34.2564C45.1132 32.1128 45.4312 30.1904 45.4312 30.1904C45.4312 30.1904 39.7333 35.0447 36.1237 34.9341V34.9203Z" fill="#AD7755"/>
<path fill-rule="evenodd" clip-rule="evenodd" d="M36.1237 34.9203C36.1237 34.9203 36.4418 35.6671 36.7876 36.8011C38.8205 37.5618 40.1206 36.7181 42.3057 35.3766C43.6748 34.533 44.5876 33.5373 45.1823 32.6798C45.2515 31.2553 45.4312 30.1904 45.4312 30.1904C45.4312 30.1904 39.7333 35.0447 36.1237 34.9341V34.9203Z" fill="#784A2E"/>
<path fill-rule="evenodd" clip-rule="evenodd" d="M31.1311 45.7354C30.7854 45.9013 30.4811 46.0534 30.2598 46.1779C29.2779 46.7173 28.3375 48.0726 28.5034 50.6035C28.6002 52.1801 28.8768 53.5907 29.0705 54.4482C29.0705 54.4482 28.4619 51.5439 29.1258 48.7779C29.5545 47.0077 30.5088 46.1364 31.1311 45.7354Z" fill="#D49D7B"/>
<path fill-rule="evenodd" clip-rule="evenodd" d="M37.811 100.474C37.2439 101.124 36.8982 103.516 36.9397 105.632C36.9812 107.748 36.8152 109.684 36.8152 109.684C36.8152 109.684 37.8801 110.459 38.1567 107.969C38.2812 106.905 37.9769 105.093 37.8248 104.083C37.6035 102.742 37.811 100.474 37.811 100.474V100.474Z" fill="#AD7755"/>
<path fill-rule="evenodd" clip-rule="evenodd" d="M52.5122 40.9229C53.4111 41.1165 54.4898 41.4346 55.209 42.0016C56.6473 43.1218 57.8643 44.2835 57.0622 48.3219C56.2739 52.3602 55.693 50.6314 55.6377 55.14C55.5824 59.4134 55.1952 60.6443 54.4069 63.1199C53.6186 65.5954 52.3462 68.555 52.0143 70.505C51.6824 72.455 51.6409 75.4146 49.7877 80.6977C47.9345 85.9807 46.7313 88.0275 45.7355 91.1254C44.7536 94.2233 44.7259 94.2371 44.6983 94.7903C44.6706 95.3435 44.7951 95.6616 44.6291 96.3393C44.4632 97.017 44.6429 97.5563 44.7951 98.3585C44.9334 99.1606 45.4312 100.544 45.1132 103.13C44.8089 105.716 44.6706 106.878 44.5876 107.777C44.4908 108.689 44.4632 110.792 44.1727 111.829C43.8823 112.866 43.3844 112.7 43.3014 111.76C43.2046 110.819 43.2461 108.897 43.1908 107.694C43.1355 106.49 43.1631 105.965 43.1631 105.965C43.1631 105.965 42.7206 109.492 42.7759 110.667C42.8312 111.843 42.7897 115.314 42.2227 115.245C41.6557 115.176 41.3514 110.667 41.3238 109.823C41.2961 108.98 41.4621 106.947 41.4621 106.947C41.4621 106.947 41.227 106.753 41.144 107.334C41.061 107.901 40.7014 110.819 40.7014 110.819C40.7014 110.819 40.7291 113.793 40.6323 114.761C40.5355 115.715 40.2865 116.102 39.9131 116.075C39.5535 116.047 39.4429 115.604 39.3184 113.959C39.194 112.299 39.2216 110.944 39.2631 110.321C39.3046 109.699 39.3737 107.085 39.3737 107.085C39.3737 107.085 39.0971 106.767 39.0418 107.265C38.9865 107.763 38.8206 109.547 38.8206 109.547C38.8206 109.547 38.6408 111.704 38.4057 112.534C38.1567 113.378 37.6173 113.613 37.5344 112.894C37.4376 112.175 37.5067 109.948 37.5344 109.492C37.562 109.035 37.6312 105.605 37.5067 104.527C37.3822 103.448 37.3546 101.567 37.6588 100.779C39.1248 97.0999 39.2493 96.035 40.3418 92.4393C40.9504 90.4339 42.3195 85.5381 42.7482 79.6466C43.3014 72.2753 46.4685 69.4816 46.51 69.3018C47.0632 66.8678 46.2472 64.3092 46.4547 58.639C46.6344 53.9921 48.5568 53.2038 47.7823 47.7272C48.0036 44.6016 50.5621 41.3377 52.4845 40.9505L52.5122 40.9229Z" fill="#C78C68"/>
<path fill-rule="evenodd" clip-rule="evenodd" d="M30.5503 55.2229C31.1588 55.7484 32.5694 56.3846 35.778 56.1219C39.9684 55.7761 43.3291 54.1857 44.4908 53.5771C43.5642 54.2686 38.1567 56.9102 34.6854 56.7719C31.0896 56.6336 30.5503 55.2229 30.5503 55.2229V55.2229Z" fill="#E0D0C4"/>
<path fill-rule="evenodd" clip-rule="evenodd" d="M32.2928 52.6641C32.2928 52.6641 33.1918 53.2449 33.7173 54.4619C33.8556 54.7939 33.9524 55.0981 33.9939 55.3609C34.1599 55.3609 34.312 55.3609 34.4918 55.3609C34.2567 54.4066 33.6758 53.0928 32.2928 52.6641V52.6641Z" fill="#D49D7B"/>
<path fill-rule="evenodd" clip-rule="evenodd" d="M40.1759 52.3877C40.1759 52.3877 39.2493 52.7058 38.3641 53.4111C37.7556 53.8952 37.2301 54.7249 36.9397 55.2505C37.1748 55.2228 37.4099 55.1952 37.645 55.1537C38.0461 54.3654 38.8482 53.1069 40.1759 52.3877V52.3877Z" fill="#D49D7B"/>
<path fill-rule="evenodd" clip-rule="evenodd" d="M35.4737 55.6374C35.2663 54.8215 34.8514 53.8672 34.0907 53.0098C34.0907 53.0098 34.6024 54.1991 34.6024 55.6789C34.879 55.6789 35.1556 55.6651 35.4599 55.6513L35.4737 55.6374Z" fill="#AD7755"/>
<path fill-rule="evenodd" clip-rule="evenodd" d="M44.3802 15.7803C47.3951 18.2006 48.1281 21.3123 47.2706 24.8943C46.4132 28.4762 46.0813 29.7209 45.611 31.2422C45.127 32.7635 45.044 33.0401 42.8312 34.4507C40.6323 35.8475 38.7514 36.8571 37.2716 36.2624C35.7918 35.6539 34.4918 34.8518 33.8003 33.123C33.1088 31.3805 32.7907 29.9007 32.2514 28.4347C31.712 26.9549 32.1822 26.5815 32.1684 25.0049C32.1545 23.4421 31.9886 23.3591 31.8918 21.8932C31.8365 21.0219 31.463 19.141 33.1503 16.8591C35.9163 13.125 40.7982 12.959 44.3664 15.808L44.3802 15.7803Z" fill="#C78C68"/>
<path fill-rule="evenodd" clip-rule="evenodd" d="M47.4643 23.9819C47.6855 23.8713 47.9898 23.7883 48.294 23.8989C48.9579 24.1479 49.4143 25.4202 48.5845 27.0521C47.7547 28.6841 47.3813 29.4724 47.1738 29.749C46.994 30.0117 46.3717 30.2745 46.0951 29.6107C46.3855 28.5458 46.7174 27.2043 47.2706 24.8947C47.3398 24.5904 47.4089 24.2862 47.4504 23.9819H47.4643Z" fill="#C78C68"/>
<path fill-rule="evenodd" clip-rule="evenodd" d="M46.2472 29.8455C46.1919 29.7902 46.1366 29.7072 46.0951 29.6104C46.3855 28.5455 46.7174 27.204 47.2706 24.8944C47.3121 24.7284 47.3536 24.5625 47.3813 24.3827C47.5472 24.3135 47.7685 24.272 48.0313 24.2859C48.7643 24.3135 48.8058 25.7518 48.543 26.388C48.2802 27.038 48.2802 27.038 48.2802 27.038C48.2802 27.038 48.543 26.1944 48.4738 25.4752C48.4185 24.7422 47.7962 24.7699 47.6302 24.9635C47.4642 25.1433 47.1877 25.6412 47.3121 26.2359C47.4366 26.8306 47.2983 27.5635 46.994 27.771C46.7451 27.9369 46.261 29.237 46.2472 29.8593V29.8455Z" fill="#AD7755"/>
<path d="M37.1096 28.6755C37.2662 28.713 37.415 28.5697 37.4419 28.3556C37.4689 28.1414 37.3637 27.9374 37.2071 27.8999C37.0505 27.8624 36.9017 28.0056 36.8747 28.2198C36.8478 28.434 36.9529 28.638 37.1096 28.6755Z" fill="#D49D7B"/>
<path fill-rule="evenodd" clip-rule="evenodd" d="M38.8759 28.6836C38.8759 28.6836 39.0972 28.8772 38.9174 29.4442C38.7376 29.9974 38.3642 29.8315 38.3642 29.8315C38.3642 29.8315 38.7514 30.2187 39.0418 29.7347C39.3461 29.2506 39.0695 28.8081 38.8759 28.6836Z" fill="#9E6B4C"/>
<path fill-rule="evenodd" clip-rule="evenodd" d="M36.1237 28.8906C36.1237 28.8906 35.9716 29.0566 36.0131 29.4577C36.0546 29.8587 36.3312 30.0662 36.4418 30.0523C36.5525 30.0385 36.1791 30.1906 35.9854 29.7481C35.7918 29.3055 36.1376 28.8906 36.1376 28.8906H36.1237Z" fill="#9E6B4C"/>
<path fill-rule="evenodd" clip-rule="evenodd" d="M36.4556 29.7065C36.4556 29.7065 36.4003 29.4299 36.6216 29.5267C36.8429 29.6235 36.8844 29.8448 37.1056 29.9969C37.3269 30.149 37.6035 30.0937 37.6174 29.8862C37.6312 29.6788 37.6865 29.416 37.9216 29.4713C38.1567 29.5267 38.3503 29.8171 38.3503 29.8171C38.3503 29.8171 38.1429 29.582 37.9216 29.6096C37.7003 29.6235 37.6727 29.7756 37.6035 29.9554C37.5344 30.1352 37.2439 30.1767 36.9397 29.9001C36.6493 29.6235 36.511 29.6788 36.4556 29.7065V29.7065Z" fill="#78492B"/>
<path fill-rule="evenodd" clip-rule="evenodd" d="M35.211 31.7258C35.0035 31.4769 34.879 31.5184 34.7407 31.5598C34.6163 31.6013 34.4641 31.2141 34.7684 31.3386C35.0588 31.4492 34.9897 31.6567 35.5567 31.5322C35.8748 31.4492 36.3312 31.1726 36.7461 31.0481C37.0642 30.9513 37.1195 31.2003 37.4376 31.1588C37.6865 31.1311 37.7418 30.9652 37.9769 30.9375C38.6131 30.896 39.6089 31.5322 40.5908 31.3386C40.9089 31.2694 41.0472 30.979 41.1163 31.0896C41.1855 31.1864 40.9919 31.2971 40.8674 31.3386C40.7429 31.3662 40.6738 31.6013 40.1897 32.279C39.7748 32.8599 39.2493 33.7311 37.6174 33.7035C36.0408 33.6758 35.9025 32.5694 35.2248 31.7258H35.211Z" fill="#A8433E"/>
<path fill-rule="evenodd" clip-rule="evenodd" d="M39.1663 25.6266C39.1663 25.6266 38.0323 23.9808 39.6919 23.7042C41.3514 23.4276 43.3706 24.451 43.177 25.3638C42.9834 26.2766 40.7568 27.5213 39.1663 25.6266Z" fill="#B37B58"/>
<path fill-rule="evenodd" clip-rule="evenodd" d="M36.1514 31.9061C36.5801 32.0167 38.2674 31.9061 39.1387 31.8369C39.1387 31.8369 38.4195 32.3763 37.4929 32.3901C36.5663 32.4039 36.1514 31.9199 36.1514 31.9199V31.9061Z" fill="white"/>
<path fill-rule="evenodd" clip-rule="evenodd" d="M38.5578 24.1195C38.7929 24.0641 40.6046 23.3588 41.1855 23.1375C41.7663 22.9163 42.2504 22.9577 42.6791 23.1514C43.094 23.345 43.5366 23.5663 43.5366 23.5663C43.5366 23.5663 43.744 23.5386 43.6334 23.4141C43.5089 23.2897 42.7483 22.778 42.4025 22.6258C42.0429 22.4737 40.7568 22.6673 39.5536 23.0822C39.5121 23.096 38.0184 23.4833 38.5716 24.1333L38.5578 24.1195Z" fill="#413024"/>
<path fill-rule="evenodd" clip-rule="evenodd" d="M35.5982 23.9539C35.5982 23.9539 36.4695 24.6316 36.6216 25.4199C36.7737 26.2082 36.5663 27.7433 36.5663 27.7433C36.5663 27.7433 36.7876 26.305 36.1929 25.3922C35.5982 24.4795 34.6439 23.8848 34.6439 23.8848L35.5844 23.9401L35.5982 23.9539Z" fill="#B37B58"/>
<path fill-rule="evenodd" clip-rule="evenodd" d="M38.8344 24.1748C38.8344 24.1748 38.1152 24.4376 37.9908 25.461C37.8663 26.4844 37.9216 26.6365 37.9216 26.6365C37.9216 26.6365 38.3365 24.5897 38.8344 24.1748Z" fill="#B37B58"/>
<path fill-rule="evenodd" clip-rule="evenodd" d="M35.9163 25.6272C35.9163 25.6272 36.3174 24.424 35.3493 23.9399C34.3812 23.4559 32.1407 24.4655 32.3205 25.3782C32.4865 26.291 34.561 27.5219 35.9163 25.641V25.6272Z" fill="#B37B58"/>
<path fill-rule="evenodd" clip-rule="evenodd" d="M32.2099 23.8009C32.2099 23.8009 32.5556 23.4413 32.9982 23.5243C33.4407 23.6073 35.4046 24.0499 35.5705 24.1052C35.7365 24.1605 35.778 24.119 35.778 24.119C35.778 24.119 36.0822 23.6903 35.4046 23.4552C34.7269 23.2201 33.1226 23.0818 32.9428 23.0679C32.7492 23.0541 32.3758 23.303 32.2514 23.4967C32.1269 23.6764 32.1131 23.8839 32.2099 23.8009V23.8009Z" fill="#413024"/>
<path fill-rule="evenodd" clip-rule="evenodd" d="M38.9865 24.991C38.9865 24.991 39.4982 24.3133 40.7429 24.1888C41.9876 24.0644 43.0525 24.9772 43.0525 24.9772C43.0525 24.9772 42.3195 24.0229 41.0472 23.9676C39.761 23.9122 39.1525 24.7144 38.9865 25.0048V24.991Z" fill="#784A2E"/>
<path fill-rule="evenodd" clip-rule="evenodd" d="M39.3738 25.8343C38.8897 26.2077 38.6546 25.6269 39.1386 25.3641C39.1386 25.3641 39.6504 24.5067 40.9365 24.5896C42.2227 24.6726 42.61 25.295 42.61 25.295C42.61 25.295 42.2919 26.0833 41.227 26.1801C40.1482 26.2769 39.5259 25.9311 39.3876 25.8205L39.3738 25.8343Z" fill="white"/>
<path fill-rule="evenodd" clip-rule="evenodd" d="M39.3738 25.8347C38.8897 26.2081 38.6546 25.6273 39.1386 25.3645C39.1386 25.3645 39.1801 25.3092 39.2493 25.2262C39.3046 25.4337 39.5259 25.9592 40.494 26.0837C41.5312 26.2081 42.4025 25.6411 42.4855 25.1709C42.5685 25.2539 42.61 25.3092 42.61 25.3092C42.61 25.3092 42.2919 26.0975 41.227 26.1943C40.1482 26.2911 39.5259 25.9454 39.3876 25.8347H39.3738Z" fill="#E3A986"/>
<path fill-rule="evenodd" clip-rule="evenodd" d="M39.1386 25.3641C39.1386 25.3641 39.6503 24.5067 40.9365 24.5896C42.2227 24.6726 42.6099 25.295 42.6099 25.295C42.6099 25.295 42.5685 25.3918 42.4855 25.5162C41.3929 24.9907 39.9823 25.1152 39.1386 25.3641V25.3641Z" fill="#ADA89F"/>
<path fill-rule="evenodd" clip-rule="evenodd" d="M40.5493 24.7555C40.6738 24.7417 40.7982 24.7417 40.9365 24.7555C41.1855 24.7693 41.3929 24.8108 41.5727 24.8523C41.6557 24.9629 41.711 25.1151 41.711 25.281C41.711 25.6683 41.3929 25.9725 41.0057 25.9725C40.6184 25.9725 40.3004 25.6544 40.3004 25.281C40.3004 25.0736 40.3833 24.8938 40.5216 24.7693L40.5493 24.7555Z" fill="#625D54"/>
<path d="M41.0195 25.6544C41.2334 25.6544 41.4067 25.481 41.4067 25.2671C41.4067 25.0533 41.2334 24.8799 41.0195 24.8799C40.8056 24.8799 40.6323 25.0533 40.6323 25.2671C40.6323 25.481 40.8056 25.6544 41.0195 25.6544Z" fill="#413024"/>
<path d="M41.0195 25.2948C41.0883 25.2948 41.144 25.2391 41.144 25.1704C41.144 25.1016 41.0883 25.0459 41.0195 25.0459C40.9508 25.0459 40.8951 25.1016 40.8951 25.1704C40.8951 25.2391 40.9508 25.2948 41.0195 25.2948Z" fill="white"/>
<path fill-rule="evenodd" clip-rule="evenodd" d="M39.1801 25.3366C39.1801 25.3366 39.7472 24.7834 40.8259 24.8387C41.9046 24.894 42.5546 25.4195 42.5546 25.4195C42.5546 25.4195 42.9281 25.544 43.3153 25.3642C43.7025 25.1844 43.7855 24.811 43.7855 24.811C43.7855 24.811 43.661 24.9631 43.2185 24.9631C42.7621 24.9631 42.2504 24.5621 41.6004 24.3823C40.9365 24.2025 39.5812 24.2717 39.194 25.3366H39.1801Z" fill="#413024"/>
<path fill-rule="evenodd" clip-rule="evenodd" d="M32.6386 24.8666C32.6386 24.8666 33.2748 24.2165 34.2705 24.1197C35.2663 24.0229 35.7503 24.7006 35.861 24.9772C35.9716 25.2676 35.9578 25.2676 35.9578 25.2676C35.9578 25.2676 35.6259 24.4378 34.5748 24.2857C33.5237 24.1336 32.6801 24.8389 32.6386 24.8666V24.8666Z" fill="#784A2E"/>
<path fill-rule="evenodd" clip-rule="evenodd" d="M35.6812 25.8207C36.1376 26.1941 36.345 25.6132 35.9025 25.3504C35.9025 25.3504 35.4184 24.493 34.229 24.576C33.0397 24.6589 32.6663 25.2813 32.6663 25.2813C32.6663 25.2813 32.9567 26.0696 33.9663 26.1664C34.9759 26.2632 35.5567 25.9175 35.6812 25.8068V25.8207Z" fill="white"/>
<path fill-rule="evenodd" clip-rule="evenodd" d="M35.6812 25.8211C36.1376 26.1945 36.345 25.6136 35.9025 25.3508C35.9025 25.3508 35.8748 25.2955 35.8057 25.2125C35.7642 25.42 35.5429 25.9455 34.6439 26.07C33.6758 26.1945 32.8737 25.6274 32.7769 25.1572C32.6939 25.2402 32.6524 25.2955 32.6524 25.2955C32.6524 25.2955 32.9429 26.0838 33.9524 26.1806C34.962 26.2774 35.5429 25.9317 35.6674 25.8211H35.6812Z" fill="#E3A986"/>
<path fill-rule="evenodd" clip-rule="evenodd" d="M35.9025 25.3504C35.9025 25.3504 35.4184 24.493 34.229 24.576C33.0397 24.6589 32.6663 25.2813 32.6663 25.2813C32.6663 25.2813 32.6939 25.3781 32.7907 25.5026C33.5929 25.0047 35.0035 24.977 35.9163 25.3504H35.9025Z" fill="#ADA89F"/>
<path fill-rule="evenodd" clip-rule="evenodd" d="M35.1418 24.7418C35.0173 24.728 34.8929 24.728 34.7546 24.7418C34.5056 24.7556 34.2982 24.7971 34.1184 24.8386C34.0354 24.9493 33.9801 25.1014 33.9801 25.2674C33.9801 25.6546 34.2982 25.9727 34.6854 25.9727C35.0727 25.9727 35.3908 25.6546 35.3908 25.2674C35.3908 25.0599 35.3078 24.8801 35.1695 24.7556L35.1418 24.7418Z" fill="#625D54"/>
<path d="M34.6716 25.6407C34.8855 25.6407 35.0588 25.4673 35.0588 25.2534C35.0588 25.0396 34.8855 24.8662 34.6716 24.8662C34.4577 24.8662 34.2844 25.0396 34.2844 25.2534C34.2844 25.4673 34.4577 25.6407 34.6716 25.6407Z" fill="#413024"/>
<path d="M34.6716 25.2948C34.7403 25.2948 34.7961 25.2391 34.7961 25.1704C34.7961 25.1016 34.7403 25.0459 34.6716 25.0459C34.6028 25.0459 34.5471 25.1016 34.5471 25.1704C34.5471 25.2391 34.6028 25.2948 34.6716 25.2948Z" fill="white"/>
<path fill-rule="evenodd" clip-rule="evenodd" d="M35.8748 25.3364C35.8748 25.3364 35.3631 24.797 34.3535 24.8523C33.3439 24.9077 32.7216 25.4194 32.7216 25.4194C32.2929 25.5162 32.2652 25.1843 32.2652 24.963C32.3897 25.1151 33.0258 24.6172 33.579 24.4651C34.2014 24.2853 35.5014 24.2576 35.8748 25.3364Z" fill="#413024"/>
<path fill-rule="evenodd" clip-rule="evenodd" d="M32.8184 26.083C33.3854 26.7054 34.8652 26.7468 35.3769 26.1383C34.6993 27.0926 33.1226 26.8298 32.8184 26.083Z" fill="#784A2E"/>
<path fill-rule="evenodd" clip-rule="evenodd" d="M39.6089 26.0693C40.245 26.6779 41.9461 26.7055 42.527 26.0693C41.7525 27.0374 39.9546 26.8023 39.6089 26.0693Z" fill="#784A2E"/>
<path fill-rule="evenodd" clip-rule="evenodd" d="M35.9439 32.6805C35.5152 32.0166 35.7642 32.0305 35.9993 32.1826C36.2482 32.3347 36.5801 32.805 37.7695 32.6805C38.9589 32.556 39.4844 31.9752 39.7472 31.8369C40.0099 31.6986 40.2312 31.7539 40.0238 32.1549C39.8025 32.556 38.8621 33.5379 37.7003 33.5241C36.5386 33.5103 36.0684 32.8326 35.9439 32.6805Z" fill="#BD5A55"/>
<path fill-rule="evenodd" clip-rule="evenodd" d="M37.0503 32.8321C37.0503 32.8321 37.3408 32.9704 38.3365 32.7352C39.3323 32.4863 39.7748 32.1406 39.678 32.3204C39.5812 32.4863 38.7652 33.4406 37.5759 33.3714C36.3865 33.3023 36.5248 32.7767 37.0642 32.8459L37.0503 32.8321Z" fill="#D4726F"/>
</svg>
