<svg width="85" height="212" viewBox="0 0 85 212" fill="none" xmlns="http://www.w3.org/2000/svg">
<path fill-rule="evenodd" clip-rule="evenodd" d="M31.4663 26.7236C31.5188 26.2378 31.622 25.7576 31.6182 24.9342C31.6107 23.9476 31.5432 23.5537 31.4663 23.0285V22.4526H43.4501V27.4457H31.4663V26.7236Z" fill="#C78C68"/>
<path fill-rule="evenodd" clip-rule="evenodd" d="M38.6109 25.5848C38.6109 25.5848 37.478 23.9455 39.1399 23.6641C40.8036 23.3828 42.82 24.4069 42.6211 25.3204C42.4223 26.2338 40.1978 27.4755 38.6109 25.5848Z" fill="#B37B58"/>
<path fill-rule="evenodd" clip-rule="evenodd" d="M38.003 24.0751C38.2337 24.0225 40.0531 23.3135 40.6365 23.0903C41.2179 22.8652 41.7075 22.9046 42.1239 23.1034C42.5403 23.3023 42.9773 23.5142 42.9773 23.5142C42.9773 23.5142 43.1893 23.4805 43.0692 23.3548C42.9511 23.2291 42.1895 22.7189 41.8332 22.567C41.4768 22.4151 40.1863 22.6139 38.9896 23.0228C38.9502 23.0359 37.4572 23.4186 38.0049 24.0751H38.003Z" fill="#413024"/>
<path fill-rule="evenodd" clip-rule="evenodd" d="M35.0397 23.9044C35.0397 23.9044 35.91 24.5834 36.0657 25.3768C36.182 25.9695 36.0938 26.9768 36.0432 27.4476H36.0375C36.0694 26.9937 36.075 26.0314 35.6399 25.3581C35.0509 24.4465 34.0962 23.8481 34.0962 23.8481L35.0415 23.9063L35.0397 23.9044Z" fill="#B37B58"/>
<path fill-rule="evenodd" clip-rule="evenodd" d="M38.2825 24.1294C38.2825 24.1294 37.5659 24.3976 37.4421 25.4161C37.3183 26.4346 37.3727 26.5865 37.3727 26.5865C37.3727 26.5865 37.7816 24.5345 38.2825 24.1294Z" fill="#B37B58"/>
<path fill-rule="evenodd" clip-rule="evenodd" d="M35.3604 25.5795C35.3604 25.5795 35.7655 24.3772 34.7996 23.8895C33.8317 23.4018 31.5959 24.4091 31.7666 25.3207C31.9373 26.2341 34.0043 27.4702 35.3623 25.5776L35.3604 25.5795Z" fill="#B37B58"/>
<path fill-rule="evenodd" clip-rule="evenodd" d="M31.6558 23.7507C31.6558 23.7507 32.0028 23.3868 32.4455 23.4731C32.8881 23.5593 34.8464 24.002 35.0114 24.0545C35.1765 24.1071 35.2159 24.0752 35.2159 24.0752C35.2159 24.0752 35.5272 23.6456 34.8464 23.4074C34.1655 23.1692 32.5711 23.0379 32.3798 23.0173C32.1885 22.9966 31.8171 23.2555 31.6914 23.4412C31.5658 23.6269 31.5564 23.8257 31.6558 23.7525V23.7507Z" fill="#413024"/>
<path fill-rule="evenodd" clip-rule="evenodd" d="M38.4365 24.9416C38.4365 24.9416 38.9467 24.2644 40.1978 24.1331C41.4489 24.0018 42.5124 24.9191 42.5124 24.9191C42.5124 24.9191 41.7846 23.9587 40.5035 23.9081C39.2224 23.8574 38.6053 24.6583 38.4365 24.9416Z" fill="#784A2E"/>
<path fill-rule="evenodd" clip-rule="evenodd" d="M38.8249 25.7854C38.3429 26.1643 38.1084 25.5753 38.5848 25.3202C38.5848 25.3202 39.1006 24.4687 40.3817 24.5493C41.6628 24.63 42.0586 25.2583 42.0586 25.2583C42.0586 25.2583 41.7454 26.0443 40.6687 26.1455C39.5921 26.2468 38.9618 25.9017 38.8249 25.7854Z" fill="white"/>
<path fill-rule="evenodd" clip-rule="evenodd" d="M38.8249 25.7858C38.3429 26.1646 38.1084 25.5757 38.5848 25.3206C38.5848 25.3206 38.6186 25.2643 38.6936 25.1799C38.7443 25.3844 38.9675 25.9133 39.9334 26.0333C40.9726 26.1628 41.8354 25.5926 41.931 25.1143C42.0192 25.1987 42.0567 25.2587 42.0567 25.2587C42.0567 25.2587 41.7435 26.0446 40.6668 26.1459C39.5902 26.2472 38.96 25.902 38.823 25.7858H38.8249Z" fill="#E3A986"/>
<path fill-rule="evenodd" clip-rule="evenodd" d="M38.585 25.3202C38.585 25.3202 39.1008 24.4687 40.3819 24.5493C41.663 24.63 42.0587 25.2583 42.0587 25.2583C42.0587 25.2583 42.0212 25.3503 41.9312 25.4759C40.8452 24.947 39.4309 25.0745 38.585 25.3202Z" fill="#ADA89F"/>
<path fill-rule="evenodd" clip-rule="evenodd" d="M39.9955 24.707C40.1156 24.6958 40.245 24.6939 40.3819 24.7033C40.6257 24.7183 40.8377 24.7539 41.0215 24.8008C41.1115 24.919 41.1641 25.0653 41.1641 25.2228C41.1641 25.6092 40.8508 25.9206 40.4663 25.9206C40.0799 25.9206 39.7686 25.6074 39.7686 25.2228C39.7686 25.0184 39.8567 24.8346 39.9955 24.707Z" fill="#4C7012"/>
<path fill-rule="evenodd" clip-rule="evenodd" d="M40.4663 24.8325C40.682 24.8325 40.8565 25.007 40.8565 25.2227C40.8565 25.4384 40.682 25.6128 40.4663 25.6128C40.2506 25.6128 40.0762 25.4384 40.0762 25.2227C40.0762 25.007 40.2506 24.8325 40.4663 24.8325Z" fill="#413024"/>
<path fill-rule="evenodd" clip-rule="evenodd" d="M40.4702 25.0015C40.5415 25.0015 40.5997 25.0596 40.5997 25.1309C40.5997 25.2022 40.5415 25.2603 40.4702 25.2603C40.399 25.2603 40.3408 25.2022 40.3408 25.1309C40.3408 25.0596 40.399 25.0015 40.4702 25.0015Z" fill="white"/>
<path fill-rule="evenodd" clip-rule="evenodd" d="M38.626 25.2959C38.626 25.2959 39.1868 24.7407 40.2728 24.7951C41.3589 24.8476 42.0003 25.3728 42.0003 25.3728C42.0003 25.3728 42.3755 25.4966 42.7675 25.3147C43.1595 25.1327 43.2327 24.7613 43.2327 24.7613C43.2327 24.7613 43.1107 24.917 42.6606 24.9151C42.2104 24.9133 41.6984 24.5137 41.0362 24.3393C40.3741 24.1649 39.0199 24.223 38.626 25.2959Z" fill="#413024"/>
<path fill-rule="evenodd" clip-rule="evenodd" d="M32.0796 24.8289C32.0796 24.8289 32.7154 24.1818 33.7058 24.0786C34.6943 23.9773 35.1876 24.6544 35.2945 24.9377C35.4033 25.2209 35.3958 25.2209 35.3958 25.2209C35.3958 25.2209 35.0638 24.3881 34.0172 24.2418C32.9705 24.0955 32.1171 24.7914 32.0796 24.827V24.8289Z" fill="#784A2E"/>
<path fill-rule="evenodd" clip-rule="evenodd" d="M35.1313 25.7781C35.5814 26.157 35.8009 25.568 35.3563 25.3129C35.3563 25.3129 34.8743 24.4614 33.6795 24.542C32.4847 24.6227 32.1133 25.251 32.1133 25.251C32.1133 25.251 32.4059 26.0369 33.4113 26.1382C34.4166 26.2395 35.0037 25.8944 35.1331 25.7781H35.1313Z" fill="white"/>
<path fill-rule="evenodd" clip-rule="evenodd" d="M35.1317 25.7779C35.5818 26.1568 35.8013 25.5679 35.3568 25.3128C35.3568 25.3128 35.3249 25.2565 35.2555 25.1721C35.2086 25.3765 34.9985 25.9055 34.0963 26.0255C33.1266 26.155 32.32 25.5847 32.23 25.1064C32.1475 25.1909 32.1118 25.2509 32.1118 25.2509C32.1118 25.2509 32.4044 26.0368 33.4098 26.1381C34.4152 26.2394 35.0023 25.8942 35.1317 25.7779Z" fill="#E3A986"/>
<path fill-rule="evenodd" clip-rule="evenodd" d="M35.3549 25.3129C35.3549 25.3129 34.8728 24.4614 33.678 24.542C32.4832 24.6227 32.1118 25.251 32.1118 25.251C32.1118 25.251 32.1456 25.3429 32.2319 25.4686C33.029 24.9697 34.4489 24.9415 35.3549 25.3129Z" fill="#ADA89F"/>
<path fill-rule="evenodd" clip-rule="evenodd" d="M34.5855 24.6992C34.4655 24.688 34.3361 24.6861 34.1992 24.6955C33.9553 24.7105 33.7434 24.7461 33.5595 24.793C33.4695 24.9112 33.417 25.0575 33.417 25.215C33.417 25.6014 33.7302 25.9128 34.1147 25.9128C34.5011 25.9128 34.8125 25.5995 34.8125 25.215C34.8125 25.0106 34.7243 24.8268 34.5855 24.6992Z" fill="#4C7012"/>
<path fill-rule="evenodd" clip-rule="evenodd" d="M34.1167 24.8232C33.901 24.8232 33.7266 24.9977 33.7266 25.2134C33.7266 25.4291 33.901 25.6035 34.1167 25.6035C34.3324 25.6035 34.5068 25.4291 34.5068 25.2134C34.5068 24.9977 34.3324 24.8232 34.1167 24.8232Z" fill="#413024"/>
<path fill-rule="evenodd" clip-rule="evenodd" d="M34.1128 24.9937C34.0415 24.9937 33.9834 25.0518 33.9834 25.1231C33.9834 25.1944 34.0415 25.2525 34.1128 25.2525C34.1841 25.2525 34.2422 25.1944 34.2422 25.1231C34.2422 25.0518 34.1841 24.9937 34.1128 24.9937Z" fill="white"/>
<path fill-rule="evenodd" clip-rule="evenodd" d="M35.3172 25.2886C35.3172 25.2886 34.8089 24.7503 33.7941 24.8028C32.7812 24.8553 32.166 25.3636 32.166 25.3636C31.7365 25.4612 31.7158 25.1236 31.7046 24.9116C31.8265 25.071 32.4717 24.5721 33.0232 24.4164C33.6403 24.242 34.9495 24.2138 35.319 25.2867L35.3172 25.2886Z" fill="#413024"/>
<path fill-rule="evenodd" clip-rule="evenodd" d="M32.2637 26.0332C32.8264 26.6578 34.31 26.7028 34.8221 26.0857C34.1412 27.0461 32.5675 26.7741 32.2637 26.0332Z" fill="#784A2E"/>
<path fill-rule="evenodd" clip-rule="evenodd" d="M39.061 26.0293C39.7025 26.6426 41.3944 26.6595 41.9796 26.033C41.2031 27.0065 39.408 26.7646 39.061 26.0293Z" fill="#784A2E"/>
</svg>
