<svg width="85" height="212" viewBox="0 0 85 212" fill="none" xmlns="http://www.w3.org/2000/svg">
<path fill-rule="evenodd" clip-rule="evenodd" d="M32.0356 26.6696C32.088 26.2129 32.1944 25.7334 32.1895 24.9838C32.183 23.9886 32.1126 23.5958 32.0356 23.0639V22.4976H44.0198V27.4912H32.0356V26.6696Z" fill="#C78C68"/>
<path fill-rule="evenodd" clip-rule="evenodd" d="M39.1633 25.6301C39.1633 25.6301 38.029 23.9917 39.692 23.7086C41.3549 23.4271 43.3713 24.4517 43.1733 25.365C42.9753 26.2783 40.7493 27.5205 39.1633 25.6301Z" fill="#B37B58"/>
<path fill-rule="evenodd" clip-rule="evenodd" d="M38.5545 24.1196C38.7853 24.0672 40.6053 23.3585 41.1863 23.1343C41.769 22.91 42.2584 22.9493 42.6741 23.1474C43.0915 23.3454 43.5269 23.5582 43.5269 23.5582C43.5269 23.5582 43.738 23.5255 43.6202 23.3994C43.5007 23.2734 42.7396 22.7644 42.3828 22.6122C42.026 22.4599 40.7362 22.658 39.5382 23.0688C39.4989 23.0819 38.0062 23.4649 38.5528 24.1212L38.5545 24.1196Z" fill="#413024"/>
<path fill-rule="evenodd" clip-rule="evenodd" d="M35.5923 23.9476C35.5923 23.9476 36.4615 24.6252 36.6186 25.419C36.7348 26.0132 36.648 27.0197 36.5957 27.4895H36.5908C36.6235 27.0361 36.6284 26.0737 36.193 25.3994C35.6038 24.4877 34.6479 23.8887 34.6479 23.8887L35.5923 23.946V23.9476Z" fill="#B37B58"/>
<path fill-rule="evenodd" clip-rule="evenodd" d="M38.8343 24.1738C38.8343 24.1738 38.1174 24.4423 37.9946 25.4619C37.8719 26.4816 37.9259 26.6322 37.9259 26.6322C37.9259 26.6322 38.3351 24.5797 38.8343 24.1755V24.1738Z" fill="#B37B58"/>
<path fill-rule="evenodd" clip-rule="evenodd" d="M35.913 25.6235C35.913 25.6235 36.319 24.4205 35.3516 23.9344C34.3843 23.4483 32.1486 24.4533 32.3188 25.3666C32.489 26.2799 34.5562 27.5156 35.9147 25.6252L35.913 25.6235Z" fill="#B37B58"/>
<path fill-rule="evenodd" clip-rule="evenodd" d="M32.209 23.7954C32.209 23.7954 32.556 23.432 32.9995 23.5171C33.4431 23.6039 35.4006 24.0458 35.5659 24.0998C35.7313 24.1522 35.7705 24.1194 35.7705 24.1194C35.7705 24.1194 36.0815 23.689 35.4006 23.4516C34.7197 23.2143 33.1256 23.0817 32.9341 23.0621C32.7426 23.0425 32.3727 23.2994 32.2466 23.486C32.1206 23.671 32.1108 23.869 32.2106 23.797L32.209 23.7954Z" fill="#413024"/>
<path fill-rule="evenodd" clip-rule="evenodd" d="M38.9883 24.9872C38.9883 24.9872 39.4973 24.3113 40.7494 24.1803C42.0015 24.0494 43.0637 24.966 43.0637 24.966C43.0637 24.966 42.3354 24.0052 41.0555 23.9545C39.7755 23.9037 39.1569 24.7041 38.9883 24.9872Z" fill="#784A2E"/>
<path fill-rule="evenodd" clip-rule="evenodd" d="M39.3777 25.8301C38.8965 26.2098 38.6608 25.619 39.1371 25.3636C39.1371 25.3636 39.6527 24.5125 40.9342 24.5927C42.2142 24.6729 42.6119 25.3014 42.6119 25.3014C42.6119 25.3014 42.2993 26.0871 41.2223 26.1902C40.1453 26.2917 39.5168 25.9463 39.3777 25.8301Z" fill="white"/>
<path fill-rule="evenodd" clip-rule="evenodd" d="M39.3777 25.8299C38.8965 26.2096 38.6608 25.6188 39.1371 25.3635C39.1371 25.3635 39.1715 25.3062 39.2451 25.2227C39.2959 25.4273 39.5201 25.9576 40.4858 26.0771C41.5251 26.2064 42.3877 25.6368 42.4842 25.1572C42.5726 25.2423 42.6103 25.3013 42.6103 25.3013C42.6103 25.3013 42.2976 26.0869 41.2207 26.19C40.1437 26.2915 39.5152 25.9461 39.3761 25.8299H39.3777Z" fill="#E3A986"/>
<path fill-rule="evenodd" clip-rule="evenodd" d="M39.1372 25.3651C39.1372 25.3651 39.6528 24.514 40.9343 24.5942C42.2143 24.6744 42.612 25.3029 42.612 25.3029C42.612 25.3029 42.576 25.3946 42.4843 25.5206C41.3975 24.9919 39.9834 25.1196 39.1388 25.3651H39.1372Z" fill="#ADA89F"/>
<path fill-rule="evenodd" clip-rule="evenodd" d="M40.5465 24.7517C40.6676 24.7403 40.7953 24.7386 40.9328 24.7468C41.1767 24.7615 41.3894 24.7976 41.5728 24.845C41.6628 24.9629 41.7152 25.1085 41.7152 25.2673C41.7152 25.6536 41.4025 25.9662 41.0163 25.9662C40.63 25.9662 40.3174 25.6536 40.3174 25.2673C40.3174 25.0627 40.4058 24.8794 40.5449 24.7517H40.5465Z" fill="#42717D"/>
<path fill-rule="evenodd" clip-rule="evenodd" d="M41.0181 24.876C41.2342 24.876 41.4093 25.0511 41.4093 25.2672C41.4093 25.4832 41.2342 25.6583 41.0181 25.6583C40.8021 25.6583 40.627 25.4832 40.627 25.2672C40.627 25.0511 40.8021 24.876 41.0181 24.876Z" fill="#413024"/>
<path fill-rule="evenodd" clip-rule="evenodd" d="M41.0214 25.0464C41.0934 25.0464 41.1507 25.1037 41.1507 25.1757C41.1507 25.2477 41.0934 25.305 41.0214 25.305C40.9494 25.305 40.8921 25.2477 40.8921 25.1757C40.8921 25.1037 40.9494 25.0464 41.0214 25.0464Z" fill="white"/>
<path fill-rule="evenodd" clip-rule="evenodd" d="M39.1782 25.3394C39.1782 25.3394 39.7396 24.7845 40.8248 24.8385C41.9099 24.8909 42.5532 25.4163 42.5532 25.4163C42.5532 25.4163 42.928 25.5407 43.3208 25.359C43.7136 25.1773 43.7873 24.8058 43.7873 24.8058C43.7873 24.8058 43.6662 24.9629 43.2144 24.9597C42.7627 24.958 42.252 24.557 41.5891 24.3835C40.9263 24.2084 39.5743 24.2673 39.1782 25.341V25.3394Z" fill="#413024"/>
<path fill-rule="evenodd" clip-rule="evenodd" d="M32.633 24.8742C32.633 24.8742 33.2697 24.226 34.2583 24.1245C35.2469 24.0231 35.7395 24.699 35.8475 24.9838C35.9556 25.267 35.949 25.267 35.949 25.267C35.949 25.267 35.6168 24.4339 34.5692 24.2882C33.5234 24.1425 32.6706 24.8382 32.6313 24.8742H32.633Z" fill="#784A2E"/>
<path fill-rule="evenodd" clip-rule="evenodd" d="M35.6838 25.8233C36.1339 26.203 36.3533 25.6121 35.9081 25.3568C35.9081 25.3568 35.4269 24.5057 34.2304 24.5859C33.034 24.6661 32.6641 25.2946 32.6641 25.2946C32.6641 25.2946 32.957 26.0802 33.962 26.1817C34.9669 26.2832 35.5545 25.9378 35.6838 25.8216V25.8233Z" fill="white"/>
<path fill-rule="evenodd" clip-rule="evenodd" d="M35.6838 25.8236C36.1339 26.2033 36.3533 25.6124 35.9081 25.3571C35.9081 25.3571 35.8753 25.2998 35.8066 25.2163C35.7591 25.4209 35.5513 25.9512 34.6478 26.0707C33.6772 26.2 32.8719 25.6304 32.7819 25.1509C32.6984 25.236 32.6641 25.2949 32.6641 25.2949C32.6641 25.2949 32.957 26.0805 33.962 26.182C34.9669 26.2835 35.5545 25.9381 35.6838 25.8219V25.8236Z" fill="#E3A986"/>
<path fill-rule="evenodd" clip-rule="evenodd" d="M35.9081 25.3568C35.9081 25.3568 35.4269 24.5057 34.2304 24.5859C33.034 24.6661 32.6641 25.2946 32.6641 25.2946C32.6641 25.2946 32.6984 25.3863 32.7835 25.5123C33.5806 25.0131 35.0013 24.9853 35.9064 25.3568H35.9081Z" fill="#ADA89F"/>
<path fill-rule="evenodd" clip-rule="evenodd" d="M35.1388 24.7434C35.0177 24.732 34.8901 24.7303 34.7526 24.7385C34.5087 24.7532 34.2959 24.7893 34.1126 24.8367C34.0226 24.9546 33.9702 25.1002 33.9702 25.259C33.9702 25.6453 34.2828 25.9579 34.6691 25.9579C35.0554 25.9579 35.368 25.6453 35.368 25.259C35.368 25.0544 35.2796 24.8711 35.1405 24.7434H35.1388Z" fill="#42717D"/>
<path fill-rule="evenodd" clip-rule="evenodd" d="M34.6675 24.8696C34.4515 24.8696 34.2764 25.0448 34.2764 25.2608C34.2764 25.4769 34.4515 25.652 34.6675 25.652C34.8836 25.652 35.0587 25.4769 35.0587 25.2608C35.0587 25.0448 34.8836 24.8696 34.6675 24.8696Z" fill="#413024"/>
<path fill-rule="evenodd" clip-rule="evenodd" d="M34.664 25.0396C34.592 25.0396 34.5347 25.0968 34.5347 25.1689C34.5347 25.2409 34.592 25.2982 34.664 25.2982C34.736 25.2982 34.7933 25.2409 34.7933 25.1689C34.7933 25.0968 34.736 25.0396 34.664 25.0396Z" fill="white"/>
<path fill-rule="evenodd" clip-rule="evenodd" d="M35.8706 25.3323C35.8706 25.3323 35.3616 24.7938 34.3484 24.8478C33.3353 24.9002 32.7199 25.4092 32.7199 25.4092C32.2894 25.5074 32.2698 25.1686 32.2583 24.9575C32.3794 25.1162 33.0259 24.6187 33.5759 24.4632C34.1946 24.288 35.5023 24.2602 35.8706 25.3339V25.3323Z" fill="#413024"/>
<path fill-rule="evenodd" clip-rule="evenodd" d="M32.8164 26.0771C33.3794 26.7024 34.8623 26.7466 35.3746 26.1295C34.6937 27.0903 33.1192 26.817 32.8164 26.0771Z" fill="#784A2E"/>
<path fill-rule="evenodd" clip-rule="evenodd" d="M39.6138 26.0737C40.2554 26.6875 41.9478 26.7039 42.5321 26.077C41.7563 27.0509 39.9608 26.8086 39.6138 26.0737Z" fill="#784A2E"/>
</svg>
