<svg width="85" height="212" viewBox="0 0 85 212" fill="none" xmlns="http://www.w3.org/2000/svg">
<path fill-rule="evenodd" clip-rule="evenodd" d="M31.3584 22.4961H43.3424V27.4898H31.3584V22.4961Z" fill="#C78C68"/>
<path fill-rule="evenodd" clip-rule="evenodd" d="M38.4355 25.6285C38.4355 25.6285 37.3018 23.9893 38.9643 23.708C40.6267 23.4267 42.6445 24.4525 42.4457 25.3641C42.2469 26.2778 40.0218 27.5194 38.4355 25.6285Z" fill="#B37B58"/>
<path fill-rule="evenodd" clip-rule="evenodd" d="M37.8265 24.1182C38.057 24.0653 39.8781 23.3568 40.4598 23.1326C41.0414 22.9084 41.5321 22.9464 41.9488 23.1453C42.3654 23.3441 42.8011 23.5556 42.8011 23.5556C42.8011 23.5556 43.0127 23.5217 42.8942 23.397C42.7758 23.2722 42.0143 22.7624 41.6569 22.6101C41.2994 22.4579 40.0092 22.6567 38.8121 23.067C38.7719 23.0797 37.2808 23.4625 37.8265 24.1182Z" fill="#413024"/>
<path fill-rule="evenodd" clip-rule="evenodd" d="M34.8632 23.9468C34.8632 23.9468 35.7325 24.6257 35.8891 25.4189C36.0054 26.0132 35.9187 27.02 35.8658 27.4895H35.8616C35.8933 27.0348 35.8996 26.0745 35.4639 25.3998C34.8759 24.4882 33.9199 23.8896 33.9199 23.8896L34.8654 23.9468H34.8632Z" fill="#B37B58"/>
<path fill-rule="evenodd" clip-rule="evenodd" d="M38.1078 24.1733C38.1078 24.1733 37.3908 24.442 37.2681 25.4614C37.1455 26.4809 37.1983 26.6311 37.1983 26.6311C37.1983 26.6311 37.6087 24.5794 38.1078 24.1733Z" fill="#B37B58"/>
<path fill-rule="evenodd" clip-rule="evenodd" d="M35.1845 25.6221C35.1845 25.6221 35.5906 24.4186 34.6219 23.9322C33.6553 23.4457 31.4176 24.4504 31.5889 25.3641C31.7581 26.2778 33.8267 27.513 35.1845 25.6221Z" fill="#B37B58"/>
<path fill-rule="evenodd" clip-rule="evenodd" d="M31.4811 23.7945C31.4811 23.7945 31.8279 23.4307 32.2721 23.5174C32.7142 23.6041 34.6727 24.0462 34.8377 24.0991C35.0027 24.1519 35.0429 24.1181 35.0429 24.1181C35.0429 24.1181 35.3538 23.6887 34.6727 23.4497C33.9917 23.2107 32.3969 23.0796 32.2044 23.0606C32.0119 23.0415 31.6418 23.2996 31.517 23.4836C31.3922 23.6697 31.3817 23.8664 31.4811 23.7945Z" fill="#413024"/>
<path fill-rule="evenodd" clip-rule="evenodd" d="M38.2622 24.9853C38.2622 24.9853 38.7719 24.3085 40.022 24.1774C41.2741 24.0462 42.3359 24.962 42.3359 24.962C42.3359 24.962 41.6083 24.0018 40.3286 23.951C39.049 23.9003 38.4293 24.6998 38.2622 24.9832V24.9853Z" fill="#784A2E"/>
<path fill-rule="evenodd" clip-rule="evenodd" d="M38.6492 25.8293C38.1669 26.2079 37.9321 25.6199 38.408 25.364C38.408 25.364 38.9241 24.5137 40.2037 24.592C41.4834 24.6724 41.881 25.3006 41.881 25.3006C41.881 25.3006 41.568 26.0874 40.4914 26.1889C39.4148 26.2904 38.7845 25.9457 38.647 25.8293H38.6492Z" fill="white"/>
<path fill-rule="evenodd" clip-rule="evenodd" d="M38.6492 25.8292C38.1669 26.2078 37.9321 25.6198 38.408 25.3639C38.408 25.3639 38.4419 25.3067 38.5159 25.2243C38.5667 25.4294 38.7909 25.9582 39.7575 26.0788C40.796 26.2078 41.6589 25.6388 41.7562 25.1587C41.845 25.2433 41.8831 25.3025 41.8831 25.3025C41.8831 25.3025 41.5701 26.0893 40.4935 26.1909C39.4169 26.2924 38.7866 25.9476 38.6492 25.8313V25.8292Z" fill="#E3A986"/>
<path fill-rule="evenodd" clip-rule="evenodd" d="M38.4103 25.364C38.4103 25.364 38.9264 24.5137 40.206 24.592C41.4856 24.6724 41.8833 25.3006 41.8833 25.3006C41.8833 25.3006 41.8473 25.3936 41.7543 25.5184C40.6671 24.9896 39.2542 25.1187 38.4082 25.3619L38.4103 25.364Z" fill="#ADA89F"/>
<path fill-rule="evenodd" clip-rule="evenodd" d="M39.8188 24.7507C39.9393 24.7401 40.0683 24.738 40.2058 24.7464C40.4512 24.7612 40.6627 24.7972 40.8446 24.8437C40.9334 24.9622 40.9863 25.1081 40.9863 25.2667C40.9863 25.6517 40.6733 25.9647 40.2883 25.9647C39.9034 25.9647 39.5903 25.6517 39.5903 25.2667C39.5903 25.0616 39.6792 24.8776 39.8188 24.7507Z" fill="#4C7012"/>
<path fill-rule="evenodd" clip-rule="evenodd" d="M40.2902 24.8755C40.506 24.8755 40.6815 25.051 40.6815 25.2668C40.6815 25.4825 40.506 25.6581 40.2902 25.6581C40.0745 25.6581 39.8989 25.4825 39.8989 25.2668C39.8989 25.051 40.0745 24.8755 40.2902 24.8755Z" fill="#413024"/>
<path fill-rule="evenodd" clip-rule="evenodd" d="M40.2926 25.0469C40.3645 25.0469 40.4216 25.104 40.4216 25.1759C40.4216 25.2478 40.3645 25.3049 40.2926 25.3049C40.2207 25.3049 40.1636 25.2478 40.1636 25.1759C40.1636 25.104 40.2207 25.0469 40.2926 25.0469Z" fill="white"/>
<path fill-rule="evenodd" clip-rule="evenodd" d="M38.4502 25.3383C38.4502 25.3383 39.0107 24.7841 40.0978 24.837C41.1829 24.8899 41.8259 25.4144 41.8259 25.4144C41.8259 25.4144 42.2002 25.5392 42.5936 25.3573C42.987 25.1754 43.059 24.8053 43.059 24.8053C43.059 24.8053 42.9363 24.9618 42.4858 24.9597C42.0353 24.9576 41.5234 24.5578 40.8614 24.3823C40.1994 24.2067 38.8457 24.266 38.4502 25.3383Z" fill="#413024"/>
<path fill-rule="evenodd" clip-rule="evenodd" d="M31.9043 24.8733C31.9043 24.8733 32.5409 24.2261 33.5308 24.1245C34.5207 24.023 35.0114 24.6998 35.1213 24.9833C35.2292 25.2667 35.2229 25.2667 35.2229 25.2667C35.2229 25.2667 34.8908 24.4333 33.8438 24.2874C32.7969 24.1415 31.9445 24.8373 31.9064 24.8733H31.9043Z" fill="#784A2E"/>
<path fill-rule="evenodd" clip-rule="evenodd" d="M34.9562 25.823C35.4067 26.2016 35.6267 25.6115 35.1804 25.3577C35.1804 25.3577 34.6982 24.5074 33.5031 24.5857C32.3081 24.666 31.938 25.2942 31.938 25.2942C31.938 25.2942 32.2299 26.081 33.2345 26.1825C34.2392 26.2841 34.8272 25.9393 34.9562 25.823Z" fill="white"/>
<path fill-rule="evenodd" clip-rule="evenodd" d="M34.9564 25.8228C35.4069 26.2014 35.6269 25.6113 35.1806 25.3575C35.1806 25.3575 35.1488 25.3004 35.079 25.2179C35.0325 25.4231 34.8231 25.9518 33.92 26.0724C32.9492 26.2014 32.1433 25.6325 32.0545 25.1523C31.972 25.2369 31.936 25.2962 31.936 25.2962C31.936 25.2962 32.2279 26.083 33.2326 26.1845C34.2372 26.286 34.8252 25.9413 34.9543 25.8249L34.9564 25.8228Z" fill="#E3A986"/>
<path fill-rule="evenodd" clip-rule="evenodd" d="M35.1804 25.3577C35.1804 25.3577 34.6982 24.5074 33.5031 24.5857C32.3081 24.666 31.938 25.2942 31.938 25.2942C31.938 25.2942 31.9718 25.3873 32.0585 25.5121C32.8559 25.0129 34.2752 24.9854 35.1825 25.3555L35.1804 25.3577Z" fill="#ADA89F"/>
<path fill-rule="evenodd" clip-rule="evenodd" d="M34.4107 24.7424C34.2901 24.7318 34.1611 24.7297 34.0236 24.7381C33.7783 24.7529 33.5668 24.7889 33.3849 24.8354C33.296 24.9539 33.2432 25.0998 33.2432 25.2584C33.2432 25.6434 33.5562 25.9564 33.9411 25.9564C34.3261 25.9564 34.6391 25.6434 34.6391 25.2584C34.6391 25.0533 34.5503 24.8693 34.4107 24.7424Z" fill="#4C7012"/>
<path fill-rule="evenodd" clip-rule="evenodd" d="M33.9411 24.8672C33.7254 24.8672 33.5498 25.0427 33.5498 25.2585C33.5498 25.4742 33.7254 25.6498 33.9411 25.6498C34.1568 25.6498 34.3324 25.4742 34.3324 25.2585C34.3324 25.0427 34.1568 24.8672 33.9411 24.8672Z" fill="#413024"/>
<path fill-rule="evenodd" clip-rule="evenodd" d="M33.9371 25.0386C33.8652 25.0386 33.8081 25.0957 33.8081 25.1676C33.8081 25.2395 33.8652 25.2966 33.9371 25.2966C34.009 25.2966 34.0661 25.2395 34.0661 25.1676C34.0661 25.0957 34.009 25.0386 33.9371 25.0386Z" fill="white"/>
<path fill-rule="evenodd" clip-rule="evenodd" d="M35.1423 25.3324C35.1423 25.3324 34.6326 24.7951 33.6195 24.848C32.6064 24.9009 31.9909 25.4085 31.9909 25.4085C31.5615 25.5058 31.5404 25.1674 31.5298 24.9559C31.6503 25.1145 32.2976 24.6175 32.8475 24.461C33.4651 24.2875 34.7743 24.2579 35.1423 25.3324Z" fill="#413024"/>
<path fill-rule="evenodd" clip-rule="evenodd" d="M32.0879 26.0767C32.6505 26.7006 34.1332 26.745 34.6471 26.1295C33.9661 27.0898 32.3925 26.8169 32.0879 26.0767Z" fill="#784A2E"/>
<path fill-rule="evenodd" clip-rule="evenodd" d="M38.8857 26.0728C39.5287 26.6861 41.2187 26.703 41.8046 26.077C41.0283 27.0499 39.2326 26.8088 38.8857 26.0728Z" fill="#784A2E"/>
</svg>
