<svg width="85" height="212" viewBox="0 0 85 212" fill="none" xmlns="http://www.w3.org/2000/svg">
<path fill-rule="evenodd" clip-rule="evenodd" d="M36.8602 192.089C36.8602 192.089 37.1482 192.942 37.3055 194.294C37.4602 195.648 37.4495 196.267 37.4495 196.267C37.4495 196.267 36.7695 197.272 35.3136 197.838C33.8576 198.403 33.063 198.408 33.063 198.408L31.6124 198.15C31.6124 198.15 31.039 198.683 29.9351 200.307C28.8311 201.931 27.2712 203 25.0126 203.304C22.754 203.611 18.6288 203.512 17.6448 203.075C16.6608 202.638 15.7755 201.523 15.7675 201.171C15.7569 200.819 15.4102 199.966 16.6742 198.811C17.9381 197.656 24.1779 194.387 25.4979 192.083C26.8178 189.779 36.0042 189.675 36.8655 192.086L36.8602 192.089Z" fill="#424852"/>
<path fill-rule="evenodd" clip-rule="evenodd" d="M36.4175 195.299C36.4175 195.299 34.5403 196.104 33.207 196.875C31.8737 197.648 31.367 197.987 30.4791 198.904C29.5911 199.821 28.5538 201.682 26.4952 202.354C24.4366 203.026 19.1114 203.186 18.0981 202.749C17.0848 202.312 16.2902 201.272 16.2902 201.272C16.2902 201.272 17.6528 202.618 19.3327 202.656C21.0127 202.693 24.9939 202.421 26.2205 202.034C27.4471 201.645 28.7191 200.816 30.1857 198.453C31.6523 196.091 35.5216 195.424 36.4149 195.301L36.4175 195.299ZM23.0206 200.664C23.0206 200.664 21.2127 200.776 19.1487 200.168C17.0848 199.56 17.4128 198.659 17.4128 198.659C17.4128 198.659 16.1728 200.181 18.4474 200.891C20.7194 201.6 23.0206 200.661 23.0206 200.661V200.664ZM26.9058 193.696C26.9058 193.696 26.4765 194.109 26.7512 194.52C27.0285 194.931 27.7458 197.517 27.7458 197.517C27.7458 197.517 26.7485 195.504 26.3752 194.859C26.0045 194.213 25.9512 193.875 26.0179 193.653C26.0845 193.432 26.1272 193.315 26.1272 193.315C26.1272 193.315 26.5832 193.251 26.9032 193.693L26.9058 193.696Z" fill="#58606D"/>
<path fill-rule="evenodd" clip-rule="evenodd" d="M60.8008 191.035C60.8008 191.035 63.0461 195.544 63.2994 196.328C63.5527 197.112 63.63 199.818 63.63 199.818C63.63 199.818 63.8354 203.519 59.8355 203.762C55.8356 204.002 54.161 201.682 54.041 199.744C53.9237 197.805 53.7024 195.162 53.0944 193.89C52.4864 192.618 52.4864 192.618 52.4864 192.618C52.4864 192.618 52.0464 190.251 52.5237 189.349C53.001 188.448 59.8382 190.248 60.8008 191.035Z" fill="#424852"/>
<path fill-rule="evenodd" clip-rule="evenodd" d="M62.6781 199.709C62.6781 199.709 62.4194 202.104 59.5955 202.33C56.7716 202.557 55.4463 200.485 55.2783 199.669C55.1076 198.85 55.7023 201.154 58.3582 201.288C61.0141 201.421 62.1954 200.434 62.6781 199.709ZM58.4435 192.584C58.4435 192.584 59.0915 194.165 59.7235 194.627C60.3555 195.088 61.7634 195.419 61.7634 195.419C61.7634 195.419 59.8568 194.683 59.5715 193.928C59.2862 193.173 59.0782 192.592 59.0782 192.592C59.0782 192.592 58.8569 192.085 58.4435 192.587V192.584ZM56.1476 192.744C56.1476 192.744 56.5609 193.819 56.4036 194.501C56.2463 195.184 55.4756 196.096 55.4756 196.096C55.4756 196.096 56.7556 194.957 56.8809 194.187C57.0062 193.416 56.7396 192.808 56.7396 192.808C56.7396 192.808 56.4836 192.597 56.1476 192.741V192.744Z" fill="#58606D"/>
<path fill-rule="evenodd" clip-rule="evenodd" d="M59.3475 86.299C59.3475 86.299 64.3233 95.0028 63.686 104.421C63.0513 113.84 61.0994 137.628 61.0994 137.628L60.4408 182.896L60.7901 191.01C60.7901 191.01 56.9449 192.05 54.9583 192.125C52.9743 192.2 52.1397 191.952 52.1397 191.952C52.1397 191.952 50.9371 188.795 51.0384 187.616C51.1397 186.437 51.2997 181.245 51.089 180.221C50.8811 179.195 46.9505 145.359 47.0812 141.455C47.2145 137.551 46.9212 136.012 46.8412 135.404C46.7612 134.796 44.3586 115.378 44.3586 115.378C44.3586 115.378 39.6921 146.393 40.38 147.87C41.068 149.348 39.7374 171.811 38.0601 179.955C36.3802 188.099 36.7402 188.128 36.7402 188.128L37.0575 192.853C37.0575 192.853 34.3456 194.01 30.8257 193.581C27.3031 193.152 25.7512 191.597 25.7512 191.597C25.7512 191.597 27.1858 189.52 27.2098 187.451C27.2338 185.384 26.4045 144.364 26.2498 142.303C26.0978 140.241 24.2339 110.154 23.9486 104.058C23.6659 97.9627 27.5138 85.915 27.5138 85.915C27.5138 85.915 51.849 86.355 59.3421 86.3044L59.3475 86.299Z" fill="#23314B"/>
<path fill-rule="evenodd" clip-rule="evenodd" d="M41.084 95.2401C41.084 95.2401 40.9507 106.464 41.0387 107.698C41.1267 108.933 43.772 110.786 43.772 110.786C43.772 110.786 41.8307 108.096 41.9187 107.434C42.0067 106.773 42.1827 95.1548 42.1827 95.1548C42.1827 95.1548 41.6547 95.0668 41.0814 95.2428L41.084 95.2401Z" fill="#192233"/>
<path d="M16.4528 103.755C16.4528 103.755 18.2128 105.256 18.1835 107.917C18.1755 108.595 17.6715 109.891 17.4715 110.539C17.3595 110.907 17.0928 111.635 17.0688 112.016C17.0342 112.6 17.3275 113.757 17.2955 114.341C17.2555 115.072 16.7462 116.92 16.0182 116.97C15.2982 117.018 14.7782 115.104 14.7276 114.384C14.6796 113.733 15.4502 112.176 14.9329 111.776C14.7569 111.64 14.3596 111.904 14.1729 112.027C14.0183 112.128 13.6689 112.357 13.5996 112.528C13.5063 112.763 13.3996 113.213 13.3223 113.411C13.2903 113.493 13.0156 113.968 13.0876 114.261C13.2343 114.859 13.4876 116.861 13.4876 116.861C13.4876 116.861 14.4289 117.341 14.8396 117.786C15.0342 117.994 15.9915 118.317 16.2262 118.466C16.5755 118.688 17.1035 119.472 16.8448 119.797C16.4822 120.25 14.7569 119.85 14.1463 119.482C13.2956 118.968 11.7837 118.37 11.4397 117.642C11.109 116.946 10.8664 114.696 10.6424 114.051C10.4557 113.517 10.3784 113.333 10.2157 112.747C10.0424 112.12 10.6477 109.821 11.1517 107.941C11.565 106.408 12.6263 103.862 12.6263 103.862L16.4528 103.76V103.755Z" fill="#E3A06B"/>
<path d="M17.1062 115.342C17.1942 115.496 17.3168 115.72 17.3728 115.819C17.5275 116.091 18.0261 116.584 17.9995 116.894C17.9861 117.03 17.6422 117.31 17.6422 117.31C17.6422 117.31 18.5835 118.23 18.5781 118.635C18.5755 118.768 18.2635 119.054 18.2635 119.054C18.2635 119.054 18.2661 119.731 18.1008 119.853C17.8848 120.013 17.2715 119.907 16.8395 119.803L16.8475 119.792C17.1062 119.467 16.5782 118.683 16.2289 118.462C15.9942 118.312 15.0369 117.99 14.8422 117.782C14.5116 117.427 13.7329 117.038 13.4796 116.902L13.4823 116.803C13.4423 116.483 13.221 114.795 13.0903 114.256C13.0183 113.963 13.293 113.488 13.325 113.406C13.4023 113.211 13.5089 112.758 13.6023 112.523C13.6716 112.352 14.0209 112.123 14.1756 112.022C14.3623 111.899 14.7596 111.635 14.9356 111.771C15.4529 112.171 14.6822 113.726 14.7302 114.379C14.7836 115.099 15.3009 117.016 16.0209 116.966C16.5035 116.934 16.8902 116.107 17.1088 115.342H17.1062ZM12.621 103.854C12.621 103.854 12.389 104.435 12.301 104.649C12.205 104.883 12.029 105.347 12.029 105.347C12.029 105.347 14.0103 105.23 14.6956 105.23C16.2635 105.233 17.8288 105.859 17.8288 105.859C17.8288 105.859 17.6342 105.337 17.3835 104.905C17.1648 104.526 16.7008 103.851 16.7008 103.851L14.5329 103.611L12.621 103.857V103.854Z" fill="#AD7140"/>
<path d="M12.2529 102.133L12.1676 104.307C12.1676 104.307 14.2689 104.253 15.0022 104.317C17.4661 104.539 18.1994 104.917 18.1994 104.917L18.6527 102.133L12.2529 102.128V102.133Z" fill="#C4C2CC"/>
<path d="M36.1349 28.3116C42.0254 28.3116 42.732 27.7383 48.7478 27.7383C48.6065 28.9409 48.7318 35.0634 49.9825 36.5273L49.0652 43.8391L46.8652 59.0706L35.3856 48.791L34.575 39.3966C37.0042 37.354 36.4549 30.3729 36.1322 28.3143L36.1349 28.3116Z" fill="#E3A06B"/>
<path d="M36.1349 28.3116C42.0253 28.3116 42.732 27.7383 48.7478 27.7383C48.6971 28.1649 48.6811 29.2102 48.7371 30.4449C48.0492 31.5035 46.7585 32.9168 44.3479 34.6554C41.42 36.7673 38.4948 35.9167 36.3509 34.3674C36.5429 31.9488 36.3055 29.4209 36.1322 28.3116H36.1349ZM49.3211 35.0154C49.4944 35.674 49.7131 36.21 49.9851 36.5273L49.0678 43.8391L47.6465 53.6761C46.9745 55.2628 46.2092 56.6787 45.3879 57.7453L35.7082 49.0763C35.5669 48.6523 35.4309 48.2283 35.3029 47.8017L34.5776 39.3966C35.5455 38.5833 36.0389 36.986 36.2629 35.2314C36.2629 35.2314 37.0708 39.5966 38.0628 42.1538C39.0548 44.7111 39.6281 46.5644 39.4734 47.3803C39.3188 48.1963 39.5401 48.6603 39.9374 49.3429C40.3347 50.0256 41.9 52.2975 41.988 51.8789C42.076 51.4602 42.3187 49.1883 43.42 47.6443C44.5213 46.1004 45.8012 45.0417 45.3372 44.1378C44.8733 43.2338 44.9613 42.6152 45.8892 41.1619C46.6865 39.9112 48.7558 36.8793 49.3184 35.0181L49.3211 35.0154ZM42.1453 37.1673C42.1453 37.1673 42.012 38.2046 42.3213 38.8659C42.6307 39.5272 43.116 39.1966 43.116 39.1966C43.116 39.1966 42.2787 38.7619 42.1453 37.1673Z" fill="#875B43"/>
<path d="M32.3057 90.2002C42.7747 93.2348 50.4918 92.9868 58.2942 88.3736C56.7023 84.5471 55.3503 81.2858 53.7584 77.4593C48.7265 63.3184 50.7984 44.287 51.4224 37.6472C50.3905 36.4339 50.1425 35.4446 50.1425 35.4446C50.1425 35.4446 49.6838 35.0606 49.4385 35.4206C48.9852 38.1939 45.4119 41.7004 45.3533 42.5084C45.0946 43.5777 46.1506 43.5377 46.0359 44.1537C45.8146 45.351 44.2227 47.2576 43.684 48.3402C43.0254 49.6628 42.4894 54.476 42.4894 54.476C42.4894 54.476 40.5348 51.6228 40.0761 50.9668C38.1028 47.9909 39.0041 48.3935 38.9775 46.7802C38.9695 46.2603 38.9615 45.9269 38.5322 44.4123C38.1268 42.9804 36.7162 39.7085 36.2336 35.4233C36.2122 35.2339 35.7536 35.5113 35.6443 35.7433C34.7643 37.7272 34.5723 39.3938 33.6203 42.2657C31.3751 53.34 41.0147 77.1526 32.3004 90.2002H32.3057Z" fill="#F2F1F6"/>
<path d="M50.5078 36.3412C50.5078 36.3412 49.4731 40.6478 48.5692 45.3836C48.4732 44.7143 48.1638 43.5917 48.1372 43.2344C48.0145 41.6344 47.2599 41.3357 46.7399 41.3251C46.0946 41.3117 45.4333 42.0237 45.3159 42.6584C45.2706 42.9144 45.3453 43.1677 45.4866 43.3837C45.3586 43.0744 45.3639 42.7224 45.8786 42.0397C46.3959 41.3571 47.6145 42.1437 47.7718 42.8237C47.9718 43.6957 48.4092 45.021 48.5478 45.4796C48.1105 47.7835 47.7025 50.1808 47.4625 52.2287C46.7932 57.9379 47.3532 69.6922 48.8358 75.1587C50.0864 79.7639 54.561 84.9584 54.9903 89.0969C49.8518 92.2515 41.8494 92.7768 36.1935 89.9449C36.4975 86.4863 38.0388 76.8946 38.0388 72.7348C38.0388 67.2656 36.0095 53.3327 35.3829 48.7915C35.3109 48.2662 35.2549 47.6929 35.2122 47.0929C35.5029 46.8849 35.8255 46.5676 36.0762 46.0876C36.6709 44.941 37.9055 45.6689 38.2601 46.3516C38.6121 47.0342 38.7241 47.5862 38.7241 47.5862C38.7241 47.5862 39.2308 45.9116 38.0628 44.741C36.8949 43.573 36.2095 44.8956 35.5936 46.1089C35.4549 46.3836 35.3189 46.6022 35.1962 46.7782C34.9216 42.2344 35.4016 36.2959 35.4016 36.2959C27.9751 49.1248 39.2308 78.6786 31.567 90.1049C43.812 93.9261 50.0971 92.5608 58.4515 88.8063C46.1159 59.6258 53.7903 54.746 51.4197 37.6479C51.1157 37.2132 50.8118 36.7785 50.5051 36.3412H50.5078Z" fill="#C4C2CC"/>
<path d="M64.8247 97.6485C64.8247 97.6485 64.3847 98.4458 64.3047 98.6564C64.062 99.2857 63.334 101.646 63.334 101.646L59.2062 94.0086L60.4195 93.0859L64.822 97.6485H64.8247Z" fill="#AD7140"/>
<path d="M59.5128 93.779L59.0328 95.115C59.0328 95.115 61.2168 96.2883 61.9474 96.6723C62.9287 97.1763 64.75 97.9602 64.75 97.9602C64.75 97.9602 65.07 97.1576 65.142 96.8723C65.19 96.6776 65.494 95.6776 65.494 95.6776L59.5102 93.7764L59.5128 93.779Z" fill="#C4C2CC"/>
<path d="M22.3726 108.192C22.3726 108.192 26.3245 111.952 27.8551 110.907C31.183 108.64 34.2443 97.2434 35.0416 88.7637C33.3616 94.1928 30.1297 105.435 28.2231 107.763C26.3192 110.091 22.3726 108.192 22.3726 108.192Z" fill="#192233"/>
<path d="M35.3936 36.3252C35.3936 36.3252 32.0123 39.2291 28.8791 40.1197C19.4634 42.7917 18.0048 44.9276 17.5488 54.298C17.4235 56.8526 17.3141 59.0338 17.1435 61.0738C17.0261 61.8044 16.9142 62.4737 16.8395 63.0604C16.7115 64.0737 16.4368 66.0843 16.2395 67.0789C15.8982 68.7882 15.5889 70.3588 15.3089 71.8441C13.7622 77.8092 13.2903 80.9611 13.0129 85.5477C12.7303 90.1955 12.1116 102.496 12.1116 102.496C13.7542 102.464 17.1941 102.651 18.6021 102.952C18.6021 102.952 20.93 91.1342 21.6633 87.6036C22.274 84.6624 24.0846 76.9079 24.0846 76.9079L26.4099 68.9935C26.4099 68.9935 26.3592 72.7534 26.4099 73.34C26.5299 74.74 26.3379 77.5666 26.0445 78.9425C25.8152 80.0252 25.3139 82.9397 24.9832 83.9957C24.2686 86.2623 23.4926 90.7528 23.1006 93.0968C22.4793 96.8006 21.666 107.494 21.666 107.494C21.666 107.494 25.6179 111.254 27.1485 110.208C30.5031 107.926 32.695 99.1899 35.2682 87.7716C36.4095 82.7077 36.8255 72.2227 36.5269 67.4496C36.2575 63.1164 34.6843 54.2846 34.3189 50.2688C34.023 47.0129 35.3936 36.3305 35.3936 36.3305V36.3252Z" fill="#23314B"/>
<path d="M50.5077 36.3406C50.5077 36.3406 48.2465 47.0789 48.1345 50.8601C48.0652 53.212 47.9532 57.9266 48.0625 60.2785C48.2225 63.6757 48.3638 71.1635 49.2678 74.4407C49.9504 76.91 52.009 80.5925 53.8543 82.4351C57.4515 86.0323 58.3208 94.2988 58.3208 94.2988C61.2701 95.6427 63.5767 96.6693 65.27 97.3813C65.27 97.3813 67.0326 92.5975 69.5285 87.5923C71.7337 83.1738 74.3123 75.0807 74.475 72.8594C74.523 72.1981 72.5844 66.225 70.6271 60.4171C68.4832 54.06 67.6699 47.1669 66.0993 44.9696C64.7473 43.079 54.1316 38.7911 50.5024 36.3379L50.5077 36.3406ZM59.2061 75.7153C58.6675 71.6541 60.5848 62.1904 60.5848 62.1904C60.5848 62.1904 61.9954 66.3316 63.1607 69.4569C64.4646 72.9474 64.8673 74.4967 64.822 74.9127C64.6966 76.0273 63.694 79.2139 62.6007 82.4645C61.4354 81.3045 59.4221 77.3579 59.2061 75.7153Z" fill="#23314B"/>
<path d="M30.7031 39.9277C30.2977 40.8024 26.1619 47.8688 26.1192 48.5541C26.3619 49.5488 29.0604 55.1779 30.2151 57.6525C29.2124 54.33 27.7725 49.9834 27.9218 48.6368C28.0631 47.3675 29.9431 42.2023 30.7031 39.9277Z" fill="#35496E"/>
<path d="M64.822 74.9131C63.59 81.1956 60.5128 86.9367 59.1102 94.5445C61.0834 89.6406 65.1686 79.6169 64.822 74.9131Z" fill="#182234"/>
<path fill-rule="evenodd" clip-rule="evenodd" d="M57.2729 48.1916L53.2437 49.1596L57.2756 49.1356C56.6089 51.5275 52.713 65.6897 50.7158 73.5241C52.9744 66.703 58.2462 48.6343 58.2462 48.6343C58.2462 48.6343 57.2089 42.9918 53.321 38.4346C55.5663 41.5011 56.6222 44.5144 57.2756 48.1943L57.2729 48.1916Z" fill="#182234"/>
<path fill-rule="evenodd" clip-rule="evenodd" d="M26.0685 48.1911L30.0977 49.1591L26.0659 49.1351C26.7325 51.527 33.4096 64.0893 35.4069 71.9237C33.1483 65.1026 25.0952 48.6338 25.0952 48.6338C25.0952 48.6338 26.3405 44.9379 30.599 39.9834C28.3538 43.05 26.7858 45.6659 26.0659 48.1938L26.0685 48.1911Z" fill="#182234"/>
<path d="M30.0364 40.0791C20.1194 43.679 18.9594 44.167 18.4634 54.316C18.3381 56.8706 18.2288 59.0492 18.0581 61.0838C17.9408 61.8118 17.8288 62.4837 17.7541 63.0677C17.6261 64.0784 17.3515 66.089 17.1541 67.0809C16.8128 68.7902 16.5035 70.3555 16.2235 71.8434C16.0315 72.5794 15.8582 73.2701 15.6982 73.9287C16.7088 75.5367 19.8021 55.7399 20.2154 50.9614C20.6927 45.4629 24.5539 42.5564 28.1005 41.0764C28.8791 40.7511 29.5164 40.4124 30.0364 40.0791Z" fill="#35496E"/>
<path fill-rule="evenodd" clip-rule="evenodd" d="M34.0869 92.9043C39.6308 95.8429 48.7425 94.6136 57.9875 91.499L58.2622 92.1177C51.3664 95.0002 40.7507 97.0695 33.8736 93.8029L34.0896 92.9016L34.0869 92.9043Z" fill="#192233"/>
<path d="M70.0405 60.2443C68.6432 54.3458 66.8059 46.3647 65.7366 44.9621C64.8193 43.7595 57.8702 40.6742 54.5103 39.085C54.5103 39.085 63.0861 44.0688 64.4033 45.2741C65.7233 46.4794 67.8246 53.1645 70.0405 60.2416V60.2443Z" fill="#35496E"/>
<path fill-rule="evenodd" clip-rule="evenodd" d="M50.3584 20.6775C50.3584 20.6775 51.4384 20.4135 51.633 20.8215C51.8277 21.2295 52.0917 23.0374 51.841 24.1387C51.5877 25.24 50.5317 26.784 50.0491 26.784C49.5664 26.784 49.5424 26.6293 49.5424 26.6293C49.5238 26.8533 49.5451 26.6213 49.5184 26.9386C49.5158 32.1865 48.2438 31.4691 44.5319 34.2451C43.684 34.8797 40.8947 34.7784 40.1107 34.1917C36.3402 31.3705 35.0869 32.1571 35.1242 26.6293C35.1242 26.6293 35.1002 26.784 34.6176 26.784C34.1349 26.784 33.079 25.24 32.8256 24.1387C32.5723 23.0374 32.8363 21.2295 33.0336 20.8215C33.2283 20.4135 34.3082 20.6775 34.3082 20.6775C33.4603 15.627 35.5722 9.88582 42.38 9.91515C49.2998 9.94448 51.3077 16.5203 50.3584 20.6775Z" fill="#E3A06B"/>
<path fill-rule="evenodd" clip-rule="evenodd" d="M50.2091 23.6669C50.2091 23.6669 50.7531 23.4563 50.6198 22.795C50.4864 22.1336 50.4491 21.6803 50.7718 21.5817C51.0971 21.483 51.4677 22.6616 51.3824 23.6109C51.2971 24.5602 50.5344 25.6722 50.5344 25.6722C50.5344 25.6722 51.4971 24.6482 51.5157 23.1709C51.5344 21.6937 51.2491 21.1523 50.8571 21.1523C50.4651 21.1523 50.2758 21.6803 50.2758 21.7817C50.2758 21.8803 50.3984 22.7523 50.2091 23.6669Z" fill="#AD7140"/>
<path fill-rule="evenodd" clip-rule="evenodd" d="M34.4336 23.6669C34.4336 23.6669 33.9003 23.4563 34.0309 22.795C34.1616 22.1336 34.1989 21.6803 33.8816 21.5817C33.5643 21.483 33.199 22.6616 33.2816 23.6109C33.367 24.5602 34.1163 25.6722 34.1163 25.6722C34.1163 25.6722 33.1696 24.6482 33.151 23.1709C33.1323 21.6937 33.4123 21.1523 33.7963 21.1523C34.1803 21.1523 34.3669 21.6803 34.3669 21.7817C34.3669 21.8803 34.2443 22.7523 34.4336 23.6669Z" fill="#AD7140"/>
<path fill-rule="evenodd" clip-rule="evenodd" d="M35.1242 26.6639V26.6319C35.1242 26.6319 35.1002 26.7866 34.6176 26.7866C34.5349 26.7866 34.4362 26.7412 34.3269 26.6612C34.3882 26.6986 34.5136 26.7866 34.7562 26.4266C34.9989 26.0666 34.8309 24.6346 34.8709 25.0106C34.9109 25.3866 35.1722 26.0479 35.1242 26.6639ZM49.5451 26.6639V26.6319C49.5451 26.6319 49.5691 26.7866 50.0517 26.7866C50.1344 26.7866 50.2331 26.7412 50.3424 26.6612C50.2811 26.6986 50.1557 26.7866 49.9131 26.4266C49.6704 26.0666 50.4837 24.7333 50.2224 25.1013C49.9611 25.4719 49.5851 26.2399 49.5451 26.6639Z" fill="#AD7140"/>
<path fill-rule="evenodd" clip-rule="evenodd" d="M43.0733 26.7406C43.0733 26.7406 43.4893 26.578 43.6653 26.4046C44.068 26.0047 44.2066 26.6793 43.964 26.714C43.812 26.7353 43.3853 26.7166 43.0733 26.7433V26.7406ZM41.74 26.7406C41.74 26.7406 41.324 26.578 41.1481 26.4046C40.7454 26.0047 40.6067 26.6793 40.8494 26.714C41.0014 26.7353 41.428 26.7166 41.74 26.7433V26.7406Z" fill="#784A24"/>
<path fill-rule="evenodd" clip-rule="evenodd" d="M44.1373 25.3811C44.1773 25.3811 44.4146 25.6078 44.4146 26.0985C44.4146 26.5891 44.1373 26.7358 43.9186 26.7278C43.7 26.7198 43.6867 26.7064 43.6867 26.7064C43.6867 26.7064 44.1453 26.9118 44.4813 26.5384C44.8146 26.1651 44.5533 25.3491 44.3346 25.2398C44.116 25.1305 44.0626 25.3545 44.1373 25.3838V25.3811ZM40.6734 25.3811C40.6334 25.3811 40.3961 25.6078 40.3961 26.0985C40.3961 26.5891 40.6734 26.7358 40.8921 26.7278C41.1107 26.7198 41.1241 26.7064 41.1241 26.7064C41.1241 26.7064 40.6654 26.9118 40.3294 26.5384C39.9961 26.1651 40.2574 25.3491 40.4761 25.2398C40.6947 25.1305 40.7481 25.3545 40.6734 25.3838V25.3811Z" fill="#AD7140"/>
<path d="M42.4733 24.9379C42.5793 24.9379 42.6653 23.9661 42.6653 22.7673C42.6653 21.5685 42.5793 20.5967 42.4733 20.5967C42.3673 20.5967 42.2813 21.5685 42.2813 22.7673C42.2813 23.9661 42.3673 24.9379 42.4733 24.9379Z" fill="#EDB587"/>
<path d="M42.5453 26.0072C42.7058 26.0072 42.836 25.8794 42.836 25.7218C42.836 25.5643 42.7058 25.4365 42.5453 25.4365C42.3848 25.4365 42.2546 25.5643 42.2546 25.7218C42.2546 25.8794 42.3848 26.0072 42.5453 26.0072Z" fill="#EDB587"/>
<path fill-rule="evenodd" clip-rule="evenodd" d="M40.188 20.5247C40.188 20.5247 41.0867 21.3727 41.0867 21.914C41.0867 22.4553 40.9533 22.8393 41.0067 23.1966C41.06 23.5539 40.94 23.0126 41.2573 22.6019C41.5747 22.1913 41.4947 21.3193 41.2707 20.882C41.0467 20.4447 39.9214 19.97 40.1854 20.5247H40.188Z" fill="#AD7140"/>
<path fill-rule="evenodd" clip-rule="evenodd" d="M42.524 29.119C42.8653 28.9856 43.5373 28.8016 43.9666 29.079C44.396 29.3563 45.2439 29.7003 45.5746 29.5696C45.9026 29.4363 46.0412 29.4363 46.0066 29.5483C45.9719 29.6603 45.7719 29.7376 45.3719 29.6363C44.9719 29.5376 44.1373 29.559 43.412 29.6336C42.8227 29.695 42.6093 29.767 42.3587 29.7696C42.084 29.7723 41.772 29.7003 41.1294 29.6336C40.4041 29.559 39.7348 29.5376 39.3348 29.6363C38.9348 29.735 38.7348 29.6603 38.7001 29.5483C38.6655 29.4363 38.8041 29.4363 39.1321 29.5696C39.4601 29.703 40.1454 29.3563 40.5721 29.079C41.0014 28.8016 41.6707 28.9856 42.0147 29.119C42.1907 29.1856 42.3507 29.1856 42.524 29.119Z" fill="#AD7140"/>
<path fill-rule="evenodd" clip-rule="evenodd" d="M41.4547 30.0046C41.4547 30.0046 42.2627 30.0232 42.9373 29.9912C43.612 29.9592 44.1693 29.8046 44.0626 29.9939C43.9586 30.1832 43.3853 30.5352 42.3533 30.5085C41.3214 30.4819 41.0174 29.9726 41.4547 30.0046Z" fill="#EDB587"/>
<path fill-rule="evenodd" clip-rule="evenodd" d="M40.9587 30.6262C42.1507 30.9995 42.468 30.9382 43.5906 30.6662C43.6546 30.6608 43.0786 31.2795 42.3133 31.2875C41.5853 31.2955 40.8414 30.6128 40.9587 30.6262Z" fill="#AD7140"/>
<path fill-rule="evenodd" clip-rule="evenodd" d="M44.0626 20.5041C44.0626 20.5041 43.7586 20.9467 43.7373 21.456C43.7186 21.9654 44.0146 21.8934 43.9613 21.7334C43.908 21.5734 44.06 20.9654 44.4653 20.6561C44.8679 20.3441 44.8893 20.1734 44.8093 20.1414C44.7293 20.1094 44.0893 20.3654 44.0626 20.5041Z" fill="#CF8F5B"/>
<path fill-rule="evenodd" clip-rule="evenodd" d="M44.036 21.5438C44.036 21.5438 44.7773 20.7038 45.7479 20.5838C46.7212 20.4638 47.0572 20.8825 47.3159 21.0531C47.5745 21.2264 47.7185 21.2638 47.8332 21.2718C47.9452 21.2771 47.6945 21.3971 47.3692 21.1918C47.0439 20.9864 46.5719 20.6798 45.8733 20.7091C45.1746 20.7385 44.5266 21.1064 44.0333 21.5411L44.036 21.5438Z" fill="#AD7140"/>
<path fill-rule="evenodd" clip-rule="evenodd" d="M44.3933 22.0401C44.2413 22.0721 44.1026 22.0587 44.0813 21.9601C44.0626 21.8614 44.236 21.7307 44.3213 21.6907C44.8466 21.4481 45.0599 20.9521 46.1452 21.0588C46.7292 21.1174 47.1025 21.4961 47.1025 21.4961C47.1025 21.4961 46.6092 22.1414 45.7426 22.1894C44.8759 22.2401 44.5079 22.0107 44.3906 22.0374L44.3933 22.0401Z" fill="white"/>
<path fill-rule="evenodd" clip-rule="evenodd" d="M44.3933 22.0392C44.2413 22.0712 44.1026 22.0579 44.0813 21.9592C44.0626 21.8606 44.236 21.7299 44.3213 21.6899L44.3453 21.6793C44.4413 21.8153 44.7826 22.1726 45.7372 22.1272C46.6359 22.0846 46.8519 21.5859 46.9612 21.3779C47.0519 21.4446 47.1025 21.4953 47.1025 21.4953C47.1025 21.4953 46.6092 22.1406 45.7426 22.1886C44.8759 22.2392 44.5079 22.0099 44.3906 22.0366L44.3933 22.0392Z" fill="#EDB587"/>
<path fill-rule="evenodd" clip-rule="evenodd" d="M44.3853 21.6611C44.868 21.4105 45.108 20.9571 46.1506 21.0585C46.7346 21.1171 47.1079 21.4958 47.1079 21.4958C47.1079 21.4958 47.0786 21.5358 47.0199 21.5945C46.8012 21.4558 46.6252 21.2958 45.9746 21.2505C45.3266 21.2025 44.5693 21.5678 44.3853 21.6611Z" fill="#ADA89F"/>
<path fill-rule="evenodd" clip-rule="evenodd" d="M45.2386 21.1463C45.4519 21.0663 45.7213 21.0236 46.0972 21.0556C46.2439 21.1703 46.3372 21.3463 46.3372 21.5463C46.3372 21.8902 46.0599 22.1676 45.7159 22.1676C45.3719 22.1676 45.0946 21.8902 45.0946 21.5463C45.0946 21.3943 45.1479 21.2556 45.2386 21.1463Z" fill="#625D54"/>
<path d="M45.7159 21.8366C45.8779 21.8366 46.0093 21.7053 46.0093 21.5433C46.0093 21.3813 45.8779 21.25 45.7159 21.25C45.5539 21.25 45.4226 21.3813 45.4226 21.5433C45.4226 21.7053 45.5539 21.8366 45.7159 21.8366Z" fill="#191716"/>
<path d="M45.8893 21.5705C45.9762 21.5705 46.0466 21.5001 46.0466 21.4132C46.0466 21.3263 45.9762 21.2559 45.8893 21.2559C45.8024 21.2559 45.7319 21.3263 45.7319 21.4132C45.7319 21.5001 45.8024 21.5705 45.8893 21.5705Z" fill="white"/>
<path fill-rule="evenodd" clip-rule="evenodd" d="M44.3347 21.6851C44.3347 21.6851 44.5507 21.5704 44.8413 21.4077C45.132 21.2451 45.5293 21.0931 46.0493 21.1438C46.5693 21.1944 46.9159 21.4157 47.0146 21.4771C47.1132 21.5411 47.2226 21.5411 47.2759 21.5304C47.3292 21.5197 47.3399 21.5171 47.3399 21.5171C47.3399 21.5171 47.1746 21.4531 47.0706 21.3517C46.9692 21.2504 46.5799 20.9944 45.8973 20.9971C45.212 20.9998 45.0973 21.1331 44.3347 21.6851Z" fill="#191716"/>
<path fill-rule="evenodd" clip-rule="evenodd" d="M44.8146 23.1143C44.8146 23.1143 45.6226 23.4049 46.3373 23.4049C47.0519 23.4049 47.2759 23.3382 47.2759 23.3382C47.2759 23.3382 45.6093 23.8422 44.8146 23.1143Z" fill="#CF8F5B"/>
<path fill-rule="evenodd" clip-rule="evenodd" d="M43.4973 20.293C43.4973 20.293 43.6787 20.7677 43.8013 20.7037C44.5693 20.2957 46.3186 19.469 47.5319 20.5437C47.8199 20.7997 47.8252 20.8023 47.9212 20.8823C48.0199 20.9623 48.2198 20.9383 48.0732 20.701C47.9265 20.4637 47.1719 19.4984 46.2332 19.2211C45.2946 18.9437 44.1293 19.7117 43.8386 19.8424C43.548 19.9757 43.3747 20.0397 43.4947 20.293H43.4973Z" fill="#402F26"/>
<path fill-rule="evenodd" clip-rule="evenodd" d="M40.6307 21.5438C40.6307 21.5438 39.8894 20.7038 38.9188 20.5838C37.9455 20.4638 37.6095 20.8825 37.3508 21.0531C37.0922 21.2264 36.9482 21.2638 36.8335 21.2718C36.7215 21.2771 36.9722 21.3971 37.2975 21.1918C37.6228 20.9864 38.0948 20.6798 38.7934 20.7091C39.4921 20.7385 40.1401 21.1064 40.6334 21.5411L40.6307 21.5438Z" fill="#AD7140"/>
<path fill-rule="evenodd" clip-rule="evenodd" d="M40.2734 22.0401C40.4254 22.0721 40.5641 22.0587 40.5854 21.9601C40.6041 21.8614 40.4307 21.7307 40.3454 21.6907C39.8201 21.4481 39.6068 20.9521 38.5215 21.0588C37.9375 21.1174 37.5641 21.4961 37.5641 21.4961C37.5641 21.4961 38.0575 22.1414 38.9241 22.1894C39.7907 22.2401 40.1587 22.0107 40.2761 22.0374L40.2734 22.0401Z" fill="white"/>
<path fill-rule="evenodd" clip-rule="evenodd" d="M40.2734 22.0392C40.4254 22.0712 40.5641 22.0579 40.5854 21.9592C40.6041 21.8606 40.4307 21.7299 40.3454 21.6899L40.3214 21.6793C40.2254 21.8153 39.8841 22.1726 38.9294 22.1272C38.0308 22.0846 37.8148 21.5859 37.7055 21.3779C37.6148 21.4446 37.5641 21.4953 37.5641 21.4953C37.5641 21.4953 38.0575 22.1406 38.9241 22.1886C39.7907 22.2392 40.1587 22.0099 40.2761 22.0366L40.2734 22.0392Z" fill="#EDB587"/>
<path fill-rule="evenodd" clip-rule="evenodd" d="M40.2814 21.6611C39.7988 21.4105 39.5588 20.9571 38.5161 21.0585C37.9322 21.1171 37.5588 21.4958 37.5588 21.4958C37.5588 21.4958 37.5882 21.5358 37.6468 21.5945C37.8655 21.4558 38.0415 21.2958 38.6921 21.2505C39.3401 21.2025 40.0974 21.5678 40.2814 21.6611Z" fill="#ADA89F"/>
<path fill-rule="evenodd" clip-rule="evenodd" d="M39.4281 21.1463C39.2148 21.0663 38.9454 21.0236 38.5695 21.0556C38.4228 21.1703 38.3295 21.3463 38.3295 21.5463C38.3295 21.8902 38.6068 22.1676 38.9508 22.1676C39.2948 22.1676 39.5721 21.8902 39.5721 21.5463C39.5721 21.3943 39.5188 21.2556 39.4281 21.1463Z" fill="#625D54"/>
<path d="M38.9508 21.8366C39.1128 21.8366 39.2441 21.7053 39.2441 21.5433C39.2441 21.3813 39.1128 21.25 38.9508 21.25C38.7888 21.25 38.6575 21.3813 38.6575 21.5433C38.6575 21.7053 38.7888 21.8366 38.9508 21.8366Z" fill="#191716"/>
<path d="M38.7774 21.5705C38.8643 21.5705 38.9348 21.5001 38.9348 21.4132C38.9348 21.3263 38.8643 21.2559 38.7774 21.2559C38.6906 21.2559 38.6201 21.3263 38.6201 21.4132C38.6201 21.5001 38.6906 21.5705 38.7774 21.5705Z" fill="white"/>
<path fill-rule="evenodd" clip-rule="evenodd" d="M40.3321 21.6851C40.3321 21.6851 40.1161 21.5704 39.8254 21.4077C39.5348 21.2451 39.1375 21.0931 38.6175 21.1438C38.0975 21.1944 37.7508 21.4157 37.6522 21.4771C37.5535 21.5411 37.4442 21.5411 37.3908 21.5304C37.3375 21.5197 37.3268 21.5171 37.3268 21.5171C37.3268 21.5171 37.4922 21.4531 37.5962 21.3517C37.6975 21.2504 38.0868 20.9944 38.7695 20.9971C39.4548 20.9998 39.5694 21.1331 40.3321 21.6851Z" fill="#191716"/>
<path fill-rule="evenodd" clip-rule="evenodd" d="M39.8521 23.1143C39.8521 23.1143 39.0441 23.4049 38.3294 23.4049C37.6148 23.4049 37.3908 23.3382 37.3908 23.3382C37.3908 23.3382 39.0574 23.8422 39.8521 23.1143Z" fill="#AD7140"/>
<path fill-rule="evenodd" clip-rule="evenodd" d="M41.1694 20.293C41.1694 20.293 40.988 20.7677 40.8654 20.7037C40.0974 20.2957 38.3481 19.469 37.1348 20.5437C36.8468 20.7997 36.8415 20.8023 36.7455 20.8823C36.6468 20.9623 36.4468 20.9383 36.5935 20.701C36.7402 20.4637 37.4948 19.4984 38.4335 19.2211C39.3721 18.9437 40.5374 19.7117 40.828 19.8424C41.1187 19.9757 41.292 20.0397 41.172 20.293H41.1694Z" fill="#402F26"/>
</svg>
