<svg width="85" height="212" viewBox="0 0 85 212" fill="none" xmlns="http://www.w3.org/2000/svg">
<g clip-path="url(#clip0)">
<path fill-rule="evenodd" clip-rule="evenodd" d="M36.6357 192.088C36.6357 192.088 36.9233 192.94 37.0802 194.294C37.2342 195.648 37.2226 196.266 37.2226 196.266C37.2226 196.266 36.5427 197.272 35.087 197.838C33.6314 198.405 32.8352 198.408 32.8352 198.408L31.3854 198.149C31.3854 198.149 30.8101 198.681 29.7089 200.308C28.6048 201.932 27.0445 203.001 24.787 203.306C22.5294 203.612 18.4035 203.516 17.4186 203.077C16.4336 202.641 15.5503 201.525 15.5387 201.171C15.53 200.816 15.1813 199.965 16.4452 198.812C17.7091 197.658 23.9502 194.387 25.2693 192.085C26.5884 189.781 35.7756 189.68 36.6357 192.088Z" fill="#424852"/>
<path fill-rule="evenodd" clip-rule="evenodd" d="M36.1969 195.299C36.1969 195.299 34.3199 196.104 32.9863 196.874C31.6527 197.647 31.1471 197.987 30.2609 198.905C29.3748 199.823 28.3346 201.683 26.2775 202.354C24.2204 203.025 18.8946 203.185 17.8805 202.749C16.8665 202.313 16.0733 201.27 16.0733 201.27C16.0733 201.27 17.436 202.618 19.1154 202.653C20.7948 202.688 24.7782 202.421 26.0044 202.031C27.2305 201.642 28.5031 200.811 29.9675 198.449C31.4319 196.087 35.302 195.418 36.1969 195.296V195.299ZM22.7996 200.666C22.7996 200.666 20.9923 200.779 18.9294 200.169C16.8665 199.562 17.1948 198.661 17.1948 198.661C17.1948 198.661 15.9571 200.183 18.2292 200.892C20.5013 201.601 22.8025 200.663 22.8025 200.663L22.7996 200.666ZM26.6842 193.698C26.6842 193.698 26.2542 194.114 26.5303 194.523C26.8063 194.933 27.5268 197.522 27.5268 197.522C27.5268 197.522 26.5273 195.508 26.1583 194.863C25.7864 194.218 25.7341 193.878 25.801 193.658C25.8678 193.437 25.9085 193.318 25.9085 193.318C25.9085 193.318 26.3646 193.254 26.6842 193.695V193.698Z" fill="#58606D"/>
<path fill-rule="evenodd" clip-rule="evenodd" d="M60.5771 191.034C60.5771 191.034 62.8202 195.541 63.0759 196.328C63.3315 197.113 63.4071 199.821 63.4071 199.821C63.4071 199.821 63.6105 203.522 59.6125 203.763C55.6145 204.005 53.938 201.683 53.8189 199.745C53.6998 197.807 53.4819 195.166 52.8717 193.893C52.2615 192.621 52.2615 192.621 52.2615 192.621C52.2615 192.621 51.8228 190.253 52.2993 189.352C52.7758 188.451 59.6154 190.25 60.5771 191.037V191.034Z" fill="#424852"/>
<path fill-rule="evenodd" clip-rule="evenodd" d="M62.4541 199.707C62.4541 199.707 62.1955 202.101 59.3742 202.328C56.5501 202.555 55.2251 200.483 55.0566 199.667C54.8852 198.85 55.4808 201.151 58.1365 201.285C60.7921 201.419 61.9747 200.431 62.4541 199.707ZM58.2178 192.58C58.2178 192.58 58.8658 194.161 59.4963 194.623C60.1267 195.085 61.5359 195.413 61.5359 195.413C61.5359 195.413 59.6299 194.675 59.3423 193.922C59.0546 193.167 58.8483 192.586 58.8483 192.586C58.8483 192.586 58.6275 192.08 58.2149 192.58H58.2178ZM55.9225 192.74C55.9225 192.74 56.3351 193.815 56.1782 194.498C56.0213 195.18 55.2484 196.093 55.2484 196.093C55.2484 196.093 56.5297 194.954 56.6547 194.184C56.7796 193.414 56.5123 192.807 56.5123 192.807C56.5123 192.807 56.2566 192.595 55.9196 192.74H55.9225Z" fill="#58606D"/>
<path fill-rule="evenodd" clip-rule="evenodd" d="M59.1243 86.2985C59.1243 86.2985 62.6168 90.8747 63.4652 104.42C64.3107 117.966 60.8793 137.627 60.8793 137.627L60.2197 182.895L60.5684 191.007C60.5684 191.007 56.7215 192.048 54.737 192.123C52.7525 192.199 51.9187 191.949 51.9187 191.949C51.9187 191.949 50.7158 188.791 50.8175 187.614C50.9192 186.437 51.079 181.245 50.8698 180.219C50.7506 179.629 48.2316 165.613 47.1275 155.241C46.3168 147.605 46.8049 143.107 46.8631 141.451C46.9938 137.546 46.7033 136.009 46.6219 135.402C46.5405 134.794 44.1406 115.374 44.1406 115.374C44.065 117.019 39.1576 141.309 40.1629 147.866C41.1682 154.424 39.5208 171.808 37.8414 179.952C36.162 188.096 36.5223 188.125 36.5223 188.125L36.839 192.85C36.839 192.85 34.1282 194.006 30.6067 193.576C27.0852 193.146 25.5308 191.592 25.5308 191.592C25.5308 191.592 26.9661 189.514 26.9893 187.445C27.0126 185.377 26.1845 144.359 26.0305 142.297C25.8765 140.237 22.1604 116.498 23.0407 105.324C23.9211 94.1492 27.2944 85.9121 27.2944 85.9121C27.2944 85.9121 51.6281 86.3508 59.1243 86.3014V86.2985Z" fill="#23314B"/>
<path fill-rule="evenodd" clip-rule="evenodd" d="M40.8603 95.2417C40.8603 95.2417 40.7266 106.466 40.8167 107.698C40.9039 108.933 43.5508 110.783 43.5508 110.783C43.5508 110.783 41.6099 108.093 41.7 107.433C41.7872 106.771 41.9644 95.1517 41.9644 95.1517C41.9644 95.1517 41.4356 95.0645 40.8632 95.2388L40.8603 95.2417Z" fill="#192233"/>
<path d="M16.2302 103.756C16.2302 103.756 17.991 105.258 17.959 107.917C17.9503 108.593 17.4476 109.889 17.2472 110.537C17.1338 110.903 16.8694 111.633 16.8462 112.013C16.8113 112.597 17.1048 113.757 17.0728 114.338C17.0321 115.067 16.5237 116.918 15.7944 116.967C15.0738 117.017 14.5566 115.102 14.5014 114.378C14.455 113.728 15.2249 112.17 14.7077 111.769C14.5305 111.633 14.1324 111.897 13.9465 112.019C13.7925 112.121 13.4409 112.35 13.3712 112.519C13.2782 112.754 13.1707 113.205 13.0952 113.402C13.0632 113.486 12.7901 113.96 12.8598 114.253C13.0051 114.849 13.2579 116.854 13.2579 116.854C13.2579 116.854 14.1993 117.333 14.6119 117.778C14.8065 117.987 15.7624 118.31 15.9978 118.458C16.3493 118.679 16.8752 119.463 16.6167 119.788C16.2535 120.242 14.5276 119.841 13.9203 119.472C13.069 118.957 11.5582 118.359 11.2124 117.633C10.8812 116.938 10.64 114.686 10.4134 114.041C10.2274 113.507 10.149 113.324 9.98627 112.737C9.81194 112.112 10.4192 109.811 10.9248 107.931C11.3373 106.4 12.4008 103.852 12.4008 103.852L16.2273 103.75L16.2302 103.756Z" fill="#E3A06B"/>
<path d="M16.884 115.343C16.9711 115.5 17.0961 115.72 17.1513 115.819C17.3053 116.089 17.805 116.586 17.7759 116.894C17.7643 117.031 17.4186 117.31 17.4186 117.31C17.4186 117.31 18.36 118.228 18.3541 118.635C18.3512 118.768 18.0374 119.053 18.0374 119.053C18.0374 119.053 18.0403 119.733 17.8747 119.852C17.6568 120.012 17.0467 119.904 16.6137 119.803L16.6225 119.791C16.881 119.466 16.3522 118.684 16.0036 118.46C15.7682 118.312 14.8123 117.987 14.6177 117.78C14.2864 117.426 13.5107 117.04 13.2579 116.903V116.804C13.2172 116.485 12.9964 114.797 12.8656 114.259C12.793 113.966 13.0661 113.492 13.101 113.408C13.1794 113.213 13.284 112.76 13.377 112.524C13.4467 112.353 13.7954 112.126 13.9523 112.025C14.1382 111.903 14.5363 111.638 14.7135 111.775C15.2307 112.173 14.4608 113.73 14.5072 114.384C14.5595 115.105 15.0767 117.019 15.8002 116.973C16.2825 116.941 16.6689 116.113 16.8869 115.349L16.884 115.343ZM12.3978 103.854C12.3978 103.854 12.1654 104.438 12.0782 104.648C11.9824 104.883 11.8051 105.345 11.8051 105.345C11.8051 105.345 13.7867 105.226 14.4724 105.226C16.0384 105.229 17.6045 105.856 17.6045 105.856C17.6045 105.856 17.4099 105.336 17.16 104.9C16.9421 104.523 16.4772 103.846 16.4772 103.846L14.3097 103.604L12.3978 103.849V103.854Z" fill="#AD7140"/>
<path d="M12.0288 102.134L11.9446 104.307C11.9446 104.307 14.0453 104.255 14.7775 104.319C17.2413 104.54 17.9735 104.92 17.9735 104.92L18.4268 102.137L12.0259 102.134H12.0288Z" fill="#C4C2CC"/>
<path d="M35.9122 28.3136C41.8046 28.3136 42.5106 27.7412 48.525 27.7412C48.3826 28.9441 48.8039 35.926 51.9855 36.728L48.8446 43.8407L46.6451 59.0714L35.1655 48.7917L32.9631 37.5096C36.5543 35.1503 36.2347 30.3736 35.9122 28.3136Z" fill="#E3A06B"/>
<path d="M35.9122 28.3136C41.8046 28.3136 42.5106 27.7412 48.525 27.7412C48.4756 28.1683 48.4582 29.2114 48.5134 30.4492C47.8248 31.5097 46.7933 32.7329 44.1261 34.6592C41.4588 36.5856 37.7427 35.5425 35.5984 33.9939C36.3596 31.8525 36.0836 29.4235 35.9122 28.3165V28.3136ZM49.9487 34.9236C50.3468 35.8185 50.7652 35.9406 51.0354 36.2573L48.8446 43.8407L47.4238 53.6787C46.7527 55.2652 45.9885 56.683 45.1663 57.7465L35.4851 49.0793C35.3456 48.6551 35.2091 48.2309 35.0783 47.8038L33.2449 37.312C34.2125 36.4984 34.7413 35.9406 35.2817 34.7929C35.2817 34.7929 35.0522 37.0069 35.5548 38.5352C36.534 41.5192 37.516 41.9492 38.0129 43.1201C39.0821 45.6479 39.4046 46.5631 39.2506 47.3796C39.0966 48.196 39.3175 48.658 39.7126 49.3408C40.1107 50.0236 41.6738 52.2957 41.7639 51.8773C41.8511 51.4589 42.0951 49.1868 43.1963 47.644C44.2975 46.1012 45.5788 45.0436 45.114 44.137C44.652 43.2334 44.8031 42.5128 45.666 41.1618C46.526 39.8078 49.3822 36.7861 49.9458 34.9236H49.9487ZM41.9208 37.1696C41.9208 37.1696 41.7871 38.2069 42.098 38.8664C42.406 39.5289 42.8912 39.1977 42.8912 39.1977C42.8912 39.1977 42.0545 38.7618 41.9208 37.1696Z" fill="#AD7140"/>
<path d="M32.0827 90.2006C42.5542 93.2369 50.2683 92.987 58.0696 88.373C56.4774 84.5465 55.1234 81.2836 53.5341 77.457C48.5018 63.3159 51.9855 44.5143 52.6073 37.8723C52.1366 37.3173 51.8286 36.8089 51.631 36.4195C51.4828 36.1232 51.0528 34.9464 50.5095 35.7425C50.0562 38.5173 45.1895 41.6959 45.1314 42.5037C44.8728 43.5729 45.9275 43.5322 45.8142 44.1511C45.5933 45.3482 44.0011 47.2571 43.4636 48.338C42.807 49.66 42.2665 54.4744 42.2665 54.4744C42.2665 54.4744 40.3111 51.6212 39.855 50.9645C37.8821 47.9893 38.7828 48.3903 38.7567 46.7777C38.748 46.2576 38.7421 45.9264 38.3121 44.4097C37.9083 42.9773 34.9504 40.3972 34.4681 36.1115C34.4478 35.9227 33.8086 36.0796 33.7243 36.5212C28.2329 49.1515 41.3833 76.2745 32.0827 90.1977V90.2006Z" fill="#F2F1F6"/>
<path d="M51.6746 36.4228C51.6746 36.4228 49.2514 40.6504 48.3478 45.3863C48.2519 44.7152 47.941 43.5936 47.9149 43.2392C47.7928 41.6382 47.0374 41.3419 46.5202 41.3302C45.8752 41.3157 45.2128 42.0305 45.0965 42.6639C45.05 42.9196 45.1256 43.1723 45.268 43.3903C45.1401 43.0823 45.1459 42.7278 45.6602 42.045C46.1774 41.3622 47.3977 42.1496 47.5546 42.8266C47.7551 43.6982 48.1909 45.0232 48.3304 45.4822C47.8916 47.7863 47.4849 50.1833 47.2466 52.2317C46.5783 57.9411 47.1362 69.6939 48.6209 75.1621C49.8732 79.7673 54.3477 84.9624 54.7748 89.0998C49.6349 92.2523 41.6332 92.7811 35.979 89.9482C36.2841 86.4878 37.824 76.8967 37.824 72.736C37.824 67.2678 35.796 53.3329 35.1684 48.7916C35.0957 48.2657 35.0405 47.6933 34.9999 47.0919C35.2904 46.8827 35.6129 46.566 35.8628 46.0866C36.4584 44.9389 37.6933 45.6682 38.0448 46.351C38.3964 47.0338 38.5068 47.5858 38.5068 47.5858C38.5068 47.5858 39.0124 45.9093 37.8444 44.7413C36.6763 43.5733 35.9936 44.8953 35.3747 46.1069C35.2352 46.38 35.1016 46.6008 34.9766 46.7752C34.7035 42.231 33.7273 36.5216 33.7273 36.5216C33.582 36.7715 33.0619 37.0272 32.9311 37.2916C26.3879 50.4942 38.8642 78.9015 31.3476 90.1022C43.5915 93.923 49.879 92.5574 58.2324 88.8035C45.8955 59.6234 54.9608 54.8205 52.5899 37.7245C52.2848 37.2887 51.9797 36.8528 51.6775 36.4199L51.6746 36.4228Z" fill="#C4C2CC"/>
<path d="M64.6013 97.6476C64.6013 97.6476 64.1625 98.4437 64.0812 98.6558C63.84 99.2863 63.1107 101.646 63.1107 101.646L58.982 94.0099L60.1965 93.0859L64.5984 97.6476H64.6013Z" fill="#AD7140"/>
<path d="M59.29 93.7803L58.8105 95.1168C58.8105 95.1168 60.9955 96.2906 61.7248 96.6742C62.7068 97.1768 64.5286 97.9613 64.5286 97.9613C64.5286 97.9613 64.8482 97.1594 64.9208 96.8746C64.9702 96.68 65.2724 95.6805 65.2724 95.6805L59.29 93.7803Z" fill="#C4C2CC"/>
<path d="M22.1517 108.192C22.1517 108.192 26.1032 111.952 27.6344 110.909C30.9612 108.642 34.0236 97.2468 34.8226 88.7656C33.1432 94.196 29.9094 105.435 28.0034 107.765C26.0974 110.092 22.1517 108.192 22.1517 108.192Z" fill="#192233"/>
<path d="M33.5181 36.7275C22.7328 43.5293 15.1901 38.096 14.6903 52.2866C14.0569 70.2659 11.4652 86.9668 11.7848 102.494C11.8197 104.135 16.8695 102.648 18.2815 102.95C20.4084 91.3541 23.8747 83.2652 25.6296 68.9904C25.6296 75.4028 28.3288 81.4492 26.417 87.8007C23.5638 97.2407 21.9309 101.895 21.405 107.486C21.405 107.486 25.4088 111.245 26.9225 110.202C30.2465 107.918 32.321 99.1845 34.7384 87.7658C35.8105 82.7015 36.0865 72.2184 35.7233 67.4446C35.395 63.1125 33.7011 54.2798 33.2827 50.2643C32.9428 47.0073 33.5152 36.7275 33.5152 36.7275H33.5181Z" fill="#23314B"/>
<path d="M51.8082 36.6084C51.8082 36.6084 48.9289 47.077 48.7487 50.8629C48.6383 53.2163 48.4407 57.9291 48.5076 60.2825C48.6064 63.6791 48.6122 71.1666 49.4577 74.444C50.0969 76.9137 52.0901 80.595 53.9002 82.4371C57.4333 86.0341 58.1539 94.3003 58.1539 94.3003C61.0797 95.6426 63.3693 96.6712 65.0487 97.3831C65.0487 97.3831 66.8995 92.6006 69.4854 87.5944C71.7691 83.1751 74.4945 75.0832 74.6979 72.8634C74.7589 72.2039 74.4771 65.9599 72.6582 59.9455C70.726 53.5563 71.6645 47.5796 69.0757 44.3109C65.9988 40.4233 55.3907 39.0636 51.8082 36.6113V36.6084ZM60.9984 62.1915C60.9984 62.1915 62.3349 66.3318 63.4448 69.4552C64.6855 72.9448 65.0603 74.4963 65.008 74.9118C64.8627 76.0275 62.3117 83.3029 61.1611 86.5542C56.919 80.0197 59.4875 68.4209 61.0013 62.1915H60.9984Z" fill="#23314B"/>
<path d="M29.5317 39.9267C29.1365 40.8013 25.0979 47.8675 25.063 48.5532C25.3187 49.5469 28.0934 55.1749 29.2818 57.6504C28.2358 54.3265 26.7366 49.9798 26.8673 48.6346C26.9922 47.3649 28.8024 42.2018 29.5317 39.9238V39.9267Z" fill="#35496E"/>
<path d="M64.9877 75.0342C63.7557 81.3159 60.2924 86.9352 58.8919 94.5418C60.8648 89.6373 65.3363 79.7353 64.9877 75.0342Z" fill="#182234"/>
<path fill-rule="evenodd" clip-rule="evenodd" d="M57.9331 48.1932L53.8857 49.1608L57.9186 49.1375C57.2067 51.5287 53.0576 65.6931 50.9192 73.5235C53.3017 66.7013 58.8977 48.6349 58.8977 48.6349C58.8977 48.6349 57.9622 42.9923 54.1559 38.4336C56.3467 41.5018 57.3491 44.5148 57.936 48.1932H57.9331Z" fill="#182234"/>
<path fill-rule="evenodd" clip-rule="evenodd" d="M25.0078 48.1934L29.0523 49.161L25.0194 49.1377C25.7196 51.529 32.565 64.0924 34.6686 71.9257C32.3181 65.1035 24.0432 48.6351 24.0432 48.6351C24.0432 48.6351 25.2373 44.9393 29.43 39.9854C27.2247 43.0536 25.6935 45.6685 25.0078 48.1963V48.1934Z" fill="#182234"/>
<path d="M25.2577 40.6094C17.1629 42.7013 15.5039 44.1163 15.1465 54.2653C14.8821 61.7906 15.1843 61.7179 14.1499 69.0834C15.4196 65.6898 16.4772 56.0493 16.852 50.9094C17.3169 44.5405 20.1876 42.2539 25.2577 40.6094Z" fill="#35496E"/>
<path fill-rule="evenodd" clip-rule="evenodd" d="M33.8638 92.9033C39.4075 95.8437 48.5192 94.6118 57.7616 91.4971L58.0348 92.1159C51.14 95.0011 40.5232 97.0669 33.6459 93.8011L33.8609 92.9004L33.8638 92.9033Z" fill="#192233"/>
<path d="M71.8708 57.9959C70.5779 52.0978 70.357 47.2601 68.7387 44.5667C67.5038 42.5066 60.1558 40.1997 56.826 38.6104C56.826 38.6104 65.2753 42.588 67.4021 44.8805C69.5261 47.17 69.7846 50.9181 71.8708 57.9959Z" fill="#35496E"/>
<path fill-rule="evenodd" clip-rule="evenodd" d="M50.3584 20.6801C50.3584 20.6801 51.4392 20.4157 51.6339 20.8225C51.8286 21.2292 52.093 23.0394 51.8402 24.1406C51.5874 25.2418 50.5298 26.7875 50.0475 26.7875C49.5652 26.7875 49.5419 26.6335 49.5419 26.6335C49.5245 26.8572 49.5448 26.6248 49.5158 26.9415C49.5129 32.1889 48.2403 31.4712 44.5299 34.2489C43.6815 34.8852 40.8922 34.7835 40.1077 34.1966C36.3364 31.3753 35.0841 32.1627 35.1219 26.6335C35.1219 26.6335 35.0986 26.7875 34.6163 26.7875C34.134 26.7875 33.0764 25.2447 32.8236 24.1406C32.5708 23.0394 32.8352 21.2292 33.0299 20.8225C33.2246 20.4157 34.3054 20.6801 34.3054 20.6801C33.457 15.6303 35.5693 9.88902 42.3769 9.91808C49.2979 9.94713 51.3056 16.5223 50.3555 20.6801H50.3584Z" fill="#E3A06B"/>
<path fill-rule="evenodd" clip-rule="evenodd" d="M50.2102 23.6666C50.2102 23.6666 50.7535 23.4574 50.6199 22.795C50.4862 22.1325 50.4485 21.6821 50.7739 21.5834C51.0993 21.4846 51.4712 22.6642 51.384 23.6114C51.2969 24.5586 50.5356 25.6743 50.5356 25.6743C50.5356 25.6743 51.5003 24.6487 51.5177 23.1727C51.538 21.6967 51.2504 21.1562 50.861 21.1562C50.4688 21.1562 50.2799 21.6851 50.2799 21.7838C50.2799 21.8826 50.4049 22.7543 50.2131 23.6695L50.2102 23.6666Z" fill="#AD7140"/>
<path fill-rule="evenodd" clip-rule="evenodd" d="M34.4333 23.6666C34.4333 23.6666 33.8987 23.4574 34.0294 22.795C34.1601 22.1325 34.1979 21.6821 33.8783 21.5834C33.5587 21.4846 33.1955 22.6642 33.2798 23.6114C33.364 24.5586 34.1137 25.6743 34.1137 25.6743C34.1137 25.6743 33.1665 24.6487 33.149 23.1727C33.1316 21.6967 33.4105 21.1562 33.7941 21.1562C34.1776 21.1562 34.3664 21.6851 34.3664 21.7838C34.3664 21.8826 34.2444 22.7543 34.4333 23.6695V23.6666Z" fill="#AD7140"/>
<path fill-rule="evenodd" clip-rule="evenodd" d="M35.1219 26.6653V26.6334C35.1219 26.6334 35.0986 26.7874 34.6163 26.7874C34.5349 26.7874 34.4332 26.7409 34.3257 26.6624C34.3868 26.7002 34.5117 26.7874 34.7558 26.4271C34.9998 26.0668 34.8313 24.6344 34.872 25.0121C34.9098 25.3869 35.1742 26.0494 35.1248 26.6653H35.1219ZM49.5419 26.6653V26.6334C49.5419 26.6334 49.5652 26.7874 50.0475 26.7874C50.1288 26.7874 50.2305 26.7409 50.338 26.6624C50.277 26.7002 50.1521 26.7874 49.908 26.4271C49.664 26.0668 50.4775 24.7332 50.216 25.1022C49.9545 25.4712 49.5797 26.2411 49.539 26.6653H49.5419Z" fill="#AD7140"/>
<path fill-rule="evenodd" clip-rule="evenodd" d="M43.0714 26.7442C43.0714 26.7442 43.4868 26.5815 43.6641 26.4072C44.0679 26.0062 44.2045 26.6803 43.9633 26.7152C43.8123 26.7355 43.3851 26.7181 43.0743 26.7442H43.0714ZM41.7377 26.7442C41.7377 26.7442 41.3222 26.5815 41.145 26.4072C40.7411 26.0062 40.6046 26.6803 40.8457 26.7152C40.9968 26.7355 41.4239 26.7181 41.7348 26.7442H41.7377Z" fill="#784A24"/>
<path fill-rule="evenodd" clip-rule="evenodd" d="M44.1377 25.3817C44.1784 25.3817 44.4166 25.6084 44.4166 26.0994C44.4166 26.5904 44.1377 26.7357 43.9198 26.7299C43.7019 26.7212 43.6873 26.7067 43.6873 26.7067C43.6873 26.7067 44.1464 26.913 44.4805 26.5381C44.8147 26.1633 44.5532 25.3498 44.3353 25.2394C44.1173 25.129 44.065 25.3527 44.1377 25.3817ZM40.6743 25.3817C40.6336 25.3817 40.3954 25.6084 40.3954 26.0994C40.3954 26.5904 40.6743 26.7357 40.8922 26.7299C41.1101 26.7212 41.1247 26.7067 41.1247 26.7067C41.1247 26.7067 40.6656 26.913 40.3315 26.5381C39.9973 26.1633 40.2588 25.3498 40.4767 25.2394C40.6946 25.129 40.7469 25.3527 40.6743 25.3817Z" fill="#AD7140"/>
<path d="M42.4728 24.9365C42.5787 24.9365 42.6646 23.9648 42.6646 22.7661C42.6646 21.5674 42.5787 20.5957 42.4728 20.5957C42.3669 20.5957 42.2811 21.5674 42.2811 22.7661C42.2811 23.9648 42.3669 24.9365 42.4728 24.9365Z" fill="#EDB587"/>
<path d="M42.5454 26.0089C42.7059 26.0089 42.836 25.8815 42.836 25.7242C42.836 25.5669 42.7059 25.4395 42.5454 25.4395C42.385 25.4395 42.2549 25.5669 42.2549 25.7242C42.2549 25.8815 42.385 26.0089 42.5454 26.0089Z" fill="#EDB587"/>
<path fill-rule="evenodd" clip-rule="evenodd" d="M40.1862 20.5264C40.1862 20.5264 41.0869 21.3719 41.0869 21.9153C41.0869 22.4586 40.9532 22.8421 41.0084 23.1995C41.0607 23.5569 40.9416 23.0136 41.2612 22.6039C41.5779 22.1942 41.4995 21.3196 41.2757 20.8838C41.052 20.448 39.9276 19.9715 40.192 20.5264H40.1862Z" fill="#AD7140"/>
<path fill-rule="evenodd" clip-rule="evenodd" d="M42.5251 29.1212C42.868 28.9875 43.5392 28.8045 43.9663 29.0805C44.3934 29.3594 45.2447 29.7023 45.573 29.5715C45.9013 29.4379 46.0408 29.4379 46.0059 29.5512C45.9711 29.6645 45.7706 29.7401 45.3696 29.6413C44.9687 29.5425 44.1348 29.5628 43.4084 29.6384C42.8186 29.6994 42.6065 29.772 42.3566 29.7749C42.0835 29.7778 41.7697 29.7052 41.1276 29.6384C40.4041 29.5628 39.7329 29.5425 39.3349 29.6413C38.9339 29.7401 38.7363 29.6645 38.6986 29.5512C38.6637 29.4379 38.8032 29.4379 39.1315 29.5715C39.4598 29.7052 40.1426 29.3594 40.5726 29.0805C40.9997 28.8016 41.6709 28.9875 42.0138 29.1212C42.1881 29.188 42.3479 29.188 42.5251 29.1212Z" fill="#AD7140"/>
<path fill-rule="evenodd" clip-rule="evenodd" d="M41.4559 30.0044C41.4559 30.0044 42.2636 30.0247 42.9377 29.9899C43.6118 29.9579 44.1696 29.8039 44.065 29.9928C43.9604 30.1816 43.3881 30.5332 42.3566 30.507C41.3251 30.4809 41.0201 29.9724 41.4559 30.0044Z" fill="#EDB587"/>
<path fill-rule="evenodd" clip-rule="evenodd" d="M40.959 30.6291C42.1503 31.001 42.467 30.9399 43.5885 30.6697C43.6524 30.6639 43.0771 31.2828 42.3101 31.2915C41.5808 31.2973 40.837 30.6174 40.9561 30.6291H40.959Z" fill="#AD7140"/>
<path fill-rule="evenodd" clip-rule="evenodd" d="M44.0621 20.5056C44.0621 20.5056 43.757 20.9501 43.7367 21.4586C43.7164 21.967 44.0156 21.8944 43.9604 21.7375C43.9081 21.5777 44.0592 20.9705 44.4631 20.6596C44.867 20.3487 44.8873 20.1773 44.8059 20.1424C44.7275 20.1104 44.0854 20.3661 44.0592 20.5056H44.0621Z" fill="#CF8F5B"/>
<path fill-rule="evenodd" clip-rule="evenodd" d="M44.036 21.5434C44.036 21.5434 44.7769 20.7037 45.7503 20.5846C46.7236 20.4655 47.0607 20.881 47.3192 21.0553C47.5778 21.2267 47.7231 21.2674 47.8364 21.2732C47.9497 21.279 47.697 21.3982 47.3744 21.1948C47.049 20.9885 46.5783 20.6834 45.8781 20.7125C45.1808 20.7415 44.5329 21.1105 44.0389 21.5463L44.036 21.5434Z" fill="#AD7140"/>
<path fill-rule="evenodd" clip-rule="evenodd" d="M44.3933 22.0403C44.2422 22.0723 44.1028 22.0606 44.0824 21.9619C44.0621 21.8631 44.2364 21.7323 44.3236 21.6945C44.8495 21.4534 45.0645 20.9565 46.1483 21.0611C46.7323 21.1193 47.1042 21.4999 47.1042 21.4999C47.1042 21.4999 46.6102 22.1449 45.7444 22.1943C44.8786 22.2437 44.5096 22.0171 44.3933 22.0432V22.0403Z" fill="white"/>
<path fill-rule="evenodd" clip-rule="evenodd" d="M44.3933 22.0404C44.2422 22.0724 44.1028 22.0607 44.0824 21.962C44.0621 21.8632 44.2364 21.7324 44.3236 21.6947L44.3468 21.683C44.4427 21.8196 44.7856 22.177 45.7386 22.1305C46.6393 22.0869 46.8543 21.5872 46.9647 21.3809C47.0577 21.4477 47.1071 21.5 47.1071 21.5C47.1071 21.5 46.6131 22.145 45.7473 22.1944C44.8815 22.2438 44.5125 22.0172 44.3962 22.0433L44.3933 22.0404Z" fill="#EDB587"/>
<path fill-rule="evenodd" clip-rule="evenodd" d="M44.3846 21.6627C44.867 21.4128 45.1052 20.9566 46.1483 21.0612C46.7323 21.1193 47.1042 21.5 47.1042 21.5C47.1042 21.5 47.0752 21.5406 47.017 21.5987C46.7991 21.4593 46.6219 21.2995 45.974 21.253C45.326 21.2065 44.5706 21.5726 44.3846 21.6627Z" fill="#ADA89F"/>
<path fill-rule="evenodd" clip-rule="evenodd" d="M45.2388 21.1456C45.4539 21.0671 45.7212 21.0235 46.096 21.0555C46.2412 21.1688 46.3371 21.346 46.3371 21.5465C46.3371 21.8894 46.0582 22.1683 45.7153 22.1683C45.3725 22.1683 45.0936 21.8894 45.0936 21.5465C45.0936 21.3954 45.1488 21.256 45.2388 21.1485V21.1456Z" fill="#625D54"/>
<path d="M45.7154 21.8398C45.8775 21.8398 46.0089 21.7085 46.0089 21.5464C46.0089 21.3843 45.8775 21.2529 45.7154 21.2529C45.5533 21.2529 45.4219 21.3843 45.4219 21.5464C45.4219 21.7085 45.5533 21.8398 45.7154 21.8398Z" fill="#191716"/>
<path d="M45.8897 21.5697C45.9763 21.5697 46.0466 21.4994 46.0466 21.4128C46.0466 21.3261 45.9763 21.2559 45.8897 21.2559C45.803 21.2559 45.7328 21.3261 45.7328 21.4128C45.7328 21.4994 45.803 21.5697 45.8897 21.5697Z" fill="white"/>
<path fill-rule="evenodd" clip-rule="evenodd" d="M44.3353 21.6857C44.3353 21.6857 44.5532 21.5695 44.8437 21.4097C45.1343 21.247 45.5323 21.0959 46.0495 21.1453C46.5696 21.1947 46.9154 21.4155 47.0142 21.4794C47.1129 21.5433 47.2234 21.5433 47.2757 21.5317C47.3279 21.523 47.3396 21.5172 47.3396 21.5172C47.3396 21.5172 47.174 21.4533 47.0723 21.3516C46.9706 21.2499 46.5841 20.9942 45.8984 20.9971C45.2127 21 45.0994 21.1337 44.3353 21.6857Z" fill="#191716"/>
<path fill-rule="evenodd" clip-rule="evenodd" d="M44.8146 23.1152C44.8146 23.1152 45.6224 23.4058 46.3371 23.4058C47.0519 23.4058 47.2756 23.339 47.2756 23.339C47.2756 23.339 45.6078 23.8416 44.8146 23.1152Z" fill="#CF8F5B"/>
<path fill-rule="evenodd" clip-rule="evenodd" d="M43.4956 20.2939C43.4956 20.2939 43.6786 20.7675 43.8006 20.7035C44.5677 20.2968 46.3168 19.4687 47.5313 20.5437C47.819 20.7994 47.8248 20.8023 47.9207 20.8837C48.0194 20.9621 48.2199 20.9389 48.0747 20.7006C47.9294 20.4624 47.1739 19.4977 46.2355 19.2217C45.297 18.9428 44.1319 19.7098 43.8413 19.8435C43.5508 19.9772 43.3793 20.0411 43.4985 20.2939H43.4956Z" fill="#402F26"/>
<path fill-rule="evenodd" clip-rule="evenodd" d="M40.6278 21.5434C40.6278 21.5434 39.8869 20.7037 38.9135 20.5846C37.9402 20.4655 37.6032 20.881 37.3446 21.0553C37.086 21.2267 36.9407 21.2674 36.8274 21.2732C36.7141 21.279 36.9669 21.3982 37.2894 21.1948C37.6148 20.9885 38.0855 20.6834 38.7857 20.7125C39.483 20.7415 40.131 21.1105 40.6249 21.5463L40.6278 21.5434Z" fill="#AD7140"/>
<path fill-rule="evenodd" clip-rule="evenodd" d="M40.2733 22.0403C40.4244 22.0723 40.5639 22.0606 40.5842 21.9619C40.6046 21.8631 40.4302 21.7323 40.3431 21.6945C39.8172 21.4534 39.6022 20.9565 38.5184 21.0611C37.9344 21.1193 37.5625 21.4999 37.5625 21.4999C37.5625 21.4999 38.0564 22.1449 38.9223 22.1943C39.7881 22.2437 40.1571 22.0171 40.2733 22.0432V22.0403Z" fill="white"/>
<path fill-rule="evenodd" clip-rule="evenodd" d="M40.2733 22.0404C40.4244 22.0724 40.5639 22.0607 40.5842 21.962C40.6045 21.8632 40.4302 21.7324 40.3431 21.6947L40.3198 21.683C40.2239 21.8196 39.8811 22.177 38.9281 22.1305C38.0274 22.0869 37.8123 21.5872 37.7019 21.3809C37.609 21.4477 37.5596 21.5 37.5596 21.5C37.5596 21.5 38.0535 22.145 38.9193 22.1944C39.7852 22.2438 40.1542 22.0172 40.2704 22.0433L40.2733 22.0404Z" fill="#EDB587"/>
<path fill-rule="evenodd" clip-rule="evenodd" d="M40.2821 21.6627C39.7997 21.4128 39.5615 20.9566 38.5184 21.0612C37.9344 21.1193 37.5625 21.5 37.5625 21.5C37.5625 21.5 37.5916 21.5406 37.6497 21.5987C37.8676 21.4593 38.0448 21.2995 38.6927 21.253C39.3407 21.2065 40.0961 21.5726 40.2821 21.6627Z" fill="#ADA89F"/>
<path fill-rule="evenodd" clip-rule="evenodd" d="M39.4278 21.1456C39.2128 21.0671 38.9455 21.0235 38.5707 21.0555C38.4254 21.1688 38.3295 21.346 38.3295 21.5465C38.3295 21.8894 38.6085 22.1683 38.9513 22.1683C39.2942 22.1683 39.5731 21.8894 39.5731 21.5465C39.5731 21.3954 39.5179 21.256 39.4278 21.1485V21.1456Z" fill="#625D54"/>
<path d="M38.9514 21.8398C39.1134 21.8398 39.2448 21.7085 39.2448 21.5464C39.2448 21.3843 39.1134 21.2529 38.9514 21.2529C38.7893 21.2529 38.6579 21.3843 38.6579 21.5464C38.6579 21.7085 38.7893 21.8398 38.9514 21.8398Z" fill="#191716"/>
<path d="M38.777 21.5697C38.8637 21.5697 38.9339 21.4994 38.9339 21.4128C38.9339 21.3261 38.8637 21.2559 38.777 21.2559C38.6904 21.2559 38.6201 21.3261 38.6201 21.4128C38.6201 21.4994 38.6904 21.5697 38.777 21.5697Z" fill="white"/>
<path fill-rule="evenodd" clip-rule="evenodd" d="M40.3314 21.6857C40.3314 21.6857 40.1135 21.5695 39.823 21.4097C39.5324 21.247 39.1344 21.0959 38.6172 21.1453C38.0971 21.1947 37.7514 21.4155 37.6526 21.4794C37.5538 21.5433 37.4434 21.5433 37.3911 21.5317C37.3388 21.523 37.3271 21.5172 37.3271 21.5172C37.3271 21.5172 37.4928 21.4533 37.5945 21.3516C37.6961 21.2499 38.0826 20.9942 38.7683 20.9971C39.454 21 39.5673 21.1337 40.3314 21.6857Z" fill="#191716"/>
<path fill-rule="evenodd" clip-rule="evenodd" d="M39.852 23.1152C39.852 23.1152 39.0443 23.4058 38.3295 23.4058C37.6148 23.4058 37.3911 23.339 37.3911 23.339C37.3911 23.339 39.0588 23.8416 39.852 23.1152Z" fill="#AD7140"/>
<path fill-rule="evenodd" clip-rule="evenodd" d="M41.1682 20.2939C41.1682 20.2939 40.9852 20.7675 40.8632 20.7035C40.0961 20.2968 38.347 19.4687 37.1325 20.5437C36.8448 20.7994 36.839 20.8023 36.7431 20.8837C36.6443 20.9621 36.4439 20.9389 36.5891 20.7006C36.7344 20.4624 37.4899 19.4977 38.4283 19.2217C39.3668 18.9428 40.5319 19.7098 40.8225 19.8435C41.113 19.9772 41.2845 20.0411 41.1653 20.2939H41.1682Z" fill="#402F26"/>
</g>
<defs>
<clipPath id="clip0">
<rect width="84.6667" height="211.667" fill="white"/>
</clipPath>
</defs>
</svg>
