<svg width="85" height="212" viewBox="0 0 85 212" fill="none" xmlns="http://www.w3.org/2000/svg">
<g clip-path="url(#clip0)">
<path fill-rule="evenodd" clip-rule="evenodd" d="M36.7072 192.133C36.7072 192.133 36.9965 192.985 37.1506 194.337C37.3047 195.69 37.2921 196.309 37.2921 196.309C37.2921 196.309 36.6128 197.313 35.1567 197.882C33.7006 198.448 32.905 198.451 32.905 198.451L31.4552 198.193C31.4552 198.193 30.8797 198.725 29.779 200.35C28.6751 201.976 27.1153 203.043 24.8572 203.348C22.5992 203.653 18.4731 203.555 17.4887 203.118C16.5044 202.681 15.6207 201.568 15.6112 201.212C15.6018 200.86 15.2527 200.008 16.517 198.854C17.7812 197.699 24.0207 194.429 25.3415 192.127C26.6624 189.825 35.8455 189.721 36.7072 192.13V192.133Z" fill="#424852"/>
<path fill-rule="evenodd" clip-rule="evenodd" d="M36.2669 195.344C36.2669 195.344 34.3894 196.149 33.0559 196.92C31.7225 197.693 31.2162 198.033 30.3293 198.951C29.4425 199.869 28.4047 201.728 26.3448 202.401C24.288 203.074 18.9606 203.231 17.9479 202.794C16.9352 202.357 16.1396 201.316 16.1396 201.316C16.1396 201.316 17.5013 202.665 19.1807 202.7C20.8601 202.734 24.8415 202.467 26.068 202.077C27.2945 201.687 28.5682 200.857 30.0337 198.495C31.4992 196.133 35.3674 195.467 36.2637 195.344H36.2669ZM22.8696 200.709C22.8696 200.709 21.0613 200.822 18.9983 200.212C16.9352 199.605 17.2623 198.703 17.2623 198.703C17.2623 198.703 16.0232 200.225 18.297 200.936C20.5707 201.646 22.8696 200.706 22.8696 200.706V200.709ZM26.7567 193.74C26.7567 193.74 26.3259 194.155 26.6026 194.564C26.8794 194.976 27.5996 197.561 27.5996 197.561C27.5996 197.561 26.6026 195.548 26.2315 194.904C25.8604 194.259 25.807 193.919 25.873 193.699C25.9391 193.479 25.9799 193.36 25.9799 193.36C25.9799 193.36 26.436 193.297 26.7567 193.737V193.74Z" fill="#58606D"/>
<path fill-rule="evenodd" clip-rule="evenodd" d="M60.6492 191.079C60.6492 191.079 62.8947 195.586 63.1494 196.372C63.4041 197.159 63.4796 199.863 63.4796 199.863C63.4796 199.863 63.684 203.565 59.6837 203.807C55.6834 204.049 54.0072 201.728 53.8909 199.788C53.7713 197.85 53.5512 195.209 52.9442 193.935C52.3341 192.661 52.3341 192.661 52.3341 192.661C52.3341 192.661 51.8938 190.293 52.3719 189.391C52.8467 188.488 59.6869 190.29 60.6492 191.076V191.079Z" fill="#424852"/>
<path fill-rule="evenodd" clip-rule="evenodd" d="M62.5267 199.753C62.5267 199.753 62.2688 202.147 59.4447 202.373C56.6206 202.6 55.2966 200.53 55.1268 199.713C54.9569 198.895 55.5513 201.197 58.2088 201.332C60.8662 201.467 62.0455 200.48 62.5267 199.753ZM58.2905 192.627C58.2905 192.627 58.9384 194.206 59.5705 194.668C60.2026 195.13 61.6115 195.457 61.6115 195.457C61.6115 195.457 59.7057 194.722 59.4195 193.967C59.1334 193.212 58.9258 192.63 58.9258 192.63C58.9258 192.63 58.7057 192.124 58.2905 192.624V192.627ZM55.9948 192.787C55.9948 192.787 56.4067 193.86 56.2495 194.545C56.0923 195.228 55.3218 196.14 55.3218 196.14C55.3218 196.14 56.6017 195.001 56.7275 194.231C56.8533 193.46 56.586 192.854 56.586 192.854C56.586 192.854 56.3281 192.643 55.9948 192.787Z" fill="#58606D"/>
<path fill-rule="evenodd" clip-rule="evenodd" d="M59.1962 86.3448C59.1962 86.3448 65.9043 95.5342 65.269 104.953C64.6337 114.372 63.857 138 63.857 138L64.228 150.35L61.9826 184.582L61.4322 191.161C61.4322 191.161 56.7935 192.095 54.8091 192.17C52.8247 192.246 51.9913 191.997 51.9913 191.997C51.9913 191.997 50.0477 188.786 50.1484 187.61C50.249 186.431 50.4094 181.242 50.1987 180.213C49.9911 179.188 45.8996 148.261 46.0317 144.355C46.1638 140.453 45.8713 138.912 45.7927 138.305C45.7109 137.698 44.2108 115.419 44.2108 115.419C44.2108 115.419 39.5438 146.434 40.2325 147.912C40.9213 149.39 41.1571 171.971 39.4778 180.116C37.7984 188.258 38.4966 188.541 38.4966 188.541L36.9084 192.897C36.9084 192.897 34.1975 194.054 30.6752 193.623C27.153 193.192 25.5994 191.639 25.5994 191.639C25.5994 191.639 26.2409 189.085 26.263 187.016C26.285 184.95 24.0552 144.563 23.9011 142.503C23.747 140.443 21.9356 112.683 21.6525 106.588C21.3695 100.494 27.3605 85.958 27.3605 85.958C27.3605 85.958 51.6957 86.3951 59.1899 86.3448H59.1962Z" fill="#23314B"/>
<path fill-rule="evenodd" clip-rule="evenodd" d="M40.9056 95.645C40.9056 95.645 40.7987 106.511 40.8867 107.747C40.9748 108.982 43.6196 110.835 43.6196 110.835C43.6196 110.835 41.6792 108.146 41.7673 107.482C41.8553 106.822 42.0063 95.5601 42.0063 95.5601C42.0063 95.5601 41.4779 95.472 40.9024 95.6482L40.9056 95.645Z" fill="#192233"/>
<path d="M16.4729 103.799C16.4729 103.799 18.3945 105.299 18.3599 107.96C18.3504 108.639 17.8032 109.931 17.5831 110.579C17.4604 110.947 17.168 111.677 17.1459 112.057C17.1082 112.639 17.429 113.8 17.3912 114.381C17.3472 115.111 16.7906 116.96 15.9981 117.011C15.2118 117.061 14.6458 115.146 14.5892 114.422C14.5388 113.771 15.3785 112.215 14.8124 111.815C14.6206 111.68 14.1866 111.944 13.9822 112.067C13.8124 112.167 13.4318 112.397 13.3564 112.567C13.2557 112.803 13.1394 113.252 13.0544 113.447C13.0199 113.532 12.7211 114.007 12.7997 114.3C12.9601 114.897 13.2368 116.9 13.2368 116.9C13.2368 116.9 14.2652 117.382 14.7118 117.825C14.9225 118.033 15.9666 118.357 16.2245 118.504C16.6082 118.728 17.1837 119.508 16.9006 119.835C16.5044 120.287 14.6206 119.888 13.957 119.52C13.0261 119.004 11.3814 118.407 11.0008 117.68C10.6392 116.985 10.375 114.734 10.1297 114.089C9.92528 113.554 9.84037 113.372 9.66425 112.784C9.47556 112.158 10.136 109.859 10.6863 107.978C11.1392 106.447 12.2965 103.899 12.2965 103.899L16.4729 103.799Z" fill="#E3A06B"/>
<path d="M17.1837 115.388C17.278 115.545 17.4133 115.765 17.4762 115.866C17.646 116.136 18.1901 116.633 18.1586 116.941C18.146 117.077 17.7686 117.357 17.7686 117.357C17.7686 117.357 18.797 118.275 18.7876 118.681C18.7844 118.813 18.4416 119.099 18.4416 119.099C18.4416 119.099 18.4448 119.778 18.2624 119.898C18.0265 120.058 17.3598 119.951 16.8849 119.847L16.8944 119.838C17.1774 119.511 16.6019 118.731 16.2182 118.508C15.9635 118.36 14.9162 118.036 14.7055 117.828C14.347 117.473 13.4884 117.099 13.2117 116.963L13.2211 116.85C13.1771 116.529 12.9381 114.844 12.7934 114.303C12.7148 114.01 13.0136 113.536 13.0482 113.451C13.1331 113.256 13.2494 112.803 13.3501 112.57C13.4255 112.4 13.8092 112.171 13.9759 112.07C14.1772 111.947 14.6112 111.683 14.8062 111.818C15.3722 112.218 14.5294 113.775 14.5829 114.426C14.6395 115.146 15.2056 117.061 15.9918 117.014C16.5201 116.982 16.9415 116.155 17.1774 115.391L17.1837 115.388ZM12.2902 103.9C12.2902 103.9 12.0355 104.481 11.9412 104.695C11.8374 104.931 11.6424 105.393 11.6424 105.393C11.6424 105.393 13.8029 105.274 14.5514 105.274C16.2622 105.277 17.9699 105.903 17.9699 105.903C17.9699 105.903 17.7561 105.381 17.4856 104.947C17.2466 104.569 16.7403 103.893 16.7403 103.893L14.3753 103.654L12.2871 103.9H12.2902Z" fill="#AD7140"/>
<path d="M11.5009 102.177L11.4034 104.35C11.4034 104.35 13.7872 104.296 14.6175 104.362C17.4133 104.583 18.2467 104.963 18.2467 104.963L18.7624 102.18L11.5009 102.177Z" fill="#C4C2CC"/>
<path d="M35.6788 28.2779C42.0597 28.2779 42.3711 27.7842 48.8873 27.7842C48.7332 28.9855 49.6892 34.9891 51.0415 36.4546L49.4817 43.886L47.0978 59.1167L34.663 48.8361L33.5748 38.4485C34.6535 37.612 35.1724 36.1999 35.4901 34.5614C35.9461 32.2059 35.8863 29.4919 35.6819 28.2779H35.6788Z" fill="#E3A06B"/>
<path d="M35.6788 28.2782C42.0943 28.2782 42.434 27.8379 48.9879 27.8379C48.9313 28.2625 49.0634 29.3097 49.1232 30.5456C48.3747 31.6055 47.2865 32.7754 44.3807 34.7032C41.4748 36.6279 37.8645 35.8448 35.531 34.2943C35.7417 31.8759 35.8675 29.3883 35.6819 28.2813L35.6788 28.2782ZM50.161 34.7912C50.3497 35.4485 50.6327 35.9643 50.9283 36.2819L49.5194 43.8831L47.9721 53.7203C47.2394 55.3053 46.4091 56.7237 45.5128 57.7898L34.968 49.1225C34.8139 48.6979 34.6661 48.2734 34.5246 47.8457L33.5685 38.4487C34.6221 37.6374 35.0026 36.609 35.402 34.9799L35.5718 35.2756C35.5718 35.2756 36.4524 39.6407 37.5342 42.1975C38.6161 44.7542 39.2388 46.6066 39.0721 47.4243C38.9054 48.2388 39.1444 48.7042 39.5753 49.3867C40.0061 50.0691 41.7138 52.3397 41.8082 51.9214C41.9056 51.5032 42.1698 49.2326 43.368 47.6884C44.5694 46.1443 45.9625 45.0876 45.4562 44.1819C44.953 43.2793 45.1197 42.5591 46.0569 41.2068C46.9941 39.8545 49.5446 36.6562 50.1578 34.7944L50.161 34.7912ZM41.978 37.2128C41.978 37.2128 41.8333 38.2506 42.1698 38.911C42.5063 39.5715 43.0347 39.2413 43.0347 39.2413C43.0347 39.2413 42.1226 38.8041 41.978 37.2128Z" fill="#AD7140"/>
<path d="M31.0652 90.2446C43.0913 93.2795 51.941 93.031 60.8662 88.4175C59.0202 84.5901 57.4509 81.3289 55.608 77.5015C49.7616 63.3621 52.0448 44.3293 52.721 37.6904C51.5322 36.4796 51.2429 35.4858 51.2429 35.4858C51.2429 35.4858 50.7145 35.1022 50.4346 35.4638C49.9283 38.2376 45.8494 41.7442 45.7865 42.5524C45.494 43.6217 46.7048 43.5808 46.579 44.1972C46.3305 45.3954 44.5159 47.3012 43.9027 48.383C43.1542 49.7039 42.563 54.5187 42.563 54.5187C42.563 54.5187 40.3049 51.6631 39.7766 51.009C37.4965 48.0339 38.5344 48.4365 38.4966 46.8232C38.484 46.3042 38.4746 45.9709 37.9746 44.4551C37.5028 43.0241 35.8675 39.7503 35.292 35.467C35.2668 35.2783 34.49 35.8978 34.3674 36.1305C33.3673 38.115 33.4082 39.439 32.3326 42.3102C29.8136 53.3865 40.9937 77.1996 31.0652 90.2446Z" fill="#F2F1F6"/>
<path d="M51.6674 36.3857C51.6674 36.3857 50.5038 40.6942 49.4911 45.4273C49.3779 44.7574 49.0162 43.6347 48.9848 43.2793C48.837 41.6786 47.969 41.383 47.3746 41.3704C46.6324 41.3547 45.8808 42.0686 45.7487 42.7038C45.6952 42.9586 45.7833 43.2133 45.9468 43.4303C45.799 43.1221 45.8021 42.7699 46.3902 42.0843C46.9783 41.4018 48.3841 42.1881 48.5665 42.8674C48.8024 43.7385 49.3087 45.0656 49.4722 45.5216C48.9816 47.8237 48.5288 50.2233 48.2615 52.2706C47.5224 57.9785 48.2237 69.7341 49.9534 75.2C51.4126 79.8041 56.5734 84.9994 57.086 89.1381C51.2082 92.2924 42.0314 92.8176 35.5278 89.9872C35.858 86.5279 37.5783 76.9359 37.5562 72.7752C37.5279 67.3063 35.1284 53.3713 34.3862 48.8332C34.3013 48.308 34.2352 47.7356 34.1818 47.135C34.5151 46.9274 34.8831 46.6098 35.1661 46.1286C35.8423 44.9807 37.2638 45.7103 37.6726 46.3928C38.0814 47.0752 38.2104 47.6287 38.2104 47.6287C38.2104 47.6287 38.7828 45.9525 37.4367 44.7857C36.0907 43.6158 35.3139 44.9398 34.6126 46.1538C34.4554 46.4274 34.3013 46.6475 34.1598 46.8236C33.8233 42.2793 34.1126 36.6877 34.1126 36.6877C33.8296 37.043 33.6472 37.1783 33.4333 37.4644C25.7 50.4025 38.6475 78.9361 30.1909 89.9967C44.2549 93.8177 51.485 92.6069 61.0486 88.8519C46.7488 59.6736 55.5261 54.7896 52.7209 37.694C52.3687 37.26 52.0164 36.8229 51.6674 36.3889V36.3857Z" fill="#C4C2CC"/>
<path d="M64.6747 97.6919C64.6747 97.6919 64.2344 98.4876 64.1558 98.7014C63.9136 99.3304 63.1871 101.689 63.1871 101.689L59.061 94.0533L60.275 93.1318L64.6778 97.6919H64.6747Z" fill="#AD7140"/>
<path d="M59.3598 93.8235L58.8818 95.16C58.8818 95.16 61.0643 96.3331 61.7971 96.7168C62.7783 97.2199 64.5992 98.0062 64.5992 98.0062C64.5992 98.0062 64.92 97.2042 64.9891 96.918C65.0395 96.723 65.3414 95.723 65.3414 95.723L59.3567 93.8203L59.3598 93.8235Z" fill="#C4C2CC"/>
<path d="M33.4931 37.373C33.4931 37.373 31.0243 39.2726 27.9046 40.1626C18.5203 42.8326 16.4352 44.7321 16.0893 54.1039C15.8534 60.4943 15.1489 65.4663 14.0545 71.6492C12.5764 77.615 12.0858 80.9738 11.8594 85.5905C11.633 90.2072 11.1581 102.538 11.1581 102.538C12.7997 102.507 17.3252 102.692 18.7373 102.994C20.4292 95.8177 23.0741 82.4487 24.1465 79.8259C24.2408 82.867 22.6715 87.8485 21.8727 92.9684C21.2941 96.6731 20.6808 107.328 20.6808 107.328C20.6808 107.328 25.4799 111.291 26.9957 110.246C30.323 107.963 32.4144 99.2299 34.8517 87.8108C35.9335 82.7475 36.226 72.2624 35.8706 67.4885C35.5498 63.1548 33.8705 54.324 33.4585 50.308C33.1251 47.053 33.4899 37.373 33.4899 37.373H33.4931Z" fill="#23314B"/>
<path d="M51.746 36.4797C51.746 36.4797 49.0918 47.122 48.9031 50.9053C48.7867 53.2577 48.5823 57.9719 48.6452 60.3243C48.7364 63.7207 48.7301 71.2087 49.5698 74.4857C50.2019 76.9544 52.1895 80.6371 53.9978 82.48C57.5232 86.0778 58.2308 94.3425 58.2308 94.3425C61.1524 95.6854 63.6778 96.8207 65.3571 97.5314C65.3571 97.5314 68.0303 92.6757 70.5399 87.6282C73.0841 82.5083 74.8547 75.1398 75.0622 72.9195C75.1251 72.2591 74.5779 66.0008 73.0338 59.7896C71.2947 52.808 69.521 46.9365 67.785 44.5904C66.417 42.738 55.1237 38.3195 51.746 36.4766V36.4797ZM62.0613 74.6775C61.6776 70.7842 60.5863 64.9347 60.5863 64.9347C60.5863 64.9347 61.1272 67.265 62.2342 70.391C63.4702 73.8819 64.0709 74.3442 64.1306 74.6052C63.9451 75.6336 63.6809 76.6211 63.0393 79.0615C62.9041 78.5143 62.1493 75.6556 62.0644 74.6744L62.0613 74.6775Z" fill="#23314B"/>
<path d="M30.5526 39.9738C30.1469 40.8481 26.0114 47.9147 25.9705 48.6003C26.2127 49.5941 28.911 55.2234 30.0652 57.6984C29.0619 54.3743 27.6216 50.0281 27.7725 48.682C27.9141 47.4115 29.7916 42.2476 30.5558 39.9707L30.5526 39.9738Z" fill="#35496E"/>
<path d="M64.4199 75.1494C63.2311 81.2033 60.0485 86.2886 58.6144 93.4873C58.6459 93.7011 58.9604 94.3301 59.039 94.7232C61.0108 89.8203 64.769 79.851 64.4199 75.1494Z" fill="#182234"/>
<path fill-rule="evenodd" clip-rule="evenodd" d="M57.1206 48.2381L53.0889 49.2067L57.1206 49.1816C56.4539 51.5717 52.5574 65.7362 50.5604 73.5702C52.8184 66.7489 58.0892 48.6815 58.0892 48.6815C58.0892 48.6815 57.0514 43.0396 53.1643 38.4795C55.4098 41.5458 56.4665 44.5586 57.1206 48.2381Z" fill="#182234"/>
<path fill-rule="evenodd" clip-rule="evenodd" d="M25.9171 48.2387L29.9488 49.2073L25.9171 49.1821C26.5838 51.5722 33.2604 64.1361 35.2605 71.97C33.0025 65.1487 24.9484 48.6789 24.9484 48.6789C24.9484 48.6789 26.1938 44.9837 30.452 40.0273C28.2065 43.0936 26.6372 45.7102 25.9202 48.2387H25.9171Z" fill="#182234"/>
<path d="M28.2977 40.4424C18.3819 44.0401 17.2214 44.5307 16.7245 54.6793C16.5987 57.2329 16.4887 59.4124 16.3188 61.4471C16.2025 62.1767 16.0893 62.8466 16.0138 63.4315C15.8848 64.4442 15.6112 66.4506 15.4131 67.4444C15.0735 69.1521 14.7621 70.7214 14.4822 72.2058C14.2904 72.9417 14.1174 73.6335 13.957 74.2908C14.9665 75.8979 18.0611 56.1039 18.4731 51.3237C18.948 45.8264 22.813 42.9174 26.3573 41.4393C27.1341 41.1154 27.7725 40.7757 28.2946 40.4424H28.2977Z" fill="#35496E"/>
<path fill-rule="evenodd" clip-rule="evenodd" d="M33.9365 92.9497C39.4809 95.8902 48.5917 94.6574 57.8345 91.5439L58.1081 92.1635C51.2114 95.0474 40.5942 97.1135 33.7195 93.8492L33.9333 92.9497H33.9365Z" fill="#192233"/>
<path d="M74.0622 67.8473C73.7445 65.5735 73.2571 62.7746 72.562 59.9851C70.8638 53.1701 69.1341 47.4401 67.4422 45.1538C66.2754 43.5782 57.7465 40.0968 53.3971 38.04C53.3971 38.04 63.9105 43.9084 65.7188 45.5626C67.329 47.0344 71.1972 58.6831 74.0653 67.8504L74.0622 67.8473Z" fill="#35496E"/>
<path d="M21.4545 107.884C21.4545 107.884 25.4076 111.642 26.936 110.601C30.2633 108.337 33.7227 97.0187 34.5215 88.54C32.8421 93.9713 29.2129 105.129 27.3071 107.46C25.4013 109.787 21.4545 107.887 21.4545 107.887V107.884Z" fill="#192233"/>
<path fill-rule="evenodd" clip-rule="evenodd" d="M50.3591 20.7241C50.3591 20.7241 51.4378 20.4599 51.6328 20.8687C51.8277 21.2776 52.0919 23.0859 51.8403 24.1866C51.5887 25.2904 50.5321 26.8314 50.0477 26.8314C49.5666 26.8314 49.5414 26.6773 49.5414 26.6773C49.5225 26.9006 49.5446 26.6679 49.5163 26.9855C49.5131 32.2344 48.2426 31.5142 44.5285 34.2911C43.6793 34.9264 40.8898 34.8257 40.1067 34.2377C36.336 31.4167 35.0844 32.2029 35.1221 26.6742C35.1221 26.6742 35.1001 26.8283 34.6158 26.8283C34.1346 26.8283 33.0779 25.2842 32.8232 24.1834C32.5716 23.0796 32.8358 21.2744 33.0307 20.8656C33.2257 20.4568 34.3044 20.7209 34.3044 20.7209C33.4585 15.6702 35.5687 9.92766 42.3774 9.95911C49.2993 9.99056 51.3057 16.5634 50.3559 20.7209L50.3591 20.7241Z" fill="#E3A06B"/>
<path fill-rule="evenodd" clip-rule="evenodd" d="M50.2081 23.7112C50.2081 23.7112 50.7522 23.5005 50.617 22.8401C50.4849 22.1797 50.444 21.7268 50.7711 21.6262C51.095 21.5255 51.4661 22.708 51.3812 23.6546C51.2963 24.6012 50.5321 25.7177 50.5321 25.7177C50.5321 25.7177 51.4944 24.6924 51.5133 23.2143C51.5321 21.7362 51.2459 21.1953 50.856 21.1953C50.466 21.1953 50.2742 21.7237 50.2742 21.8243C50.2742 21.9249 50.3968 22.7929 50.2081 23.7081V23.7112Z" fill="#AD7140"/>
<path fill-rule="evenodd" clip-rule="evenodd" d="M34.4333 23.7112C34.4333 23.7112 33.8987 23.5005 34.0308 22.8401C34.1629 22.1797 34.2006 21.7268 33.8798 21.6262C33.5622 21.5255 33.1974 22.708 33.2792 23.6546C33.3641 24.6012 34.1126 25.7177 34.1126 25.7177C34.1126 25.7177 33.1659 24.6924 33.1471 23.2143C33.1282 21.7362 33.4081 21.1953 33.7949 21.1953C34.1786 21.1953 34.3673 21.7237 34.3673 21.8243C34.3673 21.9249 34.2446 22.7929 34.4333 23.7081V23.7112Z" fill="#AD7140"/>
<path fill-rule="evenodd" clip-rule="evenodd" d="M35.1221 26.709V26.6776C35.1221 26.6776 35.1001 26.8317 34.6158 26.8317C34.534 26.8317 34.4334 26.7876 34.3233 26.7059C34.3862 26.7436 34.5089 26.8317 34.7542 26.4731C34.9963 26.1115 34.8296 24.6806 34.8705 25.0579C34.9083 25.4322 35.1724 26.0958 35.1221 26.7122V26.709ZM49.5414 26.709V26.6776C49.5414 26.6776 49.5634 26.8317 50.0477 26.8317C50.1295 26.8317 50.2302 26.7876 50.3402 26.7059C50.2773 26.7436 50.1547 26.8317 49.9094 26.4731C49.6672 26.1115 50.4786 24.7781 50.2176 25.1491C49.9565 25.5202 49.5823 26.2876 49.5414 26.7122V26.709Z" fill="#AD7140"/>
<path fill-rule="evenodd" clip-rule="evenodd" d="M43.0724 26.7873C43.0724 26.7873 43.4906 26.6269 43.6636 26.4507C44.0662 26.0482 44.2045 26.7244 43.9624 26.7589C43.8114 26.781 43.3837 26.7621 43.0724 26.7873ZM41.7389 26.7873C41.7389 26.7873 41.3207 26.6269 41.1477 26.4507C40.7452 26.0482 40.6068 26.7244 40.8489 26.7589C40.9999 26.781 41.4276 26.7621 41.7389 26.7873Z" fill="#784A24"/>
<path fill-rule="evenodd" clip-rule="evenodd" d="M44.1385 25.4259C44.1794 25.4259 44.4152 25.6524 44.4152 26.143C44.4152 26.6336 44.1385 26.7814 43.9183 26.7719C43.7013 26.7656 43.6856 26.7499 43.6856 26.7499C43.6856 26.7499 44.1448 26.9543 44.4781 26.5801C44.8115 26.2059 44.5505 25.3913 44.3335 25.2813C44.1165 25.1712 44.063 25.3945 44.1353 25.4228L44.1385 25.4259ZM40.676 25.4259C40.6351 25.4259 40.3992 25.6524 40.3992 26.143C40.3992 26.6336 40.676 26.7814 40.8961 26.7719C41.1131 26.7656 41.1288 26.7499 41.1288 26.7499C41.1288 26.7499 40.6697 26.9543 40.3363 26.5801C40.003 26.2059 40.264 25.3913 40.481 25.2813C40.698 25.1712 40.7514 25.3945 40.6791 25.4228L40.676 25.4259Z" fill="#AD7140"/>
<path d="M42.4717 24.9825C42.5776 24.9825 42.6635 24.011 42.6635 22.8126C42.6635 21.6141 42.5776 20.6426 42.4717 20.6426C42.3657 20.6426 42.2798 21.6141 42.2798 22.8126C42.2798 24.011 42.3657 24.9825 42.4717 24.9825Z" fill="#EDB587"/>
<path d="M42.5441 26.0514C42.7056 26.0514 42.8365 25.9247 42.8365 25.7684C42.8365 25.6121 42.7056 25.4854 42.5441 25.4854C42.3825 25.4854 42.2516 25.6121 42.2516 25.7684C42.2516 25.9247 42.3825 26.0514 42.5441 26.0514Z" fill="#EDB587"/>
<path fill-rule="evenodd" clip-rule="evenodd" d="M40.1854 20.5697C40.1854 20.5697 41.0848 21.4157 41.0848 21.9598C41.0848 22.5007 40.9527 22.8844 41.0062 23.2429C41.0597 23.6014 40.9401 23.0573 41.2578 22.6485C41.5754 22.2397 41.4968 21.3654 41.2704 20.9283C41.0439 20.4911 39.9212 20.0162 40.1854 20.5697Z" fill="#AD7140"/>
<path fill-rule="evenodd" clip-rule="evenodd" d="M42.5252 29.1649C42.868 29.0328 43.5378 28.8472 43.9656 29.124C44.3933 29.4007 45.2424 29.7467 45.5726 29.6146C45.8997 29.4825 46.0412 29.4825 46.0034 29.5957C45.9688 29.7089 45.7676 29.7844 45.3682 29.6838C44.9688 29.5832 44.1322 29.6052 43.4089 29.6806C42.8177 29.7435 42.607 29.8159 42.3554 29.8159C42.0818 29.819 41.7704 29.7467 41.1257 29.6806C40.4024 29.6052 39.7325 29.5832 39.3331 29.6838C38.9337 29.7844 38.7325 29.7058 38.6979 29.5957C38.6633 29.4825 38.8016 29.4825 39.1287 29.6146C39.4558 29.7467 40.1414 29.4039 40.5691 29.124C40.9968 28.8472 41.6698 29.0328 42.0094 29.1649C42.1855 29.2309 42.3459 29.2309 42.5189 29.1649H42.5252Z" fill="#AD7140"/>
<path fill-rule="evenodd" clip-rule="evenodd" d="M41.4559 30.0488C41.4559 30.0488 42.2641 30.0676 42.9371 30.0362C43.6133 30.0016 44.1668 29.8507 44.063 30.0393C43.9592 30.228 43.3869 30.5803 42.3553 30.5551C41.3238 30.5299 41.0188 30.0205 41.4559 30.0519V30.0488Z" fill="#EDB587"/>
<path fill-rule="evenodd" clip-rule="evenodd" d="M40.959 30.671C42.1509 31.0452 42.4686 30.9823 43.5882 30.7119C43.6511 30.7056 43.0755 31.3251 42.3113 31.3346C41.5817 31.3409 40.8395 30.6616 40.959 30.671Z" fill="#AD7140"/>
<path fill-rule="evenodd" clip-rule="evenodd" d="M44.063 20.5515C44.063 20.5515 43.758 20.995 43.7391 21.5044C43.7202 22.0139 44.0158 21.9416 43.9655 21.7812C43.9121 21.6239 44.0662 21.0138 44.4687 20.7025C44.8712 20.3911 44.8933 20.2182 44.8115 20.1867C44.7329 20.1521 44.0913 20.4132 44.063 20.5515Z" fill="#CF8F5B"/>
<path fill-rule="evenodd" clip-rule="evenodd" d="M44.0378 21.5887C44.0378 21.5887 44.78 20.7491 45.7518 20.6296C46.7236 20.51 47.0601 20.9283 47.318 21.0981C47.5758 21.2711 47.7205 21.3088 47.8337 21.3151C47.9469 21.3214 47.6953 21.4409 47.3714 21.2365C47.0475 21.0321 46.5726 20.727 45.8776 20.7522C45.1794 20.7805 44.5316 21.1516 44.0378 21.5856V21.5887Z" fill="#AD7140"/>
<path fill-rule="evenodd" clip-rule="evenodd" d="M44.3932 22.0857C44.2423 22.1203 44.1007 22.1046 44.0819 22.0071C44.063 21.9064 44.236 21.7775 44.3209 21.7398C44.8461 21.4976 45.0599 21.0007 46.1449 21.1076C46.7299 21.1642 47.101 21.5448 47.101 21.5448C47.101 21.5448 46.6072 22.1895 45.7424 22.2398C44.8744 22.2901 44.5096 22.0605 44.3901 22.0888L44.3932 22.0857Z" fill="white"/>
<path fill-rule="evenodd" clip-rule="evenodd" d="M44.3932 22.0862C44.2423 22.1208 44.1007 22.1051 44.0819 22.0076C44.063 21.9069 44.236 21.778 44.3209 21.7403L44.346 21.7277C44.4404 21.8661 44.7832 22.2214 45.7361 22.1743C46.6355 22.1302 46.8525 21.6333 46.9626 21.4258C47.0538 21.4918 47.1041 21.5453 47.1041 21.5453C47.1041 21.5453 46.6104 22.19 45.7455 22.2403C44.8775 22.2906 44.5127 22.061 44.3932 22.0894V22.0862Z" fill="#EDB587"/>
<path fill-rule="evenodd" clip-rule="evenodd" d="M44.3838 21.7051C44.865 21.4535 45.104 21.0006 46.1481 21.1013C46.733 21.1579 47.1041 21.5384 47.1041 21.5384C47.1041 21.5384 47.0727 21.5761 47.0161 21.6359C46.7991 21.4975 46.6198 21.3371 45.972 21.29C45.3241 21.2428 44.5662 21.6076 44.3838 21.7019V21.7051Z" fill="#ADA89F"/>
<path fill-rule="evenodd" clip-rule="evenodd" d="M45.2392 21.1923C45.453 21.1136 45.7203 21.0696 46.0977 21.1011C46.2424 21.2143 46.3367 21.3935 46.3367 21.5917C46.3367 21.9345 46.0568 22.2143 45.7141 22.2143C45.3713 22.2143 45.0914 21.9345 45.0914 21.5917C45.0914 21.4407 45.1448 21.2992 45.236 21.1923H45.2392Z" fill="#625D54"/>
<path d="M45.7141 21.8881C45.8773 21.8881 46.0097 21.7558 46.0097 21.5925C46.0097 21.4292 45.8773 21.2969 45.7141 21.2969C45.5508 21.2969 45.4185 21.4292 45.4185 21.5925C45.4185 21.7558 45.5508 21.8881 45.7141 21.8881Z" fill="#191716"/>
<path d="M45.8902 21.6143C45.977 21.6143 46.0474 21.5439 46.0474 21.457C46.0474 21.3702 45.977 21.2998 45.8902 21.2998C45.8033 21.2998 45.7329 21.3702 45.7329 21.457C45.7329 21.5439 45.8033 21.6143 45.8902 21.6143Z" fill="white"/>
<path fill-rule="evenodd" clip-rule="evenodd" d="M44.3366 21.7308C44.3366 21.7308 44.5536 21.6144 44.8429 21.454C45.1354 21.2905 45.5317 21.1395 46.0506 21.1898C46.5695 21.2401 46.9186 21.4603 47.0161 21.5232C47.1167 21.5861 47.2236 21.5861 47.2771 21.5767C47.3305 21.5672 47.34 21.5641 47.34 21.5641C47.34 21.5641 47.1733 21.5012 47.0727 21.3974C46.9689 21.2936 46.5821 21.0389 45.8996 21.042C45.214 21.0452 45.0977 21.1772 44.3366 21.7308Z" fill="#191716"/>
<path fill-rule="evenodd" clip-rule="evenodd" d="M44.8146 23.1611C44.8146 23.1611 45.6229 23.4536 46.3368 23.4536C47.0507 23.4536 47.2771 23.3876 47.2771 23.3876C47.2771 23.3876 45.6103 23.8907 44.8178 23.1611H44.8146Z" fill="#CF8F5B"/>
<path fill-rule="evenodd" clip-rule="evenodd" d="M43.4969 20.3372C43.4969 20.3372 43.6793 20.8121 43.802 20.7461C44.5693 20.3404 46.3179 19.5101 47.5318 20.5888C47.818 20.8435 47.8243 20.8467 47.9218 20.9285C48.0193 21.0071 48.2205 20.9851 48.0759 20.7461C47.9312 20.507 47.1764 19.5447 46.2361 19.2648C45.2958 18.9881 44.1322 19.7554 43.8429 19.8875C43.5504 20.0196 43.3806 20.0856 43.5001 20.3372H43.4969Z" fill="#402F26"/>
<path fill-rule="evenodd" clip-rule="evenodd" d="M40.6288 21.5887C40.6288 21.5887 39.8866 20.7491 38.9148 20.6296C37.9431 20.51 37.6066 20.9283 37.3487 21.0981C37.0908 21.2711 36.9461 21.3088 36.8329 21.3151C36.7197 21.3214 36.9713 21.4409 37.2952 21.2365C37.6191 21.0321 38.094 20.727 38.789 20.7522C39.4872 20.7805 40.1351 21.1516 40.6288 21.5856V21.5887Z" fill="#AD7140"/>
<path fill-rule="evenodd" clip-rule="evenodd" d="M40.2734 22.0857C40.4244 22.1203 40.5659 22.1046 40.5848 22.0071C40.6036 21.9064 40.4307 21.7775 40.3458 21.7398C39.8206 21.4976 39.6067 21.0007 38.5217 21.1076C37.9368 21.1642 37.5657 21.5448 37.5657 21.5448C37.5657 21.5448 38.0594 22.1895 38.9243 22.2398C39.7923 22.2901 40.1571 22.0605 40.2766 22.0888L40.2734 22.0857Z" fill="white"/>
<path fill-rule="evenodd" clip-rule="evenodd" d="M40.2735 22.0862C40.4244 22.1208 40.5659 22.1051 40.5848 22.0076C40.6037 21.9069 40.4307 21.778 40.3458 21.7403L40.3206 21.7277C40.2263 21.8661 39.8835 22.2214 38.9306 22.1743C38.0311 22.1302 37.8142 21.6333 37.7041 21.4258C37.6129 21.4918 37.5626 21.5453 37.5626 21.5453C37.5626 21.5453 38.0563 22.19 38.9212 22.2403C39.7891 22.2906 40.1539 22.061 40.2735 22.0894V22.0862Z" fill="#EDB587"/>
<path fill-rule="evenodd" clip-rule="evenodd" d="M40.2829 21.7051C39.8017 21.4535 39.5627 21.0006 38.5186 21.1013C37.9337 21.1579 37.5626 21.5384 37.5626 21.5384C37.5626 21.5384 37.594 21.5761 37.6506 21.6359C37.8676 21.4975 38.0469 21.3371 38.6947 21.29C39.3426 21.2428 40.1005 21.6076 40.2829 21.7019V21.7051Z" fill="#ADA89F"/>
<path fill-rule="evenodd" clip-rule="evenodd" d="M39.4275 21.1923C39.2136 21.1136 38.9463 21.0696 38.5689 21.1011C38.4242 21.2143 38.3299 21.3935 38.3299 21.5917C38.3299 21.9345 38.6098 22.2143 38.9526 22.2143C39.2954 22.2143 39.5753 21.9345 39.5753 21.5917C39.5753 21.4407 39.5218 21.2992 39.4306 21.1923H39.4275Z" fill="#625D54"/>
<path d="M38.9526 21.8881C39.1159 21.8881 39.2482 21.7558 39.2482 21.5925C39.2482 21.4292 39.1159 21.2969 38.9526 21.2969C38.7893 21.2969 38.657 21.4292 38.657 21.5925C38.657 21.7558 38.7893 21.8881 38.9526 21.8881Z" fill="#191716"/>
<path d="M38.7764 21.6143C38.8633 21.6143 38.9337 21.5439 38.9337 21.457C38.9337 21.3702 38.8633 21.2998 38.7764 21.2998C38.6896 21.2998 38.6192 21.3702 38.6192 21.457C38.6192 21.5439 38.6896 21.6143 38.7764 21.6143Z" fill="white"/>
<path fill-rule="evenodd" clip-rule="evenodd" d="M40.33 21.7308C40.33 21.7308 40.113 21.6144 39.8237 21.454C39.5312 21.2905 39.135 21.1395 38.6161 21.1898C38.0972 21.2401 37.7481 21.4603 37.6506 21.5232C37.5499 21.5861 37.443 21.5861 37.3896 21.5767C37.3361 21.5672 37.3267 21.5641 37.3267 21.5641C37.3267 21.5641 37.4933 21.5012 37.594 21.3974C37.6978 21.2936 38.0846 21.0389 38.767 21.042C39.4526 21.0452 39.569 21.1772 40.33 21.7308Z" fill="#191716"/>
<path fill-rule="evenodd" clip-rule="evenodd" d="M39.852 23.1611C39.852 23.1611 39.0438 23.4536 38.3299 23.4536C37.616 23.4536 37.3896 23.3876 37.3896 23.3876C37.3896 23.3876 39.0564 23.8907 39.8489 23.1611H39.852Z" fill="#AD7140"/>
<path fill-rule="evenodd" clip-rule="evenodd" d="M41.1697 20.3372C41.1697 20.3372 40.9873 20.8121 40.8647 20.7461C40.0973 20.3404 38.3488 19.5101 37.1348 20.5888C36.8486 20.8435 36.8424 20.8467 36.7449 20.9285C36.6474 21.0071 36.4461 20.9851 36.5908 20.7461C36.7354 20.507 37.4902 19.5447 38.4305 19.2648C39.3708 18.9881 40.5345 19.7554 40.8238 19.8875C41.1163 20.0196 41.2861 20.0856 41.1666 20.3372H41.1697Z" fill="#402F26"/>
</g>
<defs>
<clipPath id="clip0">
<rect width="84.6667" height="211.667" fill="white"/>
</clipPath>
</defs>
</svg>
