<svg width="85" height="212" viewBox="0 0 85 212" fill="none" xmlns="http://www.w3.org/2000/svg">
<path fill-rule="evenodd" clip-rule="evenodd" d="M36.2389 18.4053H49.3825V24.9757H36.2389V18.4053Z" fill="#E3A06B"/>
<path fill-rule="evenodd" clip-rule="evenodd" d="M42.8067 20.5967C42.9134 20.5967 42.9987 21.5673 42.9987 22.7673C42.9987 23.9646 42.9134 24.9379 42.8067 24.9379C42.7001 24.9379 42.6147 23.9672 42.6147 22.7673C42.6147 21.57 42.7001 20.5967 42.8067 20.5967Z" fill="#EDB587"/>
<path fill-rule="evenodd" clip-rule="evenodd" d="M40.5214 20.5247C40.5214 20.5247 41.4201 21.3727 41.4201 21.914C41.4201 22.4553 41.2867 22.8393 41.3401 23.1966C41.3934 23.5539 41.2734 23.0126 41.5907 22.6019C41.908 22.1913 41.828 21.3193 41.604 20.882C41.3801 20.4447 40.2548 19.97 40.5187 20.5247H40.5214Z" fill="#AD7140"/>
<path fill-rule="evenodd" clip-rule="evenodd" d="M44.396 20.5041C44.396 20.5041 44.092 20.9467 44.0707 21.456C44.052 21.9654 44.348 21.8934 44.2947 21.7334C44.2413 21.5734 44.3933 20.9654 44.7986 20.6561C45.2013 20.3441 45.2226 20.1734 45.1426 20.1414C45.0626 20.1094 44.4227 20.3654 44.396 20.5041Z" fill="#CF8F5B"/>
<path fill-rule="evenodd" clip-rule="evenodd" d="M44.3694 21.5438C44.3694 21.5438 45.1107 20.7038 46.0813 20.5838C47.0546 20.4638 47.3906 20.8825 47.6493 21.0531C47.9079 21.2264 48.0519 21.2638 48.1666 21.2718C48.2786 21.2771 48.0279 21.3971 47.7026 21.1918C47.3773 20.9864 46.9053 20.6798 46.2066 20.7091C45.508 20.7385 44.86 21.1064 44.3667 21.5411L44.3694 21.5438Z" fill="#AD7140"/>
<path fill-rule="evenodd" clip-rule="evenodd" d="M44.7267 22.0401C44.5747 22.0721 44.4361 22.0587 44.4147 21.9601C44.3961 21.8614 44.5694 21.7307 44.6547 21.6907C45.18 21.4481 45.3934 20.9521 46.4787 21.0588C47.0626 21.1174 47.436 21.4961 47.436 21.4961C47.436 21.4961 46.9426 22.1414 46.076 22.1894C45.2094 22.2401 44.8414 22.0107 44.724 22.0374L44.7267 22.0401Z" fill="white"/>
<path fill-rule="evenodd" clip-rule="evenodd" d="M44.7267 22.0392C44.5747 22.0712 44.4361 22.0579 44.4147 21.9592C44.3961 21.8606 44.5694 21.7299 44.6547 21.6899L44.6787 21.6793C44.7747 21.8153 45.116 22.1726 46.0707 22.1272C46.9693 22.0846 47.1853 21.5859 47.2946 21.3779C47.3853 21.4446 47.436 21.4953 47.436 21.4953C47.436 21.4953 46.9426 22.1406 46.076 22.1886C45.2094 22.2392 44.8414 22.0099 44.724 22.0366L44.7267 22.0392Z" fill="#EDB587"/>
<path fill-rule="evenodd" clip-rule="evenodd" d="M44.7186 21.6611C45.2013 21.4105 45.4413 20.9571 46.4839 21.0585C47.0679 21.1171 47.4412 21.4958 47.4412 21.4958C47.4412 21.4958 47.4119 21.5358 47.3532 21.5945C47.1346 21.4558 46.9586 21.2958 46.3079 21.2505C45.6599 21.2025 44.9026 21.5678 44.7186 21.6611Z" fill="#ADA89F"/>
<path fill-rule="evenodd" clip-rule="evenodd" d="M45.572 21.1463C45.7853 21.0663 46.0546 21.0236 46.4306 21.0556C46.5773 21.1703 46.6706 21.3463 46.6706 21.5463C46.6706 21.8902 46.3933 22.1676 46.0493 22.1676C45.7053 22.1676 45.428 21.8902 45.428 21.5463C45.428 21.3943 45.4813 21.2556 45.572 21.1463Z" fill="#9B9B99"/>
<path fill-rule="evenodd" clip-rule="evenodd" d="M46.0493 21.25C46.212 21.25 46.3426 21.3807 46.3426 21.5433C46.3426 21.706 46.212 21.8366 46.0493 21.8366C45.8866 21.8366 45.756 21.706 45.756 21.5433C45.756 21.3807 45.8866 21.25 46.0493 21.25Z" fill="#191716"/>
<path fill-rule="evenodd" clip-rule="evenodd" d="M46.2226 21.2559C46.3106 21.2559 46.38 21.3252 46.38 21.4132C46.38 21.5012 46.3106 21.5705 46.2226 21.5705C46.1346 21.5705 46.0653 21.5012 46.0653 21.4132C46.0653 21.3252 46.1346 21.2559 46.2226 21.2559Z" fill="white"/>
<path fill-rule="evenodd" clip-rule="evenodd" d="M44.668 21.6851C44.668 21.6851 44.884 21.5704 45.1746 21.4077C45.4653 21.2451 45.8626 21.0931 46.3826 21.1438C46.9026 21.1944 47.2492 21.4157 47.3479 21.4771C47.4465 21.5411 47.5559 21.5411 47.6092 21.5304C47.6625 21.5197 47.6732 21.5171 47.6732 21.5171C47.6732 21.5171 47.5079 21.4531 47.4039 21.3517C47.3026 21.2504 46.9132 20.9944 46.2306 20.9971C45.5453 20.9998 45.4306 21.1331 44.668 21.6851Z" fill="#191716"/>
<path fill-rule="evenodd" clip-rule="evenodd" d="M45.1479 23.1143C45.1479 23.1143 45.9559 23.4049 46.6706 23.4049C47.3852 23.4049 47.6092 23.3382 47.6092 23.3382C47.6092 23.3382 45.9426 23.8422 45.1479 23.1143Z" fill="#CF8F5B"/>
<path fill-rule="evenodd" clip-rule="evenodd" d="M43.8307 20.293C43.8307 20.293 44.012 20.7677 44.1347 20.7037C44.9027 20.2957 46.6519 19.469 47.8652 20.5437C48.1532 20.7997 48.1586 20.8023 48.2546 20.8823C48.3532 20.9623 48.5532 20.9383 48.4066 20.701C48.2599 20.4637 47.5053 19.4984 46.5666 19.2211C45.628 18.9437 44.4627 19.7117 44.172 19.8424C43.8814 19.9757 43.708 20.0397 43.828 20.293H43.8307Z" fill="#402F26"/>
<path fill-rule="evenodd" clip-rule="evenodd" d="M40.9641 21.5438C40.9641 21.5438 40.2228 20.7038 39.2521 20.5838C38.2788 20.4638 37.9429 20.8825 37.6842 21.0531C37.4255 21.2264 37.2815 21.2638 37.1669 21.2718C37.0549 21.2771 37.3055 21.3971 37.6309 21.1918C37.9562 20.9864 38.4282 20.6798 39.1268 20.7091C39.8255 20.7385 40.4734 21.1064 40.9668 21.5411L40.9641 21.5438Z" fill="#AD7140"/>
<path fill-rule="evenodd" clip-rule="evenodd" d="M40.6067 22.0401C40.7587 22.0721 40.8974 22.0587 40.9187 21.9601C40.9374 21.8614 40.764 21.7307 40.6787 21.6907C40.1534 21.4481 39.9401 20.9521 38.8548 21.0588C38.2708 21.1174 37.8975 21.4961 37.8975 21.4961C37.8975 21.4961 38.3908 22.1414 39.2574 22.1894C40.1241 22.2401 40.492 22.0107 40.6094 22.0374L40.6067 22.0401Z" fill="white"/>
<path fill-rule="evenodd" clip-rule="evenodd" d="M40.6067 22.0392C40.7587 22.0712 40.8974 22.0579 40.9187 21.9592C40.9374 21.8606 40.764 21.7299 40.6787 21.6899L40.6547 21.6793C40.5587 21.8153 40.2174 22.1726 39.2628 22.1272C38.3641 22.0846 38.1481 21.5859 38.0388 21.3779C37.9481 21.4446 37.8975 21.4953 37.8975 21.4953C37.8975 21.4953 38.3908 22.1406 39.2574 22.1886C40.1241 22.2392 40.492 22.0099 40.6094 22.0366L40.6067 22.0392Z" fill="#EDB587"/>
<path fill-rule="evenodd" clip-rule="evenodd" d="M40.6148 21.6611C40.1321 21.4105 39.8921 20.9571 38.8495 21.0585C38.2655 21.1171 37.8922 21.4958 37.8922 21.4958C37.8922 21.4958 37.9215 21.5358 37.9802 21.5945C38.1989 21.4558 38.3749 21.2958 39.0255 21.2505C39.6735 21.2025 40.4308 21.5678 40.6148 21.6611Z" fill="#ADA89F"/>
<path fill-rule="evenodd" clip-rule="evenodd" d="M39.7615 21.1463C39.5481 21.0663 39.2788 21.0236 38.9028 21.0556C38.7562 21.1703 38.6628 21.3463 38.6628 21.5463C38.6628 21.8902 38.9402 22.1676 39.2842 22.1676C39.6281 22.1676 39.9055 21.8902 39.9055 21.5463C39.9055 21.3943 39.8521 21.2556 39.7615 21.1463Z" fill="#9B9B99"/>
<path fill-rule="evenodd" clip-rule="evenodd" d="M39.2842 21.25C39.1215 21.25 38.9908 21.3807 38.9908 21.5433C38.9908 21.706 39.1215 21.8366 39.2842 21.8366C39.4468 21.8366 39.5775 21.706 39.5775 21.5433C39.5775 21.3807 39.4468 21.25 39.2842 21.25Z" fill="#191716"/>
<path fill-rule="evenodd" clip-rule="evenodd" d="M39.1108 21.2559C39.0228 21.2559 38.9535 21.3252 38.9535 21.4132C38.9535 21.5012 39.0228 21.5705 39.1108 21.5705C39.1988 21.5705 39.2681 21.5012 39.2681 21.4132C39.2681 21.3252 39.1988 21.2559 39.1108 21.2559Z" fill="white"/>
<path fill-rule="evenodd" clip-rule="evenodd" d="M40.6654 21.6851C40.6654 21.6851 40.4494 21.5704 40.1587 21.4077C39.8681 21.2451 39.4708 21.0931 38.9508 21.1438C38.4308 21.1944 38.0841 21.4157 37.9855 21.4771C37.8868 21.5411 37.7775 21.5411 37.7242 21.5304C37.6708 21.5197 37.6602 21.5171 37.6602 21.5171C37.6602 21.5171 37.8255 21.4531 37.9295 21.3517C38.0308 21.2504 38.4201 20.9944 39.1028 20.9971C39.7881 20.9998 39.9028 21.1331 40.6654 21.6851Z" fill="#191716"/>
<path fill-rule="evenodd" clip-rule="evenodd" d="M40.1855 23.1143C40.1855 23.1143 39.3775 23.4049 38.6629 23.4049C37.9482 23.4049 37.7242 23.3382 37.7242 23.3382C37.7242 23.3382 39.3909 23.8422 40.1855 23.1143Z" fill="#AD7140"/>
<path fill-rule="evenodd" clip-rule="evenodd" d="M41.5027 20.293C41.5027 20.293 41.3214 20.7677 41.1988 20.7037C40.4308 20.2957 38.6815 19.469 37.4682 20.5437C37.1802 20.7997 37.1749 20.8023 37.0789 20.8823C36.9802 20.9623 36.7802 20.9383 36.9269 20.701C37.0735 20.4637 37.8282 19.4984 38.7668 19.2211C39.7055 18.9437 40.8708 19.7117 41.1614 19.8424C41.4521 19.9757 41.6254 20.0397 41.5054 20.293H41.5027Z" fill="#402F26"/>
</svg>
