<svg width="85" height="212" viewBox="0 0 85 212" fill="none" xmlns="http://www.w3.org/2000/svg">
<path fill-rule="evenodd" clip-rule="evenodd" d="M35.9055 18.4053H49.0491V24.9757H35.9055V18.4053Z" fill="#E3A06B"/>
<path fill-rule="evenodd" clip-rule="evenodd" d="M42.4733 20.5967C42.58 20.5967 42.6653 21.5673 42.6653 22.7673C42.6653 23.9646 42.58 24.9379 42.4733 24.9379C42.3666 24.9379 42.2813 23.9672 42.2813 22.7673C42.2813 21.57 42.3666 20.5967 42.4733 20.5967Z" fill="#EDB587"/>
<path fill-rule="evenodd" clip-rule="evenodd" d="M40.188 20.5247C40.188 20.5247 41.0867 21.3727 41.0867 21.914C41.0867 22.4553 40.9533 22.8393 41.0067 23.1966C41.06 23.5539 40.94 23.0126 41.2573 22.6019C41.5747 22.1913 41.4947 21.3193 41.2707 20.882C41.0467 20.4447 39.9214 19.97 40.1854 20.5247H40.188Z" fill="#AD7140"/>
<path fill-rule="evenodd" clip-rule="evenodd" d="M44.0626 20.5041C44.0626 20.5041 43.7586 20.9467 43.7373 21.456C43.7186 21.9654 44.0146 21.8934 43.9613 21.7334C43.908 21.5734 44.06 20.9654 44.4653 20.6561C44.8679 20.3441 44.8893 20.1734 44.8093 20.1414C44.7293 20.1094 44.0893 20.3654 44.0626 20.5041Z" fill="#CF8F5B"/>
<path fill-rule="evenodd" clip-rule="evenodd" d="M44.036 21.5438C44.036 21.5438 44.7773 20.7038 45.7479 20.5838C46.7212 20.4638 47.0572 20.8825 47.3159 21.0531C47.5745 21.2264 47.7185 21.2638 47.8332 21.2718C47.9452 21.2771 47.6945 21.3971 47.3692 21.1918C47.0439 20.9864 46.5719 20.6798 45.8733 20.7091C45.1746 20.7385 44.5266 21.1064 44.0333 21.5411L44.036 21.5438Z" fill="#AD7140"/>
<path fill-rule="evenodd" clip-rule="evenodd" d="M44.3933 22.0401C44.2413 22.0721 44.1026 22.0587 44.0813 21.9601C44.0626 21.8614 44.236 21.7307 44.3213 21.6907C44.8466 21.4481 45.0599 20.9521 46.1452 21.0588C46.7292 21.1174 47.1025 21.4961 47.1025 21.4961C47.1025 21.4961 46.6092 22.1414 45.7426 22.1894C44.8759 22.2401 44.5079 22.0107 44.3906 22.0374L44.3933 22.0401Z" fill="white"/>
<path fill-rule="evenodd" clip-rule="evenodd" d="M44.3933 22.0392C44.2413 22.0712 44.1026 22.0579 44.0813 21.9592C44.0626 21.8606 44.236 21.7299 44.3213 21.6899L44.3453 21.6793C44.4413 21.8153 44.7826 22.1726 45.7372 22.1272C46.6359 22.0846 46.8519 21.5859 46.9612 21.3779C47.0519 21.4446 47.1025 21.4953 47.1025 21.4953C47.1025 21.4953 46.6092 22.1406 45.7426 22.1886C44.8759 22.2392 44.5079 22.0099 44.3906 22.0366L44.3933 22.0392Z" fill="#EDB587"/>
<path fill-rule="evenodd" clip-rule="evenodd" d="M44.3853 21.6611C44.868 21.4105 45.108 20.9571 46.1506 21.0585C46.7346 21.1171 47.1079 21.4958 47.1079 21.4958C47.1079 21.4958 47.0786 21.5358 47.0199 21.5945C46.8012 21.4558 46.6252 21.2958 45.9746 21.2505C45.3266 21.2025 44.5693 21.5678 44.3853 21.6611Z" fill="#ADA89F"/>
<path fill-rule="evenodd" clip-rule="evenodd" d="M45.2386 21.1463C45.4519 21.0663 45.7213 21.0236 46.0972 21.0556C46.2439 21.1703 46.3372 21.3463 46.3372 21.5463C46.3372 21.8902 46.0599 22.1676 45.7159 22.1676C45.3719 22.1676 45.0946 21.8902 45.0946 21.5463C45.0946 21.3943 45.1479 21.2556 45.2386 21.1463Z" fill="#4C7012"/>
<path fill-rule="evenodd" clip-rule="evenodd" d="M45.7159 21.25C45.8786 21.25 46.0093 21.3807 46.0093 21.5433C46.0093 21.706 45.8786 21.8366 45.7159 21.8366C45.5533 21.8366 45.4226 21.706 45.4226 21.5433C45.4226 21.3807 45.5533 21.25 45.7159 21.25Z" fill="#191716"/>
<path fill-rule="evenodd" clip-rule="evenodd" d="M45.8893 21.2559C45.9773 21.2559 46.0466 21.3252 46.0466 21.4132C46.0466 21.5012 45.9773 21.5705 45.8893 21.5705C45.8013 21.5705 45.7319 21.5012 45.7319 21.4132C45.7319 21.3252 45.8013 21.2559 45.8893 21.2559Z" fill="white"/>
<path fill-rule="evenodd" clip-rule="evenodd" d="M44.3347 21.6851C44.3347 21.6851 44.5507 21.5704 44.8413 21.4077C45.132 21.2451 45.5293 21.0931 46.0493 21.1438C46.5693 21.1944 46.9159 21.4157 47.0146 21.4771C47.1132 21.5411 47.2226 21.5411 47.2759 21.5304C47.3292 21.5197 47.3399 21.5171 47.3399 21.5171C47.3399 21.5171 47.1746 21.4531 47.0706 21.3517C46.9692 21.2504 46.5799 20.9944 45.8973 20.9971C45.212 20.9998 45.0973 21.1331 44.3347 21.6851Z" fill="#191716"/>
<path fill-rule="evenodd" clip-rule="evenodd" d="M44.8146 23.1143C44.8146 23.1143 45.6226 23.4049 46.3373 23.4049C47.0519 23.4049 47.2759 23.3382 47.2759 23.3382C47.2759 23.3382 45.6093 23.8422 44.8146 23.1143Z" fill="#CF8F5B"/>
<path fill-rule="evenodd" clip-rule="evenodd" d="M43.4973 20.293C43.4973 20.293 43.6787 20.7677 43.8013 20.7037C44.5693 20.2957 46.3186 19.469 47.5319 20.5437C47.8199 20.7997 47.8252 20.8023 47.9212 20.8823C48.0199 20.9623 48.2198 20.9383 48.0732 20.701C47.9265 20.4637 47.1719 19.4984 46.2332 19.2211C45.2946 18.9437 44.1293 19.7117 43.8386 19.8424C43.548 19.9757 43.3747 20.0397 43.4947 20.293H43.4973Z" fill="#402F26"/>
<path fill-rule="evenodd" clip-rule="evenodd" d="M40.6307 21.5438C40.6307 21.5438 39.8894 20.7038 38.9188 20.5838C37.9455 20.4638 37.6095 20.8825 37.3508 21.0531C37.0922 21.2264 36.9482 21.2638 36.8335 21.2718C36.7215 21.2771 36.9722 21.3971 37.2975 21.1918C37.6228 20.9864 38.0948 20.6798 38.7934 20.7091C39.4921 20.7385 40.1401 21.1064 40.6334 21.5411L40.6307 21.5438Z" fill="#AD7140"/>
<path fill-rule="evenodd" clip-rule="evenodd" d="M40.2734 22.0401C40.4254 22.0721 40.5641 22.0587 40.5854 21.9601C40.6041 21.8614 40.4307 21.7307 40.3454 21.6907C39.8201 21.4481 39.6068 20.9521 38.5215 21.0588C37.9375 21.1174 37.5641 21.4961 37.5641 21.4961C37.5641 21.4961 38.0575 22.1414 38.9241 22.1894C39.7907 22.2401 40.1587 22.0107 40.2761 22.0374L40.2734 22.0401Z" fill="white"/>
<path fill-rule="evenodd" clip-rule="evenodd" d="M40.2734 22.0392C40.4254 22.0712 40.5641 22.0579 40.5854 21.9592C40.6041 21.8606 40.4307 21.7299 40.3454 21.6899L40.3214 21.6793C40.2254 21.8153 39.8841 22.1726 38.9294 22.1272C38.0308 22.0846 37.8148 21.5859 37.7055 21.3779C37.6148 21.4446 37.5641 21.4953 37.5641 21.4953C37.5641 21.4953 38.0575 22.1406 38.9241 22.1886C39.7907 22.2392 40.1587 22.0099 40.2761 22.0366L40.2734 22.0392Z" fill="#EDB587"/>
<path fill-rule="evenodd" clip-rule="evenodd" d="M40.2814 21.6611C39.7988 21.4105 39.5588 20.9571 38.5161 21.0585C37.9322 21.1171 37.5588 21.4958 37.5588 21.4958C37.5588 21.4958 37.5882 21.5358 37.6468 21.5945C37.8655 21.4558 38.0415 21.2958 38.6921 21.2505C39.3401 21.2025 40.0974 21.5678 40.2814 21.6611Z" fill="#ADA89F"/>
<path fill-rule="evenodd" clip-rule="evenodd" d="M39.4281 21.1463C39.2148 21.0663 38.9454 21.0236 38.5695 21.0556C38.4228 21.1703 38.3295 21.3463 38.3295 21.5463C38.3295 21.8902 38.6068 22.1676 38.9508 22.1676C39.2948 22.1676 39.5721 21.8902 39.5721 21.5463C39.5721 21.3943 39.5188 21.2556 39.4281 21.1463Z" fill="#4C7012"/>
<path fill-rule="evenodd" clip-rule="evenodd" d="M38.9508 21.25C38.7881 21.25 38.6575 21.3807 38.6575 21.5433C38.6575 21.706 38.7881 21.8366 38.9508 21.8366C39.1135 21.8366 39.2441 21.706 39.2441 21.5433C39.2441 21.3807 39.1135 21.25 38.9508 21.25Z" fill="#191716"/>
<path fill-rule="evenodd" clip-rule="evenodd" d="M38.7774 21.2559C38.6894 21.2559 38.6201 21.3252 38.6201 21.4132C38.6201 21.5012 38.6894 21.5705 38.7774 21.5705C38.8654 21.5705 38.9348 21.5012 38.9348 21.4132C38.9348 21.3252 38.8654 21.2559 38.7774 21.2559Z" fill="white"/>
<path fill-rule="evenodd" clip-rule="evenodd" d="M40.3321 21.6851C40.3321 21.6851 40.1161 21.5704 39.8254 21.4077C39.5348 21.2451 39.1375 21.0931 38.6175 21.1438C38.0975 21.1944 37.7508 21.4157 37.6522 21.4771C37.5535 21.5411 37.4442 21.5411 37.3908 21.5304C37.3375 21.5197 37.3268 21.5171 37.3268 21.5171C37.3268 21.5171 37.4922 21.4531 37.5962 21.3517C37.6975 21.2504 38.0868 20.9944 38.7695 20.9971C39.4548 20.9998 39.5694 21.1331 40.3321 21.6851Z" fill="#191716"/>
<path fill-rule="evenodd" clip-rule="evenodd" d="M39.8521 23.1143C39.8521 23.1143 39.0441 23.4049 38.3294 23.4049C37.6148 23.4049 37.3908 23.3382 37.3908 23.3382C37.3908 23.3382 39.0574 23.8422 39.8521 23.1143Z" fill="#AD7140"/>
<path fill-rule="evenodd" clip-rule="evenodd" d="M41.1694 20.293C41.1694 20.293 40.988 20.7677 40.8654 20.7037C40.0974 20.2957 38.3481 19.469 37.1348 20.5437C36.8468 20.7997 36.8415 20.8023 36.7455 20.8823C36.6468 20.9623 36.4468 20.9383 36.5935 20.701C36.7402 20.4637 37.4948 19.4984 38.4335 19.2211C39.3721 18.9437 40.5374 19.7117 40.828 19.8424C41.1187 19.9757 41.292 20.0397 41.172 20.293H41.1694Z" fill="#402F26"/>
</svg>
