<svg width="86" height="212" viewBox="0 0 86 212" fill="none" xmlns="http://www.w3.org/2000/svg">
<path fill-rule="evenodd" clip-rule="evenodd" d="M36.5723 18.4053H49.7159V24.9757H36.5723V18.4053Z" fill="#E3A06B"/>
<path fill-rule="evenodd" clip-rule="evenodd" d="M43.1401 20.5967C43.2467 20.5967 43.332 21.5673 43.332 22.7673C43.332 23.9646 43.2467 24.9379 43.1401 24.9379C43.0334 24.9379 42.9481 23.9672 42.9481 22.7673C42.9481 21.57 43.0334 20.5967 43.1401 20.5967Z" fill="#EDB587"/>
<path fill-rule="evenodd" clip-rule="evenodd" d="M40.8548 20.5247C40.8548 20.5247 41.7534 21.3727 41.7534 21.914C41.7534 22.4553 41.6201 22.8393 41.6734 23.1966C41.7268 23.5539 41.6068 23.0126 41.9241 22.6019C42.2414 22.1913 42.1614 21.3193 41.9374 20.882C41.7134 20.4447 40.5881 19.97 40.8521 20.5247H40.8548Z" fill="#AD7140"/>
<path fill-rule="evenodd" clip-rule="evenodd" d="M44.7294 20.5041C44.7294 20.5041 44.4254 20.9467 44.404 21.456C44.3854 21.9654 44.6814 21.8934 44.628 21.7334C44.5747 21.5734 44.7267 20.9654 45.132 20.6561C45.5347 20.3441 45.556 20.1734 45.476 20.1414C45.396 20.1094 44.756 20.3654 44.7294 20.5041Z" fill="#CF8F5B"/>
<path fill-rule="evenodd" clip-rule="evenodd" d="M44.7027 21.5438C44.7027 21.5438 45.444 20.7038 46.4147 20.5838C47.388 20.4638 47.724 20.8825 47.9826 21.0531C48.2413 21.2264 48.3853 21.2638 48.5 21.2718C48.612 21.2771 48.3613 21.3971 48.036 21.1918C47.7106 20.9864 47.2387 20.6798 46.54 20.7091C45.8414 20.7385 45.1934 21.1064 44.7001 21.5411L44.7027 21.5438Z" fill="#AD7140"/>
<path fill-rule="evenodd" clip-rule="evenodd" d="M45.06 22.0401C44.908 22.0721 44.7694 22.0587 44.748 21.9601C44.7294 21.8614 44.9027 21.7307 44.988 21.6907C45.5134 21.4481 45.7267 20.9521 46.812 21.0588C47.396 21.1174 47.7693 21.4961 47.7693 21.4961C47.7693 21.4961 47.276 22.1414 46.4093 22.1894C45.5427 22.2401 45.1747 22.0107 45.0574 22.0374L45.06 22.0401Z" fill="white"/>
<path fill-rule="evenodd" clip-rule="evenodd" d="M45.06 22.0392C44.908 22.0712 44.7694 22.0579 44.748 21.9592C44.7294 21.8606 44.9027 21.7299 44.988 21.6899L45.012 21.6793C45.108 21.8153 45.4494 22.1726 46.404 22.1272C47.3026 22.0846 47.5186 21.5859 47.6279 21.3779C47.7186 21.4446 47.7693 21.4953 47.7693 21.4953C47.7693 21.4953 47.276 22.1406 46.4093 22.1886C45.5427 22.2392 45.1747 22.0099 45.0574 22.0366L45.06 22.0392Z" fill="#EDB587"/>
<path fill-rule="evenodd" clip-rule="evenodd" d="M45.0521 21.6611C45.5347 21.4105 45.7747 20.9571 46.8173 21.0585C47.4013 21.1171 47.7746 21.4958 47.7746 21.4958C47.7746 21.4958 47.7453 21.5358 47.6866 21.5945C47.468 21.4558 47.292 21.2958 46.6413 21.2505C45.9934 21.2025 45.2361 21.5678 45.0521 21.6611Z" fill="#ADA89F"/>
<path fill-rule="evenodd" clip-rule="evenodd" d="M45.9053 21.1463C46.1187 21.0663 46.388 21.0236 46.764 21.0556C46.9106 21.1703 47.004 21.3463 47.004 21.5463C47.004 21.8902 46.7267 22.1676 46.3827 22.1676C46.0387 22.1676 45.7614 21.8902 45.7614 21.5463C45.7614 21.3943 45.8147 21.2556 45.9053 21.1463Z" fill="#42717D"/>
<path fill-rule="evenodd" clip-rule="evenodd" d="M46.3827 21.25C46.5453 21.25 46.676 21.3807 46.676 21.5433C46.676 21.706 46.5453 21.8366 46.3827 21.8366C46.22 21.8366 46.0894 21.706 46.0894 21.5433C46.0894 21.3807 46.22 21.25 46.3827 21.25Z" fill="#191716"/>
<path fill-rule="evenodd" clip-rule="evenodd" d="M46.556 21.2559C46.644 21.2559 46.7133 21.3252 46.7133 21.4132C46.7133 21.5012 46.644 21.5705 46.556 21.5705C46.468 21.5705 46.3987 21.5012 46.3987 21.4132C46.3987 21.3252 46.468 21.2559 46.556 21.2559Z" fill="white"/>
<path fill-rule="evenodd" clip-rule="evenodd" d="M45.0014 21.6851C45.0014 21.6851 45.2174 21.5704 45.5081 21.4077C45.7987 21.2451 46.196 21.0931 46.716 21.1438C47.236 21.1944 47.5827 21.4157 47.6813 21.4771C47.78 21.5411 47.8893 21.5411 47.9426 21.5304C47.996 21.5197 48.0066 21.5171 48.0066 21.5171C48.0066 21.5171 47.8413 21.4531 47.7373 21.3517C47.636 21.2504 47.2467 20.9944 46.564 20.9971C45.8787 20.9998 45.764 21.1331 45.0014 21.6851Z" fill="#191716"/>
<path fill-rule="evenodd" clip-rule="evenodd" d="M45.4814 23.1143C45.4814 23.1143 46.2894 23.4049 47.004 23.4049C47.7186 23.4049 47.9426 23.3382 47.9426 23.3382C47.9426 23.3382 46.276 23.8422 45.4814 23.1143Z" fill="#CF8F5B"/>
<path fill-rule="evenodd" clip-rule="evenodd" d="M44.1641 20.293C44.1641 20.293 44.3454 20.7677 44.4681 20.7037C45.236 20.2957 46.9853 19.469 48.1986 20.5437C48.4866 20.7997 48.4919 20.8023 48.5879 20.8823C48.6866 20.9623 48.8866 20.9383 48.7399 20.701C48.5933 20.4637 47.8386 19.4984 46.9 19.2211C45.9614 18.9437 44.7961 19.7117 44.5054 19.8424C44.2147 19.9757 44.0414 20.0397 44.1614 20.293H44.1641Z" fill="#402F26"/>
<path fill-rule="evenodd" clip-rule="evenodd" d="M41.2975 21.5438C41.2975 21.5438 40.5562 20.7038 39.5855 20.5838C38.6122 20.4638 38.2762 20.8825 38.0176 21.0531C37.7589 21.2264 37.6149 21.2638 37.5003 21.2718C37.3883 21.2771 37.6389 21.3971 37.9642 21.1918C38.2896 20.9864 38.7615 20.6798 39.4602 20.7091C40.1588 20.7385 40.8068 21.1064 41.3001 21.5411L41.2975 21.5438Z" fill="#AD7140"/>
<path fill-rule="evenodd" clip-rule="evenodd" d="M40.9401 22.0401C41.0921 22.0721 41.2308 22.0587 41.2521 21.9601C41.2708 21.8614 41.0975 21.7307 41.0121 21.6907C40.4868 21.4481 40.2735 20.9521 39.1882 21.0588C38.6042 21.1174 38.2309 21.4961 38.2309 21.4961C38.2309 21.4961 38.7242 22.1414 39.5909 22.1894C40.4575 22.2401 40.8255 22.0107 40.9428 22.0374L40.9401 22.0401Z" fill="white"/>
<path fill-rule="evenodd" clip-rule="evenodd" d="M40.9401 22.0392C41.0921 22.0712 41.2308 22.0579 41.2521 21.9592C41.2708 21.8606 41.0975 21.7299 41.0121 21.6899L40.9881 21.6793C40.8921 21.8153 40.5508 22.1726 39.5962 22.1272C38.6976 22.0846 38.4816 21.5859 38.3722 21.3779C38.2816 21.4446 38.2309 21.4953 38.2309 21.4953C38.2309 21.4953 38.7242 22.1406 39.5909 22.1886C40.4575 22.2392 40.8255 22.0099 40.9428 22.0366L40.9401 22.0392Z" fill="#EDB587"/>
<path fill-rule="evenodd" clip-rule="evenodd" d="M40.9482 21.6611C40.4655 21.4105 40.2255 20.9571 39.1829 21.0585C38.5989 21.1171 38.2256 21.4958 38.2256 21.4958C38.2256 21.4958 38.2549 21.5358 38.3136 21.5945C38.5322 21.4558 38.7082 21.2958 39.3589 21.2505C40.0069 21.2025 40.7642 21.5678 40.9482 21.6611Z" fill="#ADA89F"/>
<path fill-rule="evenodd" clip-rule="evenodd" d="M40.0948 21.1463C39.8815 21.0663 39.6122 21.0236 39.2362 21.0556C39.0895 21.1703 38.9962 21.3463 38.9962 21.5463C38.9962 21.8902 39.2735 22.1676 39.6175 22.1676C39.9615 22.1676 40.2388 21.8902 40.2388 21.5463C40.2388 21.3943 40.1855 21.2556 40.0948 21.1463Z" fill="#42717D"/>
<path fill-rule="evenodd" clip-rule="evenodd" d="M39.6175 21.25C39.4549 21.25 39.3242 21.3807 39.3242 21.5433C39.3242 21.706 39.4549 21.8366 39.6175 21.8366C39.7802 21.8366 39.9109 21.706 39.9109 21.5433C39.9109 21.3807 39.7802 21.25 39.6175 21.25Z" fill="#191716"/>
<path fill-rule="evenodd" clip-rule="evenodd" d="M39.4442 21.2559C39.3562 21.2559 39.2869 21.3252 39.2869 21.4132C39.2869 21.5012 39.3562 21.5705 39.4442 21.5705C39.5322 21.5705 39.6015 21.5012 39.6015 21.4132C39.6015 21.3252 39.5322 21.2559 39.4442 21.2559Z" fill="white"/>
<path fill-rule="evenodd" clip-rule="evenodd" d="M40.9988 21.6851C40.9988 21.6851 40.7828 21.5704 40.4922 21.4077C40.2015 21.2451 39.8042 21.0931 39.2842 21.1438C38.7642 21.1944 38.4176 21.4157 38.3189 21.4771C38.2203 21.5411 38.1109 21.5411 38.0576 21.5304C38.0043 21.5197 37.9936 21.5171 37.9936 21.5171C37.9936 21.5171 38.1589 21.4531 38.2629 21.3517C38.3642 21.2504 38.7536 20.9944 39.4362 20.9971C40.1215 20.9998 40.2362 21.1331 40.9988 21.6851Z" fill="#191716"/>
<path fill-rule="evenodd" clip-rule="evenodd" d="M40.5188 23.1143C40.5188 23.1143 39.7108 23.4049 38.9962 23.4049C38.2816 23.4049 38.0576 23.3382 38.0576 23.3382C38.0576 23.3382 39.7242 23.8422 40.5188 23.1143Z" fill="#AD7140"/>
<path fill-rule="evenodd" clip-rule="evenodd" d="M41.8361 20.293C41.8361 20.293 41.6548 20.7677 41.5321 20.7037C40.7641 20.2957 39.0149 19.469 37.8016 20.5437C37.5136 20.7997 37.5082 20.8023 37.4123 20.8823C37.3136 20.9623 37.1136 20.9383 37.2603 20.701C37.4069 20.4637 38.1616 19.4984 39.1002 19.2211C40.0388 18.9437 41.2041 19.7117 41.4948 19.8424C41.7854 19.9757 41.9588 20.0397 41.8388 20.293H41.8361Z" fill="#402F26"/>
</svg>
