<svg width="85" height="212" viewBox="0 0 85 212" fill="none" xmlns="http://www.w3.org/2000/svg">
<g clip-path="url(#clip0)">
<path fill-rule="evenodd" clip-rule="evenodd" d="M36.8586 192.089C36.8586 192.089 37.1482 192.941 37.3032 194.295C37.4583 195.65 37.4463 196.268 37.4463 196.268C37.4463 196.268 36.7683 197.273 35.31 197.839C33.8533 198.406 33.0577 198.41 33.0577 198.41L31.6079 198.152C31.6079 198.152 31.0338 198.686 29.9298 200.309C28.8258 201.934 27.2653 203.001 25.0062 203.308C22.7472 203.613 18.6226 203.515 17.6379 203.079C16.6532 202.643 15.769 201.527 15.7588 201.175C15.7486 200.822 15.401 199.968 16.6651 198.815C17.9292 197.66 24.1697 194.391 25.4901 192.089C26.8104 189.786 35.9948 189.682 36.8569 192.092L36.8586 192.089Z" fill="#424852"/>
<path fill-rule="evenodd" clip-rule="evenodd" d="M36.4173 195.301C36.4173 195.301 34.5399 196.105 33.2076 196.876C31.8737 197.648 31.3677 197.989 30.4801 198.907C29.5925 199.824 28.5549 201.684 26.4969 202.357C24.4389 203.03 19.1133 203.189 18.1013 202.752C17.0876 202.316 16.2937 201.274 16.2937 201.274C16.2937 201.274 17.6566 202.621 19.3364 202.657C21.0162 202.693 24.9994 202.424 26.2243 202.035C27.451 201.647 28.7236 200.815 30.1887 198.452C31.6539 196.089 35.5229 195.423 36.419 195.301H36.4173ZM23.0197 200.667C23.0197 200.667 21.2122 200.78 19.149 200.171C17.0859 199.563 17.4147 198.664 17.4147 198.664C17.4147 198.664 16.1761 200.187 18.4488 200.897C20.7215 201.608 23.0214 200.669 23.0214 200.669L23.0197 200.667ZM26.9058 193.699C26.9058 193.699 26.4748 194.113 26.7525 194.524C27.0285 194.934 27.7491 197.522 27.7491 197.522C27.7491 197.522 26.7508 195.51 26.3794 194.864C26.008 194.219 25.9551 193.88 26.0216 193.658C26.0897 193.437 26.1306 193.319 26.1306 193.319C26.1306 193.319 26.5872 193.254 26.9075 193.697L26.9058 193.699Z" fill="#58606D"/>
<path fill-rule="evenodd" clip-rule="evenodd" d="M60.8001 191.034C60.8001 191.034 63.0438 195.542 63.2993 196.328C63.5532 197.113 63.6298 199.818 63.6298 199.818C63.6298 199.818 63.8343 203.52 59.8358 203.761C55.8373 204.001 54.1609 201.68 54.0417 199.742C53.9241 197.803 53.7026 195.161 53.0944 193.89C52.4862 192.617 52.4862 192.617 52.4862 192.617C52.4862 192.617 52.0467 190.249 52.5237 189.348C53.0007 188.446 59.8392 190.247 60.8018 191.034H60.8001Z" fill="#424852"/>
<path fill-rule="evenodd" clip-rule="evenodd" d="M62.6776 199.71C62.6776 199.71 62.4203 202.105 59.5957 202.33C56.7727 202.555 55.4472 200.486 55.2769 199.667C55.1065 198.849 55.7011 201.153 58.3571 201.287C61.0131 201.422 62.1954 200.434 62.6759 199.71H62.6776ZM58.4423 192.583C58.4423 192.583 59.0897 194.162 59.7217 194.624C60.3538 195.086 61.7627 195.415 61.7627 195.415C61.7627 195.415 59.8563 194.677 59.5701 193.922C59.2839 193.167 59.076 192.587 59.076 192.587C59.076 192.587 58.8563 192.079 58.4423 192.581V192.583ZM56.1475 192.745C56.1475 192.745 56.5597 193.818 56.403 194.501C56.2446 195.185 55.4745 196.098 55.4745 196.098C55.4745 196.098 56.754 194.96 56.88 194.19C57.0061 193.42 56.7386 192.811 56.7386 192.811C56.7386 192.811 56.4831 192.6 56.1475 192.745Z" fill="#58606D"/>
<path fill-rule="evenodd" clip-rule="evenodd" d="M59.3451 86.3001C59.3451 86.3001 64.3198 95.0023 63.6843 104.422C63.0489 113.841 61.0965 137.628 61.0965 137.628L60.4372 182.896L60.7864 191.009C60.7864 191.009 56.9395 192.048 54.9548 192.123C52.97 192.198 52.1352 191.949 52.1352 191.949C52.1352 191.949 50.9324 188.792 51.0347 187.613C51.1369 186.434 51.2953 181.243 51.0858 180.218C50.8762 179.192 46.9459 145.354 47.0788 141.449C47.2117 137.544 46.9203 136.006 46.8386 135.399C46.7568 134.791 44.3563 115.373 44.3563 115.373C44.3563 115.373 39.69 146.388 40.3783 147.865C41.0666 149.342 39.736 171.807 38.0579 179.95C36.3798 188.094 36.7393 188.123 36.7393 188.123L37.0579 192.849C37.0579 192.849 34.3456 194.005 30.8242 193.576C27.3027 193.147 25.749 191.591 25.749 191.591C25.749 191.591 27.1835 189.513 27.2073 187.446C27.2312 185.378 26.4015 144.359 26.2481 142.298C26.0948 140.236 24.231 110.15 23.9482 104.054C23.6654 97.9582 27.514 85.9116 27.514 85.9116C27.514 85.9116 51.849 86.3512 59.3434 86.3001H59.3451Z" fill="#23314B"/>
<path fill-rule="evenodd" clip-rule="evenodd" d="M41.0838 95.2411C41.0838 95.2411 40.9509 106.463 41.0395 107.698C41.1281 108.933 43.7739 110.785 43.7739 110.785C43.7739 110.785 41.8334 108.095 41.922 107.434C42.0106 106.773 42.186 95.1525 42.186 95.1525C42.186 95.1525 41.6562 95.0639 41.0838 95.2411Z" fill="#192233"/>
<path d="M16.4523 103.754C16.4523 103.754 18.2122 105.255 18.1815 107.916C18.173 108.594 17.6704 109.889 17.4711 110.537C17.3586 110.903 17.0929 111.632 17.069 112.014C17.0349 112.596 17.328 113.755 17.2956 114.338C17.2547 115.067 16.7453 116.917 16.0178 116.966C15.2972 117.016 14.7793 115.101 14.7265 114.378C14.6805 113.726 15.4505 112.17 14.9326 111.77C14.7554 111.634 14.3585 111.898 14.1728 112.021C14.0178 112.123 13.6668 112.351 13.5986 112.521C13.5049 112.757 13.3993 113.208 13.321 113.404C13.2886 113.487 13.016 113.963 13.0858 114.256C13.2324 114.852 13.4845 116.856 13.4845 116.856C13.4845 116.856 14.4249 117.336 14.8372 117.781C15.0314 117.988 15.9889 118.312 16.2223 118.46C16.5732 118.682 17.0997 119.466 16.8424 119.791C16.4795 120.246 14.7537 119.844 14.1455 119.476C13.2937 118.96 11.7843 118.363 11.4384 117.636C11.1079 116.941 10.866 114.69 10.6394 114.044C10.452 113.511 10.3753 113.327 10.2135 112.741C10.0397 112.116 10.6462 109.816 11.1505 107.935C11.5645 106.404 12.6259 103.857 12.6259 103.857L16.4523 103.754Z" fill="#A57257"/>
<path d="M17.1047 115.342C17.1916 115.498 17.316 115.721 17.3722 115.819C17.5272 116.09 18.0264 116.586 17.9974 116.894C17.9855 117.031 17.6397 117.31 17.6397 117.31C17.6397 117.31 18.5801 118.228 18.575 118.634C18.5733 118.767 18.2598 119.053 18.2598 119.053C18.2598 119.053 18.2615 119.731 18.0963 119.852C17.8799 120.01 17.2683 119.905 16.8338 119.801L16.8424 119.791C17.1013 119.465 16.5732 118.682 16.2222 118.46C15.9871 118.312 15.0297 117.988 14.8372 117.78C14.5066 117.424 13.7281 117.038 13.4759 116.9L13.4776 116.803C13.4368 116.482 13.217 114.796 13.0858 114.256C13.0142 113.963 13.2868 113.487 13.3209 113.404C13.3976 113.208 13.5049 112.756 13.5986 112.521C13.6684 112.351 14.0177 112.123 14.1727 112.02C14.3584 111.898 14.7554 111.634 14.9326 111.77C15.4505 112.169 14.6804 113.726 14.7264 114.378C14.7792 115.099 15.2971 117.014 16.0178 116.966C16.4999 116.934 16.8867 116.107 17.1047 115.342ZM12.619 103.855C12.619 103.855 12.3873 104.437 12.2987 104.649C12.2033 104.884 12.0261 105.347 12.0261 105.347C12.0261 105.347 14.0058 105.23 14.6923 105.23C16.2597 105.231 17.8254 105.858 17.8254 105.858C17.8254 105.858 17.6295 105.337 17.3807 104.902C17.1627 104.524 16.6976 103.85 16.6976 103.85L14.5305 103.609L12.6173 103.855H12.619Z" fill="#875B43"/>
<path d="M12.2527 102.132L12.1675 104.306C12.1675 104.306 14.2681 104.253 15.0007 104.318C17.4659 104.538 18.1984 104.92 18.1984 104.92L18.6533 102.137L12.2544 102.134L12.2527 102.132Z" fill="#C4C2CC"/>
<path d="M36.1328 28.3129C42.0241 28.3129 42.7311 27.7388 48.7467 27.7388C48.6036 28.9398 48.7314 35.0645 49.9819 36.5279L49.0653 43.8383L46.8642 59.069L35.3832 48.7892L34.5723 39.3952C37 37.3542 36.4514 30.3709 36.1294 28.3112L36.1328 28.3129Z" fill="#A57257"/>
<path d="M36.1328 28.3129C42.0241 28.3129 42.7311 27.7388 48.7467 27.7388C48.6956 28.1647 48.6803 29.209 48.7348 30.4459C48.0465 31.5056 46.7551 32.9162 44.3462 34.6556C41.4193 36.7682 38.4924 35.9163 36.3492 34.3677C36.5417 31.9485 36.3032 29.4203 36.1311 28.3129H36.1328ZM49.3191 35.0168C49.4929 35.6744 49.711 36.2111 49.9819 36.5296L49.0653 43.84L47.6444 53.6787C46.9732 55.2648 46.2083 56.6822 45.3871 57.747L35.7069 49.0788C35.5655 48.6546 35.4309 48.2304 35.2997 47.8027L34.574 39.3969C35.5417 38.5843 36.0357 36.9879 36.2606 35.2298C36.2606 35.2298 37.0698 39.5945 38.0614 42.1517C39.0529 44.7089 39.627 46.5608 39.472 47.3768C39.317 48.1929 39.5384 48.6563 39.9354 49.3395C40.3323 50.0226 41.898 52.2936 41.9866 51.8745C42.0752 51.4554 42.3171 49.1844 43.4194 47.6409C44.5216 46.0974 45.8011 45.0394 45.3377 44.1348C44.8743 43.2301 44.9629 42.6134 45.8897 41.1585C46.687 39.9063 48.7552 36.8755 49.3191 35.0151V35.0168ZM42.1416 37.1702C42.1416 37.1702 42.0087 38.206 42.3188 38.8688C42.6272 39.5298 43.1127 39.1993 43.1127 39.1993C43.1127 39.1993 42.2745 38.7631 42.1433 37.1702H42.1416Z" fill="#875B43"/>
<path d="M32.3047 90.2018C42.7754 93.2377 50.4912 92.9873 58.2923 88.3737C56.7011 84.5473 55.3467 81.2848 53.7554 77.4584C48.7228 63.318 50.7962 44.2865 51.418 37.6456C50.3873 36.4326 50.1386 35.4428 50.1386 35.4428C50.1386 35.4428 49.6803 35.0595 49.435 35.4189C48.9801 38.1925 45.4092 41.6986 45.3513 42.5079C45.0923 43.5778 46.1486 43.5369 46.0345 44.1536C45.813 45.3513 44.2218 47.2577 43.6834 48.3395C43.0258 49.6615 42.4874 54.4761 42.4874 54.4761C42.4874 54.4761 40.5316 51.6224 40.0751 50.9665C38.1005 47.9902 39.0035 48.3923 38.9762 46.7789C38.9677 46.2593 38.9609 45.9271 38.5316 44.4091C38.1261 42.9781 36.7172 39.7053 36.2333 35.4206C36.2112 35.2315 35.7546 35.5092 35.6439 35.7409C34.7631 37.724 34.5723 39.3936 33.6216 42.2642C31.3762 53.3397 41.0155 77.1518 32.303 90.1984L32.3047 90.2018Z" fill="#F2F1F6"/>
<path d="M50.5067 36.3421C50.5067 36.3421 49.4726 40.649 48.5679 45.3835C48.4725 44.7139 48.1625 43.5912 48.1352 43.2351C48.0143 41.6354 47.2578 41.3373 46.7399 41.3253C46.0942 41.3117 45.4332 42.0238 45.3174 42.6593C45.2714 42.9148 45.3463 43.1687 45.4877 43.3851C45.36 43.0767 45.3651 42.724 45.8813 42.0392C46.3975 41.356 47.619 42.1431 47.774 42.8211C47.9751 43.6934 48.4095 45.0189 48.5509 45.4771C48.1131 47.7805 47.7059 50.1775 47.4657 52.2253C46.7961 57.9343 47.3549 69.6895 48.8388 75.1566C50.091 79.7616 54.5648 84.956 54.9941 89.0942C49.8542 92.2477 41.8538 92.7741 36.1977 89.9426C36.5026 86.4842 38.0427 76.8926 38.0427 72.7323C38.0427 67.2635 36.0137 53.3293 35.3867 48.7891C35.3135 48.2626 35.259 47.6902 35.2181 47.0905C35.5094 46.8827 35.8331 46.5641 36.0801 46.0854C36.6747 44.9388 37.9099 45.6663 38.2625 46.3494C38.6152 47.0326 38.7259 47.5846 38.7259 47.5846C38.7259 47.5846 39.2336 45.9099 38.0649 44.7412C36.8962 43.5725 36.213 44.8962 35.5963 46.1075C35.4566 46.3818 35.322 46.6016 35.1976 46.7753C34.9234 42.2317 35.4038 36.2944 35.4038 36.2944C27.9775 49.123 39.2336 78.678 31.5688 90.1028C43.813 93.9241 50.0995 92.5577 58.4526 88.8046C46.1164 59.626 53.7914 54.7433 51.4216 37.6471C51.1166 37.2127 50.8134 36.7766 50.5084 36.3421H50.5067Z" fill="#C4C2CC"/>
<path d="M64.8242 97.6483C64.8242 97.6483 64.3847 98.4456 64.3046 98.6569C64.0627 99.2856 63.3352 101.645 63.3352 101.645L59.2073 94.0093L60.422 93.0859L64.8242 97.6483Z" fill="#875B43"/>
<path d="M59.5122 93.7793L59.0334 95.1167C59.0334 95.1167 61.2175 96.2905 61.9484 96.6755C62.9297 97.1798 64.7526 97.9635 64.7526 97.9635C64.7526 97.9635 65.0729 97.1611 65.1445 96.8748C65.1939 96.6789 65.4971 95.6806 65.4971 95.6806L59.5139 93.7793H59.5122Z" fill="#C4C2CC"/>
<path d="M22.3726 108.192C22.3726 108.192 26.325 111.951 27.8549 110.908C31.1839 108.642 34.2436 97.2447 35.0427 88.7656C33.3646 94.1952 30.1293 105.436 28.2246 107.765C26.3199 110.094 22.3726 108.192 22.3726 108.192Z" fill="#192233"/>
<path d="M35.3952 36.3267C35.3952 36.3267 32.0135 39.2297 28.8821 40.1207C19.466 42.792 18.0094 44.9284 17.5528 54.2985C17.4285 56.854 17.3177 59.0364 17.1491 61.074C17.0332 61.8032 16.9191 62.4744 16.8441 63.0605C16.7163 64.0724 16.4403 66.0845 16.2427 67.0777C15.902 68.7865 15.5936 70.3572 15.3125 71.8428C13.7656 77.809 13.2954 80.9591 13.016 85.547C12.7332 90.1946 12.1147 102.495 12.1147 102.495C13.7571 102.463 17.1985 102.648 18.6057 102.95C18.6057 102.95 20.9329 91.1333 21.6672 87.6C22.2788 84.6577 24.0881 76.9044 24.0881 76.9044L26.4118 68.9892C26.4118 68.9892 26.3607 72.7509 26.4118 73.3352C26.5328 74.7356 26.3403 77.562 26.0473 78.9386C25.8173 80.0204 25.3181 82.9353 24.9859 83.9916C24.2703 86.2575 23.4969 90.75 23.1033 93.0925C22.4815 96.7963 21.6689 107.488 21.6689 107.488C21.6689 107.488 25.6213 111.247 27.1512 110.204C30.5074 107.919 32.6983 99.1865 35.2692 87.7669C36.4106 82.7019 36.8263 72.2176 36.5282 67.4457C36.259 63.1116 34.6848 54.2798 34.3202 50.2643C34.0255 47.0086 35.3952 36.3267 35.3952 36.3267Z" fill="#23314B"/>
<path d="M50.5067 36.3423C50.5067 36.3423 48.2459 47.0804 48.1335 50.8626C48.0637 53.2153 47.9529 57.9293 48.0619 60.2804C48.2204 63.6758 48.3635 71.1651 49.2681 74.4412C49.9513 76.9098 52.011 80.5914 53.8544 82.4365C57.4525 86.0346 58.3214 94.299 58.3214 94.299C61.2704 95.6432 63.5789 96.6705 65.2723 97.3826C65.2723 97.3826 67.0356 92.6005 69.5314 87.5951C71.736 83.1758 74.3153 75.0835 74.4772 72.8636C74.5266 72.2043 72.5861 66.2279 70.6286 60.4218C68.4854 54.0637 67.6728 47.1707 66.102 44.973C64.751 43.082 54.1338 38.7956 50.5067 36.3423ZM59.2056 75.7155C58.6655 71.654 60.5855 62.1919 60.5855 62.1919C60.5855 62.1919 61.9962 66.3318 63.1632 69.4563C64.4665 72.9454 64.8702 74.4957 64.8242 74.9114C64.6999 76.0256 63.6964 79.2114 62.6027 82.4637C61.4374 81.3035 59.4253 77.3562 59.2073 75.7138L59.2056 75.7155Z" fill="#23314B"/>
<path d="M30.7049 39.9285C30.2977 40.8024 26.1647 47.8709 26.1221 48.5558C26.3657 49.549 29.0643 55.1796 30.2177 57.6533C29.2159 54.3295 27.7763 49.9835 27.9245 48.6376C28.0676 47.3683 29.9451 42.2028 30.7066 39.9268L30.7049 39.9285Z" fill="#35496E"/>
<path d="M64.8225 74.9131C63.5907 81.1945 60.5139 86.9358 59.1118 94.5443C61.0847 89.6412 65.17 79.6152 64.8225 74.9131Z" fill="#182234"/>
<path fill-rule="evenodd" clip-rule="evenodd" d="M57.272 48.1929L53.2411 49.1606L57.2737 49.1367C56.6058 51.5269 52.7113 65.6911 50.7129 73.5246C52.9719 66.7031 58.2431 48.6341 58.2431 48.6341C58.2431 48.6341 57.2055 42.9916 53.3161 38.4326C55.5615 41.5009 56.6178 44.513 57.272 48.1929Z" fill="#182234"/>
<path fill-rule="evenodd" clip-rule="evenodd" d="M26.0678 48.1928L30.0986 49.1605L26.0661 49.1367C26.7339 51.5269 33.4105 64.0914 35.4089 71.9248C33.1499 65.1034 25.0984 48.6341 25.0984 48.6341C25.0984 48.6341 26.3421 44.9371 30.6029 39.9829C28.3575 43.0512 26.7884 45.6646 26.0695 48.1928H26.0678Z" fill="#182234"/>
<path d="M30.0355 40.0798C20.1185 43.678 18.9583 44.1686 18.4625 54.3173C18.3382 56.8711 18.2274 59.0501 18.0588 61.0859C17.9429 61.8151 17.8288 62.4863 17.7538 63.0707C17.6261 64.0827 17.3501 66.0913 17.1524 67.0845C16.8117 68.7933 16.5033 70.3606 16.2222 71.8462C16.0314 72.5805 15.8577 73.2722 15.6975 73.9298C16.7078 75.5364 19.7999 55.7416 20.2139 50.9628C20.6909 45.4651 24.5531 42.5569 28.0984 41.0765C28.8753 40.7511 29.5142 40.412 30.0355 40.0781V40.0798Z" fill="#35496E"/>
<path fill-rule="evenodd" clip-rule="evenodd" d="M34.085 92.9036C39.6287 95.8441 48.7399 94.6123 57.9839 91.498L58.2582 92.1182C51.3618 95.0025 40.7463 97.069 33.8704 93.8048L34.085 92.9053V92.9036Z" fill="#192233"/>
<path d="M70.0408 60.2461C68.6421 54.348 66.8056 46.3664 65.7357 44.9643C64.8191 43.7615 57.8682 40.6762 54.5103 39.0884C54.5103 39.0884 63.0848 44.0716 64.4034 45.2778C65.722 46.484 67.8243 53.1691 70.0391 60.2461H70.0408Z" fill="#35496E"/>
<path fill-rule="evenodd" clip-rule="evenodd" d="M50.0348 20.6841C50.0348 20.6841 51.0706 20.42 51.258 20.8272C51.4454 21.2344 51.6993 23.0437 51.4574 24.1459C51.2154 25.2482 50.2001 26.7917 49.7384 26.7917C49.275 26.7917 49.2528 26.6367 49.2528 26.6367C48.9683 30.6965 47.74 31.1463 44.4689 34.1992C43.8181 34.8057 40.8265 34.7819 40.2013 34.1992C36.9303 31.1446 35.6355 30.7629 35.4174 26.6367C35.4174 26.6367 35.3953 26.7917 34.9319 26.7917C34.4685 26.7917 33.4548 25.2482 33.2129 24.1459C32.971 23.0437 33.2248 21.2361 33.4122 20.8272C33.5996 20.42 34.6354 20.6841 34.6354 20.6841C33.8228 15.6327 35.0358 9.54217 42.382 9.56943C49.6838 9.59498 50.9497 16.5272 50.0382 20.6841H50.0348Z" fill="#A57257"/>
<path fill-rule="evenodd" clip-rule="evenodd" d="M49.8916 23.674C49.8916 23.674 50.4129 23.4645 50.2851 22.8035C50.1574 22.1424 50.1199 21.6893 50.4317 21.5905C50.7434 21.4916 51.0995 22.6706 51.0177 23.6195C50.9359 24.5685 50.2034 25.6809 50.2034 25.6809C50.2034 25.6809 51.1285 24.6553 51.1455 23.1783C51.1642 21.7012 50.8899 21.1611 50.5134 21.1611C50.1386 21.1611 49.9546 21.691 49.9546 21.7898C49.9546 21.8886 50.0739 22.7592 49.8899 23.6757L49.8916 23.674Z" fill="#875B43"/>
<path fill-rule="evenodd" clip-rule="evenodd" d="M34.7512 23.674C34.7512 23.674 34.2384 23.4645 34.3645 22.8035C34.4906 22.1424 34.5263 21.6893 34.2214 21.5905C33.9164 21.4916 33.5655 22.6706 33.6455 23.6195C33.7256 24.5685 34.4446 25.6809 34.4446 25.6809C34.4446 25.6809 33.5365 24.6553 33.5195 23.1783C33.5007 21.7012 33.7716 21.1611 34.1396 21.1611C34.5076 21.1611 34.6882 21.691 34.6882 21.7898C34.6882 21.8886 34.5706 22.7592 34.7512 23.6757V23.674Z" fill="#875B43"/>
<path fill-rule="evenodd" clip-rule="evenodd" d="M35.4139 26.6691V26.6368C35.4139 26.6368 35.3917 26.7918 34.9283 26.7918C34.85 26.7918 34.7546 26.7458 34.6489 26.6657C34.7086 26.7032 34.8278 26.7918 35.0629 26.4323C35.2963 26.0729 35.1362 24.6401 35.1737 25.0166C35.2111 25.3914 35.4633 26.0524 35.4156 26.6708L35.4139 26.6691ZM49.2527 26.6691V26.6368C49.2527 26.6368 49.2748 26.7918 49.7382 26.7918C49.8166 26.7918 49.912 26.7458 50.0176 26.6657C49.958 26.7032 49.8387 26.7918 49.6036 26.4323C49.3702 26.0729 50.1522 24.7389 49.9001 25.1086C49.6496 25.4783 49.2902 26.2466 49.251 26.6708L49.2527 26.6691Z" fill="#875B43"/>
<path fill-rule="evenodd" clip-rule="evenodd" d="M39.1092 29.4788C38.8929 29.506 38.9491 29.4532 38.9849 29.3084C39.0207 29.1636 39.1092 29.3033 39.2455 29.3561C39.3818 29.4089 40.082 29.2896 40.3853 29.23C40.6885 29.1704 41.554 28.8671 41.8709 28.9591C42.2798 29.0784 42.382 29.0784 42.7909 28.9591C43.1077 28.8671 43.9732 29.1704 44.2764 29.23C44.5797 29.2896 45.3975 29.3578 45.5354 29.305C45.6717 29.2522 45.791 29.1585 45.8285 29.3033C45.8643 29.4481 45.8898 29.4532 45.6734 29.4276C45.5372 29.305 45.222 29.5554 44.1844 29.4753C43.4331 29.4174 43.1759 29.5963 42.8147 29.6576C42.6052 29.6934 41.997 29.69 41.7925 29.6457C41.4586 29.5759 41.1894 29.4191 40.4807 29.4736C39.4415 29.5537 39.2472 29.3544 39.111 29.477L39.1092 29.4788Z" fill="#693D26"/>
<path fill-rule="evenodd" clip-rule="evenodd" d="M41.6172 29.8685C41.6172 29.8685 42.3003 30.0082 42.9596 29.9349C43.619 29.8617 43.8387 29.8293 43.8455 29.9485C43.8524 30.0678 43.2101 30.5039 42.3242 30.4256C41.4383 30.3455 41.1333 29.7305 41.6172 29.8702V29.8685Z" fill="#B38064"/>
<path fill-rule="evenodd" clip-rule="evenodd" d="M41.0464 30.5108C41.0464 30.5108 41.457 30.6829 42.2832 30.6829C43.1095 30.6829 43.6189 30.4512 43.6189 30.4512C42.7381 31.1735 41.8931 31.1514 41.0464 30.5108Z" fill="#693D26"/>
<path fill-rule="evenodd" clip-rule="evenodd" d="M40.7566 19.9791C40.7566 19.9791 41.6834 20.9587 41.7362 21.4204C41.789 21.8838 41.7362 22.1223 41.6834 22.9026C41.6306 23.6829 41.6834 24.424 41.7226 24.9793C41.7618 25.5347 41.5301 24.3439 41.5505 23.2467C41.5709 22.1496 41.3393 21.6453 40.6646 21.0371C39.99 20.4289 38.8127 19.7679 38.4958 19.6486C38.179 19.5293 40.0308 19.5157 40.7583 19.9791H40.7566Z" fill="#875B43"/>
<path fill-rule="evenodd" clip-rule="evenodd" d="M44.1963 19.9532C44.1963 19.9532 43.4825 20.6415 43.3769 21.2753C43.2712 21.9108 43.3104 22.3741 43.3496 22.611C43.3888 22.8495 43.3479 21.7336 44.152 20.7233C44.9545 19.713 45.7586 19.7011 45.7586 19.7011C45.7586 19.7011 44.6478 19.6091 44.198 19.9532H44.1963Z" fill="#875B43"/>
<path fill-rule="evenodd" clip-rule="evenodd" d="M36.1585 20.4356C36.1585 20.4356 36.9916 19.7745 38.0632 19.7473C39.1348 19.72 40.1417 20.0965 40.6562 20.2771C41.1707 20.4577 41.3172 20.3436 41.2917 20.1442C41.2661 19.9449 41.4501 19.4372 40.3393 19.1714C39.2285 18.9074 37.6935 18.9653 36.9269 19.4014C36.1602 19.8376 36.1125 20.105 36.0529 20.2004C35.995 20.2958 35.9439 20.6298 36.1585 20.4356Z" fill="#402F26"/>
<path fill-rule="evenodd" clip-rule="evenodd" d="M36.9421 21.2687C36.9421 21.2687 37.7718 20.4527 38.8877 20.4901C40.0036 20.5259 40.6885 21.3522 40.9066 21.4885C41.1229 21.6248 41.0139 21.1631 40.4755 20.7712C39.9389 20.3794 38.2352 19.6502 36.9421 21.2687Z" fill="#452615"/>
<path fill-rule="evenodd" clip-rule="evenodd" d="M37.2129 21.6844C37.3151 21.5482 38.0715 21.0132 38.9557 21.0967C39.8399 21.1802 40.5333 21.8957 40.5333 21.8957C40.5333 21.8957 41.1603 22.1938 41.0206 22.3404C40.8809 22.4869 40.4941 22.3438 40.4941 22.3438C40.4941 22.3438 39.4396 22.6436 38.4549 22.4766C37.4701 22.308 37.2163 21.7901 37.2129 21.6827V21.6844Z" fill="white"/>
<path fill-rule="evenodd" clip-rule="evenodd" d="M37.2316 22.7747C37.2316 22.7747 37.6405 23.204 38.5826 23.221C39.5247 23.238 39.9881 22.9927 39.9881 22.9927C39.9881 22.9927 39.1721 23.4493 38.3203 23.3539C37.4667 23.2585 37.2163 22.9178 37.2316 22.7729V22.7747Z" fill="#452615"/>
<path fill-rule="evenodd" clip-rule="evenodd" d="M37.2129 21.6843C37.2265 21.6673 37.2504 21.6418 37.2844 21.6128C37.3781 21.836 37.6763 22.2772 38.5775 22.4288C39.7036 22.6197 40.4907 22.2227 40.5401 21.899C40.6117 21.9348 41.15 22.204 41.0206 22.3403C40.8809 22.4868 40.4941 22.3437 40.4941 22.3437C40.4941 22.3437 39.4396 22.6435 38.4549 22.4765C37.4701 22.3079 37.2163 21.79 37.2129 21.6826V21.6843Z" fill="#D4926F"/>
<path fill-rule="evenodd" clip-rule="evenodd" d="M37.2129 21.6844C37.3151 21.5482 38.0715 21.0132 38.9557 21.0967C39.7922 21.1768 40.4601 21.8224 40.5282 21.8906C40.0716 21.6947 39.4634 21.3948 38.8416 21.3676C38.1124 21.3352 37.5621 21.6657 37.293 21.8684C37.2367 21.785 37.2129 21.7168 37.2112 21.6844H37.2129Z" fill="#ADA89F"/>
<path fill-rule="evenodd" clip-rule="evenodd" d="M38.2283 21.1562C38.4515 21.1 38.6985 21.0727 38.9558 21.0965C39.1789 21.117 39.3919 21.18 39.5827 21.2601C39.627 21.3708 39.6474 21.4952 39.6338 21.6213C39.5912 22.0387 39.2181 22.3402 38.8007 22.2976C38.3833 22.255 38.0818 21.8819 38.1244 21.4645C38.1363 21.3504 38.1721 21.2465 38.2266 21.1545L38.2283 21.1562Z" fill="#625D54"/>
<path d="M38.8445 21.8933C39.0375 21.9133 39.2102 21.773 39.2302 21.58C39.2501 21.387 39.1099 21.2143 38.9169 21.1944C38.7238 21.1744 38.5512 21.3147 38.5312 21.5077C38.5113 21.7007 38.6515 21.8733 38.8445 21.8933Z" fill="#191716"/>
<path d="M38.8718 21.5835C38.937 21.5903 38.9954 21.5428 39.0022 21.4776C39.0089 21.4123 38.9615 21.3539 38.8962 21.3472C38.831 21.3404 38.7726 21.3879 38.7658 21.4531C38.7591 21.5184 38.8065 21.5768 38.8718 21.5835Z" fill="white"/>
<path fill-rule="evenodd" clip-rule="evenodd" d="M36.9302 21.548C36.9302 21.548 37.6866 21.088 38.4311 21.0012C39.4431 20.8819 40.0751 21.3811 40.6765 21.9688L40.5436 21.899C40.5436 21.899 39.8128 21.2141 38.9626 21.1357C38.1125 21.0591 37.2266 21.732 37.2266 21.732C37.2266 21.732 36.9268 21.7337 36.9319 21.5463L36.9302 21.548Z" fill="#191716"/>
<path fill-rule="evenodd" clip-rule="evenodd" d="M48.5526 20.4356C48.5526 20.4356 47.7196 19.7745 46.648 19.7473C45.5763 19.72 44.5695 20.0965 44.055 20.2771C43.5405 20.4577 43.394 20.3436 43.4195 20.1442C43.4451 19.9449 43.2611 19.4372 44.3719 19.1714C45.4827 18.9074 47.0176 18.9653 47.7843 19.4014C48.5509 19.8376 48.5986 20.105 48.6583 20.2004C48.7162 20.2958 48.7673 20.6298 48.5526 20.4356Z" fill="#402F26"/>
<path fill-rule="evenodd" clip-rule="evenodd" d="M47.7724 21.2772C47.7724 21.2772 46.9479 20.4577 45.8303 20.4884C44.7127 20.5191 44.0244 21.3419 43.808 21.4782C43.59 21.6128 43.7024 21.1528 44.2425 20.7627C44.7825 20.3725 46.4879 19.6519 47.7741 21.2772H47.7724Z" fill="#452615"/>
<path fill-rule="evenodd" clip-rule="evenodd" d="M47.4981 21.6927C47.3976 21.5564 46.6412 21.0164 45.757 21.0964C44.8728 21.1765 44.176 21.8886 44.176 21.8886C44.176 21.8886 43.5473 22.1851 43.6853 22.3316C43.825 22.4781 44.2118 22.3384 44.2118 22.3384C44.2118 22.3384 45.2646 22.6434 46.251 22.4815C47.2375 22.318 47.493 21.8017 47.4964 21.6927H47.4981Z" fill="white"/>
<path fill-rule="evenodd" clip-rule="evenodd" d="M47.4743 22.7852C47.4743 22.7852 47.0637 23.2128 46.1216 23.2264C45.1795 23.2383 44.7161 22.9913 44.7161 22.9913C44.7161 22.9913 45.5287 23.453 46.3822 23.361C47.2358 23.269 47.4879 22.93 47.4726 22.7852H47.4743Z" fill="#452615"/>
<path fill-rule="evenodd" clip-rule="evenodd" d="M47.498 21.6926C47.4844 21.6756 47.4605 21.6501 47.4265 21.6211C47.3311 21.8443 47.0312 22.2838 46.1283 22.4303C45.0022 22.6143 44.2168 22.2157 44.1674 21.892C44.0958 21.926 43.5558 22.1935 43.6852 22.3315C43.8249 22.478 44.2117 22.3383 44.2117 22.3383C44.2117 22.3383 45.2645 22.6433 46.251 22.4814C47.2374 22.3179 47.4929 21.8017 47.4963 21.6926H47.498Z" fill="#D4926F"/>
<path fill-rule="evenodd" clip-rule="evenodd" d="M47.4979 21.6927C47.3974 21.5564 46.641 21.0164 45.7568 21.0964C44.9186 21.1714 44.2491 21.8154 44.1809 21.8818C44.6392 21.6893 45.2474 21.3912 45.8692 21.3656C46.5984 21.3366 47.1487 21.6689 47.4145 21.8733C47.4724 21.7898 47.4945 21.7217 47.4962 21.691L47.4979 21.6927Z" fill="#ADA89F"/>
<path fill-rule="evenodd" clip-rule="evenodd" d="M46.4862 21.1596C46.263 21.1034 46.0159 21.0727 45.7587 21.0965C45.5338 21.117 45.3226 21.1783 45.13 21.2567C45.084 21.3674 45.0653 21.4901 45.0772 21.6179C45.1181 22.0353 45.4895 22.3402 45.9069 22.2976C46.3243 22.2567 46.6293 21.8853 46.5867 21.4679C46.5748 21.3538 46.5407 21.2499 46.4862 21.1579V21.1596Z" fill="#625D54"/>
<path d="M45.8662 21.8939C45.6731 21.9129 45.5012 21.7718 45.4821 21.5787C45.4631 21.3856 45.6042 21.2136 45.7973 21.1946C45.9904 21.1756 46.1624 21.3167 46.1814 21.5098C46.2004 21.7029 46.0593 21.8749 45.8662 21.8939Z" fill="#191716"/>
<path d="M45.8406 21.584C45.7753 21.5905 45.7172 21.5427 45.7107 21.4775C45.7043 21.4122 45.752 21.354 45.8173 21.3476C45.8826 21.3412 45.9408 21.3889 45.9472 21.4542C45.9536 21.5195 45.9059 21.5776 45.8406 21.584Z" fill="white"/>
<path fill-rule="evenodd" clip-rule="evenodd" d="M47.7825 21.5583C47.7825 21.5583 47.0278 21.0949 46.2833 21.0046C45.273 20.8803 44.6375 21.376 44.0344 21.9604L44.1673 21.8905C44.1673 21.8905 44.9016 21.2091 45.7517 21.1358C46.6018 21.0626 47.486 21.7406 47.486 21.7406C47.486 21.7406 47.7859 21.7423 47.7825 21.5566V21.5583Z" fill="#191716"/>
<path fill-rule="evenodd" clip-rule="evenodd" d="M40.4756 26.8194C40.4756 26.8194 40.1059 26.4752 40.3564 26.0851C40.6085 25.6949 40.7993 25.5229 40.6204 25.4172C40.4416 25.3116 40.1434 25.8278 40.1775 26.2572C40.2099 26.6865 40.3632 26.8125 40.4756 26.8194Z" fill="#693D26"/>
<path fill-rule="evenodd" clip-rule="evenodd" d="M44.3497 26.8194C44.3497 26.8194 44.7194 26.4752 44.469 26.0851C44.2168 25.6949 44.026 25.5229 44.2049 25.4172C44.3838 25.3116 44.6819 25.8278 44.6478 26.2572C44.6155 26.6865 44.4621 26.8125 44.3497 26.8194Z" fill="#693D26"/>
<path d="M42.3905 25.9436C42.4931 25.9436 42.5762 25.3662 42.5762 24.6539C42.5762 23.9417 42.4931 23.3643 42.3905 23.3643C42.288 23.3643 42.2048 23.9417 42.2048 24.6539C42.2048 25.3662 42.288 25.9436 42.3905 25.9436Z" fill="#B38064"/>
<path d="M42.2985 26.9369C42.434 26.9369 42.5439 26.824 42.5439 26.6848C42.5439 26.5455 42.434 26.4326 42.2985 26.4326C42.1631 26.4326 42.0532 26.5455 42.0532 26.6848C42.0532 26.824 42.1631 26.9369 42.2985 26.9369Z" fill="#B38064"/>
<path fill-rule="evenodd" clip-rule="evenodd" d="M41.0974 27.1361C41.0037 27.1532 40.45 26.93 40.3972 26.7937C40.3444 26.6574 40.6017 26.5892 41.0122 26.9675C41.4228 27.344 41.8947 27.7154 42.1128 27.7869C42.1707 27.8057 42.2287 27.8176 42.2815 27.8244L42.2781 27.8227C42.2781 27.8227 42.3087 27.8278 42.3581 27.8312H42.3633H42.365H42.3718H42.3786H42.3803H42.3854H42.3888H42.3922H42.3956H42.399H42.4041H42.4075H42.4127H42.4144H42.4195H42.4229H42.428H42.4314H42.4348H42.4382H42.4416H42.4467H42.4484H42.4552H42.4621H42.4638H42.4689C42.5183 27.8278 42.5489 27.8227 42.5489 27.8227L42.5455 27.8244C42.5984 27.8176 42.6563 27.8057 42.7142 27.7869C42.9323 27.7137 43.4059 27.344 43.8148 26.9675C44.2253 26.591 44.4826 26.6591 44.4298 26.7937C44.377 26.93 43.8233 27.1515 43.7296 27.1361C43.5814 27.223 43.4519 27.3712 43.026 27.666C42.767 27.8448 42.5472 27.8653 42.4161 27.8534C42.2849 27.8653 42.0651 27.8448 41.8062 27.666C41.3802 27.3712 41.2508 27.223 41.1025 27.1361H41.0974Z" fill="#422A1E"/>
</g>
<defs>
<clipPath id="clip0">
<rect width="84.6667" height="211.667" fill="white"/>
</clipPath>
</defs>
</svg>
