<svg width="86" height="212" viewBox="0 0 86 212" fill="none" xmlns="http://www.w3.org/2000/svg">
<g clip-path="url(#clip0)">
<path fill-rule="evenodd" clip-rule="evenodd" d="M37.3044 192.088C37.3044 192.088 37.5939 192.941 37.7493 194.295C37.9047 195.649 37.893 196.267 37.893 196.267C37.893 196.267 37.215 197.271 35.7581 197.838C34.3011 198.405 33.5066 198.409 33.5066 198.409L32.0574 198.151C32.0574 198.151 31.4824 198.683 30.379 200.309C29.2756 201.933 27.7157 203.002 25.4564 203.307C23.1972 203.612 19.0711 203.514 18.0881 203.077C17.1051 202.64 16.2193 201.525 16.2096 201.172C16.1999 200.818 15.8522 199.965 17.1168 198.811C18.3814 197.657 24.6211 194.388 25.9421 192.084C27.2631 189.78 36.4477 189.677 37.3083 192.088H37.3044Z" fill="#424852"/>
<path fill-rule="evenodd" clip-rule="evenodd" d="M36.8635 195.299C36.8635 195.299 34.9869 196.103 33.6523 196.875C32.3197 197.646 31.8127 197.988 30.9249 198.905C30.0371 199.822 28.9998 201.683 26.9426 202.355C24.8853 203.027 19.5587 203.186 18.5466 202.749C17.5326 202.312 16.738 201.271 16.738 201.271C16.738 201.271 18.0998 202.619 19.7802 202.654C21.4605 202.691 25.4429 202.421 26.6687 202.032C27.8944 201.644 29.1669 200.812 30.6335 198.45C32.1002 196.088 35.9679 195.422 36.8635 195.299ZM23.4653 200.665C23.4653 200.665 21.6567 200.777 19.5937 200.169C17.5306 199.561 17.8589 198.662 17.8589 198.662C17.8589 198.662 16.6195 200.185 18.8924 200.894C21.1652 201.605 23.4653 200.665 23.4653 200.665ZM27.3505 193.696C27.3505 193.696 26.9193 194.11 27.197 194.522C27.4729 194.934 28.1936 197.521 28.1936 197.521C28.1936 197.521 27.1951 195.509 26.8241 194.864C26.453 194.219 26.3986 193.879 26.4666 193.658C26.5346 193.436 26.5754 193.318 26.5754 193.318C26.5754 193.318 27.0319 193.254 27.3525 193.696H27.3505Z" fill="#58606D"/>
<path fill-rule="evenodd" clip-rule="evenodd" d="M61.2451 191.033C61.2451 191.033 63.4888 195.542 63.7433 196.327C63.9978 197.111 64.0735 199.817 64.0735 199.817C64.0735 199.817 64.2775 203.52 60.2796 203.761C56.2798 204.002 54.6053 201.68 54.4868 199.742C54.3683 197.803 54.1487 195.161 53.5388 193.889C52.9307 192.616 52.9307 192.616 52.9307 192.616C52.9307 192.616 52.4917 190.248 52.9676 189.347C53.4436 188.445 60.2816 190.246 61.2451 191.033Z" fill="#424852"/>
<path fill-rule="evenodd" clip-rule="evenodd" d="M63.1218 199.709C63.1218 199.709 62.8634 202.104 60.0408 202.329C57.2182 202.554 55.8933 200.486 55.7224 199.668C55.5514 198.85 56.1458 201.154 58.8033 201.288C61.4589 201.422 62.64 200.435 63.1218 199.711V199.709ZM58.8869 192.583C58.8869 192.583 59.5357 194.162 60.167 194.625C60.7984 195.087 62.2087 195.415 62.2087 195.415C62.2087 195.415 60.3011 194.679 60.0155 193.923C59.73 193.17 59.5221 192.587 59.5221 192.587C59.5221 192.587 59.3026 192.08 58.8888 192.581L58.8869 192.583ZM56.5926 192.744C56.5926 192.744 57.0064 193.819 56.8471 194.5C56.6898 195.184 55.9186 196.095 55.9186 196.095C55.9186 196.095 57.1987 194.957 57.325 194.188C57.4513 193.416 57.1832 192.808 57.1832 192.808C57.1832 192.808 56.9268 192.597 56.5926 192.742V192.744Z" fill="#58606D"/>
<path fill-rule="evenodd" clip-rule="evenodd" d="M59.7902 86.2992C59.7902 86.2992 63.283 90.874 64.13 104.422C64.977 117.968 61.5424 137.629 61.5424 137.629L60.8839 182.895L61.2336 191.008C61.2336 191.008 57.3872 192.047 55.4018 192.123C53.4165 192.199 52.5831 191.948 52.5831 191.948C52.5831 191.948 51.3806 188.791 51.4817 187.612C51.5827 186.435 51.742 181.242 51.5341 180.217C51.4137 179.626 48.8941 165.61 47.7926 155.238C46.9806 147.602 47.4721 143.105 47.5265 141.45C47.6586 137.545 47.3672 136.007 47.2856 135.399C47.204 134.791 44.803 115.372 44.803 115.372C44.7272 117.016 39.8202 141.308 40.8245 147.864C41.8308 154.421 40.1834 171.805 38.5031 179.95C36.8247 188.094 37.1841 188.123 37.1841 188.123L37.5026 192.847C37.5026 192.847 34.7908 194.003 31.2688 193.574C27.7469 193.145 26.1947 191.589 26.1947 191.589C26.1947 191.589 27.6303 189.51 27.6536 187.443C27.6769 185.376 26.8474 144.356 26.694 142.295C26.5405 140.234 22.8243 116.497 23.7062 105.321C24.5862 94.1453 27.9586 85.9087 27.9586 85.9087C27.9586 85.9087 52.2937 86.3477 59.7863 86.2972L59.7902 86.2992Z" fill="#23314B"/>
<path fill-rule="evenodd" clip-rule="evenodd" d="M41.5277 95.2411C41.5277 95.2411 41.3956 106.464 41.483 107.699C41.5704 108.935 44.2163 110.786 44.2163 110.786C44.2163 110.786 42.2756 108.095 42.365 107.435C42.4524 106.772 42.6292 95.1537 42.6292 95.1537C42.6292 95.1537 42.1008 95.0663 41.5277 95.2411Z" fill="#192233"/>
<path d="M16.8973 103.753C16.8973 103.753 18.6573 105.255 18.6262 107.916C18.6184 108.594 18.1153 109.888 17.9152 110.537C17.8025 110.904 17.5364 111.633 17.5131 112.013C17.4781 112.596 17.7714 113.756 17.7384 114.339C17.6976 115.067 17.1887 116.918 16.4602 116.967C15.7395 117.016 15.2208 115.1 15.1683 114.379C15.1217 113.727 15.891 112.171 15.3743 111.773C15.1975 111.637 14.7993 111.901 14.6147 112.023C14.4593 112.124 14.1096 112.353 14.0397 112.524C13.9464 112.759 13.8396 113.21 13.7619 113.406C13.7289 113.49 13.4569 113.964 13.5268 114.257C13.6725 114.853 13.927 116.856 13.927 116.856C13.927 116.856 14.8672 117.338 15.2791 117.781C15.4733 117.989 16.431 118.313 16.6642 118.461C17.0138 118.682 17.5422 119.465 17.2838 119.792C16.9206 120.246 15.1955 119.844 14.5856 119.475C13.7347 118.96 12.2234 118.362 11.8776 117.635C11.5473 116.94 11.3045 114.69 11.0792 114.043C10.8927 113.509 10.815 113.327 10.6537 112.74C10.4808 112.114 11.085 109.814 11.5901 107.934C12.0038 106.401 13.0645 103.854 13.0645 103.854L16.8895 103.753H16.8973Z" fill="#A57257"/>
<path d="M17.5499 115.341C17.6373 115.497 17.7616 115.72 17.818 115.817C17.9734 116.087 18.4726 116.583 18.4435 116.893C18.4318 117.029 18.0841 117.309 18.0841 117.309C18.0841 117.309 19.0243 118.228 19.0185 118.634C19.0166 118.766 18.7019 119.054 18.7019 119.054C18.7019 119.054 18.7038 119.732 18.5387 119.852C18.3211 120.011 17.7111 119.904 17.276 119.802L17.2857 119.792C17.5441 119.465 17.0176 118.683 16.666 118.461C16.431 118.312 15.4752 117.989 15.2809 117.781C14.9507 117.426 14.1756 117.039 13.923 116.903V116.804C13.8822 116.484 13.6627 114.797 13.5306 114.257C13.4588 113.964 13.7327 113.49 13.7657 113.406C13.8434 113.21 13.9483 112.76 14.0435 112.524C14.1134 112.354 14.4631 112.124 14.6185 112.023C14.803 111.901 15.2013 111.637 15.3781 111.773C15.8948 112.173 15.1255 113.729 15.1721 114.38C15.2246 115.1 15.7433 117.016 16.464 116.967C16.9477 116.934 17.3343 116.109 17.5518 115.343L17.5499 115.341ZM13.0644 103.853C13.0644 103.853 12.8313 104.435 12.7439 104.647C12.6487 104.882 12.47 105.347 12.47 105.347C12.47 105.347 14.4495 105.228 15.1372 105.228C16.7029 105.23 18.2706 105.857 18.2706 105.857C18.2706 105.857 18.0744 105.337 17.8257 104.902C17.6082 104.523 17.1439 103.849 17.1439 103.849L14.9759 103.608L13.0625 103.853H13.0644Z" fill="#875B43"/>
<path d="M12.6973 102.131L12.6118 104.305C12.6118 104.305 14.7137 104.253 15.4461 104.317C17.9113 104.536 18.6436 104.919 18.6436 104.919L19.0982 102.135L12.6992 102.131H12.6973Z" fill="#C4C2CC"/>
<path d="M36.5778 28.3123C42.4697 28.3123 43.1768 27.7393 49.1911 27.7393C49.0493 28.9417 49.4689 35.9235 52.6509 36.7258L49.5117 43.8396L47.3107 59.0697L35.8299 48.7894L33.627 37.5067C37.2188 35.1484 36.8983 30.3715 36.5778 28.3104V28.3123Z" fill="#A57257"/>
<path d="M36.5779 28.3123C42.4698 28.3123 43.1769 27.7393 49.1912 27.7393C49.1407 28.1647 49.1232 29.2098 49.1796 30.4473C48.4919 31.506 47.4584 32.7318 44.7912 34.6569C42.124 36.582 38.4078 35.5388 36.2632 33.9906C37.0247 31.8498 36.7488 29.4216 36.5759 28.3143L36.5779 28.3123ZM50.6132 34.9211C51.0114 35.8166 51.4311 35.9371 51.7011 36.2537L49.5118 43.8377L48.0898 53.675C47.4176 55.2602 46.6542 56.6783 45.8325 57.7429L36.1524 49.0749C36.0106 48.6515 35.8766 48.226 35.7464 47.7986L33.9126 37.3066C34.88 36.4946 35.4084 35.9351 35.9485 34.787C35.9485 34.787 35.7212 37.0016 36.2224 38.5285C37.2034 41.5124 38.1844 41.9417 38.6817 43.1131C39.7501 45.6404 40.0746 46.5573 39.9211 47.3732C39.7676 48.1891 39.9871 48.6515 40.3834 49.3353C40.7797 50.0191 42.3455 52.29 42.4348 51.8704C42.5222 51.4508 42.7651 49.1798 43.8685 47.6374C44.9699 46.095 46.2501 45.0363 45.7858 44.131C45.3235 43.2277 45.475 42.507 46.3375 41.1549C47.1981 39.8009 50.0537 36.7782 50.6171 34.9172L50.6132 34.9211ZM42.5863 37.1687C42.5863 37.1687 42.4543 38.206 42.7631 38.8665C43.072 39.527 43.5577 39.1968 43.5577 39.1968C43.5577 39.1968 42.7204 38.7616 42.5883 37.1687H42.5863Z" fill="#875B43"/>
<path d="M32.749 90.2C43.2197 93.2363 50.9357 92.9857 58.7372 88.372C57.1462 84.547 55.7922 81.2834 54.2012 77.4565C49.1679 63.3162 52.651 44.5137 53.2727 37.8719C52.8006 37.3163 52.4917 36.8074 52.2975 36.4208C52.1479 36.1236 51.7186 34.9463 51.1747 35.7447C50.7201 38.5188 45.8538 41.6988 45.7956 42.507C45.5372 43.5773 46.592 43.5366 46.4774 44.1524C46.256 45.351 44.665 47.2567 44.1269 48.3387C43.4683 49.6616 42.9302 54.4754 42.9302 54.4754C42.9302 54.4754 40.974 51.6217 40.5175 50.9651C38.5438 47.989 39.4471 48.3911 39.4199 46.7788C39.4102 46.2582 39.4044 45.926 38.9751 44.4088C38.571 42.9771 35.6144 40.3954 35.1306 36.1119C35.1093 35.9235 34.4702 36.0789 34.3866 36.5218C28.8949 49.1526 42.0463 76.2754 32.7451 90.198L32.749 90.2Z" fill="#F2F1F6"/>
<path d="M52.3402 36.4209C52.3402 36.4209 49.9159 40.648 49.0125 45.3841C48.9174 44.7139 48.6065 43.5911 48.5793 43.2356C48.457 41.6349 47.7032 41.3376 47.1826 41.326C46.5377 41.3124 45.8752 42.0253 45.7606 42.6606C45.714 42.917 45.7898 43.1695 45.9316 43.3871C45.8034 43.0782 45.8092 42.7266 46.324 42.0428C46.8407 41.359 48.0607 42.1458 48.218 42.8257C48.4181 43.6979 48.8533 45.0228 48.9951 45.4812C48.556 47.7852 48.15 50.1823 47.9111 52.2299C47.2428 57.9392 47.8004 69.6939 49.2845 75.1604C50.5356 79.7644 55.0113 84.9609 55.4406 89.0986C50.3024 92.2515 42.3008 92.7779 36.644 89.9476C36.9489 86.4878 38.4894 76.8971 38.4894 72.736C38.4894 67.2676 36.4613 53.3333 35.8339 48.7934C35.762 48.2669 35.7057 47.6958 35.6649 47.0955C35.9563 46.8877 36.2787 46.5691 36.5274 46.0912C37.1218 44.9451 38.3573 45.6716 38.7109 46.3554C39.0644 47.0392 39.1732 47.5909 39.1732 47.5909C39.1732 47.5909 39.6803 45.9164 38.5108 44.7469C37.3414 43.5775 36.6595 44.9004 36.0417 46.1145C35.9019 46.3884 35.7678 46.6079 35.6435 46.7828C35.3696 42.239 34.3925 36.5297 34.3925 36.5297C34.2487 36.7803 33.7262 37.0367 33.596 37.299C27.0513 50.5029 39.5287 78.9077 32.0128 90.1088C44.257 93.9299 50.5433 92.5643 58.8965 88.8092C46.561 59.6293 55.6252 54.8271 53.2552 37.7302C52.9502 37.2951 52.6472 36.8599 52.3422 36.4248L52.3402 36.4209Z" fill="#C4C2CC"/>
<path d="M65.2701 97.6482C65.2701 97.6482 64.8311 98.4446 64.7515 98.6564C64.5086 99.2858 63.7821 101.646 63.7821 101.646L59.6541 94.0097L60.8682 93.0869L65.2701 97.6482Z" fill="#875B43"/>
<path d="M59.9571 93.7783L59.4773 95.1148C59.4773 95.1148 61.6608 96.2882 62.3932 96.6728C63.3742 97.1759 65.1963 97.9607 65.1963 97.9607C65.1963 97.9607 65.5169 97.1585 65.5868 96.8729C65.6354 96.6767 65.9384 95.6782 65.9384 95.6782L59.9552 93.7764L59.9571 93.7783Z" fill="#C4C2CC"/>
<path d="M22.8184 108.192C22.8184 108.192 26.7716 111.951 28.3004 110.908C31.6281 108.643 34.6896 97.2456 35.4881 88.7661C33.8096 94.1957 30.5752 105.436 28.6695 107.765C26.7638 110.094 22.8184 108.192 22.8184 108.192Z" fill="#192233"/>
<path d="M34.1865 36.7256C23.4011 43.5286 15.8579 38.0932 15.3587 52.2859C14.7254 70.2647 12.134 86.9673 12.4526 102.495C12.4856 104.136 17.5383 102.648 18.9486 102.949C21.0758 91.3537 24.5414 83.2647 26.2975 68.9884C26.2975 75.4029 28.9978 81.4483 27.0843 87.7987C24.2306 97.2379 22.5988 101.892 22.0743 107.485C22.0743 107.485 26.078 111.244 27.5933 110.201C30.9171 107.916 32.9918 99.1824 35.4103 87.7638C36.4826 82.6994 36.7565 72.2151 36.3952 67.4421C36.0689 63.1082 34.3749 54.2771 33.9553 50.2617C33.6153 47.0059 34.1884 36.7256 34.1884 36.7256H34.1865Z" fill="#23314B"/>
<path d="M52.4743 36.6094C52.4743 36.6094 49.5953 47.08 49.4147 50.8623C49.3039 53.2148 49.1058 57.9295 49.1738 60.2801C49.2709 63.6758 49.2787 71.1645 50.1257 74.4417C50.7628 76.9108 52.7579 80.592 54.5684 82.4355C58.102 86.0333 58.8227 94.2991 58.8227 94.2991C61.7483 95.6433 64.0367 96.671 65.7171 97.382C65.7171 97.382 67.5664 92.5993 70.152 87.5932C72.4365 83.1737 75.1601 75.0828 75.3641 72.8624C75.4243 72.2019 75.1426 65.9583 73.3243 59.944C71.3914 53.5548 72.3297 47.5773 69.7421 44.3099C66.665 40.4227 56.0584 39.0629 52.4743 36.6094ZM61.6628 62.1916C61.6628 62.1916 62.9974 66.3313 64.1086 69.457C65.3499 72.9459 65.7248 74.498 65.6704 74.9138C65.5267 76.0288 62.9741 83.3058 61.8221 86.5558C57.5814 80.0209 60.1476 68.4235 61.6609 62.1916H61.6628Z" fill="#23314B"/>
<path d="M30.1982 39.9272C29.8039 40.8014 25.7652 47.8686 25.7302 48.5544C25.9866 49.549 28.7607 55.1767 29.9476 57.6516C28.9006 54.3278 27.4028 49.9822 27.533 48.636C27.6592 47.3674 29.4678 42.202 30.1982 39.9253V39.9272Z" fill="#35496E"/>
<path d="M65.6528 75.0342C64.4212 81.3146 60.9575 86.9346 59.5569 94.5438C61.5286 89.6407 66.0025 79.7372 65.6528 75.0342Z" fill="#182234"/>
<path fill-rule="evenodd" clip-rule="evenodd" d="M58.6012 48.1928L54.5528 49.1602L58.5856 49.1369C57.8747 51.5282 53.7252 65.6918 51.5864 73.5244C53.9681 66.7039 59.5647 48.6338 59.5647 48.6338C59.5647 48.6338 58.6284 42.9905 54.8228 38.4331C57.0141 41.5005 58.0145 44.5135 58.6031 48.1928H58.6012Z" fill="#182234"/>
<path fill-rule="evenodd" clip-rule="evenodd" d="M25.674 48.1929L29.7165 49.1603L25.6837 49.137C26.383 51.5283 33.2288 64.0912 35.3326 71.9238C32.9821 65.1033 24.7065 48.6338 24.7065 48.6338C24.7065 48.6338 25.9012 44.9371 30.0934 39.9834C27.8885 43.0508 26.3558 45.6655 25.672 48.1929H25.674Z" fill="#182234"/>
<path d="M25.9245 40.6069C17.8296 42.6972 16.1707 44.1133 15.8132 54.2635C15.549 61.7872 15.8501 61.7173 14.8167 69.0817C16.0871 65.688 17.142 56.0468 17.5188 50.9086C17.985 44.5407 20.8543 42.2523 25.9245 40.6069Z" fill="#35496E"/>
<path fill-rule="evenodd" clip-rule="evenodd" d="M34.5303 92.904C40.0745 95.8432 49.1854 94.6135 58.4303 91.4995L58.7042 92.1192C51.8079 95.002 41.1915 97.0709 34.3167 93.8054L34.5323 92.906L34.5303 92.904Z" fill="#192233"/>
<path d="M72.5394 57.9956C71.2476 52.0979 71.0242 47.2588 69.4079 44.5644C68.1724 42.5053 60.8255 40.1975 57.4958 38.6084C57.4958 38.6084 65.9462 42.5869 68.0714 44.8772C70.1966 47.1675 70.4531 50.9168 72.5394 57.9937V57.9956Z" fill="#35496E"/>
<path fill-rule="evenodd" clip-rule="evenodd" d="M50.7006 20.7265C50.7006 20.7265 51.7361 20.4623 51.9245 20.8703C52.111 21.2782 52.3655 23.0868 52.1226 24.1883C51.8798 25.2917 50.8658 26.8341 50.4034 26.8341C49.9411 26.8341 49.9178 26.6806 49.9178 26.6806C49.6322 30.7407 48.4045 31.1894 45.1331 34.2432C44.4824 34.8513 41.4907 34.826 40.8652 34.2432C37.5939 31.1894 36.2981 30.8067 36.0806 26.6806C36.0806 26.6806 36.0592 26.8341 35.5949 26.8341C35.1326 26.8341 34.1185 25.2917 33.8757 24.1883C33.6329 23.0849 33.8874 21.2782 34.0739 20.8703C34.2603 20.4623 35.2977 20.7265 35.2977 20.7265C34.4837 15.6758 35.6979 9.58373 43.0429 9.61093C50.3452 9.63813 51.6098 16.5694 50.6987 20.7265H50.7006Z" fill="#A57257"/>
<path fill-rule="evenodd" clip-rule="evenodd" d="M50.5588 23.7164C50.5588 23.7164 51.0814 23.5066 50.9532 22.8461C50.825 22.1837 50.7881 21.733 51.0989 21.6339C51.4097 21.5348 51.7671 22.714 51.6856 23.662C51.604 24.61 50.8716 25.7231 50.8716 25.7231C50.8716 25.7231 51.7963 24.6974 51.8138 23.221C51.8313 21.7446 51.5573 21.2026 51.1824 21.2026C50.8075 21.2026 50.6249 21.731 50.6249 21.8301C50.6249 21.9292 50.7434 22.7995 50.5608 23.7144L50.5588 23.7164Z" fill="#875B43"/>
<path fill-rule="evenodd" clip-rule="evenodd" d="M35.4182 23.7164C35.4182 23.7164 34.9054 23.5066 35.0316 22.8461C35.1579 22.1837 35.1929 21.733 34.8879 21.6339C34.5829 21.5348 34.2313 22.714 34.3129 23.662C34.3945 24.61 35.1132 25.7231 35.1132 25.7231C35.1132 25.7231 34.206 24.6974 34.1866 23.221C34.1691 21.7446 34.4391 21.2026 34.8063 21.2026C35.1754 21.2026 35.3541 21.731 35.3541 21.8301C35.3541 21.9292 35.2375 22.7995 35.4163 23.7144L35.4182 23.7164Z" fill="#875B43"/>
<path fill-rule="evenodd" clip-rule="evenodd" d="M36.0806 26.7137V26.6807C36.0806 26.6807 36.0592 26.8342 35.5949 26.8342C35.5153 26.8342 35.4201 26.7895 35.3152 26.7079C35.3754 26.7448 35.4939 26.8342 35.729 26.4748C35.9621 26.1154 35.8008 24.6837 35.8397 25.0586C35.8766 25.4336 36.1291 26.096 36.0825 26.7118L36.0806 26.7137ZM49.9197 26.7137V26.6807C49.9197 26.6807 49.9411 26.8342 50.4054 26.8342C50.485 26.8342 50.5802 26.7895 50.6851 26.7079C50.6249 26.7448 50.5064 26.8342 50.2713 26.4748C50.0382 26.1154 50.8192 24.7808 50.5686 25.1499C50.318 25.521 49.9586 26.2883 49.9197 26.7118V26.7137Z" fill="#875B43"/>
<path fill-rule="evenodd" clip-rule="evenodd" d="M39.7774 29.5231C39.5618 29.5503 39.6162 29.4978 39.6531 29.3521C39.69 29.2064 39.7774 29.3463 39.9134 29.4007C40.0513 29.4531 40.7507 29.3346 41.0537 29.2744C41.3568 29.2142 42.2232 28.9111 42.5398 29.0025C42.9478 29.121 43.0507 29.121 43.4606 29.0025C43.7773 28.9092 44.6437 29.2142 44.9467 29.2744C45.2498 29.3346 46.0676 29.4026 46.2055 29.3482C46.3435 29.2958 46.462 29.2006 46.4969 29.3463C46.5338 29.492 46.5591 29.4978 46.3415 29.4706C46.2036 29.3482 45.8908 29.5988 44.8515 29.5192C44.1017 29.4629 43.8433 29.6396 43.482 29.7018C43.2722 29.7387 42.6642 29.7329 42.4582 29.6901C42.1241 29.6202 41.856 29.4648 41.147 29.5192C40.1077 29.5988 39.9134 29.4007 39.7774 29.5231Z" fill="#693D26"/>
<path fill-rule="evenodd" clip-rule="evenodd" d="M42.2836 29.9132C42.2836 29.9132 42.9674 30.053 43.6259 29.9792C44.2864 29.9054 44.5059 29.8743 44.5117 29.9928C44.5176 30.1113 43.8765 30.5484 42.9907 30.4687C42.1049 30.3891 41.7999 29.7733 42.2836 29.9132Z" fill="#B38064"/>
<path fill-rule="evenodd" clip-rule="evenodd" d="M41.7144 30.5544C41.7144 30.5544 42.1242 30.7253 42.9518 30.7253C43.7793 30.7253 44.2883 30.4941 44.2883 30.4941C43.4064 31.2148 42.5633 31.1935 41.7144 30.5544Z" fill="#693D26"/>
<path fill-rule="evenodd" clip-rule="evenodd" d="M41.423 20.0218C41.423 20.0218 42.3496 21.0009 42.4021 21.4632C42.4545 21.9255 42.4021 22.1645 42.3496 22.9454C42.2972 23.7263 42.3496 24.4665 42.3885 25.0221C42.4273 25.5777 42.1962 24.3868 42.2156 23.2893C42.235 22.1917 42.0039 21.6886 41.3298 21.0805C40.6557 20.4725 39.4785 19.81 39.1599 19.6915C38.8432 19.573 40.6945 19.5594 41.423 20.0218Z" fill="#875B43"/>
<path fill-rule="evenodd" clip-rule="evenodd" d="M44.8632 19.9965C44.8632 19.9965 44.1483 20.6842 44.0434 21.3194C43.9366 21.9546 43.9774 22.417 44.0163 22.6559C44.0551 22.8949 44.0143 21.7779 44.8186 20.7677C45.6208 19.7576 46.4251 19.744 46.4251 19.744C46.4251 19.744 45.3139 19.6507 44.8632 19.9945V19.9965Z" fill="#875B43"/>
<path fill-rule="evenodd" clip-rule="evenodd" d="M36.8248 20.4781C36.8248 20.4781 37.6581 19.8176 38.7305 19.7904C39.8028 19.7632 40.809 20.1381 41.3238 20.3188C41.8386 20.4995 41.9843 20.3849 41.9591 20.1867C41.9319 19.9886 42.1184 19.4796 41.0072 19.2135C39.896 18.9493 38.3614 19.0076 37.594 19.4427C36.8267 19.8798 36.7781 20.1459 36.7199 20.2411C36.6616 20.3363 36.6111 20.6704 36.8267 20.4762L36.8248 20.4781Z" fill="#402F26"/>
<path fill-rule="evenodd" clip-rule="evenodd" d="M37.6096 21.3117C37.6096 21.3117 38.4391 20.4958 39.5561 20.5327C40.6731 20.5696 41.3569 21.3952 41.5745 21.5312C41.7921 21.6672 41.6813 21.2049 41.1432 20.8144C40.6051 20.422 38.9034 19.6935 37.6096 21.3117Z" fill="#452615"/>
<path fill-rule="evenodd" clip-rule="evenodd" d="M37.8816 21.7272C37.9826 21.5912 38.7402 21.0551 39.6241 21.1405C40.508 21.2241 41.2015 21.9409 41.2015 21.9409C41.2015 21.9409 41.829 22.24 41.6891 22.3857C41.5492 22.5314 41.1627 22.3896 41.1627 22.3896C41.1627 22.3896 40.1078 22.6907 39.1229 22.5217C38.138 22.3547 37.8855 21.836 37.8816 21.7272Z" fill="white"/>
<path fill-rule="evenodd" clip-rule="evenodd" d="M37.8991 22.8193C37.8991 22.8193 38.309 23.2487 39.2492 23.2661C40.1914 23.2836 40.6557 23.0389 40.6557 23.0389C40.6557 23.0389 39.8398 23.4954 38.987 23.4002C38.1342 23.305 37.8836 22.965 37.8991 22.8193Z" fill="#452615"/>
<path fill-rule="evenodd" clip-rule="evenodd" d="M37.8816 21.7276C37.8952 21.7102 37.9185 21.6849 37.9535 21.6558C38.0487 21.8792 38.3459 22.3201 39.2472 22.4717C40.372 22.662 41.1607 22.2657 41.2112 21.9433C41.2831 21.9782 41.8212 22.2483 41.691 22.3842C41.5512 22.5299 41.1646 22.3881 41.1646 22.3881C41.1646 22.3881 40.1098 22.6892 39.1249 22.5202C38.14 22.3532 37.8874 21.8345 37.8835 21.7257L37.8816 21.7276Z" fill="#D4926F"/>
<path fill-rule="evenodd" clip-rule="evenodd" d="M37.8816 21.7272C37.9826 21.5912 38.7402 21.0551 39.6241 21.1405C40.4614 21.2202 41.1277 21.8671 41.1957 21.9351C40.7392 21.7389 40.1311 21.4377 39.5095 21.4105C38.7791 21.3775 38.2293 21.7078 37.9612 21.9117C37.9049 21.8282 37.8816 21.7602 37.8796 21.7291L37.8816 21.7272Z" fill="#ADA89F"/>
<path fill-rule="evenodd" clip-rule="evenodd" d="M38.8956 21.1989C39.119 21.1426 39.3657 21.1154 39.6241 21.1387C39.8475 21.1601 40.0592 21.2223 40.2515 21.3019C40.2962 21.4126 40.3156 21.537 40.302 21.6632C40.2593 22.0809 39.8863 22.382 39.4686 22.3393C39.051 22.2965 38.7499 21.9235 38.7926 21.5059C38.8043 21.3932 38.8412 21.2883 38.8956 21.1951V21.1989Z" fill="#625D54"/>
<path d="M39.5114 21.9373C39.7048 21.9573 39.8778 21.8167 39.8978 21.6233C39.9178 21.4299 39.7772 21.2569 39.5838 21.2369C39.3904 21.2169 39.2174 21.3575 39.1974 21.5509C39.1774 21.7443 39.318 21.9173 39.5114 21.9373Z" fill="#191716"/>
<path d="M39.5385 21.6275C39.6039 21.6343 39.6624 21.5867 39.6691 21.5213C39.6759 21.4559 39.6284 21.3974 39.563 21.3907C39.4976 21.3839 39.4391 21.4314 39.4323 21.4968C39.4256 21.5622 39.4731 21.6207 39.5385 21.6275Z" fill="white"/>
<path fill-rule="evenodd" clip-rule="evenodd" d="M37.5959 21.5912C37.5959 21.5912 38.3536 21.1328 39.0976 21.0434C40.1097 20.9249 40.741 21.4242 41.3432 22.0108L41.2111 21.9409C41.2111 21.9409 40.4807 21.2552 39.6299 21.1775C38.779 21.0998 37.8932 21.7738 37.8932 21.7738C37.8932 21.7738 37.594 21.7758 37.5979 21.5893L37.5959 21.5912Z" fill="#191716"/>
<path fill-rule="evenodd" clip-rule="evenodd" d="M49.2186 20.4781C49.2186 20.4781 48.3852 19.8176 47.3129 19.7904C46.2406 19.7632 45.2343 20.1381 44.7195 20.3188C44.2047 20.4995 44.059 20.3849 44.0843 20.1867C44.1115 19.9886 43.925 19.4796 45.0361 19.2135C46.1473 18.9493 47.682 19.0076 48.4493 19.4427C49.2166 19.8798 49.2652 20.1459 49.3235 20.2411C49.3818 20.3363 49.4323 20.6704 49.2166 20.4762L49.2186 20.4781Z" fill="#402F26"/>
<path fill-rule="evenodd" clip-rule="evenodd" d="M48.4376 21.3211C48.4376 21.3211 47.612 20.5014 46.495 20.5325C45.378 20.5635 44.6903 21.3872 44.4727 21.5212C44.2552 21.6572 44.3678 21.1949 44.9059 20.8064C45.446 20.4159 47.1516 19.6952 48.4376 21.3211Z" fill="#452615"/>
<path fill-rule="evenodd" clip-rule="evenodd" d="M48.1657 21.7347C48.0646 21.5987 47.309 21.0587 46.4251 21.1383C45.5412 21.218 44.8438 21.9309 44.8438 21.9309C44.8438 21.9309 44.2144 22.2262 44.3543 22.3738C44.4941 22.5215 44.8807 22.3797 44.8807 22.3797C44.8807 22.3797 45.9336 22.6847 46.9205 22.5234C47.9054 22.3602 48.1618 21.8435 48.1657 21.7347Z" fill="white"/>
<path fill-rule="evenodd" clip-rule="evenodd" d="M48.1403 22.8267C48.1403 22.8267 47.7285 23.254 46.7863 23.2676C45.8442 23.2793 45.3818 23.0326 45.3818 23.0326C45.3818 23.0326 46.1958 23.493 47.0486 23.4017C47.9014 23.3104 48.1539 22.9704 48.1403 22.8267Z" fill="#452615"/>
<path fill-rule="evenodd" clip-rule="evenodd" d="M48.1658 21.735C48.1522 21.7175 48.1289 21.6922 48.0939 21.6631C47.9987 21.8865 47.6996 22.3255 46.7962 22.4732C45.6695 22.6577 44.8847 22.2575 44.8361 21.9351C44.7643 21.97 44.2242 22.2362 44.3544 22.3741C44.4943 22.5217 44.8808 22.3799 44.8808 22.3799C44.8808 22.3799 45.9337 22.6849 46.9206 22.5237C47.9055 22.3605 48.1619 21.8437 48.1658 21.735Z" fill="#D4926F"/>
<path fill-rule="evenodd" clip-rule="evenodd" d="M48.1656 21.7347C48.0646 21.5987 47.309 21.0587 46.4251 21.1383C45.5878 21.2141 44.9176 21.8571 44.8496 21.9251C45.3081 21.7308 45.9161 21.4336 46.5377 21.4103C47.2682 21.3812 47.816 21.7134 48.0841 21.9193C48.1423 21.8357 48.1656 21.7678 48.1656 21.7367V21.7347Z" fill="#ADA89F"/>
<path fill-rule="evenodd" clip-rule="evenodd" d="M47.1517 21.2026C46.9283 21.1462 46.6816 21.1171 46.4232 21.1404C46.1998 21.1598 45.9881 21.222 45.7958 21.3016C45.7511 21.4124 45.7297 21.5367 45.7433 21.663C45.7841 22.0806 46.1551 22.3837 46.5728 22.3429C46.9905 22.3021 47.2935 21.931 47.2527 21.5134C47.2411 21.4007 47.2061 21.2958 47.1517 21.2026Z" fill="#625D54"/>
<path d="M46.5331 21.9379C46.3396 21.9569 46.1673 21.8155 46.1483 21.622C46.1292 21.4285 46.2706 21.2562 46.4641 21.2372C46.6576 21.2181 46.8299 21.3595 46.849 21.553C46.868 21.7465 46.7266 21.9188 46.5331 21.9379Z" fill="#191716"/>
<path d="M46.5077 21.6275C46.4422 21.634 46.384 21.5861 46.3775 21.5207C46.3711 21.4553 46.4189 21.397 46.4843 21.3906C46.5497 21.3841 46.608 21.4319 46.6145 21.4974C46.6209 21.5628 46.5731 21.6211 46.5077 21.6275Z" fill="white"/>
<path fill-rule="evenodd" clip-rule="evenodd" d="M48.4492 21.6008C48.4492 21.6008 47.6935 21.1384 46.9514 21.0471C45.9413 20.9228 45.3061 21.4182 44.7019 22.0029L44.8359 21.9329C44.8359 21.9329 45.5703 21.2511 46.4211 21.1792C47.272 21.1073 48.1559 21.7853 48.1559 21.7853C48.1559 21.7853 48.455 21.7872 48.4531 21.6008H48.4492Z" fill="#191716"/>
<path fill-rule="evenodd" clip-rule="evenodd" d="M41.1433 26.8616C41.1433 26.8616 40.7722 26.5178 41.0248 26.1273C41.2754 25.7368 41.4677 25.5659 41.289 25.459C41.1102 25.3522 40.813 25.8689 40.846 26.2982C40.8791 26.7276 41.0306 26.8538 41.1433 26.8597V26.8616Z" fill="#693D26"/>
<path fill-rule="evenodd" clip-rule="evenodd" d="M45.0167 26.8616C45.0167 26.8616 45.3878 26.5178 45.1352 26.1273C44.8846 25.7368 44.6923 25.5659 44.871 25.459C45.0498 25.3522 45.347 25.8689 45.314 26.2982C45.2809 26.7276 45.1294 26.8538 45.0167 26.8597V26.8616Z" fill="#693D26"/>
<path d="M43.0586 25.9875C43.1605 25.9875 43.2431 25.41 43.2431 24.6976C43.2431 23.9852 43.1605 23.4077 43.0586 23.4077C42.9566 23.4077 42.874 23.9852 42.874 24.6976C42.874 25.41 42.9566 25.9875 43.0586 25.9875Z" fill="#B38064"/>
<path d="M42.9652 26.9782C43.1004 26.9782 43.21 26.866 43.21 26.7276C43.21 26.5892 43.1004 26.4771 42.9652 26.4771C42.83 26.4771 42.7205 26.5892 42.7205 26.7276C42.7205 26.866 42.83 26.9782 42.9652 26.9782Z" fill="#B38064"/>
<path fill-rule="evenodd" clip-rule="evenodd" d="M41.7647 27.1803C41.6695 27.1958 41.1159 26.9744 41.0634 26.8384C41.011 26.7024 41.2674 26.6344 41.6792 27.0113C42.0891 27.3882 42.5631 27.7592 42.7807 27.8311C42.839 27.8505 42.8972 27.8622 42.9497 27.868L42.9458 27.866C42.9458 27.866 42.9769 27.8719 43.0255 27.8738H43.0293H43.0313H43.0371H43.0429H43.0449H43.0507H43.0546H43.0585H43.0624H43.0662H43.0701H43.0721H43.0779H43.0798H43.0857H43.0876H43.0915H43.0954H43.0993H43.1032H43.107H43.1129H43.1148H43.1206H43.1265H43.1284H43.1323C43.1809 27.8719 43.2119 27.866 43.2119 27.866L43.2081 27.868C43.2625 27.8622 43.3188 27.8505 43.3771 27.8311C43.5946 27.7592 44.0686 27.3882 44.4785 27.0113C44.8884 26.6344 45.1468 26.7024 45.0943 26.8384C45.0419 26.9744 44.4882 27.1958 44.3931 27.1803C44.2435 27.2658 44.1153 27.4154 43.6879 27.7087C43.4276 27.8874 43.21 27.9068 43.0779 27.8952C42.9458 27.9068 42.7263 27.8874 42.4679 27.7087C42.0405 27.4134 41.9123 27.2658 41.7628 27.1803H41.7647Z" fill="#422A1E"/>
</g>
<defs>
<clipPath id="clip0">
<rect width="84.6667" height="211.667" fill="white" transform="translate(0.666748)"/>
</clipPath>
</defs>
</svg>
