<svg width="85" height="212" viewBox="0 0 85 212" fill="none" xmlns="http://www.w3.org/2000/svg">
<path fill-rule="evenodd" clip-rule="evenodd" d="M37.0414 192.131C37.0414 192.131 37.3295 192.984 37.4844 194.337C37.6393 195.69 37.6262 196.31 37.6262 196.31C37.6262 196.31 36.9476 197.313 35.49 197.881C34.0325 198.448 33.2382 198.45 33.2382 198.45L31.7872 198.193C31.7872 198.193 31.2133 198.725 30.1092 200.351C29.0051 201.976 27.445 203.043 25.1866 203.349C22.9283 203.654 18.8021 203.556 17.818 203.12C16.8339 202.683 15.9502 201.568 15.9393 201.215C15.9306 200.861 15.5815 200.01 16.8449 198.854C18.1082 197.7 24.3488 194.431 25.6689 192.127C26.989 189.825 36.1752 189.72 37.0349 192.131H37.0414Z" fill="#424852"/>
<path fill-rule="evenodd" clip-rule="evenodd" d="M36.6007 195.343C36.6007 195.343 34.7241 196.148 33.3909 196.918C32.0577 197.691 31.5515 198.031 30.6634 198.95C29.7754 199.866 28.7367 201.728 26.6813 202.4C24.6237 203.072 19.2974 203.231 18.285 202.795C17.2725 202.358 16.4761 201.317 16.4761 201.317C16.4761 201.317 17.8376 202.666 19.5178 202.701C21.1979 202.736 25.1801 202.467 26.4064 202.079C27.6326 201.69 28.9047 200.859 30.371 198.496C31.8373 196.133 35.706 195.467 36.6007 195.345V195.343ZM23.2032 200.709C23.2032 200.709 21.3943 200.82 19.3323 200.213C17.2681 199.604 17.5976 198.705 17.5976 198.705C17.5976 198.705 16.3582 200.229 18.6319 200.938C20.9033 201.647 23.2054 200.709 23.2054 200.709H23.2032ZM27.0893 193.741C27.0893 193.741 26.6595 194.156 26.9344 194.566C27.2115 194.976 27.9294 197.564 27.9294 197.564C27.9294 197.564 26.9322 195.553 26.5591 194.907C26.1882 194.261 26.1336 193.923 26.2012 193.702C26.2689 193.482 26.3103 193.364 26.3103 193.364C26.3103 193.364 26.7664 193.301 27.0871 193.744L27.0893 193.741Z" fill="#58606D"/>
<path fill-rule="evenodd" clip-rule="evenodd" d="M60.9846 191.078C60.9846 191.078 63.2299 195.586 63.483 196.371C63.7383 197.157 63.8147 199.862 63.8147 199.862C63.8147 199.862 64.0198 203.565 60.0202 203.805C56.0206 204.045 54.3448 201.726 54.227 199.786C54.1091 197.846 53.8888 195.206 53.28 193.934C52.6712 192.662 52.6712 192.662 52.6712 192.662C52.6712 192.662 52.2326 190.294 52.7083 189.393C53.184 188.492 60.0224 190.292 60.9868 191.08L60.9846 191.078Z" fill="#424852"/>
<path fill-rule="evenodd" clip-rule="evenodd" d="M62.8611 199.753C62.8611 199.753 62.6036 202.147 59.7801 202.374C56.9566 202.598 55.6321 200.53 55.4619 199.712C55.2917 198.893 55.8852 201.198 58.5429 201.331C61.1984 201.466 62.381 200.478 62.8611 199.753ZM58.6258 192.627C58.6258 192.627 59.2739 194.206 59.9045 194.669C60.5373 195.132 61.9446 195.459 61.9446 195.459C61.9446 195.459 60.0376 194.721 59.7517 193.966C59.4659 193.211 59.2586 192.631 59.2586 192.631C59.2586 192.631 59.0382 192.125 58.6258 192.627ZM56.3304 192.788C56.3304 192.788 56.7428 193.862 56.5857 194.545C56.4285 195.228 55.6561 196.14 55.6561 196.14C55.6561 196.14 56.937 195.001 57.0635 194.23C57.1901 193.46 56.9217 192.851 56.9217 192.851C56.9217 192.851 56.6642 192.64 56.3304 192.786V192.788Z" fill="#58606D"/>
<path fill-rule="evenodd" clip-rule="evenodd" d="M59.5291 86.3437C59.5291 86.3437 66.2366 95.5321 65.6016 104.952C64.9667 114.372 64.1899 138 64.1899 138L64.5608 150.35L62.3155 184.582L61.7657 191.16C61.7657 191.16 57.1246 192.094 55.1411 192.169C53.1577 192.245 52.322 191.994 52.322 191.994C52.322 191.994 50.38 188.784 50.4804 187.606C50.5808 186.428 50.74 181.237 50.5327 180.211C50.3233 179.186 46.2342 148.258 46.3673 144.354C46.5004 140.451 46.208 138.91 46.1273 138.304C46.0466 137.697 44.5453 115.419 44.5453 115.419C44.5453 115.419 39.8802 146.434 40.5676 147.911C41.2571 149.388 41.4927 171.97 39.8148 180.113C38.1368 188.256 38.8329 188.54 38.8329 188.54L37.2466 192.895C37.2466 192.895 34.5343 194.052 31.0126 193.622C27.4908 193.192 25.9373 191.636 25.9373 191.636C25.9373 191.636 26.5788 189.083 26.6028 187.015C26.6268 184.946 24.3946 144.562 24.2418 142.502C24.0891 140.44 22.278 112.683 21.9944 106.586C21.7107 100.49 27.7025 85.9575 27.7025 85.9575C27.7025 85.9575 52.0383 86.3961 59.5313 86.3459L59.5291 86.3437Z" fill="#23314B"/>
<path fill-rule="evenodd" clip-rule="evenodd" d="M41.2397 95.6413C41.2397 95.6413 41.1328 106.508 41.2222 107.743C41.3095 108.978 43.9563 110.83 43.9563 110.83C43.9563 110.83 42.0165 108.14 42.1037 107.479C42.191 106.818 42.3416 95.554 42.3416 95.554C42.3416 95.554 41.8114 95.4668 41.2397 95.6413Z" fill="#192233"/>
<path d="M16.8057 103.798C16.8057 103.798 18.7258 105.299 18.6931 107.961C18.6844 108.639 18.1345 109.933 17.9163 110.581C17.7941 110.948 17.5017 111.677 17.4777 112.059C17.4407 112.641 17.7592 113.8 17.7243 114.382C17.6807 115.111 17.1243 116.962 16.33 117.01C15.5423 117.058 14.9772 115.144 14.9204 114.422C14.8703 113.769 15.7103 112.214 15.1452 111.814C14.951 111.677 14.519 111.943 14.316 112.065C14.148 112.168 13.764 112.395 13.6898 112.567C13.5872 112.801 13.4716 113.254 13.3865 113.449C13.3516 113.531 13.0527 114.007 13.1312 114.3C13.2905 114.897 13.5676 116.898 13.5676 116.898C13.5676 116.898 14.5953 117.378 15.0448 117.823C15.2565 118.031 16.3016 118.356 16.5569 118.504C16.9388 118.727 17.5148 119.508 17.2334 119.835C16.8384 120.289 14.9554 119.888 14.2898 119.519C13.3603 119.004 11.7129 118.406 11.3354 117.679C10.9754 116.986 10.7114 114.734 10.4648 114.088C10.2597 113.553 10.1768 113.37 10 112.783C9.8102 112.157 10.4713 109.857 11.0234 107.976C11.4751 106.444 12.6337 103.898 12.6337 103.898L16.8101 103.795L16.8057 103.798Z" fill="#A57257"/>
<path d="M17.5191 115.386C17.6129 115.541 17.7504 115.766 17.8115 115.864C17.9795 116.135 18.525 116.63 18.4944 116.94C18.4813 117.077 18.1039 117.354 18.1039 117.354C18.1039 117.354 19.1316 118.273 19.125 118.679C19.1229 118.812 18.7803 119.098 18.7803 119.098C18.7803 119.098 18.7825 119.776 18.6035 119.896C18.3657 120.056 17.7002 119.949 17.2267 119.846L17.2376 119.835C17.5191 119.51 16.9452 118.727 16.5612 118.504C16.3059 118.356 15.2607 118.031 15.0491 117.823C14.689 117.468 13.8315 117.095 13.5566 116.957L13.5653 116.844C13.5195 116.523 13.2816 114.836 13.1376 114.297C13.0591 114.005 13.358 113.529 13.3929 113.446C13.478 113.25 13.5937 112.798 13.6962 112.565C13.7726 112.395 14.1544 112.166 14.3225 112.063C14.5254 111.941 14.9574 111.677 15.1516 111.812C15.7168 112.211 14.8767 113.767 14.9269 114.42C14.9836 115.142 15.5487 117.055 16.3364 117.007C16.8645 116.975 17.2856 116.148 17.5234 115.384L17.5191 115.386ZM12.6249 103.898C12.6249 103.898 12.3717 104.481 12.2757 104.692C12.171 104.926 11.9768 105.39 11.9768 105.39C11.9768 105.39 14.137 105.273 14.8876 105.273C16.5983 105.275 18.3068 105.901 18.3068 105.901C18.3068 105.901 18.093 105.38 17.8224 104.945C17.5845 104.566 17.0783 103.891 17.0783 103.891L14.713 103.651L12.6249 103.896V103.898Z" fill="#875B43"/>
<path d="M11.835 102.176L11.739 104.35C11.739 104.35 14.1239 104.297 14.9531 104.36C17.7504 104.581 18.5818 104.963 18.5818 104.963L19.0967 102.181L11.835 102.176Z" fill="#C4C2CC"/>
<path d="M36.0575 28.3549C42.4398 28.3549 42.706 27.7832 49.2215 27.7832C49.0666 28.9855 50.0223 34.9903 51.3773 36.4545L49.8172 43.8842L47.4344 59.1145L34.9992 48.8351L33.9104 38.4488C36.3302 36.5396 36.4088 30.4169 36.0619 28.3571L36.0575 28.3549Z" fill="#A57257"/>
<path d="M36.1251 28.3548C42.5424 28.3548 42.7693 27.8354 49.3196 27.8354C49.2651 28.2609 49.396 29.3061 49.4549 30.5433C48.7065 31.6038 47.6177 32.7733 44.7113 34.7C41.8048 36.6245 38.1936 35.8412 35.8611 34.292C36.0706 31.8721 36.3106 29.4632 36.1229 28.3569L36.1251 28.3548ZM50.4957 34.7917C50.6856 35.4506 50.9671 35.9634 51.2616 36.282L49.8542 43.8841L48.3072 53.7227C47.5762 55.309 46.7427 56.7273 45.8481 57.7921L35.3047 49.123C35.1519 48.6997 35.0036 48.2742 34.8617 47.8466L33.906 38.4487C34.9599 37.6348 35.3396 36.6093 35.7389 34.9793L35.9091 35.2739C35.9091 35.2739 36.7906 39.6379 37.8707 42.1974C38.9508 44.7547 39.5748 46.6072 39.4068 47.4233C39.2388 48.2393 39.4788 48.7019 39.9109 49.3849C40.3429 50.0678 42.047 52.3393 42.1452 51.9204C42.2412 51.5014 42.5053 49.23 43.7054 47.6873C44.9055 46.1446 46.2998 45.0863 45.7935 44.1808C45.2895 43.2775 45.4553 42.5574 46.3936 41.2046C47.3318 39.8517 49.8826 36.6529 50.4957 34.7917ZM42.3111 37.2137C42.3111 37.2137 42.1671 38.2501 42.5031 38.9113C42.8391 39.5724 43.3672 39.2429 43.3672 39.2429C43.3672 39.2429 42.4551 38.8065 42.3111 37.2137Z" fill="#875B43"/>
<path d="M31.4011 90.2451C43.4283 93.2803 52.2785 93.0315 61.2029 88.4166C59.3591 84.5915 57.788 81.3273 55.9442 77.5022C50.0987 63.3607 52.3789 44.3315 53.0596 37.6895C51.8705 36.4763 51.5802 35.4856 51.5802 35.4856C51.5802 35.4856 51.0522 35.1038 50.7729 35.4616C50.2667 38.235 46.1863 41.7414 46.1253 42.551C45.8329 43.6201 47.0439 43.5809 46.9173 44.1962C46.6686 45.3941 44.8531 47.3012 44.2422 48.3834C43.4938 49.7057 42.9024 54.5192 42.9024 54.5192C42.9024 54.5192 40.6441 51.6652 40.1182 51.0084C37.838 48.0321 38.8767 48.4336 38.8374 46.8211C38.8243 46.3018 38.8156 45.968 38.3159 44.4515C37.8446 43.0201 36.2102 39.7471 35.6342 35.4638C35.608 35.274 34.8334 35.8959 34.709 36.1272C33.7097 38.1106 33.749 39.4351 32.6732 42.3066C30.153 53.3824 41.3336 77.1946 31.4055 90.2407L31.4011 90.2451Z" fill="#F2F1F6"/>
<path d="M52.0036 36.3848C52.0036 36.3848 50.8384 40.692 49.826 45.427C49.7125 44.7571 49.3525 43.6334 49.3197 43.2777C49.1714 41.6783 48.3051 41.3794 47.7094 41.3685C46.9675 41.3532 46.2147 42.0667 46.0838 42.7038C46.0315 42.9591 46.1187 43.2122 46.2824 43.4304C46.134 43.1228 46.1384 42.7693 46.7275 42.0863C47.3167 41.4034 48.7197 42.1889 48.903 42.8697C49.1364 43.7425 49.6448 45.0669 49.8063 45.5252C49.3154 47.8294 48.8615 50.2252 48.5975 52.2741C47.86 57.9822 48.5604 69.7366 50.2907 75.2047C51.7505 79.8087 56.9087 85.0041 57.4237 89.1433C51.5454 92.2963 42.3679 92.8244 35.8655 89.9921C36.1972 86.5336 37.9144 76.9416 37.8948 72.7805C37.8664 67.3124 35.4684 53.3782 34.7265 48.8374C34.6414 48.3116 34.5738 47.7399 34.5236 47.1398C34.8574 46.9325 35.2262 46.614 35.5077 46.1339C36.1841 44.9884 37.6046 45.715 38.0126 46.398C38.4206 47.0809 38.5494 47.633 38.5494 47.633C38.5494 47.633 39.1232 45.9572 37.777 44.7898C36.4307 43.6203 35.6539 44.9447 34.9513 46.1558C34.792 46.4307 34.6392 46.6489 34.4974 46.8234C34.1592 42.2805 34.4516 36.6859 34.4516 36.6859C34.1701 37.0415 33.9868 37.1768 33.773 37.4627C26.0378 50.4019 38.988 78.9359 30.5327 89.9943C44.5979 93.815 51.8268 92.6062 61.3905 88.8509C47.0897 59.6711 55.8679 54.7899 53.0619 37.6918C52.7106 37.2576 52.3593 36.8212 52.008 36.3869L52.0036 36.3848Z" fill="#C4C2CC"/>
<path d="M65.0083 97.6922C65.0083 97.6922 64.5675 98.4886 64.489 98.7003C64.2468 99.3287 63.5202 101.69 63.5202 101.69L59.3918 94.0548L60.605 93.1318L65.0083 97.6944V97.6922Z" fill="#875B43"/>
<path d="M59.6951 93.8237L59.2151 95.1613C59.2151 95.1613 61.3993 96.3352 62.1302 96.7192C63.1121 97.2233 64.9341 98.0066 64.9341 98.0066C64.9341 98.0066 65.2549 97.2037 65.3247 96.9178C65.3727 96.7214 65.6782 95.7243 65.6782 95.7243L59.6951 93.8237Z" fill="#C4C2CC"/>
<path d="M33.8274 37.3711C33.8274 37.3711 31.3574 39.2716 28.2371 40.1619C18.8523 42.8326 16.7685 44.731 16.4216 54.1027C16.1859 60.4916 15.4833 65.4643 14.3879 71.6481C12.9107 77.6137 12.4198 80.9718 12.1929 85.5889C11.9659 90.206 11.4924 102.539 11.4924 102.539C13.1355 102.506 17.6588 102.694 19.0705 102.995C20.7637 95.8181 23.4061 82.4468 24.4797 79.8262C24.5735 82.868 23.0047 87.8495 22.206 92.9684C21.6278 96.6713 21.0147 107.328 21.0147 107.328C21.0147 107.328 25.8129 111.291 27.3316 110.248C30.6591 107.963 32.7495 99.2308 35.1868 87.8102C36.269 82.7458 36.5592 72.2613 36.2058 67.487C35.885 63.1536 34.207 54.3209 33.7946 50.306C33.4608 47.0504 33.8274 37.3711 33.8274 37.3711Z" fill="#23314B"/>
<path d="M52.0798 36.4785C52.0798 36.4785 49.4243 47.1223 49.2366 50.9059C49.121 53.2581 48.9159 57.9734 48.9791 60.3234C49.0708 63.7186 49.0642 71.2094 49.9043 74.4846C50.5371 76.9546 52.5249 80.6356 54.3316 82.4794C57.8577 86.0775 58.5647 94.3429 58.5647 94.3429C61.4864 95.6871 64.0131 96.8195 65.6933 97.533C65.6933 97.533 68.3684 92.6781 70.8755 87.6289C73.4197 82.51 75.1893 75.1414 75.3966 72.9201C75.4577 72.2611 74.9144 66.001 73.3673 59.791C71.6283 52.8086 69.8543 46.9368 68.1196 44.5912C66.7493 42.7409 55.4597 38.3201 52.0798 36.4785ZM62.3941 74.6766C62.01 70.7817 60.919 64.934 60.919 64.934C60.919 64.934 61.4602 67.2643 62.5664 70.3911C63.8015 73.8802 64.4037 74.3427 64.4604 74.6046C64.2728 75.6323 64.0109 76.6208 63.3694 79.0624C63.2341 78.5147 62.4814 75.6563 62.3963 74.6766H62.3941Z" fill="#23314B"/>
<path d="M30.8883 39.9697C30.4825 40.8447 26.3476 47.9122 26.304 48.5974C26.5483 49.5902 29.2453 55.2197 30.3996 57.6963C29.398 54.3731 27.9579 50.0266 28.1063 48.6803C28.2481 47.4103 30.1268 42.2456 30.8883 39.9697Z" fill="#35496E"/>
<path d="M64.7528 75.1499C63.5658 81.205 60.3801 86.2868 58.9465 93.4874C58.9771 93.7013 59.2913 94.3297 59.372 94.7246C61.3446 89.8217 65.102 79.8521 64.7528 75.1499Z" fill="#182234"/>
<path fill-rule="evenodd" clip-rule="evenodd" d="M57.4541 48.2352L53.424 49.2018L57.4563 49.1778C56.7886 51.5693 52.8937 65.7326 50.895 73.566C53.1534 66.7451 58.4251 48.6759 58.4251 48.6759C58.4251 48.6759 57.3886 43.0333 53.4981 38.4751C55.7434 41.543 56.7995 44.5563 57.4541 48.2352Z" fill="#182234"/>
<path fill-rule="evenodd" clip-rule="evenodd" d="M26.2515 48.2353L30.2817 49.2019L26.2493 49.1779C26.917 51.5694 33.5939 64.1333 35.5926 71.9667C33.3343 65.1458 25.2805 48.676 25.2805 48.676C25.2805 48.676 26.5243 44.9797 30.7835 40.0244C28.5382 43.0923 26.9694 45.7063 26.2515 48.2353Z" fill="#182234"/>
<path d="M28.6321 40.4387C18.7149 44.0368 17.5541 44.5278 17.0588 54.6762C16.9344 57.2292 16.8231 59.409 16.6551 61.4448C16.5395 62.1736 16.426 62.8457 16.3496 63.4304C16.2209 64.4429 15.9459 66.4503 15.7496 67.4431C15.4092 69.1516 15.0993 70.7183 14.8179 72.2042C14.628 72.9396 14.4535 73.6313 14.292 74.2881C15.3023 75.894 18.3941 56.1011 18.8087 51.3203C19.2844 45.8217 23.1487 42.9153 26.6923 41.4337C27.4691 41.1086 28.1084 40.7682 28.6299 40.4365L28.6321 40.4387Z" fill="#35496E"/>
<path fill-rule="evenodd" clip-rule="evenodd" d="M34.2683 92.9462C39.8127 95.8854 48.9226 94.6547 58.1677 91.541L58.4404 92.1607C51.5431 95.0453 40.9277 97.1117 34.0522 93.8474L34.2683 92.9462Z" fill="#192233"/>
<path d="M74.3952 67.8471C74.0766 65.5756 73.59 62.7739 72.894 59.9853C71.1964 53.171 69.4661 47.441 67.7728 45.1521C66.6076 43.5767 58.0782 40.0942 53.7273 38.0366C53.7273 38.0366 64.2402 43.9062 66.049 45.558C67.6594 47.0308 71.528 58.6761 74.3974 67.8471H74.3952Z" fill="#35496E"/>
<path d="M21.7893 107.882C21.7893 107.882 25.7409 111.642 27.2727 110.599C30.6002 108.334 34.0587 97.0159 34.8573 88.5366C33.1793 93.9654 29.5485 105.129 27.6414 107.457C25.7365 109.785 21.7893 107.884 21.7893 107.884V107.882Z" fill="#192233"/>
<path fill-rule="evenodd" clip-rule="evenodd" d="M50.3694 20.7226C50.3694 20.7226 51.4059 20.4586 51.5935 20.8666C51.7812 21.2747 52.0343 23.0814 51.7921 24.1854C51.5499 25.2874 50.5353 26.8322 50.0727 26.8322C49.6101 26.8322 49.5883 26.6773 49.5883 26.6773C49.3046 30.738 48.0761 31.1853 44.8031 34.2401C44.1529 34.8467 41.1592 34.8227 40.5352 34.2401C37.2643 31.1853 35.9682 30.8034 35.75 26.6773C35.75 26.6773 35.7282 26.8322 35.2656 26.8322C34.803 26.8322 33.7884 25.2895 33.5462 24.1854C33.304 23.0835 33.5571 21.2747 33.7448 20.8666C33.9324 20.4586 34.9689 20.7226 34.9689 20.7226C34.155 15.6713 35.3704 9.58132 42.715 9.60751C50.0181 9.63369 51.2815 16.5659 50.3716 20.7226H50.3694Z" fill="#A57257"/>
<path fill-rule="evenodd" clip-rule="evenodd" d="M50.2253 23.7119C50.2253 23.7119 50.7468 23.5024 50.6181 22.8413C50.4894 22.1801 50.4545 21.7285 50.7643 21.6281C51.0763 21.5299 51.432 22.7082 51.3491 23.6574C51.2662 24.6065 50.5352 25.7193 50.5352 25.7193C50.5352 25.7193 51.4604 24.6938 51.4778 23.2166C51.4953 21.7394 51.2225 21.1982 50.8472 21.1982C50.4719 21.1982 50.2886 21.7285 50.2886 21.8267C50.2886 21.9248 50.4086 22.7976 50.2253 23.7119Z" fill="#875B43"/>
<path fill-rule="evenodd" clip-rule="evenodd" d="M35.0867 23.7119C35.0867 23.7119 34.5739 23.5024 34.7005 22.8413C34.827 22.1801 34.8619 21.7285 34.5564 21.6281C34.251 21.5299 33.8997 22.7082 33.9804 23.6574C34.0611 24.6065 34.7812 25.7193 34.7812 25.7193C34.7812 25.7193 33.8735 24.6938 33.856 23.2166C33.8386 21.7394 34.107 21.1982 34.4757 21.1982C34.8445 21.1982 35.0234 21.7285 35.0234 21.8267C35.0234 21.9248 34.9056 22.7976 35.0867 23.7119Z" fill="#875B43"/>
<path fill-rule="evenodd" clip-rule="evenodd" d="M35.7478 26.7078V26.6751C35.7478 26.6751 35.726 26.83 35.2634 26.83C35.1849 26.83 35.0889 26.7842 34.9841 26.7035C35.043 26.7406 35.1631 26.83 35.3965 26.47C35.63 26.11 35.4685 24.6786 35.5056 25.0539C35.5427 25.4292 35.7958 26.0903 35.7478 26.7078ZM49.5861 26.7078V26.6751C49.5861 26.6751 49.6079 26.83 50.0705 26.83C50.149 26.83 50.245 26.7842 50.3498 26.7035C50.2909 26.7406 50.1708 26.83 49.9374 26.47C49.7039 26.11 50.4851 24.7768 50.2341 25.1455C49.9832 25.5165 49.6232 26.2823 49.5861 26.7078Z" fill="#875B43"/>
<path fill-rule="evenodd" clip-rule="evenodd" d="M39.4442 29.5161C39.2282 29.5423 39.2849 29.4921 39.3199 29.3459C39.357 29.1997 39.4442 29.3415 39.5817 29.3939C39.7192 29.4463 40.4196 29.3284 40.7207 29.2673C41.024 29.2084 41.8903 28.9029 42.2066 28.9968C42.6147 29.1168 42.7172 29.1168 43.1274 28.9968C43.4438 28.9051 44.3101 29.2084 44.6134 29.2673C44.9167 29.3263 45.7349 29.3939 45.8724 29.3415C46.0099 29.2892 46.1277 29.1953 46.1648 29.3393C46.2019 29.4855 46.2259 29.4899 46.0099 29.4637C45.8724 29.3415 45.5582 29.5903 44.5196 29.5117C43.769 29.455 43.5115 29.6317 43.1493 29.695C42.9398 29.7321 42.331 29.7277 42.1259 29.6841C41.7921 29.6143 41.5237 29.4572 40.8145 29.5117C39.7759 29.5903 39.5817 29.3917 39.4442 29.5139V29.5161Z" fill="#693D26"/>
<path fill-rule="evenodd" clip-rule="evenodd" d="M41.9512 29.9064C41.9512 29.9064 42.6341 30.0461 43.2931 29.9719C43.9521 29.8999 44.1724 29.8671 44.179 29.985C44.1855 30.105 43.544 30.5414 42.6581 30.4606C41.7722 30.3821 41.4668 29.7668 41.9512 29.9042V29.9064Z" fill="#B38064"/>
<path fill-rule="evenodd" clip-rule="evenodd" d="M41.3818 30.5482C41.3818 30.5482 41.7921 30.7205 42.619 30.7205C43.446 30.7205 43.9544 30.4893 43.9544 30.4893C43.0729 31.2115 42.2285 31.1897 41.3818 30.5482Z" fill="#693D26"/>
<path fill-rule="evenodd" clip-rule="evenodd" d="M41.0915 20.0158C41.0915 20.0158 42.0166 20.9955 42.0712 21.4581C42.1236 21.9206 42.0712 22.1585 42.0188 22.9396C41.9664 23.7208 42.0188 24.4605 42.0581 25.0169C42.0974 25.5733 41.8661 24.3819 41.8857 23.2844C41.9054 22.1868 41.6741 21.6828 40.9998 21.074C40.3256 20.4653 39.1473 19.8041 38.8309 19.6841C38.5123 19.5641 40.3649 19.551 41.0937 20.0158H41.0915Z" fill="#875B43"/>
<path fill-rule="evenodd" clip-rule="evenodd" d="M44.5303 19.9893C44.5303 19.9893 43.8168 20.6767 43.7099 21.3116C43.603 21.9466 43.6444 22.4092 43.6837 22.647C43.723 22.8849 43.6815 21.7699 44.4867 20.7596C45.2897 19.7493 46.0927 19.7362 46.0927 19.7362C46.0927 19.7362 44.982 19.6446 44.5325 19.9872L44.5303 19.9893Z" fill="#875B43"/>
<path fill-rule="evenodd" clip-rule="evenodd" d="M36.4919 20.4738C36.4919 20.4738 37.3254 19.8126 38.3968 19.7864C39.4682 19.7602 40.4741 20.1355 40.989 20.3166C41.504 20.4978 41.6502 20.3821 41.624 20.1835C41.5978 19.985 41.7833 19.4766 40.6705 19.2104C39.5598 18.9464 38.0259 19.0031 37.2578 19.4395C36.4897 19.8759 36.4417 20.1421 36.385 20.2381C36.3261 20.3341 36.2759 20.6679 36.4919 20.4738Z" fill="#402F26"/>
<path fill-rule="evenodd" clip-rule="evenodd" d="M37.2773 21.3049C37.2773 21.3049 38.1065 20.4889 39.2237 20.5259C40.3409 20.563 41.0238 21.3878 41.242 21.5253C41.4581 21.6606 41.349 21.2002 40.8122 20.8074C40.2754 20.4147 38.5735 19.6859 37.2795 21.3049H37.2773Z" fill="#452615"/>
<path fill-rule="evenodd" clip-rule="evenodd" d="M37.5479 21.7215C37.6504 21.5863 38.4076 21.0495 39.2913 21.1346C40.175 21.2197 40.8689 21.9332 40.8689 21.9332C40.8689 21.9332 41.4973 22.2321 41.3576 22.3783C41.218 22.5245 40.8296 22.3827 40.8296 22.3827C40.8296 22.3827 39.7735 22.6838 38.7894 22.5158C37.8053 22.3478 37.5522 21.8285 37.5479 21.7215Z" fill="white"/>
<path fill-rule="evenodd" clip-rule="evenodd" d="M37.5675 22.8125C37.5675 22.8125 37.9756 23.2424 38.9182 23.2598C39.8608 23.2773 40.3234 23.0329 40.3234 23.0329C40.3234 23.0329 39.5073 23.4889 38.6542 23.3951C37.801 23.2991 37.5501 22.9587 37.5653 22.8147L37.5675 22.8125Z" fill="#452615"/>
<path fill-rule="evenodd" clip-rule="evenodd" d="M37.5479 21.7219C37.5609 21.7045 37.5849 21.6805 37.6199 21.6499C37.7137 21.8746 38.0104 22.3132 38.9138 22.466C40.0397 22.6558 40.8274 22.2587 40.8776 21.9357C40.9496 21.9707 41.4885 22.2412 41.3576 22.3765C41.218 22.5227 40.8296 22.3809 40.8296 22.3809C40.8296 22.3809 39.7735 22.682 38.7894 22.514C37.8053 22.346 37.5522 21.8266 37.5479 21.7197V21.7219Z" fill="#D4926F"/>
<path fill-rule="evenodd" clip-rule="evenodd" d="M37.5479 21.7215C37.6504 21.5863 38.4076 21.0495 39.2913 21.1346C40.1292 21.2131 40.7947 21.8612 40.8623 21.9288C40.4063 21.7324 39.7975 21.4335 39.1756 21.4051C38.4468 21.3724 37.8948 21.7019 37.6286 21.907C37.5719 21.8241 37.5479 21.7565 37.5479 21.7237V21.7215Z" fill="#ADA89F"/>
<path fill-rule="evenodd" clip-rule="evenodd" d="M38.5625 21.1938C38.7851 21.1371 39.0338 21.1109 39.2913 21.1349C39.5161 21.1567 39.7277 21.2178 39.9175 21.2985C39.9634 21.4098 39.9808 21.532 39.9677 21.6607C39.9241 22.0775 39.551 22.3808 39.1342 22.3372C38.7174 22.2935 38.4142 21.9204 38.4578 21.5036C38.4687 21.3902 38.5058 21.2854 38.5603 21.1938H38.5625Z" fill="#625D54"/>
<path d="M39.1788 21.93C39.3717 21.9499 39.5443 21.8097 39.5642 21.6168C39.5842 21.424 39.444 21.2514 39.2511 21.2315C39.0582 21.2115 38.8857 21.3517 38.8657 21.5446C38.8458 21.7375 38.9859 21.91 39.1788 21.93Z" fill="#191716"/>
<path d="M39.2057 21.6205C39.2709 21.6272 39.3293 21.5798 39.336 21.5146C39.3428 21.4494 39.2954 21.391 39.2302 21.3843C39.1649 21.3775 39.1066 21.4249 39.0998 21.4902C39.0931 21.5554 39.1405 21.6137 39.2057 21.6205Z" fill="white"/>
<path fill-rule="evenodd" clip-rule="evenodd" d="M37.2643 21.5866C37.2643 21.5866 38.0214 21.1284 38.7655 21.0389C39.7779 20.9189 40.4085 21.4186 41.0108 22.0056L40.8777 21.9357C40.8777 21.9357 40.1467 21.2506 39.2957 21.1742C38.4447 21.0979 37.5588 21.7699 37.5588 21.7699C37.5588 21.7699 37.2577 21.7699 37.2643 21.5844V21.5866Z" fill="#191716"/>
<path fill-rule="evenodd" clip-rule="evenodd" d="M48.8879 20.4738C48.8879 20.4738 48.0544 19.8126 46.983 19.7864C45.9116 19.7602 44.9057 20.1355 44.3908 20.3166C43.8758 20.4978 43.7296 20.3821 43.7558 20.1835C43.782 19.985 43.5965 19.4766 44.7094 19.2104C45.82 18.9464 47.3539 19.0031 48.122 19.4395C48.8901 19.8759 48.9381 20.1421 48.9948 20.2381C49.0537 20.3341 49.1039 20.6679 48.8879 20.4738Z" fill="#402F26"/>
<path fill-rule="evenodd" clip-rule="evenodd" d="M48.1066 21.3162C48.1066 21.3162 47.2818 20.4958 46.1646 20.5285C45.0474 20.5591 44.3601 21.3817 44.1419 21.517C43.9237 21.6523 44.0372 21.1919 44.5761 20.8013C45.1151 20.4107 46.8214 19.6906 48.1066 21.3162Z" fill="#452615"/>
<path fill-rule="evenodd" clip-rule="evenodd" d="M47.8318 21.7308C47.7315 21.5955 46.9765 21.0544 46.0906 21.1351C45.2069 21.2159 44.5087 21.9272 44.5087 21.9272C44.5087 21.9272 43.8802 22.2239 44.0177 22.3701C44.1574 22.5163 44.5458 22.3767 44.5458 22.3767C44.5458 22.3767 45.5997 22.6822 46.5859 22.5185C47.5722 22.3549 47.8275 21.8377 47.8318 21.7308Z" fill="white"/>
<path fill-rule="evenodd" clip-rule="evenodd" d="M47.8076 22.8218C47.8076 22.8218 47.3974 23.2495 46.4548 23.2625C45.5121 23.2756 45.0496 23.0291 45.0496 23.0291C45.0496 23.0291 45.8634 23.4895 46.7166 23.3978C47.5698 23.3062 47.8229 22.968 47.8076 22.8218Z" fill="#452615"/>
<path fill-rule="evenodd" clip-rule="evenodd" d="M47.8317 21.7307C47.8186 21.7132 47.7946 21.6892 47.7597 21.6587C47.6637 21.8813 47.3648 22.3198 46.4614 22.4682C45.3355 22.6537 44.55 22.2522 44.4998 21.9293C44.4278 21.9642 43.8888 22.2304 44.0176 22.3678C44.1572 22.514 44.5456 22.3744 44.5456 22.3744C44.5456 22.3744 45.5995 22.6799 46.5858 22.5162C47.5721 22.3526 47.8274 21.8354 47.8317 21.7285V21.7307Z" fill="#D4926F"/>
<path fill-rule="evenodd" clip-rule="evenodd" d="M47.8318 21.7308C47.7314 21.5955 46.9764 21.0544 46.0905 21.1351C45.2527 21.2115 44.5828 21.853 44.5151 21.9206C44.9734 21.7264 45.5821 21.4297 46.204 21.4057C46.9328 21.3773 47.4827 21.709 47.7489 21.9141C47.8056 21.8312 47.8296 21.7635 47.8318 21.7308Z" fill="#ADA89F"/>
<path fill-rule="evenodd" clip-rule="evenodd" d="M46.8193 21.196C46.5967 21.1393 46.3502 21.1088 46.0905 21.1328C45.8658 21.1524 45.6541 21.2135 45.4621 21.2942C45.4163 21.4055 45.3967 21.5277 45.4097 21.6564C45.4512 22.0732 45.8221 22.3787 46.2389 22.3372C46.6557 22.2958 46.9611 21.9248 46.9197 21.5081C46.9088 21.3946 46.8739 21.2899 46.8193 21.1982V21.196Z" fill="#625D54"/>
<path d="M46.2006 21.931C46.0076 21.95 45.8358 21.809 45.8168 21.616C45.7978 21.423 45.9388 21.2512 46.1318 21.2322C46.3248 21.2132 46.4966 21.3542 46.5156 21.5472C46.5346 21.7402 46.3936 21.912 46.2006 21.931Z" fill="#191716"/>
<path d="M46.1749 21.6215C46.1096 21.6279 46.0515 21.5802 46.0451 21.515C46.0387 21.4497 46.0864 21.3916 46.1516 21.3852C46.2169 21.3787 46.275 21.4264 46.2814 21.4917C46.2878 21.5569 46.2402 21.6151 46.1749 21.6215Z" fill="white"/>
<path fill-rule="evenodd" clip-rule="evenodd" d="M48.1176 21.5955C48.1176 21.5955 47.3626 21.1329 46.6185 21.0413C45.6083 20.9169 44.9733 21.4122 44.3689 21.997L44.502 21.9272C44.502 21.9272 45.2351 21.2442 46.0861 21.1722C46.9371 21.1002 47.8208 21.7766 47.8208 21.7766C47.8208 21.7766 48.1219 21.7788 48.1176 21.5933V21.5955Z" fill="#191716"/>
<path fill-rule="evenodd" clip-rule="evenodd" d="M40.8102 26.8562C40.8102 26.8562 40.4393 26.5115 40.6902 26.1209C40.9411 25.7303 41.1332 25.5579 40.9542 25.4532C40.7753 25.3463 40.4786 25.8634 40.5113 26.2933C40.544 26.7231 40.6968 26.8497 40.808 26.8562H40.8102Z" fill="#693D26"/>
<path fill-rule="evenodd" clip-rule="evenodd" d="M44.6832 26.8562C44.6832 26.8562 45.0541 26.5115 44.8032 26.1209C44.5523 25.7303 44.3603 25.5579 44.5392 25.4532C44.7181 25.3463 45.0149 25.8634 44.9821 26.2933C44.9494 26.7231 44.7967 26.8497 44.6854 26.8562H44.6832Z" fill="#693D26"/>
<path d="M42.726 25.981C42.8284 25.981 42.9115 25.4036 42.9115 24.6914C42.9115 23.9792 42.8284 23.4019 42.726 23.4019C42.6236 23.4019 42.5405 23.9792 42.5405 24.6914C42.5405 25.4036 42.6236 25.981 42.726 25.981Z" fill="#B38064"/>
<path d="M42.6321 26.974C42.7671 26.974 42.8765 26.8617 42.8765 26.7231C42.8765 26.5845 42.7671 26.4722 42.6321 26.4722C42.4971 26.4722 42.3877 26.5845 42.3877 26.7231C42.3877 26.8617 42.4971 26.974 42.6321 26.974Z" fill="#B38064"/>
<path fill-rule="evenodd" clip-rule="evenodd" d="M41.432 27.1723C41.3382 27.1898 40.784 26.965 40.7316 26.8298C40.6792 26.6945 40.9367 26.6268 41.3469 27.0021C41.7571 27.3796 42.2306 27.7506 42.4488 27.8226C42.5077 27.8422 42.5645 27.8531 42.619 27.8597L42.6168 27.8575C42.6168 27.8575 42.6474 27.8618 42.6954 27.8662H42.6998H42.7019H42.7085H42.715H42.7172H42.7216H42.7238H42.7281H42.7325H42.7347H42.739H42.7412H42.7456H42.7478H42.7521H42.7543H42.7587H42.7608H42.7652H42.7696H42.7718H42.7761H42.7783H42.7849H42.7914H42.7936H42.7979C42.8481 27.864 42.8765 27.8575 42.8765 27.8575L42.8743 27.8597C42.9289 27.8531 42.9856 27.8422 43.0445 27.8226C43.2627 27.7506 43.7362 27.3796 44.1464 27.0021C44.5566 26.6246 44.8141 26.6945 44.7617 26.8298C44.7094 26.965 44.1551 27.1876 44.0613 27.1723C43.9129 27.2574 43.7842 27.408 43.3565 27.7026C43.0969 27.8815 42.8787 27.9011 42.7456 27.8902C42.6147 27.9011 42.3943 27.8815 42.1346 27.7026C41.7069 27.408 41.5782 27.2596 41.4298 27.1723H41.432Z" fill="#422A1E"/>
</svg>
