<svg width="85" height="212" viewBox="0 0 85 212" fill="none" xmlns="http://www.w3.org/2000/svg">
<path fill-rule="evenodd" clip-rule="evenodd" d="M36.1325 34.9241C36.1325 34.9241 36.9335 36.79 37.3482 39.0328C37.7534 41.2757 37.3199 42.3971 35.765 43.151C34.2101 43.9049 31.9955 44.9321 30.8364 45.5635C29.6773 46.1949 27.9621 47.4954 28.16 50.4733C28.3579 53.4512 29.6772 56.25 29.6772 56.25C29.6772 56.25 47.3185 61.1881 49.9572 58.851C52.6052 56.5139 55.913 41.4547 52.4639 40.927C52.2943 40.8987 50.9561 40.6914 50.7959 40.6726C49.9195 40.5689 46.8945 40.7857 45.7825 38.0528C44.6139 35.1691 45.4338 30.1934 45.4338 30.1934C45.4338 30.1934 39.7324 35.0466 36.1325 34.9335V34.9241Z" fill="#A57257"/>
<path fill-rule="evenodd" clip-rule="evenodd" d="M48.0253 48.8711C48.0253 48.8711 47.0924 53.7432 45.7259 55.8352C44.3595 57.9273 47.5164 60.5942 47.884 57.3996C48.2609 54.2049 48.0253 48.8711 48.0253 48.8711Z" fill="#875B43"/>
<path fill-rule="evenodd" clip-rule="evenodd" d="M29.8469 111.068C29.8469 111.068 29.6301 113.961 30.384 118.579C31.1379 123.197 31.9013 125.063 32.184 126.929C33.7295 122.056 36.0854 114.913 36.8016 112.746C32.7682 111.191 30.1767 111.078 29.8469 111.078V111.068ZM35.7933 152.467C36.877 160.223 38.3942 171.739 38.2623 174.594C38.055 179.004 34.9546 186.468 34.9546 186.468C34.9546 186.468 33.7577 187.448 35.1619 188.692C36.566 189.936 37.9796 189.955 37.9796 189.955L38.3377 189.408C38.3188 189.172 38.366 189.012 38.366 189.012C38.366 189.012 38.366 189.012 38.9974 183.433C39.6287 177.855 40.2507 175.621 39.167 166.178C38.6769 161.966 37.3011 157.009 35.7933 152.457V152.467ZM45.0662 150.281C45.1228 148.292 45.3395 146.822 44.8401 143.806C44.3406 140.8 43.0967 140.056 42.3428 137.276C41.5889 134.496 45.2641 129.445 45.1793 125.204C44.8778 124.309 37.4801 134.213 38.4979 136.993C39.5157 139.773 41.636 140.433 43.3323 143.957C45.038 147.482 44.7835 148.518 45.0568 150.271L45.0662 150.281Z" fill="#875B43"/>
<path fill-rule="evenodd" clip-rule="evenodd" d="M30.6196 54.7141C31.2227 55.2324 32.6363 55.8732 35.8498 55.6093C40.0528 55.2701 43.4359 53.6586 44.5762 53.0555C46.5363 43.66 49.7593 41.1721 51.2105 40.5125C51.9927 40.1638 52.3037 40.4465 52.4356 40.7764C52.4262 40.7764 47.6955 41.3041 45.2076 53.489C45.5846 54.5256 46.4327 56.6648 47.7991 58.983C49.7216 62.2248 48.2892 73.5993 48.2892 73.5993C48.2892 73.5993 49.8064 77.1992 51.8513 80.8839C53.9057 84.5685 58.2218 92.1358 56.8082 100.514C55.3947 108.891 49.3069 119.144 49.3069 119.144C49.3069 119.144 44.7647 116.279 38.9785 113.679C33.1923 111.078 29.8469 111.096 29.8469 111.096C29.8469 111.096 29.7149 109.108 29.6678 106.403C29.5547 99.967 29.583 88.6396 30.45 84.333C31.1474 80.8933 31.2887 79.574 31.3264 77.0955C31.3735 73.8632 30.3181 74.683 29.9223 71.2999C29.3945 66.7576 29.1589 66.1074 29.1589 66.1074C29.1589 66.1074 25.0879 61.65 30.0071 54.3843C30.0448 54.3183 30.073 54.2523 30.1107 54.1864C31.251 52.1131 33.2771 48.9656 32.7117 44.6212C32.6834 44.1312 33.3525 44.0464 33.3714 44.3668C33.8802 49.0316 31.9201 52.3581 30.7233 54.5256C30.6856 54.601 30.6479 54.667 30.6102 54.7424L30.6196 54.7141Z" fill="#D5C1B5"/>
<path fill-rule="evenodd" clip-rule="evenodd" d="M36.8016 112.745C33.8237 116.109 32.0143 127.258 31.0248 130.716C29.894 134.674 29.8375 135.513 31.1662 139.565C31.7693 141.422 32.985 145.493 34.5399 149.922C36.3775 155.18 38.5733 161.08 39.167 166.197C40.2507 175.639 39.6287 177.873 38.9973 183.452C38.366 189.03 38.366 189.03 38.366 189.03C38.366 189.03 37.7911 191.226 41.702 191.556C45.6128 191.886 45.9144 189.681 45.8484 187.541C45.7919 185.402 46.1877 183.046 46.6212 180.851C47.0641 178.655 47.0075 177.42 46.0086 174.405C45.0097 171.399 45.2547 169.599 45.7353 162.107C46.2254 154.615 47.5353 149.488 44.9343 144.465C42.3334 139.443 39.9491 139.584 38.9596 137.077C37.9702 134.561 46.7342 126.956 49.175 119.04C48.374 118.55 44.1804 115.996 38.9879 113.659C38.2057 113.311 37.4801 113.009 36.8016 112.745V112.745Z" fill="#A57257"/>
<path fill-rule="evenodd" clip-rule="evenodd" d="M34.9922 186.383C34.2572 186.958 32.7211 188.277 31.1191 190.294C28.9045 193.093 29.5076 193.224 30.1767 193.234C30.8081 193.234 35.5483 193.573 36.9618 192.753C37.0749 192.376 37.1974 192.018 37.3105 191.679C37.5838 190.878 37.8005 190.341 37.9796 189.964C37.8759 189.964 36.5189 189.898 35.1713 188.701C33.7672 187.457 34.964 186.477 34.964 186.477L35.0017 186.392L34.9922 186.383Z" fill="#BA9F8A"/>
<path fill-rule="evenodd" clip-rule="evenodd" d="M38.3377 189.322C38.1586 189.558 37.8194 190.152 37.3105 191.678C36.4624 194.157 35.4729 197.992 37.1974 197.86C38.922 197.728 46.0934 195.175 46.3479 192.027C46.5929 188.88 47.2714 186.882 47.7143 184.441C48.1572 182 49.2504 180.483 49.3069 178.815C49.3635 177.269 48.1572 175.931 46.0934 174.603C47.0358 177.467 47.0735 178.702 46.64 180.85C46.1971 183.046 45.8013 185.402 45.8673 187.541C45.9238 189.681 45.6317 191.886 41.7208 191.556C38.7052 191.301 38.3565 189.935 38.3565 189.322H38.3377Z" fill="#D4C1B5"/>
<path fill-rule="evenodd" clip-rule="evenodd" d="M48.9394 180.474C48.8734 181.001 48.7698 181.661 48.6002 182.406C48.1101 184.611 48.2892 187.89 48.2703 188.691C48.1667 188.889 47.3751 188.861 47.3751 188.729L47.4222 185.77C47.5164 185.336 47.6107 184.893 47.6861 184.432C47.9782 182.801 48.5625 181.595 48.93 180.474H48.9394Z" fill="#A68C7A"/>
<path fill-rule="evenodd" clip-rule="evenodd" d="M40.1282 178.24C40.1282 178.24 38.9785 185.874 38.8466 187.805C38.7146 189.747 42.2014 177.684 40.1282 178.24Z" fill="#B38064"/>
<path fill-rule="evenodd" clip-rule="evenodd" d="M30.94 111.482C30.94 111.482 31.0437 114.347 31.6374 118.758C32.2311 123.168 32.6269 124.318 32.5703 123.95C32.5138 123.583 32.0615 111.859 32.0615 111.859C32.0615 111.859 31.6374 111.36 30.94 111.492V111.482Z" fill="#A57257"/>
<path fill-rule="evenodd" clip-rule="evenodd" d="M37.3576 113.961L39.0068 114.442C39.0068 114.442 36.7922 118.682 34.1818 124.713C31.5714 130.745 31.2604 131.433 31.2604 131.433C33.5693 125.496 34.4174 117.504 37.3482 113.961H37.3576Z" fill="#B38064"/>
<path fill-rule="evenodd" clip-rule="evenodd" d="M36.8016 112.745L36.0477 113.791C40.3449 114.074 47.3091 117.806 48.6661 120.482C48.8829 119.945 49.0336 119.474 49.175 119.04C48.374 118.55 44.1804 115.996 38.9879 113.659C38.2057 113.311 37.4801 113.009 36.8016 112.745Z" fill="#875B43"/>
<path fill-rule="evenodd" clip-rule="evenodd" d="M29.9223 90.0628C29.9223 90.0628 27.4156 99.6279 27.6888 104.632C27.9621 109.636 27.9904 108.298 28.5276 110.277C29.0647 112.256 29.3003 113.16 29.3003 113.16C29.3003 113.16 29.9788 114.263 29.96 113.952C29.9411 113.641 29.7055 106.168 29.7055 106.168C29.7055 106.168 30.0731 107.402 30.4689 108.26C30.8646 109.118 31.0625 109.306 31.317 109.174C31.5714 109.042 31.3264 107.563 31.0248 106.573C30.7327 105.584 30.8835 104.217 30.5537 102.898C30.2238 101.588 29.6961 100.815 29.6961 100.815C29.7621 96.6123 29.7526 94.7087 29.9317 90.0439L29.9223 90.0628Z" fill="#946349"/>
<path fill-rule="evenodd" clip-rule="evenodd" d="M55.5549 92.8043C56.0167 95.1603 56.1674 97.7047 55.7245 100.325C54.3769 108.325 48.5625 118.126 48.5625 118.126C48.5625 118.126 48.2138 117.909 47.5824 117.532C48.7792 115.525 50.8901 111.529 53.2838 104.952C55.2533 99.5518 55.6303 95.4524 55.5549 92.7949V92.8043Z" fill="#B99E8A"/>
<path fill-rule="evenodd" clip-rule="evenodd" d="M49.1185 75.4372C49.7593 76.8319 50.3059 78.0758 51.4367 80.1113L51.5781 80.3564C50.6263 80.9595 49.731 81.9772 47.4787 87.1509C45.2264 92.334 45.0474 95.4249 45.3584 98.3746C45.6694 101.324 45.8013 101.211 45.5374 104.255C45.2736 107.308 44.5951 111.502 44.0673 112.322C43.5396 113.132 43.1721 113.123 43.1721 113.123C43.1721 113.123 42.9553 114.744 42.5218 115.337L42.258 115.205C42.1637 114.027 41.6831 108.42 41.5606 107.902C41.4192 107.327 41.0517 110.494 41.0517 110.494C41.0517 110.494 41.0423 110.899 41.0517 112.934C41.0611 113.792 41.0517 114.301 41.0423 114.602C40.6182 114.395 40.1847 114.197 39.7418 113.99L39.5062 107.751C39.5062 107.751 39.2801 110.305 38.8748 111.907C38.6958 112.633 38.4319 113.057 38.2152 113.302L38.055 113.236C37.9607 113.019 37.923 112.774 37.9325 112.51C38.0361 110.418 37.7723 104.952 42.9742 91.1937C47.3468 79.6307 46.4327 75.8424 49.1185 75.4277V75.4372Z" fill="#A38976"/>
<path d="M32.985 93.9258C32.985 93.9352 34.0876 96.5739 40.4486 98.5152L40.3449 98.8544C33.8143 96.8566 33.1452 94.3593 33.1452 94.3499L32.985 93.9258ZM33.0038 100.372C33.0133 100.381 36.9053 102.888 40.7125 101.851L40.8067 102.19C36.8487 103.274 33.5221 100.994 33.5127 100.994L33.0038 100.372Z" fill="#B99E8A"/>
<path fill-rule="evenodd" clip-rule="evenodd" d="M36.1325 34.9241C36.1325 34.9241 36.9335 36.79 37.3482 39.0328C37.3765 39.2119 37.4142 39.3815 37.433 39.5417C38.3283 39.8056 39.6947 39.8433 41.2119 38.5522C42.8422 37.1669 44.2841 35.4141 45.1699 34.255C45.1322 32.1064 45.4432 30.1934 45.4432 30.1934C45.4432 30.1934 39.7418 35.0466 36.1419 34.9335L36.1325 34.9241Z" fill="#946349"/>
<path fill-rule="evenodd" clip-rule="evenodd" d="M36.1325 34.9241C36.1325 34.9241 36.4529 35.678 36.7922 36.7994C38.8183 37.5627 40.1282 36.7146 42.3145 35.3764C43.681 34.5377 44.5951 33.5388 45.1888 32.6812C45.2641 31.2488 45.4338 30.1934 45.4338 30.1934C45.4338 30.1934 39.7324 35.0466 36.1325 34.9335V34.9241Z" fill="#875B43"/>
<path fill-rule="evenodd" clip-rule="evenodd" d="M31.1379 45.7422C30.7892 45.9118 30.4877 46.0626 30.2709 46.1851C29.2814 46.7223 28.3485 48.0793 28.5181 50.6048C28.6218 52.1786 28.8951 53.5922 29.0835 54.4497C29.0835 54.4497 28.471 51.5378 29.1401 48.7766C29.5642 47.005 30.516 46.138 31.1474 45.7422H31.1379Z" fill="#B38064"/>
<path fill-rule="evenodd" clip-rule="evenodd" d="M37.8194 100.476C37.2539 101.135 36.9053 103.519 36.9524 105.63C36.9995 107.751 36.8299 109.683 36.8299 109.683C36.8299 109.683 37.8948 110.455 38.1775 107.967C38.3 106.893 38.0078 105.093 37.8382 104.075C37.6215 102.728 37.8194 100.476 37.8194 100.476V100.476Z" fill="#946349"/>
<path fill-rule="evenodd" clip-rule="evenodd" d="M52.5204 40.9268C53.4157 41.1152 54.4994 41.4451 55.2156 42.0011C56.6575 43.1225 57.8637 44.291 57.0721 48.3244C56.2805 52.3578 55.7057 50.6332 55.6491 55.1472C55.602 59.4256 55.2062 60.6507 54.424 63.1197C53.6419 65.5887 52.3602 68.5478 52.0398 70.4985C51.71 72.4492 51.6629 75.4083 49.8158 80.6856C47.9688 85.9629 46.7531 88.0078 45.7636 91.1083C44.7741 94.2087 44.7553 94.2275 44.727 94.7741C44.6987 95.3207 44.8212 95.6505 44.6516 96.3196C44.482 96.9887 44.6704 97.5353 44.8118 98.3363C44.9532 99.1373 45.4432 100.523 45.1322 103.114C44.8212 105.696 44.6893 106.855 44.6045 107.76C44.5102 108.665 44.482 110.776 44.1898 111.812C43.9071 112.849 43.4077 112.679 43.3134 111.746C43.2192 110.813 43.2569 108.881 43.2098 107.685C43.1626 106.478 43.1815 105.96 43.1815 105.96C43.1815 105.96 42.7386 109.485 42.7951 110.663C42.8422 111.841 42.8045 115.308 42.2391 115.243C41.6737 115.177 41.3627 110.663 41.3439 109.824C41.325 108.985 41.4758 106.95 41.4758 106.95C41.4758 106.95 41.2402 106.761 41.1554 107.336C41.0706 107.911 40.7125 110.823 40.7125 110.823C40.7125 110.823 40.7407 113.801 40.6371 114.762C40.5334 115.723 40.2884 116.109 39.9209 116.072C39.5533 116.044 39.4591 115.61 39.3272 113.951C39.1952 112.293 39.2329 110.936 39.2706 110.314C39.3083 109.692 39.3837 107.072 39.3837 107.072C39.3837 107.072 39.1104 106.752 39.0539 107.251C38.9973 107.751 38.8277 109.532 38.8277 109.532C38.8277 109.532 38.6581 111.69 38.4131 112.528C38.1681 113.367 37.6309 113.612 37.5367 112.896C37.4424 112.18 37.499 109.956 37.5367 109.494C37.5649 109.032 37.6309 105.602 37.5084 104.528C37.3859 103.453 37.3482 101.569 37.6686 100.777C39.1387 97.0923 39.2612 96.0275 40.3544 92.437C40.9669 90.4297 42.3334 85.5294 42.7669 79.6396C43.3134 72.2608 46.4892 69.4713 46.5269 69.2923C47.0735 66.8609 46.2631 64.2977 46.4704 58.634C46.64 53.9975 48.5719 53.1965 47.7991 47.7307C48.0159 44.6114 50.5697 41.332 52.5016 40.9456L52.5204 40.9268Z" fill="#A57257"/>
<path fill-rule="evenodd" clip-rule="evenodd" d="M30.5442 55.2224C31.1474 55.7407 32.5609 56.3815 35.7744 56.1177C39.9586 55.7784 43.3323 54.1764 44.482 53.5732C43.5584 54.2612 38.1398 56.9093 34.6813 56.7679C31.0908 56.6265 30.5442 55.2224 30.5442 55.2224Z" fill="#E0D0C4"/>
<path fill-rule="evenodd" clip-rule="evenodd" d="M32.2876 52.6686C32.2876 52.6686 33.1923 53.2435 33.7106 54.4685C33.852 54.8078 33.9462 55.1094 33.9933 55.3638C34.1535 55.3638 34.3137 55.3638 34.4928 55.3638C34.2572 54.4026 33.6823 53.1021 32.2876 52.6592V52.6686Z" fill="#B38064"/>
<path fill-rule="evenodd" clip-rule="evenodd" d="M40.1847 52.3867C40.1847 52.3867 39.2518 52.7071 38.3754 53.4139C37.7723 53.9039 37.2445 54.7238 36.9524 55.2515C37.188 55.2233 37.4236 55.195 37.6498 55.1573C38.0455 54.3751 38.856 53.1029 40.1753 52.3961L40.1847 52.3867Z" fill="#B38064"/>
<path fill-rule="evenodd" clip-rule="evenodd" d="M35.4729 55.6377C35.2561 54.8178 34.8509 53.8754 34.097 52.999C34.097 52.999 34.6059 54.1958 34.6153 55.6659C34.8886 55.6659 35.1713 55.6565 35.4729 55.6377V55.6377Z" fill="#875B43"/>
<path fill-rule="evenodd" clip-rule="evenodd" d="M44.4443 15.7753C47.4599 18.1972 48.1949 21.307 47.3374 24.888C46.4798 28.4691 46.15 29.713 45.6694 31.2302C45.1888 32.7474 45.0945 33.0302 42.8894 34.4343C40.6842 35.8384 38.8089 36.8373 37.3293 36.2437C35.8498 35.6405 34.5588 34.8395 33.8614 33.1055C33.164 31.3716 32.8625 29.892 32.3159 28.4125C31.7787 26.933 32.2499 26.556 32.2405 24.9823C32.2311 23.4179 32.0615 23.3425 31.9578 21.863C31.8918 20.996 31.5337 19.1113 33.2206 16.8307C35.9817 13.0989 40.8727 12.9293 44.4349 15.7847L44.4443 15.7753Z" fill="#A57257"/>
<path fill-rule="evenodd" clip-rule="evenodd" d="M47.5164 23.9742C47.7426 23.8611 48.0347 23.7763 48.3551 23.8893C49.0148 24.1344 49.4671 25.4066 48.6473 27.0463C47.818 28.686 47.441 29.4682 47.2431 29.7415C47.0641 30.0054 46.4327 30.2598 46.1594 29.6001C46.4515 28.5353 46.7908 27.1971 47.3374 24.8883C47.4128 24.5773 47.4693 24.2757 47.5258 23.9742H47.5164Z" fill="#A57257"/>
<path fill-rule="evenodd" clip-rule="evenodd" d="M46.3008 29.8454C46.2442 29.7889 46.1971 29.704 46.1594 29.6098C46.4515 28.5449 46.7908 27.2067 47.3374 24.8979C47.3751 24.7283 47.4128 24.5587 47.4505 24.389C47.6201 24.3231 47.8368 24.276 48.1007 24.2854C48.8357 24.3137 48.8734 25.7461 48.6096 26.3869C48.3457 27.0277 48.3457 27.0277 48.3457 27.0277C48.3457 27.0277 48.6002 26.189 48.5436 25.4634C48.4871 24.7377 47.8557 24.766 47.6955 24.945C47.5258 25.1241 47.2526 25.6236 47.3751 26.2172C47.4976 26.8109 47.3656 27.5554 47.0547 27.7533C46.8002 27.9135 46.329 29.214 46.3008 29.8454V29.8454Z" fill="#875B43"/>
<path fill-rule="evenodd" clip-rule="evenodd" d="M43.0024 25.2465C43.0024 25.2465 42.9459 25.7554 41.8527 26.0663C40.7502 26.3773 39.2518 26.0286 39.1104 26.0569C38.9691 26.0852 38.7523 26.0004 39.1481 25.5575C39.5533 25.1145 40.1753 24.6245 41.3533 24.6339C42.5313 24.6433 43.1061 25.0957 43.0024 25.2559V25.2465Z" fill="#693D26"/>
<path fill-rule="evenodd" clip-rule="evenodd" d="M32.4573 25.2465C32.4573 25.2465 32.5044 25.7554 33.4844 26.0663C34.4645 26.3773 35.8027 26.0286 35.9252 26.0569C36.0477 26.0852 36.2456 26.0004 35.8875 25.5575C35.5294 25.1145 34.9734 24.6245 33.9179 24.6339C32.8719 24.6433 32.3536 25.0957 32.4478 25.2559L32.4573 25.2465Z" fill="#693D26"/>
<path fill-rule="evenodd" clip-rule="evenodd" d="M38.6204 23.7756C38.5921 23.983 38.922 24.2939 39.1387 24.228C39.2235 24.1997 40.2978 23.672 41.1177 23.4364C41.9376 23.2008 42.437 23.3516 42.8422 23.5212C43.2475 23.6908 43.3511 23.7474 43.3511 23.7474C43.3511 23.7474 43.4359 23.6814 43.2663 23.54C43.0967 23.3893 42.4276 22.7296 41.4004 22.7484C40.3732 22.7767 38.7995 23.4741 38.6298 23.7756H38.6204Z" fill="#211811"/>
<path fill-rule="evenodd" clip-rule="evenodd" d="M36.4435 23.7853C36.4718 23.9926 36.1702 24.2941 35.9629 24.2376C35.8875 24.2093 34.7849 23.7664 34.0216 23.5308C33.2583 23.2952 32.9756 23.4177 32.608 23.5779C32.2311 23.7476 32.2594 23.691 32.2594 23.691C32.0143 23.4837 33.1829 22.8335 33.7672 22.8429C34.719 22.8711 36.2833 23.4837 36.4341 23.7758L36.4435 23.7853Z" fill="#211811"/>
<path fill-rule="evenodd" clip-rule="evenodd" d="M35.765 24.9631C35.765 24.9631 35.3032 24.3976 34.2289 24.5107C33.1546 24.6144 32.608 25.1327 32.608 25.1327C32.608 25.1327 33.1075 24.5296 34.0405 24.4165C34.9734 24.3034 35.6237 24.6709 35.765 24.9631V24.9631Z" fill="#693D26"/>
<path fill-rule="evenodd" clip-rule="evenodd" d="M35.9064 26.0375C35.9064 26.0375 36.1514 26.1412 36.1985 26.0281C36.255 25.915 36.1137 25.7831 36.0383 25.736C35.9629 25.6888 35.9064 25.5852 35.8875 25.5381C35.8687 25.4909 35.2938 24.7936 34.3326 24.869C33.3714 24.9444 32.9661 25.4627 32.9661 25.4627C32.9661 25.4627 33.5033 26.3485 35.9064 26.0281V26.0375Z" fill="white"/>
<path fill-rule="evenodd" clip-rule="evenodd" d="M35.9064 26.037C35.9064 26.037 36.1514 26.1407 36.1985 26.0276C36.2456 25.9239 36.1325 25.8014 36.0571 25.7449C36.142 25.9805 35.9346 25.9616 35.8498 25.9616C35.7462 25.9616 34.9828 26.1312 34.1535 25.9899C33.475 25.8768 33.1075 25.5375 32.9944 25.415C32.9756 25.4433 32.9567 25.4527 32.9567 25.4527C32.9567 25.4527 33.4939 26.3386 35.8969 26.0182L35.9064 26.037Z" fill="#946349"/>
<path fill-rule="evenodd" clip-rule="evenodd" d="M35.944 25.6411C35.9158 25.6034 35.8969 25.5657 35.8875 25.5469C35.8687 25.4997 35.2938 24.8024 34.3326 24.8778C33.3714 24.9532 32.9661 25.4715 32.9661 25.4715C32.9661 25.4715 33.0133 25.5469 33.1452 25.6505C33.3714 25.4809 33.852 25.2076 34.587 25.2359C35.1713 25.2547 35.6236 25.4338 35.944 25.6317V25.6411Z" fill="#857E72"/>
<path fill-rule="evenodd" clip-rule="evenodd" d="M35.2278 25.0386C35.0017 24.9349 34.7284 24.8595 34.3986 24.869C34.2383 24.9726 34.1347 25.1611 34.1347 25.3684C34.1347 25.6983 34.3986 25.9621 34.7284 25.9621C35.0582 25.9621 35.3221 25.6983 35.3221 25.3684C35.3221 25.2459 35.2844 25.1328 35.2278 25.0386Z" fill="#625D54"/>
<path d="M34.7472 25.6604C34.9034 25.6604 35.0299 25.5297 35.0299 25.3683C35.0299 25.207 34.9034 25.0762 34.7472 25.0762C34.5911 25.0762 34.4645 25.207 34.4645 25.3683C34.4645 25.5297 34.5911 25.6604 34.7472 25.6604Z" fill="#211811"/>
<path d="M34.8509 25.3685C34.9082 25.3685 34.9546 25.322 34.9546 25.2648C34.9546 25.2075 34.9082 25.1611 34.8509 25.1611C34.7936 25.1611 34.7472 25.2075 34.7472 25.2648C34.7472 25.322 34.7936 25.3685 34.8509 25.3685Z" fill="white"/>
<path fill-rule="evenodd" clip-rule="evenodd" d="M32.4196 25.1519C32.4196 25.1519 32.4384 25.3026 32.6552 25.4251C32.8719 25.5571 32.9756 25.5288 32.9756 25.5288C32.9756 25.5288 33.4845 25.0105 34.3232 25.0011C35.1619 24.9917 35.8215 25.4157 35.8875 25.5288C35.9535 25.6419 35.7179 24.9634 34.8321 24.7561C33.9556 24.5582 32.9567 24.9257 32.8436 25.0011C32.8436 25.0011 32.4761 25.2461 32.4196 25.1424V25.1519Z" fill="#211811"/>
<path fill-rule="evenodd" clip-rule="evenodd" d="M39.3931 24.9631C39.3931 24.9631 39.9114 24.3976 41.1083 24.5107C42.3051 24.6144 42.9271 25.1327 42.9271 25.1327C42.9271 25.1327 42.3616 24.5296 41.325 24.4165C40.2884 24.3034 39.5533 24.6709 39.3931 24.9631V24.9631Z" fill="#693D26"/>
<path fill-rule="evenodd" clip-rule="evenodd" d="M39.2424 26.0375C39.2424 26.0375 38.9691 26.1412 38.9125 26.0281C38.856 25.915 39.0068 25.7831 39.0916 25.736C39.1764 25.6888 39.2424 25.5852 39.2612 25.5381C39.2801 25.4909 39.9303 24.7936 41.0046 24.869C42.0789 24.9444 42.5407 25.4627 42.5407 25.4627C42.5407 25.4627 41.9376 26.3485 39.2518 26.0281L39.2424 26.0375Z" fill="white"/>
<path fill-rule="evenodd" clip-rule="evenodd" d="M39.2424 26.0373C39.2424 26.0373 38.9691 26.141 38.9125 26.0279C38.8654 25.9337 38.9597 25.83 39.0445 25.7735C39.035 25.8771 39.0822 25.9902 39.167 25.9714C39.2895 25.9525 39.2801 25.9431 39.3178 25.962C39.3554 25.9808 40.3072 26.1599 41.3533 25.9714C42.0695 25.8394 42.3711 25.5756 42.4936 25.4248C42.5218 25.4531 42.5313 25.4625 42.5313 25.4625C42.5313 25.4625 41.9281 26.3483 39.2424 26.0279V26.0373Z" fill="#946349"/>
<path fill-rule="evenodd" clip-rule="evenodd" d="M39.2141 25.6128C39.2329 25.5845 39.2424 25.5657 39.2518 25.5469C39.2706 25.4997 39.9209 24.8024 40.9952 24.8778C42.0695 24.9532 42.5313 25.4715 42.5313 25.4715C42.5313 25.4715 42.4747 25.5563 42.3145 25.6694C41.3816 25.0003 40.2978 25.1793 39.657 25.4338C39.5062 25.4903 39.3555 25.5563 39.2235 25.6128H39.2141Z" fill="#857E72"/>
<path fill-rule="evenodd" clip-rule="evenodd" d="M40.4674 24.897C40.6277 24.8688 40.8067 24.8593 41.0046 24.8688C41.08 24.8782 41.146 24.8782 41.2119 24.8876C41.3533 25.0007 41.4381 25.1703 41.4381 25.3588C41.4381 25.6886 41.1742 25.9525 40.8444 25.9525C40.5146 25.9525 40.2507 25.6886 40.2507 25.3588C40.2507 25.1703 40.3355 25.0007 40.4769 24.897H40.4674Z" fill="#625D54"/>
<path d="M40.8444 25.6604C41.0057 25.6604 41.1365 25.5297 41.1365 25.3683C41.1365 25.207 41.0057 25.0762 40.8444 25.0762C40.6831 25.0762 40.5523 25.207 40.5523 25.3683C40.5523 25.5297 40.6831 25.6604 40.8444 25.6604Z" fill="#211811"/>
<path d="M40.8444 25.3685C40.9017 25.3685 40.9481 25.322 40.9481 25.2648C40.9481 25.2075 40.9017 25.1611 40.8444 25.1611C40.7871 25.1611 40.7407 25.2075 40.7407 25.2648C40.7407 25.322 40.7871 25.3685 40.8444 25.3685Z" fill="white"/>
<path fill-rule="evenodd" clip-rule="evenodd" d="M39.1858 25.6514C39.1858 25.6514 39.657 25.2273 40.4298 25.0577C41.2119 24.8881 42.0035 25.2556 42.192 25.397C42.3805 25.5477 42.4559 25.5477 42.4559 25.5477C42.4559 25.5477 42.5595 25.6231 42.8045 25.5289C43.0496 25.4347 43.1438 25.1896 43.1438 25.1896C43.1438 25.1896 42.9271 25.3593 42.7197 25.2745C42.6066 25.2273 41.9753 24.7938 41.0423 24.7562C40.3732 24.7279 39.4968 24.9635 39.167 25.642L39.1858 25.6514Z" fill="#211811"/>
<path fill-rule="evenodd" clip-rule="evenodd" d="M35.8969 24.6426C35.8969 24.6426 36.5095 25.142 36.5849 25.8394C36.6697 26.5368 36.5566 27.2341 36.5566 27.2341C36.5566 27.2341 36.8487 26.4142 36.7356 25.7075C36.6226 25.0007 36.1325 24.6803 35.8875 24.6426H35.8969Z" fill="#946349"/>
<path fill-rule="evenodd" clip-rule="evenodd" d="M38.856 24.4727C38.856 24.4727 38.5639 24.7742 38.4413 25.4433C38.3188 26.1218 38.2906 26.6118 38.2906 26.6118C38.2906 26.6118 38.2434 24.5104 38.8466 24.4727H38.856Z" fill="#875B43"/>
<path fill-rule="evenodd" clip-rule="evenodd" d="M36.2456 28.5908C36.2456 28.5908 35.9723 28.883 35.944 29.2976C35.9158 29.7122 36.1137 29.8913 36.3022 29.9573C36.4906 30.0232 36.632 29.9101 36.632 29.9101C36.632 29.9101 35.6331 29.9384 36.2456 28.5908V28.5908Z" fill="#693D26"/>
<path fill-rule="evenodd" clip-rule="evenodd" d="M39.2141 28.6475C39.2141 28.6475 39.3743 28.8736 39.2989 29.3448C39.2141 29.816 38.8277 29.8443 38.8277 29.8443C38.8277 29.8443 39.1576 29.8537 39.3366 29.5898C39.4685 29.3919 39.4968 28.9961 39.2235 28.6569L39.2141 28.6475Z" fill="#693D26"/>
<path fill-rule="evenodd" clip-rule="evenodd" d="M37.3765 28.1104C37.3765 28.1104 37.1597 28.6381 37.2351 28.8925C37.3199 29.147 37.6121 29.0433 37.5555 28.7323C37.499 28.4213 37.3293 28.214 37.367 28.1198L37.3765 28.1104Z" fill="#B38064"/>
<path fill-rule="evenodd" clip-rule="evenodd" d="M36.6697 29.8822C36.5943 29.7503 36.6979 29.4958 36.8487 29.6749C36.9995 29.8539 37.2163 30.1178 37.5272 30.0895C37.8382 30.0613 37.9042 29.788 38.055 29.5995C38.1963 29.411 38.3942 29.4487 38.5262 29.6372C38.6581 29.8257 38.7712 29.8445 38.7712 29.8445C38.7712 29.8445 38.6958 29.8728 38.5073 29.722C38.3188 29.5712 38.1681 29.5524 37.9984 29.7409C37.8288 29.9388 37.6686 30.2026 37.3482 30.099C37.0278 30.0047 36.8487 29.6749 36.6697 29.8916V29.8822Z" fill="#422A1E"/>
<path fill-rule="evenodd" clip-rule="evenodd" d="M35.2278 31.7478C35.2278 31.7478 35.6331 31.7195 35.8781 31.5216C36.1137 31.3143 36.6791 30.8526 37.1409 31.0976C37.6026 31.3426 37.9419 31.3991 38.2811 31.1258C38.6204 30.862 39.0539 30.9468 39.5062 31.1447C39.9586 31.3426 40.4015 31.597 40.7219 31.5405C41.0423 31.4839 40.9481 31.6253 40.835 31.663C40.7313 31.6913 40.279 32.2096 39.7136 32.8033C39.1575 33.397 37.8194 33.887 36.8393 33.3216C35.8592 32.7656 35.6425 32.0305 35.2278 31.7384V31.7478Z" fill="#A3413C"/>
<path fill-rule="evenodd" clip-rule="evenodd" d="M36.4718 31.9174C36.943 31.7383 39.0445 31.7477 39.5628 31.8702C38.545 32.4922 36.7922 32.4074 36.4718 31.9174Z" fill="white"/>
<path fill-rule="evenodd" clip-rule="evenodd" d="M37.0938 32.6247C37.0938 32.6247 37.6026 32.7754 38.3377 32.6906C39.0727 32.6058 39.3366 32.4268 39.3366 32.4268C39.3366 32.4268 37.9419 33.6424 37.0938 32.6247Z" fill="#B55552"/>
</svg>
