<svg width="85" height="212" viewBox="0 0 85 212" fill="none" xmlns="http://www.w3.org/2000/svg">
<path fill-rule="evenodd" clip-rule="evenodd" d="M35.5425 18.1226H49.1416V24.1299H35.5425V18.1226Z" fill="#A57257"/>
<path fill-rule="evenodd" clip-rule="evenodd" d="M40.7585 20.0216C40.7585 20.0216 41.6843 21.0002 41.7371 21.4631C41.7898 21.926 41.7371 22.1642 41.6843 22.9453C41.6571 23.3589 41.6571 23.7605 41.6707 24.1298H41.5771C41.5584 23.8643 41.5465 23.5733 41.5516 23.2891C41.572 22.1914 41.3406 21.6877 40.6649 21.0802C39.991 20.4709 38.8134 19.8106 38.4951 19.6915C38.1769 19.5724 40.0302 19.5588 40.7568 20.0216H40.7585Z" fill="#875B43"/>
<path fill-rule="evenodd" clip-rule="evenodd" d="M44.198 19.9945C44.198 19.9945 43.4833 20.682 43.3778 21.3168C43.2723 21.9515 43.3114 22.4144 43.3505 22.6527C43.3897 22.8909 43.3488 21.7763 44.1521 20.7654C44.9553 19.7545 45.7586 19.7426 45.7586 19.7426C45.7586 19.7426 44.6473 19.6507 44.198 19.9945Z" fill="#875B43"/>
<path fill-rule="evenodd" clip-rule="evenodd" d="M36.1603 20.4779C36.1603 20.4779 36.9942 19.8159 38.0646 19.7904C39.1368 19.7632 40.1425 20.1393 40.6582 20.3197C41.1721 20.5001 41.3202 20.386 41.293 20.1869C41.2657 19.9878 41.4512 19.479 40.3399 19.2152C39.2287 18.9514 37.6953 19.0093 36.9278 19.445C36.1603 19.8806 36.1127 20.1478 36.0548 20.2431C35.9969 20.3384 35.9459 20.6737 36.1603 20.4779Z" fill="#191716"/>
<path fill-rule="evenodd" clip-rule="evenodd" d="M36.9448 21.31C36.9448 21.31 37.7736 20.4949 38.89 20.5306C40.0064 20.5663 40.6905 21.3934 40.9083 21.5296C41.1262 21.6657 41.0155 21.2045 40.4778 20.8114C39.94 20.42 38.2382 19.6899 36.9448 21.3083V21.31Z" fill="#452615"/>
<path fill-rule="evenodd" clip-rule="evenodd" d="M37.2153 21.7251C37.3174 21.589 38.0747 21.0529 38.958 21.138C39.8412 21.2214 40.5355 21.9379 40.5355 21.9379C40.5355 21.9379 41.1635 22.2374 41.024 22.3837C40.8844 22.5301 40.4964 22.3871 40.4964 22.3871C40.4964 22.3871 39.4413 22.6884 38.4559 22.5199C37.4706 22.3514 37.2187 21.834 37.2136 21.7251H37.2153Z" fill="white"/>
<path fill-rule="evenodd" clip-rule="evenodd" d="M37.2358 22.8179C37.2358 22.8179 37.6443 23.2484 38.5871 23.2654C39.5282 23.2825 39.9928 23.0374 39.9928 23.0374C39.9928 23.0374 39.1776 23.4935 38.325 23.3982C37.4724 23.3029 37.2222 22.9625 37.2375 22.8179H37.2358Z" fill="#452615"/>
<path fill-rule="evenodd" clip-rule="evenodd" d="M37.2153 21.7253C37.2289 21.7083 37.2528 21.6827 37.2868 21.6538C37.3804 21.8767 37.6782 22.3175 38.5802 22.469C39.7051 22.6596 40.493 22.2631 40.5441 21.9397C40.6155 21.9754 41.155 22.2443 41.024 22.3822C40.8844 22.5285 40.4964 22.3856 40.4964 22.3856C40.4964 22.3856 39.4413 22.6868 38.4559 22.5183C37.4706 22.3498 37.2187 21.8325 37.2136 21.7236L37.2153 21.7253Z" fill="#D4926F"/>
<path fill-rule="evenodd" clip-rule="evenodd" d="M37.2153 21.7251C37.3174 21.589 38.0747 21.0529 38.958 21.138C39.7953 21.218 40.4624 21.8647 40.5304 21.931C40.0744 21.7353 39.4651 21.4341 38.844 21.4069C38.1139 21.3746 37.5642 21.7047 37.2953 21.9072C37.2374 21.8238 37.2153 21.7558 37.2136 21.7234L37.2153 21.7251Z" fill="#ADA89F"/>
<path fill-rule="evenodd" clip-rule="evenodd" d="M38.2313 21.1976C38.4543 21.1414 38.701 21.1142 38.9597 21.138C39.1843 21.1585 39.3954 21.2214 39.5877 21.3014C39.6319 21.412 39.6523 21.5363 39.6387 21.6639C39.5962 22.0808 39.2235 22.3838 38.8065 22.3395C38.3896 22.297 38.0867 21.9243 38.1292 21.5073C38.1411 21.3933 38.1769 21.2895 38.2313 21.1976Z" fill="#783810"/>
<path fill-rule="evenodd" clip-rule="evenodd" d="M38.9188 21.2368C39.1111 21.2573 39.2524 21.4292 39.2319 21.6232C39.2115 21.8172 39.0396 21.9567 38.8456 21.9363C38.6516 21.9159 38.5121 21.744 38.5325 21.55C38.5529 21.356 38.7248 21.2164 38.9188 21.2368Z" fill="#191716"/>
<path fill-rule="evenodd" clip-rule="evenodd" d="M38.8985 21.3898C38.9632 21.3966 39.0109 21.4545 39.004 21.5208C38.9972 21.5855 38.9394 21.6332 38.873 21.6264C38.8083 21.6196 38.7607 21.5617 38.7675 21.4953C38.7743 21.4307 38.8322 21.383 38.8985 21.3898Z" fill="white"/>
<path fill-rule="evenodd" clip-rule="evenodd" d="M36.9312 21.5909C36.9312 21.5909 37.6885 21.1314 38.4322 21.0446C39.443 20.9255 40.0761 21.4241 40.6768 22.0112L40.5441 21.9414C40.5441 21.9414 39.814 21.2556 38.9631 21.179C38.1122 21.1025 37.2256 21.7764 37.2256 21.7764C37.2256 21.7764 36.9261 21.7781 36.9295 21.5909H36.9312Z" fill="#191716"/>
<path fill-rule="evenodd" clip-rule="evenodd" d="M48.5547 20.4779C48.5547 20.4779 47.7208 19.8159 46.6504 19.7904C45.5782 19.7632 44.5725 20.1393 44.0568 20.3197C43.5429 20.5001 43.3948 20.386 43.422 20.1869C43.4493 19.9878 43.2638 19.479 44.375 19.2152C45.4863 18.9514 47.0196 19.0093 47.7872 19.445C48.5547 19.8806 48.6023 20.1478 48.6602 20.2431C48.718 20.3384 48.7691 20.6737 48.5547 20.4779Z" fill="#191716"/>
<path fill-rule="evenodd" clip-rule="evenodd" d="M47.7734 21.3204C47.7734 21.3204 46.948 20.5019 45.8316 20.5325C44.7152 20.5631 44.026 21.3868 43.8082 21.5213C43.5903 21.6557 43.7026 21.1945 44.2421 20.8065C44.7816 20.4168 46.4868 19.6952 47.7734 21.3221V21.3204Z" fill="#452615"/>
<path fill-rule="evenodd" clip-rule="evenodd" d="M47.5012 21.7355C47.4008 21.5994 46.6452 21.0599 45.7602 21.1399C44.877 21.2199 44.1793 21.9312 44.1793 21.9312C44.1793 21.9312 43.5496 22.2273 43.6891 22.3737C43.8287 22.52 44.2167 22.3805 44.2167 22.3805C44.2167 22.3805 45.2701 22.6868 46.2555 22.5234C47.2408 22.3601 47.4961 21.8427 47.5012 21.7355Z" fill="white"/>
<path fill-rule="evenodd" clip-rule="evenodd" d="M47.4757 22.8267C47.4757 22.8267 47.0655 23.2538 46.1227 23.2674C45.1816 23.2793 44.717 23.0326 44.717 23.0326C44.717 23.0326 45.5305 23.4938 46.3831 23.4019C47.2374 23.31 47.4893 22.9713 47.474 22.8267H47.4757Z" fill="#452615"/>
<path fill-rule="evenodd" clip-rule="evenodd" d="M47.5011 21.7355C47.4875 21.7185 47.4637 21.693 47.4296 21.6641C47.3343 21.887 47.0348 22.3261 46.1329 22.4741C45.0063 22.6579 44.2217 22.258 44.1724 21.9346C44.1009 21.9687 43.5597 22.2359 43.6908 22.3737C43.8303 22.5201 44.2183 22.3805 44.2183 22.3805C44.2183 22.3805 45.2718 22.6868 46.2571 22.5235C47.2424 22.3601 47.4977 21.8428 47.5028 21.7355H47.5011Z" fill="#D4926F"/>
<path fill-rule="evenodd" clip-rule="evenodd" d="M47.5011 21.7355C47.4007 21.5994 46.6451 21.0599 45.7602 21.1399C44.9229 21.2148 44.2524 21.858 44.1843 21.9261C44.6421 21.7321 45.2514 21.4343 45.8725 21.4105C46.6026 21.3815 47.1506 21.7134 47.4178 21.9193C47.4756 21.8359 47.4977 21.7678 47.4994 21.7355H47.5011Z" fill="#ADA89F"/>
<path fill-rule="evenodd" clip-rule="evenodd" d="M46.4885 21.2015C46.2656 21.1453 46.0188 21.1147 45.7601 21.1385C45.5355 21.1589 45.3245 21.2202 45.1322 21.2985C45.0862 21.4091 45.0675 21.5333 45.0794 21.661C45.1203 22.0779 45.4913 22.3825 45.9082 22.3417C46.3251 22.3009 46.6298 21.9299 46.5889 21.5129C46.577 21.3989 46.5413 21.2951 46.4868 21.2015H46.4885Z" fill="#783810"/>
<path fill-rule="evenodd" clip-rule="evenodd" d="M45.7995 21.2368C45.6055 21.2555 45.4642 21.4274 45.4846 21.6214C45.5033 21.8154 45.6752 21.9567 45.8692 21.9363C46.0632 21.9175 46.2045 21.7457 46.1841 21.5517C46.1654 21.3577 45.9935 21.2164 45.7995 21.2368Z" fill="#191716"/>
<path fill-rule="evenodd" clip-rule="evenodd" d="M45.8197 21.39C45.7551 21.3968 45.7074 21.4547 45.7125 21.5194C45.7193 21.584 45.7772 21.6317 45.8419 21.6266C45.9065 21.6198 45.9542 21.5619 45.9491 21.4972C45.9423 21.4326 45.8844 21.3849 45.8197 21.39Z" fill="white"/>
<path fill-rule="evenodd" clip-rule="evenodd" d="M47.7855 21.6014C47.7855 21.6014 47.0299 21.1385 46.2862 21.0466C45.2753 20.9224 44.6405 21.4176 44.0364 22.003L44.1691 21.9332C44.1691 21.9332 44.9026 21.2508 45.7535 21.1793C46.6044 21.1062 47.4876 21.7852 47.4876 21.7852C47.4876 21.7852 47.7872 21.7869 47.7837 21.6014H47.7855Z" fill="#191716"/>
<path fill-rule="evenodd" clip-rule="evenodd" d="M42.3924 23.4067C42.4655 23.4067 42.5285 23.7012 42.5591 24.13H42.2273C42.2579 23.7012 42.3209 23.4067 42.3941 23.4067H42.3924Z" fill="#B38064"/>
</svg>
