<svg width="86" height="212" viewBox="0 0 86 212" fill="none" xmlns="http://www.w3.org/2000/svg">
<path fill-rule="evenodd" clip-rule="evenodd" d="M36.2092 18.1226H49.8083V24.1299H36.2092V18.1226Z" fill="#A57257"/>
<path fill-rule="evenodd" clip-rule="evenodd" d="M41.4253 20.0216C41.4253 20.0216 42.3511 21.0002 42.4038 21.4631C42.4566 21.926 42.4038 22.1642 42.3511 22.9453C42.3238 23.3589 42.3238 23.7605 42.3375 24.1298H42.2439C42.2251 23.8643 42.2132 23.5733 42.2183 23.2891C42.2388 22.1914 42.0073 21.6877 41.3317 21.0802C40.6578 20.4709 39.4801 19.8106 39.1619 19.6915C38.8436 19.5724 40.6969 19.5588 41.4236 20.0216H41.4253Z" fill="#875B43"/>
<path fill-rule="evenodd" clip-rule="evenodd" d="M44.8648 19.9945C44.8648 19.9945 44.15 20.682 44.0445 21.3168C43.939 21.9515 43.9781 22.4144 44.0173 22.6527C44.0564 22.8909 44.0156 21.7763 44.8188 20.7654C45.6221 19.7545 46.4253 19.7426 46.4253 19.7426C46.4253 19.7426 45.3141 19.6507 44.8648 19.9945Z" fill="#875B43"/>
<path fill-rule="evenodd" clip-rule="evenodd" d="M36.8271 20.4779C36.8271 20.4779 37.6609 19.8159 38.7314 19.7904C39.8035 19.7632 40.8093 20.1393 41.3249 20.3197C41.8389 20.5001 41.9869 20.386 41.9597 20.1869C41.9325 19.9878 42.118 19.479 41.0067 19.2152C39.8954 18.9514 38.3621 19.0093 37.5946 19.445C36.8271 19.8806 36.7794 20.1478 36.7216 20.2431C36.6637 20.3384 36.6126 20.6737 36.8271 20.4779Z" fill="#191716"/>
<path fill-rule="evenodd" clip-rule="evenodd" d="M37.6116 21.31C37.6116 21.31 38.4404 20.4949 39.5567 20.5306C40.6731 20.5663 41.3572 21.3934 41.5751 21.5296C41.7929 21.6657 41.6823 21.2045 41.1445 20.8114C40.6067 20.42 38.9049 19.6899 37.6116 21.3083V21.31Z" fill="#452615"/>
<path fill-rule="evenodd" clip-rule="evenodd" d="M37.8821 21.7251C37.9842 21.589 38.7415 21.0529 39.6247 21.138C40.508 21.2214 41.2023 21.9379 41.2023 21.9379C41.2023 21.9379 41.8303 22.2374 41.6907 22.3837C41.5512 22.5301 41.1632 22.3871 41.1632 22.3871C41.1632 22.3871 40.108 22.6884 39.1227 22.5199C38.1373 22.3514 37.8855 21.834 37.8804 21.7251H37.8821Z" fill="white"/>
<path fill-rule="evenodd" clip-rule="evenodd" d="M37.9026 22.8179C37.9026 22.8179 38.311 23.2484 39.2538 23.2654C40.1949 23.2825 40.6595 23.0374 40.6595 23.0374C40.6595 23.0374 39.8443 23.4935 38.9917 23.3982C38.1391 23.3029 37.889 22.9625 37.9043 22.8179H37.9026Z" fill="#452615"/>
<path fill-rule="evenodd" clip-rule="evenodd" d="M37.8821 21.7253C37.8957 21.7083 37.9195 21.6827 37.9536 21.6538C38.0471 21.8767 38.345 22.3175 39.2469 22.469C40.3718 22.6596 41.1597 22.2631 41.2108 21.9397C41.2823 21.9754 41.8217 22.2443 41.6907 22.3822C41.5512 22.5285 41.1632 22.3856 41.1632 22.3856C41.1632 22.3856 40.108 22.6868 39.1227 22.5183C38.1373 22.3498 37.8855 21.8325 37.8804 21.7236L37.8821 21.7253Z" fill="#D4926F"/>
<path fill-rule="evenodd" clip-rule="evenodd" d="M37.8821 21.7251C37.9842 21.589 38.7415 21.0529 39.6247 21.138C40.462 21.218 41.1291 21.8647 41.1972 21.931C40.7411 21.7353 40.1319 21.4341 39.5107 21.4069C38.7806 21.3746 38.2309 21.7047 37.9621 21.9072C37.9042 21.8238 37.8821 21.7558 37.8804 21.7234L37.8821 21.7251Z" fill="#ADA89F"/>
<path fill-rule="evenodd" clip-rule="evenodd" d="M38.8981 21.1976C39.121 21.1414 39.3678 21.1142 39.6265 21.138C39.8511 21.1585 40.0621 21.2214 40.2544 21.3014C40.2987 21.412 40.3191 21.5363 40.3055 21.6639C40.2629 22.0808 39.8902 22.3838 39.4733 22.3395C39.0564 22.297 38.7534 21.9243 38.796 21.5073C38.8079 21.3933 38.8436 21.2895 38.8981 21.1976Z" fill="#5C9951"/>
<path fill-rule="evenodd" clip-rule="evenodd" d="M39.5856 21.2368C39.7779 21.2573 39.9191 21.4292 39.8987 21.6232C39.8783 21.8172 39.7064 21.9567 39.5124 21.9363C39.3184 21.9159 39.1788 21.744 39.1992 21.55C39.2197 21.356 39.3916 21.2164 39.5856 21.2368Z" fill="#191716"/>
<path fill-rule="evenodd" clip-rule="evenodd" d="M39.5653 21.3898C39.6299 21.3966 39.6776 21.4545 39.6708 21.5208C39.664 21.5855 39.6061 21.6332 39.5398 21.6264C39.4751 21.6196 39.4274 21.5617 39.4342 21.4953C39.441 21.4307 39.4989 21.383 39.5653 21.3898Z" fill="white"/>
<path fill-rule="evenodd" clip-rule="evenodd" d="M37.5979 21.5909C37.5979 21.5909 38.3552 21.1314 39.0989 21.0446C40.1098 20.9255 40.7429 21.4241 41.3436 22.0112L41.2109 21.9414C41.2109 21.9414 40.4808 21.2556 39.6299 21.179C38.779 21.1025 37.8923 21.7764 37.8923 21.7764C37.8923 21.7764 37.5928 21.7781 37.5962 21.5909H37.5979Z" fill="#191716"/>
<path fill-rule="evenodd" clip-rule="evenodd" d="M49.2212 20.4779C49.2212 20.4779 48.3873 19.8159 47.3169 19.7904C46.2447 19.7632 45.239 20.1393 44.7233 20.3197C44.2094 20.5001 44.0613 20.386 44.0885 20.1869C44.1158 19.9878 43.9303 19.479 45.0415 19.2152C46.1528 18.9514 47.6862 19.0093 48.4537 19.445C49.2212 19.8806 49.2688 20.1478 49.3267 20.2431C49.3846 20.3384 49.4356 20.6737 49.2212 20.4779Z" fill="#191716"/>
<path fill-rule="evenodd" clip-rule="evenodd" d="M48.4401 21.3204C48.4401 21.3204 47.6147 20.5019 46.4983 20.5325C45.382 20.5631 44.6927 21.3868 44.4749 21.5213C44.2571 21.6557 44.3694 21.1945 44.9089 20.8065C45.4483 20.4168 47.1535 19.6952 48.4401 21.3221V21.3204Z" fill="#452615"/>
<path fill-rule="evenodd" clip-rule="evenodd" d="M48.1679 21.7355C48.0675 21.5994 47.3119 21.0599 46.427 21.1399C45.5437 21.2199 44.846 21.9312 44.846 21.9312C44.846 21.9312 44.2163 22.2273 44.3559 22.3737C44.4954 22.52 44.8834 22.3805 44.8834 22.3805C44.8834 22.3805 45.9369 22.6868 46.9222 22.5234C47.9075 22.3601 48.1628 21.8427 48.1679 21.7355Z" fill="white"/>
<path fill-rule="evenodd" clip-rule="evenodd" d="M48.1424 22.8267C48.1424 22.8267 47.7323 23.2538 46.7895 23.2674C45.8484 23.2793 45.3838 23.0326 45.3838 23.0326C45.3838 23.0326 46.1972 23.4938 47.0499 23.4019C47.9042 23.31 48.156 22.9713 48.1407 22.8267H48.1424Z" fill="#452615"/>
<path fill-rule="evenodd" clip-rule="evenodd" d="M48.1679 21.7355C48.1543 21.7185 48.1304 21.693 48.0964 21.6641C48.0011 21.887 47.7016 22.3261 46.7996 22.4741C45.673 22.6579 44.8885 22.258 44.8391 21.9346C44.7677 21.9687 44.2265 22.2359 44.3575 22.3737C44.4971 22.5201 44.8851 22.3805 44.8851 22.3805C44.8851 22.3805 45.9385 22.6868 46.9239 22.5235C47.9092 22.3601 48.1645 21.8428 48.1696 21.7355H48.1679Z" fill="#D4926F"/>
<path fill-rule="evenodd" clip-rule="evenodd" d="M48.1679 21.7355C48.0675 21.5994 47.3119 21.0599 46.4269 21.1399C45.5897 21.2148 44.9191 21.858 44.8511 21.9261C45.3089 21.7321 45.9181 21.4343 46.5393 21.4105C47.2693 21.3815 47.8173 21.7134 48.0845 21.9193C48.1424 21.8359 48.1645 21.7678 48.1662 21.7355H48.1679Z" fill="#ADA89F"/>
<path fill-rule="evenodd" clip-rule="evenodd" d="M47.1553 21.2015C46.9323 21.1453 46.6856 21.1147 46.4269 21.1385C46.2023 21.1589 45.9912 21.2202 45.7989 21.2985C45.753 21.4091 45.7343 21.5333 45.7462 21.661C45.787 22.0779 46.158 22.3825 46.575 22.3417C46.9919 22.3009 47.2965 21.9299 47.2557 21.5129C47.2438 21.3989 47.208 21.2951 47.1536 21.2015H47.1553Z" fill="#5C9951"/>
<path fill-rule="evenodd" clip-rule="evenodd" d="M46.4662 21.2368C46.2722 21.2555 46.131 21.4274 46.1514 21.6214C46.1701 21.8154 46.342 21.9567 46.536 21.9363C46.73 21.9175 46.8712 21.7457 46.8508 21.5517C46.8321 21.3577 46.6602 21.2164 46.4662 21.2368Z" fill="#191716"/>
<path fill-rule="evenodd" clip-rule="evenodd" d="M46.4865 21.39C46.4218 21.3968 46.3742 21.4547 46.3793 21.5194C46.3861 21.584 46.444 21.6317 46.5086 21.6266C46.5733 21.6198 46.6209 21.5619 46.6158 21.4972C46.609 21.4326 46.5512 21.3849 46.4865 21.39Z" fill="white"/>
<path fill-rule="evenodd" clip-rule="evenodd" d="M48.4522 21.6014C48.4522 21.6014 47.6966 21.1385 46.9529 21.0466C45.942 20.9224 45.3073 21.4176 44.7031 22.003L44.8359 21.9332C44.8359 21.9332 45.5693 21.2508 46.4202 21.1793C47.2711 21.1062 48.1544 21.7852 48.1544 21.7852C48.1544 21.7852 48.4539 21.7869 48.4505 21.6014H48.4522Z" fill="#191716"/>
<path fill-rule="evenodd" clip-rule="evenodd" d="M43.0591 23.4067C43.1323 23.4067 43.1953 23.7012 43.2259 24.13H42.894C42.9247 23.7012 42.9876 23.4067 43.0608 23.4067H43.0591Z" fill="#B38064"/>
</svg>
