<svg width="85" height="212" viewBox="0 0 85 212" fill="none" xmlns="http://www.w3.org/2000/svg">
<path fill-rule="evenodd" clip-rule="evenodd" d="M35.8757 18.1226H49.4749V24.1299H35.8757V18.1226Z" fill="#A57257"/>
<path fill-rule="evenodd" clip-rule="evenodd" d="M41.0918 20.0216C41.0918 20.0216 42.0176 21.0002 42.0703 21.4631C42.1231 21.926 42.0703 22.1642 42.0176 22.9453C41.9903 23.3589 41.9903 23.7605 42.004 24.1298H41.9104C41.8916 23.8643 41.8797 23.5733 41.8848 23.2891C41.9053 22.1914 41.6738 21.6877 40.9982 21.0802C40.3243 20.4709 39.1466 19.8106 38.8284 19.6915C38.5102 19.5724 40.3634 19.5588 41.0901 20.0216H41.0918Z" fill="#875B43"/>
<path fill-rule="evenodd" clip-rule="evenodd" d="M44.5313 19.9945C44.5313 19.9945 43.8165 20.682 43.711 21.3168C43.6055 21.9515 43.6446 22.4144 43.6838 22.6527C43.7229 22.8909 43.6821 21.7763 44.4853 20.7654C45.2886 19.7545 46.0918 19.7426 46.0918 19.7426C46.0918 19.7426 44.9806 19.6507 44.5313 19.9945Z" fill="#875B43"/>
<path fill-rule="evenodd" clip-rule="evenodd" d="M36.4936 20.4779C36.4936 20.4779 37.3275 19.8159 38.3979 19.7904C39.47 19.7632 40.4758 20.1393 40.9914 20.3197C41.5054 20.5001 41.6534 20.386 41.6262 20.1869C41.599 19.9878 41.7845 19.479 40.6732 19.2152C39.5619 18.9514 38.0286 19.0093 37.2611 19.445C36.4936 19.8806 36.4459 20.1478 36.3881 20.2431C36.3302 20.3384 36.2791 20.6737 36.4936 20.4779Z" fill="#191716"/>
<path fill-rule="evenodd" clip-rule="evenodd" d="M37.2781 21.31C37.2781 21.31 38.1069 20.4949 39.2232 20.5306C40.3396 20.5663 41.0237 21.3934 41.2416 21.5296C41.4594 21.6657 41.3488 21.2045 40.811 20.8114C40.2733 20.42 38.5714 19.6899 37.2781 21.3083V21.31Z" fill="#452615"/>
<path fill-rule="evenodd" clip-rule="evenodd" d="M37.5486 21.7251C37.6507 21.589 38.408 21.0529 39.2912 21.138C40.1745 21.2214 40.8688 21.9379 40.8688 21.9379C40.8688 21.9379 41.4968 22.2374 41.3572 22.3837C41.2177 22.5301 40.8297 22.3871 40.8297 22.3871C40.8297 22.3871 39.7745 22.6884 38.7892 22.5199C37.8038 22.3514 37.552 21.834 37.5469 21.7251H37.5486Z" fill="white"/>
<path fill-rule="evenodd" clip-rule="evenodd" d="M37.5691 22.8179C37.5691 22.8179 37.9775 23.2484 38.9203 23.2654C39.8614 23.2825 40.326 23.0374 40.326 23.0374C40.326 23.0374 39.5108 23.4935 38.6582 23.3982C37.8056 23.3029 37.5555 22.9625 37.5708 22.8179H37.5691Z" fill="#452615"/>
<path fill-rule="evenodd" clip-rule="evenodd" d="M37.5486 21.7253C37.5622 21.7083 37.586 21.6827 37.6201 21.6538C37.7137 21.8767 38.0115 22.3175 38.9134 22.469C40.0383 22.6596 40.8263 22.2631 40.8773 21.9397C40.9488 21.9754 41.4883 22.2443 41.3572 22.3822C41.2177 22.5285 40.8297 22.3856 40.8297 22.3856C40.8297 22.3856 39.7745 22.6868 38.7892 22.5183C37.8038 22.3498 37.552 21.8325 37.5469 21.7236L37.5486 21.7253Z" fill="#D4926F"/>
<path fill-rule="evenodd" clip-rule="evenodd" d="M37.5486 21.7251C37.6507 21.589 38.408 21.0529 39.2912 21.138C40.1285 21.218 40.7956 21.8647 40.8637 21.931C40.4076 21.7353 39.7984 21.4341 39.1772 21.4069C38.4471 21.3746 37.8974 21.7047 37.6286 21.9072C37.5707 21.8238 37.5486 21.7558 37.5469 21.7234L37.5486 21.7251Z" fill="#ADA89F"/>
<path fill-rule="evenodd" clip-rule="evenodd" d="M38.5646 21.1976C38.7875 21.1414 39.0343 21.1142 39.293 21.138C39.5176 21.1585 39.7286 21.2214 39.9209 21.3014C39.9652 21.412 39.9856 21.5363 39.972 21.6639C39.9294 22.0808 39.5567 22.3838 39.1398 22.3395C38.7229 22.297 38.4199 21.9243 38.4625 21.5073C38.4744 21.3933 38.5101 21.2895 38.5646 21.1976Z" fill="#139799"/>
<path fill-rule="evenodd" clip-rule="evenodd" d="M39.2521 21.2368C39.4444 21.2573 39.5856 21.4292 39.5652 21.6232C39.5448 21.8172 39.3729 21.9567 39.1789 21.9363C38.9849 21.9159 38.8453 21.744 38.8658 21.55C38.8862 21.356 39.0581 21.2164 39.2521 21.2368Z" fill="#191716"/>
<path fill-rule="evenodd" clip-rule="evenodd" d="M39.2318 21.3898C39.2965 21.3966 39.3441 21.4545 39.3373 21.5208C39.3305 21.5855 39.2726 21.6332 39.2063 21.6264C39.1416 21.6196 39.0939 21.5617 39.1007 21.4953C39.1076 21.4307 39.1654 21.383 39.2318 21.3898Z" fill="white"/>
<path fill-rule="evenodd" clip-rule="evenodd" d="M37.2644 21.5909C37.2644 21.5909 38.0217 21.1314 38.7654 21.0446C39.7763 20.9255 40.4094 21.4241 41.0101 22.0112L40.8774 21.9414C40.8774 21.9414 40.1473 21.2556 39.2964 21.179C38.4455 21.1025 37.5588 21.7764 37.5588 21.7764C37.5588 21.7764 37.2593 21.7781 37.2627 21.5909H37.2644Z" fill="#191716"/>
<path fill-rule="evenodd" clip-rule="evenodd" d="M48.8877 20.4779C48.8877 20.4779 48.0538 19.8159 46.9834 19.7904C45.9112 19.7632 44.9055 20.1393 44.3898 20.3197C43.8759 20.5001 43.7278 20.386 43.755 20.1869C43.7823 19.9878 43.5968 19.479 44.7081 19.2152C45.8193 18.9514 47.3527 19.0093 48.1202 19.445C48.8877 19.8806 48.9353 20.1478 48.9932 20.2431C49.0511 20.3384 49.1021 20.6737 48.8877 20.4779Z" fill="#191716"/>
<path fill-rule="evenodd" clip-rule="evenodd" d="M48.1066 21.3204C48.1066 21.3204 47.2812 20.5019 46.1648 20.5325C45.0485 20.5631 44.3592 21.3868 44.1414 21.5213C43.9236 21.6557 44.0359 21.1945 44.5754 20.8065C45.1148 20.4168 46.82 19.6952 48.1066 21.3221V21.3204Z" fill="#452615"/>
<path fill-rule="evenodd" clip-rule="evenodd" d="M47.8344 21.7355C47.734 21.5994 46.9784 21.0599 46.0935 21.1399C45.2102 21.2199 44.5125 21.9312 44.5125 21.9312C44.5125 21.9312 43.8828 22.2273 44.0224 22.3737C44.1619 22.52 44.5499 22.3805 44.5499 22.3805C44.5499 22.3805 45.6034 22.6868 46.5887 22.5234C47.574 22.3601 47.8293 21.8427 47.8344 21.7355Z" fill="white"/>
<path fill-rule="evenodd" clip-rule="evenodd" d="M47.8089 22.8267C47.8089 22.8267 47.3988 23.2538 46.456 23.2674C45.5149 23.2793 45.0503 23.0326 45.0503 23.0326C45.0503 23.0326 45.8638 23.4938 46.7164 23.4019C47.5707 23.31 47.8225 22.9713 47.8072 22.8267H47.8089Z" fill="#452615"/>
<path fill-rule="evenodd" clip-rule="evenodd" d="M47.8344 21.7355C47.8208 21.7185 47.7969 21.693 47.7629 21.6641C47.6676 21.887 47.3681 22.3261 46.4661 22.4741C45.3395 22.6579 44.555 22.258 44.5056 21.9346C44.4342 21.9687 43.893 22.2359 44.024 22.3737C44.1636 22.5201 44.5516 22.3805 44.5516 22.3805C44.5516 22.3805 45.605 22.6868 46.5904 22.5235C47.5757 22.3601 47.831 21.8428 47.8361 21.7355H47.8344Z" fill="#D4926F"/>
<path fill-rule="evenodd" clip-rule="evenodd" d="M47.8344 21.7355C47.734 21.5994 46.9784 21.0599 46.0935 21.1399C45.2562 21.2148 44.5857 21.858 44.5176 21.9261C44.9754 21.7321 45.5846 21.4343 46.2058 21.4105C46.9358 21.3815 47.4838 21.7134 47.751 21.9193C47.8089 21.8359 47.831 21.7678 47.8327 21.7355H47.8344Z" fill="#ADA89F"/>
<path fill-rule="evenodd" clip-rule="evenodd" d="M46.8218 21.2015C46.5988 21.1453 46.3521 21.1147 46.0934 21.1385C45.8688 21.1589 45.6577 21.2202 45.4654 21.2985C45.4195 21.4091 45.4008 21.5333 45.4127 21.661C45.4535 22.0779 45.8245 22.3825 46.2415 22.3417C46.6584 22.3009 46.963 21.9299 46.9222 21.5129C46.9103 21.3989 46.8745 21.2951 46.8201 21.2015H46.8218Z" fill="#139799"/>
<path fill-rule="evenodd" clip-rule="evenodd" d="M46.1327 21.2368C45.9387 21.2555 45.7975 21.4274 45.8179 21.6214C45.8366 21.8154 46.0085 21.9567 46.2025 21.9363C46.3965 21.9175 46.5377 21.7457 46.5173 21.5517C46.4986 21.3577 46.3267 21.2164 46.1327 21.2368Z" fill="#191716"/>
<path fill-rule="evenodd" clip-rule="evenodd" d="M46.153 21.39C46.0883 21.3968 46.0407 21.4547 46.0458 21.5194C46.0526 21.584 46.1105 21.6317 46.1751 21.6266C46.2398 21.6198 46.2874 21.5619 46.2823 21.4972C46.2755 21.4326 46.2177 21.3849 46.153 21.39Z" fill="white"/>
<path fill-rule="evenodd" clip-rule="evenodd" d="M48.1187 21.6014C48.1187 21.6014 47.3631 21.1385 46.6194 21.0466C45.6085 20.9224 44.9738 21.4176 44.3696 22.003L44.5024 21.9332C44.5024 21.9332 45.2358 21.2508 46.0867 21.1793C46.9377 21.1062 47.8209 21.7852 47.8209 21.7852C47.8209 21.7852 48.1204 21.7869 48.117 21.6014H48.1187Z" fill="#191716"/>
<path fill-rule="evenodd" clip-rule="evenodd" d="M42.7256 23.4067C42.7988 23.4067 42.8618 23.7012 42.8924 24.13H42.5605C42.5912 23.7012 42.6541 23.4067 42.7273 23.4067H42.7256Z" fill="#B38064"/>
</svg>
