<svg width="86" height="212" viewBox="0 0 86 212" fill="none" xmlns="http://www.w3.org/2000/svg">
<path d="M47.3523 29.9135C47.3523 29.9135 47.3659 28.9481 47.2229 28.4986C47.0798 28.0491 46.7155 27.9571 46.0787 27.8499C45.4419 27.7443 44.2841 27.4906 44.2841 27.4906C44.2841 27.4906 44.2057 27.4702 44.0627 27.6234C43.4038 28.3249 42.7397 28.3011 42.0808 27.5979C41.9378 27.4463 41.8595 27.4651 41.8595 27.4651C41.8595 27.4651 40.562 27.7426 39.9252 27.8482C39.2884 27.9537 38.9241 28.0474 38.781 28.4969C38.638 28.9464 38.6516 29.9118 38.6516 29.9118C38.5835 30.1127 38.5171 30.1791 38.0898 29.9152C37.6607 29.6513 37.6352 29.3601 37.6352 29.3601C37.6352 29.3601 37.6352 29.321 37.5705 28.6859C37.5058 28.0508 37.1022 27.6149 36.4535 26.7278C35.8031 25.8407 35.8031 25.2329 35.6601 24.2011C35.517 23.1692 35.42 21.6045 35.5954 20.3377C35.7707 19.0709 36.0517 18.9483 36.0244 18.1821C35.9989 17.4142 36.1538 16.66 36.869 16.5152C37.5841 16.3705 37.3883 15.5498 37.8837 15.4834C38.3775 15.417 38.5733 15.2978 38.9888 14.8347C39.0909 14.7206 39.348 14.5946 39.6886 14.4686C39.7328 14.4533 39.7788 14.4363 39.8265 14.4192L39.8333 14.4175L39.8384 14.4158C40.2045 14.2898 40.6438 14.1673 41.0899 14.0583C43.8907 13.4862 45.8624 14.5793 47.3965 13.8165C47.7439 13.6445 49.7581 15.463 49.8535 18.0902C49.8807 18.8564 50.2366 19.0726 50.4137 20.3394C50.589 21.6062 50.492 23.1709 50.349 24.2028C50.2059 25.2346 50.2059 25.8424 49.5555 26.7295C48.9051 27.6166 48.5033 28.0525 48.4386 28.6876C48.3739 29.3227 48.3739 29.3618 48.3739 29.3618C48.3739 29.3618 48.3483 29.653 47.9192 29.9169C47.4902 30.1808 47.4255 30.1161 47.3574 29.9135H47.3523ZM41.8084 30.5401C42.4792 30.9079 43.6745 30.7989 44.1598 30.5128C44.1598 30.5128 43.775 31.7592 42.9747 31.749C42.1745 31.7388 41.822 30.7802 41.8084 30.5384V30.5401ZM44.0644 28.7846C44.5088 28.9617 45.338 29.1626 45.7347 29.195C46.1314 29.2256 46.2677 29.103 46.3392 29.103C46.4107 29.103 46.4754 29.355 46.4754 29.8709C46.4754 30.3868 45.2154 32.0929 44.6042 32.3977C44.1751 32.6105 41.8288 32.6105 41.3997 32.3977C40.7885 32.0929 39.5285 30.3868 39.5285 29.8709C39.5285 29.355 39.5932 29.103 39.6647 29.103C39.7362 29.103 39.8725 29.2273 40.2692 29.195C40.6659 29.1643 41.3265 28.9651 41.9395 28.7846C42.3311 28.6705 42.515 28.8306 43.0071 28.8323C43.4838 28.8323 43.6183 28.6093 44.0627 28.7846H44.0644ZM46.8534 33.6662C48.3092 32.2904 49.6747 30.8755 49.908 29.195C50.1412 27.5144 50.3898 25.7692 50.7542 24.2998C51.1186 22.8321 51.1015 21.8139 51.8507 20.7872C52.5999 19.7622 53.1209 18.6504 52.731 18.2792C52.3411 17.908 52.4705 17.7497 52.5488 17.5913C52.6271 17.433 53.3814 14.8126 52.21 13.4368C51.0402 12.0611 51.6379 12.5497 51.5595 12.3522C51.4812 12.153 50.9347 11.4651 50.4154 11.3068C49.896 11.1484 49.908 11.082 49.8688 10.8709C49.8296 10.6598 49.7769 10.3822 49.4006 10.1558C49.0243 9.93102 48.7893 9.99743 48.7774 9.89186C48.7638 9.7863 48.2904 9.25677 47.6587 9.00477C47.0288 8.75278 46.6899 8.91283 46.6899 8.91283C46.6899 8.91283 46.0923 8.16536 44.5326 8.00701C43.9946 7.95253 43.4617 7.94231 43.0003 8.01553C42.5388 7.94231 42.0059 7.95253 41.4679 8.00701C39.9082 8.16536 39.3106 8.91283 39.3106 8.91283C39.3106 8.91283 38.9717 8.75448 38.3418 9.00477C37.7118 9.25677 37.2367 9.78459 37.2231 9.89186C37.2095 9.99743 36.9762 9.93102 36.5999 10.1558C36.2236 10.3805 36.1709 10.6581 36.1317 10.8709C36.0925 11.082 36.1062 11.1484 35.5851 11.3068C35.0658 11.4651 34.5193 12.153 34.441 12.3522C34.3626 12.5514 34.9603 12.0611 33.7905 13.4368C32.6208 14.8126 33.3751 17.4313 33.4517 17.5913C33.53 17.7497 33.6594 17.908 33.2695 18.2792C32.8796 18.6504 33.3989 19.7605 34.1498 20.7872C34.899 21.8122 34.8836 22.8304 35.2463 24.2998C35.6107 25.7675 35.8576 27.5144 36.0925 29.195C36.3258 30.8755 37.6913 32.2904 39.1471 33.6662C41.6603 36.0397 44.3368 36.0397 46.85 33.6662H46.8534Z" fill="url(#paint0_linear)"/>
<defs>
<linearGradient id="paint0_linear" x1="40.9945" y1="11.6235" x2="45.5883" y2="32.5833" gradientUnits="userSpaceOnUse">
<stop stop-color="#C2562E"/>
<stop offset="1" stop-color="#8B402A"/>
</linearGradient>
</defs>
</svg>
