<svg width="85" height="212" viewBox="0 0 85 212" fill="none" xmlns="http://www.w3.org/2000/svg">
<path d="M46.6853 29.9135C46.6853 29.9135 46.6989 28.9481 46.5559 28.4986C46.4128 28.0491 46.0485 27.9571 45.4117 27.8499C44.7749 27.7443 43.6171 27.4906 43.6171 27.4906C43.6171 27.4906 43.5387 27.4702 43.3957 27.6234C42.7368 28.3249 42.0727 28.3011 41.4138 27.5979C41.2708 27.4463 41.1925 27.4651 41.1925 27.4651C41.1925 27.4651 39.895 27.7426 39.2582 27.8482C38.6214 27.9537 38.2571 28.0474 38.1141 28.4969C37.971 28.9464 37.9847 29.9118 37.9847 29.9118C37.9165 30.1127 37.8501 30.1791 37.4228 29.9152C36.9937 29.6513 36.9682 29.3601 36.9682 29.3601C36.9682 29.3601 36.9682 29.321 36.9035 28.6859C36.8388 28.0508 36.4352 27.6149 35.7865 26.7278C35.1361 25.8407 35.1361 25.2329 34.9931 24.2011C34.85 23.1692 34.753 21.6045 34.9284 20.3377C35.1037 19.0709 35.3847 18.9483 35.3574 18.1821C35.3319 17.4142 35.4868 16.66 36.202 16.5152C36.9171 16.3705 36.7213 15.5498 37.2168 15.4834C37.7105 15.417 37.9063 15.2978 38.3218 14.8347C38.4239 14.7206 38.681 14.5946 39.0216 14.4686C39.0658 14.4533 39.1118 14.4363 39.1595 14.4192L39.1663 14.4175L39.1714 14.4158C39.5375 14.2898 39.9768 14.1673 40.4229 14.0583C43.2238 13.4862 45.1954 14.5793 46.7295 13.8165C47.0769 13.6445 49.0911 15.463 49.1865 18.0902C49.2137 18.8564 49.5696 19.0726 49.7467 20.3394C49.922 21.6062 49.825 23.1709 49.682 24.2028C49.5389 25.2346 49.5389 25.8424 48.8885 26.7295C48.2381 27.6166 47.8363 28.0525 47.7716 28.6876C47.7069 29.3227 47.7069 29.3618 47.7069 29.3618C47.7069 29.3618 47.6813 29.653 47.2523 29.9169C46.8232 30.1808 46.7585 30.1161 46.6904 29.9135H46.6853ZM41.1414 30.5401C41.8122 30.9079 43.0075 30.7989 43.4928 30.5128C43.4928 30.5128 43.108 31.7592 42.3077 31.749C41.5075 31.7388 41.155 30.7802 41.1414 30.5384V30.5401ZM43.3974 28.7846C43.8418 28.9617 44.671 29.1626 45.0677 29.195C45.4645 29.2256 45.6007 29.103 45.6722 29.103C45.7437 29.103 45.8084 29.355 45.8084 29.8709C45.8084 30.3868 44.5484 32.0929 43.9372 32.3977C43.5081 32.6105 41.1618 32.6105 40.7328 32.3977C40.1215 32.0929 38.8615 30.3868 38.8615 29.8709C38.8615 29.355 38.9262 29.103 38.9977 29.103C39.0692 29.103 39.2055 29.2273 39.6022 29.195C39.9989 29.1643 40.6595 28.9651 41.2725 28.7846C41.6641 28.6705 41.848 28.8306 42.3401 28.8323C42.8168 28.8323 42.9513 28.6093 43.3957 28.7846H43.3974ZM46.1864 33.6662C47.6422 32.2904 49.0077 30.8755 49.241 29.195C49.4742 27.5144 49.7228 25.7692 50.0872 24.2998C50.4516 22.8321 50.4345 21.8139 51.1837 20.7872C51.9329 19.7622 52.4539 18.6504 52.064 18.2792C51.6741 17.908 51.8035 17.7497 51.8818 17.5913C51.9601 17.433 52.7144 14.8126 51.543 13.4368C50.3732 12.0611 50.9709 12.5497 50.8926 12.3522C50.8142 12.153 50.2677 11.4651 49.7484 11.3068C49.229 11.1484 49.241 11.082 49.2018 10.8709C49.1626 10.6598 49.1099 10.3822 48.7336 10.1558C48.3573 9.93102 48.1223 9.99743 48.1104 9.89186C48.0968 9.7863 47.6234 9.25677 46.9917 9.00477C46.3618 8.75278 46.0229 8.91283 46.0229 8.91283C46.0229 8.91283 45.4253 8.16536 43.8657 8.00701C43.3276 7.95253 42.7947 7.94231 42.3333 8.01553C41.8718 7.94231 41.3389 7.95253 40.8009 8.00701C39.2412 8.16536 38.6436 8.91283 38.6436 8.91283C38.6436 8.91283 38.3048 8.75448 37.6748 9.00477C37.0448 9.25677 36.5697 9.78459 36.5561 9.89186C36.5425 9.99743 36.3092 9.93102 35.9329 10.1558C35.5567 10.3805 35.5039 10.6581 35.4647 10.8709C35.4255 11.082 35.4392 11.1484 34.9182 11.3068C34.3988 11.4651 33.8523 12.153 33.774 12.3522C33.6956 12.5514 34.2933 12.0611 33.1235 13.4368C31.9538 14.8126 32.7081 17.4313 32.7847 17.5913C32.863 17.7497 32.9924 17.908 32.6025 18.2792C32.2126 18.6504 32.7319 19.7605 33.4828 20.7872C34.232 21.8122 34.2167 22.8304 34.5793 24.2998C34.9437 25.7675 35.1906 27.5144 35.4255 29.195C35.6588 30.8755 37.0243 32.2904 38.4801 33.6662C40.9933 36.0397 43.6698 36.0397 46.183 33.6662H46.1864Z" fill="url(#paint0_linear)"/>
<defs>
<linearGradient id="paint0_linear" x1="40.3275" y1="11.6235" x2="44.9213" y2="32.5833" gradientUnits="userSpaceOnUse">
<stop stop-color="#401B0E"/>
<stop offset="1"/>
</linearGradient>
</defs>
</svg>
