<svg width="85" height="212" viewBox="0 0 85 212" fill="none" xmlns="http://www.w3.org/2000/svg">
<path d="M46.6855 29.9135C46.6855 29.9135 46.6991 28.9481 46.5561 28.4986C46.4131 28.0491 46.0487 27.9571 45.4119 27.8499C44.7751 27.7443 43.6173 27.4906 43.6173 27.4906C43.6173 27.4906 43.539 27.4702 43.396 27.6234C42.737 28.3249 42.073 28.3011 41.4141 27.5979C41.271 27.4463 41.1927 27.4651 41.1927 27.4651C41.1927 27.4651 39.8953 27.7426 39.2585 27.8482C38.6217 27.9537 38.2573 28.0474 38.1143 28.4969C37.9713 28.9464 37.9849 29.9118 37.9849 29.9118C37.9168 30.1127 37.8504 30.1791 37.423 29.9152C36.9939 29.6513 36.9684 29.3601 36.9684 29.3601C36.9684 29.3601 36.9684 29.321 36.9037 28.6859C36.839 28.0508 36.4355 27.6149 35.7868 26.7278C35.1363 25.8407 35.1363 25.2329 34.9933 24.2011C34.8503 23.1692 34.7532 21.6045 34.9286 20.3377C35.104 19.0709 35.3849 18.9483 35.3577 18.1821C35.3321 17.4142 35.4871 16.66 36.2022 16.5152C36.9173 16.3705 36.7215 15.5498 37.217 15.4834C37.7108 15.417 37.9066 15.2978 38.322 14.8347C38.4242 14.7206 38.6813 14.5946 39.0218 14.4686C39.0661 14.4533 39.1121 14.4363 39.1597 14.4192L39.1665 14.4175L39.1717 14.4158C39.5377 14.2898 39.977 14.1673 40.4231 14.0583C43.224 13.4862 45.1957 14.5793 46.7298 13.8165C47.0771 13.6445 49.0914 15.463 49.1867 18.0902C49.214 18.8564 49.5698 19.0726 49.7469 20.3394C49.9223 21.6062 49.8252 23.1709 49.6822 24.2028C49.5392 25.2346 49.5392 25.8424 48.8888 26.7295C48.2383 27.6166 47.8365 28.0525 47.7718 28.6876C47.7071 29.3227 47.7071 29.3618 47.7071 29.3618C47.7071 29.3618 47.6816 29.653 47.2525 29.9169C46.8234 30.1808 46.7587 30.1161 46.6906 29.9135H46.6855ZM41.1416 30.5401C41.8125 30.9079 43.0078 30.7989 43.493 30.5128C43.493 30.5128 43.1082 31.7592 42.308 31.749C41.5077 31.7388 41.1553 30.7802 41.1416 30.5384V30.5401ZM43.3977 28.7846C43.8421 28.9617 44.6713 29.1626 45.068 29.195C45.4647 29.2256 45.6009 29.103 45.6724 29.103C45.7439 29.103 45.8086 29.355 45.8086 29.8709C45.8086 30.3868 44.5487 32.0929 43.9374 32.3977C43.5083 32.6105 41.1621 32.6105 40.733 32.3977C40.1217 32.0929 38.8618 30.3868 38.8618 29.8709C38.8618 29.355 38.9265 29.103 38.998 29.103C39.0695 29.103 39.2057 29.2273 39.6024 29.195C39.9991 29.1643 40.6598 28.9651 41.2727 28.7846C41.6644 28.6705 41.8482 28.8306 42.3403 28.8323C42.8171 28.8323 42.9516 28.6093 43.396 28.7846H43.3977ZM46.1866 33.6662C47.6424 32.2904 49.0079 30.8755 49.2412 29.195C49.4745 27.5144 49.7231 25.7692 50.0874 24.2998C50.4518 22.8321 50.4348 21.8139 51.1839 20.7872C51.9331 19.7622 52.4541 18.6504 52.0642 18.2792C51.6743 17.908 51.8037 17.7497 51.882 17.5913C51.9604 17.433 52.7146 14.8126 51.5432 13.4368C50.3735 12.0611 50.9711 12.5497 50.8928 12.3522C50.8145 12.153 50.2679 11.4651 49.7486 11.3068C49.2293 11.1484 49.2412 11.082 49.2021 10.8709C49.1629 10.6598 49.1101 10.3822 48.7338 10.1558C48.3575 9.93102 48.1226 9.99743 48.1106 9.89186C48.097 9.7863 47.6237 9.25677 46.992 9.00477C46.362 8.75278 46.0232 8.91283 46.0232 8.91283C46.0232 8.91283 45.4255 8.16536 43.8659 8.00701C43.3279 7.95253 42.7949 7.94231 42.3335 8.01553C41.8721 7.94231 41.3391 7.95253 40.8011 8.00701C39.2415 8.16536 38.6438 8.91283 38.6438 8.91283C38.6438 8.91283 38.305 8.75448 37.675 9.00477C37.045 9.25677 36.57 9.78459 36.5564 9.89186C36.5427 9.99743 36.3095 9.93102 35.9332 10.1558C35.5569 10.3805 35.5041 10.6581 35.465 10.8709C35.4258 11.082 35.4394 11.1484 34.9184 11.3068C34.3991 11.4651 33.8525 12.153 33.7742 12.3522C33.6959 12.5514 34.2935 12.0611 33.1238 13.4368C31.9541 14.8126 32.7083 17.4313 32.785 17.5913C32.8633 17.7497 32.9927 17.908 32.6028 18.2792C32.2129 18.6504 32.7322 19.7605 33.483 20.7872C34.2322 21.8122 34.2169 22.8304 34.5796 24.2998C34.9439 25.7675 35.1908 27.5144 35.4258 29.195C35.6591 30.8755 37.0246 32.2904 38.4804 33.6662C40.9935 36.0397 43.6701 36.0397 46.1832 33.6662H46.1866Z" fill="url(#paint0_linear)"/>
<defs>
<linearGradient id="paint0_linear" x1="40.3278" y1="11.6235" x2="44.9216" y2="32.5833" gradientUnits="userSpaceOnUse">
<stop stop-color="#856559"/>
<stop offset="1" stop-color="#332926"/>
</linearGradient>
</defs>
</svg>
