<svg width="85" height="212" viewBox="0 0 85 212" fill="none" xmlns="http://www.w3.org/2000/svg">
<path fill-rule="evenodd" clip-rule="evenodd" d="M47.019 29.9135C47.019 29.9135 47.0326 28.9481 46.8896 28.4986C46.7466 28.0491 46.3822 27.9571 45.7454 27.8499C45.1086 27.7443 43.9508 27.4906 43.9508 27.4906C43.9508 27.4906 43.8725 27.4702 43.7295 27.6234C43.0705 28.3249 42.4065 28.3011 41.7476 27.5979C41.6045 27.4463 41.5262 27.4651 41.5262 27.4651C41.5262 27.4651 40.2288 27.7426 39.592 27.8482C38.9552 27.9537 38.5908 28.0474 38.4478 28.4969C38.3048 28.9464 38.3184 29.9118 38.3184 29.9118C38.2503 30.1127 38.1839 30.1791 37.7565 29.9152C37.3274 29.6513 37.3019 29.3601 37.3019 29.3601C37.3019 29.3601 37.3019 29.321 37.2372 28.6859C37.1725 28.0508 36.769 27.6149 36.1203 26.7278C35.4698 25.8407 35.4698 25.2329 35.3268 24.2011C35.1838 23.1692 35.0867 21.6045 35.2621 20.3377C35.4375 19.0709 35.7184 18.9483 35.6912 18.1821C35.6656 17.4142 35.8206 16.66 36.5357 16.5152C37.2508 16.3705 37.055 15.5498 37.5505 15.4834C38.0443 15.417 38.2401 15.2978 38.6555 14.8347C38.7577 14.7206 39.0148 14.5946 39.3553 14.4686C39.3996 14.4533 39.4456 14.4363 39.4932 14.4192L39.5 14.4175L39.5051 14.4158C39.8712 14.2898 40.3105 14.1673 40.7566 14.0583C43.5575 13.4862 45.5292 14.5793 47.0633 13.8165C47.4106 13.6445 49.4249 15.463 49.5202 18.0902C49.5475 18.8564 49.9033 19.0726 50.0804 20.3394C50.2558 21.6062 50.1587 23.1709 50.0157 24.2028C49.8727 25.2346 49.8727 25.8424 49.2223 26.7295C48.5718 27.6166 48.17 28.0525 48.1053 28.6876C48.0406 29.3227 48.0406 29.3618 48.0406 29.3618C48.0406 29.3618 48.0151 29.653 47.586 29.9169C47.1569 30.1808 47.0922 30.1161 47.0241 29.9135H47.019ZM41.4751 30.5401C42.146 30.9079 43.3413 30.7989 43.8265 30.5128C43.8265 30.5128 43.4417 31.7592 42.6415 31.749C41.8412 31.7388 41.4888 30.7802 41.4751 30.5384V30.5401ZM43.7312 28.7846C44.1756 28.9617 45.0048 29.1626 45.4015 29.195C45.7982 29.2256 45.9344 29.103 46.0059 29.103C46.0774 29.103 46.1421 29.355 46.1421 29.8709C46.1421 30.3868 44.8822 32.0929 44.2709 32.3977C43.8418 32.6105 41.4956 32.6105 41.0665 32.3977C40.4552 32.0929 39.1953 30.3868 39.1953 29.8709C39.1953 29.355 39.26 29.103 39.3315 29.103C39.403 29.103 39.5392 29.2273 39.9359 29.195C40.3326 29.1643 40.9933 28.9651 41.6062 28.7846C41.9978 28.6705 42.1817 28.8306 42.6738 28.8323C43.1506 28.8323 43.2851 28.6093 43.7295 28.7846H43.7312ZM46.5201 33.6662C47.9759 32.2904 49.3414 30.8755 49.5747 29.195C49.808 27.5144 50.0566 25.7692 50.4209 24.2998C50.7853 22.8321 50.7683 21.8139 51.5174 20.7872C52.2666 19.7622 52.7876 18.6504 52.3977 18.2792C52.0078 17.908 52.1372 17.7497 52.2155 17.5913C52.2939 17.433 53.0481 14.8126 51.8767 13.4368C50.707 12.0611 51.3046 12.5497 51.2263 12.3522C51.148 12.153 50.6014 11.4651 50.0821 11.3068C49.5628 11.1484 49.5747 11.082 49.5355 10.8709C49.4964 10.6598 49.4436 10.3822 49.0673 10.1558C48.691 9.93102 48.4561 9.99743 48.4441 9.89186C48.4305 9.7863 47.9572 9.25677 47.3255 9.00477C46.6955 8.75278 46.3567 8.91283 46.3567 8.91283C46.3567 8.91283 45.759 8.16536 44.1994 8.00701C43.6614 7.95253 43.1284 7.94231 42.667 8.01553C42.2056 7.94231 41.6726 7.95253 41.1346 8.00701C39.575 8.16536 38.9773 8.91283 38.9773 8.91283C38.9773 8.91283 38.6385 8.75448 38.0085 9.00477C37.3785 9.25677 36.9035 9.78459 36.8899 9.89186C36.8762 9.99743 36.643 9.93102 36.2667 10.1558C35.8904 10.3805 35.8376 10.6581 35.7984 10.8709C35.7593 11.082 35.7729 11.1484 35.2519 11.3068C34.7326 11.4651 34.186 12.153 34.1077 12.3522C34.0294 12.5514 34.627 12.0611 33.4573 13.4368C32.2876 14.8126 33.0418 17.4313 33.1185 17.5913C33.1968 17.7497 33.3262 17.908 32.9363 18.2792C32.5464 18.6504 33.0657 19.7605 33.8165 20.7872C34.5657 21.8122 34.5504 22.8304 34.9131 24.2998C35.2774 25.7675 35.5243 27.5144 35.7593 29.195C35.9926 30.8755 37.3581 32.2904 38.8139 33.6662C41.327 36.0397 44.0036 36.0397 46.5167 33.6662H46.5201Z" fill="#2C323B"/>
</svg>
