<svg width="85" height="212" viewBox="0 0 85 212" fill="none" xmlns="http://www.w3.org/2000/svg">
<path fill-rule="evenodd" clip-rule="evenodd" d="M36.1269 34.9234C36.1269 34.9234 36.9293 36.7923 37.3383 39.0328C37.747 41.2736 37.692 42.1775 36.3359 42.8608C34.9799 43.5445 31.9859 44.9315 30.8262 45.5607C29.6664 46.1903 28.5708 47.7806 28.7658 50.7557C28.9609 53.7309 29.6667 56.2443 29.6667 56.2443C29.6667 56.2443 47.3051 61.1831 49.9512 58.846C52.597 56.5089 55.9052 41.4538 52.4579 40.9181C52.2874 40.8917 50.9511 40.6884 50.7931 40.6674C47.7505 40.2655 46.8931 40.7814 45.7832 38.0447C44.6158 35.1655 45.4313 30.1826 45.4313 30.1826C45.4313 30.1826 39.7301 35.0379 36.1272 34.9228L36.1269 34.9234Z" fill="#A57257"/>
<path fill-rule="evenodd" clip-rule="evenodd" d="M48.0198 48.8675C48.0198 48.8675 47.0891 53.735 45.7221 55.8296C44.3552 57.9243 47.5081 60.5923 47.883 57.395C48.258 54.198 48.0201 48.8672 48.0201 48.8672L48.0198 48.8675Z" fill="#875B43"/>
<path fill-rule="evenodd" clip-rule="evenodd" d="M30.174 111.069C30.174 111.069 30.1354 114.072 31.4012 121.843C31.6406 123.312 31.9089 125.059 32.1863 126.925C33.7273 122.057 36.0833 114.908 36.7994 112.74C32.7626 111.183 30.4954 111.076 30.174 111.069ZM35.7922 152.465C36.8769 160.224 38.3924 171.737 38.2566 174.593C38.0467 179.003 34.9521 186.467 34.9521 186.467C34.9521 186.467 33.758 187.45 35.1636 188.694C36.5694 189.939 37.9768 189.957 37.9768 189.957L38.3362 189.413C38.3217 189.176 38.3627 189.019 38.3627 189.019C38.3627 189.019 38.3627 189.019 38.9928 183.442C39.623 177.864 40.2507 175.628 39.1621 166.189C38.6756 161.973 37.2923 157.018 35.7925 152.465L35.7922 152.465ZM44.8867 149.092C44.9426 147.099 44.9055 145.313 44.705 144.1C43.9114 139.293 43.0257 138.228 43.0257 138.228C43.0257 138.228 43.5859 133.591 44.0769 128.342C41.4606 132.893 38.9615 137.068 38.9615 137.068C38.9615 137.068 40.7347 138.586 43.3365 143.966C44.1395 145.627 44.6156 147.338 44.8864 149.092H44.8867Z" fill="#875B43"/>
<path fill-rule="evenodd" clip-rule="evenodd" d="M30.615 54.7154C31.2218 55.2365 32.6307 55.8709 35.8471 55.6093C40.0537 55.2672 43.436 53.6553 44.5718 53.054C46.5346 43.6621 49.7559 41.1688 51.2097 40.5116C51.9894 40.1589 52.3054 40.4451 52.4351 40.772C52.422 40.7732 47.694 41.2976 45.205 53.4797C45.5781 54.5158 46.4261 56.6569 47.7955 58.9706C49.7136 62.2117 48.2868 73.5819 48.2868 73.5819C48.2868 73.5819 49.8014 77.1826 51.852 80.8648C53.9026 84.5471 58.2226 92.1144 56.8122 100.491C55.4018 108.867 49.3135 119.119 49.3135 119.119C49.3135 119.119 44.7705 116.258 38.9845 113.654C33.1985 111.05 30.1337 111.068 30.1337 111.068C30.1337 111.068 29.2125 90.4184 30.4555 84.3076C31.6985 78.1969 31.6271 75.5784 30.8815 72.4242C30.1359 69.2698 29.1609 66.0789 29.1609 66.0789C29.1609 66.0789 25.087 61.6259 30.007 54.3575C30.0405 54.2934 30.0751 54.228 30.1116 54.1618C31.2494 52.0918 33.2806 48.9446 32.7127 44.5955C32.6802 44.1039 33.3575 44.0197 33.3739 44.3412C33.8834 49.0096 31.9203 52.3285 30.729 54.5006C30.6889 54.5735 30.6509 54.6452 30.615 54.7154Z" fill="#D5C1B5"/>
<path fill-rule="evenodd" clip-rule="evenodd" d="M36.7993 112.74C35.8495 115.616 32.0157 127.251 31.0234 130.707C29.8879 134.662 29.8405 135.501 31.165 139.557C32.4894 143.613 38.073 156.751 39.1617 166.189C40.2503 175.628 39.6226 177.864 38.9924 183.442C38.3623 189.019 38.3623 189.019 38.3623 189.019C38.3623 189.019 37.7877 191.217 41.6978 191.548C45.6079 191.878 45.9065 189.671 45.8455 187.534C45.7844 185.396 46.1827 183.038 46.623 180.843C47.0633 178.649 47.0125 177.408 46.0126 174.402C45.0127 171.395 44.8288 167.63 44.9701 161.443C45.1117 155.256 45.9385 149.346 43.3367 143.967C40.7349 138.587 38.9617 137.069 38.9617 137.069C38.9617 137.069 46.6528 124.218 49.1761 119.035C48.3789 118.542 44.1841 115.994 38.9845 113.654C38.2064 113.304 37.4781 113.002 36.7993 112.74V112.74Z" fill="#A57257"/>
<path fill-rule="evenodd" clip-rule="evenodd" d="M34.9879 186.379C34.2554 186.956 32.7155 188.275 31.1137 190.293C28.8951 193.088 29.5009 193.227 30.1733 193.23C30.8047 193.232 35.5458 193.572 36.954 192.747C37.0677 192.371 37.1856 192.008 37.301 191.669C37.5736 190.871 37.7948 190.327 37.9695 189.957C37.8628 189.954 36.5126 189.889 35.1632 188.694C33.7574 187.449 34.9518 186.467 34.9518 186.467L34.9879 186.378V186.379Z" fill="#BA9F8A"/>
<path fill-rule="evenodd" clip-rule="evenodd" d="M38.3328 189.318C38.1523 189.553 37.8193 190.151 37.301 191.669C36.456 194.146 35.4652 197.983 37.1852 197.85C38.9052 197.718 46.084 195.163 46.331 192.02C46.578 188.876 47.255 186.877 47.6937 184.432C48.1324 181.986 49.2269 180.478 49.2858 178.807C49.3405 177.262 48.1388 175.92 46.0761 174.594C47.014 177.462 47.0535 178.696 46.6227 180.843C46.1824 183.037 45.7841 185.395 45.8452 187.533C45.9062 189.671 45.6076 191.878 41.6975 191.547C38.6855 191.293 38.3346 189.93 38.3325 189.318H38.3328Z" fill="#D4C1B5"/>
<path fill-rule="evenodd" clip-rule="evenodd" d="M48.9417 180.473C48.8751 181.004 48.7706 181.661 48.6063 182.405C48.1198 184.611 48.2982 187.892 48.2805 188.688C48.1791 188.884 47.3812 188.86 47.3833 188.725L47.4265 185.771C47.5209 185.333 47.6118 184.89 47.6938 184.432C47.9855 182.806 48.5674 181.594 48.9417 180.473V180.473Z" fill="#A68C7A"/>
<path fill-rule="evenodd" clip-rule="evenodd" d="M40.1275 178.238C40.1275 178.238 38.9811 185.866 38.8487 187.807C38.7165 189.747 42.2 177.686 40.1275 178.238Z" fill="#B38064"/>
<path fill-rule="evenodd" clip-rule="evenodd" d="M30.9402 111.48C30.9402 111.48 31.0429 114.341 31.6382 118.75C32.2334 123.16 32.6305 124.307 32.5697 123.939C32.509 123.57 32.0568 111.849 32.0568 111.849C32.0568 111.849 31.636 111.35 30.9399 111.48L30.9402 111.48Z" fill="#A57257"/>
<path fill-rule="evenodd" clip-rule="evenodd" d="M37.4618 113.648L39.0034 114.441C39.0034 114.441 36.793 118.679 34.1825 124.712C31.5719 130.745 31.2632 131.428 31.2632 131.428C31.2632 131.428 32.9805 126.401 37.4621 113.648H37.4618Z" fill="#B38064"/>
<path fill-rule="evenodd" clip-rule="evenodd" d="M36.7993 112.74L36.4131 113.91C40.2919 114.256 47.0896 117.801 48.4457 120.476C48.7197 119.95 48.9658 119.465 49.1758 119.034C48.3785 118.542 44.1837 115.994 38.9842 113.654C38.206 113.304 37.4777 113.001 36.799 112.74H36.7993Z" fill="#875B43"/>
<path fill-rule="evenodd" clip-rule="evenodd" d="M29.9171 90.0601C29.9171 90.0601 27.5545 99.6267 27.9063 104.632C28.2582 109.638 28.2643 108.298 28.8297 110.281C29.3954 112.264 29.6458 113.166 29.6458 113.166C29.6458 113.166 30.3382 114.266 30.3149 113.959C30.2915 113.652 29.9442 106.179 29.9442 106.179C29.9442 106.179 30.33 107.411 30.7381 108.271C31.1458 109.131 31.3446 109.318 31.598 109.186C31.8514 109.054 31.5788 107.576 31.2686 106.584C30.9584 105.592 31.0902 104.225 30.7375 102.913C30.3847 101.602 29.8488 100.83 29.8488 100.83C29.8521 96.6302 29.8114 94.7231 29.9165 90.0601H29.9171Z" fill="#946349"/>
<path fill-rule="evenodd" clip-rule="evenodd" d="M55.557 92.8032C56.0234 95.1586 56.1704 97.7005 55.728 100.326C54.3802 108.33 48.5624 118.127 48.5624 118.127C48.5624 118.127 48.2129 117.907 47.5864 117.536C48.7838 115.526 50.8961 111.529 53.2904 104.957C55.2577 99.5566 55.6357 95.4603 55.557 92.8032Z" fill="#B99E8A"/>
<path fill-rule="evenodd" clip-rule="evenodd" d="M49.113 75.4385C49.7535 76.8291 50.305 78.0816 51.4356 80.1121L51.5726 80.3579C50.6237 80.9656 49.7232 81.9746 47.4711 87.1544C45.2191 92.3343 45.0374 95.4291 45.3512 98.3776C45.6651 101.326 45.793 101.213 45.5329 104.262C45.2728 107.311 44.5868 111.514 44.0593 112.327C43.5319 113.14 43.1682 113.129 43.1682 113.129C43.1682 113.129 42.954 114.75 42.5149 115.34L42.2512 115.208C42.1527 114.028 41.6809 108.419 41.5527 107.907C41.4092 107.333 41.0456 110.497 41.0456 110.497C41.0456 110.497 41.0346 110.905 41.0483 112.941C41.0541 113.8 41.0465 114.309 41.0355 114.61C40.6129 114.407 40.1802 114.202 39.7394 113.998L39.5024 107.763C39.5024 107.763 39.2748 110.317 38.874 111.92C38.6914 112.649 38.4353 113.071 38.2101 113.314L38.0479 113.245C37.9574 113.025 37.9118 112.783 37.9251 112.517C38.0309 110.428 37.7662 104.96 42.9698 91.2016C47.3426 79.6396 46.4317 75.8511 49.113 75.4385Z" fill="#A38976"/>
<path d="M32.9871 93.9248C32.9904 93.9324 34.0854 96.5703 40.4526 98.5155L40.3506 98.8518C33.8244 96.858 33.1517 94.359 33.1484 94.3508L32.9871 93.9251V93.9248ZM33.0077 100.372C33.019 100.379 36.9123 102.888 40.7164 101.85L40.8087 102.189C36.8519 103.269 33.5249 100.997 33.5133 100.989L33.0077 100.372Z" fill="#B99E8A"/>
<path fill-rule="evenodd" clip-rule="evenodd" d="M36.127 34.9233C36.127 34.9233 36.9294 36.7922 37.3384 39.0327C37.3706 39.2092 37.3997 39.3769 37.4259 39.5373C38.3234 39.8056 39.6873 39.8369 41.2004 38.549C42.8293 37.1626 44.2771 35.4064 45.1579 34.2484C45.1169 32.1034 45.4314 30.1831 45.4314 30.1831C45.4314 30.1831 39.7302 35.0384 36.1273 34.9233H36.127Z" fill="#946349"/>
<path fill-rule="evenodd" clip-rule="evenodd" d="M36.127 34.9233C36.127 34.9233 36.4499 35.6759 36.7905 36.7983C38.8193 37.5642 40.1248 36.7177 42.3131 35.3717C43.6794 34.531 44.5909 33.5332 45.185 32.6746C45.2573 31.2465 45.4311 30.1831 45.4311 30.1831C45.4311 30.1831 39.7299 35.0384 36.127 34.9233Z" fill="#875B43"/>
<path fill-rule="evenodd" clip-rule="evenodd" d="M44.432 15.7808C47.4485 18.1984 48.1801 21.3094 47.3242 24.8898C46.4683 28.4705 46.1377 29.7157 45.6595 31.2327C45.1812 32.7495 45.0858 33.0336 42.8827 34.4355C40.6796 35.8374 38.8015 36.8422 37.3261 36.2406C35.8507 35.639 34.5518 34.8356 33.8563 33.0986C33.1608 31.3615 32.853 29.8813 32.3125 28.4055C31.7717 26.9298 32.2453 26.5454 32.2347 24.9782C32.2241 23.411 32.0576 23.339 31.9528 21.8606C31.8911 20.9913 31.5268 19.106 33.2155 16.8275C35.9795 13.0982 40.8658 12.9226 44.432 15.7808Z" fill="#A57257"/>
<path fill-rule="evenodd" clip-rule="evenodd" d="M47.5089 23.9775C47.7335 23.8611 48.0303 23.78 48.3451 23.8966C49.0026 24.1403 49.4614 25.4131 48.6325 27.0502C47.8037 28.6873 47.4229 29.4699 47.2261 29.7489C47.0425 30.0089 46.4194 30.2678 46.1426 29.6039C46.4382 28.5378 46.7718 27.2 47.3239 24.8899C47.3974 24.5821 47.4591 24.278 47.5086 23.9775H47.5089Z" fill="#A57257"/>
<path fill-rule="evenodd" clip-rule="evenodd" d="M46.2887 29.8437C46.234 29.7826 46.1844 29.7036 46.1428 29.6037C46.4385 28.5375 46.7721 27.1997 47.3241 24.8896C47.3649 24.7198 47.4016 24.5512 47.435 24.3834C47.6052 24.3193 47.8212 24.2728 48.0825 24.2832C48.8172 24.3123 48.8597 25.7437 48.5951 26.3888C48.3304 27.0338 48.3305 27.0338 48.3305 27.0338C48.3305 27.0338 48.5893 26.1958 48.5289 25.4684C48.4684 24.7408 47.8452 24.7684 47.6799 24.9501C47.5146 25.1321 47.2388 25.6283 47.36 26.2235C47.4812 26.8187 47.3491 27.5576 47.0404 27.7557C46.787 27.9186 46.3105 29.2187 46.2887 29.8434V29.8437Z" fill="#875B43"/>
<path fill-rule="evenodd" clip-rule="evenodd" d="M31.8378 45.4082C31.4921 45.5793 31.1916 45.7324 30.9698 45.8527C29.9823 46.3887 29.0489 47.7432 29.2151 50.2769C29.3181 51.8471 29.5879 53.266 29.7784 54.1183C29.7784 54.1183 29.1683 51.2085 29.834 48.4445C30.2606 46.6725 31.2107 45.8038 31.8375 45.4082H31.8378Z" fill="#B38064"/>
<path fill-rule="evenodd" clip-rule="evenodd" d="M37.8172 100.475C37.2533 101.13 36.8997 103.514 36.9477 105.632C36.9957 107.75 36.8289 109.689 36.8289 109.689C36.8289 109.689 37.8899 110.457 38.1739 107.969C38.2961 106.899 37.9998 105.095 37.8373 104.078C37.6216 102.731 37.8175 100.475 37.8175 100.475H37.8172Z" fill="#946349"/>
<path fill-rule="evenodd" clip-rule="evenodd" d="M52.5165 40.9276C53.4129 41.1156 54.493 41.4444 55.2152 42.0062C56.6533 43.1243 57.3147 44.4031 56.5211 48.4381C55.7272 52.4731 55.6637 51.0572 55.098 55.2577C54.5322 59.4583 54.3709 60.5126 53.7586 62.9476C53.1461 65.3825 52.4424 68.0037 52.1164 69.9568C51.7904 71.9095 51.6597 75.4161 49.8106 80.6959C47.9617 85.9757 46.7476 88.0217 45.7601 91.12C44.773 94.2185 44.7529 94.2352 44.7216 94.7818C44.6903 95.3284 44.8188 95.6553 44.6502 96.3277C44.4813 97.0001 44.6703 97.5422 44.8118 98.3431C44.9534 99.1443 45.4469 100.532 45.1366 103.118C44.8267 105.704 44.6982 106.861 44.6064 107.768C44.5144 108.675 44.4816 110.781 44.1948 111.817C43.9079 112.853 43.4105 112.684 43.3176 111.748C43.2246 110.812 43.2635 108.885 43.2137 107.683C43.1638 106.48 43.1854 105.957 43.1854 105.957C43.1854 105.957 42.7442 109.479 42.7947 110.659C42.8451 111.839 42.8026 115.306 42.2362 115.237C41.6699 115.168 41.3612 110.659 41.339 109.821C41.3168 108.983 41.4705 106.943 41.4705 106.943C41.4705 106.943 41.2393 106.756 41.1512 107.33C41.0631 107.903 40.7085 110.82 40.7085 110.82C40.7085 110.82 40.7325 113.801 40.6332 114.76C40.5341 115.719 40.2853 116.106 39.9201 116.074C39.5548 116.042 39.4537 115.61 39.3261 113.955C39.1985 112.299 39.2343 110.935 39.2741 110.317C39.3139 109.699 39.3874 107.076 39.3874 107.076C39.3874 107.076 39.1119 106.756 39.0566 107.253C39.0016 107.749 38.8335 109.529 38.8335 109.529C38.8335 109.529 38.6597 111.684 38.4173 112.522C38.1748 113.36 37.6331 113.606 37.5401 112.888C37.4471 112.169 37.5067 109.943 37.5389 109.486C37.5711 109.029 37.6367 105.597 37.5128 104.518C37.3888 103.44 37.356 101.556 37.6714 100.766C39.1422 97.0828 39.2629 96.0196 40.3609 92.4258C40.9744 90.4181 42.4407 86.9525 43.3455 81.6345C44.597 74.2816 46.9761 69.6842 46.9764 69.4968C46.9767 69.2075 47.6655 49.775 47.8089 47.7098C48.0258 44.5906 50.5841 41.3152 52.5156 40.9272L52.5165 40.9276Z" fill="#A57257"/>
<path fill-rule="evenodd" clip-rule="evenodd" d="M30.5437 55.2203C31.1505 55.7413 32.5594 56.3757 35.7758 56.1141C39.9627 55.7735 43.3328 54.1754 44.4841 53.5674C43.5622 54.2586 38.1448 56.9023 34.682 56.7641C31.0927 56.6209 30.5437 55.2203 30.5437 55.2203Z" fill="#E0D0C4"/>
<path fill-rule="evenodd" clip-rule="evenodd" d="M32.2879 52.6646C32.2879 52.6646 33.1897 53.244 33.7117 54.4678C33.8554 54.8048 33.9429 55.105 33.9942 55.3626C34.1538 55.366 34.3187 55.3669 34.4895 55.366C34.2522 54.4083 33.6773 53.1036 32.2876 52.6646H32.2879Z" fill="#B38064"/>
<path fill-rule="evenodd" clip-rule="evenodd" d="M40.178 52.3872C40.178 52.3872 39.2492 52.7081 38.3698 53.4124C37.764 53.8979 37.2402 54.7249 36.9509 55.2463C37.1879 55.2184 37.4216 55.1868 37.6522 55.1518C38.0511 54.3649 38.8569 53.1018 40.178 52.3872Z" fill="#B38064"/>
<path fill-rule="evenodd" clip-rule="evenodd" d="M35.4683 55.6364C35.2553 54.8176 34.8503 53.8702 34.0901 53.0024C34.0901 53.0024 34.5993 54.1947 34.6087 55.6692C34.8785 55.6659 35.1651 55.6556 35.4683 55.6364Z" fill="#875B43"/>
<path fill-rule="evenodd" clip-rule="evenodd" d="M42.9921 25.2477C42.9921 25.2477 42.9377 25.7533 41.8381 26.0642C40.7385 26.375 39.2327 26.0222 39.0917 26.0523C38.9508 26.0824 38.7305 25.9979 39.1328 25.5522C39.535 25.1065 40.1634 24.6203 41.3404 24.6285C42.5172 24.6367 43.0927 25.0867 42.9924 25.2474L42.9921 25.2477Z" fill="#693D26"/>
<path fill-rule="evenodd" clip-rule="evenodd" d="M32.4467 25.2477C32.4467 25.2477 32.4953 25.7533 33.474 26.0642C34.4529 26.375 35.7931 26.0222 35.9189 26.0523C36.0444 26.0824 36.2404 25.9979 35.8825 25.5522C35.5243 25.1065 34.9649 24.6203 33.9173 24.6285C32.8696 24.6367 32.3577 25.0867 32.4467 25.2474V25.2477Z" fill="#693D26"/>
<path fill-rule="evenodd" clip-rule="evenodd" d="M38.6042 23.7766C38.5763 23.9881 38.9032 24.2962 39.1198 24.2314C39.201 24.2071 40.2808 23.6794 41.1012 23.4439C41.9212 23.2084 42.4165 23.3546 42.8224 23.525C43.2283 23.6955 43.3341 23.7523 43.3341 23.7523C43.3341 23.7523 43.4152 23.6873 43.2447 23.5411C43.0743 23.395 42.4086 22.7293 41.3773 22.7536C40.3461 22.7779 38.775 23.4761 38.6045 23.7766H38.6042Z" fill="#211811"/>
<path fill-rule="evenodd" clip-rule="evenodd" d="M36.4296 23.7829C36.4557 23.9916 36.1528 24.2954 35.9525 24.2313C35.8775 24.2073 34.7727 23.7598 34.0141 23.5273C33.2554 23.2949 32.9716 23.4107 32.596 23.579C32.2205 23.7473 32.2485 23.6908 32.2485 23.6908C32.0054 23.4827 33.1703 22.8316 33.7585 22.8464C34.7126 22.8704 36.2719 23.4863 36.4296 23.7829Z" fill="#211811"/>
<path fill-rule="evenodd" clip-rule="evenodd" d="M35.7548 24.961C35.7548 24.961 35.2921 24.3983 34.2189 24.5055C33.1458 24.6128 32.5952 25.1308 32.5952 25.1308C32.5952 25.1308 33.0981 24.528 34.0275 24.412C34.9572 24.2959 35.6075 24.6666 35.7551 24.9613L35.7548 24.961Z" fill="#693D26"/>
<path fill-rule="evenodd" clip-rule="evenodd" d="M35.8902 26.0418C35.8902 26.0418 36.1336 26.1445 36.1856 26.0327C36.2375 25.9212 36.0978 25.7915 36.0261 25.7425C35.9541 25.6933 35.8942 25.5952 35.8744 25.546C35.8547 25.497 35.2798 24.8046 34.3185 24.8763C33.3569 24.9477 32.9497 25.4742 32.9497 25.4742C32.9497 25.4742 33.4848 26.3633 35.8905 26.0418H35.8902Z" fill="white"/>
<path fill-rule="evenodd" clip-rule="evenodd" d="M35.8902 26.0422C35.8902 26.0422 36.1336 26.1449 36.1856 26.0331C36.2339 25.9292 36.1163 25.8098 36.0416 25.7542C36.1254 25.9887 35.9231 25.9717 35.8343 25.9757C35.735 25.9802 34.9702 26.1409 34.1411 26.0069C33.4668 25.8982 33.0983 25.5591 32.9837 25.436C32.9609 25.4603 32.9497 25.4746 32.9497 25.4746C32.9497 25.4746 33.4848 26.3637 35.8905 26.0422H35.8902Z" fill="#946349"/>
<path fill-rule="evenodd" clip-rule="evenodd" d="M35.9282 25.6404C35.903 25.6049 35.8842 25.5697 35.8744 25.546C35.8547 25.497 35.2798 24.8046 34.3185 24.8763C33.3572 24.9477 32.9497 25.4742 32.9497 25.4742C32.9497 25.4742 32.9971 25.5529 33.1268 25.655C33.3547 25.4837 33.8333 25.2154 34.5731 25.243C35.1553 25.2646 35.6144 25.4396 35.9282 25.6408V25.6404Z" fill="#857E72"/>
<path fill-rule="evenodd" clip-rule="evenodd" d="M35.2195 25.0411C34.9938 24.939 34.7157 24.8643 34.3912 24.8716C34.2332 24.9791 34.1296 25.1611 34.1296 25.3678C34.1296 25.698 34.3952 25.966 34.7227 25.966C35.0503 25.966 35.3158 25.698 35.3158 25.3678C35.3158 25.2471 35.2803 25.1347 35.2195 25.0408V25.0411Z" fill="#625D54"/>
<path d="M34.7368 25.6635C34.8947 25.6635 35.0228 25.5312 35.0228 25.3679C35.0228 25.2046 34.8947 25.0723 34.7368 25.0723C34.5789 25.0723 34.4509 25.2046 34.4509 25.3679C34.4509 25.5312 34.5789 25.6635 34.7368 25.6635Z" fill="#211811"/>
<path d="M34.8362 25.368C34.891 25.368 34.9355 25.322 34.9355 25.2653C34.9355 25.2086 34.891 25.1626 34.8362 25.1626C34.7813 25.1626 34.7368 25.2086 34.7368 25.2653C34.7368 25.322 34.7813 25.368 34.8362 25.368Z" fill="white"/>
<path fill-rule="evenodd" clip-rule="evenodd" d="M32.4095 25.1568C32.4095 25.1568 32.4278 25.3035 32.6435 25.433C32.8595 25.5624 32.9631 25.5402 32.9631 25.5402C32.9631 25.5402 33.4675 25.0185 34.3064 25.0134C35.1456 25.0082 35.8061 25.4302 35.8718 25.5424C35.9377 25.6548 35.6974 24.973 34.8205 24.7721C33.9436 24.571 32.9419 24.9453 32.8364 25.0134C32.8364 25.0134 32.4706 25.258 32.4089 25.1568H32.4095Z" fill="#211811"/>
<path fill-rule="evenodd" clip-rule="evenodd" d="M39.3804 24.961C39.3804 24.961 39.8984 24.3983 41.0998 24.5055C42.3012 24.6128 42.9173 25.1308 42.9173 25.1308C42.9173 25.1308 42.3546 24.528 41.314 24.412C40.2733 24.2959 39.5457 24.6666 39.3804 24.9613V24.961Z" fill="#693D26"/>
<path fill-rule="evenodd" clip-rule="evenodd" d="M39.2284 26.0418C39.2284 26.0418 38.9559 26.1445 38.8979 26.0327C38.8398 25.9212 38.9963 25.7915 39.0765 25.7425C39.157 25.6933 39.2239 25.5952 39.2464 25.546C39.2686 25.497 39.9118 24.8046 40.988 24.8763C42.0642 24.9477 42.5202 25.4742 42.5202 25.4742C42.5202 25.4742 41.9214 26.3633 39.2284 26.0418Z" fill="white"/>
<path fill-rule="evenodd" clip-rule="evenodd" d="M39.2285 26.0421C39.2285 26.0421 38.9559 26.1448 38.8979 26.033C38.8499 25.9406 38.9483 25.8361 39.0295 25.7751C39.024 25.8793 39.0647 25.989 39.1562 25.9753C39.2768 25.9574 39.268 25.9485 39.3081 25.9665C39.3482 25.9844 40.2949 26.1673 41.3444 25.9798C42.0648 25.851 42.3644 25.5876 42.4814 25.4351C42.5075 25.4597 42.5202 25.4746 42.5202 25.4746C42.5202 25.4746 41.9214 26.3636 39.2285 26.0421Z" fill="#946349"/>
<path fill-rule="evenodd" clip-rule="evenodd" d="M39.2063 25.6134C39.2245 25.5876 39.2382 25.5636 39.2464 25.546C39.2686 25.497 39.9118 24.8046 40.988 24.8763C42.0642 24.9477 42.5203 25.4742 42.5203 25.4742C42.5203 25.4742 42.4625 25.5596 42.303 25.6678C41.3699 25.003 40.2858 25.1731 39.6429 25.4305C39.4907 25.4913 39.3418 25.5529 39.2063 25.6137V25.6134Z" fill="#857E72"/>
<path fill-rule="evenodd" clip-rule="evenodd" d="M40.4539 24.9035C40.6173 24.8755 40.7957 24.864 40.988 24.8768C41.0615 24.8816 41.1323 24.8886 41.2001 24.8974C41.3395 25.0068 41.4292 25.1773 41.4292 25.3684C41.4292 25.6986 41.1612 25.9666 40.8309 25.9666C40.5003 25.9666 40.2327 25.6986 40.2327 25.3684C40.2327 25.1806 40.319 25.0132 40.4542 24.9035H40.4539Z" fill="#625D54"/>
<path d="M40.8308 25.6635C40.9941 25.6635 41.1264 25.5312 41.1264 25.3679C41.1264 25.2046 40.9941 25.0723 40.8308 25.0723C40.6675 25.0723 40.5352 25.2046 40.5352 25.3679C40.5352 25.5312 40.6675 25.6635 40.8308 25.6635Z" fill="#211811"/>
<path d="M40.831 25.368C40.8877 25.368 40.9337 25.322 40.9337 25.2653C40.9337 25.2086 40.8877 25.1626 40.831 25.1626C40.7743 25.1626 40.7283 25.2086 40.7283 25.2653C40.7283 25.322 40.7743 25.368 40.831 25.368Z" fill="white"/>
<path fill-rule="evenodd" clip-rule="evenodd" d="M39.1741 25.6558C39.1741 25.6558 39.643 25.2277 40.4214 25.0624C41.1998 24.8974 41.994 25.2557 42.1852 25.4018C42.3763 25.5479 42.4531 25.5486 42.4531 25.5486C42.4531 25.5486 42.5604 25.6206 42.8016 25.5267C43.0429 25.4328 43.141 25.1915 43.141 25.1915C43.141 25.1915 42.922 25.3656 42.7211 25.2809C42.6072 25.2329 41.9722 24.7993 41.0464 24.7668C40.3737 24.7431 39.4974 24.9731 39.1738 25.6552L39.1741 25.6558Z" fill="#211811"/>
<path fill-rule="evenodd" clip-rule="evenodd" d="M35.8813 24.6487C35.8813 24.6487 36.4902 25.144 36.5714 25.8422C36.6525 26.5404 36.5471 27.2387 36.5471 27.2387C36.5471 27.2387 36.8393 26.4186 36.7257 25.7122C36.6121 25.0058 36.125 24.6892 35.8813 24.6484V24.6487Z" fill="#946349"/>
<path fill-rule="evenodd" clip-rule="evenodd" d="M38.8451 24.478C38.8451 24.478 38.5528 24.7782 38.431 25.4524C38.3092 26.1263 38.2849 26.6216 38.2849 26.6216C38.2849 26.6216 38.2362 24.5187 38.8451 24.478Z" fill="#875B43"/>
<path fill-rule="evenodd" clip-rule="evenodd" d="M36.2346 28.5908C36.2346 28.5908 35.9624 28.8831 35.9341 29.3012C35.9058 29.7193 36.1045 29.894 36.2914 29.959C36.4783 30.024 36.6244 29.9104 36.6244 29.9104C36.6244 29.9104 35.6257 29.9347 36.2346 28.5908Z" fill="#693D26"/>
<path fill-rule="evenodd" clip-rule="evenodd" d="M39.2063 28.6519C39.2063 28.6519 39.3685 28.8752 39.2874 29.3461C39.2063 29.8171 38.8125 29.8414 38.8125 29.8414C38.8125 29.8414 39.1449 29.849 39.3178 29.5886C39.4487 29.3914 39.4758 28.9922 39.2063 28.6519Z" fill="#693D26"/>
<path fill-rule="evenodd" clip-rule="evenodd" d="M37.3693 28.1162C37.3693 28.1162 37.1503 28.64 37.2314 28.8959C37.3125 29.1517 37.613 29.046 37.5562 28.7336C37.4994 28.421 37.3329 28.2122 37.3693 28.1165V28.1162Z" fill="#B38064"/>
<path fill-rule="evenodd" clip-rule="evenodd" d="M36.6587 29.8818C36.5815 29.7479 36.6873 29.492 36.8374 29.6707C36.9875 29.8493 37.2068 30.1091 37.5152 30.0809C37.8236 30.0526 37.8969 29.7804 38.0391 29.5938C38.1812 29.4069 38.38 29.4395 38.514 29.6303C38.6479 29.8211 38.7576 29.8375 38.7576 29.8375C38.7576 29.8375 38.6844 29.8657 38.4936 29.7117C38.3028 29.5573 38.1572 29.5376 37.9862 29.7321C37.8151 29.9265 37.6574 30.1908 37.3326 30.0933C37.0078 29.9958 36.8374 29.671 36.6587 29.8822V29.8818Z" fill="#422A1E"/>
<path fill-rule="evenodd" clip-rule="evenodd" d="M35.2146 31.7485C35.2146 31.7485 35.6239 31.7248 35.8636 31.5218C36.1033 31.3189 36.6621 30.8561 37.1233 31.0995C37.5848 31.3432 37.9221 31.3997 38.259 31.132C38.596 30.864 39.0357 30.9546 39.4881 31.1496C39.9405 31.3444 40.3807 31.6054 40.7001 31.5486C41.0194 31.4917 40.9219 31.6382 40.8152 31.6704C40.7089 31.7029 40.255 32.217 39.6962 32.8098C39.1374 33.4026 37.7975 33.893 36.8216 33.3324C35.8457 32.7721 35.6227 32.0405 35.2146 31.7482V31.7485Z" fill="#A3413C"/>
<path fill-rule="evenodd" clip-rule="evenodd" d="M36.459 31.9181C36.9321 31.7379 39.0304 31.7483 39.5475 31.8725C38.5318 32.4972 36.7804 32.4137 36.459 31.9181Z" fill="white"/>
<path fill-rule="evenodd" clip-rule="evenodd" d="M37.0847 32.6264C37.0847 32.6264 37.5964 32.7725 38.3271 32.6914C39.0578 32.6103 39.3258 32.4316 39.3258 32.4316C39.3258 32.4316 37.9291 33.6497 37.0847 32.6264Z" fill="#B55552"/>
</svg>
