<svg width="85" height="212" viewBox="0 0 85 212" fill="none" xmlns="http://www.w3.org/2000/svg">
<path fill-rule="evenodd" clip-rule="evenodd" d="M35.2555 34.6443C35.2555 34.6443 36.1142 36.5158 36.5511 38.7597C36.9886 41.0036 36.9295 41.909 35.4786 42.5935C34.0277 43.2779 30.8247 44.667 29.5838 45.2971C28.343 45.9273 27.1706 47.5204 27.3795 50.4998C27.588 53.4792 28.343 55.9962 28.343 55.9962C28.343 55.9962 47.2132 60.9421 50.0439 58.6016C52.8746 56.261 56.4141 41.1844 52.7259 40.6481C52.5435 40.6215 51.1143 40.418 50.945 40.3973C47.6898 39.9946 46.7725 40.5113 45.5854 37.7707C44.3364 34.8874 45.2092 29.897 45.2092 29.897C45.2092 29.897 39.1099 34.7593 35.2555 34.6443Z" fill="#A57257"/>
<path fill-rule="evenodd" clip-rule="evenodd" d="M47.9787 48.6084C47.9787 48.6084 46.9832 53.4832 45.5204 55.5806C44.0581 57.678 47.431 60.3501 47.8321 57.1482C48.2332 53.9462 47.9787 48.6084 47.9787 48.6084Z" fill="#875B43"/>
<path fill-rule="evenodd" clip-rule="evenodd" d="M28.887 110.899C28.887 110.899 28.8458 113.906 30.2 121.689C30.4562 123.161 30.7428 124.909 31.0397 126.778C32.6887 121.903 35.2089 114.744 35.9748 112.573C31.6564 111.014 29.2306 110.907 28.8865 110.899H28.887ZM34.8974 152.356C36.0579 160.125 37.6792 171.655 37.5337 174.515C37.3096 178.932 33.9985 186.406 33.9985 186.406C33.9985 186.406 32.7208 187.391 34.2249 188.637C35.7289 189.884 37.2347 189.902 37.2347 189.902L37.619 189.357C37.6032 189.12 37.6472 188.962 37.6472 188.962C37.6472 188.962 37.6472 188.962 38.3213 183.377C38.9955 177.791 39.6669 175.552 38.5021 166.099C37.9821 161.877 36.5019 156.915 34.8968 152.356H34.8974ZM44.627 148.978C44.6867 146.982 44.6471 145.193 44.4327 143.978C43.5837 139.165 42.636 138.098 42.636 138.098C42.636 138.098 43.2352 133.454 43.7607 128.198C40.9615 132.755 38.2882 136.936 38.2882 136.936C38.2882 136.936 40.1853 138.457 42.9687 143.844C43.828 145.507 44.3371 147.221 44.627 148.978Z" fill="#875B43"/>
<path fill-rule="evenodd" clip-rule="evenodd" d="M29.3586 54.4649C30.0078 54.9871 31.5151 55.6221 34.9559 55.36C39.4562 55.0175 43.075 53.4032 44.2898 52.8012C46.3898 43.3957 49.836 40.8988 51.3911 40.2404C52.2254 39.8871 52.5636 40.1737 52.702 40.5015C52.6879 40.5026 47.6296 41.028 44.9672 53.2279C45.3667 54.2651 46.2737 56.4097 47.7387 58.7269C49.791 61.9728 48.2641 73.3596 48.2641 73.3596C48.2641 73.3596 49.8843 76.9653 52.0783 80.6531C54.2717 84.3408 58.8936 91.9188 57.3847 100.307C55.8757 108.695 49.3622 118.963 49.3622 118.963C49.3622 118.963 44.502 116.097 38.312 113.489C32.1219 110.882 28.8429 110.9 28.8429 110.9C28.8429 110.9 27.8263 90.2307 28.8782 84.0569C30.0631 77.1048 28.8261 70.2542 27.8018 65.8462C27.8018 65.8462 23.4437 61.3866 28.7072 54.1077C28.743 54.0437 28.7799 53.978 28.819 53.9118C30.0365 51.8388 32.2093 48.6868 31.6019 44.3315C31.5672 43.8391 32.2913 43.755 32.3092 44.0769C32.8542 48.752 30.7541 52.0755 29.4796 54.251C29.4367 54.3243 29.396 54.396 29.3575 54.466L29.3586 54.4649Z" fill="#D5C1B5"/>
<path fill-rule="evenodd" clip-rule="evenodd" d="M35.9749 112.573C34.9588 115.453 30.8574 127.105 29.7957 130.566C28.5809 134.527 28.5305 135.366 29.9472 139.429C31.3644 143.491 37.3379 156.647 38.5021 166.099C39.667 175.552 38.9955 177.791 38.3214 183.377C37.6472 188.962 37.6472 188.962 37.6472 188.962C37.6472 188.962 37.0328 191.163 41.2156 191.494C45.3983 191.825 45.7181 189.615 45.6529 187.474C45.5872 185.333 46.0139 182.972 46.4845 180.774C46.9556 178.577 46.9013 177.335 45.8315 174.323C44.7616 171.312 44.5652 167.542 44.7161 161.346C44.8675 155.15 45.7522 149.232 42.9688 143.844C40.1854 138.457 38.2883 136.936 38.2883 136.936C38.2883 136.936 46.6636 124.153 49.3629 118.961C48.5096 118.468 41.5098 114.835 38.3127 113.488C35.1151 112.141 36.7012 112.834 35.9749 112.572V112.573Z" fill="#A57257"/>
<path fill-rule="evenodd" clip-rule="evenodd" d="M34.037 186.318C33.2532 186.897 31.6058 188.218 29.8922 190.238C27.5186 193.037 28.1667 193.177 28.8864 193.179C29.5616 193.181 34.6341 193.522 36.1409 192.696C36.2624 192.32 36.3884 191.956 36.5121 191.617C36.8036 190.818 37.0403 190.273 37.2275 189.902C37.1135 189.899 35.6692 189.835 34.2253 188.638C32.7213 187.391 33.999 186.407 33.999 186.407L34.0375 186.319L34.037 186.318Z" fill="#BA9F8A"/>
<path fill-rule="evenodd" clip-rule="evenodd" d="M37.6156 189.262C37.4224 189.498 37.0663 190.096 36.5116 191.617C35.6073 194.097 34.5477 197.939 36.3878 197.807C38.2279 197.674 45.9079 195.116 46.1722 191.968C46.4366 188.82 47.1606 186.818 47.6302 184.369C48.0997 181.92 49.2705 180.41 49.3334 178.736C49.3921 177.189 48.1062 175.845 45.8997 174.517C46.9034 177.389 46.9452 178.625 46.4849 180.774C46.0137 182.972 45.5876 185.333 45.6533 187.474C45.719 189.615 45.3993 191.825 41.216 191.494C37.9934 191.239 37.6183 189.875 37.6161 189.262L37.6156 189.262Z" fill="#D4C1B5"/>
<path fill-rule="evenodd" clip-rule="evenodd" d="M48.9648 180.404C48.8937 180.936 48.7814 181.594 48.606 182.339C48.0855 184.547 48.2766 187.834 48.2576 188.631C48.149 188.826 47.2957 188.803 47.2974 188.668L47.3435 185.709C47.4445 185.271 47.5416 184.828 47.6296 184.369C47.9417 182.74 48.5642 181.526 48.9648 180.404Z" fill="#A68C7A"/>
<path fill-rule="evenodd" clip-rule="evenodd" d="M39.5356 178.166C39.5356 178.166 38.3089 185.806 38.1678 187.749C38.0261 189.692 41.7529 177.614 39.5356 178.166Z" fill="#B38064"/>
<path fill-rule="evenodd" clip-rule="evenodd" d="M29.7065 111.311C29.7065 111.311 29.8162 114.176 30.4534 118.592C31.0901 123.009 31.5151 124.157 31.45 123.788C31.3849 123.419 30.9012 111.681 30.9012 111.681C30.9012 111.681 30.4513 111.181 29.7065 111.312V111.311Z" fill="#A57257"/>
<path fill-rule="evenodd" clip-rule="evenodd" d="M36.6836 113.482L38.3331 114.276C38.3331 114.276 35.9682 118.52 33.1755 124.561C30.3823 130.603 30.0522 131.288 30.0522 131.288C30.0522 131.288 31.8896 126.253 36.6841 113.482L36.6836 113.482Z" fill="#B38064"/>
<path fill-rule="evenodd" clip-rule="evenodd" d="M35.9748 112.573L35.5618 113.745C39.7114 114.091 47.1309 117.727 48.5818 120.406C48.8749 119.879 49.1387 119.394 49.3629 118.962C48.902 118.695 46.7146 117.408 44.2356 116.165C42.1247 115.107 39.7831 114.108 38.3127 113.488C35.1151 112.142 36.7011 112.835 35.9748 112.573Z" fill="#875B43"/>
<path fill-rule="evenodd" clip-rule="evenodd" d="M28.4277 89.8369C28.4277 89.8369 26.0845 99.4406 26.4612 104.454C26.8373 109.467 26.8438 108.124 27.449 110.111C28.0543 112.097 28.3224 113 28.3224 113C28.3224 113 29.0633 114.101 29.0383 113.794C29.0134 113.486 28.6421 106.002 28.6421 106.002C28.6421 106.002 29.0552 107.237 29.4916 108.098C29.928 108.96 30.1402 109.147 30.4116 109.014C30.683 108.882 30.391 107.402 30.0593 106.408C29.7277 105.415 29.8688 104.046 29.4916 102.732C29.1143 101.419 28.5412 100.646 28.5412 100.646C28.545 96.44 28.3164 94.5066 28.4288 89.8369H28.4277Z" fill="#946349"/>
<path fill-rule="evenodd" clip-rule="evenodd" d="M56.0423 92.6079C56.5412 94.9664 56.6986 97.5121 56.2258 100.141C54.7836 108.157 48.5599 117.969 48.5599 117.969C48.5599 117.969 48.1859 117.749 47.5161 117.376C48.7971 115.364 51.0568 111.361 53.6182 104.78C55.7226 99.3717 56.1275 95.2692 56.0429 92.6079H56.0423Z" fill="#B99E8A"/>
<path fill-rule="evenodd" clip-rule="evenodd" d="M49.1484 75.2178C49.834 76.6106 50.4235 77.865 51.6334 79.8983L51.7799 80.1447C50.7649 80.7532 49.8009 81.7639 47.392 86.9508C44.9825 92.1383 44.7882 95.2377 45.1242 98.1905C45.4602 101.143 45.5969 101.03 45.3185 104.084C45.04 107.137 44.3062 111.346 43.7422 112.16C43.1777 112.974 42.7885 112.963 42.7885 112.963C42.7885 112.963 42.5595 114.586 42.0894 115.178L41.8071 115.045C41.7018 113.864 41.197 108.247 41.0597 107.734C40.9066 107.16 40.5169 110.328 40.5169 110.328C40.5169 110.328 40.505 110.737 40.5196 112.775C40.5256 113.635 40.5175 114.145 40.5061 114.447C40.0539 114.243 39.5909 114.038 39.1192 113.834L38.8657 107.591C38.8657 107.591 38.6226 110.148 38.1932 111.753C37.9978 112.483 37.7237 112.906 37.4832 113.149L37.3095 113.08C37.2124 112.859 37.1641 112.617 37.1782 112.35C37.2916 110.259 37.0083 104.783 42.5752 91.0044C47.2535 79.4261 46.2787 75.6319 49.1474 75.2183L49.1484 75.2178Z" fill="#A38976"/>
<path d="M31.8962 93.731C31.8995 93.7386 33.0714 96.3804 39.8829 98.3279L39.7738 98.6645C32.7919 96.6681 32.0721 94.1652 32.0688 94.1571L31.8962 93.7305V93.731ZM31.9185 100.188C31.9304 100.195 36.0958 102.707 40.1657 101.668L40.2645 102.008C36.0312 103.088 32.4721 100.813 32.4597 100.805L31.9185 100.187V100.188Z" fill="#B99E8A"/>
<path fill-rule="evenodd" clip-rule="evenodd" d="M35.2557 34.6443C35.2557 34.6443 36.1144 36.5158 36.5513 38.7597C36.5861 38.9361 36.617 39.1044 36.6447 39.2651C37.6049 39.5337 39.0639 39.5652 40.6825 38.275C42.4249 36.8865 43.974 35.1279 44.9163 33.9685C44.8724 31.8201 45.2089 29.897 45.2089 29.897C45.2089 29.897 39.1095 34.7593 35.2551 34.6443H35.2557Z" fill="#946349"/>
<path fill-rule="evenodd" clip-rule="evenodd" d="M35.2556 34.6443C35.2556 34.6443 35.6014 35.3977 35.9656 36.5218C37.5402 37.8402 39.3771 36.7943 41.2785 35.6994C43.1799 34.6046 44.7903 33.2189 44.9461 32.3922C45.0232 30.9619 45.2094 29.897 45.2094 29.897C45.2094 29.897 39.11 34.7593 35.2556 34.6443Z" fill="#875B43"/>
<path fill-rule="evenodd" clip-rule="evenodd" d="M43.8143 15.7374C46.8312 18.155 47.5623 21.2658 46.7064 24.8466C45.8504 28.4274 45.4802 30.1481 45.1078 31.1729C44.7355 32.1982 44.4402 33.0509 42.2375 34.4524C40.0343 35.8545 38.1839 36.7653 36.7086 36.197C35.2333 35.6281 33.8579 34.7846 33.162 33.0477C32.4667 31.3107 31.9136 29.7708 31.576 28.3009C31.2383 26.831 31.6275 26.5016 31.6172 24.9345C31.6069 23.3675 31.4403 23.2953 31.335 21.8167C31.2736 20.9472 30.9089 19.062 32.5975 16.7834C35.3614 13.0544 40.2476 12.8785 43.8138 15.7369L43.8143 15.7374Z" fill="#A57257"/>
<path fill-rule="evenodd" clip-rule="evenodd" d="M46.8915 23.9335C47.1157 23.8174 47.4131 23.7359 47.7279 23.8527C48.3852 24.0964 48.8444 25.3692 48.0156 27.0063C47.1868 28.6434 46.7992 29.4358 46.6092 29.7051C46.4192 29.9743 45.8423 30.2424 45.5654 29.5786C45.8613 28.5125 46.3943 26.1552 46.7069 24.846C47.0196 23.5373 46.8421 24.2342 46.8915 23.9335Z" fill="#A57257"/>
<path fill-rule="evenodd" clip-rule="evenodd" d="M45.6712 29.8003C45.6164 29.739 45.5974 29.7118 45.5562 29.612C45.852 28.5459 46.4105 26.086 46.7069 24.8462C47.0032 23.6065 46.7845 24.5075 46.8176 24.3398C46.9875 24.2757 47.2041 24.2291 47.4652 24.2394C48.2001 24.2687 48.2424 25.7 47.9776 26.3449C47.7132 26.9897 47.7132 26.9897 47.7132 26.9897C47.7132 26.9897 47.9721 26.1516 47.9119 25.4243C47.8511 24.697 47.2285 24.7241 47.063 24.9059C46.8974 25.0878 46.6217 25.5839 46.7432 26.1793C46.8643 26.7748 46.7324 27.5135 46.4235 27.7116C46.1701 27.8745 45.6935 29.1745 45.6718 29.7992L45.6712 29.8003Z" fill="#875B43"/>
<path fill-rule="evenodd" clip-rule="evenodd" d="M30.6667 45.144C30.2971 45.3156 29.9752 45.4686 29.738 45.5891C28.6812 46.126 27.683 47.4824 27.8604 50.02C27.9706 51.5924 28.2594 53.0135 28.4629 53.8667C28.4629 53.8667 27.8105 50.9525 28.5227 48.1848C28.9791 46.4104 29.9953 45.5403 30.6662 45.144H30.6667Z" fill="#B38064"/>
<path fill-rule="evenodd" clip-rule="evenodd" d="M37.0642 100.29C36.4612 100.946 36.0828 103.334 36.1339 105.455C36.1854 107.576 36.0068 109.517 36.0068 109.517C36.0068 109.517 37.1418 110.286 37.4458 107.795C37.5766 106.723 37.2596 104.917 37.0854 103.899C36.8547 102.549 37.0642 100.29 37.0642 100.29V100.29Z" fill="#946349"/>
<path fill-rule="evenodd" clip-rule="evenodd" d="M52.7896 40.6567C53.7481 40.8451 54.9038 41.1746 55.6767 41.7369C57.215 42.8567 57.8794 43.8001 57.1949 48.2114C56.6043 52.0201 55.3331 58.1863 54.1183 62.7088C53.4632 65.1471 52.8097 67.8057 52.4606 69.7614C52.1122 71.7171 51.8728 75.1953 49.8949 80.4832C47.9169 85.7705 46.618 87.8196 45.5617 90.9222C44.5054 94.0248 44.4843 94.0422 44.4506 94.5893C44.417 95.1365 44.5548 95.4643 44.3741 96.1374C44.1933 96.811 44.3958 97.3532 44.5472 98.1555C44.6987 98.9577 45.2263 100.347 44.8946 102.938C44.563 105.528 44.4257 106.686 44.3274 107.594C44.2292 108.502 44.1939 110.611 43.8872 111.649C43.5805 112.687 43.048 112.517 42.9487 111.58C42.8494 110.643 42.8906 108.713 42.8374 107.509C42.7842 106.305 42.8076 105.781 42.8076 105.781C42.8076 105.781 42.3354 109.308 42.3896 110.49C42.4434 111.672 42.3983 115.143 41.792 115.074C41.1863 115.005 40.8557 110.49 40.8324 109.651C40.809 108.812 40.9735 106.769 40.9735 106.769C40.9735 106.769 40.726 106.581 40.6315 107.156C40.5371 107.73 40.1577 110.652 40.1577 110.652C40.1577 110.652 40.1832 113.637 40.0773 114.597C39.9715 115.557 39.7055 115.944 39.3147 115.912C38.9239 115.88 38.8159 115.448 38.6791 113.79C38.5423 112.132 38.5808 110.766 38.6232 110.147C38.6661 109.529 38.7442 106.902 38.7442 106.902C38.7442 106.902 38.4495 106.581 38.3903 107.078C38.3312 107.575 38.152 109.358 38.152 109.358C38.152 109.358 37.9659 111.516 37.7064 112.356C37.4469 113.195 36.8672 113.442 36.7679 112.722C36.6686 112.002 36.7321 109.773 36.7663 109.315C36.801 108.858 36.871 105.421 36.7386 104.341C36.6062 103.26 36.5709 101.374 36.9085 100.583C38.4821 96.8946 38.6112 95.8302 39.7858 92.2309C40.4421 90.2198 42.0108 86.7497 42.9791 81.4239C44.3176 74.0603 46.8633 69.4563 46.8633 69.2685C46.8639 68.9787 47.6005 49.5184 47.7541 47.4504C47.9864 44.3266 50.7232 41.0465 52.7896 40.6578V40.6567Z" fill="#A57257"/>
<path fill-rule="evenodd" clip-rule="evenodd" d="M29.2822 54.9705C29.9314 55.4926 31.4388 56.1277 34.8795 55.8655C39.3587 55.5247 42.9644 53.924 44.196 53.3149C43.2098 54.007 37.4138 56.6548 33.7093 56.5163C29.8695 56.373 29.2822 54.9705 29.2822 54.9705Z" fill="#E0D0C4"/>
<path fill-rule="evenodd" clip-rule="evenodd" d="M31.1482 52.4111C31.1482 52.4111 32.1133 52.9914 32.6713 54.217C32.8249 54.5546 32.9188 54.8548 32.9737 55.1132C33.1441 55.1164 33.3211 55.1175 33.5034 55.1164C33.2494 54.1573 32.6344 52.8508 31.1477 52.4111H31.1482Z" fill="#B38064"/>
<path fill-rule="evenodd" clip-rule="evenodd" d="M39.5899 52.1338C39.5899 52.1338 38.596 52.4551 37.6559 53.1608C37.0073 53.6471 36.4476 54.4754 36.1377 54.997C36.3912 54.9693 36.6409 54.9373 36.8878 54.9026C37.3145 54.1144 38.1764 52.8497 39.5899 52.1338Z" fill="#B38064"/>
<path fill-rule="evenodd" clip-rule="evenodd" d="M34.5504 55.3875C34.3224 54.5673 33.8893 53.6185 33.0762 52.7495C33.0762 52.7495 33.6211 53.9437 33.6309 55.4201C33.9197 55.4168 34.2258 55.4065 34.5504 55.3875Z" fill="#875B43"/>
<path fill-rule="evenodd" clip-rule="evenodd" d="M42.5756 25.2044C42.5756 25.2044 42.5213 25.7097 41.4216 26.0208C40.3219 26.3318 38.8162 25.979 38.6751 26.0088C38.534 26.0392 38.3136 25.9545 38.7163 25.5089C39.1186 25.0633 39.7471 24.5769 40.9239 24.5851C42.1007 24.5932 42.676 25.0432 42.5756 25.2038V25.2044Z" fill="#693D26"/>
<path fill-rule="evenodd" clip-rule="evenodd" d="M32.0302 25.2044C32.0302 25.2044 32.0785 25.7097 33.0577 26.0208C34.0364 26.3318 35.3771 25.979 35.5024 26.0088C35.6278 26.0392 35.8238 25.9545 35.4661 25.5089C35.1078 25.0633 34.5482 24.5769 33.5006 24.5851C32.453 24.5932 31.9412 25.0432 32.0302 25.2038V25.2044Z" fill="#693D26"/>
<path fill-rule="evenodd" clip-rule="evenodd" d="M38.0981 23.7328C38.0699 23.9439 38.3972 24.2522 38.6138 24.1876C38.6952 24.1632 39.7748 23.6356 40.595 23.4C41.4152 23.1644 41.9102 23.3105 42.3162 23.4814C42.7222 23.6519 42.8281 23.7089 42.8281 23.7089C42.8281 23.7089 42.9089 23.6437 42.7385 23.4977C42.5681 23.3517 41.902 22.6857 40.8707 22.7101C39.8394 22.7346 38.2686 23.4326 38.0981 23.7333V23.7328Z" fill="#211811"/>
<path fill-rule="evenodd" clip-rule="evenodd" d="M35.9237 23.7394C35.9498 23.9478 35.6469 24.2523 35.4466 24.1877C35.3717 24.1638 34.2671 23.716 33.5083 23.4837C32.7495 23.2514 32.4661 23.367 32.0905 23.5353C31.7149 23.7035 31.7431 23.6471 31.7431 23.6471C31.4999 23.4392 32.6648 22.7878 33.2532 22.8025C34.2069 22.8264 35.7663 23.4424 35.9243 23.7388L35.9237 23.7394Z" fill="#211811"/>
<path fill-rule="evenodd" clip-rule="evenodd" d="M35.249 24.9174C35.249 24.9174 34.786 24.355 33.7129 24.4619C32.6397 24.5689 32.0894 25.0872 32.0894 25.0872C32.0894 25.0872 32.592 24.4842 33.5218 24.368C34.4516 24.2519 35.1019 24.6226 35.2495 24.9174H35.249Z" fill="#693D26"/>
<path fill-rule="evenodd" clip-rule="evenodd" d="M35.3847 25.9983C35.3847 25.9983 35.6278 26.1009 35.6799 25.989C35.732 25.8772 35.592 25.748 35.5204 25.6986C35.4487 25.6492 35.3885 25.551 35.3689 25.5021C35.3488 25.4533 34.7746 24.7607 33.8133 24.8323C32.852 24.904 32.4443 25.4305 32.4443 25.4305C32.4443 25.4305 32.9795 26.3196 35.3852 25.9983H35.3847Z" fill="white"/>
<path fill-rule="evenodd" clip-rule="evenodd" d="M35.3847 25.9979C35.3847 25.9979 35.6279 26.1005 35.68 25.9887C35.7283 25.885 35.6105 25.7656 35.5361 25.7097C35.6197 25.9442 35.4178 25.9273 35.3288 25.9311C35.2295 25.9355 34.4647 26.0961 33.6353 25.9626C32.9611 25.8535 32.5926 25.5148 32.478 25.3916C32.4552 25.416 32.4438 25.4301 32.4438 25.4301C32.4438 25.4301 32.979 26.3192 35.3847 25.9979Z" fill="#946349"/>
<path fill-rule="evenodd" clip-rule="evenodd" d="M35.4222 25.5971C35.3972 25.5613 35.3782 25.526 35.3685 25.5026C35.3484 25.4538 34.7741 24.7612 33.8123 24.8328C32.851 24.9045 32.4434 25.431 32.4434 25.431C32.4434 25.431 32.4906 25.5097 32.6203 25.6117C32.8483 25.4402 33.3265 25.1721 34.0669 25.1998C34.6487 25.2215 35.1079 25.3963 35.4222 25.5976V25.5971Z" fill="#857E72"/>
<path fill-rule="evenodd" clip-rule="evenodd" d="M34.714 24.9975C34.4881 24.8955 34.2102 24.8206 33.8857 24.8282C33.7277 24.9356 33.624 25.118 33.624 25.3243C33.624 25.6548 33.8894 25.9224 34.2173 25.9224C34.5451 25.9224 34.8106 25.6543 34.8106 25.3243C34.8106 25.2038 34.7753 25.0914 34.7145 24.9975H34.714Z" fill="#625D54"/>
<path d="M34.2314 25.6199C34.3893 25.6199 34.5174 25.4877 34.5174 25.3246C34.5174 25.1615 34.3893 25.0293 34.2314 25.0293C34.0734 25.0293 33.9453 25.1615 33.9453 25.3246C33.9453 25.4877 34.0734 25.6199 34.2314 25.6199Z" fill="#211811"/>
<path d="M34.3305 25.3243C34.3854 25.3243 34.4299 25.2784 34.4299 25.2217C34.4299 25.1651 34.3854 25.1191 34.3305 25.1191C34.2757 25.1191 34.2312 25.1651 34.2312 25.2217C34.2312 25.2784 34.2757 25.3243 34.3305 25.3243Z" fill="white"/>
<path fill-rule="evenodd" clip-rule="evenodd" d="M31.9038 25.1129C31.9038 25.1129 31.9217 25.26 32.1378 25.3892C32.3538 25.5184 32.4575 25.4961 32.4575 25.4961C32.4575 25.4961 32.9617 24.9745 33.8009 24.9691C34.64 24.9636 35.3006 25.3859 35.3663 25.4983C35.432 25.6107 35.1921 24.9289 34.3149 24.7281C33.4377 24.5272 32.4363 24.9012 32.331 24.9691C32.331 24.9691 31.9651 25.2139 31.9038 25.1124V25.1129Z" fill="#211811"/>
<path fill-rule="evenodd" clip-rule="evenodd" d="M38.8743 24.9174C38.8743 24.9174 39.3921 24.355 40.5934 24.4619C41.7946 24.5689 42.4106 25.0872 42.4106 25.0872C42.4106 25.0872 41.8477 24.4842 40.8072 24.368C39.7667 24.2519 39.0388 24.6226 38.8738 24.9174H38.8743Z" fill="#693D26"/>
<path fill-rule="evenodd" clip-rule="evenodd" d="M38.7224 25.9983C38.7224 25.9983 38.4499 26.1009 38.3918 25.989C38.3337 25.8772 38.49 25.748 38.5704 25.6986C38.6507 25.6492 38.718 25.551 38.7403 25.5021C38.7625 25.4533 39.4057 24.7607 40.4821 24.8323C41.5585 24.904 42.0144 25.4305 42.0144 25.4305C42.0144 25.4305 41.4157 26.3196 38.7224 25.9983Z" fill="white"/>
<path fill-rule="evenodd" clip-rule="evenodd" d="M38.7223 25.998C38.7223 25.998 38.4498 26.1005 38.3917 25.9887C38.3439 25.8965 38.4422 25.7917 38.5231 25.7309C38.5176 25.8351 38.5583 25.9448 38.6495 25.9312C38.77 25.9133 38.7613 25.9046 38.8015 25.9225C38.8417 25.9404 39.7883 26.1233 40.8381 25.9361C41.5584 25.8074 41.858 25.5436 41.9752 25.3911C42.0013 25.4161 42.0143 25.4307 42.0143 25.4307C42.0143 25.4307 41.4156 26.3198 38.7223 25.9985V25.998Z" fill="#946349"/>
<path fill-rule="evenodd" clip-rule="evenodd" d="M38.7007 25.57C38.7186 25.5439 38.7327 25.5201 38.7408 25.5021C38.7631 25.4533 39.4063 24.7607 40.4827 24.8323C41.559 24.904 42.015 25.4305 42.015 25.4305C42.015 25.4305 41.9574 25.5157 41.7979 25.6243C40.8648 24.9594 39.7808 25.1298 39.1376 25.3871C38.9857 25.4479 38.8364 25.5097 38.7012 25.5705L38.7007 25.57Z" fill="#857E72"/>
<path fill-rule="evenodd" clip-rule="evenodd" d="M39.948 24.8595C40.1113 24.8318 40.2899 24.8199 40.4821 24.8329C40.5559 24.8378 40.6265 24.8449 40.6943 24.8535C40.8338 24.9632 40.9234 25.1331 40.9234 25.3247C40.9234 25.6552 40.6552 25.9228 40.3252 25.9228C39.9946 25.9228 39.7271 25.6547 39.7271 25.3247C39.7271 25.1369 39.8134 24.9697 39.9485 24.8601L39.948 24.8595Z" fill="#625D54"/>
<path d="M40.3246 25.6199C40.4877 25.6199 40.6199 25.4877 40.6199 25.3246C40.6199 25.1615 40.4877 25.0293 40.3246 25.0293C40.1615 25.0293 40.0293 25.1615 40.0293 25.3246C40.0293 25.4877 40.1615 25.6199 40.3246 25.6199Z" fill="#211811"/>
<path d="M40.3248 25.3243C40.3814 25.3243 40.4273 25.2784 40.4273 25.2217C40.4273 25.1651 40.3814 25.1191 40.3248 25.1191C40.2681 25.1191 40.2222 25.1651 40.2222 25.2217C40.2222 25.2784 40.2681 25.3243 40.3248 25.3243Z" fill="white"/>
<path fill-rule="evenodd" clip-rule="evenodd" d="M38.668 25.6118C38.668 25.6118 39.1369 25.1835 39.9153 25.0185C40.6937 24.8535 41.4878 25.2117 41.6794 25.3577C41.8705 25.5038 41.9475 25.5048 41.9475 25.5048C41.9475 25.5048 42.0545 25.5765 42.296 25.4831C42.537 25.3892 42.6353 25.1482 42.6353 25.1482C42.6353 25.1482 42.4165 25.3225 42.2157 25.2378C42.1017 25.19 41.4666 24.7563 40.5412 24.7238C39.8681 24.7004 38.992 24.93 38.6685 25.6123L38.668 25.6118Z" fill="#211811"/>
<path fill-rule="evenodd" clip-rule="evenodd" d="M35.3755 24.605C35.3755 24.605 35.9846 25.1 36.0654 25.7986C36.1469 26.4966 36.041 27.1952 36.041 27.1952C36.041 27.1952 36.3336 26.375 36.2196 25.6689C36.1061 24.9627 35.6187 24.6457 35.375 24.605H35.3755Z" fill="#946349"/>
<path fill-rule="evenodd" clip-rule="evenodd" d="M38.3392 24.4346C38.3392 24.4346 38.0466 24.7347 37.925 25.4089C37.8034 26.083 37.779 26.5781 37.779 26.5781C37.779 26.5781 37.7302 24.4753 38.3392 24.4346Z" fill="#875B43"/>
<path fill-rule="evenodd" clip-rule="evenodd" d="M35.7289 28.5469C35.7289 28.5469 35.457 28.8394 35.4282 29.2574C35.4 29.6753 35.5987 29.8501 35.7854 29.9153C35.9721 29.9804 36.1181 29.8664 36.1181 29.8664C36.1181 29.8664 35.1194 29.8908 35.7284 28.5469H35.7289Z" fill="#693D26"/>
<path fill-rule="evenodd" clip-rule="evenodd" d="M38.7007 28.6075C38.7007 28.6075 38.863 28.8306 38.7821 29.3017C38.7007 29.7729 38.3071 29.7967 38.3071 29.7967C38.3071 29.7967 38.6393 29.8043 38.8125 29.5438C38.9433 29.3468 38.9704 28.9473 38.7012 28.6069L38.7007 28.6075Z" fill="#693D26"/>
<path fill-rule="evenodd" clip-rule="evenodd" d="M36.8633 28.0718C36.8633 28.0718 36.644 28.5956 36.7254 28.8512C36.8068 29.1069 37.107 29.0016 37.05 28.6889C36.993 28.3763 36.8269 28.1673 36.8633 28.0718Z" fill="#B38064"/>
<path fill-rule="evenodd" clip-rule="evenodd" d="M36.1528 29.838C36.0757 29.7039 36.1816 29.4482 36.3314 29.6268C36.4817 29.8054 36.701 30.0654 37.0093 30.0372C37.3176 30.009 37.3909 29.7365 37.5331 29.5498C37.6753 29.363 37.874 29.3956 38.0081 29.5861C38.1421 29.7772 38.2518 29.7935 38.2518 29.7935C38.2518 29.7935 38.1785 29.8217 37.988 29.6675C37.7969 29.5134 37.6515 29.4933 37.4805 29.6876C37.3095 29.8819 37.1515 30.1463 36.8269 30.0491C36.5024 29.952 36.3319 29.6268 36.1528 29.838Z" fill="#422A1E"/>
<path fill-rule="evenodd" clip-rule="evenodd" d="M34.7084 31.7047C34.7084 31.7047 35.1176 31.6808 35.357 31.4784C35.5964 31.2754 36.1555 30.8124 36.6168 31.0561C37.0782 31.2998 37.4158 31.3562 37.7524 31.0886C38.0894 30.8205 38.5291 30.9111 38.9812 31.106C39.4334 31.3009 39.8736 31.562 40.1933 31.505C40.5125 31.448 40.4148 31.5945 40.3084 31.6271C40.202 31.6597 39.7482 32.1737 39.1891 32.7664C38.6301 33.3592 37.2904 33.8493 36.3145 33.2891C35.3385 32.729 35.1155 31.9973 34.7073 31.7053L34.7084 31.7047Z" fill="#A3413C"/>
<path fill-rule="evenodd" clip-rule="evenodd" d="M35.9531 31.8742C36.4259 31.694 38.5243 31.7043 39.0416 31.8286C38.0261 32.4534 36.2745 32.3698 35.9531 31.8742Z" fill="white"/>
<path fill-rule="evenodd" clip-rule="evenodd" d="M36.5789 32.5826C36.5789 32.5826 37.0907 32.7286 37.8213 32.6477C38.5519 32.5668 38.8201 32.3877 38.8201 32.3877C38.8201 32.3877 37.4234 33.6057 36.5789 32.5826Z" fill="#B55552"/>
</svg>
