<svg width="85" height="212" viewBox="0 0 85 212" fill="none" xmlns="http://www.w3.org/2000/svg">
<path fill-rule="evenodd" clip-rule="evenodd" d="M34.7151 34.3135C35.6451 36.2541 37.0616 41.6221 35.2892 42.463C33.7867 43.1763 30.5931 44.7109 29.2962 45.3413C28.0002 45.9718 26.7753 47.5643 26.9927 50.5436C27.211 53.5228 27.9994 56.0399 27.9994 56.0399C27.9994 56.0399 47.7163 60.9855 50.6737 58.6453C53.6311 56.305 57.3292 41.2279 53.4754 40.6913C53.2846 40.6648 51.7914 40.4614 51.6146 40.4403C48.2138 40.0375 47.2548 40.5545 46.0143 37.8137C44.7097 34.9307 45.6209 29.9404 45.6209 29.9404C45.6209 29.9404 38.7409 34.4277 34.7127 34.3128L34.7151 34.3135Z" fill="#A57257"/>
<path fill-rule="evenodd" clip-rule="evenodd" d="M48.5164 48.6528C48.5164 48.6528 47.4761 53.5273 45.9478 55.6251C44.4194 57.7229 47.9446 60.3948 48.3631 57.1926C48.7823 53.9911 48.5164 48.6528 48.5164 48.6528Z" fill="#875B43"/>
<path fill-rule="evenodd" clip-rule="evenodd" d="M28.568 110.944C28.568 110.944 28.525 113.952 29.9399 121.734C30.2074 123.206 30.507 124.955 30.8175 126.823C32.5407 121.948 35.1742 114.789 35.9744 112.618C31.462 111.059 28.9278 110.952 28.568 110.945V110.944ZM33.9001 148.366C35.1124 156.135 37.2806 170.874 37.0882 174.512C36.895 178.151 33.7053 186.131 33.7053 186.131C33.7053 186.131 32.5743 187.435 34.1457 188.682C35.717 189.929 37.29 189.947 37.29 189.947L37.6912 189.401C37.6748 189.164 37.721 189.007 37.721 189.007C37.721 189.007 37.721 189.007 38.4257 183.422C38.7378 180.945 39.1429 178.612 39.2431 176.187C39.3682 173.142 39.1046 169.951 38.615 166.144C37.735 159.307 35.577 152.926 33.9001 148.366ZM45.7202 151.69C45.7828 149.695 45.5872 147.279 45.1641 144.398C44.7409 141.516 42.9341 138.143 42.9341 138.143C42.9341 138.143 43.5606 133.499 44.1097 128.243C41.1852 132.8 38.3913 136.981 38.3913 136.981C38.3913 136.981 41.3792 140.364 43.2822 143.889C45.1852 147.415 45.4175 149.934 45.7202 151.691V151.69Z" fill="#875B43"/>
<path fill-rule="evenodd" clip-rule="evenodd" d="M29.0608 54.5092C29.7389 55.0309 31.3142 55.666 34.9091 55.404C39.6115 55.0614 43.3925 53.447 44.6619 52.8447C46.8559 43.4392 50.457 40.9425 52.0824 40.2839C52.9537 39.9303 53.3072 40.2174 53.452 40.5451C53.4371 40.5467 48.152 41.0715 45.3698 53.271C45.7867 54.3082 46.7347 56.4529 48.2654 58.7697C50.4093 62.0157 48.8145 73.4025 48.8145 73.4025C48.8145 73.4025 50.5079 77.0083 52.7996 80.6962C55.0914 84.3834 60.0973 92.1824 58.565 101.894C57.0327 111.605 51.0569 119.701 51.0569 119.701C51.0569 119.701 44.8841 116.14 38.4163 113.532C31.9486 110.925 28.5226 110.943 28.5226 110.943C28.5226 110.943 27.6138 90.945 27.4268 84.6728C27.1992 77.0153 27.437 74.0454 27.4667 70.8542C27.4761 69.7975 26.5398 66.5499 26.4648 66.0196C26.4648 66.0196 22.4076 61.4729 27.9071 54.194C27.9446 54.1298 27.983 54.0641 28.0236 53.9977C29.2954 51.9249 32.0401 48.729 31.4049 44.3739C31.3682 43.8819 32.1253 43.7974 32.1441 44.1196C32.7135 48.7947 30.5195 52.1181 29.1875 54.2933C29.1429 54.3668 29.1007 54.438 29.06 54.5084L29.0608 54.5092Z" fill="#D5C1B5"/>
<path fill-rule="evenodd" clip-rule="evenodd" d="M35.9735 112.617C34.9114 115.497 30.6266 127.149 29.5167 130.611C28.2473 134.571 28.1949 135.411 29.6755 139.473C31.1562 143.536 37.3979 156.692 38.6142 166.144C39.8312 175.597 39.1296 177.836 38.4249 183.422C37.7201 189.007 37.7201 189.007 37.7201 189.007C37.7201 189.007 37.078 191.208 41.4487 191.539C45.8195 191.87 46.1535 189.66 46.0847 187.519C46.0166 185.378 46.4617 183.017 46.9536 180.819C47.4456 178.621 47.3893 177.379 46.2716 174.368C45.1539 171.357 45.5653 167.719 45.7233 161.523C45.8813 155.328 46.8058 149.409 43.8977 144.021C40.9896 138.634 39.8453 137.422 39.8453 137.422C39.8453 137.422 48.36 124.72 51.1805 119.528C50.2888 119.035 41.7561 114.88 38.4155 113.533C35.0748 112.186 36.7315 112.88 35.9728 112.618L35.9735 112.617Z" fill="#A57257"/>
<path fill-rule="evenodd" clip-rule="evenodd" d="M33.7194 186.075C32.9004 186.654 31.753 187.873 29.6185 190.283C27.4831 192.693 27.8156 193.221 28.5672 193.224C29.2727 193.226 34.5727 193.566 36.1465 192.74C36.2732 192.365 36.4053 192 36.5344 191.662C36.8387 190.862 37.0858 190.318 37.2814 189.947C37.1625 189.944 35.6842 189.904 34.1449 188.682C32.6048 187.461 33.6787 186.163 33.6787 186.163L33.7186 186.075H33.7194Z" fill="#BA9F8A"/>
<path fill-rule="evenodd" clip-rule="evenodd" d="M37.6881 189.306C37.4863 189.542 36.7847 189.726 36.0229 191.726C35.2611 193.726 34.4828 197.984 36.4054 197.852C38.328 197.719 46.353 195.161 46.6291 192.013C46.9052 188.864 47.6624 186.863 48.1528 184.414C48.6432 181.965 49.8665 180.455 49.9322 178.781C49.9932 177.234 48.6502 175.89 46.3444 174.562C47.3933 177.435 47.4371 178.67 46.9553 180.82C46.4633 183.018 46.0182 185.379 46.0863 187.52C46.1543 189.661 45.8204 191.871 41.4504 191.539C38.0831 191.285 37.6913 189.92 37.6889 189.307L37.6881 189.306Z" fill="#D4C1B5"/>
<path fill-rule="evenodd" clip-rule="evenodd" d="M49.5473 180.448C49.473 180.98 49.3556 181.637 49.1726 182.383C48.629 184.592 48.8285 187.878 48.8089 188.675C48.6955 188.871 47.8038 188.847 47.8062 188.712L47.8539 185.753C47.9595 185.315 48.0611 184.872 48.1527 184.413C48.4788 182.784 49.1288 181.57 49.5473 180.448Z" fill="#A68C7A"/>
<path fill-rule="evenodd" clip-rule="evenodd" d="M39.6944 178.21C39.6944 178.21 38.4124 185.85 38.2646 187.793C38.1168 189.736 42.0112 177.658 39.6944 178.21Z" fill="#B38064"/>
<path fill-rule="evenodd" clip-rule="evenodd" d="M29.4243 111.356C29.4243 111.356 29.5393 114.221 30.2041 118.637C30.8698 123.053 31.3133 124.201 31.246 123.832C31.1779 123.463 30.6727 111.726 30.6727 111.726C30.6727 111.726 30.2026 111.225 29.4243 111.356Z" fill="#A57257"/>
<path fill-rule="evenodd" clip-rule="evenodd" d="M36.7142 113.527L38.4373 114.321C38.4373 114.321 35.9664 118.565 33.0481 124.606C30.1298 130.648 29.7849 131.333 29.7849 131.333C29.7849 131.333 31.7044 126.299 36.7142 113.528V113.527Z" fill="#B38064"/>
<path fill-rule="evenodd" clip-rule="evenodd" d="M35.9735 112.617L35.5417 113.79C39.8773 114.135 48.8488 118.293 50.3646 120.972C50.6712 120.446 50.9466 119.96 51.1812 119.528C50.6994 119.262 47.1953 117.453 44.6047 116.21C42.399 115.151 39.9524 114.153 38.4162 113.533C35.0756 112.186 36.7322 112.88 35.9735 112.618V112.617Z" fill="#875B43"/>
<path fill-rule="evenodd" clip-rule="evenodd" d="M27.4987 90.0765C27.4987 90.0765 25.6403 99.4852 26.0337 104.498C26.4271 109.511 26.4334 108.169 27.0662 110.155C27.6989 112.141 27.9782 113.044 27.9782 113.044C27.9782 113.044 28.7525 114.145 28.7259 113.838C28.7001 113.531 28.3114 106.046 28.3114 106.046C28.3114 106.046 28.7431 107.28 29.1991 108.141C29.6551 109.003 29.8773 109.19 30.1604 109.058C30.4436 108.926 30.1393 107.445 29.792 106.452C29.4455 105.459 29.5926 104.09 29.1983 102.776C28.8041 101.462 28.205 100.69 28.205 100.69C27.9039 99.7417 27.6817 93.7276 27.4979 90.0757L27.4987 90.0765Z" fill="#946349"/>
<path fill-rule="evenodd" clip-rule="evenodd" d="M56.9419 92.6514C57.4628 95.0096 57.6278 97.5556 57.1335 100.184C55.627 108.2 49.1233 118.012 49.1233 118.012C49.1233 118.012 48.733 117.792 48.033 117.42C49.3713 115.408 51.7326 111.404 54.4084 104.823C56.6071 99.4148 57.0303 95.3123 56.9419 92.6514Z" fill="#B99E8A"/>
<path fill-rule="evenodd" clip-rule="evenodd" d="M49.7381 75.2616C50.4546 76.6547 51.2008 78.1212 52.4648 80.1549L52.6893 80.517C51.6286 81.1255 50.4202 81.8068 47.9024 86.9942C45.3854 92.1815 45.182 95.2805 45.5324 98.2339C45.8836 101.187 46.0267 101.073 45.7358 104.127C45.4448 107.18 44.6783 111.388 44.0885 112.203C43.4988 113.017 43.092 113.006 43.092 113.006C43.092 113.006 42.8527 114.629 42.3623 115.22L42.0674 115.087C41.9571 113.905 41.4299 108.29 41.2868 107.776C41.1265 107.202 40.7197 110.37 40.7197 110.37C40.7197 110.37 40.7072 110.778 40.7229 112.817C40.7291 113.677 40.7205 114.187 40.7088 114.489C40.2363 114.285 39.753 114.08 39.2602 113.876L38.995 107.632C38.995 107.632 38.7408 110.189 38.2927 111.794C38.0885 112.524 37.8022 112.947 37.5504 113.19L37.3689 113.121C37.2672 112.9 37.2164 112.659 37.232 112.391C37.3501 110.3 37.0545 104.824 42.8707 91.045C47.7585 79.4666 46.7409 75.6723 49.7381 75.2593V75.2616Z" fill="#A38976"/>
<path d="M31.7122 93.7747C31.7153 93.7825 32.9402 96.4239 40.0572 98.3715L39.943 98.7078C32.6477 96.711 31.896 94.208 31.8921 94.2002L31.7114 93.7739L31.7122 93.7747ZM31.7357 100.232C31.7482 100.239 36.1002 102.751 40.3528 101.712L40.4561 102.052C36.0329 103.133 32.3137 100.856 32.3012 100.849L31.7357 100.232Z" fill="#B99E8A"/>
<path fill-rule="evenodd" clip-rule="evenodd" d="M34.564 34.6884C34.564 34.6884 35.5174 36.5601 36.0039 38.8042C36.0423 38.9809 36.0767 39.1491 36.108 39.3094C37.1748 39.5785 38.7955 39.6098 40.5945 38.3192C42.5304 36.9309 44.2511 35.1718 45.2985 34.0126C45.25 31.864 45.6238 29.9414 45.6238 29.9414C45.6238 29.9414 38.8471 34.8034 34.5647 34.6884H34.564Z" fill="#946349"/>
<path fill-rule="evenodd" clip-rule="evenodd" d="M34.564 34.6881C34.564 34.6881 34.9481 35.4413 35.3524 36.5661C37.1022 37.8848 39.1428 36.8383 41.2547 35.744C43.3673 34.649 45.1561 33.263 45.3298 32.437C45.4158 31.0072 45.6223 29.9419 45.6223 29.9419C45.6223 29.9419 38.8456 34.8039 34.5632 34.6889L34.564 34.6881Z" fill="#875B43"/>
<path fill-rule="evenodd" clip-rule="evenodd" d="M43.9484 15.7808C47.0873 18.1985 47.8483 21.3092 46.9582 24.89C46.0673 28.4707 45.6825 30.1915 45.2946 31.2161C44.9066 32.2416 44.6 33.0941 42.3075 34.4958C40.0149 35.8974 38.0892 36.8087 36.5546 36.24C35.0192 35.6714 33.5878 34.8274 32.8643 33.091C32.1408 31.3538 31.5651 29.8145 31.2139 28.3448C30.8628 26.8751 31.2679 26.5458 31.257 24.9783C31.246 23.4109 31.0724 23.3389 30.9636 21.8606C30.8995 20.9916 30.5202 19.1058 32.2777 16.8274C35.1537 13.098 40.2386 12.9228 43.9492 15.7808H43.9484Z" fill="#A57257"/>
<path fill-rule="evenodd" clip-rule="evenodd" d="M47.0131 23.9779C47.2376 23.8614 47.5066 23.7167 47.9924 23.8974C48.4781 24.0773 49.1085 25.414 48.2802 27.0511C47.4511 28.6881 47.0639 29.4805 46.8739 29.7496C46.6838 30.0186 45.9517 30.2877 45.6748 29.6244C45.9705 28.5583 46.5156 26.2001 46.8285 24.8907C47.1414 23.5821 46.9638 24.2791 47.0131 23.9779Z" fill="#A57257"/>
<path fill-rule="evenodd" clip-rule="evenodd" d="M45.936 29.8444C45.8813 29.7834 45.8625 29.756 45.821 29.6559C46.1167 28.5898 46.6752 26.1299 46.9716 24.8901C47.2681 23.6504 47.0491 24.5514 47.0827 24.3841C47.2524 24.3199 47.4691 24.273 47.7303 24.2839C48.4648 24.3129 48.5078 25.7443 48.2426 26.3895C47.9783 27.0348 47.9783 27.0348 47.9783 27.0348C47.9783 27.0348 48.2372 26.1971 48.1769 25.4697C48.1167 24.7423 47.4933 24.7697 47.3283 24.9511C47.1632 25.1334 46.8871 25.6293 47.0084 26.2245C47.1296 26.8197 46.9974 27.5589 46.6885 27.7568C46.435 27.9195 45.9587 29.2202 45.9368 29.8444H45.936Z" fill="#875B43"/>
<path fill-rule="evenodd" clip-rule="evenodd" d="M30.428 45.1881C30.0416 45.3594 29.7053 45.5127 29.4573 45.6331C28.3537 46.1697 27.3103 47.526 27.4956 50.0633C27.6106 51.6355 27.9125 53.0567 28.1253 53.9101C28.1253 53.9101 27.4432 50.9957 28.1878 48.2276C28.665 46.4529 29.7264 45.5831 30.4272 45.1865L30.428 45.1881Z" fill="#B38064"/>
<path fill-rule="evenodd" clip-rule="evenodd" d="M37.1116 100.334C36.4811 100.99 36.0861 103.378 36.1393 105.499C36.1933 107.62 36.0063 109.561 36.0063 109.561C36.0063 109.561 37.1929 110.331 37.5097 107.839C37.6458 106.767 37.3149 104.961 37.1335 103.943C36.8925 102.593 37.1116 100.334 37.1116 100.334Z" fill="#946349"/>
<path fill-rule="evenodd" clip-rule="evenodd" d="M53.5427 40.7013C54.5446 40.8898 55.7523 41.2191 56.5595 41.7814C58.1668 42.9015 59.1031 44.4174 58.3882 48.8288C57.7711 52.6372 56.7292 58.584 55.4598 63.1057C54.7754 65.5437 54.0917 68.2023 53.728 70.1578C53.3635 72.1132 52.9154 75.3271 50.8489 80.6146C48.7824 85.9021 47.0945 87.8629 45.9908 90.9658C44.8872 94.0687 44.8653 94.0859 44.8301 94.6326C44.7949 95.1801 44.9388 95.5071 44.7503 96.1805C44.5618 96.854 44.773 97.3968 44.931 98.1985C45.089 99.001 45.6404 100.39 45.2939 102.981C44.9474 105.57 44.8043 106.73 44.701 107.638C44.5986 108.546 44.561 110.655 44.2411 111.693C43.9204 112.73 43.3643 112.561 43.2603 111.624C43.1562 110.687 43.2 108.756 43.1437 107.553C43.0882 106.349 43.1124 105.824 43.1124 105.824C43.1124 105.824 42.6189 109.351 42.676 110.533C42.7323 111.715 42.6854 115.187 42.0518 115.118C41.419 115.049 41.0741 110.533 41.0491 109.694C41.024 108.855 41.1961 106.812 41.1961 106.812C41.1961 106.812 40.938 106.625 40.8395 107.199C40.7409 107.773 40.3443 110.694 40.3443 110.694C40.3443 110.694 40.3709 113.679 40.2606 114.64C40.1496 115.6 39.8719 115.987 39.4636 115.955C39.0553 115.923 38.9427 115.492 38.7996 113.833C38.6564 112.174 38.6971 110.809 38.7417 110.19C38.7863 109.571 38.8684 106.944 38.8684 106.944C38.8684 106.944 38.5602 106.624 38.4984 107.121C38.4366 107.617 38.2489 109.401 38.2489 109.401C38.2489 109.401 38.0549 111.559 37.7835 112.398C37.5121 113.237 36.9067 113.484 36.8027 112.764C36.6986 112.045 36.7651 109.815 36.8011 109.357C36.8371 108.899 36.9106 105.463 36.7722 104.382C36.6337 103.302 36.597 101.416 36.9497 100.625C38.5938 96.9361 38.7284 95.8716 39.9564 92.2728C40.6423 90.2619 42.281 86.7914 43.2931 81.4656C44.6916 74.1022 47.3518 69.4976 47.3518 69.3107C47.3526 69.0205 48.1222 49.5601 48.2826 47.4921C48.525 44.3681 51.3847 41.0884 53.5442 40.6997L53.5427 40.7013Z" fill="#A57257"/>
<path fill-rule="evenodd" clip-rule="evenodd" d="M28.981 55.0144C29.6591 55.5362 31.2344 56.1713 34.8292 55.91C39.5097 55.569 43.2767 53.9687 44.5641 53.3594C43.534 54.0516 37.4777 56.6992 33.6067 56.5608C29.5942 56.4177 28.981 55.0144 28.981 55.0144Z" fill="#E0D0C4"/>
<path fill-rule="evenodd" clip-rule="evenodd" d="M30.9309 52.4551C30.9309 52.4551 31.9391 53.0354 32.5226 54.2611C32.683 54.599 32.7807 54.8994 32.8386 55.1575C33.017 55.1606 33.2015 55.1622 33.3924 55.1606C33.1272 54.2017 32.4851 52.8947 30.9309 52.4551Z" fill="#B38064"/>
<path fill-rule="evenodd" clip-rule="evenodd" d="M39.7507 52.1772C39.7507 52.1772 38.7127 52.4987 37.7295 53.2042C37.0522 53.69 36.4671 54.5191 36.1433 55.0408C36.4085 55.0126 36.6689 54.9813 36.927 54.9461C37.3729 54.1585 38.2732 52.8929 39.7507 52.1772Z" fill="#B38064"/>
<path fill-rule="evenodd" clip-rule="evenodd" d="M34.4859 55.4312C34.2482 54.6115 33.7953 53.662 32.9451 52.793C32.9451 52.793 33.5145 53.9866 33.5247 55.4633C33.8266 55.4602 34.1465 55.4492 34.4859 55.4304V55.4312Z" fill="#875B43"/>
<path fill-rule="evenodd" clip-rule="evenodd" d="M42.5586 25.2477C42.5586 25.2477 42.5039 25.753 41.4041 26.0643C40.3044 26.3748 38.7987 26.022 38.6579 26.0525C38.5172 26.0831 38.2966 25.9978 38.6986 25.5527C39.1007 25.1069 39.7295 24.6212 40.9059 24.629C42.0831 24.6376 42.658 25.0874 42.5578 25.2477H42.5586Z" fill="#693D26"/>
<path fill-rule="evenodd" clip-rule="evenodd" d="M32.0134 25.2477C32.0134 25.2477 32.0619 25.753 33.0411 26.0643C34.0204 26.3748 35.3603 26.022 35.4862 26.0525C35.6121 26.0831 35.8077 25.9978 35.4494 25.5527C35.0912 25.1069 34.5319 24.6212 33.4838 24.629C32.4365 24.6376 31.9242 25.0874 32.0134 25.2477Z" fill="#693D26"/>
<path fill-rule="evenodd" clip-rule="evenodd" d="M38.0813 23.7767C38.0531 23.9878 38.3801 24.296 38.5967 24.2311C38.6781 24.2068 39.7575 23.6789 40.578 23.4434C41.3977 23.208 41.8936 23.3543 42.2995 23.5248C42.7055 23.6953 42.8111 23.7524 42.8111 23.7524C42.8111 23.7524 42.8924 23.6875 42.7219 23.5412C42.5514 23.395 41.8858 22.7293 40.8541 22.7536C39.8232 22.7778 38.2518 23.4763 38.0813 23.7767Z" fill="#211811"/>
<path fill-rule="evenodd" clip-rule="evenodd" d="M35.907 23.7827C35.9328 23.9915 35.6301 24.295 35.4298 24.2317C35.3548 24.2074 34.2503 23.76 33.4916 23.5277C32.7329 23.2954 32.449 23.4112 32.0736 23.5793C31.6981 23.7475 31.7263 23.6912 31.7263 23.6912C31.483 23.4831 32.6485 22.8316 33.2366 22.8464C34.1909 22.8707 35.7498 23.4863 35.9078 23.7827H35.907Z" fill="#211811"/>
<path fill-rule="evenodd" clip-rule="evenodd" d="M35.232 24.9607C35.232 24.9607 34.7689 24.3983 33.6958 24.5055C32.6227 24.6126 32.072 25.1304 32.072 25.1304C32.072 25.1304 32.575 24.5274 33.5042 24.4116C34.4334 24.2951 35.0842 24.6658 35.232 24.9607Z" fill="#693D26"/>
<path fill-rule="evenodd" clip-rule="evenodd" d="M35.3675 26.0418C35.3675 26.0418 35.6107 26.1442 35.6623 26.0324C35.714 25.9205 35.5747 25.7915 35.5028 25.7422C35.4308 25.6929 35.3706 25.5944 35.351 25.5459C35.3315 25.4966 34.7566 24.8044 33.7953 24.8763C32.834 24.9475 32.4265 25.4747 32.4265 25.4747C32.4265 25.4747 32.9615 26.364 35.3675 26.0425V26.0418Z" fill="white"/>
<path fill-rule="evenodd" clip-rule="evenodd" d="M35.3675 26.0415C35.3675 26.0415 35.6107 26.144 35.6631 26.0321C35.7116 25.9281 35.5935 25.8092 35.5192 25.7529C35.6029 25.9876 35.4003 25.9704 35.3119 25.9743C35.2126 25.979 34.4476 26.1393 33.6185 26.0056C32.9443 25.8968 32.5759 25.5574 32.4609 25.4346C32.4382 25.4588 32.4265 25.4729 32.4265 25.4729C32.4265 25.4729 32.9615 26.3622 35.3675 26.0408V26.0415Z" fill="#946349"/>
<path fill-rule="evenodd" clip-rule="evenodd" d="M35.4057 25.6405C35.3807 25.6045 35.3612 25.5693 35.3518 25.5459C35.3322 25.4966 34.7573 24.8044 33.796 24.8763C32.8348 24.9475 32.4272 25.4747 32.4272 25.4747C32.4272 25.4747 32.475 25.5537 32.6048 25.6554C32.8324 25.4841 33.3111 25.2158 34.051 25.2432C34.633 25.2651 35.0921 25.4395 35.4057 25.6413V25.6405Z" fill="#857E72"/>
<path fill-rule="evenodd" clip-rule="evenodd" d="M34.697 25.0403C34.4718 24.9378 34.1933 24.8635 33.8687 24.8706C33.7107 24.9777 33.6067 25.16 33.6067 25.3673C33.6067 25.6973 33.8718 25.9656 34.1996 25.9656C34.5273 25.9656 34.7925 25.6973 34.7925 25.3673C34.7925 25.2468 34.7573 25.1342 34.6963 25.0403H34.697Z" fill="#625D54"/>
<path d="M34.2144 25.6631C34.3721 25.6631 34.4999 25.5307 34.4999 25.3674C34.4999 25.2041 34.3721 25.0718 34.2144 25.0718C34.0568 25.0718 33.929 25.2041 33.929 25.3674C33.929 25.5307 34.0568 25.6631 34.2144 25.6631Z" fill="#211811"/>
<path d="M34.3137 25.3675C34.3686 25.3675 34.413 25.3217 34.413 25.2651C34.413 25.2085 34.3686 25.1626 34.3137 25.1626C34.2588 25.1626 34.2144 25.2085 34.2144 25.2651C34.2144 25.3217 34.2588 25.3675 34.3137 25.3675Z" fill="white"/>
<path fill-rule="evenodd" clip-rule="evenodd" d="M31.8867 25.1562C31.8867 25.1562 31.9047 25.3032 32.1206 25.4323C32.3365 25.5614 32.4405 25.5394 32.4405 25.5394C32.4405 25.5394 32.945 25.0177 33.7843 25.0123C34.6235 25.0068 35.2837 25.4292 35.3494 25.541C35.4151 25.6536 35.175 24.9716 34.2981 24.7706C33.4213 24.5696 32.4194 24.9442 32.3138 25.0115C32.3138 25.0115 31.9477 25.2563 31.8867 25.1546V25.1562Z" fill="#211811"/>
<path fill-rule="evenodd" clip-rule="evenodd" d="M38.8572 24.9607C38.8572 24.9607 39.375 24.3983 40.5764 24.5055C41.7778 24.6126 42.3941 25.1304 42.3941 25.1304C42.3941 25.1304 41.8318 24.5274 40.7907 24.4116C39.7504 24.2951 39.0222 24.6658 38.8572 24.9607Z" fill="#693D26"/>
<path fill-rule="evenodd" clip-rule="evenodd" d="M38.7055 26.0418C38.7055 26.0418 38.4333 26.1442 38.3746 26.0324C38.3167 25.9205 38.4732 25.7915 38.553 25.7422C38.6335 25.6929 38.7 25.5944 38.7227 25.5459C38.7454 25.4966 39.3883 24.8044 40.4646 24.8763C41.5408 24.9475 41.9968 25.4747 41.9968 25.4747C41.9968 25.4747 41.3977 26.364 38.7047 26.0425L38.7055 26.0418Z" fill="white"/>
<path fill-rule="evenodd" clip-rule="evenodd" d="M38.7054 26.0418C38.7054 26.0418 38.4332 26.1443 38.3746 26.0324C38.3269 25.9401 38.4254 25.8353 38.506 25.7743C38.5005 25.8784 38.5412 25.9879 38.6327 25.9746C38.7531 25.9566 38.7445 25.948 38.7844 25.966C38.8243 25.9839 39.7715 26.167 40.8212 25.9793C41.5416 25.8502 41.8411 25.5866 41.9585 25.4341C41.9843 25.4591 41.9976 25.4732 41.9976 25.4732C41.9976 25.4732 41.3984 26.3625 38.7054 26.041V26.0418Z" fill="#946349"/>
<path fill-rule="evenodd" clip-rule="evenodd" d="M38.6836 25.6131C38.7016 25.5873 38.7157 25.5631 38.7235 25.5459C38.7462 25.4966 39.3891 24.8044 40.4654 24.8763C41.5416 24.9475 41.9976 25.4747 41.9976 25.4747C41.9976 25.4747 41.9398 25.5599 41.7802 25.6687C40.955 25.1571 39.7129 25.1532 38.6836 25.6147V25.6131Z" fill="#857E72"/>
<path fill-rule="evenodd" clip-rule="evenodd" d="M39.9311 24.9027C40.0945 24.8745 40.2729 24.8628 40.4653 24.8761C40.5388 24.8808 40.6092 24.8878 40.6773 24.8972C40.8165 25.0067 40.9064 25.1772 40.9064 25.3681C40.9064 25.6981 40.6382 25.9664 40.3081 25.9664C39.9772 25.9664 39.7097 25.6981 39.7097 25.3681C39.7097 25.1803 39.7958 25.013 39.9311 24.9035V24.9027Z" fill="#625D54"/>
<path d="M40.3081 25.6631C40.4714 25.6631 40.6038 25.5307 40.6038 25.3674C40.6038 25.2041 40.4714 25.0718 40.3081 25.0718C40.1448 25.0718 40.0125 25.2041 40.0125 25.3674C40.0125 25.5307 40.1448 25.6631 40.3081 25.6631Z" fill="#211811"/>
<path d="M40.308 25.3675C40.3646 25.3675 40.4105 25.3217 40.4105 25.2651C40.4105 25.2085 40.3646 25.1626 40.308 25.1626C40.2514 25.1626 40.2056 25.2085 40.2056 25.2651C40.2056 25.3217 40.2514 25.3675 40.308 25.3675Z" fill="white"/>
<path fill-rule="evenodd" clip-rule="evenodd" d="M38.6516 25.6553C38.6516 25.6553 39.1201 25.2274 39.8992 25.0616C40.6774 24.8966 41.4721 25.2548 41.663 25.4011C41.8538 25.5474 41.9312 25.5481 41.9312 25.5481C41.9312 25.5481 42.0384 25.6201 42.2793 25.5262C42.5202 25.4324 42.6188 25.1915 42.6188 25.1915C42.6188 25.1915 42.3998 25.3659 42.1987 25.2806C42.0853 25.2329 41.4502 24.7988 40.5241 24.7667C39.8515 24.7433 38.9754 24.9732 38.6516 25.6553Z" fill="#211811"/>
<path fill-rule="evenodd" clip-rule="evenodd" d="M35.3587 24.6489C35.3587 24.6489 35.9672 25.144 36.0486 25.8425C36.1299 26.541 36.0243 27.2387 36.0243 27.2387C36.0243 27.2387 36.3169 26.419 36.2027 25.7127C36.0892 25.0064 35.6019 24.6896 35.3579 24.6489H35.3587Z" fill="#946349"/>
<path fill-rule="evenodd" clip-rule="evenodd" d="M38.3224 24.478C38.3224 24.478 38.0299 24.7784 37.9087 25.4526C37.7866 26.1268 37.7624 26.622 37.7624 26.622C37.7624 26.622 37.7139 24.5187 38.3224 24.4788V24.478Z" fill="#875B43"/>
<path fill-rule="evenodd" clip-rule="evenodd" d="M35.7115 28.5908C35.7115 28.5908 35.4393 28.8834 35.4111 29.301C35.383 29.7195 35.5816 29.8939 35.7686 29.9588C35.9555 30.0238 36.1018 29.9103 36.1018 29.9103C36.1018 29.9103 35.103 29.9346 35.7123 28.5908H35.7115Z" fill="#693D26"/>
<path fill-rule="evenodd" clip-rule="evenodd" d="M38.6837 28.6519C38.6837 28.6519 38.8464 28.8748 38.7651 29.3464C38.6837 29.8173 38.2903 29.8415 38.2903 29.8415C38.2903 29.8415 38.6227 29.8494 38.7956 29.5889C38.9262 29.3918 38.9536 28.9929 38.6837 28.6526V28.6519Z" fill="#693D26"/>
<path fill-rule="evenodd" clip-rule="evenodd" d="M36.8464 28.1152C36.8464 28.1152 36.6274 28.6393 36.7088 28.8951C36.7901 29.1508 37.0905 29.0452 37.0334 28.7324C36.9763 28.4195 36.8105 28.2107 36.8464 28.1152Z" fill="#B38064"/>
<path fill-rule="evenodd" clip-rule="evenodd" d="M36.1362 29.8814C36.0587 29.7476 36.1643 29.4918 36.3145 29.6702C36.4647 29.8485 36.6837 30.109 36.9927 30.08C37.3008 30.0519 37.3744 29.7797 37.5167 29.5927C37.6591 29.4058 37.8577 29.4387 37.9915 29.6295C38.1252 29.8204 38.2347 29.8368 38.2347 29.8368C38.2347 29.8368 38.162 29.8649 37.9711 29.7109C37.7803 29.5568 37.6348 29.5364 37.4635 29.7312C37.2922 29.926 37.135 30.1895 36.8096 30.0926C36.485 29.9948 36.3145 29.6702 36.1354 29.8814H36.1362Z" fill="#422A1E"/>
<path fill-rule="evenodd" clip-rule="evenodd" d="M34.6914 31.7485C34.6914 31.7485 35.1005 31.7251 35.3406 31.5217C35.5799 31.3191 36.1392 30.8561 36.6007 31.0993C37.0622 31.3434 37.3993 31.3997 37.7364 31.1322C38.0735 30.8639 38.5131 30.9546 38.9652 31.1494C39.4173 31.3442 39.8576 31.6054 40.1775 31.5483C40.4967 31.4912 40.3989 31.6375 40.2925 31.6703C40.1861 31.7024 39.7325 32.2171 39.1732 32.8099C38.614 33.4028 37.2741 33.8933 36.2988 33.3324C35.3226 32.7724 35.0997 32.0403 34.6914 31.7485Z" fill="#A3413C"/>
<path fill-rule="evenodd" clip-rule="evenodd" d="M35.9358 31.9174C36.409 31.7375 38.5076 31.7477 39.0246 31.8721C38.0093 32.497 36.2573 32.4133 35.9358 31.9174Z" fill="white"/>
<path fill-rule="evenodd" clip-rule="evenodd" d="M36.5615 32.6259C36.5615 32.6259 37.0731 32.7722 37.8036 32.6908C38.5342 32.6095 38.8024 32.4312 38.8024 32.4312C38.8024 32.4312 37.4055 33.649 36.5615 32.6259Z" fill="#B55552"/>
</svg>
