<svg width="85" height="212" viewBox="0 0 85 212" fill="none" xmlns="http://www.w3.org/2000/svg">
<path fill-rule="evenodd" clip-rule="evenodd" d="M31.3735 22.6021H43.0208V27.3178H31.3735V22.6021Z" fill="#A57257"/>
<path fill-rule="evenodd" clip-rule="evenodd" d="M42.5586 25.2477C42.5586 25.2477 42.5039 25.753 41.4041 26.0643C40.3044 26.3748 38.7987 26.022 38.6579 26.0525C38.5172 26.0831 38.2966 25.9978 38.6986 25.5527C39.1007 25.1069 39.7295 24.6212 40.9059 24.629C42.0831 24.6376 42.658 25.0874 42.5578 25.2477H42.5586Z" fill="#693D26"/>
<path fill-rule="evenodd" clip-rule="evenodd" d="M32.0134 25.2477C32.0134 25.2477 32.0619 25.753 33.0411 26.0643C34.0204 26.3748 35.3603 26.022 35.4862 26.0525C35.6121 26.0831 35.8077 25.9978 35.4494 25.5527C35.0912 25.1069 34.5319 24.6212 33.4838 24.629C32.4365 24.6376 31.9242 25.0874 32.0134 25.2477Z" fill="#693D26"/>
<path fill-rule="evenodd" clip-rule="evenodd" d="M38.0813 23.7767C38.0531 23.9886 38.3801 24.2968 38.5967 24.2311C38.6781 24.2068 39.7575 23.6789 40.578 23.4434C41.3985 23.208 41.8936 23.3543 42.2995 23.5248C42.7055 23.6953 42.8111 23.7524 42.8111 23.7524C42.8111 23.7524 42.8924 23.6875 42.7219 23.5412C42.5514 23.395 41.8858 22.7293 40.8549 22.7536C39.8232 22.7778 38.2526 23.4763 38.0821 23.7767H38.0813Z" fill="#211811"/>
<path fill-rule="evenodd" clip-rule="evenodd" d="M35.907 23.7827C35.9328 23.9915 35.6301 24.295 35.4298 24.2317C35.3548 24.2074 34.2503 23.76 33.4916 23.5277C32.7329 23.2954 32.449 23.4112 32.0736 23.5793C31.6981 23.7475 31.7263 23.6912 31.7263 23.6912C31.483 23.4831 32.6485 22.8316 33.2366 22.8464C34.1909 22.8707 35.7498 23.4863 35.9078 23.7827H35.907Z" fill="#211811"/>
<path fill-rule="evenodd" clip-rule="evenodd" d="M35.232 24.9607C35.232 24.9607 34.7697 24.3983 33.6958 24.5055C32.6227 24.6126 32.072 25.1304 32.072 25.1304C32.072 25.1304 32.575 24.5274 33.5042 24.4116C34.4334 24.2951 35.0842 24.6658 35.2312 24.9607H35.232Z" fill="#693D26"/>
<path fill-rule="evenodd" clip-rule="evenodd" d="M35.3674 26.0418C35.3674 26.0418 35.6107 26.1442 35.6631 26.0324C35.7147 25.9205 35.5755 25.7915 35.5035 25.7422C35.4316 25.6929 35.3713 25.5951 35.3518 25.5459C35.3322 25.4966 34.7573 24.8044 33.796 24.8763C32.8348 24.9475 32.4272 25.4747 32.4272 25.4747C32.4272 25.4747 32.9623 26.364 35.3682 26.0425L35.3674 26.0418Z" fill="white"/>
<path fill-rule="evenodd" clip-rule="evenodd" d="M35.3675 26.0415C35.3675 26.0415 35.6107 26.144 35.6631 26.0321C35.7116 25.9281 35.5935 25.8092 35.5192 25.7529C35.6029 25.9876 35.4003 25.9704 35.3119 25.9743C35.2126 25.979 34.4476 26.1393 33.6185 26.0056C32.9443 25.8968 32.5759 25.5574 32.4609 25.4346C32.4382 25.4588 32.4265 25.4729 32.4265 25.4729C32.4265 25.4729 32.9615 26.3622 35.3675 26.0408V26.0415Z" fill="#946349"/>
<path fill-rule="evenodd" clip-rule="evenodd" d="M35.4057 25.6405C35.3807 25.6045 35.3612 25.5693 35.3518 25.5459C35.3322 25.4966 34.7573 24.8044 33.796 24.8763C32.8348 24.9475 32.4272 25.4747 32.4272 25.4747C32.4272 25.4747 32.4742 25.5537 32.604 25.6554C32.8316 25.4841 33.3103 25.2158 34.0502 25.2432C34.6322 25.2651 35.0913 25.4395 35.4057 25.6405Z" fill="#857E72"/>
<path fill-rule="evenodd" clip-rule="evenodd" d="M34.697 25.0406C34.471 24.9381 34.1933 24.8638 33.8687 24.8717C33.7107 24.9796 33.6067 25.1611 33.6067 25.3676C33.6067 25.6984 33.8726 25.9659 34.2004 25.9659C34.5281 25.9659 34.7932 25.6976 34.7932 25.3676C34.7932 25.2471 34.758 25.1345 34.697 25.0406Z" fill="#5C9951"/>
<path fill-rule="evenodd" clip-rule="evenodd" d="M34.2145 25.0728C34.3725 25.0728 34.5 25.2049 34.5 25.3684C34.5 25.5319 34.3717 25.6641 34.2145 25.6641C34.0565 25.6641 33.9282 25.5319 33.9282 25.3684C33.9282 25.2049 34.0565 25.0728 34.2145 25.0728Z" fill="#211811"/>
<path fill-rule="evenodd" clip-rule="evenodd" d="M34.3137 25.1626C34.3684 25.1626 34.413 25.2087 34.413 25.2651C34.413 25.3214 34.3684 25.3675 34.3137 25.3675C34.2589 25.3675 34.2144 25.3214 34.2144 25.2651C34.2144 25.2087 34.2589 25.1626 34.3137 25.1626Z" fill="white"/>
<path fill-rule="evenodd" clip-rule="evenodd" d="M31.8867 25.1562C31.8867 25.1562 31.9047 25.3032 32.1206 25.4323C32.3365 25.5614 32.4405 25.5394 32.4405 25.5394C32.4405 25.5394 32.945 25.0177 33.7843 25.0123C34.6235 25.0068 35.2837 25.4292 35.3494 25.541C35.4151 25.6536 35.175 24.9716 34.2981 24.7706C33.4213 24.5696 32.4194 24.9442 32.3146 25.0115C32.3146 25.0115 31.9485 25.2563 31.8875 25.1546L31.8867 25.1562Z" fill="#211811"/>
<path fill-rule="evenodd" clip-rule="evenodd" d="M38.8572 24.9607C38.8572 24.9607 39.375 24.3983 40.5764 24.5055C41.7778 24.6126 42.3941 25.1304 42.3941 25.1304C42.3941 25.1304 41.8318 24.5274 40.7907 24.4116C39.7504 24.2951 39.0222 24.6658 38.8572 24.9607Z" fill="#693D26"/>
<path fill-rule="evenodd" clip-rule="evenodd" d="M38.7055 26.0418C38.7055 26.0418 38.4333 26.1442 38.3746 26.0324C38.3167 25.9205 38.4732 25.7915 38.553 25.7422C38.6335 25.6929 38.7008 25.5951 38.7227 25.5459C38.7446 25.4966 39.3883 24.8044 40.4646 24.8763C41.5408 24.9475 41.9968 25.4747 41.9968 25.4747C41.9968 25.4747 41.3977 26.364 38.7047 26.0425L38.7055 26.0418Z" fill="white"/>
<path fill-rule="evenodd" clip-rule="evenodd" d="M38.7054 26.0418C38.7054 26.0418 38.4332 26.1443 38.3746 26.0324C38.3269 25.9401 38.4254 25.8353 38.506 25.7743C38.5005 25.8784 38.5412 25.9879 38.6327 25.9746C38.7531 25.9566 38.7445 25.948 38.7844 25.966C38.8243 25.9839 39.7715 26.167 40.8212 25.9793C41.5416 25.8502 41.8411 25.5866 41.9585 25.4341C41.9843 25.4591 41.9976 25.4732 41.9976 25.4732C41.9976 25.4732 41.3984 26.3625 38.7054 26.041V26.0418Z" fill="#946349"/>
<path fill-rule="evenodd" clip-rule="evenodd" d="M38.6836 25.6131C38.7016 25.5873 38.7157 25.5631 38.7235 25.5459C38.7454 25.4966 39.3891 24.8044 40.4654 24.8763C41.5416 24.9475 41.9976 25.4747 41.9976 25.4747C41.9976 25.4747 41.9398 25.5599 41.7802 25.6687C40.8471 25.0038 39.763 25.1743 39.12 25.4309C38.9683 25.4919 38.8189 25.5537 38.6836 25.6139V25.6131Z" fill="#857E72"/>
<path fill-rule="evenodd" clip-rule="evenodd" d="M39.9311 24.9027C40.0945 24.8745 40.2729 24.8628 40.4653 24.8761C40.5388 24.8808 40.6092 24.8878 40.6773 24.8972C40.8165 25.0067 40.9064 25.1772 40.9064 25.3681C40.9064 25.6989 40.6382 25.9664 40.3081 25.9664C39.9772 25.9664 39.7097 25.6981 39.7097 25.3681C39.7097 25.1803 39.7965 25.013 39.9311 24.9035V24.9027Z" fill="#5C9951"/>
<path fill-rule="evenodd" clip-rule="evenodd" d="M40.3081 25.0728C40.4716 25.0728 40.6038 25.2049 40.6038 25.3684C40.6038 25.5319 40.4716 25.6641 40.3081 25.6641C40.1454 25.6641 40.0125 25.5319 40.0125 25.3684C40.0125 25.2049 40.1446 25.0728 40.3081 25.0728Z" fill="#211811"/>
<path fill-rule="evenodd" clip-rule="evenodd" d="M40.308 25.1626C40.3651 25.1626 40.4113 25.2087 40.4113 25.2651C40.4113 25.3214 40.3651 25.3675 40.308 25.3675C40.2517 25.3675 40.2056 25.3214 40.2056 25.2651C40.2056 25.2087 40.2517 25.1626 40.308 25.1626Z" fill="white"/>
<path fill-rule="evenodd" clip-rule="evenodd" d="M38.6516 25.6555C38.6516 25.6555 39.1201 25.2276 39.8992 25.0626C40.6782 24.8976 41.4721 25.2558 41.663 25.4021C41.8546 25.5483 41.9312 25.5491 41.9312 25.5491C41.9312 25.5491 42.0384 25.6211 42.2793 25.5272C42.5202 25.4333 42.6188 25.1924 42.6188 25.1924C42.6188 25.1924 42.3998 25.3661 42.1987 25.2816C42.0853 25.2339 41.4494 24.7998 40.5241 24.7677C39.8515 24.7443 38.9746 24.9742 38.6516 25.6563V25.6555Z" fill="#211811"/>
<path fill-rule="evenodd" clip-rule="evenodd" d="M35.3587 24.6487C35.3587 24.6487 35.9672 25.1438 36.0486 25.8423C36.1299 26.5408 36.0243 27.2385 36.0243 27.2385C36.0243 27.2385 36.3169 26.418 36.2027 25.7117C36.0892 25.0054 35.6019 24.6886 35.3579 24.6479L35.3587 24.6487Z" fill="#946349"/>
<path fill-rule="evenodd" clip-rule="evenodd" d="M38.3224 24.478C38.3224 24.478 38.0299 24.7784 37.9087 25.4526C37.7866 26.1268 37.7624 26.622 37.7624 26.622C37.7624 26.622 37.7139 24.5187 38.3224 24.478Z" fill="#875B43"/>
</svg>
