<svg width="85" height="212" viewBox="0 0 85 212" fill="none" xmlns="http://www.w3.org/2000/svg">
<path fill-rule="evenodd" clip-rule="evenodd" d="M31.6357 22.5581H43.283V27.2739H31.6357V22.5581Z" fill="#A57257"/>
<path fill-rule="evenodd" clip-rule="evenodd" d="M42.5756 25.2044C42.5756 25.2044 42.5213 25.7097 41.4216 26.0208C40.3219 26.3318 38.8162 25.979 38.6751 26.0088C38.534 26.0392 38.3136 25.9545 38.7163 25.5089C39.1186 25.0633 39.7471 24.5769 40.9239 24.5851C42.1007 24.5932 42.676 25.0432 42.5756 25.2038V25.2044Z" fill="#693D26"/>
<path fill-rule="evenodd" clip-rule="evenodd" d="M32.0302 25.2044C32.0302 25.2044 32.0785 25.7097 33.0577 26.0208C34.0364 26.3318 35.3771 25.979 35.5024 26.0088C35.6278 26.0392 35.8238 25.9545 35.4661 25.5089C35.1078 25.0633 34.5482 24.5769 33.5006 24.5851C32.453 24.5932 31.9412 25.0432 32.0302 25.2038V25.2044Z" fill="#693D26"/>
<path fill-rule="evenodd" clip-rule="evenodd" d="M38.0981 23.7328C38.0699 23.9444 38.3972 24.2527 38.6138 24.1876C38.6947 24.1632 39.7748 23.6356 40.595 23.4C41.4152 23.1644 41.9102 23.3105 42.3162 23.4814C42.7222 23.6519 42.8275 23.7089 42.8275 23.7089C42.8275 23.7089 42.9089 23.6437 42.738 23.4977C42.5675 23.3517 41.9015 22.6857 40.8707 22.7101C39.8394 22.7346 38.268 23.4326 38.0976 23.7333L38.0981 23.7328Z" fill="#211811"/>
<path fill-rule="evenodd" clip-rule="evenodd" d="M35.9237 23.7394C35.9498 23.9478 35.6469 24.2523 35.4466 24.1877C35.3717 24.1638 34.2671 23.716 33.5083 23.4837C32.7495 23.2514 32.4661 23.367 32.0905 23.5353C31.7149 23.7035 31.7431 23.6471 31.7431 23.6471C31.4999 23.4392 32.6648 22.7878 33.2532 22.8025C34.2069 22.8264 35.7663 23.4424 35.9243 23.7388L35.9237 23.7394Z" fill="#211811"/>
<path fill-rule="evenodd" clip-rule="evenodd" d="M35.249 24.9174C35.249 24.9174 34.7865 24.355 33.7134 24.4619C32.6403 24.5689 32.0894 25.0872 32.0894 25.0872C32.0894 25.0872 32.592 24.4842 33.5218 24.368C34.4516 24.2519 35.1019 24.6226 35.249 24.9174Z" fill="#693D26"/>
<path fill-rule="evenodd" clip-rule="evenodd" d="M35.3847 25.9983C35.3847 25.9983 35.6279 26.1009 35.68 25.989C35.7316 25.8778 35.5921 25.748 35.5204 25.6986C35.4488 25.6498 35.3885 25.551 35.369 25.5021C35.3489 25.4533 34.7746 24.7607 33.8128 24.8323C32.8515 24.904 32.4438 25.4305 32.4438 25.4305C32.4438 25.4305 32.979 26.3196 35.3847 25.9983Z" fill="white"/>
<path fill-rule="evenodd" clip-rule="evenodd" d="M35.3847 25.9979C35.3847 25.9979 35.6279 26.1005 35.68 25.9887C35.7283 25.885 35.6105 25.7656 35.5361 25.7097C35.6197 25.9442 35.4178 25.9273 35.3288 25.9311C35.2295 25.9355 34.4647 26.0961 33.6353 25.9626C32.9611 25.8535 32.5926 25.5148 32.478 25.3916C32.4552 25.416 32.4438 25.4301 32.4438 25.4301C32.4438 25.4301 32.979 26.3192 35.3847 25.9979Z" fill="#946349"/>
<path fill-rule="evenodd" clip-rule="evenodd" d="M35.4222 25.5971C35.3967 25.5613 35.3782 25.5265 35.3685 25.5026C35.3484 25.4538 34.7741 24.7612 33.8123 24.8328C32.851 24.9045 32.4434 25.431 32.4434 25.431C32.4434 25.431 32.4906 25.5097 32.6203 25.6117C32.8483 25.4402 33.3265 25.1721 34.0663 25.1998C34.6487 25.2215 35.1079 25.3963 35.4217 25.5976L35.4222 25.5971Z" fill="#857E72"/>
<path fill-rule="evenodd" clip-rule="evenodd" d="M34.714 24.9975C34.4881 24.8955 34.2097 24.8206 33.8857 24.8282C33.7277 24.9356 33.624 25.1175 33.624 25.3243C33.624 25.6548 33.8894 25.923 34.2173 25.923C34.5446 25.923 34.81 25.6548 34.81 25.3243C34.81 25.2038 34.7747 25.0914 34.714 24.9975Z" fill="#783810"/>
<path fill-rule="evenodd" clip-rule="evenodd" d="M34.2314 25.0288C34.3893 25.0288 34.5174 25.1613 34.5174 25.3241C34.5174 25.4875 34.3893 25.6199 34.2314 25.6199C34.0734 25.6199 33.9453 25.4875 33.9453 25.3241C33.9453 25.1613 34.0734 25.0288 34.2314 25.0288Z" fill="#211811"/>
<path fill-rule="evenodd" clip-rule="evenodd" d="M34.3305 25.1187C34.3854 25.1187 34.4299 25.1648 34.4299 25.2212C34.4299 25.2777 34.3854 25.3238 34.3305 25.3238C34.2757 25.3238 34.2312 25.2777 34.2312 25.2212C34.2312 25.1648 34.2757 25.1187 34.3305 25.1187Z" fill="white"/>
<path fill-rule="evenodd" clip-rule="evenodd" d="M31.9038 25.1129C31.9038 25.1129 31.9217 25.26 32.1378 25.3892C32.3538 25.5184 32.4575 25.4961 32.4575 25.4961C32.4575 25.4961 32.9617 24.9745 33.8009 24.9691C34.64 24.9636 35.3006 25.3859 35.3663 25.4983C35.432 25.6107 35.1921 24.9289 34.3149 24.7281C33.4377 24.5272 32.4363 24.9012 32.331 24.9691C32.331 24.9691 31.9651 25.2139 31.9038 25.1124V25.1129Z" fill="#211811"/>
<path fill-rule="evenodd" clip-rule="evenodd" d="M38.8743 24.9174C38.8743 24.9174 39.3921 24.355 40.5934 24.4619C41.7946 24.5689 42.4106 25.0872 42.4106 25.0872C42.4106 25.0872 41.8477 24.4842 40.8072 24.368C39.7667 24.2519 39.0388 24.6226 38.8738 24.9174H38.8743Z" fill="#693D26"/>
<path fill-rule="evenodd" clip-rule="evenodd" d="M38.7224 25.9983C38.7224 25.9983 38.4499 26.1009 38.3918 25.989C38.3337 25.8778 38.49 25.748 38.5704 25.6986C38.6507 25.6498 38.718 25.551 38.7403 25.5021C38.7625 25.4533 39.4057 24.7607 40.4821 24.8323C41.5585 24.904 42.0144 25.4305 42.0144 25.4305C42.0144 25.4305 41.4152 26.3196 38.7224 25.9983Z" fill="white"/>
<path fill-rule="evenodd" clip-rule="evenodd" d="M38.7223 25.998C38.7223 25.998 38.4498 26.1005 38.3917 25.9887C38.3439 25.8965 38.4422 25.7917 38.5231 25.7309C38.5176 25.8351 38.5583 25.9448 38.6495 25.9312C38.77 25.9133 38.7613 25.9046 38.8015 25.9225C38.8417 25.9404 39.7883 26.1233 40.8381 25.9361C41.5584 25.8074 41.858 25.5436 41.9752 25.3911C42.0013 25.4161 42.0143 25.4307 42.0143 25.4307C42.0143 25.4307 41.4156 26.3198 38.7223 25.9985V25.998Z" fill="#946349"/>
<path fill-rule="evenodd" clip-rule="evenodd" d="M38.7007 25.57C38.7186 25.5439 38.7327 25.5201 38.7408 25.5021C38.7631 25.4533 39.4063 24.7607 40.4827 24.8323C41.559 24.904 42.015 25.4305 42.015 25.4305C42.015 25.4305 41.9574 25.5157 41.7979 25.6243C40.8648 24.9594 39.7808 25.1298 39.1376 25.3871C38.9857 25.4479 38.8364 25.5097 38.7012 25.57H38.7007Z" fill="#857E72"/>
<path fill-rule="evenodd" clip-rule="evenodd" d="M39.948 24.8598C40.1114 24.8316 40.29 24.8202 40.4821 24.8327C40.5554 24.8376 40.626 24.8446 40.6944 24.8538C40.8339 24.9635 40.9234 25.1334 40.9234 25.3244C40.9234 25.655 40.6553 25.9231 40.3247 25.9231C39.9942 25.9231 39.7266 25.655 39.7266 25.3244C39.7266 25.1372 39.8134 24.9694 39.948 24.8598Z" fill="#783810"/>
<path fill-rule="evenodd" clip-rule="evenodd" d="M40.3246 25.0288C40.488 25.0288 40.6204 25.1613 40.6204 25.3241C40.6204 25.4875 40.488 25.6199 40.3246 25.6199C40.1617 25.6199 40.0293 25.4875 40.0293 25.3241C40.0293 25.1613 40.1617 25.0288 40.3246 25.0288Z" fill="#211811"/>
<path fill-rule="evenodd" clip-rule="evenodd" d="M40.3248 25.1187C40.3817 25.1187 40.4279 25.1648 40.4279 25.2212C40.4279 25.2777 40.3817 25.3238 40.3248 25.3238C40.2683 25.3238 40.2222 25.2777 40.2222 25.2212C40.2222 25.1648 40.2683 25.1187 40.3248 25.1187Z" fill="white"/>
<path fill-rule="evenodd" clip-rule="evenodd" d="M38.668 25.6118C38.668 25.6118 39.1364 25.1835 39.9153 25.0185C40.6942 24.8535 41.4883 25.2117 41.6794 25.3577C41.8705 25.5038 41.9475 25.5048 41.9475 25.5048C41.9475 25.5048 42.055 25.5765 42.296 25.4831C42.537 25.3892 42.6353 25.1482 42.6353 25.1482C42.6353 25.1482 42.4165 25.3225 42.2157 25.2378C42.1017 25.19 41.4666 24.7563 40.5412 24.7238C39.8681 24.7004 38.992 24.93 38.6685 25.6123L38.668 25.6118Z" fill="#211811"/>
<path fill-rule="evenodd" clip-rule="evenodd" d="M35.3755 24.605C35.3755 24.605 35.9846 25.1 36.0654 25.7986C36.1469 26.4966 36.041 27.1952 36.041 27.1952C36.041 27.1952 36.3336 26.375 36.2196 25.6689C36.1061 24.9627 35.6187 24.6457 35.375 24.6055L35.3755 24.605Z" fill="#946349"/>
<path fill-rule="evenodd" clip-rule="evenodd" d="M38.3392 24.4346C38.3392 24.4346 38.0472 24.7347 37.925 25.4089C37.8034 26.083 37.779 26.5781 37.779 26.5781C37.779 26.5781 37.7302 24.4753 38.3392 24.4346Z" fill="#875B43"/>
</svg>
