<svg width="85" height="212" viewBox="0 0 85 212" fill="none" xmlns="http://www.w3.org/2000/svg">
<path fill-rule="evenodd" clip-rule="evenodd" d="M32.2329 25.2075C32.2347 25.1339 32.2353 25.058 32.235 24.9787L32.2329 24.7988V22.6021H43.8802V27.3179H32.2329V25.2072V25.2075Z" fill="#A57257"/>
<path fill-rule="evenodd" clip-rule="evenodd" d="M42.9921 25.2477C42.9921 25.2477 42.9377 25.7533 41.8381 26.0642C40.7385 26.375 39.2327 26.0222 39.0917 26.0523C38.9508 26.0824 38.7305 25.9979 39.1328 25.5522C39.535 25.1065 40.1634 24.6203 41.3404 24.6285C42.5172 24.6367 43.0927 25.0867 42.9924 25.2474L42.9921 25.2477Z" fill="#693D26"/>
<path fill-rule="evenodd" clip-rule="evenodd" d="M32.4469 25.2477C32.4469 25.2477 32.4955 25.7533 33.4742 26.0642C34.4532 26.375 35.7934 26.0222 35.9192 26.0523C36.0447 26.0824 36.2406 25.9979 35.8827 25.5522C35.5245 25.1065 34.9651 24.6203 33.9175 24.6285C32.8699 24.6367 32.3579 25.0867 32.4469 25.2474V25.2477Z" fill="#693D26"/>
<path fill-rule="evenodd" clip-rule="evenodd" d="M38.604 23.7766C38.576 23.9881 38.903 24.2965 39.1196 24.2314C39.2007 24.2071 40.2805 23.6794 41.1006 23.4439C41.9207 23.2084 42.4159 23.3543 42.8221 23.525C43.2281 23.6955 43.3335 23.7523 43.3335 23.7523C43.3335 23.7523 43.4149 23.6873 43.2442 23.5411C43.0737 23.395 42.408 22.7293 41.3768 22.7536C40.3456 22.7779 38.7744 23.4761 38.6037 23.7766H38.604Z" fill="#211811"/>
<path fill-rule="evenodd" clip-rule="evenodd" d="M36.4295 23.7829C36.4556 23.9916 36.1527 24.2954 35.9525 24.2313C35.8774 24.2073 34.7727 23.7598 34.014 23.5273C33.2553 23.2949 32.9715 23.4107 32.596 23.579C32.2205 23.7473 32.2484 23.6908 32.2484 23.6908C32.2423 23.6856 32.2375 23.6799 32.2329 23.6744V23.5592C32.3684 23.2888 33.2657 22.834 33.7585 22.8464C34.7125 22.8704 36.2718 23.4863 36.4295 23.7829Z" fill="#211811"/>
<path fill-rule="evenodd" clip-rule="evenodd" d="M35.7546 24.9611C35.7546 24.9611 35.2918 24.3984 34.2187 24.5056C33.1455 24.6129 32.595 25.1309 32.595 25.1309C32.595 25.1309 33.0978 24.5278 34.0273 24.4121C34.957 24.2957 35.6072 24.6667 35.7546 24.9614V24.9611Z" fill="#693D26"/>
<path fill-rule="evenodd" clip-rule="evenodd" d="M35.8902 26.0423C35.8902 26.0423 36.1336 26.1447 36.1856 26.0331C36.2372 25.9216 36.0978 25.7922 36.0261 25.743C35.9544 25.6938 35.8942 25.5956 35.8744 25.5464C35.8547 25.4975 35.2798 24.8053 34.3185 24.8767C33.3569 24.9481 32.9497 25.4747 32.9497 25.4747C32.9497 25.4747 33.4848 26.3637 35.8905 26.0423H35.8902Z" fill="white"/>
<path fill-rule="evenodd" clip-rule="evenodd" d="M35.8902 26.0422C35.8902 26.0422 36.1336 26.1449 36.1856 26.0331C36.2339 25.9292 36.1163 25.8098 36.0416 25.7542C36.1254 25.9887 35.9231 25.9717 35.8343 25.9757C35.735 25.9802 34.9702 26.1409 34.1411 26.0069C33.4668 25.8982 33.0983 25.5591 32.9837 25.436C32.9609 25.4603 32.9497 25.4746 32.9497 25.4746C32.9497 25.4746 33.4848 26.3637 35.8905 26.0422H35.8902Z" fill="#946349"/>
<path fill-rule="evenodd" clip-rule="evenodd" d="M35.9282 25.6409C35.903 25.6053 35.8842 25.5701 35.8744 25.5464C35.8547 25.4975 35.2798 24.8053 34.3185 24.8767C33.3569 24.9481 32.9497 25.4747 32.9497 25.4747C32.9497 25.4747 32.9971 25.5534 33.1268 25.6555C33.3547 25.4838 33.8333 25.2158 34.5731 25.2435C35.1553 25.265 35.6144 25.4401 35.9285 25.6412L35.9282 25.6409Z" fill="#857E72"/>
<path fill-rule="evenodd" clip-rule="evenodd" d="M35.2193 25.0414C34.9936 24.9393 34.7153 24.8645 34.3911 24.8721C34.2331 24.9797 34.1292 25.1617 34.1292 25.3683C34.1292 25.6989 34.3947 25.9668 34.7225 25.9668C35.0501 25.9668 35.3156 25.6989 35.3156 25.3683C35.3156 25.2477 35.2804 25.1355 35.2193 25.0414Z" fill="#5C9951"/>
<path fill-rule="evenodd" clip-rule="evenodd" d="M34.7368 25.0728C34.8945 25.0728 35.0228 25.2049 35.0228 25.3681C35.0228 25.5312 34.8948 25.6637 34.7368 25.6637C34.5788 25.6637 34.4509 25.5312 34.4509 25.3681C34.4509 25.2049 34.5788 25.0728 34.7368 25.0728Z" fill="#211811"/>
<path fill-rule="evenodd" clip-rule="evenodd" d="M34.8362 25.1626C34.8909 25.1626 34.9355 25.2085 34.9355 25.2653C34.9355 25.3218 34.8912 25.368 34.8362 25.368C34.7812 25.368 34.7368 25.3218 34.7368 25.2653C34.7368 25.2085 34.7812 25.1626 34.8362 25.1626Z" fill="white"/>
<path fill-rule="evenodd" clip-rule="evenodd" d="M32.4094 25.1568C32.4094 25.1568 32.4277 25.3035 32.6434 25.433C32.8594 25.5624 32.963 25.5402 32.963 25.5402C32.963 25.5402 33.4674 25.0185 34.3066 25.0134C35.1458 25.0082 35.8063 25.4302 35.872 25.5424C35.9376 25.6548 35.6976 24.973 34.8207 24.7721C33.9438 24.571 32.9424 24.9453 32.8369 25.0134C32.8369 25.0134 32.4711 25.258 32.4094 25.1568Z" fill="#211811"/>
<path fill-rule="evenodd" clip-rule="evenodd" d="M39.3804 24.9611C39.3804 24.9611 39.8984 24.3984 41.0998 24.5056C42.3009 24.6129 42.9173 25.1309 42.9173 25.1309C42.9173 25.1309 42.3546 24.5278 41.314 24.4121C40.2733 24.2957 39.5454 24.6667 39.3804 24.9614V24.9611Z" fill="#693D26"/>
<path fill-rule="evenodd" clip-rule="evenodd" d="M39.2284 26.0423C39.2284 26.0423 38.9562 26.1447 38.8979 26.0331C38.8398 25.9216 38.9963 25.7922 39.0765 25.743C39.157 25.6938 39.2239 25.5956 39.2464 25.5464C39.2686 25.4975 39.9118 24.8053 40.988 24.8767C42.0642 24.9481 42.5202 25.4747 42.5202 25.4747C42.5202 25.4747 41.9211 26.3637 39.2284 26.0423Z" fill="white"/>
<path fill-rule="evenodd" clip-rule="evenodd" d="M39.2285 26.0421C39.2285 26.0421 38.9559 26.1448 38.8979 26.033C38.8499 25.9406 38.9483 25.8361 39.0295 25.7751C39.024 25.8793 39.0647 25.989 39.1562 25.9753C39.2768 25.9574 39.268 25.9485 39.3081 25.9665C39.3482 25.9844 40.2949 26.1673 41.3444 25.9798C42.0648 25.851 42.3644 25.5876 42.4814 25.4351C42.5075 25.4597 42.5202 25.4746 42.5202 25.4746C42.5202 25.4746 41.9214 26.3636 39.2285 26.0421Z" fill="#946349"/>
<path fill-rule="evenodd" clip-rule="evenodd" d="M39.2064 25.6139C39.2246 25.588 39.2383 25.564 39.2465 25.5464C39.2686 25.4975 39.9119 24.8053 40.9881 24.8767C42.0643 24.9481 42.5203 25.4747 42.5203 25.4747C42.5203 25.4747 42.4626 25.5601 42.3031 25.6685C41.37 25.0034 40.2859 25.1739 39.6427 25.4312C39.4908 25.492 39.3416 25.5537 39.2061 25.6145L39.2064 25.6139Z" fill="#857E72"/>
<path fill-rule="evenodd" clip-rule="evenodd" d="M40.4539 24.9033C40.6174 24.8753 40.7957 24.8635 40.9881 24.8762C41.0616 24.8811 41.1321 24.8881 41.2001 24.8972C41.3396 25.0066 41.4292 25.177 41.4292 25.3678C41.4292 25.6984 41.1613 25.9664 40.8307 25.9664C40.5001 25.9664 40.2324 25.6984 40.2324 25.3678C40.2324 25.1804 40.319 25.0126 40.4539 24.9033Z" fill="#5C9951"/>
<path fill-rule="evenodd" clip-rule="evenodd" d="M40.8305 25.0728C40.9937 25.0728 41.1262 25.2049 41.1262 25.3681C41.1262 25.5312 40.994 25.6637 40.8305 25.6637C40.6677 25.6637 40.5349 25.5312 40.5349 25.3681C40.5349 25.2049 40.6674 25.0728 40.8305 25.0728Z" fill="#211811"/>
<path fill-rule="evenodd" clip-rule="evenodd" d="M40.8307 25.1626C40.8875 25.1626 40.9337 25.2085 40.9337 25.2653C40.9337 25.3218 40.8875 25.368 40.8307 25.368C40.7739 25.368 40.728 25.3218 40.728 25.2653C40.728 25.2085 40.7739 25.1626 40.8307 25.1626Z" fill="white"/>
<path fill-rule="evenodd" clip-rule="evenodd" d="M39.1741 25.6554C39.1741 25.6554 39.6429 25.2273 40.4213 25.0623C41.2001 24.8973 41.9943 25.2555 42.1854 25.4017C42.3768 25.5478 42.4534 25.5487 42.4534 25.5487C42.4534 25.5487 42.5606 25.6204 42.8019 25.5269C43.0431 25.433 43.1413 25.192 43.1413 25.192C43.1413 25.192 42.9225 25.3661 42.7217 25.2814C42.6077 25.2334 41.9727 24.7998 41.0472 24.7673C40.3742 24.7436 39.4983 24.9736 39.1747 25.6557L39.1741 25.6554Z" fill="#211811"/>
<path fill-rule="evenodd" clip-rule="evenodd" d="M35.8813 24.6489C35.8813 24.6489 36.4902 25.1442 36.5714 25.8424C36.6525 26.5406 36.5471 27.2388 36.5471 27.2388C36.5471 27.2388 36.8393 26.4188 36.7257 25.7124C36.6121 25.0059 36.125 24.6893 35.8813 24.6489Z" fill="#946349"/>
<path fill-rule="evenodd" clip-rule="evenodd" d="M38.8451 24.478C38.8451 24.478 38.5528 24.7785 38.431 25.4524C38.3092 26.1263 38.2849 26.6216 38.2849 26.6216C38.2849 26.6216 38.2362 24.5187 38.8451 24.478Z" fill="#875B43"/>
</svg>
