<svg width="85" height="212" viewBox="0 0 85 212" fill="none" xmlns="http://www.w3.org/2000/svg">
<path fill-rule="evenodd" clip-rule="evenodd" d="M36.8604 192.138C36.8604 192.138 37.1462 192.989 37.3028 194.343C37.4594 195.698 37.4458 196.317 37.4458 196.317C37.4458 196.317 36.7651 197.325 35.3083 197.89C33.8516 198.455 33.0552 198.462 33.0552 198.462L31.6053 198.203C31.6053 198.203 31.0335 198.734 29.9307 200.361C28.828 201.988 27.2691 203.056 25.0092 203.356C22.7492 203.662 18.6241 203.567 17.6439 203.124C16.6569 202.689 15.772 201.572 15.7652 201.218C15.7583 200.864 15.4044 200.014 16.6705 198.856C17.9366 197.699 24.1719 194.432 25.4925 192.131C26.8131 189.83 35.9958 189.721 36.8604 192.131V192.138Z" fill="#424852"/>
<path fill-rule="evenodd" clip-rule="evenodd" d="M36.4179 195.344C36.4179 195.344 34.5391 196.147 33.2049 196.923C31.8707 197.693 31.367 198.04 30.4753 198.952C29.5903 199.871 28.5489 201.729 26.4931 202.403C24.4374 203.077 19.1074 203.234 18.0932 202.798C17.0789 202.362 16.2825 201.321 16.2825 201.321C16.2825 201.321 17.6439 202.669 19.3252 202.703C21.0066 202.737 24.9887 202.471 26.214 202.083C27.4393 201.695 28.7122 200.865 30.1758 198.503C31.6393 196.141 35.5125 195.473 36.4043 195.351L36.4179 195.344ZM23.0215 200.708C23.0215 200.708 21.2108 200.817 19.1483 200.211C17.0857 199.605 17.4124 198.7 17.4124 198.7C17.4124 198.7 16.1736 200.225 18.4471 200.933C20.7207 201.641 23.0215 200.701 23.0215 200.701V200.708ZM26.9084 193.738C26.9084 193.738 26.4795 194.153 26.7518 194.561C27.0309 194.97 27.7456 197.563 27.7456 197.563C27.7456 197.563 26.745 195.548 26.3774 194.908C26.003 194.262 25.9554 193.921 26.0234 193.704C26.0915 193.486 26.1323 193.363 26.1323 193.363C26.1323 193.363 26.5884 193.302 26.9084 193.744V193.738Z" fill="#58606D"/>
<path fill-rule="evenodd" clip-rule="evenodd" d="M60.8009 191.082C60.8009 191.082 63.0473 195.589 63.2991 196.378C63.551 197.161 63.6327 199.87 63.6327 199.87C63.6327 199.87 63.8369 203.573 59.8411 203.812C55.8454 204.05 54.164 201.729 54.0483 199.795C53.9326 197.855 53.7079 195.214 53.1021 193.941C52.4963 192.668 52.4963 192.668 52.4963 192.668C52.4963 192.668 52.0538 190.299 52.5303 189.401C53.0068 188.502 59.8479 190.299 60.8077 191.089L60.8009 191.082Z" fill="#424852"/>
<path fill-rule="evenodd" clip-rule="evenodd" d="M62.6796 199.754C62.6796 199.754 62.421 202.15 59.596 202.375C56.7711 202.6 55.4505 200.53 55.2803 199.714C55.1101 198.897 55.7023 201.197 58.3639 201.334C61.0187 201.47 62.2031 200.483 62.6796 199.754ZM58.4456 192.627C58.4456 192.627 59.0923 194.207 59.7253 194.669C60.3584 195.132 61.7675 195.459 61.7675 195.459C61.7675 195.459 59.8615 194.724 59.5756 193.968C59.2897 193.213 59.0787 192.634 59.0787 192.634C59.0787 192.634 58.8608 192.13 58.4456 192.627ZM56.1516 192.791C56.1516 192.791 56.5669 193.866 56.4035 194.547C56.2469 195.228 55.4777 196.14 55.4777 196.14C55.4777 196.14 56.7575 195.003 56.8868 194.234C57.0161 193.465 56.7438 192.852 56.7438 192.852C56.7438 192.852 56.4852 192.641 56.1516 192.784V192.791Z" fill="#58606D"/>
<path fill-rule="evenodd" clip-rule="evenodd" d="M59.351 86.3411C59.351 86.3411 64.327 95.0474 63.6939 104.462C63.0609 113.883 61.1072 137.667 61.1072 137.667L60.447 182.934L60.7941 191.048C60.7941 191.048 56.9481 192.089 54.9604 192.164C52.9728 192.239 52.1423 191.987 52.1423 191.987C52.1423 191.987 50.9374 188.829 51.0395 187.651C51.1417 186.474 51.2982 181.28 51.094 180.259C50.883 179.231 46.9553 145.393 47.0846 141.492C47.214 137.585 46.9281 136.047 46.8464 135.441C46.7647 134.835 44.3618 115.414 44.3618 115.414C44.3618 115.414 39.6989 146.427 40.3864 147.905C41.0739 149.382 39.7466 171.845 38.0652 179.993C36.3839 188.135 36.7446 188.169 36.7446 188.169L37.0646 192.893C37.0646 192.893 34.3553 194.05 30.8293 193.621C27.31 193.192 25.7512 191.633 25.7512 191.633C25.7512 191.633 27.1875 189.557 27.2079 187.488C27.2283 185.418 26.4047 144.399 26.2481 142.336C26.0983 140.274 24.2332 110.186 23.9473 104.094C23.6614 97.9949 27.5142 85.9531 27.5142 85.9531C27.5142 85.9531 51.8496 86.3888 59.3442 86.3411H59.351Z" fill="#23314B"/>
<path fill-rule="evenodd" clip-rule="evenodd" d="M41.0877 95.2854C41.0877 95.2854 40.9583 106.51 41.0468 107.742C41.1353 108.974 43.7833 110.826 43.7833 110.826C43.7833 110.826 41.8433 108.137 41.9318 107.477C42.0202 106.817 42.1972 95.1969 42.1972 95.1969C42.1972 95.1969 41.6663 95.1084 41.0945 95.2854H41.0877Z" fill="#192233"/>
<path d="M16.4528 103.801C16.4528 103.801 18.2158 105.305 18.1818 107.96C18.175 108.641 17.6713 109.934 17.4739 110.581C17.365 110.948 17.0927 111.677 17.0723 112.058C17.0382 112.643 17.3309 113.8 17.2969 114.386C17.256 115.114 16.7455 116.966 16.0172 117.013C15.2956 117.061 14.7783 115.148 14.7238 114.427C14.6762 113.773 15.4454 112.221 14.928 111.82C14.751 111.683 14.3562 111.949 14.1656 112.071C14.0091 112.174 13.6619 112.398 13.5938 112.575C13.4985 112.807 13.3964 113.263 13.3147 113.46C13.2807 113.542 13.0084 114.018 13.0833 114.311C13.2331 114.91 13.4849 116.911 13.4849 116.911C13.4849 116.911 14.4243 117.395 14.8395 117.837C15.0301 118.048 15.9899 118.368 16.2282 118.518C16.5753 118.742 17.1063 119.525 16.8476 119.845C16.4868 120.301 14.7578 119.9 14.152 119.532C13.3011 119.015 11.7899 118.422 11.4428 117.694C11.116 117 10.871 114.747 10.6464 114.1C10.4558 113.569 10.3809 113.385 10.2175 112.793C10.0473 112.167 10.6464 109.866 11.1569 107.987C11.5721 106.456 12.634 103.91 12.634 103.91L16.4596 103.808L16.4528 103.801Z" fill="#825740"/>
<path d="M17.1064 115.387C17.1949 115.543 17.3174 115.768 17.3719 115.863C17.5285 116.136 18.0254 116.633 17.9981 116.939C17.9845 117.075 17.6374 117.354 17.6374 117.354C17.6374 117.354 18.5767 118.273 18.5699 118.681C18.5699 118.811 18.2568 119.104 18.2568 119.104C18.2568 119.104 18.2568 119.784 18.0934 119.9C17.8756 120.057 17.263 119.954 16.8341 119.852L16.8409 119.839C17.0996 119.512 16.5687 118.729 16.2215 118.511C15.9901 118.362 15.0303 118.042 14.8328 117.831C14.5061 117.477 13.7233 117.089 13.4714 116.952V116.857C13.4306 116.537 13.2128 114.849 13.0766 114.311C13.0085 114.019 13.2808 113.542 13.3081 113.46C13.3829 113.263 13.4918 112.814 13.5871 112.576C13.6552 112.405 14.0092 112.174 14.1589 112.072C14.3427 111.949 14.7444 111.684 14.9213 111.82C15.4387 112.222 14.6695 113.774 14.7171 114.427C14.7716 115.149 15.2889 117.061 16.0105 117.014C16.4938 116.98 16.8818 116.156 17.0996 115.387H17.1064ZM12.6205 103.896C12.6205 103.896 12.3891 104.482 12.3006 104.693C12.2053 104.924 12.0283 105.394 12.0283 105.394C12.0283 105.394 14.0092 105.278 14.6967 105.278C16.2623 105.278 17.828 105.905 17.828 105.905C17.828 105.905 17.6306 105.38 17.3855 104.952C17.1677 104.57 16.7048 103.896 16.7048 103.896L14.5401 103.658L12.6273 103.903L12.6205 103.896Z" fill="#5F3722"/>
<path d="M12.2528 102.175L12.1643 104.346C12.1643 104.346 14.2677 104.292 14.9961 104.36C17.4602 104.578 18.1954 104.959 18.1954 104.959L18.6515 102.175L12.2528 102.168V102.175Z" fill="#C4C2CC"/>
<path d="M36.1389 28.3589C42.0338 28.3589 42.735 27.7871 48.7524 27.7871C48.6095 28.992 48.7388 35.1115 49.9845 36.5751L49.0656 43.8859L46.8669 59.1202L35.3833 48.8415L34.5732 39.4477C37.0034 37.4055 36.452 30.4215 36.1321 28.3657L36.1389 28.3589Z" fill="#825740"/>
<path d="M36.1388 28.3589C42.0338 28.3589 42.7349 27.7871 48.7524 27.7871C48.7048 28.216 48.6843 29.2574 48.7388 30.4963C48.0513 31.5582 46.7579 32.9673 44.3482 34.7031C41.4212 36.8133 38.4941 35.9624 36.3499 34.4172C36.5405 32.0007 36.3022 29.4685 36.132 28.3657L36.1388 28.3589ZM49.3242 35.0639C49.5012 35.7242 49.719 36.2619 49.9845 36.5751L49.0655 43.8859L47.6428 53.7222C46.9689 55.3082 46.2065 56.7241 45.3829 57.7928L35.7032 49.1274C35.5602 48.7053 35.4241 48.2765 35.2948 47.8544L34.5664 39.4477C35.533 38.6376 36.0299 37.038 36.2546 35.2817C36.2546 35.2817 37.0646 39.6451 38.0584 42.2045C39.0523 44.764 39.6241 46.6155 39.4675 47.4324C39.311 48.2492 39.5356 48.7121 39.9304 49.3928C40.3252 50.0735 41.8908 52.3471 41.9793 51.9251C42.0678 51.503 42.3129 49.2363 43.4156 47.6911C44.5184 46.1459 45.7981 45.0908 45.3352 44.1854C44.8724 43.2801 44.9608 42.6606 45.8866 41.2107C46.683 39.9582 48.7524 36.929 49.3174 35.0639H49.3242ZM42.1495 37.2149C42.1495 37.2149 42.0202 38.2496 42.3265 38.9099C42.6328 39.5702 43.1229 39.2435 43.1229 39.2435C43.1229 39.2435 42.2857 38.8078 42.1495 37.2149Z" fill="#5F3722"/>
<path d="M32.3064 90.2483C42.7757 93.2843 50.495 93.0324 58.2959 88.4172C56.703 84.5916 55.3484 81.331 53.7624 77.5054C48.7319 63.3671 50.8013 44.3344 51.4275 37.6907C50.3997 36.479 50.1478 35.4852 50.1478 35.4852C50.1478 35.4852 49.6917 35.104 49.4467 35.4648C48.9906 38.2353 45.4237 41.7477 45.3624 42.551C45.1037 43.6197 46.1588 43.5788 46.0431 44.1983C45.8185 45.3963 44.2324 47.3023 43.6947 48.3847C43.0344 49.7052 42.4966 54.5179 42.4966 54.5179C42.4966 54.5179 40.543 51.6657 40.0869 51.0054C38.1129 48.0307 39.0182 48.4323 38.991 46.819C38.9842 46.3017 38.9774 45.9681 38.5485 44.4502C38.1469 43.0207 36.731 39.7465 36.2477 35.4648C36.2273 35.2742 35.7712 35.5533 35.6555 35.7847C34.7774 37.7656 34.5868 39.4333 33.6338 42.3059C31.3874 53.3811 41.0263 77.1923 32.3132 90.2415L32.3064 90.2483Z" fill="#F2F1F6"/>
<path d="M50.5087 36.3845C50.5087 36.3845 49.474 40.6934 48.5686 45.4244C48.4733 44.7573 48.1602 43.6341 48.133 43.2733C48.0105 41.6737 47.2549 41.3741 46.7375 41.3605C46.0909 41.3469 45.4306 42.0617 45.3149 42.6947C45.2672 42.9534 45.3421 43.2052 45.485 43.4231C45.3557 43.1168 45.3625 42.7628 45.8798 42.0753C46.3972 41.3946 47.6157 42.1774 47.7722 42.8581C47.9696 43.7294 48.4053 45.0568 48.5482 45.5129C48.1126 47.8137 47.7041 50.2166 47.4659 52.2587C46.7988 57.9698 47.357 69.7257 48.8409 75.1918C50.0934 79.7934 54.5657 84.994 54.9945 89.1328C49.8552 92.2844 41.8568 92.8154 36.2001 89.9836C36.5065 86.5256 38.0449 76.9344 38.0449 72.7753C38.0449 67.3092 36.0164 53.3751 35.3901 48.8347C35.3152 48.3106 35.2608 47.7388 35.2199 47.1329C35.5126 46.9219 35.8326 46.6088 36.0844 46.1255C36.6766 44.9819 37.9155 45.7035 38.2695 46.391C38.6235 47.0717 38.7324 47.6231 38.7324 47.6231C38.7324 47.6231 39.2361 45.9485 38.0721 44.7777C36.9013 43.6069 36.2206 44.9343 35.6011 46.1459C35.4582 46.4182 35.3288 46.636 35.2063 46.813C34.934 42.2727 35.4105 36.3301 35.4105 36.3301C27.984 49.1615 39.2429 78.7179 31.5781 90.1402C43.8241 93.959 50.107 92.5976 58.4594 88.84C46.1249 59.658 53.7965 54.7773 51.4276 37.6779C51.1213 37.2422 50.8218 36.8066 50.5155 36.3709L50.5087 36.3845Z" fill="#C4C2CC"/>
<path d="M64.8307 97.6955C64.8307 97.6955 64.3883 98.4919 64.3134 98.7029C64.0683 99.3292 63.3468 101.691 63.3468 101.691L59.2217 94.0537L60.4333 93.1279L64.8375 97.6887L64.8307 97.6955Z" fill="#5F3722"/>
<path d="M59.5146 93.8223L59.0381 95.1565C59.0381 95.1565 61.2232 96.3273 61.9515 96.7153C62.9317 97.219 64.756 98.0018 64.756 98.0018C64.756 98.0018 65.076 97.1986 65.144 96.9127C65.1917 96.7153 65.498 95.7214 65.498 95.7214L59.5146 93.8223Z" fill="#C4C2CC"/>
<path d="M22.375 108.24C22.375 108.24 26.3299 111.997 27.8547 110.956C31.1834 108.689 34.2466 97.2941 35.043 88.8125C33.3616 94.2446 30.1283 105.483 28.2223 107.811C26.3163 110.139 22.3682 108.24 22.3682 108.24H22.375Z" fill="#192233"/>
<path d="M35.397 36.3701C35.397 36.3701 32.0139 39.2767 28.8826 40.1617C19.4684 42.8301 18.0117 44.9675 17.5556 54.3409C17.4331 56.8935 17.3174 59.0786 17.154 61.1139C17.0383 61.8423 16.9225 62.5162 16.8477 63.1016C16.7183 64.1159 16.446 66.1239 16.2486 67.1178C15.9083 68.8264 15.602 70.3988 15.3161 71.8828C13.7709 77.8458 13.3012 80.9975 13.0221 85.5854C12.7362 90.2347 12.1235 102.535 12.1235 102.535C13.764 102.501 17.2084 102.692 18.6175 102.991C18.6175 102.991 20.9455 91.1741 21.6807 87.6412C22.2933 84.7005 24.104 76.9472 24.104 76.9472L26.4253 69.0306C26.4253 69.0306 26.3776 72.7949 26.4253 73.3735C26.5478 74.7758 26.3572 77.6007 26.0577 78.9757C25.8262 80.0581 25.3293 82.9715 24.9958 84.0266C24.281 86.2934 23.505 90.7861 23.1102 93.1277C22.4907 96.8308 21.6739 107.525 21.6739 107.525C21.6739 107.525 25.6288 111.282 27.1536 110.241C30.5095 107.954 32.7014 99.2201 35.2745 87.8046C36.4181 82.7401 36.8333 72.2571 36.5338 67.4854C36.2615 63.1492 34.6891 54.3204 34.3283 50.3042C34.0356 47.0505 35.4038 36.3701 35.4038 36.3701H35.397Z" fill="#23314B"/>
<path d="M50.5086 36.3838C50.5086 36.3838 48.2486 47.1186 48.1329 50.9033C48.0648 53.2586 47.9491 57.9691 48.0648 60.3243C48.2214 63.7211 48.3644 71.2089 49.2697 74.4831C49.9504 76.9541 52.013 80.6367 53.8577 82.4746C57.4586 86.0756 58.3231 94.3394 58.3231 94.3394C61.2706 95.6804 63.5782 96.7083 65.2732 97.423C65.2732 97.423 67.0362 92.6376 69.5344 87.6344C71.7399 83.2166 74.3198 75.123 74.4832 72.9038C74.5308 72.2436 72.5908 66.2669 70.6372 60.4605C68.4929 54.1026 67.6829 47.2071 66.1105 45.0084C64.7558 43.116 54.1436 38.8275 50.5154 36.377L50.5086 36.3838ZM59.2081 75.756C58.6703 71.6922 60.5899 62.2303 60.5899 62.2303C60.5899 62.2303 61.999 66.369 63.1698 69.4935C64.4768 72.9855 64.8784 74.5307 64.8307 74.9528C64.7082 76.0691 63.7007 79.2549 62.6116 82.5019C61.4476 81.3378 59.4327 77.3965 59.2149 75.756H59.2081Z" fill="#23314B"/>
<path d="M30.7069 39.9717C30.2985 40.843 26.1666 47.9156 26.1257 48.5963C26.3708 49.5901 29.0664 55.2196 30.2236 57.6974C29.223 54.3755 27.7799 50.0258 27.9296 48.6848C28.0726 47.4186 29.9513 42.2521 30.7137 39.9717H30.7069Z" fill="#35496E"/>
<path d="M64.824 74.96C63.5919 81.2429 60.5151 86.9813 59.1128 94.5916C61.0869 89.6905 65.1711 79.6637 64.824 74.96Z" fill="#182234"/>
<path fill-rule="evenodd" clip-rule="evenodd" d="M57.2749 48.235L53.2451 49.2016L57.2749 49.1744C56.6078 51.5637 52.7142 65.7292 50.7129 73.5642C52.9728 66.7435 58.2415 48.6706 58.2415 48.6706C58.2415 48.6706 57.2069 43.0276 53.3132 38.4668C55.5595 41.5368 56.6146 44.5455 57.2681 48.2282L57.2749 48.235Z" fill="#182234"/>
<path fill-rule="evenodd" clip-rule="evenodd" d="M26.0711 48.2357L30.1009 49.2023L26.0711 49.1751C26.7382 51.5644 33.4159 64.1303 35.4104 71.9652C33.1505 65.1445 25.0977 48.6714 25.0977 48.6714C25.0977 48.6714 26.3434 44.9751 30.6046 40.0195C28.3583 43.0895 26.7926 45.7035 26.0711 48.2289V48.2357Z" fill="#182234"/>
<path d="M30.0396 40.1211C20.1217 43.722 18.9645 44.2122 18.4675 54.3615C18.345 56.9142 18.2293 59.0925 18.0659 61.1278C17.9502 61.8562 17.8345 62.5301 17.7596 63.1155C17.6303 64.1297 17.358 66.1378 17.1606 67.1317C16.8202 68.8402 16.5139 70.4059 16.228 71.8898C16.0374 72.625 15.8604 73.3193 15.7039 73.9728C16.7113 75.5793 19.8085 55.7842 20.2238 51.0056C20.7003 45.5055 24.5599 42.5989 28.1064 41.1217C28.8824 40.795 29.5223 40.4546 30.0464 40.1211H30.0396Z" fill="#35496E"/>
<path fill-rule="evenodd" clip-rule="evenodd" d="M34.0899 92.9511C39.6309 95.8918 48.7456 94.6597 57.9896 91.5488L58.2619 92.1683C51.3663 95.0545 40.7472 97.117 33.8721 93.8564L34.0899 92.9579V92.9511Z" fill="#192233"/>
<path d="M70.0451 60.2903C68.6496 54.3885 66.8117 46.4106 65.743 45.0083C64.824 43.8035 57.874 40.7198 54.5181 39.1338C54.5181 39.1338 63.095 44.1166 64.4088 45.3214C65.7294 46.5263 67.8328 53.2109 70.0451 60.2903Z" fill="#35496E"/>
<path fill-rule="evenodd" clip-rule="evenodd" d="M50.0321 20.7206C50.0321 20.7206 51.0668 20.4551 51.2574 20.8635C51.448 21.272 51.6998 23.0826 51.4548 24.1786C51.2097 25.2813 50.1955 26.8265 49.7326 26.8265C49.2697 26.8265 49.2493 26.67 49.2493 26.67C48.9634 30.727 47.7381 31.1763 44.4639 34.2327C43.8104 34.8385 40.8221 34.8181 40.1959 34.2327C36.9216 31.1763 35.6283 30.7951 35.4105 26.67C35.4105 26.67 35.39 26.8265 34.9272 26.8265C34.4643 26.8265 33.45 25.2813 33.205 24.1786C32.9599 23.0758 33.2186 21.2651 33.4024 20.8635C33.593 20.4551 34.6276 20.7206 34.6276 20.7206C33.8176 15.6697 35.0293 9.57735 42.3741 9.60458C49.6781 9.63181 50.9443 16.5614 50.0321 20.7206Z" fill="#825740"/>
<path fill-rule="evenodd" clip-rule="evenodd" d="M34.7979 23.7091C34.7979 23.7091 34.2669 23.4981 34.3963 22.8378C34.5256 22.1775 34.5664 21.7214 34.2465 21.6261C33.9266 21.524 33.5658 22.7084 33.6475 23.6546C33.7292 24.6008 34.4779 25.7172 34.4779 25.7172C34.4779 25.7172 33.5386 24.6893 33.5181 23.2122C33.4977 21.735 33.7768 21.1973 34.158 21.1973C34.5392 21.1973 34.7298 21.7282 34.7298 21.8235C34.7298 21.9256 34.6073 22.7969 34.7979 23.7091ZM49.6374 23.7091C49.6374 23.7091 50.2636 23.4981 50.1138 22.8378C49.9573 22.1775 49.9164 21.7214 50.2908 21.6261C50.6652 21.524 51.0941 22.7084 50.9988 23.6546C50.8967 24.6008 50.0186 25.7172 50.0186 25.7172C50.0186 25.7172 51.1349 24.6893 51.1553 23.2122C51.1758 21.735 50.849 21.1973 50.3929 21.1973C49.9437 21.1973 49.719 21.7282 49.719 21.8235C49.719 21.9256 49.862 22.7969 49.6442 23.7091H49.6374Z" fill="#5F3722"/>
<path fill-rule="evenodd" clip-rule="evenodd" d="M35.4172 26.7104V26.6763C35.4172 26.6763 35.3968 26.8329 34.9339 26.8329C34.8522 26.8329 34.7569 26.7853 34.6548 26.7104C34.716 26.7444 34.8658 26.7921 35.07 26.4789C35.3355 26.0705 35.5261 24.43 35.5057 25.0971C35.4989 25.4238 35.4716 26.0977 35.4172 26.7172V26.7104ZM49.256 26.7104V26.6763C49.256 26.6763 49.2764 26.8329 49.7393 26.8329C49.821 26.8329 49.9163 26.7853 50.0184 26.7104C49.9571 26.7444 49.8074 26.7921 49.6032 26.4789C49.3377 26.0705 49.1471 24.43 49.1675 25.0971C49.1743 25.4238 49.2016 26.0977 49.256 26.7172V26.7104Z" fill="#5F3722"/>
<path fill-rule="evenodd" clip-rule="evenodd" d="M44.6545 20.877C44.6545 20.877 43.9261 21.4693 43.8104 22.0819C43.6947 22.6877 44.389 23.103 44.8655 23.2731C45.342 23.4433 44.0487 23.0009 44.0963 22.2589C44.144 21.5169 45.3216 20.7273 45.4713 20.6184C45.6211 20.5095 45.1786 20.4005 44.6545 20.877Z" fill="#5F3722"/>
<path fill-rule="evenodd" clip-rule="evenodd" d="M40.8017 21.3125C40.8017 21.3125 41.394 21.9183 41.3055 22.5446C41.2102 23.164 40.2231 23.5997 40.2231 23.5997C40.2231 23.5997 41.5165 22.9666 40.8086 21.3125H40.8017Z" fill="#5F3722"/>
<path fill-rule="evenodd" clip-rule="evenodd" d="M35.887 20.7475C35.887 20.7475 38.1469 20.2847 39.379 20.4412C40.6111 20.5978 40.9651 20.9518 41.1284 20.7884C41.2918 20.625 40.7336 20.1145 39.6377 19.8354C38.0108 19.4134 37.3573 19.6584 36.0639 20.3868C35.8189 20.5229 35.7372 20.7612 35.8938 20.7544L35.887 20.7475Z" fill="#191716"/>
<path fill-rule="evenodd" clip-rule="evenodd" d="M36.5063 21.8024C36.5063 21.8024 37.4525 21.1422 38.637 21.1626C39.8214 21.183 40.2707 21.4961 40.2434 21.5914C40.2162 21.6799 39.9984 21.5029 39.5491 21.3464C39.1067 21.1898 38.5689 21.1217 37.9971 21.2579C37.4321 21.394 36.7514 21.8705 36.5063 21.8092V21.8024Z" fill="#5F3722"/>
<path fill-rule="evenodd" clip-rule="evenodd" d="M37.3164 21.7616C37.3164 21.7616 38.0039 21.1966 38.6778 21.2375C39.5763 21.2919 40.3047 21.9931 40.2639 21.9931C40.2639 21.9931 40.6178 22.2721 40.5838 22.3674C40.5293 22.5444 40.1277 22.2721 40.1277 22.2721C40.1073 22.2721 39.2156 22.4968 38.4191 22.4151C37.6227 22.3334 37.3572 21.8297 37.3096 21.7616H37.3164Z" fill="white"/>
<path fill-rule="evenodd" clip-rule="evenodd" d="M37.3777 22.4902C37.3777 22.4902 37.6568 22.8987 38.5893 22.8919C39.5219 22.885 39.9235 22.5583 39.9508 22.64C39.9576 22.674 39.8691 22.7829 39.5219 22.8578C38.8957 22.994 37.7793 23.0484 37.3777 22.4902Z" fill="#452615"/>
<path fill-rule="evenodd" clip-rule="evenodd" d="M37.3164 21.7614C37.3164 21.7614 37.3504 21.7342 37.4117 21.6934C37.5002 21.8908 37.7929 22.3468 38.6097 22.3945C39.4538 22.4421 40.0324 22.1767 40.257 21.9793C40.2638 21.9861 40.2639 21.9929 40.2639 21.9929C40.2639 21.9929 40.6178 22.272 40.5838 22.3673C40.5293 22.5442 40.1277 22.272 40.1277 22.272C40.1073 22.272 39.2156 22.4966 38.4191 22.4149C37.6227 22.3332 37.3572 21.8295 37.3096 21.7614H37.3164Z" fill="#D4926F"/>
<path fill-rule="evenodd" clip-rule="evenodd" d="M37.3164 21.7616C37.3164 21.7616 38.0039 21.1966 38.6778 21.2375C39.5151 21.2851 40.2026 21.9046 40.2571 21.9862C39.8486 21.7276 39.2496 21.4485 38.6778 21.4417C37.9563 21.4349 37.541 21.7412 37.3913 21.8841C37.3504 21.8297 37.3232 21.7888 37.3164 21.7684V21.7616Z" fill="#ADA89F"/>
<path fill-rule="evenodd" clip-rule="evenodd" d="M38.0924 21.3265C38.2762 21.2652 38.4804 21.2244 38.6778 21.2312C38.8888 21.2448 39.0862 21.2925 39.27 21.3537C39.3177 21.449 39.3449 21.5579 39.3381 21.6737C39.3245 22.0413 39.0182 22.3272 38.6506 22.3135C38.283 22.2999 37.9971 21.9936 38.0107 21.626C38.0175 21.5171 38.0448 21.415 38.0992 21.3265H38.0924Z" fill="#625D54"/>
<path d="M38.6619 21.9675C38.8341 21.9741 38.979 21.8398 38.9856 21.6677C38.9922 21.4955 38.8579 21.3506 38.6858 21.344C38.5136 21.3374 38.3687 21.4716 38.3621 21.6438C38.3555 21.8159 38.4897 21.9609 38.6619 21.9675Z" fill="#191716"/>
<path d="M38.4794 21.7242C38.5719 21.7278 38.6498 21.6557 38.6533 21.5631C38.6568 21.4706 38.5847 21.3928 38.4922 21.3892C38.3997 21.3857 38.3218 21.4578 38.3183 21.5503C38.3147 21.6428 38.3869 21.7207 38.4794 21.7242Z" fill="white"/>
<path fill-rule="evenodd" clip-rule="evenodd" d="M36.697 21.8771C36.697 21.8771 37.0714 21.918 37.2076 21.8703C37.3505 21.8227 37.9836 21.2917 38.6711 21.2917C39.3586 21.2917 40.0461 21.8091 40.1346 21.8635C40.2231 21.918 39.9576 21.6525 39.6921 21.4891C39.4267 21.3326 38.8821 21.0671 38.1197 21.2577C37.3573 21.4551 37.1803 21.8091 36.697 21.8703V21.8771Z" fill="#191716"/>
<path fill-rule="evenodd" clip-rule="evenodd" d="M49.0927 20.7475C49.0927 20.7475 46.8328 20.2847 45.6007 20.4412C44.3686 20.5978 44.0146 20.9518 43.8513 20.7884C43.6879 20.625 44.2461 20.1145 45.342 19.8354C46.9689 19.4134 47.6224 19.6584 48.9157 20.3868C49.1608 20.5229 49.2425 20.7612 49.0859 20.7544L49.0927 20.7475Z" fill="#191716"/>
<path fill-rule="evenodd" clip-rule="evenodd" d="M48.4802 21.8024C48.4802 21.8024 47.534 21.1422 46.3496 21.1626C45.1651 21.183 44.7159 21.4961 44.7431 21.5914C44.7703 21.6799 44.9882 21.5029 45.4374 21.3464C45.8799 21.1898 46.4176 21.1217 46.9894 21.2579C47.5544 21.394 48.2351 21.8705 48.4802 21.8092V21.8024Z" fill="#5F3722"/>
<path fill-rule="evenodd" clip-rule="evenodd" d="M47.6701 21.7616C47.6701 21.7616 46.9826 21.1966 46.3087 21.2375C45.4101 21.2919 44.6818 21.9931 44.7226 21.9931C44.7226 21.9931 44.3687 22.2721 44.4027 22.3674C44.4572 22.5444 44.8588 22.2721 44.8588 22.2721C44.8792 22.2721 45.7709 22.4968 46.5674 22.4151C47.3638 22.3334 47.6293 21.8297 47.6769 21.7616H47.6701Z" fill="white"/>
<path fill-rule="evenodd" clip-rule="evenodd" d="M47.6088 22.4902C47.6088 22.4902 47.3298 22.8987 46.3972 22.8919C45.4646 22.885 45.063 22.5583 45.0358 22.64C45.029 22.674 45.1174 22.7829 45.4646 22.8578C46.0909 22.994 47.2072 23.0484 47.6088 22.4902Z" fill="#5F3722"/>
<path fill-rule="evenodd" clip-rule="evenodd" d="M47.6701 21.7614C47.6701 21.7614 47.6361 21.7342 47.5748 21.6934C47.4863 21.8908 47.1936 22.3468 46.3768 22.3945C45.5327 22.4421 44.9541 22.1767 44.7294 21.9793C44.7226 21.9861 44.7226 21.9929 44.7226 21.9929C44.7226 21.9929 44.3687 22.272 44.4027 22.3673C44.4572 22.5442 44.8588 22.272 44.8588 22.272C44.8792 22.272 45.7709 22.4966 46.5674 22.4149C47.3638 22.3332 47.6293 21.8295 47.6769 21.7614H47.6701Z" fill="#D4926F"/>
<path fill-rule="evenodd" clip-rule="evenodd" d="M47.6702 21.7616C47.6702 21.7616 46.9826 21.1966 46.3087 21.2375C45.4715 21.2851 44.7839 21.9046 44.7295 21.9862C45.1379 21.7276 45.7369 21.4485 46.3087 21.4417C47.0303 21.4349 47.4455 21.7412 47.5953 21.8841C47.6361 21.8297 47.6634 21.7888 47.6702 21.7684V21.7616Z" fill="#ADA89F"/>
<path fill-rule="evenodd" clip-rule="evenodd" d="M46.8871 21.3265C46.7033 21.2652 46.4991 21.2244 46.3017 21.2312C46.0907 21.2448 45.8933 21.2925 45.7095 21.3537C45.6618 21.449 45.6346 21.5579 45.6414 21.6737C45.655 22.0413 45.9613 22.3272 46.3289 22.3135C46.6965 22.2999 46.9824 21.9936 46.9688 21.626C46.962 21.5171 46.9348 21.415 46.8803 21.3265H46.8871Z" fill="#625D54"/>
<path d="M46.3225 21.9675C46.1503 21.9741 46.0054 21.8398 45.9988 21.6677C45.9922 21.4955 46.1264 21.3506 46.2986 21.344C46.4708 21.3374 46.6157 21.4716 46.6223 21.6438C46.6289 21.8159 46.4947 21.9609 46.3225 21.9675Z" fill="#191716"/>
<path d="M46.1124 21.7242C46.0199 21.7278 45.942 21.6557 45.9385 21.5631C45.935 21.4706 46.0071 21.3928 46.0996 21.3892C46.1921 21.3857 46.27 21.4578 46.2735 21.5503C46.277 21.6428 46.2049 21.7207 46.1124 21.7242Z" fill="white"/>
<path fill-rule="evenodd" clip-rule="evenodd" d="M48.2826 21.8771C48.2826 21.8771 47.9082 21.918 47.772 21.8703C47.6291 21.8227 46.996 21.2917 46.3085 21.2917C45.621 21.2917 44.9335 21.8091 44.845 21.8635C44.7565 21.918 45.022 21.6525 45.2875 21.4891C45.5529 21.3326 46.0975 21.0671 46.8599 21.2577C47.6223 21.4551 47.7993 21.8091 48.2826 21.8703V21.8771Z" fill="#191716"/>
<path d="M41.9792 25.88C42.1747 25.88 42.3332 25.7307 42.3332 25.5464C42.3332 25.3622 42.1747 25.2129 41.9792 25.2129C41.7837 25.2129 41.6252 25.3622 41.6252 25.5464C41.6252 25.7307 41.7837 25.88 41.9792 25.88Z" fill="#8F6751"/>
<path fill-rule="evenodd" clip-rule="evenodd" d="M40.9378 26.9222C40.9378 26.9222 40.1754 27.0311 40.0529 26.4797C39.9304 25.9284 40.2231 25.5676 40.5907 25.4246C40.9514 25.2885 41.0059 25.0843 40.8357 25.0503C40.6655 25.0094 40.1482 25.343 40.0189 25.8195C39.8963 26.296 40.0189 26.6772 40.298 26.8541C40.5839 27.0311 40.8902 27.0107 40.9582 26.9903C41.0263 26.9699 41.0059 26.9154 40.9378 26.9222Z" fill="#452615"/>
<path fill-rule="evenodd" clip-rule="evenodd" d="M41.6661 26.6219C41.6661 26.6219 41.3938 26.2476 40.9854 26.2952C40.5769 26.3429 40.6518 26.6288 40.8969 26.6288C41.1419 26.6288 41.4142 26.5403 41.6593 26.6288L41.6661 26.6219Z" fill="#241714"/>
<path fill-rule="evenodd" clip-rule="evenodd" d="M44.1371 26.9222C44.1371 26.9222 44.8995 27.0311 45.022 26.4797C45.1446 25.9284 44.8518 25.5676 44.4843 25.4246C44.1235 25.2885 44.069 25.0843 44.2392 25.0503C44.4094 25.0094 44.9267 25.343 45.0561 25.8195C45.1786 26.296 45.0561 26.6772 44.777 26.8541C44.4911 27.0311 44.1848 27.0107 44.1167 26.9903C44.0486 26.9699 44.069 26.9154 44.1371 26.9222Z" fill="#5F3722"/>
<path fill-rule="evenodd" clip-rule="evenodd" d="M43.4087 26.6219C43.4087 26.6219 43.681 26.2476 44.0894 26.2952C44.4978 26.3429 44.4229 26.6288 44.1779 26.6288C43.9328 26.6288 43.6606 26.5403 43.4155 26.6288L43.4087 26.6219Z" fill="#241714"/>
<path fill-rule="evenodd" clip-rule="evenodd" d="M39.3653 29.6448C39.1952 29.7061 38.9501 29.638 39.0046 29.4747C39.059 29.3113 39.3109 29.4611 39.3517 29.4815C39.3926 29.5019 39.767 29.427 40.0256 29.2296C40.2911 29.0322 41.4892 28.4332 41.918 28.4672C42.306 28.4944 42.4285 28.6646 42.5579 28.6918C42.6872 28.6646 42.8097 28.4944 43.1977 28.4672C43.6266 28.4332 44.8246 29.0322 45.0901 29.2296C45.3556 29.427 45.7232 29.5019 45.764 29.4815C45.8049 29.4611 46.0567 29.3113 46.1112 29.4747C46.1656 29.638 45.9274 29.7061 45.7504 29.6448C45.7504 29.6448 45.4917 29.6244 44.8723 29.6108C44.5523 29.604 43.5381 29.8218 42.5306 29.8218C41.5368 29.8218 40.5498 29.604 40.2298 29.6108C39.6104 29.6244 39.3517 29.6448 39.3517 29.6448H39.3653Z" fill="#5F3722"/>
<path fill-rule="evenodd" clip-rule="evenodd" d="M40.509 30.7742C40.509 30.7742 41.1285 31.2507 42.4967 31.2303C43.8581 31.2099 44.6273 30.7266 44.6273 30.7266C44.6273 30.7266 43.7288 31.5094 42.4763 31.489C41.2238 31.4685 40.509 30.7742 40.509 30.7742Z" fill="#5F3722"/>
<path fill-rule="evenodd" clip-rule="evenodd" d="M41.0059 29.9242C41.0059 29.9242 41.462 30.0739 42.2721 30.1012C43.0821 30.1284 43.4905 30.142 43.3816 30.4415C43.2727 30.741 42.3197 30.9112 41.4484 30.6117C40.5839 30.3122 40.4886 29.7608 41.0059 29.9242Z" fill="#8F6751"/>
</svg>
