<svg width="86" height="212" viewBox="0 0 86 212" fill="none" xmlns="http://www.w3.org/2000/svg">
<g clip-path="url(#clip0)">
<path fill-rule="evenodd" clip-rule="evenodd" d="M37.307 192.086C37.307 192.086 37.5959 192.939 37.7509 194.292C37.9059 195.645 37.8918 196.265 37.8918 196.265C37.8918 196.265 37.2154 197.272 35.7569 197.836C34.2984 198.4 33.5022 198.407 33.5022 198.407L32.0507 198.146C32.0507 198.146 31.48 198.681 30.3738 200.302C29.2676 201.93 27.7104 202.994 25.4487 203.297C23.1869 203.6 19.065 203.508 18.0786 203.071C17.0922 202.634 16.2114 201.521 16.1973 201.169C16.1903 200.816 15.838 199.964 17.1063 198.808C18.3675 197.653 24.6102 194.383 25.9278 192.079C27.2454 189.775 36.4333 189.67 37.2929 192.079L37.307 192.086Z" fill="#424852"/>
<path fill-rule="evenodd" clip-rule="evenodd" d="M36.8632 195.299C36.8632 195.299 34.9889 196.102 33.6502 196.878C32.3185 197.653 31.8112 197.991 30.9234 198.907C30.0356 199.823 28.9999 201.683 26.9425 202.359C24.8851 203.029 19.5583 203.191 18.5437 202.754C17.5291 202.317 16.7329 201.274 16.7329 201.274C16.7329 201.274 18.0928 202.62 19.7768 202.655C21.4537 202.69 25.4417 202.423 26.6677 202.035C27.8937 201.648 29.169 200.816 30.6345 198.456C32.1001 196.095 35.9683 195.426 36.8632 195.306V195.299ZM23.4688 200.668C23.4688 200.668 21.658 200.781 19.6006 200.175C17.5361 199.569 17.8673 198.667 17.8673 198.667C17.8673 198.667 16.6272 200.189 18.9031 200.901C21.1789 201.612 23.4759 200.675 23.4759 200.675L23.4688 200.668ZM27.3511 193.7C27.3511 193.7 26.9213 194.116 27.1961 194.524C27.4709 194.933 28.1896 197.526 28.1896 197.526C28.1896 197.526 27.1891 195.511 26.8227 194.869C26.4493 194.221 26.3999 193.883 26.4633 193.665C26.5338 193.446 26.569 193.326 26.569 193.326C26.569 193.326 27.027 193.263 27.3441 193.707L27.3511 193.7Z" fill="#58606D"/>
<path fill-rule="evenodd" clip-rule="evenodd" d="M61.2491 191.037C61.2491 191.037 63.4967 195.546 63.7504 196.329C64.0041 197.111 64.0816 199.823 64.0816 199.823C64.0816 199.823 64.2859 203.522 60.2838 203.769C56.2817 204.009 54.6118 201.691 54.492 199.753C54.3723 197.815 54.1538 195.173 53.5479 193.898C52.9419 192.622 52.9419 192.622 52.9419 192.622C52.9419 192.622 52.5051 190.255 52.9772 189.353C53.4563 188.451 60.2908 190.255 61.2561 191.037H61.2491Z" fill="#424852"/>
<path fill-rule="evenodd" clip-rule="evenodd" d="M63.1233 199.71C63.1233 199.71 62.8626 202.106 60.0443 202.331C57.2188 202.557 55.8942 200.485 55.7251 199.668C55.556 198.851 56.1479 201.155 58.8042 201.289C61.4605 201.423 62.6442 200.436 63.1233 199.71ZM58.8887 192.587C58.8887 192.587 59.5369 194.165 60.1711 194.63C60.8052 195.095 62.2144 195.419 62.2144 195.419C62.2144 195.419 60.305 194.68 60.0231 193.926C59.7342 193.172 59.5299 192.587 59.5299 192.587C59.5299 192.587 59.3115 192.08 58.8958 192.58L58.8887 192.587ZM56.5917 192.749C56.5917 192.749 57.0075 193.82 56.8454 194.503C56.6904 195.187 55.9153 196.096 55.9153 196.096C55.9153 196.096 57.1977 194.954 57.3245 194.186C57.4514 193.418 57.1836 192.805 57.1836 192.805C57.1836 192.805 56.93 192.594 56.5917 192.742V192.749Z" fill="#58606D"/>
<path fill-rule="evenodd" clip-rule="evenodd" d="M59.7907 86.2989C59.7907 86.2989 63.2854 90.8717 64.131 104.421C64.9765 117.97 61.5451 137.629 61.5451 137.629L60.8828 182.899L61.2351 191.009C61.2351 191.009 57.388 192.044 55.401 192.122C53.4141 192.199 52.5827 191.946 52.5827 191.946C52.5827 191.946 51.3778 188.789 51.4835 187.612C51.5821 186.436 51.7442 181.243 51.5328 180.214C51.413 179.622 48.8906 165.608 47.7914 155.236C46.9811 147.599 47.4673 143.103 47.5237 141.447C47.6576 137.544 47.3616 136.008 47.2841 135.395C47.1996 134.789 44.804 115.37 44.804 115.37C44.7264 117.012 39.8225 141.307 40.823 147.859C41.8306 154.419 40.1818 171.801 38.5049 179.946C36.828 188.092 37.1873 188.12 37.1873 188.12L37.5044 192.848C37.5044 192.848 34.7917 194.003 31.2687 193.573C27.7457 193.143 26.1956 191.586 26.1956 191.586C26.1956 191.586 27.633 189.508 27.6541 187.443C27.6753 185.379 26.8509 144.357 26.6959 142.293C26.5409 140.236 22.8277 116.498 23.7084 105.316C24.5892 94.141 27.9642 85.9043 27.9642 85.9043C27.9642 85.9043 52.3008 86.3411 59.7907 86.2918V86.2989Z" fill="#23314B"/>
<path fill-rule="evenodd" clip-rule="evenodd" d="M41.5277 95.2405C41.5277 95.2405 41.3938 106.465 41.4854 107.698C41.577 108.931 44.2192 110.784 44.2192 110.784C44.2192 110.784 42.2816 108.092 42.3662 107.43C42.4578 106.768 42.6339 95.1489 42.6339 95.1489C42.6339 95.1489 42.1055 95.0573 41.5347 95.2405H41.5277Z" fill="#192233"/>
<path d="M16.895 103.752C16.895 103.752 18.6565 105.253 18.6213 107.916C18.6142 108.593 18.1069 109.889 17.9096 110.537C17.7969 110.904 17.5291 111.636 17.508 112.017C17.4728 112.602 17.7687 113.757 17.7335 114.342C17.6912 115.075 17.1839 116.921 16.4582 116.97C15.7395 117.019 15.2181 115.103 15.1688 114.384C15.1194 113.729 15.8945 112.179 15.3731 111.777C15.1969 111.643 14.7953 111.904 14.6121 112.031C14.4571 112.13 14.1048 112.362 14.0344 112.531C13.9428 112.764 13.8371 113.215 13.7596 113.412C13.7243 113.496 13.4566 113.969 13.5271 114.264C13.675 114.863 13.9287 116.864 13.9287 116.864C13.9287 116.864 14.8728 117.344 15.2815 117.787C15.4717 117.992 16.43 118.316 16.6695 118.471C17.0218 118.696 17.5503 119.478 17.2896 119.803C16.9302 120.254 15.204 119.859 14.591 119.486C13.7384 118.971 12.2306 118.372 11.8854 117.647C11.5542 116.949 11.3146 114.701 11.0892 114.053C10.8989 113.518 10.8214 113.334 10.6664 112.75C10.4903 112.123 11.0962 109.826 11.6035 107.944C12.0192 106.415 13.0761 103.865 13.0761 103.865L16.9021 103.766L16.895 103.752Z" fill="#825740"/>
<path d="M17.5503 115.343C17.6349 115.498 17.7617 115.723 17.8181 115.822C17.9731 116.09 18.4734 116.59 18.4452 116.9C18.4311 117.034 18.0858 117.316 18.0858 117.316C18.0858 117.316 19.03 118.232 19.0229 118.64C19.0229 118.774 18.7059 119.063 18.7059 119.063C18.7059 119.063 18.7059 119.739 18.5438 119.859C18.3254 120.021 17.7124 119.916 17.2826 119.81L17.2896 119.803C17.5503 119.479 17.0219 118.697 16.6696 118.471C16.4371 118.323 15.4788 117.999 15.2815 117.788C14.9504 117.428 14.1753 117.048 13.9217 116.907V116.808C13.8794 116.484 13.661 114.8 13.5271 114.265C13.4566 113.969 13.7314 113.497 13.7596 113.412C13.8371 113.215 13.9428 112.764 14.0344 112.531C14.1049 112.362 14.4572 112.13 14.6122 112.031C14.7954 111.911 15.197 111.644 15.3731 111.778C15.8875 112.179 15.1195 113.736 15.1688 114.385C15.2252 115.103 15.7395 117.02 16.4582 116.97C16.9444 116.935 17.3249 116.111 17.5433 115.35L17.5503 115.343ZM13.0621 103.858C13.0621 103.858 12.8296 104.443 12.745 104.654C12.6464 104.887 12.4702 105.352 12.4702 105.352C12.4702 105.352 14.4501 105.232 15.1336 105.232C16.6978 105.232 18.269 105.859 18.269 105.859C18.269 105.859 18.0717 105.338 17.8251 104.901C17.6067 104.52 17.1417 103.851 17.1417 103.851L14.9715 103.611L13.055 103.858H13.0621Z" fill="#5F3722"/>
<path d="M12.6956 102.131L12.6111 104.308C12.6111 104.308 14.7108 104.252 15.4435 104.322C17.9096 104.541 18.6424 104.921 18.6424 104.921L19.1004 102.138L12.7027 102.131H12.6956Z" fill="#C4C2CC"/>
<path d="M36.5814 28.311C42.4718 28.311 43.1764 27.7402 49.1936 27.7402C49.0527 28.9451 49.4684 35.9276 52.6532 36.7238L49.5107 43.8402L47.3124 59.0735L35.8345 48.7935L33.6292 37.513C37.2226 35.1526 36.8985 30.3754 36.5814 28.318V28.311Z" fill="#825740"/>
<path d="M36.5813 28.311C42.4717 28.311 43.1763 27.7402 49.1935 27.7402C49.1442 28.163 49.1231 29.2128 49.1794 30.4459C48.4889 31.5028 47.4602 32.7288 44.7898 34.6523C42.1194 36.5758 38.4062 35.533 36.2642 33.9829C37.0252 31.841 36.7504 29.4101 36.5743 28.3039L36.5813 28.311ZM50.6168 34.92C51.0184 35.8149 51.4341 35.9347 51.7019 36.2517L49.5106 43.8332L48.0873 53.6693C47.418 55.2546 46.6499 56.6709 45.8326 57.7348L36.1515 49.0683C36.0106 48.6455 35.8767 48.2157 35.7428 47.793L33.9109 37.3016C34.8762 36.4913 35.4046 35.9276 35.9472 34.7791C35.9472 34.7791 35.7217 36.9915 36.222 38.5205C37.2013 41.5009 38.1878 41.9308 38.681 43.1074C39.752 45.6369 40.0761 46.5529 39.9211 47.3702C39.7661 48.1875 39.9845 48.6455 40.3861 49.329C40.7807 50.0124 42.3449 52.2812 42.4365 51.8655C42.5281 51.4498 42.7676 49.174 43.8668 47.6309C44.966 46.0879 46.2483 45.031 45.7833 44.122C45.3183 43.2202 45.4733 42.5015 46.3329 41.1487C47.1925 39.7958 50.0461 36.7731 50.6098 34.913L50.6168 34.92ZM42.5915 37.1677C42.5915 37.1677 42.4576 38.2035 42.7676 38.8658C43.0777 39.5281 43.5638 39.1969 43.5638 39.1969C43.5638 39.1969 42.7254 38.7601 42.5915 37.1677Z" fill="#5F3722"/>
<path d="M32.7483 90.2024C43.2185 93.2392 50.9338 92.9855 58.7337 88.3775C57.1413 84.5516 55.7885 81.2893 54.1961 77.4633C49.1653 63.3221 52.646 44.5165 53.266 37.8793C52.7939 37.3226 52.4839 36.8153 52.2937 36.4278C52.1457 36.1319 51.7159 34.9552 51.1734 35.7514C50.7224 38.5275 45.8537 41.7052 45.7973 42.5155C45.5366 43.5865 46.5935 43.5442 46.4808 44.1642C46.2553 45.3621 44.67 47.2715 44.1274 48.3495C43.4722 49.6742 42.9296 54.4865 42.9296 54.4865C42.9296 54.4865 40.9709 51.6329 40.5199 50.9777C38.5471 48.0043 39.4489 48.4059 39.4208 46.7924C39.4137 46.271 39.4067 45.9398 38.9769 44.4249C38.5752 42.9946 35.616 40.4088 35.1298 36.1248C35.1086 35.9346 34.4675 36.0896 34.3829 36.5335C28.8941 49.1669 42.0418 76.2867 32.7412 90.2094L32.7483 90.2024Z" fill="#F2F1F6"/>
<path d="M52.3431 36.4211C52.3431 36.4211 49.9193 40.6487 49.0174 45.3835C48.9187 44.7142 48.6087 43.5939 48.5876 43.2345C48.4678 41.6351 47.7139 41.3392 47.1925 41.3251C46.5443 41.311 45.889 42.0226 45.7692 42.6568C45.7199 42.9104 45.7974 43.1641 45.9383 43.3825C45.8115 43.0725 45.8185 42.7202 46.3329 42.0367C46.8472 41.3533 48.0732 42.1424 48.2282 42.8188C48.4255 43.6925 48.8624 45.0172 49.0033 45.4751C48.5664 47.7792 48.1578 50.1748 47.9182 52.2251C47.2488 57.9324 47.8055 69.692 49.2922 75.1526C50.5464 79.7607 55.0205 84.9535 55.4503 89.0895C50.3138 92.2461 42.3096 92.7675 36.6518 89.935C36.9547 86.4754 38.4978 76.8859 38.4978 72.7218C38.4978 67.2541 36.4686 53.3173 35.8415 48.7797C35.771 48.2512 35.7147 47.6805 35.6724 47.0816C35.9613 46.8702 36.2854 46.5532 36.532 46.074C37.1238 44.9256 38.3639 45.6583 38.7162 46.3418C39.0685 47.0252 39.1813 47.5748 39.1813 47.5748C39.1813 47.5748 39.6886 45.8979 38.5189 44.7283C37.3493 43.5586 36.6659 44.8833 36.0529 46.0952C35.9119 46.37 35.7781 46.5884 35.6512 46.7645C35.3764 42.2199 34.4041 36.5127 34.4041 36.5127C34.2561 36.7593 33.7418 37.02 33.6079 37.2807C27.0622 50.4848 39.5406 78.887 32.0226 90.09C44.2684 93.9089 50.5534 92.542 58.9028 88.7936C46.5654 59.6163 55.6335 54.811 53.259 37.7176C52.9561 37.2807 52.6531 36.8439 52.3431 36.4141V36.4211Z" fill="#C4C2CC"/>
<path d="M65.2723 97.6497C65.2723 97.6497 64.8355 98.4459 64.7509 98.6573C64.5114 99.2844 63.7786 101.645 63.7786 101.645L59.6497 94.007L60.8616 93.084L65.2653 97.6427L65.2723 97.6497Z" fill="#5F3722"/>
<path d="M59.9598 93.7822L59.4807 95.121C59.4807 95.121 61.665 96.2976 62.3977 96.6781C63.3771 97.1784 65.202 97.9675 65.202 97.9675C65.202 97.9675 65.5191 97.1643 65.5966 96.8824C65.6459 96.6851 65.9489 95.6917 65.9489 95.6917L59.9669 93.7893L59.9598 93.7822Z" fill="#C4C2CC"/>
<path d="M22.8208 108.191C22.8208 108.191 26.7735 111.946 28.3025 110.903C31.6282 108.634 34.6932 97.2411 35.4894 88.7578C33.8124 94.1902 30.5783 105.428 28.6689 107.754C26.7665 110.079 22.8137 108.183 22.8137 108.183L22.8208 108.191Z" fill="#192233"/>
<path d="M34.1858 36.7236C23.3985 43.523 15.8594 38.0905 15.3591 52.2811C14.725 70.2623 12.1321 86.9612 12.4491 102.49C12.4843 104.132 17.5363 102.645 18.9455 102.948C21.0733 91.3508 24.5399 83.2621 26.2944 68.987C26.2944 75.3988 28.993 81.4442 27.0835 87.7996C24.2299 97.2412 22.5953 101.892 22.0739 107.486C22.0739 107.486 26.076 111.241 27.5908 110.199C30.9165 107.916 32.988 99.1788 35.4048 87.7644C36.4758 82.6984 36.7506 72.214 36.3912 67.4439C36.0671 63.1107 34.369 54.2821 33.9533 50.2659C33.6151 47.0107 34.1858 36.7307 34.1858 36.7307V36.7236Z" fill="#23314B"/>
<path d="M52.4769 36.6113C52.4769 36.6113 49.5951 47.0816 49.419 50.8653C49.3062 53.2186 49.1089 57.9323 49.1794 60.2857C49.278 63.6818 49.2851 71.1717 50.1306 74.448C50.7718 76.9141 52.7587 80.5991 54.5695 82.4452C58.0995 86.0456 58.8253 94.3105 58.8253 94.3105C61.7493 95.6563 64.0393 96.685 65.7232 97.3966C65.7232 97.3966 67.5763 92.6124 70.1622 87.6098C72.4451 83.192 75.1719 75.0962 75.3762 72.8768C75.4396 72.2145 75.1578 65.9717 73.3329 59.9545C71.4023 53.5639 72.3394 47.5889 69.7535 44.3196C66.6745 40.4302 56.0703 39.0704 52.4839 36.6184L52.4769 36.6113ZM61.6648 62.1951C61.6648 62.1951 63.0035 66.3381 64.1097 69.4595C65.3498 72.9472 65.7232 74.4973 65.6739 74.913C65.533 76.0263 62.9753 83.3048 61.8268 86.5529C57.5852 80.0213 60.1499 68.4237 61.6648 62.1881V62.1951Z" fill="#23314B"/>
<path d="M30.1978 39.9297C29.8033 40.8034 25.7659 47.8705 25.7307 48.5539C25.9844 49.5474 28.7605 55.1771 29.9512 57.6502C28.9014 54.3245 27.4076 49.9772 27.5345 48.6385C27.6613 47.3702 29.4651 42.2055 30.1978 39.9297Z" fill="#35496E"/>
<path d="M65.6528 75.0322C64.4198 81.3102 60.9602 86.9328 59.5581 94.5424C61.531 89.6385 66.0051 79.7389 65.6528 75.0322Z" fill="#182234"/>
<path fill-rule="evenodd" clip-rule="evenodd" d="M58.5998 48.1942L54.5555 49.1595L58.5857 49.1383C57.8741 51.5269 53.724 65.6963 51.5891 73.5243C53.9706 66.7038 59.5651 48.6381 59.5651 48.6381C59.5651 48.6381 58.628 42.9943 54.8232 38.4355C57.0145 41.5005 58.015 44.5162 58.5998 48.1942Z" fill="#182234"/>
<path fill-rule="evenodd" clip-rule="evenodd" d="M25.6743 48.1948L29.7187 49.1601L25.6884 49.139C26.3859 51.5276 33.2346 64.0975 35.3413 71.9256C32.988 65.1051 24.7161 48.6387 24.7161 48.6387C24.7161 48.6387 25.9139 44.9396 30.1062 39.9863C27.9008 43.0513 26.3719 45.6654 25.6814 48.1948H25.6743Z" fill="#182234"/>
<path d="M25.9279 40.6064C17.8321 42.6991 16.1763 44.1153 15.817 54.2615C15.5492 61.7865 15.8522 61.7161 14.8235 69.0791C16.0918 65.6829 17.1486 56.0441 17.5221 50.9076C17.9871 44.5381 20.8548 42.2481 25.9279 40.6064Z" fill="#35496E"/>
<path fill-rule="evenodd" clip-rule="evenodd" d="M34.531 92.9012C40.0761 95.8393 49.1865 94.6133 58.4308 91.499L58.7056 92.1191C51.8076 95.0009 41.1894 97.0724 34.3196 93.803L34.538 92.9012H34.531Z" fill="#192233"/>
<path d="M72.5367 57.9957C71.2473 52.0982 71.0218 47.2577 69.4083 44.5661C68.1753 42.5087 60.8264 40.1976 57.4937 38.6123C57.4937 38.6123 65.9417 42.5933 68.0696 44.8832C70.1975 47.1731 70.4511 50.9216 72.5367 58.0027V57.9957Z" fill="#35496E"/>
<path fill-rule="evenodd" clip-rule="evenodd" d="M50.7015 20.6801C50.7015 20.6801 51.7373 20.4123 51.9275 20.821C52.1177 21.2297 52.3714 23.0334 52.1248 24.1396C51.8852 25.2388 50.8706 26.7889 50.4056 26.7889C49.9405 26.7889 49.9194 26.6339 49.9194 26.6339C49.6376 30.6923 48.4045 31.1433 45.1352 34.1942C44.487 34.8001 41.4925 34.779 40.8654 34.1942C37.5961 31.1433 36.2996 30.7558 36.0812 26.6339C36.0812 26.6339 36.06 26.7889 35.595 26.7889C35.13 26.7889 34.1154 25.2458 33.8758 24.1396C33.6362 23.0405 33.8899 21.2297 34.0731 20.821C34.2633 20.4123 35.2991 20.6801 35.2991 20.6801C34.4888 15.6281 35.7007 9.54044 43.0426 9.56158C50.3422 9.58976 51.6104 16.5159 50.7015 20.6801Z" fill="#825740"/>
<path fill-rule="evenodd" clip-rule="evenodd" d="M35.4681 23.6675C35.4681 23.6675 34.9396 23.4562 35.0665 22.7938C35.2003 22.1315 35.2356 21.6806 34.9185 21.5819C34.6014 21.4833 34.235 22.66 34.3196 23.6112C34.4041 24.5624 35.151 25.6756 35.151 25.6756C35.151 25.6756 34.2069 24.6469 34.1928 23.1743C34.1716 21.6947 34.4535 21.1592 34.8339 21.1592C35.2144 21.1592 35.4047 21.6876 35.4047 21.7863C35.4047 21.8849 35.2849 22.7586 35.4681 23.6746V23.6675ZM50.3068 23.6675C50.3068 23.6675 50.9339 23.4562 50.7789 22.7938C50.6239 22.1315 50.5816 21.6806 50.9551 21.5819C51.3285 21.4833 51.7583 22.66 51.6596 23.6112C51.561 24.5624 50.6803 25.6756 50.6803 25.6756C50.6803 25.6756 51.7935 24.6469 51.8147 23.1743C51.8358 21.6947 51.5046 21.1592 51.0537 21.1592C50.6028 21.1592 50.3843 21.6876 50.3843 21.7863C50.3843 21.8849 50.5252 22.7586 50.3068 23.6746V23.6675Z" fill="#5F3722"/>
<path fill-rule="evenodd" clip-rule="evenodd" d="M36.0812 26.6619V26.6267C36.0812 26.6267 36.0601 26.7817 35.5951 26.7817C35.5176 26.7817 35.4189 26.7394 35.3132 26.6548C35.3696 26.6901 35.5246 26.7323 35.7289 26.4223C35.9967 26.0137 36.1869 24.372 36.1658 25.0413C36.1587 25.3654 36.1306 26.0418 36.0812 26.6619ZM49.9195 26.6619V26.6267C49.9195 26.6267 49.9406 26.7817 50.4056 26.7817C50.4831 26.7817 50.5818 26.7394 50.6875 26.6548C50.6311 26.6901 50.4761 26.7323 50.2718 26.4223C50.004 26.0137 49.8138 24.372 49.8349 25.0413C49.842 25.3654 49.8701 26.0418 49.9195 26.6619Z" fill="#5F3722"/>
<path fill-rule="evenodd" clip-rule="evenodd" d="M45.3185 20.8348C45.3185 20.8348 44.5927 21.4266 44.473 22.0396C44.3532 22.6456 45.0578 23.0613 45.5299 23.2304C46.009 23.3995 44.7196 22.9627 44.7618 22.2158C44.8112 21.476 45.9878 20.6798 46.1358 20.5741C46.2908 20.4684 45.8469 20.3557 45.3185 20.8348Z" fill="#5F3722"/>
<path fill-rule="evenodd" clip-rule="evenodd" d="M41.4713 21.2715C41.4713 21.2715 42.0631 21.8774 41.9715 22.5045C41.8799 23.1246 40.8865 23.5614 40.8865 23.5614C40.8865 23.5614 42.1829 22.9273 41.4713 21.2715Z" fill="#5F3722"/>
<path fill-rule="evenodd" clip-rule="evenodd" d="M36.5532 20.7008C36.5532 20.7008 38.8149 20.2358 40.0409 20.3978C41.274 20.5599 41.6263 20.9051 41.7883 20.7431C41.9504 20.581 41.3937 20.0737 40.2946 19.7848C38.667 19.3621 38.0187 19.6087 36.7223 20.3344C36.4757 20.4683 36.3982 20.7078 36.5532 20.7008Z" fill="#191716"/>
<path fill-rule="evenodd" clip-rule="evenodd" d="M37.1733 21.7579C37.1733 21.7579 38.1175 21.0956 39.3012 21.1167C40.4849 21.1378 40.9359 21.4479 40.9077 21.5395C40.8795 21.6311 40.6611 21.4479 40.2172 21.2929C39.7733 21.1378 39.2378 21.0674 38.6671 21.2013C38.0964 21.3351 37.4199 21.8143 37.1733 21.7508V21.7579Z" fill="#5F3722"/>
<path fill-rule="evenodd" clip-rule="evenodd" d="M37.9834 21.7153C37.9834 21.7153 38.6669 21.1445 39.3503 21.1868C40.2522 21.2432 40.9779 21.9407 40.9356 21.9407C40.9356 21.9407 41.2879 22.2226 41.2598 22.3142C41.2034 22.4903 40.8088 22.2155 40.8018 22.2155C40.7806 22.2155 39.8858 22.441 39.0967 22.3564C38.3005 22.2719 38.0327 21.7716 37.9904 21.7082L37.9834 21.7153Z" fill="white"/>
<path fill-rule="evenodd" clip-rule="evenodd" d="M38.0398 22.4482C38.0398 22.4482 38.3216 22.8569 39.2517 22.8499C40.1818 22.8428 40.5904 22.5117 40.6116 22.6033C40.6186 22.6314 40.527 22.7442 40.1888 22.8217C39.5617 22.9626 38.4485 23.0119 38.0398 22.4482Z" fill="#452615"/>
<path fill-rule="evenodd" clip-rule="evenodd" d="M37.9834 21.715C37.9834 21.715 38.0186 21.6868 38.075 21.6445C38.1666 21.8418 38.4555 22.2928 39.2728 22.3421C40.1183 22.3914 40.6961 22.1237 40.9216 21.9264C40.9286 21.9334 40.9286 21.9405 40.9286 21.9405C40.9286 21.9405 41.2809 22.2223 41.2527 22.3139C41.1963 22.49 40.8018 22.2153 40.7947 22.2153C40.7736 22.2153 39.8788 22.4407 39.0896 22.3562C38.2934 22.2716 38.0257 21.7714 37.9834 21.7079V21.715Z" fill="#D4926F"/>
<path fill-rule="evenodd" clip-rule="evenodd" d="M37.9834 21.7153C37.9834 21.7153 38.6669 21.1445 39.3503 21.1868C40.1888 21.2361 40.8793 21.8562 40.9286 21.9337C40.5199 21.673 39.921 21.3911 39.3503 21.3911C38.6316 21.3841 38.2159 21.6941 38.0609 21.828C38.0186 21.7716 37.9975 21.7293 37.9834 21.7153Z" fill="#ADA89F"/>
<path fill-rule="evenodd" clip-rule="evenodd" d="M38.7657 21.2857C38.9489 21.2223 39.1532 21.18 39.3505 21.1941C39.5619 21.2082 39.7592 21.2575 39.9424 21.3209C39.9917 21.4196 40.0128 21.5253 40.0128 21.6451C39.9987 22.0114 39.6887 22.3003 39.3223 22.2862C38.9559 22.2721 38.6671 21.9621 38.6812 21.5957C38.6882 21.483 38.7164 21.3844 38.7657 21.2928V21.2857Z" fill="#625D54"/>
<path d="M39.3295 21.9219C39.5004 21.9284 39.6443 21.7952 39.6509 21.6242C39.6574 21.4533 39.5242 21.3094 39.3532 21.3029C39.1823 21.2963 39.0384 21.4296 39.0318 21.6005C39.0253 21.7715 39.1586 21.9153 39.3295 21.9219Z" fill="#191716"/>
<path d="M39.147 21.6788C39.2388 21.6823 39.3161 21.6107 39.3196 21.5189C39.3232 21.427 39.2516 21.3497 39.1597 21.3462C39.0679 21.3427 38.9906 21.4143 38.987 21.5061C38.9835 21.598 39.0551 21.6753 39.147 21.6788Z" fill="white"/>
<path fill-rule="evenodd" clip-rule="evenodd" d="M37.3706 21.8283C37.3706 21.8283 37.744 21.8706 37.885 21.8213C38.0259 21.772 38.66 21.2435 39.3435 21.2435C40.034 21.2435 40.7174 21.7579 40.809 21.8142C40.9006 21.8706 40.6329 21.6029 40.3651 21.4408C40.0974 21.2788 39.5548 21.0181 38.7939 21.2153C38.0259 21.4126 37.8497 21.7649 37.3706 21.8283Z" fill="#191716"/>
<path fill-rule="evenodd" clip-rule="evenodd" d="M49.7645 20.7008C49.7645 20.7008 47.5028 20.2358 46.2768 20.3978C45.0437 20.5599 44.6914 20.9051 44.5294 20.7431C44.3673 20.581 44.9239 20.0737 46.0231 19.7848C47.6507 19.3621 48.299 19.6087 49.5954 20.3344C49.842 20.4683 49.9195 20.7078 49.7645 20.7008Z" fill="#191716"/>
<path fill-rule="evenodd" clip-rule="evenodd" d="M49.1445 21.7579C49.1445 21.7579 48.2004 21.0956 47.0166 21.1167C45.8329 21.1378 45.382 21.4479 45.4102 21.5395C45.4384 21.6311 45.6568 21.4479 46.1007 21.2929C46.5446 21.1378 47.0801 21.0674 47.6508 21.2013C48.2215 21.3351 48.8979 21.8143 49.1445 21.7508V21.7579Z" fill="#5F3722"/>
<path fill-rule="evenodd" clip-rule="evenodd" d="M48.3341 21.7153C48.3341 21.7153 47.6507 21.1445 46.9672 21.1868C46.0653 21.2432 45.3396 21.9407 45.3819 21.9407C45.3819 21.9407 45.0296 22.2226 45.0578 22.3142C45.1141 22.4903 45.5087 22.2155 45.5157 22.2155C45.5369 22.2155 46.4317 22.441 47.2209 22.3564C48.0171 22.2719 48.2848 21.7716 48.3271 21.7082L48.3341 21.7153Z" fill="white"/>
<path fill-rule="evenodd" clip-rule="evenodd" d="M48.2777 22.4482C48.2777 22.4482 47.9959 22.8569 47.0658 22.8499C46.1357 22.8428 45.7271 22.5117 45.7059 22.6033C45.6989 22.6314 45.7905 22.7442 46.1287 22.8217C46.7558 22.9626 47.869 23.0119 48.2777 22.4482Z" fill="#5F3722"/>
<path fill-rule="evenodd" clip-rule="evenodd" d="M48.3342 21.715C48.3342 21.715 48.2989 21.6868 48.2426 21.6445C48.151 21.8418 47.8621 22.2928 47.0447 22.3421C46.1992 22.3914 45.6215 22.1237 45.396 21.9264C45.389 21.9334 45.389 21.9405 45.389 21.9405C45.389 21.9405 45.0367 22.2223 45.0648 22.3139C45.1212 22.49 45.5158 22.2153 45.5228 22.2153C45.544 22.2153 46.4388 22.4407 47.2279 22.3562C48.0241 22.2716 48.2919 21.7714 48.3342 21.7079V21.715Z" fill="#D4926F"/>
<path fill-rule="evenodd" clip-rule="evenodd" d="M48.3341 21.7153C48.3341 21.7153 47.6507 21.1445 46.9672 21.1868C46.1287 21.2361 45.4382 21.8562 45.3889 21.9337C45.7976 21.673 46.3965 21.3911 46.9672 21.3911C47.6859 21.3841 48.1016 21.6941 48.2566 21.828C48.2989 21.7716 48.32 21.7293 48.3341 21.7153Z" fill="#ADA89F"/>
<path fill-rule="evenodd" clip-rule="evenodd" d="M47.5591 21.2857C47.376 21.2223 47.1716 21.18 46.9743 21.1941C46.763 21.2082 46.5657 21.2575 46.3825 21.3209C46.3331 21.4196 46.312 21.5253 46.312 21.6451C46.3261 22.0114 46.6361 22.3003 47.0025 22.2862C47.3689 22.2721 47.6578 21.9621 47.6437 21.5957C47.6366 21.483 47.6085 21.3844 47.5591 21.2928V21.2857Z" fill="#625D54"/>
<path d="M46.9901 21.9219C46.8191 21.9284 46.6753 21.7952 46.6687 21.6242C46.6622 21.4533 46.7954 21.3094 46.9664 21.3029C47.1373 21.2963 47.2812 21.4296 47.2877 21.6005C47.2943 21.7715 47.161 21.9153 46.9901 21.9219Z" fill="#191716"/>
<path d="M46.78 21.6788C46.6882 21.6823 46.6109 21.6107 46.6074 21.5189C46.6038 21.427 46.6754 21.3497 46.7673 21.3462C46.8591 21.3427 46.9364 21.4143 46.94 21.5061C46.9435 21.598 46.8719 21.6753 46.78 21.6788Z" fill="white"/>
<path fill-rule="evenodd" clip-rule="evenodd" d="M48.9543 21.8283C48.9543 21.8283 48.5809 21.8706 48.44 21.8213C48.299 21.772 47.6649 21.2435 46.9815 21.2435C46.291 21.2435 45.6075 21.7579 45.5159 21.8142C45.4243 21.8706 45.692 21.6029 45.9598 21.4408C46.2275 21.2788 46.7701 21.0181 47.531 21.2153C48.299 21.4126 48.4752 21.7649 48.9543 21.8283Z" fill="#191716"/>
<path d="M42.648 25.8381C42.8425 25.8381 43.0002 25.6898 43.0002 25.5069C43.0002 25.324 42.8425 25.1758 42.648 25.1758C42.4534 25.1758 42.2957 25.324 42.2957 25.5069C42.2957 25.6898 42.4534 25.8381 42.648 25.8381Z" fill="#8F6751"/>
<path fill-rule="evenodd" clip-rule="evenodd" d="M41.6051 26.8808C41.6051 26.8808 40.8441 26.9865 40.7173 26.4369C40.5905 25.8873 40.8864 25.5209 41.2528 25.387C41.6192 25.2461 41.6685 25.0488 41.4994 25.0066C41.3303 24.9643 40.8089 25.2954 40.6891 25.7746C40.5623 26.2537 40.6891 26.6342 40.971 26.8103C41.2528 26.9865 41.5628 26.9724 41.6262 26.9512C41.6896 26.9301 41.6755 26.8808 41.6051 26.8808Z" fill="#452615"/>
<path fill-rule="evenodd" clip-rule="evenodd" d="M42.3309 26.5779C42.3309 26.5779 42.0631 26.1974 41.6545 26.2537C41.2458 26.3031 41.3233 26.5849 41.5699 26.5849C41.8165 26.5849 42.0843 26.5004 42.3309 26.5849V26.5779Z" fill="#241714"/>
<path fill-rule="evenodd" clip-rule="evenodd" d="M44.8041 26.8808C44.8041 26.8808 45.565 26.9865 45.6919 26.4369C45.8187 25.8873 45.5228 25.5209 45.1564 25.387C44.79 25.2461 44.7407 25.0488 44.9098 25.0066C45.0789 24.9643 45.6003 25.2954 45.72 25.7746C45.8469 26.2537 45.72 26.6342 45.4382 26.8103C45.1564 26.9865 44.8463 26.9724 44.7829 26.9512C44.7195 26.9301 44.7336 26.8808 44.8041 26.8808Z" fill="#5F3722"/>
<path fill-rule="evenodd" clip-rule="evenodd" d="M44.0713 26.5779C44.0713 26.5779 44.339 26.1974 44.7477 26.2537C45.1564 26.3031 45.0789 26.5849 44.8323 26.5849C44.5856 26.5849 44.3179 26.5004 44.0713 26.5849V26.5779Z" fill="#241714"/>
<path fill-rule="evenodd" clip-rule="evenodd" d="M40.034 29.6069C39.8649 29.6632 39.6183 29.5998 39.6747 29.4378C39.7311 29.2757 39.9777 29.4237 40.02 29.4448C40.0622 29.466 40.4357 29.3955 40.6964 29.1912C40.9571 28.9939 42.1619 28.395 42.5917 28.4302C42.9792 28.4584 43.099 28.6275 43.2329 28.6557C43.3668 28.6275 43.4866 28.4584 43.8741 28.4302C44.3039 28.395 45.5017 28.9939 45.7694 29.1912C46.0301 29.3885 46.4036 29.4589 46.4459 29.4448C46.4881 29.4237 46.7347 29.2757 46.7911 29.4378C46.8475 29.5998 46.6079 29.6703 46.4318 29.6069C46.4318 29.6069 46.1781 29.5857 45.5581 29.5716C45.2339 29.5646 44.2264 29.783 43.2188 29.783C42.2253 29.783 41.2389 29.5716 40.9218 29.5716C40.3018 29.5857 40.0481 29.6069 40.0481 29.6069H40.034Z" fill="#5F3722"/>
<path fill-rule="evenodd" clip-rule="evenodd" d="M41.1753 30.7278C41.1753 30.7278 41.7953 31.2069 43.1622 31.1858C44.5221 31.1647 45.2901 30.6855 45.2901 30.6855C45.2901 30.6855 44.3882 31.4676 43.1411 31.4465C41.894 31.4254 41.1753 30.7349 41.1753 30.7349V30.7278Z" fill="#5F3722"/>
<path fill-rule="evenodd" clip-rule="evenodd" d="M41.6757 29.8818C41.6757 29.8818 42.1336 30.0368 42.9369 30.0579C43.7472 30.0861 44.1558 30.1002 44.0501 30.3961C43.9445 30.692 42.9862 30.8682 42.1196 30.5652C41.2529 30.2693 41.1613 29.7126 41.6757 29.8747V29.8818Z" fill="#8F6751"/>
</g>
<defs>
<clipPath id="clip0">
<rect width="84.6667" height="211.667" fill="white" transform="translate(0.666748)"/>
</clipPath>
</defs>
</svg>
