<svg width="85" height="212" viewBox="0 0 85 212" fill="none" xmlns="http://www.w3.org/2000/svg">
<g clip-path="url(#clip0)">
<path fill-rule="evenodd" clip-rule="evenodd" d="M37.0464 192.128C37.0464 192.128 37.3378 192.98 37.4908 194.335C37.6437 195.69 37.6365 196.31 37.6365 196.31C37.6365 196.31 36.9589 197.315 35.5019 197.883C34.0448 198.452 33.2507 198.452 33.2507 198.452L31.8009 198.197C31.8009 198.197 31.2254 198.728 30.1253 200.353C29.0252 201.978 27.4589 203.049 25.2005 203.347C22.942 203.653 18.8185 203.559 17.835 203.121C16.8515 202.684 15.9627 201.57 15.9554 201.22C15.9481 200.87 15.5984 200.018 16.8588 198.86C18.1192 197.708 24.3627 194.437 25.6813 192.135C26.9999 189.833 36.1867 189.731 37.0464 192.135V192.128Z" fill="#424852"/>
<path fill-rule="evenodd" clip-rule="evenodd" d="M36.6019 195.341C36.6019 195.341 34.7223 196.142 33.3891 196.915C32.0559 197.687 31.5532 198.029 30.6644 198.947C29.7756 199.865 28.7411 201.723 26.6794 202.4C24.6249 203.071 19.2994 203.231 18.2794 202.794C17.2668 202.357 16.4727 201.315 16.4727 201.315C16.4727 201.315 17.835 202.663 19.5179 202.699C21.2008 202.736 25.1786 202.466 26.4098 202.08C27.6337 201.694 28.9087 200.863 30.373 198.496C31.8373 196.135 35.7058 195.465 36.6019 195.341ZM23.2043 200.71C23.2043 200.71 21.3975 200.82 19.3358 200.215C17.274 199.603 17.6019 198.707 17.6019 198.707C17.6019 198.707 16.3634 200.229 18.6364 200.936C20.9094 201.643 23.2116 200.71 23.2116 200.71H23.2043ZM27.0873 193.746C27.0873 193.746 26.6575 194.161 26.9343 194.569C27.2112 194.977 27.9324 197.57 27.9324 197.57C27.9324 197.57 26.9343 195.56 26.5628 194.911C26.1912 194.263 26.1402 193.928 26.2058 193.709C26.2714 193.491 26.3151 193.367 26.3151 193.367C26.3151 193.367 26.7741 193.301 27.0946 193.746H27.0873Z" fill="#58606D"/>
<path fill-rule="evenodd" clip-rule="evenodd" d="M60.9859 191.079C60.9859 191.079 63.2298 195.589 63.4848 196.376C63.7397 197.163 63.8126 199.866 63.8126 199.866C63.8126 199.866 64.0166 203.566 60.017 203.807C56.0173 204.047 54.3417 201.723 54.2251 199.785C54.1086 197.848 53.89 195.203 53.2781 193.935C52.6661 192.66 52.6661 192.66 52.6661 192.66C52.6661 192.66 52.229 190.293 52.7025 189.389C53.1761 188.486 60.017 190.285 60.9786 191.079H60.9859Z" fill="#424852"/>
<path fill-rule="evenodd" clip-rule="evenodd" d="M62.8656 199.749C62.8656 199.749 62.6106 202.146 59.7839 202.372C56.9572 202.597 55.6386 200.528 55.4637 199.712C55.2962 198.897 55.8863 201.199 58.5454 201.33C61.2046 201.461 62.3848 200.477 62.8656 199.749ZM58.6328 192.624C58.6328 192.624 59.2812 194.205 59.9151 194.664C60.5489 195.123 61.9549 195.458 61.9549 195.458C61.9549 195.458 60.0462 194.722 59.7621 193.964C59.4779 193.207 59.2667 192.631 59.2667 192.631C59.2667 192.631 59.0481 192.121 58.6328 192.624ZM56.338 192.784C56.338 192.784 56.7532 193.855 56.593 194.54C56.4327 195.225 55.6677 196.135 55.6677 196.135C55.6677 196.135 56.9499 194.999 57.0738 194.227C57.1976 193.454 56.9354 192.85 56.9354 192.85C56.9354 192.85 56.6804 192.638 56.3453 192.784H56.338Z" fill="#58606D"/>
<path fill-rule="evenodd" clip-rule="evenodd" d="M59.5287 86.3461C59.5287 86.3461 66.2384 95.5328 65.6046 104.953C64.9708 114.373 64.1913 137.999 64.1913 137.999L64.5628 150.347L62.3189 184.581L61.7653 191.16C61.7653 191.16 57.1245 192.092 55.1429 192.165C53.1613 192.238 52.3235 191.99 52.3235 191.99C52.3235 191.99 50.3783 188.777 50.4803 187.604C50.5823 186.424 50.7426 181.237 50.5313 180.21C50.3201 179.183 46.233 148.257 46.3641 144.352C46.4953 140.447 46.2039 138.909 46.1237 138.298C46.0436 137.693 44.5428 115.414 44.5428 115.414C44.5428 115.414 39.8802 146.428 40.565 147.907C41.2571 149.386 41.4903 171.963 39.8147 180.108C38.139 188.253 38.8311 188.537 38.8311 188.537L37.2429 192.894C37.2429 192.894 34.5328 194.052 31.0067 193.622C27.4879 193.192 25.9289 191.64 25.9289 191.64C25.9289 191.64 26.57 189.083 26.5918 187.022C26.6137 184.953 24.3844 144.57 24.2314 142.508C24.0784 140.447 22.2644 112.69 21.9802 106.592C21.6961 100.494 27.6919 85.96 27.6919 85.96C27.6919 85.96 52.0248 86.3971 59.5214 86.3461H59.5287Z" fill="#23314B"/>
<path fill-rule="evenodd" clip-rule="evenodd" d="M41.2426 95.6415C41.2426 95.6415 41.1334 106.504 41.2281 107.742C41.3155 108.974 43.9601 110.831 43.9601 110.831C43.9601 110.831 42.0222 108.143 42.1096 107.48C42.197 106.817 42.35 95.5541 42.35 95.5541C42.35 95.5541 41.8182 95.4667 41.2499 95.6415H41.2426Z" fill="#192233"/>
<path d="M16.8078 103.794C16.8078 103.794 18.7311 105.295 18.6947 107.954C18.6874 108.631 18.1337 109.928 17.9225 110.577C17.7986 110.941 17.5072 111.669 17.4853 112.055C17.4489 112.638 17.7695 113.797 17.733 114.379C17.6893 115.108 17.1356 116.958 16.3415 117.009C15.5547 117.06 14.9865 115.144 14.9355 114.423C14.8845 113.775 15.7223 112.216 15.1613 111.815C14.9646 111.677 14.5348 111.946 14.3308 112.063C14.1632 112.165 13.7771 112.391 13.7043 112.565C13.6023 112.799 13.4857 113.25 13.4056 113.447C13.3691 113.527 13.0704 114.008 13.1506 114.299C13.3109 114.897 13.5877 116.9 13.5877 116.9C13.5877 116.9 14.6149 117.381 15.0666 117.825C15.2779 118.037 16.3197 118.357 16.582 118.503C16.9608 118.722 17.5436 119.508 17.2595 119.836C16.8661 120.288 14.9792 119.887 14.3162 119.523C13.3837 119.006 11.7372 118.408 11.3584 117.68C11.0014 116.988 10.7319 114.736 10.4842 114.088C10.2802 113.556 10.1928 113.374 10.0179 112.784C9.82849 112.157 10.4915 109.855 11.0378 107.976C11.4895 106.446 12.6479 103.896 12.6479 103.896L16.8224 103.794H16.8078Z" fill="#825740"/>
<path d="M17.5216 115.385C17.6164 115.538 17.7548 115.764 17.8131 115.859C17.9806 116.128 18.527 116.624 18.4979 116.937C18.4833 117.075 18.1045 117.352 18.1045 117.352C18.1045 117.352 19.1317 118.27 19.1244 118.678C19.1244 118.809 18.782 119.101 18.782 119.101C18.782 119.101 18.782 119.778 18.6072 119.902C18.3667 120.062 17.7038 119.953 17.2302 119.851L17.2375 119.844C17.5217 119.516 16.9461 118.736 16.56 118.51C16.305 118.365 15.2559 118.037 15.0446 117.833C14.6877 117.476 13.828 117.104 13.5512 116.966L13.5584 116.857C13.5147 116.536 13.2743 114.846 13.1286 114.307C13.0485 114.015 13.3472 113.542 13.3836 113.454C13.471 113.258 13.5803 112.806 13.6823 112.573C13.7552 112.405 14.1413 112.172 14.3088 112.07C14.5128 111.946 14.9427 111.684 15.1394 111.823C15.7076 112.223 14.8625 113.775 14.9135 114.431C14.9718 115.152 15.5328 117.068 16.3196 117.017C16.8441 116.988 17.2667 116.157 17.5071 115.392L17.5216 115.385ZM12.6259 103.896C12.6259 103.896 12.3709 104.479 12.2762 104.69C12.1742 104.923 11.9775 105.39 11.9775 105.39C11.9775 105.39 14.1413 105.273 14.8844 105.273C16.5964 105.273 18.3012 105.9 18.3012 105.9C18.3012 105.9 18.0899 105.375 17.8131 104.945C17.5726 104.566 17.07 103.889 17.07 103.889L14.7022 103.648L12.6114 103.896H12.6259Z" fill="#5F3722"/>
<path d="M11.8393 102.177L11.7446 104.348C11.7446 104.348 14.1269 104.297 14.9574 104.362C17.755 104.581 18.5855 104.967 18.5855 104.967L19.1028 102.184L11.8393 102.177Z" fill="#C4C2CC"/>
<path d="M35.9318 28.3548C42.3137 28.3548 42.7071 27.7793 49.2202 27.7793C49.0672 28.9814 50.0216 34.9845 51.3766 36.4488L49.8176 43.8798L47.4353 59.1134L34.9993 48.8338L33.9065 38.445C36.5365 36.4051 36.1212 30.2854 35.9318 28.3548Z" fill="#825740"/>
<path d="M35.9316 28.3551C42.3499 28.3551 42.7652 27.8379 49.322 27.8379C49.2637 28.2604 49.3948 29.3095 49.4604 30.548C48.71 31.6044 47.6245 32.7773 44.7177 34.7079C41.8108 36.6312 38.1973 35.8517 35.866 34.3C36.0773 31.8812 36.121 29.4698 35.9316 28.3624V28.3551ZM50.4949 34.7881C50.6843 35.4437 50.9685 35.961 51.2599 36.2815L49.8538 43.8801L48.3093 53.7153C47.5808 55.3035 46.743 56.7168 45.8542 57.7805L35.3123 49.111C35.1594 48.6884 35.0137 48.2586 34.8679 47.836L33.9136 38.438C34.9699 37.622 35.3488 36.6021 35.7495 34.9702L35.917 35.2616C35.917 35.2616 36.7986 39.6255 37.8768 42.1826C38.955 44.7398 39.5815 46.5902 39.414 47.4062C39.2464 48.2222 39.4868 48.6884 39.9167 49.3659C40.3465 50.0508 42.0513 52.3238 42.1532 51.9012C42.248 51.486 42.5102 49.213 43.7123 47.6685C44.9144 46.124 46.3059 45.0676 45.8032 44.1642C45.3005 43.2609 45.4681 42.5396 46.4006 41.1846C47.3404 39.8295 49.8902 36.6312 50.5022 34.7735L50.4949 34.7881ZM42.3135 37.2068C42.3135 37.2068 42.1678 38.2413 42.5029 38.9043C42.8381 39.5672 43.3699 39.2321 43.3699 39.2321C43.3699 39.2321 42.4592 38.795 42.3135 37.2068Z" fill="#5F3722"/>
<path d="M31.4001 90.2432C43.4282 93.2811 52.2798 93.0261 61.2043 88.4145C59.3611 84.5898 57.7875 81.326 55.9443 77.5012C50.1015 63.3604 52.3818 44.3312 53.0593 37.687C51.8718 36.4777 51.5804 35.4869 51.5804 35.4869C51.5804 35.4869 51.0559 35.1007 50.7718 35.465C50.2618 38.2407 46.182 41.7449 46.1237 42.5536C45.8323 43.6245 47.0417 43.5808 46.9178 44.2001C46.6701 45.3949 44.8561 47.3036 44.2441 48.3891C43.4937 49.7078 42.9036 54.5233 42.9036 54.5233C42.9036 54.5233 40.6452 51.6675 40.1206 51.0118C37.8403 48.0394 38.8821 48.4401 38.8384 46.8228C38.8239 46.3055 38.8166 45.9704 38.3139 44.4551C37.8403 43.0199 36.2084 39.7488 35.6329 35.465C35.6038 35.2756 34.8315 35.8948 34.7077 36.128C33.7096 38.1096 33.746 39.4355 32.6751 42.3059C30.1544 53.3796 41.3373 77.1952 31.4074 90.2432H31.4001Z" fill="#F2F1F6"/>
<path d="M52.0032 36.3828C52.0032 36.3828 50.8375 40.6884 49.8249 45.4239C49.7083 44.7536 49.3513 43.6317 49.3149 43.2747C49.1692 41.6719 48.3022 41.3732 47.7049 41.366C46.9618 41.3514 46.2114 42.0653 46.0802 42.6992C46.0292 42.9542 46.1167 43.2091 46.2769 43.4277C46.1312 43.1217 46.1312 42.7647 46.7213 42.0799C47.3114 41.3951 48.7175 42.1819 48.8996 42.8594C49.1328 43.7337 49.6427 45.0596 49.803 45.5113C49.3149 47.8134 48.8559 50.2103 48.5937 52.2575C47.8578 57.9691 48.5572 69.7203 50.2838 75.1916C51.7409 79.7959 56.9062 84.9903 57.4162 89.1284C51.5369 92.2829 42.3647 92.8074 35.859 89.9734C36.1941 86.5129 37.9061 76.9255 37.8843 72.7656C37.8551 67.2943 35.4583 53.3648 34.7152 48.8261C34.6277 48.3016 34.5622 47.726 34.5112 47.1286C34.8463 46.9174 35.2106 46.6041 35.4947 46.1233C36.1722 44.9795 37.5929 45.708 38.0008 46.3855C38.4088 47.0703 38.5399 47.6167 38.5399 47.6167C38.5399 47.6167 39.1155 45.9411 37.7677 44.7755C36.4199 43.6098 35.6404 44.9285 34.941 46.1451C34.7807 46.422 34.6277 46.6405 34.4893 46.8154C34.1542 42.2693 34.4456 36.6815 34.4456 36.6815C34.1615 37.0385 33.9794 37.1696 33.7681 37.461C26.0311 50.3997 38.9844 78.9362 30.5261 89.9953C44.594 93.8201 51.821 92.6034 61.3794 88.8515C47.0783 59.6739 55.8571 54.7928 53.0523 37.6942C52.7026 37.2571 52.3529 36.8272 51.9959 36.3901L52.0032 36.3828Z" fill="#C4C2CC"/>
<path d="M65.0073 97.689C65.0073 97.689 64.5702 98.4831 64.4901 98.6943C64.2497 99.3209 63.5211 101.681 63.5211 101.681L59.3904 94.0463L60.607 93.1211L65.0073 97.6817V97.689Z" fill="#5F3722"/>
<path d="M59.6964 93.8203L59.2156 95.1535C59.2156 95.1535 61.4012 96.3265 62.1297 96.7126C63.1132 97.2153 64.9345 98.0021 64.9345 98.0021C64.9345 98.0021 65.2551 97.2007 65.3279 96.9166C65.3789 96.7199 65.6776 95.7218 65.6776 95.7218L59.6964 93.8203Z" fill="#C4C2CC"/>
<path d="M33.8263 37.374C33.8263 37.374 31.3565 39.2755 28.2384 40.1643C18.855 42.838 16.7714 44.7322 16.4217 54.1083C16.1886 60.4976 15.4819 65.4734 14.3891 71.6513C12.9102 77.618 12.4221 80.9765 12.1962 85.5954C11.9704 90.2143 11.4968 102.541 11.4968 102.541C13.136 102.505 17.6602 102.694 19.0735 102.993C20.7637 95.8167 23.4083 82.4482 24.4865 79.8254C24.5812 82.8634 23.0149 87.8466 22.2135 92.9681C21.638 96.669 21.0187 107.327 21.0187 107.327C21.0187 107.327 25.8197 111.291 27.3351 110.249C30.6644 107.969 32.7553 99.2335 35.1886 87.8101C36.2668 82.7468 36.5655 72.2633 36.2086 67.4914C35.888 63.1567 34.2124 54.3269 33.7971 50.3127C33.462 47.0562 33.8335 37.3813 33.8335 37.3813L33.8263 37.374Z" fill="#23314B"/>
<path d="M52.0833 36.4775C52.0833 36.4775 49.4315 47.1214 49.242 50.9024C49.1255 53.2556 48.9215 57.9692 48.9871 60.3223C49.0818 63.7173 49.0745 71.2065 49.9123 74.4849C50.5461 76.9546 52.535 80.6337 54.3418 82.4769C57.8678 86.0758 58.5745 94.3374 58.5745 94.3374C61.4959 95.6779 64.0239 96.8144 65.6995 97.5283C65.6995 97.5283 68.3732 92.6763 70.8794 87.6276C73.4219 82.506 75.1923 75.1406 75.4035 72.9186C75.4691 72.2556 74.9227 65.9976 73.371 59.7905C71.6298 52.8112 69.8594 46.9392 68.1255 44.5934C66.7559 42.7429 55.4637 38.3207 52.0833 36.4775ZM62.3993 74.6743C62.0132 70.784 60.9204 64.9339 60.9204 64.9339C60.9204 64.9339 61.4595 67.2652 62.5669 70.3906C63.8054 73.8803 64.4027 74.3465 64.461 74.6015C64.2716 75.6287 64.0093 76.6195 63.3682 79.0601C63.2298 78.5137 62.4794 75.6506 62.392 74.6743H62.3993Z" fill="#23314B"/>
<path d="M30.8903 39.9678C30.4823 40.842 26.3516 47.9087 26.3079 48.5936C26.5483 49.5844 29.2511 55.2159 30.4022 57.6929C29.3968 54.3708 27.9616 50.0215 28.1073 48.681C28.253 47.4133 30.1254 42.2481 30.8903 39.9678Z" fill="#35496E"/>
<path d="M64.7524 75.1484C63.5649 81.2025 60.3812 86.2877 58.946 93.4855C58.9752 93.6968 59.2885 94.3306 59.3686 94.724C61.3429 89.821 65.0948 79.8547 64.7524 75.1484Z" fill="#182234"/>
<path fill-rule="evenodd" clip-rule="evenodd" d="M57.4598 48.2365L53.4311 49.2054L57.4671 49.1835C56.7969 51.5731 52.9065 65.7357 50.9031 73.5674C53.1615 66.7484 58.4361 48.6809 58.4361 48.6809C58.4361 48.6809 57.4016 43.0348 53.5112 38.4814C55.7551 41.5486 56.8114 44.5647 57.4671 48.2437L57.4598 48.2365Z" fill="#182234"/>
<path fill-rule="evenodd" clip-rule="evenodd" d="M26.2497 48.2364L30.2784 49.2054L26.2424 49.1835C26.9126 51.5731 33.586 64.1402 35.5821 71.9719C33.3237 65.1529 25.2734 48.6808 25.2734 48.6808C25.2734 48.6808 26.5192 44.9872 30.7738 40.0332C28.53 43.1003 26.9563 45.7157 26.2424 48.2437L26.2497 48.2364Z" fill="#182234"/>
<path d="M28.6319 40.4414C18.7166 44.0403 17.551 44.5285 17.0628 54.6769C16.939 57.2267 16.8297 59.4123 16.6549 61.4449C16.5383 62.1734 16.4217 62.8437 16.3489 63.4265C16.2178 64.4392 15.9482 66.4499 15.7515 67.4407C15.4091 69.1455 15.1031 70.7191 14.819 72.2053C14.6296 72.9411 14.4547 73.6332 14.2944 74.2889C15.3071 75.8989 18.3961 56.1048 18.8113 51.3256C19.2849 45.8252 23.1534 42.9184 26.694 41.4395C27.4735 41.1117 28.1074 40.7765 28.6319 40.4414Z" fill="#35496E"/>
<path fill-rule="evenodd" clip-rule="evenodd" d="M34.2706 92.9461C39.8147 95.8894 48.9213 94.6581 58.1663 91.54L58.4432 92.1593C51.544 95.0443 40.9293 97.1133 34.052 93.8422L34.2706 92.9388V92.9461Z" fill="#192233"/>
<path d="M74.3981 67.8485C74.0776 65.5755 73.5895 62.778 72.8973 59.9877C71.1999 53.176 69.4733 47.4424 67.7758 45.1548C66.6101 43.5812 58.0791 40.0988 53.7297 38.0371C53.7297 38.0371 64.2424 43.9091 66.0492 45.5555C67.6592 47.0272 71.5277 58.6764 74.3981 67.8413V67.8485Z" fill="#35496E"/>
<path d="M21.791 107.882C21.791 107.882 25.7396 111.641 27.2768 110.599C30.6062 108.333 34.0595 97.0119 34.8608 88.5391C33.1852 93.9666 29.5499 105.128 27.6484 107.459C25.7469 109.79 21.7983 107.889 21.7983 107.889L21.791 107.882Z" fill="#192233"/>
<path fill-rule="evenodd" clip-rule="evenodd" d="M50.3711 20.719C50.3711 20.719 51.4056 20.4567 51.595 20.8647C51.7845 21.2727 52.0394 23.0794 51.7917 24.1795C51.5513 25.2796 50.5314 26.8241 50.0724 26.8241C49.6062 26.8241 49.5843 26.6711 49.5843 26.6711C49.3002 30.729 48.069 31.1807 44.7979 34.2332C44.1495 34.8379 41.1552 34.816 40.5287 34.2332C37.2576 31.1807 35.9608 30.7945 35.7422 26.6711C35.7422 26.6711 35.7204 26.8241 35.2541 26.8241C34.7879 26.8241 33.7752 25.2796 33.5348 24.1795C33.2944 23.0794 33.5494 21.2727 33.7315 20.8647C33.9209 20.4567 34.9554 20.719 34.9554 20.719C34.1395 15.6703 35.3561 9.57977 42.6997 9.60162C49.9996 9.63076 51.2672 16.5591 50.3566 20.719H50.3711Z" fill="#825740"/>
<path fill-rule="evenodd" clip-rule="evenodd" d="M35.1304 23.7136C35.1304 23.7136 34.5985 23.5023 34.7297 22.8394C34.8608 22.1764 34.8972 21.7247 34.584 21.63C34.2707 21.528 33.9064 22.7083 33.9866 23.6553C34.074 24.6024 34.8171 25.7171 34.8171 25.7171C34.8171 25.7171 33.8773 24.6899 33.8554 23.2182C33.8336 21.7393 34.1177 21.2002 34.4965 21.2002C34.8754 21.2002 35.0648 21.732 35.0648 21.8267C35.0648 21.9287 34.9409 22.7957 35.1304 23.7136ZM49.9705 23.7136C49.9705 23.7136 50.597 23.5023 50.444 22.8394C50.2911 22.1764 50.2473 21.7247 50.6189 21.63C50.9904 21.528 51.4203 22.7083 51.3256 23.6553C51.2236 24.6024 50.3421 25.7171 50.3421 25.7171C50.3421 25.7171 51.4567 24.6899 51.4786 23.2182C51.5004 21.7393 51.1726 21.2002 50.7209 21.2002C50.2692 21.2002 50.0506 21.732 50.0506 21.8267C50.0506 21.9287 50.1963 22.7957 49.9705 23.7136Z" fill="#5F3722"/>
<path fill-rule="evenodd" clip-rule="evenodd" d="M35.7496 26.7079V26.6788C35.7496 26.6788 35.7277 26.8318 35.2615 26.8318C35.1813 26.8318 35.0866 26.7881 34.9846 26.7079C35.0429 26.7443 35.1959 26.7881 35.3999 26.4748C35.6622 26.0668 35.8589 24.4276 35.837 25.0906C35.8297 25.4184 35.8006 26.096 35.7496 26.7152V26.7079ZM49.5916 26.7079V26.6788C49.5916 26.6788 49.6135 26.8318 50.0798 26.8318C50.1599 26.8318 50.2546 26.7881 50.3566 26.7079C50.2983 26.7443 50.1453 26.7881 49.9413 26.4748C49.6791 26.0668 49.4824 24.4276 49.5042 25.0906C49.5115 25.4184 49.5406 26.096 49.5916 26.7152V26.7079Z" fill="#5F3722"/>
<path fill-rule="evenodd" clip-rule="evenodd" d="M44.9874 20.8794C44.9874 20.8794 44.2589 21.4768 44.1423 22.0814C44.0257 22.6934 44.7251 23.1014 45.1987 23.2689C45.6722 23.4438 44.3827 22.9994 44.4337 22.2563C44.4774 21.5132 45.6576 20.7191 45.8106 20.6171C45.9636 20.5078 45.5192 20.3985 44.9874 20.8721V20.8794Z" fill="#5F3722"/>
<path fill-rule="evenodd" clip-rule="evenodd" d="M41.1404 21.3164C41.1404 21.3164 41.7378 21.9284 41.6431 22.5476C41.5484 23.1669 40.5576 23.604 40.5576 23.604C40.5576 23.604 41.8544 22.9702 41.1404 21.3164Z" fill="#5F3722"/>
<path fill-rule="evenodd" clip-rule="evenodd" d="M36.223 20.7412C36.223 20.7412 38.4814 20.275 39.7126 20.4352C40.9438 20.5955 41.2935 20.9452 41.4611 20.7776C41.6286 20.6101 41.0677 20.1074 39.9676 19.8233C38.343 19.4007 37.6873 19.6411 36.3905 20.3697C36.1428 20.5081 36.07 20.7485 36.2157 20.7339L36.223 20.7412Z" fill="#191716"/>
<path fill-rule="evenodd" clip-rule="evenodd" d="M36.8422 21.8044C36.8422 21.8044 37.7893 21.1488 38.9696 21.1633C40.1571 21.1852 40.6015 21.4984 40.5723 21.5859C40.5432 21.6806 40.3246 21.4985 39.8802 21.3382C39.4358 21.1852 38.8967 21.1123 38.3284 21.2507C37.7602 21.3819 37.0827 21.8627 36.835 21.7971L36.8422 21.8044Z" fill="#5F3722"/>
<path fill-rule="evenodd" clip-rule="evenodd" d="M37.6508 21.7613C37.6508 21.7613 38.3357 21.1931 39.0132 21.2368C39.9093 21.2878 40.6378 21.9944 40.5941 21.9944C40.5941 21.9944 40.9511 22.2713 40.9147 22.3733C40.8637 22.5481 40.463 22.2786 40.4557 22.2786C40.4338 22.2786 39.545 22.5044 38.7509 22.4243C37.9568 22.3441 37.6873 21.8415 37.6436 21.7759L37.6508 21.7613Z" fill="white"/>
<path fill-rule="evenodd" clip-rule="evenodd" d="M37.7092 22.4893C37.7092 22.4893 37.9861 22.8972 38.9186 22.8899C39.8511 22.8827 40.2518 22.5548 40.2809 22.6422C40.2882 22.6714 40.1935 22.7807 39.8584 22.8608C39.2319 22.9992 38.1172 23.0502 37.7092 22.4893Z" fill="#452615"/>
<path fill-rule="evenodd" clip-rule="evenodd" d="M37.6509 21.7613C37.6509 21.7613 37.6873 21.7322 37.7456 21.6885C37.833 21.8852 38.1244 22.3369 38.9477 22.3879C39.7928 22.4389 40.3683 22.1693 40.5941 21.9726C40.6014 21.9799 40.6014 21.9872 40.6014 21.9872C40.6014 21.9872 40.9584 22.264 40.922 22.366C40.871 22.5409 40.4703 22.2713 40.463 22.2713C40.4411 22.2713 39.5523 22.4971 38.7582 22.417C37.9641 22.3369 37.6946 21.8342 37.6509 21.7686V21.7613Z" fill="#D4926F"/>
<path fill-rule="evenodd" clip-rule="evenodd" d="M37.6509 21.7613C37.6509 21.7613 38.3357 21.1931 39.0132 21.2368C39.851 21.2878 40.5431 21.8997 40.5941 21.9872C40.1862 21.7322 39.5815 21.448 39.0132 21.4408C38.292 21.4335 37.8767 21.7395 37.7237 21.8779C37.68 21.8196 37.6582 21.7832 37.6509 21.7613Z" fill="#ADA89F"/>
<path fill-rule="evenodd" clip-rule="evenodd" d="M38.4304 21.331C38.6126 21.2654 38.8166 21.229 39.0133 21.2363C39.2245 21.2508 39.4212 21.2946 39.6034 21.3601C39.6544 21.4548 39.6762 21.5641 39.6689 21.6807C39.6544 22.0449 39.3484 22.3364 38.9768 22.3218C38.6126 22.3072 38.3212 22.0012 38.3357 21.6297C38.343 21.5204 38.3722 21.4184 38.4232 21.331H38.4304Z" fill="#625D54"/>
<path d="M38.9968 21.9665C39.1679 21.973 39.3119 21.8396 39.3185 21.6685C39.325 21.4974 39.1916 21.3534 39.0205 21.3468C38.8494 21.3403 38.7054 21.4737 38.6988 21.6448C38.6923 21.8159 38.8257 21.9599 38.9968 21.9665Z" fill="#191716"/>
<path d="M38.8144 21.7231C38.9063 21.7266 38.9837 21.6549 38.9872 21.563C38.9907 21.4711 38.919 21.3937 38.8271 21.3902C38.7352 21.3866 38.6578 21.4583 38.6543 21.5503C38.6507 21.6422 38.7224 21.7196 38.8144 21.7231Z" fill="white"/>
<path fill-rule="evenodd" clip-rule="evenodd" d="M37.0317 21.8775C37.0317 21.8775 37.4033 21.9212 37.5417 21.8702C37.6801 21.8192 38.314 21.2947 39.0061 21.2874C39.6909 21.2874 40.383 21.8047 40.4704 21.863C40.5578 21.9212 40.2956 21.6517 40.026 21.4914C39.7637 21.3311 39.2173 21.0689 38.4524 21.2656C37.6874 21.4623 37.5126 21.8192 37.0317 21.8775Z" fill="#191716"/>
<path fill-rule="evenodd" clip-rule="evenodd" d="M49.4314 20.7412C49.4314 20.7412 47.1729 20.275 45.9417 20.4352C44.7105 20.5955 44.3608 20.9452 44.1933 20.7776C44.0257 20.6101 44.5867 20.1074 45.6867 19.8233C47.3114 19.4007 47.967 19.6411 49.2638 20.3697C49.5115 20.5081 49.5844 20.7485 49.4387 20.7339L49.4314 20.7412Z" fill="#191716"/>
<path fill-rule="evenodd" clip-rule="evenodd" d="M48.8122 21.8044C48.8122 21.8044 47.8651 21.1488 46.6849 21.1633C45.4974 21.1852 45.053 21.4984 45.0821 21.5859C45.1113 21.6806 45.3298 21.4985 45.7743 21.3382C46.2187 21.1852 46.7578 21.1123 47.326 21.2507C47.8943 21.3819 48.5718 21.8627 48.8195 21.7971L48.8122 21.8044Z" fill="#5F3722"/>
<path fill-rule="evenodd" clip-rule="evenodd" d="M48.0035 21.7613C48.0035 21.7613 47.3187 21.1931 46.6411 21.2368C45.745 21.2878 45.0165 21.9944 45.0602 21.9944C45.0602 21.9944 44.7032 22.2713 44.7397 22.3733C44.7907 22.5481 45.1914 22.2786 45.1986 22.2786C45.2205 22.2786 46.1093 22.5044 46.9034 22.4243C47.6975 22.3441 47.9671 21.8415 48.0108 21.7759L48.0035 21.7613Z" fill="white"/>
<path fill-rule="evenodd" clip-rule="evenodd" d="M47.9451 22.4893C47.9451 22.4893 47.6683 22.8972 46.7358 22.8899C45.8033 22.8827 45.4026 22.5548 45.3734 22.6422C45.3661 22.6714 45.4609 22.7807 45.796 22.8608C46.4225 22.9992 47.5372 23.0502 47.9451 22.4893Z" fill="#5F3722"/>
<path fill-rule="evenodd" clip-rule="evenodd" d="M48.0034 21.7613C48.0034 21.7613 47.967 21.7322 47.9087 21.6885C47.8213 21.8852 47.5299 22.3369 46.7067 22.3879C45.8616 22.4389 45.286 22.1693 45.0602 21.9726C45.0529 21.9799 45.0529 21.9872 45.0529 21.9872C45.0529 21.9872 44.6959 22.264 44.7323 22.366C44.7833 22.5409 45.184 22.2713 45.1913 22.2713C45.2132 22.2713 46.102 22.4971 46.8961 22.417C47.6902 22.3369 47.9597 21.8342 48.0034 21.7686V21.7613Z" fill="#D4926F"/>
<path fill-rule="evenodd" clip-rule="evenodd" d="M48.0036 21.7613C48.0036 21.7613 47.3187 21.1931 46.6412 21.2368C45.8034 21.2878 45.1113 21.8997 45.0603 21.9872C45.4683 21.7322 46.073 21.448 46.6412 21.4408C47.3625 21.4335 47.7777 21.7395 47.9307 21.8779C47.9744 21.8196 47.9963 21.7832 48.0036 21.7613Z" fill="#ADA89F"/>
<path fill-rule="evenodd" clip-rule="evenodd" d="M47.224 21.331C47.0419 21.2654 46.8379 21.229 46.6412 21.2363C46.4299 21.2508 46.2332 21.2946 46.0511 21.3601C46.0001 21.4548 45.9782 21.5641 45.9855 21.6807C46.0001 22.0449 46.3061 22.3364 46.6776 22.3218C47.0419 22.3072 47.3333 22.0012 47.3187 21.6297C47.3114 21.5204 47.2823 21.4184 47.2313 21.331H47.224Z" fill="#625D54"/>
<path d="M46.6573 21.9665C46.4862 21.973 46.3422 21.8396 46.3356 21.6685C46.329 21.4974 46.4624 21.3534 46.6335 21.3468C46.8047 21.3403 46.9487 21.4737 46.9552 21.6448C46.9618 21.8159 46.8284 21.9599 46.6573 21.9665Z" fill="#191716"/>
<path d="M46.4474 21.7231C46.3554 21.7266 46.278 21.6549 46.2745 21.563C46.271 21.4711 46.3427 21.3937 46.4346 21.3902C46.5265 21.3866 46.6039 21.4583 46.6074 21.5503C46.611 21.6422 46.5393 21.7196 46.4474 21.7231Z" fill="white"/>
<path fill-rule="evenodd" clip-rule="evenodd" d="M48.6228 21.8775C48.6228 21.8775 48.2512 21.9212 48.1128 21.8702C47.9744 21.8192 47.3406 21.2947 46.6485 21.2874C45.9636 21.2874 45.2715 21.8047 45.1841 21.863C45.0967 21.9212 45.359 21.6517 45.6285 21.4914C45.8908 21.3311 46.4372 21.0689 47.2022 21.2656C47.9671 21.4623 48.142 21.8192 48.6228 21.8775Z" fill="#191716"/>
<path d="M42.3135 25.8841C42.5107 25.8841 42.6705 25.7341 42.6705 25.549C42.6705 25.3639 42.5107 25.2139 42.3135 25.2139C42.1164 25.2139 41.9565 25.3639 41.9565 25.549C41.9565 25.7341 42.1164 25.8841 42.3135 25.8841Z" fill="#8F6751"/>
<path fill-rule="evenodd" clip-rule="evenodd" d="M41.2718 26.919C41.2718 26.919 40.5141 27.0283 40.383 26.4746C40.2591 25.9282 40.5578 25.564 40.9221 25.4255C41.2863 25.2871 41.3373 25.0904 41.1698 25.0467C40.9949 25.0103 40.485 25.3381 40.3538 25.8117C40.23 26.2852 40.3538 26.6713 40.6379 26.8462C40.9221 27.0283 41.2281 27.0064 41.2936 26.9846C41.3592 26.9627 41.3373 26.9117 41.2718 26.9117V26.919Z" fill="#452615"/>
<path fill-rule="evenodd" clip-rule="evenodd" d="M42.0003 26.6197C42.0003 26.6197 41.7307 26.2408 41.3228 26.2918C40.9148 26.3428 40.9949 26.6197 41.2353 26.6197C41.483 26.6197 41.7526 26.5322 42.0003 26.6197Z" fill="#241714"/>
<path fill-rule="evenodd" clip-rule="evenodd" d="M44.4701 26.919C44.4701 26.919 45.2278 27.0283 45.3589 26.4746C45.4828 25.9282 45.1841 25.564 44.8198 25.4255C44.4556 25.2871 44.4046 25.0904 44.5721 25.0467C44.747 25.0103 45.2569 25.3381 45.3881 25.8117C45.5119 26.2852 45.3881 26.6713 45.104 26.8462C44.8198 27.0283 44.5138 27.0064 44.4483 26.9846C44.3827 26.9627 44.4046 26.9117 44.4701 26.9117V26.919Z" fill="#5F3722"/>
<path fill-rule="evenodd" clip-rule="evenodd" d="M43.7415 26.6197C43.7415 26.6197 44.011 26.2408 44.419 26.2918C44.827 26.3428 44.7468 26.6197 44.5064 26.6197C44.2587 26.6197 43.9892 26.5322 43.7415 26.6197Z" fill="#241714"/>
<path fill-rule="evenodd" clip-rule="evenodd" d="M39.6982 29.6511C39.5233 29.7094 39.2829 29.6438 39.3412 29.4762C39.3995 29.3087 39.6472 29.4617 39.6836 29.4835C39.7273 29.5054 40.0988 29.4325 40.3611 29.2358C40.6234 29.0391 41.8255 28.4417 42.2553 28.4782C42.6414 28.5073 42.7653 28.6749 42.8964 28.704C43.0275 28.6749 43.1514 28.5073 43.5375 28.4782C43.9673 28.4417 45.1694 29.0391 45.4317 29.2358C45.694 29.4325 46.0655 29.5054 46.1092 29.4835C46.1529 29.4617 46.4006 29.3087 46.4516 29.4762C46.5099 29.6438 46.2622 29.7094 46.0946 29.6511C46.0946 29.6511 45.8397 29.6292 45.2204 29.6147C44.8999 29.6074 43.8872 29.8259 42.8818 29.8259C41.891 29.8259 40.9002 29.6147 40.5797 29.6147C39.9604 29.6292 39.7054 29.6511 39.7054 29.6511H39.6982Z" fill="#5F3722"/>
<path fill-rule="evenodd" clip-rule="evenodd" d="M40.842 30.7722C40.842 30.7722 41.4613 31.2458 42.8236 31.2312C44.186 31.2093 44.9509 30.7285 44.9509 30.7285C44.9509 30.7285 44.0548 31.508 42.8017 31.4862C41.5487 31.4643 40.8347 30.7722 40.8347 30.7722H40.842Z" fill="#5F3722"/>
<path fill-rule="evenodd" clip-rule="evenodd" d="M41.3445 29.928C41.3445 29.928 41.8035 30.0809 42.6049 30.1101C43.4136 30.1392 43.8215 30.1465 43.7195 30.4452C43.6103 30.7439 42.6559 30.9115 41.7889 30.6201C40.922 30.3214 40.8273 29.7677 41.3445 29.9352V29.928Z" fill="#8F6751"/>
</g>
<defs>
<clipPath id="clip0">
<rect width="84.6667" height="211.667" fill="white" transform="translate(0.333496)"/>
</clipPath>
</defs>
</svg>
