<svg width="85" height="212" viewBox="0 0 85 212" fill="none" xmlns="http://www.w3.org/2000/svg">
<path fill-rule="evenodd" clip-rule="evenodd" d="M36.1276 34.9219C36.1276 34.9219 36.9297 36.792 37.3382 39.0312C37.7467 41.2704 37.3087 42.3974 35.7535 43.1503C34.1984 43.8984 31.9887 44.9319 30.8273 45.5618C29.6658 46.1917 27.9532 47.4959 28.1501 50.4684C28.3469 53.4458 29.6658 56.246 29.6658 56.246C29.6658 56.246 47.3039 61.187 49.9516 58.8494C52.5993 56.5118 55.9064 41.4574 52.4566 40.921C52.2843 40.8964 50.9506 40.6897 50.7931 40.67C49.9171 40.5716 46.8905 40.7832 45.7832 38.0469C44.6169 35.1679 45.4338 30.1826 45.4338 30.1826C45.4338 30.1826 39.7349 35.04 36.1276 34.9219V34.9219Z" fill="#825740"/>
<path fill-rule="evenodd" clip-rule="evenodd" d="M48.0224 48.8691C48.0224 48.8691 47.0923 53.7363 45.7242 55.8328C44.356 57.9293 47.5106 60.5967 47.8846 57.3978C48.2587 54.1989 48.0224 48.8691 48.0224 48.8691V48.8691Z" fill="#5F3722"/>
<path fill-rule="evenodd" clip-rule="evenodd" d="M29.8479 111.069C29.8479 111.069 29.6314 113.958 30.3843 118.579C31.1373 123.2 31.905 125.061 32.1856 126.926C33.7259 122.059 36.0832 114.908 36.7968 112.743C32.7613 111.187 30.1678 111.079 29.8479 111.069V111.069ZM35.7929 152.468C36.8756 160.224 38.3914 171.74 38.2585 174.594C38.0469 179.003 34.9563 186.469 34.9563 186.469C34.9563 186.469 33.7604 187.453 35.1679 188.699C36.5754 189.944 37.9829 189.963 37.9829 189.963L38.3421 189.417C38.3274 189.181 38.3668 189.023 38.3668 189.023C38.3668 189.023 38.3668 189.023 38.9967 183.447C39.6266 177.872 40.2565 175.632 39.164 166.193C38.6768 161.976 37.2939 157.025 35.7929 152.468V152.468ZM45.0647 150.283C45.1188 148.289 45.3354 146.823 44.8383 143.811C44.3413 140.799 43.0912 140.056 42.3432 137.275C41.5952 134.495 45.2615 129.441 45.1828 125.208C44.8826 124.313 37.4858 134.219 38.4996 137C39.5134 139.78 41.6345 140.445 43.3373 143.964C45.0401 147.482 44.794 148.526 45.0647 150.278V150.283Z" fill="#5F3722"/>
<path fill-rule="evenodd" clip-rule="evenodd" d="M30.6157 54.7158C31.221 55.2374 32.6334 55.8723 35.847 55.6115C40.0548 55.267 43.4357 53.6577 44.5726 53.0573C46.5362 43.6674 49.7547 41.1723 51.2115 40.5128C51.989 40.1585 52.3089 40.4439 52.4369 40.7736C52.4221 40.7736 47.6976 41.3002 45.2074 53.4805C45.5814 54.5189 46.4279 56.6597 47.796 58.9727C49.7154 62.2159 48.2882 73.5842 48.2882 73.5842C48.2882 73.5842 49.8039 77.1866 51.8512 80.8678C53.9034 84.5489 58.2194 92.118 56.8119 100.494C55.3995 108.87 49.3118 119.121 49.3118 119.121C49.3118 119.121 44.7694 116.257 38.9819 113.654C33.1944 111.05 29.8479 111.07 29.8479 111.07C29.8479 111.07 29.715 109.082 29.6708 106.375C29.5625 99.938 29.5822 88.609 30.4582 84.3078C31.157 80.8678 31.2997 79.5489 31.3342 77.0734C31.3785 73.845 30.3253 74.657 29.9316 71.2761C29.405 66.7337 29.1639 66.0792 29.1639 66.0792C29.1639 66.0792 25.089 61.6253 30.0103 54.3565C30.0448 54.2925 30.0792 54.2286 30.1137 54.1597C31.2505 52.0878 33.283 48.9431 32.7171 44.5926C32.6826 44.1005 33.3618 44.0168 33.3765 44.3367C33.8883 49.007 31.9247 52.324 30.7338 54.4943C30.6944 54.5681 30.655 54.637 30.6206 54.7109L30.6157 54.7158Z" fill="#D5C1B5"/>
<path fill-rule="evenodd" clip-rule="evenodd" d="M36.8018 112.743C33.8244 116.104 32.0182 127.256 31.0241 130.711C29.8873 134.668 29.843 135.504 31.1668 139.56C31.7722 141.415 32.9828 145.485 34.538 149.919C36.3736 155.175 38.5735 161.076 39.164 166.194C40.2516 175.633 39.6266 177.867 38.9967 183.448C38.3668 189.024 38.3668 189.024 38.3668 189.024C38.3668 189.024 37.791 191.224 41.7034 191.553C45.6159 191.883 45.9112 189.678 45.8521 187.538C45.7931 185.402 46.1917 183.04 46.6297 180.85C47.0677 178.655 47.0185 177.414 46.0194 174.408C45.0204 171.401 45.2616 169.599 45.7488 162.109C46.236 154.619 47.5451 149.491 44.9417 144.461C42.3383 139.437 39.9564 139.584 38.9672 137.069C37.9731 134.555 46.7478 126.951 49.1839 119.038C48.3866 118.545 44.1936 115.996 38.9918 113.659C38.2142 113.309 37.4858 113.004 36.8067 112.743H36.8018Z" fill="#825740"/>
<path fill-rule="evenodd" clip-rule="evenodd" d="M34.9858 186.381C34.2525 186.957 32.7121 188.276 31.1127 190.293C28.8932 193.089 29.4985 193.226 30.1727 193.231C30.8027 193.231 35.5468 193.576 36.9543 192.749C37.0675 192.375 37.1856 192.011 37.3037 191.671C37.5744 190.874 37.7959 190.328 37.973 189.959C37.8648 189.954 36.5163 189.89 35.1679 188.694C33.7604 187.449 34.9563 186.465 34.9563 186.465L34.9907 186.376L34.9858 186.381Z" fill="#BA9F8A"/>
<path fill-rule="evenodd" clip-rule="evenodd" d="M38.3323 189.319C38.1502 189.556 37.8205 190.151 37.2988 191.672C36.4524 194.147 35.4632 197.986 37.1807 197.853C38.8983 197.72 46.0785 195.166 46.3246 192.021C46.5706 188.876 47.2498 186.878 47.6878 184.432C48.1258 181.987 49.2232 180.481 49.2823 178.807C49.3364 177.262 48.1356 175.919 46.0736 174.595C47.0135 177.464 47.0529 178.699 46.6198 180.845C46.1818 183.04 45.7832 185.397 45.8423 187.533C45.9013 189.669 45.606 191.878 41.6936 191.549C38.6817 191.293 38.3323 189.93 38.3274 189.319H38.3323Z" fill="#D4C1B5"/>
<path fill-rule="evenodd" clip-rule="evenodd" d="M48.9427 180.476C48.8738 181.007 48.7705 181.662 48.6081 182.41C48.1208 184.614 48.298 187.897 48.2832 188.694C48.1799 188.891 47.3826 188.866 47.3876 188.729L47.4319 185.776C47.5254 185.338 47.6189 184.895 47.6976 184.437C47.988 182.808 48.5736 181.598 48.9476 180.476H48.9427Z" fill="#A68C7A"/>
<path fill-rule="evenodd" clip-rule="evenodd" d="M40.1286 178.241C40.1286 178.241 38.9819 185.869 38.8491 187.808C38.7162 189.747 42.2005 177.69 40.1286 178.241Z" fill="#96664C"/>
<path fill-rule="evenodd" clip-rule="evenodd" d="M30.9405 111.483C30.9405 111.483 31.0438 114.343 31.6393 118.752C32.2348 123.162 32.6334 124.308 32.5694 123.939C32.5104 123.57 32.0576 111.848 32.0576 111.848C32.0576 111.848 31.6344 111.346 30.9405 111.478V111.483Z" fill="#825740"/>
<path fill-rule="evenodd" clip-rule="evenodd" d="M37.353 113.959L39.0016 114.441C39.0016 114.441 36.7919 118.679 34.1787 124.712C31.5704 130.746 31.2603 131.43 31.2603 131.43C33.5635 125.49 34.4149 117.502 37.353 113.959Z" fill="#96664C"/>
<path fill-rule="evenodd" clip-rule="evenodd" d="M36.8018 112.743L36.0488 113.786C40.3451 114.067 47.3138 117.807 48.672 120.48C48.8886 119.943 49.0411 119.471 49.1789 119.038C48.3817 118.545 44.1887 115.996 38.9869 113.659C38.2093 113.309 37.4809 113.004 36.8018 112.743V112.743Z" fill="#5F3722"/>
<path fill-rule="evenodd" clip-rule="evenodd" d="M29.9168 90.0605C29.9168 90.0605 27.4069 99.6276 27.6825 104.633C27.9581 109.638 27.9827 108.299 28.5192 110.282C29.0556 112.266 29.2918 113.166 29.2918 113.166C29.2918 113.166 29.966 114.264 29.9463 113.959C29.9267 113.653 29.6954 106.178 29.6954 106.178C29.6954 106.178 30.0645 107.408 30.4582 108.269C30.8519 109.131 31.0487 109.318 31.3046 109.185C31.5605 109.052 31.3096 107.576 31.0143 106.581C30.719 105.587 30.8716 104.224 30.5418 102.91C30.2072 101.596 29.6855 100.828 29.6855 100.828C29.7544 96.6305 29.7446 94.7211 29.9217 90.0605H29.9168Z" fill="#6B412B"/>
<path fill-rule="evenodd" clip-rule="evenodd" d="M55.557 92.8018C56.0245 95.1591 56.1722 97.6985 55.7292 100.326C54.3808 108.333 48.5638 118.127 48.5638 118.127C48.5638 118.127 48.2144 117.906 47.5893 117.536C48.7852 115.528 50.9014 111.527 53.2932 104.957C55.2617 99.5588 55.6407 95.4593 55.5619 92.8018H55.557Z" fill="#B99E8A"/>
<path fill-rule="evenodd" clip-rule="evenodd" d="M49.115 75.4395C49.7547 76.8322 50.3059 78.0822 51.4378 80.1147L51.5756 80.3608C50.6258 80.971 49.7252 81.975 47.4762 87.1572C45.2222 92.3393 45.0401 95.4299 45.3551 98.3827C45.67 101.331 45.798 101.217 45.5371 104.269C45.2763 107.32 44.5922 111.518 44.0657 112.335C43.5391 113.147 43.1749 113.137 43.1749 113.137C43.1749 113.137 42.9584 114.756 42.5204 115.347L42.2546 115.214C42.1562 114.033 41.6837 108.427 41.5558 107.91C41.4131 107.34 41.0489 110.499 41.0489 110.499C41.0489 110.499 41.039 110.908 41.0538 112.94C41.0587 113.801 41.0538 114.308 41.039 114.608C40.6158 114.407 40.1827 114.2 39.7447 113.998L39.5085 107.763C39.5085 107.763 39.2821 110.317 38.8786 111.921C38.6965 112.65 38.4406 113.073 38.2142 113.314L38.0518 113.245C37.9632 113.024 37.914 112.783 37.9288 112.517C38.0321 110.43 37.7713 104.958 42.9731 91.2025C47.3482 79.6423 46.4328 75.8528 49.115 75.4395V75.4395Z" fill="#A38976"/>
<path d="M32.9877 93.9239C32.9927 93.9337 34.0852 96.5715 40.4534 98.5155L40.3501 98.8501C33.8244 96.857 33.1501 94.3569 33.1501 94.3471L32.9877 93.9189V93.9239ZM33.0074 100.371C33.0173 100.376 36.91 102.886 40.7142 101.847L40.8077 102.187C36.851 103.265 33.5242 100.996 33.5143 100.986L33.0074 100.371V100.371Z" fill="#B99E8A"/>
<path fill-rule="evenodd" clip-rule="evenodd" d="M36.1275 34.9219C36.1275 34.9219 36.9297 36.792 37.3382 39.0312C37.3726 39.2083 37.3973 39.3757 37.4268 39.5381C38.3225 39.8088 39.6906 39.8383 41.2014 38.5489C42.8304 37.1611 44.2773 35.4042 45.1582 34.2476C45.1188 32.1019 45.4338 30.1826 45.4338 30.1826C45.4338 30.1826 39.7349 35.04 36.1275 34.9219Z" fill="#6B412B"/>
<path fill-rule="evenodd" clip-rule="evenodd" d="M36.1275 34.9219C36.1275 34.9219 36.4524 35.6748 36.7919 36.7969C38.8195 37.5646 40.1286 36.7182 42.3137 35.3697C43.6818 34.5282 44.5922 33.5291 45.1877 32.6728C45.2615 31.2456 45.4338 30.1826 45.4338 30.1826C45.4338 30.1826 39.7349 35.04 36.1275 34.9219V34.9219Z" fill="#AD7140"/>
<path fill-rule="evenodd" clip-rule="evenodd" d="M31.1324 45.7393C30.7879 45.9115 30.4877 46.0641 30.2662 46.1822C29.2771 46.7186 28.3469 48.072 28.5093 50.6065C28.6127 52.1764 28.8833 53.5937 29.0704 54.45C29.0704 54.45 28.4601 51.5415 29.1245 48.7757C29.5526 47.004 30.5025 46.133 31.1275 45.7393H31.1324Z" fill="#96664C"/>
<path fill-rule="evenodd" clip-rule="evenodd" d="M37.8156 100.474C37.2496 101.128 36.9002 103.515 36.9445 105.631C36.9937 107.747 36.8264 109.686 36.8264 109.686C36.8264 109.686 37.8894 110.454 38.1699 107.969C38.2929 106.901 37.9977 105.095 37.8353 104.076C37.6187 102.728 37.8156 100.474 37.8156 100.474Z" fill="#6B412B"/>
<path fill-rule="evenodd" clip-rule="evenodd" d="M52.5156 40.9258C53.4113 41.1128 54.494 41.4425 55.2125 42.0036C56.6495 43.1207 57.8651 44.292 57.0678 48.3275C56.2755 52.363 55.6997 50.6405 55.6456 55.1484C55.5964 59.4202 55.1977 60.6505 54.4152 63.1259C53.6327 65.6014 52.3532 68.5542 52.0284 70.5079C51.7036 72.4617 51.6544 75.4194 49.8039 80.6951C47.9535 85.9757 46.7429 88.023 45.7537 91.1185C44.7645 94.2189 44.7448 94.2337 44.7153 94.78C44.6858 95.3262 44.8137 95.656 44.6415 96.3253C44.4741 96.9995 44.6611 97.5409 44.8039 98.343C44.9466 99.1452 45.4387 100.533 45.1287 103.117C44.8186 105.705 44.6907 106.862 44.5972 107.767C44.5037 108.673 44.4741 110.779 44.1838 111.818C43.8983 112.856 43.4013 112.684 43.3078 111.749C43.2143 110.814 43.2536 108.885 43.2044 107.684C43.1552 106.483 43.1749 105.956 43.1749 105.956C43.1749 105.956 42.732 109.48 42.7861 110.661C42.8353 111.842 42.796 115.307 42.23 115.238C41.6641 115.169 41.354 110.661 41.3343 109.825C41.3146 108.988 41.4672 106.946 41.4672 106.946C41.4672 106.946 41.2359 106.759 41.1473 107.334C41.0587 107.905 40.7044 110.824 40.7044 110.824C40.7044 110.824 40.729 113.806 40.6306 114.766C40.5321 115.725 40.2812 116.109 39.917 116.08C39.5528 116.05 39.4495 115.617 39.3215 113.958C39.1935 112.305 39.228 110.937 39.2674 110.322C39.3067 109.701 39.3806 107.078 39.3806 107.078C39.3806 107.078 39.105 106.759 39.0508 107.256C38.9967 107.753 38.8294 109.534 38.8294 109.534C38.8294 109.534 38.6571 111.69 38.4111 112.526C38.1699 113.363 37.6286 113.609 37.535 112.891C37.4415 112.172 37.5006 109.948 37.535 109.49C37.5695 109.032 37.6335 105.602 37.5104 104.524C37.3874 103.446 37.353 101.562 37.6679 100.774C39.1394 97.093 39.2575 96.0251 40.3599 92.4325C40.9751 90.4246 42.3334 85.5279 42.7714 79.6321C43.3176 72.255 46.4919 69.4646 46.5362 69.2825C47.0874 66.8514 46.2704 64.2825 46.482 58.6229C46.6543 53.9821 48.5835 53.1898 47.8108 47.7172C48.0273 44.5971 50.5864 41.3244 52.5156 40.9356V40.9258Z" fill="#825740"/>
<path fill-rule="evenodd" clip-rule="evenodd" d="M30.5418 55.2219C31.1472 55.7436 32.5596 56.3784 35.7732 56.1176C39.9613 55.778 43.3324 54.1786 44.484 53.5684C43.5637 54.2573 38.1453 56.905 34.6807 56.7672C31.093 56.6245 30.5418 55.2219 30.5418 55.2219Z" fill="#E0D0C4"/>
<path fill-rule="evenodd" clip-rule="evenodd" d="M32.2889 52.6631C32.2889 52.6631 33.1895 53.2438 33.7112 54.4643C33.8539 54.7989 33.9425 55.0991 33.9917 55.36C34.1492 55.3649 34.3165 55.3649 34.4887 55.3649C34.2525 54.4052 33.6767 53.1011 32.2889 52.6631Z" fill="#96664C"/>
<path fill-rule="evenodd" clip-rule="evenodd" d="M40.1778 52.3877C40.1778 52.3877 39.2477 52.7076 38.3717 53.4113C37.7664 53.8985 37.2398 54.7253 36.9543 55.247C37.1906 55.2175 37.4268 55.1879 37.6532 55.1535C38.0518 54.3661 38.8589 53.1013 40.1778 52.3877Z" fill="#96664C"/>
<path fill-rule="evenodd" clip-rule="evenodd" d="M35.4681 55.6358C35.2565 54.8189 34.848 53.8691 34.0901 53.0029C34.0901 53.0029 34.597 54.1939 34.6069 55.6703C34.8775 55.6654 35.163 55.6555 35.4681 55.6358V55.6358Z" fill="#5F3722"/>
<path fill-rule="evenodd" clip-rule="evenodd" d="M36.1226 34.9219C36.1226 34.9219 36.4474 35.6748 36.787 36.7969C38.8146 37.5646 40.1237 36.7182 42.3087 35.3697C43.6769 34.5282 44.5873 33.5291 45.1828 32.6728C45.2566 31.2456 45.4289 30.1826 45.4289 30.1826C45.4289 30.1826 39.73 35.04 36.1226 34.9219V34.9219Z" fill="#5F3722"/>
<path fill-rule="evenodd" clip-rule="evenodd" d="M45.5765 15.6942C48.6819 18.4649 48.3423 22.0624 47.5106 24.9119C46.6789 27.7663 46.1375 29.7151 45.6602 31.2309C45.1828 32.7467 45.0844 33.0321 42.8845 34.4347C40.6798 35.8373 38.8047 36.8412 37.3283 36.2408C35.8519 35.6404 34.5527 34.8382 33.8588 33.101C33.1649 31.3638 32.8549 29.8825 32.3135 28.4061C31.7722 26.9296 32.2446 26.5458 32.2348 24.9808C32.2249 23.4158 32.0576 23.342 31.9542 21.8607C31.8903 20.9896 31.5261 19.1047 33.219 16.8261C35.9848 13.0958 42.1709 12.6479 45.5814 15.6893L45.5765 15.6942Z" fill="#825740"/>
<path fill-rule="evenodd" clip-rule="evenodd" d="M47.5057 23.977C47.7321 23.8589 48.0273 23.7802 48.3423 23.8983C49.0018 24.1394 49.4594 25.414 48.6277 27.0528C47.801 28.6917 47.4171 29.4741 47.2202 29.7497C47.0381 30.0106 46.4131 30.2665 46.1375 29.607C46.4328 28.5391 46.7675 27.2054 47.3187 24.8924C47.3925 24.5823 47.4515 24.2821 47.5057 23.9819V23.977Z" fill="#825740"/>
<path fill-rule="evenodd" clip-rule="evenodd" d="M46.2852 29.8428C46.231 29.7837 46.1818 29.705 46.1375 29.6016C46.4328 28.5337 46.7675 27.2 47.3187 24.887C47.358 24.7147 47.3974 24.5474 47.4319 24.3801C47.6041 24.3161 47.8157 24.2718 48.0815 24.2816C48.8147 24.3112 48.859 25.7433 48.5933 26.388C48.3275 27.0327 48.3275 27.0327 48.3275 27.0327C48.3275 27.0327 48.5884 26.196 48.5244 25.4677C48.4653 24.7393 47.8403 24.7689 47.6779 24.9509C47.5106 25.133 47.235 25.6301 47.358 26.2256C47.4811 26.8211 47.3482 27.5593 47.0381 27.7561C46.7822 27.9185 46.3098 29.2177 46.2852 29.8428V29.8428Z" fill="#5F3722"/>
<path fill-rule="evenodd" clip-rule="evenodd" d="M32.6088 23.2979C32.6088 23.2979 33.1944 22.8107 33.7948 23.1748C34.3903 23.539 35.1679 24.479 35.3893 24.3806C35.6108 24.2772 35.5764 24.0164 35.0252 23.5144C34.474 23.0124 33.8096 22.5055 33.2141 22.7516C32.6186 22.9928 32.3283 23.48 32.6088 23.3028V23.2979Z" fill="#191716"/>
<path fill-rule="evenodd" clip-rule="evenodd" d="M38.0665 24.0707C38.0665 24.0707 38.598 24.4743 38.8687 24.1741C39.1394 23.8739 39.9219 23.0815 41.0046 22.8748C42.0873 22.6681 42.4613 23.0815 42.5745 23.2292C42.6877 23.3768 42.8353 23.2587 42.6188 22.9831C42.3973 22.7075 41.3688 22.2597 40.2565 22.6632C39.1443 23.0668 37.7959 23.613 38.0665 24.0707Z" fill="#191716"/>
<path fill-rule="evenodd" clip-rule="evenodd" d="M33.0616 24.8526C33.0616 24.8526 33.7161 24.3654 34.4248 24.636C35.1334 24.9067 35.3844 25.4776 35.3844 25.4776C35.3844 25.4776 34.6462 23.5632 33.0616 24.8526Z" fill="#5F3722"/>
<path fill-rule="evenodd" clip-rule="evenodd" d="M38.9967 25.2074C38.9967 25.2074 39.602 24.4988 40.6404 24.4889C41.6739 24.4791 42.3481 24.9368 42.3481 24.9368C42.3481 24.9368 41.7329 24.2182 40.4632 24.3314C39.1935 24.4446 39.0065 25.0795 38.9967 25.2074Z" fill="#5F3722"/>
<path fill-rule="evenodd" clip-rule="evenodd" d="M32.9926 25.5318C32.9926 25.5318 33.2092 25.9944 33.5783 26.1913C33.9523 26.3881 34.3411 26.3143 34.6659 26.2946C34.9858 26.2749 35.2319 26.3438 35.2319 26.3438C35.2319 26.3438 35.3106 26.4127 35.3697 26.2995C35.4287 26.1864 35.2663 26.1076 35.2663 26.1076C35.2663 26.1076 35.1088 25.3793 34.223 25.2218C33.3371 25.0643 33.1009 25.4826 32.9926 25.5318V25.5318Z" fill="white"/>
<path fill-rule="evenodd" clip-rule="evenodd" d="M39.0262 26.1965C39.0262 26.1965 38.913 26.3687 38.7998 26.2457C38.6866 26.1226 38.913 25.911 38.913 25.911C38.913 25.911 39.5233 25.1679 40.3943 25.0793C41.2605 24.9907 41.9839 25.4681 42.0971 25.4927C42.2103 25.5173 42.2398 25.5173 42.2152 25.5173C42.1857 25.5173 41.5853 26.2457 40.6945 26.3539C39.8038 26.4622 39.3313 26.098 39.0311 26.1965H39.0262Z" fill="white"/>
<path fill-rule="evenodd" clip-rule="evenodd" d="M35.6699 24.7793C35.6699 24.7793 36.0537 25.1976 36.0882 26.1425C36.1275 27.0874 35.8077 28.175 35.8077 28.175C35.8077 28.175 36.8904 25.1435 35.6699 24.7793V24.7793Z" fill="#5F3722"/>
<path fill-rule="evenodd" clip-rule="evenodd" d="M35.596 28.7061C35.596 28.7061 35.3598 28.8783 35.2909 29.2031C35.2269 29.528 35.3549 29.774 35.5271 29.8183C35.6994 29.8626 35.0055 29.3705 35.5911 28.7012L35.596 28.7061Z" fill="#5F3722"/>
<path fill-rule="evenodd" clip-rule="evenodd" d="M38.165 28.7847C38.165 28.7847 38.5144 28.9913 38.5095 29.3506C38.5045 29.7099 38.2683 29.8723 38.101 29.9362C37.9337 30.0002 38.4455 30.0101 38.5931 29.5327C38.7358 29.0504 38.3274 28.76 38.1699 28.7847H38.165Z" fill="#5F3722"/>
<path fill-rule="evenodd" clip-rule="evenodd" d="M35.5714 29.6018C35.5714 29.6018 35.7191 29.4492 35.9061 29.6264C36.0931 29.8036 36.2506 29.9906 36.6295 29.966C37.0085 29.9414 37.1561 29.7396 37.3874 29.6707C37.6138 29.6018 37.6581 29.9069 37.7811 29.8479C37.9041 29.7888 37.8057 29.3656 37.5154 29.4443C37.225 29.5181 36.9986 29.966 36.6344 29.966C36.2703 29.966 36.2014 29.8085 36.0291 29.6313C35.8569 29.4541 35.409 29.3311 35.5763 29.6018H35.5714Z" fill="#241714"/>
<path d="M36.8805 29.2873C36.9919 29.2873 37.0823 29.2256 37.0823 29.1495C37.0823 29.0734 36.9919 29.0117 36.8805 29.0117C36.7691 29.0117 36.6787 29.0734 36.6787 29.1495C36.6787 29.2256 36.7691 29.2873 36.8805 29.2873Z" fill="#A37055"/>
<path fill-rule="evenodd" clip-rule="evenodd" d="M35.0104 32.0426C35.0104 32.0426 34.6561 32.082 34.6167 31.8851C34.5773 31.6883 34.6954 31.7916 34.7988 31.8753C34.9021 31.9589 35.0252 31.9491 35.0399 31.8999C35.0547 31.8507 35.1777 31.142 35.8027 30.955C36.4277 30.7631 36.5114 31.019 36.6541 31.078C36.7919 31.1322 36.915 31.0485 36.9937 30.9747C37.0724 30.9009 37.5892 30.6253 38.2929 31.1174C38.9918 31.6145 39.2526 31.9491 39.3363 32.0082C39.4199 32.0672 39.5922 32.0278 39.5774 31.9196C39.5626 31.8113 39.7103 31.8113 39.7939 31.9196C39.8776 32.0278 39.4593 32.146 39.4593 32.146C39.4593 32.146 39.2083 33.0613 38.352 33.5682C37.5006 34.0751 36.285 34.0259 35.7929 33.6125C35.3008 33.1991 35.1285 32.2936 35.0055 32.0475L35.0104 32.0426Z" fill="#A65E53"/>
<path fill-rule="evenodd" clip-rule="evenodd" d="M36.8264 33.1991C36.8264 33.1991 37.3185 33.2926 37.7368 33.017C38.1551 32.7414 38.4898 32.6922 38.4996 32.9284C38.5144 33.1647 37.6679 33.3861 37.1217 33.3468C36.5754 33.3074 36.6738 33.1499 36.8215 33.1991H36.8264Z" fill="#D48579"/>
<path fill-rule="evenodd" clip-rule="evenodd" d="M35.2663 32.028C35.2663 32.028 35.6797 32.0674 35.9996 32.2741C36.3195 32.4808 36.9051 32.6678 37.3234 32.4906C37.7417 32.3085 38.0272 32.2347 38.3717 32.215C38.7211 32.2003 39.0754 32.1363 39.0754 32.1363C38.5439 32.156 37.6138 31.8361 36.7772 31.8459C36.1423 31.8508 35.8273 32.0575 35.2663 32.0329V32.028Z" fill="white"/>
<path fill-rule="evenodd" clip-rule="evenodd" d="M32.9926 25.5316C32.9926 25.5316 33.2092 25.9942 33.5783 26.191C33.9523 26.3879 34.3411 26.3141 34.6659 26.2944C34.9858 26.2747 35.2319 26.3436 35.2319 26.3436C35.2319 26.3436 35.2515 26.3583 35.2761 26.3633C35.1039 26.1024 34.223 26.3534 33.7259 26.1418C33.3519 25.9843 33.1354 25.6497 33.0468 25.4922C33.0271 25.5119 33.0074 25.5266 32.9926 25.5316Z" fill="#D4926F"/>
<path fill-rule="evenodd" clip-rule="evenodd" d="M39.0262 26.1961C39.0262 26.1961 38.9524 26.3043 38.8687 26.2896C39.0853 25.7925 40.0105 26.3732 40.7782 26.201C41.4032 26.0632 41.8757 25.6498 42.0479 25.4775C42.0676 25.4874 42.0824 25.4923 42.0922 25.4923C42.2054 25.5169 42.2349 25.5169 42.2103 25.5169C42.1808 25.5169 41.5804 26.2453 40.6896 26.3535C39.7989 26.4618 39.3264 26.0976 39.0262 26.1961Z" fill="#D4926F"/>
<path fill-rule="evenodd" clip-rule="evenodd" d="M38.8589 25.97C38.8884 25.9356 38.9081 25.9159 38.9081 25.9159C38.9081 25.9159 39.5183 25.1728 40.3894 25.0842C41.2556 24.9956 41.979 25.473 42.0922 25.4976C42.2054 25.5222 42.2349 25.5222 42.2103 25.5222C42.2005 25.5222 42.1316 25.596 42.0184 25.6994C40.4583 25.099 39.292 25.6846 38.8638 25.97H38.8589Z" fill="#ADA89F"/>
<path fill-rule="evenodd" clip-rule="evenodd" d="M32.9926 25.5318C32.9926 25.5318 33.0222 25.6007 33.0812 25.6942C33.4651 25.5465 34.5773 25.2414 35.3598 26.3192C35.3647 26.3143 35.3647 26.3094 35.3697 26.3044C35.4287 26.1912 35.2663 26.1125 35.2663 26.1125C35.2663 26.1125 35.1088 25.3841 34.223 25.2267C33.3371 25.0692 33.1009 25.4875 32.9926 25.5367V25.5318Z" fill="#ADA89F"/>
<path fill-rule="evenodd" clip-rule="evenodd" d="M34.9907 25.6159C34.8332 25.4486 34.5921 25.2862 34.2279 25.2222C34.0606 25.1927 33.9178 25.1828 33.7948 25.1877C33.7308 25.2911 33.6915 25.4092 33.6915 25.5371C33.6915 25.8964 33.9818 26.1917 34.346 26.1917C34.6807 26.1917 34.9563 25.9407 34.9956 25.6159H34.9907Z" fill="#9FABAB"/>
<path fill-rule="evenodd" clip-rule="evenodd" d="M39.9662 25.1825C40.0991 25.1333 40.2418 25.0989 40.3894 25.0841C40.6306 25.0595 40.8619 25.0792 41.0735 25.1185C41.1571 25.2317 41.2064 25.3695 41.2064 25.5221C41.2064 25.8912 40.9062 26.1914 40.5371 26.1914C40.168 26.1914 39.8678 25.8912 39.8678 25.5221C39.8678 25.3991 39.9022 25.2809 39.9613 25.1825H39.9662Z" fill="#9FABAB"/>
<path d="M40.5371 25.8022C40.692 25.8022 40.8176 25.6767 40.8176 25.5217C40.8176 25.3668 40.692 25.2412 40.5371 25.2412C40.3821 25.2412 40.2565 25.3668 40.2565 25.5217C40.2565 25.6767 40.3821 25.8022 40.5371 25.8022Z" fill="#191716"/>
<path d="M34.3411 25.8178C34.4933 25.8178 34.6167 25.6944 34.6167 25.5422C34.6167 25.39 34.4933 25.2666 34.3411 25.2666C34.1889 25.2666 34.0655 25.39 34.0655 25.5422C34.0655 25.6944 34.1889 25.8178 34.3411 25.8178Z" fill="#191716"/>
<path fill-rule="evenodd" clip-rule="evenodd" d="M32.6383 25.3402C32.6383 25.3402 32.7712 25.478 32.8647 25.5223C32.9631 25.5666 33.0074 25.5617 33.0074 25.5617C33.0074 25.5617 33.4306 25.1483 34.2082 25.296C34.9858 25.4485 35.2712 26.108 35.2712 26.108C35.2712 26.108 35.1088 25.1483 34.2279 24.9416C33.3421 24.7349 32.8598 25.3747 32.6383 25.3353V25.3402Z" fill="#191716"/>
<path fill-rule="evenodd" clip-rule="evenodd" d="M38.7949 26.0688C38.7949 26.0688 39.0557 25.6554 39.73 25.3945C40.4042 25.1337 40.9012 25.1436 41.4229 25.3207C41.9446 25.4979 42.1513 25.6209 42.3678 25.5028C42.5892 25.3847 42.5942 25.2371 42.5942 25.2371C42.5942 25.2371 42.4859 25.3207 42.3481 25.2617C42.2103 25.2026 39.6364 23.9772 38.79 26.0688H38.7949Z" fill="#191716"/>
<path d="M33.8588 25.8272C33.9648 25.8272 34.0507 25.7413 34.0507 25.6353C34.0507 25.5293 33.9648 25.4434 33.8588 25.4434C33.7528 25.4434 33.6669 25.5293 33.6669 25.6353C33.6669 25.7413 33.7528 25.8272 33.8588 25.8272Z" fill="white"/>
<path d="M39.9416 25.8272C40.0476 25.8272 40.1335 25.7413 40.1335 25.6353C40.1335 25.5293 40.0476 25.4434 39.9416 25.4434C39.8356 25.4434 39.7496 25.5293 39.7496 25.6353C39.7496 25.7413 39.8356 25.8272 39.9416 25.8272Z" fill="white"/>
</svg>
