<svg width="85" height="212" viewBox="0 0 85 212" fill="none" xmlns="http://www.w3.org/2000/svg">
<path fill-rule="evenodd" clip-rule="evenodd" d="M35.6758 18.3584H49.6576V24.0219H35.6758V18.3584Z" fill="#825740"/>
<path fill-rule="evenodd" clip-rule="evenodd" d="M44.9877 20.877C44.9877 20.877 44.2594 21.4693 44.1437 22.0819C44.0279 22.6877 44.7223 23.103 45.1988 23.2731C45.6753 23.4433 44.3819 23.0009 44.4296 22.2589C44.4772 21.5169 45.6548 20.7273 45.8046 20.6184C45.9544 20.5095 45.5119 20.4005 44.9877 20.877Z" fill="#5F3722"/>
<path fill-rule="evenodd" clip-rule="evenodd" d="M41.1348 21.3125C41.1348 21.3125 41.727 21.9183 41.6385 22.5446C41.5432 23.164 40.5562 23.5997 40.5562 23.5997C40.5562 23.5997 41.8495 22.9666 41.1416 21.3125H41.1348Z" fill="#5F3722"/>
<path fill-rule="evenodd" clip-rule="evenodd" d="M36.2202 20.7475C36.2202 20.7475 38.4802 20.2847 39.7123 20.4412C40.9443 20.5978 41.2983 20.9518 41.4617 20.7884C41.6251 20.625 41.0669 20.1145 39.9709 19.8354C38.344 19.4134 37.6905 19.6584 36.3972 20.3868C36.1521 20.5229 36.0705 20.7612 36.227 20.7544L36.2202 20.7475Z" fill="#191716"/>
<path fill-rule="evenodd" clip-rule="evenodd" d="M36.8398 21.8024C36.8398 21.8024 37.786 21.1422 38.9705 21.1626C40.1549 21.183 40.6042 21.4961 40.5769 21.5914C40.5497 21.6799 40.3319 21.5029 39.8826 21.3464C39.4402 21.1898 38.9024 21.1217 38.3306 21.2579C37.7656 21.394 37.0849 21.8705 36.8398 21.8092V21.8024Z" fill="#5F3722"/>
<path fill-rule="evenodd" clip-rule="evenodd" d="M37.6499 21.7616C37.6499 21.7616 38.3374 21.1966 39.0113 21.2375C39.9098 21.2919 40.6382 21.9931 40.5973 21.9931C40.5973 21.9931 40.9513 22.2721 40.9173 22.3674C40.8628 22.5444 40.4612 22.2721 40.4612 22.2721C40.4408 22.2721 39.5491 22.4968 38.7526 22.4151C37.9562 22.3334 37.6907 21.8297 37.6431 21.7616H37.6499Z" fill="white"/>
<path fill-rule="evenodd" clip-rule="evenodd" d="M37.7109 22.4902C37.7109 22.4902 37.99 22.8987 38.9226 22.8919C39.8552 22.885 40.2568 22.5583 40.284 22.64C40.2908 22.674 40.2023 22.7829 39.8552 22.8578C39.2289 22.994 38.1126 23.0484 37.7109 22.4902Z" fill="#452615"/>
<path fill-rule="evenodd" clip-rule="evenodd" d="M37.6499 21.7614C37.6499 21.7614 37.6839 21.7342 37.7452 21.6934C37.8337 21.8908 38.1264 22.3468 38.9432 22.3945C39.7873 22.4421 40.3659 22.1767 40.5905 21.9793C40.5973 21.9861 40.5973 21.9929 40.5973 21.9929C40.5973 21.9929 40.9513 22.272 40.9173 22.3673C40.8628 22.5442 40.4612 22.272 40.4612 22.272C40.4408 22.272 39.5491 22.4966 38.7526 22.4149C37.9562 22.3332 37.6907 21.8295 37.6431 21.7614H37.6499Z" fill="#D4926F"/>
<path fill-rule="evenodd" clip-rule="evenodd" d="M37.6499 21.7616C37.6499 21.7616 38.3374 21.1966 39.0113 21.2375C39.8486 21.2851 40.5361 21.9046 40.5906 21.9862C40.1821 21.7276 39.5831 21.4485 39.0113 21.4417C38.2898 21.4349 37.8745 21.7412 37.7248 21.8841C37.6839 21.8297 37.6567 21.7888 37.6499 21.7684V21.7616Z" fill="#ADA89F"/>
<path fill-rule="evenodd" clip-rule="evenodd" d="M38.4259 21.3265C38.6097 21.2652 38.8139 21.2244 39.0113 21.2312C39.2223 21.2448 39.4197 21.2925 39.6035 21.3537C39.6512 21.449 39.6784 21.5579 39.6716 21.6737C39.658 22.0413 39.3517 22.3272 38.9841 22.3135C38.6165 22.2999 38.3306 21.9936 38.3442 21.626C38.351 21.5171 38.3783 21.415 38.4327 21.3265H38.4259Z" fill="#7FBAC9"/>
<path fill-rule="evenodd" clip-rule="evenodd" d="M39.0179 21.3469C39.1881 21.3537 39.3243 21.4967 39.3174 21.6669C39.3106 21.837 39.1677 21.9732 38.9975 21.9664C38.8273 21.9596 38.6912 21.8166 38.698 21.6464C38.7048 21.4763 38.8478 21.3401 39.0179 21.3469Z" fill="#191716"/>
<path fill-rule="evenodd" clip-rule="evenodd" d="M38.8274 21.3877C38.9227 21.3945 38.9908 21.4694 38.9908 21.5579C38.984 21.6532 38.9091 21.7212 38.8206 21.7212C38.7253 21.7144 38.6572 21.6396 38.6572 21.5511C38.664 21.4558 38.7389 21.3877 38.8274 21.3877Z" fill="white"/>
<path fill-rule="evenodd" clip-rule="evenodd" d="M37.0303 21.8771C37.0303 21.8771 37.4047 21.918 37.5408 21.8703C37.6838 21.8227 38.3168 21.2917 39.0043 21.2917C39.6919 21.2917 40.3794 21.8091 40.4679 21.8635C40.5564 21.918 40.2909 21.6525 40.0254 21.4891C39.7599 21.3326 39.2154 21.0671 38.453 21.2577C37.6906 21.4551 37.5136 21.8091 37.0303 21.8703V21.8771Z" fill="#191716"/>
<path fill-rule="evenodd" clip-rule="evenodd" d="M49.4262 20.7475C49.4262 20.7475 47.1663 20.2847 45.9342 20.4412C44.7021 20.5978 44.3481 20.9518 44.1848 20.7884C44.0214 20.625 44.5796 20.1145 45.6755 19.8354C47.3024 19.4134 47.9559 19.6584 49.2492 20.3868C49.4943 20.5229 49.576 20.7612 49.4194 20.7544L49.4262 20.7475Z" fill="#191716"/>
<path fill-rule="evenodd" clip-rule="evenodd" d="M48.8135 21.8024C48.8135 21.8024 47.8673 21.1422 46.6828 21.1626C45.4984 21.183 45.0491 21.4961 45.0764 21.5914C45.1036 21.6799 45.3214 21.5029 45.7707 21.3464C46.2131 21.1898 46.7509 21.1217 47.3227 21.2579C47.8877 21.394 48.5684 21.8705 48.8135 21.8092V21.8024Z" fill="#5F3722"/>
<path fill-rule="evenodd" clip-rule="evenodd" d="M48.0036 21.7616C48.0036 21.7616 47.3161 21.1966 46.6422 21.2375C45.7436 21.2919 45.0153 21.9931 45.0561 21.9931C45.0561 21.9931 44.7022 22.2721 44.7362 22.3674C44.7906 22.5444 45.1923 22.2721 45.1923 22.2721C45.2127 22.2721 46.1044 22.4968 46.9009 22.4151C47.6973 22.3334 47.9628 21.8297 48.0104 21.7616H48.0036Z" fill="white"/>
<path fill-rule="evenodd" clip-rule="evenodd" d="M47.9421 22.4902C47.9421 22.4902 47.663 22.8987 46.7304 22.8919C45.7979 22.885 45.3962 22.5583 45.369 22.64C45.3622 22.674 45.4507 22.7829 45.7979 22.8578C46.4241 22.994 47.5405 23.0484 47.9421 22.4902Z" fill="#5F3722"/>
<path fill-rule="evenodd" clip-rule="evenodd" d="M48.0036 21.7614C48.0036 21.7614 47.9696 21.7342 47.9083 21.6934C47.8198 21.8908 47.5271 22.3468 46.7102 22.3945C45.8662 22.4421 45.2876 22.1767 45.0629 21.9793C45.0561 21.9861 45.0561 21.9929 45.0561 21.9929C45.0561 21.9929 44.7022 22.272 44.7362 22.3673C44.7906 22.5442 45.1923 22.272 45.1923 22.272C45.2127 22.272 46.1044 22.4966 46.9009 22.4149C47.6973 22.3332 47.9628 21.8295 48.0104 21.7614H48.0036Z" fill="#D4926F"/>
<path fill-rule="evenodd" clip-rule="evenodd" d="M48.0037 21.7616C48.0037 21.7616 47.3161 21.1966 46.6422 21.2375C45.805 21.2851 45.1174 21.9046 45.063 21.9862C45.4714 21.7276 46.0704 21.4485 46.6422 21.4417C47.3638 21.4349 47.779 21.7412 47.9288 21.8841C47.9696 21.8297 47.9968 21.7888 48.0037 21.7684V21.7616Z" fill="#ADA89F"/>
<path fill-rule="evenodd" clip-rule="evenodd" d="M47.2209 21.3265C47.0371 21.2652 46.8328 21.2244 46.6354 21.2312C46.4244 21.2448 46.227 21.2925 46.0432 21.3537C45.9956 21.449 45.9683 21.5579 45.9752 21.6737C45.9888 22.0413 46.2951 22.3272 46.6627 22.3135C47.0303 22.2999 47.3162 21.9936 47.3025 21.626C47.2957 21.5171 47.2685 21.415 47.214 21.3265H47.2209Z" fill="#7FBAC9"/>
<path fill-rule="evenodd" clip-rule="evenodd" d="M46.6352 21.3469C46.465 21.3537 46.3289 21.4967 46.3357 21.6669C46.3425 21.837 46.4855 21.9732 46.6556 21.9664C46.8258 21.9596 46.9619 21.8166 46.9551 21.6464C46.9483 21.4763 46.8054 21.3401 46.6352 21.3469Z" fill="#191716"/>
<path fill-rule="evenodd" clip-rule="evenodd" d="M46.4309 21.3877C46.3356 21.3945 46.2676 21.4694 46.2676 21.5579C46.2744 21.6532 46.3493 21.7212 46.4378 21.7212C46.5331 21.7144 46.6011 21.6396 46.6011 21.5511C46.5943 21.4558 46.5194 21.3877 46.4309 21.3877Z" fill="white"/>
<path fill-rule="evenodd" clip-rule="evenodd" d="M48.6161 21.8771C48.6161 21.8771 48.2417 21.918 48.1055 21.8703C47.9626 21.8227 47.3295 21.2917 46.642 21.2917C45.9545 21.2917 45.267 21.8091 45.1785 21.8635C45.09 21.918 45.3555 21.6525 45.621 21.4891C45.8864 21.3326 46.431 21.0671 47.1934 21.2577C47.9558 21.4551 48.1328 21.8091 48.6161 21.8703V21.8771Z" fill="#191716"/>
</svg>
