<svg width="85" height="212" viewBox="0 0 85 212" fill="none" xmlns="http://www.w3.org/2000/svg">
<path fill-rule="evenodd" clip-rule="evenodd" d="M35.3423 18.3584H49.3241V24.0219H35.3423V18.3584Z" fill="#825740"/>
<path fill-rule="evenodd" clip-rule="evenodd" d="M44.6542 20.877C44.6542 20.877 43.9259 21.4693 43.8102 22.0819C43.6944 22.6877 44.3888 23.103 44.8653 23.2731C45.3418 23.4433 44.0484 23.0009 44.0961 22.2589C44.1437 21.5169 45.3213 20.7273 45.4711 20.6184C45.6209 20.5095 45.1784 20.4005 44.6542 20.877Z" fill="#5F3722"/>
<path fill-rule="evenodd" clip-rule="evenodd" d="M40.8013 21.3125C40.8013 21.3125 41.3935 21.9183 41.305 22.5446C41.2097 23.164 40.2227 23.5997 40.2227 23.5997C40.2227 23.5997 41.516 22.9666 40.8081 21.3125H40.8013Z" fill="#5F3722"/>
<path fill-rule="evenodd" clip-rule="evenodd" d="M35.8867 20.7475C35.8867 20.7475 38.1467 20.2847 39.3788 20.4412C40.6108 20.5978 40.9648 20.9518 41.1282 20.7884C41.2916 20.625 40.7334 20.1145 39.6374 19.8354C38.0105 19.4134 37.3571 19.6584 36.0637 20.3868C35.8186 20.5229 35.737 20.7612 35.8935 20.7544L35.8867 20.7475Z" fill="#191716"/>
<path fill-rule="evenodd" clip-rule="evenodd" d="M36.5063 21.8024C36.5063 21.8024 37.4525 21.1422 38.637 21.1626C39.8214 21.183 40.2707 21.4961 40.2434 21.5914C40.2162 21.6799 39.9984 21.5029 39.5491 21.3464C39.1067 21.1898 38.5689 21.1217 37.9971 21.2579C37.4321 21.394 36.7514 21.8705 36.5063 21.8092V21.8024Z" fill="#5F3722"/>
<path fill-rule="evenodd" clip-rule="evenodd" d="M37.3164 21.7616C37.3164 21.7616 38.0039 21.1966 38.6778 21.2375C39.5763 21.2919 40.3047 21.9931 40.2639 21.9931C40.2639 21.9931 40.6178 22.2721 40.5838 22.3674C40.5293 22.5444 40.1277 22.2721 40.1277 22.2721C40.1073 22.2721 39.2156 22.4968 38.4191 22.4151C37.6227 22.3334 37.3572 21.8297 37.3096 21.7616H37.3164Z" fill="white"/>
<path fill-rule="evenodd" clip-rule="evenodd" d="M37.3774 22.4902C37.3774 22.4902 37.6565 22.8987 38.5891 22.8919C39.5217 22.885 39.9233 22.5583 39.9505 22.64C39.9573 22.674 39.8688 22.7829 39.5217 22.8578C38.8954 22.994 37.7791 23.0484 37.3774 22.4902Z" fill="#452615"/>
<path fill-rule="evenodd" clip-rule="evenodd" d="M37.3164 21.7614C37.3164 21.7614 37.3504 21.7342 37.4117 21.6934C37.5002 21.8908 37.7929 22.3468 38.6097 22.3945C39.4538 22.4421 40.0324 22.1767 40.257 21.9793C40.2638 21.9861 40.2639 21.9929 40.2639 21.9929C40.2639 21.9929 40.6178 22.272 40.5838 22.3673C40.5293 22.5442 40.1277 22.272 40.1277 22.272C40.1073 22.272 39.2156 22.4966 38.4191 22.4149C37.6227 22.3332 37.3572 21.8295 37.3096 21.7614H37.3164Z" fill="#D4926F"/>
<path fill-rule="evenodd" clip-rule="evenodd" d="M37.3164 21.7616C37.3164 21.7616 38.0039 21.1966 38.6778 21.2375C39.5151 21.2851 40.2026 21.9046 40.2571 21.9862C39.8486 21.7276 39.2496 21.4485 38.6778 21.4417C37.9563 21.4349 37.541 21.7412 37.3913 21.8841C37.3504 21.8297 37.3232 21.7888 37.3164 21.7684V21.7616Z" fill="#ADA89F"/>
<path fill-rule="evenodd" clip-rule="evenodd" d="M38.0924 21.3265C38.2762 21.2652 38.4804 21.2244 38.6778 21.2312C38.8888 21.2448 39.0862 21.2925 39.27 21.3537C39.3177 21.449 39.3449 21.5579 39.3381 21.6737C39.3245 22.0413 39.0182 22.3272 38.6506 22.3135C38.283 22.2999 37.9971 21.9936 38.0107 21.626C38.0175 21.5171 38.0448 21.415 38.0992 21.3265H38.0924Z" fill="#BD9259"/>
<path fill-rule="evenodd" clip-rule="evenodd" d="M38.6844 21.3469C38.8546 21.3537 38.9908 21.4967 38.9839 21.6669C38.9771 21.837 38.8342 21.9732 38.664 21.9664C38.4938 21.9596 38.3577 21.8166 38.3645 21.6464C38.3713 21.4763 38.5143 21.3401 38.6844 21.3469Z" fill="#191716"/>
<path fill-rule="evenodd" clip-rule="evenodd" d="M38.4939 21.3877C38.5892 21.3945 38.6573 21.4694 38.6573 21.5579C38.6505 21.6532 38.5756 21.7212 38.4871 21.7212C38.3918 21.7144 38.3237 21.6396 38.3237 21.5511C38.3305 21.4558 38.4054 21.3877 38.4939 21.3877Z" fill="white"/>
<path fill-rule="evenodd" clip-rule="evenodd" d="M36.6968 21.8771C36.6968 21.8771 37.0712 21.918 37.2073 21.8703C37.3503 21.8227 37.9833 21.2917 38.6708 21.2917C39.3584 21.2917 40.0459 21.8091 40.1344 21.8635C40.2229 21.918 39.9574 21.6525 39.6919 21.4891C39.4264 21.3326 38.8819 21.0671 38.1195 21.2577C37.3571 21.4551 37.1801 21.8091 36.6968 21.8703V21.8771Z" fill="#191716"/>
<path fill-rule="evenodd" clip-rule="evenodd" d="M49.0927 20.7475C49.0927 20.7475 46.8328 20.2847 45.6007 20.4412C44.3686 20.5978 44.0146 20.9518 43.8513 20.7884C43.6879 20.625 44.2461 20.1145 45.342 19.8354C46.9689 19.4134 47.6224 19.6584 48.9157 20.3868C49.1608 20.5229 49.2425 20.7612 49.0859 20.7544L49.0927 20.7475Z" fill="#191716"/>
<path fill-rule="evenodd" clip-rule="evenodd" d="M48.48 21.8024C48.48 21.8024 47.5338 21.1422 46.3493 21.1626C45.1649 21.183 44.7156 21.4961 44.7429 21.5914C44.7701 21.6799 44.9879 21.5029 45.4372 21.3464C45.8796 21.1898 46.4174 21.1217 46.9892 21.2579C47.5542 21.394 48.2349 21.8705 48.48 21.8092V21.8024Z" fill="#5F3722"/>
<path fill-rule="evenodd" clip-rule="evenodd" d="M47.6701 21.7616C47.6701 21.7616 46.9826 21.1966 46.3087 21.2375C45.4101 21.2919 44.6818 21.9931 44.7226 21.9931C44.7226 21.9931 44.3687 22.2721 44.4027 22.3674C44.4572 22.5444 44.8588 22.2721 44.8588 22.2721C44.8792 22.2721 45.7709 22.4968 46.5674 22.4151C47.3638 22.3334 47.6293 21.8297 47.6769 21.7616H47.6701Z" fill="white"/>
<path fill-rule="evenodd" clip-rule="evenodd" d="M47.6086 22.4902C47.6086 22.4902 47.3295 22.8987 46.3969 22.8919C45.4644 22.885 45.0627 22.5583 45.0355 22.64C45.0287 22.674 45.1172 22.7829 45.4644 22.8578C46.0906 22.994 47.207 23.0484 47.6086 22.4902Z" fill="#5F3722"/>
<path fill-rule="evenodd" clip-rule="evenodd" d="M47.6701 21.7614C47.6701 21.7614 47.6361 21.7342 47.5748 21.6934C47.4863 21.8908 47.1936 22.3468 46.3768 22.3945C45.5327 22.4421 44.9541 22.1767 44.7294 21.9793C44.7226 21.9861 44.7226 21.9929 44.7226 21.9929C44.7226 21.9929 44.3687 22.272 44.4027 22.3673C44.4572 22.5442 44.8588 22.272 44.8588 22.272C44.8792 22.272 45.7709 22.4966 46.5674 22.4149C47.3638 22.3332 47.6293 21.8295 47.6769 21.7614H47.6701Z" fill="#D4926F"/>
<path fill-rule="evenodd" clip-rule="evenodd" d="M47.6702 21.7616C47.6702 21.7616 46.9826 21.1966 46.3087 21.2375C45.4715 21.2851 44.7839 21.9046 44.7295 21.9862C45.1379 21.7276 45.7369 21.4485 46.3087 21.4417C47.0303 21.4349 47.4455 21.7412 47.5953 21.8841C47.6361 21.8297 47.6634 21.7888 47.6702 21.7684V21.7616Z" fill="#ADA89F"/>
<path fill-rule="evenodd" clip-rule="evenodd" d="M46.8874 21.3265C46.7036 21.2652 46.4994 21.2244 46.3019 21.2312C46.0909 21.2448 45.8935 21.2925 45.7097 21.3537C45.6621 21.449 45.6349 21.5579 45.6417 21.6737C45.6553 22.0413 45.9616 22.3272 46.3292 22.3135C46.6968 22.2999 46.9827 21.9936 46.969 21.626C46.9622 21.5171 46.935 21.415 46.8806 21.3265H46.8874Z" fill="#BD9259"/>
<path fill-rule="evenodd" clip-rule="evenodd" d="M46.3017 21.3469C46.1315 21.3537 45.9954 21.4967 46.0022 21.6669C46.009 21.837 46.152 21.9732 46.3221 21.9664C46.4923 21.9596 46.6284 21.8166 46.6216 21.6464C46.6148 21.4763 46.4719 21.3401 46.3017 21.3469Z" fill="#191716"/>
<path fill-rule="evenodd" clip-rule="evenodd" d="M46.0975 21.3877C46.0022 21.3945 45.9341 21.4694 45.9341 21.5579C45.9409 21.6532 46.0158 21.7212 46.1043 21.7212C46.1996 21.7144 46.2676 21.6396 46.2676 21.5511C46.2608 21.4558 46.1859 21.3877 46.0975 21.3877Z" fill="white"/>
<path fill-rule="evenodd" clip-rule="evenodd" d="M48.2826 21.8771C48.2826 21.8771 47.9082 21.918 47.772 21.8703C47.6291 21.8227 46.996 21.2917 46.3085 21.2917C45.621 21.2917 44.9335 21.8091 44.845 21.8635C44.7565 21.918 45.022 21.6525 45.2875 21.4891C45.5529 21.3326 46.0975 21.0671 46.8599 21.2577C47.6223 21.4551 47.7993 21.8091 48.2826 21.8703V21.8771Z" fill="#191716"/>
</svg>
