<svg width="86" height="212" viewBox="0 0 86 212" fill="none" xmlns="http://www.w3.org/2000/svg">
<path fill-rule="evenodd" clip-rule="evenodd" d="M36.0093 18.3584H49.9911V24.0219H36.0093V18.3584Z" fill="#825740"/>
<path fill-rule="evenodd" clip-rule="evenodd" d="M45.3212 20.877C45.3212 20.877 44.5929 21.4693 44.4772 22.0819C44.3614 22.6877 45.0558 23.103 45.5323 23.2731C46.0088 23.4433 44.7154 23.0009 44.7631 22.2589C44.8107 21.5169 45.9883 20.7273 46.1381 20.6184C46.2878 20.5095 45.8454 20.4005 45.3212 20.877Z" fill="#5F3722"/>
<path fill-rule="evenodd" clip-rule="evenodd" d="M41.4683 21.3125C41.4683 21.3125 42.0605 21.9183 41.972 22.5446C41.8767 23.164 40.8896 23.5997 40.8896 23.5997C40.8896 23.5997 42.183 22.9666 41.4751 21.3125H41.4683Z" fill="#5F3722"/>
<path fill-rule="evenodd" clip-rule="evenodd" d="M36.5537 20.7475C36.5537 20.7475 38.8137 20.2847 40.0458 20.4412C41.2778 20.5978 41.6318 20.9518 41.7952 20.7884C41.9585 20.625 41.4004 20.1145 40.3044 19.8354C38.6775 19.4134 38.024 19.6584 36.7307 20.3868C36.4856 20.5229 36.404 20.7612 36.5605 20.7544L36.5537 20.7475Z" fill="#191716"/>
<path fill-rule="evenodd" clip-rule="evenodd" d="M37.1733 21.8024C37.1733 21.8024 38.1195 21.1422 39.304 21.1626C40.4884 21.183 40.9377 21.4961 40.9104 21.5914C40.8832 21.6799 40.6654 21.5029 40.2161 21.3464C39.7736 21.1898 39.2359 21.1217 38.6641 21.2579C38.0991 21.394 37.4184 21.8705 37.1733 21.8092V21.8024Z" fill="#5F3722"/>
<path fill-rule="evenodd" clip-rule="evenodd" d="M37.9834 21.7616C37.9834 21.7616 38.6709 21.1966 39.3448 21.2375C40.2433 21.2919 40.9717 21.9931 40.9308 21.9931C40.9308 21.9931 41.2848 22.2721 41.2508 22.3674C41.1963 22.5444 40.7947 22.2721 40.7947 22.2721C40.7743 22.2721 39.8825 22.4968 39.0861 22.4151C38.2897 22.3334 38.0242 21.8297 37.9766 21.7616H37.9834Z" fill="white"/>
<path fill-rule="evenodd" clip-rule="evenodd" d="M38.0444 22.4902C38.0444 22.4902 38.3235 22.8987 39.2561 22.8919C40.1887 22.885 40.5903 22.5583 40.6175 22.64C40.6243 22.674 40.5358 22.7829 40.1887 22.8578C39.5624 22.994 38.4461 23.0484 38.0444 22.4902Z" fill="#452615"/>
<path fill-rule="evenodd" clip-rule="evenodd" d="M37.9834 21.7614C37.9834 21.7614 38.0174 21.7342 38.0787 21.6934C38.1672 21.8908 38.4599 22.3468 39.2767 22.3945C40.1208 22.4421 40.6994 22.1767 40.924 21.9793C40.9308 21.9861 40.9308 21.9929 40.9308 21.9929C40.9308 21.9929 41.2848 22.272 41.2508 22.3673C41.1963 22.5442 40.7947 22.272 40.7947 22.272C40.7743 22.272 39.8825 22.4966 39.0861 22.4149C38.2897 22.3332 38.0242 21.8295 37.9766 21.7614H37.9834Z" fill="#D4926F"/>
<path fill-rule="evenodd" clip-rule="evenodd" d="M37.9834 21.7616C37.9834 21.7616 38.6709 21.1966 39.3448 21.2375C40.1821 21.2851 40.8696 21.9046 40.9241 21.9862C40.5156 21.7276 39.9166 21.4485 39.3448 21.4417C38.6233 21.4349 38.208 21.7412 38.0583 21.8841C38.0174 21.8297 37.9902 21.7888 37.9834 21.7684V21.7616Z" fill="#ADA89F"/>
<path fill-rule="evenodd" clip-rule="evenodd" d="M38.7594 21.3265C38.9432 21.2652 39.1474 21.2244 39.3448 21.2312C39.5558 21.2448 39.7532 21.2925 39.937 21.3537C39.9847 21.449 40.0119 21.5579 40.0051 21.6737C39.9915 22.0413 39.6852 22.3272 39.3176 22.3135C38.95 22.2999 38.6641 21.9936 38.6777 21.626C38.6845 21.5171 38.7117 21.415 38.7662 21.3265H38.7594Z" fill="#82B52F"/>
<path fill-rule="evenodd" clip-rule="evenodd" d="M39.3514 21.3469C39.5216 21.3537 39.6577 21.4967 39.6509 21.6669C39.6441 21.837 39.5012 21.9732 39.331 21.9664C39.1608 21.9596 39.0247 21.8166 39.0315 21.6464C39.0383 21.4763 39.1813 21.3401 39.3514 21.3469Z" fill="#191716"/>
<path fill-rule="evenodd" clip-rule="evenodd" d="M39.1609 21.3877C39.2562 21.3945 39.3243 21.4694 39.3243 21.5579C39.3175 21.6532 39.2426 21.7212 39.1541 21.7212C39.0588 21.7144 38.9907 21.6396 38.9907 21.5511C38.9975 21.4558 39.0724 21.3877 39.1609 21.3877Z" fill="white"/>
<path fill-rule="evenodd" clip-rule="evenodd" d="M37.3638 21.8771C37.3638 21.8771 37.7382 21.918 37.8743 21.8703C38.0173 21.8227 38.6503 21.2917 39.3378 21.2917C40.0253 21.2917 40.7129 21.8091 40.8014 21.8635C40.8898 21.918 40.6244 21.6525 40.3589 21.4891C40.0934 21.3326 39.5488 21.0671 38.7865 21.2577C38.0241 21.4551 37.8471 21.8091 37.3638 21.8703V21.8771Z" fill="#191716"/>
<path fill-rule="evenodd" clip-rule="evenodd" d="M49.7597 20.7475C49.7597 20.7475 47.4998 20.2847 46.2677 20.4412C45.0356 20.5978 44.6816 20.9518 44.5182 20.7884C44.3549 20.625 44.9131 20.1145 46.009 19.8354C47.6359 19.4134 48.2894 19.6584 49.5827 20.3868C49.8278 20.5229 49.9095 20.7612 49.7529 20.7544L49.7597 20.7475Z" fill="#191716"/>
<path fill-rule="evenodd" clip-rule="evenodd" d="M49.1469 21.8024C49.1469 21.8024 48.2008 21.1422 47.0163 21.1626C45.8319 21.183 45.3826 21.4961 45.4099 21.5914C45.4371 21.6799 45.6549 21.5029 46.1042 21.3464C46.5466 21.1898 47.0844 21.1217 47.6562 21.2579C48.2212 21.394 48.9019 21.8705 49.1469 21.8092V21.8024Z" fill="#5F3722"/>
<path fill-rule="evenodd" clip-rule="evenodd" d="M48.3371 21.7616C48.3371 21.7616 47.6496 21.1966 46.9757 21.2375C46.0771 21.2919 45.3488 21.9931 45.3896 21.9931C45.3896 21.9931 45.0357 22.2721 45.0697 22.3674C45.1241 22.5444 45.5258 22.2721 45.5258 22.2721C45.5462 22.2721 46.4379 22.4968 47.2343 22.4151C48.0308 22.3334 48.2963 21.8297 48.3439 21.7616H48.3371Z" fill="white"/>
<path fill-rule="evenodd" clip-rule="evenodd" d="M48.2756 22.4902C48.2756 22.4902 47.9965 22.8987 47.0639 22.8919C46.1314 22.885 45.7297 22.5583 45.7025 22.64C45.6957 22.674 45.7842 22.7829 46.1314 22.8578C46.7576 22.994 47.874 23.0484 48.2756 22.4902Z" fill="#5F3722"/>
<path fill-rule="evenodd" clip-rule="evenodd" d="M48.3371 21.7614C48.3371 21.7614 48.3031 21.7342 48.2418 21.6934C48.1533 21.8908 47.8606 22.3468 47.0437 22.3945C46.1997 22.4421 45.6211 22.1767 45.3964 21.9793C45.3896 21.9861 45.3896 21.9929 45.3896 21.9929C45.3896 21.9929 45.0357 22.272 45.0697 22.3673C45.1241 22.5442 45.5258 22.272 45.5258 22.272C45.5462 22.272 46.4379 22.4966 47.2343 22.4149C48.0308 22.3332 48.2963 21.8295 48.3439 21.7614H48.3371Z" fill="#D4926F"/>
<path fill-rule="evenodd" clip-rule="evenodd" d="M48.3372 21.7616C48.3372 21.7616 47.6496 21.1966 46.9757 21.2375C46.1385 21.2851 45.4509 21.9046 45.3965 21.9862C45.8049 21.7276 46.4039 21.4485 46.9757 21.4417C47.6973 21.4349 48.1125 21.7412 48.2623 21.8841C48.3031 21.8297 48.3303 21.7888 48.3372 21.7684V21.7616Z" fill="#ADA89F"/>
<path fill-rule="evenodd" clip-rule="evenodd" d="M47.5543 21.3265C47.3706 21.2652 47.1663 21.2244 46.9689 21.2312C46.7579 21.2448 46.5605 21.2925 46.3767 21.3537C46.3291 21.449 46.3018 21.5579 46.3087 21.6737C46.3223 22.0413 46.6286 22.3272 46.9962 22.3135C47.3637 22.2999 47.6496 21.9936 47.636 21.626C47.6292 21.5171 47.602 21.415 47.5475 21.3265H47.5543Z" fill="#82B52F"/>
<path fill-rule="evenodd" clip-rule="evenodd" d="M46.9687 21.3469C46.7985 21.3537 46.6624 21.4967 46.6692 21.6669C46.676 21.837 46.8189 21.9732 46.9891 21.9664C47.1593 21.9596 47.2954 21.8166 47.2886 21.6464C47.2818 21.4763 47.1389 21.3401 46.9687 21.3469Z" fill="#191716"/>
<path fill-rule="evenodd" clip-rule="evenodd" d="M46.7644 21.3877C46.6691 21.3945 46.6011 21.4694 46.6011 21.5579C46.6079 21.6532 46.6828 21.7212 46.7713 21.7212C46.8666 21.7144 46.9346 21.6396 46.9346 21.5511C46.9278 21.4558 46.8529 21.3877 46.7644 21.3877Z" fill="white"/>
<path fill-rule="evenodd" clip-rule="evenodd" d="M48.9496 21.8771C48.9496 21.8771 48.5752 21.918 48.439 21.8703C48.2961 21.8227 47.663 21.2917 46.9755 21.2917C46.288 21.2917 45.6005 21.8091 45.512 21.8635C45.4235 21.918 45.689 21.6525 45.9544 21.4891C46.2199 21.3326 46.7645 21.0671 47.5269 21.2577C48.2893 21.4551 48.4663 21.8091 48.9496 21.8703V21.8771Z" fill="#191716"/>
</svg>
