<svg width="85" height="212" viewBox="0 0 85 212" fill="none" xmlns="http://www.w3.org/2000/svg">
<g clip-path="url(#clip0)">
<path fill-rule="evenodd" clip-rule="evenodd" d="M36.8609 192.133C36.8609 192.133 37.1497 192.985 37.3049 194.339C37.46 195.693 37.4478 196.311 37.4478 196.311C37.4478 196.311 36.7688 197.315 35.3121 197.882C33.8554 198.448 33.0603 198.452 33.0603 198.452L31.6103 198.194C31.6103 198.194 31.0361 198.727 29.9326 200.352C28.8291 201.977 27.2684 203.044 25.0094 203.35C22.7504 203.655 18.6249 203.558 17.641 203.121C16.6571 202.684 15.7723 201.569 15.7625 201.216C15.7527 200.863 15.4051 200.011 16.669 198.856C17.9329 197.702 24.1735 194.432 25.4938 192.129C26.8141 189.826 35.9991 189.722 36.8609 192.133Z" fill="#424852"/>
<path fill-rule="evenodd" clip-rule="evenodd" d="M36.42 195.344C36.42 195.344 34.5429 196.148 33.2097 196.921C31.8763 197.693 31.3703 198.034 30.4829 198.951C29.5954 199.868 28.5572 201.728 26.4998 202.401C24.4424 203.073 19.1165 203.232 18.1033 202.795C17.09 202.359 16.2955 201.317 16.2955 201.317C16.2955 201.317 17.6582 202.665 19.3377 202.701C21.017 202.737 24.9999 202.467 26.226 202.078C27.452 201.69 28.7248 200.859 30.1906 198.496C31.6564 196.134 35.5251 195.467 36.4202 195.344L36.42 195.344ZM23.0223 200.71C23.0223 200.71 21.2144 200.822 19.1508 200.214C17.0873 199.606 17.4158 198.706 17.4158 198.706C17.4158 198.706 16.1768 200.229 18.4494 200.939C20.7219 201.649 23.0223 200.71 23.0223 200.71ZM26.9079 193.742C26.9079 193.742 26.4776 194.157 26.754 194.568C27.0304 194.978 27.7499 197.566 27.7499 197.566C27.7499 197.566 26.7517 195.554 26.3806 194.908C26.0094 194.262 25.9558 193.924 26.0234 193.703C26.0909 193.481 26.1318 193.364 26.1318 193.364C26.1318 193.364 26.5877 193.3 26.9079 193.742V193.742Z" fill="#58606D"/>
<path fill-rule="evenodd" clip-rule="evenodd" d="M60.8024 191.079C60.8024 191.079 63.0466 195.586 63.3012 196.372C63.5556 197.157 63.632 199.863 63.632 199.863C63.632 199.863 63.8364 203.565 59.8374 203.806C55.8384 204.046 54.1623 201.725 54.044 199.787C53.9258 197.848 53.7056 195.206 53.0968 193.934C52.4879 192.662 52.4879 192.662 52.4879 192.662C52.4879 192.662 52.0483 190.293 52.5246 189.392C53.0008 188.49 59.8395 190.291 60.8024 191.078V191.079Z" fill="#424852"/>
<path fill-rule="evenodd" clip-rule="evenodd" d="M62.6793 199.753C62.6793 199.753 62.4214 202.148 59.598 202.373C56.7746 202.598 55.45 200.529 55.2799 199.711C55.1097 198.893 55.7042 201.196 58.3607 201.331C61.0172 201.465 62.1982 200.478 62.6792 199.753H62.6793ZM58.4438 192.627C58.4438 192.627 59.0918 194.207 59.7235 194.669C60.3553 195.13 61.7645 195.459 61.7645 195.459C61.7645 195.459 59.8578 194.722 59.5715 193.968C59.2852 193.213 59.0776 192.632 59.0776 192.632C59.0776 192.632 58.8572 192.125 58.4439 192.627H58.4438ZM56.149 192.788C56.149 192.788 56.5621 193.862 56.404 194.545C56.2462 195.228 55.4754 196.141 55.4754 196.141C55.4754 196.141 56.7556 195.003 56.8817 194.232C57.0078 193.462 56.7403 192.854 56.7403 192.854C56.7403 192.854 56.4839 192.643 56.1489 192.788H56.149Z" fill="#58606D"/>
<path fill-rule="evenodd" clip-rule="evenodd" d="M59.3482 86.3431C59.3482 86.3431 64.3232 95.0463 63.6878 104.465C63.0524 113.885 61.1007 137.672 61.1007 137.672L60.4417 182.94L60.7909 191.053C60.7909 191.053 56.9444 192.092 54.96 192.168C52.9756 192.244 52.1409 191.994 52.1409 191.994C52.1409 191.994 50.9386 188.836 51.0399 187.658C51.1413 186.48 51.3003 181.288 51.0915 180.263C50.8827 179.237 46.9523 145.398 47.0847 141.494C47.217 137.59 46.9258 136.051 46.8445 135.444C46.7631 134.836 44.3627 115.417 44.3627 115.417C44.3627 115.417 39.6965 146.432 40.385 147.909C41.0734 149.386 39.7431 171.851 38.0644 179.995C36.3856 188.138 36.7453 188.167 36.7453 188.167L37.0631 192.893C37.0631 192.893 34.3514 194.049 30.83 193.62C27.3086 193.191 25.755 191.635 25.755 191.635C25.755 191.635 27.19 189.557 27.2133 187.49C27.2367 185.422 26.4075 144.402 26.2546 142.341C26.1017 140.281 24.2377 110.193 23.954 104.098C23.6704 98.0016 27.5195 85.9551 27.5195 85.9551C27.5195 85.9551 51.8542 86.3938 59.3483 86.3431H59.3482Z" fill="#23314B"/>
<path fill-rule="evenodd" clip-rule="evenodd" d="M41.0855 95.285C41.0855 95.285 40.9532 106.508 41.0414 107.742C41.1296 108.977 43.7754 110.829 43.7754 110.829C43.7754 110.829 41.835 108.139 41.9233 107.478C42.0114 106.816 42.1878 95.1969 42.1878 95.1969C42.1878 95.1969 41.6586 95.1087 41.0855 95.285Z" fill="#192233"/>
<path d="M16.4542 103.798C16.4542 103.798 18.2144 105.3 18.1839 107.961C18.1758 108.639 17.6725 109.933 17.4729 110.581C17.3608 110.947 17.0939 111.677 17.0715 112.058C17.0369 112.64 17.3302 113.8 17.2977 114.382C17.2569 115.112 16.7476 116.961 16.0203 117.01C15.2991 117.059 14.7817 115.144 14.7286 114.423C14.6818 113.771 15.4519 112.215 14.9344 111.815C14.7572 111.679 14.3598 111.944 14.1744 112.066C14.0198 112.168 13.6693 112.396 13.6 112.567C13.5063 112.801 13.4004 113.253 13.323 113.449C13.2904 113.533 13.0174 114.007 13.0887 114.301C13.2353 114.898 13.488 116.9 13.488 116.9C13.488 116.9 14.4291 117.381 14.8407 117.825C15.0343 118.033 15.9918 118.357 16.2261 118.506C16.5766 118.728 17.1043 119.51 16.8454 119.836C16.4828 120.29 14.7572 119.889 14.148 119.52C13.2964 119.005 11.7867 118.408 11.4404 117.68C11.1103 116.986 10.8679 114.735 10.6418 114.089C10.4544 113.555 10.3769 113.372 10.216 112.785C10.0428 112.159 10.6479 109.859 11.1532 107.979C11.5668 106.447 12.6283 103.9 12.6283 103.9L16.4543 103.798H16.4542Z" fill="#70452E"/>
<path d="M17.1072 115.386C17.194 115.542 17.3184 115.765 17.3751 115.863C17.5299 116.134 18.0291 116.629 18.0005 116.939C17.9883 117.075 17.642 117.355 17.642 117.355C17.642 117.355 18.5831 118.273 18.5771 118.679C18.575 118.811 18.2613 119.098 18.2613 119.098C18.2613 119.098 18.2633 119.777 18.0983 119.897C17.8812 120.056 17.27 119.95 16.8363 119.846L16.8454 119.836C17.1042 119.51 16.5765 118.728 16.226 118.506C15.9917 118.357 15.0342 118.033 14.8407 117.825C14.5109 117.469 13.7318 117.082 13.4788 116.945L13.4811 116.847C13.4401 116.526 13.221 114.84 13.0886 114.301C13.0173 114.007 13.2903 113.533 13.3229 113.449C13.4003 113.253 13.5062 112.801 13.5999 112.567C13.6692 112.396 14.0197 112.168 14.1744 112.066C14.3598 111.944 14.7572 111.679 14.9344 111.815C15.4519 112.215 14.6818 113.771 14.7286 114.423C14.7816 115.144 15.299 117.059 16.0203 117.01C16.5032 116.978 16.8898 116.152 17.1072 115.386V115.386ZM12.6222 103.898C12.6222 103.898 12.39 104.481 12.3024 104.693C12.2066 104.927 12.0293 105.392 12.0293 105.392C12.0293 105.392 14.0096 105.273 14.6962 105.273C16.2629 105.275 17.8296 105.903 17.8296 105.903C17.8296 105.903 17.634 105.382 17.3854 104.948C17.1675 104.569 16.703 103.894 16.703 103.894L14.5353 103.654L12.6222 103.898H12.6222Z" fill="#452615"/>
<path d="M12.2537 102.177L12.1682 104.351C12.1682 104.351 14.2695 104.297 15.0017 104.362C17.4665 104.583 18.199 104.964 18.199 104.964L18.6535 102.181L12.2537 102.177Z" fill="#C4C2CC"/>
<path d="M36.1356 28.355C42.0274 28.355 42.7338 27.7817 48.7496 27.7817C48.607 28.9836 48.735 35.1075 49.9849 36.5713L49.0689 43.8823L46.8686 59.1133L35.3883 48.833L34.5778 39.4387C37.0062 37.3973 36.4564 30.4151 36.1356 28.355Z" fill="#70452E"/>
<path d="M36.1356 28.355C42.0274 28.355 42.7338 27.7817 48.7496 27.7817C48.6991 28.2077 48.6825 29.2525 48.738 30.4889C48.0505 31.5485 46.758 32.9596 44.3493 34.6982C41.4227 36.8105 38.4963 35.9583 36.3531 34.4097C36.5462 31.9904 36.3079 29.4622 36.1355 28.355H36.1356ZM49.3215 35.0589C49.4958 35.7169 49.7139 36.2538 49.985 36.5713L49.069 43.8823L47.6477 53.7206C46.9762 55.3059 46.2115 56.7242 45.3902 57.7894L35.7097 49.1208C35.5689 48.6974 35.433 48.2717 35.3032 47.8451L34.5778 39.4387C35.5448 38.6258 36.0392 37.0292 36.2642 35.2722H36.2646C36.2646 35.2722 37.0733 39.637 38.0654 42.1946C39.0577 44.7522 39.6306 46.6044 39.4761 47.4201C39.3217 48.2359 39.5423 48.6989 39.9391 49.3824C40.336 50.0659 41.9014 52.3369 41.9897 51.918C42.0778 51.4991 42.3205 49.2281 43.4228 47.6847C44.5253 46.1413 45.8041 45.0829 45.341 44.1789C44.878 43.2749 44.9663 42.6574 45.8924 41.2023C46.689 39.9505 48.7585 36.9201 49.3215 35.0588V35.0589ZM42.1445 37.2117C42.1445 37.2117 42.0122 38.248 42.3209 38.9095C42.6296 39.5709 43.1146 39.2402 43.1146 39.2402C43.1146 39.2402 42.2767 38.8046 42.1445 37.2117Z" fill="#452615"/>
<path d="M32.3073 90.2449C42.7776 93.2806 50.494 93.0306 58.2955 88.4172C56.7044 84.5912 55.3503 81.3284 53.7592 77.5024C48.726 63.3614 50.8004 44.331 51.4221 37.69C50.3911 36.4777 50.143 35.4868 50.143 35.4868C50.143 35.4868 49.6843 35.1039 49.4394 35.4637C48.9852 38.2372 45.413 41.7437 45.3551 42.5522C45.0964 43.6218 46.1518 43.5811 46.0377 44.1984C45.8156 45.3963 44.2244 47.3032 43.6866 48.3851C43.0285 49.7073 42.4907 54.5215 42.4907 54.5215C42.4907 54.5215 40.5348 51.6672 40.0785 51.0111C38.1046 48.0355 39.0076 48.4371 38.9803 46.8242C38.9715 46.3042 38.9649 45.9718 38.5361 44.455C38.1313 43.0232 36.7213 39.7509 36.2384 35.4669C36.2171 35.2775 35.7594 35.5553 35.6491 35.7868C34.7691 37.7703 34.5777 39.4387 33.6263 42.3105C31.3805 53.3857 41.0206 77.1988 32.3071 90.2448L32.3073 90.2449Z" fill="#F2F1F6"/>
<path d="M50.5086 36.3847C50.5086 36.3847 49.4742 40.6922 48.5697 45.4269C48.4742 44.7568 48.1641 43.6341 48.1371 43.2785C48.0154 41.6781 47.2605 41.3806 46.7411 41.3684C46.0952 41.3542 45.4344 42.0674 45.3183 42.703C45.2717 42.9593 45.3468 43.2119 45.4886 43.4294C45.3603 43.1212 45.3657 42.7682 45.8819 42.0843C46.3981 41.4004 47.6189 42.1876 47.775 42.867C47.9753 43.7387 48.411 45.0643 48.5515 45.5222C48.113 47.8253 47.7068 50.2231 47.467 52.2707C46.7982 57.9797 47.3567 69.7342 48.8402 75.2017C50.0919 79.8065 54.5663 85.0016 54.9955 89.1397C49.8563 92.2931 41.8547 92.82 36.1982 89.9877C36.5028 86.5285 38.0436 76.9373 38.0436 72.7765C38.0436 67.3085 36.0152 53.3736 35.3884 48.8333C35.3158 48.3072 35.2604 47.7349 35.2189 47.1348C35.5105 46.9265 35.8333 46.6084 36.0818 46.1298C36.6771 44.9833 37.9118 45.7109 38.2646 46.3944C38.6174 47.0779 38.7276 47.6291 38.7276 47.6291C38.7276 47.6291 39.2347 45.9536 38.0661 44.785C36.8976 43.6164 36.214 44.9392 35.5967 46.1519C35.4571 46.4262 35.3228 46.6452 35.1985 46.8204C34.9247 42.2769 35.4045 36.3389 35.4045 36.3389C27.978 49.1671 39.2351 78.7229 31.5692 90.1473C43.8137 93.9686 50.0994 92.6028 58.4529 88.8484C46.1168 59.669 53.7921 54.787 51.422 37.6902C51.1176 37.255 50.8132 36.8198 50.5086 36.3846V36.3847Z" fill="#C4C2CC"/>
<path d="M64.8272 97.6924C64.8272 97.6924 64.3872 98.4889 64.3078 98.7008C64.0653 99.3304 63.338 101.69 63.338 101.69L59.2104 94.0538L60.4246 93.1309L64.8272 97.6924H64.8272Z" fill="#5F3722"/>
<path d="M59.5138 93.8232L59.0348 95.16C59.0348 95.16 61.2188 96.3332 61.9502 96.7182C62.9312 97.2218 64.7539 98.0064 64.7539 98.0064C64.7539 98.0064 65.0738 97.2037 65.1451 96.9185C65.194 96.7229 65.4975 95.7246 65.4975 95.7246L59.5138 93.8232Z" fill="#C4C2CC"/>
<path d="M22.3748 108.236C22.3748 108.236 26.327 111.995 27.8572 110.952C31.1855 108.687 34.2463 97.2885 35.0444 88.8096C33.3655 94.2395 30.1315 105.48 28.2265 107.808C26.3215 110.136 22.3748 108.236 22.3748 108.236L22.3748 108.236Z" fill="#192233"/>
<path d="M35.3966 36.3691C35.3966 36.3691 32.0147 39.2723 28.8834 40.1626C19.4678 42.834 18.0103 44.9697 17.5538 54.341C17.4293 56.8968 17.318 59.0781 17.1492 61.1161C17.0329 61.8461 16.9195 62.5172 16.8448 63.1028C16.7166 64.1153 16.4414 66.1263 16.2439 67.1205C15.9027 68.8301 15.5941 70.3995 15.3132 71.8865C13.7656 77.8521 13.2956 81.0032 13.016 85.5904C12.7327 90.238 12.1154 102.539 12.1154 102.539C13.7578 102.506 17.1986 102.693 18.6061 102.994C18.6061 102.994 20.9336 91.1771 21.6671 87.6444C22.2783 84.7025 24.0875 76.9485 24.0875 76.9485L26.412 69.0335C26.412 69.0335 26.3611 72.7944 26.412 73.3791C26.5322 74.7787 26.3407 77.6066 26.0474 78.9817C25.8171 80.0634 25.318 82.9788 24.9859 84.0343C24.2708 86.2997 23.4966 90.7921 23.1034 93.135C22.4821 96.8388 21.6692 107.531 21.6692 107.531C21.6692 107.531 25.6215 111.289 27.1517 110.246C30.5071 107.963 32.6993 99.2285 35.2704 87.8094C36.4112 82.7445 36.8268 72.2606 36.5293 67.4872C36.2605 63.1538 34.6856 54.322 34.321 50.3065C34.0256 47.0508 35.3966 36.3691 35.3966 36.3691Z" fill="#23314B"/>
<path d="M50.5087 36.3848C50.5087 36.3848 48.2477 47.1223 48.1356 50.9057C48.0664 53.2587 47.9542 57.9731 48.0643 60.3242C48.2231 63.7204 48.3657 71.2095 49.2703 74.4855C49.9528 76.9548 52.0126 80.6362 53.8563 82.4799C57.4542 86.0778 58.3235 94.3431 58.3235 94.3431C61.2725 95.6867 63.5806 96.7144 65.274 97.4267C65.274 97.4267 67.0379 92.6442 69.5336 87.6384C71.7378 83.2195 74.3172 75.1273 74.4801 72.9066C74.5291 72.2466 72.5896 66.2711 70.6316 60.4647C68.4883 54.1063 67.6754 47.214 66.1047 45.0158C64.7533 43.1242 54.1357 38.8384 50.5086 36.3848L50.5087 36.3848ZM59.2084 75.7588C58.6685 71.6965 60.5876 62.2351 60.5876 62.2351C60.5876 62.2351 61.9975 66.375 63.1648 69.5002C64.4688 72.9901 64.8722 74.5406 64.8252 74.9562C64.7008 76.0706 63.6974 79.2567 62.604 82.5079C61.4383 81.3474 59.4263 77.4004 59.2083 75.7588H59.2084Z" fill="#23314B"/>
<path d="M30.7062 39.9707C30.2998 40.8446 26.166 47.9129 26.1226 48.598C26.366 49.5919 29.0644 55.2213 30.2175 57.6962C29.2151 54.3725 27.7752 50.0258 27.924 48.6811C28.0666 47.4119 29.9447 42.2468 30.7062 39.9707Z" fill="#35496E"/>
<path d="M64.8252 74.9561C63.5931 81.2372 60.5161 86.979 59.1145 94.5867C61.0871 89.6834 65.1735 79.6579 64.8252 74.9561Z" fill="#182234"/>
<path fill-rule="evenodd" clip-rule="evenodd" d="M57.2735 48.2357L53.2432 49.2031L57.2757 49.1788C56.6082 51.5697 52.7128 65.7337 50.7148 73.5663C52.974 66.7455 58.2447 48.6765 58.2447 48.6765C58.2447 48.6765 57.2075 43.0332 53.3183 38.4756C55.564 41.5434 56.6197 44.5563 57.2735 48.2358V48.2357Z" fill="#182234"/>
<path fill-rule="evenodd" clip-rule="evenodd" d="M26.0696 48.2359L30.1 49.2032L26.0675 49.179C26.735 51.5699 33.4119 64.1341 35.4099 71.9669C33.1508 65.146 25.0985 48.6766 25.0985 48.6766C25.0985 48.6766 26.3427 44.9804 30.6023 40.0259C28.3566 43.0937 26.7882 45.7082 26.0696 48.2359Z" fill="#182234"/>
<path d="M30.0381 40.1221C20.121 43.7208 18.9601 44.2111 18.4654 54.3599C18.3409 56.9133 18.2295 59.0925 18.0608 61.1284C17.9444 61.8577 17.831 62.5282 17.7563 63.1133C17.6281 64.1248 17.353 66.1338 17.1554 67.127C16.8143 68.835 16.5056 70.4028 16.2247 71.8884C16.0339 72.6233 15.8595 73.3151 15.6998 73.9725C16.71 75.5793 19.8026 55.7848 20.2165 51.0056C20.6927 45.5075 24.5557 42.6 28.1011 41.1197C28.8788 40.795 29.5165 40.4551 30.0381 40.1221Z" fill="#35496E"/>
<path fill-rule="evenodd" clip-rule="evenodd" d="M34.0878 92.9474C39.6314 95.8871 48.7421 94.6561 57.9872 91.542L58.2609 92.1615C51.3646 95.0453 40.7482 97.1128 33.8724 93.8475L34.0878 92.9474V92.9474Z" fill="#192233"/>
<path d="M70.0436 60.2885C68.6454 54.3902 66.8089 46.4095 65.7389 45.0059C64.8221 43.803 57.8713 40.7176 54.5133 39.1299H54.5132C54.5132 39.1299 63.0879 44.1135 64.4072 45.3197C65.7265 46.5259 67.8288 53.2106 70.0436 60.2885H70.0436Z" fill="#35496E"/>
<path fill-rule="evenodd" clip-rule="evenodd" d="M50.0347 20.7267C50.0347 20.7267 51.0711 20.4621 51.2585 20.87C51.4459 21.2779 51.6995 23.0858 51.457 24.1883C51.2145 25.2908 50.2002 26.8342 49.7372 26.8342C49.2742 26.8342 49.2521 26.6798 49.2521 26.6798C48.9674 30.7395 47.7393 31.1887 44.4675 34.2428C43.8169 34.85 40.8244 34.8262 40.1992 34.2428C36.9274 31.1887 35.633 30.8057 35.4146 26.6798C35.4146 26.6798 35.3925 26.8342 34.9295 26.8342C34.4664 26.8342 33.4522 25.2908 33.2097 24.1883C32.9671 23.0858 33.2207 21.2779 33.4082 20.87C33.5956 20.4621 34.6319 20.7267 34.6319 20.7267C33.8189 15.6758 35.0329 9.5844 42.378 9.61142C49.6802 9.63784 50.9454 16.5691 50.0348 20.7267H50.0347Z" fill="#70452E"/>
<path fill-rule="evenodd" clip-rule="evenodd" d="M34.7969 23.7157C34.7969 23.7157 34.2657 23.5063 34.3962 22.8448C34.5267 22.1833 34.5639 21.7313 34.2471 21.6321C33.9303 21.5329 33.567 22.7125 33.6507 23.6606C33.7347 24.6087 34.48 25.7222 34.48 25.7222C34.48 25.7222 33.5389 24.6969 33.5203 23.2197C33.5017 21.7424 33.7812 21.2021 34.1633 21.2021C34.5453 21.2021 34.7317 21.7314 34.7317 21.8305C34.7317 21.9297 34.6104 22.8007 34.7969 23.7157ZM49.6358 23.7157C49.6358 23.7157 50.2643 23.5063 50.1099 22.8448C49.9555 22.1833 49.9115 21.7313 50.2863 21.6321C50.6611 21.5329 51.091 22.7125 50.9918 23.6606C50.8926 24.6087 50.0107 25.7222 50.0107 25.7222C50.0107 25.7222 51.1242 24.6969 51.1462 23.2197C51.1682 21.7424 50.8375 21.2021 50.3855 21.2021C49.9335 21.2021 49.713 21.7314 49.713 21.8305C49.713 21.9297 49.8563 22.8007 49.6358 23.7157Z" fill="#452615"/>
<path fill-rule="evenodd" clip-rule="evenodd" d="M35.4151 26.7122L35.4145 26.6796C35.4145 26.6796 35.3924 26.8341 34.9294 26.8341C34.8502 26.8341 34.7548 26.7888 34.6499 26.7084C34.7094 26.7451 34.8604 26.787 35.0631 26.4745C35.3277 26.0666 35.5188 24.4241 35.5004 25.091C35.4914 25.4158 35.4633 26.0947 35.4151 26.7123V26.7122ZM49.2539 26.7122L49.2545 26.6796C49.2545 26.6796 49.2766 26.8341 49.7397 26.8341C49.8189 26.8341 49.9143 26.7888 50.0192 26.7084C49.9597 26.7451 49.8086 26.787 49.6059 26.4745C49.3414 26.0666 49.1502 24.4241 49.1686 25.091C49.1776 25.4158 49.2058 26.0947 49.2539 26.7123V26.7122Z" fill="#452615"/>
<path fill-rule="evenodd" clip-rule="evenodd" d="M44.6527 20.8821C44.6527 20.8821 43.9251 21.4773 43.806 22.0859C43.6869 22.6945 44.388 23.1047 44.8643 23.2766C45.3406 23.4485 44.0507 23.0055 44.097 22.2646C44.1433 21.5237 45.3208 20.7299 45.4729 20.6241C45.625 20.5183 45.1819 20.4058 44.6527 20.8821Z" fill="#452615"/>
<path fill-rule="evenodd" clip-rule="evenodd" d="M40.8019 21.3188C40.8019 21.3188 41.3972 21.9273 41.3046 22.5491C41.212 23.171 40.2198 23.6076 40.2198 23.6076C40.2198 23.6076 41.5163 22.9726 40.802 21.3188H40.8019Z" fill="#452615"/>
<path fill-rule="evenodd" clip-rule="evenodd" d="M35.888 20.75C35.888 20.75 38.1465 20.2854 39.3768 20.444C40.6072 20.6027 40.9613 20.9548 41.1267 20.7896C41.2921 20.6244 40.7328 20.1188 39.635 19.8338C38.0106 19.4119 37.3559 19.6552 36.0601 20.383C35.8155 20.5203 35.7367 20.7591 35.8879 20.75H35.888Z" fill="#191716"/>
<path fill-rule="evenodd" clip-rule="evenodd" d="M36.5044 21.8092C36.5044 21.8092 37.4497 21.1504 38.6339 21.1693C39.8182 21.1881 40.2693 21.5034 40.2394 21.5948C40.2095 21.6863 39.9918 21.5054 39.5472 21.3499C39.1026 21.1944 38.5661 21.1269 37.9983 21.2608C37.4304 21.3947 36.7496 21.875 36.5044 21.8093V21.8092Z" fill="#241714"/>
<path fill-rule="evenodd" clip-rule="evenodd" d="M37.3162 21.7679C37.3162 21.7679 38.0021 21.2 38.6801 21.2409C39.5787 21.2951 40.3055 21.9983 40.2629 21.9967C40.2629 21.9967 40.6164 22.2751 40.5861 22.3732C40.5321 22.5482 40.1323 22.276 40.1298 22.2762C40.1066 22.2786 39.2173 22.5028 38.4228 22.4194C37.6285 22.336 37.3597 21.8358 37.3162 21.7679H37.3162Z" fill="white"/>
<path fill-rule="evenodd" clip-rule="evenodd" d="M37.3743 22.4951C37.3743 22.4951 37.6532 22.903 38.5868 22.899C39.5203 22.8951 39.9235 22.563 39.9467 22.6499C39.9549 22.6806 39.8628 22.7908 39.5207 22.8658C38.8944 23.0037 37.7789 23.0545 37.3743 22.4951H37.3743Z" fill="#452615"/>
<path fill-rule="evenodd" clip-rule="evenodd" d="M37.3163 21.7676C37.3163 21.7676 37.3498 21.7398 37.4092 21.6973C37.4981 21.8954 37.7892 22.3474 38.609 22.3968C39.4545 22.4478 40.0329 22.1772 40.2588 21.9841C40.2649 21.9922 40.2664 21.9966 40.263 21.9964C40.263 21.9964 40.6165 22.2748 40.5862 22.3729C40.5322 22.5479 40.1324 22.2757 40.1299 22.2759C40.1067 22.2783 39.2174 22.5025 38.423 22.4191C37.6286 22.3358 37.3598 21.8356 37.3163 21.7676Z" fill="#D4926F"/>
<path fill-rule="evenodd" clip-rule="evenodd" d="M37.3162 21.7679C37.3162 21.7679 38.0021 21.2 38.6801 21.2409C39.5188 21.2915 40.2076 21.9072 40.2612 21.9878C39.8544 21.7297 39.2518 21.447 38.6817 21.4432C37.962 21.4387 37.5455 21.7427 37.3926 21.8824C37.3508 21.8266 37.3268 21.7844 37.3162 21.7678L37.3162 21.7679Z" fill="#ADA89F"/>
<path fill-rule="evenodd" clip-rule="evenodd" d="M38.0947 21.3339C38.2786 21.2699 38.4797 21.2288 38.6802 21.2409C38.8882 21.2535 39.0872 21.3008 39.2693 21.3661C39.3171 21.4625 39.3422 21.5719 39.3377 21.6869C39.3237 22.0538 39.0149 22.3398 38.648 22.3258C38.281 22.3117 37.9952 22.0029 38.0092 21.636C38.0133 21.5261 38.0441 21.4234 38.0947 21.3339Z" fill="#625D54"/>
<path d="M38.6615 21.9721C38.8331 21.9787 38.9775 21.8449 38.9841 21.6733C38.9906 21.5018 38.8569 21.3573 38.6853 21.3508C38.5137 21.3442 38.3693 21.478 38.3627 21.6495C38.3562 21.8211 38.4899 21.9655 38.6615 21.9721Z" fill="#191716"/>
<path d="M38.479 21.7284C38.5712 21.732 38.6487 21.6601 38.6523 21.5679C38.6558 21.4757 38.5839 21.3981 38.4918 21.3946C38.3996 21.391 38.322 21.4629 38.3184 21.5551C38.3149 21.6473 38.3868 21.7249 38.479 21.7284Z" fill="white"/>
<path fill-rule="evenodd" clip-rule="evenodd" d="M36.699 21.8804C36.699 21.8804 37.0717 21.9212 37.2122 21.8736C37.3529 21.8259 37.9868 21.2962 38.6743 21.2941C39.3617 21.292 40.0482 21.811 40.1367 21.8669C40.2254 21.9228 39.9609 21.6545 39.6956 21.4954C39.4303 21.3364 38.8878 21.0707 38.1223 21.2665C37.3568 21.4622 37.181 21.8194 36.699 21.8804Z" fill="#191716"/>
<path fill-rule="evenodd" clip-rule="evenodd" d="M49.0954 20.75C49.0954 20.75 46.8368 20.2854 45.6065 20.444C44.3761 20.6027 44.022 20.9548 43.8566 20.7896C43.6912 20.6244 44.2505 20.1188 45.3483 19.8338C46.9728 19.4119 47.6274 19.6552 48.9232 20.383C49.1678 20.5203 49.2466 20.7591 49.0954 20.75H49.0954Z" fill="#191716"/>
<path fill-rule="evenodd" clip-rule="evenodd" d="M48.4789 21.8092C48.4789 21.8092 47.5337 21.1504 46.3494 21.1693C45.1651 21.1881 44.714 21.5034 44.7439 21.5948C44.7738 21.6863 44.9915 21.5054 45.4361 21.3499C45.8808 21.1944 46.4172 21.1269 46.9851 21.2608C47.553 21.3947 48.2338 21.875 48.4789 21.8093V21.8092Z" fill="#241714"/>
<path fill-rule="evenodd" clip-rule="evenodd" d="M47.6671 21.7679C47.6671 21.7679 46.9812 21.2 46.3032 21.2409C45.4046 21.2951 44.6778 21.9983 44.7204 21.9967C44.7204 21.9967 44.367 22.2751 44.3972 22.3732C44.4512 22.5482 44.851 22.276 44.8535 22.2762C44.8767 22.2786 45.766 22.5028 46.5605 22.4194C47.3548 22.336 47.6236 21.8358 47.6671 21.7679H47.6671Z" fill="white"/>
<path fill-rule="evenodd" clip-rule="evenodd" d="M47.609 22.4951C47.609 22.4951 47.3301 22.903 46.3965 22.899C45.463 22.8951 45.0598 22.563 45.0366 22.6499C45.0284 22.6806 45.1205 22.7908 45.4626 22.8658C46.0889 23.0037 47.2044 23.0545 47.609 22.4951H47.609Z" fill="#452615"/>
<path fill-rule="evenodd" clip-rule="evenodd" d="M47.667 21.7676C47.667 21.7676 47.6335 21.7398 47.5741 21.6973C47.4852 21.8954 47.1941 22.3474 46.3743 22.3968C45.5288 22.4478 44.9504 22.1772 44.7245 21.9841C44.7184 21.9922 44.7169 21.9966 44.7203 21.9964C44.7203 21.9964 44.3668 22.2748 44.3971 22.3729C44.4511 22.5479 44.8509 22.2757 44.8534 22.2759C44.8766 22.2783 45.7659 22.5025 46.5603 22.4191C47.3547 22.3358 47.6235 21.8356 47.667 21.7676Z" fill="#D4926F"/>
<path fill-rule="evenodd" clip-rule="evenodd" d="M47.667 21.7679C47.667 21.7679 46.9812 21.2 46.3032 21.2409C45.4644 21.2915 44.7757 21.9072 44.722 21.9878C45.1288 21.7297 45.7315 21.447 46.3016 21.4432C47.0213 21.4387 47.4378 21.7427 47.5907 21.8824C47.6325 21.8266 47.6565 21.7844 47.6671 21.7678L47.667 21.7679Z" fill="#ADA89F"/>
<path fill-rule="evenodd" clip-rule="evenodd" d="M46.8886 21.3339C46.7047 21.2699 46.5036 21.2288 46.3031 21.2409C46.0951 21.2535 45.8962 21.3008 45.714 21.3661C45.6662 21.4625 45.6412 21.5719 45.6456 21.6869C45.6597 22.0538 45.9684 22.3398 46.3353 22.3258C46.7023 22.3117 46.9882 22.0029 46.9742 21.636C46.97 21.5261 46.9393 21.4234 46.8886 21.3339Z" fill="#625D54"/>
<path d="M46.3218 21.9721C46.1502 21.9787 46.0058 21.8449 45.9992 21.6733C45.9926 21.5018 46.1264 21.3573 46.298 21.3508C46.4696 21.3442 46.614 21.478 46.6205 21.6495C46.6271 21.8211 46.4933 21.9655 46.3218 21.9721Z" fill="#191716"/>
<path d="M46.1119 21.7284C46.0197 21.732 45.9421 21.6601 45.9385 21.5679C45.935 21.4757 46.0069 21.3981 46.0991 21.3946C46.1913 21.391 46.2689 21.4629 46.2724 21.5551C46.2759 21.6473 46.204 21.7249 46.1119 21.7284Z" fill="white"/>
<path fill-rule="evenodd" clip-rule="evenodd" d="M48.2843 21.8804C48.2843 21.8804 47.9116 21.9212 47.771 21.8736C47.6304 21.8259 46.9965 21.2962 46.309 21.2941C45.6216 21.292 44.9351 21.811 44.8466 21.8669C44.7579 21.9228 45.0224 21.6545 45.2877 21.4954C45.553 21.3364 46.0955 21.0707 46.861 21.2665C47.6264 21.4622 47.8023 21.8194 48.2843 21.8804Z" fill="#191716"/>
<path d="M41.9791 25.8841C42.1754 25.8841 42.3346 25.7356 42.3346 25.5524C42.3346 25.3692 42.1754 25.2207 41.9791 25.2207C41.7827 25.2207 41.6235 25.3692 41.6235 25.5524C41.6235 25.7356 41.7827 25.8841 41.9791 25.8841Z" fill="#855034"/>
<path fill-rule="evenodd" clip-rule="evenodd" d="M40.9356 26.9269C40.9356 26.9269 40.175 27.0327 40.0493 26.4837C39.9236 25.9347 40.2213 25.5708 40.5851 25.432C40.9489 25.2931 41.0017 25.0947 40.8298 25.055C40.6578 25.0153 40.1419 25.3461 40.0162 25.8223C39.8905 26.2985 40.013 26.6789 40.2973 26.8574C40.5817 27.036 40.8892 27.0163 40.9554 26.9963C41.0216 26.9764 41.0017 26.9235 40.9355 26.9268L40.9356 26.9269Z" fill="#452615"/>
<path fill-rule="evenodd" clip-rule="evenodd" d="M41.6632 26.626C41.6632 26.626 41.392 26.2488 40.9852 26.2984C40.5784 26.348 40.6545 26.6293 40.8992 26.6293C41.1439 26.6293 41.4151 26.5433 41.6632 26.626Z" fill="#241714"/>
<path fill-rule="evenodd" clip-rule="evenodd" d="M44.1343 26.9269C44.1343 26.9269 44.8949 27.0327 45.0206 26.4837C45.1463 25.9347 44.8486 25.5708 44.4849 25.432C44.121 25.2931 44.0682 25.0947 44.2401 25.055C44.4122 25.0153 44.928 25.3461 45.0538 25.8223C45.1794 26.2985 45.057 26.6789 44.7726 26.8574C44.4882 27.036 44.1807 27.0163 44.1145 26.9963C44.0483 26.9764 44.0682 26.9235 44.1344 26.9268L44.1343 26.9269Z" fill="#452615"/>
<path fill-rule="evenodd" clip-rule="evenodd" d="M43.4065 26.626C43.4065 26.626 43.6777 26.2488 44.0845 26.2984C44.4913 26.348 44.4152 26.6293 44.1705 26.6293C43.9257 26.6293 43.6545 26.5433 43.4065 26.626Z" fill="#241714"/>
<path fill-rule="evenodd" clip-rule="evenodd" d="M39.3633 29.6529C39.1907 29.7124 38.9491 29.6463 39.0042 29.4809C39.0595 29.3155 39.3081 29.4676 39.3495 29.4874C39.391 29.5074 39.7638 29.4347 40.0263 29.2362C40.2888 29.0376 41.4906 28.4424 41.9188 28.4754C42.3074 28.5053 42.4286 28.6716 42.5613 28.7022C42.694 28.6717 42.8151 28.5054 43.2037 28.4754C43.6319 28.4424 44.8337 29.0376 45.0962 29.2362C45.3587 29.4347 45.7315 29.5074 45.773 29.4874C45.8144 29.4675 46.063 29.3154 46.1183 29.4809C46.1735 29.6463 45.9318 29.7124 45.7592 29.6529C45.7592 29.6529 45.5036 29.6329 44.8819 29.6198C44.5599 29.613 43.5477 29.8278 42.5402 29.8278C41.5468 29.8278 40.5581 29.6131 40.2404 29.6198C39.619 29.6328 39.3632 29.6529 39.3632 29.6529H39.3633Z" fill="#452413"/>
<path fill-rule="evenodd" clip-rule="evenodd" d="M40.5101 30.7778C40.5101 30.7778 41.1319 31.254 42.4945 31.2342C43.8571 31.2144 44.6244 30.7314 44.6244 30.7314C44.6244 30.7314 43.7247 31.5121 42.4745 31.4922C41.2244 31.4722 40.51 30.7778 40.51 30.7778H40.5101Z" fill="#452615"/>
<path fill-rule="evenodd" clip-rule="evenodd" d="M41.0062 29.931C41.0062 29.931 41.4626 30.0831 42.2696 30.1096C43.0766 30.1361 43.4866 30.1492 43.3808 30.4469C43.275 30.7446 42.316 30.9165 41.4494 30.6189C40.5828 30.3213 40.4902 29.7656 41.0062 29.931Z" fill="#855034"/>
</g>
<defs>
<clipPath id="clip0">
<rect width="84.6667" height="211.667" fill="white"/>
</clipPath>
</defs>
</svg>
