<svg width="85" height="212" viewBox="0 0 85 212" fill="none" xmlns="http://www.w3.org/2000/svg">
<path fill-rule="evenodd" clip-rule="evenodd" d="M36.637 192.088C36.637 192.088 36.9259 192.941 37.081 194.295C37.2362 195.648 37.2239 196.267 37.2239 196.267C37.2239 196.267 36.545 197.271 35.0882 197.838C33.6316 198.404 32.8364 198.408 32.8364 198.408L31.3863 198.15C31.3863 198.15 30.8122 198.683 29.7086 200.308C28.6051 201.933 27.0444 203 24.7855 203.306C22.5264 203.611 18.4011 203.514 17.4171 203.077C16.4331 202.64 15.5484 201.525 15.5385 201.172C15.5287 200.819 15.1812 199.967 16.445 198.812C17.7089 197.658 23.9496 194.388 25.2699 192.085C26.5902 189.782 35.7752 189.678 36.637 192.089V192.088Z" fill="#424852"/>
<path fill-rule="evenodd" clip-rule="evenodd" d="M36.1961 195.3C36.1961 195.3 34.3189 196.104 32.9857 196.876C31.6522 197.648 31.1463 197.99 30.2589 198.907C29.3714 199.824 28.3333 201.684 26.2758 202.357C24.2184 203.029 18.8925 203.188 17.8792 202.751C16.8659 202.314 16.0714 201.273 16.0714 201.273C16.0714 201.273 17.434 202.621 19.1136 202.657C20.793 202.693 24.7758 202.423 26.0019 202.034C27.228 201.645 28.5007 200.815 29.9664 198.452C31.4322 196.09 35.301 195.423 36.1961 195.3V195.3ZM22.7984 200.666C22.7984 200.666 20.9904 200.778 18.9269 200.17C16.8633 199.561 17.1919 198.662 17.1919 198.662C17.1919 198.662 15.9529 200.184 18.2256 200.894C20.4981 201.605 22.7984 200.666 22.7984 200.666ZM26.6841 193.698C26.6841 193.698 26.2537 194.112 26.5301 194.523C26.8066 194.934 27.526 197.522 27.526 197.522C27.526 197.522 26.5279 195.51 26.1567 194.864C25.7857 194.218 25.732 193.879 25.7995 193.658C25.867 193.437 25.9079 193.319 25.9079 193.319C25.9079 193.319 26.3638 193.255 26.6839 193.698H26.6841Z" fill="#58606D"/>
<path fill-rule="evenodd" clip-rule="evenodd" d="M60.5785 191.035C60.5785 191.035 62.8228 195.543 63.0773 196.328C63.3317 197.113 63.4081 199.819 63.4081 199.819C63.4081 199.819 63.6124 203.521 59.6135 203.762C55.6145 204.003 53.9385 201.682 53.8201 199.743C53.7019 197.804 53.4817 195.163 52.8729 193.89C52.2641 192.618 52.2641 192.618 52.2641 192.618C52.2641 192.618 51.8246 190.25 52.3009 189.348C52.7772 188.447 59.6158 190.247 60.5787 191.035L60.5785 191.035Z" fill="#424852"/>
<path fill-rule="evenodd" clip-rule="evenodd" d="M62.4553 199.709C62.4553 199.709 62.1975 202.104 59.374 202.33C56.5506 202.555 55.226 200.485 55.0559 199.668C54.8857 198.85 55.4802 201.153 58.1367 201.287C60.7932 201.422 61.9742 200.435 62.4553 199.709ZM58.2199 192.583C58.2199 192.583 58.8679 194.164 59.4996 194.625C60.1314 195.087 61.5406 195.416 61.5406 195.416C61.5406 195.416 59.6339 194.679 59.3476 193.924C59.0613 193.17 58.8537 192.589 58.8537 192.589C58.8537 192.589 58.6333 192.082 58.2199 192.583V192.583ZM55.9251 192.744C55.9251 192.744 56.3382 193.818 56.1801 194.502C56.0222 195.185 55.2516 196.097 55.2516 196.097C55.2516 196.097 56.5318 194.959 56.6578 194.189C56.784 193.418 56.5165 192.81 56.5165 192.81C56.5165 192.81 56.26 192.599 55.9251 192.744V192.744Z" fill="#58606D"/>
<path fill-rule="evenodd" clip-rule="evenodd" d="M59.1243 86.2994C59.1243 86.2994 62.6175 90.875 63.4638 104.422C64.31 117.968 60.8767 137.628 60.8767 137.628L60.2176 182.896L60.5669 191.009C60.5669 191.009 56.7204 192.048 54.7361 192.124C52.7517 192.2 51.917 191.95 51.917 191.95C51.917 191.95 50.7148 188.792 50.816 187.614C50.9175 186.436 51.0763 181.244 50.8676 180.219C50.7474 179.628 48.2282 165.612 47.1262 155.24C46.315 147.604 46.8047 143.106 46.8607 141.451C46.9928 137.547 46.7017 136.008 46.6204 135.4C46.5392 134.793 44.1386 115.374 44.1386 115.374C44.0625 117.017 39.1549 141.309 40.1609 147.866C41.167 154.423 39.5192 171.808 37.8403 179.951C36.1616 188.095 36.5212 188.124 36.5212 188.124L36.839 192.849C36.839 192.849 34.1273 194.006 30.606 193.577C27.0846 193.147 25.531 191.592 25.531 191.592C25.531 191.592 26.9658 189.514 26.9893 187.446C27.0128 185.379 26.1834 144.359 26.0305 142.298C25.8776 140.237 22.1614 116.5 23.042 105.324C23.9226 94.1482 27.2953 85.9116 27.2953 85.9116C27.2953 85.9116 51.63 86.3503 59.1241 86.2995L59.1243 86.2994Z" fill="#23314B"/>
<path fill-rule="evenodd" clip-rule="evenodd" d="M40.8616 95.2414C40.8616 95.2414 40.7292 106.464 40.8174 107.699C40.9056 108.933 43.5514 110.786 43.5514 110.786C43.5514 110.786 41.611 108.096 41.6992 107.434C41.7874 106.773 41.9638 95.1534 41.9638 95.1534C41.9638 95.1534 41.4345 95.0652 40.8614 95.2416L40.8616 95.2414Z" fill="#192233"/>
<path d="M16.2303 103.754C16.2303 103.754 17.9905 105.256 17.96 107.916C17.9519 108.595 17.4487 109.888 17.249 110.536C17.1368 110.903 16.87 111.632 16.8476 112.013C16.8129 112.596 17.1063 113.755 17.0738 114.338C17.0331 115.067 16.5237 116.917 15.7965 116.966C15.0752 117.015 14.5578 115.1 14.5049 114.379C14.4581 113.727 15.2281 112.17 14.7107 111.771C14.5335 111.634 14.1361 111.899 13.9507 112.021C13.7961 112.123 13.4455 112.351 13.3763 112.523C13.2826 112.757 13.1766 113.209 13.0993 113.405C13.0667 113.488 12.7937 113.963 12.865 114.256C13.0116 114.853 13.2643 116.856 13.2643 116.856C13.2643 116.856 14.2055 117.337 14.617 117.781C14.8106 117.989 15.768 118.313 16.0024 118.461C16.3529 118.683 16.8806 119.466 16.6217 119.792C16.2592 120.246 14.5335 119.845 13.9243 119.476C13.0727 118.96 11.5631 118.363 11.2168 117.636C10.8867 116.941 10.6442 114.69 10.4181 114.044C10.2307 113.51 10.1533 113.327 9.99242 112.74C9.81916 112.115 10.4244 109.815 10.9295 107.935C11.3431 106.402 12.4046 103.856 12.4046 103.856L16.2305 103.754L16.2303 103.754Z" fill="#70452E"/>
<path d="M16.8834 115.342C16.9702 115.498 17.0946 115.721 17.1512 115.819C17.306 116.09 17.8052 116.585 17.7766 116.895C17.7643 117.032 17.4181 117.311 17.4181 117.311C17.4181 117.311 18.3593 118.229 18.3533 118.635C18.3512 118.767 18.0375 119.055 18.0375 119.055C18.0375 119.055 18.0395 119.733 17.8744 119.853C17.6573 120.012 17.0461 119.906 16.6124 119.802L16.6216 119.792C16.8804 119.466 16.3527 118.684 16.0022 118.462C15.7679 118.313 14.8105 117.989 14.6169 117.781C14.2871 117.426 13.5112 117.039 13.2583 116.903L13.2574 116.803C13.2163 116.482 12.9973 114.796 12.865 114.257C12.7937 113.963 13.0667 113.489 13.0993 113.405C13.1768 113.21 13.2826 112.757 13.3763 112.523C13.4457 112.352 13.7961 112.124 13.9508 112.022C14.1361 111.9 14.5335 111.635 14.7107 111.771C15.2283 112.171 14.4581 113.727 14.5049 114.379C14.5579 115.1 15.0752 117.015 15.7965 116.967C16.2794 116.934 16.6661 116.108 16.8834 115.343V115.342ZM12.3984 103.854C12.3984 103.854 12.1661 104.437 12.0786 104.649C11.9828 104.883 11.8054 105.348 11.8054 105.348C11.8054 105.348 13.7858 105.23 14.4723 105.23C16.039 105.232 17.6057 105.859 17.6057 105.859C17.6057 105.859 17.4102 105.338 17.1615 104.904C16.9436 104.525 16.4792 103.85 16.4792 103.85L14.3114 103.61L12.3984 103.854V103.854Z" fill="#452615"/>
<path d="M12.0298 102.133L11.9443 104.307C11.9443 104.307 14.0457 104.254 14.7779 104.319C17.2426 104.539 17.9752 104.92 17.9752 104.92L18.4297 102.137L12.0299 102.133L12.0298 102.133Z" fill="#C4C2CC"/>
<path d="M35.9116 28.3115C41.8034 28.3115 42.5099 27.7383 48.5257 27.7383C48.3832 28.94 48.8034 35.9228 51.9848 36.7252L48.845 43.8389L46.6447 59.0699L35.1644 48.7896L32.9618 37.5078C36.5544 35.1488 36.2326 30.3716 35.9116 28.3115Z" fill="#70452E"/>
<path d="M35.9117 28.3115C41.8034 28.3115 42.5099 27.7383 48.5257 27.7383C48.4752 28.1643 48.4586 29.2091 48.514 30.4453C47.8265 31.5049 46.793 32.7291 44.1255 34.6546C41.4579 36.5801 37.7412 35.5369 35.5981 33.9885C36.3602 31.8471 36.084 29.4186 35.9117 28.3115ZM49.9472 34.921C50.3463 35.8171 50.7641 35.9366 51.0352 36.2541L48.8451 43.8387L47.4239 53.6771C46.7524 55.2624 45.9876 56.6806 45.1664 57.7458L35.4859 49.0773C35.3451 48.6538 35.2093 48.2283 35.0794 47.8015L33.2458 37.3102C34.2129 36.4972 34.7423 35.9386 35.2816 34.7902C35.2818 34.7902 35.2818 34.7902 35.282 34.7902C35.282 34.7902 35.0538 37.0054 35.5551 38.5313C36.5355 41.5151 37.5179 41.9443 38.0137 43.1167C39.0822 45.6431 39.4068 46.5608 39.2524 47.3765C39.0979 48.1922 39.3185 48.6552 39.7154 49.3387C40.1123 50.0223 41.6776 52.2933 41.7658 51.8743C41.854 51.4554 42.0966 49.1843 43.199 47.641C44.3013 46.0976 45.5802 45.0393 45.1172 44.1352C44.6542 43.2311 44.8073 42.512 45.6685 41.1586C46.5298 39.8052 49.3844 36.7821 49.9473 34.9208L49.9472 34.921ZM41.9206 37.1682C41.9206 37.1682 41.7882 38.2046 42.0969 38.866C42.4057 39.5275 42.8906 39.1967 42.8906 39.1967C42.8906 39.1967 42.0526 38.7611 41.9204 37.1682H41.9206Z" fill="#452615"/>
<path d="M32.0833 90.2015C42.5535 93.2371 50.27 92.9872 58.0714 88.3738C56.4803 84.5479 55.1262 81.285 53.5351 77.459C48.5019 63.3181 51.9857 44.5151 52.6074 37.8741C52.1355 37.3191 51.8274 36.8104 51.6322 36.4221C51.4828 36.1246 51.0528 34.948 50.5097 35.7461C50.0555 38.5196 45.189 41.7002 45.1312 42.5087C44.8725 43.5782 45.9279 43.5375 45.8138 44.1549C45.5917 45.3529 44.0005 47.2598 43.4628 48.3416C42.8046 49.6638 42.2669 54.478 42.2669 54.478C42.2669 54.478 40.311 51.6238 39.8548 50.9677C37.8808 47.992 38.7838 48.3937 38.7567 46.7807C38.7479 46.2608 38.7414 45.9282 38.3125 44.4116C37.9077 42.9796 34.9517 40.398 34.4688 36.1141C34.4476 35.9246 33.8082 36.0809 33.7245 36.5239C28.2323 49.1545 41.3837 76.277 32.0836 90.2013L32.0833 90.2015Z" fill="#F2F1F6"/>
<path d="M51.6738 36.4204C51.6738 36.4204 49.2502 40.6485 48.3458 45.3832C48.2504 44.7131 47.9403 43.5904 47.9132 43.2347C47.7915 41.6343 47.0366 41.3368 46.5171 41.3247C45.8712 41.3104 45.2105 42.0238 45.0943 42.6594C45.0477 42.9156 45.1228 43.1683 45.2647 43.3857C45.1364 43.0777 45.1418 42.7244 45.6579 42.0405C46.1741 41.3567 47.395 42.1439 47.551 42.8233C47.7513 43.6951 48.1871 45.0206 48.3275 45.4786C47.889 47.7818 47.4828 50.1796 47.243 52.2271C46.5741 57.9363 47.1327 69.6907 48.6162 75.1583C49.8679 79.763 54.3423 84.9581 54.7715 89.0963C49.6323 92.2497 41.6308 92.7766 35.9742 89.9443C36.279 86.485 37.8196 76.8939 37.8196 72.733C37.8196 67.2651 35.7913 53.3302 35.1644 48.7898C35.0917 48.2636 35.0363 47.6914 34.9949 47.0912C35.2865 46.8829 35.6092 46.5649 35.8577 46.0862C36.4531 44.9397 37.6878 45.6674 38.0405 46.3507C38.3932 47.0343 38.5035 47.5854 38.5035 47.5854C38.5035 47.5854 39.0105 45.91 37.8421 44.7414C36.6736 43.5728 35.9899 44.8957 35.3726 46.1083C35.233 46.3827 35.0988 46.6016 34.9744 46.7768C34.7005 42.2333 33.7239 36.5241 33.7239 36.5241C33.5792 36.7742 33.0582 37.0306 32.9281 37.2929C26.3844 50.4961 38.8614 78.9021 31.3449 90.1039C43.5894 93.9252 49.8751 92.5593 58.2287 88.805C45.8926 59.6256 54.957 54.823 52.5868 37.7262C52.2822 37.291 51.978 36.8558 51.6734 36.4206L51.6738 36.4204Z" fill="#C4C2CC"/>
<path d="M64.6033 97.6484C64.6033 97.6484 64.1633 98.4449 64.0839 98.6568C63.8414 99.2864 63.1141 101.646 63.1141 101.646L58.9865 94.0098L60.2006 93.0869L64.6033 97.6485V97.6484Z" fill="#5F3722"/>
<path d="M59.2897 93.7793L58.8107 95.116C58.8107 95.116 60.9947 96.2893 61.726 96.6743C62.707 97.1778 64.5297 97.9623 64.5297 97.9623C64.5297 97.9623 64.8496 97.1595 64.9209 96.8744C64.9697 96.6789 65.2733 95.6806 65.2733 95.6806L59.2895 93.7793H59.2897Z" fill="#C4C2CC"/>
<path d="M22.1509 108.193C22.1509 108.193 26.1032 111.952 27.6333 110.908C30.9616 108.643 34.0224 97.2452 34.8205 88.7661C33.1416 94.1961 29.9076 105.436 28.0026 107.765C26.0976 110.093 22.1509 108.193 22.1509 108.193V108.193Z" fill="#192233"/>
<path d="M33.5194 36.7258C22.7337 43.528 15.1911 38.0928 14.6914 52.2864C14.0583 70.2657 11.4668 86.9674 11.7849 102.495C11.8185 104.137 16.8702 102.649 18.2818 102.95C20.4094 91.3551 23.8747 83.2652 25.6299 68.9896C25.6295 75.4036 28.3293 81.4496 26.4169 87.8005C23.5641 97.2401 21.9316 101.895 21.4061 107.487C21.4061 107.487 25.4091 111.246 26.9251 110.203C30.2498 107.919 32.3242 99.1847 34.7414 87.7655C35.814 82.7007 36.0882 72.2168 35.7262 67.4432C35.3988 63.1098 33.7049 54.278 33.2863 50.2625C32.9468 47.0069 33.5194 36.7256 33.5194 36.7256V36.7258Z" fill="#23314B"/>
<path d="M51.808 36.6086C51.808 36.6086 48.9289 47.0785 48.7487 50.8619C48.6371 53.2148 48.4402 57.9293 48.508 60.2803C48.6059 63.6766 48.6136 71.1657 49.4594 74.4417C50.0975 76.9109 52.091 80.5924 53.9014 82.4361C57.4345 86.034 58.1552 94.2994 58.1552 94.2994C61.0798 95.643 63.3694 96.6706 65.0501 97.383C65.0501 97.383 66.9001 92.6003 69.4857 87.5945C71.7694 83.1756 74.4944 75.0834 74.6974 72.8627C74.7581 72.2026 74.4756 65.958 72.6573 59.9435C70.7252 53.5535 71.6633 47.5777 69.0755 44.3093C65.9978 40.4225 55.3908 39.0619 51.808 36.6084V36.6086ZM60.997 62.1913C60.997 62.1913 62.3323 66.3312 63.4435 69.4566C64.6846 72.9465 65.0601 74.4969 65.0057 74.9124C64.8613 76.0268 62.3092 83.3038 61.1573 86.5549C56.9167 80.0202 59.4832 68.4224 60.997 62.1912V62.1913Z" fill="#23314B"/>
<path d="M29.532 39.9268C29.1374 40.8006 25.099 47.8689 25.0648 48.554C25.3216 49.548 28.0959 55.1773 29.2823 57.6522C28.2352 54.3286 26.7368 49.9818 26.8673 48.6372C26.9927 47.368 28.8012 42.2029 29.532 39.9268Z" fill="#35496E"/>
<path d="M64.9874 75.0342C63.7553 81.3154 60.2921 86.9354 58.8905 94.5431C60.8631 89.6398 65.3357 79.7361 64.9874 75.0342Z" fill="#182234"/>
<path fill-rule="evenodd" clip-rule="evenodd" d="M57.9348 48.192L53.887 49.1592L57.9199 49.1351C57.2095 51.526 53.0592 65.6899 50.9203 73.5225C53.3022 66.7016 58.898 48.6325 58.898 48.6325C58.898 48.6325 57.9624 42.9893 54.1552 38.4316C56.3458 41.4995 57.3472 44.5124 57.9348 48.1918V48.192Z" fill="#182234"/>
<path fill-rule="evenodd" clip-rule="evenodd" d="M25.0071 48.1924L29.0507 49.1597L25.0178 49.1355C25.7176 51.5264 32.564 64.0906 34.6675 71.9234C32.3165 65.1025 24.0421 48.6332 24.0421 48.6332C24.0421 48.6332 25.2364 44.937 29.4293 39.9824C27.2249 43.0503 25.6918 45.6647 25.0073 48.1924H25.0071Z" fill="#182234"/>
<path d="M25.2579 40.6079C17.1621 42.6986 15.5049 44.115 15.1472 54.2638C14.8821 61.788 15.1843 61.7169 14.1515 69.0827C15.4214 65.6889 16.4773 56.0481 16.853 50.9096C17.3186 44.541 20.188 42.2537 25.2579 40.6081V40.6079Z" fill="#35496E"/>
<path fill-rule="evenodd" clip-rule="evenodd" d="M33.8638 92.9039C39.4073 95.8436 48.5181 94.6127 57.7632 91.4985L58.0369 92.118C51.1406 95.0018 40.5242 97.0693 33.6484 93.804L33.8638 92.9039Z" fill="#192233"/>
<path d="M71.8723 57.9956C70.5801 52.0973 70.3572 47.2596 68.7409 44.5653C67.505 42.5052 60.158 40.1976 56.8287 38.6099H56.8285C56.8285 38.6099 65.2787 42.588 67.4035 44.879C69.5282 47.17 69.7849 50.9178 71.8723 57.9956Z" fill="#35496E"/>
<path fill-rule="evenodd" clip-rule="evenodd" d="M50.0347 20.7272C50.0347 20.7272 51.0709 20.4627 51.2583 20.8705C51.4457 21.2784 51.6994 23.0862 51.4568 24.1888C51.2143 25.2913 50.2 26.8347 49.737 26.8347C49.274 26.8347 49.2519 26.6803 49.2519 26.6803C48.9673 30.7399 47.7392 31.1892 44.4673 34.2433C43.8168 34.8506 40.8243 34.8268 40.1991 34.2433C36.9272 31.1892 35.6328 30.8061 35.4145 26.6803C35.4145 26.6803 35.3924 26.8347 34.9294 26.8347C34.4664 26.8347 33.4521 25.2913 33.2096 24.1888C32.9672 23.0862 33.2207 21.2784 33.4081 20.8705C33.5955 20.4625 34.6318 20.7272 34.6318 20.7272C33.8188 15.6764 35.0328 9.58498 42.3779 9.61191C49.68 9.63831 50.9453 16.5696 50.0347 20.7272Z" fill="#70452E"/>
<path fill-rule="evenodd" clip-rule="evenodd" d="M34.7969 23.7162C34.7969 23.7162 34.2657 23.5069 34.3962 22.8453C34.5266 22.1838 34.5639 21.7317 34.2471 21.6327C33.9303 21.5334 33.567 22.7131 33.6509 23.6612C33.7347 24.6093 34.4801 25.7227 34.4801 25.7227C34.4801 25.7227 33.5389 24.6974 33.5204 23.2201C33.5018 21.7428 33.7813 21.2026 34.1634 21.2026C34.5455 21.2026 34.7318 21.7319 34.7318 21.831C34.7318 21.9302 34.6107 22.8011 34.7971 23.7161L34.7969 23.7162ZM49.6359 23.7162C49.6359 23.7162 50.2643 23.5069 50.1099 22.8453C49.9555 22.1838 49.9114 21.7317 50.2863 21.6327C50.6611 21.5334 51.0909 22.7131 50.9917 23.6612C50.8925 24.6093 50.0107 25.7227 50.0107 25.7227C50.0107 25.7227 51.1242 24.6974 51.1462 23.2201C51.1681 21.7428 50.8374 21.2026 50.3855 21.2026C49.9335 21.2026 49.713 21.7319 49.713 21.831C49.713 21.9302 49.8562 22.8011 49.6359 23.7161V23.7162Z" fill="#452615"/>
<path fill-rule="evenodd" clip-rule="evenodd" d="M35.4152 26.7131L35.4147 26.6805C35.4147 26.6805 35.3926 26.8349 34.9296 26.8349C34.8504 26.8349 34.7549 26.7895 34.65 26.7093C34.7096 26.7461 34.8606 26.7878 35.0631 26.4755C35.3277 26.0675 35.5189 24.425 35.5004 25.092C35.4915 25.4168 35.4632 26.0957 35.4152 26.7133V26.7131ZM49.254 26.7131L49.2545 26.6805C49.2545 26.6805 49.2766 26.8349 49.7396 26.8349C49.8188 26.8349 49.9142 26.7895 50.0191 26.7093C49.9596 26.7461 49.8086 26.7878 49.606 26.4755C49.3415 26.0675 49.1502 24.425 49.1687 25.092C49.1777 25.4168 49.206 26.0957 49.254 26.7133V26.7131Z" fill="#452615"/>
<path fill-rule="evenodd" clip-rule="evenodd" d="M44.6527 20.8829C44.6527 20.8829 43.9251 21.4781 43.8059 22.0867C43.6868 22.6954 44.3879 23.1055 44.8642 23.2774C45.3405 23.4493 44.0506 23.0063 44.097 22.2655C44.1432 21.5247 45.3208 20.7309 45.4729 20.6251C45.6249 20.5193 45.1819 20.4068 44.6527 20.8831V20.8829Z" fill="#452615"/>
<path fill-rule="evenodd" clip-rule="evenodd" d="M40.8019 21.3195C40.8019 21.3195 41.3973 21.928 41.3046 22.5497C41.2119 23.1715 40.2198 23.6081 40.2198 23.6081C40.2198 23.6081 41.5163 22.973 40.8019 21.3193V21.3195Z" fill="#452615"/>
<path fill-rule="evenodd" clip-rule="evenodd" d="M35.8879 20.7505C35.8879 20.7505 38.1464 20.2857 39.3768 20.4445C40.6072 20.6033 40.9613 20.9553 41.1266 20.7902C41.292 20.625 40.7327 20.1194 39.635 19.8343C38.0104 19.4124 37.3559 19.6557 36.0601 20.3836C35.8156 20.521 35.7367 20.7596 35.8879 20.7506V20.7505Z" fill="#191716"/>
<path fill-rule="evenodd" clip-rule="evenodd" d="M36.5043 21.8097C36.5043 21.8097 37.4496 21.1509 38.6337 21.1698C39.8181 21.1886 40.2692 21.5038 40.2393 21.5954C40.2094 21.6868 39.9917 21.5058 39.5471 21.3503C39.1026 21.1949 38.5661 21.1274 37.9982 21.2613C37.4303 21.3952 36.7495 21.8755 36.5043 21.8097Z" fill="#241714"/>
<path fill-rule="evenodd" clip-rule="evenodd" d="M37.3162 21.7684C37.3162 21.7684 38.0021 21.2005 38.6801 21.2414C39.5787 21.2956 40.3055 21.9988 40.2629 21.9972C40.2629 21.9972 40.6163 22.2756 40.5861 22.3737C40.5321 22.5487 40.1323 22.2766 40.1299 22.2768C40.1067 22.2792 39.2173 22.5033 38.423 22.42C37.6287 22.3366 37.3598 21.8364 37.3163 21.7686L37.3162 21.7684Z" fill="white"/>
<path fill-rule="evenodd" clip-rule="evenodd" d="M37.3742 22.4956C37.3742 22.4956 37.6532 22.9036 38.5866 22.8996C39.5202 22.8956 39.9233 22.5636 39.9465 22.6504C39.9548 22.6811 39.8626 22.7912 39.5204 22.8663C38.8942 23.0042 37.7785 23.0549 37.374 22.4956H37.3742Z" fill="#452615"/>
<path fill-rule="evenodd" clip-rule="evenodd" d="M37.3162 21.7682C37.3162 21.7682 37.3496 21.7404 37.409 21.6978C37.4979 21.8959 37.789 22.348 38.6089 22.3973C39.4544 22.4482 40.0327 22.1777 40.2586 21.9846C40.2646 21.9927 40.2662 21.997 40.2627 21.9968C40.2627 21.9968 40.6161 22.2752 40.5859 22.3734C40.5319 22.5483 40.1321 22.2762 40.1297 22.2764C40.1066 22.2788 39.2172 22.5029 38.4228 22.4196C37.6285 22.3363 37.3596 21.836 37.3162 21.7682Z" fill="#D4926F"/>
<path fill-rule="evenodd" clip-rule="evenodd" d="M37.3162 21.7684C37.3162 21.7684 38.0021 21.2005 38.6801 21.2414C39.5188 21.2919 40.2077 21.9078 40.2612 21.9884C39.8544 21.7302 39.2518 21.4476 38.6817 21.4438C37.9619 21.4391 37.5455 21.7434 37.3926 21.883C37.3509 21.8272 37.3269 21.7849 37.3162 21.7684Z" fill="#ADA89F"/>
<path fill-rule="evenodd" clip-rule="evenodd" d="M38.0946 21.3344C38.2786 21.2704 38.4796 21.2293 38.6801 21.2414C38.8881 21.254 39.0871 21.3012 39.2693 21.3666C39.3171 21.4631 39.3421 21.5725 39.3376 21.6874C39.3236 22.0543 39.0148 22.3403 38.6479 22.3263C38.2808 22.3121 37.9951 22.0034 38.009 21.6365C38.0132 21.5266 38.0439 21.4239 38.0946 21.3344Z" fill="#625D54"/>
<path d="M38.6616 21.9725C38.8332 21.9791 38.9776 21.8453 38.9841 21.6738C38.9907 21.5022 38.857 21.3578 38.6854 21.3513C38.5138 21.3447 38.3694 21.4784 38.3629 21.65C38.3563 21.8216 38.49 21.966 38.6616 21.9725Z" fill="#191716"/>
<path d="M38.479 21.7289C38.5711 21.7324 38.6487 21.6605 38.6523 21.5684C38.6558 21.4762 38.5839 21.3986 38.4917 21.3951C38.3996 21.3915 38.322 21.4634 38.3184 21.5556C38.3149 21.6478 38.3868 21.7254 38.479 21.7289Z" fill="white"/>
<path fill-rule="evenodd" clip-rule="evenodd" d="M36.699 21.8808C36.699 21.8808 37.0717 21.9215 37.2124 21.8741C37.353 21.8264 37.987 21.2967 38.6743 21.2946C39.3617 21.2925 40.0483 21.8114 40.1368 21.8673C40.2254 21.9233 39.961 21.6549 39.6956 21.4958C39.4304 21.3369 38.8878 21.0711 38.1223 21.267C37.357 21.4627 37.181 21.8201 36.699 21.8808Z" fill="#191716"/>
<path fill-rule="evenodd" clip-rule="evenodd" d="M49.0953 20.7505C49.0953 20.7505 46.8368 20.2857 45.6064 20.4445C44.376 20.6033 44.0219 20.9553 43.8566 20.7902C43.6913 20.625 44.2505 20.1194 45.3482 19.8343C46.9728 19.4124 47.6273 19.6557 48.9231 20.3836C49.1676 20.521 49.2465 20.7596 49.0953 20.7506V20.7505Z" fill="#191716"/>
<path fill-rule="evenodd" clip-rule="evenodd" d="M48.479 21.8097C48.479 21.8097 47.5336 21.1509 46.3495 21.1698C45.1652 21.1886 44.7141 21.5038 44.7439 21.5954C44.7738 21.6868 44.9916 21.5058 45.4361 21.3503C45.8806 21.1949 46.4171 21.1274 46.9851 21.2613C47.553 21.3952 48.2337 21.8755 48.479 21.8097Z" fill="#241714"/>
<path fill-rule="evenodd" clip-rule="evenodd" d="M47.6671 21.7684C47.6671 21.7684 46.9811 21.2005 46.3031 21.2414C45.4045 21.2956 44.6777 21.9988 44.7203 21.9972C44.7203 21.9972 44.3669 22.2756 44.3971 22.3737C44.4511 22.5487 44.8509 22.2766 44.8534 22.2768C44.8765 22.2792 45.7659 22.5033 46.5602 22.42C47.3545 22.3366 47.6234 21.8364 47.6669 21.7686L47.6671 21.7684Z" fill="white"/>
<path fill-rule="evenodd" clip-rule="evenodd" d="M47.609 22.4956C47.609 22.4956 47.33 22.9036 46.3966 22.8996C45.463 22.8956 45.0599 22.5636 45.0368 22.6504C45.0285 22.6811 45.1206 22.7912 45.4628 22.8663C46.0891 23.0042 47.2047 23.0549 47.6092 22.4956H47.609Z" fill="#452615"/>
<path fill-rule="evenodd" clip-rule="evenodd" d="M47.667 21.7682C47.667 21.7682 47.6335 21.7404 47.5742 21.6978C47.4853 21.8959 47.1942 22.348 46.3743 22.3973C45.5287 22.4482 44.9505 22.1777 44.7246 21.9846C44.7185 21.9927 44.717 21.997 44.7204 21.9968C44.7204 21.9968 44.367 22.2752 44.3972 22.3734C44.4512 22.5483 44.8511 22.2762 44.8535 22.2764C44.8766 22.2788 45.766 22.5029 46.5603 22.4196C47.3547 22.3363 47.6235 21.836 47.667 21.7682Z" fill="#D4926F"/>
<path fill-rule="evenodd" clip-rule="evenodd" d="M47.6671 21.7684C47.6671 21.7684 46.9811 21.2005 46.3031 21.2414C45.4644 21.2919 44.7755 21.9078 44.722 21.9884C45.1288 21.7302 45.7314 21.4476 46.3015 21.4438C47.0213 21.4391 47.4377 21.7434 47.5906 21.883C47.6324 21.8272 47.6564 21.7849 47.6671 21.7684Z" fill="#ADA89F"/>
<path fill-rule="evenodd" clip-rule="evenodd" d="M46.8885 21.3344C46.7046 21.2704 46.5035 21.2293 46.303 21.2414C46.0951 21.254 45.8961 21.3012 45.7139 21.3666C45.6661 21.4631 45.641 21.5725 45.6455 21.6874C45.6595 22.0543 45.9684 22.3403 46.3353 22.3263C46.7023 22.3121 46.9881 22.0034 46.9741 21.6365C46.97 21.5266 46.9393 21.4239 46.8885 21.3344Z" fill="#625D54"/>
<path d="M46.3217 21.9725C46.1501 21.9791 46.0057 21.8453 45.9991 21.6738C45.9926 21.5022 46.1263 21.3578 46.2979 21.3513C46.4694 21.3447 46.6138 21.4784 46.6204 21.65C46.627 21.8216 46.4932 21.966 46.3217 21.9725Z" fill="#191716"/>
<path d="M46.1119 21.7289C46.0197 21.7324 45.9421 21.6605 45.9386 21.5684C45.935 21.4762 46.0069 21.3986 46.0991 21.3951C46.1913 21.3915 46.2689 21.4634 46.2724 21.5556C46.2759 21.6478 46.204 21.7254 46.1119 21.7289Z" fill="white"/>
<path fill-rule="evenodd" clip-rule="evenodd" d="M48.2843 21.8808C48.2843 21.8808 47.9115 21.9215 47.7709 21.8741C47.6302 21.8264 46.9962 21.2967 46.3089 21.2946C45.6216 21.2925 44.9349 21.8114 44.8464 21.8673C44.7579 21.9233 45.0223 21.6549 45.2877 21.4958C45.5529 21.3369 46.0954 21.0711 46.8609 21.267C47.6263 21.4627 47.8023 21.8201 48.2843 21.8808Z" fill="#191716"/>
<path d="M41.9791 25.8845C42.1755 25.8845 42.3346 25.736 42.3346 25.5529C42.3346 25.3697 42.1755 25.2212 41.9791 25.2212C41.7828 25.2212 41.6237 25.3697 41.6237 25.5529C41.6237 25.736 41.7828 25.8845 41.9791 25.8845Z" fill="#855034"/>
<path fill-rule="evenodd" clip-rule="evenodd" d="M40.9356 26.9278C40.9356 26.9278 40.1749 27.0336 40.0493 26.4846C39.9237 25.9357 40.2213 25.5718 40.5851 25.433C40.9489 25.2941 41.0018 25.0956 40.8298 25.056C40.6578 25.0163 40.1419 25.3471 40.0161 25.8232C39.8905 26.2995 40.0129 26.6798 40.2974 26.8584C40.5818 27.037 40.8893 27.0172 40.9556 26.9973C41.0219 26.9775 41.0018 26.9245 40.9358 26.9278H40.9356Z" fill="#452615"/>
<path fill-rule="evenodd" clip-rule="evenodd" d="M41.6633 26.6264C41.6633 26.6264 41.392 26.2494 40.9853 26.2989C40.5785 26.3484 40.6546 26.6297 40.8993 26.6297C41.144 26.6297 41.4153 26.5438 41.6633 26.6264Z" fill="#241714"/>
<path fill-rule="evenodd" clip-rule="evenodd" d="M44.1343 26.9278C44.1343 26.9278 44.895 27.0336 45.0206 26.4846C45.1463 25.9357 44.8486 25.5718 44.4848 25.433C44.121 25.2941 44.0681 25.0956 44.2401 25.056C44.4122 25.0163 44.928 25.3471 45.0538 25.8232C45.1794 26.2995 45.057 26.6798 44.7725 26.8584C44.4881 27.037 44.1806 27.0172 44.1143 26.9973C44.048 26.9775 44.0681 26.9245 44.1342 26.9278H44.1343Z" fill="#452615"/>
<path fill-rule="evenodd" clip-rule="evenodd" d="M43.4066 26.6264C43.4066 26.6264 43.6779 26.2494 44.0846 26.2989C44.4914 26.3484 44.4153 26.6297 44.1706 26.6297C43.9259 26.6297 43.6546 26.5438 43.4066 26.6264Z" fill="#241714"/>
<path fill-rule="evenodd" clip-rule="evenodd" d="M39.3634 29.6533C39.1908 29.7129 38.949 29.6468 39.0042 29.4813C39.0595 29.316 39.3081 29.468 39.3495 29.4879C39.391 29.5077 39.7639 29.435 40.0263 29.2366C40.2888 29.0381 41.4906 28.443 41.9189 28.4759C42.3075 28.5058 42.4286 28.6721 42.5613 28.7027C42.694 28.6721 42.8152 28.506 43.2038 28.4759C43.632 28.443 44.8339 29.0381 45.0963 29.2366C45.3588 29.435 45.7316 29.5079 45.7732 29.4879C45.8146 29.468 46.0632 29.3158 46.1185 29.4813C46.1737 29.6466 45.9319 29.7129 45.7593 29.6533C45.7593 29.6533 45.5038 29.6333 44.8822 29.6202C44.5602 29.6135 43.5479 29.8283 42.5405 29.8283C41.547 29.8283 40.5582 29.6135 40.2407 29.6202C39.6191 29.6333 39.3635 29.6533 39.3635 29.6533H39.3634Z" fill="#452413"/>
<path fill-rule="evenodd" clip-rule="evenodd" d="M40.51 30.7782C40.51 30.7782 41.1318 31.2545 42.4943 31.2346C43.8569 31.2148 44.6243 30.7319 44.6243 30.7319C44.6243 30.7319 43.7246 31.5125 42.4745 31.4926C41.2244 31.4728 40.51 30.7782 40.51 30.7782Z" fill="#452615"/>
<path fill-rule="evenodd" clip-rule="evenodd" d="M41.0062 29.9314C41.0062 29.9314 41.4626 30.0834 42.2696 30.11C43.0765 30.1365 43.4865 30.1495 43.3807 30.4473C43.2749 30.745 42.316 30.9169 41.4494 30.6194C40.5827 30.3217 40.4902 29.766 41.0062 29.9315V29.9314Z" fill="#855034"/>
</svg>
