<svg width="85" height="212" viewBox="0 0 85 212" fill="none" xmlns="http://www.w3.org/2000/svg">
<path fill-rule="evenodd" clip-rule="evenodd" d="M36.7085 192.133C36.7085 192.133 36.9972 192.985 37.1525 194.339C37.3079 195.692 37.2955 196.31 37.2955 196.31C37.2955 196.31 36.6166 197.315 35.16 197.882C33.7034 198.448 32.9083 198.452 32.9083 198.452L31.4583 198.194C31.4583 198.194 30.884 198.727 29.7804 200.352C28.6769 201.977 27.1164 203.044 24.8573 203.35C22.5983 203.655 18.4727 203.558 17.4889 203.121C16.5052 202.684 15.6204 201.569 15.6105 201.216C15.6006 200.863 15.2529 200.011 16.5172 198.856C17.781 197.701 24.0215 194.432 25.3418 192.129C26.6621 189.826 35.8471 189.722 36.7089 192.132L36.7085 192.133Z" fill="#424852"/>
<path fill-rule="evenodd" clip-rule="evenodd" d="M36.2677 195.344C36.2677 195.344 34.3905 196.148 33.0574 196.92C31.724 197.692 31.2181 198.034 30.3308 198.951C29.4435 199.868 28.405 201.728 26.3477 202.401C24.2905 203.073 18.9645 203.232 17.9512 202.795C16.9378 202.359 16.1436 201.317 16.1436 201.317C16.1436 201.317 17.5063 202.665 19.1857 202.701C20.8652 202.737 24.8479 202.467 26.0742 202.079C27.3002 201.69 28.5731 200.859 30.0387 198.496C31.5044 196.134 35.3734 195.467 36.2685 195.345L36.2677 195.344ZM22.8701 200.71C22.8701 200.71 21.0621 200.822 18.9987 200.214C16.9353 199.605 17.2636 198.706 17.2636 198.706C17.2636 198.706 16.0245 200.228 18.2972 200.938C20.5699 201.649 22.8701 200.71 22.8701 200.71V200.71ZM26.7556 193.742C26.7556 193.742 26.3251 194.156 26.6015 194.567C26.8779 194.978 27.5976 197.566 27.5976 197.566C27.5976 197.566 26.5994 195.554 26.2283 194.908C25.8571 194.262 25.8036 193.923 25.8711 193.703C25.9387 193.481 25.9795 193.364 25.9795 193.364C25.9795 193.364 26.4355 193.3 26.7556 193.743V193.742Z" fill="#58606D"/>
<path fill-rule="evenodd" clip-rule="evenodd" d="M60.6502 191.079C60.6502 191.079 62.8944 195.586 63.149 196.372C63.4036 197.157 63.4798 199.863 63.4798 199.863C63.4798 199.863 63.6841 203.565 59.685 203.806C55.6859 204.047 54.0101 201.725 53.8915 199.787C53.7732 197.848 53.5533 195.206 52.9444 193.934C52.3356 192.661 52.3356 192.661 52.3356 192.661C52.3356 192.661 51.896 190.293 52.3722 189.392C52.8484 188.49 59.6871 190.291 60.6502 191.078V191.079Z" fill="#424852"/>
<path fill-rule="evenodd" clip-rule="evenodd" d="M62.5269 199.753C62.5269 199.753 62.2691 202.148 59.4456 202.373C56.6222 202.598 55.2978 200.529 55.1277 199.711C54.9575 198.893 55.552 201.197 58.2086 201.331C60.8652 201.465 62.0462 200.478 62.5274 199.753H62.5269ZM58.2914 192.627C58.2914 192.627 58.9393 194.207 59.5713 194.669C60.2032 195.131 61.6124 195.459 61.6124 195.459C61.6124 195.459 59.7056 194.722 59.4193 193.968C59.133 193.213 58.9253 192.632 58.9253 192.632C58.9253 192.632 58.7049 192.125 58.2914 192.627ZM55.9964 192.788C55.9964 192.788 56.4096 193.862 56.2514 194.545C56.0937 195.228 55.3229 196.141 55.3229 196.141C55.3229 196.141 56.6032 195.003 56.7293 194.232C56.8553 193.462 56.588 192.854 56.588 192.854C56.588 192.854 56.3318 192.643 55.9964 192.788Z" fill="#58606D"/>
<path fill-rule="evenodd" clip-rule="evenodd" d="M59.1959 86.3435C59.1959 86.3435 65.9044 95.5319 65.2692 104.951C64.634 114.37 63.8575 137.999 63.8575 137.999L64.2286 150.349L61.9831 184.581L61.4328 191.16C61.4328 191.16 56.7927 192.093 54.8084 192.168C52.824 192.244 51.9895 191.994 51.9895 191.994C51.9895 191.994 50.0463 188.784 50.1477 187.606C50.249 186.428 50.408 181.236 50.1992 180.21C49.9903 179.185 45.901 148.256 46.0336 144.352C46.1658 140.448 45.8746 138.909 45.7934 138.302C45.7123 137.694 44.2112 115.417 44.2112 115.417C44.2112 115.417 39.5451 146.433 40.2335 147.909C40.9218 149.386 41.1591 171.968 39.48 180.112C37.8014 188.256 38.4988 188.538 38.4988 188.538L36.9116 192.893C36.9116 192.893 34.1998 194.049 30.6785 193.62C27.1572 193.191 25.6034 191.635 25.6034 191.635C25.6034 191.635 26.2448 189.081 26.2678 187.014C26.2913 184.946 24.0598 144.561 23.9066 142.5C23.7538 140.439 21.9425 112.681 21.659 106.585C21.3756 100.489 27.3677 85.9551 27.3677 85.9551C27.3677 85.9551 51.7027 86.3938 59.1968 86.3431L59.1959 86.3435Z" fill="#23314B"/>
<path fill-rule="evenodd" clip-rule="evenodd" d="M40.907 95.6419C40.907 95.6419 40.8012 106.508 40.8893 107.742C40.9775 108.977 43.6234 110.829 43.6234 110.829C43.6234 110.829 41.6831 108.139 41.7713 107.478C41.8594 106.816 42.0094 95.5538 42.0094 95.5538C42.0094 95.5538 41.48 95.4656 40.907 95.6419Z" fill="#192233"/>
<path d="M16.4719 103.798C16.4719 103.798 18.3928 105.3 18.3594 107.961C18.3508 108.639 17.8013 109.932 17.5838 110.58C17.4614 110.947 17.1702 111.677 17.1454 112.057C17.1075 112.64 17.428 113.799 17.3922 114.382C17.3477 115.111 16.792 116.961 15.9982 117.01C15.211 117.059 14.6462 115.144 14.5885 114.423C14.5374 113.771 15.3778 112.214 14.813 111.815C14.6198 111.678 14.1861 111.943 13.9838 112.065C13.8149 112.167 13.4326 112.395 13.3568 112.566C13.2547 112.801 13.1389 113.253 13.0545 113.448C13.019 113.532 12.7208 114.007 12.7986 114.3C12.9589 114.897 13.2345 116.9 13.2345 116.9C13.2345 116.9 14.2619 117.381 14.7109 117.825C14.9222 118.032 15.9669 118.357 16.2227 118.505C16.605 118.727 17.1809 119.51 16.8987 119.836C16.5028 120.29 14.6198 119.889 13.955 119.52C13.0256 119.004 11.3779 118.407 11.0001 117.68C10.6401 116.985 10.3756 114.734 10.1284 114.088C9.92411 113.554 9.83926 113.371 9.66377 112.784C9.47469 112.159 10.135 109.859 10.6866 107.978C11.1381 106.446 12.2965 103.9 12.2965 103.9L16.4719 103.798V103.798Z" fill="#70452E"/>
<path d="M17.1846 115.387C17.2794 115.542 17.4153 115.765 17.4771 115.864C17.646 116.135 18.191 116.629 18.1597 116.939C18.1465 117.076 17.7683 117.355 17.7683 117.355C17.7683 117.355 18.7953 118.274 18.7887 118.679C18.7862 118.812 18.4439 119.099 18.4439 119.099C18.4439 119.099 18.446 119.778 18.266 119.898C18.0291 120.057 17.3622 119.951 16.8888 119.847L16.8987 119.837C17.1813 119.511 16.6054 118.729 16.2227 118.507C15.9669 118.358 14.9222 118.034 14.7109 117.826C14.3509 117.47 13.494 117.097 13.218 116.961L13.2275 116.848C13.1826 116.527 12.9437 114.84 12.7991 114.302C12.7212 114.008 13.0191 113.533 13.0549 113.45C13.1394 113.254 13.2551 112.802 13.3573 112.568C13.4331 112.396 13.8154 112.169 13.9843 112.066C14.1865 111.944 14.6203 111.679 14.8135 111.816C15.3783 112.216 14.5379 113.772 14.589 114.424C14.6467 115.145 15.2114 117.06 15.9986 117.011C16.5255 116.979 16.9473 116.152 17.1846 115.387V115.387ZM12.2899 103.898C12.2899 103.898 12.0366 104.481 11.941 104.693C11.8364 104.927 11.6432 105.392 11.6432 105.392C11.6432 105.392 13.8042 105.273 14.5536 105.273C16.2635 105.276 17.9731 105.903 17.9731 105.903C17.9731 105.903 17.7597 105.381 17.4882 104.947C17.2505 104.568 16.7434 103.894 16.7434 103.894L14.3777 103.653L12.2899 103.898V103.898Z" fill="#452615"/>
<path d="M11.5006 102.177L11.4038 104.351C11.4038 104.351 13.7881 104.297 14.619 104.363C17.4157 104.582 18.247 104.964 18.247 104.964L18.7627 102.181L11.501 102.177H11.5006Z" fill="#C4C2CC"/>
<path d="M35.5984 28.3552C41.9806 28.3552 42.3711 27.7822 48.8876 27.7822C48.7331 28.9839 49.6884 34.9887 51.0425 36.4524L49.4816 43.8825L47.0981 59.1137L34.6625 48.8332L33.5729 38.4466C36.2035 36.405 35.7887 30.2839 35.5984 28.3548V28.3552Z" fill="#70452E"/>
<path d="M35.5983 28.3552C42.0155 28.3552 42.4357 27.835 48.9881 27.835C48.9329 28.2609 49.0639 29.3056 49.124 30.5418C48.3751 31.6013 47.2867 32.7729 44.3813 34.6983C41.4759 36.6237 37.8644 35.839 35.5303 34.2905C35.7408 31.8712 35.7862 29.4621 35.5983 28.3552ZM50.1633 34.7906C50.3532 35.4489 50.6342 35.963 50.9295 36.2806L49.5215 43.8825L47.9734 53.7209C47.2422 55.3061 46.4093 56.7244 45.5146 57.7897L34.9709 49.1212C34.8177 48.6977 34.6698 48.2722 34.5281 47.8454L33.5724 38.447C34.6257 37.6342 35.0051 36.6081 35.4047 34.9776L35.5752 35.2726C35.5752 35.2726 36.456 39.6375 37.5369 42.1948C38.6174 44.7526 39.2415 46.6047 39.0735 47.4203C38.9054 48.2359 39.1455 48.699 39.5777 49.3828C40.0098 50.0662 41.7148 52.3372 41.8108 51.9183C41.9068 51.4993 42.1712 49.2283 43.3716 47.6852C44.5725 46.1416 45.9652 45.0834 45.461 44.1796C44.9568 43.2758 45.1232 42.5565 46.0616 41.2029C46.9996 39.8492 49.5499 36.6522 50.1633 34.791V34.7906ZM41.9797 37.212C41.9797 37.212 41.8355 38.2484 42.1717 38.9096C42.5078 39.5712 43.0363 39.2404 43.0363 39.2404C43.0363 39.2404 42.1239 38.805 41.9797 37.212Z" fill="#452615"/>
<path d="M31.067 90.2455C43.0932 93.2811 51.9434 93.031 60.8689 88.4177C59.0242 84.5916 57.4539 81.329 55.6092 77.5029C49.763 63.3618 52.0447 44.3313 52.7236 37.6904C51.5347 36.4781 51.2447 35.4874 51.2447 35.4874C51.2447 35.4874 50.7166 35.1043 50.4373 35.4643C49.9306 38.2379 45.8512 41.7443 45.789 42.553C45.4977 43.6224 46.708 43.582 46.5803 44.1991C46.3319 45.397 44.5161 47.3039 43.9048 48.3857C43.1567 49.708 42.5643 54.5219 42.5643 54.5219C42.5643 54.5219 40.306 51.6676 39.7792 51.0118C37.4995 48.0359 38.5376 48.438 38.498 46.8248C38.4853 46.305 38.4758 45.9725 37.9765 44.4557C37.5048 43.0238 35.8707 39.7514 35.2948 35.4676C35.2692 35.2781 34.4944 35.9001 34.3691 36.1316C33.3698 38.1151 33.4101 39.4395 32.3337 42.3112C29.8147 53.3862 40.9952 77.1993 31.067 90.2455Z" fill="#F2F1F6"/>
<path d="M51.669 36.3848C51.669 36.3848 50.5044 40.6924 49.4914 45.4269C49.3786 44.7566 49.0169 43.6341 48.9843 43.2786C48.8364 41.6782 47.9689 41.3808 47.3732 41.3684C46.6322 41.354 45.8779 42.0675 45.7481 42.7031C45.6962 42.9593 45.7836 43.2119 45.9471 43.4294C45.7984 43.1212 45.8025 42.7682 46.3912 42.0844C46.9798 41.4006 48.3841 42.1878 48.5666 42.8671C48.801 43.7387 49.3077 45.0644 49.4708 45.5224C48.9798 47.8256 48.5258 50.2235 48.2614 52.2709C47.5236 57.98 48.2247 69.7343 49.9545 75.202C51.414 79.8067 56.5735 85.0021 57.0868 89.14C51.208 92.2934 42.0316 92.8203 35.5287 89.9882C35.8603 86.5291 37.5785 76.9379 37.5571 72.7769C37.5291 67.3088 35.1303 53.374 34.388 48.8336C34.3019 48.3076 34.2356 47.7354 34.1849 47.1352C34.5182 46.9268 34.8869 46.6087 35.1695 46.1301C35.8463 44.9836 37.2667 45.7111 37.6749 46.3945C38.0831 47.0779 38.2125 47.6291 38.2125 47.6291C38.2125 47.6291 38.7855 45.9538 37.4389 44.7851C36.0926 43.6164 35.3149 44.9391 34.6134 46.1519C34.4548 46.4262 34.3015 46.6454 34.1598 46.8205C33.8224 42.2772 34.1137 36.6838 34.1137 36.6838C33.8315 37.0393 33.6486 37.1745 33.4356 37.4603C25.7014 50.3986 38.65 78.9325 30.1945 89.9919C44.2598 93.8131 51.4885 92.6028 61.0513 88.8484C46.7504 59.6689 55.5297 54.787 52.7231 37.6902C52.3717 37.2552 52.0203 36.8198 51.6685 36.3848H51.669Z" fill="#C4C2CC"/>
<path d="M64.6748 97.6923C64.6748 97.6923 64.2348 98.489 64.1553 98.7007C63.9127 99.3302 63.1856 101.689 63.1856 101.689L59.058 94.0536L60.2724 93.1309L64.6748 97.6923Z" fill="#5F3722"/>
<path d="M59.3617 93.8232L58.8826 95.16C58.8826 95.16 61.0667 96.3332 61.7979 96.7184C62.7791 97.2222 64.6015 98.0065 64.6015 98.0065C64.6015 98.0065 64.9216 97.2036 64.9929 96.9186C65.0419 96.7229 65.3451 95.7248 65.3451 95.7248L59.3612 93.8237L59.3617 93.8232Z" fill="#C4C2CC"/>
<path d="M33.4941 37.372C33.4941 37.372 31.0249 39.2727 27.9041 40.1629C18.52 42.8343 16.4352 44.7326 16.0892 54.1038C15.8531 60.493 15.1504 65.4664 14.055 71.6492C12.5778 77.6149 12.0872 80.9731 11.8602 85.5905C11.6332 90.208 11.1591 102.539 11.1591 102.539C12.8011 102.507 17.3258 102.694 18.7371 102.995C20.4302 95.8186 23.0732 82.4474 24.1472 79.8267C24.2403 82.8672 22.672 87.8492 21.8732 92.9676C21.2957 96.6714 20.6811 107.327 20.6811 107.327C20.6811 107.327 25.4798 111.289 26.9978 110.246C30.3263 107.963 32.4156 99.2287 34.8523 87.8093C35.9336 82.7444 36.2257 72.2605 35.8718 67.487C35.5517 63.1537 33.8731 54.3217 33.4611 50.3061C33.1275 47.0506 33.4941 37.3716 33.4941 37.3716V37.372Z" fill="#23314B"/>
<path d="M51.7464 36.4784C51.7464 36.4784 49.0911 47.1222 48.904 50.9054C48.7883 53.2585 48.5831 57.9727 48.6462 60.3241C48.738 63.7201 48.7323 71.2092 49.5722 74.4854C50.2058 76.9546 52.193 80.6361 54.0002 82.4799C57.5268 86.0778 58.2325 94.343 58.2325 94.343C61.1548 95.6868 63.6808 96.82 65.3599 97.5323C65.3599 97.5323 68.0346 92.6767 70.5429 87.6288C73.0862 82.51 74.8576 75.1404 75.0644 72.9196C75.1266 72.2597 74.5816 66.0014 73.0347 59.7902C71.2959 52.8082 69.5225 46.9368 67.7866 44.5912C66.4169 42.7404 55.1256 38.319 51.7464 36.478V36.4784ZM62.0606 74.6769C61.6767 70.7833 60.5846 64.9345 60.5846 64.9345C60.5846 64.9345 61.1259 67.2657 62.2312 70.3911C63.4662 73.8811 64.0693 74.3437 64.1261 74.6053C63.9391 75.6339 63.6767 76.6225 63.0345 79.0633C62.8989 78.5166 62.1455 75.6573 62.0602 74.6769H62.0606Z" fill="#23314B"/>
<path d="M30.5541 39.9707C30.1475 40.8444 26.0141 47.9129 25.9705 48.598C26.2139 49.592 28.9125 55.2212 30.0656 57.6961C29.0633 54.3726 27.6232 50.0258 27.7723 48.6812C27.9148 47.412 29.7929 42.2471 30.5545 39.9707H30.5541Z" fill="#35496E"/>
<path d="M64.4198 75.1498C63.2321 81.2045 60.0466 86.2875 58.613 93.4866C58.6439 93.6999 58.9578 94.3282 59.039 94.7236C61.0118 89.8203 64.7683 79.8513 64.4198 75.1494V75.1498Z" fill="#182234"/>
<path fill-rule="evenodd" clip-rule="evenodd" d="M57.1214 48.2361L53.091 49.2034L57.1235 49.1791C56.4561 51.57 52.5608 65.7337 50.5625 73.5664C52.8216 66.7455 58.0924 48.6765 58.0924 48.6765C58.0924 48.6765 57.0551 43.0333 53.166 38.4756C55.4119 41.5433 56.4673 44.5563 57.121 48.2357L57.1214 48.2361Z" fill="#182234"/>
<path fill-rule="evenodd" clip-rule="evenodd" d="M25.9174 48.2358L29.9478 49.203L25.9153 49.1787C26.5826 51.5696 33.2598 64.1338 35.2577 71.9665C32.9986 65.1456 24.9464 48.6762 24.9464 48.6762C24.9464 48.6762 26.1905 44.9798 30.4504 40.0254C28.2045 43.0931 26.6362 45.7077 25.9178 48.2354L25.9174 48.2358Z" fill="#182234"/>
<path d="M28.2984 40.4399C18.3813 44.0386 17.2204 44.5288 16.7257 54.6778C16.6013 57.231 16.4901 59.4106 16.3212 61.4464C16.2046 62.1755 16.0913 62.8462 16.0167 63.4311C15.8886 64.4424 15.6134 66.4515 15.4157 67.4447C15.0746 69.1526 14.7661 70.7204 14.4851 72.2059C14.2944 72.9408 14.1197 73.6324 13.9603 74.2899C14.9704 75.8969 18.0633 56.1023 18.4769 51.3229C18.9531 45.8248 22.8162 42.9173 26.3614 41.4372C27.1392 41.1126 27.7768 40.7727 28.2984 40.4395V40.4399Z" fill="#35496E"/>
<path fill-rule="evenodd" clip-rule="evenodd" d="M33.9358 92.9475C39.4793 95.8872 48.5902 94.6563 57.8354 91.542L58.1089 92.1616C51.2126 95.0456 40.596 97.1127 33.7203 93.8476L33.9358 92.9475Z" fill="#192233"/>
<path d="M74.0621 67.8467C73.7441 65.5744 73.2564 62.7744 72.5614 59.9844C70.8642 53.1709 69.1341 47.4407 67.4398 45.1516C66.274 43.5763 57.7439 40.0934 53.3938 38.0361C53.3938 38.0361 63.9074 43.9055 65.7145 45.5582C67.3257 47.0309 71.1925 58.6773 74.0621 67.8467Z" fill="#35496E"/>
<path d="M21.4561 107.883C21.4561 107.883 25.4082 111.642 26.9386 110.599C30.2671 108.334 33.7245 97.0151 34.5228 88.5361C32.8438 93.9659 29.2129 105.127 27.3081 107.455C25.4033 109.784 21.4565 107.883 21.4565 107.883H21.4561Z" fill="#192233"/>
<path fill-rule="evenodd" clip-rule="evenodd" d="M50.0348 20.7219C50.0348 20.7219 51.0712 20.4575 51.2587 20.8653C51.4461 21.2731 51.6998 23.0811 51.4572 24.1835C51.2146 25.2858 50.2004 26.8294 49.7374 26.8294C49.2743 26.8294 49.2521 26.6749 49.2521 26.6749C48.9674 30.7346 47.7394 31.184 44.4674 34.2377C43.8169 34.8449 40.8242 34.821 40.1993 34.2377C36.9276 31.1836 35.6329 30.8005 35.4146 26.6749C35.4146 26.6749 35.3923 26.8294 34.9293 26.8294C34.4663 26.8294 33.4521 25.2858 33.2094 24.1835C32.9668 23.0811 33.2206 21.2731 33.408 20.8653C33.5954 20.4575 34.6319 20.7219 34.6319 20.7219C33.8187 15.6711 35.0327 9.57976 42.378 9.60653C49.6801 9.6329 50.9456 16.5642 50.0348 20.7219Z" fill="#70452E"/>
<path fill-rule="evenodd" clip-rule="evenodd" d="M34.7971 23.7109C34.7971 23.7109 34.2656 23.5016 34.3962 22.84C34.5268 22.1784 34.5639 21.7265 34.2471 21.6273C33.9303 21.528 33.567 22.7078 33.6506 23.6557C33.7347 24.6039 34.4799 25.717 34.4799 25.717C34.4799 25.717 33.5386 24.6917 33.52 23.2145C33.5015 21.7372 33.7808 21.1968 34.1631 21.1968C34.5449 21.1968 34.7316 21.7261 34.7316 21.825C34.7316 21.9243 34.6104 22.7951 34.7966 23.71L34.7971 23.7109ZM49.636 23.7109C49.636 23.7109 50.2646 23.5016 50.1101 22.84C49.9557 22.1784 49.9116 21.7265 50.2865 21.6273C50.6613 21.528 51.091 22.7078 50.9921 23.6557C50.8928 24.6039 50.0109 25.717 50.0109 25.717C50.0109 25.717 51.1243 24.6917 51.1462 23.2145C51.168 21.7372 50.8376 21.1968 50.3853 21.1968C49.9334 21.1968 49.7126 21.7261 49.7126 21.825C49.7126 21.9243 49.856 22.7951 49.6356 23.71L49.636 23.7109Z" fill="#452615"/>
<path fill-rule="evenodd" clip-rule="evenodd" d="M35.4154 26.7076L35.415 26.6751C35.415 26.6751 35.3927 26.8296 34.9297 26.8296C34.8506 26.8296 34.755 26.7842 34.6504 26.7039C34.7097 26.7406 34.8609 26.7826 35.0636 26.4699C35.328 26.0621 35.5192 24.4197 35.501 25.0866C35.492 25.4112 35.464 26.0905 35.4158 26.708L35.4154 26.7076ZM49.2541 26.7076L49.2545 26.6751C49.2545 26.6751 49.2768 26.8296 49.7398 26.8296C49.8189 26.8296 49.9145 26.7842 50.0191 26.7039C49.9598 26.7406 49.8086 26.7826 49.6059 26.4699C49.3414 26.0621 49.1503 24.4197 49.1684 25.0866C49.1775 25.4112 49.2055 26.0905 49.2537 26.708L49.2541 26.7076Z" fill="#452615"/>
<path fill-rule="evenodd" clip-rule="evenodd" d="M44.6528 20.8771C44.6528 20.8771 43.9253 21.4723 43.8062 22.0808C43.6872 22.6892 44.3883 23.0995 44.8645 23.2713C45.3407 23.4431 44.0509 23.0002 44.0971 22.2591C44.1432 21.5181 45.3209 20.7242 45.473 20.6188C45.625 20.5129 45.1821 20.4005 44.6528 20.8767V20.8771Z" fill="#452615"/>
<path fill-rule="evenodd" clip-rule="evenodd" d="M40.8019 21.314C40.8019 21.314 41.3972 21.9224 41.3045 22.5444C41.2118 23.1661 40.2198 23.6027 40.2198 23.6027C40.2198 23.6027 41.5162 22.9679 40.8019 21.314Z" fill="#452615"/>
<path fill-rule="evenodd" clip-rule="evenodd" d="M35.8879 20.7451C35.8879 20.7451 38.1466 20.2804 39.3767 20.439C40.6071 20.5976 40.961 20.9498 41.1266 20.7846C41.2922 20.6195 40.7328 20.114 39.6349 19.8289C38.0103 19.4071 37.3557 19.6502 36.0601 20.3781C35.8154 20.5152 35.7367 20.7542 35.8879 20.7451Z" fill="#191716"/>
<path fill-rule="evenodd" clip-rule="evenodd" d="M36.5046 21.8047C36.5046 21.8047 37.45 21.146 38.634 21.165C39.8183 21.1839 40.2694 21.499 40.2393 21.5905C40.2092 21.6819 39.9917 21.5011 39.5472 21.3454C39.1028 21.1901 38.566 21.1225 37.9983 21.2564C37.4303 21.3903 36.7497 21.8706 36.5046 21.8051V21.8047Z" fill="#241714"/>
<path fill-rule="evenodd" clip-rule="evenodd" d="M37.3166 21.7629C37.3166 21.7629 38.0025 21.1948 38.6805 21.236C39.579 21.2904 40.306 21.9936 40.2632 21.9919C40.2632 21.9919 40.6166 22.2704 40.5866 22.3684C40.5326 22.5435 40.1326 22.2712 40.1301 22.2716C40.1071 22.2741 39.2177 22.4982 38.423 22.415C37.6288 22.3318 37.3598 21.8313 37.3162 21.7633L37.3166 21.7629Z" fill="white"/>
<path fill-rule="evenodd" clip-rule="evenodd" d="M37.3743 22.4902C37.3743 22.4902 37.6532 22.898 38.5866 22.8939C39.5201 22.8902 39.9234 22.5577 39.9464 22.6446C39.9547 22.6755 39.8624 22.7855 39.5205 22.8605C38.8943 22.9985 37.7788 23.0492 37.3743 22.4897V22.4902Z" fill="#452615"/>
<path fill-rule="evenodd" clip-rule="evenodd" d="M37.3165 21.7628C37.3165 21.7628 37.3499 21.7352 37.4096 21.6924C37.4986 21.8905 37.7894 22.3424 38.6096 22.3919C39.4549 22.4429 40.0337 22.1723 40.2594 21.9791C40.2656 21.9873 40.2669 21.9915 40.2636 21.9915C40.2636 21.9915 40.617 22.2699 40.5869 22.368C40.533 22.543 40.133 22.2707 40.1305 22.2712C40.1074 22.2736 39.218 22.4977 38.4234 22.4145C37.6292 22.3313 37.3602 21.8308 37.3165 21.7628Z" fill="#D4926F"/>
<path fill-rule="evenodd" clip-rule="evenodd" d="M37.3165 21.7629C37.3165 21.7629 38.0024 21.1948 38.6805 21.236C39.5192 21.2867 40.2079 21.9025 40.2615 21.9829C39.8545 21.7246 39.2522 21.442 38.6821 21.4383C37.9625 21.4338 37.546 21.7378 37.3931 21.8774C37.3515 21.8218 37.3272 21.7794 37.3169 21.7629H37.3165Z" fill="#ADA89F"/>
<path fill-rule="evenodd" clip-rule="evenodd" d="M38.0947 21.329C38.2784 21.2652 38.4799 21.224 38.6801 21.2359C38.8881 21.2487 39.0871 21.2957 39.2692 21.3612C39.317 21.4576 39.3421 21.5671 39.3375 21.6821C39.3235 22.0491 39.0146 22.335 38.648 22.321C38.2809 22.307 37.995 21.998 38.009 21.631C38.0132 21.521 38.0441 21.4184 38.0947 21.329Z" fill="#625D54"/>
<path d="M38.6615 21.9673C38.8331 21.9739 38.9776 21.8401 38.9841 21.6685C38.9907 21.4969 38.8569 21.3525 38.6853 21.3459C38.5137 21.3393 38.3693 21.4731 38.3627 21.6447C38.3562 21.8163 38.4899 21.9607 38.6615 21.9673Z" fill="#191716"/>
<path d="M38.479 21.7236C38.5712 21.7271 38.6488 21.6552 38.6523 21.563C38.6559 21.4708 38.584 21.3932 38.4918 21.3897C38.3996 21.3862 38.322 21.458 38.3184 21.5502C38.3149 21.6424 38.3868 21.7201 38.479 21.7236Z" fill="white"/>
<path fill-rule="evenodd" clip-rule="evenodd" d="M36.6991 21.8756C36.6991 21.8756 37.0719 21.9164 37.2124 21.8686C37.3533 21.8208 37.9868 21.2911 38.6744 21.289C39.3619 21.287 40.0482 21.806 40.1367 21.8616C40.2253 21.9177 39.9608 21.6491 39.6956 21.4901C39.4303 21.331 38.8877 21.0653 38.1224 21.261C37.357 21.4567 37.1811 21.8138 36.6991 21.8748V21.8756Z" fill="#191716"/>
<path fill-rule="evenodd" clip-rule="evenodd" d="M49.0956 20.7451C49.0956 20.7451 46.8369 20.2804 45.6068 20.439C44.3764 20.5976 44.0225 20.9498 43.8569 20.7846C43.6913 20.6195 44.2507 20.114 45.3485 19.8289C46.9732 19.4071 47.6278 19.6502 48.9234 20.3781C49.1681 20.5152 49.2467 20.7542 49.0956 20.7451Z" fill="#191716"/>
<path fill-rule="evenodd" clip-rule="evenodd" d="M48.4789 21.8047C48.4789 21.8047 47.5335 21.146 46.3495 21.165C45.1652 21.1839 44.7141 21.499 44.7442 21.5905C44.7743 21.6819 44.9918 21.5011 45.4363 21.3454C45.8807 21.1901 46.4175 21.1225 46.9852 21.2564C47.5532 21.3903 48.2338 21.8706 48.4789 21.8051V21.8047Z" fill="#241714"/>
<path fill-rule="evenodd" clip-rule="evenodd" d="M47.6669 21.7629C47.6669 21.7629 46.9811 21.1948 46.303 21.236C45.4046 21.2904 44.6775 21.9936 44.7203 21.9919C44.7203 21.9919 44.3669 22.2704 44.397 22.3684C44.4509 22.5435 44.8509 22.2712 44.8534 22.2716C44.8765 22.2741 45.7658 22.4982 46.5605 22.415C47.3547 22.3318 47.6237 21.8313 47.6674 21.7633L47.6669 21.7629Z" fill="white"/>
<path fill-rule="evenodd" clip-rule="evenodd" d="M47.6093 22.4902C47.6093 22.4902 47.3304 22.898 46.3969 22.8939C45.4635 22.8902 45.0602 22.5577 45.0371 22.6446C45.0289 22.6755 45.1212 22.7855 45.4631 22.8605C46.0892 22.9985 47.2048 23.0492 47.6093 22.4897V22.4902Z" fill="#452615"/>
<path fill-rule="evenodd" clip-rule="evenodd" d="M47.667 21.7628C47.667 21.7628 47.6336 21.7352 47.5739 21.6924C47.4849 21.8905 47.1941 22.3424 46.3739 22.3919C45.5286 22.4429 44.9498 22.1723 44.7241 21.9791C44.7179 21.9873 44.7167 21.9915 44.72 21.9915C44.72 21.9915 44.3665 22.2699 44.3966 22.368C44.4506 22.543 44.8505 22.2707 44.853 22.2712C44.8761 22.2736 45.7655 22.4977 46.5601 22.4145C47.3543 22.3313 47.6233 21.8308 47.667 21.7628Z" fill="#D4926F"/>
<path fill-rule="evenodd" clip-rule="evenodd" d="M47.6669 21.7629C47.6669 21.7629 46.981 21.1948 46.303 21.236C45.4642 21.2867 44.7755 21.9025 44.7219 21.9829C45.1289 21.7246 45.7312 21.442 46.3013 21.4383C47.021 21.4338 47.4374 21.7378 47.5903 21.8774C47.6319 21.8218 47.6562 21.7794 47.6665 21.7629H47.6669Z" fill="#ADA89F"/>
<path fill-rule="evenodd" clip-rule="evenodd" d="M46.8887 21.329C46.705 21.2652 46.5036 21.224 46.3034 21.2359C46.0953 21.2487 45.8964 21.2957 45.7143 21.3612C45.6665 21.4576 45.6414 21.5671 45.6459 21.6821C45.6599 22.0491 45.9689 22.335 46.3355 22.321C46.7025 22.307 46.9884 21.998 46.9744 21.631C46.9703 21.521 46.9394 21.4184 46.8887 21.329Z" fill="#625D54"/>
<path d="M46.3219 21.9673C46.1503 21.9739 46.0058 21.8401 45.9993 21.6685C45.9927 21.4969 46.1265 21.3525 46.2981 21.3459C46.4697 21.3393 46.6141 21.4731 46.6207 21.6447C46.6272 21.8163 46.4935 21.9607 46.3219 21.9673Z" fill="#191716"/>
<path d="M46.1121 21.7236C46.0199 21.7271 45.9423 21.6552 45.9387 21.563C45.9352 21.4708 46.0071 21.3932 46.0993 21.3897C46.1915 21.3862 46.2691 21.458 46.2726 21.5502C46.2762 21.6424 46.2043 21.7201 46.1121 21.7236Z" fill="white"/>
<path fill-rule="evenodd" clip-rule="evenodd" d="M48.2844 21.8756C48.2844 21.8756 47.9116 21.9164 47.7712 21.8686C47.6303 21.8208 46.9967 21.2911 46.3092 21.289C45.6216 21.287 44.9353 21.806 44.8468 21.8616C44.7582 21.9177 45.0227 21.6491 45.288 21.4901C45.5533 21.331 46.0958 21.0653 46.8612 21.261C47.6266 21.4567 47.8025 21.8138 48.2844 21.8748V21.8756Z" fill="#191716"/>
<path d="M41.9793 25.879C42.1756 25.879 42.3348 25.7306 42.3348 25.5474C42.3348 25.3643 42.1756 25.2158 41.9793 25.2158C41.7829 25.2158 41.6238 25.3643 41.6238 25.5474C41.6238 25.7306 41.7829 25.879 41.9793 25.879Z" fill="#855034"/>
<path fill-rule="evenodd" clip-rule="evenodd" d="M40.9354 26.9219C40.9354 26.9219 40.1749 27.0278 40.0489 26.4787C39.9232 25.9296 40.2211 25.5658 40.5848 25.427C40.9485 25.2882 41.0017 25.0896 40.8295 25.0501C40.6573 25.0105 40.1416 25.3413 40.0159 25.8175C39.8903 26.2937 40.0126 26.674 40.2973 26.8527C40.5815 27.0315 40.8892 27.0113 40.9555 26.9916C41.0219 26.9718 41.0017 26.9186 40.9358 26.9219H40.9354Z" fill="#452615"/>
<path fill-rule="evenodd" clip-rule="evenodd" d="M41.6633 26.6215C41.6633 26.6215 41.3922 26.2446 40.9852 26.294C40.5782 26.3435 40.6544 26.6248 40.8991 26.6248C41.1438 26.6248 41.4149 26.5387 41.6633 26.6215Z" fill="#241714"/>
<path fill-rule="evenodd" clip-rule="evenodd" d="M44.1341 26.9219C44.1341 26.9219 44.8946 27.0278 45.0206 26.4787C45.1463 25.9296 44.8484 25.5658 44.4847 25.427C44.1209 25.2882 44.0678 25.0896 44.24 25.0501C44.4122 25.0105 44.9279 25.3413 45.0536 25.8175C45.1792 26.2937 45.0569 26.674 44.7722 26.8527C44.488 27.0315 44.1803 27.0113 44.1139 26.9916C44.0476 26.9718 44.0678 26.9186 44.1337 26.9219H44.1341Z" fill="#452615"/>
<path fill-rule="evenodd" clip-rule="evenodd" d="M43.4066 26.6215C43.4066 26.6215 43.6777 26.2446 44.0847 26.294C44.4917 26.3435 44.4155 26.6248 44.1708 26.6248C43.9261 26.6248 43.655 26.5387 43.4066 26.6215Z" fill="#241714"/>
<path fill-rule="evenodd" clip-rule="evenodd" d="M39.3634 29.6478C39.1908 29.7071 38.949 29.6412 39.0042 29.4756C39.0594 29.31 39.3082 29.4624 39.3494 29.4822C39.391 29.502 39.7639 29.4295 40.0263 29.2309C40.2887 29.0324 41.4907 28.4371 41.9187 28.4701C42.3072 28.5001 42.4287 28.6661 42.5613 28.6966C42.694 28.6661 42.8151 28.4997 43.2036 28.4701C43.6316 28.4371 44.8336 29.0324 45.096 29.2309C45.3584 29.4295 45.7312 29.502 45.7728 29.4822C45.814 29.4624 46.0628 29.31 46.118 29.4756C46.1732 29.6412 45.9314 29.7071 45.7588 29.6478C45.7588 29.6478 45.5034 29.6276 44.8818 29.6148C44.5597 29.6078 43.5475 29.8229 42.5399 29.8229C41.5463 29.8229 40.5577 29.6083 40.2401 29.6148C39.6184 29.628 39.363 29.6478 39.363 29.6478H39.3634Z" fill="#452413"/>
<path fill-rule="evenodd" clip-rule="evenodd" d="M40.5103 30.7727C40.5103 30.7727 41.1319 31.2489 42.4946 31.2291C43.8573 31.2094 44.6244 30.7266 44.6244 30.7266C44.6244 30.7266 43.7247 31.5072 42.4744 31.4874C41.2242 31.4676 40.5099 30.7731 40.5099 30.7731L40.5103 30.7727Z" fill="#452615"/>
<path fill-rule="evenodd" clip-rule="evenodd" d="M41.0063 29.9261C41.0063 29.9261 41.4627 30.0781 42.2697 30.1049C43.0767 30.1313 43.4866 30.1445 43.3807 30.4423C43.2748 30.7401 42.3158 30.9119 41.4491 30.6145C40.5824 30.3171 40.4901 29.7614 41.0059 29.9266L41.0063 29.9261Z" fill="#855034"/>
</svg>
