<svg width="85" height="212" viewBox="0 0 85 212" fill="none" xmlns="http://www.w3.org/2000/svg">
<path fill-rule="evenodd" clip-rule="evenodd" d="M35.0865 20.6743C35.0794 20.4719 35.0755 20.1257 35.1045 19.6925C35.0763 19.6479 35.0708 19.5935 35.1167 19.5299L35.1261 19.4231C35.1167 19.3991 35.1098 19.3728 35.1067 19.3452C35.1006 19.2885 35.1095 19.2243 35.1452 19.1569C35.0608 19.0653 34.9652 18.913 35.026 18.7291C35.0368 18.6959 35.0489 18.6686 35.0622 18.6459C35.0451 18.5428 35.0583 18.4344 35.1526 18.3658C35.0794 18.3039 35.0265 18.2099 35.1103 18.0807C35.1095 18.0564 35.1103 18.0321 35.1136 18.0086C35.128 17.9082 35.1847 17.8158 35.3039 17.7592C35.2301 17.6931 35.0874 17.5288 35.3384 17.4204C35.331 17.3729 35.3346 17.3157 35.3597 17.2565C35.3799 17.2095 35.4145 17.1611 35.4687 17.116C35.428 17.0079 35.4031 16.8392 35.5408 16.6869C35.5652 16.6601 35.5884 16.6388 35.61 16.6219C35.6384 16.5218 35.6976 16.4256 35.8171 16.3885C35.775 16.3106 35.767 16.2094 35.9017 16.1148C35.9166 16.0789 35.9362 16.0446 35.9614 16.0136C35.9324 15.9558 35.8403 15.7266 36.1693 15.6915C36.1862 15.6514 36.2155 15.6063 36.2608 15.5643C36.3078 15.5206 36.3725 15.4794 36.4594 15.449C36.4807 15.3398 36.5498 15.18 36.7627 15.0785C36.8011 15.0602 36.8349 15.0467 36.8653 15.0373C36.9468 14.9541 37.0552 14.883 37.1871 14.8819C37.1899 14.7992 37.2377 14.7041 37.4172 14.6541C37.4393 14.6353 37.4628 14.6178 37.488 14.6021C37.561 14.5565 37.6456 14.5247 37.7385 14.5177C37.7799 14.4945 37.8222 14.4718 37.8651 14.4497C37.8925 14.3601 37.9696 14.2559 38.1864 14.2952C38.2237 14.2576 38.2774 14.2186 38.3479 14.1895C38.4068 14.1652 38.4773 14.1475 38.5597 14.1425C38.6288 14.0435 38.7646 13.9092 39.0048 13.8702C39.0474 13.8633 39.0839 13.8597 39.1152 13.8588C39.2277 13.8013 39.3588 13.7623 39.4799 13.7975C39.5155 13.7292 39.5869 13.6609 39.7284 13.6462L39.7315 13.6426C39.7641 13.6045 39.8039 13.5691 39.8495 13.5439C39.8979 13.5168 39.9535 13.5002 40.0146 13.5005C40.0785 13.5005 40.1468 13.5196 40.217 13.5655C40.3116 13.5204 40.4202 13.4856 40.5319 13.4795C40.5886 13.4762 40.6461 13.4803 40.7028 13.4939C40.8577 13.3777 41.0747 13.2638 41.3089 13.2931C41.3985 13.3045 41.4577 13.3282 41.495 13.3595L41.5531 13.3567C41.5984 13.3556 41.6432 13.3575 41.6852 13.3625L41.7024 13.3473C41.7403 13.3152 41.7862 13.2859 41.8365 13.2657C41.8896 13.2445 41.9479 13.2326 42.0082 13.2362C42.0367 13.2378 42.0654 13.2428 42.0939 13.2516C42.1545 13.2519 42.2153 13.2613 42.2745 13.2812L42.2858 13.2799C42.3521 13.2718 42.4177 13.2713 42.4796 13.2799L42.5346 13.281C42.5955 13.2843 42.6557 13.2948 42.7133 13.3147C42.8875 13.2326 43.1222 13.1598 43.3473 13.2129C43.4338 13.2334 43.4883 13.2608 43.5195 13.2926L43.5356 13.2934C43.6033 13.2978 43.6697 13.3078 43.7277 13.323C43.8071 13.292 43.8986 13.2704 43.9918 13.2655C44.0977 13.2597 44.2064 13.274 44.3029 13.3175C44.5332 13.3177 44.7458 13.3924 44.7856 13.5984C44.8376 13.6072 44.8888 13.623 44.9377 13.6434C45.1224 13.6423 45.2092 13.7198 45.2499 13.7977C45.3707 13.7626 45.502 13.8016 45.6143 13.8591C45.6455 13.8599 45.6823 13.8635 45.7249 13.8705C45.9655 13.9092 46.1012 14.0438 46.1701 14.1428C46.2525 14.1475 46.323 14.1652 46.3816 14.1898C46.4502 14.2183 46.503 14.2559 46.54 14.2927L46.5458 14.2952C46.7568 14.2581 46.8345 14.3574 46.8633 14.4453C46.91 14.4694 46.9559 14.494 47.001 14.5188C47.09 14.5271 47.1716 14.5584 47.2421 14.6026C47.2672 14.6184 47.2907 14.6358 47.3128 14.6546C47.4906 14.7041 47.539 14.7978 47.5429 14.88L47.5459 14.8824C47.6764 14.8844 47.7837 14.9554 47.865 15.0378C47.8952 15.0472 47.9292 15.0611 47.9676 15.079C48.1802 15.1805 48.2494 15.3403 48.2709 15.4496C48.3575 15.48 48.4224 15.5209 48.4692 15.5649C48.5142 15.6069 48.5438 15.6519 48.5607 15.692C48.89 15.7272 48.7979 15.9564 48.7686 16.0142C48.7938 16.0451 48.8134 16.0794 48.8283 16.1154C48.963 16.2099 48.955 16.3111 48.913 16.3891C49.0321 16.4259 49.0916 16.5221 49.1201 16.6225C49.1416 16.6393 49.1648 16.6606 49.1892 16.6874C49.3272 16.8398 49.302 17.0085 49.2613 17.1166C49.3155 17.1616 49.3501 17.21 49.3703 17.257C49.3957 17.3162 49.3993 17.3734 49.3916 17.421C49.6424 17.5294 49.4997 17.6936 49.4261 17.7597C49.545 17.8164 49.6017 17.9087 49.6161 18.0091C49.6197 18.0326 49.6205 18.0572 49.6194 18.0813C49.7029 18.2104 49.6504 18.3047 49.5771 18.3664C49.6714 18.4349 49.6847 18.5433 49.6675 18.6465C49.6808 18.6688 49.693 18.6962 49.7037 18.7297C49.7646 18.9136 49.6686 19.0659 49.5843 19.1574C49.6197 19.2249 49.6288 19.289 49.6227 19.3457C49.6202 19.367 49.6158 19.3869 49.6097 19.406C49.6142 19.4527 49.6183 19.4986 49.6222 19.5437C49.6545 19.596 49.6523 19.6416 49.6324 19.6803C49.6507 19.9466 49.6565 20.1808 49.6565 20.369C49.5395 21.6437 49.3711 22.6632 49.4698 23.0309C49.5132 23.1921 49.9949 20.6397 50.5681 20.6953C50.6939 20.6284 50.9903 19.7624 51.0498 19.5968C51.2007 19.4906 51.42 19.2752 51.3072 18.9724C51.358 18.8959 51.4092 18.8005 51.4424 18.6937C51.48 18.5795 51.5021 18.4496 51.491 18.3135C51.644 18.1305 51.8458 17.8219 51.8546 17.4545C51.8569 17.3886 51.8546 17.3339 51.8458 17.2886C51.9188 17.0804 51.9523 16.8627 51.8591 16.7267C51.9832 16.6015 52.0941 16.412 52.0385 16.1538C52.0518 16.1038 52.0606 16.0551 52.0673 16.0084C52.0894 15.8065 52.0496 15.6218 51.9122 15.5076C52.0363 15.376 52.3001 15.0442 51.9965 14.8283C52.023 14.7329 52.0385 14.6187 52.0252 14.4995C52.012 14.4041 51.9854 14.307 51.9232 14.2164C52.0186 13.9988 52.1137 13.6636 51.9655 13.3553C51.9412 13.3022 51.9124 13.2583 51.8878 13.227C51.879 13.0235 51.8234 12.8311 51.6641 12.7575C51.744 12.601 51.7861 12.3975 51.6174 12.2068C51.6063 12.1346 51.5842 12.0657 51.5555 12.0046C51.6108 11.8874 51.8016 11.427 51.334 11.3584C51.3185 11.2772 51.2853 11.1892 51.2253 11.1049C51.1653 11.0172 51.0813 10.936 50.9593 10.8732C50.9483 10.6542 50.8772 10.3332 50.5825 10.1297C50.5294 10.0937 50.4804 10.0655 50.4384 10.0467C50.33 9.88083 50.1791 9.73677 49.9841 9.73511C49.993 9.56921 49.9332 9.37843 49.6736 9.27806C49.6449 9.24045 49.6117 9.20451 49.576 9.17465C49.4319 9.04635 49.2525 8.9728 49.0462 9.01345C49.044 8.83814 48.9909 8.4563 48.5698 8.55805C48.5167 8.48284 48.439 8.40459 48.3348 8.34653C48.2482 8.29814 48.144 8.26192 48.0243 8.25252C47.9267 8.05371 47.7317 7.78302 47.3773 7.70477C47.3128 7.69067 47.2575 7.68292 47.2111 7.68127C47.0471 7.56541 46.8544 7.48882 46.6703 7.55905C46.6125 7.40255 46.4842 7.24605 46.2068 7.24744C46.1338 7.20845 46.0584 7.17693 45.9809 7.15813C45.9234 6.74338 45.6085 6.59324 45.2629 6.59158C45.1188 6.50558 44.9549 6.47572 44.7972 6.48844C44.6576 6.49923 44.5202 6.54153 44.4007 6.6043C44.3142 6.57443 44.2144 6.55425 44.1148 6.54485C44.106 6.54485 44.0971 6.54485 44.0905 6.54319C44.0463 6.47904 43.9641 6.42429 43.8356 6.38199C43.4988 6.27388 43.1463 6.42263 42.8847 6.58854C42.7962 6.54789 42.7052 6.52605 42.6143 6.51969C42.5855 6.51969 42.559 6.51969 42.5322 6.5183C42.4412 6.4995 42.3436 6.50254 42.244 6.5183C42.2374 6.51969 42.2308 6.52135 42.2263 6.52135C42.1379 6.4807 42.0469 6.4619 41.9559 6.4619C41.9139 6.4431 41.8716 6.43369 41.8296 6.43065C41.7389 6.42263 41.6501 6.44614 41.5727 6.4901C41.495 6.53241 41.4264 6.59185 41.3708 6.656C41.362 6.66678 41.3532 6.67646 41.3443 6.68586C41.2824 6.67646 41.2157 6.67314 41.1472 6.6748C41.1184 6.67646 41.0896 6.67784 41.0609 6.6795C41.0056 6.61701 40.9166 6.57001 40.7816 6.54651C40.4313 6.48678 40.1078 6.71711 39.8772 6.95352C39.7909 6.92697 39.7044 6.91729 39.6203 6.92365C39.4519 6.93776 39.2899 7.00826 39.1483 7.0973C39.0463 7.0066 38.9421 6.96762 38.847 6.96762C38.7538 6.96596 38.6741 7.00052 38.6009 7.05527C38.532 7.10697 38.4723 7.17886 38.4258 7.25711C38.4236 7.26016 38.4214 7.26181 38.4214 7.26347C38.2088 7.29472 38.1023 7.43103 38.0492 7.57039C37.8673 7.49988 37.6746 7.57813 37.5084 7.69537C37.462 7.69703 37.4064 7.70477 37.3444 7.72053C36.9875 7.80044 36.7903 8.07251 36.6905 8.27464C36.5686 8.28404 36.4643 8.32164 36.3781 8.37003C36.2738 8.43114 36.1964 8.50773 36.1431 8.58598C35.7219 8.48256 35.6642 8.87077 35.6619 9.04773C35.4557 9.00709 35.274 9.08202 35.13 9.21197C35.0946 9.24349 35.0614 9.27944 35.0301 9.31677C34.7708 9.41852 34.7088 9.61262 34.7155 9.78156C34.5203 9.78322 34.3674 9.92866 34.259 10.0979C34.217 10.1167 34.168 10.1449 34.1149 10.1839C33.818 10.3904 33.7447 10.7159 33.7292 10.9382C33.6073 11.0026 33.5229 11.0853 33.461 11.1746C33.4032 11.2606 33.3722 11.3515 33.3545 11.4345C32.887 11.505 33.0709 11.9712 33.1262 12.0903C33.0952 12.1528 33.0731 12.2233 33.062 12.2952C32.8936 12.4893 32.9334 12.6959 33.0133 12.854C32.8538 12.9292 32.7941 13.1264 32.783 13.3313C32.7587 13.3642 32.7297 13.4081 32.7053 13.4629C32.5591 13.7745 32.65 14.1171 32.7454 14.338C32.6832 14.4301 32.6544 14.5274 32.6412 14.6242C32.6279 14.7448 32.6478 14.8606 32.6744 14.9577C32.3708 15.18 32.6301 15.5148 32.7543 15.6495C32.6168 15.7653 32.5834 15.9533 32.6058 16.1582C32.6124 16.2052 32.6213 16.2553 32.6345 16.3053C32.5792 16.5683 32.6943 16.7593 32.8184 16.886C32.7274 17.0253 32.7631 17.246 32.8339 17.4572C32.8273 17.5026 32.8273 17.559 32.8295 17.6264C32.8494 18.0005 33.0509 18.3119 33.2061 18.4966C33.1972 18.6343 33.2238 18.7659 33.2639 18.8818C33.3015 18.9896 33.3548 19.0866 33.4057 19.1649C33.3355 19.3692 34.0356 20.6914 34.0513 20.6901C34.9759 20.6212 35.224 23.1606 35.3 22.8855C35.4175 22.4597 35.2331 21.7048 35.0868 20.6746L35.0865 20.6743Z" fill="#1E3C40"/>
</svg>
