<svg width="86" height="212" viewBox="0 0 86 212" fill="none" xmlns="http://www.w3.org/2000/svg">
<path d="M35.7533 20.6743C35.7461 20.4719 35.7422 20.1257 35.7713 19.6925C35.7431 19.6479 35.7375 19.5935 35.7834 19.5299L35.7928 19.4231C35.7834 19.3991 35.7765 19.3728 35.7735 19.3452C35.7674 19.2885 35.7762 19.2243 35.8119 19.1569C35.7276 19.0653 35.6319 18.913 35.6927 18.7291C35.7035 18.6959 35.7157 18.6686 35.729 18.6459C35.7118 18.5428 35.7251 18.4344 35.8194 18.3658C35.7461 18.3039 35.6933 18.2099 35.7771 18.0807C35.7762 18.0564 35.7771 18.0321 35.7804 18.0086C35.7948 17.9082 35.8515 17.8158 35.9706 17.7592C35.8968 17.6931 35.7541 17.5288 36.0052 17.4204C35.9977 17.3729 36.0013 17.3157 36.0265 17.2565C36.0467 17.2095 36.0812 17.1611 36.1354 17.116C36.0948 17.0079 36.0699 16.8392 36.2076 16.6869C36.2319 16.6601 36.2551 16.6388 36.2767 16.6219C36.3052 16.5218 36.3644 16.4256 36.4838 16.3885C36.4418 16.3106 36.4338 16.2094 36.5684 16.1148C36.5833 16.0789 36.603 16.0446 36.6281 16.0136C36.5991 15.9558 36.507 15.7266 36.8361 15.6915C36.8529 15.6514 36.8822 15.6063 36.9276 15.5643C36.9746 15.5206 37.0393 15.4794 37.1261 15.449C37.1474 15.3398 37.2165 15.18 37.4294 15.0785C37.4679 15.0602 37.5016 15.0467 37.532 15.0373C37.6136 14.9541 37.722 14.883 37.8539 14.8819C37.8566 14.7992 37.9045 14.7041 38.0839 14.6541C38.106 14.6353 38.1295 14.6178 38.1547 14.6021C38.2277 14.5565 38.3123 14.5247 38.4052 14.5177C38.4467 14.4945 38.489 14.4718 38.5318 14.4497C38.5592 14.3601 38.6364 14.2559 38.8531 14.2952C38.8905 14.2576 38.9441 14.2186 39.0146 14.1895C39.0735 14.1652 39.144 14.1475 39.2264 14.1425C39.2955 14.0435 39.4313 13.9092 39.6716 13.8702C39.7142 13.8633 39.7507 13.8597 39.7819 13.8588C39.8944 13.8013 40.0255 13.7623 40.1466 13.7975C40.1823 13.7292 40.2536 13.6609 40.3952 13.6462L40.3982 13.6426C40.4309 13.6045 40.4707 13.5691 40.5163 13.5439C40.5647 13.5168 40.6203 13.5002 40.6814 13.5005C40.7452 13.5005 40.8135 13.5196 40.8838 13.5655C40.9783 13.5204 41.087 13.4856 41.1987 13.4795C41.2554 13.4762 41.3129 13.4803 41.3696 13.4939C41.5244 13.3777 41.7415 13.2638 41.9757 13.2931C42.0652 13.3045 42.1244 13.3282 42.1617 13.3595L42.2198 13.3567C42.2652 13.3556 42.31 13.3575 42.352 13.3625L42.3691 13.3473C42.407 13.3152 42.4529 13.2859 42.5032 13.2657C42.5563 13.2445 42.6147 13.2326 42.6749 13.2362C42.7034 13.2378 42.7322 13.2428 42.7606 13.2516C42.8212 13.2519 42.882 13.2613 42.9412 13.2812L42.9525 13.2799C43.0189 13.2718 43.0844 13.2713 43.1464 13.2799L43.2014 13.281C43.2622 13.2843 43.3225 13.2948 43.38 13.3147C43.5542 13.2326 43.789 13.1598 44.014 13.2129C44.1006 13.2334 44.155 13.2608 44.1863 13.2926L44.2023 13.2934C44.2701 13.2978 44.3364 13.3078 44.3945 13.323C44.4738 13.292 44.5654 13.2704 44.6585 13.2655C44.7644 13.2597 44.8731 13.274 44.9696 13.3175C45.1999 13.3177 45.4126 13.3924 45.4524 13.5984C45.5044 13.6072 45.5555 13.623 45.6045 13.6434C45.7892 13.6423 45.876 13.7198 45.9166 13.7977C46.0375 13.7626 46.1688 13.8016 46.2811 13.8591C46.3123 13.8599 46.3491 13.8635 46.3917 13.8705C46.6322 13.9092 46.768 14.0438 46.8368 14.1428C46.9192 14.1475 46.9897 14.1652 47.0483 14.1898C47.1169 14.2183 47.1697 14.2559 47.2068 14.2927L47.2126 14.2952C47.4236 14.2581 47.5012 14.3574 47.53 14.4453C47.5767 14.4694 47.6226 14.494 47.6677 14.5188C47.7567 14.5271 47.8383 14.5584 47.9088 14.6026C47.934 14.6184 47.9575 14.6358 47.9796 14.6546C48.1574 14.7041 48.2058 14.7978 48.2096 14.88L48.2127 14.8824C48.3432 14.8844 48.4505 14.9554 48.5318 15.0378C48.5619 15.0472 48.5959 15.0611 48.6344 15.079C48.847 15.1805 48.9161 15.3403 48.9377 15.4496C49.0242 15.48 49.0892 15.5209 49.1359 15.5649C49.181 15.6069 49.2106 15.6519 49.2274 15.692C49.5568 15.7272 49.4647 15.9564 49.4354 16.0142C49.4605 16.0451 49.4802 16.0794 49.4951 16.1154C49.6297 16.2099 49.6217 16.3111 49.5797 16.3891C49.6989 16.4259 49.7583 16.5221 49.7868 16.6225C49.8084 16.6393 49.8316 16.6606 49.8559 16.6874C49.9939 16.8398 49.9687 17.0085 49.9281 17.1166C49.9823 17.1616 50.0169 17.21 50.037 17.257C50.0625 17.3162 50.0661 17.3734 50.0583 17.421C50.3091 17.5294 50.1664 17.6936 50.0929 17.7597C50.2118 17.8164 50.2685 17.9087 50.2828 18.0091C50.2864 18.0326 50.2873 18.0572 50.2862 18.0813C50.3697 18.2104 50.3171 18.3047 50.2439 18.3664C50.3381 18.4349 50.3514 18.5433 50.3343 18.6465C50.3475 18.6688 50.3597 18.6962 50.3705 18.7297C50.4313 18.9136 50.3354 19.0659 50.251 19.1574C50.2864 19.2249 50.2956 19.289 50.2895 19.3457C50.287 19.367 50.2826 19.3869 50.2765 19.406C50.2809 19.4527 50.2851 19.4986 50.2889 19.5437C50.3213 19.596 50.3191 19.6416 50.2992 19.6803C50.3174 19.9466 50.3232 20.1808 50.3232 20.369C50.2063 21.6437 50.0379 22.6632 50.1366 23.0309C50.18 23.1921 50.6617 20.6397 51.2348 20.6953C51.3606 20.6284 51.6571 19.7624 51.7165 19.5968C51.8675 19.4906 52.0867 19.2752 51.9739 18.9724C52.0248 18.8959 52.076 18.8005 52.1091 18.6937C52.1467 18.5795 52.1689 18.4496 52.1578 18.3135C52.3107 18.1305 52.5125 17.8219 52.5214 17.4545C52.5236 17.3886 52.5214 17.3339 52.5125 17.2886C52.5855 17.0804 52.619 16.8627 52.5258 16.7267C52.65 16.6015 52.7608 16.412 52.7053 16.1538C52.7185 16.1038 52.7274 16.0551 52.734 16.0084C52.7561 15.8065 52.7163 15.6218 52.5789 15.5076C52.7031 15.376 52.9668 15.0442 52.6632 14.8283C52.6898 14.7329 52.7053 14.6187 52.692 14.4995C52.6787 14.4041 52.6522 14.307 52.59 14.2164C52.6854 13.9988 52.7805 13.6636 52.6323 13.3553C52.6079 13.3022 52.5792 13.2583 52.5546 13.227C52.5457 13.0235 52.4902 12.8311 52.3309 12.7575C52.4108 12.601 52.4528 12.3975 52.2842 12.2068C52.2731 12.1346 52.251 12.0657 52.2222 12.0046C52.2775 11.8874 52.4683 11.427 52.0007 11.3584C51.9853 11.2772 51.9521 11.1892 51.8921 11.1049C51.8321 11.0172 51.748 10.936 51.6261 10.8732C51.615 10.6542 51.544 10.3332 51.2492 10.1297C51.1961 10.0937 51.1472 10.0655 51.1052 10.0467C50.9968 9.88083 50.8458 9.73677 50.6509 9.73511C50.6597 9.56921 50.6 9.37843 50.3404 9.27806C50.3116 9.24045 50.2784 9.20451 50.2428 9.17465C50.0987 9.04635 49.9192 8.9728 49.713 9.01345C49.7108 8.83814 49.6577 8.4563 49.2366 8.55805C49.1835 8.48284 49.1058 8.40459 49.0015 8.34653C48.915 8.29814 48.8108 8.26192 48.691 8.25252C48.5934 8.05371 48.3985 7.78302 48.044 7.70477C47.9796 7.69067 47.9243 7.68292 47.8778 7.68127C47.7139 7.56541 47.5212 7.48882 47.337 7.55905C47.2792 7.40255 47.1509 7.24605 46.8736 7.24744C46.8006 7.20845 46.7251 7.17693 46.6477 7.15813C46.5902 6.74338 46.2752 6.59324 45.9296 6.59158C45.7856 6.50558 45.6216 6.47572 45.464 6.48844C45.3244 6.49923 45.1869 6.54153 45.0675 6.6043C44.9809 6.57443 44.8811 6.55425 44.7816 6.54485C44.7727 6.54485 44.7639 6.54485 44.7573 6.54319C44.713 6.47904 44.6309 6.42429 44.5023 6.38199C44.1655 6.27388 43.813 6.42263 43.5514 6.58854C43.463 6.54789 43.372 6.52605 43.281 6.51969C43.2523 6.51969 43.2257 6.51969 43.1989 6.5183C43.1079 6.4995 43.0103 6.50254 42.9108 6.5183C42.9042 6.51969 42.8975 6.52135 42.8931 6.52135C42.8046 6.4807 42.7136 6.4619 42.6227 6.4619C42.5806 6.4431 42.5383 6.43369 42.4963 6.43065C42.4056 6.42263 42.3169 6.44614 42.2394 6.4901C42.1617 6.53241 42.0932 6.59185 42.0376 6.656C42.0287 6.66678 42.0199 6.67646 42.0111 6.68586C41.9491 6.67646 41.8825 6.67314 41.8139 6.6748C41.7852 6.67646 41.7564 6.67784 41.7276 6.6795C41.6723 6.61701 41.5833 6.57001 41.4484 6.54651C41.0981 6.48678 40.7745 6.71711 40.5439 6.95352C40.4577 6.92697 40.3711 6.91729 40.2871 6.92365C40.1187 6.93776 39.9567 7.00826 39.8151 7.0973C39.7131 7.0066 39.6088 6.96762 39.5137 6.96762C39.4205 6.96596 39.3409 7.00052 39.2676 7.05527C39.1988 7.10697 39.139 7.17886 39.0926 7.25711C39.0904 7.26016 39.0882 7.26181 39.0882 7.26347C38.8755 7.29472 38.7691 7.43103 38.716 7.57039C38.5341 7.49988 38.3413 7.57813 38.1752 7.69537C38.1287 7.69703 38.0731 7.70477 38.0112 7.72053C37.6542 7.80044 37.4571 8.07251 37.3573 8.27464C37.2353 8.28404 37.1311 8.32164 37.0448 8.37003C36.9406 8.43114 36.8632 8.50773 36.8098 8.58598C36.3887 8.48256 36.3309 8.87077 36.3287 9.04773C36.1224 9.00709 35.9408 9.08202 35.7967 9.21197C35.7613 9.24349 35.7281 9.27944 35.6969 9.31677C35.4375 9.41852 35.3756 9.61262 35.3822 9.78156C35.187 9.78322 35.0341 9.92866 34.9257 10.0979C34.8837 10.1167 34.8348 10.1449 34.7817 10.1839C34.4847 10.3904 34.4114 10.7159 34.396 10.9382C34.274 11.0026 34.1897 11.0853 34.1277 11.1746C34.07 11.2606 34.039 11.3515 34.0213 11.4345C33.5537 11.505 33.7376 11.9712 33.7929 12.0903C33.7619 12.1528 33.7398 12.2233 33.7288 12.2952C33.5604 12.4893 33.6002 12.6959 33.6801 12.854C33.5206 12.9292 33.4608 13.1264 33.4498 13.3313C33.4254 13.3642 33.3964 13.4081 33.3721 13.4629C33.2258 13.7745 33.3168 14.1171 33.4122 14.338C33.35 14.4301 33.3212 14.5274 33.3079 14.6242C33.2947 14.7448 33.3146 14.8606 33.3411 14.9577C33.0375 15.18 33.2969 15.5148 33.421 15.6495C33.2836 15.7653 33.2501 15.9533 33.2725 16.1582C33.2792 16.2052 33.288 16.2553 33.3013 16.3053C33.246 16.5683 33.361 16.7593 33.4852 16.886C33.3942 17.0253 33.4299 17.246 33.5006 17.4572C33.494 17.5026 33.494 17.559 33.4962 17.6264C33.5161 18.0005 33.7177 18.3119 33.8728 18.4966C33.864 18.6343 33.8905 18.7659 33.9306 18.8818C33.9682 18.9896 34.0216 19.0866 34.0724 19.1649C34.0022 19.3692 34.7023 20.6914 34.7181 20.6901C35.6427 20.6212 35.8907 23.1606 35.9668 22.8855C36.0843 22.4597 35.8998 21.7048 35.7536 20.6746L35.7533 20.6743Z" fill="url(#paint0_linear)"/>
<defs>
<linearGradient id="paint0_linear" x1="41.0063" y1="8.56745" x2="45.5727" y2="21.2986" gradientUnits="userSpaceOnUse">
<stop stop-color="#856559"/>
<stop offset="1" stop-color="#332926"/>
</linearGradient>
</defs>
</svg>
