<svg width="85" height="212" viewBox="0 0 85 212" fill="none" xmlns="http://www.w3.org/2000/svg">
<g clip-path="url(#clip0)">
<path fill-rule="evenodd" clip-rule="evenodd" d="M35.6404 19.2012H49.3548V23.8976H35.6404V19.2012Z" fill="#70452E"/>
<path fill-rule="evenodd" clip-rule="evenodd" d="M44.6543 20.8826C44.6543 20.8826 43.9267 21.4778 43.8076 22.0864C43.6885 22.695 44.3896 23.1052 44.8659 23.2771C45.3422 23.449 44.0522 23.006 44.0986 22.2651C44.1449 21.5241 45.3224 20.7304 45.4745 20.6246C45.6266 20.5188 45.1835 20.4063 44.6543 20.8826Z" fill="#452615"/>
<path fill-rule="evenodd" clip-rule="evenodd" d="M40.8035 21.3193C40.8035 21.3193 41.3988 21.9278 41.3062 22.5496C41.2136 23.1715 40.2214 23.6081 40.2214 23.6081C40.2214 23.6081 41.5179 22.9731 40.8036 21.3193H40.8035Z" fill="#452615"/>
<path fill-rule="evenodd" clip-rule="evenodd" d="M35.8895 20.7505C35.8895 20.7505 38.1481 20.2858 39.3784 20.4445C40.6088 20.6032 40.9629 20.9553 41.1283 20.7901C41.2937 20.6249 40.7344 20.1193 39.6366 19.8343C38.0122 19.4124 37.3575 19.6557 36.0617 20.3835C35.8171 20.5208 35.7383 20.7596 35.8895 20.7505H35.8895Z" fill="#191716"/>
<path fill-rule="evenodd" clip-rule="evenodd" d="M36.5059 21.8098C36.5059 21.8098 37.4512 21.1512 38.6354 21.1698C39.8197 21.1887 40.2709 21.5039 40.2409 21.5954C40.211 21.687 39.9932 21.5059 39.5486 21.3504C39.1041 21.195 38.5676 21.1275 37.9997 21.2613C37.4319 21.3952 36.751 21.8755 36.5059 21.8098H36.5059Z" fill="#241714"/>
<path fill-rule="evenodd" clip-rule="evenodd" d="M37.3179 21.7684C37.3179 21.7684 38.0038 21.2005 38.6818 21.2414C39.5804 21.2957 40.3072 21.999 40.2646 21.9972C40.2646 21.9972 40.618 22.2756 40.5878 22.3737C40.5338 22.5487 40.134 22.2765 40.1315 22.2767C40.1083 22.2791 39.219 22.5033 38.4247 22.4199C37.6302 22.3366 37.3614 21.8364 37.3179 21.7684H37.3179Z" fill="white"/>
<path fill-rule="evenodd" clip-rule="evenodd" d="M37.376 22.4956C37.376 22.4956 37.6549 22.9035 38.5885 22.8995C39.522 22.8955 39.9252 22.5637 39.9484 22.6504C39.9565 22.6811 39.8645 22.7912 39.5225 22.8664C38.8961 23.0041 37.7805 23.055 37.376 22.4956Z" fill="#452615"/>
<path fill-rule="evenodd" clip-rule="evenodd" d="M37.3179 21.7681C37.3179 21.7681 37.3514 21.7404 37.4108 21.6978C37.4996 21.8959 37.7908 22.3479 38.6106 22.3973C39.4561 22.4482 40.0345 22.1777 40.2604 21.9847C40.2665 21.9926 40.268 21.997 40.2646 21.9969C40.2646 21.9969 40.618 22.2753 40.5878 22.3734C40.5338 22.5484 40.134 22.2762 40.1315 22.2764C40.1083 22.2788 39.219 22.503 38.4247 22.4196C37.6302 22.3363 37.3614 21.836 37.3179 21.7681Z" fill="#D4926F"/>
<path fill-rule="evenodd" clip-rule="evenodd" d="M37.3179 21.7684C37.3179 21.7684 38.0038 21.2005 38.6818 21.2414C39.5205 21.2921 40.2092 21.9079 40.2629 21.9885C39.8561 21.7303 39.2534 21.4476 38.6833 21.4439C37.9637 21.4393 37.5472 21.7433 37.3943 21.883C37.3525 21.8274 37.3285 21.785 37.3179 21.7684Z" fill="#ADA89F"/>
<path fill-rule="evenodd" clip-rule="evenodd" d="M38.0963 21.3344C38.2802 21.2706 38.4813 21.2293 38.6818 21.2413C38.8898 21.254 39.0887 21.3014 39.2708 21.3666C39.3187 21.463 39.3437 21.5723 39.3393 21.6874C39.3253 22.0543 39.0165 22.3403 38.6496 22.3262C38.2826 22.3122 37.9967 22.0034 38.0107 21.6366C38.0149 21.5267 38.0457 21.424 38.0963 21.3344H38.0963Z" fill="#1C1412"/>
<path fill-rule="evenodd" clip-rule="evenodd" d="M38.6868 21.3512C38.8585 21.3577 38.9921 21.5022 38.9857 21.6738C38.9791 21.8454 38.8347 21.9792 38.6631 21.9726C38.4914 21.9661 38.3578 21.8217 38.3642 21.65C38.3708 21.4784 38.5153 21.3447 38.6868 21.3513V21.3512Z" fill="black"/>
<path fill-rule="evenodd" clip-rule="evenodd" d="M38.4932 21.3952C38.5854 21.3988 38.6574 21.4764 38.6537 21.5685C38.6503 21.6608 38.5727 21.7327 38.4804 21.7292C38.3883 21.7256 38.3164 21.648 38.3199 21.5557C38.3235 21.4637 38.4011 21.3917 38.4932 21.3951V21.3952Z" fill="white"/>
<path fill-rule="evenodd" clip-rule="evenodd" d="M36.7004 21.8809C36.7004 21.8809 37.0732 21.9217 37.2137 21.8741C37.3543 21.8264 37.9883 21.2967 38.6756 21.2946C39.3631 21.2924 40.0497 21.8114 40.1382 21.8674C40.2268 21.9233 39.9623 21.655 39.697 21.496C39.4317 21.3368 38.8892 21.0712 38.1237 21.2669C37.3583 21.4627 37.1824 21.8201 36.7004 21.8809Z" fill="#191716"/>
<path fill-rule="evenodd" clip-rule="evenodd" d="M49.0969 20.7505C49.0969 20.7505 46.8384 20.2858 45.6081 20.4445C44.3777 20.6032 44.0236 20.9553 43.8582 20.7901C43.6928 20.6249 44.2521 20.1193 45.3499 19.8343C46.9743 19.4124 47.629 19.6557 48.9248 20.3835C49.1694 20.5208 49.2482 20.7596 49.097 20.7505H49.0969Z" fill="#191716"/>
<path fill-rule="evenodd" clip-rule="evenodd" d="M48.4805 21.8097C48.4805 21.8097 47.5352 21.1509 46.351 21.1698C45.1667 21.1886 44.7156 21.5038 44.7455 21.5953C44.7754 21.6868 44.9931 21.5058 45.4377 21.3504C45.8824 21.1949 46.4188 21.1273 46.9866 21.2613C47.5546 21.3952 48.2353 21.8754 48.4805 21.8098V21.8097Z" fill="#241714"/>
<path fill-rule="evenodd" clip-rule="evenodd" d="M47.6687 21.7684C47.6687 21.7684 46.9828 21.2005 46.3048 21.2414C45.4062 21.2955 44.6794 21.9988 44.722 21.9972C44.722 21.9972 44.3685 22.2755 44.3988 22.3737C44.4528 22.5487 44.8526 22.2765 44.8551 22.2767C44.8783 22.2791 45.7676 22.5033 46.562 22.4199C47.3564 22.3365 47.6252 21.8363 47.6687 21.7684H47.6687Z" fill="white"/>
<path fill-rule="evenodd" clip-rule="evenodd" d="M47.6107 22.4956C47.6107 22.4956 47.3318 22.9035 46.3982 22.8995C45.4647 22.8956 45.0615 22.5635 45.0383 22.6504C45.0301 22.6811 45.1223 22.7912 45.4643 22.8663C46.0906 23.0042 47.2061 23.055 47.6107 22.4956H47.6107Z" fill="#452615"/>
<path fill-rule="evenodd" clip-rule="evenodd" d="M47.6687 21.7681C47.6687 21.7681 47.6352 21.7403 47.5759 21.6978C47.487 21.8959 47.1958 22.3479 46.376 22.3973C45.5305 22.4482 44.9521 22.1777 44.7262 21.9846C44.7201 21.9927 44.7186 21.997 44.722 21.9969C44.722 21.9969 44.3685 22.2753 44.3988 22.3734C44.4528 22.5484 44.8526 22.2762 44.8551 22.2764C44.8783 22.2788 45.7676 22.503 46.5621 22.4196C47.3564 22.3362 47.6252 21.836 47.6687 21.7681Z" fill="#D4926F"/>
<path fill-rule="evenodd" clip-rule="evenodd" d="M47.6686 21.7684C47.6686 21.7684 46.9827 21.2005 46.3047 21.2414C45.466 21.292 44.7773 21.9077 44.7236 21.9883C45.1304 21.7302 45.7331 21.4474 46.3032 21.4437C47.0228 21.4391 47.4394 21.7432 47.5923 21.8828C47.6341 21.8271 47.6581 21.7848 47.6687 21.7683L47.6686 21.7684Z" fill="#ADA89F"/>
<path fill-rule="evenodd" clip-rule="evenodd" d="M46.8902 21.3344C46.7063 21.2704 46.5052 21.2293 46.3047 21.2414C46.0967 21.254 45.8978 21.3012 45.7156 21.3666C45.6678 21.463 45.6428 21.5724 45.6472 21.6874C45.6612 22.0543 45.97 22.3403 46.3369 22.3263C46.7039 22.3122 46.9898 22.0033 46.9758 21.6365C46.9716 21.5266 46.9409 21.4239 46.8902 21.3344Z" fill="#1C1412"/>
<path fill-rule="evenodd" clip-rule="evenodd" d="M46.2996 21.3512C46.1279 21.3577 45.9941 21.5021 46.0007 21.6738C46.0073 21.8454 46.1517 21.9792 46.3233 21.9726C46.4949 21.966 46.6286 21.8216 46.6221 21.65C46.6156 21.4784 46.4712 21.3447 46.2996 21.3513V21.3512Z" fill="black"/>
<path fill-rule="evenodd" clip-rule="evenodd" d="M46.1007 21.3951C46.0084 21.3987 45.9365 21.4763 45.9401 21.5684C45.9436 21.6606 46.0212 21.7325 46.1133 21.7289C46.2056 21.7254 46.2775 21.6478 46.2739 21.5556C46.2704 21.4634 46.1928 21.3916 46.1007 21.3951Z" fill="white"/>
<path fill-rule="evenodd" clip-rule="evenodd" d="M48.286 21.8809C48.286 21.8809 47.9133 21.9217 47.7727 21.8741C47.6321 21.8264 46.9982 21.2967 46.3107 21.2946C45.6233 21.2924 44.9368 21.8115 44.8483 21.8674C44.7596 21.9233 45.0241 21.655 45.2894 21.4959C45.5547 21.3369 46.0972 21.0712 46.8627 21.2669C47.6281 21.4627 47.804 21.8199 48.286 21.8809Z" fill="#191716"/>
</g>
<defs>
<clipPath id="clip0">
<rect width="84.6667" height="211.667" fill="white"/>
</clipPath>
</defs>
</svg>
