<svg width="86" height="212" viewBox="0 0 86 212" fill="none" xmlns="http://www.w3.org/2000/svg">
<g clip-path="url(#clip0)">
<path fill-rule="evenodd" clip-rule="evenodd" d="M36.3071 19.2012H50.0215V23.8976H36.3071V19.2012Z" fill="#70452E"/>
<path fill-rule="evenodd" clip-rule="evenodd" d="M45.321 20.8826C45.321 20.8826 44.5934 21.4778 44.4743 22.0864C44.3552 22.695 45.0563 23.1052 45.5326 23.2771C46.0089 23.449 44.719 23.006 44.7653 22.2651C44.8116 21.5241 45.9891 20.7304 46.1412 20.6246C46.2933 20.5188 45.8502 20.4063 45.321 20.8826Z" fill="#452615"/>
<path fill-rule="evenodd" clip-rule="evenodd" d="M41.4702 21.3193C41.4702 21.3193 42.0655 21.9278 41.973 22.5496C41.8803 23.1715 40.8882 23.6081 40.8882 23.6081C40.8882 23.6081 42.1847 22.9731 41.4703 21.3193H41.4702Z" fill="#452615"/>
<path fill-rule="evenodd" clip-rule="evenodd" d="M36.5563 20.7505C36.5563 20.7505 38.8148 20.2858 40.0452 20.4445C41.2755 20.6032 41.6297 20.9553 41.7951 20.7901C41.9604 20.6249 41.4012 20.1193 40.3034 19.8343C38.6789 19.4124 38.0243 19.6557 36.7284 20.3835C36.4839 20.5208 36.4051 20.7596 36.5562 20.7505H36.5563Z" fill="#191716"/>
<path fill-rule="evenodd" clip-rule="evenodd" d="M37.1727 21.8098C37.1727 21.8098 38.118 21.1512 39.3022 21.1698C40.4865 21.1887 40.9377 21.5039 40.9077 21.5954C40.8778 21.687 40.66 21.5059 40.2153 21.3504C39.7708 21.195 39.2343 21.1275 38.6664 21.2613C38.0986 21.3952 37.4178 21.8755 37.1726 21.8098H37.1727Z" fill="#241714"/>
<path fill-rule="evenodd" clip-rule="evenodd" d="M37.9847 21.7684C37.9847 21.7684 38.6706 21.2005 39.3486 21.2414C40.2472 21.2957 40.974 21.999 40.9313 21.9972C40.9313 21.9972 41.2847 22.2756 41.2545 22.3737C41.2006 22.5487 40.8008 22.2765 40.7982 22.2767C40.7751 22.2791 39.8857 22.5033 39.0914 22.4199C38.2969 22.3366 38.0281 21.8364 37.9846 21.7684H37.9847Z" fill="white"/>
<path fill-rule="evenodd" clip-rule="evenodd" d="M38.0425 22.4956C38.0425 22.4956 38.3214 22.9035 39.255 22.8995C40.1885 22.8955 40.5917 22.5637 40.6149 22.6504C40.623 22.6811 40.531 22.7912 40.189 22.8664C39.5626 23.0041 38.447 23.055 38.0425 22.4956Z" fill="#452615"/>
<path fill-rule="evenodd" clip-rule="evenodd" d="M37.9846 21.7681C37.9846 21.7681 38.0181 21.7404 38.0775 21.6978C38.1664 21.8959 38.4576 22.3479 39.2773 22.3973C40.1228 22.4482 40.7012 22.1777 40.9272 21.9847C40.9333 21.9926 40.9347 21.997 40.9313 21.9969C40.9313 21.9969 41.2847 22.2753 41.2545 22.3734C41.2006 22.5484 40.8008 22.2762 40.7982 22.2764C40.7751 22.2788 39.8857 22.503 39.0914 22.4196C38.2969 22.3363 38.0281 21.836 37.9846 21.7681Z" fill="#D4926F"/>
<path fill-rule="evenodd" clip-rule="evenodd" d="M37.9846 21.7684C37.9846 21.7684 38.6705 21.2005 39.3485 21.2414C40.1872 21.2921 40.876 21.9079 40.9296 21.9885C40.5228 21.7303 39.9202 21.4476 39.35 21.4439C38.6304 21.4393 38.2139 21.7433 38.061 21.883C38.0192 21.8274 37.9952 21.785 37.9846 21.7684Z" fill="#ADA89F"/>
<path fill-rule="evenodd" clip-rule="evenodd" d="M38.763 21.3344C38.9469 21.2706 39.148 21.2293 39.3485 21.2413C39.5565 21.254 39.7554 21.3014 39.9375 21.3666C39.9854 21.463 40.0104 21.5723 40.0061 21.6874C39.992 22.0543 39.6833 22.3403 39.3164 22.3262C38.9494 22.3122 38.6635 22.0034 38.6775 21.6366C38.6817 21.5267 38.7124 21.424 38.7631 21.3344H38.763Z" fill="#367EA8"/>
<path fill-rule="evenodd" clip-rule="evenodd" d="M39.3536 21.3512C39.5252 21.3577 39.6589 21.5022 39.6524 21.6738C39.6458 21.8454 39.5014 21.9792 39.3298 21.9726C39.1582 21.9661 39.0245 21.8217 39.031 21.65C39.0376 21.4784 39.1821 21.3447 39.3536 21.3513V21.3512Z" fill="#191716"/>
<path fill-rule="evenodd" clip-rule="evenodd" d="M39.16 21.3952C39.2522 21.3988 39.3241 21.4764 39.3204 21.5685C39.3171 21.6608 39.2394 21.7327 39.1472 21.7292C39.0551 21.7256 38.9832 21.648 38.9867 21.5557C38.9902 21.4637 39.0679 21.3917 39.16 21.3951V21.3952Z" fill="white"/>
<path fill-rule="evenodd" clip-rule="evenodd" d="M37.3672 21.8809C37.3672 21.8809 37.7399 21.9217 37.8805 21.8741C38.0211 21.8264 38.6551 21.2967 39.3423 21.2946C40.0298 21.2924 40.7164 21.8114 40.8049 21.8674C40.8936 21.9233 40.6291 21.655 40.3638 21.496C40.0985 21.3368 39.556 21.0712 38.7905 21.2669C38.0251 21.4627 37.8492 21.8201 37.3672 21.8809Z" fill="#191716"/>
<path fill-rule="evenodd" clip-rule="evenodd" d="M49.7637 20.7505C49.7637 20.7505 47.5052 20.2858 46.2748 20.4445C45.0444 20.6032 44.6903 20.9553 44.5249 20.7901C44.3595 20.6249 44.9188 20.1193 46.0166 19.8343C47.6411 19.4124 48.2957 19.6557 49.5915 20.3835C49.8361 20.5208 49.9149 20.7596 49.7638 20.7505H49.7637Z" fill="#191716"/>
<path fill-rule="evenodd" clip-rule="evenodd" d="M49.1473 21.8097C49.1473 21.8097 48.202 21.1509 47.0178 21.1698C45.8335 21.1886 45.3823 21.5038 45.4123 21.5953C45.4422 21.6868 45.6599 21.5058 46.1045 21.3504C46.5491 21.1949 47.0855 21.1273 47.6534 21.2613C48.2213 21.3952 48.9021 21.8754 49.1473 21.8098V21.8097Z" fill="#241714"/>
<path fill-rule="evenodd" clip-rule="evenodd" d="M48.3354 21.7684C48.3354 21.7684 47.6495 21.2005 46.9715 21.2414C46.0729 21.2955 45.3461 21.9988 45.3888 21.9972C45.3888 21.9972 45.0353 22.2755 45.0656 22.3737C45.1195 22.5487 45.5193 22.2765 45.5219 22.2767C45.545 22.2791 46.4344 22.5033 47.2288 22.4199C48.0232 22.3365 48.2919 21.8363 48.3355 21.7684H48.3354Z" fill="white"/>
<path fill-rule="evenodd" clip-rule="evenodd" d="M48.2775 22.4956C48.2775 22.4956 47.9985 22.9035 47.065 22.8995C46.1315 22.8956 45.7283 22.5635 45.7051 22.6504C45.6969 22.6811 45.789 22.7912 46.1311 22.8663C46.7573 23.0042 47.8728 23.055 48.2774 22.4956H48.2775Z" fill="#452615"/>
<path fill-rule="evenodd" clip-rule="evenodd" d="M48.3355 21.7681C48.3355 21.7681 48.302 21.7403 48.2426 21.6978C48.1537 21.8959 47.8626 22.3479 47.0428 22.3973C46.1973 22.4482 45.6189 22.1777 45.3929 21.9846C45.3868 21.9927 45.3854 21.997 45.3888 21.9969C45.3888 21.9969 45.0353 22.2753 45.0656 22.3734C45.1195 22.5484 45.5193 22.2762 45.5219 22.2764C45.545 22.2788 46.4344 22.503 47.2288 22.4196C48.0232 22.3362 48.2919 21.836 48.3355 21.7681Z" fill="#D4926F"/>
<path fill-rule="evenodd" clip-rule="evenodd" d="M48.3354 21.7684C48.3354 21.7684 47.6495 21.2005 46.9715 21.2414C46.1328 21.292 45.444 21.9077 45.3904 21.9883C45.7972 21.7302 46.3998 21.4474 46.9699 21.4437C47.6896 21.4391 48.1061 21.7432 48.259 21.8828C48.3009 21.8271 48.3248 21.7848 48.3354 21.7683L48.3354 21.7684Z" fill="#ADA89F"/>
<path fill-rule="evenodd" clip-rule="evenodd" d="M47.557 21.3344C47.3731 21.2704 47.172 21.2293 46.9715 21.2414C46.7635 21.254 46.5645 21.3012 46.3824 21.3666C46.3346 21.463 46.3095 21.5724 46.314 21.6874C46.328 22.0543 46.6368 22.3403 47.0037 22.3263C47.3707 22.3122 47.6566 22.0033 47.6425 21.6365C47.6384 21.5266 47.6076 21.4239 47.557 21.3344Z" fill="#367EA8"/>
<path fill-rule="evenodd" clip-rule="evenodd" d="M46.9663 21.3512C46.7947 21.3577 46.6609 21.5021 46.6675 21.6738C46.674 21.8454 46.8184 21.9792 46.9901 21.9726C47.1617 21.966 47.2953 21.8216 47.2889 21.65C47.2823 21.4784 47.1379 21.3447 46.9663 21.3513V21.3512Z" fill="#191716"/>
<path fill-rule="evenodd" clip-rule="evenodd" d="M46.7674 21.3951C46.6752 21.3987 46.6033 21.4763 46.6068 21.5684C46.6103 21.6606 46.6879 21.7325 46.7801 21.7289C46.8723 21.7254 46.9442 21.6478 46.9407 21.5556C46.9371 21.4634 46.8596 21.3916 46.7674 21.3951Z" fill="white"/>
<path fill-rule="evenodd" clip-rule="evenodd" d="M48.9528 21.8809C48.9528 21.8809 48.58 21.9217 48.4395 21.8741C48.2988 21.8264 47.6649 21.2967 46.9775 21.2946C46.2901 21.2924 45.6035 21.8115 45.515 21.8674C45.4264 21.9233 45.6909 21.655 45.9562 21.4959C46.2215 21.3369 46.764 21.0712 47.5295 21.2669C48.2949 21.4627 48.4708 21.8199 48.9528 21.8809Z" fill="#191716"/>
</g>
<defs>
<clipPath id="clip0">
<rect width="84.6667" height="211.667" fill="white" transform="translate(0.666748)"/>
</clipPath>
</defs>
</svg>
