<svg width="85" height="212" viewBox="0 0 85 212" fill="none" xmlns="http://www.w3.org/2000/svg">
<path fill-rule="evenodd" clip-rule="evenodd" d="M36.1244 34.9231C36.1244 34.9231 36.9289 36.7899 37.3363 39.0332C37.7437 41.2765 37.6921 42.1789 36.3358 42.8596C34.9795 43.5455 31.9834 44.9327 30.8282 45.5619C29.6679 46.191 28.5746 47.7794 28.7654 50.7549C28.9614 53.7305 29.6679 56.2419 29.6679 56.2419C29.6679 56.2419 47.3046 61.1823 49.9502 58.8462C52.5957 56.5101 55.9064 41.4518 52.4564 40.9206C52.2863 40.8948 50.9506 40.6886 50.7907 40.6679C47.7481 40.2657 46.8921 40.7814 45.7833 38.043C44.6179 35.1655 45.4327 30.1787 45.4327 30.1787C45.4327 30.1787 39.7291 35.0314 36.1295 34.9179L36.1244 34.9231Z" fill="#75462D"/>
<path fill-rule="evenodd" clip-rule="evenodd" d="M48.0163 48.8672C48.0163 48.8672 47.088 53.7353 45.7163 55.8291C44.3497 57.9228 47.5006 60.5941 47.8771 57.3968C48.2535 54.1995 48.0163 48.8672 48.0163 48.8672V48.8672Z" fill="#3D2A26"/>
<path fill-rule="evenodd" clip-rule="evenodd" d="M30.1733 111.071C30.1733 111.071 30.132 114.072 31.4006 121.843C31.6379 123.313 31.906 125.061 32.1845 126.923C33.7264 122.055 36.0831 114.907 36.8 112.736C32.7621 111.179 30.4982 111.071 30.1733 111.065V111.071ZM35.7892 152.465C36.8722 160.221 38.3883 171.737 38.2542 174.594C38.0428 179.003 34.9486 186.465 34.9486 186.465C34.9486 186.465 33.7522 187.45 35.16 188.693C36.5679 189.936 37.9706 189.956 37.9706 189.956L38.3316 189.41C38.3161 189.173 38.3573 189.018 38.3573 189.018C38.3573 189.018 38.3573 189.018 38.9865 183.438C39.6156 177.858 40.2448 175.625 39.1567 166.188C38.6719 161.97 37.2847 157.019 35.7892 152.465V152.465ZM44.886 149.093C44.9428 147.102 44.9067 145.313 44.7055 144.101C43.9114 139.295 43.0244 138.227 43.0244 138.227C43.0244 138.227 43.5865 133.591 44.0764 128.341C41.4618 132.89 38.9607 137.067 38.9607 137.067C38.9607 137.067 40.7347 138.583 43.3338 143.967C44.1383 145.627 44.6127 147.339 44.886 149.093V149.093Z" fill="#542F1B"/>
<path fill-rule="evenodd" clip-rule="evenodd" d="M30.6116 54.7152C31.2201 55.236 32.628 55.8703 35.8459 55.6073C40.054 55.2669 43.4369 53.6528 44.5715 53.0495C46.5363 43.6587 49.7542 41.1627 51.2085 40.5078C51.9872 40.1571 52.3017 40.4407 52.4358 40.7708C52.4203 40.7708 47.6966 41.2968 45.2058 53.4775C45.5771 54.514 46.428 56.6542 47.7946 58.9696C49.7129 62.2082 48.2845 73.5792 48.2845 73.5792C48.2845 73.5792 49.8006 77.1788 51.8479 80.8609C53.9004 84.5429 58.2167 92.1081 56.8089 100.488C55.3959 108.863 49.3107 119.115 49.3107 119.115C49.3107 119.115 44.7674 116.253 38.9813 113.649C33.1952 111.044 30.132 111.065 30.132 111.065C30.132 111.065 29.2089 90.4167 30.4518 84.3057C31.6946 78.1947 31.6224 75.575 30.8798 72.4241C30.132 69.268 29.1574 66.0811 29.1574 66.0811C29.1574 66.0811 25.0834 61.6306 30.0031 54.3593C30.034 54.2974 30.0701 54.2304 30.1062 54.1634C31.2459 52.0954 33.2778 48.9445 32.7053 44.5972C32.6744 44.1073 33.35 44.0196 33.3654 44.3445C33.876 49.0116 31.9112 52.3326 30.7199 54.5037C30.6787 54.5759 30.6426 54.6481 30.6065 54.7203L30.6116 54.7152Z" fill="#D5C1B5"/>
<path fill-rule="evenodd" clip-rule="evenodd" d="M36.7948 112.741C35.8459 115.619 32.0091 127.253 31.019 130.708C29.8845 134.663 29.8381 135.499 31.1582 139.557C32.4836 143.616 38.0686 156.751 39.1567 166.188C40.2448 175.625 39.6156 177.863 38.9865 183.438C38.3573 189.018 38.3573 189.018 38.3573 189.018C38.3573 189.018 37.7849 191.214 41.6939 191.544C45.6028 191.875 45.902 189.667 45.8401 187.532C45.7782 185.392 46.1753 183.036 46.6188 180.844C47.0571 178.647 47.0107 177.409 46.0102 174.403C45.0098 171.396 44.8241 167.632 44.9685 161.443C45.1078 155.255 45.938 149.345 43.3338 143.967C40.7295 138.588 38.9607 137.067 38.9607 137.067C38.9607 137.067 46.6497 124.215 49.1766 119.033C48.3773 118.538 44.1847 115.99 38.9865 113.654C38.2078 113.303 37.4807 112.999 36.7999 112.741H36.7948Z" fill="#75462D"/>
<path fill-rule="evenodd" clip-rule="evenodd" d="M34.9847 186.377C34.2524 186.955 32.7105 188.275 31.1118 190.291C28.8944 193.086 29.4977 193.226 30.1733 193.226C30.8024 193.226 35.5468 193.566 36.9547 192.741C37.0681 192.364 37.1867 192.003 37.3002 191.663C37.5735 190.864 37.7952 190.322 37.9706 189.951C37.8623 189.946 36.5163 189.884 35.1652 188.688C33.7574 187.445 34.9538 186.46 34.9538 186.46L34.9899 186.372L34.9847 186.377Z" fill="#BA9F8A"/>
<path fill-rule="evenodd" clip-rule="evenodd" d="M38.3316 189.317C38.1511 189.554 37.8159 190.152 37.3002 191.668C36.4544 194.144 35.4643 197.98 37.1867 197.852C38.9091 197.717 46.0876 195.165 46.33 192.019C46.5775 188.873 47.2531 186.878 47.6914 184.433C48.1298 181.989 49.223 180.478 49.2849 178.807C49.3416 177.26 48.1401 175.919 46.0773 174.594C47.0159 177.461 47.0571 178.694 46.6239 180.844C46.1856 183.041 45.7833 185.398 45.8452 187.533C45.9071 189.673 45.608 191.875 41.699 191.545C38.6874 191.292 38.3367 189.925 38.3316 189.317V189.317Z" fill="#D4C1B5"/>
<path fill-rule="evenodd" clip-rule="evenodd" d="M48.9394 180.473C48.8723 181.004 48.7692 181.659 48.6042 182.407C48.1194 184.614 48.2948 187.894 48.2793 188.688C48.1762 188.884 47.382 188.858 47.382 188.724L47.4232 185.769C47.5161 185.331 47.6089 184.887 47.6914 184.428C47.9854 182.804 48.5629 181.592 48.9394 180.468V180.473Z" fill="#A68C7A"/>
<path fill-rule="evenodd" clip-rule="evenodd" d="M40.1262 178.24C40.1262 178.24 38.9813 185.867 38.8473 187.811C38.7132 189.75 42.1993 177.693 40.1262 178.24Z" fill="#855034"/>
<path fill-rule="evenodd" clip-rule="evenodd" d="M30.9365 111.477C30.9365 111.477 31.0396 114.339 31.6327 118.749C32.2257 123.158 32.6228 124.303 32.5661 123.936C32.5042 123.57 32.0556 111.849 32.0556 111.849C32.0556 111.849 31.6327 111.348 30.9365 111.477Z" fill="#75462D"/>
<path fill-rule="evenodd" clip-rule="evenodd" d="M37.46 113.648L39.002 114.443C39.002 114.443 36.7896 118.682 34.1802 124.715C31.5708 130.749 31.2614 131.43 31.2614 131.43C31.2614 131.43 32.9786 126.402 37.46 113.648Z" fill="#855034"/>
<path fill-rule="evenodd" clip-rule="evenodd" d="M36.7948 112.741L36.408 113.912C40.286 114.257 47.0829 117.8 48.4392 120.477C48.7125 119.951 48.96 119.466 49.1715 119.033C48.3721 118.538 44.1795 115.99 38.9813 113.654C38.2026 113.303 37.4755 112.999 36.7948 112.741V112.741Z" fill="#542F1B"/>
<path fill-rule="evenodd" clip-rule="evenodd" d="M29.9154 90.0608C29.9154 90.0608 27.5536 99.6269 27.9042 104.634C28.2549 109.642 28.2601 108.301 28.8273 110.281C29.3946 112.267 29.6421 113.164 29.6421 113.164C29.6421 113.164 30.3331 114.262 30.3125 113.958C30.2867 113.649 29.9412 106.176 29.9412 106.176C29.9412 106.176 30.328 107.409 30.7354 108.27C31.1428 109.131 31.3439 109.317 31.5966 109.183C31.8493 109.049 31.576 107.574 31.2666 106.579C30.9571 105.588 31.0861 104.222 30.7354 102.907C30.3847 101.597 29.8484 100.823 29.8484 100.823C29.8536 96.6256 29.8123 94.7175 29.9154 90.0557V90.0608Z" fill="#542F1B"/>
<path fill-rule="evenodd" clip-rule="evenodd" d="M55.5558 92.8047C56.0199 95.1614 56.1694 97.7038 55.7259 100.329C54.38 108.332 48.5578 118.13 48.5578 118.13C48.5578 118.13 48.2071 117.909 47.5831 117.537C48.7795 115.526 50.8939 111.53 53.2867 104.96C55.2515 99.5603 55.6331 95.4605 55.5558 92.8047V92.8047Z" fill="#B99E8A"/>
<path fill-rule="evenodd" clip-rule="evenodd" d="M49.1096 75.4355C49.749 76.8279 50.3008 78.0811 51.4302 80.1077L51.5694 80.3553C50.6206 80.9638 49.7181 81.9694 47.4697 87.1521C45.2161 92.3297 45.0356 95.429 45.3502 98.3736C45.6647 101.323 45.7937 101.21 45.5307 104.258C45.2728 107.305 44.5869 111.508 44.0558 112.323C43.5298 113.138 43.1636 113.128 43.1636 113.128C43.1636 113.128 42.947 114.747 42.5087 115.34L42.2457 115.206C42.1477 114.025 41.6733 108.419 41.5495 107.904C41.4051 107.331 41.0441 110.492 41.0441 110.492C41.0441 110.492 41.0338 110.9 41.0493 112.937C41.0544 113.798 41.0493 114.303 41.039 114.608C40.6161 114.401 40.1829 114.2 39.7446 113.994L39.5074 107.759C39.5074 107.759 39.2804 110.312 38.8782 111.916C38.6977 112.643 38.4399 113.066 38.213 113.308L38.0531 113.241C37.9603 113.019 37.919 112.777 37.9293 112.514C38.0376 110.425 37.7695 104.959 42.9728 91.2003C47.3459 79.6385 46.4331 75.8481 49.1147 75.4355H49.1096Z" fill="#A38976"/>
<path d="M32.9838 93.9231C32.989 93.9283 34.0822 96.5686 40.4511 98.5128L40.3479 98.848C33.8244 96.8523 33.1488 94.3563 33.1437 94.346L32.9838 93.918V93.9231ZM33.0044 100.369C33.0148 100.374 36.9082 102.886 40.7141 101.849L40.8069 102.19C36.8515 103.268 33.5253 100.998 33.5098 100.988L33.0044 100.369Z" fill="#B99E8A"/>
<path fill-rule="evenodd" clip-rule="evenodd" d="M36.1244 34.9228C36.1244 34.9228 36.9289 36.7896 37.3363 39.0329C37.3672 39.2082 37.3982 39.3784 37.4239 39.5383C38.3212 39.8065 39.6878 39.8374 41.1988 38.5482C42.8284 37.1609 44.2775 35.4076 45.1542 34.2473C45.1129 32.102 45.4275 30.1836 45.4275 30.1836C45.4275 30.1836 39.7239 35.0363 36.1244 34.9228V34.9228Z" fill="#542F1B"/>
<path fill-rule="evenodd" clip-rule="evenodd" d="M31.8338 45.4072C31.4883 45.5774 31.1892 45.7321 30.9674 45.8507C29.9773 46.387 29.0491 47.7433 29.2141 50.2754C29.3172 51.8482 29.5854 53.2664 29.7762 54.1173C29.7762 54.1173 29.1677 51.2088 29.8329 48.4447C30.2609 46.6707 31.2098 45.8043 31.839 45.4072H31.8338Z" fill="#855034"/>
<path fill-rule="evenodd" clip-rule="evenodd" d="M37.8159 100.473C37.2538 101.128 36.8979 103.51 36.9444 105.63C36.9908 107.749 36.8257 109.688 36.8257 109.688C36.8257 109.688 37.8881 110.456 38.1717 107.971C38.2955 106.903 37.9964 105.098 37.8365 104.083C37.6199 102.737 37.8159 100.478 37.8159 100.478V100.473Z" fill="#542F1B"/>
<path fill-rule="evenodd" clip-rule="evenodd" d="M52.5132 40.9261C53.4105 41.1117 54.4883 41.4417 55.2102 42.0039C56.649 43.1229 57.3091 44.4018 56.5149 48.4346C55.7208 52.4673 55.6589 51.0543 55.0916 55.252C54.5244 59.455 54.3645 60.507 53.7508 62.9411C53.1371 65.3751 52.4358 67.9949 52.1109 69.9493C51.786 71.9038 51.6519 75.4105 49.8058 80.6861C47.9544 85.9668 46.7425 88.0141 45.7576 91.1083C44.7726 94.2076 44.752 94.2231 44.721 94.7697C44.6901 95.3163 44.819 95.6412 44.6488 96.3168C44.4786 96.9872 44.6694 97.5287 44.8087 98.3332C44.9479 99.1325 45.443 100.52 45.1336 103.108C44.8241 105.697 44.6952 106.852 44.6024 107.76C44.5096 108.668 44.4786 110.772 44.1898 111.808C43.9011 112.845 43.406 112.675 43.3132 111.741C43.2203 110.808 43.2564 108.879 43.21 107.678C43.1585 106.476 43.1842 105.95 43.1842 105.95C43.1842 105.95 42.7407 109.472 42.7923 110.653C42.8439 111.834 42.8026 115.3 42.2354 115.232C41.6681 115.165 41.3587 110.653 41.3381 109.818C41.3174 108.982 41.4721 106.94 41.4721 106.94C41.4721 106.94 41.2401 106.754 41.1524 107.327C41.0647 107.899 40.7089 110.818 40.7089 110.818C40.7089 110.818 40.7347 113.799 40.6316 114.758C40.5336 115.717 40.286 116.104 39.9199 116.073C39.5538 116.042 39.4558 115.609 39.3268 113.954C39.1979 112.298 39.234 110.932 39.2753 110.318C39.3165 109.699 39.3887 107.079 39.3887 107.079C39.3887 107.079 39.1154 106.76 39.0587 107.255C39.002 107.75 38.8369 109.529 38.8369 109.529C38.8369 109.529 38.6616 111.684 38.4192 112.52C38.1768 113.355 37.6354 113.603 37.5425 112.886C37.4497 112.169 37.5116 109.941 37.5425 109.482C37.5735 109.024 37.6405 105.594 37.5168 104.516C37.393 103.439 37.362 101.556 37.6766 100.762C39.1464 97.08 39.2701 96.0177 40.3685 92.4233C40.9822 90.4172 42.4468 86.9518 43.3544 81.6298C44.6076 74.276 46.9849 69.6812 46.9849 69.4904C46.9849 69.2016 47.6759 49.7702 47.8152 47.7023C48.0318 44.5823 50.5896 41.3077 52.5235 40.9209L52.5132 40.9261Z" fill="#75462D"/>
<path fill-rule="evenodd" clip-rule="evenodd" d="M30.5394 55.2208C31.1479 55.7417 32.5558 56.376 35.7737 56.113C39.9612 55.7726 43.3286 54.1739 44.4838 53.5654C43.5607 54.2565 38.1459 56.902 34.6805 56.7627C31.0912 56.6183 30.5446 55.2208 30.5446 55.2208H30.5394Z" fill="#E0D0C4"/>
<path fill-rule="evenodd" clip-rule="evenodd" d="M32.2825 52.6631C32.2825 52.6631 33.1849 53.2407 33.7058 54.468C33.8502 54.8032 33.9379 55.1075 33.9894 55.3602C34.1493 55.3653 34.3143 55.3653 34.4845 55.3653C34.2473 54.4061 33.6748 53.1014 32.2825 52.6631V52.6631Z" fill="#855034"/>
<path fill-rule="evenodd" clip-rule="evenodd" d="M40.1726 52.3896C40.1726 52.3896 39.2443 52.7094 38.3625 53.4159C37.754 53.9006 37.2331 54.7309 36.9443 55.2518C37.1816 55.226 37.4136 55.1899 37.6457 55.1589C38.0428 54.3699 38.8524 53.1065 40.1726 52.3948V52.3896Z" fill="#855034"/>
<path fill-rule="evenodd" clip-rule="evenodd" d="M35.4643 55.6381C35.2529 54.8182 34.8455 53.8693 34.0874 53.0029C34.0874 53.0029 34.5979 54.1942 34.6083 55.6691C34.8764 55.6639 35.1652 55.6536 35.4695 55.6381H35.4643Z" fill="#3D2A26"/>
<path fill-rule="evenodd" clip-rule="evenodd" d="M36.1244 34.9228C36.1244 34.9228 36.4493 35.6757 36.7896 36.8C38.8163 37.5683 40.1262 36.7174 42.3127 35.3715C43.6793 34.5309 44.5921 33.5305 45.1851 32.6744C45.2573 31.2459 45.4327 30.1836 45.4327 30.1836C45.4327 30.1836 39.7291 35.0363 36.1295 34.9228H36.1244Z" fill="#3D2A26"/>
<path fill-rule="evenodd" clip-rule="evenodd" d="M45.5771 15.6931C48.6815 18.4623 48.3463 22.0619 47.5109 24.9137C46.6755 27.7655 46.1392 29.72 45.6596 31.2361C45.18 32.7522 45.0872 33.0359 42.8851 34.4386C40.6831 35.8413 38.806 36.8469 37.3311 36.2435C35.8562 35.6401 34.5567 34.8408 33.8605 33.1029C33.1643 31.365 32.8549 29.885 32.3186 28.4101C31.7771 26.9352 32.2515 26.5484 32.2412 24.9807C32.2309 23.413 32.0659 23.3408 31.9576 21.8608C31.8957 20.9893 31.5296 19.107 33.221 16.8276C35.9852 13.0991 42.1735 12.6505 45.5822 15.6931H45.5771Z" fill="#75462D"/>
<path fill-rule="evenodd" clip-rule="evenodd" d="M47.5058 23.9807C47.7327 23.8621 48.0266 23.7848 48.3412 23.8982C48.9961 24.1406 49.4551 25.4143 48.63 27.0543C47.7997 28.689 47.4181 29.4729 47.2221 29.7513C47.0365 30.0092 46.4177 30.2722 46.1392 29.6069C46.4331 28.5395 46.7683 27.2038 47.3201 24.8935C47.3923 24.5841 47.4542 24.2798 47.5058 23.9807V23.9807Z" fill="#75462D"/>
<path fill-rule="evenodd" clip-rule="evenodd" d="M46.2836 29.8438C46.2268 29.7819 46.1804 29.7046 46.1392 29.6015C46.4331 28.534 46.7683 27.1983 47.3201 24.888C47.3614 24.7178 47.3975 24.5476 47.4284 24.3826C47.5986 24.3207 47.8152 24.2743 48.0782 24.2846C48.8105 24.3156 48.8569 25.7441 48.5887 26.3887C48.3257 27.0333 48.3257 27.0333 48.3257 27.0333C48.3257 27.0333 48.5836 26.1979 48.5217 25.4656C48.4598 24.7385 47.8358 24.7642 47.6708 24.9499C47.5058 25.1304 47.2273 25.6254 47.3511 26.2237C47.4748 26.8167 47.3407 27.5593 47.0313 27.7553C46.7786 27.9203 46.299 29.2198 46.2784 29.8438H46.2836Z" fill="#542F1B"/>
<path fill-rule="evenodd" clip-rule="evenodd" d="M32.6074 23.2945C32.6074 23.2945 33.1952 22.8097 33.7935 23.1707C34.3917 23.5369 35.1652 24.4754 35.387 24.3723C35.6087 24.2691 35.5726 24.0061 35.0208 23.5059C34.469 23.0005 33.8089 22.5003 33.2107 22.7427C32.6125 22.9851 32.3237 23.4698 32.6022 23.2945H32.6074Z" fill="#191716"/>
<path fill-rule="evenodd" clip-rule="evenodd" d="M38.0634 24.0731C38.0634 24.0731 38.5946 24.4753 38.8679 24.1762C39.136 23.8771 39.9199 23.0829 41.0029 22.8766C42.0858 22.6704 42.4571 23.0829 42.5706 23.2325C42.684 23.382 42.8336 23.2583 42.6118 22.9849C42.3901 22.7116 41.3638 22.263 40.2499 22.6652C39.1412 23.0675 37.7901 23.6192 38.0634 24.0731V24.0731Z" fill="#191716"/>
<path fill-rule="evenodd" clip-rule="evenodd" d="M33.0612 24.8566C33.0612 24.8566 33.7161 24.3718 34.4226 24.64C35.1342 24.9081 35.3818 25.4806 35.3818 25.4806C35.3818 25.4806 34.6443 23.5673 33.056 24.8566H33.0612Z" fill="#241714"/>
<path fill-rule="evenodd" clip-rule="evenodd" d="M38.9968 25.2072C38.9968 25.2072 39.6053 24.4955 40.6367 24.4903C41.6733 24.48 42.3437 24.939 42.3437 24.939C42.3437 24.939 41.73 24.2222 40.4562 24.3305C39.1876 24.4439 39.002 25.0782 38.9917 25.2072H38.9968Z" fill="#241714"/>
<path fill-rule="evenodd" clip-rule="evenodd" d="M32.9941 25.5326C32.9941 25.5326 33.2107 25.9967 33.582 26.1927C33.9533 26.3886 34.3452 26.3164 34.6701 26.2958C34.9899 26.2752 35.2322 26.3474 35.2322 26.3474C35.2322 26.3474 35.3096 26.4196 35.3715 26.3061C35.4334 26.1926 35.2683 26.1153 35.2683 26.1153C35.2683 26.1153 35.1085 25.3882 34.2215 25.2283C33.3345 25.0684 33.1024 25.4913 32.989 25.5377L32.9941 25.5326Z" fill="white"/>
<path fill-rule="evenodd" clip-rule="evenodd" d="M39.0226 26.1979C39.0226 26.1979 38.9091 26.3733 38.7957 26.2495C38.6822 26.1257 38.9091 25.9143 38.9091 25.9143C38.9091 25.9143 39.5228 25.1717 40.3892 25.084C41.2555 24.9964 41.9827 25.4708 42.091 25.4966C42.2044 25.5224 42.2354 25.5224 42.2096 25.5224C42.1838 25.5224 41.5804 26.2495 40.6883 26.3578C39.7961 26.4661 39.3217 26.1 39.0226 26.1979V26.1979Z" fill="white"/>
<path fill-rule="evenodd" clip-rule="evenodd" d="M35.6706 24.7796C35.6706 24.7796 36.0522 25.1973 36.0883 26.141C36.1244 27.0847 35.8098 28.1728 35.8098 28.1728C35.8098 28.1728 36.8928 25.1406 35.6706 24.7744V24.7796Z" fill="#241714"/>
<path fill-rule="evenodd" clip-rule="evenodd" d="M35.5932 28.709C35.5932 28.709 35.356 28.8792 35.289 29.2092C35.2219 29.5341 35.356 29.7765 35.5262 29.8229C35.6964 29.8693 35.0053 29.3742 35.5932 28.709V28.709Z" fill="#241714"/>
<path fill-rule="evenodd" clip-rule="evenodd" d="M38.1665 28.7811C38.1665 28.7811 38.5172 28.9874 38.5121 29.3432C38.5069 29.7042 38.2697 29.8641 38.0995 29.9311C37.9293 29.9982 38.445 30.0033 38.5894 29.5237C38.7338 29.0441 38.3212 28.7502 38.1665 28.776V28.7811Z" fill="#241714"/>
<path fill-rule="evenodd" clip-rule="evenodd" d="M35.5726 29.6067C35.5726 29.6067 35.7221 29.452 35.9078 29.6325C36.0934 29.8078 36.2533 29.9986 36.6298 29.9728C37.0062 29.9471 37.1558 29.7511 37.3878 29.6789C37.6147 29.6067 37.656 29.9161 37.7798 29.8542C37.9035 29.7923 37.8055 29.3746 37.5116 29.4468C37.2228 29.519 36.9959 29.9677 36.6298 29.9677C36.2636 29.9677 36.1966 29.8078 36.0212 29.6325C35.8511 29.4571 35.4024 29.3334 35.5674 29.6067H35.5726Z" fill="#241714"/>
<path d="M36.8773 29.2863C36.9884 29.2863 37.0784 29.2239 37.0784 29.1471C37.0784 29.0702 36.9884 29.0078 36.8773 29.0078C36.7662 29.0078 36.6762 29.0702 36.6762 29.1471C36.6762 29.2239 36.7662 29.2863 36.8773 29.2863Z" fill="#855034"/>
<path fill-rule="evenodd" clip-rule="evenodd" d="M35.0105 32.0402C35.0105 32.0402 34.6547 32.0814 34.6186 31.8803C34.5825 31.6844 34.6959 31.7875 34.7991 31.87C34.9022 31.9525 35.026 31.9422 35.0414 31.8958C35.0569 31.8442 35.1807 31.1377 35.8047 30.9469C36.4286 30.7561 36.5163 31.014 36.6556 31.0707C36.7948 31.1274 36.9186 31.0449 36.9959 30.9675C37.0733 30.8953 37.5941 30.6169 38.2955 31.1119C38.9968 31.607 39.2547 31.9422 39.3423 32.0041C39.4248 32.066 39.6002 32.0247 39.5847 31.9164C39.5692 31.8081 39.7136 31.8081 39.8013 31.9164C39.8838 32.0247 39.4661 32.1382 39.4661 32.1382C39.4661 32.1382 39.2134 33.0509 38.3625 33.5615C37.5064 34.072 36.2946 34.0205 35.8047 33.6027C35.3147 33.185 35.1394 32.2877 35.0156 32.0402H35.0105Z" fill="#94473B"/>
<path fill-rule="evenodd" clip-rule="evenodd" d="M36.8257 33.2006C36.8257 33.2006 37.3156 33.2934 37.7334 33.0201C38.1511 32.7468 38.4863 32.6952 38.4966 32.9324C38.5121 33.1696 37.6663 33.3914 37.1197 33.3501C36.573 33.314 36.671 33.1542 36.8206 33.2006H36.8257Z" fill="#BF6558"/>
<path fill-rule="evenodd" clip-rule="evenodd" d="M35.2683 32.0256C35.2683 32.0256 35.6809 32.0617 36.0006 32.2731C36.3204 32.4794 36.9082 32.6702 37.326 32.4897C37.7437 32.3092 38.0273 32.2318 38.378 32.2164C38.7235 32.2009 39.0793 32.1339 39.0793 32.1339C38.5482 32.1545 37.6199 31.8347 36.7793 31.8399C36.1399 31.8451 35.8304 32.0513 35.2683 32.0256Z" fill="white"/>
<path fill-rule="evenodd" clip-rule="evenodd" d="M32.9941 25.5322C32.9941 25.5322 33.2107 25.9963 33.582 26.1923C33.9533 26.3882 34.3452 26.316 34.6701 26.2954C34.9899 26.2748 35.2322 26.347 35.2322 26.347C35.2322 26.347 35.2529 26.3625 35.2787 26.3676C35.1085 26.1098 34.2266 26.3573 33.7264 26.1459C33.3551 25.9912 33.1334 25.656 33.0457 25.4961C33.0251 25.5167 33.0044 25.527 32.989 25.5322H32.9941Z" fill="#D4926F"/>
<path fill-rule="evenodd" clip-rule="evenodd" d="M39.0226 26.1973C39.0226 26.1973 38.9504 26.3056 38.8679 26.2901C39.0845 25.795 40.0076 26.3726 40.776 26.2024C41.3999 26.0632 41.8744 25.6506 42.0446 25.4805C42.0652 25.4908 42.0755 25.4959 42.0858 25.4959C42.1993 25.5217 42.2302 25.5217 42.2044 25.5217C42.1786 25.5217 41.5753 26.2489 40.6831 26.3571C39.791 26.4654 39.3165 26.0993 39.0174 26.1973H39.0226Z" fill="#D4926F"/>
<path fill-rule="evenodd" clip-rule="evenodd" d="M38.8576 25.971C38.8834 25.9349 38.9091 25.9143 38.9091 25.9143C38.9091 25.9143 39.5228 25.1717 40.3892 25.084C41.2556 24.9964 41.9827 25.4708 42.091 25.4966C42.2044 25.5224 42.2354 25.5224 42.2096 25.5224C42.1993 25.5224 42.1322 25.5946 42.0188 25.7029C40.4562 25.0995 39.2959 25.6874 38.8627 25.971H38.8576Z" fill="#ADA89F"/>
<path fill-rule="evenodd" clip-rule="evenodd" d="M32.9941 25.5328C32.9941 25.5328 33.0251 25.5999 33.0818 25.6927C33.4634 25.5431 34.5773 25.2389 35.3612 26.3167C35.3663 26.3115 35.3663 26.3064 35.3715 26.3012C35.4334 26.1878 35.2683 26.1104 35.2683 26.1104C35.2683 26.1104 35.1085 25.3833 34.2215 25.2234C33.3345 25.0636 33.1024 25.4864 32.989 25.5328H32.9941Z" fill="#ADA89F"/>
<path fill-rule="evenodd" clip-rule="evenodd" d="M34.9899 25.62C34.83 25.4498 34.5928 25.29 34.2266 25.2229C34.0616 25.192 33.9172 25.1817 33.7934 25.1868C33.7264 25.29 33.6903 25.4086 33.6903 25.5375C33.6903 25.8985 33.9843 26.1924 34.3452 26.1924C34.6804 26.1924 34.9538 25.9397 34.995 25.6148L34.9899 25.62Z" fill="#625D54"/>
<path fill-rule="evenodd" clip-rule="evenodd" d="M39.9663 25.1816C40.1004 25.1352 40.2396 25.0991 40.3892 25.0836C40.6316 25.0579 40.8636 25.0785 41.0699 25.1197C41.1524 25.2332 41.204 25.3724 41.204 25.522C41.204 25.8881 40.9049 26.1872 40.5387 26.1872C40.1726 26.1872 39.8735 25.8881 39.8735 25.522C39.8735 25.3982 39.9096 25.2796 39.9663 25.1816V25.1816Z" fill="#625D54"/>
<path d="M40.5387 25.8011C40.6925 25.8011 40.8172 25.6764 40.8172 25.5226C40.8172 25.3688 40.6925 25.2441 40.5387 25.2441C40.3849 25.2441 40.2603 25.3688 40.2603 25.5226C40.2603 25.6764 40.3849 25.8011 40.5387 25.8011Z" fill="#191716"/>
<path d="M34.3401 25.8113C34.491 25.8113 34.6134 25.6889 34.6134 25.538C34.6134 25.387 34.491 25.2646 34.3401 25.2646C34.1891 25.2646 34.0668 25.387 34.0668 25.538C34.0668 25.6889 34.1891 25.8113 34.3401 25.8113Z" fill="#191716"/>
<path fill-rule="evenodd" clip-rule="evenodd" d="M32.6383 25.3415C32.6383 25.3415 32.7672 25.4756 32.8652 25.522C32.9632 25.5684 33.0096 25.5632 33.0096 25.5632C33.0096 25.5632 33.4325 25.1455 34.2112 25.3002C34.9899 25.4498 35.2735 26.1099 35.2735 26.1099C35.2735 26.1099 35.1136 25.1507 34.2266 24.9444C33.3396 24.7381 32.8549 25.3776 32.6383 25.3415V25.3415Z" fill="#191716"/>
<path fill-rule="evenodd" clip-rule="evenodd" d="M38.7957 26.0688C38.7957 26.0688 39.0535 25.6562 39.7342 25.3932C40.4098 25.1302 40.9049 25.1405 41.4257 25.321C41.9466 25.4964 42.1529 25.6201 42.3746 25.5015C42.5963 25.3829 42.6015 25.2334 42.6015 25.2334C42.6015 25.2334 42.4932 25.3159 42.354 25.2591C42.2147 25.1973 39.6414 23.9751 38.7957 26.0688V26.0688Z" fill="#191716"/>
<path d="M33.8605 25.8269C33.9659 25.8269 34.0513 25.7415 34.0513 25.6361C34.0513 25.5307 33.9659 25.4453 33.8605 25.4453C33.7551 25.4453 33.6697 25.5307 33.6697 25.6361C33.6697 25.7415 33.7551 25.8269 33.8605 25.8269Z" fill="white"/>
<path d="M39.9405 25.8269C40.0459 25.8269 40.1313 25.7415 40.1313 25.6361C40.1313 25.5307 40.0459 25.4453 39.9405 25.4453C39.8351 25.4453 39.7497 25.5307 39.7497 25.6361C39.7497 25.7415 39.8351 25.8269 39.9405 25.8269Z" fill="white"/>
</svg>
