<svg width="85" height="212" viewBox="0 0 85 212" fill="none" xmlns="http://www.w3.org/2000/svg">
<g clip-path="url(#clip0)">
<path fill-rule="evenodd" clip-rule="evenodd" d="M35.2567 34.6439C35.2567 34.6439 36.1146 36.5162 36.5517 38.7609C36.9887 41.0056 36.9294 41.9121 35.4779 42.592C34.0264 43.2773 30.8266 44.664 29.5856 45.2953C28.3445 45.9267 27.1736 47.5184 27.3787 50.497C27.5891 53.4755 28.3445 55.9954 28.3445 55.9954C28.3445 55.9954 47.2139 60.9434 50.0468 58.6016C52.8796 56.2598 56.4193 41.1837 52.7285 40.6495C52.5451 40.6225 51.1151 40.4175 50.9479 40.3959C47.6942 39.9912 46.7769 40.5092 45.5898 37.7681C44.3433 34.8867 45.2121 29.8955 45.2121 29.8955C45.2121 29.8955 39.1147 34.7572 35.2567 34.6439V34.6439Z" fill="#75462D"/>
<path fill-rule="evenodd" clip-rule="evenodd" d="M47.9801 48.6084C47.9801 48.6084 46.9819 53.4809 45.5196 55.5799C44.0573 57.6789 47.4297 60.3498 47.829 57.1501C48.2283 53.9503 47.9747 48.6084 47.9747 48.6084H47.9801Z" fill="#3D2A26"/>
<path fill-rule="evenodd" clip-rule="evenodd" d="M28.8841 110.898C28.8841 110.898 28.841 113.904 30.1953 121.69C30.4489 123.163 30.7403 124.912 31.0371 126.778C32.6882 121.906 35.2081 114.746 35.9743 112.571C31.6576 111.012 29.2295 110.904 28.8841 110.898ZM34.8951 152.355C36.0552 160.125 37.6794 171.656 37.5337 174.516C37.3071 178.93 33.9994 186.408 33.9994 186.408C33.9994 186.408 32.7206 187.39 34.226 188.637C35.7315 189.883 37.2369 189.899 37.2369 189.899L37.6201 189.354C37.6039 189.117 37.647 188.961 37.647 188.961C37.647 188.961 37.647 188.961 38.3215 183.376C38.996 177.791 39.6651 175.552 38.505 166.098C37.987 161.873 36.5031 156.914 34.9005 152.355H34.8951ZM44.6239 148.977C44.6833 146.981 44.6455 145.195 44.4296 143.981C43.5825 139.167 42.6328 138.099 42.6328 138.099C42.6328 138.099 43.2318 133.453 43.7552 128.198C40.9547 132.757 38.2837 136.934 38.2837 136.934C38.2837 136.934 40.1831 138.455 42.962 143.84C43.8199 145.502 44.3325 147.218 44.6185 148.972L44.6239 148.977Z" fill="#3D2A26"/>
<path fill-rule="evenodd" clip-rule="evenodd" d="M29.359 54.4683C30.0065 54.9917 31.5173 55.623 34.9545 55.364C39.4546 55.0241 43.0753 53.4053 44.2894 52.8064C46.3883 43.4013 49.8363 40.903 51.3903 40.2448C52.2267 39.894 52.5612 40.18 52.7015 40.5038C52.6853 40.5038 47.6294 41.0325 44.9692 53.2272C45.3685 54.2632 46.275 56.4108 47.7427 58.7256C49.7931 61.9739 48.2661 73.3592 48.2661 73.3592C48.2661 73.3592 49.8849 76.9637 52.081 80.6545C54.2771 84.3399 58.896 91.9211 57.3851 100.306C55.8743 108.697 49.3615 118.96 49.3615 118.96C49.3615 118.96 44.4998 116.095 38.3107 113.488C32.1217 110.882 28.841 110.898 28.841 110.898C28.841 110.898 27.8265 90.2268 28.8787 84.0539C30.0658 77.104 28.8248 70.2512 27.8049 65.8428C27.8049 65.8428 23.4451 61.3858 28.7115 54.1068C28.7492 54.042 28.787 53.9773 28.8248 53.9125C30.0442 51.8405 32.2134 48.6893 31.609 44.3348C31.5767 43.8438 32.2997 43.7575 32.3159 44.0812C32.8609 48.754 30.7619 52.0779 29.4885 54.2524C29.4453 54.328 29.4075 54.3981 29.3644 54.4683H29.359Z" fill="#D5C1B5"/>
<path fill-rule="evenodd" clip-rule="evenodd" d="M35.9743 112.577C34.9599 115.458 30.859 127.108 29.796 130.572C28.582 134.533 28.528 135.374 29.9471 139.432C31.3662 143.495 37.3395 156.65 38.4996 166.104C39.6651 175.557 38.9906 177.797 38.3161 183.381C37.6416 188.966 37.6416 188.966 37.6416 188.966C37.6416 188.966 37.0265 191.168 41.2083 191.497C45.3901 191.826 45.7085 189.619 45.6437 187.477C45.579 185.335 46.0052 182.977 46.4747 180.775C46.9441 178.579 46.8902 177.338 45.8218 174.322C44.7534 171.311 44.5538 167.539 44.7048 161.345C44.8559 155.15 45.7408 149.231 42.9566 143.84C40.1723 138.455 38.2783 136.934 38.2783 136.934C38.2783 136.934 46.6527 124.151 49.3507 118.96C48.4981 118.469 41.4997 114.832 38.2999 113.489C35.1002 112.14 36.6866 112.836 35.9635 112.571L35.9743 112.577Z" fill="#75462D"/>
<path fill-rule="evenodd" clip-rule="evenodd" d="M34.0372 186.316C33.2548 186.894 31.6037 188.216 29.8932 190.239C27.519 193.04 28.1665 193.18 28.8895 193.18C29.564 193.18 34.6361 193.52 36.1416 192.694C36.2603 192.317 36.3898 191.955 36.5139 191.615C36.8053 190.817 37.0427 190.272 37.2316 189.899C37.1182 189.894 35.6721 189.829 34.2314 188.637C32.726 187.39 34.0048 186.408 34.0048 186.408L34.0426 186.322L34.0372 186.316Z" fill="#BA9F8A"/>
<path fill-rule="evenodd" clip-rule="evenodd" d="M37.6147 189.263C37.4204 189.5 37.0643 190.099 36.5085 191.615C35.602 194.097 34.5444 197.939 36.3844 197.804C38.2244 197.669 45.9027 195.112 46.1671 191.966C46.4315 188.82 47.1546 186.818 47.624 184.368C48.0934 181.919 49.2644 180.408 49.3291 178.735C49.3885 177.187 48.1042 175.843 45.8973 174.516C46.901 177.386 46.9441 178.622 46.4801 180.775C46.0106 182.971 45.5844 185.334 45.6491 187.477C45.7139 189.619 45.3955 191.826 41.2137 191.496C37.9924 191.243 37.6147 189.878 37.6147 189.263V189.263Z" fill="#D4C1B5"/>
<path fill-rule="evenodd" clip-rule="evenodd" d="M48.9676 180.402C48.8974 180.937 48.7841 181.589 48.6061 182.339C48.0881 184.546 48.2769 187.832 48.2553 188.631C48.1474 188.825 47.2949 188.804 47.2949 188.669L47.3434 185.712C47.4459 185.275 47.5431 184.832 47.6294 184.374C47.9424 182.744 48.5629 181.53 48.9622 180.408L48.9676 180.402Z" fill="#A68C7A"/>
<path fill-rule="evenodd" clip-rule="evenodd" d="M39.5356 178.169C39.5356 178.169 38.3107 185.809 38.165 187.752C38.0247 189.694 41.7479 177.618 39.5356 178.169Z" fill="#855034"/>
<path fill-rule="evenodd" clip-rule="evenodd" d="M29.7043 111.314C29.7043 111.314 29.8122 114.179 30.4489 118.593C31.0856 123.007 31.5119 124.156 31.4472 123.789C31.3824 123.422 30.8968 111.681 30.8968 111.681C30.8968 111.681 30.4489 111.179 29.7043 111.308V111.314Z" fill="#855034"/>
<path fill-rule="evenodd" clip-rule="evenodd" d="M36.6812 113.483L38.3323 114.277C38.3323 114.277 35.9689 118.518 33.1738 124.561C30.3788 130.605 30.0496 131.29 30.0496 131.29C30.0496 131.29 31.8896 126.255 36.6812 113.483Z" fill="#855034"/>
<path fill-rule="evenodd" clip-rule="evenodd" d="M35.9743 112.577L35.5588 113.748C39.7083 114.093 47.1276 117.73 48.5791 120.406C48.8704 119.877 49.1348 119.392 49.3615 118.96C48.9028 118.696 46.7121 117.406 44.2354 116.165C42.1256 115.107 39.7838 114.109 38.3107 113.489C35.111 112.14 36.6974 112.836 35.9743 112.571V112.577Z" fill="#3D2A26"/>
<path fill-rule="evenodd" clip-rule="evenodd" d="M28.4255 89.8384C28.4255 89.8384 26.0837 99.4431 26.4614 104.456C26.8391 109.469 26.8445 108.125 27.4488 110.111C28.0532 112.096 28.323 112.998 28.323 112.998C28.323 112.998 29.0622 114.098 29.0406 113.791C29.0136 113.483 28.6467 105.999 28.6467 105.999C28.6467 105.999 29.0622 107.235 29.4939 108.093C29.9309 108.956 30.1414 109.139 30.4112 109.01C30.681 108.875 30.3896 107.397 30.0604 106.404C29.7313 105.411 29.8716 104.04 29.4939 102.729C29.1162 101.418 28.5442 100.641 28.5442 100.641C28.5496 96.4376 28.3176 94.5004 28.4309 89.833L28.4255 89.8384Z" fill="#542F1B"/>
<path fill-rule="evenodd" clip-rule="evenodd" d="M56.0416 92.606C56.538 94.964 56.6999 97.5108 56.225 100.139C54.7843 108.157 48.5575 117.967 48.5575 117.967C48.5575 117.967 48.1852 117.745 47.5161 117.373C48.7949 115.36 51.0558 111.357 53.6188 104.774C55.7232 99.367 56.1279 95.2608 56.0416 92.6006V92.606Z" fill="#B99E8A"/>
<path fill-rule="evenodd" clip-rule="evenodd" d="M49.1456 75.2207C49.8309 76.6129 50.4191 77.8701 51.6278 79.899L51.7734 80.1472C50.759 80.7569 49.7932 81.7659 47.3866 86.9514C44.98 92.1368 44.7804 95.2395 45.1203 98.191C45.4549 101.143 45.5952 101.029 45.3146 104.083C45.034 107.137 44.3001 111.346 43.739 112.161C43.1724 112.976 42.7839 112.965 42.7839 112.965C42.7839 112.965 42.5573 114.589 42.0824 115.177L41.8019 115.042C41.6939 113.861 41.1921 108.244 41.0572 107.731C40.9061 107.159 40.5122 110.326 40.5122 110.326C40.5122 110.326 40.5015 110.736 40.5176 112.771C40.523 113.629 40.5176 114.141 40.5015 114.443C40.0482 114.238 39.5842 114.033 39.1147 113.828L38.8611 107.585C38.8611 107.585 38.6183 110.143 38.1866 111.745C37.9924 112.474 37.7172 112.9 37.4744 113.143L37.3017 113.073C37.2046 112.852 37.156 112.609 37.1722 112.344C37.2855 110.251 36.9995 104.774 42.5681 90.9983C47.2463 79.4187 46.2696 75.6254 49.1403 75.21L49.1456 75.2207Z" fill="#A38976"/>
<path d="M31.895 93.7344C31.9004 93.7398 33.0713 96.3837 39.8809 98.3317L39.773 98.6662C32.7907 96.6697 32.0731 94.166 32.0677 94.1606L31.895 93.7344V93.7344ZM31.9166 100.193C31.9274 100.199 36.093 102.713 40.1615 101.672L40.2586 102.012C36.0229 103.091 32.467 100.819 32.4562 100.808L31.9166 100.188V100.193Z" fill="#B99E8A"/>
<path fill-rule="evenodd" clip-rule="evenodd" d="M35.2566 34.6443C35.2566 34.6443 36.1146 36.5167 36.5517 38.7614C36.584 38.9395 36.6164 39.1067 36.6434 39.2686C37.6039 39.5384 39.0607 39.5708 40.6795 38.2812C42.4224 36.8944 43.971 35.1354 44.9153 33.9753C44.8721 31.8277 45.2066 29.9014 45.2066 29.9014C45.2066 29.9014 39.1093 34.7631 35.2513 34.6497L35.2566 34.6443Z" fill="#542F1B"/>
<path fill-rule="evenodd" clip-rule="evenodd" d="M35.2567 34.6443C35.2567 34.6443 35.602 35.3998 35.9689 36.5221C37.5445 37.8387 39.3791 36.7973 41.2839 35.7019C43.1832 34.6066 44.7966 33.2198 44.953 32.3943C45.0286 30.9644 45.2174 29.9014 45.2174 29.9014C45.2174 29.9014 39.1201 34.7631 35.262 34.6497L35.2567 34.6443Z" fill="#3D2A26"/>
<path fill-rule="evenodd" clip-rule="evenodd" d="M30.6648 45.1441C30.2924 45.3167 29.9741 45.4678 29.7367 45.5865C28.6791 46.1207 27.6808 47.4805 27.8589 50.0165C27.9668 51.5867 28.2582 53.0113 28.4632 53.8638C28.4632 53.8638 27.8103 50.95 28.5226 48.1819C28.9813 46.4067 29.9957 45.538 30.6648 45.1387V45.1441Z" fill="#855034"/>
<path fill-rule="evenodd" clip-rule="evenodd" d="M37.0643 100.29C36.4599 100.948 36.0822 103.333 36.1362 105.454C36.1901 107.574 36.0067 109.517 36.0067 109.517C36.0067 109.517 37.1398 110.289 37.4474 107.796C37.5769 106.722 37.2639 104.92 37.0859 103.9C36.8538 102.551 37.0643 100.29 37.0643 100.29Z" fill="#542F1B"/>
<path fill-rule="evenodd" clip-rule="evenodd" d="M52.7879 40.6602C53.7483 40.849 54.903 41.1782 55.6747 41.7393C57.2125 42.8617 57.8762 43.8006 57.1909 48.2144C56.6027 52.0239 55.3293 58.1914 54.1152 62.7131C53.4623 65.152 52.804 67.8122 52.4587 69.7655C52.108 71.7188 51.8706 75.1992 49.8903 80.4871C47.91 85.7751 46.615 87.8255 45.5574 90.9281C44.4998 94.0308 44.4782 94.047 44.4458 94.5973C44.4135 95.1423 44.5484 95.4715 44.3703 96.146C44.1922 96.8204 44.3919 97.36 44.543 98.164C44.694 98.968 45.2228 100.355 44.8883 102.945C44.5591 105.535 44.4189 106.695 44.3217 107.601C44.2246 108.508 44.1868 110.618 43.8793 111.654C43.5717 112.69 43.0375 112.522 42.9404 111.584C42.8433 110.645 42.881 108.718 42.8271 107.515C42.7731 106.312 42.7947 105.788 42.7947 105.788C42.7947 105.788 42.3253 109.317 42.3792 110.499C42.4332 111.681 42.39 115.15 41.7803 115.085C41.1759 115.015 40.8468 110.499 40.8198 109.663C40.7982 108.826 40.9601 106.781 40.9601 106.781C40.9601 106.781 40.7119 106.592 40.6202 107.17C40.5284 107.742 40.1453 110.666 40.1453 110.666C40.1453 110.666 40.1723 113.65 40.0644 114.611C39.9565 115.571 39.6921 115.96 39.3036 115.927C38.9151 115.895 38.8071 115.463 38.6668 113.807C38.532 112.15 38.5697 110.785 38.6129 110.164C38.6561 109.544 38.7316 106.916 38.7316 106.916C38.7316 106.916 38.4348 106.598 38.3755 107.094C38.3161 107.591 38.1381 109.377 38.1381 109.377C38.1381 109.377 37.9546 111.535 37.6902 112.371C37.4312 113.213 36.8538 113.456 36.7513 112.738C36.6542 112.021 36.7135 109.787 36.7513 109.333C36.7837 108.875 36.8538 105.438 36.7243 104.358C36.5894 103.279 36.5571 101.391 36.8916 100.603C38.4672 96.9122 38.5967 95.8492 39.7676 92.2501C40.4259 90.2375 41.9907 86.7679 42.962 81.4422C44.3001 74.0768 46.847 69.4741 46.847 69.2853C46.847 68.9939 47.5862 49.5364 47.7373 47.4644C47.9693 44.3401 50.7051 41.0595 52.7717 40.671L52.7879 40.6602Z" fill="#75462D"/>
<path fill-rule="evenodd" clip-rule="evenodd" d="M29.2834 54.97C29.9309 55.4934 31.4418 56.1247 34.8789 55.8657C39.3575 55.5258 42.962 53.9232 44.1976 53.3135C43.2102 54.0041 37.415 56.6535 33.7134 56.5132C29.8716 56.3675 29.2888 54.9646 29.2888 54.9646L29.2834 54.97Z" fill="#E0D0C4"/>
<path fill-rule="evenodd" clip-rule="evenodd" d="M31.1504 52.4121C31.1504 52.4121 32.1162 52.9949 32.672 54.2197C32.8285 54.5597 32.9202 54.8564 32.9742 55.1154C33.1469 55.1208 33.3195 55.1208 33.503 55.1208C33.2494 54.1604 32.6343 52.8546 31.145 52.4175L31.1504 52.4121Z" fill="#855034"/>
<path fill-rule="evenodd" clip-rule="evenodd" d="M39.5895 52.1372C39.5895 52.1372 38.5967 52.461 37.6578 53.1624C37.0103 53.6481 36.4491 54.479 36.1416 54.997C36.3952 54.9701 36.6434 54.9377 36.8916 54.8999C37.3179 54.1121 38.1812 52.8495 39.5949 52.1318L39.5895 52.1372Z" fill="#855034"/>
<path fill-rule="evenodd" clip-rule="evenodd" d="M34.5498 55.3915C34.3232 54.5713 33.8861 53.6217 33.0767 52.7529C33.0767 52.7529 33.6217 53.9454 33.6325 55.4239C33.9239 55.4185 34.226 55.4077 34.5498 55.3915Z" fill="#3D2A26"/>
<path fill-rule="evenodd" clip-rule="evenodd" d="M35.5426 34.8816C35.5426 34.8816 35.8664 35.6317 36.2063 36.754C38.2352 37.5202 39.541 36.6731 41.7263 35.3295C43.0915 34.4878 44.0034 33.4895 44.5969 32.6316C44.6671 31.2017 44.8451 30.1387 44.8451 30.1387C44.8451 30.1387 39.1417 34.995 35.5426 34.8763V34.8816Z" fill="#3D2A26"/>
<path fill-rule="evenodd" clip-rule="evenodd" d="M44.9962 15.6505C48.0988 18.4186 47.7643 22.0176 46.9279 24.872C46.0916 27.7264 45.552 29.6744 45.0772 31.1906C44.5969 32.7068 44.5052 32.9928 42.2983 34.3957C40.0968 35.7987 38.219 36.8023 36.7405 36.2034C35.2674 35.599 33.8537 34.7896 33.1577 33.0522C32.4616 31.3147 31.9382 29.9711 31.5659 28.4333C31.1936 26.8955 31.6252 26.507 31.6144 24.9422C31.6037 23.3774 31.4742 23.3018 31.3662 21.8234C31.3069 20.9546 30.94 19.0661 32.6289 16.789C35.3916 13.0605 41.5806 12.6126 44.9908 15.6559L44.9962 15.6505Z" fill="#75462D"/>
<path fill-rule="evenodd" clip-rule="evenodd" d="M46.9279 23.9331C47.1546 23.8144 47.4513 23.7335 47.7643 23.8522C48.4226 24.095 48.8812 25.3684 48.0503 27.0034C47.2193 28.6383 46.8416 29.4207 46.642 29.7013C46.4585 29.9603 45.838 30.2193 45.5574 29.5556C45.8542 28.4872 46.1887 27.149 46.7391 24.8396C46.8146 24.532 46.874 24.2299 46.9225 23.9277L46.9279 23.9331Z" fill="#75462D"/>
<path fill-rule="evenodd" clip-rule="evenodd" d="M45.7085 29.8039C45.6545 29.7446 45.606 29.6636 45.5628 29.5665C45.8596 28.4981 46.1941 27.1599 46.7445 24.8505C46.7877 24.6832 46.82 24.5106 46.8578 24.3433C47.0305 24.2785 47.2463 24.23 47.5053 24.2408C48.2391 24.2677 48.2823 25.703 48.0179 26.3452C47.7535 26.9927 47.7535 26.9927 47.7535 26.9927C47.7535 26.9927 48.0125 26.1563 47.9532 25.4279C47.8938 24.6994 47.2679 24.7264 47.106 24.9099C46.9387 25.0933 46.6635 25.5897 46.7877 26.1833C46.9064 26.7768 46.7769 27.5161 46.4693 27.7157C46.2157 27.8776 45.7409 29.178 45.7193 29.8039H45.7085Z" fill="#3D2A26"/>
<path fill-rule="evenodd" clip-rule="evenodd" d="M32.0299 23.2536C32.0299 23.2536 32.6181 22.768 33.217 23.1349C33.816 23.4965 34.5876 24.4407 34.8142 24.3382C35.0354 24.2357 35.0031 23.9767 34.4527 23.4695C33.9023 22.9677 33.2386 22.4604 32.6451 22.7033C32.0461 22.9461 31.7601 23.4317 32.0407 23.2536H32.0299Z" fill="#191716"/>
<path fill-rule="evenodd" clip-rule="evenodd" d="M37.4852 24.0298C37.4852 24.0298 38.0193 24.4291 38.2891 24.1323C38.5589 23.8355 39.3413 23.0423 40.4259 22.8373C41.5105 22.6323 41.8828 23.0423 41.9961 23.1934C42.1094 23.3445 42.2551 23.2204 42.0393 22.9452C41.818 22.67 40.7874 22.2222 39.6759 22.6215C38.5643 23.0208 37.2154 23.5711 37.4852 24.0298V24.0298Z" fill="#191716"/>
<path fill-rule="evenodd" clip-rule="evenodd" d="M32.4832 24.8125C32.4832 24.8125 33.1361 24.3269 33.8429 24.5967C34.5498 24.8664 34.8034 25.4384 34.8034 25.4384C34.8034 25.4384 34.0642 23.5229 32.4778 24.8125H32.4832Z" fill="#241714"/>
<path fill-rule="evenodd" clip-rule="evenodd" d="M38.4186 25.1685C38.4186 25.1685 39.023 24.4616 40.059 24.4508C41.095 24.44 41.7641 24.8987 41.7641 24.8987C41.7641 24.8987 41.149 24.181 39.8809 24.2944C38.6129 24.4077 38.424 25.039 38.4186 25.1739V25.1685Z" fill="#241714"/>
<path fill-rule="evenodd" clip-rule="evenodd" d="M32.413 25.4876C32.413 25.4876 32.6289 25.9516 33.0012 26.1459C33.3735 26.3402 33.7674 26.2646 34.0858 26.2484C34.4095 26.2322 34.6523 26.3024 34.6523 26.3024C34.6523 26.3024 34.7333 26.3725 34.7926 26.2592C34.852 26.1459 34.6901 26.0704 34.6901 26.0704C34.6901 26.0704 34.5336 25.3419 33.6433 25.1854C32.7584 25.029 32.521 25.4444 32.413 25.493V25.4876Z" fill="white"/>
<path fill-rule="evenodd" clip-rule="evenodd" d="M38.4456 26.1513C38.4456 26.1513 38.3323 26.324 38.219 26.2053C38.1057 26.0812 38.3323 25.8707 38.3323 25.8707C38.3323 25.8707 38.942 25.1315 39.8108 25.0398C40.6795 24.9534 41.4026 25.4283 41.5159 25.4499C41.6292 25.4768 41.6616 25.4768 41.6346 25.4768C41.6076 25.4768 41.0033 26.2053 40.1129 26.3132C39.2226 26.4211 38.7478 26.0542 38.451 26.1513H38.4456Z" fill="white"/>
<path fill-rule="evenodd" clip-rule="evenodd" d="M35.0894 24.7373C35.0894 24.7373 35.4725 25.1582 35.5103 26.0971C35.548 27.0413 35.2297 28.1313 35.2297 28.1313C35.2297 28.1313 36.3143 25.0988 35.0894 24.7373V24.7373Z" fill="#241714"/>
<path fill-rule="evenodd" clip-rule="evenodd" d="M35.0139 28.665C35.0139 28.665 34.7764 28.8377 34.7117 29.1669C34.6469 29.496 34.7764 29.7334 34.9491 29.782C35.1218 29.8305 34.4257 29.3341 35.0139 28.665Z" fill="#241714"/>
<path fill-rule="evenodd" clip-rule="evenodd" d="M37.5877 28.7412C37.5877 28.7412 37.9384 28.9463 37.933 29.3078C37.9276 29.6693 37.6902 29.8312 37.5229 29.8959C37.3557 29.9607 37.8683 29.9715 38.014 29.4912C38.1596 29.011 37.7496 28.7142 37.5877 28.7466V28.7412Z" fill="#241714"/>
<path fill-rule="evenodd" clip-rule="evenodd" d="M34.9923 29.561C34.9923 29.561 35.1433 29.4045 35.3268 29.5826C35.5157 29.7607 35.6721 29.9441 36.0499 29.9226C36.4276 29.901 36.5787 29.6959 36.8053 29.6312C37.0319 29.561 37.0751 29.8686 37.1992 29.8092C37.3179 29.7499 37.2208 29.329 36.9348 29.4046C36.6434 29.4801 36.4168 29.9279 36.0553 29.9279C35.6937 29.9279 35.6236 29.7715 35.4509 29.5934C35.2782 29.4153 34.8304 29.2966 34.9977 29.5664L34.9923 29.561Z" fill="#241714"/>
<path d="M36.3035 29.2484C36.4167 29.2484 36.5085 29.1855 36.5085 29.1081C36.5085 29.0306 36.4167 28.9678 36.3035 28.9678C36.1902 28.9678 36.0984 29.0306 36.0984 29.1081C36.0984 29.1855 36.1902 29.2484 36.3035 29.2484Z" fill="#855034"/>
<path fill-rule="evenodd" clip-rule="evenodd" d="M34.4311 31.9998C34.4311 31.9998 34.075 32.0375 34.0372 31.8433C33.9994 31.649 34.1181 31.7516 34.2206 31.8325C34.3232 31.9188 34.4473 31.908 34.4635 31.8541C34.4797 31.8001 34.6038 31.0987 35.2297 30.9044C35.8556 30.7156 35.9365 30.9692 36.0768 31.0231C36.2171 31.0771 36.3358 30.9961 36.4168 30.9206C36.4977 30.8451 37.0157 30.5699 37.7118 31.0663C38.4132 31.5627 38.6722 31.8973 38.7586 31.9566C38.8449 32.016 39.0176 31.9728 39.0014 31.8703C38.9852 31.7624 39.1309 31.7624 39.2172 31.8703C39.3036 31.9782 38.8827 32.0969 38.8827 32.0969C38.8827 32.0969 38.6291 33.0088 37.7765 33.5214C36.924 34.0286 35.7099 33.9801 35.2189 33.5646C34.7279 33.1491 34.5552 32.248 34.4311 31.9998V31.9998Z" fill="#94473B"/>
<path fill-rule="evenodd" clip-rule="evenodd" d="M36.2495 33.1598C36.2495 33.1598 36.7405 33.2515 37.1614 32.9763C37.5823 32.7011 37.9114 32.6472 37.9276 32.89C37.9438 33.1274 37.0967 33.3486 36.5517 33.3109C36.0067 33.2731 36.1038 33.1166 36.2549 33.1598H36.2495Z" fill="#BF6558"/>
<path fill-rule="evenodd" clip-rule="evenodd" d="M34.6901 31.9833C34.6901 31.9833 35.1002 32.0211 35.4239 32.2315C35.7477 32.4366 36.3304 32.6254 36.7459 32.4474C37.1668 32.2693 37.4474 32.1884 37.7927 32.1722C38.1381 32.156 38.4942 32.0913 38.4942 32.0913C37.96 32.1128 37.0319 31.7945 36.1955 31.7999C35.5588 31.8053 35.2459 32.0103 34.6847 31.9833H34.6901Z" fill="white"/>
<path fill-rule="evenodd" clip-rule="evenodd" d="M32.413 25.4876C32.413 25.4876 32.4454 25.5524 32.5048 25.6495C32.8879 25.4984 33.9994 25.1962 34.7818 26.2754C34.7872 26.27 34.7872 26.2646 34.7926 26.2592C34.852 26.1459 34.6901 26.0704 34.6901 26.0704C34.6901 26.0704 34.5336 25.3419 33.6433 25.1854C32.7584 25.029 32.521 25.4444 32.413 25.493V25.4876Z" fill="#ADA89F"/>
<path fill-rule="evenodd" clip-rule="evenodd" d="M32.413 25.4875C32.413 25.4875 32.6289 25.9515 33.0012 26.1458C33.3735 26.34 33.7674 26.2645 34.0858 26.2483C34.4095 26.2321 34.6523 26.3022 34.6523 26.3022C34.6523 26.3022 34.6739 26.3184 34.7009 26.3238C34.5282 26.0648 33.6487 26.313 33.1523 26.1026C32.78 25.9461 32.5587 25.6116 32.4724 25.4551C32.4508 25.4713 32.4346 25.4875 32.4184 25.4929L32.413 25.4875Z" fill="#D4926F"/>
<path fill-rule="evenodd" clip-rule="evenodd" d="M38.2784 25.9296C38.3053 25.8972 38.3269 25.8756 38.3269 25.8756C38.3269 25.8756 38.9366 25.1364 39.8054 25.0447C40.6741 24.9583 41.3972 25.4332 41.5105 25.4547C41.6238 25.4817 41.6562 25.4817 41.6292 25.4817C41.6184 25.4817 41.5536 25.5573 41.4349 25.6598C39.8755 25.0608 38.71 25.6436 38.2784 25.9296V25.9296Z" fill="#ADA89F"/>
<path fill-rule="evenodd" clip-rule="evenodd" d="M38.4456 26.1512C38.4456 26.1512 38.3755 26.2592 38.2891 26.243C38.505 25.7466 39.4277 26.3293 40.1993 26.1566C40.8252 26.0163 41.2946 25.6063 41.4727 25.4336C41.4889 25.4444 41.5051 25.4498 41.5159 25.4498C41.6292 25.4768 41.6616 25.4768 41.6346 25.4768C41.6076 25.4768 41.0033 26.2052 40.1129 26.3131C39.2226 26.421 38.7478 26.0541 38.451 26.1512H38.4456Z" fill="#D4926F"/>
<path fill-rule="evenodd" clip-rule="evenodd" d="M34.4095 25.5736C34.253 25.4063 34.0102 25.2445 33.6433 25.1797C33.476 25.1473 33.3303 25.1419 33.2062 25.1473C33.1415 25.2499 33.1037 25.3686 33.1037 25.4981C33.1037 25.8596 33.3951 26.151 33.7566 26.151C34.0911 26.151 34.3663 25.8974 34.4041 25.5736H34.4095Z" fill="#625D54"/>
<path fill-rule="evenodd" clip-rule="evenodd" d="M39.3845 25.1364C39.5194 25.0878 39.6597 25.0554 39.8108 25.0392C40.0536 25.0123 40.2856 25.0338 40.4907 25.077C40.577 25.1903 40.6256 25.3306 40.6256 25.4763C40.6256 25.8432 40.3288 26.1454 39.9565 26.1454C39.5896 26.1454 39.2874 25.8486 39.2874 25.4763C39.2874 25.3522 39.3198 25.2335 39.3791 25.1364H39.3845Z" fill="#625D54"/>
<path d="M39.9565 25.7623C40.1114 25.7623 40.2371 25.6367 40.2371 25.4818C40.2371 25.3268 40.1114 25.2012 39.9565 25.2012C39.8015 25.2012 39.6759 25.3268 39.6759 25.4818C39.6759 25.6367 39.8015 25.7623 39.9565 25.7623Z" fill="#191716"/>
<path d="M33.762 25.773C33.914 25.773 34.0372 25.6498 34.0372 25.4978C34.0372 25.3459 33.914 25.2227 33.762 25.2227C33.61 25.2227 33.4868 25.3459 33.4868 25.4978C33.4868 25.6498 33.61 25.773 33.762 25.773Z" fill="#191716"/>
<path fill-rule="evenodd" clip-rule="evenodd" d="M32.0569 25.298C32.0569 25.298 32.1864 25.4329 32.2835 25.4814C32.3807 25.53 32.4292 25.5246 32.4292 25.5246C32.4292 25.5246 32.8501 25.1091 33.6271 25.2602C34.4041 25.4113 34.6901 26.0696 34.6901 26.0696C34.6901 26.0696 34.5282 25.1091 33.6433 24.9041C32.7584 24.699 32.2727 25.3357 32.0515 25.298H32.0569Z" fill="#191716"/>
<path fill-rule="evenodd" clip-rule="evenodd" d="M38.2136 26.0267C38.2136 26.0267 38.4726 25.6167 39.1525 25.3523C39.827 25.0933 40.3234 25.0987 40.8468 25.2767C41.3702 25.4548 41.5752 25.5735 41.7965 25.4602C42.0177 25.3415 42.0231 25.1958 42.0231 25.1958C42.0231 25.1958 41.9152 25.2821 41.7749 25.2174C41.6346 25.158 39.0662 23.9331 38.219 26.0267H38.2136Z" fill="#191716"/>
<path d="M33.2818 25.7889C33.3891 25.7889 33.476 25.7019 33.476 25.5946C33.476 25.4874 33.3891 25.4004 33.2818 25.4004C33.1745 25.4004 33.0875 25.4874 33.0875 25.5946C33.0875 25.7019 33.1745 25.7889 33.2818 25.7889Z" fill="white"/>
<path d="M39.3629 25.7889C39.4702 25.7889 39.5572 25.7019 39.5572 25.5946C39.5572 25.4874 39.4702 25.4004 39.3629 25.4004C39.2556 25.4004 39.1687 25.4874 39.1687 25.5946C39.1687 25.7019 39.2556 25.7889 39.3629 25.7889Z" fill="white"/>
</g>
<defs>
<clipPath id="clip0">
<rect width="84.6667" height="211.667" fill="white"/>
</clipPath>
</defs>
</svg>
