<svg width="85" height="212" viewBox="0 0 85 212" fill="none" xmlns="http://www.w3.org/2000/svg">
<path fill-rule="evenodd" clip-rule="evenodd" d="M34.7144 34.3132C35.6443 36.2517 37.0587 41.6222 35.2892 42.4618C33.7846 43.1775 30.595 44.7103 29.2989 45.3414C28.0028 45.9726 26.78 47.5617 26.9941 50.5428C27.2139 53.5239 28.0028 56.0372 28.0028 56.0372C28.0028 56.0372 47.7207 60.985 50.6792 58.6407C53.6377 56.3021 57.3345 41.222 53.4799 40.6867C53.2883 40.6585 51.795 40.4557 51.6203 40.4331C48.2166 40.033 47.2586 40.5458 46.0188 37.8071C44.7114 34.9218 45.6244 29.9346 45.6244 29.9346C45.6244 29.9346 38.7437 34.4203 34.7144 34.3076V34.3132Z" fill="#75462D"/>
<path fill-rule="evenodd" clip-rule="evenodd" d="M48.5153 48.6494C48.5153 48.6494 47.4727 53.5239 45.9456 55.6203C44.4184 57.7166 47.9405 60.3877 48.3631 57.1869C48.7801 53.986 48.5153 48.6494 48.5153 48.6494Z" fill="#3D2A26"/>
<path fill-rule="evenodd" clip-rule="evenodd" d="M28.5663 110.941C28.5663 110.941 28.5213 113.951 29.9357 121.733C30.2006 123.204 30.5049 124.951 30.8148 126.822C32.5392 121.947 35.1709 114.785 35.9711 112.615C31.4572 111.054 28.927 110.947 28.5663 110.941ZM33.8973 148.365C35.1089 156.136 37.2785 170.873 37.0869 174.513C36.8953 178.153 33.7057 186.133 33.7057 186.133C33.7057 186.133 32.573 187.435 34.1453 188.686C35.7175 189.931 37.2898 189.948 37.2898 189.948L37.6899 189.402C37.673 189.165 37.718 189.007 37.718 189.007C37.718 189.007 37.718 189.007 38.4225 183.422C38.7324 180.949 39.1381 178.616 39.2396 176.187C39.3635 173.144 39.0987 169.948 38.6141 166.145C37.7349 159.309 35.5766 152.924 33.8973 148.365V148.365ZM45.7145 151.69C45.7765 149.695 45.5793 147.278 45.1566 144.398C44.734 141.518 42.925 138.143 42.925 138.143C42.925 138.143 43.5506 133.499 44.1028 128.242C41.1781 132.801 38.383 136.982 38.383 136.982C38.383 136.982 41.3697 140.363 43.2744 143.891C45.1792 147.419 45.4102 149.938 45.7145 151.69V151.69Z" fill="#3D2A26"/>
<path fill-rule="evenodd" clip-rule="evenodd" d="M29.0622 54.5098C29.7385 55.0339 31.3164 55.665 34.9117 55.4058C39.6115 55.0621 43.3928 53.4504 44.6664 52.8474C46.8585 43.4421 50.4594 40.9457 52.088 40.2863C52.9615 39.9313 53.3109 40.2187 53.4574 40.5456C53.4405 40.5456 48.1602 41.0696 45.3764 53.27C45.7934 54.3069 46.7401 56.454 48.2729 58.7701C50.4144 62.016 48.8196 73.4049 48.8196 73.4049C48.8196 73.4049 50.5101 77.0115 52.8037 80.697C55.0973 84.3824 60.1014 92.1817 58.5686 101.897C57.0358 111.607 51.0624 119.704 51.0624 119.704C51.0624 119.704 44.8918 116.143 38.4225 113.534C31.9532 110.925 28.5269 110.947 28.5269 110.947C28.5269 110.947 27.6196 90.9476 27.4337 84.6755C27.2082 77.0171 27.4449 74.0473 27.4731 70.8578C27.4844 69.7983 26.5489 66.5524 26.47 66.0227C26.47 66.0227 22.4126 61.475 27.9126 54.1999C27.9521 54.1379 27.9915 54.0702 28.031 54.0026C29.3046 51.9288 32.049 48.7336 31.4122 44.3775C31.3784 43.8873 32.1335 43.8027 32.1504 44.124C32.7195 48.8012 30.5274 52.1204 29.1919 54.2957C29.1468 54.3689 29.1073 54.4422 29.0622 54.5098V54.5098Z" fill="#D5C1B5"/>
<path fill-rule="evenodd" clip-rule="evenodd" d="M35.9767 112.615C34.9173 115.495 30.6289 127.149 29.5187 130.609C28.2508 134.57 28.1944 135.41 29.6765 139.473C31.1586 143.536 37.3968 156.689 38.6141 166.145C39.8313 175.595 39.1269 177.838 38.4225 183.423C37.7181 189.007 37.7181 189.007 37.7181 189.007C37.7181 189.007 37.0756 191.211 41.4486 191.537C45.8216 191.87 46.1541 189.661 46.0865 187.519C46.0188 185.378 46.464 183.017 46.9543 180.819C47.4446 178.621 47.3882 177.382 46.2724 174.367C45.1566 171.357 45.568 167.717 45.7258 161.524C45.8836 155.331 46.8078 149.408 43.9 144.021C40.9922 138.633 39.8482 137.422 39.8482 137.422C39.8482 137.422 48.3631 124.72 51.1864 119.53C50.296 119.034 41.7642 114.881 38.4225 113.534C35.0807 112.187 36.7375 112.88 35.9824 112.621L35.9767 112.615Z" fill="#75462D"/>
<path fill-rule="evenodd" clip-rule="evenodd" d="M33.7226 186.071C32.9055 186.652 31.7559 187.869 29.6201 190.281C27.4844 192.693 27.8168 193.217 28.5663 193.222C29.2707 193.222 34.5736 193.566 36.1458 192.738C36.2754 192.36 36.405 192 36.5346 191.661C36.8389 190.861 37.0869 190.32 37.2841 189.948C37.1658 189.943 35.6893 189.903 34.1453 188.686C32.6068 187.463 33.6775 186.167 33.6775 186.167L33.717 186.077L33.7226 186.071Z" fill="#BA9F8A"/>
<path fill-rule="evenodd" clip-rule="evenodd" d="M37.6899 189.306C37.487 189.543 36.7882 189.723 36.0218 191.724C35.2611 193.724 34.4834 197.984 36.405 197.849C38.3267 197.714 46.3513 195.156 46.6274 192.011C46.9036 188.861 47.6587 186.86 48.149 184.415C48.6392 181.963 49.8621 180.453 49.9297 178.779C49.9917 177.23 48.6449 175.889 46.34 174.559C47.3882 177.433 47.4333 178.667 46.9486 180.814C46.4584 183.012 46.0132 185.373 46.0808 187.514C46.1484 189.656 45.816 191.865 41.443 191.532C38.0787 191.278 37.6842 189.915 37.6842 189.301L37.6899 189.306Z" fill="#D4C1B5"/>
<path fill-rule="evenodd" clip-rule="evenodd" d="M49.5465 180.447C49.4733 180.977 49.3549 181.636 49.169 182.38C48.6223 184.589 48.8252 187.875 48.8027 188.675C48.69 188.872 47.7996 188.849 47.7996 188.714L47.8503 185.756C47.9574 185.316 48.0588 184.877 48.149 184.415C48.4758 182.786 49.1239 181.574 49.5465 180.447Z" fill="#A68C7A"/>
<path fill-rule="evenodd" clip-rule="evenodd" d="M39.696 178.21C39.696 178.21 38.4168 185.852 38.2647 187.796C38.1182 189.74 42.0121 177.664 39.696 178.21Z" fill="#855034"/>
<path fill-rule="evenodd" clip-rule="evenodd" d="M29.4229 111.353C29.4229 111.353 29.5356 114.216 30.2006 118.634C30.8655 123.052 31.3107 124.196 31.2431 123.83C31.1755 123.464 30.6683 111.725 30.6683 111.725C30.6683 111.725 30.2006 111.224 29.4173 111.353H29.4229Z" fill="#855034"/>
<path fill-rule="evenodd" clip-rule="evenodd" d="M36.715 113.528L38.4394 114.323C38.4394 114.323 35.9711 118.566 33.052 124.607C30.133 130.648 29.7892 131.336 29.7892 131.336C29.7892 131.336 31.7108 126.304 36.7206 113.528H36.715Z" fill="#855034"/>
<path fill-rule="evenodd" clip-rule="evenodd" d="M35.9767 112.615L35.5428 113.787C39.8764 114.131 48.8477 118.29 50.3636 120.972C50.6679 120.448 50.9441 119.958 51.1808 119.53C50.7018 119.265 47.1966 117.456 44.6044 116.211C42.401 115.151 39.9496 114.154 38.4168 113.534C35.0751 112.187 36.7319 112.88 35.9767 112.621V112.615Z" fill="#3D2A26"/>
<path fill-rule="evenodd" clip-rule="evenodd" d="M27.5013 90.0742C27.5013 90.0742 25.6416 99.4851 26.0361 104.495C26.4306 109.51 26.4362 108.163 27.0674 110.153C27.6985 112.136 27.9803 113.044 27.9803 113.044C27.9803 113.044 28.7523 114.143 28.7298 113.838C28.7016 113.528 28.3128 106.045 28.3128 106.045C28.3128 106.045 28.7467 107.279 29.1975 108.141C29.654 109.003 29.8737 109.189 30.1611 109.06C30.4429 108.924 30.1386 107.448 29.7948 106.456C29.4455 105.464 29.5976 104.095 29.2031 102.782C28.8087 101.469 28.2113 100.697 28.2113 100.697C27.9127 99.75 27.6872 93.7372 27.5069 90.0855L27.5013 90.0742Z" fill="#542F1B"/>
<path fill-rule="evenodd" clip-rule="evenodd" d="M56.9456 92.6494C57.4697 95.0106 57.6332 97.5521 57.1372 100.184C55.6326 108.197 49.1295 118.014 49.1295 118.014C49.1295 118.014 48.7407 117.794 48.0363 117.422C49.3775 115.41 51.7386 111.409 54.4098 104.827C56.6075 99.4174 57.0302 95.3149 56.9456 92.655V92.6494Z" fill="#B99E8A"/>
<path fill-rule="evenodd" clip-rule="evenodd" d="M49.7381 75.2588C50.4538 76.6507 51.2033 78.1215 52.4656 80.1502L52.691 80.5109C51.6316 81.1195 50.42 81.8014 47.9066 86.9858C45.3877 92.1759 45.1848 95.2697 45.5398 98.2282C45.8892 101.181 46.0357 101.068 45.7427 104.123C45.4497 107.177 44.6833 111.387 44.0972 112.198C43.5055 113.015 43.0997 113.004 43.0997 113.004C43.0997 113.004 42.8631 114.627 42.3672 115.219L42.0741 115.083C41.9614 113.9 41.4373 108.287 41.2908 107.774C41.133 107.2 40.7217 110.367 40.7217 110.367C40.7217 110.367 40.7104 110.772 40.7273 112.812C40.7329 113.675 40.7273 114.182 40.7104 114.486C40.237 114.283 39.7524 114.075 39.2621 113.872L38.9973 107.628C38.9973 107.628 38.7437 110.186 38.2928 111.792C38.09 112.525 37.8026 112.948 37.549 113.19L37.3687 113.122C37.2672 112.903 37.2165 112.66 37.2334 112.395C37.3518 110.305 37.0531 104.827 42.8743 91.0489C47.7601 79.4684 46.7458 75.6758 49.7437 75.2644L49.7381 75.2588Z" fill="#A38976"/>
<path d="M31.7108 93.7764C31.7165 93.782 32.9393 96.425 40.0567 98.3748L39.944 98.7129C32.6463 96.718 31.8968 94.2159 31.8912 94.2046L31.7108 93.7764V93.7764ZM31.7334 100.234C31.7446 100.24 36.1007 102.753 40.3497 101.716L40.4512 102.055C36.0275 103.137 32.3082 100.86 32.2969 100.854L31.7334 100.234Z" fill="#B99E8A"/>
<path fill-rule="evenodd" clip-rule="evenodd" d="M34.5679 34.6853C34.5679 34.6853 35.5203 36.5563 36.0049 38.7991C36.0444 38.9738 36.0782 39.1429 36.1064 39.3063C37.1714 39.5768 38.7944 39.6049 40.592 38.3145C42.5306 36.9282 44.2493 35.17 45.2975 34.0091C45.2468 31.8621 45.6244 29.9404 45.6244 29.9404C45.6244 29.9404 38.8451 34.8037 34.5679 34.6853V34.6853Z" fill="#542F1B"/>
<path fill-rule="evenodd" clip-rule="evenodd" d="M34.5679 34.6851C34.5679 34.6851 34.9511 35.4402 35.3569 36.5617C37.1038 37.8803 39.1494 36.8322 41.257 35.7389C43.3702 34.6457 45.1566 33.2594 45.3313 32.431C45.4159 30.9996 45.6244 29.9346 45.6244 29.9346C45.6244 29.9346 38.8451 34.7978 34.5679 34.6795V34.6851Z" fill="#3D2A26"/>
<path fill-rule="evenodd" clip-rule="evenodd" d="M30.4316 45.1895C30.0428 45.3585 29.7103 45.5163 29.4624 45.6346C28.3578 46.17 27.3153 47.5281 27.5013 50.064C27.614 51.6362 27.9183 53.0563 28.1324 53.9129C28.1324 53.9129 27.4506 50.9994 28.1944 48.2325C28.6734 46.4574 29.7329 45.5896 30.4316 45.1895Z" fill="#855034"/>
<path fill-rule="evenodd" clip-rule="evenodd" d="M37.1151 100.336C36.4839 100.99 36.0894 103.379 36.1402 105.503C36.1965 107.622 36.0049 109.567 36.0049 109.567C36.0049 109.567 37.1883 110.339 37.5095 107.842C37.6448 106.771 37.3123 104.963 37.132 103.948C36.8897 102.596 37.1094 100.342 37.1094 100.342L37.1151 100.336Z" fill="#542F1B"/>
<path fill-rule="evenodd" clip-rule="evenodd" d="M53.5419 40.6973C54.545 40.8832 55.751 41.2157 56.5568 41.7792C58.1629 42.9007 59.0983 44.4166 58.3883 48.829C57.774 52.6384 56.7315 58.5837 55.4579 63.1032C54.7761 65.5432 54.0886 68.1975 53.7279 70.1529C53.3616 72.1084 52.9164 75.3205 50.8483 80.612C48.7801 85.8979 47.0952 87.859 45.9907 90.964C44.8861 94.0691 44.8636 94.086 44.8298 94.6326C44.796 95.1792 44.9369 95.5061 44.7509 96.1823C44.5649 96.8529 44.7734 97.3995 44.9312 98.1997C45.089 98.9999 45.6413 100.392 45.2919 102.984C44.9481 105.576 44.8016 106.732 44.7002 107.639C44.5987 108.546 44.5593 110.654 44.2381 111.696C43.9169 112.733 43.359 112.564 43.2575 111.629C43.1561 110.693 43.1956 108.76 43.1392 107.56C43.0828 106.354 43.1054 105.83 43.1054 105.83C43.1054 105.83 42.6095 109.358 42.6658 110.541C42.7222 111.724 42.6771 115.196 42.0403 115.128C41.4092 115.061 41.0598 110.541 41.0372 109.707C41.0147 108.867 41.1838 106.827 41.1838 106.827C41.1838 106.827 40.9245 106.641 40.8287 107.216C40.7329 107.791 40.3328 110.71 40.3328 110.71C40.3328 110.71 40.361 113.697 40.2483 114.655C40.1356 115.613 39.8595 116.002 39.4537 115.973C39.048 115.94 38.9296 115.511 38.7888 113.849C38.6479 112.192 38.6873 110.823 38.7324 110.209C38.7775 109.589 38.8564 106.963 38.8564 106.963C38.8564 106.963 38.5464 106.641 38.4845 107.137C38.4225 107.633 38.2365 109.42 38.2365 109.42C38.2365 109.42 38.0449 111.578 37.7688 112.418C37.4983 113.257 36.8897 113.505 36.7882 112.784C36.6868 112.063 36.7488 109.837 36.7882 109.375C36.822 108.918 36.8953 105.481 36.7601 104.399C36.6192 103.317 36.5854 101.434 36.9347 100.64C38.5803 96.9487 38.7155 95.8836 39.944 92.2883C40.6315 90.2765 42.2714 86.8052 43.2801 81.4798C44.6776 74.1145 47.3375 69.5105 47.3375 69.3245C47.3375 69.0371 48.1095 49.5728 48.2673 47.5047C48.5096 44.3827 51.3667 41.103 53.5307 40.7142L53.5419 40.6973Z" fill="#75462D"/>
<path fill-rule="evenodd" clip-rule="evenodd" d="M28.9834 55.0113C29.6596 55.5353 31.2375 56.1665 34.8328 55.9073C39.5157 55.5635 43.2801 53.9631 44.5649 53.3545C43.5337 54.0476 37.4814 56.6962 33.6099 56.5553C29.5976 56.4145 28.9834 55.0113 28.9834 55.0113V55.0113Z" fill="#E0D0C4"/>
<path fill-rule="evenodd" clip-rule="evenodd" d="M30.9332 52.4531C30.9332 52.4531 31.9419 53.0336 32.5223 54.2564C32.6857 54.5945 32.7815 54.8932 32.8379 55.1524C33.0182 55.1581 33.1985 55.1581 33.3901 55.1581C33.1253 54.2001 32.4829 52.8927 30.9275 52.4531H30.9332Z" fill="#855034"/>
<path fill-rule="evenodd" clip-rule="evenodd" d="M39.7524 52.1768C39.7524 52.1768 38.7155 52.498 37.7293 53.2024C37.0531 53.687 36.467 54.5154 36.1458 55.0395C36.4107 55.0113 36.6699 54.9775 36.9291 54.9437C37.3743 54.1547 38.2759 52.8924 39.7524 52.1768Z" fill="#855034"/>
<path fill-rule="evenodd" clip-rule="evenodd" d="M34.489 55.4283C34.2523 54.6056 33.7959 53.6588 32.9506 52.791C32.9506 52.791 33.5198 53.9857 33.531 55.4621C33.8353 55.4565 34.1509 55.4509 34.4947 55.4283H34.489Z" fill="#3D2A26"/>
<path fill-rule="evenodd" clip-rule="evenodd" d="M45.1059 15.6939C48.3124 18.4665 47.963 22.0618 47.1008 24.9133C46.2386 27.7647 45.8103 29.7145 45.2975 31.2192C44.7791 32.7238 44.6551 33.0563 42.3784 34.4595C40.1018 35.8626 38.1069 36.8488 36.5854 36.2458C35.0638 35.6429 33.6043 34.8314 32.8886 33.0957C32.1729 31.36 31.6263 30.0132 31.2431 28.4748C30.8599 26.9363 31.2995 26.5475 31.2938 24.9809C31.2825 23.4143 31.1473 23.341 31.0402 21.8646C30.9782 20.9968 30.6007 19.1089 32.342 16.8323C35.1991 13.1017 41.5895 12.6565 45.1115 15.6996L45.1059 15.6939Z" fill="#75462D"/>
<path fill-rule="evenodd" clip-rule="evenodd" d="M47.1177 23.9783C47.3431 23.8599 47.6418 23.781 47.9517 23.8994C48.6111 24.1417 49.0675 25.4153 48.2391 27.0551C47.4107 28.6894 47.0275 29.4727 46.8303 29.7544C46.6443 30.0136 46.0245 30.2729 45.7483 29.6079C46.0414 28.5428 46.3795 27.2016 46.9317 24.8912C47.005 24.5812 47.067 24.2769 47.1177 23.9783V23.9783Z" fill="#75462D"/>
<path fill-rule="evenodd" clip-rule="evenodd" d="M45.8949 29.8446C45.8385 29.7826 45.7934 29.7037 45.7483 29.6023C46.0414 28.5372 46.3795 27.196 46.9317 24.8856C46.9712 24.7165 47.0106 24.5475 47.0445 24.3784C47.2135 24.3164 47.4333 24.2657 47.6925 24.277C48.4251 24.3051 48.4702 25.7365 48.2053 26.3846C47.9405 27.027 47.9405 27.027 47.9405 27.027C47.9405 27.027 48.1997 26.1873 48.1377 25.4604C48.0757 24.7334 47.4558 24.7616 47.2868 24.9419C47.1233 25.1223 46.8472 25.6182 46.9656 26.2155C47.0895 26.8128 46.9543 27.5511 46.6443 27.7483C46.3908 27.9117 45.9118 29.2135 45.8949 29.8334V29.8446Z" fill="#3D2A26"/>
<path fill-rule="evenodd" clip-rule="evenodd" d="M31.9306 23.2963C31.9306 23.2963 32.5787 22.8117 33.2324 23.1723C33.8861 23.5386 34.737 24.4797 34.9849 24.3783C35.2329 24.2769 35.1878 24.012 34.5848 23.5105C33.9819 23.0089 33.2549 22.5017 32.5956 22.7441C31.9419 22.9864 31.6207 23.471 31.9306 23.2963Z" fill="#191716"/>
<path fill-rule="evenodd" clip-rule="evenodd" d="M37.6786 24.0684C37.6786 24.0684 38.2083 24.4685 38.4788 24.1699C38.7493 23.8712 39.5326 23.0766 40.6146 22.8737C41.6966 22.6709 42.0685 23.0766 42.1812 23.2288C42.2939 23.3753 42.4404 23.2569 42.2206 22.9808C42.0009 22.7047 40.9696 22.2595 39.8595 22.6596C38.7493 23.0597 37.4025 23.612 37.673 24.0684H37.6786Z" fill="#191716"/>
<path fill-rule="evenodd" clip-rule="evenodd" d="M32.4321 24.8574C32.4321 24.8574 33.1478 24.3728 33.9311 24.6433C34.7088 24.9138 34.9849 25.4829 34.9849 25.4829C34.9849 25.4829 34.1734 23.5726 32.4321 24.8574V24.8574Z" fill="#241714"/>
<path fill-rule="evenodd" clip-rule="evenodd" d="M38.6084 25.2063C38.6084 25.2063 39.217 24.4962 40.2483 24.4849C41.2852 24.4737 41.9558 24.9301 41.9558 24.9301C41.9558 24.9301 41.3415 24.2088 40.0736 24.3215C38.8057 24.4342 38.6197 25.0654 38.6084 25.2006V25.2063Z" fill="#241714"/>
<path fill-rule="evenodd" clip-rule="evenodd" d="M32.3589 25.5331C32.3589 25.5331 32.5956 25.9952 33.0069 26.1924C33.4183 26.3897 33.8466 26.3164 34.2016 26.2939C34.5566 26.277 34.8215 26.3446 34.8215 26.3446C34.8215 26.3446 34.906 26.4122 34.9737 26.3052C35.0413 26.1924 34.861 26.1136 34.861 26.1136C34.861 26.1136 34.6863 25.3866 33.7114 25.2288C32.7365 25.071 32.4829 25.488 32.3589 25.5388V25.5331Z" fill="white"/>
<path fill-rule="evenodd" clip-rule="evenodd" d="M38.6366 26.1927C38.6366 26.1927 38.5239 26.3674 38.4112 26.2434C38.2985 26.1195 38.5239 25.911 38.5239 25.911C38.5239 25.911 39.1325 25.1671 40.0003 25.0826C40.8682 24.9924 41.5895 25.4714 41.7022 25.494C41.8149 25.5165 41.8487 25.5165 41.8205 25.5165C41.7924 25.5165 41.1894 26.2434 40.299 26.3505C39.4086 26.4576 38.9353 26.0913 38.6366 26.1927V26.1927Z" fill="white"/>
<path fill-rule="evenodd" clip-rule="evenodd" d="M35.278 24.7783C35.278 24.7783 35.6612 25.1953 35.7006 26.1421C35.7401 27.0832 35.4189 28.1764 35.4189 28.1764C35.4189 28.1764 36.5008 25.1446 35.278 24.7783Z" fill="#241714"/>
<path fill-rule="evenodd" clip-rule="evenodd" d="M35.2047 28.7061C35.2047 28.7061 34.968 28.8808 34.9004 29.2076C34.8328 29.5344 34.968 29.7768 35.1371 29.8218C35.3118 29.8669 34.613 29.3767 35.2047 28.7061V28.7061Z" fill="#241714"/>
<path fill-rule="evenodd" clip-rule="evenodd" d="M37.7744 28.7851C37.7744 28.7851 38.1238 28.9879 38.1182 29.3486C38.1125 29.7093 37.8758 29.8727 37.7068 29.9347C37.5377 30.0023 38.0505 30.0079 38.197 29.5289C38.3436 29.0499 37.9322 28.7569 37.7744 28.7851Z" fill="#241714"/>
<path fill-rule="evenodd" clip-rule="evenodd" d="M35.1822 29.6017C35.1822 29.6017 35.3287 29.4496 35.5203 29.6243C35.7063 29.7989 35.864 29.9905 36.2416 29.9624C36.6192 29.9398 36.7713 29.737 36.9967 29.6693C37.2278 29.6017 37.2672 29.906 37.3912 29.844C37.5152 29.782 37.4137 29.365 37.1263 29.4383C36.8389 29.5115 36.6079 29.9624 36.2472 29.9624C35.8809 29.9624 35.8133 29.8046 35.6386 29.6243C35.4639 29.4496 35.0187 29.3256 35.1878 29.5961L35.1822 29.6017Z" fill="#241714"/>
<path d="M36.4896 29.2861C36.6016 29.2861 36.6924 29.2256 36.6924 29.1509C36.6924 29.0762 36.6016 29.0156 36.4896 29.0156C36.3775 29.0156 36.2867 29.0762 36.2867 29.1509C36.2867 29.2256 36.3775 29.2861 36.4896 29.2861Z" fill="#855034"/>
<path fill-rule="evenodd" clip-rule="evenodd" d="M34.6186 32.0416C34.6186 32.0416 34.2636 32.0811 34.2298 31.8838C34.1904 31.6866 34.3087 31.788 34.4101 31.8726C34.5116 31.9571 34.6412 31.9458 34.6525 31.8951C34.6637 31.8444 34.7933 31.14 35.4189 30.9484C36.0444 30.7568 36.1289 31.016 36.2698 31.0723C36.4107 31.1287 36.529 31.0442 36.6079 30.9709C36.6868 30.8977 37.2052 30.6215 37.904 31.1174C38.6028 31.6133 38.8676 31.9458 38.9465 32.0078C39.0311 32.0698 39.2058 32.0247 39.1889 31.9176C39.1776 31.8106 39.3185 31.8106 39.403 31.9176C39.4875 32.0247 39.0649 32.1431 39.0649 32.1431C39.0649 32.1431 38.8113 33.056 37.9604 33.5688C37.1038 34.076 35.8922 34.0252 35.4019 33.6082C34.9117 33.1912 34.737 32.2896 34.613 32.0416H34.6186Z" fill="#94473B"/>
<path fill-rule="evenodd" clip-rule="evenodd" d="M36.4388 33.2026C36.4388 33.2026 36.9291 33.2984 37.3461 33.0222C37.7688 32.7461 38.0956 32.6954 38.1125 32.9321C38.1238 33.1688 37.2841 33.3885 36.7375 33.3547C36.1909 33.3153 36.2923 33.1575 36.4388 33.2082V33.2026Z" fill="#BF6558"/>
<path fill-rule="evenodd" clip-rule="evenodd" d="M34.8779 32.0249C34.8779 32.0249 35.2892 32.0644 35.6105 32.2729C35.9317 32.4814 36.5177 32.6673 36.9347 32.487C37.3518 32.3067 37.6392 32.2278 37.9829 32.2109C38.3323 32.194 38.6873 32.132 38.6873 32.132C38.152 32.1545 37.2278 31.8333 36.3881 31.8389C35.7513 31.8446 35.4358 32.0531 34.8722 32.0249H34.8779Z" fill="white"/>
<path fill-rule="evenodd" clip-rule="evenodd" d="M32.3589 25.5328C32.3589 25.5328 32.5956 25.9949 33.0069 26.1922C33.4183 26.3894 33.8466 26.3161 34.2016 26.2936C34.5566 26.2767 34.8215 26.3443 34.8215 26.3443C34.8215 26.3443 34.844 26.3612 34.8722 26.3669C34.6863 26.1076 33.717 26.3556 33.1704 26.1471C32.759 25.9893 32.5223 25.6568 32.4265 25.499C32.404 25.5159 32.3814 25.5328 32.3645 25.5385L32.3589 25.5328Z" fill="#D4926F"/>
<path fill-rule="evenodd" clip-rule="evenodd" d="M38.6366 26.1925C38.6366 26.1925 38.5633 26.2995 38.4788 26.2883C38.6986 25.7924 39.6171 26.3728 40.3892 26.2037C41.0147 26.0629 41.4881 25.6515 41.6628 25.4824C41.6797 25.4881 41.6966 25.4937 41.7078 25.4993C41.8205 25.5219 41.8544 25.5219 41.8262 25.5219C41.798 25.5219 41.195 26.2488 40.3046 26.3559C39.4143 26.463 38.9409 26.0967 38.6422 26.1981L38.6366 26.1925Z" fill="#D4926F"/>
<path fill-rule="evenodd" clip-rule="evenodd" d="M38.4675 25.9673C38.4957 25.9335 38.5183 25.911 38.5183 25.911C38.5183 25.911 39.1269 25.1671 39.9947 25.0826C40.8625 24.9924 41.5839 25.4714 41.6966 25.494C41.8093 25.5165 41.8431 25.5165 41.8149 25.5165C41.8036 25.5165 41.736 25.5898 41.6233 25.6968C40.0623 25.0938 38.9015 25.6799 38.4675 25.9673V25.9673Z" fill="#ADA89F"/>
<path fill-rule="evenodd" clip-rule="evenodd" d="M32.3702 25.5329C32.3702 25.5329 32.404 25.6005 32.4716 25.6907C32.8886 25.5442 34.1171 25.2342 34.9737 26.3162C34.9793 26.3106 34.9793 26.3049 34.9849 26.2993C35.0526 26.1866 34.8722 26.1077 34.8722 26.1077C34.8722 26.1077 34.6975 25.3807 33.7226 25.223C32.7477 25.0652 32.4941 25.4822 32.3702 25.5329V25.5329Z" fill="#ADA89F"/>
<path fill-rule="evenodd" clip-rule="evenodd" d="M34.551 25.6182C34.3876 25.4491 34.1396 25.2913 33.7677 25.2237C33.5987 25.1955 33.4465 25.1843 33.3225 25.1899C33.2549 25.2913 33.2155 25.4097 33.2155 25.5393C33.2155 25.8999 33.5141 26.193 33.8861 26.193C34.2298 26.193 34.5116 25.9394 34.551 25.6182V25.6182Z" fill="#625D54"/>
<path fill-rule="evenodd" clip-rule="evenodd" d="M39.5777 25.1782C39.7129 25.1331 39.8538 25.0993 40.0003 25.0824C40.2427 25.0598 40.4737 25.0767 40.6822 25.1162C40.7667 25.2289 40.8175 25.3698 40.8175 25.5163C40.8175 25.8826 40.5188 26.1812 40.1525 26.1812C39.7862 26.1812 39.4875 25.8826 39.4875 25.5163C39.4875 25.3923 39.5213 25.274 39.5833 25.1782H39.5777Z" fill="#625D54"/>
<path d="M40.1469 25.8038C40.3025 25.8038 40.4286 25.6776 40.4286 25.522C40.4286 25.3664 40.3025 25.2402 40.1469 25.2402C39.9912 25.2402 39.8651 25.3664 39.8651 25.522C39.8651 25.6776 39.9912 25.8038 40.1469 25.8038Z" fill="#191716"/>
<path d="M33.8635 25.815C34.0129 25.815 34.134 25.6913 34.134 25.5388C34.134 25.3863 34.0129 25.2627 33.8635 25.2627C33.7141 25.2627 33.593 25.3863 33.593 25.5388C33.593 25.6913 33.7141 25.815 33.8635 25.815Z" fill="#191716"/>
<path fill-rule="evenodd" clip-rule="evenodd" d="M31.9644 25.3413C31.9644 25.3413 32.1053 25.4765 32.218 25.5216C32.3251 25.5667 32.3758 25.561 32.3758 25.561C32.3758 25.561 32.8379 25.144 33.6945 25.2962C34.551 25.4483 34.861 26.1077 34.861 26.1077C34.861 26.1077 34.6863 25.1497 33.7114 24.9412C32.7365 24.7327 32.2067 25.3751 31.9644 25.3356V25.3413Z" fill="#191716"/>
<path fill-rule="evenodd" clip-rule="evenodd" d="M38.4056 26.0687C38.4056 26.0687 38.6648 25.6573 39.341 25.3925C40.0172 25.1333 40.5132 25.1389 41.0372 25.3192C41.5613 25.4939 41.7642 25.6179 41.984 25.4996C42.2037 25.3812 42.215 25.2347 42.215 25.2347C42.215 25.2347 42.1079 25.3192 41.9671 25.2572C41.8262 25.1952 39.2565 23.9724 38.4112 26.0687H38.4056Z" fill="#191716"/>
<path d="M33.469 25.8266C33.5749 25.8266 33.6606 25.7408 33.6606 25.635C33.6606 25.5291 33.5749 25.4434 33.469 25.4434C33.3632 25.4434 33.2774 25.5291 33.2774 25.635C33.2774 25.7408 33.3632 25.8266 33.469 25.8266Z" fill="white"/>
<path d="M39.5495 25.8266C39.6553 25.8266 39.7411 25.7408 39.7411 25.635C39.7411 25.5291 39.6553 25.4434 39.5495 25.4434C39.4437 25.4434 39.3579 25.5291 39.3579 25.635C39.3579 25.7408 39.4437 25.8266 39.5495 25.8266Z" fill="white"/>
</svg>
