<svg width="85" height="212" viewBox="0 0 85 212" fill="none" xmlns="http://www.w3.org/2000/svg">
<path fill-rule="evenodd" clip-rule="evenodd" d="M36.1255 34.9224C36.1255 34.9224 36.9268 36.7922 37.3374 39.0329C37.7479 41.2737 37.3077 42.4015 35.7495 43.1485C34.1963 43.9003 31.9852 44.9292 30.8228 45.5574C29.6653 46.1856 27.9488 47.4915 28.1467 50.4644C28.3396 53.4372 29.6653 56.2419 29.6653 56.2419C29.6653 56.2419 47.3046 61.1786 49.951 58.8438C52.5974 56.509 55.9066 41.4518 52.4589 40.9176C52.2907 40.8928 50.9502 40.6851 50.7919 40.6653C49.9164 40.5664 46.8941 40.7791 45.7811 38.0436C44.6137 35.1648 45.4299 30.1836 45.4299 30.1836C45.4299 30.1836 39.7265 35.0411 36.1255 34.9224V34.9224Z" fill="#75462D"/>
<path fill-rule="evenodd" clip-rule="evenodd" d="M48.0219 48.8663C48.0219 48.8663 47.0919 53.7337 45.7217 55.826C44.3565 57.9184 47.5074 60.5896 47.8834 57.3891C48.2593 54.1937 48.0219 48.8613 48.0219 48.8613V48.8663Z" fill="#3D2A26"/>
<path fill-rule="evenodd" clip-rule="evenodd" d="M29.8483 111.069C29.8483 111.069 29.6356 113.958 30.3875 118.578C31.1394 123.198 31.911 125.058 32.188 126.923C33.7313 122.056 36.0859 114.908 36.8031 112.736C32.7668 111.178 30.1748 111.074 29.8533 111.064L29.8483 111.069ZM35.794 152.467C36.8773 160.223 38.3959 171.739 38.2574 174.593C38.0497 179.005 34.9531 186.464 34.9531 186.464C34.9531 186.464 33.761 187.449 35.1658 188.69C36.5706 189.937 37.9804 189.952 37.9804 189.952L38.3415 189.408C38.3267 189.17 38.3662 189.012 38.3662 189.012C38.3662 189.012 38.3662 189.012 38.9944 183.432C39.6227 177.853 40.2509 175.617 39.1626 166.179C38.6779 161.964 37.2928 157.008 35.794 152.457V152.467ZM45.0638 150.285C45.1182 148.292 45.3359 146.828 44.8363 143.815C44.3416 140.808 43.0902 140.061 42.3432 137.281C41.5914 134.501 45.2617 129.446 45.1825 125.212C44.8808 124.316 37.4858 134.224 38.4998 137.004C39.5138 139.784 41.6359 140.447 43.3375 143.969C45.0391 147.491 44.7918 148.529 45.0638 150.285V150.285Z" fill="#542F1B"/>
<path fill-rule="evenodd" clip-rule="evenodd" d="M30.615 54.7139C31.2234 55.2333 32.6283 55.8714 35.8484 55.6092C40.053 55.2679 43.4364 53.6553 44.5741 53.0519C46.5379 43.6584 49.7581 41.1653 51.2124 40.5075C51.9939 40.1562 52.3056 40.4431 52.4391 40.7696C52.4243 40.7696 47.7003 41.294 45.2073 53.4773C45.5783 54.5111 46.4291 56.6529 47.7993 58.9679C49.7185 62.2079 48.289 73.58 48.289 73.58C48.289 73.58 49.8026 77.181 51.8554 80.8613C53.9082 84.5415 58.2266 92.1097 56.8168 100.489C55.407 108.864 49.3178 119.118 49.3178 119.118C49.3178 119.118 44.7769 116.254 38.9895 113.652C33.2021 111.05 29.8533 111.07 29.8533 111.07C29.8533 111.07 29.7197 109.081 29.6752 106.375C29.5664 99.94 29.5861 88.6075 30.4617 84.309C31.1591 80.8662 31.3026 79.5504 31.3372 77.0722C31.3817 73.8421 30.3281 74.6583 29.9324 71.2749C29.4031 66.729 29.1657 66.081 29.1657 66.081C29.1657 66.081 25.0897 61.6291 30.0115 54.3577C30.0462 54.2934 30.0808 54.2291 30.1154 54.1599C31.2531 52.0922 33.2861 48.9413 32.7173 44.5933C32.6827 44.1036 33.3603 44.0195 33.3801 44.341C33.8896 49.0105 31.9258 52.3297 30.7337 54.5012C30.6942 54.5754 30.6546 54.6446 30.62 54.7139H30.615Z" fill="#D5C1B5"/>
<path fill-rule="evenodd" clip-rule="evenodd" d="M36.7982 112.741C33.8204 116.1 32.0149 127.254 31.0206 130.707C29.8829 134.659 29.8384 135.5 31.1641 139.556C31.7725 141.411 32.9844 145.482 34.5327 149.914C36.3728 155.173 38.569 161.069 39.1626 166.188C40.2509 175.626 39.6227 177.862 38.9944 183.442C38.3662 189.022 38.3662 189.022 38.3662 189.022C38.3662 189.022 37.7924 191.218 41.7002 191.549C45.608 191.881 45.9097 189.675 45.8454 187.538C45.786 185.401 46.1818 183.041 46.622 180.845C47.0622 178.649 47.0128 177.412 46.0136 174.405C45.0144 171.397 45.2568 169.597 45.7415 162.108C46.2263 154.619 47.5371 149.489 44.9352 144.463C42.3333 139.438 39.9541 139.586 38.9598 137.073C37.9656 134.56 46.7407 126.958 49.1744 119.038C48.378 118.543 44.1834 115.996 38.9845 113.656C38.2079 113.305 37.4759 113.003 36.7982 112.741V112.741Z" fill="#75462D"/>
<path fill-rule="evenodd" clip-rule="evenodd" d="M34.9878 186.38C34.2557 186.959 32.7173 188.274 31.1146 190.293C28.8936 193.087 29.502 193.226 30.1748 193.231C30.8079 193.231 35.5467 193.572 36.9565 192.746C37.0702 192.37 37.189 192.009 37.3027 191.668C37.5748 190.871 37.7974 190.327 37.9705 189.956C37.8617 189.951 36.5113 189.887 35.1658 188.695C33.761 187.448 34.9531 186.469 34.9531 186.469L34.9878 186.38V186.38Z" fill="#BA9F8A"/>
<path fill-rule="evenodd" clip-rule="evenodd" d="M38.3316 189.319C38.1535 189.556 37.8172 190.15 37.2978 191.668C36.4519 194.146 35.4626 197.98 37.184 197.851C38.9054 197.718 46.0828 195.165 46.3301 192.019C46.5775 188.878 47.2552 186.875 47.6904 184.431C48.1307 181.988 49.2239 180.479 49.2832 178.807C49.3376 177.264 48.1356 175.918 46.0729 174.593C47.0128 177.462 47.0523 178.693 46.622 180.84C46.1818 183.037 45.7811 185.391 45.8454 187.533C45.9047 189.67 45.608 191.876 41.7002 191.545C38.6878 191.292 38.3366 189.927 38.3366 189.314L38.3316 189.319Z" fill="#D4C1B5"/>
<path fill-rule="evenodd" clip-rule="evenodd" d="M48.9419 180.474C48.8776 181.003 48.7688 181.661 48.6056 182.408C48.1208 184.614 48.2989 187.893 48.2791 188.69C48.1801 188.888 47.3788 188.863 47.3838 188.724L47.4283 185.771C47.5223 185.336 47.6113 184.891 47.6954 184.431C47.9872 182.803 48.5709 181.592 48.9419 180.474Z" fill="#A68C7A"/>
<path fill-rule="evenodd" clip-rule="evenodd" d="M40.1272 178.238C40.1272 178.238 38.9796 185.865 38.846 187.809C38.7125 189.749 42.1998 177.689 40.1272 178.238Z" fill="#855034"/>
<path fill-rule="evenodd" clip-rule="evenodd" d="M30.9415 111.48C30.9415 111.48 31.0454 114.339 31.639 118.752C32.2325 123.159 32.6332 124.307 32.5689 123.94C32.5095 123.574 32.0545 111.851 32.0545 111.851C32.0545 111.851 31.634 111.352 30.9365 111.48H30.9415Z" fill="#75462D"/>
<path fill-rule="evenodd" clip-rule="evenodd" d="M37.3522 113.958L39.0043 114.443C39.0043 114.443 36.7932 118.682 34.1815 124.712C31.5697 130.747 31.263 131.429 31.263 131.429C33.5681 125.493 34.4189 117.505 37.3522 113.958Z" fill="#855034"/>
<path fill-rule="evenodd" clip-rule="evenodd" d="M36.7982 112.741L36.0463 113.785C40.3448 114.062 47.3096 117.802 48.6649 120.478C48.8776 119.938 49.031 119.469 49.1695 119.033C48.3731 118.539 44.1784 115.991 38.9796 113.651C38.203 113.3 37.4709 112.998 36.7932 112.736L36.7982 112.741Z" fill="#542F1B"/>
<path fill-rule="evenodd" clip-rule="evenodd" d="M29.9176 90.0615C29.9176 90.0615 27.4047 99.6281 27.6817 104.634C27.9538 109.64 27.9835 108.299 28.5177 110.283C29.0519 112.266 29.2893 113.167 29.2893 113.167C29.2893 113.167 29.967 114.265 29.9472 113.958C29.9275 113.652 29.695 106.177 29.695 106.177C29.695 106.177 30.061 107.409 30.4567 108.27C30.8525 109.13 31.0454 109.318 31.3026 109.185C31.5598 109.051 31.3075 107.572 31.0157 106.583C30.7189 105.589 30.8722 104.223 30.5408 102.913C30.2094 101.602 29.6851 100.83 29.6851 100.83C29.7543 96.6305 29.7444 94.7212 29.9176 90.0615Z" fill="#542F1B"/>
<path fill-rule="evenodd" clip-rule="evenodd" d="M55.5554 92.8018C56.0204 95.1563 56.1688 97.6988 55.7286 100.325C54.3831 108.329 48.561 118.128 48.561 118.128C48.561 118.128 48.2098 117.91 47.5866 117.534C48.7836 115.526 50.8958 111.529 53.2899 104.955C55.2586 99.5538 55.6346 95.458 55.5554 92.8018V92.8018Z" fill="#B99E8A"/>
<path fill-rule="evenodd" clip-rule="evenodd" d="M49.115 75.4395C49.7581 76.8294 50.3072 78.0809 51.4399 80.1139L51.5784 80.3613C50.6287 80.9697 49.7284 81.9788 47.4777 87.1578C45.2271 92.3368 45.044 95.4333 45.3557 98.3815C45.6673 101.33 45.7959 101.216 45.5387 104.268C45.2765 107.315 44.5939 111.519 44.0646 112.331C43.5354 113.142 43.1743 113.132 43.1743 113.132C43.1743 113.132 42.9616 114.754 42.5213 115.343L42.2592 115.21C42.1602 114.027 41.6903 108.423 41.5617 107.908C41.4182 107.335 41.0522 110.5 41.0522 110.5C41.0522 110.5 41.0423 110.906 41.0571 112.944C41.0621 113.805 41.0571 114.314 41.0423 114.616C40.6219 114.413 40.1866 114.205 39.7463 114.003L39.5089 107.77C39.5089 107.77 39.2813 110.322 38.8807 111.925C38.6976 112.657 38.4404 113.078 38.2178 113.32L38.0546 113.251C37.9656 113.033 37.9161 112.791 37.9309 112.524C38.0348 110.436 37.7726 104.965 42.9764 91.209C47.3491 79.649 46.439 75.8599 49.12 75.4444L49.115 75.4395Z" fill="#A38976"/>
<path d="M32.9894 93.9248C32.9943 93.9347 34.0875 96.5712 40.4537 98.5152L40.3498 98.8515C33.8253 96.8581 33.1526 94.3601 33.1476 94.3502L32.9844 93.9248H32.9894ZM33.0091 100.37C33.019 100.375 36.9119 102.888 40.7158 101.849L40.8098 102.19C36.8526 103.269 33.5236 100.998 33.5137 100.988L33.0091 100.37Z" fill="#B99E8A"/>
<path fill-rule="evenodd" clip-rule="evenodd" d="M36.1255 34.9224C36.1255 34.9224 36.9268 36.7922 37.3374 39.0329C37.372 39.211 37.3967 39.3792 37.4264 39.5375C38.3217 39.8046 39.687 39.8392 41.2006 38.5482C42.828 37.1631 44.2773 35.4071 45.1578 34.2496C45.1182 32.1028 45.4299 30.1836 45.4299 30.1836C45.4299 30.1836 39.7265 35.0411 36.1255 34.9224Z" fill="#542F1B"/>
<path fill-rule="evenodd" clip-rule="evenodd" d="M36.1255 34.9224C36.1255 34.9224 36.447 35.6742 36.7883 36.7971C38.8164 37.5638 40.1223 36.718 42.3086 35.3725C43.6739 34.5316 44.589 33.5324 45.1826 32.6766C45.2567 31.2471 45.4299 30.1836 45.4299 30.1836C45.4299 30.1836 39.7265 35.0411 36.1255 34.9224V34.9224Z" fill="#3D2A26"/>
<path fill-rule="evenodd" clip-rule="evenodd" d="M31.1344 45.7402C30.7881 45.9134 30.4864 46.0667 30.2688 46.1854C29.2795 46.7196 28.3495 48.075 28.5127 50.6076C28.6166 52.1757 28.8837 53.5953 29.0766 54.4511C29.0766 54.4511 28.4682 51.5425 29.1311 48.7774C29.5565 47.0065 30.5062 46.136 31.1344 45.7402Z" fill="#855034"/>
<path fill-rule="evenodd" clip-rule="evenodd" d="M37.8172 100.474C37.2533 101.127 36.9021 103.511 36.9466 105.633C36.996 107.75 36.8279 109.689 36.8279 109.689C36.8279 109.689 37.8914 110.456 38.1733 107.968C38.297 106.899 38.0002 105.094 37.837 104.075C37.6193 102.729 37.8172 100.469 37.8172 100.469V100.474Z" fill="#542F1B"/>
<path fill-rule="evenodd" clip-rule="evenodd" d="M52.5183 40.9277C53.4136 41.1157 54.4969 41.4422 55.2191 42.0061C56.6585 43.124 57.8704 44.2914 57.074 48.3277C56.2826 52.3641 55.7038 50.6378 55.6494 55.149C55.5999 59.4228 55.2042 60.6496 54.4227 63.1278C53.6411 65.601 52.3649 68.5591 52.0384 70.508C51.712 72.4619 51.6625 75.4199 49.8175 80.6978C47.9674 85.9758 46.7555 88.0237 45.7662 91.1202C44.7769 94.2167 44.7572 94.2365 44.7275 94.7806C44.6978 95.3297 44.8264 95.6562 44.6582 96.3289C44.49 97.0016 44.678 97.5408 44.8215 98.3421C44.9649 99.1435 45.4546 100.528 45.1479 103.116C44.8363 105.703 44.7077 106.86 44.6186 107.765C44.5247 108.67 44.495 110.778 44.2081 111.816C43.9212 112.85 43.4216 112.682 43.3325 111.747C43.2386 110.812 43.2781 108.883 43.2287 107.681C43.1792 106.479 43.199 105.955 43.199 105.955C43.199 105.955 42.7588 109.477 42.8082 110.659C42.8577 111.841 42.8181 115.304 42.2493 115.235C41.6804 115.165 41.3737 110.659 41.3539 109.818C41.3342 108.982 41.4875 106.939 41.4875 106.939C41.4875 106.939 41.255 106.751 41.166 107.325C41.0769 107.899 40.7208 110.817 40.7208 110.817C40.7208 110.817 40.7455 113.8 40.6466 114.755C40.5477 115.714 40.3003 116.1 39.9343 116.07C39.5682 116.041 39.4693 115.606 39.3407 113.953C39.2121 112.296 39.2467 110.936 39.2863 110.318C39.3259 109.699 39.4001 107.078 39.4001 107.078C39.4001 107.078 39.1231 106.756 39.0686 107.256C39.0142 107.75 38.846 109.531 38.846 109.531C38.846 109.531 38.6729 111.688 38.4305 112.524C38.1882 113.36 37.644 113.607 37.555 112.89C37.461 112.173 37.5204 109.947 37.555 109.487C37.5896 109.032 37.6539 105.599 37.5303 104.52C37.4066 103.442 37.372 101.557 37.6886 100.766C39.1577 97.0808 39.2813 96.0172 40.3795 92.4261C40.9928 90.4178 42.3531 85.5207 42.7884 79.6294C43.3375 72.2541 46.5082 69.4593 46.5527 69.2763C47.1018 66.8476 46.2856 64.2754 46.4983 58.6165C46.6715 53.9767 48.6006 53.1803 47.824 47.7094C48.0416 44.5882 50.599 41.3136 52.5331 40.9277H52.5183Z" fill="#75462D"/>
<path fill-rule="evenodd" clip-rule="evenodd" d="M30.5458 55.2176C31.1542 55.737 32.559 56.3751 35.7792 56.1129C39.964 55.7716 43.3375 54.1739 44.49 53.5654C43.57 54.2579 38.1486 56.8994 34.686 56.7609C31.0948 56.6174 30.5458 55.2176 30.5458 55.2176V55.2176Z" fill="#E0D0C4"/>
<path fill-rule="evenodd" clip-rule="evenodd" d="M32.2869 52.666C32.2869 52.666 33.1872 53.2448 33.7115 54.4715C33.855 54.8079 33.944 55.1096 33.9935 55.3668C34.1518 55.3718 34.32 55.3718 34.4882 55.3718C34.2507 54.4121 33.6769 53.1112 32.2869 52.671V52.666Z" fill="#855034"/>
<path fill-rule="evenodd" clip-rule="evenodd" d="M40.1767 52.3887C40.1767 52.3887 39.2467 52.7102 38.3662 53.4126C37.7578 53.8974 37.2384 54.7234 36.9466 55.2478C37.184 55.2181 37.4165 55.1884 37.649 55.1538C38.0497 54.3673 38.8559 53.1059 40.1767 52.3887V52.3887Z" fill="#855034"/>
<path fill-rule="evenodd" clip-rule="evenodd" d="M35.4676 55.6385C35.2549 54.8173 34.8493 53.8725 34.0875 53.002C34.0875 53.002 34.597 54.1941 34.6069 55.6681C34.8789 55.6632 35.1609 55.6533 35.4676 55.6335V55.6385Z" fill="#3D2A26"/>
<path fill-rule="evenodd" clip-rule="evenodd" d="M36.1255 34.9224C36.1255 34.9224 36.447 35.6742 36.7883 36.7971C38.8164 37.5638 40.1223 36.718 42.3086 35.3725C43.6739 34.5316 44.589 33.5324 45.1826 32.6766C45.2567 31.2471 45.4299 30.1836 45.4299 30.1836C45.4299 30.1836 39.7265 35.0411 36.1255 34.9224V34.9224Z" fill="#3D2A26"/>
<path fill-rule="evenodd" clip-rule="evenodd" d="M45.5783 15.6901C48.6847 18.4602 48.3434 22.0563 47.5124 24.9105C46.6764 27.7646 46.1372 29.7135 45.6624 31.2321C45.1825 32.7507 45.0886 33.0327 42.8874 34.4325C40.6862 35.8324 38.8065 36.8415 37.3324 36.238C35.8583 35.6345 34.5574 34.8332 33.8649 33.097C33.1674 31.3607 32.8607 29.8817 32.3216 28.4027C31.7824 26.9286 32.2523 26.5428 32.2424 24.9748C32.2325 23.4067 32.0644 23.3375 31.9605 21.8584C31.9011 20.9879 31.5351 19.1032 33.2218 16.8278C35.987 13.0981 42.1751 12.648 45.5832 15.6951L45.5783 15.6901Z" fill="#75462D"/>
<path fill-rule="evenodd" clip-rule="evenodd" d="M47.5074 23.9758C47.73 23.857 48.0268 23.7779 48.3434 23.8966C49.0013 24.139 49.4613 25.4152 48.6303 27.0525C47.7993 28.6898 47.4184 29.4714 47.2255 29.7533C47.0424 30.0155 46.4192 30.2727 46.1422 29.6099C46.439 28.5414 46.7704 27.2058 47.3244 24.8958C47.3986 24.5891 47.458 24.2824 47.5074 23.9857V23.9758Z" fill="#75462D"/>
<path fill-rule="evenodd" clip-rule="evenodd" d="M46.2856 29.8425C46.2312 29.7832 46.1817 29.704 46.1422 29.6001C46.439 28.5317 46.7704 27.1961 47.3244 24.8861C47.364 24.7179 47.4035 24.5497 47.4332 24.3816C47.6014 24.3173 47.8191 24.2727 48.0812 24.2826C48.8182 24.3123 48.8578 25.7419 48.5957 26.3898C48.3335 27.0329 48.3335 27.0329 48.3335 27.0329C48.3335 27.0329 48.5907 26.1969 48.5314 25.4698C48.472 24.7427 47.8487 24.7674 47.6805 24.9504C47.5173 25.1334 47.2403 25.6281 47.359 26.2217C47.4827 26.8152 47.3491 27.5572 47.0375 27.7551C46.7852 27.9183 46.3054 29.2193 46.2856 29.8425V29.8425Z" fill="#542F1B"/>
<path fill-rule="evenodd" clip-rule="evenodd" d="M32.6085 23.2983C32.6085 23.2983 33.1971 22.8135 33.7956 23.1746C34.3942 23.5407 35.1658 24.4805 35.3934 24.3766C35.616 24.2728 35.5813 24.0106 35.0273 23.511C34.4783 23.0065 33.8154 22.5019 33.2169 22.7443C32.6184 22.9867 32.3315 23.4714 32.6085 23.2934V23.2983Z" fill="#191716"/>
<path fill-rule="evenodd" clip-rule="evenodd" d="M38.0645 24.0696C38.0645 24.0696 38.5987 24.4703 38.8658 24.1735C39.1379 23.8767 39.9194 23.0803 41.0027 22.8775C42.086 22.6698 42.457 23.0853 42.5708 23.2337C42.6846 23.3821 42.8329 23.2633 42.6104 22.9863C42.3927 22.7093 41.3589 22.2641 40.2509 22.6648C39.1379 23.0655 37.7924 23.6145 38.0645 24.0746V24.0696Z" fill="#191716"/>
<path fill-rule="evenodd" clip-rule="evenodd" d="M33.0635 24.8564C33.0635 24.8564 33.7165 24.3717 34.4238 24.6437C35.1312 24.9158 35.3835 25.4846 35.3835 25.4846C35.3835 25.4846 34.6464 23.5703 33.0586 24.8614L33.0635 24.8564Z" fill="#241714"/>
<path fill-rule="evenodd" clip-rule="evenodd" d="M38.9994 25.2071C38.9994 25.2071 39.6078 24.4997 40.6416 24.4898C41.6755 24.4799 42.3482 24.94 42.3482 24.94C42.3482 24.94 41.7299 24.2227 40.4636 24.3316C39.1923 24.4453 39.0093 25.0785 38.9994 25.2071Z" fill="#241714"/>
<path fill-rule="evenodd" clip-rule="evenodd" d="M32.9943 25.5287C32.9943 25.5287 33.207 25.9887 33.5829 26.1865C33.9539 26.3844 34.3496 26.3102 34.6712 26.2904C34.9927 26.2706 35.2351 26.3399 35.2351 26.3399C35.2351 26.3399 35.3142 26.4091 35.3736 26.3003C35.4329 26.1865 35.2697 26.1074 35.2697 26.1074C35.2697 26.1074 35.1114 25.3803 34.226 25.222C33.3406 25.0637 33.1081 25.4841 32.9943 25.5287V25.5287Z" fill="white"/>
<path fill-rule="evenodd" clip-rule="evenodd" d="M39.0241 26.1963C39.0241 26.1963 38.9104 26.3695 38.7966 26.2458C38.6828 26.1221 38.9104 25.9144 38.9104 25.9144C38.9104 25.9144 39.5237 25.1724 40.3894 25.0834C41.255 24.9943 41.9821 25.4692 42.091 25.4939C42.2047 25.5187 42.2344 25.5187 42.2097 25.5187C42.18 25.5187 41.5815 26.2458 40.6911 26.3546C39.8007 26.4635 39.3259 26.0974 39.0291 26.1963H39.0241Z" fill="white"/>
<path fill-rule="evenodd" clip-rule="evenodd" d="M35.6704 24.7823C35.6704 24.7823 36.0513 25.2027 36.0908 26.1426C36.1304 27.0874 35.8089 28.1756 35.8089 28.1756C35.8089 28.1756 36.8922 25.1434 35.6704 24.7773V24.7823Z" fill="#241714"/>
<path fill-rule="evenodd" clip-rule="evenodd" d="M35.5962 28.709C35.5962 28.709 35.3587 28.8821 35.2944 29.2086C35.2301 29.5351 35.3587 29.7774 35.5319 29.8269C35.705 29.8714 35.0075 29.3768 35.5962 28.7139V28.709Z" fill="#241714"/>
<path fill-rule="evenodd" clip-rule="evenodd" d="M38.1684 28.7833C38.1684 28.7833 38.5196 28.9861 38.5146 29.3472C38.5097 29.7083 38.2723 29.8715 38.1041 29.9358C37.9359 30.0001 38.4503 30.01 38.5938 29.5302C38.7372 29.0504 38.3267 28.7536 38.1684 28.7833Z" fill="#241714"/>
<path fill-rule="evenodd" clip-rule="evenodd" d="M35.5714 29.6045C35.5714 29.6045 35.7198 29.4511 35.9078 29.6292C36.0958 29.8073 36.2541 29.9952 36.63 29.9705C37.0059 29.9458 37.1593 29.7479 37.3868 29.6787C37.6144 29.6094 37.6589 29.9161 37.7776 29.8567C37.9013 29.7974 37.8023 29.3769 37.5105 29.4511C37.2236 29.5253 36.9911 29.9755 36.63 29.9755C36.264 29.9755 36.1947 29.8172 36.0216 29.6391C35.8484 29.461 35.4033 29.3423 35.5714 29.6094V29.6045Z" fill="#241714"/>
<path d="M36.8823 29.2877C36.9943 29.2877 37.0851 29.2257 37.0851 29.1492C37.0851 29.0728 36.9943 29.0107 36.8823 29.0107C36.7703 29.0107 36.6795 29.0728 36.6795 29.1492C36.6795 29.2257 36.7703 29.2877 36.8823 29.2877Z" fill="#855034"/>
<path fill-rule="evenodd" clip-rule="evenodd" d="M35.0125 32.0429C35.0125 32.0429 34.6563 32.0825 34.6217 31.8846C34.5821 31.6867 34.7009 31.7906 34.8047 31.8747C34.9086 31.9588 35.0323 31.9489 35.0471 31.8994C35.062 31.85 35.1856 31.1426 35.8138 30.9547C36.4371 30.7617 36.5212 31.019 36.6646 31.0783C36.8031 31.1327 36.9268 31.0486 37.0059 30.9744C37.0851 30.9002 37.6045 30.6232 38.3019 31.1179C38.9994 31.6125 39.2616 31.9489 39.3456 32.0083C39.4297 32.0676 39.6029 32.0281 39.588 31.9192C39.5732 31.8104 39.7166 31.8104 39.8007 31.9192C39.8848 32.0281 39.4644 32.1418 39.4644 32.1418C39.4644 32.1418 39.2121 33.0569 38.3563 33.5664C37.5006 34.0759 36.2887 34.0215 35.799 33.606C35.3093 33.1905 35.1361 32.2902 35.0125 32.0429V32.0429Z" fill="#94473B"/>
<path fill-rule="evenodd" clip-rule="evenodd" d="M36.8279 33.2013C36.8279 33.2013 37.3176 33.2953 37.738 33.0183C38.1585 32.7412 38.4899 32.6918 38.5047 32.9292C38.5196 33.1667 37.6737 33.3843 37.1296 33.3497C36.5855 33.3101 36.6795 33.1518 36.8328 33.2013H36.8279Z" fill="#BF6558"/>
<path fill-rule="evenodd" clip-rule="evenodd" d="M35.2697 32.0288C35.2697 32.0288 35.6803 32.0684 36.0018 32.2761C36.3233 32.4839 36.907 32.6718 37.3275 32.4938C37.7479 32.3157 38.0299 32.2365 38.3761 32.2168C38.7224 32.2019 39.0785 32.1376 39.0785 32.1376C38.5443 32.1574 37.6193 31.8408 36.7784 31.8458C36.1403 31.8507 35.8287 32.0585 35.2648 32.0337L35.2697 32.0288Z" fill="white"/>
<path fill-rule="evenodd" clip-rule="evenodd" d="M32.9943 25.5288C32.9943 25.5288 33.207 25.9889 33.5829 26.1867C33.9539 26.3846 34.3496 26.3104 34.6712 26.2906C34.9927 26.2708 35.2351 26.3401 35.2351 26.3401C35.2351 26.3401 35.2549 26.3549 35.2796 26.3598C35.1114 26.1026 34.226 26.35 33.7264 26.1373C33.3554 25.979 33.1328 25.6475 33.0487 25.4893C33.0289 25.509 33.0091 25.5189 32.9943 25.5288V25.5288Z" fill="#D4926F"/>
<path fill-rule="evenodd" clip-rule="evenodd" d="M39.0241 26.1967C39.0241 26.1967 38.9549 26.3056 38.8658 26.2907C39.0835 25.7961 40.0085 26.3748 40.7752 26.2017C41.4034 26.0632 41.8733 25.6477 42.0465 25.4795C42.0662 25.4894 42.0811 25.4943 42.091 25.4943C42.2047 25.5191 42.2344 25.5191 42.2097 25.5191C42.18 25.5191 41.5815 26.2462 40.6911 26.355C39.8007 26.4639 39.3259 26.0978 39.0291 26.1967H39.0241Z" fill="#D4926F"/>
<path fill-rule="evenodd" clip-rule="evenodd" d="M38.8609 25.9688C38.8906 25.9342 38.9104 25.9144 38.9104 25.9144C38.9104 25.9144 39.5237 25.1724 40.3894 25.0834C41.255 24.9943 41.9821 25.4692 42.091 25.4939C42.2047 25.5187 42.2344 25.5187 42.2097 25.5187C42.1998 25.5187 42.1355 25.5929 42.0168 25.6967C40.4537 25.0982 39.2912 25.6819 38.8609 25.9688V25.9688Z" fill="#ADA89F"/>
<path fill-rule="evenodd" clip-rule="evenodd" d="M32.9943 25.5287C32.9943 25.5287 33.024 25.593 33.0833 25.6869C33.4642 25.5386 34.5821 25.2319 35.3637 26.3152C35.3686 26.3102 35.3686 26.3053 35.3736 26.3003C35.4329 26.1865 35.2697 26.1074 35.2697 26.1074C35.2697 26.1074 35.1114 25.3803 34.226 25.222C33.3406 25.0637 33.1081 25.4841 32.9943 25.5287V25.5287Z" fill="#ADA89F"/>
<path fill-rule="evenodd" clip-rule="evenodd" d="M34.9927 25.6181C34.8344 25.4499 34.592 25.2867 34.2309 25.2224C34.0627 25.1927 33.9193 25.1828 33.7956 25.1877C33.7313 25.2916 33.6918 25.4103 33.6918 25.5389C33.6918 25.9 33.9836 26.1919 34.3447 26.1919C34.6811 26.1919 34.9531 25.9396 34.9927 25.6181V25.6181Z" fill="#625D54"/>
<path fill-rule="evenodd" clip-rule="evenodd" d="M39.964 25.1821C40.0975 25.1376 40.241 25.103 40.3894 25.0832C40.6317 25.0584 40.8642 25.0782 41.072 25.1178C41.1561 25.2316 41.2055 25.3701 41.2055 25.5185C41.2055 25.8845 40.9087 26.1863 40.5378 26.1863C40.1717 26.1863 39.87 25.8895 39.87 25.5185C39.87 25.3948 39.9046 25.2761 39.964 25.1772V25.1821Z" fill="#625D54"/>
<path d="M40.5378 25.8012C40.6935 25.8012 40.8197 25.675 40.8197 25.5193C40.8197 25.3635 40.6935 25.2373 40.5378 25.2373C40.382 25.2373 40.2558 25.3635 40.2558 25.5193C40.2558 25.675 40.382 25.8012 40.5378 25.8012Z" fill="#191716"/>
<path d="M34.3398 25.8107C34.49 25.8107 34.6118 25.6889 34.6118 25.5387C34.6118 25.3884 34.49 25.2666 34.3398 25.2666C34.1895 25.2666 34.0677 25.3884 34.0677 25.5387C34.0677 25.6889 34.1895 25.8107 34.3398 25.8107Z" fill="#191716"/>
<path fill-rule="evenodd" clip-rule="evenodd" d="M32.6382 25.3407C32.6382 25.3407 32.7668 25.4743 32.8657 25.5238C32.9646 25.5683 33.0091 25.5633 33.0091 25.5633C33.0091 25.5633 33.4296 25.1478 34.2111 25.3012C34.9878 25.4545 35.2697 26.1124 35.2697 26.1124C35.2697 26.1124 35.1114 25.1528 34.226 24.945C33.3406 24.7373 32.8558 25.3754 32.6382 25.3407V25.3407Z" fill="#191716"/>
<path fill-rule="evenodd" clip-rule="evenodd" d="M38.7966 26.068C38.7966 26.068 39.0587 25.6574 39.7315 25.3953C40.4091 25.1331 40.9038 25.143 41.4232 25.3211C41.9475 25.4992 42.1503 25.6179 42.368 25.5041C42.5856 25.3854 42.5955 25.237 42.5955 25.237C42.5955 25.237 42.4867 25.3211 42.3482 25.2617C42.2097 25.2024 39.6375 23.9806 38.7916 26.073L38.7966 26.068Z" fill="#191716"/>
<path d="M33.8599 25.8253C33.9665 25.8253 34.0529 25.7389 34.0529 25.6324C34.0529 25.5258 33.9665 25.4395 33.8599 25.4395C33.7534 25.4395 33.667 25.5258 33.667 25.6324C33.667 25.7389 33.7534 25.8253 33.8599 25.8253Z" fill="white"/>
<path d="M39.9392 25.8253C40.0458 25.8253 40.1321 25.7389 40.1321 25.6324C40.1321 25.5258 40.0458 25.4395 39.9392 25.4395C39.8327 25.4395 39.7463 25.5258 39.7463 25.6324C39.7463 25.7389 39.8327 25.8253 39.9392 25.8253Z" fill="white"/>
</svg>
