<svg width="85" height="212" viewBox="0 0 85 212" fill="none" xmlns="http://www.w3.org/2000/svg">
<path d="M33.6811 45.397C33.3207 45.0632 32.6643 44.6694 32.4818 44.4847C32.2771 44.2755 32.642 43.7326 32.4128 44.1287C32.1814 44.5247 32.2904 44.676 33.0559 45.1522C33.2851 45.2946 33.4252 45.4326 33.5098 45.5527C34.4087 46.4828 33.047 47.206 32.3171 47.2482C32.1302 47.2594 31.97 47.1882 31.8499 47.0858C31.6941 46.9545 31.6007 46.7587 31.5918 46.6096C31.5851 46.5006 31.6607 46.4071 31.7631 46.4005C31.8632 46.3938 31.95 46.4761 31.9567 46.5852C31.9589 46.6363 32.0034 46.7142 32.0768 46.7765C32.1347 46.8255 32.2103 46.8588 32.2971 46.8544C32.4328 46.8455 32.533 46.781 32.5841 46.6942C32.6064 46.6541 32.6198 46.6096 32.622 46.5629C32.6242 46.5162 32.6131 46.4672 32.5886 46.4205C32.5263 46.3003 32.375 46.1913 32.1124 46.1446C31.8721 46.1023 31.6607 46.0445 31.4761 45.9733C31.4783 46.2091 31.4115 46.5006 31.1312 46.6853C31.2113 46.7587 31.3025 46.8366 31.4071 46.9145C31.4694 46.9612 31.485 47.0546 31.4427 47.1214C31.4004 47.1882 31.3136 47.2037 31.2513 47.157C31.0933 47.0391 30.9598 46.9211 30.8486 46.8077C30.7462 46.8366 30.6305 46.8544 30.4948 46.8611C30.1521 46.8789 29.8851 46.7854 29.6871 46.6319L29.676 46.623C29.5291 46.5073 29.4223 46.356 29.3489 46.1913C29.2777 46.0311 29.2421 45.8598 29.2332 45.6929C29.2332 45.6706 29.2309 45.6484 29.2309 45.6261C28.2986 45.2434 28.3698 44.9208 28.4588 44.5203C28.5056 44.3067 28.5612 44.0552 28.1874 43.6925C27.8825 43.3966 27.6778 43.1385 27.5599 42.9071C27.4019 42.9026 27.215 42.8804 26.9992 42.8403C26.454 42.738 26.1359 42.471 25.9534 42.2062C25.7465 42.0215 25.4461 41.6143 25.5685 40.8533C25.6308 40.4706 25.8377 40.2637 26.0713 40.1102C26.0958 40.059 26.0958 39.9989 26.0446 39.9255C25.989 39.8476 25.9022 39.7608 25.7754 39.6629C25.6508 39.8743 25.4483 40.0189 25.1746 39.9967C24.8386 39.97 24.6873 39.8342 24.6206 39.6963C24.496 39.5472 24.4225 39.3113 24.5249 38.942C23.9597 38.6438 23.6304 38.359 23.4591 38.1009C23.3589 37.9496 23.3078 37.805 23.2944 37.667C23.2788 37.5246 23.3055 37.3911 23.3545 37.2709C23.3723 37.2309 23.3923 37.1908 23.4146 37.153C23.3033 37.1486 23.1898 37.1374 23.0786 37.1152C23.0497 37.1085 23.0207 37.1018 22.9918 37.0952C22.8717 37.084 21.9861 36.9617 21.9838 35.9937C21.9416 35.9693 21.8993 35.9448 21.8615 35.9159C21.5856 35.7201 21.3564 35.4219 21.2229 35.0726C21.0894 34.7232 21.0471 34.3183 21.1472 33.9155C21.1939 33.7286 21.2674 33.5417 21.3764 33.3615C21.8793 32.5293 21.6612 32.2601 21.1739 31.6771C21.056 31.5458 20.9336 31.3878 20.8201 31.2499C20.255 30.5512 19.9924 30.0817 20.6688 29.4431L20.6755 29.4387C20.5665 29.4208 20.4508 29.3986 20.3262 29.3697C20.2772 29.3585 20.2438 29.3074 20.255 29.254C20.2639 29.2006 20.3128 29.1672 20.3618 29.1783C20.5353 29.2161 20.6933 29.2451 20.8379 29.2651C21.0137 29.0537 21.1138 28.8268 21.1383 28.5731C21.1695 28.2371 21.0716 27.8455 20.8335 27.3671L20.829 27.3582C20.5398 26.7774 20.7111 26.5371 21.0004 26.3703C21.0693 26.3302 21.1405 26.2991 21.2117 26.2679C21.3942 26.1878 21.5833 26.1055 21.5522 25.8785C21.5055 25.5247 21.6034 25.2866 21.7413 25.0864C21.6167 25.0708 21.4854 25.0463 21.3408 25.0152C21.2918 25.0041 21.2585 24.9507 21.2696 24.8995C21.2785 24.8461 21.3274 24.8127 21.3764 24.8238C21.5633 24.8661 21.7302 24.8928 21.8815 24.9062L21.9215 24.8572C22.0795 24.6658 22.2308 24.4834 22.1507 24.1919C22.1374 24.1452 22.1285 24.0984 22.1218 24.0539C22.1062 24.0406 22.0929 24.0228 22.0817 24.005C21.6056 23.1728 21.3007 22.5743 21.254 22.176C21.1939 21.6509 21.461 21.4306 22.1663 21.4817C22.6669 21.5196 22.9317 21.5107 23.0497 21.4083C23.152 21.3193 23.1698 21.0946 23.1765 20.7007C23.1787 20.5828 23.1743 20.476 23.172 20.3826C23.0408 20.3492 22.8961 20.3002 22.7381 20.2335C22.6914 20.2134 22.6669 20.1556 22.6847 20.1044C22.7025 20.0532 22.756 20.0288 22.8027 20.0488C22.934 20.1044 23.0519 20.1467 23.1609 20.1756C23.1565 20.0577 23.1542 19.9598 23.1654 19.8775C23.221 19.4992 23.4235 19.4413 24.1511 19.5726C24.1867 19.5793 24.2223 19.586 24.2557 19.5926C24.2601 19.517 24.2557 19.4569 24.249 19.428C24.2223 19.3212 24.1756 19.0942 24.2601 18.8917C24.3447 18.6848 24.5538 18.5135 25.03 18.5402C25.0767 18.5424 25.1212 18.5424 25.1635 18.5424C25.2236 18.4334 25.3237 18.3511 25.4483 18.2776L25.4639 18.2687C25.5729 18.2064 25.702 18.1597 25.8377 18.1085C25.8755 18.0952 25.9156 18.0796 25.9534 18.064C26.0068 17.9394 26.0468 17.7926 26.0869 17.6368L26.1003 17.5812C26.2137 17.1339 25.7754 16.66 26.2827 16.6021C26.4607 16.2105 26.7811 16.1237 27.0771 16.0414C27.2951 15.9813 27.4954 15.9257 27.5265 15.652C27.5532 15.4162 27.6267 15.2582 27.729 15.1425C27.5377 15.1759 27.3196 15.138 27.0548 15.078C26.6076 14.9778 26.5786 15.0268 26.305 15.5052L26.167 15.7455C25.9178 16.1727 25.6552 16.2061 25.4083 16.2372C25.208 16.2639 25.119 16.0192 24.9944 16.6355C24.9054 17.0828 26.038 17.5344 25.8466 17.7369C25.7287 17.8638 25.3504 18.0952 25.1635 18.1196L25.0456 18.1374C24.9966 18.1463 24.9477 18.1085 24.941 18.0551C24.9321 18.0017 24.9677 17.9505 25.0166 17.9416L25.1412 17.9238C25.2992 17.9016 25.4973 17.8771 25.5729 17.797C25.9957 17.3475 24.5761 17.53 24.4448 16.4976C24.4225 16.3151 24.4359 16.1371 24.4826 15.9747C24.5293 15.8122 24.6117 15.6654 24.7207 15.5497C24.8475 15.4139 25.0144 15.3205 25.2102 15.2938L25.3615 15.2738C25.5707 15.2448 25.6686 15.2337 25.7086 15.1937C25.742 15.1625 25.762 15.0846 25.7976 14.9444C25.8177 14.8643 25.8421 14.7664 25.88 14.6374C25.9823 14.2947 26.256 14.1145 26.6053 14.0344C27.0415 13.9365 27.6 13.9988 28.065 14.0989L28.0717 14.1011L28.0761 14.0789C28.2319 13.4025 28.5145 13.3691 28.7904 13.3735L28.7926 13.3513L28.7971 13.2823C28.8215 12.9975 28.9751 12.9107 29.2532 12.8729L29.2042 12.8707L28.7437 12.8484L28.5968 12.8417C28.1095 13.0264 28.0183 13.1911 27.8736 13.4603L27.8625 13.4803C27.709 13.7674 27.3864 13.7919 26.997 13.8208C26.5786 13.8519 26.0624 13.892 25.7309 14.3214C25.6664 14.4038 25.5507 14.4149 25.4728 14.3459C25.3949 14.2769 25.3838 14.1523 25.4483 14.0678C25.5507 13.9343 25.6641 13.8319 25.7821 13.7496C25.5507 13.7807 25.3459 13.8297 25.2213 13.9209C25.0634 14.0388 25.0411 14.2524 25.2903 14.6441C25.3192 14.6886 25.3081 14.7509 25.2658 14.782C25.2236 14.8132 25.1679 14.7998 25.139 14.7553C24.8142 14.2413 24.8676 13.9432 25.1168 13.7585C25.3771 13.5671 25.8622 13.536 26.3228 13.507L26.3695 13.5048C26.5764 13.4581 26.7811 13.4425 26.9703 13.4292L27.0748 13.4203C27.1972 13.3869 27.2773 13.3379 27.2884 13.2645C27.3775 12.7327 27.5132 12.6215 28.1184 12.6281C28.3854 12.4791 28.8015 12.3411 29.5291 12.1698L29.5669 12.1609C29.8428 12.0963 30.0387 12.0496 30.1788 12.0118C30.1744 11.8939 30.1566 11.7693 30.141 11.6513C30.121 11.5067 30.101 11.371 30.1054 11.253C30.1188 10.9304 30.3568 10.7479 30.813 10.6812L30.8241 10.679C31.1 10.3763 31.5161 10.3719 31.9099 10.3697C32.2482 10.3652 32.5641 10.363 32.6398 10.1116C32.7733 9.66432 33.0759 9.60647 33.4275 9.64875C33.4764 9.57309 34.1061 9.57532 34.2463 9.55307C34.6535 9.48854 34.8092 9.64875 34.9494 9.8223C35.0362 9.8045 35.1096 9.7689 35.163 9.69992C35.3455 9.46406 35.6125 9.43069 35.8951 9.49966C35.8973 9.49744 36.547 9.57309 37.021 9.84678C37.0299 9.14588 38.2425 9.56197 38.6319 9.05242C39.1326 8.3938 40.185 8.01331 40.4543 7.99328C40.9104 7.95991 41.1285 8.09786 41.2664 8.28032C41.5624 8.19354 41.8472 8.20689 42.0563 8.4294C42.1164 8.49393 42.1987 8.52508 42.2922 8.5362C42.4279 8.35152 42.5837 8.18241 43.0198 8.21802C43.1711 8.22914 43.2646 8.27809 43.3224 8.3493C43.694 8.28254 44.0166 8.32037 44.1924 8.75649C44.2903 9.00347 44.6263 8.98344 44.9845 8.96342C45.4029 8.93894 45.8434 8.91447 46.1572 9.19483H46.1705C46.6578 9.23043 46.9226 9.39509 46.9604 9.7155C46.9738 9.83343 46.9626 9.96916 46.9515 10.1138C46.9426 10.2339 46.9315 10.3585 46.9359 10.4765C47.085 10.5032 47.2986 10.5366 47.5946 10.5833L47.6346 10.59C48.4156 10.7101 48.8695 10.8191 49.1633 10.9482C49.8041 10.8992 49.9554 11.0016 50.0889 11.5245C50.1067 11.5979 50.1957 11.6402 50.327 11.6647H50.4382C50.6407 11.6647 50.8588 11.6669 51.0813 11.698H51.1302C51.6175 11.6936 52.136 11.6914 52.4252 11.8649C52.7034 12.0296 52.7812 12.3255 52.4742 12.8618C52.4475 12.9085 52.3874 12.9241 52.3407 12.8974C52.2939 12.8707 52.2784 12.8084 52.3051 12.7616C52.5409 12.3544 52.5031 12.1408 52.3251 12.0363C52.1849 11.9539 51.9669 11.9183 51.7177 11.905C51.8489 11.9784 51.9758 12.0741 52.0937 12.1987C52.1671 12.2766 52.1649 12.4012 52.087 12.4768C52.0091 12.5525 51.8868 12.5503 51.8133 12.4702C51.4306 12.0652 50.881 12.063 50.4338 12.0607C50.0199 12.0585 49.675 12.0563 49.4926 11.7826L49.4792 11.7648C49.3057 11.5067 49.1989 11.3487 48.6693 11.1974L48.5135 11.2152L48.0285 11.2708L47.9773 11.2753C48.2754 11.2931 48.4446 11.3687 48.4913 11.6513L48.5024 11.7203L48.5069 11.7425C48.8006 11.7181 49.101 11.7292 49.3146 12.3945L49.3212 12.4168L49.3279 12.4145C49.813 12.281 50.4004 12.1787 50.8721 12.2476C51.2482 12.301 51.553 12.4635 51.6843 12.7972C51.7332 12.9218 51.7666 13.0197 51.7955 13.0976C51.8445 13.2356 51.869 13.309 51.9068 13.3402C51.9535 13.378 52.0581 13.3847 52.2806 13.3958L52.4408 13.4047C52.65 13.418 52.8324 13.4981 52.9771 13.625C53.0994 13.7318 53.1973 13.872 53.2596 14.0322C53.3197 14.1901 53.3486 14.3681 53.3375 14.5506C53.3308 14.6708 53.3064 14.7931 53.2641 14.9133C53.2708 14.98 53.2418 15.0446 53.1907 15.0869C53.1395 15.187 53.075 15.2849 52.9971 15.3783C52.7679 15.6498 52.7456 15.7789 52.8102 15.8367C52.8947 15.9101 53.1061 15.9235 53.2752 15.9324L53.4087 15.9413C53.4621 15.9457 53.5022 15.9947 53.4977 16.0481C53.4933 16.1015 53.4465 16.1415 53.3931 16.1371L53.2663 16.1282C53.0683 16.1171 52.8191 16.1015 52.6833 15.9836C52.532 15.8523 52.5231 15.6342 52.848 15.2471C52.8903 15.1959 52.9281 15.1447 52.9615 15.0913C52.9259 15.0668 52.8969 15.029 52.8836 14.9845C52.7078 14.3793 52.512 14.3681 52.2984 14.357C52.0358 14.3437 51.7555 14.3281 51.4595 13.9209L51.2949 13.6917C50.97 13.2334 50.9366 13.1866 50.4694 13.3179C50.1912 13.398 49.9643 13.4514 49.7596 13.4314C49.8775 13.5382 49.9665 13.6917 50.011 13.9254C50.0622 14.1968 50.2802 14.2369 50.5139 14.2814C50.8343 14.3437 51.1792 14.4082 51.3972 14.7865C51.9402 14.8087 52.0826 15.2181 52.2361 15.6565L52.2561 15.7121C52.3095 15.8656 52.3629 16.008 52.4275 16.1282C52.4697 16.1415 52.512 16.1527 52.5543 16.1638C52.7011 16.2061 52.8413 16.2439 52.9637 16.2973L52.9793 16.3062C53.1172 16.3707 53.2307 16.4464 53.3019 16.5487C53.3464 16.5465 53.3931 16.5421 53.4421 16.5354C53.945 16.4775 54.1786 16.6333 54.2832 16.8335C54.3855 17.0294 54.3544 17.2608 54.3321 17.3676C54.3255 17.3987 54.3255 17.4588 54.3366 17.5322C54.3722 17.5233 54.41 17.5144 54.4456 17.5055C55.2088 17.3231 55.4269 17.3653 55.5136 17.7392C55.5314 17.8215 55.5381 17.9172 55.5403 18.0351C55.6538 17.9973 55.7762 17.9461 55.9119 17.8816C55.9609 17.8593 56.0187 17.8793 56.041 17.9283C56.0632 17.9772 56.0432 18.0373 55.9943 18.0596C55.8296 18.1374 55.6805 18.1975 55.5448 18.2398C55.547 18.3333 55.5515 18.4401 55.5626 18.558C55.596 18.9496 55.6316 19.1743 55.7473 19.2567C55.8808 19.3501 56.1611 19.339 56.6907 19.2678C57.4361 19.1654 57.7343 19.3679 57.7076 19.8953C57.6876 20.2958 57.4072 20.9143 56.9622 21.7777C56.951 21.7977 56.9377 21.8155 56.9244 21.8289C56.9199 21.8756 56.9132 21.9223 56.9021 21.969C56.8376 22.2672 57.0111 22.4385 57.1936 22.6165L57.2403 22.6633C57.3983 22.6388 57.5741 22.601 57.7699 22.5453C57.8211 22.5298 57.8745 22.5609 57.89 22.6143C57.9056 22.6677 57.8745 22.7211 57.8233 22.7367C57.6742 22.779 57.534 22.8123 57.4027 22.8368C57.563 23.026 57.6853 23.2574 57.6609 23.6134C57.6453 23.8426 57.8522 23.9115 58.0502 23.9783C58.1281 24.005 58.206 24.0295 58.2817 24.0651C58.5998 24.2119 58.8001 24.4389 58.5353 25.0374L58.5309 25.0463C58.315 25.5381 58.2371 25.9386 58.295 26.2701C58.3395 26.5193 58.4619 26.7396 58.6644 26.9399C58.8157 26.9087 58.9826 26.8687 59.1628 26.8197C59.214 26.8064 59.2674 26.8375 59.2829 26.8887C59.2963 26.9421 59.2674 26.9955 59.2162 27.0089C59.0871 27.0445 58.967 27.0756 58.8513 27.1023L58.8579 27.1068C59.6212 27.6942 59.3764 28.1837 58.8268 28.9202C58.7178 29.0648 58.5998 29.2317 58.4819 29.3719C58.0057 29.9882 57.7966 30.2708 58.3885 31.0652C58.5175 31.2365 58.6087 31.419 58.671 31.6014C58.8045 31.9975 58.7912 32.4025 58.6733 32.7607C58.5553 33.1189 58.3351 33.4327 58.0569 33.6485C58.0191 33.6797 57.9768 33.7086 57.9345 33.7331C58.0013 34.6965 57.0712 34.8812 56.9444 34.9012C56.9155 34.9101 56.9288 34.9079 56.8531 34.9257C56.7797 34.9435 56.6173 34.9769 56.4994 34.988C56.5261 35.0236 56.5505 35.0614 56.5728 35.1015C56.6351 35.2172 56.6707 35.3485 56.664 35.4909C56.6596 35.6288 56.6151 35.7779 56.5194 35.9359C56.357 36.2074 56.0276 36.5122 55.4491 36.8504C55.5826 37.2131 55.5225 37.4534 55.4002 37.6114C55.3401 37.7538 55.1554 37.9029 54.835 37.9496C54.5146 37.9963 54.321 37.8628 54.1741 37.6603C54.0451 37.7671 53.9605 37.8606 53.9071 37.9407C53.8582 38.0163 53.8604 38.0764 53.8916 38.1276C54.1497 38.2656 54.3833 38.4569 54.4768 38.833C54.6614 39.5828 54.3722 40.01 54.1652 40.2103C53.9917 40.4862 53.5022 40.8177 53.1039 40.9156C52.9593 40.9512 52.8636 40.9735 52.7924 40.9868C52.4853 40.9156 52.1293 40.8489 51.6932 40.7888C51.5864 40.6219 51.5886 40.3794 51.6687 40.0835L51.6531 40.0768C51.1658 39.8743 50.9389 39.5339 50.9767 39.0488C50.9945 38.8063 51.088 38.5259 51.2526 38.2099C50.5651 39.0243 50.2758 39.4693 50.881 39.7942C51.2615 39.9989 51.5441 40.3749 51.5396 40.7688C51.0101 40.7043 50.367 40.6509 49.566 40.6152L49.5638 40.5908C49.5415 40.5952 49.5193 40.6019 49.4948 40.6108C46.927 40.5018 46.1572 40.1569 45.3673 38.1476C44.5774 36.1384 44.7531 35.2684 44.6018 34.0779C44.742 33.9155 44.8132 33.9533 44.7131 33.5773C44.613 33.2013 44.702 32.8252 44.9044 32.4114C45.1069 31.9975 45.4251 32.2667 44.9178 31.7928C44.4105 31.3188 44.8711 31.2254 44.6597 30.8204C44.4483 30.4155 45.029 30.4666 44.6352 29.8214C44.2414 29.1761 45.2115 28.6843 44.702 28.315C44.1946 27.9456 44.5662 27.8477 44.6619 27.6119C44.6419 27.6141 44.6219 27.6141 44.6041 27.6163C44.5551 27.7676 44.4706 27.9167 44.337 28.0502C44.1101 28.2772 44.1902 28.3728 44.277 28.4796C44.406 28.6354 44.5462 28.8067 44.3593 29.1516C44.0834 29.6589 44.2592 29.9415 44.3548 30.0928L44.3771 30.1307C44.4416 30.2419 44.3838 30.3532 44.3103 30.4844C44.2325 30.6291 44.1323 30.816 44.2636 30.994C44.2925 31.034 44.317 31.0785 44.3393 31.1253C44.4349 31.3411 44.4617 31.6504 44.4127 31.9508C44.3637 32.2512 44.2391 32.5449 44.0322 32.7251C43.9833 32.7674 43.9321 32.803 43.8765 32.8319C43.8342 32.8542 43.7808 32.8319 43.7585 32.783C43.7363 32.734 43.7541 32.6761 43.7986 32.6539C43.8431 32.6316 43.8831 32.6027 43.921 32.5716C44.0945 32.4203 44.1991 32.1688 44.2391 31.9107C44.2814 31.6504 44.2592 31.3834 44.1813 31.2054C44.1657 31.1698 44.1479 31.1386 44.1279 31.1119C43.9187 30.8249 44.0545 30.5757 44.159 30.3799C44.1991 30.3042 44.2347 30.2419 44.2302 30.2308L44.2102 30.1996C44.0923 30.0127 43.8742 29.6612 44.208 29.047C44.3281 28.8245 44.2347 28.711 44.1479 28.6065C43.9966 28.424 43.8609 28.2594 44.2147 27.9033C44.3059 27.8121 44.3704 27.7098 44.4127 27.6074C44.2325 27.5852 44.0767 27.5184 43.9499 27.4249C43.8231 27.3315 43.7251 27.2113 43.6562 27.0801C43.5872 26.9488 43.5449 26.8041 43.5316 26.6617C43.5071 26.3769 43.6028 26.101 43.8253 25.9497C44.1034 25.7606 44.1145 25.6026 44.0478 25.4847C43.9833 25.3734 43.8564 25.2822 43.7852 25.231L43.7563 25.2088C43.6651 25.1309 43.5405 24.9262 43.4715 24.6992C43.4003 24.4656 43.3803 24.2008 43.4937 24.0005L43.5182 23.9605C43.6384 23.7892 43.4693 23.5644 43.1911 23.1973C43.0354 22.9926 42.8507 22.7456 42.6616 22.4385C42.4146 22.038 42.3879 21.5685 42.4413 21.1569C42.2699 21.1992 42.35 21.3171 41.7804 21.0901C41.2086 20.8632 41.5357 20.5161 40.9149 20.5272C40.2941 20.5383 40.6523 20.0443 40.1428 19.8908C39.6354 19.7373 40.1917 19.4191 39.6577 19.2722C39.1259 19.1254 39.8669 18.489 39.1593 18.3911C38.4517 18.2932 39.433 17.481 38.3093 17.5589C37.5995 17.6079 36.8786 17.4499 36.8452 16.0948C36.8096 16.2283 36.6872 16.5198 36.5225 16.8335C36.5003 17.3008 36.616 17.7392 37.0788 17.8727L37.4215 17.9706C38.3938 18.2465 38.5986 18.3043 38.6141 18.7983L38.6164 18.845C38.6275 19.0475 38.6809 19.2389 38.7699 19.379C38.8544 19.5081 38.9724 19.5926 39.1259 19.5926H39.1415C39.3573 19.5837 39.4797 19.5949 39.5553 19.6461C39.6532 19.7128 39.6644 19.8085 39.6532 19.9642C39.6443 20.0577 39.6555 20.1333 39.6911 20.1845C39.7267 20.2357 39.789 20.2691 39.8869 20.2802C39.9358 20.2846 39.9714 20.3336 39.9692 20.387C39.9648 20.4404 39.9247 20.4782 39.8758 20.4738C39.7222 20.456 39.6176 20.3937 39.5531 20.3002C39.4886 20.2068 39.4663 20.0844 39.4775 19.9442C39.4841 19.8686 39.4841 19.8241 39.4686 19.8152C39.4285 19.7885 39.3328 19.784 39.1526 19.7907H39.1303C38.9123 19.7907 38.7454 19.6728 38.6275 19.4925C38.5162 19.3212 38.4539 19.0942 38.4406 18.8561L38.4383 18.8027C38.4272 18.4579 38.247 18.4067 37.3837 18.1641L37.0388 18.0662C36.5737 17.9327 36.3935 17.5611 36.3534 17.1362C36.2867 17.2474 36.2155 17.3542 36.1421 17.4566C36.1932 17.7814 36.3267 18.0863 36.6271 18.2376C36.9386 18.3956 37.1745 18.4823 37.3347 18.5402C37.4504 18.5825 37.5283 18.6114 37.5861 18.6492C37.7219 18.7404 37.7219 18.8339 37.6128 19.0342C37.5884 19.0809 37.535 19.0942 37.4927 19.0653C37.4504 19.0364 37.4371 18.9763 37.4615 18.9318C37.5038 18.8539 37.5127 18.825 37.4994 18.8139C37.4638 18.7894 37.3903 18.7627 37.2858 18.7249C37.1211 18.6648 36.883 18.5802 36.5582 18.4134C36.24 18.2509 36.0775 17.9572 36.0019 17.6368C35.8439 17.8215 35.2431 18.0195 35.0874 18.0573C34.767 18.1374 34.9361 18.4912 34.6802 18.5202C34.4221 18.5491 34.3242 18.5713 34.3308 18.8116C34.3375 19.052 34.342 19.319 33.8524 19.4169C33.3629 19.5148 33.225 19.6416 33.314 19.9642C33.403 20.2847 33.3207 20.6429 32.8601 20.6852C32.3995 20.7297 32.5352 21.4951 32.4707 21.969C32.2971 23.2329 32.3016 24.9885 32.2548 25.6315C32.1836 26.6017 31.8009 26.6528 32.504 28.8713C32.8667 30.0172 33.5743 31.6793 33.8613 32.5827C34.5111 34.6186 35.4923 35.1771 36.5426 35.907C37.0543 37.242 37.5683 39.5183 37.5884 40.9446C37.6084 42.3708 36.3979 43.0317 34.896 43.7059C33.3941 44.3801 33.7701 44.6738 33.6589 45.4014L33.6811 45.397ZM30.1432 13.1043C30.0809 13.1488 30.0342 13.1911 30.0075 13.2334C29.9296 13.2556 29.854 13.2845 29.7828 13.3246C29.5069 13.4781 29.2866 13.7674 29.0974 14.2747C28.9617 14.6374 28.6524 14.7308 28.3654 14.8176C28.2897 14.8399 28.2141 14.8643 28.1407 14.8888C28.243 14.7598 28.3276 14.5751 28.3988 14.317C28.7392 14.2858 28.8705 14.05 28.9306 13.7652C29.0796 13.7652 29.222 13.7385 29.3533 13.5693C29.469 13.418 29.5692 13.3001 29.7538 13.2178C29.854 13.1733 29.9786 13.1355 30.1432 13.1065V13.1043ZM30.032 13.6383C30.0387 13.8453 29.9853 14.0922 29.7294 14.1879C29.6292 14.2257 29.5491 14.2636 29.4846 14.3014C29.6248 13.9676 29.7761 13.7741 29.9519 13.6784C29.9786 13.665 30.0053 13.6517 30.032 13.6405V13.6383ZM28.7615 15.4251C28.7704 15.4807 28.7748 15.5452 28.777 15.6186C28.6769 15.6498 28.579 15.6899 28.4878 15.7433C28.5412 15.5497 28.6035 15.4228 28.7615 15.4251ZM28.7681 15.8234C28.757 15.9368 28.7392 16.0614 28.7036 16.1972C28.5656 16.7557 28.6635 16.9225 28.0494 17.1117C27.9404 17.1451 27.8358 17.1651 27.7357 17.1807C27.9048 17.105 28.0628 16.9426 28.2074 16.6355C28.3075 16.4264 28.3654 16.2194 28.4121 16.0325C28.51 15.9368 28.6346 15.8701 28.7659 15.8234H28.7681ZM27.3018 17.2252C27.1549 17.243 27.0548 17.2741 27.0281 17.3698C26.9169 17.243 26.8301 17.1629 26.9013 17.1384C27.0415 17.174 27.175 17.2096 27.2996 17.2274L27.3018 17.2252ZM27.0793 19.1921C27.1349 19.5993 27.1883 20.1044 26.9747 20.4404C26.8323 20.5895 26.6387 20.654 26.3784 20.743L26.2137 20.8009C25.831 20.9366 25.5907 21.148 25.455 21.4261C25.3192 21.6998 25.2925 22.0247 25.3281 22.394C25.3415 22.5342 25.2436 22.5743 25.1346 22.6188C24.941 22.6966 24.7318 22.7834 24.645 23.0504C24.4648 23.1483 24.3269 23.2752 24.2757 23.4331C24.2334 23.5667 24.0331 23.6935 23.8106 23.8359C23.6148 23.9605 23.4057 24.094 23.2343 24.2698C23.241 24.2208 23.2432 24.1741 23.2432 24.1274C23.2432 23.9494 23.1987 23.7892 23.152 23.7002C23.1008 23.6045 23.023 23.4398 22.9673 23.264C22.9896 23.2551 23.0141 23.2462 23.0363 23.2396C23.2121 23.1839 23.4034 23.1728 23.5859 23.2106C24.0153 23.3019 24.1934 23.175 24.2379 22.9214C24.2601 22.7901 24.229 22.6366 24.1756 22.4697L24.1845 22.4675C24.605 22.3829 24.8186 22.1381 24.6762 21.3349C24.6361 21.1057 24.6695 20.9366 24.7496 20.812C25.0589 20.8342 25.3993 20.8454 25.6641 20.7386C25.7999 20.6829 25.9156 20.6051 25.9934 20.4894L26.0847 20.4938C26.1425 20.496 26.1915 20.5005 26.2427 20.5005C26.4718 20.5049 26.6832 20.4983 26.8434 20.3581C27.0036 20.2201 27.0971 19.9665 27.0793 19.4881C27.0748 19.3813 27.0748 19.2811 27.0771 19.1921H27.0793ZM44.7064 27.4071C44.702 27.3782 44.6931 27.3493 44.6775 27.3181C44.6753 27.3493 44.673 27.3804 44.6664 27.4116L44.7042 27.4071H44.7064ZM44.5017 27.0912C43.9766 26.5572 44.1168 26.0966 44.4572 25.9386C44.7976 25.7806 44.7976 25.073 44.3771 24.7237C43.9566 24.3744 44.1323 23.9382 44.386 23.7024C44.6419 23.4665 44.6552 23.8915 43.8142 23.1639C42.9731 22.4341 42.9308 21.1257 42.9619 20.9277C42.9931 20.7297 42.8885 20.9633 42.646 21.0857C42.5815 21.4795 42.5859 21.9468 42.824 22.3317C43.0064 22.6299 43.1889 22.8702 43.3424 23.0727C43.6762 23.5155 43.8809 23.7825 43.6784 24.0762L43.6628 24.1029C43.5805 24.2475 43.6005 24.4545 43.6562 24.6391C43.714 24.8305 43.8097 24.9929 43.8765 25.053L43.8943 25.0664C43.9766 25.1264 44.1279 25.2332 44.2124 25.3823C44.3304 25.587 44.3326 25.8451 43.9388 26.1121C43.7763 26.2234 43.7073 26.4303 43.7251 26.6462C43.734 26.7596 43.7674 26.8754 43.8253 26.9822C43.8809 27.089 43.961 27.1869 44.0611 27.2603C44.1746 27.3448 44.317 27.4005 44.4839 27.4138C44.5039 27.3026 44.5062 27.1913 44.4973 27.0912H44.5017ZM23.7995 22.4986C23.7461 22.5008 23.6883 22.5031 23.6304 22.5031C23.537 22.5053 23.4368 22.5075 23.3345 22.5142C23.2121 22.5209 23.1231 22.5476 23.0563 22.5876C22.9963 22.6232 22.9562 22.6744 22.934 22.7322C22.9184 22.7723 22.9095 22.819 22.905 22.8657L22.9317 22.8568C23.1609 22.7856 23.4123 22.7678 23.6504 22.819C23.8151 22.8546 23.8729 22.8568 23.8752 22.8413C23.8863 22.7767 23.8485 22.6499 23.7951 22.4986H23.7995ZM22.8984 24.8839C22.8005 24.9573 22.6803 25.0196 22.529 25.0597C22.4333 25.0842 22.3243 25.102 22.2019 25.1086L22.193 25.1198C22.035 25.3111 21.8704 25.5091 21.9126 25.8273C21.9838 26.3591 21.659 26.5015 21.3475 26.6373C21.2829 26.664 21.2206 26.6929 21.1717 26.7218C21.0627 26.7841 21.0026 26.8887 21.1472 27.1757L21.1517 27.1869C21.4231 27.7365 21.5366 28.2037 21.4966 28.6176C21.4721 28.8668 21.3964 29.0915 21.2696 29.3029C21.4075 29.3051 21.5255 29.294 21.6278 29.274C21.7903 29.2406 21.9015 29.1828 21.9683 29.1071C22.0306 29.0359 22.055 28.9469 22.0461 28.8423C22.0372 28.7333 21.995 28.6042 21.9215 28.4685C21.7257 28.1014 21.5433 27.6764 21.5188 27.3248C21.4921 26.9354 21.639 26.6328 22.1196 26.5661C22.3154 26.5394 22.5001 26.5216 22.6669 26.506C22.845 26.3413 22.9317 26.2523 22.9584 26.1744C22.9829 26.1032 22.9673 25.9875 22.9406 25.7784C22.9228 25.6516 22.9028 25.4913 22.885 25.2933C22.8717 25.1442 22.8783 25.0107 22.9028 24.8906L22.8984 24.8839ZM22.3688 24.8928C22.4088 24.8861 22.4489 24.8772 22.4845 24.8683C22.7137 24.8082 22.8605 24.6903 22.9473 24.5568C23.0319 24.4233 23.063 24.2676 23.0608 24.1274C23.0608 23.985 23.0296 23.8604 22.994 23.7958C22.9429 23.6979 22.8605 23.531 22.8005 23.3464C22.7493 23.3797 22.7003 23.4153 22.658 23.4576C22.5646 23.5489 22.5001 23.6601 22.4778 23.7869C22.4622 23.8759 22.4667 23.9738 22.4956 24.0806C22.5957 24.4456 22.509 24.6859 22.3666 24.8928H22.3688ZM22.7226 22.9436C22.7181 22.8413 22.7315 22.7434 22.7648 22.6544C22.8027 22.5587 22.8672 22.4764 22.9651 22.4163C23.0541 22.3607 23.172 22.3273 23.3233 22.3184C23.4279 22.3139 23.5281 22.3095 23.6215 22.3073L23.7261 22.305L23.6771 22.1626C23.6126 21.9735 23.5837 21.7354 23.597 21.4995C23.6104 21.2815 23.6571 21.0612 23.7461 20.8765C23.8418 20.6763 23.9864 20.5161 24.1845 20.4382C24.2779 20.4026 24.3825 20.3848 24.496 20.3937L24.6361 20.4048C24.7207 20.4115 24.8097 20.4182 24.9009 20.4226C24.9966 20.3781 25.1034 20.3447 25.2124 20.3247C25.3571 20.2958 25.5084 20.2847 25.6508 20.2824C25.7109 20.2157 25.7442 20.1133 25.7331 19.9665C25.702 20.0421 25.6486 20.0977 25.5729 20.14C25.366 20.2557 25.0278 20.1756 24.6139 20.0777C24.5204 20.0555 24.4225 20.0332 24.3224 20.011C24.289 20.0777 24.2445 20.1422 24.1911 20.2023C24.1088 20.2913 23.9975 20.3625 23.8551 20.4026C23.7617 20.4293 23.6527 20.4426 23.5281 20.4382C23.5303 20.5205 23.5325 20.6117 23.5303 20.7074C23.5236 21.2236 23.488 21.5262 23.2677 21.7176C23.063 21.8956 22.7292 21.9201 22.1307 21.8756C21.7346 21.8467 21.5811 21.9268 21.6034 22.1292C21.6367 22.4096 21.8481 22.8524 22.1886 23.4643C22.242 23.353 22.3154 23.2529 22.4022 23.1661C22.4912 23.0794 22.5957 23.0059 22.7114 22.9481L22.7226 22.9436ZM24.111 22.2761L24.1511 22.2694C24.4581 22.2093 24.6094 22.0158 24.496 21.3683C24.4537 21.128 24.4737 20.941 24.536 20.7942L24.4826 20.7897C24.4203 20.7853 24.3647 20.7942 24.3157 20.812C24.2134 20.852 24.1333 20.9433 24.0754 21.0612C24.0109 21.1947 23.9753 21.3616 23.9664 21.5262C23.9553 21.7087 23.9775 21.8889 24.0242 22.0291L24.0888 22.2138L24.111 22.2739V22.2761ZM26.0847 20.2958H26.0936L26.2449 20.3025C26.4385 20.3069 26.6165 20.3025 26.7299 20.2045C26.8457 20.1066 26.9124 19.9019 26.8968 19.497C26.8879 19.2455 26.908 19.003 26.9547 18.7827C26.7188 19.0208 26.4073 19.0141 26.147 19.0097C26.0446 19.0075 25.9512 19.0052 25.9044 19.0253L25.9022 19.0275C25.8755 19.0431 25.8866 19.1387 25.989 19.428C26.1225 19.8085 26.1425 20.0911 26.0847 20.298V20.2958ZM24.4337 19.6305C24.5249 19.6505 24.6117 19.6705 24.6984 19.6928C25.0411 19.7729 25.3237 19.8419 25.4127 19.7907C25.4483 19.7707 25.4083 19.6327 25.2391 19.2878C25.1279 19.0609 25.0878 18.8828 25.1012 18.7382C25.0745 18.7382 25.0478 18.736 25.0211 18.736C24.6428 18.716 24.4826 18.8317 24.4248 18.9719C24.3647 19.1143 24.4025 19.2945 24.4248 19.379C24.4359 19.4235 24.4448 19.5192 24.4337 19.6327V19.6305ZM26.187 17.9594C26.4451 17.8282 26.6654 17.6279 26.6943 17.2407C26.7032 17.1072 26.3695 17.0383 26.3962 16.9381C26.0869 17.0405 26.3606 17.303 26.2783 17.6323L26.2649 17.688C26.2404 17.7814 26.216 17.8727 26.1893 17.9594H26.187ZM25.8688 18.5135C25.7821 18.5914 25.6753 18.6514 25.5418 18.6893C25.4772 18.7627 25.4639 18.8673 25.5351 19.0431C25.5329 18.8317 25.6219 18.7226 25.7665 18.6603L25.7754 18.6559C25.8844 18.6114 26.0112 18.6136 26.1514 18.6158C26.4006 18.6203 26.7188 18.6247 26.8501 18.2353C26.9124 18.0529 26.9391 17.8905 26.9436 17.7503C26.7433 18.1842 26.325 18.3422 25.9578 18.4801L25.8688 18.5135ZM23.5281 20.2401C23.6393 20.2468 23.735 20.2357 23.8173 20.2112C23.9263 20.1801 24.0109 20.1244 24.0732 20.0599C24.0999 20.0332 24.1222 20.0021 24.1422 19.9709L24.0955 19.962C23.6549 19.8819 23.5392 19.8775 23.5281 19.942C23.5192 20.0087 23.5236 20.1111 23.5303 20.2401H23.5281ZM26.7389 16.6266C26.8234 16.6422 26.9146 16.6644 27.0148 16.6934L27.0192 16.6956C27.2128 16.7512 27.3619 16.7935 27.4798 16.8224C27.6333 16.7979 27.7691 16.7 27.8848 16.4553C27.9893 16.235 28.045 16.0036 28.0939 15.8056C28.1451 15.5919 28.1896 15.405 28.2653 15.2671C28.0717 15.3405 27.9181 15.4473 27.8914 15.6988C27.8314 16.2394 27.5154 16.3262 27.1727 16.4219C27.0237 16.4642 26.8657 16.5065 26.7411 16.6288L26.7389 16.6266ZM24.6317 16.4798C24.8142 15.9101 25.0789 15.8768 25.3682 15.8389C25.5306 15.8189 25.7042 15.7967 25.8599 15.5274L25.9979 15.2893C26.3917 14.5996 26.434 14.5261 27.1305 14.6841C27.4153 14.7486 27.6267 14.7865 27.7602 14.7175C27.8647 14.6641 27.9515 14.535 28.0272 14.2836C27.5844 14.1879 27.057 14.1301 26.6498 14.2213C26.3628 14.2858 26.1381 14.4282 26.0602 14.693C26.0246 14.8109 26.0001 14.9111 25.9801 14.9912C25.9356 15.167 25.9111 15.2626 25.8377 15.3338C25.7554 15.4139 25.6397 15.4295 25.3905 15.4629L25.2414 15.4829C25.0878 15.5052 24.9588 15.5786 24.8564 15.6854C24.7697 15.7789 24.7029 15.8968 24.6651 16.0281C24.625 16.1638 24.6139 16.3129 24.6317 16.4664L24.6339 16.4775L24.6317 16.4798ZM28.9795 13.3646C29.0173 13.358 29.0507 13.3446 29.073 13.3157C29.1442 13.2222 29.2131 13.1377 29.2932 13.062C29.1019 13.0887 28.9973 13.1444 28.9862 13.2934L28.9817 13.3624V13.3646H28.9795ZM31.2736 11.7603C31.2246 11.7915 31.1912 11.8338 31.1801 11.885C31.1645 11.9673 31.189 12.0674 31.2135 12.1631C31.2268 12.212 31.238 12.2632 31.2469 12.3144C31.2558 12.3745 31.2602 12.4323 31.2535 12.488C31.2869 12.4635 31.3136 12.4346 31.3403 12.4056C31.3337 12.2743 31.3092 12.0963 31.2891 11.9806C31.2691 11.8649 31.2713 11.8271 31.2758 11.7603H31.2736ZM28.4522 14.0989C28.6168 14.05 28.6969 13.9209 28.7392 13.7652C28.6302 13.7763 28.5256 13.8364 28.4522 14.0989ZM30.9064 12.6281C31.0622 12.548 31.0822 12.4501 31.0644 12.3455C31.0577 12.3055 31.0466 12.2588 31.0355 12.212C31.0066 12.0941 30.9754 11.9717 30.9999 11.8427C31.0333 11.6758 31.1734 11.5801 31.3403 11.5245C31.5072 11.2308 31.8254 11.124 32.6776 11.2375C33.5298 11.3509 33.265 11.3131 33.3896 10.9015L33.4119 10.828C33.2739 10.9371 33.0314 10.986 32.6175 10.9348C32.0835 10.8681 31.6385 10.8325 31.2825 10.8347C31.1401 10.8948 31.0266 10.9994 30.9643 11.1818C30.8664 11.4733 30.8553 11.6602 30.8464 11.7893C30.8352 11.9606 30.8286 12.0652 30.7195 12.1787L30.704 12.192C30.6283 12.261 30.517 12.3099 30.3279 12.3656C30.2834 12.508 30.1966 12.6304 30.0476 12.7194C30.2434 12.6815 30.4837 12.6548 30.7885 12.637C30.8308 12.6348 30.8686 12.6304 30.9064 12.6237V12.6281ZM35.7527 9.83343C35.6303 9.82008 35.5235 9.84678 35.4545 9.93801C35.4056 10.0003 35.3522 10.0493 35.2988 10.0893C35.341 10.1004 35.3878 10.1071 35.4412 10.1049C35.6258 10.1027 35.6948 9.98028 35.7527 9.83343ZM33.3763 10.0292C33.1916 10.0159 33.0447 10.0537 32.9958 10.2206C32.9001 10.5388 32.6976 10.6656 32.4462 10.7146L32.6375 10.7368C33.2339 10.8125 33.3807 10.6589 33.4008 10.4542C33.4097 10.363 33.3985 10.2562 33.3896 10.1538C33.3852 10.1116 33.3807 10.0693 33.3785 10.0292H33.3763ZM30.0743 12.4346C29.9563 12.4635 29.8184 12.4969 29.6559 12.5347L29.6181 12.5436C29.4423 12.5859 29.2866 12.6259 29.1486 12.6615L29.2154 12.6637C29.696 12.686 29.9474 12.5881 30.0743 12.4323V12.4346ZM27.4642 13.3446C27.5065 13.3268 27.5399 13.3023 27.5555 13.2712L27.5666 13.2512C27.6556 13.0865 27.7268 12.953 27.8403 12.8351C27.6022 12.8773 27.5288 13.0019 27.4798 13.289C27.4776 13.309 27.4709 13.3268 27.4665 13.3424L27.4642 13.3446ZM30.368 11.945C30.4125 11.9272 30.4436 11.9139 30.4614 11.8983L30.4681 11.8916C30.477 11.8827 30.4792 11.8382 30.4837 11.7626C30.4926 11.609 30.5081 11.3865 30.6216 11.0461C30.6394 10.9927 30.6595 10.9437 30.6817 10.897C30.4347 10.9615 30.3057 11.075 30.299 11.2508C30.2945 11.3509 30.3123 11.4778 30.3324 11.6113C30.3479 11.7203 30.3635 11.8338 30.3702 11.945H30.368ZM34.2663 9.73552L34.3486 9.7511C34.4666 9.77557 34.5867 9.80005 34.7002 9.81118C34.609 9.7422 34.4866 9.69992 34.2819 9.73107L34.2663 9.7333V9.73552ZM22.0328 32.7585C22.1841 32.4915 22.213 32.0954 21.7346 31.3789C21.2429 30.6424 21.5344 30.2085 21.9616 29.8792C22.0751 29.7902 22.1975 29.7123 22.3132 29.6389C22.5668 29.4787 22.7871 29.3363 22.727 29.2206C22.658 29.0871 22.5713 28.9514 22.4845 28.8112C22.0728 28.157 21.6278 27.4494 22.4022 26.7374L22.42 26.7196C22.3287 26.7285 22.2353 26.7396 22.1396 26.753C21.7858 26.8019 21.6768 27.0222 21.6968 27.3026C21.7191 27.6185 21.8904 28.0146 22.0751 28.3617C22.1619 28.5241 22.213 28.6777 22.2242 28.8201C22.2353 28.9803 22.1952 29.1205 22.0973 29.2339C22.0039 29.3407 21.8592 29.4186 21.6568 29.4609C21.5144 29.4898 21.3386 29.501 21.1294 29.4876C21.0627 29.5722 20.9848 29.6567 20.898 29.7368C20.4708 30.1396 20.6688 30.4755 21.0827 30.9873C21.1962 31.1253 21.323 31.2699 21.432 31.4101C21.8615 31.9241 22.1263 32.2445 22.0283 32.754L22.0328 32.7585ZM22.2486 36.1117C22.2197 36.1028 22.1908 36.0939 22.1641 36.0828C22.1997 36.5211 22.4734 36.7258 22.6981 36.8193C22.8383 36.8371 23.0096 36.8282 23.2254 36.7725C23.2855 36.757 23.3434 36.7369 23.4012 36.7125C22.9139 36.5589 22.5379 36.3498 22.2509 36.1117H22.2486ZM29.2843 45.2301C29.311 45.1477 29.3467 45.0743 29.3889 45.012C29.4779 44.8807 29.6003 44.7695 29.7182 44.6605C30.0142 44.3912 29.0752 43.4589 28.8149 43.2409C28.1763 42.7135 28.381 41.9881 29.004 41.572C29.4713 41.2605 29.2465 40.7844 28.5478 40.0167C28.7236 40.3215 28.8304 40.593 28.8638 40.8355C28.9306 41.3184 28.7414 41.6722 28.2986 41.9058L28.2853 41.9125C28.4433 42.3998 28.3921 42.7536 27.9626 42.867C28.065 43.0183 28.2163 43.1941 28.4255 43.3966C28.9617 43.9195 28.8794 44.2933 28.8104 44.6115C28.7659 44.8162 28.7281 44.9853 29.2866 45.2278L29.2843 45.2301ZM25.2302 34.1002L25.2414 34.0802C25.3571 33.871 25.2436 33.6685 25.0522 33.4594C24.9187 33.5929 24.7986 33.7041 24.7296 33.7909C24.4826 34.098 24.1444 34.4095 24.5249 34.7544C24.9054 35.0993 25.2636 35.7935 25.0166 36.352C24.8631 36.6991 24.4648 36.9728 23.9886 37.0885C23.9686 37.1063 23.9508 37.1219 23.9308 37.1352C23.8284 37.2153 23.7305 37.3155 23.6816 37.4312C23.6571 37.489 23.646 37.5535 23.6527 37.6203C23.6593 37.6937 23.6905 37.776 23.7506 37.8673C23.9019 38.0965 24.2267 38.3612 24.8164 38.6527C25.0411 38.764 25.2369 38.8686 25.4083 38.9665C25.3593 38.5615 25.0923 38.112 24.7674 37.9718C24.318 37.7783 24.3002 37.5068 24.8431 37.1219C24.8587 37.0774 24.8831 37.0306 24.9098 36.9861C25.0011 36.8371 25.1546 36.6991 25.3504 36.5211L25.5306 36.3542C25.6152 36.2763 25.6842 36.1562 25.7398 36.0093C25.6686 35.7112 25.4327 35.4219 25.2747 35.2038C24.9699 34.7855 24.9187 34.3005 25.2302 34.098V34.1002ZM24.1667 31.3923C24.1733 31.2009 24.1911 31.0073 24.2156 30.8249C24.1555 30.4689 24.2201 30.1529 24.5071 29.8814C24.5249 29.8592 24.5449 29.8436 24.5649 29.8303C24.5939 29.808 24.6228 29.7858 24.6539 29.7635C24.921 29.5121 24.872 29.0537 24.6139 28.5642C24.7986 29.4119 24.8409 29.8036 24.1845 30.0261C23.9352 30.1106 23.824 30.2308 23.8218 30.4066C23.8195 30.6313 23.9441 30.9539 24.1667 31.3923ZM24.3847 27.3938C24.4448 27.2781 24.5293 27.1668 24.6384 27.0534C24.8742 26.8019 24.8943 26.4637 24.8231 26.1567C24.7697 26.3658 24.6762 26.506 24.5827 26.6462C24.467 26.8197 24.3536 26.9911 24.3847 27.3938ZM24.4604 25.2488C24.4515 25.1999 24.4448 25.1487 24.4448 25.0975C24.3002 25.1754 24.1822 25.2577 24.0865 25.3445L24.0576 25.3712C24.14 25.6738 24.2445 25.8807 24.3224 26.0343C24.3536 26.0966 24.3825 26.1544 24.407 26.2078C24.4848 26.0454 24.5293 25.8273 24.4782 25.4446C24.4693 25.3779 24.4626 25.3133 24.4604 25.251V25.2488ZM23.7906 25.7406C23.7172 25.9074 23.6994 26.0632 23.7038 26.1878C23.715 26.5104 23.4569 26.6039 23.0519 26.6573C22.9762 26.7329 22.8806 26.8219 22.7604 26.931L22.6425 27.04C22.1151 27.5229 22.4645 28.0791 22.7871 28.5909C22.8828 28.7422 22.974 28.8891 23.0474 29.0292C23.2788 29.4809 22.9162 29.7123 22.5001 29.9793C22.3888 30.0483 22.2753 30.1218 22.1752 30.1996C21.9037 30.4088 21.7191 30.6847 22.0306 31.1497C22.9006 32.4536 22.4111 32.961 22.0528 33.3325C22.0128 33.3748 21.9727 33.4149 21.9393 33.4572C21.8815 33.5261 21.8081 33.7286 21.7747 34.009C21.7458 34.2493 21.7524 34.5385 21.8348 34.83C21.9171 35.1215 22.0751 35.4197 22.3465 35.6867C22.6625 35.9937 23.1342 36.2585 23.8195 36.421C23.9619 36.2719 24.071 36.0961 24.14 35.9159C24.1244 35.551 22.5401 34.8189 23.0118 34.2026C23.1965 33.8577 23.6527 33.6174 23.9797 33.3993C24.6384 32.961 23.7305 31.9864 23.5503 31.8084C22.1351 30.4088 21.0582 31.2387 23.7417 29.3519C23.8685 29.2629 23.8507 29.1071 23.5525 28.6154C22.8027 27.3827 23.2366 27.0823 23.9085 26.6239L23.933 26.6083C24.1288 26.4748 24.0932 26.4036 24.002 26.219C23.9397 26.0966 23.864 25.943 23.7906 25.7406ZM23.2432 26.4237C23.4212 26.3814 23.5236 26.3169 23.5192 26.1945C23.5125 26.0031 23.5481 25.7495 23.7105 25.4936C23.6749 25.369 23.6438 25.2288 23.6171 25.073C23.5659 24.766 23.5859 24.5568 23.6504 24.4122C23.4034 24.6102 23.2076 24.8617 23.2432 25.2488C23.261 25.4424 23.2811 25.5959 23.2966 25.7183C23.3322 25.9875 23.3523 26.1388 23.2989 26.3013C23.2855 26.3436 23.2655 26.3836 23.2432 26.4237ZM24.0064 25.1576C24.1288 25.053 24.2824 24.9529 24.4715 24.8617C24.496 24.6747 24.5494 24.5168 24.6161 24.381C24.5338 24.4077 24.4426 24.4233 24.3513 24.4411C24.1266 24.4834 23.8952 24.5279 23.9753 25.0018C23.9842 25.0552 23.9931 25.1064 24.0042 25.1554L24.0064 25.1576ZM25.9912 41.9859C26.1047 42.0638 26.2493 42.1216 26.4162 42.1372C26.3361 42.0682 26.2627 41.9904 26.1982 41.9103C26.0135 41.6766 25.8978 41.4052 25.8421 41.1493C25.8043 40.9802 25.7932 40.8155 25.8065 40.6687C25.7776 40.7332 25.7554 40.8044 25.742 40.8845C25.6463 41.4697 25.831 41.8079 25.9934 41.9837L25.9912 41.9859ZM26.434 39.8876C26.6432 39.763 26.8012 39.6206 26.7656 39.3292L26.7567 39.3158C26.5252 38.9487 26.0825 38.5615 25.5729 38.1988C25.5306 38.1699 25.4928 38.141 25.455 38.112C25.5151 38.2455 25.6063 38.3813 25.722 38.5125C25.8866 38.6972 25.9423 38.9998 25.8955 39.2824C26.1025 39.4315 26.2382 39.565 26.3228 39.6829C26.3739 39.7564 26.4095 39.8231 26.4318 39.8876H26.434ZM26.908 39.7052C26.8234 39.8765 26.6543 39.9878 26.4629 40.0946C26.4496 40.2481 26.3561 40.3772 26.2315 40.4906C26.216 40.5062 26.2004 40.5351 26.1893 40.573C26.1537 40.6909 26.1537 40.8667 26.1959 41.0603C26.2404 41.2605 26.3294 41.4741 26.4741 41.6544C26.5653 41.7701 26.681 41.8746 26.819 41.9548C26.6276 41.7678 26.4985 41.5898 26.4229 41.4207C26.2137 40.9601 26.3561 40.5685 26.7411 40.1725C26.879 40.0301 26.928 39.8721 26.9102 39.7052H26.908ZM24.9388 39.6985C25.0011 39.6874 25.0723 39.6607 25.1568 39.6117C25.248 39.5583 25.3126 39.4805 25.3548 39.387C25.1724 39.278 24.9499 39.1578 24.6829 39.0243C24.5827 39.4449 24.7808 39.6251 24.941 39.6985H24.9388ZM26.4207 36.8059C26.2182 37.0596 25.9 37.2687 25.6708 37.3689C25.544 37.4245 25.4617 37.5024 25.4172 37.598C25.5062 37.6737 25.6241 37.7649 25.7732 37.8717C25.9467 37.9941 26.1114 38.1209 26.2671 38.25C26.1181 37.9273 26.236 37.8294 26.3739 37.5602C26.4896 37.3333 26.5119 37.0996 26.4207 36.8059ZM27.2907 39.7786C27.2929 40.0145 27.2017 40.2437 26.9947 40.4595C26.7344 40.731 26.6298 40.9824 26.75 41.2516C26.8345 41.4385 27.0103 41.641 27.2929 41.8724C27.3107 41.8613 27.3263 41.8479 27.3441 41.8346C27.9738 41.3584 27.7668 40.5797 27.2907 39.7786ZM28.1518 41.5409C28.421 41.3918 28.5367 41.176 28.4967 40.8912C28.4477 40.5418 28.1963 40.0879 27.7424 39.525C27.551 39.2891 27.3953 39.0532 27.2729 38.8196C27.3886 39.3358 27.6356 39.8565 27.9738 40.2081C28.6502 40.9112 28.0005 40.8912 28.1518 41.5409ZM23.7261 34.8145C23.7261 34.8278 23.7261 34.8389 23.7283 34.8501C23.7483 34.968 23.9152 35.0904 24.1511 35.2439C24.1689 35.255 24.1845 35.2661 24.2 35.2795C24.1644 35.1415 24.091 35.0281 23.9708 34.9635C23.8907 34.919 23.8062 34.8701 23.7239 34.8145H23.7261ZM24.0242 27.0155C23.5904 27.3181 23.3434 27.5585 23.8574 28.404C24.318 29.1627 24.2801 29.4476 23.9419 29.6856C23.9174 29.7034 23.8907 29.7212 23.8618 29.7368C23.9241 29.7034 23.9931 29.6745 24.071 29.65C24.447 29.5232 24.3758 29.2006 24.2156 28.473C24.1711 28.2705 24.1199 28.0413 24.0665 27.7565C24.0064 27.4383 23.9998 27.2024 24.0265 27.0178L24.0242 27.0155ZM24.1311 24.0873C24.1822 24.0762 24.2356 24.0651 24.289 24.0562C24.4871 24.0183 24.6784 23.9827 24.6272 23.649C24.6228 23.6223 24.6206 23.5978 24.6161 23.5733C24.5405 23.7936 24.3513 23.9427 24.1288 24.0895L24.1311 24.0873ZM31.0822 45.7841C31.0221 45.7463 30.9665 45.7085 30.9153 45.6684C30.8174 45.5905 30.7373 45.5082 30.6728 45.4214C30.5838 45.6172 30.5304 45.951 30.8441 46.3782C31.1312 46.2247 31.1089 45.9198 31.0822 45.7841ZM30.5571 46.4605C30.1432 45.8308 30.3746 45.3391 30.5237 45.1255C30.4903 45.0142 30.4837 44.903 30.4992 44.794C30.5148 44.6805 30.5593 44.5715 30.6283 44.4691C30.764 44.2711 30.8464 44.0797 30.8419 43.9106C30.8375 43.7571 30.7529 43.6058 30.5504 43.4634C30.3413 43.3143 30.1744 43.134 30.0654 42.9138C30.101 43.2653 30.2567 43.6614 30.5037 43.9885C30.6884 44.231 30.4636 44.5091 30.2322 44.6827C30.1566 44.7851 30.0565 44.8741 29.9563 44.9675C29.854 45.061 29.7494 45.1566 29.6849 45.2523C29.6181 45.348 29.5847 45.5082 29.5936 45.6795C29.6003 45.7975 29.6248 45.9176 29.6737 46.0289C29.7205 46.1357 29.7917 46.2336 29.8873 46.3115L29.8962 46.3181C30.032 46.4227 30.2211 46.485 30.4725 46.4717C30.5037 46.4694 30.5326 46.4672 30.5615 46.465L30.5571 46.4605ZM33.2806 45.862C33.0737 45.7841 32.7466 45.6996 32.2482 45.6617C31.1912 45.5794 31.2202 45.2902 31.2602 44.6783C31.3003 44.0664 31.9233 43.8172 31.3559 43.2275C30.9287 42.7825 30.5282 42.3108 30.2901 42.2796C30.2901 42.3708 30.299 42.4532 30.3146 42.531C30.3702 42.7825 30.5237 42.9761 30.744 43.1318C31.0577 43.3543 31.1935 43.6147 31.2024 43.8973V43.8995C31.209 44.1665 31.1 44.4357 30.9198 44.7027C30.8864 44.7517 30.8664 44.8029 30.8597 44.8563C30.8486 44.9275 30.8619 45.0053 30.902 45.081C30.9465 45.1722 31.0221 45.2635 31.1334 45.3502C31.1868 45.3925 31.2491 45.4348 31.3181 45.4726L31.3203 45.4748L31.3248 45.4771L31.3292 45.4793C31.5384 45.595 31.8165 45.6929 32.1636 45.753C32.5508 45.8219 32.7889 46.0089 32.9023 46.2269C32.9602 46.3382 32.9869 46.4583 32.9824 46.574C32.9802 46.6274 32.9735 46.6786 32.9602 46.7298C33.1137 46.6853 33.2339 46.6141 33.3162 46.5273C33.383 46.4561 33.423 46.3738 33.4364 46.2892C33.4497 46.2047 33.4364 46.1112 33.3896 46.02C33.3629 45.9666 33.3273 45.9132 33.2806 45.862ZM54.8038 21.998C54.5569 21.8667 54.3455 21.731 54.2498 21.5173C54.2476 21.5418 54.2476 21.5685 54.2431 21.593C54.212 21.929 54.4189 21.9512 54.6325 21.9757C54.6904 21.9824 54.746 21.9891 54.8038 21.9957V21.998ZM55.1287 24.9106C55.171 25.0931 55.1821 25.3289 55.1398 25.6516C55.102 25.9408 55.0642 26.1722 55.033 26.3769C54.9151 27.1134 54.8617 27.4405 55.2711 27.5407C55.3557 27.5607 55.4291 27.5852 55.4981 27.6141C55.4669 27.6007 55.438 27.5852 55.4091 27.5696C55.033 27.356 54.9729 27.0734 55.4068 26.2857C55.8897 25.4068 55.6115 25.1821 55.1287 24.9128V24.9106ZM53.4688 21.1969C53.4888 21.2637 53.4999 21.3349 53.4977 21.4039C53.4955 21.5218 53.6312 21.6375 53.7937 21.7755L53.8604 21.8311C53.8515 21.7532 53.8515 21.662 53.8604 21.5574C53.8715 21.435 53.8649 21.3416 53.8471 21.2681C53.7314 21.237 53.6023 21.2125 53.4688 21.1947V21.1969ZM56.0076 32.6717C55.9253 32.734 55.8585 32.7763 55.7562 32.8386C55.6538 32.8987 55.5648 33.0277 55.5359 33.1679C55.5515 33.1545 55.5693 33.1412 55.5849 33.1301C55.8252 32.9587 55.9943 32.8275 56.0054 32.7073C56.0054 32.6962 56.0054 32.6828 56.0054 32.6717H56.0076ZM51.7978 39.6941C51.9135 39.0354 51.3928 38.9131 51.8912 38.3523C52.3919 37.7916 52.4497 37.4401 52.5343 36.9194C52.4208 37.1597 52.2717 37.4067 52.087 37.6559C51.6442 38.25 51.4106 38.7217 51.3839 39.0733C51.3616 39.3603 51.4996 39.5672 51.7955 39.6963L51.7978 39.6941ZM52.5832 37.8739C52.136 38.7061 52.314 39.7074 52.6744 39.9277C53.0349 40.148 52.7123 39.9499 52.7323 39.9611C53.0149 39.7119 53.1862 39.496 53.2619 39.3047C53.3731 39.0265 53.2441 38.784 52.9459 38.5303C52.71 38.3301 52.5988 38.1076 52.5832 37.8717V37.8739ZM53.2908 34.8478C53.2151 35.1482 53.2418 35.3574 53.3931 35.5977C53.5467 35.8358 53.6913 35.947 53.5556 36.2786C53.7091 36.1406 53.876 36.0026 54.0518 35.8669C54.2031 35.749 54.321 35.6511 54.41 35.5688C54.3566 35.4753 54.3188 35.4219 54.1252 35.3574C53.9316 35.2928 53.5222 35.0881 53.2886 34.8478H53.2908ZM55.0686 37.6292C55.2311 37.5446 55.4291 37.351 55.2934 36.9394C55.0197 37.0907 54.7927 37.2264 54.6058 37.3488C54.6548 37.4401 54.7349 37.5135 54.8305 37.558C54.9284 37.6025 55.0019 37.6225 55.0686 37.6292ZM52.9815 37.776C52.9726 37.9429 53.0371 38.0965 53.1929 38.23C53.6268 38.5993 53.807 38.9798 53.6201 39.4538C53.5511 39.6295 53.4243 39.8142 53.2374 40.0145C53.3798 39.9255 53.4933 39.812 53.5823 39.6896C53.7202 39.4983 53.8026 39.2802 53.8337 39.0777C53.8649 38.8819 53.8515 38.7061 53.8048 38.5904C53.7892 38.5526 53.7714 38.5259 53.7536 38.5103C53.6134 38.4057 53.5044 38.2834 53.4799 38.1321C53.2708 38.0364 53.0816 37.9407 52.9815 37.7738V37.776ZM53.4977 37.9251C53.5177 37.8606 53.5511 37.7894 53.6001 37.7137C53.6802 37.5914 53.8159 37.449 54.0228 37.2843C53.9539 37.0062 54.0139 36.6724 54.1519 36.5055C54.2898 36.3386 54.3544 36.2229 54.4078 36.0872C54.37 36.1184 54.3299 36.1495 54.2899 36.1807C53.7736 36.5789 53.3331 36.995 53.115 37.38L53.1083 37.3933C53.0905 37.687 53.2708 37.8161 53.4999 37.9251H53.4977ZM54.1185 39.9855C54.2787 39.7964 54.4478 39.4471 54.3054 38.8708C54.2854 38.7907 54.2565 38.7217 54.2231 38.6594C54.2453 38.804 54.2453 38.9687 54.2186 39.14C54.1764 39.4004 54.074 39.6785 53.8938 39.9255C53.8315 40.01 53.7603 40.0924 53.6802 40.168C53.856 40.1391 54.005 40.0723 54.1185 39.9855ZM55.013 23.0593C55.0197 23.0104 55.0264 22.957 55.033 22.9036C55.0842 22.4252 54.8328 22.3985 54.5925 22.3718C54.4946 22.3607 54.3989 22.3495 54.3077 22.3295C54.39 22.4608 54.4567 22.6143 54.4968 22.799C54.7037 22.8769 54.875 22.9659 55.013 23.0593ZM55.9142 24.2676C55.8875 24.2297 55.8652 24.1919 55.8452 24.1496C55.7762 23.9894 55.7851 23.8403 55.8051 23.5667C55.814 23.4443 55.8252 23.2907 55.8296 23.0949C55.8407 22.7055 55.6138 22.4697 55.3379 22.2895C55.418 22.4274 55.4536 22.6343 55.4202 22.9459C55.4024 23.1038 55.3801 23.2462 55.3512 23.3731C55.5426 23.6178 55.5982 23.867 55.6049 24.0584C55.6093 24.1808 55.7228 24.2386 55.9142 24.2676ZM55.2845 23.6245C55.2222 23.8314 55.151 23.9894 55.0953 24.1162C55.0108 24.3076 54.9774 24.381 55.1955 24.5012L55.2222 24.5168C55.9676 24.9262 56.4482 25.1976 55.7428 26.4793C55.4625 26.9911 55.4558 27.1468 55.596 27.2269C55.6739 27.2714 55.794 27.3137 55.9386 27.3649C56.0855 27.416 56.2568 27.4761 56.4482 27.5629C56.9533 27.7899 55.9119 28.1592 56.4037 28.7244C57.1936 29.2873 56.4682 29.5099 56.2079 30.0149C56.1011 30.2197 56.1122 30.4199 56.417 30.5823C56.7797 30.7759 56.0343 31.597 56.2546 31.9285C56.4015 32.151 56.506 32.3869 56.555 32.6094C56.7753 33.6285 56.3325 33.7998 55.6472 33.7998C55.7317 33.9734 55.8608 34.1425 56.0232 34.2804C56.7374 34.0713 57.2181 33.7731 57.5318 33.4438C57.801 33.159 57.9479 32.8519 58.0124 32.5538C58.0792 32.2556 58.0658 31.9686 58.0169 31.7283C57.9612 31.4524 57.8678 31.2543 57.8033 31.1898C57.7632 31.152 57.7187 31.1141 57.6742 31.0741C57.267 30.7292 56.7107 30.2575 57.5407 28.8935C57.8366 28.4062 57.6208 28.1459 57.3182 27.9567C57.2069 27.8855 57.0801 27.821 56.9577 27.7587C56.4971 27.5229 56.0944 27.3159 56.3102 26.8509C56.377 26.7062 56.466 26.5505 56.555 26.3947C56.8598 25.8607 57.1914 25.2822 56.5973 24.8372L56.4638 24.737C56.328 24.6369 56.2212 24.5568 56.1344 24.4856C55.7006 24.4611 55.4202 24.3877 55.4091 24.0628C55.4046 23.9382 55.3757 23.7825 55.2845 23.6223V23.6245ZM52.6077 20.2446C52.7278 20.3247 52.888 20.4404 53.0394 20.5828C53.0282 20.525 53.0216 20.4582 53.0238 20.3803C53.0349 20.0822 52.9971 19.833 52.8791 19.6461C52.7679 19.4658 52.5721 19.3301 52.2628 19.25L52.0892 19.2077C51.3861 19.0319 51.0323 18.9451 50.8054 17.9505C50.7431 17.6746 50.5918 17.5033 50.4227 17.3943C50.3426 18.1597 50.2691 18.825 50.9389 19.0475C51.6086 19.27 52.6678 19.3167 52.6722 19.6928C52.6767 20.0688 52.6433 20.0577 52.6077 20.2468V20.2446ZM52.5254 20.7519C52.5476 20.7519 52.5899 20.7519 52.6477 20.7519C52.6099 20.723 52.5721 20.6941 52.5365 20.6674C52.532 20.6963 52.5298 20.723 52.5276 20.7519H52.5254ZM53.2708 21.8266C53.1662 21.7065 53.1017 21.5752 53.1061 21.395C53.1083 21.3171 53.0794 21.237 53.0349 21.1591C52.8213 21.1458 52.6411 21.1458 52.561 21.1458C52.5877 21.2081 52.5498 21.2081 52.6856 21.2993C52.8213 21.3905 53.046 21.6242 53.273 21.8266H53.2708ZM54.5391 23.1817C54.5391 23.244 54.5368 23.3085 54.5324 23.3753C54.5057 23.7602 54.5702 23.9761 54.6637 24.1318C54.6859 24.0784 54.7126 24.0183 54.7415 23.9538C54.8127 23.7936 54.9062 23.58 54.9729 23.2729L54.9418 23.2485C54.835 23.1706 54.7037 23.0949 54.5435 23.0282C54.5457 23.0794 54.5435 23.1305 54.5391 23.1817ZM54.7749 25.3156C54.7794 24.9106 54.6459 24.7482 54.5124 24.5835C54.4056 24.45 54.2943 24.3165 54.2209 24.1118C54.1675 24.4255 54.2854 24.8216 54.4812 24.9929C54.677 25.1643 54.7037 25.2043 54.7749 25.3156ZM55.2956 29.2873C55.5003 28.8334 55.6115 28.5019 55.5915 28.2794C55.5759 28.1036 55.4491 27.9901 55.1799 27.9256C54.4679 27.752 54.4834 27.356 54.6192 26.4971C54.3811 27.0022 54.3633 27.465 54.6637 27.6964C54.697 27.7164 54.7304 27.7365 54.7616 27.7587C54.7838 27.7698 54.8061 27.7854 54.8261 27.8054C55.151 28.0569 55.2422 28.3684 55.2044 28.7266C55.2444 28.9069 55.2756 29.0982 55.2956 29.2873ZM54.3633 32.0643C54.7059 32.2445 54.6169 32.8364 54.3944 33.1701C54.1719 33.5039 54.0139 33.7019 53.9583 34.0067C54.0295 34.1492 54.1096 34.2649 54.2053 34.3361L54.41 34.4896C54.6303 34.6542 54.8038 34.7811 54.9106 34.9235C54.944 34.968 54.9707 35.0125 54.993 35.0548C55.596 35.3997 55.5337 35.7045 55.1354 35.8958C54.7371 36.0894 54.5502 36.5255 54.5279 36.9327C54.7015 36.8237 54.9017 36.7058 55.1332 36.5789C55.7362 36.2452 56.061 35.9604 56.2057 35.7201C56.2635 35.6244 56.288 35.5421 56.2902 35.4686C56.2924 35.3997 56.2769 35.3373 56.2457 35.2817C56.1856 35.1705 56.0721 35.0748 55.9587 35.0036C55.9364 34.9902 55.9142 34.9747 55.8941 34.9591C55.3801 34.8768 54.9974 34.7344 54.7527 34.296C54.5057 33.8577 54.7816 33.0388 55.1576 32.6672C55.5359 32.2957 55.0531 31.904 54.8706 31.7194C54.6881 31.5347 54.6548 31.5347 54.5057 31.4123C54.3188 31.6348 54.2164 31.8417 54.3499 32.0442L54.3633 32.0643ZM51.0835 15.1492C51.088 15.1447 51.0902 15.1403 51.088 15.1336C51.0768 15.0935 51.0813 15.1136 51.0835 15.1492ZM57.6675 33.8599C57.3805 34.118 56.9956 34.3539 56.4905 34.5408C56.5505 34.5608 56.5327 34.563 56.6796 34.5875C56.8287 34.612 57.0935 34.6231 57.2403 34.5964C57.4739 34.4874 57.7476 34.2649 57.7543 33.8243C57.7254 33.8376 57.6965 33.8488 57.6653 33.8599H57.6675ZM47.1117 12.7216C47.5011 13.0732 48.113 13.5404 48.4891 13.4203L48.5425 13.4047C48.2977 13.3112 48.073 13.151 47.9172 12.8262C47.7236 12.4257 47.5323 12.212 47.3164 12.1164C47.2297 12.0785 47.1384 12.0585 47.0361 12.0518C47.0539 12.083 47.0672 12.0785 47.0561 12.1497C47.045 12.2209 47.045 12.4924 47.1117 12.7216ZM57.6564 30.5C57.5162 29.9971 57.7721 29.6589 58.1904 29.116C58.295 28.9692 58.4218 28.8134 58.5309 28.671C58.9314 28.1325 59.1183 27.781 58.6377 27.4116C58.5398 27.3359 58.453 27.2603 58.3751 27.178C58.1548 27.2047 57.9679 27.2069 57.8144 27.1869C57.5985 27.1602 57.4383 27.0934 57.3315 26.9933C57.2181 26.8865 57.1669 26.7485 57.1669 26.5883C57.1669 26.4459 57.2114 26.2879 57.2915 26.121C57.4628 25.7628 57.6164 25.3556 57.6164 25.0374C57.6164 24.7548 57.4851 24.5457 57.1068 24.519C57.0045 24.5123 56.9043 24.5079 56.8064 24.5056L56.8264 24.5212C57.6987 25.1754 57.2781 25.9141 56.8887 26.595C56.8064 26.7396 56.7263 26.882 56.6618 27.02C56.6062 27.1401 56.8509 27.2647 57.1313 27.4094C57.2603 27.4761 57.3938 27.5451 57.5207 27.623C57.9968 27.9234 58.3373 28.3328 57.8678 29.1027C57.4139 29.8503 57.4739 30.2441 57.652 30.5H57.6564ZM41.0728 8.33594C40.9594 8.22469 40.7858 8.14904 40.4765 8.17129C39.9848 8.20912 39.5353 8.92114 39.8802 9.18815L39.8824 9.18593C39.8847 9.1837 40.4676 8.59628 41.0728 8.33594ZM43.0309 8.39825L43.0153 8.39602C42.7973 8.37822 42.6705 8.42717 42.577 8.50505C42.6949 8.48503 42.8218 8.45165 42.9441 8.4205L43.0309 8.39825ZM46.749 10.4186C46.749 10.3051 46.7579 10.1917 46.7646 10.0826C46.7757 9.94913 46.7846 9.8223 46.7735 9.72217C46.7535 9.54862 46.6089 9.44181 46.3418 9.39509C46.3685 9.43959 46.393 9.48631 46.4153 9.53972C46.5621 9.87125 46.5933 10.0915 46.6133 10.2451C46.6244 10.3185 46.6289 10.3652 46.6378 10.3719L46.6445 10.3786C46.6645 10.3919 46.6979 10.4053 46.7468 10.4186H46.749ZM49.9287 11.6113C49.922 11.5957 49.9153 11.5779 49.9087 11.5579C49.8375 11.2731 49.7485 11.1551 49.4948 11.1307C49.6216 11.2419 49.7084 11.3687 49.813 11.5267L49.8263 11.5445C49.8464 11.5734 49.882 11.5957 49.9287 11.6113ZM47.0962 10.8881C47.2408 11.035 47.5145 11.1129 48.0218 11.0594L48.093 11.0505C47.9439 11.0238 47.7748 10.9949 47.5857 10.966L47.5456 10.9593C47.3698 10.9326 47.223 10.9104 47.0962 10.8881ZM43.4203 8.72088C43.4203 8.76094 43.4181 8.80321 43.4181 8.84549C43.4136 8.95007 43.4114 9.05687 43.427 9.1481C43.4648 9.35281 43.6317 9.49299 44.2569 9.37728L44.4572 9.34168C44.188 9.30831 43.9632 9.19928 43.8386 8.88777C43.7741 8.72533 43.6161 8.69863 43.4203 8.72311V8.72088ZM41.46 8.60073C41.5334 8.74536 41.6135 8.86107 41.8093 8.84994C41.8672 8.84771 41.9162 8.83659 41.9607 8.82324C41.8984 8.78764 41.8405 8.74314 41.7849 8.68306C41.7048 8.59628 41.5913 8.57625 41.46 8.59851V8.60073ZM43.2468 9.2371C43.2423 9.2193 43.2379 9.2015 43.2356 9.1837C43.2156 9.07245 43.2201 8.95452 43.2223 8.84104L43.2245 8.75871C43.1644 8.77206 43.1021 8.78986 43.0398 8.80544C42.7617 8.87887 42.4747 8.95229 42.2188 8.91224C42.1253 8.98567 42.0029 9.03685 41.8205 9.04797C41.4845 9.068 41.3777 8.87664 41.2709 8.65858C40.9238 8.79876 40.5232 9.13253 40.3074 9.32833C40.4654 9.33278 40.4276 9.38396 40.8192 9.23043C41.2108 9.0769 41.0194 8.72088 41.6892 9.2015C42.3612 9.6799 42.4346 9.50634 42.8062 9.35503C43.1756 9.20373 43.1644 9.21708 43.2468 9.23933V9.2371ZM46.2261 11.1373C46.2662 11.1418 46.3085 11.1418 46.353 11.1418C46.6778 11.1373 46.9359 11.1462 47.1451 11.1707C46.9804 11.0928 46.8803 10.9749 46.8225 10.8369C46.6178 10.7947 46.4954 10.7524 46.4108 10.6901L46.393 10.6767C46.2684 10.5722 46.2528 10.4676 46.2306 10.2985C46.2128 10.1694 46.1861 9.98251 46.0615 9.69992C45.9836 9.52192 45.8546 9.42624 45.6988 9.37506C45.3228 9.39731 44.851 9.46406 44.2903 9.56864C43.8542 9.65097 43.5939 9.61759 43.4403 9.51747L43.4693 9.59089C43.6295 9.99141 43.3513 10.0493 44.248 9.8757C45.1448 9.70215 45.4896 9.7867 45.6854 10.0671C45.8657 10.1093 46.0214 10.1961 46.0682 10.3608C46.1038 10.4876 46.0815 10.6122 46.057 10.7324C46.0481 10.7791 46.0392 10.8258 46.0348 10.8659C46.0259 10.9704 46.0526 11.0661 46.2239 11.1351L46.2261 11.1373ZM48.9341 12.4301C48.8362 12.172 48.7205 12.1208 48.6048 12.1186C48.6604 12.2699 48.7538 12.3945 48.9341 12.4301ZM48.4045 12.1319C48.2465 12.1408 48.093 12.1253 47.9417 11.9651C47.8082 11.8227 47.6925 11.7114 47.49 11.6424C47.2675 11.5645 46.9315 11.5267 46.3574 11.5356C46.1572 11.5378 45.9903 11.5134 45.8501 11.4689C45.879 11.5267 45.9124 11.5757 45.9569 11.6157C46.1149 11.7003 46.2818 11.747 46.442 11.7158C46.8358 11.6357 47.1651 11.6202 47.4677 11.7537C47.7704 11.8872 48.0262 12.1586 48.2643 12.6526C48.4334 13.0042 48.7694 13.0754 49.0787 13.1421C49.161 13.1599 49.2434 13.1777 49.3212 13.1978C49.2033 13.0754 49.101 12.8974 49.0075 12.6459C48.6448 12.637 48.4868 12.4123 48.4045 12.1319ZM45.7745 10.2962C45.7834 10.363 45.79 10.403 45.7767 10.5188C45.7633 10.6345 45.7522 10.8147 45.7544 10.946C45.7834 10.9727 45.8145 10.9994 45.8523 11.0216C45.8412 10.966 45.8412 10.9081 45.8457 10.8481C45.8501 10.7947 45.8612 10.7457 45.8701 10.6945C45.8879 10.5966 45.908 10.4965 45.8835 10.4142C45.8679 10.363 45.8301 10.3229 45.7745 10.2962ZM48.3222 11.7359V11.7336L48.311 11.6647C48.2866 11.5178 48.1731 11.4689 47.9684 11.4555C48.0596 11.5245 48.1375 11.6046 48.2198 11.6936C48.2443 11.7203 48.2799 11.7314 48.3222 11.7359ZM53.1573 14.535V14.5239C53.1662 14.3704 53.1417 14.2213 53.0905 14.09C53.0394 13.961 52.9615 13.8475 52.8636 13.7607C52.7501 13.6606 52.6055 13.5983 52.4408 13.5871L52.2806 13.5782C52.0136 13.5627 51.8912 13.556 51.7978 13.4803C51.7154 13.4136 51.6821 13.3201 51.622 13.1488C51.5953 13.0709 51.5597 12.973 51.5152 12.8573C51.4128 12.6014 51.1658 12.4746 50.8565 12.4301C50.4182 12.3678 49.8642 12.4635 49.4013 12.5903C49.4992 12.8351 49.5994 12.9597 49.7151 13.0042C49.8642 13.062 50.0822 13.0108 50.3804 12.9263C51.108 12.7194 51.1569 12.7883 51.6242 13.4492L51.7866 13.6761C51.9713 13.932 52.1582 13.9432 52.3295 13.9521C52.6366 13.9676 52.9192 13.9832 53.1551 14.5395L53.1573 14.535ZM49.0164 14.0744C48.9341 13.8519 48.8428 13.7206 48.6048 13.7985C48.4134 13.8608 48.1953 13.8297 47.9706 13.7474C48.0084 13.8052 48.0418 13.8631 48.0663 13.9209C48.3489 13.912 48.7138 13.9365 49.0142 14.0767L49.0164 14.0744ZM50.9344 14.831C50.7942 14.7197 50.6229 14.6863 50.4605 14.6552C50.0889 14.584 49.7485 14.5195 49.6461 13.9832C49.5994 13.734 49.428 13.6383 49.2189 13.5805C49.3079 13.714 49.3702 13.8964 49.4392 14.1056C49.5037 14.3014 49.5793 14.5261 49.7062 14.7397C49.8464 14.9756 49.9954 15.0646 50.1623 15.078C50.2847 15.0401 50.4405 14.9867 50.6407 14.9177L50.6452 14.9155C50.7475 14.8799 50.8432 14.851 50.9322 14.831H50.9344ZM55.171 18.1152C55.1688 17.9861 55.1665 17.8838 55.151 17.817C55.1354 17.7547 55.013 17.7681 54.5524 17.8771L54.5035 17.8882C54.5257 17.9172 54.5524 17.9461 54.5813 17.9706C54.6525 18.0329 54.7438 18.0796 54.8639 18.1041C54.9529 18.1219 55.0531 18.1263 55.1732 18.113L55.171 18.1152ZM52.5632 16.5576L52.4653 16.5309C52.067 16.4197 51.6108 16.2928 51.3683 15.8723C51.3839 16.0125 51.4217 16.1727 51.5018 16.3507C51.6709 16.729 52.0069 16.7023 52.2717 16.68C52.4208 16.6667 52.5543 16.6578 52.6722 16.6934L52.6833 16.6978C52.8413 16.749 52.9437 16.8536 52.957 17.065C53.0216 16.8847 52.9971 16.7801 52.9236 16.7134C52.779 16.6845 52.6611 16.6333 52.5632 16.5621V16.5576ZM52.1849 16.0258C52.1493 15.9413 52.1182 15.8523 52.0848 15.7611L52.0648 15.7054C51.9535 15.3828 51.8467 15.078 51.5129 14.9978C51.5463 15.098 51.5752 15.2115 51.5953 15.345C51.6531 15.7299 51.9023 15.9124 52.1849 16.0258ZM54.163 17.57C54.1452 17.4566 54.1452 17.3631 54.1541 17.3164C54.1697 17.2318 54.1964 17.0494 54.123 16.9114C54.0518 16.7757 53.876 16.6711 53.4755 16.7178C53.4465 16.7223 53.4176 16.7245 53.3887 16.7267C53.4132 16.8691 53.382 17.0516 53.2819 17.2852C53.1284 17.6412 53.095 17.7814 53.135 17.7992C53.2329 17.8415 53.5266 17.7547 53.8849 17.6501C53.9739 17.6234 54.0673 17.5967 54.1608 17.57H54.163ZM51.0257 16.166C50.9255 15.7744 50.9789 15.4785 51.0323 15.2782C50.9478 15.3027 50.8677 15.3272 50.792 15.3494C50.2357 15.5252 49.8041 15.6609 49.3724 14.94C49.2523 14.7375 49.1744 14.5373 49.1121 14.3526C48.8473 14.1434 48.4446 14.1011 48.1286 14.1078C48.1375 14.1657 48.1686 14.1034 48.1241 14.2658C48.0796 14.4282 48.5603 14.8643 48.7472 14.9378C48.9341 15.0112 48.8339 14.9756 48.8829 15.0001C49.2078 15.0579 49.5148 15.1781 49.6706 15.4117C49.7306 15.5007 49.7752 15.5719 49.8108 15.6275C49.8753 15.7299 49.9042 15.7744 49.9242 15.7855C49.9331 15.7922 49.9621 15.7922 50.011 15.7922C50.0867 15.7922 50.2024 15.7922 50.3871 15.8189C50.6385 15.8545 50.8543 15.9769 51.0323 16.1638L51.0257 16.166ZM52.4608 18.3488C52.383 18.1463 52.3852 17.8638 52.5009 17.4744C52.5877 17.1784 52.5943 17.0828 52.5632 17.0694H52.5587C52.5098 17.0538 52.4097 17.0627 52.3006 17.0716C52.0247 17.0939 51.6954 17.1228 51.4262 16.9025C51.4907 17.1206 51.5307 17.3587 51.5396 17.6123C51.553 18.0173 51.6398 18.2175 51.7688 18.3065C51.8957 18.3956 52.0848 18.3889 52.2895 18.3711L52.4497 18.3533H52.4586L52.4608 18.3488ZM54.697 20.1845L54.7148 20.1222L54.7705 19.9331C54.8105 19.7885 54.8194 19.6082 54.7949 19.4258C54.7727 19.2611 54.7237 19.0987 54.6459 18.9696C54.5769 18.8561 54.4857 18.7694 54.3744 18.7382C54.321 18.7226 54.2631 18.7182 54.1964 18.7271L54.1408 18.736C54.2164 18.8784 54.252 19.0653 54.2231 19.3056C54.1497 19.9598 54.3232 20.1422 54.6548 20.1801L54.697 20.1845ZM56.2168 20.7541C56.3436 20.8031 56.4593 20.8698 56.5617 20.95C56.6618 21.0301 56.7463 21.1235 56.8109 21.2325C57.1291 20.5984 57.3226 20.1422 57.336 19.8597C57.3471 19.6572 57.1758 19.586 56.7597 19.6438C56.1278 19.7306 55.774 19.7306 55.5448 19.5682C55.2978 19.3946 55.2377 19.092 55.1955 18.5802C55.1866 18.4846 55.1821 18.3933 55.1799 18.311C55.0486 18.3244 54.9307 18.3199 54.8305 18.2999C54.6748 18.2687 54.5546 18.2042 54.459 18.1241C54.3967 18.0707 54.3455 18.0084 54.3054 17.9439C54.1986 17.9728 54.0985 18.0039 54.0006 18.0306C53.5689 18.1575 53.2151 18.262 52.9882 18.1597C52.9081 18.1241 52.8458 18.0707 52.8079 17.9995C52.8079 18.1463 52.8502 18.2465 52.9192 18.3088C53.0705 18.2999 53.2329 18.3021 53.3865 18.3199C53.5044 18.3333 53.6201 18.3577 53.7247 18.3956C53.8204 18.3844 53.9138 18.3711 54.0028 18.3577L54.1497 18.3377C54.2698 18.3221 54.3811 18.331 54.4834 18.36C54.6993 18.4223 54.8639 18.5713 54.9819 18.7649C55.0887 18.9429 55.1576 19.1588 55.1866 19.3768C55.2177 19.6104 55.2044 19.8485 55.151 20.0421L55.1087 20.1867L55.2199 20.1823C55.3201 20.1778 55.4269 20.1734 55.5381 20.1712C55.6983 20.1689 55.8274 20.1956 55.9253 20.2424C56.0343 20.2958 56.1077 20.3737 56.1545 20.4671C56.199 20.5517 56.2168 20.6496 56.2212 20.7519L56.2168 20.7541ZM56.733 22.6722C56.5661 22.4741 56.4571 22.2427 56.5372 21.8711C56.5617 21.7621 56.5572 21.6642 56.535 21.5774C56.5016 21.4528 56.4237 21.346 56.3191 21.2615C56.2702 21.2236 56.219 21.1903 56.1611 21.1613C56.11 21.3505 56.0365 21.5218 55.9898 21.6242C55.9587 21.6909 55.9342 21.8155 55.9431 21.9601C55.952 22.0981 55.9943 22.2516 56.0944 22.3807C56.1945 22.5097 56.357 22.6143 56.6062 22.6588C56.6462 22.6655 56.6863 22.6722 56.7308 22.6744L56.733 22.6722ZM56.17 22.7011C56.2034 22.819 56.2212 22.9525 56.2168 23.1016C56.2123 23.3019 56.2012 23.4621 56.1923 23.5911C56.1789 23.8003 56.17 23.916 56.2012 23.9872C56.2346 24.0628 56.3325 24.1474 56.5327 24.2987C56.713 24.3032 56.9088 24.3076 57.1179 24.321C57.6319 24.3543 57.8099 24.6458 57.8099 25.0352C57.8099 25.389 57.6475 25.8251 57.465 26.2056C57.3961 26.348 57.3605 26.4771 57.3605 26.5883C57.3605 26.6929 57.3916 26.7819 57.4628 26.8464C57.5385 26.9176 57.6609 26.9688 57.8344 26.9888C57.9434 27.0022 58.0703 27.0044 58.2171 26.9933C58.0658 26.793 57.9701 26.5727 57.9256 26.3258C57.8544 25.9141 57.9412 25.4402 58.1904 24.875L58.1949 24.8639C58.3262 24.5679 58.2572 24.4678 58.1348 24.4122C58.0814 24.3877 58.0124 24.3655 57.9412 24.341C57.6008 24.2275 57.247 24.1096 57.2848 23.5733C57.3071 23.2529 57.1179 23.066 56.9355 22.888L56.9244 22.8769C56.7931 22.8791 56.6774 22.8702 56.5728 22.8524C56.4104 22.8235 56.2768 22.7723 56.1678 22.7033L56.17 22.7011ZM55.0442 20.3848C54.9997 20.5405 54.9685 20.6696 54.9841 20.7341C54.9885 20.7475 55.0508 20.7408 55.2222 20.6941C55.4714 20.6273 55.7406 20.6251 55.9876 20.6807L56.0165 20.6874C56.0098 20.6384 55.9965 20.5939 55.9765 20.5561C55.9475 20.5005 55.903 20.4515 55.8363 20.4204C55.7629 20.3848 55.665 20.3648 55.5359 20.367C55.4269 20.3692 55.3223 20.3737 55.2222 20.3781C55.1599 20.3803 55.102 20.3826 55.0442 20.3848ZM49.4992 15.5163C49.5882 15.6453 49.6505 15.6298 49.6372 15.9368C49.6238 16.2461 50.614 15.7611 50.4961 16.7445L50.4694 16.9626C50.7698 17.1006 51.0702 17.3609 51.1836 17.8549C51.355 18.6114 51.6309 18.6804 52.1805 18.8161L52.3585 18.8606C52.7746 18.9696 53.0438 19.1632 53.2085 19.4302C53.3709 19.6928 53.4243 20.0154 53.4109 20.387C53.4065 20.5272 53.5133 20.5606 53.6312 20.5962C53.8426 20.6607 54.0696 20.7319 54.1808 20.9922C54.3789 21.079 54.5346 21.1925 54.6014 21.3482C54.657 21.4773 54.8773 21.5908 55.1243 21.7154C55.3401 21.8266 55.5737 21.9446 55.7673 22.107C55.7584 22.0603 55.7517 22.0113 55.7495 21.9668C55.7384 21.7888 55.7718 21.6264 55.814 21.5329C55.8608 21.435 55.9342 21.2637 55.9787 21.0835C55.9542 21.0768 55.9297 21.0701 55.903 21.0634C55.7139 21.0212 55.5092 21.0212 55.3201 21.0723C54.8706 21.1925 54.6726 21.079 54.608 20.8298C54.5747 20.7007 54.5969 20.545 54.6414 20.3737L54.6303 20.3714C54.1786 20.318 53.9361 20.0888 54.0273 19.2767C54.054 19.0453 54.0073 18.8784 53.9116 18.7605C53.5867 18.805 53.224 18.8406 52.9348 18.7516C52.7857 18.7071 52.6589 18.6359 52.5676 18.5268L52.472 18.538C52.4119 18.5446 52.3585 18.5513 52.3051 18.5558C52.0625 18.578 51.8378 18.5847 51.6576 18.4579C51.4796 18.3333 51.3616 18.084 51.3438 17.6079C51.3283 17.174 51.2192 16.7824 51.0368 16.4931C50.8677 16.2283 50.634 16.0481 50.3537 16.0103C50.1801 15.9858 50.0755 15.9858 50.0043 15.9858C49.922 15.9858 49.8753 15.9858 49.8219 15.9546C49.7618 15.919 49.724 15.8612 49.6416 15.7321C49.606 15.6765 49.5615 15.6075 49.5037 15.5207L49.497 15.5118L49.4992 15.5163Z" fill="url(#paint0_linear)"/>
<defs>
<linearGradient id="paint0_linear" x1="35.8172" y1="13.2022" x2="44.9267" y2="43.1585" gradientUnits="userSpaceOnUse">
<stop stop-color="#401B0E"/>
<stop offset="1"/>
</linearGradient>
</defs>
</svg>
