<svg width="85" height="212" viewBox="0 0 85 212" fill="none" xmlns="http://www.w3.org/2000/svg">
<path d="M33.0722 45.3537C32.6977 45.0186 32.0152 44.6244 31.8254 44.4396C31.6111 44.2326 31.993 43.6856 31.754 44.0823C31.515 44.479 31.6283 44.6318 32.4217 45.1073C32.6607 45.2503 32.8061 45.3882 32.8924 45.509C33.8262 46.4379 32.4119 47.1623 31.6529 47.2067C31.4583 47.2166 31.2932 47.1476 31.1675 47.0441C31.0074 46.911 30.9088 46.7164 30.899 46.5685C30.8916 46.4601 30.9729 46.3665 31.0764 46.3591C31.1799 46.3517 31.271 46.4355 31.2784 46.5439C31.2809 46.5956 31.3277 46.672 31.4016 46.7336C31.4608 46.7829 31.5396 46.8174 31.6308 46.8124C31.7712 46.8051 31.8747 46.741 31.9289 46.6523C31.9536 46.6129 31.9659 46.566 31.9683 46.5217C31.9683 46.4749 31.9585 46.4256 31.9338 46.3812C31.8673 46.2605 31.7121 46.1521 31.4386 46.1053C31.1897 46.0634 30.9679 46.0042 30.7757 45.9328C30.7782 46.1693 30.7092 46.4601 30.416 46.6449C30.4998 46.7188 30.5934 46.7952 30.7018 46.8741C30.7659 46.9209 30.7831 47.012 30.7388 47.081C30.6944 47.1476 30.6057 47.1648 30.5417 47.118C30.3766 46.9997 30.2386 46.8839 30.1228 46.7706C30.0168 46.7977 29.8961 46.8174 29.7556 46.8248C29.3984 46.842 29.1224 46.7484 28.9154 46.5956L28.9031 46.5858C28.7503 46.4699 28.6394 46.3172 28.563 46.1546C28.4891 45.9944 28.4522 45.8219 28.4423 45.6568C28.4423 45.6346 28.4398 45.6125 28.4398 45.5903C27.4715 45.2084 27.5454 44.8856 27.6366 44.4839C27.6859 44.2696 27.7425 44.0207 27.3557 43.656C27.0378 43.3603 26.8284 43.1016 26.7027 42.87C26.5376 42.8651 26.3429 42.8429 26.1187 42.8035C25.552 42.7 25.2218 42.4339 25.0321 42.1702C24.8177 41.9854 24.5048 41.5788 24.6329 40.8175C24.697 40.4355 24.9138 40.2285 25.1553 40.0733C25.1824 40.0216 25.1799 39.9624 25.1282 39.8885C25.0715 39.8121 24.9803 39.7259 24.8497 39.6249C24.7192 39.8368 24.5097 39.9797 24.2263 39.9575C23.8765 39.9304 23.7188 39.7949 23.6498 39.6569C23.5216 39.5066 23.4452 39.2725 23.5487 38.9029C22.9623 38.6047 22.6198 38.3214 22.4399 38.0627C22.3364 37.9124 22.2847 37.767 22.2699 37.629C22.2551 37.4861 22.2798 37.353 22.334 37.2323C22.3512 37.1904 22.3734 37.151 22.3956 37.114C22.2798 37.1115 22.1615 37.0992 22.0457 37.077C22.0136 37.0721 21.9841 37.0647 21.957 37.0573C21.8338 37.045 20.9122 36.9218 20.9098 35.9559C20.8679 35.9313 20.8235 35.9066 20.7841 35.8795C20.4958 35.6849 20.2592 35.3867 20.1188 35.0368C19.9783 34.6869 19.9365 34.2828 20.0399 33.8787C20.0868 33.6915 20.1656 33.5042 20.279 33.3243C20.8013 32.4915 20.5746 32.2229 20.0695 31.6414C19.9463 31.5108 19.8206 31.3506 19.7024 31.2151C19.1135 30.5178 18.8424 30.0472 19.5447 29.409L19.5496 29.404C19.4363 29.3868 19.3155 29.3622 19.1874 29.335C19.1356 29.3252 19.1036 29.271 19.1135 29.2192C19.1233 29.165 19.1726 29.1305 19.2244 29.1429C19.4042 29.1823 19.5693 29.2094 19.7196 29.2291C19.902 29.0172 20.0079 28.7905 20.0326 28.5367C20.0646 28.2016 19.9611 27.8073 19.7172 27.3318L19.7122 27.3219C19.4116 26.7404 19.5915 26.5014 19.8921 26.3339C19.9636 26.2944 20.0375 26.2624 20.1114 26.2328C20.3011 26.154 20.4983 26.0702 20.4662 25.8435C20.4169 25.4887 20.518 25.2521 20.6633 25.0526C20.5352 25.0378 20.3972 25.0131 20.2469 24.9811C20.1952 24.9688 20.1632 24.917 20.173 24.8653C20.1829 24.8111 20.2346 24.7766 20.2839 24.7889C20.4785 24.8308 20.6535 24.8579 20.8087 24.8702L20.8506 24.8209C21.0157 24.6312 21.1734 24.4489 21.0896 24.1556C21.0773 24.1088 21.065 24.062 21.0576 24.0177C21.0428 24.0029 21.028 23.9881 21.0157 23.9684C20.5204 23.1355 20.2026 22.5392 20.1558 22.1401C20.0917 21.6152 20.3701 21.3935 21.1044 21.4477C21.6243 21.4846 21.9003 21.4772 22.0235 21.3738C22.1319 21.285 22.1492 21.0608 22.1541 20.6666C22.1566 20.5483 22.1516 20.4423 22.1492 20.3487C22.0136 20.3142 21.8633 20.2674 21.6982 20.1984C21.649 20.1787 21.6243 20.122 21.644 20.0703C21.6637 20.0185 21.718 19.9939 21.7672 20.0136C21.9028 20.0678 22.026 20.1097 22.1393 20.1417C22.1344 20.0235 22.1319 19.9274 22.1442 19.8436C22.2034 19.4666 22.4128 19.4075 23.1693 19.538C23.2062 19.5454 23.2432 19.5504 23.2777 19.5578C23.2826 19.4814 23.2777 19.4222 23.2703 19.3927C23.2432 19.2867 23.1939 19.0576 23.2826 18.8555C23.3713 18.6485 23.5882 18.4785 24.0834 18.5031C24.1327 18.5056 24.1771 18.5056 24.2214 18.5056C24.283 18.3972 24.389 18.3134 24.5171 18.242L24.5319 18.2321C24.6452 18.1705 24.7808 18.1212 24.9212 18.0719C24.9606 18.0572 25.0025 18.0424 25.0419 18.0276C25.0961 17.9019 25.138 17.7565 25.1799 17.6013L25.1947 17.5446C25.313 17.0962 24.8571 16.6231 25.3844 16.5664C25.5692 16.1746 25.9019 16.0859 26.2099 16.0046C26.4366 15.943 26.646 15.8888 26.6756 15.6153C26.7027 15.3812 26.7791 15.2211 26.8875 15.1052C26.6904 15.1397 26.4637 15.1003 26.1853 15.0387C25.722 14.9377 25.69 14.987 25.4066 15.465L25.2637 15.7065C25.005 16.1327 24.7315 16.1672 24.4752 16.1993C24.2682 16.2239 24.1746 15.9824 24.0465 16.596C23.9528 17.0444 25.1306 17.4954 24.9335 17.6974C24.8103 17.8231 24.4185 18.0572 24.2239 18.0818L24.1007 18.099C24.0489 18.1064 23.9997 18.0719 23.9923 18.0177C23.9849 17.9635 24.0194 17.9142 24.0711 17.9044L24.2017 17.8871C24.3668 17.865 24.5713 17.8403 24.6502 17.759C25.0912 17.3081 23.6153 17.4929 23.4797 16.458C23.4551 16.2757 23.4723 16.0958 23.5192 15.9356C23.5684 15.773 23.6522 15.6252 23.7656 15.5118C23.8986 15.3763 24.0711 15.2827 24.2732 15.2556L24.4284 15.2358C24.6452 15.2087 24.7463 15.194 24.7906 15.1545C24.8251 15.1225 24.8448 15.0461 24.8818 14.9057C24.904 14.8268 24.9286 14.7258 24.968 14.6001C25.074 14.2576 25.3598 14.0753 25.722 13.9964C26.1754 13.8979 26.7569 13.9595 27.2399 14.0605L27.2473 14.063L27.2522 14.0408C27.4148 13.3632 27.708 13.3311 27.9939 13.3361L27.9963 13.3139L28.0012 13.2449C28.0259 12.9591 28.186 12.8728 28.4768 12.8359L28.4275 12.8334L27.9495 12.8112L27.7967 12.8038C27.2891 12.9886 27.1955 13.1537 27.0452 13.4223L27.0353 13.442C26.8752 13.7278 26.5401 13.7525 26.136 13.7821C25.6998 13.8141 25.1651 13.8535 24.8202 14.2823C24.7536 14.366 24.6329 14.3759 24.5541 14.3069C24.4727 14.2379 24.4629 14.1122 24.5294 14.0285C24.6354 13.8954 24.7536 13.7919 24.8768 13.7106C24.6354 13.7402 24.4235 13.7895 24.2929 13.8831C24.1278 14.0014 24.1056 14.2133 24.3643 14.605C24.3939 14.6494 24.384 14.711 24.3397 14.743C24.2953 14.7726 24.2362 14.7627 24.2066 14.7159C23.8691 14.2034 23.9257 13.9028 24.1845 13.718C24.4555 13.5258 24.9582 13.4962 25.4362 13.4667L25.4855 13.4642C25.6998 13.4174 25.9142 13.4026 26.1113 13.3878L26.2197 13.3804C26.3454 13.3459 26.4292 13.2966 26.4415 13.2252C26.5351 12.693 26.6756 12.5821 27.3039 12.5895C27.5799 12.4416 28.0136 12.3036 28.7676 12.1312L28.807 12.1213C29.0928 12.0548 29.2973 12.008 29.4427 11.971C29.4378 11.8527 29.4205 11.7295 29.4033 11.6088C29.3811 11.4659 29.3614 11.3279 29.3663 11.2096C29.3811 10.8868 29.6275 10.7045 30.1006 10.6355L30.1129 10.633C30.4012 10.3299 30.8324 10.3275 31.2415 10.3226C31.5913 10.3201 31.9191 10.3152 31.9979 10.0638C32.1359 9.61784 32.4513 9.5587 32.816 9.60059C32.8677 9.52667 33.5207 9.52667 33.6661 9.50449C34.0874 9.44043 34.2525 9.60059 34.3979 9.77554C34.4891 9.75829 34.5654 9.72133 34.6196 9.65234C34.8094 9.41579 35.0853 9.38376 35.381 9.45275C35.3835 9.45029 36.0586 9.52667 36.549 9.80018C36.5588 9.09793 37.818 9.51681 38.2221 9.0043C38.742 8.34393 39.836 7.96447 40.1169 7.94476C40.59 7.91026 40.8192 8.04825 40.9621 8.23305C41.2676 8.14435 41.5658 8.15913 41.7826 8.38089C41.8467 8.44496 41.9304 8.47699 42.0265 8.48931C42.1694 8.30451 42.3296 8.13449 42.783 8.16899C42.9382 8.18131 43.0368 8.22812 43.0959 8.29958C43.4828 8.23305 43.8179 8.27001 43.9978 8.70615C44.0988 8.95255 44.4487 8.93284 44.8207 8.91313C45.2544 8.88849 45.7127 8.86385 46.0404 9.14475H46.0552C46.5628 9.17924 46.8363 9.34433 46.8758 9.66712C46.8905 9.78539 46.8782 9.92092 46.8684 10.0663C46.8585 10.1846 46.8486 10.3102 46.8536 10.4285C47.0088 10.4556 47.2306 10.4876 47.5386 10.5345L47.5805 10.5419C48.3936 10.6626 48.8642 10.771 49.1673 10.8991C49.8351 10.8499 49.9903 10.9509 50.1283 11.4757C50.148 11.5472 50.2392 11.5915 50.3747 11.6162H50.4905C50.6999 11.6162 50.9266 11.6186 51.1582 11.6507H51.21C51.7176 11.6482 52.2547 11.6433 52.5554 11.8158C52.8436 11.9808 52.9274 12.2765 52.6071 12.8112C52.58 12.858 52.5159 12.8728 52.4691 12.8457C52.4223 12.8186 52.405 12.757 52.4321 12.7102C52.6761 12.3012 52.6367 12.0893 52.4543 11.9858C52.3089 11.902 52.0823 11.8675 51.8235 11.8552C51.9591 11.9291 52.0921 12.0227 52.2153 12.1484C52.2917 12.2273 52.2892 12.3529 52.2104 12.4268C52.1291 12.5032 52.0034 12.4983 51.9246 12.4219C51.5278 12.0178 50.9562 12.0153 50.4905 12.0129C50.0593 12.0104 49.702 12.0104 49.5123 11.7344L49.4999 11.7147C49.3201 11.456 49.2092 11.2983 48.6572 11.148L48.4971 11.1653L47.992 11.2195L47.9378 11.2244C48.2482 11.2416 48.4232 11.318 48.4724 11.6014L48.4848 11.6704L48.4897 11.6926C48.7928 11.6679 49.1057 11.6802 49.3299 12.3455L49.3373 12.3677L49.3447 12.3652C49.8498 12.2322 50.4585 12.1287 50.9488 12.1977C51.3406 12.2519 51.656 12.4145 51.794 12.7472C51.8457 12.8728 51.8802 12.9689 51.9098 13.0478C51.9591 13.1858 51.9862 13.2597 52.0256 13.2893C52.0749 13.3262 52.1808 13.3336 52.4149 13.3459L52.5825 13.3558C52.7993 13.3681 52.989 13.4494 53.1393 13.5775C53.2675 13.6835 53.3685 13.8239 53.4325 13.9841C53.4942 14.1418 53.5237 14.3192 53.5139 14.5016C53.5065 14.6198 53.4818 14.743 53.4375 14.8638C53.4424 14.9303 53.4128 14.9968 53.3611 15.0363C53.3093 15.1348 53.2428 15.2334 53.159 15.327C52.92 15.5981 52.8979 15.7262 52.9644 15.7853C53.0531 15.8592 53.2724 15.8716 53.4473 15.8814L53.5853 15.8913C53.6395 15.8962 53.6814 15.9455 53.6765 15.9997C53.6716 16.0539 53.6223 16.0933 53.5681 16.0884L53.435 16.0785C53.228 16.0662 52.9718 16.0514 52.8313 15.9356C52.6761 15.805 52.6662 15.5857 53.0038 15.1989C53.0482 15.1471 53.0876 15.0954 53.1221 15.0436C53.0851 15.019 53.0556 14.982 53.0432 14.9352C52.8609 14.3291 52.6588 14.3192 52.4346 14.3094C52.1611 14.2946 51.8703 14.2798 51.5623 13.8732L51.3923 13.6441C51.0548 13.1858 51.0203 13.1389 50.5348 13.272C50.2465 13.3509 50.01 13.4051 49.7956 13.3853C49.9188 13.4913 50.0125 13.6465 50.0568 13.8782C50.111 14.1492 50.3353 14.1911 50.5792 14.2354C50.9118 14.297 51.2716 14.3636 51.4958 14.7406C52.0601 14.7627 52.2079 15.1718 52.3656 15.6104L52.3853 15.6646C52.442 15.8174 52.4962 15.9603 52.5627 16.081C52.6071 16.0933 52.6515 16.1056 52.6958 16.118C52.8486 16.1599 52.9939 16.1993 53.1196 16.251L53.1369 16.2584C53.2798 16.3225 53.3981 16.3989 53.472 16.5024C53.5188 16.4999 53.5681 16.495 53.6174 16.49C54.1397 16.4309 54.3837 16.5886 54.4921 16.7882C54.598 16.9853 54.566 17.2145 54.5438 17.3229C54.5389 17.3524 54.5364 17.414 54.5488 17.488C54.5857 17.4781 54.6251 17.4683 54.6621 17.4609C55.4555 17.2785 55.6822 17.3229 55.7709 17.6949C55.7906 17.7763 55.7956 17.8724 55.798 17.9931C55.9163 17.9537 56.0444 17.9044 56.1824 17.8403C56.2317 17.8181 56.2933 17.8379 56.3179 17.8871C56.3426 17.9364 56.3204 17.9956 56.2687 18.0177C56.0986 18.0966 55.9434 18.1557 55.8005 18.1976C55.803 18.2912 55.8079 18.3972 55.8177 18.5155C55.8522 18.9073 55.8892 19.1315 56.0099 19.2128C56.1479 19.3064 56.4387 19.2966 56.9906 19.2226C57.7643 19.1216 58.0748 19.3212 58.0477 19.851C58.0255 20.2502 57.7348 20.8686 57.2715 21.7335C57.2617 21.7532 57.2469 21.7705 57.2321 21.7852C57.2272 21.8321 57.2198 21.8789 57.2099 21.9257C57.1434 22.2238 57.3233 22.3939 57.513 22.5737L57.5623 22.6206C57.7274 22.5984 57.9097 22.559 58.1118 22.5023C58.166 22.4875 58.2202 22.5195 58.235 22.5713C58.2497 22.623 58.2177 22.6772 58.166 22.692C58.0107 22.7339 57.8653 22.7684 57.7298 22.793C57.8949 22.9828 58.023 23.2144 57.9959 23.5692C57.9787 23.7984 58.1955 23.8674 58.4 23.9339C58.4814 23.961 58.5627 23.9856 58.6415 24.0201C58.9717 24.1655 59.1811 24.3947 58.9052 24.9934L58.9002 25.0033C58.676 25.4961 58.5947 25.8953 58.6563 26.2279C58.7007 26.4768 58.8288 26.6961 59.0382 26.8957C59.1959 26.8661 59.3684 26.8267 59.5557 26.7749C59.6099 26.7601 59.6641 26.7922 59.6789 26.8439C59.6937 26.8957 59.6616 26.9499 59.6074 26.9646C59.4744 27.0016 59.3487 27.0312 59.228 27.0583L59.2353 27.0632C60.0288 27.6521 59.775 28.14 59.2033 28.8767C59.09 29.0221 58.9668 29.1897 58.846 29.3277C58.3532 29.9437 58.1339 30.227 58.7475 31.0204C58.8805 31.1929 58.9766 31.3728 59.0407 31.5576C59.1787 31.9543 59.1639 32.3584 59.0432 32.7182C58.9224 33.0755 58.6908 33.3909 58.4025 33.6052C58.3631 33.6348 58.3187 33.6644 58.2744 33.6915C58.3434 34.6549 57.3775 34.8397 57.2469 34.8594C57.2173 34.8693 57.2296 34.8668 57.1532 34.8841C57.0769 34.9038 56.9093 34.9333 56.7836 34.9457C56.8107 34.9826 56.8378 35.0196 56.86 35.059C56.9241 35.1748 56.961 35.3054 56.9561 35.4483C56.9512 35.5863 56.9068 35.7366 56.8058 35.8943C56.6358 36.1654 56.2958 36.4709 55.6945 36.8085C55.8325 37.1707 55.7709 37.4097 55.6453 37.5674C55.5837 37.7078 55.3915 37.8606 55.0563 37.9074C54.7237 37.9542 54.5241 37.8187 54.3689 37.6167C54.2358 37.7251 54.1471 37.8163 54.0929 37.8976C54.0412 37.974 54.0461 38.0331 54.0757 38.0824C54.3418 38.2204 54.5882 38.4101 54.6843 38.7896C54.8765 39.5386 54.5759 39.9674 54.3615 40.1669C54.1816 40.4429 53.6716 40.7756 53.2576 40.8741C53.1073 40.9111 53.0087 40.9308 52.9348 40.9456C52.617 40.8741 52.2449 40.8076 51.7915 40.7485C51.6806 40.5834 51.6831 40.3394 51.7669 40.0437L51.7521 40.0364C51.2469 39.8343 51.0104 39.4943 51.0498 39.0089C51.0695 38.7649 51.1656 38.4865 51.3357 38.1711C50.6211 38.9867 50.3205 39.4302 50.9488 39.7555C51.3455 39.96 51.6363 40.337 51.6338 40.7287C50.0864 39.9378 46.9029 41.3768 45.5994 38.0947C44.7986 36.0791 44.7961 35.1625 44.6384 33.9724C44.7838 33.8097 44.8577 33.8492 44.7518 33.4722C44.6458 33.0952 44.5275 32.7847 44.737 32.3707C44.9464 31.9568 44.976 32.1169 44.7493 31.7523C44.5251 31.3876 44.7 31.1831 44.4807 30.779C44.2614 30.3749 44.8626 30.4242 44.4536 29.7786C44.0446 29.133 45.0524 28.6427 44.5251 28.273C43.9978 27.9034 44.3846 27.8049 44.4832 27.5708C44.4635 27.5733 44.4413 27.5733 44.4216 27.5757C44.3698 27.726 44.2836 27.8739 44.1456 28.0094C43.9091 28.2361 43.9928 28.3322 44.084 28.4406C44.2195 28.5983 44.3649 28.7683 44.1678 29.1133C43.8795 29.6209 44.0643 29.9042 44.1628 30.0545L44.1875 30.0915C44.254 30.2024 44.1924 30.3133 44.1185 30.4439C44.0372 30.5892 43.9337 30.774 44.0692 30.9539C44.0988 30.9933 44.1259 31.0377 44.1481 31.0845C44.2466 31.2989 44.2737 31.6094 44.2244 31.91C44.1752 32.2106 44.0446 32.5038 43.8277 32.6861C43.7785 32.728 43.7243 32.765 43.6651 32.7921C43.6208 32.8143 43.5641 32.7921 43.5419 32.7428C43.5197 32.6935 43.5394 32.6369 43.5838 32.6147C43.6306 32.5925 43.6725 32.5654 43.7119 32.5309C43.8918 32.3806 44.0002 32.1293 44.0446 31.8705C44.0889 31.6094 44.0668 31.3432 43.983 31.1634C43.9657 31.1289 43.9485 31.0968 43.9288 31.0697C43.7119 30.7839 43.8524 30.5326 43.9608 30.3379C44.0027 30.2615 44.0396 30.1999 44.0347 30.1876L44.015 30.1556C43.8918 29.9683 43.6651 29.6159 44.0125 29.0049C44.1382 28.7831 44.0396 28.6673 43.9509 28.5638C43.7932 28.3815 43.6528 28.2164 44.0224 27.8616C44.1185 27.7704 44.1826 27.6694 44.2269 27.5659C44.0396 27.5437 43.8795 27.4772 43.7464 27.3835C43.6158 27.2899 43.5123 27.1692 43.4409 27.0386C43.3694 26.9055 43.3251 26.7626 43.3128 26.6197C43.2881 26.3363 43.3867 26.0603 43.6183 25.9076C43.9066 25.7178 43.9189 25.5601 43.8499 25.4443C43.7834 25.3335 43.6503 25.2423 43.5764 25.1905L43.5468 25.1684C43.4507 25.0895 43.3226 24.8875 43.2512 24.6583C43.1772 24.4267 43.1575 24.1606 43.2733 23.961L43.298 23.9216C43.4212 23.7491 43.2462 23.5249 42.9579 23.1577C42.7978 22.9532 42.6031 22.7068 42.4085 22.3988C42.1522 21.9972 42.1251 21.529 42.1793 21.1175C42.0019 21.1594 42.0857 21.2777 41.4918 21.051C40.898 20.8243 41.238 20.4768 40.5925 20.4892C39.9469 20.5015 40.319 20.0062 39.7917 19.8534C39.2643 19.7007 39.8409 19.3803 39.289 19.235C38.737 19.0871 39.5058 18.4514 38.7715 18.3553C38.0373 18.2592 39.0549 17.4461 37.8894 17.5225C37.1527 17.5717 36.4036 17.4116 36.3666 16.0588C36.3272 16.1943 36.204 16.4826 36.0315 16.798C36.0069 17.2637 36.1276 17.7023 36.6081 17.8379L36.9654 17.9364C37.9757 18.2124 38.1876 18.2691 38.2048 18.7643L38.2073 18.8112C38.2196 19.0132 38.2738 19.2054 38.3674 19.3459C38.4537 19.474 38.5769 19.5578 38.737 19.5578H38.7543C38.9785 19.5504 39.1066 19.5602 39.1855 19.6095C39.289 19.676 39.2988 19.7721 39.2865 19.9274C39.2791 20.021 39.289 20.0949 39.326 20.1467C39.3629 20.1959 39.427 20.2304 39.5305 20.2428C39.5797 20.2477 39.6192 20.2945 39.6142 20.3487C39.6118 20.4029 39.5674 20.4399 39.5157 20.435C39.3555 20.4177 39.2471 20.3561 39.1806 20.26C39.114 20.1664 39.0894 20.0432 39.1017 19.9027C39.1091 19.8263 39.1091 19.7844 39.0919 19.7721C39.0524 19.745 38.9514 19.7426 38.7642 19.7475H38.742C38.5153 19.7475 38.3403 19.6317 38.2196 19.4493C38.1038 19.2793 38.0397 19.0502 38.0249 18.8136L38.0225 18.7619C38.0126 18.4169 37.8229 18.3676 36.9284 18.1237L36.5712 18.0251C36.0882 17.8921 35.9009 17.52 35.8591 17.0962C35.7901 17.2071 35.7161 17.3155 35.6398 17.4165C35.6915 17.7418 35.8319 18.0448 36.1424 18.1976C36.4677 18.3578 36.7116 18.4416 36.8792 18.5007C36.9974 18.5426 37.0812 18.5697 37.1403 18.6091C37.2833 18.7003 37.2808 18.7939 37.1699 18.9935C37.1453 19.0403 37.0886 19.0526 37.0443 19.0255C36.9999 18.9984 36.9851 18.9368 37.0098 18.8925C37.0541 18.8136 37.064 18.7841 37.0492 18.7742C37.0122 18.7496 36.9358 18.7225 36.8274 18.6855C36.6574 18.6264 36.4085 18.5401 36.071 18.375C35.7408 18.2124 35.5708 17.9192 35.4919 17.5988C35.3293 17.7837 34.7034 17.9808 34.5433 18.0202C34.2106 18.099 34.3856 18.4539 34.1194 18.4834C33.8533 18.513 33.7498 18.5352 33.7572 18.7742C33.7646 19.0157 33.7696 19.2818 33.2595 19.3803C32.7494 19.4789 32.6065 19.607 32.6977 19.9274C32.7889 20.2477 32.7051 20.605 32.2246 20.6493C31.7441 20.6937 31.887 21.46 31.8205 21.9331C31.6406 23.1971 31.7244 25.1117 31.6751 25.7523C31.6012 26.7232 31.1035 26.9794 31.8353 29.1971C32.2123 30.3428 32.7519 31.8336 33.087 32.7231C33.8484 34.7461 34.6492 34.9875 35.7408 35.7169C36.2705 37.0499 36.8274 39.4006 36.8471 40.8273C36.8693 42.254 35.9009 42.9932 34.3412 43.6683C32.7815 44.3435 33.1708 44.6367 33.0574 45.3661L33.0722 45.3537ZM29.3959 13.0626C29.3294 13.1069 29.2825 13.1513 29.2554 13.1907C29.1741 13.2129 29.0977 13.2424 29.0214 13.2819C28.7355 13.4346 28.5064 13.7229 28.3092 14.233C28.1688 14.5952 27.846 14.6888 27.5479 14.7751C27.469 14.7972 27.3902 14.8219 27.3138 14.8465C27.4197 14.7184 27.5084 14.5336 27.5824 14.2749C27.9372 14.2428 28.0727 14.0063 28.1343 13.7229C28.2895 13.7229 28.4374 13.6958 28.5729 13.5258C28.6936 13.3755 28.7971 13.2572 28.9893 13.1734C29.0928 13.1291 29.2234 13.0921 29.3934 13.0601L29.3959 13.0626ZM29.2801 13.5973C29.2875 13.8042 29.2308 14.0531 28.9647 14.1467C28.8587 14.1837 28.7774 14.2207 28.7109 14.2601C28.8563 13.925 29.014 13.7328 29.1963 13.6367C29.2234 13.6219 29.2505 13.6096 29.2801 13.5997V13.5973ZM27.9594 15.3837C27.9692 15.4404 27.9741 15.5044 27.9741 15.5759C27.8707 15.6079 27.7672 15.6473 27.6735 15.7015C27.7277 15.5093 27.7943 15.3812 27.9594 15.3837ZM27.9667 15.7829C27.9569 15.8962 27.9347 16.0219 27.9002 16.1574C27.7548 16.7167 27.8583 16.8843 27.2201 17.0715C27.1068 17.106 26.9984 17.1258 26.8949 17.1405C27.0723 17.0642 27.2349 16.9015 27.3852 16.596C27.4887 16.3865 27.5503 16.182 27.5996 15.9948C27.7006 15.9011 27.8288 15.8321 27.9667 15.7853V15.7829ZM26.444 17.1849C26.2912 17.2021 26.1877 17.2317 26.1606 17.3278C26.0448 17.2021 25.9536 17.1208 26.03 17.0962C26.1754 17.1331 26.3134 17.1676 26.444 17.1849ZM26.2124 19.1512C26.269 19.5578 26.3257 20.0629 26.1039 20.398C25.9561 20.5458 25.754 20.6124 25.4855 20.7011L25.3154 20.7577C24.9187 20.8933 24.6699 21.1052 24.527 21.3811C24.3865 21.6547 24.3569 21.9799 24.3964 22.3495C24.4111 22.49 24.3077 22.5294 24.1968 22.5737C23.9947 22.6526 23.7779 22.7364 23.6867 23.0074C23.4995 23.106 23.3565 23.2316 23.3023 23.3893C23.258 23.5224 23.051 23.6505 22.8194 23.791C22.6149 23.9166 22.398 24.0497 22.2206 24.2246C22.2255 24.1754 22.2305 24.1285 22.228 24.0817C22.228 23.9019 22.1837 23.7417 22.1344 23.653C22.0826 23.5569 21.9989 23.3943 21.9422 23.2169C21.9668 23.207 21.989 23.1996 22.0136 23.1922C22.196 23.138 22.3956 23.1257 22.5828 23.1626C23.0288 23.2538 23.2136 23.1257 23.2604 22.8719C23.2851 22.7413 23.2506 22.5861 23.1964 22.4185L23.2062 22.416C23.6424 22.3323 23.8641 22.0883 23.7163 21.285C23.6744 21.0559 23.7089 20.8859 23.7927 20.7627C24.113 20.7848 24.4678 20.7972 24.7438 20.6887C24.8842 20.6345 25.005 20.5532 25.0863 20.4399L25.1799 20.4448C25.2391 20.4473 25.2908 20.4522 25.345 20.4522C25.584 20.4571 25.8033 20.4497 25.9709 20.3118C26.136 20.1738 26.2345 19.92 26.2173 19.4419C26.2124 19.3335 26.2124 19.235 26.2148 19.1463L26.2124 19.1512ZM44.5275 27.3663C44.5226 27.3367 44.5127 27.3071 44.498 27.2776C44.4955 27.3096 44.493 27.3392 44.4881 27.3712L44.5275 27.3663ZM44.3132 27.0509C43.7661 26.5162 43.914 26.0554 44.2663 25.8977C44.6212 25.74 44.6212 25.0328 44.185 24.6829C43.7489 24.3331 43.9288 23.8969 44.1949 23.6628C44.461 23.4288 44.4758 23.8526 43.601 23.1232C42.7263 22.3939 42.6844 21.0855 42.714 20.8883C42.746 20.6912 42.6376 20.9253 42.3863 21.046C42.3198 21.4403 42.3247 21.906 42.5711 22.2928C42.7608 22.591 42.9505 22.8325 43.1082 23.0345C43.4557 23.4756 43.6676 23.7442 43.4581 24.0374L43.4409 24.0645C43.3546 24.2099 43.3744 24.4144 43.4335 24.6016C43.4951 24.7914 43.5912 24.9565 43.6626 25.0156L43.6824 25.0304C43.7686 25.0895 43.9238 25.1979 44.0125 25.3458C44.1357 25.5503 44.1382 25.8066 43.7267 26.0751C43.5567 26.186 43.4852 26.393 43.505 26.6098C43.5148 26.7232 43.5493 26.839 43.6084 26.9474C43.6676 27.0534 43.7489 27.1519 43.8548 27.2258C43.9731 27.3096 44.121 27.3663 44.2959 27.3811C44.3181 27.2702 44.3205 27.1593 44.3107 27.0583L44.3132 27.0509ZM22.8021 22.4579C22.7455 22.4604 22.6863 22.4604 22.6272 22.4629C22.5286 22.4653 22.4276 22.4678 22.3192 22.4727C22.1935 22.4801 22.0974 22.5047 22.0309 22.5442C21.9693 22.5811 21.9274 22.6304 21.9028 22.6895C21.8855 22.7314 21.8757 22.7758 21.8732 22.8226L21.9003 22.8127C22.1368 22.7413 22.4005 22.724 22.6469 22.7733C22.8169 22.8078 22.8785 22.8103 22.881 22.7955C22.8933 22.7314 22.8539 22.6033 22.7997 22.453L22.8021 22.4579ZM21.8658 24.8431C21.7648 24.917 21.6391 24.9786 21.4814 25.0181C21.3804 25.0427 21.267 25.0599 21.1414 25.0673L21.1315 25.0797C20.9664 25.2694 20.7964 25.469 20.8408 25.7868C20.9147 26.3191 20.5771 26.4595 20.2543 26.595C20.1878 26.6221 20.1213 26.6493 20.072 26.6788C19.9586 26.7429 19.897 26.8464 20.0473 27.1322L20.0523 27.1421C20.3356 27.6915 20.4514 28.1572 20.412 28.5737C20.3874 28.8225 20.3085 29.0492 20.1755 29.2587C20.3184 29.2611 20.4416 29.2488 20.5475 29.2291C20.7151 29.1971 20.8309 29.1379 20.8999 29.0615C20.964 28.9925 20.9886 28.9014 20.9812 28.7954C20.9738 28.6845 20.927 28.5589 20.8506 28.4209C20.6461 28.0537 20.4588 27.6299 20.4317 27.2776C20.4022 26.8883 20.5574 26.5852 21.0551 26.5187C21.2596 26.4916 21.4494 26.4743 21.6243 26.4571C21.8091 26.292 21.9003 26.2033 21.9274 26.1244C21.952 26.053 21.9373 25.9371 21.9077 25.7302C21.8904 25.602 21.8683 25.4443 21.8485 25.2447C21.8338 25.0944 21.8412 24.9614 21.8658 24.8406V24.8431ZM21.3163 24.8505C21.3582 24.8431 21.4001 24.8357 21.4371 24.8259C21.6761 24.7643 21.8264 24.6485 21.9175 24.5129C22.0062 24.3774 22.0383 24.2222 22.0358 24.0842C22.0358 23.9413 22.0038 23.8181 21.9668 23.754C21.9126 23.6554 21.8288 23.4904 21.7672 23.3031C21.713 23.3351 21.6637 23.3721 21.6194 23.414C21.5233 23.5051 21.4543 23.616 21.4321 23.7442C21.4149 23.8329 21.4198 23.9314 21.4518 24.0374C21.5578 24.4045 21.4666 24.6411 21.3163 24.8505ZM21.6835 22.9015C21.6785 22.798 21.6933 22.6994 21.7278 22.6132C21.7672 22.5171 21.8338 22.4333 21.9348 22.3742C22.0284 22.3199 22.1492 22.2854 22.3069 22.2756C22.4153 22.2707 22.5188 22.2682 22.6173 22.2657L22.7257 22.2633L22.674 22.1204C22.6075 21.9306 22.5779 21.6941 22.5927 21.4575C22.605 21.2382 22.6568 21.0189 22.7479 20.8341C22.8489 20.6345 22.9993 20.4744 23.2038 20.398C23.2999 20.361 23.4083 20.3438 23.529 20.3536L23.6744 20.3635C23.7631 20.3709 23.8543 20.3783 23.9479 20.3832C24.0465 20.3389 24.1574 20.3068 24.2732 20.2846C24.4235 20.2551 24.5787 20.2452 24.729 20.2428C24.7906 20.1762 24.8251 20.0752 24.8152 19.9274C24.7832 20.0013 24.7265 20.058 24.6502 20.0998C24.4358 20.2157 24.0834 20.1343 23.6547 20.0382C23.5586 20.0161 23.4551 19.9939 23.3516 19.9717C23.3171 20.0382 23.2703 20.1048 23.2136 20.1614C23.1274 20.2502 23.014 20.3216 22.8637 20.3635C22.7652 20.3906 22.6543 20.4029 22.5237 20.398C22.5262 20.4818 22.5286 20.5705 22.5262 20.6666C22.5188 21.1816 22.4818 21.4846 22.2551 21.6768C22.0407 21.8542 21.6958 21.8789 21.0748 21.8345C20.6633 21.805 20.5032 21.8863 20.5278 22.0883C20.5623 22.3692 20.7816 22.8127 21.1364 23.4238C21.1907 23.3129 21.267 23.2119 21.3582 23.1257C21.4518 23.0394 21.5603 22.9655 21.681 22.9064L21.6835 22.9015ZM23.1249 22.2337L23.1668 22.2263C23.4847 22.1647 23.6448 21.9725 23.5266 21.3245C23.4822 21.0855 23.5019 20.8982 23.566 20.7503L23.5118 20.7454C23.4452 20.7405 23.3886 20.7503 23.3393 20.7676C23.2309 20.807 23.1496 20.9007 23.0904 21.0165C23.0239 21.1495 22.9869 21.3171 22.9771 21.4822C22.9672 21.6645 22.9869 21.8444 23.0362 21.9873L23.1027 22.1721L23.1249 22.2337ZM25.1775 20.2526H25.1873L25.345 20.26C25.5471 20.2649 25.7294 20.26 25.8477 20.1614C25.966 20.0629 26.0374 19.8584 26.0226 19.4518C26.0128 19.2005 26.0349 18.959 26.0818 18.7372C25.8354 18.9762 25.5126 18.9689 25.2415 18.9664C25.1331 18.9639 25.037 18.9639 24.9902 18.9812L24.9877 18.9836C24.9582 18.9984 24.9729 19.0945 25.0789 19.3828C25.2193 19.7647 25.2391 20.0456 25.1775 20.2526ZM23.4625 19.5873C23.5561 19.607 23.6498 19.6292 23.736 19.6489C24.0933 19.7302 24.3865 19.7968 24.4777 19.7475C24.5146 19.7278 24.4727 19.5898 24.2978 19.2448C24.182 19.0181 24.1426 18.8383 24.1549 18.6953C24.1278 18.6953 24.1007 18.6929 24.0711 18.6929C23.6769 18.6732 23.5118 18.789 23.4526 18.9294C23.391 19.0723 23.4305 19.2522 23.4526 19.336C23.465 19.3803 23.4723 19.4764 23.4625 19.5898V19.5873ZM25.2834 17.9142C25.552 17.7812 25.7811 17.5841 25.8107 17.1947C25.8206 17.0617 25.4731 16.9927 25.5002 16.8917C25.1799 16.9952 25.4633 17.2563 25.377 17.5865L25.3623 17.6432C25.3376 17.7368 25.313 17.828 25.2834 17.9142ZM24.9532 18.4687C24.8621 18.545 24.7512 18.6066 24.6132 18.6436C24.5467 18.7175 24.5319 18.8235 24.6058 18.9984C24.6033 18.7865 24.697 18.6781 24.8473 18.614L24.8571 18.6091C24.9705 18.5648 25.1011 18.5672 25.2489 18.5697C25.5076 18.5746 25.8378 18.5795 25.9758 18.1902C26.0399 18.0079 26.067 17.8453 26.0719 17.7048C25.8625 18.1385 25.4288 18.2962 25.0469 18.4342L24.9532 18.4687ZM22.5212 20.1959C22.637 20.2009 22.7356 20.191 22.8218 20.1664C22.9352 20.1343 23.0214 20.0801 23.088 20.0136C23.1151 19.9865 23.1372 19.9569 23.1594 19.9249L23.1101 19.915C22.6518 19.8362 22.5311 19.8313 22.5212 19.8929C22.5114 19.9594 22.5163 20.0604 22.5237 20.191L22.5212 20.1959ZM25.8575 16.5812C25.9462 16.596 26.0399 16.6182 26.1434 16.6477L26.1483 16.6502C26.3479 16.7044 26.5056 16.7488 26.6263 16.7783C26.7865 16.7537 26.9269 16.6551 27.0477 16.4112C27.1561 16.1894 27.2152 15.9603 27.2645 15.7607C27.3187 15.5463 27.3655 15.359 27.4419 15.2211C27.2423 15.295 27.0822 15.4009 27.0526 15.6523C26.991 16.1919 26.6633 16.2806 26.306 16.3767C26.1508 16.4186 25.9857 16.4629 25.8575 16.5837V16.5812ZM23.6695 16.4358C23.8592 15.8666 24.1352 15.8321 24.4333 15.7952C24.6009 15.7755 24.7808 15.7533 24.9434 15.4847L25.0863 15.2482C25.4953 14.5582 25.5372 14.4868 26.2616 14.6445C26.5573 14.7085 26.7766 14.7455 26.9171 14.679C27.028 14.6248 27.1142 14.4966 27.193 14.2453C26.7323 14.1492 26.1853 14.0901 25.7614 14.1837C25.4633 14.2502 25.2292 14.3907 25.1479 14.6543C25.1109 14.7726 25.0863 14.8712 25.0641 14.9525C25.0173 15.1274 24.9927 15.2235 24.9163 15.295C24.83 15.3763 24.7093 15.3911 24.4506 15.4256L24.2953 15.4453C24.1376 15.4675 23.9997 15.5389 23.8962 15.6473C23.805 15.741 23.7385 15.8592 23.6966 15.9898C23.6547 16.1254 23.6424 16.2757 23.6621 16.4284L23.6645 16.4408L23.6695 16.4358ZM28.1885 13.3213C28.2279 13.3139 28.2624 13.3016 28.2846 13.272C28.3585 13.1784 28.43 13.0946 28.5138 13.0182C28.3166 13.0453 28.2058 13.0995 28.1934 13.2498L28.1885 13.3188V13.3213ZM30.5737 11.7172C30.522 11.7492 30.4875 11.7911 30.4751 11.8429C30.4579 11.9266 30.485 12.0252 30.5096 12.1213C30.522 12.1706 30.5367 12.2199 30.5441 12.2716C30.554 12.3307 30.5589 12.3899 30.5515 12.4441C30.586 12.4194 30.6156 12.3899 30.6402 12.3628C30.6328 12.2297 30.6082 12.0523 30.5885 11.9365C30.5688 11.8207 30.5688 11.7837 30.5737 11.7147V11.7172ZM27.6415 14.0556C27.814 14.0063 27.8953 13.8782 27.9396 13.7229C27.8263 13.7352 27.7179 13.7919 27.6415 14.0556ZM30.1918 12.5845C30.3544 12.5032 30.3741 12.4071 30.3569 12.3036C30.3495 12.2642 30.3372 12.2174 30.3273 12.1706C30.2977 12.0523 30.2657 11.9291 30.2903 11.801C30.3248 11.6334 30.4702 11.5373 30.6427 11.4831C30.8152 11.1899 31.1454 11.0839 32.0324 11.1973C32.9195 11.3106 32.6435 11.2737 32.7716 10.8622L32.7938 10.7883C32.6484 10.8967 32.3971 10.946 31.9683 10.8942C31.4139 10.8277 30.9507 10.7907 30.5811 10.7932C30.4332 10.8523 30.315 10.9583 30.2509 11.1406C30.1499 11.4314 30.1376 11.6186 30.1277 11.7492C30.1179 11.9192 30.1105 12.0252 29.9947 12.1385L29.9799 12.1533C29.901 12.2223 29.7852 12.2716 29.5881 12.3283C29.5413 12.4712 29.4526 12.5944 29.2973 12.6831C29.4994 12.6461 29.7507 12.619 30.0686 12.6018C30.1129 12.5993 30.1523 12.5944 30.1918 12.5895V12.5845ZM35.2258 9.79032C35.0977 9.77554 34.9892 9.80511 34.9153 9.89628C34.866 9.95788 34.8094 10.0072 34.7527 10.0466C34.7971 10.0564 34.8463 10.0638 34.9005 10.0638C35.0927 10.0614 35.1642 9.94063 35.2233 9.79032H35.2258ZM32.7568 9.98498C32.5646 9.97266 32.4119 10.0096 32.3601 10.1772C32.2616 10.4975 32.0497 10.6207 31.7885 10.6724L31.9856 10.6946C32.6041 10.7685 32.7568 10.6182 32.779 10.4113C32.7889 10.3201 32.779 10.2141 32.7667 10.1106C32.7618 10.0688 32.7593 10.0269 32.7544 9.98498H32.7568ZM29.3244 12.3899C29.2012 12.4194 29.0583 12.4515 28.8908 12.4909L28.8513 12.5008C28.669 12.5426 28.5064 12.5821 28.3635 12.619L28.4325 12.6215C28.9302 12.6437 29.1938 12.5451 29.3244 12.3899ZM26.6115 13.3016C26.6559 13.2843 26.6879 13.2597 26.7052 13.2277L26.715 13.2079C26.8062 13.0428 26.8826 12.9098 26.9984 12.7915C26.752 12.8334 26.6756 12.9566 26.6239 13.2449C26.6214 13.2646 26.6165 13.2819 26.6091 13.2991L26.6115 13.3016ZM29.63 11.902C29.6768 11.8848 29.7064 11.87 29.7261 11.8552L29.7335 11.8478C29.7409 11.8404 29.7458 11.7936 29.7482 11.7197C29.7581 11.5669 29.7729 11.3427 29.8912 11.0026C29.9109 10.9484 29.9306 10.8991 29.9528 10.8548C29.6965 10.9189 29.5634 11.0322 29.5561 11.2096C29.5511 11.3106 29.5708 11.4363 29.5905 11.5694C29.6053 11.6778 29.6226 11.7911 29.63 11.9045V11.902ZM33.6808 9.69423L33.7671 9.71147C33.8903 9.73611 34.016 9.76075 34.1318 9.77061C34.0381 9.70162 33.91 9.65973 33.6981 9.69176L33.6833 9.69423H33.6808ZM20.9714 32.7182C21.1266 32.4521 21.1586 32.0553 20.6633 31.3408C20.1533 30.604 20.4539 30.1704 20.8999 29.8402C21.0182 29.7515 21.1438 29.6751 21.2646 29.6012C21.5282 29.441 21.7574 29.2981 21.6958 29.1823C21.6243 29.0492 21.5356 28.9112 21.4444 28.7732C21.0157 28.1203 20.5549 27.4106 21.3582 26.701L21.3779 26.6837C21.2843 26.6936 21.1857 26.7035 21.0872 26.7182C20.72 26.7675 20.6067 26.9868 20.6264 27.2677C20.6486 27.5856 20.8284 27.9798 21.0206 28.3273C21.1118 28.4899 21.1635 28.6451 21.1759 28.7856C21.1882 28.9457 21.1463 29.0862 21.0453 29.1995C20.9492 29.3055 20.7989 29.3843 20.5894 29.4262C20.4416 29.4558 20.2592 29.4656 20.0424 29.4533C19.971 29.5396 19.8921 29.6209 19.8034 29.7022C19.3599 30.1038 19.5644 30.4414 19.9956 30.9515C20.1114 31.0894 20.2469 31.2348 20.3578 31.3728C20.8038 31.8853 21.0773 32.2056 20.9763 32.7182H20.9714ZM21.1956 36.0717C21.166 36.0619 21.1364 36.052 21.1069 36.0422C21.1438 36.4808 21.4272 36.6853 21.6637 36.7789C21.8091 36.7961 21.989 36.7863 22.2108 36.7321C22.2748 36.7173 22.334 36.6976 22.3931 36.6729C21.8855 36.5202 21.4962 36.3107 21.198 36.0717H21.1956ZM28.5039 45.1886C28.531 45.1073 28.568 45.0334 28.6123 44.9718C28.706 44.8388 28.8316 44.7303 28.9548 44.6219C29.2628 44.3509 28.2871 43.4195 28.016 43.2026C27.3532 42.6753 27.5651 41.9484 28.2132 41.5345C28.6986 41.2216 28.4669 40.746 27.7376 39.9797C27.9199 40.2852 28.0308 40.5563 28.0653 40.7977C28.1368 41.2807 27.9372 41.6355 27.4764 41.8671L27.4616 41.8745C27.6267 42.3624 27.5725 42.7172 27.1265 42.8281C27.2325 42.9784 27.3902 43.1534 27.607 43.3579C28.1639 43.8802 28.0801 44.2548 28.0062 44.5726C27.9594 44.7772 27.9224 44.9447 28.5014 45.1886H28.5039ZM24.2904 34.0586L24.3027 34.0389C24.4235 33.8294 24.3052 33.6274 24.1081 33.418C23.9701 33.551 23.8444 33.6644 23.773 33.7481C23.5142 34.0561 23.1643 34.3666 23.5611 34.7116C23.9553 35.0565 24.3298 35.7514 24.0711 36.3107C23.9109 36.6582 23.497 36.9317 23.0042 37.0475C22.9845 37.0647 22.9648 37.0795 22.9426 37.0943C22.8366 37.1731 22.7331 37.2742 22.6839 37.39C22.6592 37.4467 22.6469 37.5107 22.6543 37.5797C22.6617 37.6536 22.6937 37.7349 22.7553 37.8261C22.913 38.0553 23.2506 38.3189 23.8617 38.6121C24.0957 38.723 24.2978 38.8265 24.4752 38.9251C24.4259 38.521 24.1475 38.0701 23.8099 37.9321C23.3442 37.7399 23.3245 37.4664 23.8888 37.082C23.906 37.0376 23.9307 36.9908 23.9602 36.944C24.0539 36.7961 24.214 36.6557 24.4185 36.4783L24.6058 36.3132C24.6945 36.2343 24.766 36.1136 24.8226 35.9682C24.7487 35.6701 24.5023 35.3818 24.3397 35.1625C24.0243 34.7436 23.9701 34.2582 24.2929 34.0561L24.2904 34.0586ZM23.1865 31.3506C23.1939 31.1584 23.2112 30.9662 23.2358 30.7839C23.1742 30.4291 23.2407 30.1112 23.5389 29.8402C23.5586 29.818 23.5783 29.8008 23.598 29.7884C23.6276 29.7663 23.6572 29.7441 23.6892 29.7219C23.9676 29.4706 23.9159 29.0123 23.6473 28.5219C23.8395 29.3695 23.8814 29.7613 23.2013 29.9831C22.9426 30.0669 22.8268 30.1876 22.8243 30.365C22.8218 30.5892 22.9524 30.912 23.1841 31.3506H23.1865ZM23.4132 27.354C23.4748 27.2382 23.5635 27.1273 23.6769 27.0139C23.9208 26.7626 23.943 26.425 23.8691 26.117C23.8124 26.3265 23.7163 26.4669 23.6177 26.6074C23.497 26.7798 23.3787 26.9523 23.4132 27.3564V27.354ZM23.4921 25.2078C23.4822 25.1585 23.4773 25.1068 23.4773 25.055C23.327 25.1339 23.2038 25.2152 23.1052 25.3014L23.0756 25.3285C23.1619 25.6316 23.2703 25.8386 23.3491 25.9914C23.3812 26.0554 23.4107 26.1121 23.4354 26.1638C23.5142 26.0012 23.5635 25.7819 23.5093 25.4C23.4995 25.3335 23.4945 25.2694 23.4896 25.2053L23.4921 25.2078ZM22.7947 25.7006C22.7184 25.8657 22.7011 26.0234 22.7036 26.1466C22.7159 26.4694 22.4473 26.563 22.026 26.6148C21.9471 26.6911 21.8461 26.7774 21.7229 26.8883L21.5997 26.9967C21.0527 27.4796 21.4149 28.0365 21.75 28.549C21.8485 28.6993 21.9446 28.8472 22.021 28.9876C22.2625 29.4385 21.8855 29.6726 21.4543 29.9363C21.3385 30.0053 21.2202 30.0792 21.1167 30.1556C20.8358 30.365 20.6436 30.641 20.9664 31.1067C21.8707 32.4102 21.3631 32.9178 20.9886 33.2898C20.9467 33.3317 20.9073 33.3711 20.8703 33.413C20.8112 33.482 20.7323 33.6841 20.6978 33.965C20.6683 34.2064 20.6757 34.4947 20.7619 34.788C20.8482 35.0787 21.0108 35.3793 21.2941 35.643C21.6219 35.951 22.1122 36.2146 22.8243 36.3773C22.9721 36.2294 23.0855 36.052 23.157 35.8721C23.1397 35.5075 21.4937 34.7756 21.9865 34.1596C22.1763 33.8147 22.6543 33.5757 22.9919 33.3564C23.6769 32.9178 22.7331 31.9445 22.5459 31.767C21.0773 30.3675 19.9586 31.1979 22.7455 29.3104C22.8761 29.2217 22.8588 29.064 22.5508 28.5737C21.7722 27.3416 22.2206 27.041 22.9204 26.5803L22.945 26.563C23.1496 26.43 23.1126 26.3585 23.0165 26.1737C22.9524 26.0505 22.8736 25.8977 22.7972 25.6957L22.7947 25.7006ZM22.2255 26.3831C22.4103 26.3412 22.5163 26.2747 22.5138 26.154C22.5064 25.9618 22.5434 25.7105 22.7134 25.4542C22.6765 25.331 22.6444 25.1905 22.6173 25.0328C22.5631 24.7248 22.5853 24.5179 22.6518 24.3725C22.3956 24.5696 22.1911 24.8234 22.228 25.2103C22.2477 25.4049 22.2674 25.5577 22.2847 25.6784C22.3216 25.9495 22.3438 26.0973 22.2871 26.2624C22.2724 26.3043 22.2527 26.3462 22.228 26.3856L22.2255 26.3831ZM23.019 25.1191C23.1471 25.0156 23.3073 24.9146 23.5044 24.8234C23.5315 24.6361 23.5857 24.4784 23.6547 24.3429C23.5684 24.37 23.4748 24.3873 23.3812 24.4045C23.1471 24.4464 22.9081 24.4908 22.9894 24.9663C22.9993 25.0205 23.0091 25.0723 23.019 25.1215V25.1191ZM25.0814 41.946C25.1972 42.0248 25.3475 42.0815 25.5224 42.0988C25.4386 42.0298 25.3623 41.9534 25.2957 41.8721C25.1035 41.638 24.9828 41.3669 24.9261 41.1107C24.8867 40.9407 24.8768 40.7756 24.8892 40.6302C24.8596 40.6942 24.8374 40.7657 24.8226 40.847C24.7241 41.431 24.9163 41.771 25.0838 41.946H25.0814ZM25.5421 39.8491C25.759 39.7234 25.9241 39.583 25.8871 39.2922L25.8797 39.2799C25.6382 38.9128 25.1799 38.5259 24.6502 38.1612C24.6083 38.1317 24.5664 38.1021 24.527 38.075C24.5886 38.208 24.6847 38.346 24.8054 38.4766C24.9779 38.6614 25.0345 38.962 24.9853 39.2454C25.1996 39.3957 25.3426 39.5288 25.4288 39.6446C25.483 39.716 25.52 39.785 25.5421 39.8491ZM26.0349 39.6667C25.9462 39.8392 25.7713 39.9476 25.5742 40.0561C25.5619 40.2088 25.4633 40.337 25.3352 40.4528C25.3179 40.4676 25.3031 40.4971 25.2908 40.5341C25.2514 40.6524 25.2514 40.8273 25.2957 41.022C25.3426 41.2216 25.4362 41.4359 25.584 41.6158C25.6801 41.7316 25.7984 41.8376 25.9438 41.9164C25.7467 41.7291 25.6111 41.5517 25.5323 41.3817C25.3154 40.9209 25.4633 40.5316 25.8625 40.1325C26.0054 39.9895 26.0571 39.8318 26.0374 39.6643L26.0349 39.6667ZM23.9898 39.6594C24.0539 39.647 24.1278 39.6199 24.2165 39.5731C24.3126 39.5189 24.3791 39.4425 24.421 39.3489C24.2313 39.2405 23.9997 39.1197 23.7237 38.9867C23.6202 39.408 23.8247 39.5854 23.9898 39.6618V39.6594ZM25.5274 36.7666C25.3179 37.0204 24.9877 37.2298 24.7487 37.3284C24.6181 37.3826 24.5319 37.4614 24.4851 37.5575C24.5762 37.6339 24.6994 37.7226 24.8547 37.831C25.0345 37.9542 25.207 38.0799 25.3672 38.208C25.212 37.8853 25.3352 37.7892 25.4781 37.5181C25.5988 37.2914 25.621 37.0598 25.5249 36.7641L25.5274 36.7666ZM26.4317 39.7382C26.4341 39.9748 26.3405 40.2039 26.1236 40.4183C25.8526 40.6893 25.7442 40.9407 25.8699 41.2117C25.9586 41.3965 26.1384 41.601 26.4341 41.8326C26.4514 41.8203 26.4686 41.808 26.4883 41.7957C27.1413 41.3201 26.9269 40.5415 26.4317 39.7407V39.7382ZM27.3261 41.5C27.607 41.3497 27.7253 41.1353 27.6858 40.8519C27.6341 40.5045 27.3754 40.0487 26.9023 39.4844C26.7052 39.2479 26.5425 39.0138 26.4144 38.7797C26.5351 39.2947 26.7914 39.8171 27.1438 40.1669C27.846 40.8692 27.1709 40.8495 27.3286 41.5H27.3261ZM22.7257 34.7732C22.7257 34.7855 22.7257 34.7978 22.7282 34.8101C22.7479 34.9284 22.9204 35.0491 23.1693 35.2044C23.1865 35.2167 23.2038 35.2266 23.221 35.2389C23.1841 35.1009 23.1077 34.9875 22.9845 34.9235C22.9007 34.8791 22.8145 34.8298 22.7282 34.7732H22.7257ZM23.0362 26.972C22.5853 27.2727 22.329 27.5166 22.8637 28.3618C23.3418 29.1207 23.3048 29.404 22.9524 29.6431C22.9253 29.6603 22.8982 29.6775 22.8687 29.6948C22.9327 29.6628 23.0042 29.6332 23.0855 29.6061C23.4773 29.478 23.4034 29.1576 23.2358 28.4283C23.189 28.2262 23.1372 27.9971 23.0806 27.7112C23.0165 27.3909 23.0116 27.1568 23.0387 26.972H23.0362ZM23.1471 24.0448C23.2013 24.0324 23.2555 24.0226 23.3122 24.0127C23.5192 23.9758 23.7188 23.9388 23.6645 23.6062C23.6596 23.5791 23.6572 23.5544 23.6547 23.5298C23.5758 23.7491 23.3812 23.8994 23.1496 24.0448H23.1471ZM30.3692 45.7406C30.3076 45.7036 30.2484 45.6642 30.1967 45.6248C30.0957 45.5484 30.0119 45.4646 29.9454 45.3784C29.8517 45.573 29.7975 45.9081 30.1228 46.3344C30.4209 46.1817 30.3988 45.8761 30.3692 45.7406ZM29.8222 46.4182C29.3934 45.7874 29.6324 45.2971 29.7877 45.0827C29.7532 44.9718 29.7458 44.8585 29.7606 44.7501C29.7778 44.6367 29.8222 44.5283 29.8936 44.4248C30.0341 44.2252 30.1203 44.0355 30.1154 43.8679C30.1105 43.7152 30.0218 43.5624 29.8123 43.4219C29.593 43.2741 29.4205 43.0942 29.3096 42.8725C29.3466 43.2224 29.5092 43.6191 29.7655 43.9468C29.9552 44.1907 29.7236 44.4667 29.4846 44.6392C29.4057 44.7402 29.3023 44.8314 29.1963 44.9225C29.0903 45.0162 28.9795 45.1123 28.9129 45.2059C28.8439 45.302 28.8094 45.4597 28.8168 45.6322C28.8218 45.7505 28.8489 45.8712 28.9006 45.9821C28.9499 46.088 29.0238 46.1866 29.1224 46.2654L29.1322 46.2728C29.2727 46.3763 29.4698 46.4404 29.731 46.4256C29.763 46.4231 29.7926 46.4207 29.8222 46.4182ZM32.6509 45.8194C32.4365 45.7431 32.0965 45.6568 31.579 45.6174C30.4825 45.5336 30.5121 45.2453 30.554 44.6342C30.5959 44.0232 31.2439 43.7743 30.6525 43.1829C30.209 42.7394 29.7926 42.2663 29.5462 42.2367C29.5462 42.3279 29.5536 42.4117 29.5733 42.4881C29.6324 42.7394 29.7901 42.9341 30.0193 43.0893C30.3445 43.3111 30.485 43.5722 30.4948 43.8531V43.8556C30.5022 44.1217 30.3864 44.3928 30.1992 44.6589C30.1647 44.7082 30.1425 44.7599 30.1351 44.8117C30.1252 44.8831 30.1376 44.9595 30.177 45.0383C30.2238 45.1295 30.3027 45.2207 30.416 45.3069C30.4727 45.3488 30.5367 45.3907 30.6082 45.4301L30.6107 45.4326L30.6156 45.4351L30.6205 45.4375C30.8373 45.5533 31.1256 45.6519 31.4879 45.711C31.892 45.78 32.1384 45.9673 32.2566 46.1841C32.3182 46.295 32.3429 46.4157 32.3404 46.5315C32.3379 46.5858 32.3306 46.6375 32.3182 46.6868C32.4784 46.6424 32.6016 46.571 32.6878 46.4847C32.7568 46.4133 32.7987 46.332 32.811 46.2457C32.8258 46.1595 32.811 46.0683 32.7642 45.9771C32.7371 45.9229 32.7002 45.8712 32.6509 45.8194ZM55.0145 21.9553C54.7582 21.8247 54.5389 21.6891 54.4403 21.4748C54.4379 21.4994 54.4379 21.5241 54.4354 21.5512C54.4034 21.8863 54.6177 21.9109 54.8395 21.9331C54.8986 21.9405 54.9578 21.9454 55.0169 21.9553H55.0145ZM55.352 24.8678C55.3964 25.0501 55.4062 25.2842 55.3644 25.607C55.3249 25.8953 55.288 26.1293 55.2535 26.3339C55.1303 27.0706 55.0761 27.3983 55.4999 27.4969C55.5861 27.5166 55.665 27.5412 55.7364 27.5708C55.7044 27.556 55.6748 27.5412 55.6453 27.5264C55.2535 27.3121 55.1919 27.0312 55.6428 26.2427C56.1455 25.363 55.8547 25.1388 55.3545 24.8702L55.352 24.8678ZM53.6272 21.1545C53.6469 21.2234 53.6592 21.2924 53.6568 21.3614C53.6543 21.4797 53.7948 21.5955 53.9648 21.7335L54.0338 21.7902C54.0239 21.7113 54.0239 21.6202 54.0338 21.5167C54.0461 21.3959 54.0387 21.3023 54.0215 21.2284C53.9007 21.1963 53.7652 21.1742 53.6272 21.1569V21.1545ZM56.2637 32.627C56.1775 32.6886 56.1085 32.733 56.0025 32.7921C55.8966 32.8537 55.803 32.9818 55.7758 33.1223C55.7931 33.1099 55.8103 33.0952 55.8276 33.0853C56.0789 32.9153 56.2539 32.7822 56.2637 32.664C56.2637 32.6516 56.2637 32.6393 56.2637 32.627ZM51.8901 39.6495C52.0108 38.9916 51.4687 38.8684 51.9886 38.3091C52.5085 37.7473 52.5677 37.3974 52.6564 36.875C52.5381 37.1165 52.3829 37.3629 52.1907 37.6117C51.7299 38.2056 51.4884 38.6762 51.4613 39.0286C51.4391 39.3144 51.5821 39.5214 51.8901 39.652V39.6495ZM52.7081 37.831C52.2424 38.6639 52.4272 39.6643 52.8018 39.886C53.1763 40.1078 52.8412 39.9082 52.8609 39.9205C53.1541 39.6717 53.334 39.4548 53.4128 39.2651C53.5286 38.9867 53.3931 38.7427 53.0851 38.4914C52.8412 38.2918 52.7229 38.0701 52.7081 37.8335V37.831ZM53.4449 34.8052C53.366 35.1058 53.3931 35.3153 53.5533 35.5543C53.711 35.7933 53.8638 35.9017 53.7233 36.2343C53.8835 36.0964 54.0559 35.9584 54.2383 35.8229C54.396 35.7046 54.5192 35.6085 54.6104 35.5247C54.5537 35.4335 54.5167 35.3769 54.3147 35.3128C54.1126 35.2487 53.6863 35.0418 53.4473 34.8052H53.4449ZM55.2929 37.5871C55.4629 37.5009 55.6674 37.3087 55.5245 36.8972C55.2387 37.0499 55.0046 37.1855 54.8124 37.3062C54.8642 37.3974 54.9455 37.4713 55.0465 37.5156C55.1475 37.56 55.2239 37.5797 55.2929 37.5871ZM53.1245 37.7325C53.1172 37.9 53.1812 38.0528 53.3438 38.1859C53.7948 38.5555 53.982 38.9349 53.7874 39.408C53.7159 39.583 53.5853 39.7678 53.3882 39.9698C53.536 39.8811 53.6543 39.7678 53.7455 39.6446C53.8909 39.4548 53.9746 39.2355 54.0067 39.0335C54.0387 38.8364 54.0264 38.6614 53.9771 38.5481C53.9623 38.5111 53.9426 38.484 53.9229 38.4692C53.7775 38.3633 53.6642 38.2425 53.6395 38.0898C53.4227 37.9961 53.2256 37.8976 53.1196 37.7325H53.1245ZM53.6617 37.8803C53.6814 37.8138 53.7159 37.7448 53.7677 37.6684C53.8514 37.5452 53.9919 37.4048 54.2087 37.2397C54.1373 36.9612 54.1989 36.6286 54.3418 36.461C54.4847 36.2935 54.5512 36.1801 54.6079 36.0422C54.5685 36.0717 54.5266 36.1038 54.4847 36.1358C53.95 36.535 53.4892 36.9514 53.2625 37.3358L53.2551 37.3481C53.2379 37.6413 53.4227 37.7719 53.6617 37.8803ZM54.3073 39.9403C54.4724 39.753 54.6498 39.4006 54.5019 38.824C54.4822 38.7452 54.4502 38.6737 54.4157 38.6121C54.4403 38.7575 54.4379 38.9226 54.4108 39.0926C54.3689 39.3513 54.2605 39.6323 54.0732 39.8762C54.0091 39.9624 53.9352 40.0437 53.849 40.1177C54.0313 40.0881 54.1865 40.0216 54.3048 39.9353L54.3073 39.9403ZM55.2362 23.0123C55.2436 22.9631 55.251 22.9113 55.2559 22.8571C55.3077 22.3791 55.049 22.352 54.7976 22.3249C54.6966 22.315 54.5956 22.3027 54.5019 22.283C54.5857 22.4136 54.6572 22.5688 54.6991 22.7511C54.9159 22.8275 55.0908 22.9162 55.2338 23.0123H55.2362ZM56.1726 24.2197C56.143 24.1828 56.1208 24.1433 56.1011 24.1014C56.0296 23.9413 56.0395 23.791 56.0592 23.5199C56.0691 23.3967 56.0789 23.244 56.0839 23.0493C56.0937 22.66 55.8596 22.4234 55.5713 22.2436C55.6526 22.3815 55.6921 22.5885 55.6576 22.899C55.6403 23.0567 55.6157 23.1996 55.5861 23.3253C55.7857 23.5692 55.8424 23.8205 55.8498 24.0103C55.8547 24.1335 55.973 24.1901 56.1726 24.2197ZM55.5196 23.5766C55.4555 23.7836 55.3816 23.9413 55.3225 24.0694C55.2338 24.2591 55.2017 24.3331 55.4284 24.4538L55.4555 24.4686C56.2317 24.8801 56.7294 25.1487 55.9976 26.43C55.7044 26.94 55.6995 27.0977 55.8448 27.179C55.9262 27.2234 56.0518 27.2653 56.2021 27.317C56.3549 27.3687 56.5323 27.4279 56.7319 27.5141C57.2567 27.7408 56.175 28.1104 56.6851 28.6772C57.5056 29.239 56.7516 29.4632 56.4806 29.9683C56.3697 30.1728 56.382 30.3724 56.6999 30.5375C57.0769 30.7322 56.3032 31.5527 56.5298 31.8829C56.6826 32.1046 56.791 32.3412 56.8428 32.5629C57.0719 33.583 56.6112 33.7531 55.899 33.7531C55.9878 33.928 56.1208 34.0956 56.2884 34.2335C57.03 34.0241 57.5302 33.726 57.8555 33.3982C58.1364 33.1149 58.2867 32.8044 58.3557 32.5087C58.4247 32.2106 58.4099 31.9223 58.3606 31.6833C58.3039 31.4073 58.2054 31.2102 58.1389 31.1437C58.097 31.1042 58.0526 31.0673 58.0033 31.0278C57.5795 30.6829 57.0029 30.2098 57.8629 28.8472C58.1709 28.3618 57.9467 28.1006 57.6313 27.9108C57.5155 27.8394 57.3824 27.7753 57.2567 27.7137C56.7787 27.4772 56.3598 27.2727 56.584 26.8045C56.653 26.6591 56.7442 26.5039 56.8378 26.3486C57.1557 25.8139 57.4982 25.2349 56.8822 24.7914L56.7442 24.6903C56.6038 24.5893 56.4929 24.508 56.4017 24.439C55.9508 24.4144 55.66 24.3405 55.6477 24.0177C55.6428 23.892 55.6132 23.7392 55.5196 23.5791V23.5766ZM52.7377 20.1959C52.8634 20.2773 53.0285 20.3931 53.1861 20.5335C53.1738 20.4768 53.1689 20.4103 53.1714 20.3315C53.1812 20.0333 53.1443 19.7844 53.0211 19.5972C52.9052 19.4173 52.7032 19.2818 52.3804 19.2005L52.2005 19.1561C51.4687 18.9812 51.1016 18.8925 50.8675 17.897C50.8034 17.621 50.6457 17.4485 50.4683 17.3401C50.3845 18.104 50.3082 18.7717 51.0055 18.9935C51.7028 19.2153 52.8018 19.2621 52.8067 19.6391C52.8116 20.0161 52.7771 20.0037 52.7402 20.1935L52.7377 20.1959ZM52.6514 20.7035C52.6736 20.7035 52.718 20.7035 52.7771 20.7035C52.7377 20.674 52.6983 20.6469 52.6613 20.6198C52.6564 20.6493 52.6539 20.6764 52.6514 20.7035ZM53.4276 21.7779C53.3192 21.6571 53.2527 21.5265 53.2576 21.3466C53.2601 21.2678 53.2305 21.1889 53.1837 21.1101C52.9619 21.0978 52.7747 21.0978 52.6909 21.0978C52.718 21.1594 52.6786 21.1594 52.819 21.2505C52.9595 21.3417 53.1935 21.5758 53.4301 21.7779H53.4276ZM54.7434 23.1331C54.7434 23.1947 54.7434 23.2587 54.7385 23.3277C54.7114 23.7146 54.7779 23.9265 54.874 24.0842C54.8962 24.03 54.9233 23.9708 54.9529 23.9068C55.0268 23.7466 55.1253 23.5347 55.1943 23.2267L55.1623 23.2021C55.0514 23.1232 54.9134 23.0493 54.7483 22.9803C54.7508 23.032 54.7483 23.0813 54.7434 23.1331ZM54.9874 25.2669C54.9923 24.8604 54.8543 24.7002 54.7138 24.5351C54.603 24.4021 54.4872 24.269 54.4132 24.0645C54.3566 24.3774 54.4822 24.7741 54.6843 24.9466C54.8863 25.1166 54.9159 25.1585 54.9898 25.2694L54.9874 25.2669ZM55.527 29.239C55.7414 28.7856 55.8547 28.4529 55.835 28.2312C55.8202 28.0538 55.6871 27.9429 55.4062 27.8763C54.667 27.7014 54.6843 27.3071 54.8223 26.4497C54.5734 26.9548 54.5561 27.418 54.8691 27.6496C54.9036 27.6694 54.9381 27.6891 54.9701 27.7112C54.9923 27.7236 55.0145 27.7384 55.0366 27.7581C55.3742 28.0094 55.4678 28.3199 55.4284 28.6796C55.4678 28.8595 55.5023 29.0517 55.5245 29.2414L55.527 29.239ZM54.5586 32.0159C54.9159 32.1958 54.8223 32.7896 54.5906 33.1223C54.359 33.4574 54.1939 33.6545 54.1373 33.9576C54.2112 34.1005 54.295 34.2138 54.3935 34.2878L54.6054 34.4405C54.8346 34.6056 55.0145 34.7337 55.1253 34.8742C55.1598 34.9186 55.1894 34.9629 55.2091 35.0048C55.8374 35.3498 55.7709 35.6553 55.357 35.8475C54.943 36.0397 54.7483 36.4783 54.7262 36.8849C54.906 36.774 55.1155 36.6582 55.3545 36.53C55.9828 36.1974 56.3179 35.9116 56.4682 35.6701C56.5274 35.5764 56.5545 35.4902 56.5569 35.4188C56.5594 35.3498 56.5422 35.2882 56.5101 35.2315C56.4485 35.1181 56.3303 35.0245 56.212 34.9531C56.1898 34.9383 56.1676 34.9259 56.1455 34.9087C55.6132 34.8249 55.214 34.6845 54.9578 34.2459C54.7015 33.8073 54.9874 32.9892 55.3791 32.6171C55.7709 32.2451 55.2707 31.8558 55.081 31.671C54.8913 31.4862 54.8568 31.4862 54.7015 31.3629C54.5093 31.5847 54.4009 31.7917 54.5414 31.9962L54.5537 32.0159H54.5586ZM51.1509 15.1003C51.1558 15.0954 51.1582 15.0929 51.1558 15.0831C51.1435 15.0412 51.1484 15.0634 51.1509 15.1003ZM57.9935 33.8122C57.6953 34.0709 57.2962 34.305 56.7713 34.4923C56.8354 34.512 56.8132 34.5145 56.9684 34.5391C57.1212 34.5637 57.3996 34.5761 57.5524 34.5489C57.7939 34.4381 58.0797 34.2163 58.0871 33.7752C58.0575 33.7876 58.0255 33.7999 57.9959 33.8097L57.9935 33.8122ZM47.0261 12.6732C47.4302 13.0231 48.0659 13.4938 48.4577 13.3706L48.5119 13.3558C48.2581 13.2621 48.024 13.102 47.8614 12.7767C47.6618 12.3776 47.4622 12.1607 47.238 12.0671C47.1493 12.0301 47.0532 12.0104 46.9472 12.003C46.9645 12.0351 46.9792 12.0301 46.9669 12.1016C46.9546 12.173 46.9546 12.4441 47.0236 12.6732H47.0261ZM57.9836 30.4513C57.8382 29.9486 58.1044 29.611 58.5405 29.0689C58.6489 28.9211 58.7795 28.7683 58.8928 28.6229C59.3093 28.0833 59.5039 27.7334 59.0037 27.3638C58.9027 27.2899 58.8115 27.2111 58.7302 27.1322C58.5011 27.1593 58.3064 27.1618 58.1487 27.1421C57.9245 27.115 57.7594 27.0484 57.6485 26.9474C57.5302 26.8414 57.476 26.7035 57.4785 26.5433C57.4785 26.4004 57.5253 26.2427 57.6091 26.0751C57.789 25.7154 57.9467 25.3088 57.9467 24.991C57.9467 24.7101 57.8111 24.4981 57.4169 24.4735C57.3109 24.4661 57.2074 24.4637 57.1064 24.4587L57.1286 24.4735C58.0354 25.1289 57.5968 25.8657 57.1927 26.5482C57.1064 26.6936 57.0226 26.8341 56.9561 26.9745C56.8994 27.0952 57.1532 27.2209 57.444 27.3638C57.5771 27.4303 57.7175 27.4993 57.8506 27.5782C58.3458 27.8788 58.6982 28.2878 58.2128 29.0591C57.7421 29.8057 57.8037 30.1999 57.9885 30.4562L57.9836 30.4513ZM40.7526 8.28726C40.6344 8.17392 40.4545 8.09999 40.1317 8.12217C39.6216 8.15913 39.1535 8.87124 39.5132 9.13982L39.5157 9.13735C39.5181 9.13489 40.1243 8.54845 40.7526 8.28726ZM42.7855 8.34886L42.7682 8.3464C42.5415 8.32915 42.4085 8.37843 42.3148 8.45482C42.438 8.4351 42.5686 8.40307 42.6967 8.37104L42.7855 8.34886ZM46.6491 10.3694C46.6491 10.256 46.6565 10.1427 46.6663 10.0318C46.6762 9.89874 46.6885 9.77061 46.6762 9.67205C46.654 9.4971 46.5037 9.39115 46.2277 9.3468C46.2548 9.39115 46.2819 9.43797 46.3041 9.48971C46.4569 9.82235 46.4889 10.0417 46.5111 10.1944C46.5209 10.2683 46.5283 10.3152 46.5382 10.3226L46.5456 10.3275C46.5677 10.3423 46.5998 10.3546 46.6515 10.3694H46.6491ZM49.9533 11.562C49.9459 11.5447 49.9385 11.5275 49.9336 11.5078C49.8597 11.2244 49.7685 11.1061 49.5024 11.079C49.6355 11.1899 49.7242 11.318 49.8351 11.4757L49.8474 11.4954C49.8671 11.525 49.904 11.5472 49.9533 11.562ZM47.0088 10.8375C47.1591 10.9829 47.4449 11.0642 47.9698 11.0076L48.0437 11.0002C47.8885 10.9731 47.7135 10.9435 47.5164 10.9139L47.4745 10.9065C47.2922 10.8794 47.1394 10.8572 47.0063 10.8351L47.0088 10.8375ZM43.1896 8.67165C43.1896 8.71354 43.1871 8.75543 43.1871 8.79732C43.1846 8.90081 43.1797 9.00922 43.1969 9.09793C43.2364 9.30244 43.4089 9.44289 44.0594 9.32708L44.2663 9.29012C43.9854 9.25809 43.7514 9.14721 43.6232 8.83428C43.5567 8.67165 43.3916 8.64455 43.1896 8.66919V8.67165ZM41.1543 8.55091C41.2306 8.69629 41.3144 8.8121 41.5165 8.79978C41.5756 8.79732 41.6274 8.78746 41.6742 8.77268C41.6101 8.73818 41.5485 8.69136 41.4918 8.63223C41.4081 8.54598 41.2898 8.52627 41.1543 8.54845V8.55091ZM43.0097 9.18663C43.0048 9.16939 42.9998 9.14967 42.9974 9.13243C42.9776 9.02154 42.9801 8.90327 42.985 8.78992L42.9875 8.70861C42.9259 8.7234 42.8618 8.73818 42.7953 8.75543C42.507 8.82688 42.2089 8.90081 41.9403 8.86385C41.8442 8.9353 41.7161 8.98951 41.5263 8.99937C41.1789 9.01908 41.068 8.82935 40.9547 8.61005C40.5949 8.7505 40.1785 9.08561 39.9543 9.28027C40.1169 9.2852 40.0799 9.33694 40.4865 9.18417C40.8931 9.0314 40.6935 8.67412 41.3908 9.1546C42.0881 9.63509 42.167 9.46014 42.5514 9.30737C42.9358 9.1546 42.9234 9.16939 43.0097 9.19156V9.18663ZM46.1045 11.0864C46.1464 11.0889 46.1908 11.0913 46.2351 11.0913C46.5727 11.0864 46.8413 11.0963 47.0581 11.1209C46.8856 11.0421 46.7821 10.9262 46.723 10.7883C46.5086 10.7464 46.3829 10.7045 46.2967 10.6404L46.2795 10.6281C46.1489 10.5246 46.1341 10.4187 46.1094 10.2486C46.0897 10.1205 46.0651 9.93324 45.9345 9.64987C45.8532 9.47246 45.7201 9.37636 45.5575 9.32462C45.1657 9.3468 44.6778 9.41333 44.0939 9.51928C43.6405 9.60059 43.3719 9.56856 43.2093 9.47L43.2388 9.54392C43.4039 9.94556 43.1156 10.0022 44.047 9.82728C44.9784 9.65234 45.3357 9.73858 45.5427 10.0195C45.73 10.0614 45.8926 10.1476 45.9419 10.3127C45.9788 10.4408 45.9542 10.564 45.932 10.6848C45.9222 10.7316 45.9123 10.7784 45.9099 10.8203C45.9 10.9262 45.9271 11.0199 46.1045 11.0913V11.0864ZM48.9184 12.38C48.8174 12.1238 48.6967 12.072 48.5759 12.0671C48.6351 12.2199 48.7312 12.3431 48.9184 12.38ZM48.369 12.0819C48.2063 12.0917 48.0437 12.0769 47.8885 11.9168C47.7505 11.7739 47.6297 11.663 47.4203 11.594C47.1887 11.5176 46.8388 11.4782 46.2425 11.488C46.0355 11.4905 45.8606 11.4659 45.7152 11.4215C45.7448 11.4782 45.7817 11.5299 45.8261 11.5694C45.9912 11.6531 46.1636 11.6999 46.3287 11.6679C46.7378 11.5891 47.0803 11.5718 47.3932 11.7049C47.7086 11.8379 47.9722 12.1114 48.2211 12.6043C48.3961 12.9566 48.746 13.0281 49.0687 13.0946C49.155 13.1118 49.2388 13.1291 49.3225 13.1513C49.1993 13.0305 49.0934 12.8507 48.9948 12.5993C48.6178 12.5919 48.4552 12.3652 48.3665 12.0868L48.369 12.0819ZM45.6363 10.2462C45.6462 10.3127 45.6511 10.3521 45.6388 10.4679C45.6265 10.5837 45.6117 10.7636 45.6142 10.8967C45.6437 10.9238 45.6782 10.9509 45.7152 10.9731C45.7029 10.9189 45.7029 10.8597 45.7103 10.8006C45.7152 10.7488 45.725 10.6971 45.7349 10.6478C45.7546 10.5492 45.7743 10.4507 45.7497 10.3669C45.7349 10.3152 45.693 10.2757 45.6363 10.2486V10.2462ZM48.2852 11.6852V11.6827L48.2753 11.6137C48.2507 11.4659 48.1299 11.419 47.918 11.4043C48.0117 11.4733 48.093 11.5521 48.1792 11.6408C48.2063 11.6679 48.2433 11.6802 48.2852 11.6827V11.6852ZM53.3069 14.4843V14.472C53.3167 14.3168 53.2921 14.1689 53.2379 14.0383C53.1861 13.9077 53.1048 13.7944 53.0013 13.7081C52.8831 13.6096 52.7328 13.5455 52.5627 13.5332L52.3952 13.5233C52.1192 13.5086 51.9911 13.5012 51.8925 13.4248C51.8063 13.3582 51.7718 13.2646 51.7102 13.0921C51.6806 13.0133 51.6461 12.9147 51.5993 12.8014C51.4934 12.5451 51.2346 12.417 50.9143 12.3726C50.4609 12.3086 49.8843 12.4071 49.4014 12.5328C49.5049 12.7767 49.6059 12.9024 49.7266 12.9468C49.8819 13.0059 50.1086 12.9541 50.419 12.8679C51.1755 12.6609 51.2248 12.7299 51.7127 13.3903L51.8802 13.617C52.0724 13.8732 52.2671 13.8831 52.4445 13.8929C52.7648 13.9102 53.058 13.925 53.302 14.4794L53.3069 14.4843ZM49.0047 14.0235C48.9184 13.8018 48.8248 13.6712 48.5759 13.7476C48.3763 13.8092 48.1497 13.7796 47.918 13.6958C47.9575 13.755 47.992 13.8116 48.0191 13.8683C48.3123 13.8609 48.6917 13.8855 49.0047 14.0235ZM50.9981 14.78C50.8527 14.6666 50.6753 14.6346 50.5053 14.605C50.1184 14.5336 49.7661 14.4695 49.6576 13.9348C49.6084 13.686 49.431 13.5899 49.2141 13.5307C49.3053 13.6638 49.3694 13.8461 49.4433 14.0556C49.5123 14.2502 49.5887 14.4769 49.7217 14.6888C49.8671 14.9254 50.0223 15.0141 50.1948 15.0264C50.3205 14.9894 50.4831 14.9352 50.6925 14.8662L50.6975 14.8638C50.8059 14.8293 50.9044 14.7997 50.9956 14.7775L50.9981 14.78ZM55.4013 18.0646C55.3988 17.934 55.3964 17.8329 55.3816 17.7664C55.3668 17.7048 55.2387 17.7171 54.7582 17.828L54.7065 17.8403C54.7311 17.8699 54.7582 17.897 54.7878 17.9241C54.8617 17.9857 54.9578 18.035 55.081 18.0572C55.1722 18.0744 55.2781 18.0793 55.4013 18.0646ZM52.6933 16.5073L52.5923 16.4802C52.1784 16.3693 51.7053 16.2412 51.4515 15.8223C51.4662 15.9627 51.5081 16.1204 51.5895 16.3003C51.7644 16.6798 52.1143 16.6502 52.3878 16.6305C52.543 16.6182 52.681 16.6083 52.8042 16.6428L52.8165 16.6453C52.9816 16.697 53.0851 16.8005 53.0999 17.0124C53.1664 16.8325 53.1418 16.729 53.0654 16.6601C52.9151 16.6305 52.7944 16.5787 52.6909 16.5073H52.6933ZM52.3016 15.9775C52.2646 15.8937 52.2326 15.805 52.1981 15.7114L52.1784 15.6572C52.0625 15.3344 51.9517 15.0313 51.6042 14.95C51.6387 15.051 51.6683 15.1644 51.688 15.2974C51.7496 15.6818 52.0059 15.8642 52.3016 15.9775ZM54.3566 17.5225C54.3368 17.4091 54.3393 17.3155 54.3492 17.2687C54.3664 17.1824 54.3935 17.0026 54.3171 16.8646C54.2432 16.729 54.0609 16.6256 53.6445 16.6699C53.6149 16.6724 53.5853 16.6773 53.5558 16.6798C53.5804 16.8227 53.5508 17.0026 53.4449 17.2391C53.2872 17.5939 53.2527 17.7344 53.2921 17.7516C53.3931 17.796 53.6987 17.7073 54.0707 17.6038C54.1644 17.5767 54.2605 17.5496 54.3566 17.5249V17.5225ZM51.0966 16.1204C50.9932 15.7286 51.0498 15.433 51.104 15.2334C51.0153 15.258 50.934 15.2827 50.8552 15.3048C50.2761 15.4798 49.8277 15.6178 49.3792 14.8958C49.2535 14.6938 49.1747 14.4942 49.1082 14.3094C48.8347 14.0999 48.4133 14.058 48.0856 14.063C48.0954 14.1196 48.1275 14.058 48.0807 14.2231C48.0338 14.3857 48.534 14.8219 48.7262 14.8958C48.9209 14.9697 48.8174 14.9328 48.8667 14.9574C49.2043 15.0165 49.5221 15.1373 49.6848 15.3689C49.7464 15.4576 49.7932 15.5291 49.8301 15.5833C49.8967 15.6843 49.9287 15.7311 49.9484 15.741C49.9583 15.7459 49.9878 15.7459 50.0396 15.7459C50.1184 15.7459 50.2367 15.7459 50.4289 15.773C50.6901 15.8075 50.9143 15.9307 51.0991 16.118L51.0966 16.1204ZM52.5874 18.3036C52.5061 18.1015 52.5085 17.8181 52.6293 17.4288C52.7204 17.1331 52.7254 17.037 52.6958 17.0247H52.6909C52.6391 17.0099 52.5381 17.0173 52.4223 17.0272C52.134 17.0494 51.794 17.0765 51.5155 16.8572C51.5845 17.074 51.6239 17.3155 51.6338 17.5668C51.6486 17.9709 51.7373 18.1705 51.8703 18.2617C52.0034 18.3504 52.1981 18.343 52.4124 18.3257L52.58 18.3085H52.5898L52.5874 18.3036ZM54.911 20.1393L54.9307 20.0777L54.9874 19.8879C55.0292 19.745 55.0391 19.5627 55.0145 19.3803C54.9923 19.2153 54.9405 19.0526 54.8592 18.922C54.7878 18.8087 54.6941 18.7224 54.5759 18.6904C54.5217 18.6756 54.4601 18.6707 54.3911 18.6781L54.3319 18.6855C54.4108 18.8284 54.4477 19.0132 54.4182 19.2571C54.3418 19.9101 54.5241 20.0925 54.8666 20.1319L54.911 20.1368V20.1393ZM56.4904 20.7085C56.621 20.7577 56.7442 20.8243 56.8477 20.9056C56.9512 20.9844 57.0399 21.0805 57.1064 21.1865C57.4366 20.5532 57.6362 20.0949 57.651 19.814C57.6608 19.612 57.4859 19.5405 57.0522 19.5996C56.3968 19.6859 56.0296 19.6859 55.7882 19.5233C55.5319 19.3483 55.4703 19.0477 55.4235 18.5352C55.4161 18.4391 55.4112 18.3479 55.4062 18.2666C55.2683 18.2814 55.1475 18.274 55.044 18.2543C54.8839 18.2247 54.7557 18.1582 54.6596 18.0769C54.5956 18.0227 54.5414 17.9611 54.4995 17.897C54.3886 17.9266 54.2826 17.9561 54.1816 17.9857C53.7332 18.1114 53.366 18.2173 53.1295 18.1163C53.0457 18.0793 52.9816 18.0276 52.9422 17.9561C52.9422 18.104 52.9866 18.2025 53.058 18.2666C53.2157 18.2592 53.3833 18.2592 53.5434 18.2765C53.6666 18.2912 53.7849 18.3159 53.8958 18.3528C53.9943 18.343 54.0929 18.3282 54.1865 18.3159L54.3393 18.2962C54.465 18.2814 54.5808 18.2888 54.6867 18.3183C54.911 18.3799 55.081 18.5303 55.2042 18.7225C55.3151 18.8999 55.3865 19.1167 55.4161 19.3335C55.4481 19.5676 55.4358 19.8066 55.3791 19.9988L55.3348 20.1442L55.4506 20.1393C55.5565 20.1343 55.665 20.1294 55.7808 20.1294C55.9483 20.127 56.0814 20.1541 56.1824 20.2009C56.2958 20.2526 56.3721 20.3315 56.4214 20.4251C56.4658 20.5113 56.4879 20.6074 56.4904 20.7109V20.7085ZM57.0276 22.6279C56.8551 22.4308 56.7417 22.1992 56.8255 21.8271C56.8502 21.7187 56.8477 21.6202 56.8231 21.5314C56.7886 21.4058 56.7072 21.2998 56.5988 21.2161C56.5496 21.1766 56.4929 21.1446 56.4337 21.115C56.382 21.3048 56.3056 21.4748 56.2539 21.5783C56.2218 21.6448 56.1947 21.7705 56.2046 21.9134C56.2144 22.0514 56.2588 22.2066 56.3623 22.3347C56.4682 22.4629 56.6358 22.5688 56.8945 22.6132C56.9364 22.6206 56.9783 22.6255 57.0251 22.6304L57.0276 22.6279ZM56.4436 22.6575C56.4781 22.7758 56.4978 22.9088 56.4929 23.0592C56.488 23.2587 56.4756 23.4189 56.4658 23.547C56.451 23.7565 56.4436 23.8723 56.4756 23.9437C56.5101 24.0201 56.6112 24.1039 56.8206 24.2542C57.0079 24.2567 57.2099 24.2616 57.4292 24.2764C57.9639 24.3109 58.1487 24.6016 58.1487 24.991C58.1487 25.3458 57.9787 25.7819 57.7914 26.1614C57.72 26.3043 57.683 26.4324 57.683 26.5433C57.683 26.6468 57.715 26.7355 57.789 26.802C57.8678 26.8735 57.9959 26.9228 58.1758 26.9449C58.2892 26.9573 58.4198 26.9597 58.5725 26.9499C58.4148 26.7478 58.3163 26.5285 58.2719 26.2821C58.198 25.8706 58.2867 25.3975 58.5454 24.8308L58.5503 24.8185C58.6859 24.5228 58.6144 24.4218 58.4887 24.3676C58.4321 24.3429 58.3606 24.3207 58.2892 24.2961C57.9368 24.1828 57.5672 24.0645 57.6066 23.5298C57.6288 23.2095 57.4341 23.0222 57.2444 22.8448L57.2321 22.8349C57.0966 22.8374 56.9758 22.8275 56.8674 22.8103C56.6974 22.7807 56.5594 22.729 56.4461 22.6624L56.4436 22.6575ZM55.2732 20.3413C55.2264 20.4966 55.1943 20.6271 55.2116 20.6887C55.2165 20.7035 55.2806 20.6961 55.458 20.6493C55.7167 20.5828 55.9951 20.5803 56.2539 20.637L56.2834 20.6444C56.276 20.5976 56.2637 20.5508 56.2415 20.5113C56.212 20.4547 56.1652 20.4078 56.0962 20.3734C56.0198 20.3389 55.9188 20.3191 55.7857 20.3216C55.6724 20.3241 55.5639 20.329 55.4604 20.3315C55.3964 20.3339 55.3348 20.3364 55.2756 20.3389L55.2732 20.3413ZM49.5123 15.4724C49.6059 15.6005 49.67 15.5857 49.6552 15.8937C49.6404 16.2017 50.6704 15.7163 50.5472 16.7019L50.5201 16.9188C50.833 17.0568 51.1459 17.3179 51.2617 17.8108C51.4416 18.5672 51.7274 18.6362 52.2966 18.7717L52.4814 18.8161C52.9126 18.9245 53.1935 19.1192 53.3636 19.3853C53.5336 19.6489 53.5878 19.9693 53.5755 20.3438C53.5705 20.4842 53.6814 20.5187 53.8046 20.5532C54.0239 20.6173 54.2605 20.6887 54.3763 20.9499C54.5808 21.0362 54.7434 21.152 54.8124 21.3048C54.8691 21.4329 55.0982 21.5462 55.3545 21.6719C55.5787 21.7828 55.8202 21.9011 56.0222 22.0637C56.0124 22.0169 56.005 21.97 56.0025 21.9232C55.9902 21.7458 56.0247 21.5832 56.0691 21.4896C56.1183 21.391 56.1923 21.221 56.2415 21.0411C56.2169 21.0337 56.1898 21.0263 56.1627 21.0214C55.9656 20.9795 55.7537 20.9795 55.5565 21.0312C55.0908 21.152 54.8839 21.0386 54.8173 20.7873C54.7828 20.6567 54.805 20.5015 54.8518 20.3315L54.842 20.329C54.3713 20.2748 54.12 20.0456 54.2161 19.235C54.2432 19.0033 54.1939 18.8358 54.0954 18.72C53.7578 18.7643 53.3808 18.7988 53.0827 18.7126C52.9274 18.6682 52.7968 18.5968 52.7007 18.4884L52.5997 18.5007C52.5356 18.5081 52.4814 18.5155 52.4272 18.5179C52.1759 18.5401 51.9418 18.545 51.7545 18.4194C51.5697 18.2937 51.4465 18.0473 51.4293 17.5693C51.4145 17.1356 51.3012 16.7438 51.1114 16.4531C50.9365 16.187 50.6925 16.0095 50.4018 15.9701C50.2219 15.9455 50.1135 15.9455 50.0396 15.9455C49.9533 15.9455 49.9065 15.9455 49.8498 15.9135C49.7858 15.879 49.7488 15.8198 49.6626 15.6892C49.6256 15.635 49.5813 15.566 49.5197 15.4773L49.5147 15.4699L49.5123 15.4724Z" fill="url(#paint0_linear)"/>
<defs>
<linearGradient id="paint0_linear" x1="35.2948" y1="13.1587" x2="44.7591" y2="43.1139" gradientUnits="userSpaceOnUse">
<stop stop-color="#C2562E"/>
<stop offset="1" stop-color="#8B402A"/>
</linearGradient>
</defs>
</svg>
