<svg width="85" height="212" viewBox="0 0 85 212" fill="none" xmlns="http://www.w3.org/2000/svg">
<path d="M32.6118 45.3959C32.209 45.0607 31.4764 44.6687 31.2709 44.4822C31.0411 44.274 31.4493 43.7279 31.1925 44.1253C30.9357 44.5227 31.0573 44.6741 31.9089 45.1499C32.1657 45.2932 32.3225 45.4311 32.4145 45.55C33.4174 46.48 31.8981 47.2045 31.0817 47.2478C30.8735 47.2586 30.6951 47.1883 30.5599 47.0856C30.3869 46.9531 30.2815 46.7584 30.2733 46.6098C30.2652 46.5016 30.3517 46.407 30.4626 46.4016C30.5761 46.3962 30.6708 46.4773 30.6789 46.5881C30.6816 46.6395 30.7302 46.7152 30.8113 46.7774C30.8762 46.826 30.96 46.8612 31.0573 46.8558C31.2087 46.8477 31.3196 46.7828 31.3763 46.6963C31.4034 46.6557 31.4169 46.6098 31.4196 46.5638C31.4223 46.5178 31.4088 46.4692 31.3818 46.4232C31.3115 46.3016 31.1438 46.1934 30.8492 46.1475C30.5815 46.1042 30.3436 46.0474 30.1382 45.9745C30.1409 46.2097 30.0652 46.5016 29.7516 46.6855C29.8408 46.7612 29.9435 46.8368 30.0598 46.9152C30.1301 46.9612 30.1463 47.0531 30.0976 47.1207C30.049 47.1883 29.9543 47.2045 29.8841 47.1558C29.7083 47.0369 29.5596 46.9207 29.4353 46.8071C29.3217 46.8341 29.192 46.8531 29.0406 46.8612C28.6567 46.8774 28.3593 46.7855 28.1376 46.6314L28.1241 46.6233C27.9619 46.507 27.8403 46.3556 27.7592 46.1907C27.6808 46.0312 27.6375 45.8582 27.6294 45.6933C27.6294 45.6717 27.6267 45.6473 27.6267 45.6257C26.5859 45.2445 26.667 44.9201 26.7643 44.52C26.8157 44.3064 26.8779 44.055 26.4615 43.6901C26.1209 43.3927 25.8938 43.1359 25.7613 42.9034C25.5856 42.898 25.3748 42.8763 25.1341 42.8358C24.5259 42.7331 24.1717 42.4654 23.969 42.2032C23.7365 42.0193 23.4013 41.6111 23.5391 40.8515C23.6094 40.4676 23.8419 40.2621 24.0987 40.108C24.1285 40.0567 24.1258 39.9972 24.069 39.9242C24.0068 39.8485 23.9122 39.7593 23.7689 39.662C23.6283 39.8728 23.404 40.0188 23.0985 39.9945C22.7227 39.9675 22.5551 39.8323 22.4794 39.6944C22.3415 39.5457 22.2604 39.3105 22.3713 38.9402C21.7414 38.6428 21.3737 38.3589 21.1817 38.0994C21.0709 37.948 21.0141 37.802 20.9979 37.6641C20.9817 37.5209 21.0087 37.3884 21.0655 37.2694C21.0844 37.2289 21.1088 37.1883 21.1331 37.1505C21.0087 37.1478 20.8817 37.1343 20.7573 37.1126C20.7249 37.1072 20.6924 37.0991 20.66 37.0937C20.5275 37.0829 19.5381 36.9585 19.5354 35.9934C19.4894 35.9691 19.4434 35.9448 19.4002 35.915C19.092 35.7204 18.8352 35.4203 18.6865 35.0716C18.5351 34.7201 18.4918 34.3173 18.6027 33.9145C18.654 33.728 18.7379 33.5414 18.8595 33.3603C19.4191 32.5276 19.1785 32.26 18.6324 31.6761C18.5 31.5463 18.3648 31.3868 18.2377 31.2489C17.6051 30.5514 17.3131 30.081 18.0701 29.443L18.0755 29.4376C17.9539 29.4187 17.8241 29.3971 17.6862 29.37C17.6322 29.3592 17.5943 29.3079 17.6051 29.2538C17.6159 29.1997 17.67 29.1673 17.7241 29.1781C17.916 29.216 18.0944 29.2457 18.2566 29.2646C18.454 29.051 18.5648 28.8267 18.5919 28.5725C18.627 28.2373 18.5162 27.8426 18.2539 27.3668L18.2485 27.3587C17.9241 26.7775 18.1188 26.5369 18.4405 26.372C18.5189 26.3314 18.5973 26.3017 18.6757 26.2692C18.8784 26.1908 19.0893 26.107 19.0569 25.8799C19.0028 25.5258 19.1136 25.2879 19.2677 25.0878C19.1298 25.0716 18.9812 25.0473 18.8217 25.0148C18.7676 25.004 18.7297 24.95 18.7433 24.8986C18.7541 24.8445 18.8081 24.8121 18.8622 24.8229C19.0704 24.8661 19.2596 24.8932 19.4245 24.904L19.4705 24.8553C19.6462 24.6634 19.8165 24.4823 19.7273 24.1903C19.7138 24.1443 19.703 24.0984 19.6949 24.0524C19.6786 24.0389 19.6624 24.0227 19.6516 24.0038C19.119 23.1711 18.7784 22.5736 18.727 22.1762C18.6595 21.6518 18.9568 21.4301 19.7462 21.4815C20.3058 21.5193 20.6005 21.5112 20.733 21.4085C20.8492 21.3193 20.8681 21.0949 20.8736 20.7002C20.8763 20.5812 20.8709 20.4758 20.8681 20.3812C20.7222 20.3487 20.56 20.3001 20.3842 20.2325C20.3329 20.2136 20.3058 20.1541 20.3248 20.1054C20.3437 20.0541 20.4032 20.0297 20.4572 20.0487C20.6032 20.1027 20.7357 20.146 20.8573 20.1757C20.8519 20.0568 20.8492 19.9594 20.8627 19.8783C20.9249 19.4999 21.152 19.4431 21.963 19.5729C22.0036 19.5783 22.0414 19.5864 22.082 19.5918C22.0874 19.5161 22.082 19.4566 22.0739 19.4269C22.0441 19.3187 21.9928 19.0916 22.0847 18.8889C22.1793 18.6834 22.4145 18.5104 22.9444 18.5374C22.9957 18.5401 23.0471 18.5401 23.0931 18.5401C23.1606 18.432 23.2715 18.3482 23.4121 18.2752L23.4283 18.2671C23.5499 18.2049 23.6932 18.1563 23.8473 18.1049C23.8906 18.0914 23.9338 18.0752 23.9771 18.0616C24.0366 17.9373 24.0798 17.7913 24.1258 17.6345L24.142 17.5777C24.2691 17.129 23.7797 16.6586 24.3474 16.5991C24.5475 16.2071 24.9017 16.1206 25.2342 16.0368C25.4775 15.9773 25.7019 15.9205 25.7343 15.6475C25.764 15.4123 25.8451 15.2528 25.9614 15.1365C25.7478 15.169 25.5045 15.1311 25.2071 15.0717C24.707 14.9716 24.6773 15.0203 24.3718 15.4988L24.2177 15.7394C23.9392 16.1665 23.6446 16.199 23.3715 16.2314C23.1471 16.2558 23.0498 16.0124 22.9119 16.6288C22.8119 17.0776 24.0771 17.5291 23.8635 17.7318C23.7311 17.8589 23.3093 18.0914 23.1012 18.1157L22.9687 18.1319C22.9119 18.14 22.8606 18.1049 22.8525 18.0508C22.8443 17.9968 22.8822 17.9454 22.9363 17.9373L23.0768 17.9184C23.2526 17.8967 23.4742 17.8697 23.5581 17.7913C24.0311 17.3398 22.4442 17.5237 22.301 16.491C22.2766 16.3071 22.2929 16.1287 22.3442 15.9692C22.3983 15.807 22.4875 15.6583 22.6092 15.5448C22.7524 15.4096 22.9363 15.315 23.1552 15.2879L23.3229 15.2663C23.5581 15.2393 23.6662 15.2257 23.7121 15.1852C23.75 15.1528 23.7716 15.0771 23.8095 14.9365C23.8311 14.8554 23.8608 14.7581 23.9014 14.631C24.0149 14.2877 24.3204 14.1065 24.7124 14.0281C25.2017 13.9281 25.8235 13.993 26.3426 14.093H26.3507L26.3561 14.0714C26.5318 13.3928 26.8454 13.3631 27.1536 13.3658L27.1563 13.3442L27.1617 13.2766C27.1887 12.99 27.3591 12.9035 27.6727 12.8657L27.6186 12.863L27.1049 12.8413L26.94 12.8332C26.3939 13.0171 26.2939 13.1847 26.1344 13.4523L26.1236 13.4712C25.9506 13.7578 25.591 13.7821 25.1585 13.8119C24.6908 13.8443 24.115 13.8822 23.7446 14.312C23.6716 14.3958 23.5445 14.4066 23.458 14.3363C23.3715 14.266 23.3607 14.1417 23.431 14.0579C23.5445 13.9254 23.6716 13.82 23.8041 13.7389C23.5445 13.7686 23.3174 13.8173 23.1769 13.9092C22.9984 14.0254 22.9768 14.239 23.2526 14.631C23.285 14.677 23.2715 14.7364 23.2255 14.7689C23.1796 14.7986 23.1147 14.7878 23.0822 14.7418C22.72 14.2282 22.7795 13.9281 23.0579 13.7443C23.3499 13.5523 23.8906 13.5226 24.4042 13.4929L24.4556 13.4902C24.6854 13.4442 24.9152 13.428 25.126 13.4145L25.2423 13.4063C25.3775 13.3712 25.4667 13.3225 25.4802 13.2495C25.5802 12.717 25.7316 12.6061 26.4075 12.6115C26.7048 12.4629 27.1698 12.325 27.9808 12.152L28.0214 12.1439C28.3296 12.079 28.5486 12.0303 28.7054 11.9952C28.7 11.8762 28.681 11.7519 28.6621 11.6329C28.6405 11.4896 28.6189 11.3545 28.6243 11.2355C28.6405 10.9111 28.9054 10.73 29.4137 10.6624L29.4272 10.6597C29.7354 10.3569 30.2004 10.3542 30.6383 10.3488C31.0141 10.3461 31.3682 10.3434 31.452 10.0893C31.6007 9.64319 31.9387 9.58371 32.3334 9.62426C32.3901 9.54857 33.0903 9.55127 33.2471 9.52964C33.7013 9.46476 33.877 9.62426 34.0338 9.79999C34.1311 9.78377 34.2149 9.74592 34.2717 9.67833C34.4745 9.44313 34.7718 9.41069 35.0881 9.47828C35.0908 9.47558 35.8154 9.55127 36.3425 9.82432C36.3533 9.12413 37.7078 9.54046 38.1403 9.02951C38.6999 8.36988 39.8759 7.98869 40.176 7.96977C40.6842 7.93463 40.9302 8.0752 41.0843 8.25633C41.4141 8.16982 41.7331 8.18334 41.9656 8.40502C42.0332 8.4699 42.1251 8.50234 42.2279 8.51316C42.3793 8.32933 42.555 8.15901 43.0389 8.19415C43.2065 8.20497 43.3119 8.25363 43.3768 8.32392C43.7904 8.25633 44.1527 8.29418 44.3474 8.73214C44.4582 8.97815 44.8313 8.95922 45.2314 8.9376C45.6964 8.91326 46.1884 8.88893 46.5398 9.17009H46.5533C47.0967 9.20523 47.3941 9.37014 47.4347 9.69185C47.4509 9.8081 47.4374 9.94597 47.4265 10.092C47.4157 10.2109 47.4049 10.3353 47.4103 10.4542C47.5779 10.4812 47.8158 10.5137 48.1457 10.5596L48.1916 10.5651C49.0648 10.6867 49.5704 10.7948 49.8975 10.9246C50.6139 10.8759 50.7815 10.976 50.9302 11.5004C50.9518 11.5734 51.0491 11.6167 51.1951 11.641H51.3195C51.5439 11.641 51.7899 11.6437 52.0386 11.6735H52.0954C52.6414 11.6708 53.2173 11.6653 53.5417 11.8384C53.8526 12.0033 53.9391 12.3007 53.5958 12.8332C53.566 12.8792 53.4984 12.8954 53.4471 12.8684C53.3957 12.8413 53.3768 12.7792 53.4092 12.7332C53.6714 12.325 53.6309 12.1141 53.4335 12.0087C53.2767 11.9249 53.0334 11.8897 52.755 11.8762C52.901 11.9492 53.0416 12.0438 53.174 12.1709C53.2578 12.2493 53.2551 12.3736 53.1686 12.4493C53.0821 12.525 52.9442 12.5223 52.8631 12.4439C52.436 12.0384 51.8223 12.0357 51.3222 12.033C50.8599 12.0303 50.476 12.0303 50.2705 11.7546L50.257 11.7356C50.0651 11.4788 49.9461 11.3193 49.3514 11.1679L49.1784 11.1868L48.6377 11.2409L48.5809 11.2463C48.9134 11.2625 49.1027 11.3382 49.154 11.6221L49.1648 11.6897L49.1676 11.7113C49.4947 11.687 49.8299 11.6978 50.0705 12.3628L50.0786 12.3845L50.0867 12.3818C50.6274 12.2493 51.2843 12.1466 51.8088 12.2141C52.2278 12.2682 52.5685 12.4304 52.7171 12.7656C52.7712 12.89 52.8091 12.9873 52.8415 13.0657C52.8956 13.2036 52.9226 13.2766 52.9659 13.3063C53.0172 13.3442 53.1335 13.3496 53.3849 13.3631L53.566 13.3739C53.7985 13.3874 54.004 13.4685 54.1662 13.5956C54.3041 13.7037 54.4122 13.8416 54.4825 14.0038C54.5501 14.1606 54.5825 14.339 54.569 14.5229C54.5609 14.6418 54.5338 14.7635 54.4852 14.8851C54.4906 14.9527 54.4608 15.0176 54.4014 15.0581C54.3446 15.1582 54.2743 15.2555 54.1851 15.3501C53.9283 15.6232 53.9039 15.7502 53.9769 15.807C54.0716 15.88 54.3068 15.8935 54.496 15.9043L54.6447 15.9124C54.7042 15.9178 54.7474 15.9665 54.742 16.0206C54.7366 16.0746 54.6852 16.1152 54.6231 16.1098L54.4825 16.1017C54.2608 16.0908 53.9823 16.0746 53.8337 15.9584C53.666 15.8286 53.6552 15.6069 54.0175 15.223C54.0661 15.1717 54.1067 15.1203 54.1445 15.069C54.104 15.0446 54.0743 15.0068 54.058 14.9608C53.8607 14.3552 53.6444 14.3444 53.4038 14.3336C53.1118 14.3201 52.7982 14.3039 52.4684 13.8957L52.2846 13.6659C51.9223 13.209 51.8845 13.1603 51.3627 13.2928C51.0518 13.3712 50.7977 13.4253 50.5706 13.4063C50.7031 13.5145 50.8031 13.6686 50.8518 13.9011C50.9086 14.1714 51.1519 14.212 51.4141 14.2579C51.7709 14.3201 52.1575 14.385 52.3981 14.7635C53.0037 14.7851 53.1632 15.196 53.3335 15.634L53.3551 15.688C53.4146 15.8421 53.4741 15.9827 53.5471 16.1044C53.5958 16.1179 53.6417 16.1287 53.6877 16.1395C53.8526 16.1801 54.0094 16.2206 54.1445 16.2747L54.1635 16.2828C54.3176 16.345 54.4446 16.4234 54.523 16.5261C54.5717 16.5234 54.6258 16.5207 54.6798 16.5126C55.2394 16.4531 55.5017 16.6099 55.6206 16.81C55.7369 17.0073 55.699 17.2371 55.6774 17.3452C55.672 17.375 55.6693 17.4371 55.6828 17.5101C55.7233 17.4993 55.7639 17.4912 55.8044 17.4831C56.656 17.2993 56.8993 17.3452 56.9967 17.7156C57.0183 17.7967 57.0237 17.894 57.0264 18.013C57.1535 17.9751 57.2913 17.9238 57.44 17.8589C57.4941 17.8346 57.559 17.8562 57.586 17.9048C57.6103 17.9535 57.5887 18.013 57.5346 18.0373C57.3508 18.1157 57.1859 18.1752 57.0318 18.2184C57.0345 18.3131 57.0399 18.4185 57.0507 18.5374C57.0886 18.9294 57.1264 19.1538 57.2562 19.2349C57.4049 19.3295 57.7185 19.3187 58.3078 19.2457C59.1378 19.143 59.473 19.3458 59.4433 19.8729C59.4216 20.273 59.108 20.8921 58.6106 21.7545C58.5998 21.7734 58.5836 21.7924 58.5673 21.8059C58.5619 21.8518 58.5538 21.8978 58.543 21.9465C58.47 22.2438 58.6647 22.4168 58.8674 22.5953L58.9188 22.6412C59.0945 22.6169 59.2919 22.5791 59.5108 22.525C59.5676 22.5115 59.6271 22.5412 59.6433 22.5926C59.6595 22.6439 59.6271 22.7007 59.5676 22.7142C59.4 22.7575 59.2432 22.7899 59.0999 22.8143C59.2783 23.0035 59.4135 23.2333 59.3865 23.5901C59.3703 23.8199 59.6001 23.8875 59.8217 23.9551C59.9082 23.9821 59.9948 24.0065 60.0813 24.0416C60.4381 24.1876 60.6598 24.4147 60.3651 25.0148L60.3597 25.0256C60.1191 25.5177 60.0326 25.9178 60.0975 26.2503C60.1461 26.5017 60.284 26.7207 60.5084 26.918C60.6787 26.8883 60.8625 26.8478 61.0653 26.7964C61.1221 26.7829 61.1815 26.8126 61.1978 26.8667C61.214 26.918 61.1788 26.9721 61.1221 26.9883C60.9788 27.0235 60.8436 27.0559 60.7166 27.0802L60.7247 27.0857C61.5762 27.675 61.3032 28.1616 60.6895 28.8997C60.5679 29.0456 60.4354 29.2105 60.3056 29.3511C59.7758 29.9675 59.5406 30.2514 60.2002 31.0462C60.3435 31.2192 60.4462 31.3976 60.5165 31.5814C60.6652 31.9788 60.649 32.3817 60.5192 32.7412C60.3895 33.1008 60.1407 33.4144 59.8298 33.6279C59.7866 33.6577 59.7406 33.6874 59.692 33.7144C59.7677 34.6796 58.7268 34.8634 58.589 34.8823C58.5565 34.8904 58.57 34.8877 58.4889 34.9066C58.4051 34.9256 58.2267 34.958 58.0942 34.9688C58.124 35.004 58.151 35.0418 58.1754 35.0824C58.2429 35.1986 58.2835 35.3284 58.2781 35.4717C58.2727 35.6095 58.224 35.7582 58.1186 35.9177C57.9374 36.1881 57.5698 36.4936 56.9237 36.8315C57.0724 37.1937 57.0048 37.4343 56.8696 37.5911C56.802 37.7317 56.5965 37.8831 56.237 37.9291C55.8774 37.975 55.6639 37.8426 55.499 37.6398C55.3557 37.7479 55.2611 37.8399 55.2016 37.921C55.1475 37.9967 55.1502 38.0561 55.1854 38.1075C55.4719 38.2454 55.7342 38.4373 55.8396 38.8131C56.0478 39.5619 55.7233 39.9918 55.4936 40.1891C55.2989 40.4649 54.7528 40.7974 54.3068 40.8947C54.1446 40.9299 54.0391 40.9515 53.9607 40.9677C53.6174 40.8947 53.22 40.8298 52.7334 40.7704C52.6144 40.6055 52.6171 40.3622 52.7063 40.0648L52.6901 40.0594C52.1467 39.8566 51.8926 39.516 51.9332 39.0321C51.9548 38.7888 52.0575 38.5103 52.2413 38.194C51.4736 39.0077 51.1519 39.4538 51.825 39.7782C52.2495 39.9837 52.5658 40.3595 52.5603 40.7514C51.9683 40.6866 51.2519 40.6325 50.3571 40.5973L50.3544 40.573C50.33 40.5784 50.3057 40.5838 50.2787 40.5946C47.4103 40.4838 46.5506 40.1405 45.672 38.1318C44.7907 36.1232 44.9881 35.2527 44.8177 34.0632C44.9745 33.901 45.0529 33.9388 44.9394 33.5631C44.8259 33.1873 44.9259 32.8115 45.153 32.3979C45.3774 31.9843 45.2719 31.9951 44.9691 31.6788C44.6664 31.3652 45.1151 31.2084 44.8799 30.8056C44.6447 30.4 45.2908 30.4514 44.8502 29.8053C44.4095 29.1592 45.4936 28.6672 44.9259 28.2995C44.3582 27.9291 44.7745 27.8318 44.8826 27.5966C44.861 27.5993 44.8394 27.5993 44.8177 27.602C44.7637 27.7534 44.6691 27.9021 44.5204 28.0346C44.2662 28.2616 44.3555 28.359 44.4528 28.4644C44.5961 28.6212 44.7556 28.7915 44.5447 29.1376C44.2365 29.6458 44.4339 29.9297 44.5393 30.0783L44.5636 30.1162C44.6366 30.227 44.569 30.3379 44.4906 30.4703C44.4041 30.6163 44.2906 30.8002 44.4366 30.9813C44.469 31.0218 44.496 31.0651 44.5204 31.1138C44.6258 31.33 44.6555 31.6382 44.6015 31.9383C44.5474 32.2384 44.4095 32.533 44.177 32.7142C44.123 32.7574 44.0662 32.7926 44.0013 32.8223C43.9527 32.8439 43.8932 32.8223 43.8688 32.7737C43.8445 32.725 43.8661 32.6682 43.9148 32.6439C43.9635 32.6223 44.0094 32.5925 44.0527 32.5601C44.2446 32.4087 44.3636 32.1573 44.4095 31.8977C44.4555 31.6382 44.4339 31.3706 44.3447 31.1922C44.3284 31.157 44.3068 31.1246 44.2852 31.1002C44.0527 30.8137 44.2014 30.5623 44.3203 30.3676C44.3663 30.2919 44.4041 30.2297 44.3987 30.2189L44.3771 30.1865C44.2446 29.9972 44.0013 29.6485 44.3744 29.0348C44.5096 28.8131 44.4041 28.6996 44.3095 28.5942C44.1419 28.4103 43.9905 28.2454 44.3852 27.8913C44.4879 27.7994 44.5582 27.6993 44.6069 27.5966C44.4041 27.575 44.2311 27.5074 44.0905 27.4128C43.9499 27.3181 43.8391 27.1992 43.7607 27.0667C43.6823 26.9343 43.6364 26.791 43.6228 26.6477C43.5958 26.3638 43.7012 26.0881 43.95 25.9367C44.2608 25.7475 44.2744 25.5907 44.1987 25.4717C44.1257 25.3609 43.9851 25.269 43.904 25.2176L43.8716 25.196C43.7688 25.1176 43.6309 24.9148 43.5525 24.685C43.4741 24.4525 43.4498 24.1876 43.5769 23.9875L43.6039 23.947C43.7364 23.774 43.5498 23.5523 43.239 23.1846C43.0659 22.9792 42.8578 22.7331 42.6469 22.4277C42.3712 22.0276 42.3414 21.5572 42.4009 21.1462C42.2089 21.1895 42.3009 21.3084 41.6629 21.0814C41.0249 20.8543 41.3898 20.5055 40.6977 20.519C40.003 20.5299 40.4031 20.0378 39.8353 19.8837C39.2676 19.7296 39.8894 19.4106 39.2947 19.2647C38.6999 19.1187 39.5272 18.4807 38.7378 18.3833C37.9484 18.286 39.0432 17.4723 37.7889 17.5507C36.9968 17.5994 36.1911 17.4399 36.1533 16.0881C36.1127 16.2233 35.9776 16.5126 35.7937 16.8262C35.7694 17.2939 35.8992 17.7318 36.4155 17.8643L36.7994 17.9616C37.8835 18.2374 38.1133 18.2941 38.1295 18.7889L38.1322 18.8348C38.1457 19.0376 38.2025 19.2295 38.3052 19.3674C38.3998 19.4972 38.5323 19.581 38.7026 19.581H38.7215C38.9621 19.5729 39.1 19.5837 39.1838 19.6323C39.2947 19.6972 39.3055 19.7945 39.292 19.9513C39.2838 20.0432 39.2947 20.1189 39.3352 20.1703C39.3731 20.2217 39.4461 20.2541 39.5542 20.2649C39.6083 20.2703 39.6488 20.319 39.6461 20.3704C39.6434 20.4244 39.5947 20.4623 39.5407 20.4569C39.3704 20.4406 39.2514 20.3785 39.1784 20.2838C39.1054 20.1892 39.0811 20.0676 39.0946 19.927C39.1027 19.8513 39.1027 19.808 39.0838 19.7972C39.0405 19.7702 38.9324 19.7675 38.7324 19.7729H38.708C38.4647 19.7729 38.2782 19.6567 38.1457 19.4755C38.0214 19.3052 37.9511 19.0754 37.9348 18.8375L37.9321 18.7862C37.9213 18.4428 37.7186 18.3915 36.7562 18.1454L36.3723 18.0481C35.8532 17.913 35.6505 17.5426 35.6072 17.1181C35.5315 17.229 35.4531 17.3371 35.372 17.4371C35.4288 17.7616 35.5775 18.067 35.9127 18.2184C36.2614 18.3779 36.5237 18.4617 36.7048 18.5212C36.8318 18.5618 36.9211 18.5915 36.9859 18.6294C37.1373 18.7213 37.1373 18.8132 37.0157 19.0132C36.9886 19.0592 36.9292 19.0727 36.8805 19.0457C36.8345 19.0186 36.8183 18.9565 36.8454 18.9132C36.8913 18.8348 36.9048 18.8051 36.8859 18.797C36.8454 18.7726 36.7643 18.7456 36.648 18.7078C36.4642 18.6483 36.1992 18.5618 35.8343 18.3969C35.4801 18.2347 35.299 17.94 35.2125 17.621C35.0368 17.8048 34.3663 18.0022 34.1933 18.0427C33.8365 18.1211 34.0257 18.4753 33.7364 18.505C33.4499 18.5347 33.339 18.5564 33.3471 18.797C33.3552 19.0376 33.3607 19.3025 32.8146 19.4025C32.2685 19.4999 32.1144 19.6296 32.2117 19.9486C32.3117 20.2703 32.2198 20.6272 31.7035 20.6704C31.1871 20.7137 31.0736 21.6193 31.1357 22.0924C31.325 23.5009 31.4493 24.7877 31.3574 25.8394C31.2736 26.8072 31.0168 27.6804 31.4169 29.0348C31.7629 30.2 32.3063 31.4598 32.628 32.3627C33.3525 34.3984 34.0149 34.7471 34.9962 35.4581C35.5666 36.7909 36.2398 39.0564 36.2614 40.4838C36.2831 41.9112 35.6532 43.0196 33.977 43.6955C32.3009 44.3713 32.7199 44.6633 32.5956 45.3932L32.6118 45.3959ZM28.6621 13.1036C28.5918 13.1468 28.5405 13.1901 28.5107 13.2333C28.4242 13.255 28.3404 13.2847 28.2593 13.3252C27.9511 13.4766 27.7051 13.7659 27.4942 14.2741C27.3428 14.6364 26.9968 14.731 26.6778 14.8175C26.5913 14.8419 26.5075 14.8635 26.4264 14.8905C26.5399 14.7608 26.6345 14.5769 26.7129 14.3174C27.0941 14.285 27.2401 14.0498 27.3077 13.7659C27.4726 13.7659 27.6321 13.7389 27.7808 13.5686C27.9106 13.4172 28.0214 13.3009 28.2296 13.2171C28.3404 13.1712 28.481 13.136 28.6648 13.1036H28.6621ZM28.5378 13.6388C28.5459 13.8443 28.4864 14.093 28.1998 14.1876C28.0863 14.2255 27.9971 14.2633 27.9268 14.3012C28.0836 13.966 28.2512 13.774 28.4485 13.6767C28.4783 13.6632 28.508 13.6497 28.5378 13.6388ZM27.1185 15.4258C27.1266 15.4826 27.1347 15.5475 27.1347 15.6177C27.0238 15.6502 26.913 15.6907 26.8103 15.7421C26.8697 15.5502 26.94 15.4204 27.1158 15.4231L27.1185 15.4258ZM27.1266 15.8259C27.1158 15.9395 27.0941 16.0638 27.0563 16.199C26.9022 16.7586 27.013 16.9235 26.3264 17.1127C26.2047 17.1452 26.0885 17.1668 25.9776 17.183C26.1669 17.1073 26.3426 16.9451 26.5048 16.6369C26.6156 16.4288 26.6832 16.2206 26.7346 16.0341C26.8454 15.9395 26.9806 15.8719 27.1293 15.8259H27.1266ZM25.491 17.2263C25.3261 17.2425 25.2152 17.2749 25.1855 17.3696C25.0612 17.2425 24.9638 17.1641 25.0449 17.1371C25.2017 17.1749 25.3504 17.2074 25.491 17.2263ZM25.2423 19.1944C25.3045 19.5999 25.3639 20.1054 25.126 20.4434C24.9692 20.592 24.7503 20.6569 24.461 20.7461L24.2772 20.8029C23.85 20.9408 23.5824 21.1516 23.431 21.4274C23.2796 21.7004 23.2499 22.0249 23.2904 22.3952C23.3066 22.5358 23.1958 22.5764 23.0741 22.6196C22.8579 22.698 22.6254 22.7845 22.528 23.0522C22.328 23.1522 22.1739 23.2765 22.1144 23.436C22.0658 23.5685 21.8441 23.6956 21.5954 23.8388C21.3764 23.9632 21.1439 24.0984 20.952 24.2714C20.9574 24.2227 20.9601 24.1768 20.9601 24.1308C20.9601 23.9524 20.9114 23.7929 20.86 23.7037C20.8033 23.6091 20.7141 23.4441 20.6519 23.2657C20.6762 23.2576 20.7032 23.2495 20.7276 23.2414C20.9222 23.1873 21.1385 23.1738 21.3412 23.2117C21.8225 23.3009 22.0198 23.1765 22.0685 22.9224C22.0955 22.7899 22.0577 22.6385 21.9982 22.4709L22.009 22.4682C22.4794 22.3844 22.7146 22.1384 22.5578 21.3355C22.5118 21.1057 22.5497 20.9381 22.6389 20.8137C22.9822 20.8353 23.3634 20.8489 23.6608 20.7407C23.8122 20.6867 23.9392 20.6056 24.0284 20.492L24.1312 20.4974C24.1961 20.5001 24.2501 20.5028 24.3069 20.5055C24.5637 20.5109 24.7989 20.5028 24.9773 20.365C25.1558 20.2271 25.2612 19.973 25.2423 19.4945C25.2369 19.3863 25.2369 19.289 25.2396 19.1971L25.2423 19.1944ZM44.9205 27.4101C44.9151 27.3803 44.9043 27.3506 44.888 27.3209C44.8853 27.3533 44.8826 27.383 44.8772 27.4155L44.9205 27.4101ZM44.6907 27.0938C44.104 26.5585 44.2608 26.0989 44.642 25.9421C45.0232 25.7853 45.0232 25.077 44.5528 24.7256C44.0824 24.3768 44.2798 23.9389 44.5636 23.7037C44.8475 23.4685 44.8664 23.8929 43.9256 23.163C42.9848 22.4331 42.9389 21.1246 42.974 20.9273C43.0065 20.7299 42.8929 20.9624 42.6226 21.0841C42.5496 21.4788 42.5577 21.9437 42.8199 22.3303C43.0254 22.6277 43.2281 22.871 43.3985 23.0711C43.7715 23.5117 43.9986 23.7821 43.7742 24.074L43.7553 24.1011C43.6634 24.2471 43.685 24.4525 43.7472 24.6364C43.8121 24.8256 43.9175 24.9905 43.9932 25.05L44.0148 25.0635C44.1067 25.123 44.2744 25.2311 44.3717 25.3798C44.5042 25.5826 44.5069 25.8421 44.0662 26.1097C43.8851 26.2206 43.8067 26.4287 43.8283 26.6423C43.8391 26.7558 43.877 26.8721 43.9391 26.9775C44.0013 27.0857 44.0905 27.1803 44.2041 27.256C44.3311 27.3398 44.4879 27.3965 44.6772 27.4101C44.7015 27.2992 44.7015 27.1884 44.6934 27.0884L44.6907 27.0938ZM21.5791 22.5007C21.5197 22.5034 21.4548 22.5034 21.3926 22.5061C21.2872 22.5088 21.1763 22.5115 21.0628 22.5169C20.9276 22.5223 20.8249 22.5493 20.7519 22.5899C20.6843 22.6277 20.6411 22.6764 20.614 22.7359C20.5951 22.7764 20.587 22.8224 20.5816 22.871L20.6113 22.8629C20.8654 22.7899 21.1493 22.7737 21.4142 22.8251C21.5981 22.8602 21.663 22.8629 21.6657 22.8494C21.6792 22.7845 21.6359 22.6575 21.5764 22.5061L21.5791 22.5007ZM20.5735 24.8851C20.4653 24.9581 20.3302 25.0202 20.1599 25.0608C20.0517 25.0851 19.9301 25.104 19.7949 25.1095L19.7841 25.1203C19.6084 25.3095 19.4245 25.5096 19.4705 25.8286C19.5489 26.3611 19.1866 26.5017 18.8406 26.6369C18.7703 26.6639 18.7 26.691 18.6432 26.7207C18.5216 26.7829 18.4567 26.8883 18.6162 27.1749L18.6216 27.1857C18.9244 27.7345 19.0514 28.2022 19.0082 28.6158C18.9812 28.8645 18.8974 29.0889 18.7541 29.2998C18.9082 29.2998 19.0406 29.2916 19.1542 29.27C19.3353 29.2376 19.4597 29.1808 19.5327 29.1024C19.6002 29.0321 19.6273 28.9429 19.6192 28.8375C19.6111 28.7266 19.5624 28.5996 19.4786 28.4644C19.2596 28.0967 19.0569 27.6723 19.0298 27.3209C19.0001 26.9316 19.165 26.6288 19.7003 26.5612C19.9192 26.5342 20.1247 26.5152 20.3112 26.5017C20.5113 26.3368 20.6059 26.2476 20.6357 26.1692C20.6627 26.0962 20.6465 25.9827 20.614 25.7745C20.5951 25.6474 20.5708 25.4879 20.5518 25.2879C20.5356 25.1392 20.5437 25.004 20.5708 24.8851H20.5735ZM19.9814 24.8932C20.0274 24.8851 20.0706 24.877 20.1112 24.8689C20.368 24.8067 20.5302 24.6904 20.6275 24.558C20.7222 24.4228 20.7573 24.2687 20.7546 24.1281C20.7546 23.9848 20.7195 23.8632 20.6816 23.7956C20.6221 23.6983 20.5329 23.5307 20.4653 23.3441C20.4086 23.3766 20.3545 23.4144 20.3058 23.455C20.2031 23.5469 20.1301 23.6577 20.1058 23.7848C20.0896 23.874 20.0923 23.9713 20.1274 24.0795C20.241 24.4444 20.1436 24.685 19.9841 24.8932H19.9814ZM20.3761 22.944C20.3707 22.8413 20.3842 22.744 20.4248 22.6547C20.468 22.5574 20.5383 22.4763 20.6492 22.4168C20.7492 22.3628 20.879 22.3276 21.0493 22.3195C21.1655 22.3141 21.2764 22.3114 21.3845 22.3087L21.5035 22.306L21.4494 22.1654C21.3764 21.9762 21.3467 21.7383 21.3602 21.5031C21.3737 21.2841 21.4278 21.0651 21.5278 20.8786C21.6359 20.6785 21.7981 20.519 22.0171 20.4406C22.1225 20.4055 22.2388 20.3866 22.3658 20.3947L22.5226 20.4055C22.6173 20.4136 22.7173 20.419 22.8173 20.4244C22.9255 20.3785 23.0417 20.3487 23.1661 20.3244C23.3256 20.2947 23.4959 20.2838 23.6554 20.2811C23.723 20.2136 23.7581 20.1135 23.7473 19.9648C23.7121 20.0405 23.6527 20.0973 23.5689 20.1379C23.3391 20.2541 22.9579 20.173 22.4983 20.0757C22.3956 20.0541 22.2847 20.0297 22.1712 20.0081C22.1333 20.0757 22.0847 20.1406 22.0225 20.2C21.9306 20.2893 21.8062 20.3595 21.6467 20.4001C21.5413 20.4271 21.4223 20.4406 21.2818 20.4352C21.2845 20.519 21.2872 20.6083 21.2845 20.7056C21.2764 21.2219 21.2385 21.5247 20.9925 21.714C20.7627 21.8924 20.3923 21.9167 19.7246 21.8708C19.2839 21.841 19.1109 21.9221 19.138 22.1249C19.1731 22.406 19.411 22.8494 19.7922 23.4604C19.8517 23.3495 19.9328 23.2495 20.0301 23.163C20.1301 23.0765 20.2464 23.0008 20.3761 22.944ZM21.9252 22.2763L21.9684 22.2682C22.3118 22.206 22.4821 22.014 22.355 21.3679C22.3091 21.1273 22.328 20.9408 22.3983 20.7921L22.3388 20.7867C22.2685 20.784 22.2063 20.7921 22.1523 20.811C22.036 20.8516 21.9495 20.9435 21.8846 21.0597C21.8116 21.1949 21.7738 21.3598 21.763 21.5247C21.7522 21.7086 21.7738 21.887 21.8279 22.0276L21.9009 22.2114L21.9252 22.2709V22.2763ZM24.1285 20.2947H24.1366L24.3069 20.3028C24.5232 20.3082 24.7205 20.3028 24.8476 20.2027C24.9746 20.1027 25.0503 19.9 25.0341 19.4945C25.0233 19.243 25.0476 18.9997 25.099 18.7807C24.8341 19.0187 24.488 19.0132 24.1961 19.0078C24.0798 19.0051 23.9771 19.0051 23.9257 19.0241L23.923 19.0268C23.8933 19.043 23.9068 19.1376 24.0203 19.4269C24.169 19.808 24.1934 20.0892 24.1285 20.2974V20.2947ZM22.2847 19.6296C22.3848 19.6485 22.4848 19.6702 22.5794 19.6918C22.9633 19.7729 23.2769 19.8405 23.3769 19.7891C23.4175 19.7702 23.3715 19.6323 23.185 19.2863C23.0606 19.0592 23.0174 18.8808 23.0309 18.7375C23.0011 18.7375 22.9714 18.7348 22.9417 18.7348C22.5172 18.7159 22.3415 18.8321 22.2766 18.97C22.2117 19.1133 22.2523 19.2917 22.2766 19.3755C22.2901 19.4215 22.2983 19.5161 22.2874 19.6296H22.2847ZM24.242 17.9589C24.5286 17.8264 24.7773 17.6264 24.8097 17.2398C24.8205 17.1073 24.4475 17.037 24.4745 16.937C24.1285 17.0397 24.434 17.302 24.342 17.6318L24.3258 17.6886C24.2988 17.7832 24.2718 17.8724 24.242 17.9589ZM23.8852 18.5131C23.7878 18.5888 23.6689 18.651 23.5202 18.6888C23.4499 18.7618 23.4337 18.8673 23.5121 19.043C23.5094 18.8321 23.6094 18.7213 23.7716 18.6591L23.7824 18.6537C23.9041 18.6104 24.0447 18.6104 24.2015 18.6131C24.4799 18.6185 24.8341 18.6239 24.9828 18.2347C25.053 18.0508 25.0828 17.8886 25.0855 17.748C24.8611 18.1833 24.3934 18.3401 23.9852 18.478L23.8852 18.5131ZM21.271 20.2406C21.3953 20.246 21.5035 20.2352 21.5927 20.2109C21.7143 20.1784 21.8089 20.1243 21.8765 20.0595C21.9063 20.0324 21.9306 20.0027 21.9522 19.9703L21.8982 19.9621C21.4061 19.8837 21.2764 19.8783 21.2656 19.9405C21.2547 20.0081 21.2601 20.1081 21.2683 20.2379L21.271 20.2406ZM24.8557 16.6261C24.9503 16.6423 25.053 16.664 25.1639 16.691L25.1693 16.6937C25.3829 16.7478 25.5505 16.791 25.6829 16.8208C25.856 16.7964 26.0046 16.6991 26.1344 16.4531C26.2507 16.2314 26.3128 16.0016 26.3669 15.8016C26.4237 15.588 26.475 15.4015 26.5588 15.2609C26.3426 15.3339 26.1723 15.442 26.1425 15.6934C26.0749 16.2341 25.7235 16.3206 25.3396 16.418C25.172 16.4585 24.9963 16.5045 24.8584 16.6234L24.8557 16.6261ZM22.5037 16.4801C22.7092 15.9097 23.0038 15.8773 23.3256 15.8394C23.5067 15.8178 23.6986 15.7962 23.8744 15.5285L24.0284 15.2906C24.4691 14.6013 24.5151 14.5283 25.2909 14.6851C25.6099 14.7499 25.8424 14.7878 25.9938 14.7175C26.1128 14.6634 26.2074 14.5337 26.2912 14.2823C25.7965 14.1876 25.2071 14.1282 24.753 14.2201C24.4313 14.285 24.1825 14.4282 24.0933 14.6905C24.0555 14.8094 24.0257 14.9067 24.0041 14.9878C23.9528 15.1636 23.9257 15.2582 23.8446 15.3312C23.7527 15.4123 23.6229 15.4285 23.3445 15.4609L23.1769 15.4826C23.0066 15.5042 22.8606 15.5772 22.747 15.6826C22.6497 15.7745 22.5767 15.8935 22.5335 16.026C22.4902 16.1611 22.4767 16.3098 22.4983 16.4639L22.501 16.4747L22.5037 16.4801ZM27.3591 13.3658C27.4023 13.3604 27.4375 13.3442 27.4618 13.3171C27.5429 13.2225 27.6186 13.1387 27.7078 13.063C27.4942 13.09 27.378 13.1468 27.3645 13.2955L27.3591 13.3631V13.3658ZM29.9219 11.76C29.8678 11.7924 29.83 11.833 29.8165 11.8843C29.7975 11.9681 29.8246 12.0655 29.8516 12.1628C29.8651 12.2114 29.8786 12.2628 29.8895 12.3142C29.9003 12.3736 29.9057 12.4331 29.8976 12.4872C29.9327 12.4629 29.9652 12.4331 29.9922 12.4061C29.9841 12.2736 29.957 12.0952 29.9354 11.9816C29.9138 11.8654 29.9138 11.8276 29.9219 11.76ZM26.7724 14.0984C26.9563 14.0498 27.0455 13.92 27.0941 13.7659C26.9725 13.7767 26.8562 13.8362 26.7724 14.0984ZM29.511 12.6278C29.684 12.5467 29.7056 12.4493 29.6867 12.3466C29.6786 12.3061 29.6678 12.2601 29.6543 12.2141C29.6218 12.0952 29.5867 11.9735 29.6164 11.8438C29.6543 11.6762 29.8111 11.5815 29.9949 11.5248C30.1814 11.2328 30.5356 11.1247 31.4872 11.2382C32.4388 11.3517 32.1441 11.3139 32.282 10.903L32.3063 10.8273C32.1522 10.9354 31.8819 10.9868 31.4196 10.9327C30.8248 10.8651 30.3274 10.83 29.93 10.8327C29.7705 10.8922 29.6435 10.9976 29.5759 11.1814C29.4677 11.4707 29.4542 11.6599 29.4461 11.7897C29.4353 11.96 29.4272 12.0655 29.3028 12.179L29.2866 12.1925C29.2028 12.2601 29.0784 12.3115 28.8676 12.3655C28.8162 12.5088 28.7216 12.6305 28.554 12.7197C28.7729 12.6818 29.0406 12.6548 29.3812 12.6386C29.4272 12.6359 29.4704 12.6332 29.5137 12.6251L29.511 12.6278ZM34.9205 9.83513C34.7827 9.82161 34.6664 9.84865 34.588 9.94056C34.5339 10.0027 34.4745 10.0514 34.415 10.092C34.4609 10.1028 34.515 10.1082 34.5745 10.1082C34.7799 10.1055 34.8583 9.98382 34.9205 9.83513ZM32.2685 10.0298C32.0603 10.0163 31.8981 10.0541 31.8413 10.2217C31.7359 10.5407 31.5088 10.6651 31.2277 10.7164L31.4412 10.7408C32.1063 10.8165 32.2712 10.6624 32.2928 10.4569C32.3036 10.365 32.2928 10.2596 32.2793 10.1568C32.2739 10.1136 32.2712 10.073 32.2658 10.0325L32.2685 10.0298ZM28.581 12.4358C28.4485 12.4656 28.2944 12.498 28.1133 12.5358L28.0728 12.544C27.8754 12.5872 27.7024 12.6251 27.5483 12.6629L27.624 12.6656C28.1593 12.6872 28.4404 12.5899 28.581 12.4331V12.4358ZM25.6667 13.3469C25.7154 13.3279 25.7505 13.3063 25.7694 13.2739L25.7803 13.255C25.8776 13.09 25.9587 12.9576 26.0857 12.8386C25.8208 12.8819 25.737 13.0035 25.6829 13.2928C25.6802 13.3117 25.6748 13.3307 25.6667 13.3469ZM28.9081 11.9465C28.9568 11.9303 28.9919 11.9141 29.0108 11.8978L29.0163 11.8924C29.0244 11.8843 29.0271 11.8384 29.0325 11.7654C29.0433 11.6113 29.0595 11.3896 29.1866 11.049C29.2055 10.9949 29.2298 10.9462 29.2542 10.9003C28.9784 10.9652 28.8351 11.0787 28.827 11.2544C28.8216 11.3545 28.8432 11.4815 28.8622 11.614C28.8784 11.7221 28.8973 11.8357 28.9054 11.9492L28.9081 11.9465ZM33.2606 9.73781L33.3525 9.75403C33.485 9.77836 33.6202 9.80269 33.7445 9.8135C33.6418 9.74321 33.5039 9.70266 33.2768 9.7351L33.2606 9.73781ZM19.6057 32.7601C19.7733 32.4925 19.8057 32.0951 19.2731 31.3814C18.7243 30.6434 19.0487 30.2108 19.5273 29.881C19.6543 29.7918 19.7895 29.7161 19.9192 29.6404C20.2004 29.4782 20.4491 29.3376 20.3815 29.2214C20.3058 29.0862 20.2085 28.951 20.1112 28.8131C19.6516 28.1589 19.1542 27.4506 20.0193 26.7396L20.0409 26.7234C19.9382 26.7342 19.8354 26.745 19.7273 26.7585C19.3326 26.8072 19.211 27.0289 19.2326 27.31C19.2569 27.6263 19.4489 28.0237 19.657 28.3698C19.7543 28.532 19.8111 28.6861 19.8219 28.8294C19.8354 28.9889 19.7895 29.1294 19.6813 29.243C19.5759 29.3511 19.4164 29.4295 19.1893 29.4701C19.0298 29.4998 18.8352 29.5079 18.6 29.4971C18.5243 29.5836 18.4378 29.6647 18.3432 29.7458C17.8674 30.1486 18.0863 30.4866 18.5486 30.9948C18.673 31.1327 18.819 31.276 18.9379 31.4165C19.4164 31.9302 19.7111 32.2492 19.6029 32.7601H19.6057ZM19.849 36.1124C19.8165 36.1043 19.7841 36.0935 19.7543 36.0826C19.7949 36.5206 20.0977 36.7261 20.3518 36.818C20.5086 36.8369 20.7005 36.8261 20.9384 36.772C21.006 36.7558 21.0709 36.7369 21.1331 36.7125C20.5897 36.5584 20.168 36.3503 19.849 36.1124ZM27.7024 45.231C27.7321 45.1499 27.77 45.0769 27.8186 45.0147C27.9187 44.8823 28.0538 44.7714 28.1863 44.6633C28.5188 44.393 27.4699 43.463 27.1779 43.244C26.4669 42.7168 26.694 41.9923 27.3888 41.576C27.9106 41.2651 27.6591 40.7866 26.8779 40.0215C27.0752 40.327 27.1914 40.6001 27.2293 40.8407C27.305 41.3219 27.0914 41.676 26.5967 41.9112L26.5805 41.9193C26.7562 42.4086 26.6994 42.7601 26.2209 42.8736C26.3345 43.025 26.5048 43.2007 26.7373 43.4035C27.3374 43.9253 27.2455 44.2983 27.1671 44.6173C27.1158 44.8228 27.0752 44.9904 27.6997 45.2337L27.7024 45.231ZM23.1769 34.101L23.1877 34.0794C23.3174 33.8685 23.1904 33.6685 22.9768 33.4576C22.8281 33.5901 22.693 33.7036 22.6173 33.7901C22.3415 34.0983 21.9657 34.4092 22.3875 34.7553C22.8119 35.1013 23.212 35.7934 22.9363 36.353C22.7632 36.7017 22.3199 36.9748 21.79 37.091C21.7684 37.1072 21.7468 37.1235 21.7251 37.1397C21.6116 37.2181 21.5007 37.3208 21.4467 37.437C21.4196 37.4938 21.4061 37.5587 21.4142 37.6263C21.4223 37.6993 21.4575 37.7831 21.5224 37.8723C21.6927 38.1021 22.0522 38.367 22.7119 38.659C22.9633 38.7698 23.1823 38.8753 23.3715 38.9726C23.3174 38.5671 23.0201 38.1183 22.6578 37.9777C22.1577 37.7858 22.1361 37.5127 22.7443 37.1289C22.7632 37.0829 22.7876 37.0396 22.82 36.991C22.92 36.8423 23.0931 36.7044 23.312 36.526L23.5148 36.3611C23.6094 36.2827 23.6851 36.1637 23.7473 36.0151C23.6662 35.715 23.404 35.4284 23.2282 35.2094C22.8876 34.7904 22.8308 34.3065 23.1769 34.1037V34.101ZM21.9901 31.3922C21.9982 31.2003 22.0171 31.0083 22.0441 30.8272C21.9766 30.473 22.0495 30.154 22.3713 29.8837C22.3929 29.8621 22.4145 29.8458 22.4361 29.8323C22.4686 29.8107 22.501 29.7864 22.5335 29.7647C22.8308 29.5133 22.7768 29.0537 22.4902 28.5644C22.6957 29.4133 22.7416 29.8053 22.009 30.027C21.7332 30.1108 21.6062 30.2324 21.6035 30.4082C21.6008 30.6325 21.7414 30.957 21.9901 31.3949V31.3922ZM22.2334 27.3938C22.301 27.2776 22.3956 27.1668 22.5172 27.0532C22.7795 26.8018 22.8038 26.4639 22.7227 26.1557C22.6632 26.3638 22.5578 26.5044 22.4551 26.645C22.3253 26.818 22.1982 26.9883 22.2334 27.3938ZM22.3199 25.2473C22.3091 25.1987 22.3037 25.1473 22.3037 25.0959C22.1415 25.1743 22.0117 25.2581 21.9036 25.3419L21.8711 25.369C21.963 25.6718 22.0793 25.8772 22.1658 26.034C22.2009 26.0962 22.2334 26.153 22.2604 26.207C22.3469 26.0448 22.3983 25.8259 22.3415 25.442C22.3307 25.3744 22.3253 25.3095 22.3199 25.2473ZM21.571 25.7394C21.4872 25.9043 21.4683 26.0611 21.4737 26.1854C21.4872 26.5098 21.198 26.6017 20.7465 26.6558C20.66 26.7315 20.5546 26.8207 20.4194 26.9289L20.2869 27.037C19.7003 27.5209 20.0896 28.0751 20.4491 28.5888C20.5546 28.7401 20.66 28.8861 20.7411 29.0267C21.0006 29.4782 20.5951 29.7107 20.1301 29.9756C20.0058 30.0459 19.8787 30.1189 19.7679 30.1973C19.4651 30.4082 19.2596 30.6812 19.6057 31.1462C20.5762 32.4492 20.0301 32.9575 19.63 33.3306C19.584 33.3738 19.5408 33.4117 19.5029 33.4549C19.438 33.5225 19.3569 33.728 19.3191 34.0064C19.2866 34.247 19.2948 34.5363 19.3867 34.8283C19.4786 35.1202 19.6543 35.4176 19.9598 35.6852C20.3139 35.9934 20.8384 36.2557 21.6035 36.4179C21.763 36.2692 21.8846 36.0935 21.9603 35.9123C21.9441 35.5474 20.1734 34.8147 20.7005 34.1984C20.906 33.8523 21.4169 33.6144 21.7819 33.3954C22.5172 32.9575 21.5035 31.9816 21.3034 31.8058C19.7246 30.4055 18.5216 31.2354 21.517 29.3484C21.6575 29.2592 21.6386 29.1024 21.3061 28.6104C20.4707 27.3776 20.952 27.0775 21.7035 26.618L21.7305 26.6017C21.9495 26.4666 21.9117 26.3963 21.8062 26.2125C21.7387 26.0881 21.6521 25.9367 21.571 25.7339V25.7394ZM20.9601 26.4233C21.1574 26.3828 21.2737 26.3152 21.2683 26.1935C21.2601 26.0016 21.3007 25.7502 21.4818 25.4933C21.444 25.369 21.4088 25.2284 21.3791 25.0716C21.3223 24.7634 21.344 24.5553 21.4169 24.412C21.1412 24.6093 20.9222 24.8607 20.9628 25.2473C20.9817 25.442 21.006 25.5934 21.0249 25.715C21.0655 25.9854 21.0871 26.1341 21.0277 26.299C21.0114 26.3422 20.9898 26.3828 20.9655 26.4206L20.9601 26.4233ZM21.8143 25.1581C21.9522 25.0554 22.1225 24.9554 22.3334 24.8634C22.3631 24.6769 22.4199 24.5201 22.4956 24.3822C22.4037 24.4093 22.3037 24.4255 22.2009 24.4417C21.9495 24.485 21.6927 24.5282 21.7792 25.0013C21.79 25.0554 21.8008 25.1068 21.8116 25.1554L21.8143 25.1581ZM24.0311 41.9869C24.1555 42.0653 24.3177 42.1221 24.5042 42.1383C24.4123 42.068 24.3339 41.9923 24.2609 41.9112C24.0555 41.6787 23.9257 41.4057 23.8635 41.1488C23.823 40.9785 23.8095 40.8136 23.823 40.6676C23.7905 40.7325 23.7662 40.8028 23.7527 40.8839C23.6473 41.4678 23.8527 41.8058 24.0339 41.9842L24.0311 41.9869ZM24.5259 39.8891C24.7584 39.7647 24.9368 39.6241 24.8962 39.3321L24.8881 39.3186C24.6286 38.951 24.1366 38.5644 23.5662 38.1994C23.5202 38.1697 23.4769 38.1426 23.4337 38.1129C23.5013 38.2454 23.604 38.3832 23.7338 38.513C23.9176 38.6996 23.9798 38.9996 23.9284 39.2835C24.1582 39.4349 24.3123 39.5646 24.4042 39.6836C24.461 39.7566 24.5015 39.8242 24.5259 39.8863V39.8891ZM25.0557 39.7052C24.9611 39.8782 24.7719 39.9864 24.561 40.0945C24.5475 40.2486 24.4421 40.3757 24.3042 40.4919C24.2853 40.5081 24.2691 40.5352 24.2555 40.573C24.215 40.692 24.215 40.8677 24.2609 41.0596C24.3096 41.2597 24.4123 41.4733 24.5718 41.6544C24.6746 41.7706 24.8016 41.8761 24.9584 41.9545C24.7449 41.7679 24.6016 41.5895 24.5151 41.4192C24.2826 40.9596 24.4421 40.5676 24.8692 40.1702C25.0233 40.0269 25.0774 39.8701 25.0585 39.7025L25.0557 39.7052ZM22.8579 39.6971C22.9282 39.6863 23.0066 39.6593 23.1012 39.6106C23.2039 39.5565 23.2769 39.4781 23.3202 39.3862C23.1174 39.2781 22.8687 39.1564 22.5686 39.024C22.4578 39.4457 22.6794 39.6241 22.8552 39.6971H22.8579ZM24.5097 36.8045C24.2853 37.0586 23.9284 37.2694 23.6716 37.3668C23.531 37.4208 23.4391 37.5019 23.3877 37.5966C23.4878 37.6723 23.6175 37.7615 23.7851 37.8696C23.9771 37.994 24.1636 38.1183 24.3366 38.2481C24.169 37.9264 24.3015 37.829 24.4556 37.5587C24.5854 37.3316 24.6097 37.0991 24.507 36.8045H24.5097ZM25.4802 39.7755C25.4829 40.0134 25.3829 40.2405 25.1504 40.4568C24.8584 40.7271 24.7421 40.9785 24.8773 41.2489C24.9719 41.4354 25.1666 41.6382 25.4829 41.868C25.5018 41.8544 25.5207 41.8436 25.5397 41.8301C26.2425 41.3543 26.0101 40.5757 25.4802 39.7755ZM26.4426 41.5381C26.7427 41.3895 26.8724 41.1732 26.8292 40.8893C26.7751 40.5406 26.494 40.0864 25.9857 39.5241C25.7722 39.2889 25.5991 39.0537 25.4613 38.8185C25.591 39.3349 25.8668 39.8539 26.2425 40.2054C26.9968 40.9082 26.2723 40.8866 26.4426 41.5381ZM21.5007 34.812C21.5007 34.8255 21.5007 34.8364 21.5035 34.8472C21.5251 34.9661 21.7116 35.0878 21.9766 35.2419C21.9955 35.2527 22.0144 35.2635 22.0306 35.277C21.9901 35.1391 21.909 35.0256 21.7765 34.9607C21.6873 34.9175 21.5927 34.8661 21.5007 34.812ZM21.8333 27.0127C21.3467 27.3154 21.0736 27.556 21.6467 28.4022C22.1604 29.1592 22.1198 29.4457 21.7414 29.6836C21.7143 29.7026 21.6846 29.7188 21.6521 29.735C21.7224 29.7026 21.7981 29.6728 21.8846 29.6485C22.3037 29.5214 22.2253 29.1997 22.0441 28.4725C21.9955 28.2698 21.936 28.04 21.8765 27.7561C21.8089 27.4371 21.8008 27.2019 21.8333 27.0181V27.0127ZM21.9522 24.0849C22.0117 24.074 22.0685 24.0632 22.1279 24.0524C22.3496 24.0146 22.5632 23.9767 22.5064 23.6442C22.501 23.6172 22.4983 23.5928 22.4956 23.5685C22.4118 23.7875 22.2009 23.9362 21.9522 24.0849ZM29.711 45.7825C29.6435 45.7447 29.5813 45.7068 29.5245 45.6663C29.4164 45.5879 29.3244 45.5068 29.2542 45.4202C29.1541 45.6149 29.0947 45.9501 29.4461 46.3773C29.7678 46.2232 29.7408 45.9177 29.711 45.7852V45.7825ZM29.1244 46.4584C28.6621 45.8285 28.9189 45.3364 29.0865 45.1229C29.0487 45.012 29.0406 44.8985 29.0595 44.7904C29.0784 44.6768 29.1271 44.5687 29.2028 44.4659C29.3542 44.2659 29.4461 44.0767 29.4407 43.909C29.4353 43.7549 29.3407 43.6036 29.1136 43.463C28.8784 43.3143 28.6946 43.1332 28.5729 42.9142C28.6134 43.2656 28.7865 43.6603 29.0622 43.9874C29.2677 44.2308 29.019 44.5065 28.7594 44.6822C28.6729 44.785 28.5621 44.8742 28.4512 44.9661C28.3377 45.0607 28.2187 45.1553 28.1485 45.2499C28.0755 45.3473 28.0376 45.5041 28.0457 45.6771C28.0511 45.7933 28.0809 45.915 28.1349 46.0258C28.189 46.134 28.2647 46.2313 28.3728 46.307L28.3837 46.3151C28.535 46.4205 28.7459 46.4827 29.0271 46.4692C29.0622 46.4665 29.0947 46.4665 29.1244 46.4611V46.4584ZM32.163 45.8609C31.9332 45.7825 31.5683 45.6987 31.0114 45.6609C29.8327 45.577 29.8651 45.2905 29.9084 44.6768C29.9543 44.0658 30.6491 43.8171 30.0165 43.2251C29.5407 42.7817 29.092 42.3086 28.827 42.2789C28.827 42.3681 28.8351 42.4519 28.8541 42.5303C28.9162 42.7817 29.0892 42.9764 29.3326 43.1305C29.684 43.3521 29.8354 43.6144 29.8435 43.8955V43.8982C29.8516 44.1659 29.7273 44.4362 29.5272 44.7011C29.4894 44.7498 29.4677 44.8012 29.4596 44.8552C29.4488 44.9255 29.4623 45.0039 29.5056 45.0796C29.5542 45.1715 29.6407 45.2635 29.7624 45.35C29.8219 45.3932 29.8922 45.4338 29.9679 45.4716L29.9706 45.4743L29.976 45.477L29.9814 45.4797C30.2166 45.596 30.5248 45.6933 30.9141 45.7555C31.3466 45.8231 31.6115 46.0123 31.7386 46.2286C31.8035 46.3394 31.8332 46.4584 31.8278 46.5746C31.8251 46.6287 31.817 46.68 31.8035 46.7314C31.9738 46.6882 32.109 46.6179 32.2009 46.5287C32.2766 46.4584 32.3198 46.3746 32.3334 46.2908C32.3496 46.2042 32.3334 46.1123 32.282 46.0204C32.2523 45.9663 32.2117 45.915 32.1603 45.8609H32.163ZM56.191 21.9978C55.9153 21.8654 55.6801 21.7329 55.572 21.5166C55.5693 21.5409 55.5692 21.568 55.5665 21.5923C55.5314 21.9275 55.7639 21.9519 56.0018 21.9762C56.0667 21.9816 56.1289 21.9897 56.191 21.9978ZM56.5533 24.9094C56.5993 25.0932 56.6128 25.3257 56.5668 25.6501C56.5263 25.9394 56.483 26.1719 56.4479 26.3774C56.3154 27.1154 56.2559 27.4425 56.7128 27.5425C56.8074 27.5642 56.8912 27.5858 56.9669 27.6155C56.9318 27.602 56.8993 27.5858 56.8696 27.5696C56.4479 27.356 56.383 27.0748 56.8669 26.2854C57.4049 25.4068 57.0967 25.1824 56.556 24.9121L56.5533 24.9094ZM54.6987 21.1949C54.7204 21.2625 54.7312 21.3328 54.7312 21.4031C54.7285 21.522 54.8799 21.6383 55.061 21.7761L55.1367 21.8329C55.1259 21.7545 55.1259 21.6626 55.1367 21.5572C55.1502 21.4355 55.1421 21.3409 55.1232 21.2679C54.9934 21.2355 54.8501 21.2138 54.7015 21.1949H54.6987ZM57.5319 32.6682C57.44 32.7304 57.3643 32.7737 57.2508 32.8358C57.1372 32.898 57.0372 33.0251 57.0048 33.1656C57.0237 33.1521 57.0399 33.1386 57.0615 33.1278C57.3292 32.9575 57.5184 32.825 57.5319 32.7061C57.5319 32.6953 57.5319 32.6817 57.5319 32.6709V32.6682ZM52.8334 39.6917C52.9632 39.0321 52.3792 38.9104 52.9388 38.3508C53.4957 37.7885 53.5633 37.4398 53.6579 36.918C53.5309 37.1586 53.366 37.4046 53.1578 37.6533C52.6631 38.2481 52.4035 38.7185 52.3738 39.0699C52.3495 39.3565 52.5036 39.5619 52.8334 39.6917ZM53.712 37.8723C53.2119 38.705 53.4119 39.7052 53.812 39.9269C54.2148 40.1486 53.8553 39.9512 53.8769 39.962C54.1932 39.7133 54.3852 39.4971 54.469 39.3051C54.5933 39.0267 54.4473 38.7834 54.1175 38.5319C53.8553 38.3319 53.7282 38.1102 53.712 37.875V37.8723ZM54.5014 34.8472C54.4176 35.1473 54.4473 35.3581 54.6176 35.596C54.788 35.8339 54.9502 35.9448 54.7988 36.2773C54.9718 36.1394 55.1583 36.0015 55.353 35.8664C55.5233 35.7474 55.6531 35.6501 55.7531 35.569C55.6936 35.4771 55.6531 35.423 55.4341 35.3581C55.2178 35.2932 54.7609 35.0878 54.5014 34.8499V34.8472ZM56.4857 37.629C56.6668 37.5425 56.8858 37.3505 56.7344 36.9369C56.4289 37.0883 56.1748 37.2235 55.9694 37.3451C56.0234 37.4343 56.1126 37.51 56.2208 37.556C56.3289 37.602 56.4127 37.6209 56.4857 37.629ZM54.1554 37.775C54.1473 37.9426 54.2175 38.0967 54.3933 38.2292C54.8799 38.5968 55.0799 38.978 54.8691 39.4511C54.7907 39.6268 54.6528 39.8107 54.4419 40.0134C54.5987 39.9242 54.7258 39.8134 54.8258 39.689C54.9799 39.4971 55.0718 39.2808 55.107 39.078C55.1421 38.8807 55.1286 38.7077 55.0745 38.5914C55.0583 38.5536 55.0367 38.5265 55.0178 38.513C54.861 38.4076 54.7393 38.2859 54.7123 38.1345C54.4771 38.0399 54.2689 37.9426 54.1554 37.7777V37.775ZM54.7312 37.9237C54.7528 37.8588 54.7907 37.7885 54.8447 37.7128C54.9339 37.5884 55.0853 37.4479 55.3178 37.283C55.2421 37.0045 55.307 36.672 55.4611 36.5044C55.6152 36.3368 55.6855 36.2232 55.745 36.0853C55.7017 36.1151 55.6585 36.1475 55.6125 36.18C55.0367 36.5801 54.5447 36.9964 54.3013 37.3776L54.2932 37.3911C54.2743 37.6858 54.4744 37.8128 54.7312 37.9237ZM55.4233 39.9837C55.6017 39.7944 55.7909 39.4457 55.6341 38.8699C55.6125 38.7915 55.5801 38.7212 55.5422 38.659C55.5693 38.8023 55.5665 38.9699 55.5368 39.1402C55.4908 39.3997 55.3746 39.6782 55.1745 39.9242C55.1043 40.0107 55.0259 40.0918 54.9339 40.1648C55.1313 40.1351 55.2962 40.0675 55.4233 39.9837ZM56.4208 23.0576C56.4289 23.0089 56.437 22.9548 56.4425 22.9008C56.4992 22.4223 56.2208 22.3952 55.9504 22.3682C55.8423 22.3574 55.7342 22.3466 55.6341 22.3276C55.726 22.4601 55.799 22.6115 55.845 22.798C56.0775 22.8764 56.2667 22.9629 56.4208 23.0603V23.0576ZM57.4265 24.266C57.3968 24.2281 57.3697 24.1903 57.3508 24.147C57.2724 23.9875 57.2859 23.8361 57.3048 23.5658C57.313 23.4414 57.3265 23.2901 57.3319 23.0954C57.3427 22.7061 57.0913 22.4682 56.7831 22.2898C56.8723 22.4277 56.9129 22.6358 56.875 22.9467C56.8561 23.1062 56.829 23.2468 56.7993 23.3739C57.0129 23.6172 57.0751 23.8686 57.0832 24.0605C57.0886 24.1822 57.2156 24.2417 57.4292 24.2714L57.4265 24.266ZM56.7236 23.6226C56.6533 23.828 56.5749 23.9875 56.5127 24.1146C56.4181 24.3065 56.383 24.3795 56.6263 24.4985L56.656 24.512C57.4887 24.9229 58.024 25.1933 57.2373 26.4747C56.9237 26.9856 56.9156 27.1424 57.0724 27.2235C57.1589 27.2668 57.294 27.31 57.4562 27.3614C57.6211 27.4128 57.8104 27.4722 58.024 27.5588C58.589 27.7858 57.4238 28.1562 57.9753 28.7212C58.8566 29.2835 58.0456 29.5079 57.7563 30.0135C57.6374 30.2189 57.6509 30.419 57.9915 30.5812C58.3943 30.7758 57.5644 31.595 57.8104 31.9275C57.9753 32.1492 58.0915 32.3844 58.1456 32.6087C58.3916 33.6279 57.8969 33.801 57.1318 33.7982C57.2264 33.9713 57.3697 34.1416 57.5509 34.2795C58.3484 34.0686 58.8836 33.7739 59.2351 33.4441C59.5352 33.1602 59.6974 32.8521 59.7731 32.5547C59.8461 32.2573 59.8325 31.968 59.7785 31.7301C59.7163 31.4544 59.6136 31.257 59.5379 31.1922C59.4946 31.1543 59.4433 31.1165 59.3919 31.0759C58.9377 30.7299 58.3159 30.2595 59.2432 28.8969C59.573 28.4103 59.3324 28.1508 58.9945 27.9589C58.8701 27.8886 58.7295 27.8237 58.5944 27.7615C58.0807 27.5263 57.632 27.3209 57.8699 26.8532C57.9456 26.7072 58.0429 26.5531 58.1429 26.3963C58.4835 25.861 58.8512 25.2825 58.1916 24.8391L58.0429 24.7391C57.8915 24.6391 57.7725 24.558 57.6752 24.4877C57.1913 24.4633 56.8777 24.3876 56.8669 24.0659C56.8615 23.9416 56.829 23.7875 56.729 23.6253L56.7236 23.6226ZM53.7336 20.2433C53.8688 20.3244 54.0472 20.4406 54.2148 20.5812C54.2013 20.5245 54.1959 20.4569 54.1986 20.3785C54.2094 20.0811 54.1689 19.8324 54.0391 19.6431C53.9148 19.462 53.6958 19.3268 53.3497 19.2457L53.1551 19.2025C52.3684 19.0268 51.9737 18.9402 51.7223 17.9454C51.652 17.6696 51.4844 17.4966 51.2951 17.3885C51.2059 18.1536 51.1221 18.8186 51.871 19.043C52.6198 19.2647 53.8012 19.3133 53.8066 19.6891C53.812 20.0649 53.7742 20.0541 53.7363 20.2433H53.7336ZM53.6417 20.7488C53.666 20.7488 53.712 20.7488 53.7769 20.7488C53.7336 20.7191 53.6931 20.6921 53.6525 20.665C53.6471 20.6948 53.6444 20.7218 53.6417 20.7488ZM54.4744 21.8248C54.3581 21.7058 54.2851 21.5734 54.2905 21.395C54.2932 21.3166 54.2608 21.2382 54.2094 21.1571C53.9715 21.1435 53.7715 21.1435 53.6796 21.1435C53.7093 21.2057 53.666 21.2057 53.8174 21.2976C53.9688 21.3895 54.2175 21.622 54.4744 21.8248ZM55.8883 23.1792C55.8883 23.2414 55.8883 23.3063 55.8829 23.3739C55.8531 23.7604 55.9261 23.974 56.0288 24.1308C56.0532 24.0767 56.0829 24.0173 56.1153 23.9524C56.1937 23.7929 56.2992 23.5793 56.3749 23.2711L56.3397 23.2468C56.2208 23.1684 56.0721 23.0927 55.8964 23.0251C55.8991 23.0765 55.8964 23.1278 55.891 23.1765L55.8883 23.1792ZM56.1505 25.3149C56.1559 24.9094 56.0072 24.7472 55.8558 24.5823C55.7369 24.4498 55.6125 24.3146 55.5314 24.1119C55.4719 24.4255 55.6044 24.8229 55.8234 24.9932C56.0424 25.1635 56.0721 25.2041 56.1505 25.3149ZM56.7317 29.2862C56.9615 28.8321 57.0832 28.5022 57.0615 28.2779C57.0453 28.1021 56.902 27.9886 56.602 27.9237C55.8072 27.748 55.8261 27.356 55.9748 26.4963C55.7071 27.0019 55.6882 27.4641 56.0234 27.6966C56.0613 27.7156 56.0991 27.7372 56.1316 27.7588C56.1559 27.7696 56.1802 27.7858 56.2046 27.8048C56.5668 28.0562 56.6695 28.3671 56.6263 28.7266C56.6695 28.9078 56.7047 29.097 56.729 29.2889L56.7317 29.2862ZM55.6909 32.0627C56.0748 32.2438 55.9748 32.8358 55.7261 33.1684C55.4773 33.5036 55.3016 33.7009 55.2394 34.0037C55.3178 34.147 55.4098 34.2605 55.5152 34.3335L55.7423 34.4849C55.9883 34.6498 56.1829 34.7769 56.3019 34.9175C56.3397 34.9607 56.3695 35.0067 56.3938 35.0499C57.0669 35.396 56.9967 35.6988 56.5533 35.8907C56.1099 36.0826 55.8991 36.5206 55.8747 36.9288C56.0694 36.818 56.2911 36.7017 56.5479 36.5747C57.221 36.2421 57.5833 35.9556 57.7455 35.715C57.8104 35.6204 57.8374 35.5365 57.8401 35.4636C57.8428 35.396 57.8239 35.3311 57.7915 35.277C57.7239 35.1635 57.5995 35.0716 57.4725 34.9986C57.4481 34.9851 57.4238 34.9715 57.3995 34.9553C56.8263 34.8715 56.3992 34.7309 56.1235 34.293C55.8477 33.855 56.1559 33.0359 56.5776 32.6655C56.9994 32.2951 56.4614 31.9032 56.2586 31.7193C56.0559 31.5355 56.018 31.5355 55.8504 31.4111C55.6422 31.6328 55.526 31.841 55.6774 32.0437L55.6909 32.0627ZM52.0278 15.1474C52.0332 15.1419 52.0332 15.1392 52.0305 15.1311C52.0197 15.0906 52.0224 15.1122 52.0278 15.1474ZM59.3784 33.8604C59.0567 34.12 58.6295 34.3552 58.0645 34.5417C58.1321 34.5606 58.1105 34.5633 58.2754 34.5876C58.4403 34.612 58.7377 34.6255 58.9026 34.5958C59.1621 34.4849 59.4703 34.2632 59.4757 33.8226C59.4433 33.8361 59.4108 33.8469 59.3784 33.8577V33.8604ZM47.5942 12.7224C48.0294 13.0738 48.7107 13.5415 49.1324 13.4199L49.1919 13.4036C48.9188 13.309 48.6674 13.1495 48.4944 12.8251C48.2781 12.425 48.0646 12.2114 47.8239 12.1168C47.7293 12.079 47.6239 12.06 47.5131 12.0519C47.532 12.0844 47.5482 12.079 47.5347 12.1493C47.5239 12.2223 47.5239 12.4899 47.5969 12.7224H47.5942ZM59.3649 30.5001C59.2081 29.9972 59.4946 29.6593 59.9623 29.1159C60.0786 28.9672 60.2191 28.8131 60.3408 28.6699C60.7896 28.1319 60.995 27.7804 60.4597 27.4101C60.3516 27.3344 60.2543 27.2587 60.1678 27.1776C59.9218 27.2046 59.7136 27.2073 59.5433 27.1884C59.3027 27.1614 59.1242 27.0938 59.0053 26.9937C58.8782 26.8883 58.8215 26.7504 58.8215 26.5882C58.8215 26.4476 58.8701 26.2881 58.9593 26.1205C59.1513 25.761 59.3216 25.3555 59.3216 25.0365C59.3216 24.7553 59.1756 24.5444 58.7539 24.5201C58.6403 24.5147 58.5295 24.5093 58.4187 24.5066L58.443 24.5228C59.4162 25.177 58.9458 25.9151 58.5133 26.5963C58.4214 26.7396 58.3294 26.8829 58.2592 27.0208C58.197 27.1397 58.47 27.2668 58.7836 27.4101C58.9269 27.4749 59.0783 27.5452 59.2189 27.6236C59.7514 27.9237 60.1299 28.3346 59.6082 29.1051C59.1026 29.8513 59.1675 30.246 59.3676 30.5001H59.3649ZM40.8545 8.33744C40.7275 8.22389 40.5328 8.1509 40.1895 8.17253C39.6407 8.21038 39.1406 8.92138 39.5245 9.18901L39.5272 9.18631C39.5299 9.18361 40.1814 8.59696 40.8572 8.33473L40.8545 8.33744ZM43.0389 8.39961L43.02 8.39691C42.7767 8.37799 42.6334 8.42935 42.5307 8.50505C42.6631 8.48612 42.8037 8.45368 42.9416 8.42124L43.0362 8.39961H43.0389ZM47.1914 10.4191C47.1914 10.3055 47.1995 10.192 47.2103 10.0838C47.2211 9.94867 47.2319 9.82161 47.2211 9.72429C47.1995 9.54857 47.0373 9.44584 46.7399 9.39718C46.7696 9.44043 46.7967 9.48909 46.8237 9.54046C46.9859 9.87298 47.021 10.092 47.0454 10.2461C47.0562 10.319 47.0643 10.365 47.0751 10.3731L47.0832 10.3785C47.1048 10.392 47.1427 10.4056 47.1968 10.4191H47.1914ZM50.7409 11.6113C50.7328 11.5951 50.7247 11.5761 50.7193 11.5572C50.6382 11.2734 50.5409 11.1544 50.257 11.1301C50.4003 11.2409 50.4949 11.368 50.6139 11.5275L50.6274 11.5464C50.649 11.5761 50.6896 11.5978 50.7409 11.6113ZM47.5779 10.8868C47.7401 11.0327 48.0456 11.1111 48.6106 11.0571L48.6917 11.049C48.5241 11.0219 48.3376 10.9922 48.1267 10.9625L48.0808 10.957C47.8861 10.93 47.7212 10.9084 47.5779 10.8868ZM43.4741 8.72132C43.4741 8.76187 43.4714 8.80513 43.4714 8.84568C43.4687 8.95111 43.4633 9.05655 43.4823 9.14846C43.5228 9.35122 43.7093 9.4945 44.4095 9.37555L44.6339 9.3404C44.3311 9.30796 44.0824 9.19712 43.9418 8.88623C43.8688 8.72402 43.6931 8.69699 43.4741 8.72132ZM41.2871 8.59967C41.3682 8.74295 41.4574 8.8619 41.6764 8.84838C41.7413 8.84568 41.7953 8.83487 41.844 8.82135C41.7764 8.7862 41.7088 8.74025 41.6466 8.68077C41.5574 8.59426 41.4304 8.57534 41.2844 8.59696L41.2871 8.59967ZM43.2822 9.23497C43.2768 9.21605 43.2741 9.19983 43.2687 9.1809C43.2471 9.07006 43.2498 8.95111 43.2552 8.83757L43.2579 8.75647C43.1903 8.76998 43.1227 8.7862 43.0524 8.80242C42.7415 8.87542 42.4225 8.94841 42.136 8.91056C42.0332 8.98355 41.8954 9.03492 41.6899 9.04573C41.3168 9.06466 41.1952 8.87542 41.0762 8.65644C40.6896 8.79702 40.2409 9.13224 40.0003 9.32689C40.176 9.33229 40.1354 9.38366 40.5707 9.22956C41.0086 9.07547 40.7924 8.72132 41.5412 9.19983C42.2901 9.67833 42.3739 9.50531 42.7875 9.35392C43.2011 9.20253 43.1876 9.21605 43.2795 9.23767L43.2822 9.23497ZM46.6074 11.1355C46.6507 11.1382 46.6993 11.1409 46.748 11.1382C47.1102 11.1328 47.3995 11.1436 47.632 11.1679C47.4482 11.0895 47.3373 10.9733 47.2725 10.8354C47.0427 10.7921 46.9075 10.7516 46.8129 10.6894L46.7939 10.6759C46.6534 10.5705 46.6372 10.465 46.6101 10.2974C46.5912 10.1677 46.5615 9.98112 46.4209 9.69996C46.3344 9.52153 46.1911 9.42421 46.0181 9.37555C45.5963 9.39718 45.0719 9.46476 44.4474 9.5702C43.9608 9.6513 43.6715 9.61886 43.4985 9.51883L43.5309 9.59182C43.7093 9.99193 43.3985 10.0514 44.3987 9.87568C45.399 9.70266 45.7856 9.78647 46.0045 10.0676C46.2073 10.1109 46.3803 10.1974 46.4317 10.3596C46.4722 10.4867 46.4452 10.611 46.4209 10.7327C46.4101 10.7786 46.402 10.8273 46.3965 10.8678C46.3857 10.9733 46.4155 11.0679 46.6074 11.1382V11.1355ZM49.6298 12.4277C49.5217 12.1709 49.3919 12.1195 49.2622 12.1168C49.3244 12.2682 49.4298 12.3926 49.6298 12.4277ZM49.0378 12.1276C48.8621 12.1384 48.689 12.1222 48.5214 11.9627C48.3727 11.8221 48.243 11.7086 48.0186 11.6383C47.7699 11.5599 47.3941 11.5221 46.7534 11.5302C46.5317 11.5329 46.3452 11.5085 46.1884 11.4626C46.2208 11.5194 46.2587 11.5707 46.3073 11.6086C46.4831 11.6924 46.6696 11.741 46.848 11.7086C47.286 11.6302 47.6536 11.614 47.9916 11.7464C48.3295 11.8789 48.6161 12.152 48.881 12.6467C49.0702 12.9981 49.4433 13.0711 49.7893 13.136C49.8813 13.1522 49.9732 13.1712 50.0624 13.1928C49.9299 13.0711 49.8164 12.8927 49.7109 12.6413C49.3054 12.6332 49.1297 12.4061 49.0378 12.1276ZM46.1019 10.292C46.1127 10.3596 46.1181 10.3974 46.1046 10.5137C46.0911 10.6299 46.0775 10.8084 46.0775 10.9408C46.11 10.9679 46.1451 10.9949 46.1857 11.0165C46.1722 10.9625 46.1722 10.903 46.1803 10.8435C46.1857 10.7921 46.1965 10.7408 46.2073 10.6894C46.2289 10.5921 46.2506 10.4921 46.2235 10.411C46.2073 10.3596 46.1641 10.319 46.1019 10.292ZM48.9459 11.7302V11.7275L48.9351 11.6599C48.908 11.5113 48.781 11.4653 48.5512 11.4518C48.6512 11.5221 48.7404 11.6005 48.8323 11.6897C48.8594 11.7167 48.8999 11.7275 48.9459 11.7329V11.7302ZM54.3419 14.5283V14.5175C54.3527 14.3634 54.3257 14.2147 54.2689 14.0822C54.2121 13.9524 54.1256 13.8389 54.0148 13.7524C53.8877 13.6524 53.7255 13.5902 53.5444 13.5794L53.366 13.5686C53.0686 13.5523 52.9307 13.5442 52.8253 13.4712C52.7334 13.4063 52.6955 13.3117 52.6306 13.1387C52.6009 13.0603 52.563 12.963 52.5117 12.8467C52.3981 12.5899 52.1224 12.4629 51.7764 12.4196C51.287 12.3574 50.6679 12.452 50.1516 12.5791C50.2624 12.8224 50.3733 12.9468 50.503 12.9927C50.6679 13.0522 50.914 13.0008 51.2465 12.9143C52.0575 12.7089 52.1143 12.7765 52.636 13.4361L52.8172 13.6632C53.0253 13.92 53.2335 13.9308 53.4254 13.9389C53.7688 13.9551 54.0851 13.9714 54.3473 14.5256L54.3419 14.5283ZM49.7191 14.066C49.6271 13.8443 49.5244 13.7118 49.2595 13.7902C49.0459 13.8524 48.8026 13.82 48.5512 13.7389C48.5944 13.7956 48.6296 13.8551 48.6593 13.9119C48.9729 13.9038 49.3811 13.9281 49.7191 14.0687V14.066ZM51.8602 14.8229C51.7034 14.7094 51.5141 14.677 51.333 14.6472C50.9194 14.5769 50.5382 14.512 50.4246 13.9768C50.3706 13.7281 50.1813 13.6334 49.9488 13.574C50.0489 13.7064 50.1165 13.8903 50.1949 14.1011C50.2678 14.2958 50.3517 14.5229 50.4949 14.7364C50.6517 14.9716 50.8193 15.0608 51.0032 15.0744C51.1383 15.0365 51.3141 14.9824 51.5385 14.9149L51.5439 14.9122C51.6601 14.877 51.7655 14.85 51.8656 14.8256L51.8602 14.8229ZM56.5911 18.1076C56.5884 17.9778 56.5857 17.8751 56.5695 17.8102C56.5533 17.748 56.4154 17.7616 55.8991 17.8724L55.845 17.8832C55.872 17.913 55.8991 17.94 55.9315 17.967C56.0099 18.0292 56.1126 18.0779 56.2451 18.0995C56.3424 18.1157 56.456 18.1211 56.5884 18.1076H56.5911ZM53.6796 16.5504L53.5714 16.5234C53.1281 16.4126 52.6198 16.2855 52.3468 15.8638C52.363 16.0043 52.4062 16.1638 52.4955 16.3423C52.6847 16.7207 53.0578 16.6937 53.3551 16.6721C53.5201 16.6586 53.6687 16.6477 53.8039 16.6856L53.8174 16.6883C53.9932 16.7397 54.1067 16.8424 54.1229 17.0533C54.1932 16.8748 54.1689 16.7694 54.0878 16.7018C53.9256 16.6721 53.7958 16.6207 53.685 16.5504H53.6796ZM53.2578 16.0206C53.22 15.9367 53.1821 15.8475 53.147 15.7556L53.1254 15.7016C53.001 15.3798 52.882 15.0744 52.509 14.9933C52.5468 15.0933 52.5766 15.2068 52.6009 15.3393C52.6658 15.7232 52.9442 15.907 53.2578 16.0206ZM55.4665 17.5642C55.4449 17.4507 55.4476 17.356 55.4584 17.3101C55.4773 17.2236 55.5071 17.0424 55.4233 16.9046C55.3449 16.7694 55.1475 16.664 54.6987 16.7099C54.6663 16.7126 54.6339 16.7153 54.6041 16.718C54.6312 16.8613 54.5987 17.0424 54.4852 17.2776C54.3149 17.6345 54.277 17.7724 54.3203 17.7913C54.4284 17.8346 54.7582 17.748 55.1556 17.6426C55.2557 17.6156 55.3584 17.5885 55.4638 17.5642H55.4665ZM51.9629 16.1611C51.8493 15.7691 51.9115 15.4745 51.971 15.2744C51.8764 15.2987 51.7872 15.3231 51.7034 15.3474C51.0816 15.5231 50.6004 15.6583 50.1192 14.9392C49.984 14.7364 49.8975 14.5364 49.8272 14.3525C49.5325 14.1444 49.081 14.1011 48.7269 14.1065C48.7377 14.1633 48.7729 14.1038 48.7215 14.266C48.6701 14.4282 49.2081 14.8635 49.4163 14.9392C49.6244 15.0149 49.5136 14.977 49.5677 15.0014C49.9299 15.0608 50.2733 15.1798 50.4463 15.4123C50.5139 15.5015 50.5625 15.5718 50.6031 15.6286C50.6761 15.7313 50.7085 15.7772 50.7301 15.7881C50.7409 15.7935 50.7707 15.7935 50.8274 15.7935C50.9113 15.7935 51.041 15.7935 51.2465 15.8205C51.5249 15.8556 51.7682 15.9773 51.9656 16.1638L51.9629 16.1611ZM53.566 18.3455C53.4795 18.1427 53.4822 17.8616 53.6093 17.4696C53.7066 17.1749 53.7147 17.0776 53.6796 17.0641H53.6769C53.6201 17.0479 53.512 17.056 53.3903 17.0668C53.0821 17.0884 52.7144 17.1181 52.4144 16.8965C52.4874 17.1127 52.5306 17.3533 52.5414 17.6048C52.5576 18.0103 52.6523 18.2103 52.7955 18.2995C52.9388 18.3888 53.147 18.3806 53.3768 18.3644L53.5552 18.3455H53.566ZM56.0613 20.1811L56.0829 20.1189L56.1451 19.9297C56.191 19.7864 56.1991 19.6053 56.1721 19.4242C56.1478 19.2593 56.091 19.097 56.0045 18.9673C55.9288 18.8537 55.8261 18.7672 55.7017 18.7348C55.6422 18.7186 55.5774 18.7159 55.5017 18.724L55.4395 18.7321C55.526 18.8754 55.5638 19.0619 55.5314 19.3025C55.4476 19.9567 55.6449 20.1379 56.0126 20.1784L56.0613 20.1838V20.1811ZM57.7563 20.7488C57.8969 20.7975 58.0267 20.8651 58.1402 20.9462C58.251 21.0246 58.3457 21.1192 58.416 21.2273C58.7701 20.5947 58.9864 20.1352 59.0026 19.854C59.0134 19.6512 58.8242 19.581 58.3592 19.6377C57.6536 19.7242 57.2589 19.7242 57.0021 19.562C56.7263 19.3863 56.6614 19.0862 56.6101 18.5726C56.602 18.4753 56.5965 18.386 56.5911 18.3022C56.4425 18.3158 56.3127 18.3104 56.2019 18.2914C56.0288 18.2617 55.8937 18.1968 55.7882 18.1157C55.7179 18.0616 55.6612 17.9995 55.6152 17.9346C55.4963 17.9643 55.3827 17.9941 55.2746 18.0211C54.7934 18.1481 54.3987 18.2509 54.1445 18.1509C54.0526 18.1157 53.985 18.0616 53.9418 17.9886C53.9418 18.1373 53.9878 18.2347 54.0662 18.2968C54.2365 18.2887 54.4149 18.2887 54.5879 18.3076C54.7204 18.3212 54.8474 18.3455 54.9664 18.3833C55.0718 18.3725 55.1773 18.359 55.2773 18.3455L55.4422 18.3239C55.5774 18.3076 55.7017 18.3185 55.8153 18.3482C56.0559 18.4104 56.2397 18.5591 56.3695 18.7537C56.4884 18.9321 56.5641 19.1484 56.5966 19.3647C56.6317 19.5972 56.6155 19.8378 56.556 20.0297L56.51 20.1757L56.6344 20.1703C56.7479 20.1649 56.8669 20.1622 56.9885 20.1595C57.1697 20.1568 57.3103 20.1838 57.4211 20.2325C57.5427 20.2866 57.6239 20.3622 57.6779 20.4569C57.7266 20.5434 57.7482 20.6407 57.7536 20.7434L57.7563 20.7488ZM58.3321 22.6683C58.1456 22.4709 58.024 22.2384 58.1132 21.8681C58.1402 21.7599 58.1375 21.6599 58.1105 21.5734C58.0726 21.449 57.9861 21.3409 57.8699 21.2571C57.8158 21.2192 57.7563 21.1841 57.6941 21.1571C57.6374 21.3463 57.5563 21.5166 57.5022 21.6193C57.4671 21.6869 57.44 21.8113 57.4508 21.9546C57.4616 22.0924 57.5076 22.2465 57.6211 22.3736C57.7347 22.5034 57.9158 22.6088 58.1916 22.652C58.2348 22.6602 58.2835 22.6656 58.3321 22.6683ZM57.705 22.698C57.7428 22.817 57.7617 22.9494 57.7563 23.0981C57.7509 23.2982 57.7374 23.4577 57.7293 23.5874C57.7131 23.7983 57.705 23.9145 57.7374 23.9821C57.7752 24.0578 57.8834 24.1416 58.1078 24.293C58.3078 24.2957 58.5268 24.3011 58.762 24.3146C59.3351 24.3471 59.5352 24.6391 59.5352 25.0284C59.5352 25.3825 59.354 25.8178 59.1513 26.1989C59.0756 26.3395 59.035 26.4693 59.035 26.5801C59.035 26.6855 59.0702 26.7721 59.1486 26.8396C59.2351 26.9126 59.3703 26.9613 59.5649 26.9829C59.6866 26.9964 59.8271 26.9991 59.992 26.9856C59.8244 26.7856 59.7163 26.5639 59.6676 26.3179C59.5892 25.907 59.6839 25.4339 59.9623 24.8661L59.9677 24.8553C60.1137 24.558 60.0353 24.4606 59.9028 24.4039C59.8434 24.3795 59.765 24.3552 59.6866 24.3336C59.3081 24.22 58.9134 24.1011 58.9539 23.5658C58.9783 23.2441 58.7674 23.0576 58.5646 22.8791L58.5511 22.8683C58.4051 22.871 58.2754 22.8602 58.1591 22.844C57.978 22.8143 57.8293 22.7629 57.7077 22.6953L57.705 22.698ZM56.4479 20.3812C56.3992 20.5353 56.3641 20.6677 56.383 20.7299C56.3884 20.7434 56.456 20.738 56.6479 20.6921C56.9264 20.6245 57.2264 20.6245 57.5022 20.6785L57.5346 20.6867C57.5265 20.638 57.513 20.5947 57.4914 20.5542C57.4589 20.4974 57.4076 20.4488 57.3346 20.4163C57.2535 20.3812 57.1453 20.3622 56.9994 20.365C56.8777 20.3677 56.7615 20.3704 56.6479 20.3758C56.5803 20.3785 56.5127 20.3812 56.4479 20.3839V20.3812ZM50.2597 15.5123C50.3598 15.6421 50.4273 15.6259 50.4138 15.934C50.3976 16.2422 51.506 15.7583 51.3735 16.7424L51.3438 16.9586C51.679 17.0965 52.0143 17.356 52.1413 17.8508C52.3333 18.6077 52.6414 18.6753 53.2524 18.8132L53.4525 18.8591C53.9175 18.9673 54.2175 19.1619 54.4014 19.4296C54.5825 19.6918 54.642 20.0135 54.6285 20.3866C54.6231 20.5272 54.7447 20.5596 54.8745 20.5974C55.1097 20.6623 55.3638 20.7326 55.4881 20.9949C55.7098 21.0814 55.8828 21.1949 55.9558 21.3517C56.018 21.4815 56.264 21.595 56.5398 21.7194C56.7804 21.8302 57.0399 21.9492 57.2562 22.1114C57.2454 22.0627 57.24 22.0167 57.2346 21.9708C57.221 21.7924 57.2589 21.6302 57.3075 21.5382C57.3589 21.4382 57.44 21.2706 57.4914 21.0895C57.4643 21.0814 57.4346 21.076 57.4076 21.0705C57.1967 21.0273 56.9669 21.03 56.7561 21.0787C56.2532 21.1976 56.0342 21.0841 55.9612 20.8353C55.9234 20.7056 55.9504 20.5515 55.9991 20.3785H55.9883C55.4827 20.3244 55.2124 20.0946 55.3151 19.2836C55.3449 19.0511 55.2908 18.8862 55.1854 18.7672C54.8231 18.8132 54.4176 18.8483 54.0959 18.7591C53.931 18.7132 53.7877 18.6429 53.685 18.5347L53.5768 18.5456C53.5092 18.5537 53.4498 18.5591 53.3903 18.5645C53.12 18.5861 52.8685 18.5915 52.6658 18.4672C52.4657 18.3428 52.3333 18.0941 52.3143 17.6156C52.2981 17.1803 52.1765 16.7883 51.971 16.4991C51.7818 16.2341 51.5222 16.0557 51.2086 16.0152C51.014 15.9908 50.8977 15.9908 50.8193 15.9908C50.7274 15.9908 50.6761 15.9908 50.6166 15.9584C50.549 15.9232 50.5057 15.8665 50.4138 15.734C50.376 15.6799 50.3246 15.6096 50.2597 15.5231L50.2543 15.515L50.2597 15.5123Z" fill="url(#paint0_linear)"/>
<defs>
<linearGradient id="paint0_linear" x1="34.9989" y1="13.2009" x2="45.1665" y2="43.1575" gradientUnits="userSpaceOnUse">
<stop stop-color="#856559"/>
<stop offset="1" stop-color="#332926"/>
</linearGradient>
</defs>
</svg>
