<svg width="85" height="212" viewBox="0 0 85 212" fill="none" xmlns="http://www.w3.org/2000/svg">
<path d="M32.6119 45.3959C32.2091 45.0607 31.4764 44.6687 31.271 44.4822C31.0412 44.274 31.4494 43.7279 31.1926 44.1253C30.9357 44.5227 31.0574 44.6741 31.909 45.1499C32.1658 45.2932 32.3226 45.4311 32.4145 45.55C33.4175 46.48 31.8982 47.2045 31.0817 47.2478C30.8736 47.2586 30.6951 47.1883 30.56 47.0856C30.387 46.9531 30.2815 46.7584 30.2734 46.6098C30.2653 46.5016 30.3518 46.407 30.4626 46.4016C30.5762 46.3962 30.6708 46.4773 30.6789 46.5881C30.6816 46.6395 30.7303 46.7152 30.8114 46.7774C30.8763 46.826 30.9601 46.8612 31.0574 46.8558C31.2088 46.8477 31.3196 46.7828 31.3764 46.6963C31.4034 46.6557 31.417 46.6098 31.4197 46.5638C31.4224 46.5178 31.4088 46.4692 31.3818 46.4232C31.3115 46.3016 31.1439 46.1934 30.8492 46.1475C30.5816 46.1042 30.3437 46.0474 30.1382 45.9745C30.1409 46.2097 30.0652 46.5016 29.7516 46.6855C29.8409 46.7612 29.9436 46.8368 30.0598 46.9152C30.1301 46.9612 30.1463 47.0531 30.0977 47.1207C30.049 47.1883 29.9544 47.2045 29.8841 47.1558C29.7084 47.0369 29.5597 46.9207 29.4353 46.8071C29.3218 46.8341 29.192 46.8531 29.0406 46.8612C28.6568 46.8774 28.3594 46.7855 28.1377 46.6314L28.1242 46.6233C27.962 46.507 27.8403 46.3556 27.7592 46.1907C27.6808 46.0312 27.6376 45.8582 27.6295 45.6933C27.6295 45.6717 27.6268 45.6473 27.6268 45.6257C26.5859 45.2445 26.667 44.9201 26.7644 44.52C26.8157 44.3064 26.8779 44.055 26.4616 43.6901C26.121 43.3927 25.8939 43.1359 25.7614 42.9034C25.5857 42.898 25.3748 42.8763 25.1342 42.8358C24.5259 42.7331 24.1718 42.4654 23.969 42.2032C23.7365 42.0193 23.4013 41.6111 23.5392 40.8515C23.6095 40.4676 23.842 40.2621 24.0988 40.108C24.1285 40.0567 24.1258 39.9972 24.0691 39.9242C24.0069 39.8485 23.9123 39.7593 23.769 39.662C23.6284 39.8728 23.404 40.0188 23.0985 39.9945C22.7228 39.9675 22.5551 39.8323 22.4794 39.6944C22.3416 39.5457 22.2605 39.3105 22.3713 38.9402C21.7414 38.6428 21.3737 38.3589 21.1818 38.0994C21.071 37.948 21.0142 37.802 20.998 37.6641C20.9818 37.5209 21.0088 37.3884 21.0656 37.2694C21.0845 37.2289 21.1088 37.1883 21.1331 37.1505C21.0088 37.1478 20.8817 37.1343 20.7574 37.1126C20.7249 37.1072 20.6925 37.0991 20.66 37.0937C20.5276 37.0829 19.5381 36.9585 19.5354 35.9934C19.4895 35.9691 19.4435 35.9448 19.4003 35.915C19.0921 35.7204 18.8352 35.4203 18.6866 35.0716C18.5352 34.7201 18.4919 34.3173 18.6027 33.9145C18.6541 33.728 18.7379 33.5414 18.8596 33.3603C19.4192 32.5276 19.1786 32.26 18.6325 31.6761C18.5 31.5463 18.3648 31.3868 18.2378 31.2489C17.6052 30.5514 17.3132 30.081 18.0702 29.443L18.0756 29.4376C17.9539 29.4187 17.8242 29.3971 17.6863 29.37C17.6322 29.3592 17.5944 29.3079 17.6052 29.2538C17.616 29.1997 17.6701 29.1673 17.7241 29.1781C17.9161 29.216 18.0945 29.2457 18.2567 29.2646C18.4541 29.051 18.5649 28.8267 18.5919 28.5725C18.6271 28.2373 18.5162 27.8426 18.254 27.3668L18.2486 27.3587C17.9242 26.7775 18.1188 26.5369 18.4405 26.372C18.5189 26.3314 18.5973 26.3017 18.6757 26.2692C18.8785 26.1908 19.0894 26.107 19.0569 25.8799C19.0028 25.5258 19.1137 25.2879 19.2678 25.0878C19.1299 25.0716 18.9812 25.0473 18.8217 25.0148C18.7677 25.004 18.7298 24.95 18.7433 24.8986C18.7541 24.8445 18.8082 24.8121 18.8623 24.8229C19.0704 24.8661 19.2597 24.8932 19.4246 24.904L19.4705 24.8553C19.6463 24.6634 19.8166 24.4823 19.7274 24.1903C19.7138 24.1443 19.703 24.0984 19.6949 24.0524C19.6787 24.0389 19.6625 24.0227 19.6517 24.0038C19.1191 23.1711 18.7785 22.5736 18.7271 22.1762C18.6595 21.6518 18.9569 21.4301 19.7463 21.4815C20.3059 21.5193 20.6006 21.5112 20.733 21.4085C20.8493 21.3193 20.8682 21.0949 20.8736 20.7002C20.8763 20.5812 20.8709 20.4758 20.8682 20.3812C20.7222 20.3487 20.56 20.3001 20.3843 20.2325C20.3329 20.2136 20.3059 20.1541 20.3248 20.1054C20.3437 20.0541 20.4032 20.0297 20.4573 20.0487C20.6033 20.1027 20.7357 20.146 20.8574 20.1757C20.852 20.0568 20.8493 19.9594 20.8628 19.8783C20.925 19.4999 21.1521 19.4431 21.9631 19.5729C22.0036 19.5783 22.0415 19.5864 22.082 19.5918C22.0875 19.5161 22.082 19.4566 22.0739 19.4269C22.0442 19.3187 21.9928 19.0916 22.0847 18.8889C22.1794 18.6834 22.4146 18.5104 22.9444 18.5374C22.9958 18.5401 23.0472 18.5401 23.0931 18.5401C23.1607 18.432 23.2715 18.3482 23.4121 18.2752L23.4283 18.2671C23.55 18.2049 23.6933 18.1563 23.8474 18.1049C23.8906 18.0914 23.9339 18.0752 23.9771 18.0616C24.0366 17.9373 24.0799 17.7913 24.1258 17.6345L24.1421 17.5777C24.2691 17.129 23.7798 16.6586 24.3475 16.5991C24.5476 16.2071 24.9017 16.1206 25.2342 16.0368C25.4775 15.9773 25.7019 15.9205 25.7344 15.6475C25.7641 15.4123 25.8452 15.2528 25.9615 15.1365C25.7479 15.169 25.5046 15.1311 25.2072 15.0717C24.7071 14.9716 24.6773 15.0203 24.3718 15.4988L24.2177 15.7394C23.9393 16.1665 23.6446 16.199 23.3716 16.2314C23.1472 16.2558 23.0499 16.0124 22.912 16.6288C22.812 17.0776 24.0772 17.5291 23.8636 17.7318C23.7311 17.8589 23.3094 18.0914 23.1012 18.1157L22.9688 18.1319C22.912 18.14 22.8606 18.1049 22.8525 18.0508C22.8444 17.9968 22.8823 17.9454 22.9363 17.9373L23.0769 17.9184C23.2526 17.8967 23.4743 17.8697 23.5581 17.7913C24.0312 17.3398 22.4443 17.5237 22.301 16.491C22.2767 16.3071 22.2929 16.1287 22.3443 15.9692C22.3983 15.807 22.4876 15.6583 22.6092 15.5448C22.7525 15.4096 22.9363 15.315 23.1553 15.2879L23.3229 15.2663C23.5581 15.2393 23.6662 15.2257 23.7122 15.1852C23.7501 15.1528 23.7717 15.0771 23.8095 14.9365C23.8312 14.8554 23.8609 14.7581 23.9014 14.631C24.015 14.2877 24.3205 14.1065 24.7125 14.0281C25.2018 13.9281 25.8236 13.993 26.3426 14.093H26.3507L26.3562 14.0714C26.5319 13.3928 26.8455 13.3631 27.1537 13.3658L27.1564 13.3442L27.1618 13.2766C27.1888 12.99 27.3591 12.9035 27.6727 12.8657L27.6187 12.863L27.105 12.8413L26.9401 12.8332C26.394 13.0171 26.294 13.1847 26.1345 13.4523L26.1237 13.4712C25.9506 13.7578 25.5911 13.7821 25.1585 13.8119C24.6908 13.8443 24.115 13.8822 23.7446 14.312C23.6717 14.3958 23.5446 14.4066 23.4581 14.3363C23.3716 14.266 23.3608 14.1417 23.4311 14.0579C23.5446 13.9254 23.6717 13.82 23.8041 13.7389C23.5446 13.7686 23.3175 13.8173 23.1769 13.9092C22.9985 14.0254 22.9769 14.239 23.2526 14.631C23.2851 14.677 23.2716 14.7364 23.2256 14.7689C23.1796 14.7986 23.1148 14.7878 23.0823 14.7418C22.7201 14.2282 22.7795 13.9281 23.058 13.7443C23.3499 13.5523 23.8906 13.5226 24.4043 13.4929L24.4556 13.4902C24.6854 13.4442 24.9152 13.428 25.1261 13.4145L25.2423 13.4063C25.3775 13.3712 25.4667 13.3225 25.4802 13.2495C25.5803 12.717 25.7317 12.6061 26.4075 12.6115C26.7049 12.4629 27.1699 12.325 27.9809 12.152L28.0215 12.1439C28.3296 12.079 28.5486 12.0303 28.7054 11.9952C28.7 11.8762 28.6811 11.7519 28.6622 11.6329C28.6405 11.4896 28.6189 11.3545 28.6243 11.2355C28.6405 10.9111 28.9055 10.73 29.4137 10.6624L29.4272 10.6597C29.7354 10.3569 30.2004 10.3542 30.6384 10.3488C31.0141 10.3461 31.3683 10.3434 31.4521 10.0893C31.6008 9.64319 31.9387 9.58371 32.3334 9.62426C32.3902 9.54857 33.0904 9.55127 33.2472 9.52964C33.7013 9.46476 33.8771 9.62426 34.0339 9.79999C34.1312 9.78377 34.215 9.74592 34.2718 9.67833C34.4745 9.44313 34.7719 9.41069 35.0882 9.47828C35.0909 9.47558 35.8154 9.55127 36.3426 9.82432C36.3534 9.12413 37.7078 9.54046 38.1404 9.02951C38.7 8.36988 39.876 7.98869 40.176 7.96977C40.6843 7.93463 40.9303 8.0752 41.0844 8.25633C41.4142 8.16982 41.7332 8.18334 41.9657 8.40502C42.0333 8.4699 42.1252 8.50234 42.2279 8.51316C42.3793 8.32933 42.555 8.15901 43.039 8.19415C43.2066 8.20497 43.312 8.25363 43.3769 8.32392C43.7905 8.25633 44.1528 8.29418 44.3474 8.73214C44.4583 8.97815 44.8313 8.95922 45.2314 8.9376C45.6964 8.91326 46.1884 8.88893 46.5399 9.17009H46.5534C47.0968 9.20523 47.3942 9.37014 47.4347 9.69185C47.4509 9.8081 47.4374 9.94597 47.4266 10.092C47.4158 10.2109 47.405 10.3353 47.4104 10.4542C47.578 10.4812 47.8159 10.5137 48.1457 10.5596L48.1917 10.5651C49.0649 10.6867 49.5704 10.7948 49.8975 10.9246C50.6139 10.8759 50.7816 10.976 50.9302 11.5004C50.9519 11.5734 51.0492 11.6167 51.1952 11.641H51.3195C51.5439 11.641 51.7899 11.6437 52.0386 11.6735H52.0954C52.6415 11.6708 53.2173 11.6653 53.5417 11.8384C53.8526 12.0033 53.9391 12.3007 53.5958 12.8332C53.5661 12.8792 53.4985 12.8954 53.4471 12.8684C53.3958 12.8413 53.3768 12.7792 53.4093 12.7332C53.6715 12.325 53.631 12.1141 53.4336 12.0087C53.2768 11.9249 53.0335 11.8897 52.7551 11.8762C52.901 11.9492 53.0416 12.0438 53.1741 12.1709C53.2579 12.2493 53.2552 12.3736 53.1687 12.4493C53.0822 12.525 52.9443 12.5223 52.8632 12.4439C52.436 12.0384 51.8224 12.0357 51.3222 12.033C50.86 12.0303 50.4761 12.0303 50.2706 11.7546L50.2571 11.7356C50.0651 11.4788 49.9462 11.3193 49.3514 11.1679L49.1784 11.1868L48.6377 11.2409L48.581 11.2463C48.9135 11.2625 49.1027 11.3382 49.1541 11.6221L49.1649 11.6897L49.1676 11.7113C49.4947 11.687 49.83 11.6978 50.0706 12.3628L50.0787 12.3845L50.0868 12.3818C50.6275 12.2493 51.2844 12.1466 51.8089 12.2141C52.2279 12.2682 52.5685 12.4304 52.7172 12.7656C52.7713 12.89 52.8091 12.9873 52.8416 13.0657C52.8956 13.2036 52.9227 13.2766 52.9659 13.3063C53.0173 13.3442 53.1335 13.3496 53.3849 13.3631L53.5661 13.3739C53.7986 13.3874 54.004 13.4685 54.1662 13.5956C54.3041 13.7037 54.4122 13.8416 54.4825 14.0038C54.5501 14.1606 54.5826 14.339 54.569 14.5229C54.5609 14.6418 54.5339 14.7635 54.4852 14.8851C54.4906 14.9527 54.4609 15.0176 54.4014 15.0581C54.3447 15.1582 54.2744 15.2555 54.1852 15.3501C53.9283 15.6232 53.904 15.7502 53.977 15.807C54.0716 15.88 54.3068 15.8935 54.4961 15.9043L54.6447 15.9124C54.7042 15.9178 54.7475 15.9665 54.7421 16.0206C54.7367 16.0746 54.6853 16.1152 54.6231 16.1098L54.4825 16.1017C54.2609 16.0908 53.9824 16.0746 53.8337 15.9584C53.6661 15.8286 53.6553 15.6069 54.0175 15.223C54.0662 15.1717 54.1068 15.1203 54.1446 15.069C54.1041 15.0446 54.0743 15.0068 54.0581 14.9608C53.8608 14.3552 53.6445 14.3444 53.4039 14.3336C53.1119 14.3201 52.7983 14.3039 52.4685 13.8957L52.2847 13.6659C51.9224 13.209 51.8846 13.1603 51.3628 13.2928C51.0519 13.3712 50.7978 13.4253 50.5707 13.4063C50.7032 13.5145 50.8032 13.6686 50.8518 13.9011C50.9086 14.1714 51.1519 14.212 51.4142 14.2579C51.771 14.3201 52.1576 14.385 52.3982 14.7635C53.0038 14.7851 53.1633 15.196 53.3336 15.634L53.3552 15.688C53.4147 15.8421 53.4742 15.9827 53.5472 16.1044C53.5958 16.1179 53.6418 16.1287 53.6877 16.1395C53.8526 16.1801 54.0094 16.2206 54.1446 16.2747L54.1635 16.2828C54.3176 16.345 54.4447 16.4234 54.5231 16.5261C54.5717 16.5234 54.6258 16.5207 54.6799 16.5126C55.2395 16.4531 55.5017 16.6099 55.6207 16.81C55.7369 17.0073 55.6991 17.2371 55.6774 17.3452C55.672 17.375 55.6693 17.4371 55.6829 17.5101C55.7234 17.4993 55.764 17.4912 55.8045 17.4831C56.6561 17.2993 56.8994 17.3452 56.9967 17.7156C57.0183 17.7967 57.0238 17.894 57.0265 18.013C57.1535 17.9751 57.2914 17.9238 57.4401 17.8589C57.4941 17.8346 57.559 17.8562 57.5861 17.9048C57.6104 17.9535 57.5888 18.013 57.5347 18.0373C57.3509 18.1157 57.186 18.1752 57.0319 18.2184C57.0346 18.3131 57.04 18.4185 57.0508 18.5374C57.0886 18.9294 57.1265 19.1538 57.2562 19.2349C57.4049 19.3295 57.7185 19.3187 58.3079 19.2457C59.1378 19.143 59.4731 19.3458 59.4433 19.8729C59.4217 20.273 59.1081 20.8921 58.6107 21.7545C58.5998 21.7734 58.5836 21.7924 58.5674 21.8059C58.562 21.8518 58.5539 21.8978 58.5431 21.9465C58.4701 22.2438 58.6647 22.4168 58.8675 22.5953L58.9188 22.6412C59.0946 22.6169 59.2919 22.5791 59.5109 22.525C59.5677 22.5115 59.6271 22.5412 59.6434 22.5926C59.6596 22.6439 59.6271 22.7007 59.5677 22.7142C59.4001 22.7575 59.2433 22.7899 59.1 22.8143C59.2784 23.0035 59.4136 23.2333 59.3865 23.5901C59.3703 23.8199 59.6001 23.8875 59.8218 23.9551C59.9083 23.9821 59.9948 24.0065 60.0813 24.0416C60.4382 24.1876 60.6599 24.4147 60.3652 25.0148L60.3598 25.0256C60.1192 25.5177 60.0327 25.9178 60.0975 26.2503C60.1462 26.5017 60.2841 26.7207 60.5085 26.918C60.6788 26.8883 60.8626 26.8478 61.0654 26.7964C61.1221 26.7829 61.1816 26.8126 61.1978 26.8667C61.2141 26.918 61.1789 26.9721 61.1221 26.9883C60.9789 27.0235 60.8437 27.0559 60.7166 27.0802L60.7247 27.0857C61.5763 27.675 61.3033 28.1616 60.6896 28.8997C60.5679 29.0456 60.4355 29.2105 60.3057 29.3511C59.7758 29.9675 59.5406 30.2514 60.2003 31.0462C60.3436 31.2192 60.4463 31.3976 60.5166 31.5814C60.6653 31.9788 60.649 32.3817 60.5193 32.7412C60.3895 33.1008 60.1408 33.4144 59.8299 33.6279C59.7866 33.6577 59.7407 33.6874 59.692 33.7144C59.7677 34.6796 58.7269 34.8634 58.589 34.8823C58.5566 34.8904 58.5701 34.8877 58.489 34.9066C58.4052 34.9256 58.2268 34.958 58.0943 34.9688C58.124 35.004 58.1511 35.0418 58.1754 35.0824C58.243 35.1986 58.2835 35.3284 58.2781 35.4717C58.2727 35.6095 58.2241 35.7582 58.1186 35.9177C57.9375 36.1881 57.5698 36.4936 56.9237 36.8315C57.0724 37.1937 57.0048 37.4343 56.8697 37.5911C56.8021 37.7317 56.5966 37.8831 56.2371 37.9291C55.8775 37.975 55.6639 37.8426 55.499 37.6398C55.3557 37.7479 55.2611 37.8399 55.2016 37.921C55.1476 37.9967 55.1503 38.0561 55.1854 38.1075C55.472 38.2454 55.7342 38.4373 55.8397 38.8131C56.0478 39.5619 55.7234 39.9918 55.4936 40.1891C55.299 40.4649 54.7529 40.7974 54.3068 40.8947C54.1446 40.9299 54.0392 40.9515 53.9608 40.9677C53.6174 40.8947 53.22 40.8298 52.7334 40.7704C52.6145 40.6055 52.6172 40.3622 52.7064 40.0648L52.6902 40.0594C52.1468 39.8566 51.8927 39.516 51.9332 39.0321C51.9548 38.7888 52.0576 38.5103 52.2414 38.194C51.4736 39.0077 51.1519 39.4538 51.8251 39.7782C52.2495 39.9837 52.5658 40.3595 52.5604 40.7514C51.9684 40.6866 51.2519 40.6325 50.3571 40.5973L50.3544 40.573C50.3301 40.5784 50.3058 40.5838 50.2787 40.5946C47.4104 40.4838 46.5507 40.1405 45.6721 38.1318C44.7908 36.1232 44.9881 35.2527 44.8178 34.0632C44.9746 33.901 45.053 33.9388 44.9395 33.5631C44.8259 33.1873 44.9259 32.8115 45.153 32.3979C45.3774 31.9843 45.272 31.9951 44.9692 31.6788C44.6664 31.3652 45.1152 31.2084 44.88 30.8056C44.6448 30.4 45.2909 30.4514 44.8502 29.8053C44.4096 29.1592 45.4937 28.6672 44.9259 28.2995C44.3582 27.9291 44.7746 27.8318 44.8827 27.5966C44.8611 27.5993 44.8394 27.5993 44.8178 27.602C44.7637 27.7534 44.6691 27.9021 44.5204 28.0346C44.2663 28.2616 44.3555 28.359 44.4528 28.4644C44.5961 28.6212 44.7556 28.7915 44.5448 29.1376C44.2366 29.6458 44.4339 29.9297 44.5394 30.0783L44.5637 30.1162C44.6367 30.227 44.5691 30.3379 44.4907 30.4703C44.4042 30.6163 44.2906 30.8002 44.4366 30.9813C44.4691 31.0218 44.4961 31.0651 44.5204 31.1138C44.6259 31.33 44.6556 31.6382 44.6015 31.9383C44.5475 32.2384 44.4096 32.533 44.1771 32.7142C44.123 32.7574 44.0663 32.7926 44.0014 32.8223C43.9527 32.8439 43.8932 32.8223 43.8689 32.7737C43.8446 32.725 43.8662 32.6682 43.9149 32.6439C43.9635 32.6223 44.0095 32.5925 44.0527 32.5601C44.2447 32.4087 44.3636 32.1573 44.4096 31.8977C44.4556 31.6382 44.4339 31.3706 44.3447 31.1922C44.3285 31.157 44.3069 31.1246 44.2852 31.1002C44.0527 30.8137 44.2014 30.5623 44.3204 30.3676C44.3663 30.2919 44.4042 30.2297 44.3988 30.2189L44.3772 30.1865C44.2447 29.9972 44.0014 29.6485 44.3744 29.0348C44.5096 28.8131 44.4042 28.6996 44.3096 28.5942C44.142 28.4103 43.9906 28.2454 44.3853 27.8913C44.488 27.7994 44.5583 27.6993 44.6069 27.5966C44.4042 27.575 44.2312 27.5074 44.0906 27.4128C43.95 27.3181 43.8392 27.1992 43.7608 27.0667C43.6824 26.9343 43.6364 26.791 43.6229 26.6477C43.5959 26.3638 43.7013 26.0881 43.95 25.9367C44.2609 25.7475 44.2744 25.5907 44.1987 25.4717C44.1257 25.3609 43.9852 25.269 43.9041 25.2176L43.8716 25.196C43.7689 25.1176 43.631 24.9148 43.5526 24.685C43.4742 24.4525 43.4499 24.1876 43.5769 23.9875L43.604 23.947C43.7364 23.774 43.5499 23.5523 43.239 23.1846C43.066 22.9792 42.8578 22.7331 42.647 22.4277C42.3712 22.0276 42.3415 21.5572 42.401 21.1462C42.209 21.1895 42.3009 21.3084 41.6629 21.0814C41.0249 20.8543 41.3899 20.5055 40.6978 20.519C40.003 20.5299 40.4031 20.0378 39.8354 19.8837C39.2677 19.7296 39.8895 19.4106 39.2947 19.2647C38.7 19.1187 39.5272 18.4807 38.7378 18.3833C37.9484 18.286 39.0433 17.4723 37.7889 17.5507C36.9968 17.5994 36.1912 17.4399 36.1533 16.0881C36.1128 16.2233 35.9776 16.5126 35.7938 16.8262C35.7695 17.2939 35.8992 17.7318 36.4156 17.8643L36.7995 17.9616C37.8835 18.2374 38.1133 18.2941 38.1295 18.7889L38.1323 18.8348C38.1458 19.0376 38.2025 19.2295 38.3053 19.3674C38.3999 19.4972 38.5324 19.581 38.7027 19.581H38.7216C38.9622 19.5729 39.1001 19.5837 39.1839 19.6323C39.2947 19.6972 39.3055 19.7945 39.292 19.9513C39.2839 20.0432 39.2947 20.1189 39.3353 20.1703C39.3731 20.2217 39.4461 20.2541 39.5543 20.2649C39.6083 20.2703 39.6489 20.319 39.6462 20.3704C39.6435 20.4244 39.5948 20.4623 39.5407 20.4569C39.3704 20.4406 39.2515 20.3785 39.1785 20.2838C39.1055 20.1892 39.0812 20.0676 39.0947 19.927C39.1028 19.8513 39.1028 19.808 39.0839 19.7972C39.0406 19.7702 38.9325 19.7675 38.7324 19.7729H38.7081C38.4648 19.7729 38.2782 19.6567 38.1458 19.4755C38.0214 19.3052 37.9511 19.0754 37.9349 18.8375L37.9322 18.7862C37.9214 18.4428 37.7186 18.3915 36.7562 18.1454L36.3723 18.0481C35.8533 17.913 35.6505 17.5426 35.6073 17.1181C35.5316 17.229 35.4532 17.3371 35.3721 17.4371C35.4288 17.7616 35.5775 18.067 35.9127 18.2184C36.2615 18.3779 36.5237 18.4617 36.7048 18.5212C36.8319 18.5618 36.9211 18.5915 36.986 18.6294C37.1374 18.7213 37.1374 18.8132 37.0157 19.0132C36.9887 19.0592 36.9292 19.0727 36.8806 19.0457C36.8346 19.0186 36.8184 18.9565 36.8454 18.9132C36.8914 18.8348 36.9049 18.8051 36.886 18.797C36.8454 18.7726 36.7643 18.7456 36.6481 18.7078C36.4642 18.6483 36.1993 18.5618 35.8343 18.3969C35.4802 18.2347 35.2991 17.94 35.2126 17.621C35.0368 17.8048 34.3664 18.0022 34.1934 18.0427C33.8365 18.1211 34.0258 18.4753 33.7365 18.505C33.4499 18.5347 33.3391 18.5564 33.3472 18.797C33.3553 19.0376 33.3607 19.3025 32.8146 19.4025C32.2685 19.4999 32.1144 19.6296 32.2118 19.9486C32.3118 20.2703 32.2199 20.6272 31.7035 20.6704C31.1872 20.7137 31.0736 21.6193 31.1358 22.0924C31.325 23.5009 31.4494 24.7877 31.3575 25.8394C31.2737 26.8072 31.0168 27.6804 31.417 29.0348C31.763 30.2 32.3064 31.4598 32.6281 32.3627C33.3526 34.3984 34.0149 34.7471 34.9963 35.4581C35.5667 36.7909 36.2399 39.0564 36.2615 40.4838C36.2831 41.9112 35.6532 43.0196 33.9771 43.6955C32.301 44.3713 32.72 44.6633 32.5956 45.3932L32.6119 45.3959ZM28.6622 13.1036C28.5919 13.1468 28.5405 13.1901 28.5108 13.2333C28.4243 13.255 28.3405 13.2847 28.2594 13.3252C27.9512 13.4766 27.7052 13.7659 27.4943 14.2741C27.3429 14.6364 26.9969 14.731 26.6779 14.8175C26.5913 14.8419 26.5075 14.8635 26.4264 14.8905C26.54 14.7608 26.6346 14.5769 26.713 14.3174C27.0942 14.285 27.2402 14.0498 27.3078 13.7659C27.4727 13.7659 27.6322 13.7389 27.7809 13.5686C27.9106 13.4172 28.0215 13.3009 28.2296 13.2171C28.3405 13.1712 28.481 13.136 28.6649 13.1036H28.6622ZM28.5378 13.6388C28.5459 13.8443 28.4864 14.093 28.1999 14.1876C28.0863 14.2255 27.9971 14.2633 27.9268 14.3012C28.0836 13.966 28.2513 13.774 28.4486 13.6767C28.4783 13.6632 28.5081 13.6497 28.5378 13.6388ZM27.1185 15.4258C27.1266 15.4826 27.1347 15.5475 27.1347 15.6177C27.0239 15.6502 26.9131 15.6907 26.8103 15.7421C26.8698 15.5502 26.9401 15.4204 27.1158 15.4231L27.1185 15.4258ZM27.1266 15.8259C27.1158 15.9395 27.0942 16.0638 27.0563 16.199C26.9022 16.7586 27.0131 16.9235 26.3264 17.1127C26.2048 17.1452 26.0885 17.1668 25.9777 17.183C26.1669 17.1073 26.3426 16.9451 26.5048 16.6369C26.6157 16.4288 26.6833 16.2206 26.7346 16.0341C26.8455 15.9395 26.9806 15.8719 27.1293 15.8259H27.1266ZM25.4911 17.2263C25.3261 17.2425 25.2153 17.2749 25.1856 17.3696C25.0612 17.2425 24.9639 17.1641 25.045 17.1371C25.2018 17.1749 25.3505 17.2074 25.4911 17.2263ZM25.2423 19.1944C25.3045 19.5999 25.364 20.1054 25.1261 20.4434C24.9693 20.592 24.7503 20.6569 24.4611 20.7461L24.2772 20.8029C23.8501 20.9408 23.5824 21.1516 23.4311 21.4274C23.2797 21.7004 23.2499 22.0249 23.2905 22.3952C23.3067 22.5358 23.1959 22.5764 23.0742 22.6196C22.8579 22.698 22.6254 22.7845 22.5281 23.0522C22.3281 23.1522 22.174 23.2765 22.1145 23.436C22.0658 23.5685 21.8441 23.6956 21.5954 23.8388C21.3765 23.9632 21.144 24.0984 20.952 24.2714C20.9574 24.2227 20.9601 24.1768 20.9601 24.1308C20.9601 23.9524 20.9115 23.7929 20.8601 23.7037C20.8033 23.6091 20.7141 23.4441 20.6519 23.2657C20.6763 23.2576 20.7033 23.2495 20.7276 23.2414C20.9223 23.1873 21.1386 23.1738 21.3413 23.2117C21.8225 23.3009 22.0199 23.1765 22.0685 22.9224C22.0956 22.7899 22.0577 22.6385 21.9982 22.4709L22.0091 22.4682C22.4794 22.3844 22.7146 22.1384 22.5578 21.3355C22.5119 21.1057 22.5497 20.9381 22.6389 20.8137C22.9823 20.8353 23.3635 20.8489 23.6608 20.7407C23.8122 20.6867 23.9393 20.6056 24.0285 20.492L24.1312 20.4974C24.1961 20.5001 24.2502 20.5028 24.307 20.5055C24.5638 20.5109 24.799 20.5028 24.9774 20.365C25.1558 20.2271 25.2613 19.973 25.2423 19.4945C25.2369 19.3863 25.2369 19.289 25.2396 19.1971L25.2423 19.1944ZM44.9205 27.4101C44.9151 27.3803 44.9043 27.3506 44.8881 27.3209C44.8854 27.3533 44.8827 27.383 44.8773 27.4155L44.9205 27.4101ZM44.6907 27.0938C44.1041 26.5585 44.2609 26.0989 44.6421 25.9421C45.0233 25.7853 45.0233 25.077 44.5529 24.7256C44.0825 24.3768 44.2798 23.9389 44.5637 23.7037C44.8475 23.4685 44.8665 23.8929 43.9257 23.163C42.9849 22.4331 42.9389 21.1246 42.9741 20.9273C43.0065 20.7299 42.893 20.9624 42.6226 21.0841C42.5496 21.4788 42.5578 21.9437 42.82 22.3303C43.0254 22.6277 43.2282 22.871 43.3985 23.0711C43.7716 23.5117 43.9987 23.7821 43.7743 24.074L43.7554 24.1011C43.6635 24.2471 43.6851 24.4525 43.7473 24.6364C43.8121 24.8256 43.9176 24.9905 43.9933 25.05L44.0149 25.0635C44.1068 25.123 44.2744 25.2311 44.3717 25.3798C44.5042 25.5826 44.5069 25.8421 44.0663 26.1097C43.8851 26.2206 43.8067 26.4287 43.8284 26.6423C43.8392 26.7558 43.877 26.8721 43.9392 26.9775C44.0014 27.0857 44.0906 27.1803 44.2041 27.256C44.3312 27.3398 44.488 27.3965 44.6772 27.4101C44.7016 27.2992 44.7016 27.1884 44.6935 27.0884L44.6907 27.0938ZM21.5792 22.5007C21.5197 22.5034 21.4549 22.5034 21.3927 22.5061C21.2872 22.5088 21.1764 22.5115 21.0629 22.5169C20.9277 22.5223 20.825 22.5493 20.752 22.5899C20.6844 22.6277 20.6411 22.6764 20.6141 22.7359C20.5952 22.7764 20.5871 22.8224 20.5816 22.871L20.6114 22.8629C20.8655 22.7899 21.1494 22.7737 21.4143 22.8251C21.5981 22.8602 21.663 22.8629 21.6657 22.8494C21.6792 22.7845 21.636 22.6575 21.5765 22.5061L21.5792 22.5007ZM20.5735 24.8851C20.4654 24.9581 20.3302 25.0202 20.1599 25.0608C20.0518 25.0851 19.9301 25.104 19.795 25.1095L19.7841 25.1203C19.6084 25.3095 19.4246 25.5096 19.4705 25.8286C19.5489 26.3611 19.1867 26.5017 18.8406 26.6369C18.7704 26.6639 18.7001 26.691 18.6433 26.7207C18.5216 26.7829 18.4568 26.8883 18.6163 27.1749L18.6217 27.1857C18.9244 27.7345 19.0515 28.2022 19.0083 28.6158C18.9812 28.8645 18.8974 29.0889 18.7541 29.2998C18.9082 29.2998 19.0407 29.2916 19.1542 29.27C19.3354 29.2376 19.4597 29.1808 19.5327 29.1024C19.6003 29.0321 19.6273 28.9429 19.6192 28.8375C19.6111 28.7266 19.5625 28.5996 19.4787 28.4644C19.2597 28.0967 19.0569 27.6723 19.0299 27.3209C19.0001 26.9316 19.1651 26.6288 19.7003 26.5612C19.9193 26.5342 20.1248 26.5152 20.3113 26.5017C20.5114 26.3368 20.606 26.2476 20.6357 26.1692C20.6628 26.0962 20.6465 25.9827 20.6141 25.7745C20.5952 25.6474 20.5708 25.4879 20.5519 25.2879C20.5357 25.1392 20.5438 25.004 20.5708 24.8851H20.5735ZM19.9815 24.8932C20.0274 24.8851 20.0707 24.877 20.1113 24.8689C20.3681 24.8067 20.5303 24.6904 20.6276 24.558C20.7222 24.4228 20.7574 24.2687 20.7547 24.1281C20.7547 23.9848 20.7195 23.8632 20.6817 23.7956C20.6222 23.6983 20.533 23.5307 20.4654 23.3441C20.4086 23.3766 20.3546 23.4144 20.3059 23.455C20.2032 23.5469 20.1302 23.6577 20.1058 23.7848C20.0896 23.874 20.0923 23.9713 20.1275 24.0795C20.241 24.4444 20.1437 24.685 19.9842 24.8932H19.9815ZM20.3762 22.944C20.3708 22.8413 20.3843 22.744 20.4248 22.6547C20.4681 22.5574 20.5384 22.4763 20.6492 22.4168C20.7493 22.3628 20.879 22.3276 21.0493 22.3195C21.1656 22.3141 21.2764 22.3114 21.3846 22.3087L21.5035 22.306L21.4494 22.1654C21.3765 21.9762 21.3467 21.7383 21.3602 21.5031C21.3737 21.2841 21.4278 21.0651 21.5278 20.8786C21.636 20.6785 21.7982 20.519 22.0172 20.4406C22.1226 20.4055 22.2388 20.3866 22.3659 20.3947L22.5227 20.4055C22.6173 20.4136 22.7173 20.419 22.8174 20.4244C22.9255 20.3785 23.0418 20.3487 23.1661 20.3244C23.3256 20.2947 23.4959 20.2838 23.6554 20.2811C23.723 20.2136 23.7582 20.1135 23.7474 19.9648C23.7122 20.0405 23.6527 20.0973 23.5689 20.1379C23.3391 20.2541 22.958 20.173 22.4984 20.0757C22.3956 20.0541 22.2848 20.0297 22.1713 20.0081C22.1334 20.0757 22.0847 20.1406 22.0226 20.2C21.9307 20.2893 21.8063 20.3595 21.6468 20.4001C21.5414 20.4271 21.4224 20.4406 21.2818 20.4352C21.2845 20.519 21.2872 20.6083 21.2845 20.7056C21.2764 21.2219 21.2386 21.5247 20.9926 21.714C20.7628 21.8924 20.3924 21.9167 19.7247 21.8708C19.284 21.841 19.111 21.9221 19.138 22.1249C19.1732 22.406 19.4111 22.8494 19.7922 23.4604C19.8517 23.3495 19.9328 23.2495 20.0301 23.163C20.1302 23.0765 20.2464 23.0008 20.3762 22.944ZM21.9252 22.2763L21.9685 22.2682C22.3118 22.206 22.4822 22.014 22.3551 21.3679C22.3091 21.1273 22.3281 20.9408 22.3983 20.7921L22.3389 20.7867C22.2686 20.784 22.2064 20.7921 22.1523 20.811C22.0361 20.8516 21.9496 20.9435 21.8847 21.0597C21.8117 21.1949 21.7739 21.3598 21.763 21.5247C21.7522 21.7086 21.7739 21.887 21.8279 22.0276L21.9009 22.2114L21.9252 22.2709V22.2763ZM24.1285 20.2947H24.1366L24.307 20.3028C24.5232 20.3082 24.7206 20.3028 24.8476 20.2027C24.9747 20.1027 25.0504 19.9 25.0342 19.4945C25.0234 19.243 25.0477 18.9997 25.0991 18.7807C24.8341 19.0187 24.4881 19.0132 24.1961 19.0078C24.0799 19.0051 23.9771 19.0051 23.9258 19.0241L23.9231 19.0268C23.8933 19.043 23.9069 19.1376 24.0204 19.4269C24.1691 19.808 24.1934 20.0892 24.1285 20.2974V20.2947ZM22.2848 19.6296C22.3848 19.6485 22.4849 19.6702 22.5795 19.6918C22.9634 19.7729 23.277 19.8405 23.377 19.7891C23.4175 19.7702 23.3716 19.6323 23.185 19.2863C23.0607 19.0592 23.0174 18.8808 23.0309 18.7375C23.0012 18.7375 22.9715 18.7348 22.9417 18.7348C22.5173 18.7159 22.3416 18.8321 22.2767 18.97C22.2118 19.1133 22.2524 19.2917 22.2767 19.3755C22.2902 19.4215 22.2983 19.5161 22.2875 19.6296H22.2848ZM24.2421 17.9589C24.5286 17.8264 24.7774 17.6264 24.8098 17.2398C24.8206 17.1073 24.4475 17.037 24.4746 16.937C24.1285 17.0397 24.434 17.302 24.3421 17.6318L24.3259 17.6886C24.2989 17.7832 24.2718 17.8724 24.2421 17.9589ZM23.8852 18.5131C23.7879 18.5888 23.669 18.651 23.5203 18.6888C23.45 18.7618 23.4338 18.8673 23.5122 19.043C23.5095 18.8321 23.6095 18.7213 23.7717 18.6591L23.7825 18.6537C23.9042 18.6104 24.0447 18.6104 24.2015 18.6131C24.48 18.6185 24.8341 18.6239 24.9828 18.2347C25.0531 18.0508 25.0828 17.8886 25.0855 17.748C24.8612 18.1833 24.3935 18.3401 23.9853 18.478L23.8852 18.5131ZM21.271 20.2406C21.3954 20.246 21.5035 20.2352 21.5927 20.2109C21.7144 20.1784 21.809 20.1243 21.8766 20.0595C21.9063 20.0324 21.9307 20.0027 21.9523 19.9703L21.8982 19.9621C21.4062 19.8837 21.2764 19.8783 21.2656 19.9405C21.2548 20.0081 21.2602 20.1081 21.2683 20.2379L21.271 20.2406ZM24.8558 16.6261C24.9504 16.6423 25.0531 16.664 25.1639 16.691L25.1694 16.6937C25.3829 16.7478 25.5505 16.791 25.683 16.8208C25.856 16.7964 26.0047 16.6991 26.1345 16.4531C26.2507 16.2314 26.3129 16.0016 26.367 15.8016C26.4237 15.588 26.4751 15.4015 26.5589 15.2609C26.3426 15.3339 26.1723 15.442 26.1426 15.6934C26.075 16.2341 25.7236 16.3206 25.3397 16.418C25.1721 16.4585 24.9963 16.5045 24.8585 16.6234L24.8558 16.6261ZM22.5038 16.4801C22.7092 15.9097 23.0039 15.8773 23.3256 15.8394C23.5067 15.8178 23.6987 15.7962 23.8744 15.5285L24.0285 15.2906C24.4692 14.6013 24.5151 14.5283 25.291 14.6851C25.61 14.7499 25.8425 14.7878 25.9939 14.7175C26.1128 14.6634 26.2075 14.5337 26.2913 14.2823C25.7965 14.1876 25.2072 14.1282 24.753 14.2201C24.4313 14.285 24.1826 14.4282 24.0934 14.6905C24.0555 14.8094 24.0258 14.9067 24.0042 14.9878C23.9528 15.1636 23.9258 15.2582 23.8447 15.3312C23.7528 15.4123 23.623 15.4285 23.3445 15.4609L23.1769 15.4826C23.0066 15.5042 22.8606 15.5772 22.7471 15.6826C22.6498 15.7745 22.5768 15.8935 22.5335 16.026C22.4903 16.1611 22.4767 16.3098 22.4984 16.4639L22.5011 16.4747L22.5038 16.4801ZM27.3591 13.3658C27.4024 13.3604 27.4375 13.3442 27.4619 13.3171C27.543 13.2225 27.6186 13.1387 27.7079 13.063C27.4943 13.09 27.378 13.1468 27.3645 13.2955L27.3591 13.3631V13.3658ZM29.922 11.76C29.8679 11.7924 29.83 11.833 29.8165 11.8843C29.7976 11.9681 29.8246 12.0655 29.8517 12.1628C29.8652 12.2114 29.8787 12.2628 29.8895 12.3142C29.9003 12.3736 29.9057 12.4331 29.8976 12.4872C29.9328 12.4629 29.9652 12.4331 29.9923 12.4061C29.9841 12.2736 29.9571 12.0952 29.9355 11.9816C29.9139 11.8654 29.9139 11.8276 29.922 11.76ZM26.7725 14.0984C26.9563 14.0498 27.0455 13.92 27.0942 13.7659C26.9725 13.7767 26.8563 13.8362 26.7725 14.0984ZM29.511 12.6278C29.6841 12.5467 29.7057 12.4493 29.6868 12.3466C29.6787 12.3061 29.6678 12.2601 29.6543 12.2141C29.6219 12.0952 29.5867 11.9735 29.6165 11.8438C29.6543 11.6762 29.8111 11.5815 29.995 11.5248C30.1815 11.2328 30.5356 11.1247 31.4872 11.2382C32.4388 11.3517 32.1442 11.3139 32.2821 10.903L32.3064 10.8273C32.1523 10.9354 31.8819 10.9868 31.4197 10.9327C30.8249 10.8651 30.3275 10.83 29.9301 10.8327C29.7706 10.8922 29.6435 10.9976 29.5759 11.1814C29.4678 11.4707 29.4543 11.6599 29.4462 11.7897C29.4353 11.96 29.4272 12.0655 29.3029 12.179L29.2867 12.1925C29.2029 12.2601 29.0785 12.3115 28.8676 12.3655C28.8163 12.5088 28.7216 12.6305 28.554 12.7197C28.773 12.6818 29.0406 12.6548 29.3813 12.6386C29.4272 12.6359 29.4705 12.6332 29.5137 12.6251L29.511 12.6278ZM34.9206 9.83513C34.7827 9.82161 34.6665 9.84865 34.5881 9.94056C34.534 10.0027 34.4745 10.0514 34.415 10.092C34.461 10.1028 34.5151 10.1082 34.5745 10.1082C34.78 10.1055 34.8584 9.98382 34.9206 9.83513ZM32.2685 10.0298C32.0604 10.0163 31.8982 10.0541 31.8414 10.2217C31.736 10.5407 31.5089 10.6651 31.2277 10.7164L31.4413 10.7408C32.1063 10.8165 32.2712 10.6624 32.2929 10.4569C32.3037 10.365 32.2929 10.2596 32.2793 10.1568C32.2739 10.1136 32.2712 10.073 32.2658 10.0325L32.2685 10.0298ZM28.5811 12.4358C28.4486 12.4656 28.2945 12.498 28.1134 12.5358L28.0728 12.544C27.8755 12.5872 27.7025 12.6251 27.5484 12.6629L27.6241 12.6656C28.1593 12.6872 28.4405 12.5899 28.5811 12.4331V12.4358ZM25.6668 13.3469C25.7154 13.3279 25.7506 13.3063 25.7695 13.2739L25.7803 13.255C25.8776 13.09 25.9587 12.9576 26.0858 12.8386C25.8209 12.8819 25.7371 13.0035 25.683 13.2928C25.6803 13.3117 25.6749 13.3307 25.6668 13.3469ZM28.9082 11.9465C28.9568 11.9303 28.992 11.9141 29.0109 11.8978L29.0163 11.8924C29.0244 11.8843 29.0271 11.8384 29.0325 11.7654C29.0434 11.6113 29.0596 11.3896 29.1866 11.049C29.2056 10.9949 29.2299 10.9462 29.2542 10.9003C28.9785 10.9652 28.8352 11.0787 28.8271 11.2544C28.8217 11.3545 28.8433 11.4815 28.8622 11.614C28.8784 11.7221 28.8974 11.8357 28.9055 11.9492L28.9082 11.9465ZM33.2607 9.73781L33.3526 9.75403C33.4851 9.77836 33.6202 9.80269 33.7446 9.8135C33.6419 9.74321 33.504 9.70266 33.2769 9.7351L33.2607 9.73781ZM19.6057 32.7601C19.7733 32.4925 19.8058 32.0951 19.2732 31.3814C18.7244 30.6434 19.0488 30.2108 19.5273 29.881C19.6544 29.7918 19.7895 29.7161 19.9193 29.6404C20.2005 29.4782 20.4492 29.3376 20.3816 29.2214C20.3059 29.0862 20.2086 28.951 20.1113 28.8131C19.6517 28.1589 19.1542 27.4506 20.0193 26.7396L20.041 26.7234C19.9382 26.7342 19.8355 26.745 19.7274 26.7585C19.3327 26.8072 19.211 27.0289 19.2326 27.31C19.257 27.6263 19.4489 28.0237 19.6571 28.3698C19.7544 28.532 19.8112 28.6861 19.822 28.8294C19.8355 28.9889 19.7895 29.1294 19.6814 29.243C19.576 29.3511 19.4165 29.4295 19.1894 29.4701C19.0299 29.4998 18.8352 29.5079 18.6 29.4971C18.5243 29.5836 18.4378 29.6647 18.3432 29.7458C17.8674 30.1486 18.0864 30.4866 18.5487 30.9948C18.673 31.1327 18.819 31.276 18.938 31.4165C19.4165 31.9302 19.7111 32.2492 19.603 32.7601H19.6057ZM19.849 36.1124C19.8166 36.1043 19.7841 36.0935 19.7544 36.0826C19.795 36.5206 20.0977 36.7261 20.3519 36.818C20.5087 36.8369 20.7006 36.8261 20.9385 36.772C21.0061 36.7558 21.071 36.7369 21.1331 36.7125C20.5898 36.5584 20.168 36.3503 19.849 36.1124ZM27.7025 45.231C27.7322 45.1499 27.77 45.0769 27.8187 45.0147C27.9187 44.8823 28.0539 44.7714 28.1864 44.6633C28.5189 44.393 27.47 43.463 27.178 43.244C26.467 42.7168 26.6941 41.9923 27.3889 41.576C27.9106 41.2651 27.6592 40.7866 26.8779 40.0215C27.0753 40.327 27.1915 40.6001 27.2294 40.8407C27.3051 41.3219 27.0915 41.676 26.5968 41.9112L26.5805 41.9193C26.7563 42.4086 26.6995 42.7601 26.221 42.8736C26.3345 43.025 26.5048 43.2007 26.7373 43.4035C27.3375 43.9253 27.2456 44.2983 27.1672 44.6173C27.1158 44.8228 27.0753 44.9904 27.6998 45.2337L27.7025 45.231ZM23.1769 34.101L23.1877 34.0794C23.3175 33.8685 23.1904 33.6685 22.9769 33.4576C22.8282 33.5901 22.693 33.7036 22.6173 33.7901C22.3416 34.0983 21.9658 34.4092 22.3875 34.7553C22.812 35.1013 23.2121 35.7934 22.9363 36.353C22.7633 36.7017 22.3199 36.9748 21.7901 37.091C21.7684 37.1072 21.7468 37.1235 21.7252 37.1397C21.6117 37.2181 21.5008 37.3208 21.4467 37.437C21.4197 37.4938 21.4062 37.5587 21.4143 37.6263C21.4224 37.6993 21.4576 37.7831 21.5224 37.8723C21.6928 38.1021 22.0523 38.367 22.7119 38.659C22.9634 38.7698 23.1823 38.8753 23.3716 38.9726C23.3175 38.5671 23.0201 38.1183 22.6579 37.9777C22.1577 37.7858 22.1361 37.5127 22.7444 37.1289C22.7633 37.0829 22.7876 37.0396 22.8201 36.991C22.9201 36.8423 23.0931 36.7044 23.3121 36.526L23.5149 36.3611C23.6095 36.2827 23.6852 36.1637 23.7474 36.0151C23.6662 35.715 23.404 35.4284 23.2283 35.2094C22.8877 34.7904 22.8309 34.3065 23.1769 34.1037V34.101ZM21.9901 31.3922C21.9982 31.2003 22.0172 31.0083 22.0442 30.8272C21.9766 30.473 22.0496 30.154 22.3713 29.8837C22.3929 29.8621 22.4146 29.8458 22.4362 29.8323C22.4686 29.8107 22.5011 29.7864 22.5335 29.7647C22.8309 29.5133 22.7768 29.0537 22.4903 28.5644C22.6957 29.4133 22.7417 29.8053 22.0091 30.027C21.7333 30.1108 21.6062 30.2324 21.6035 30.4082C21.6008 30.6325 21.7414 30.957 21.9901 31.3949V31.3922ZM22.2334 27.3938C22.301 27.2776 22.3956 27.1668 22.5173 27.0532C22.7795 26.8018 22.8039 26.4639 22.7228 26.1557C22.6633 26.3638 22.5578 26.5044 22.4551 26.645C22.3254 26.818 22.1983 26.9883 22.2334 27.3938ZM22.3199 25.2473C22.3091 25.1987 22.3037 25.1473 22.3037 25.0959C22.1415 25.1743 22.0118 25.2581 21.9036 25.3419L21.8712 25.369C21.9631 25.6718 22.0793 25.8772 22.1659 26.034C22.201 26.0962 22.2334 26.153 22.2605 26.207C22.347 26.0448 22.3983 25.8259 22.3416 25.442C22.3308 25.3744 22.3254 25.3095 22.3199 25.2473ZM21.5711 25.7394C21.4873 25.9043 21.4684 26.0611 21.4738 26.1854C21.4873 26.5098 21.198 26.6017 20.7466 26.6558C20.66 26.7315 20.5546 26.8207 20.4194 26.9289L20.287 27.037C19.7003 27.5209 20.0896 28.0751 20.4492 28.5888C20.5546 28.7401 20.66 28.8861 20.7411 29.0267C21.0007 29.4782 20.5952 29.7107 20.1302 29.9756C20.0058 30.0459 19.8788 30.1189 19.7679 30.1973C19.4651 30.4082 19.2597 30.6812 19.6057 31.1462C20.5762 32.4492 20.0301 32.9575 19.63 33.3306C19.5841 33.3738 19.5408 33.4117 19.503 33.4549C19.4381 33.5225 19.357 33.728 19.3191 34.0064C19.2867 34.247 19.2948 34.5363 19.3867 34.8283C19.4787 35.1202 19.6544 35.4176 19.9599 35.6852C20.314 35.9934 20.8385 36.2557 21.6035 36.4179C21.763 36.2692 21.8847 36.0935 21.9604 35.9123C21.9442 35.5474 20.1734 34.8147 20.7006 34.1984C20.9061 33.8523 21.417 33.6144 21.782 33.3954C22.5173 32.9575 21.5035 31.9816 21.3035 31.8058C19.7247 30.4055 18.5216 31.2354 21.517 29.3484C21.6576 29.2592 21.6387 29.1024 21.3062 28.6104C20.4708 27.3776 20.952 27.0775 21.7036 26.618L21.7306 26.6017C21.9496 26.4666 21.9117 26.3963 21.8063 26.2125C21.7387 26.0881 21.6522 25.9367 21.5711 25.7339V25.7394ZM20.9601 26.4233C21.1575 26.3828 21.2737 26.3152 21.2683 26.1935C21.2602 26.0016 21.3008 25.7502 21.4819 25.4933C21.444 25.369 21.4089 25.2284 21.3792 25.0716C21.3224 24.7634 21.344 24.5553 21.417 24.412C21.1413 24.6093 20.9223 24.8607 20.9628 25.2473C20.9818 25.442 21.0061 25.5934 21.025 25.715C21.0656 25.9854 21.0872 26.1341 21.0277 26.299C21.0115 26.3422 20.9899 26.3828 20.9655 26.4206L20.9601 26.4233ZM21.8144 25.1581C21.9523 25.0554 22.1226 24.9554 22.3335 24.8634C22.3632 24.6769 22.42 24.5201 22.4957 24.3822C22.4038 24.4093 22.3037 24.4255 22.201 24.4417C21.9496 24.485 21.6928 24.5282 21.7793 25.0013C21.7901 25.0554 21.8009 25.1068 21.8117 25.1554L21.8144 25.1581ZM24.0312 41.9869C24.1556 42.0653 24.3178 42.1221 24.5043 42.1383C24.4124 42.068 24.334 41.9923 24.261 41.9112C24.0555 41.6787 23.9258 41.4057 23.8636 41.1488C23.823 40.9785 23.8095 40.8136 23.823 40.6676C23.7906 40.7325 23.7663 40.8028 23.7528 40.8839C23.6473 41.4678 23.8528 41.8058 24.0339 41.9842L24.0312 41.9869ZM24.5259 39.8891C24.7584 39.7647 24.9369 39.6241 24.8963 39.3321L24.8882 39.3186C24.6287 38.951 24.1366 38.5644 23.5662 38.1994C23.5203 38.1697 23.477 38.1426 23.4338 38.1129C23.5013 38.2454 23.6041 38.3832 23.7338 38.513C23.9177 38.6996 23.9798 38.9996 23.9285 39.2835C24.1583 39.4349 24.3124 39.5646 24.4043 39.6836C24.4611 39.7566 24.5016 39.8242 24.5259 39.8863V39.8891ZM25.0558 39.7052C24.9612 39.8782 24.7719 39.9864 24.5611 40.0945C24.5476 40.2486 24.4421 40.3757 24.3043 40.4919C24.2853 40.5081 24.2691 40.5352 24.2556 40.573C24.215 40.692 24.215 40.8677 24.261 41.0596C24.3097 41.2597 24.4124 41.4733 24.5719 41.6544C24.6746 41.7706 24.8017 41.8761 24.9585 41.9545C24.7449 41.7679 24.6016 41.5895 24.5151 41.4192C24.2826 40.9596 24.4421 40.5676 24.8693 40.1702C25.0234 40.0269 25.0774 39.8701 25.0585 39.7025L25.0558 39.7052ZM22.8579 39.6971C22.9282 39.6863 23.0066 39.6593 23.1012 39.6106C23.204 39.5565 23.277 39.4781 23.3202 39.3862C23.1175 39.2781 22.8687 39.1564 22.5687 39.024C22.4578 39.4457 22.6795 39.6241 22.8552 39.6971H22.8579ZM24.5097 36.8045C24.2853 37.0586 23.9285 37.2694 23.6717 37.3668C23.5311 37.4208 23.4392 37.5019 23.3878 37.5966C23.4878 37.6723 23.6176 37.7615 23.7852 37.8696C23.9771 37.994 24.1637 38.1183 24.3367 38.2481C24.1691 37.9264 24.3016 37.829 24.4556 37.5587C24.5854 37.3316 24.6097 37.0991 24.507 36.8045H24.5097ZM25.4802 39.7755C25.4829 40.0134 25.3829 40.2405 25.1504 40.4568C24.8585 40.7271 24.7422 40.9785 24.8774 41.2489C24.972 41.4354 25.1666 41.6382 25.4829 41.868C25.5019 41.8544 25.5208 41.8436 25.5397 41.8301C26.2426 41.3543 26.0101 40.5757 25.4802 39.7755ZM26.4427 41.5381C26.7427 41.3895 26.8725 41.1732 26.8293 40.8893C26.7752 40.5406 26.494 40.0864 25.9858 39.5241C25.7722 39.2889 25.5992 39.0537 25.4613 38.8185C25.5911 39.3349 25.8668 39.8539 26.2426 40.2054C26.9969 40.9082 26.2723 40.8866 26.4427 41.5381ZM21.5008 34.812C21.5008 34.8255 21.5008 34.8364 21.5035 34.8472C21.5251 34.9661 21.7117 35.0878 21.9766 35.2419C21.9955 35.2527 22.0145 35.2635 22.0307 35.277C21.9901 35.1391 21.909 35.0256 21.7766 34.9607C21.6873 34.9175 21.5927 34.8661 21.5008 34.812ZM21.8333 27.0127C21.3467 27.3154 21.0737 27.556 21.6468 28.4022C22.1604 29.1592 22.1199 29.4457 21.7414 29.6836C21.7144 29.7026 21.6846 29.7188 21.6522 29.735C21.7225 29.7026 21.7982 29.6728 21.8847 29.6485C22.3037 29.5214 22.2253 29.1997 22.0442 28.4725C21.9955 28.2698 21.9361 28.04 21.8766 27.7561C21.809 27.4371 21.8009 27.2019 21.8333 27.0181V27.0127ZM21.9523 24.0849C22.0118 24.074 22.0685 24.0632 22.128 24.0524C22.3497 24.0146 22.5633 23.9767 22.5065 23.6442C22.5011 23.6172 22.4984 23.5928 22.4957 23.5685C22.4119 23.7875 22.201 23.9362 21.9523 24.0849ZM29.7111 45.7825C29.6435 45.7447 29.5813 45.7068 29.5246 45.6663C29.4164 45.5879 29.3245 45.5068 29.2542 45.4202C29.1542 45.6149 29.0947 45.9501 29.4462 46.3773C29.7679 46.2232 29.7408 45.9177 29.7111 45.7852V45.7825ZM29.1245 46.4584C28.6622 45.8285 28.919 45.3364 29.0866 45.1229C29.0488 45.012 29.0406 44.8985 29.0596 44.7904C29.0785 44.6768 29.1272 44.5687 29.2029 44.4659C29.3542 44.2659 29.4462 44.0767 29.4408 43.909C29.4353 43.7549 29.3407 43.6036 29.1136 43.463C28.8784 43.3143 28.6946 43.1332 28.573 42.9142C28.6135 43.2656 28.7865 43.6603 29.0623 43.9874C29.2677 44.2308 29.019 44.5065 28.7595 44.6822C28.673 44.785 28.5621 44.8742 28.4513 44.9661C28.3378 45.0607 28.2188 45.1553 28.1485 45.2499C28.0755 45.3473 28.0377 45.5041 28.0458 45.6771C28.0512 45.7933 28.0809 45.915 28.135 46.0258C28.1891 46.134 28.2648 46.2313 28.3729 46.307L28.3837 46.3151C28.5351 46.4205 28.746 46.4827 29.0271 46.4692C29.0623 46.4665 29.0947 46.4665 29.1245 46.4611V46.4584ZM32.1631 45.8609C31.9333 45.7825 31.5683 45.6987 31.0114 45.6609C29.8328 45.577 29.8652 45.2905 29.9084 44.6768C29.9544 44.0658 30.6492 43.8171 30.0166 43.2251C29.5408 42.7817 29.092 42.3086 28.8271 42.2789C28.8271 42.3681 28.8352 42.4519 28.8541 42.5303C28.9163 42.7817 29.0893 42.9764 29.3326 43.1305C29.6841 43.3521 29.8355 43.6144 29.8436 43.8955V43.8982C29.8517 44.1659 29.7273 44.4362 29.5273 44.7011C29.4894 44.7498 29.4678 44.8012 29.4597 44.8552C29.4489 44.9255 29.4624 45.0039 29.5056 45.0796C29.5543 45.1715 29.6408 45.2635 29.7625 45.35C29.8219 45.3932 29.8922 45.4338 29.9679 45.4716L29.9706 45.4743L29.976 45.477L29.9814 45.4797C30.2166 45.596 30.5248 45.6933 30.9141 45.7555C31.3467 45.8231 31.6116 46.0123 31.7387 46.2286C31.8035 46.3394 31.8333 46.4584 31.8279 46.5746C31.8252 46.6287 31.8171 46.68 31.8035 46.7314C31.9739 46.6882 32.109 46.6179 32.2009 46.5287C32.2766 46.4584 32.3199 46.3746 32.3334 46.2908C32.3496 46.2042 32.3334 46.1123 32.2821 46.0204C32.2523 45.9663 32.2118 45.915 32.1604 45.8609H32.1631ZM56.1911 21.9978C55.9154 21.8654 55.6802 21.7329 55.572 21.5166C55.5693 21.5409 55.5693 21.568 55.5666 21.5923C55.5315 21.9275 55.764 21.9519 56.0019 21.9762C56.0667 21.9816 56.1289 21.9897 56.1911 21.9978ZM56.5534 24.9094C56.5993 25.0932 56.6128 25.3257 56.5669 25.6501C56.5263 25.9394 56.4831 26.1719 56.4479 26.3774C56.3155 27.1154 56.256 27.4425 56.7129 27.5425C56.8075 27.5642 56.8913 27.5858 56.967 27.6155C56.9318 27.602 56.8994 27.5858 56.8697 27.5696C56.4479 27.356 56.383 27.0748 56.867 26.2854C57.4049 25.4068 57.0967 25.1824 56.5561 24.9121L56.5534 24.9094ZM54.6988 21.1949C54.7204 21.2625 54.7313 21.3328 54.7313 21.4031C54.7285 21.522 54.8799 21.6383 55.0611 21.7761L55.1368 21.8329C55.1259 21.7545 55.1259 21.6626 55.1368 21.5572C55.1503 21.4355 55.1422 21.3409 55.1232 21.2679C54.9935 21.2355 54.8502 21.2138 54.7015 21.1949H54.6988ZM57.532 32.6682C57.4401 32.7304 57.3644 32.7737 57.2508 32.8358C57.1373 32.898 57.0373 33.0251 57.0048 33.1656C57.0238 33.1521 57.04 33.1386 57.0616 33.1278C57.3292 32.9575 57.5185 32.825 57.532 32.7061C57.532 32.6953 57.532 32.6817 57.532 32.6709V32.6682ZM52.8335 39.6917C52.9632 39.0321 52.3793 38.9104 52.9389 38.3508C53.4958 37.7885 53.5634 37.4398 53.658 36.918C53.5309 37.1586 53.366 37.4046 53.1579 37.6533C52.6631 38.2481 52.4036 38.7185 52.3739 39.0699C52.3495 39.3565 52.5036 39.5619 52.8335 39.6917ZM53.7121 37.8723C53.2119 38.705 53.412 39.7052 53.8121 39.9269C54.2149 40.1486 53.8553 39.9512 53.877 39.962C54.1933 39.7133 54.3852 39.4971 54.469 39.3051C54.5934 39.0267 54.4474 38.7834 54.1176 38.5319C53.8553 38.3319 53.7283 38.1102 53.7121 37.875V37.8723ZM54.5015 34.8472C54.4177 35.1473 54.4474 35.3581 54.6177 35.596C54.788 35.8339 54.9502 35.9448 54.7988 36.2773C54.9719 36.1394 55.1584 36.0015 55.353 35.8664C55.5234 35.7474 55.6531 35.6501 55.7531 35.569C55.6937 35.4771 55.6531 35.423 55.4341 35.3581C55.2179 35.2932 54.761 35.0878 54.5015 34.8499V34.8472ZM56.4858 37.629C56.6669 37.5425 56.8859 37.3505 56.7345 36.9369C56.429 37.0883 56.1749 37.2235 55.9694 37.3451C56.0235 37.4343 56.1127 37.51 56.2208 37.556C56.329 37.602 56.4128 37.6209 56.4858 37.629ZM54.1554 37.775C54.1473 37.9426 54.2176 38.0967 54.3933 38.2292C54.8799 38.5968 55.08 38.978 54.8691 39.4511C54.7907 39.6268 54.6529 39.8107 54.442 40.0134C54.5988 39.9242 54.7258 39.8134 54.8259 39.689C54.98 39.4971 55.0719 39.2808 55.107 39.078C55.1422 38.8807 55.1287 38.7077 55.0746 38.5914C55.0584 38.5536 55.0367 38.5265 55.0178 38.513C54.861 38.4076 54.7394 38.2859 54.7123 38.1345C54.4771 38.0399 54.269 37.9426 54.1554 37.7777V37.775ZM54.7313 37.9237C54.7529 37.8588 54.7907 37.7885 54.8448 37.7128C54.934 37.5884 55.0854 37.4479 55.3179 37.283C55.2422 37.0045 55.3071 36.672 55.4612 36.5044C55.6153 36.3368 55.6856 36.2232 55.745 36.0853C55.7018 36.1151 55.6585 36.1475 55.6126 36.18C55.0367 36.5801 54.5447 36.9964 54.3014 37.3776L54.2933 37.3911C54.2744 37.6858 54.4744 37.8128 54.7313 37.9237ZM55.4233 39.9837C55.6018 39.7944 55.791 39.4457 55.6342 38.8699C55.6126 38.7915 55.5801 38.7212 55.5423 38.659C55.5693 38.8023 55.5666 38.9699 55.5369 39.1402C55.4909 39.3997 55.3747 39.6782 55.1746 39.9242C55.1043 40.0107 55.0259 40.0918 54.934 40.1648C55.1314 40.1351 55.2963 40.0675 55.4233 39.9837ZM56.4209 23.0576C56.429 23.0089 56.4371 22.9548 56.4425 22.9008C56.4993 22.4223 56.2208 22.3952 55.9505 22.3682C55.8424 22.3574 55.7342 22.3466 55.6342 22.3276C55.7261 22.4601 55.7991 22.6115 55.8451 22.798C56.0776 22.8764 56.2668 22.9629 56.4209 23.0603V23.0576ZM57.4266 24.266C57.3968 24.2281 57.3698 24.1903 57.3509 24.147C57.2725 23.9875 57.286 23.8361 57.3049 23.5658C57.313 23.4414 57.3265 23.2901 57.3319 23.0954C57.3428 22.7061 57.0913 22.4682 56.7831 22.2898C56.8724 22.4277 56.9129 22.6358 56.8751 22.9467C56.8561 23.1062 56.8291 23.2468 56.7994 23.3739C57.0129 23.6172 57.0751 23.8686 57.0832 24.0605C57.0886 24.1822 57.2157 24.2417 57.4293 24.2714L57.4266 24.266ZM56.7237 23.6226C56.6534 23.828 56.575 23.9875 56.5128 24.1146C56.4182 24.3065 56.383 24.3795 56.6264 24.4985L56.6561 24.512C57.4887 24.9229 58.024 25.1933 57.2373 26.4747C56.9237 26.9856 56.9156 27.1424 57.0724 27.2235C57.1589 27.2668 57.2941 27.31 57.4563 27.3614C57.6212 27.4128 57.8104 27.4722 58.024 27.5588C58.589 27.7858 57.4239 28.1562 57.9754 28.7212C58.8567 29.2835 58.0456 29.5079 57.7564 30.0135C57.6374 30.2189 57.6509 30.419 57.9916 30.5812C58.3944 30.7758 57.5644 31.595 57.8104 31.9275C57.9754 32.1492 58.0916 32.3844 58.1457 32.6087C58.3917 33.6279 57.897 33.801 57.1319 33.7982C57.2265 33.9713 57.3698 34.1416 57.5509 34.2795C58.3484 34.0686 58.8837 33.7739 59.2351 33.4441C59.5352 33.1602 59.6974 32.8521 59.7731 32.5547C59.8461 32.2573 59.8326 31.968 59.7785 31.7301C59.7164 31.4544 59.6136 31.257 59.5379 31.1922C59.4947 31.1543 59.4433 31.1165 59.3919 31.0759C58.9378 30.7299 58.316 30.2595 59.2433 28.8969C59.5731 28.4103 59.3325 28.1508 58.9945 27.9589C58.8702 27.8886 58.7296 27.8237 58.5944 27.7615C58.0808 27.5263 57.632 27.3209 57.8699 26.8532C57.9456 26.7072 58.0429 26.5531 58.143 26.3963C58.4836 25.861 58.8513 25.2825 58.1916 24.8391L58.0429 24.7391C57.8915 24.6391 57.7726 24.558 57.6753 24.4877C57.1914 24.4633 56.8778 24.3876 56.867 24.0659C56.8615 23.9416 56.8291 23.7875 56.7291 23.6253L56.7237 23.6226ZM53.7337 20.2433C53.8689 20.3244 54.0473 20.4406 54.2149 20.5812C54.2014 20.5245 54.196 20.4569 54.1987 20.3785C54.2095 20.0811 54.1689 19.8324 54.0392 19.6431C53.9148 19.462 53.6958 19.3268 53.3498 19.2457L53.1552 19.2025C52.3685 19.0268 51.9738 18.9402 51.7223 17.9454C51.6521 17.6696 51.4844 17.4966 51.2952 17.3885C51.206 18.1536 51.1222 18.8186 51.871 19.043C52.6199 19.2647 53.8013 19.3133 53.8067 19.6891C53.8121 20.0649 53.7742 20.0541 53.7364 20.2433H53.7337ZM53.6418 20.7488C53.6661 20.7488 53.7121 20.7488 53.7769 20.7488C53.7337 20.7191 53.6931 20.6921 53.6526 20.665C53.6472 20.6948 53.6445 20.7218 53.6418 20.7488ZM54.4744 21.8248C54.3582 21.7058 54.2852 21.5734 54.2906 21.395C54.2933 21.3166 54.2609 21.2382 54.2095 21.1571C53.9716 21.1435 53.7715 21.1435 53.6796 21.1435C53.7094 21.2057 53.6661 21.2057 53.8175 21.2976C53.9689 21.3895 54.2176 21.622 54.4744 21.8248ZM55.8883 23.1792C55.8883 23.2414 55.8883 23.3063 55.8829 23.3739C55.8532 23.7604 55.9262 23.974 56.0289 24.1308C56.0532 24.0767 56.083 24.0173 56.1154 23.9524C56.1938 23.7929 56.2992 23.5793 56.3749 23.2711L56.3398 23.2468C56.2208 23.1684 56.0721 23.0927 55.8964 23.0251C55.8991 23.0765 55.8964 23.1278 55.891 23.1765L55.8883 23.1792ZM56.1505 25.3149C56.156 24.9094 56.0073 24.7472 55.8559 24.5823C55.7369 24.4498 55.6126 24.3146 55.5315 24.1119C55.472 24.4255 55.6045 24.8229 55.8234 24.9932C56.0424 25.1635 56.0721 25.2041 56.1505 25.3149ZM56.7318 29.2862C56.9616 28.8321 57.0832 28.5022 57.0616 28.2779C57.0454 28.1021 56.9021 27.9886 56.602 27.9237C55.8072 27.748 55.8261 27.356 55.9748 26.4963C55.7072 27.0019 55.6883 27.4641 56.0235 27.6966C56.0613 27.7156 56.0992 27.7372 56.1316 27.7588C56.156 27.7696 56.1803 27.7858 56.2046 27.8048C56.5669 28.0562 56.6696 28.3671 56.6264 28.7266C56.6696 28.9078 56.7047 29.097 56.7291 29.2889L56.7318 29.2862ZM55.691 32.0627C56.0749 32.2438 55.9748 32.8358 55.7261 33.1684C55.4774 33.5036 55.3017 33.7009 55.2395 34.0037C55.3179 34.147 55.4098 34.2605 55.5152 34.3335L55.7423 34.4849C55.9883 34.6498 56.183 34.7769 56.3019 34.9175C56.3398 34.9607 56.3695 35.0067 56.3939 35.0499C57.067 35.396 56.9967 35.6988 56.5534 35.8907C56.11 36.0826 55.8991 36.5206 55.8748 36.9288C56.0694 36.818 56.2911 36.7017 56.548 36.5747C57.2211 36.2421 57.5834 35.9556 57.7456 35.715C57.8104 35.6204 57.8375 35.5365 57.8402 35.4636C57.8429 35.396 57.824 35.3311 57.7915 35.277C57.7239 35.1635 57.5996 35.0716 57.4725 34.9986C57.4482 34.9851 57.4239 34.9715 57.3995 34.9553C56.8264 34.8715 56.3993 34.7309 56.1235 34.293C55.8478 33.855 56.156 33.0359 56.5777 32.6655C56.9994 32.2951 56.4614 31.9032 56.2587 31.7193C56.0559 31.5355 56.0181 31.5355 55.8505 31.4111C55.6423 31.6328 55.5261 31.841 55.6774 32.0437L55.691 32.0627ZM52.0278 15.1474C52.0332 15.1419 52.0332 15.1392 52.0305 15.1311C52.0197 15.0906 52.0224 15.1122 52.0278 15.1474ZM59.3784 33.8604C59.0567 34.12 58.6296 34.3552 58.0646 34.5417C58.1322 34.5606 58.1105 34.5633 58.2754 34.5876C58.4403 34.612 58.7377 34.6255 58.9026 34.5958C59.1622 34.4849 59.4703 34.2632 59.4758 33.8226C59.4433 33.8361 59.4109 33.8469 59.3784 33.8577V33.8604ZM47.5942 12.7224C48.0295 13.0738 48.7107 13.5415 49.1325 13.4199L49.1919 13.4036C48.9189 13.309 48.6675 13.1495 48.4945 12.8251C48.2782 12.425 48.0646 12.2114 47.824 12.1168C47.7294 12.079 47.624 12.06 47.5131 12.0519C47.532 12.0844 47.5483 12.079 47.5347 12.1493C47.5239 12.2223 47.5239 12.4899 47.5969 12.7224H47.5942ZM59.3649 30.5001C59.2081 29.9972 59.4947 29.6593 59.9624 29.1159C60.0786 28.9672 60.2192 28.8131 60.3408 28.6699C60.7896 28.1319 60.9951 27.7804 60.4598 27.4101C60.3517 27.3344 60.2543 27.2587 60.1678 27.1776C59.9218 27.2046 59.7137 27.2073 59.5433 27.1884C59.3027 27.1614 59.1243 27.0938 59.0054 26.9937C58.8783 26.8883 58.8215 26.7504 58.8215 26.5882C58.8215 26.4476 58.8702 26.2881 58.9594 26.1205C59.1513 25.761 59.3217 25.3555 59.3217 25.0365C59.3217 24.7553 59.1757 24.5444 58.7539 24.5201C58.6404 24.5147 58.5296 24.5093 58.4187 24.5066L58.443 24.5228C59.4163 25.177 58.9459 25.9151 58.5133 26.5963C58.4214 26.7396 58.3295 26.8829 58.2592 27.0208C58.197 27.1397 58.4701 27.2668 58.7837 27.4101C58.927 27.4749 59.0784 27.5452 59.2189 27.6236C59.7515 27.9237 60.13 28.3346 59.6082 29.1051C59.1027 29.8513 59.1676 30.246 59.3676 30.5001H59.3649ZM40.8546 8.33744C40.7275 8.22389 40.5329 8.1509 40.1896 8.17253C39.6408 8.21038 39.1406 8.92138 39.5245 9.18901L39.5272 9.18631C39.5299 9.18361 40.1814 8.59696 40.8573 8.33473L40.8546 8.33744ZM43.039 8.39961L43.02 8.39691C42.7767 8.37799 42.6334 8.42935 42.5307 8.50505C42.6632 8.48612 42.8038 8.45368 42.9416 8.42124L43.0363 8.39961H43.039ZM47.1914 10.4191C47.1914 10.3055 47.1995 10.192 47.2103 10.0838C47.2212 9.94867 47.232 9.82161 47.2211 9.72429C47.1995 9.54857 47.0373 9.44584 46.7399 9.39718C46.7697 9.44043 46.7967 9.48909 46.8237 9.54046C46.986 9.87298 47.0211 10.092 47.0454 10.2461C47.0562 10.319 47.0644 10.365 47.0752 10.3731L47.0833 10.3785C47.1049 10.392 47.1428 10.4056 47.1968 10.4191H47.1914ZM50.741 11.6113C50.7329 11.5951 50.7248 11.5761 50.7194 11.5572C50.6383 11.2734 50.5409 11.1544 50.2571 11.1301C50.4004 11.2409 50.495 11.368 50.6139 11.5275L50.6275 11.5464C50.6491 11.5761 50.6896 11.5978 50.741 11.6113ZM47.578 10.8868C47.7402 11.0327 48.0457 11.1111 48.6107 11.0571L48.6918 11.049C48.5242 11.0219 48.3377 10.9922 48.1268 10.9625L48.0808 10.957C47.8862 10.93 47.7213 10.9084 47.578 10.8868ZM43.4742 8.72132C43.4742 8.76187 43.4715 8.80513 43.4715 8.84568C43.4688 8.95111 43.4634 9.05655 43.4823 9.14846C43.5229 9.35122 43.7094 9.4945 44.4096 9.37555L44.634 9.3404C44.3312 9.30796 44.0825 9.19712 43.9419 8.88623C43.8689 8.72402 43.6932 8.69699 43.4742 8.72132ZM41.2871 8.59967C41.3682 8.74295 41.4575 8.8619 41.6764 8.84838C41.7413 8.84568 41.7954 8.83487 41.844 8.82135C41.7765 8.7862 41.7089 8.74025 41.6467 8.68077C41.5575 8.59426 41.4304 8.57534 41.2844 8.59696L41.2871 8.59967ZM43.2823 9.23497C43.2769 9.21605 43.2742 9.19983 43.2688 9.1809C43.2471 9.07006 43.2498 8.95111 43.2552 8.83757L43.2579 8.75647C43.1903 8.76998 43.1228 8.7862 43.0525 8.80242C42.7416 8.87542 42.4226 8.94841 42.136 8.91056C42.0333 8.98355 41.8954 9.03492 41.69 9.04573C41.3169 9.06466 41.1952 8.87542 41.0763 8.65644C40.6897 8.79702 40.2409 9.13224 40.0003 9.32689C40.176 9.33229 40.1355 9.38366 40.5707 9.22956C41.0087 9.07547 40.7924 8.72132 41.5413 9.19983C42.2901 9.67833 42.3739 9.50531 42.7875 9.35392C43.2012 9.20253 43.1876 9.21605 43.2796 9.23767L43.2823 9.23497ZM46.6075 11.1355C46.6507 11.1382 46.6994 11.1409 46.7481 11.1382C47.1103 11.1328 47.3996 11.1436 47.6321 11.1679C47.4482 11.0895 47.3374 10.9733 47.2725 10.8354C47.0427 10.7921 46.9076 10.7516 46.8129 10.6894L46.794 10.6759C46.6534 10.5705 46.6372 10.465 46.6102 10.2974C46.5913 10.1677 46.5615 9.98112 46.4209 9.69996C46.3344 9.52153 46.1911 9.42421 46.0181 9.37555C45.5964 9.39718 45.0719 9.46476 44.4474 9.5702C43.9608 9.6513 43.6716 9.61886 43.4985 9.51883L43.531 9.59182C43.7094 9.99193 43.3985 10.0514 44.3988 9.87568C45.399 9.70266 45.7856 9.78647 46.0046 10.0676C46.2074 10.1109 46.3804 10.1974 46.4318 10.3596C46.4723 10.4867 46.4453 10.611 46.4209 10.7327C46.4101 10.7786 46.402 10.8273 46.3966 10.8678C46.3858 10.9733 46.4155 11.0679 46.6075 11.1382V11.1355ZM49.6299 12.4277C49.5218 12.1709 49.392 12.1195 49.2622 12.1168C49.3244 12.2682 49.4298 12.3926 49.6299 12.4277ZM49.0378 12.1276C48.8621 12.1384 48.6891 12.1222 48.5215 11.9627C48.3728 11.8221 48.243 11.7086 48.0187 11.6383C47.7699 11.5599 47.3942 11.5221 46.7535 11.5302C46.5318 11.5329 46.3452 11.5085 46.1884 11.4626C46.2209 11.5194 46.2587 11.5707 46.3074 11.6086C46.4831 11.6924 46.6697 11.741 46.8481 11.7086C47.286 11.6302 47.6537 11.614 47.9916 11.7464C48.3296 11.8789 48.6161 12.152 48.8811 12.6467C49.0703 12.9981 49.4434 13.0711 49.7894 13.136C49.8813 13.1522 49.9732 13.1712 50.0624 13.1928C49.93 13.0711 49.8164 12.8927 49.711 12.6413C49.3055 12.6332 49.1298 12.4061 49.0378 12.1276ZM46.1019 10.292C46.1127 10.3596 46.1182 10.3974 46.1046 10.5137C46.0911 10.6299 46.0776 10.8084 46.0776 10.9408C46.11 10.9679 46.1452 10.9949 46.1857 11.0165C46.1722 10.9625 46.1722 10.903 46.1803 10.8435C46.1857 10.7921 46.1966 10.7408 46.2074 10.6894C46.229 10.5921 46.2506 10.4921 46.2236 10.411C46.2074 10.3596 46.1641 10.319 46.1019 10.292ZM48.9459 11.7302V11.7275L48.9351 11.6599C48.9081 11.5113 48.781 11.4653 48.5512 11.4518C48.6513 11.5221 48.7405 11.6005 48.8324 11.6897C48.8594 11.7167 48.9 11.7275 48.9459 11.7329V11.7302ZM54.342 14.5283V14.5175C54.3528 14.3634 54.3257 14.2147 54.269 14.0822C54.2122 13.9524 54.1257 13.8389 54.0148 13.7524C53.8878 13.6524 53.7256 13.5902 53.5444 13.5794L53.366 13.5686C53.0686 13.5523 52.9308 13.5442 52.8253 13.4712C52.7334 13.4063 52.6956 13.3117 52.6307 13.1387C52.601 13.0603 52.5631 12.963 52.5117 12.8467C52.3982 12.5899 52.1225 12.4629 51.7764 12.4196C51.2871 12.3574 50.668 12.452 50.1517 12.5791C50.2625 12.8224 50.3733 12.9468 50.5031 12.9927C50.668 13.0522 50.914 13.0008 51.2465 12.9143C52.0576 12.7089 52.1143 12.7765 52.6361 13.4361L52.8172 13.6632C53.0254 13.92 53.2336 13.9308 53.4255 13.9389C53.7688 13.9551 54.0851 13.9714 54.3474 14.5256L54.342 14.5283ZM49.7191 14.066C49.6272 13.8443 49.5245 13.7118 49.2595 13.7902C49.046 13.8524 48.8027 13.82 48.5512 13.7389C48.5945 13.7956 48.6296 13.8551 48.6594 13.9119C48.973 13.9038 49.3812 13.9281 49.7191 14.0687V14.066ZM51.8602 14.8229C51.7034 14.7094 51.5142 14.677 51.3331 14.6472C50.9194 14.5769 50.5382 14.512 50.4247 13.9768C50.3706 13.7281 50.1814 13.6334 49.9489 13.574C50.0489 13.7064 50.1165 13.8903 50.1949 14.1011C50.2679 14.2958 50.3517 14.5229 50.495 14.7364C50.6518 14.9716 50.8194 15.0608 51.0032 15.0744C51.1384 15.0365 51.3141 14.9824 51.5385 14.9149L51.5439 14.9122C51.6602 14.877 51.7656 14.85 51.8656 14.8256L51.8602 14.8229ZM56.5912 18.1076C56.5885 17.9778 56.5858 17.8751 56.5696 17.8102C56.5534 17.748 56.4155 17.7616 55.8991 17.8724L55.8451 17.8832C55.8721 17.913 55.8991 17.94 55.9316 17.967C56.01 18.0292 56.1127 18.0779 56.2452 18.0995C56.3425 18.1157 56.456 18.1211 56.5885 18.1076H56.5912ZM53.6796 16.5504L53.5715 16.5234C53.1281 16.4126 52.6199 16.2855 52.3468 15.8638C52.3631 16.0043 52.4063 16.1638 52.4955 16.3423C52.6848 16.7207 53.0578 16.6937 53.3552 16.6721C53.5201 16.6586 53.6688 16.6477 53.804 16.6856L53.8175 16.6883C53.9932 16.7397 54.1068 16.8424 54.123 17.0533C54.1933 16.8748 54.1689 16.7694 54.0878 16.7018C53.9256 16.6721 53.7959 16.6207 53.685 16.5504H53.6796ZM53.2579 16.0206C53.22 15.9367 53.1822 15.8475 53.147 15.7556L53.1254 15.7016C53.0011 15.3798 52.8821 15.0744 52.509 14.9933C52.5469 15.0933 52.5766 15.2068 52.601 15.3393C52.6658 15.7232 52.9443 15.907 53.2579 16.0206ZM55.4666 17.5642C55.445 17.4507 55.4477 17.356 55.4585 17.3101C55.4774 17.2236 55.5071 17.0424 55.4233 16.9046C55.3449 16.7694 55.1476 16.664 54.6988 16.7099C54.6664 16.7126 54.6339 16.7153 54.6042 16.718C54.6312 16.8613 54.5988 17.0424 54.4852 17.2776C54.3149 17.6345 54.2771 17.7724 54.3203 17.7913C54.4285 17.8346 54.7583 17.748 55.1557 17.6426C55.2557 17.6156 55.3584 17.5885 55.4639 17.5642H55.4666ZM51.963 16.1611C51.8494 15.7691 51.9116 15.4745 51.9711 15.2744C51.8764 15.2987 51.7872 15.3231 51.7034 15.3474C51.0816 15.5231 50.6004 15.6583 50.1192 14.9392C49.984 14.7364 49.8975 14.5364 49.8272 14.3525C49.5326 14.1444 49.0811 14.1011 48.727 14.1065C48.7378 14.1633 48.7729 14.1038 48.7215 14.266C48.6702 14.4282 49.2082 14.8635 49.4163 14.9392C49.6245 15.0149 49.5137 14.977 49.5677 15.0014C49.93 15.0608 50.2733 15.1798 50.4463 15.4123C50.5139 15.5015 50.5626 15.5718 50.6031 15.6286C50.6761 15.7313 50.7086 15.7772 50.7302 15.7881C50.741 15.7935 50.7707 15.7935 50.8275 15.7935C50.9113 15.7935 51.0411 15.7935 51.2465 15.8205C51.525 15.8556 51.7683 15.9773 51.9657 16.1638L51.963 16.1611ZM53.5661 18.3455C53.4796 18.1427 53.4823 17.8616 53.6093 17.4696C53.7067 17.1749 53.7148 17.0776 53.6796 17.0641H53.6769C53.6201 17.0479 53.512 17.056 53.3904 17.0668C53.0822 17.0884 52.7145 17.1181 52.4144 16.8965C52.4874 17.1127 52.5307 17.3533 52.5415 17.6048C52.5577 18.0103 52.6523 18.2103 52.7956 18.2995C52.9389 18.3888 53.147 18.3806 53.3768 18.3644L53.5553 18.3455H53.5661ZM56.0613 20.1811L56.083 20.1189L56.1451 19.9297C56.1911 19.7864 56.1992 19.6053 56.1722 19.4242C56.1478 19.2593 56.0911 19.097 56.0046 18.9673C55.9289 18.8537 55.8261 18.7672 55.7018 18.7348C55.6423 18.7186 55.5774 18.7159 55.5017 18.724L55.4395 18.7321C55.5261 18.8754 55.5639 19.0619 55.5315 19.3025C55.4477 19.9567 55.645 20.1379 56.0127 20.1784L56.0613 20.1838V20.1811ZM57.7564 20.7488C57.897 20.7975 58.0267 20.8651 58.1403 20.9462C58.2511 21.0246 58.3457 21.1192 58.416 21.2273C58.7702 20.5947 58.9864 20.1352 59.0027 19.854C59.0135 19.6512 58.8242 19.581 58.3592 19.6377C57.6536 19.7242 57.259 19.7242 57.0021 19.562C56.7264 19.3863 56.6615 19.0862 56.6101 18.5726C56.602 18.4753 56.5966 18.386 56.5912 18.3022C56.4425 18.3158 56.3128 18.3104 56.2019 18.2914C56.0289 18.2617 55.8937 18.1968 55.7883 18.1157C55.718 18.0616 55.6612 17.9995 55.6153 17.9346C55.4963 17.9643 55.3828 17.9941 55.2746 18.0211C54.7934 18.1481 54.3987 18.2509 54.1446 18.1509C54.0527 18.1157 53.9851 18.0616 53.9419 17.9886C53.9419 18.1373 53.9878 18.2347 54.0662 18.2968C54.2365 18.2887 54.415 18.2887 54.588 18.3076C54.7204 18.3212 54.8475 18.3455 54.9664 18.3833C55.0719 18.3725 55.1773 18.359 55.2773 18.3455L55.4423 18.3239C55.5774 18.3076 55.7018 18.3185 55.8153 18.3482C56.0559 18.4104 56.2398 18.5591 56.3695 18.7537C56.4885 18.9321 56.5642 19.1484 56.5966 19.3647C56.6318 19.5972 56.6155 19.8378 56.5561 20.0297L56.5101 20.1757L56.6345 20.1703C56.748 20.1649 56.867 20.1622 56.9886 20.1595C57.1697 20.1568 57.3103 20.1838 57.4212 20.2325C57.5428 20.2866 57.6239 20.3622 57.678 20.4569C57.7266 20.5434 57.7483 20.6407 57.7537 20.7434L57.7564 20.7488ZM58.3322 22.6683C58.1457 22.4709 58.024 22.2384 58.1132 21.8681C58.1403 21.7599 58.1376 21.6599 58.1105 21.5734C58.0727 21.449 57.9862 21.3409 57.8699 21.2571C57.8159 21.2192 57.7564 21.1841 57.6942 21.1571C57.6374 21.3463 57.5563 21.5166 57.5023 21.6193C57.4671 21.6869 57.4401 21.8113 57.4509 21.9546C57.4617 22.0924 57.5077 22.2465 57.6212 22.3736C57.7348 22.5034 57.9159 22.6088 58.1916 22.652C58.2349 22.6602 58.2835 22.6656 58.3322 22.6683ZM57.705 22.698C57.7429 22.817 57.7618 22.9494 57.7564 23.0981C57.751 23.2982 57.7375 23.4577 57.7293 23.5874C57.7131 23.7983 57.705 23.9145 57.7375 23.9821C57.7753 24.0578 57.8834 24.1416 58.1078 24.293C58.3079 24.2957 58.5269 24.3011 58.7621 24.3146C59.3352 24.3471 59.5352 24.6391 59.5352 25.0284C59.5352 25.3825 59.3541 25.8178 59.1513 26.1989C59.0756 26.3395 59.0351 26.4693 59.0351 26.5801C59.0351 26.6855 59.0702 26.7721 59.1486 26.8396C59.2351 26.9126 59.3703 26.9613 59.565 26.9829C59.6866 26.9964 59.8272 26.9991 59.9921 26.9856C59.8245 26.7856 59.7164 26.5639 59.6677 26.3179C59.5893 25.907 59.6839 25.4339 59.9624 24.8661L59.9678 24.8553C60.1138 24.558 60.0354 24.4606 59.9029 24.4039C59.8434 24.3795 59.765 24.3552 59.6866 24.3336C59.3081 24.22 58.9134 24.1011 58.954 23.5658C58.9783 23.2441 58.7675 23.0576 58.5647 22.8791L58.5512 22.8683C58.4052 22.871 58.2754 22.8602 58.1592 22.844C57.9781 22.8143 57.8294 22.7629 57.7077 22.6953L57.705 22.698ZM56.4479 20.3812C56.3993 20.5353 56.3641 20.6677 56.383 20.7299C56.3884 20.7434 56.456 20.738 56.648 20.6921C56.9264 20.6245 57.2265 20.6245 57.5023 20.6785L57.5347 20.6867C57.5266 20.638 57.5131 20.5947 57.4914 20.5542C57.459 20.4974 57.4076 20.4488 57.3346 20.4163C57.2535 20.3812 57.1454 20.3622 56.9994 20.365C56.8778 20.3677 56.7615 20.3704 56.648 20.3758C56.5804 20.3785 56.5128 20.3812 56.4479 20.3839V20.3812ZM50.2598 15.5123C50.3598 15.6421 50.4274 15.6259 50.4139 15.934C50.3977 16.2422 51.5061 15.7583 51.3736 16.7424L51.3439 16.9586C51.6791 17.0965 52.0143 17.356 52.1414 17.8508C52.3333 18.6077 52.6415 18.6753 53.2525 18.8132L53.4525 18.8591C53.9175 18.9673 54.2176 19.1619 54.4014 19.4296C54.5826 19.6918 54.642 20.0135 54.6285 20.3866C54.6231 20.5272 54.7448 20.5596 54.8745 20.5974C55.1097 20.6623 55.3639 20.7326 55.4882 20.9949C55.7099 21.0814 55.8829 21.1949 55.9559 21.3517C56.0181 21.4815 56.2641 21.595 56.5398 21.7194C56.7804 21.8302 57.04 21.9492 57.2562 22.1114C57.2454 22.0627 57.24 22.0167 57.2346 21.9708C57.2211 21.7924 57.2589 21.6302 57.3076 21.5382C57.359 21.4382 57.4401 21.2706 57.4914 21.0895C57.4644 21.0814 57.4347 21.076 57.4076 21.0705C57.1968 21.0273 56.967 21.03 56.7561 21.0787C56.2533 21.1976 56.0343 21.0841 55.9613 20.8353C55.9235 20.7056 55.9505 20.5515 55.9992 20.3785H55.9883C55.4828 20.3244 55.2125 20.0946 55.3152 19.2836C55.3449 19.0511 55.2909 18.8862 55.1854 18.7672C54.8232 18.8132 54.4177 18.8483 54.096 18.7591C53.931 18.7132 53.7878 18.6429 53.685 18.5347L53.5769 18.5456C53.5093 18.5537 53.4498 18.5591 53.3904 18.5645C53.12 18.5861 52.8686 18.5915 52.6658 18.4672C52.4658 18.3428 52.3333 18.0941 52.3144 17.6156C52.2982 17.1803 52.1765 16.7883 51.9711 16.4991C51.7818 16.2341 51.5223 16.0557 51.2087 16.0152C51.014 15.9908 50.8978 15.9908 50.8194 15.9908C50.7275 15.9908 50.6761 15.9908 50.6166 15.9584C50.5491 15.9232 50.5058 15.8665 50.4139 15.734C50.376 15.6799 50.3247 15.6096 50.2598 15.5231L50.2544 15.515L50.2598 15.5123Z" fill="url(#paint0_linear)"/>
<defs>
<linearGradient id="paint0_linear" x1="34.999" y1="13.2009" x2="45.1666" y2="43.1575" gradientUnits="userSpaceOnUse">
<stop stop-color="#401B0E"/>
<stop offset="1"/>
</linearGradient>
</defs>
</svg>
