<svg width="85" height="212" viewBox="0 0 85 212" fill="none" xmlns="http://www.w3.org/2000/svg">
<path d="M36.4536 35.8445C36.2573 36.0784 35.9295 36.2487 35.3838 36.1231C35.3246 36.1101 35.2683 36.0943 35.2134 36.0769C35.1383 36.113 35.0575 36.1405 34.9723 36.1549C34.8669 36.1737 34.7529 36.1737 34.633 36.152C34.4887 36.126 34.3717 36.0495 34.2836 35.9427C34.1768 35.9658 34.0642 35.9744 33.9458 35.9672C33.6787 35.9499 33.5141 35.8084 33.4116 35.6222C33.3957 35.6178 33.3784 35.6135 33.3625 35.6092C33.2051 35.5644 33.0824 35.4994 32.9843 35.4229C32.7345 35.4619 32.4515 35.4475 32.1425 35.3363C31.8841 35.2439 31.7123 35.1053 31.6055 34.9436C31.5578 34.87 31.5232 34.7934 31.5015 34.7126C31.2734 34.753 31.0352 34.7198 30.8085 34.5581C30.5992 34.4079 30.488 34.1928 30.4403 33.9532C30.3898 33.9416 30.3393 33.9286 30.2902 33.9127C29.9509 33.8045 29.6362 33.585 29.4182 33.2399C29.2233 32.931 29.1568 32.6321 29.1612 32.3621C29.0385 32.3463 28.9244 32.3058 28.8291 32.2423C28.6732 32.1384 28.5692 31.9767 28.5692 31.7716C28.5692 31.7471 28.5707 31.7225 28.5721 31.6994C28.3411 31.6778 28.0885 31.5594 27.8372 31.2634C27.7983 31.2172 27.7622 31.171 27.729 31.1248C27.6467 31.109 27.5658 31.083 27.4879 31.044C27.3926 30.9963 27.3002 30.9285 27.2179 30.839C27.1182 30.7321 27.0692 30.6007 27.0634 30.4636C26.9652 30.4188 26.8685 30.3582 26.7775 30.2802C26.574 30.107 26.5263 29.8947 26.5552 29.684C26.5436 29.671 26.5335 29.658 26.5234 29.6435C26.4238 29.5136 26.3632 29.388 26.3314 29.2682C26.1091 29.1498 25.8896 28.9693 25.7077 28.695C25.5561 28.4669 25.4998 28.2532 25.5113 28.0583C25.5171 27.9717 25.5359 27.8879 25.5662 27.8114C25.3583 27.7074 25.1879 27.54 25.1028 27.2729C25.0248 27.0274 25.0638 26.7878 25.1677 26.5669C25.1331 26.5279 25.1013 26.4875 25.071 26.4442C24.8631 26.1554 24.7418 25.7901 24.7736 25.383C24.8025 25.0177 24.9266 24.7391 25.0927 24.5254C25.0031 24.4402 24.9353 24.3377 24.8977 24.2309C24.8342 24.0547 24.8487 23.8627 24.9714 23.6981C25.0104 23.6447 25.0522 23.5985 25.0941 23.5581C24.8732 23.4469 24.6711 23.226 24.5642 22.8131C24.5484 22.7539 24.5368 22.6962 24.5267 22.6413C24.4603 22.5922 24.3982 22.533 24.3448 22.4637C24.2798 22.3785 24.2264 22.2789 24.1903 22.162C24.147 22.0219 24.16 21.8833 24.2134 21.7563C24.1441 21.6725 24.0835 21.5772 24.0358 21.4675C23.9275 21.2235 23.9766 21.0113 24.095 20.8337C24.0907 20.8178 24.0878 20.8005 24.0835 20.7832C24.0503 20.6229 24.0503 20.4843 24.0734 20.3616C23.9232 20.158 23.8048 19.901 23.7601 19.5747C23.7225 19.3033 23.7658 19.0867 23.8597 18.9164C23.903 18.8399 23.955 18.7735 24.017 18.7171C23.8756 18.5338 23.7947 18.3086 23.8337 18.0314C23.8698 17.7758 24.0098 17.578 24.199 17.425C24.186 17.3744 24.1744 17.3239 24.1643 17.2734C24.1022 16.9225 24.1528 16.5414 24.3578 16.1891C24.5411 15.8729 24.7765 15.6751 25.0176 15.5553C24.9743 15.4398 24.9584 15.3185 24.9699 15.2059C24.9844 15.0702 25.0392 14.946 25.1374 14.8508C25.0017 14.6414 24.9396 14.3483 25.0594 13.9368C25.0768 13.8791 25.0955 13.8228 25.1158 13.7694C25.084 13.6929 25.0609 13.6106 25.0508 13.5239C25.0378 13.4171 25.0436 13.3045 25.0724 13.1861C25.1071 13.0432 25.1894 12.9305 25.3006 12.8483C25.2832 12.7414 25.2803 12.6274 25.2948 12.509C25.3265 12.2433 25.4767 12.0859 25.6687 11.995C25.673 11.9791 25.6788 11.9618 25.6846 11.9459C25.738 11.7914 25.8088 11.6716 25.8911 11.5792C25.8651 11.328 25.8954 11.0464 26.0224 10.7432C26.1293 10.4906 26.2765 10.326 26.444 10.2278C26.5191 10.1845 26.5985 10.1542 26.6808 10.1369C26.6519 9.90731 26.6981 9.67198 26.8728 9.45397C27.0345 9.25329 27.2554 9.15367 27.4965 9.11902C27.5095 9.06848 27.5268 9.0194 27.5442 8.97031C27.6698 8.6368 27.9065 8.33505 28.2632 8.13581C28.5822 7.95823 28.884 7.9077 29.154 7.92647C29.1756 7.80519 29.2233 7.69258 29.2911 7.60162C29.4037 7.45147 29.5698 7.35763 29.7748 7.36773C29.9062 7.37495 30.0188 7.40238 30.1141 7.43992C30.039 7.1093 30.0996 6.69061 30.6482 6.34555C30.7002 6.31379 30.7508 6.28347 30.8013 6.25748C30.8287 6.17952 30.8663 6.103 30.9168 6.03081C30.9774 5.94274 31.0583 5.86189 31.1579 5.79259C31.2792 5.70885 31.4149 5.67998 31.552 5.69297C31.6112 5.60201 31.6834 5.51539 31.7729 5.43598C31.9736 5.2584 32.1902 5.24107 32.3938 5.30027C32.4082 5.2916 32.4226 5.28294 32.4385 5.27428C32.5814 5.19487 32.7143 5.15156 32.837 5.13712C32.9857 4.93355 33.195 4.74153 33.4925 4.60149C33.7408 4.4831 33.9602 4.45855 34.1494 4.49754C34.2345 4.51486 34.314 4.54518 34.3861 4.58705C34.5175 4.39647 34.7095 4.25065 34.9839 4.20445C35.238 4.16114 35.469 4.23477 35.6725 4.36904C35.7158 4.34017 35.7606 4.31418 35.8068 4.29108C36.123 4.12649 36.5013 4.05863 36.8997 4.1467C37.2563 4.22611 37.5162 4.38925 37.7039 4.58416C37.8006 4.50764 37.9118 4.45567 38.023 4.43257C38.1529 4.40658 38.2829 4.41813 38.3998 4.47877C38.5355 4.26076 38.7853 4.07596 39.2285 4.02398C39.2892 4.01676 39.3469 4.01243 39.4047 4.00954C39.4624 3.95035 39.5303 3.89693 39.6053 3.85362C39.6977 3.8002 39.8046 3.76122 39.9259 3.741C40.0702 3.71646 40.2059 3.74822 40.3258 3.81897C40.4182 3.76122 40.5207 3.71502 40.6362 3.68181C40.8932 3.60818 41.0967 3.6847 41.2556 3.82619C41.2729 3.82474 41.2888 3.8233 41.3061 3.82185C41.4692 3.8103 41.6064 3.82907 41.7248 3.8695C41.9457 3.74822 42.2171 3.66593 42.5463 3.66593C42.8206 3.66593 43.0299 3.73667 43.1844 3.85362C43.2537 3.90704 43.3129 3.96767 43.3606 4.03553C43.5612 3.92003 43.7966 3.8695 44.0651 3.94602C44.3134 4.01676 44.491 4.18135 44.6166 4.3907C44.6686 4.38348 44.7206 4.37915 44.7726 4.3777C45.1292 4.36471 45.4988 4.46433 45.8222 4.71554C46.1109 4.94077 46.2741 5.1992 46.3607 5.45475C46.4805 5.42732 46.6033 5.42732 46.7144 5.45475C46.8718 5.49373 47.0061 5.58613 47.0855 5.73484C47.3165 5.62223 47.624 5.59768 48.0282 5.78537C48.0831 5.81136 48.1351 5.83879 48.1842 5.86622C48.265 5.84601 48.3488 5.83735 48.4368 5.84023C48.5437 5.84456 48.6548 5.86766 48.7675 5.91387C48.9032 5.97017 49.0013 6.06835 49.0649 6.19107C49.1731 6.19107 49.2858 6.20551 49.4013 6.23727C49.6583 6.30946 49.7911 6.48271 49.8517 6.68628C49.8676 6.6935 49.882 6.70072 49.8979 6.70938C50.0423 6.7859 50.1491 6.87397 50.2285 6.9707C50.4798 6.98369 50.7541 7.05733 51.0342 7.23058C51.268 7.37495 51.4081 7.54532 51.4774 7.72723C51.5092 7.80808 51.5265 7.89182 51.5308 7.97556C51.7618 7.98278 51.9885 8.06507 52.1762 8.27153C52.3509 8.46211 52.4144 8.69599 52.4115 8.93999C52.4592 8.96165 52.5054 8.98475 52.5501 9.01073C52.8605 9.18687 53.1218 9.46696 53.2633 9.851C53.3904 10.1946 53.3933 10.5007 53.3312 10.7635C53.4481 10.8039 53.5521 10.8674 53.6315 10.9497C53.7629 11.084 53.8293 11.263 53.7874 11.4637C53.7744 11.5258 53.7571 11.5821 53.7369 11.6355C54.105 11.5402 54.6696 11.546 54.9814 12.3097C55.0045 12.366 55.0247 12.4209 55.042 12.4758C55.1142 12.5162 55.1835 12.5667 55.2456 12.6274C55.3221 12.7024 55.3871 12.7948 55.4391 12.906C55.5012 13.0388 55.5069 13.1789 55.4708 13.3117C55.5502 13.3853 55.6239 13.472 55.686 13.5745C55.826 13.8026 55.8058 14.0191 55.7119 14.2097C55.7177 14.2256 55.7235 14.2415 55.7293 14.2574C55.7841 14.4118 55.8029 14.549 55.7957 14.6732C55.9718 14.8536 56.1234 15.0933 56.2115 15.4109C56.2851 15.6751 56.2721 15.896 56.1999 16.0765C56.1682 16.1574 56.1234 16.231 56.0714 16.2945C56.236 16.4577 56.3472 16.6699 56.3458 16.95C56.3443 17.2084 56.2331 17.4235 56.0642 17.6011C56.0844 17.6488 56.1032 17.6978 56.1191 17.7469C56.2274 18.0862 56.2288 18.4703 56.0729 18.8485C55.9328 19.1864 55.7278 19.413 55.504 19.5646C55.5618 19.6729 55.595 19.7913 55.5979 19.9054C55.6008 20.0194 55.5748 20.1306 55.517 20.2273C55.7784 20.3645 56.0079 20.6373 56.0238 21.173C56.0252 21.2336 56.0252 21.2928 56.0224 21.3491C56.0772 21.4112 56.1234 21.4834 56.1595 21.5628C56.2043 21.6595 56.2331 21.7693 56.2433 21.8905C56.2548 22.0378 56.21 22.1692 56.1306 22.2818C56.1797 22.3785 56.2173 22.4854 56.2404 22.6023C56.2923 22.8636 56.1971 23.06 56.0426 23.2072C56.0426 23.2246 56.0426 23.2419 56.0426 23.2592C56.0397 23.4224 56.0079 23.5581 55.9588 23.6721C56.0599 23.9031 56.1176 24.1803 56.0902 24.5081C56.0671 24.7809 55.9776 24.9831 55.8462 25.1274C55.787 25.1924 55.7206 25.2444 55.6499 25.2877C55.748 25.497 55.7769 25.7367 55.6773 25.9966C55.5849 26.2377 55.4059 26.3994 55.1864 26.5077C55.1893 26.5597 55.1893 26.6116 55.1864 26.6636C55.1691 27.0202 55.0363 27.3797 54.7576 27.6786C54.5078 27.9457 54.2364 28.0872 53.9737 28.1507C53.9895 28.2734 53.9794 28.3947 53.9433 28.503C53.9101 28.5997 53.8567 28.6863 53.7816 28.7527C54.0256 29.0068 54.2061 29.4169 53.8683 30.0117C53.8379 30.0651 53.8076 30.1142 53.7759 30.1618C53.7889 30.2441 53.7917 30.3293 53.7816 30.4159C53.7686 30.5228 53.7369 30.6311 53.682 30.7393C53.6156 30.8707 53.5088 30.9602 53.3817 31.0151C53.3731 31.1234 53.35 31.2346 53.3081 31.3457C53.2157 31.5969 53.0323 31.7153 52.8244 31.7586C52.8158 31.7731 52.8071 31.7875 52.797 31.802C52.7089 31.9391 52.6122 32.0402 52.5111 32.1109C52.4779 32.3607 52.3826 32.6278 52.1877 32.8934C52.026 33.1143 51.8441 33.2414 51.6579 33.2962C51.5741 33.3208 51.4904 33.3323 51.4066 33.3295C51.3807 33.559 51.281 33.7785 51.0601 33.9488C50.8566 34.1076 50.6184 34.1524 50.3744 34.1307C50.3498 34.1755 50.3224 34.2203 50.2935 34.2636C50.0928 34.5581 49.7925 34.7978 49.3998 34.9075C49.0475 35.0071 48.7429 34.9855 48.4845 34.9032C48.4354 35.0158 48.3632 35.1154 48.2751 35.1876C48.1308 35.3074 47.9474 35.3608 47.7496 35.3016C47.5099 35.2309 47.354 35.1053 47.2544 34.9768C47.1938 34.9927 47.1331 35.0028 47.0725 35.01C46.7953 35.0403 46.5166 34.9782 46.2654 34.8555C45.916 34.6851 45.6172 34.395 45.4555 34.0687C45.353 33.8636 45.327 33.6615 45.353 33.4709C45.3169 33.4507 45.2822 33.4291 45.249 33.406C44.8982 33.162 44.6888 32.7534 44.8318 32.2004C44.9213 31.8554 45.0252 31.5912 45.1364 31.3876C44.7235 31.0339 44.7134 30.6989 44.8202 30.4419C44.7856 30.4058 44.7538 30.364 44.7235 30.3178C44.5242 29.9987 44.5805 29.6811 44.7278 29.4111C44.6816 29.3057 44.6484 29.1844 44.6325 29.0501C44.5777 28.5853 44.7033 28.2691 44.8693 28.0568C44.8491 28.0496 44.8289 28.041 44.8101 28.0323C44.647 27.9558 44.5199 27.8287 44.4607 27.6555C44.3467 27.3249 44.4982 27.1068 44.6874 26.9697C44.543 26.834 44.4492 26.6737 44.4362 26.5178C44.4174 26.2882 44.5112 26.1381 44.6441 26.0428C44.6195 25.832 44.7134 25.6833 44.8592 25.5793C44.8318 25.5303 44.8101 25.4783 44.7942 25.4205C44.722 25.1592 44.7697 24.9513 44.8664 24.7882C44.7336 24.6683 44.6513 24.4922 44.6701 24.2612C44.6831 24.1009 44.7321 23.9652 44.8014 23.8512C44.5632 23.7256 44.351 23.4844 44.2268 23.1105C44.1402 22.8492 44.1286 22.6413 44.1647 22.4738C44.0695 22.4435 43.9799 22.3987 43.9034 22.341C43.7345 22.2125 43.6204 22.0205 43.6147 21.7721C43.6132 21.6884 43.6176 21.6104 43.6291 21.5397C43.6017 21.5166 43.5771 21.4921 43.554 21.4661C43.4501 21.5397 43.3274 21.5888 43.1844 21.6003C43.0097 21.6148 42.8726 21.57 42.7628 21.4906C42.7354 21.4993 42.7065 21.5079 42.6777 21.5137C42.6372 21.5224 42.5968 21.5296 42.5564 21.5339C42.1507 21.5787 41.8576 21.3968 41.6627 21.1874C41.5948 21.1138 41.5385 21.0373 41.4938 20.9651C41.2657 21.0199 41.0116 20.9709 40.7791 20.7601C40.6564 20.6489 40.5784 20.5291 40.5322 20.4063C40.4759 20.3789 40.4211 20.3399 40.3691 20.2923C40.2161 20.1537 40.1208 20.0021 40.0673 19.8447C39.9056 19.7927 39.7728 19.696 39.7006 19.5502C39.6256 19.4 39.5967 19.2239 39.5952 19.0449C39.5274 18.9972 39.461 18.9366 39.3974 18.863C39.3686 18.8283 39.3426 18.7937 39.3195 18.759C39.2848 18.7171 39.256 18.6767 39.2314 18.6377L39.217 18.632C39.0235 18.5526 38.8791 18.4284 38.7708 18.2883C38.703 18.3172 38.6279 18.3403 38.5456 18.3576C38.124 18.4472 37.8194 18.258 37.6101 18.0126C37.561 18.0371 37.5047 18.0588 37.4411 18.0761C37.2823 18.1209 37.1351 18.1368 37.0022 18.131C36.9965 18.1613 36.9892 18.1916 36.9806 18.2205C36.9445 18.3461 36.8896 18.4616 36.8088 18.5511C36.6976 18.6767 36.5446 18.7532 36.3367 18.7503C36.1042 18.7475 35.9223 18.6767 35.7823 18.5742C35.7577 18.6551 35.7158 18.7171 35.6581 18.7633C35.6032 18.8081 35.5354 18.8355 35.4617 18.85C35.531 19.0694 35.5051 19.2947 35.2163 19.4217C35.0474 19.4953 34.8799 19.5271 34.7269 19.5329C34.7283 19.6772 34.6922 19.8317 34.6056 19.992C34.5883 20.0237 34.5681 20.057 34.5464 20.0902C34.4627 20.2158 34.3674 20.3024 34.2634 20.3573C34.2389 20.3703 34.2143 20.3804 34.1898 20.3905C34.1826 20.4165 34.1739 20.4424 34.1652 20.4684C34.1061 20.6244 34.0007 20.7586 33.8563 20.851C33.7206 20.9376 33.5488 20.9867 33.351 20.9824C33.2441 20.9795 33.1532 20.9694 33.0752 20.955C32.5194 21.3751 32.1079 22.8059 32.2609 23.9161C32.4414 25.2213 32.2263 26.0125 32.1137 26.795C32.0371 27.3249 32.1988 27.7883 32.4645 28.6257C32.7706 29.5973 33.2311 31.031 33.8592 32.9974C34.3385 34.4989 35.8429 35.472 36.2905 35.7593C36.3424 35.7896 36.3959 35.8171 36.4507 35.8445H36.4536ZM33.9848 20.2042C33.9804 20.1378 33.9703 20.0685 33.953 19.9963L33.9703 19.9703C33.9747 19.9848 33.9776 19.9992 33.9819 20.0136C33.9963 20.0786 34.0021 20.1421 33.9978 20.2042H33.9848ZM35.0171 19.26C35.0835 19.1459 35.0994 18.9871 35.056 18.8139C35.1023 18.8283 35.1499 18.8399 35.1961 18.8471L35.2307 18.8529C35.2899 19.0016 35.2899 19.1474 35.1297 19.2181C35.0921 19.234 35.0546 19.2484 35.0171 19.26ZM44.1027 21.5238C44.159 21.5411 44.2138 21.5556 44.2644 21.5671C44.2066 21.5556 44.1517 21.5411 44.1027 21.5238ZM45.1653 31.8828C45.1725 32.0777 45.2259 32.2871 45.3169 32.4387C45.4439 32.6552 45.5695 32.7621 45.6446 32.8111C45.5493 32.944 45.467 33.0869 45.415 33.2399L45.3833 33.2183C45.1046 33.0248 44.94 32.6971 45.0555 32.2524C45.0916 32.1153 45.1277 31.9925 45.1667 31.8828H45.1653ZM49.8459 34.4282C49.9109 34.3386 49.9643 34.2333 50.0048 34.1091C50.0105 34.1004 50.0163 34.0918 50.0221 34.0831C50.0279 34.0744 50.0336 34.0658 50.0394 34.0557C50.0741 34.0672 50.1087 34.0759 50.1448 34.0845C50.1347 34.1004 50.1246 34.1178 50.113 34.1336C50.0394 34.2419 49.9499 34.3415 49.8445 34.4282H49.8459ZM40.2305 4.74875C40.2521 4.75886 40.2724 4.76607 40.294 4.77041C40.3041 4.7141 40.3186 4.65779 40.3373 4.60293L40.3431 4.58416C40.2752 4.50475 40.1915 4.43257 40.089 4.37626C40.0789 4.39214 40.0702 4.40802 40.0616 4.4239C40.128 4.49898 40.1828 4.59715 40.2204 4.71987L40.229 4.75019L40.2305 4.74875ZM41.7277 4.70399L41.7334 4.71121C41.7912 4.60582 41.8807 4.49176 42.0164 4.40225C41.9529 4.28963 41.8634 4.18857 41.7392 4.12216C41.6757 4.16403 41.6179 4.20878 41.5645 4.25498C41.6569 4.44412 41.7089 4.62603 41.7291 4.70544L41.7277 4.70399ZM44.3799 5.48651C44.39 5.48507 44.4001 5.48362 44.4102 5.48218C44.4708 5.4201 44.556 5.35802 44.6758 5.30027C44.6628 5.18477 44.6426 5.06638 44.6138 4.95232C44.3163 5.01585 44.0926 5.18043 43.928 5.36668C43.9309 5.38256 43.9337 5.39844 43.9366 5.41432C44.0622 5.43165 44.2138 5.45475 44.3813 5.48651H44.3799ZM55.2572 18.4977C55.2196 18.6276 55.1604 18.7735 55.0998 18.9005C55.1085 18.8904 55.1157 18.8803 55.1229 18.8702C55.185 18.7879 55.2283 18.6955 55.2471 18.6002C55.2543 18.567 55.2572 18.5323 55.2572 18.4977ZM55.1561 24.986L55.159 24.9975L55.1619 24.9917L55.1561 24.986ZM53.7326 27.4317C53.7109 27.423 53.6892 27.4129 53.6661 27.4014C53.6488 27.4288 53.6329 27.4533 53.6185 27.4736C53.6575 27.462 53.695 27.4476 53.7326 27.4317ZM31.8206 6.52746C31.8408 6.52458 31.861 6.52025 31.8812 6.51447L31.9115 6.48704C31.9058 6.45672 31.9014 6.4264 31.8971 6.39608L31.8942 6.37587C31.7989 6.33256 31.6921 6.30512 31.5751 6.29646C31.5737 6.31523 31.5723 6.33256 31.5708 6.35133C31.656 6.38742 31.7397 6.44517 31.8206 6.52746ZM34.119 19.7408C34.1551 19.8144 34.1826 19.8909 34.1999 19.966C34.2114 20.0194 34.2187 20.0728 34.2216 20.1248C34.2706 20.0873 34.3197 20.0367 34.3645 19.9689C34.3818 19.9415 34.3991 19.914 34.4136 19.888C34.4829 19.7595 34.5103 19.6383 34.5074 19.5271C34.4266 19.5184 34.3544 19.504 34.2894 19.4896C34.2389 19.5574 34.1811 19.644 34.119 19.7408ZM35.3318 18.5699C35.3448 18.5915 35.3592 18.6146 35.3722 18.6392C35.3852 18.6392 35.3982 18.6377 35.4098 18.6363C35.4545 18.6305 35.4921 18.6161 35.5209 18.5944C35.5498 18.5713 35.57 18.5352 35.5787 18.4833C35.5845 18.45 35.5874 18.4183 35.5888 18.388C35.583 18.3807 35.5772 18.3735 35.5715 18.3663C35.4906 18.4428 35.4112 18.5136 35.3318 18.5713V18.5699ZM35.7924 18.157C35.8025 18.2032 35.8097 18.2523 35.8126 18.3042C35.9339 18.4298 36.1042 18.528 36.3439 18.5309C36.4782 18.5323 36.5763 18.4847 36.6456 18.4053C36.7019 18.3418 36.7424 18.258 36.7698 18.1627L36.777 18.1339C36.7467 18.1497 36.7164 18.1627 36.6846 18.1728C36.637 18.1873 36.5864 18.1945 36.5359 18.1931C36.354 18.1887 36.1403 18.1281 35.9584 18.0126C35.9007 18.0588 35.8458 18.1079 35.7924 18.157ZM37.8468 17.8336C37.8324 17.8509 37.8165 17.8697 37.7992 17.8855C37.9652 18.0703 38.1962 18.2046 38.5023 18.1396C38.5557 18.1281 38.6048 18.1137 38.651 18.0963C38.6452 18.0848 38.638 18.0718 38.6322 18.0602C38.381 18.0501 38.0807 17.9722 37.8454 17.8336H37.8468ZM41.091 20.4165C41.0058 20.4511 40.9177 20.4713 40.8268 20.4728C40.8556 20.5146 40.8917 20.5536 40.9336 20.5926C41.0852 20.7283 41.2455 20.7745 41.3927 20.7557C41.3783 20.7211 41.3696 20.6951 41.3667 20.6792V20.6763C41.2556 20.5998 41.1646 20.5117 41.091 20.4179V20.4165ZM44.9935 23.0975C44.9242 23.1018 44.852 23.0946 44.7812 23.0744C44.6455 23.0354 44.5112 22.9459 44.39 22.79C44.3986 22.8651 44.4174 22.9474 44.4463 23.0383C44.5502 23.3516 44.722 23.5509 44.9126 23.6519L44.9473 23.6692C45.0238 23.5898 45.1104 23.5249 45.1956 23.4729C45.1248 23.3473 45.0555 23.2217 44.992 23.099L44.9935 23.0975ZM45.6085 24.9499L45.5883 24.9542C45.48 24.9787 45.3659 24.9816 45.2562 24.9629C45.1913 24.9513 45.1263 24.9325 45.0657 24.9065C44.9978 25.0249 44.9675 25.1736 45.018 25.357C45.0296 25.3989 45.0454 25.4364 45.0657 25.4711C45.1927 25.4205 45.3327 25.3888 45.4641 25.3686C45.5334 25.2184 45.5825 25.0812 45.6099 24.9499H45.6085ZM44.953 26.5308C44.8592 26.4629 44.7827 26.3777 44.7293 26.2796C44.6845 26.3344 44.66 26.4066 44.6672 26.4976C44.6773 26.6131 44.7653 26.7416 44.8996 26.8484C44.9141 26.8426 44.927 26.8354 44.94 26.8311C44.9372 26.7286 44.9415 26.629 44.953 26.5308ZM45.1263 28.1131C44.9588 28.2821 44.8101 28.565 44.8635 29.0227C44.8707 29.0776 44.8794 29.1281 44.8924 29.1772C45.005 29.0328 45.1335 28.9115 45.2375 28.822C45.2071 28.5723 45.1667 28.3369 45.1263 28.1146V28.1131ZM45.2837 30.6585C45.1927 30.6469 45.1061 30.6224 45.0267 30.5849C44.9819 30.7596 45.018 30.9704 45.2634 31.1927C45.2851 31.1624 45.3068 31.1335 45.3284 31.1061C45.3082 30.9617 45.2938 30.8115 45.2851 30.6585H45.2837ZM45.8669 32.8862C45.7572 33.0263 45.6663 33.1807 45.6157 33.3439C45.7269 33.3872 45.8467 33.4161 45.968 33.4276C45.9954 33.4305 46.0243 33.432 46.0517 33.4334C46.0546 33.3728 46.0604 33.3136 46.0647 33.2573C46.0113 33.1663 45.942 33.0421 45.8669 32.8862ZM46.8704 34.3502C46.661 34.5639 46.5007 34.6548 46.3809 34.6577C46.5946 34.7602 46.8285 34.8108 47.058 34.7862C47.0869 34.7833 47.1158 34.779 47.1447 34.7732C47.1042 34.6765 47.0884 34.5942 47.084 34.5538C47.0147 34.5133 46.944 34.4484 46.8704 34.3502ZM47.3208 34.6043C47.3295 34.6346 47.341 34.6693 47.3583 34.7068C47.4839 34.6519 47.6038 34.5696 47.7164 34.4541C47.7279 34.4426 47.7395 34.431 47.7496 34.4181C47.7265 34.3935 47.7034 34.369 47.6832 34.3444C47.6052 34.4469 47.4782 34.5783 47.3208 34.6029V34.6043ZM50.8725 32.8877L50.8855 32.8978L50.91 32.9151C50.9894 32.8963 51.0688 32.866 51.1453 32.8227C51.1338 32.7794 51.1193 32.7346 51.1049 32.6928C51.0154 32.7736 50.936 32.8386 50.871 32.8862L50.8725 32.8877ZM51.2782 32.5253C51.2984 32.5758 51.3171 32.6292 51.333 32.6827C51.3518 32.6653 51.3691 32.648 51.3864 32.6278C51.5323 32.4704 51.6146 32.3246 51.655 32.1932C51.6304 32.186 51.6073 32.1773 51.5842 32.1687C51.476 32.3073 51.372 32.4242 51.2767 32.5253H51.2782ZM52.0607 31.454C52.1199 31.4742 52.1906 31.4959 52.2686 31.5132C52.244 31.4093 52.2137 31.3154 52.1819 31.2389C52.1459 31.3053 52.1054 31.3775 52.0607 31.454ZM52.3119 30.9862C52.3725 31.1075 52.4577 31.3067 52.5039 31.5522C52.5645 31.558 52.6252 31.558 52.6844 31.5536C52.7537 31.3977 52.7696 31.2432 52.7465 31.096C52.7421 31.07 52.7364 31.044 52.7306 31.018L52.706 31.0093C52.5891 30.9675 52.4779 30.9054 52.3855 30.8274C52.3653 30.8751 52.3408 30.9285 52.3133 30.9862H52.3119ZM53.298 29.1209C53.4987 29.297 53.5968 29.5223 53.6098 29.7345L53.6113 29.7547C53.6329 29.7836 53.6531 29.8153 53.6705 29.8471L53.6892 29.8818C53.9592 29.3923 53.7889 29.0617 53.5824 28.8639C53.5752 28.8653 53.568 28.8682 53.5607 28.8697C53.4987 28.8856 53.4395 28.8971 53.3832 28.9014C53.3586 28.9722 53.3297 29.0458 53.298 29.1194V29.1209ZM53.49 28.516C53.529 28.5391 53.5723 28.5679 53.617 28.5997C53.6748 28.5578 53.7152 28.4972 53.7383 28.4279C53.7629 28.3543 53.7715 28.2705 53.76 28.1839C53.6835 28.1911 53.6084 28.1926 53.5362 28.1897C53.5275 28.2878 53.5131 28.3976 53.49 28.5145V28.516ZM53.5449 27.9673C53.5925 27.9688 53.643 27.9688 53.6936 27.9659C53.6806 27.9413 53.6661 27.9168 53.6503 27.8923C53.6329 27.8677 53.6142 27.8432 53.5939 27.8201C53.5766 27.8244 53.5579 27.8273 53.5405 27.8302C53.5434 27.8706 53.5449 27.9168 53.5449 27.9688V27.9673ZM54.196 26.2998C54.2263 26.3503 54.2552 26.4095 54.2812 26.4788C54.3967 26.4759 54.5165 26.4658 54.6335 26.447C54.6003 26.1713 54.4761 25.9489 54.3245 25.7743C54.2985 25.9013 54.2566 26.0919 54.196 26.2983V26.2998ZM54.9424 24.5413C55.042 24.6062 55.1503 24.6857 55.2528 24.7752C55.2601 24.7506 55.2658 24.7261 55.2702 24.7001C55.312 24.4893 55.3062 24.3218 55.273 24.189C55.2037 24.2049 55.1344 24.2164 55.0724 24.2237C55.0319 24.3319 54.9872 24.4373 54.941 24.5413H54.9424ZM55.273 22.8607C55.3842 22.9358 55.5271 23.0484 55.6629 23.2015C55.7177 23.174 55.7697 23.1437 55.8173 23.1091C55.7957 22.9401 55.7278 22.8001 55.6325 22.686C55.6152 22.6658 55.5964 22.6456 55.5777 22.6269L55.5517 22.6326C55.4405 22.6557 55.3265 22.6615 55.2167 22.6485C55.2384 22.7077 55.2572 22.7784 55.2716 22.8607H55.273ZM55.0781 20.711C55.3409 20.7572 55.5416 20.8987 55.6629 21.0734L55.6744 21.0907C55.7076 21.1051 55.7408 21.121 55.7726 21.1383L55.8072 21.1585C55.7885 20.711 55.5791 20.4987 55.3539 20.3991C55.2485 20.4713 55.146 20.5161 55.0493 20.5435C55.0594 20.5998 55.068 20.6561 55.0767 20.711H55.0781ZM54.7865 19.6094C54.9107 19.5892 55.0449 19.5531 55.1792 19.4924C55.159 19.4737 55.1359 19.4549 55.1128 19.439C55.0882 19.4217 55.0623 19.4058 55.0348 19.3914C54.928 19.4592 54.8298 19.5112 54.7547 19.5487C54.7605 19.5704 54.7721 19.5906 54.7865 19.6108V19.6094ZM55.0478 17.7412C55.0998 17.7801 55.1547 17.8292 55.211 17.8942C55.3178 17.8509 55.4275 17.8004 55.53 17.7412C55.4001 17.4914 55.2037 17.3268 54.9987 17.2156C55.0132 17.3355 55.0348 17.5246 55.0493 17.7412H55.0478ZM55.2297 15.8672C55.3236 15.8903 55.4246 15.9206 55.5243 15.9581C55.5228 15.9336 55.5185 15.9076 55.5142 15.8816C55.4795 15.6694 55.416 15.5149 55.338 15.4008C55.2918 15.4326 55.2442 15.46 55.1994 15.4846C55.2167 15.6304 55.2268 15.7603 55.2297 15.8657V15.8672ZM54.9135 14.1693C55.0377 14.2025 55.1936 14.2545 55.3568 14.3411C55.3987 14.2963 55.4376 14.2487 55.4694 14.1996C55.39 14.0495 55.2774 13.9412 55.1474 13.869C55.1243 13.856 55.0998 13.8444 55.0752 13.8329L55.0536 13.8473C54.9857 13.8906 54.9135 13.9253 54.8385 13.9513C54.8645 14.0235 54.8904 14.0957 54.9135 14.1693ZM53.7946 12.2505C54.1123 12.1437 54.4053 12.2043 54.6118 12.3487L54.6277 12.3603C54.6638 12.3617 54.7013 12.3646 54.7374 12.3704L54.7764 12.3776C54.4371 11.5777 53.7427 11.8521 53.555 11.943L53.5391 11.9589C53.5983 12.021 53.6849 12.1163 53.7961 12.2505H53.7946ZM47.162 6.48126C47.3237 6.23727 47.5547 6.10733 47.7814 6.07557L47.8016 6.07268C47.829 6.04958 47.8579 6.02648 47.8882 6.00627L47.9214 5.98461C47.5951 5.83735 47.3482 5.86478 47.1663 5.96151C47.2096 6.16652 47.1836 6.33978 47.1331 6.47405L47.162 6.47982V6.48126ZM46.5628 6.32245C46.6235 6.19251 46.7332 6.00627 46.9036 5.86333C46.8574 5.76371 46.7707 5.70163 46.6682 5.67564C46.5931 5.65688 46.508 5.65688 46.4242 5.67564C46.4618 5.88066 46.4574 6.07557 46.4343 6.24449C46.4849 6.27481 46.5282 6.30079 46.5628 6.32245ZM46.2235 6.12754C46.2322 6.01493 46.2308 5.89077 46.212 5.76227C46.1875 5.77671 46.1644 5.79403 46.1427 5.81136C46.1196 5.83013 46.0965 5.85178 46.0748 5.87488C46.0979 5.94852 46.1153 6.01782 46.1297 6.0799C46.1629 6.09578 46.1947 6.1131 46.2235 6.12754ZM42.617 4.96531C42.6834 4.82527 42.7773 4.65202 42.8986 4.48598C42.874 4.48165 42.8495 4.47732 42.822 4.47443C42.6084 4.45133 42.4423 4.47155 42.3124 4.5163C42.3629 4.6679 42.3846 4.81516 42.3947 4.91623C42.4741 4.93211 42.5477 4.94799 42.617 4.96531ZM42.1666 4.8758C42.1565 4.80217 42.1406 4.7141 42.1117 4.6217C42.0222 4.68956 41.963 4.77041 41.924 4.84259C42.0092 4.8527 42.0901 4.86425 42.1666 4.8758ZM40.9163 4.78051C40.9625 4.67512 41.0823 4.44123 41.2945 4.21456C41.2628 4.16258 41.2281 4.11205 41.1877 4.06874C41.0217 4.10483 40.8874 4.18424 40.7835 4.28963C40.7647 4.3084 40.7474 4.32862 40.73 4.34883L40.7387 4.37482C40.7791 4.5062 40.7936 4.64624 40.7777 4.78051C40.8253 4.78051 40.8715 4.78051 40.9163 4.78196V4.78051ZM38.8618 5.09237C38.8647 4.79062 38.9961 4.55095 39.1751 4.4008L39.191 4.38781C39.2025 4.35316 39.2155 4.31851 39.23 4.2853L39.2473 4.24921C38.8936 4.29541 38.6987 4.44845 38.5933 4.62747C38.7405 4.78917 38.8069 4.95521 38.8315 5.10247L38.8604 5.09237H38.8618ZM38.6178 5.18477C38.6077 5.09092 38.5759 4.98408 38.5009 4.87436C38.4734 5.01151 38.4792 5.14145 38.4893 5.23385C38.5312 5.21797 38.5731 5.20209 38.6178 5.18477ZM38.2756 5.30893C38.254 5.17033 38.2367 4.92489 38.3146 4.68522C38.2424 4.64624 38.1601 4.63758 38.0778 4.65491C38.0013 4.67079 37.9248 4.70688 37.8569 4.75886C37.9984 4.95521 38.0836 5.166 38.1341 5.34647C38.1818 5.33636 38.228 5.32337 38.2756 5.30893ZM37.3603 5.28005C37.2838 5.20065 37.1957 5.13423 37.1004 5.08515C37.008 5.03895 36.9098 5.01151 36.8131 5.00863C36.7106 5.00718 36.6081 5.03317 36.5128 5.09814C36.7857 5.11691 37.0744 5.17177 37.3617 5.27861L37.3603 5.28005ZM32.5049 6.0669C32.5179 5.94418 32.5425 5.79548 32.5944 5.63666C32.5439 5.60346 32.4905 5.57314 32.4356 5.55004C32.3014 5.65399 32.2133 5.78393 32.1642 5.92397C32.1555 5.94852 32.1483 5.9745 32.1411 6.00049L32.1599 6.0207C32.2104 6.07557 32.2537 6.1362 32.2912 6.19973C32.362 6.15209 32.4327 6.10877 32.5049 6.0669ZM30.7984 7.52655C30.6439 7.23491 30.654 6.93894 30.7594 6.71371L30.7681 6.69494C30.7637 6.65885 30.7609 6.62275 30.7594 6.58521V6.54479C30.1805 6.91872 30.3061 7.39805 30.4447 7.66515L30.4533 7.67525C30.6165 7.55975 30.7291 7.52799 30.7998 7.5251L30.7984 7.52655ZM30.2714 7.81674L30.2599 7.79653C30.1631 7.6998 30.0087 7.60595 29.7704 7.59296C29.6477 7.58574 29.5467 7.64349 29.4788 7.73589C29.4326 7.79798 29.3994 7.87594 29.3835 7.96112C29.5669 8.00154 29.73 8.07085 29.8686 8.14737C29.9986 8.03908 30.1415 7.92214 30.2729 7.81674H30.2714ZM29.6824 8.30185C29.5914 8.25709 29.4889 8.21811 29.3792 8.18923C29.3835 8.21667 29.3893 8.24554 29.3979 8.27297C29.4066 8.30185 29.4167 8.33072 29.4297 8.3596C29.486 8.36537 29.5394 8.37259 29.5885 8.38125L29.6824 8.30185ZM28.4176 9.7124C28.3888 9.63733 28.37 9.54204 28.3642 9.42365C28.253 9.39189 28.1361 9.36446 28.0192 9.34569C27.9614 9.6431 28.0264 9.91453 28.1332 10.1398C28.152 10.1441 28.1693 10.1484 28.1881 10.1527C28.2184 10.1022 28.2502 10.0517 28.2819 10.0012C28.3527 9.88854 28.3931 9.79614 28.4176 9.71385V9.7124ZM27.8127 10.7779C27.6842 10.648 27.5023 10.5195 27.3016 10.4343L27.2727 10.4227C27.1991 10.4588 27.1298 10.5065 27.0648 10.5671C27.1442 10.7115 27.2424 10.8443 27.3348 10.954C27.5572 10.8385 27.7679 10.8544 27.7679 10.8544C27.7679 10.8544 27.7838 10.827 27.8127 10.7779ZM27.1529 11.0811C27.0735 10.9844 26.9912 10.8717 26.9161 10.7476C26.9031 10.7678 26.8887 10.7909 26.8771 10.8125C26.7732 11.0002 26.727 11.1605 26.7169 11.2977C26.8093 11.3049 26.8959 11.3208 26.9724 11.3381C26.9926 11.2789 27.0302 11.2125 27.098 11.1374C27.1168 11.1172 27.1356 11.0984 27.1543 11.0796L27.1529 11.0811ZM26.9522 11.5633C26.8887 11.5474 26.8151 11.533 26.7357 11.5243C26.7559 11.6023 26.7862 11.6687 26.8223 11.7236C26.8425 11.7062 26.8627 11.6932 26.8829 11.6846C26.9479 11.6586 26.9551 11.6182 26.9522 11.5633ZM26.5379 12.1163C26.4686 12.109 26.379 12.1018 26.2809 12.1033C26.3227 12.1885 26.3689 12.265 26.4137 12.3285C26.4296 12.3054 26.4469 12.2823 26.4628 12.2592C26.4628 12.2592 26.4917 12.1986 26.5379 12.1177V12.1163ZM26.2823 12.5263C26.2058 12.4238 26.1163 12.2866 26.0426 12.1192C25.982 12.1278 25.9228 12.1408 25.8665 12.1596C25.8362 12.3271 25.8564 12.4815 25.9127 12.6187C25.9228 12.6432 25.9344 12.6678 25.9459 12.6909L25.9719 12.6938C26.0369 12.701 26.1004 12.714 26.1625 12.7313C26.1971 12.6649 26.2361 12.597 26.2794 12.5248L26.2823 12.5263ZM25.5907 14.8811C25.5633 14.8868 25.5344 14.8955 25.5056 14.9056C25.5229 14.9201 25.5402 14.933 25.559 14.946C25.5691 14.9244 25.5792 14.9027 25.5907 14.8825V14.8811ZM25.4767 15.1612C25.4146 15.1236 25.3511 15.0789 25.2933 15.0254C25.2414 15.0818 25.211 15.1525 25.2038 15.2305C25.1952 15.3084 25.2067 15.3907 25.2356 15.473C25.2933 15.4542 25.3511 15.4384 25.4074 15.4268C25.4276 15.3315 25.4507 15.2435 25.4752 15.1612H25.4767ZM25.3626 15.6679L25.3496 15.6708L25.3597 15.6824L25.3626 15.6665V15.6679ZM25.2702 16.3465C25.2211 16.4071 25.1836 16.4721 25.1591 16.5428C25.1172 16.667 25.1201 16.807 25.1923 16.9543L25.198 16.9673C25.224 16.7522 25.2457 16.5443 25.2688 16.3465H25.2702ZM25.1547 17.321C25.1374 17.2994 25.1215 17.2763 25.1042 17.2503C24.9916 17.2792 24.8775 17.3153 24.7678 17.3586C24.8385 17.5535 24.9512 17.7094 25.0811 17.8321C25.1085 17.6589 25.1331 17.4871 25.1547 17.321ZM24.9309 18.6464C24.8559 18.6464 24.7808 18.6507 24.7057 18.6608L24.6754 18.6652C24.6306 18.7345 24.5946 18.811 24.57 18.8947C24.6711 18.9539 24.7779 19.0045 24.8804 19.0449C24.892 18.9149 24.9093 18.7821 24.9309 18.645V18.6464ZM24.8631 19.2773C24.7577 19.2369 24.6436 19.1878 24.5325 19.1272C24.531 19.1517 24.531 19.1777 24.5325 19.2037C24.5382 19.4174 24.5801 19.5805 24.6422 19.7032C24.7158 19.6671 24.7895 19.6383 24.8573 19.6152C24.8559 19.5054 24.8573 19.3928 24.8631 19.2773ZM24.8645 19.8491C24.8342 19.8606 24.8039 19.8736 24.7721 19.888C24.8039 19.9198 24.8371 19.9472 24.8718 19.9703C24.8689 19.9299 24.866 19.8895 24.8645 19.8491ZM24.9338 20.4858C24.8674 20.5146 24.775 20.5594 24.6768 20.6186C24.7909 20.6922 24.9006 20.7456 24.9901 20.7817C24.9699 20.6893 24.9512 20.5911 24.9338 20.4872V20.4858ZM25.0537 21.0402C24.9295 21.0012 24.7086 20.9146 24.4819 20.7528C24.4343 20.7918 24.3895 20.8337 24.3506 20.8785C24.4098 21.0387 24.5065 21.1614 24.6249 21.2495C24.6465 21.2654 24.6682 21.2798 24.6913 21.2943L24.7158 21.2827C24.8371 21.2278 24.9685 21.1946 25.097 21.1903C25.0825 21.1441 25.0681 21.0936 25.0537 21.0402ZM25.315 23.0239C25.1735 22.9863 25.0493 22.917 24.954 22.829L24.9396 22.8145C24.9035 22.8088 24.8674 22.8001 24.8328 22.79L24.7952 22.7784C24.9006 23.1654 25.1114 23.3357 25.328 23.4007C25.3554 23.3863 25.3814 23.3747 25.4088 23.3646C25.3727 23.2462 25.3424 23.1322 25.3164 23.0253L25.315 23.0239ZM25.4998 23.6591C25.4521 23.6577 25.4031 23.6519 25.354 23.6433C25.2876 23.688 25.2211 23.7501 25.1591 23.8338C25.0854 23.932 25.0782 24.049 25.1172 24.1558C25.1432 24.2294 25.1894 24.2987 25.2515 24.3594C25.3742 24.241 25.5085 24.15 25.6355 24.0793C25.6009 23.9724 25.5561 23.8353 25.4998 23.6577V23.6591ZM25.7034 24.2987C25.6153 24.3507 25.5258 24.4128 25.4406 24.4907C25.4666 24.5023 25.4926 24.5124 25.52 24.5211C25.5489 24.5297 25.5792 24.5369 25.6095 24.5427C25.6514 24.4936 25.6904 24.4474 25.7279 24.407C25.7236 24.3781 25.7149 24.3435 25.7019 24.2987H25.7034ZM25.6442 25.266C25.6427 25.2978 25.6442 25.3281 25.6485 25.3584C25.6543 25.409 25.6687 25.4581 25.6904 25.5057C25.6702 25.4234 25.6557 25.3426 25.6456 25.2646L25.6442 25.266ZM25.8795 26.0442C25.8001 26.1121 25.7221 26.1872 25.6514 26.2651C25.8376 26.447 26.0556 26.5438 26.2708 26.59C26.1076 26.4355 25.9791 26.2449 25.8809 26.0442H25.8795ZM26.7443 27.2252C26.561 27.2584 26.3458 27.3407 26.1596 27.4635L26.1336 27.4808C26.1235 27.5616 26.1249 27.6468 26.1394 27.7334C26.3689 27.7522 26.5985 27.7291 26.766 27.7017C26.7819 27.5501 26.7847 27.3869 26.7443 27.2252ZM26.7342 27.9312C26.5855 27.9514 26.4007 27.9659 26.2087 27.9572C26.2188 27.9803 26.2289 28.0034 26.2419 28.0265C26.3401 28.2171 26.4483 28.3441 26.5581 28.4279C26.6057 28.3672 26.6562 28.3124 26.7039 28.2662C26.6938 28.1796 26.714 28.0641 26.7357 27.9312H26.7342ZM26.7674 28.5232L26.7544 28.5391C26.7616 28.5419 26.7674 28.5434 26.7746 28.5463L26.7674 28.5246V28.5232ZM27.0533 29.1397C27.0302 29.17 27.0071 29.2032 26.9854 29.2378C27.0316 29.2436 27.0778 29.2479 27.1211 29.2494C27.098 29.2133 27.0764 29.1772 27.0547 29.1397H27.0533ZM27.2799 29.4732C27.163 29.4761 27.0215 29.4703 26.8685 29.4443C26.8425 29.4992 26.8208 29.5569 26.805 29.6132C26.9277 29.7316 27.0677 29.7995 27.2135 29.8283C27.2395 29.8341 27.2655 29.837 27.2929 29.8399L27.3103 29.8197C27.3579 29.7619 27.4128 29.7085 27.472 29.6623C27.4099 29.6161 27.3449 29.5511 27.2814 29.4732H27.2799ZM28.6515 31.1176C28.4913 31.158 28.3339 31.1508 28.1939 31.109L28.1751 31.1032C28.1404 31.1133 28.1043 31.1219 28.0682 31.1277L28.0293 31.1335C28.2328 31.3674 28.4364 31.4569 28.6212 31.4684C28.6515 31.3688 28.6934 31.2851 28.7425 31.2143C28.7122 31.1826 28.6818 31.1494 28.6515 31.1176ZM28.9056 31.3732C28.8926 31.3948 28.8811 31.4179 28.8695 31.4425C28.8984 31.4338 28.9258 31.4251 28.9518 31.4136C28.9359 31.4006 28.9201 31.3862 28.9056 31.3732ZM29.1496 31.571C29.0486 31.6258 28.9331 31.672 28.806 31.6922C28.8031 31.7182 28.8031 31.7457 28.8031 31.7731C28.8031 31.8958 28.8666 31.994 28.9619 32.0575C29.0269 32.1008 29.1063 32.1297 29.1915 32.1412C29.2189 31.9752 29.2709 31.8236 29.3301 31.6922C29.2695 31.6532 29.2088 31.6128 29.1511 31.571H29.1496ZM29.5236 31.8048C29.4802 31.903 29.4427 32.0127 29.4196 32.1326C29.447 32.1268 29.4745 32.1196 29.5019 32.1095C29.5308 32.0994 29.5582 32.0878 29.5871 32.0734C29.5914 31.9896 29.5986 31.9131 29.6073 31.8467C29.5799 31.8337 29.551 31.8193 29.5236 31.8048ZM29.9726 32.0416C29.9524 32.0662 29.9321 32.0893 29.9105 32.1109V32.1254C29.9076 32.2351 29.9235 32.3448 29.9567 32.4473C29.9884 32.5455 30.039 32.635 30.1054 32.7043C30.1949 32.7982 30.3205 32.8602 30.4808 32.8646C30.3653 32.6162 30.3234 32.2928 29.974 32.0416H29.9726ZM30.6901 33.1562C30.6713 33.2457 30.6569 33.3381 30.6468 33.4291C30.7695 33.4464 30.8865 33.4421 30.9962 33.4247C30.8792 33.3396 30.7753 33.2472 30.6901 33.1562ZM31.9303 33.7655C31.8682 33.8636 31.8134 33.9719 31.7715 34.086L31.7614 34.1149C31.8018 34.1856 31.8523 34.2535 31.9159 34.3141C32.0371 34.239 32.1483 34.1495 32.2436 34.0643C32.1642 33.9301 32.0718 33.8174 31.9289 33.764L31.9303 33.7655ZM32.3519 34.265C32.2768 34.3285 32.1945 34.3935 32.105 34.4541C32.1267 34.4671 32.1498 34.4787 32.1729 34.4902C32.3245 34.5653 32.4587 34.6043 32.5757 34.6173C32.4818 34.5133 32.4154 34.3877 32.3519 34.265ZM33.7437 35.1226C33.6773 35.1674 33.6036 35.2121 33.5228 35.2525C33.5358 35.3117 33.5516 35.3709 33.5733 35.4258C33.7422 35.4475 33.8953 35.4186 34.0295 35.3551C34.0541 35.3435 34.0772 35.3305 34.1003 35.3175L34.1017 35.2915C34.1046 35.2497 34.1089 35.2078 34.1162 35.1674C34.0122 35.1659 33.8837 35.15 33.7451 35.1241L33.7437 35.1226ZM35.5412 35.8286C35.5253 35.8488 35.5079 35.8676 35.4906 35.8849L35.4617 35.9138C35.801 35.9874 36.0335 35.9152 36.1923 35.7896C36.0162 35.8272 35.775 35.8589 35.5397 35.8286H35.5412ZM26.6692 11.9055L26.675 11.8968C26.6028 11.803 26.535 11.6788 26.5061 11.5229C26.3776 11.5373 26.2491 11.5806 26.1394 11.6687C26.1524 11.7438 26.1711 11.8145 26.1928 11.8809C26.4007 11.8708 26.5869 11.8925 26.6692 11.904V11.9055ZM28.0047 10.4574L28.0321 10.4112C28.0177 10.3881 28.0033 10.3635 27.9888 10.3376C27.9571 10.3332 27.9253 10.3289 27.8935 10.326C27.9268 10.3736 27.9629 10.417 28.0033 10.4574H28.0047ZM33.1113 5.78681C33.1546 5.77093 33.1965 5.7565 33.2384 5.74206C33.2571 5.66265 33.2889 5.58036 33.338 5.49806C33.2326 5.42443 33.1084 5.36957 32.9669 5.36379C32.9265 5.42876 32.8933 5.49373 32.8659 5.5587C32.964 5.63811 33.0478 5.7204 33.1113 5.78681ZM35.2423 5.24685C35.2827 5.23385 35.326 5.22086 35.3722 5.20931C35.4603 5.03028 35.5874 4.85992 35.7693 4.71699C35.7433 4.69244 35.7173 4.6679 35.6899 4.6448C35.6003 4.71699 35.5181 4.79784 35.4488 4.88735C35.3607 4.99852 35.2914 5.1198 35.2423 5.24685ZM39.422 4.92489C39.5115 4.90323 39.6068 4.88446 39.7093 4.86569C39.7194 4.74731 39.7483 4.61881 39.7974 4.49176C39.7786 4.48165 39.7584 4.47443 39.7396 4.46722C39.6732 4.447 39.6025 4.447 39.5317 4.46433C39.4826 4.47588 39.435 4.49609 39.3902 4.52352C39.3715 4.61159 39.3686 4.70111 39.383 4.78484C39.3917 4.83249 39.4047 4.87869 39.4249 4.92344L39.422 4.92489ZM47.7222 6.62708C47.7713 6.64441 47.8175 6.66173 47.8608 6.68195C47.9055 6.70216 47.9503 6.72382 47.9965 6.74692C48.0672 6.65307 48.1582 6.56067 48.265 6.47982C48.2535 6.46105 48.2419 6.44373 48.2275 6.42929C48.1813 6.37731 48.1206 6.33978 48.0528 6.31667C48.0051 6.30079 47.9532 6.29358 47.8998 6.29213C47.8377 6.3571 47.7886 6.43073 47.7554 6.51014C47.7395 6.54768 47.7279 6.58666 47.7207 6.62708H47.7222ZM48.1943 6.85375C48.2232 6.87108 48.252 6.88696 48.2795 6.90429C48.2852 6.88696 48.291 6.86819 48.2953 6.84798C48.3069 6.80467 48.3141 6.7628 48.3156 6.72526C48.2694 6.76713 48.2275 6.81044 48.1928 6.85375H48.1943ZM48.4744 7.02701L48.4989 7.04289C48.5509 6.97936 48.6101 6.92017 48.6722 6.86675L48.688 6.85375C48.6722 6.75125 48.639 6.64585 48.5827 6.54335C48.5668 6.55201 48.5494 6.56067 48.5336 6.56933C48.5509 6.66895 48.5466 6.78012 48.5133 6.90429C48.5018 6.9476 48.4888 6.98802 48.4744 7.02556V7.02701ZM49.82 7.62328C49.8402 7.63483 49.8589 7.64494 49.8777 7.65649C49.9701 7.61606 50.0798 7.5843 50.2054 7.58141C50.2112 7.45292 50.1881 7.31865 50.1174 7.19737C50.0409 7.19881 49.9687 7.20603 49.8994 7.21758C49.882 7.38362 49.8474 7.53088 49.82 7.62328ZM54.619 13.4301C54.6363 13.4619 54.6522 13.4951 54.6681 13.5283C54.6898 13.5283 54.7114 13.5283 54.7331 13.5297L54.7533 13.5312C54.8125 13.4445 54.8587 13.3449 54.8861 13.2308C54.8688 13.2265 54.85 13.2207 54.8327 13.2179C54.7836 13.2944 54.7129 13.3666 54.619 13.4315V13.4301ZM55.0998 14.8406C55.107 14.8753 55.1142 14.9085 55.1214 14.9417C55.2052 14.9749 55.2918 15.0226 55.3741 15.0947C55.4651 15.0038 55.5401 14.8912 55.5705 14.7526C55.5142 14.702 55.455 14.6587 55.3958 14.6197C55.2889 14.7136 55.1806 14.7901 55.0998 14.8406ZM55.1575 21.2639C55.1633 21.3607 55.1633 21.4603 55.1575 21.5628C55.2759 21.583 55.403 21.6234 55.5271 21.6841C55.5387 21.6667 55.5488 21.6465 55.556 21.6278C55.582 21.5628 55.5892 21.4921 55.5777 21.4213C55.5705 21.3722 55.5546 21.3217 55.53 21.274C55.4449 21.2466 55.3553 21.2365 55.2702 21.2437C55.2312 21.2466 55.1936 21.2538 55.1575 21.2639ZM53.2056 29.336C53.1911 29.3649 53.1767 29.3938 53.1623 29.4212C53.2056 29.4342 53.2474 29.4515 53.2879 29.4732L53.3196 29.489C53.2908 29.4356 53.2532 29.3837 53.207 29.336H53.2056ZM53.0525 29.6233C53.0006 29.7128 52.9515 29.7951 52.9038 29.8673C53.002 29.9496 53.0973 30.0564 53.1781 30.1821C53.1969 30.172 53.2157 30.1618 53.2316 30.1489C53.2864 30.107 53.3297 30.0507 53.3572 29.9843C53.3759 29.9381 53.3889 29.8875 53.3933 29.8341C53.3341 29.7663 53.2633 29.7114 53.1868 29.6724C53.1435 29.6508 53.0987 29.6334 53.0511 29.6233H53.0525ZM52.7768 30.0492C52.7522 30.0824 52.7291 30.1128 52.7075 30.1402C52.7378 30.1546 52.771 30.1676 52.8085 30.1821C52.8504 30.1965 52.8908 30.2066 52.9298 30.2124C52.8822 30.1488 52.8302 30.094 52.7768 30.0492ZM52.5559 30.3134L52.5487 30.3207C52.6266 30.39 52.6974 30.4679 52.7595 30.5545L52.771 30.5704C52.875 30.5632 52.9832 30.5372 53.0886 30.4896C53.0814 30.4723 53.0742 30.4564 53.067 30.439C52.9659 30.4477 52.8547 30.4347 52.7349 30.3928C52.6671 30.3697 52.6079 30.3423 52.5559 30.3134ZM51.9524 31.6518C51.9322 31.6836 51.9134 31.7153 51.8932 31.7471C51.9163 31.8294 51.9307 31.9232 51.925 32.0257C52.0535 32.0416 52.1877 32.0301 52.3148 31.9694C52.3191 31.8929 52.3177 31.8207 52.3119 31.75C52.1704 31.724 52.0419 31.685 51.9524 31.6532V31.6518ZM50.6227 33.162C50.6155 33.1735 50.6068 33.1865 50.5967 33.201C50.6068 33.3338 50.5996 33.4695 50.5765 33.6023C50.5577 33.7092 50.5288 33.8146 50.4899 33.9171C50.653 33.9171 50.8075 33.8766 50.9403 33.7727C51.1049 33.6442 51.1814 33.4767 51.2031 33.2977L51.1915 33.2948C51.0818 33.2645 50.975 33.2154 50.8739 33.1548C50.7902 33.1663 50.7064 33.1678 50.6227 33.1634V33.162ZM50.3729 33.4305C50.3383 33.4594 50.2978 33.4883 50.2545 33.5171C50.2372 33.6312 50.204 33.7481 50.1535 33.8636C50.1881 33.8738 50.2228 33.8824 50.2574 33.8896C50.3022 33.7842 50.3354 33.6731 50.3556 33.5619C50.3628 33.5186 50.3686 33.4738 50.3729 33.4291V33.4305ZM45.0093 26.2781C45.0252 26.2218 45.0425 26.167 45.0642 26.1135C45.0166 26.1236 44.9689 26.1366 44.9227 26.154C44.9444 26.1987 44.9732 26.2406 45.0093 26.2781ZM40.9755 20.2244C40.9033 20.0887 40.8556 19.9487 40.8253 19.8202C40.8037 19.8274 40.782 19.8346 40.7589 19.8404C40.7214 19.9689 40.7055 20.106 40.7329 20.2389C40.8123 20.2576 40.8946 20.2504 40.974 20.2244H40.9755ZM39.1087 18.3042C39.0943 18.1974 39.1145 18.1151 39.1318 18.053C39.0885 18.0992 39.0379 18.1425 38.9831 18.1815C39.0206 18.2263 39.0625 18.2681 39.1087 18.3057V18.3042ZM34.7254 35.3868C34.659 35.3262 34.6013 35.2713 34.545 35.2294C34.5811 35.3247 34.6359 35.4171 34.7095 35.5023C34.724 35.4908 34.7384 35.4792 34.7514 35.4662C34.7413 35.4417 34.7326 35.4142 34.7254 35.3868ZM33.2716 34.9956C33.1445 34.9522 33.0203 34.9032 32.9106 34.8483C32.9337 34.9667 32.9828 35.0836 33.0723 35.1818C33.146 35.1645 33.2167 35.1428 33.2817 35.1168C33.2773 35.075 33.2744 35.0345 33.273 34.9956H33.2716ZM31.3976 33.6442C31.3528 33.6269 31.308 33.6067 31.2647 33.585C31.0756 33.6485 30.8648 33.6788 30.6367 33.65C30.6367 33.6861 30.6381 33.7222 30.641 33.7568C30.7551 33.7698 30.8706 33.7698 30.9832 33.7568C31.129 33.7395 31.2691 33.7019 31.3976 33.6428V33.6442ZM28.3787 30.748C28.3166 30.6469 28.2632 30.5444 28.2227 30.4419C28.1347 30.4838 28.035 30.517 27.9296 30.5416C27.9325 30.5632 27.9354 30.5834 27.9426 30.6036C27.9628 30.67 28.0018 30.7292 28.0538 30.7783C28.0899 30.8115 28.1347 30.8419 28.1823 30.8635C28.2545 30.8346 28.3209 30.7957 28.3787 30.748ZM28.1303 30.2398C28.1144 30.2109 28.1 30.1835 28.0841 30.159C28.074 30.1691 28.0654 30.1806 28.0553 30.1936C28.0264 30.2283 28.0033 30.2629 27.9845 30.2961C28.0365 30.2802 28.0841 30.2615 28.1303 30.2398ZM27.9455 29.9799C27.9354 29.9698 27.9239 29.9597 27.9138 29.9496C27.8517 29.977 27.7882 30.0001 27.7232 30.0175L27.7044 30.0232C27.6755 30.1229 27.6625 30.2326 27.6712 30.3495C27.69 30.3481 27.7073 30.3481 27.7261 30.3466C27.7521 30.2499 27.8026 30.1488 27.8849 30.0507C27.9051 30.0247 27.9268 30.0016 27.947 29.9799H27.9455ZM26.9392 28.9202C26.9176 28.8769 26.8974 28.835 26.8786 28.7932C26.7992 28.7859 26.714 28.7657 26.6274 28.7296C26.5682 28.8451 26.5335 28.9751 26.5465 29.1151C26.6158 29.1454 26.6851 29.1685 26.753 29.1873C26.8151 29.0834 26.8815 28.991 26.9378 28.9202H26.9392ZM26.5869 26.8859C26.5754 26.8701 26.5638 26.8556 26.5508 26.8412C26.522 26.8397 26.4917 26.8383 26.4613 26.8369C26.4397 26.86 26.4195 26.8845 26.3993 26.909C26.4628 26.9076 26.5263 26.9004 26.5869 26.8874V26.8859ZM25.2341 22.5893C25.2139 22.4594 25.2024 22.3395 25.1952 22.2327C25.1201 22.2269 25.0407 22.2168 24.9627 22.1981C24.9555 22.2183 24.9497 22.2385 24.9468 22.2587C24.9353 22.3265 24.9454 22.3973 24.9714 22.4652C24.9901 22.5114 25.0161 22.5561 25.0493 22.598C25.1114 22.6023 25.1735 22.5994 25.2327 22.5893H25.2341ZM25.1879 22.0104C25.1879 21.993 25.1879 21.9757 25.1879 21.9584C25.162 21.9714 25.1389 21.9858 25.1186 22.0017C25.1417 22.0046 25.1648 22.0075 25.1879 22.0104ZM25.2038 21.7072C25.2053 21.6898 25.2082 21.6754 25.2096 21.661C25.1403 21.6581 25.071 21.6523 25.0017 21.6393L24.9815 21.635C24.9122 21.713 24.853 21.8053 24.8097 21.9151C24.827 21.9223 24.8443 21.9295 24.8602 21.9353C24.9266 21.8588 25.0147 21.7909 25.1316 21.7375C25.1562 21.7259 25.1793 21.7158 25.2024 21.7072H25.2038ZM24.9035 20.2519L24.9006 20.2331C24.7923 20.1883 24.6768 20.1176 24.5758 20.0021C24.4733 20.0801 24.3838 20.1826 24.3347 20.3154C24.3838 20.3731 24.4357 20.4251 24.4892 20.4713C24.6566 20.3601 24.8212 20.2851 24.9021 20.2519H24.9035ZM25.7914 14.6356C25.5835 14.5115 25.4521 14.3281 25.3944 14.139L25.3886 14.1188C25.3612 14.0957 25.3338 14.0697 25.3092 14.0422L25.2832 14.0119C25.1966 14.3296 25.2442 14.5577 25.3496 14.7208C25.5128 14.6486 25.6629 14.627 25.7914 14.6342V14.6356ZM25.9416 14.4638C25.9604 14.4248 25.9705 14.3844 25.9748 14.3411C25.9084 14.3425 25.842 14.3339 25.777 14.3194L25.7438 14.3108C25.7972 14.37 25.8622 14.422 25.9416 14.4638ZM25.9647 14.1173C25.9502 14.0148 25.9286 13.8993 25.9214 13.7665C25.8521 13.7203 25.7842 13.6669 25.7192 13.6048C25.7034 13.6178 25.6875 13.6337 25.6745 13.6495C25.6297 13.703 25.6023 13.7679 25.5907 13.8401C25.5835 13.8892 25.5821 13.9412 25.5907 13.9946C25.6644 14.0466 25.7452 14.0841 25.829 14.1029C25.8737 14.113 25.9199 14.1188 25.9661 14.1188L25.9647 14.1173ZM25.956 13.29C25.9661 13.241 25.9806 13.1904 25.9964 13.1384C25.9055 13.1702 25.8174 13.2179 25.7322 13.2828C25.7438 13.2973 25.7539 13.3117 25.7654 13.3261C25.8232 13.3074 25.8867 13.2944 25.956 13.29ZM47.4955 34.8902C47.572 34.9667 47.6789 35.0374 47.8305 35.0822C47.9488 35.1168 48.06 35.0851 48.1481 35.0114C48.2073 34.9624 48.2578 34.8945 48.2939 34.8151C48.151 34.7458 48.0254 34.6577 47.92 34.5682C47.9084 34.5812 47.8969 34.5942 47.8839 34.6057C47.7626 34.7313 47.6312 34.8238 47.4955 34.8902ZM40.0038 19.1893C39.949 19.1835 39.8927 19.1719 39.8363 19.1546C39.8465 19.2586 39.871 19.3582 39.9143 19.4462C39.9403 19.4968 39.9793 19.5386 40.0298 19.5719V19.5646C40.0226 19.439 40.037 19.3149 40.0659 19.1936C40.0457 19.1936 40.0255 19.1921 40.0053 19.1907L40.0038 19.1893ZM40.5192 19.8808C40.46 19.8866 40.4023 19.888 40.3445 19.8851C40.3821 19.9544 40.4312 20.0223 40.4947 20.0858C40.4961 20.0165 40.5048 19.9472 40.5178 19.8808H40.5192ZM45.5854 33.5633C45.5796 33.6947 45.6042 33.829 45.672 33.9647C45.7818 34.1856 45.9666 34.3892 46.1875 34.5379C46.0705 34.3617 46.0431 34.0095 46.0503 33.6529C46.0185 33.6514 45.9853 33.65 45.9536 33.6456C45.8265 33.6326 45.7023 33.6052 45.584 33.5633H45.5854ZM44.8881 25.9244C44.9949 25.8898 45.1032 25.8724 45.1913 25.8652C45.1263 25.832 45.0656 25.793 45.0137 25.7439C44.9487 25.7916 44.9039 25.8508 44.8881 25.9244ZM44.1763 22.2255C44.1691 22.0681 44.2066 21.9223 44.2672 21.7952C44.1055 21.7707 43.9698 21.7274 43.8572 21.6696C43.8558 21.6985 43.8558 21.7274 43.8558 21.7577C43.8601 21.931 43.9381 22.0638 44.0565 22.1533C44.0926 22.1807 44.133 22.2053 44.1763 22.224V22.2255ZM43.44 21.2784C43.3764 21.1672 43.3389 21.0488 43.3158 20.9348C43.3014 20.9752 43.2855 21.0142 43.2667 21.0517C43.2075 21.1701 43.1267 21.2726 43.0227 21.3535C43.0704 21.3679 43.1238 21.3737 43.183 21.3693C43.2797 21.3621 43.3649 21.3275 43.4385 21.2784H43.44ZM51.2016 33.0566L51.2002 33.0465L51.1886 33.0523L51.2016 33.0566ZM51.4038 32.9194C51.4153 32.9786 51.4225 33.0378 51.4269 33.0985C51.4889 33.0999 51.5496 33.0912 51.6117 33.0739C51.7532 33.032 51.8946 32.9324 52.0246 32.7534C52.156 32.5744 52.2354 32.3939 52.2772 32.2206C52.1459 32.2567 52.013 32.2582 51.886 32.2409C51.8369 32.404 51.7358 32.583 51.5597 32.7736C51.5308 32.8054 51.5019 32.8342 51.4716 32.8617C51.4485 32.8819 51.4254 32.9007 51.4038 32.9194ZM52.54 31.7875C52.5443 31.7817 52.5501 31.776 52.5559 31.7702L52.54 31.7687L52.5414 31.7875H52.54ZM53.1651 31.0627C53.1478 31.0642 53.1305 31.0656 53.1132 31.0656C53.0684 31.0671 53.0222 31.0656 52.9775 31.0613C52.9977 31.1912 52.9933 31.3255 52.9587 31.4612C53.0266 31.4165 53.08 31.3501 53.1146 31.2591C53.1392 31.1927 53.155 31.1263 53.1651 31.0613V31.0627ZM53.1753 30.8361C53.1724 30.7884 53.1651 30.7422 53.1565 30.696C53.0684 30.7336 52.9789 30.7581 52.8923 30.7726C52.8995 30.7899 52.9082 30.8086 52.9154 30.826C52.9789 30.839 53.0439 30.8433 53.106 30.8419C53.1305 30.8404 53.1536 30.839 53.1767 30.8346L53.1753 30.8361ZM53.3601 30.5863C53.3745 30.6412 53.3846 30.696 53.3918 30.7523C53.4351 30.7206 53.4727 30.6802 53.4972 30.6296C53.5333 30.5589 53.5564 30.4881 53.568 30.4174C53.5001 30.4838 53.4308 30.5387 53.3601 30.5863ZM53.5348 30.1229L53.5506 30.1026L53.5492 30.0969L53.5362 30.1229H53.5348ZM55.4622 25.3657L55.4506 25.3686C55.3409 25.4003 55.224 25.4133 55.107 25.4133C55.0348 25.4725 54.954 25.523 54.8717 25.5635C54.9597 25.6804 55.0334 25.8103 55.0868 25.9504C55.1258 26.05 55.1561 26.1554 55.1763 26.2637C55.3149 26.1799 55.4261 26.0644 55.4853 25.9071C55.5604 25.7122 55.5387 25.5288 55.4622 25.3642V25.3657ZM54.3563 26.6896V26.691C54.4097 26.9134 54.3692 27.1083 54.2711 27.2685C54.2537 27.2974 54.235 27.3249 54.2133 27.3508C54.4472 27.2036 54.632 26.9856 54.6508 26.6607C54.5526 26.6752 54.453 26.6838 54.3563 26.6896ZM54.863 26.3951C54.8977 26.385 54.9323 26.3749 54.9655 26.3633C54.9496 26.2493 54.9193 26.1381 54.8789 26.0327C54.824 25.8912 54.7475 25.7613 54.6537 25.6501L54.6407 25.6544C54.6104 25.6631 54.58 25.6717 54.5497 25.679C54.7028 25.8695 54.8255 26.1063 54.8645 26.3951H54.863ZM55.3409 25.1664L55.3351 25.1592L55.3279 25.1693L55.3409 25.1664ZM55.442 24.9441C55.4824 24.9888 55.5199 25.0365 55.5546 25.0856C55.608 25.0553 55.6571 25.0163 55.699 24.9686C55.7971 24.8589 55.8664 24.7001 55.8852 24.4792C55.904 24.2583 55.878 24.0634 55.8246 23.893C55.7307 23.9927 55.6181 24.0634 55.5012 24.1139C55.543 24.2785 55.5517 24.4835 55.4997 24.7391C55.4911 24.7809 55.4809 24.8214 55.4694 24.8604C55.4607 24.8892 55.4506 24.9181 55.4405 24.9455L55.442 24.9441ZM54.9814 26.5856C54.9468 26.5958 54.9121 26.6059 54.876 26.6145C54.876 26.6246 54.876 26.6362 54.8746 26.6463C54.85 27.3046 54.3129 27.6093 53.8394 27.7508L53.8452 27.758C53.8798 27.81 53.9101 27.8648 53.9332 27.9226C54.1613 27.8677 54.3967 27.7464 54.6118 27.5154C54.8515 27.2584 54.9655 26.948 54.98 26.642C54.9814 26.6232 54.9814 26.603 54.9814 26.5842V26.5856ZM55.8246 23.3863C55.826 23.3791 55.8274 23.3718 55.8289 23.3632L55.8145 23.3704L55.8246 23.3863ZM55.9819 22.442C55.9675 22.4522 55.9531 22.4623 55.9386 22.4724C55.9011 22.4969 55.8621 22.52 55.8202 22.5402C55.904 22.6413 55.9704 22.7582 56.0122 22.8925C56.0455 22.8189 56.0584 22.7351 56.0397 22.6384C56.0267 22.5691 56.0065 22.5041 55.9805 22.4435L55.9819 22.442ZM55.9011 21.9353C55.9415 21.9743 55.979 22.0161 56.0151 22.0609C56.0354 22.0104 56.0455 21.9569 56.0411 21.9006C56.0354 21.8212 56.018 21.749 55.992 21.6826C55.9689 21.7736 55.9386 21.8573 55.9025 21.9353H55.9011ZM55.8087 21.4487L55.8116 21.4242L55.8058 21.4199L55.8072 21.4487H55.8087ZM55.9314 16.4418L55.9213 16.449C55.8289 16.5169 55.7249 16.5703 55.6152 16.6121C55.5676 16.693 55.5113 16.7681 55.4463 16.8359C55.569 16.9139 55.6831 17.0106 55.7841 17.1232C55.8563 17.2041 55.9213 17.2922 55.9776 17.386C56.0787 17.2589 56.1407 17.1117 56.1422 16.9442C56.1436 16.7349 56.0599 16.5717 55.9314 16.4447V16.4418ZM55.3597 18.0689L55.3611 18.0703C55.4882 18.2609 55.5199 18.4573 55.4838 18.6406C55.4781 18.6738 55.4694 18.7056 55.4578 18.7374C55.6253 18.5179 55.7221 18.2494 55.6253 17.9375C55.5387 17.9852 55.4477 18.0285 55.3597 18.0675V18.0689ZM55.7307 17.6156C55.7596 17.5939 55.7885 17.5722 55.8159 17.5491C55.761 17.4481 55.6946 17.3542 55.6181 17.2705C55.517 17.1579 55.4001 17.0626 55.273 16.9904L55.2615 16.9991C55.2355 17.0178 55.211 17.0366 55.185 17.0539C55.3943 17.1795 55.5921 17.3571 55.7307 17.6156ZM55.748 16.2974L55.7394 16.2916L55.7365 16.3032L55.748 16.296V16.2974ZM55.7654 16.0534C55.8188 16.0808 55.8708 16.1126 55.9198 16.1458C55.9588 16.0982 55.9906 16.0447 56.0137 15.9855C56.0686 15.8484 56.0758 15.6751 56.0166 15.4629C55.9574 15.2492 55.865 15.076 55.7538 14.9345C55.7004 15.0601 55.6195 15.1669 55.5271 15.255C55.6239 15.395 55.7033 15.5842 55.7452 15.8412C55.7524 15.883 55.7567 15.9235 55.7596 15.9639C55.761 15.9942 55.7625 16.0245 55.7625 16.0534H55.7654ZM55.9083 17.7527C55.8794 17.7744 55.8505 17.796 55.8202 17.8162C55.8231 17.8263 55.8274 17.8364 55.8303 17.8466C56.0382 18.4717 55.6412 18.9453 55.2471 19.2441L55.2543 19.2499C55.3062 19.286 55.3525 19.3279 55.3929 19.3726C55.5878 19.2412 55.7654 19.0463 55.8866 18.7532C56.0209 18.4284 56.0195 18.0992 55.9256 17.8061C55.9198 17.7874 55.9141 17.77 55.9069 17.7513L55.9083 17.7527ZM55.5777 14.4609C55.5762 14.4537 55.5748 14.4465 55.5733 14.4378L55.5632 14.4494L55.5777 14.4595V14.4609ZM55.3943 13.521C55.3842 13.5355 55.3756 13.5499 55.3654 13.5644C55.3395 13.6005 55.3106 13.6351 55.2788 13.6683C55.3929 13.7333 55.4968 13.8199 55.582 13.9311C55.5878 13.8502 55.5705 13.7665 55.5185 13.6827C55.4809 13.6221 55.4405 13.5687 55.3958 13.521H55.3943ZM55.2225 13.3738C55.1835 13.3464 55.1431 13.3233 55.1012 13.303C55.0767 13.3954 55.0406 13.4806 54.9973 13.5586C55.0161 13.5629 55.0348 13.5687 55.0536 13.5745C55.1027 13.5326 55.1474 13.485 55.1835 13.4344C55.198 13.4157 55.211 13.3954 55.2225 13.3752V13.3738ZM55.1417 13.0749C55.1922 13.098 55.2427 13.124 55.2918 13.1529C55.2933 13.098 55.2846 13.0446 55.26 12.9941C55.2268 12.9219 55.185 12.8598 55.1373 12.8078C55.1474 12.9017 55.1474 12.9912 55.1417 13.0749ZM54.8847 12.6519L54.8789 12.6274L54.8731 12.6245L54.8847 12.6505V12.6519ZM51.5395 8.19357L51.5366 8.20512C51.5149 8.31773 51.4745 8.42745 51.4225 8.53285C51.4427 8.62525 51.4514 8.71765 51.45 8.81149C51.5929 8.78551 51.743 8.77829 51.8918 8.79273C51.9986 8.80283 52.1069 8.82305 52.2123 8.85481C52.1993 8.69311 52.1459 8.54151 52.0332 8.41735C51.8918 8.26287 51.7199 8.20078 51.538 8.19357H51.5395ZM52.2238 9.77737H52.2253C52.4476 9.83079 52.6035 9.95351 52.7031 10.1138C52.7205 10.1426 52.7364 10.1715 52.7508 10.2018C52.7248 9.92608 52.6122 9.66331 52.3321 9.50017C52.3003 9.59546 52.2642 9.68786 52.2253 9.77593L52.2238 9.77737ZM52.1892 9.19265C52.1964 9.15655 52.2022 9.1219 52.2065 9.08725C52.0968 9.05116 51.9842 9.02662 51.8715 9.01651C51.7199 9.00207 51.5698 9.01218 51.4283 9.04538L51.4254 9.05982C51.4196 9.09158 51.4139 9.1219 51.4066 9.15222C51.6449 9.10169 51.912 9.0988 52.1877 9.19409L52.1892 9.19265ZM51.307 8.21378L51.2969 8.21522L51.3027 8.22533L51.3056 8.21233L51.307 8.21378ZM51.154 8.0232C51.2117 8.00732 51.2709 7.99577 51.3301 7.98566C51.3272 7.92358 51.3143 7.86294 51.2911 7.80375C51.2377 7.66659 51.1266 7.53377 50.9389 7.41682C50.7497 7.29988 50.5649 7.23635 50.3874 7.20748C50.4336 7.33597 50.4465 7.4688 50.4379 7.59585C50.6039 7.63194 50.7902 7.71857 50.9952 7.87738C51.0284 7.90337 51.0601 7.9308 51.089 7.95823C51.1107 7.97844 51.1323 8.0001 51.1525 8.02176L51.154 8.0232ZM52.413 9.17388C52.4072 9.20997 52.4 9.24462 52.3927 9.28072C52.4028 9.28505 52.4115 9.29082 52.4216 9.2966C52.9991 9.61423 53.0294 10.2322 52.9428 10.7187L52.9515 10.7173C53.0136 10.71 53.0756 10.7086 53.1377 10.7129C53.1911 10.4848 53.1897 10.2206 53.08 9.92319C52.9587 9.59401 52.7335 9.35291 52.4664 9.20131C52.449 9.1912 52.4332 9.18254 52.4158 9.17388H52.413ZM49.9355 6.98081C49.9297 6.97647 49.9239 6.97214 49.9167 6.96781V6.98369L49.9355 6.98081ZM49.163 6.41485C49.1659 6.43218 49.1688 6.4495 49.1703 6.46683C49.176 6.51158 49.1775 6.55634 49.1775 6.60254C49.306 6.57222 49.4402 6.56645 49.5788 6.58955C49.5283 6.52602 49.459 6.47693 49.3637 6.45094C49.2959 6.43218 49.2295 6.42063 49.163 6.41485ZM48.9364 6.42351C48.8887 6.43073 48.844 6.44084 48.7992 6.45383C48.844 6.53901 48.8757 6.62564 48.8974 6.71227C48.9147 6.7036 48.932 6.6935 48.9494 6.68628C48.9566 6.62131 48.9566 6.55634 48.9494 6.4957C48.9465 6.4726 48.9421 6.44806 48.9378 6.4264L48.9364 6.42351ZM48.6736 6.25892C48.727 6.24016 48.7804 6.22572 48.8368 6.21417C48.8021 6.1723 48.7573 6.14054 48.7054 6.11888C48.6317 6.08856 48.5596 6.07124 48.4888 6.06546C48.5596 6.12754 48.6216 6.19251 48.6736 6.25892ZM48.1972 6.12177L48.177 6.10877L48.1712 6.11166L48.1986 6.12321L48.1972 6.12177ZM43.4891 4.229L43.4934 4.24055C43.5338 4.34738 43.5584 4.46144 43.5685 4.57839C43.6349 4.64624 43.6912 4.71987 43.7388 4.80073C43.8471 4.70255 43.9713 4.61881 44.1055 4.5524C44.2023 4.50475 44.3048 4.46577 44.4102 4.43545C44.3134 4.30407 44.1893 4.20445 44.0276 4.15825C43.8269 4.1005 43.6464 4.13948 43.4891 4.229ZM44.9039 5.21508H44.9054C45.122 5.1429 45.3198 5.166 45.4887 5.24973C45.519 5.26417 45.5479 5.2815 45.5753 5.30027C45.4078 5.07937 45.1754 4.91478 44.8491 4.92489C44.8722 5.02162 44.8895 5.1198 44.9039 5.21508ZM44.5661 4.7372C44.5531 4.70399 44.5401 4.66934 44.5257 4.63758C44.4131 4.66357 44.3048 4.70255 44.2037 4.75308C44.068 4.82094 43.9453 4.90756 43.8428 5.01007L43.8486 5.02306C43.8601 5.05194 43.8717 5.08226 43.8818 5.11258C44.0579 4.94366 44.2831 4.80073 44.5676 4.7372H44.5661ZM43.0704 4.28819C43.1122 4.24488 43.1556 4.20301 43.2003 4.16403C43.1642 4.11349 43.1223 4.06874 43.0718 4.02976C42.9534 3.94024 42.7903 3.88682 42.5679 3.88682C42.3456 3.88682 42.155 3.93014 41.989 3.99799C42.0958 4.08173 42.1767 4.18857 42.2373 4.30118C42.3976 4.24488 42.6011 4.21889 42.8596 4.24776C42.9014 4.2521 42.9419 4.25931 42.9823 4.26653C43.0126 4.27231 43.0415 4.27953 43.0689 4.28819H43.0704ZM44.7466 4.60293C44.7596 4.63614 44.7726 4.67079 44.7856 4.70544C44.7957 4.70399 44.8072 4.70399 44.8173 4.70399C45.4757 4.67079 45.8265 5.17899 46.0084 5.63811L46.0156 5.63233C46.0647 5.59335 46.1167 5.5587 46.1716 5.53127C46.0965 5.30893 45.955 5.08515 45.7067 4.89168C45.4295 4.67512 45.1104 4.58994 44.8043 4.60149C44.7856 4.60293 44.7653 4.60293 44.7466 4.60437V4.60293ZM41.4851 4.04419C41.4779 4.04419 41.4707 4.04275 41.462 4.04275L41.4707 4.05574L41.4851 4.04419ZM40.5308 3.97056C40.5423 3.98356 40.5539 3.99655 40.564 4.01099C40.5914 4.04564 40.6174 4.08318 40.642 4.1236C40.7344 4.0312 40.8455 3.95468 40.9755 3.90126C40.899 3.87383 40.8138 3.8695 40.7199 3.89549C40.6521 3.9157 40.5885 3.94024 40.5308 3.97056ZM40.3431 4.09617C40.307 4.12649 40.2724 4.15969 40.242 4.19434C40.3243 4.24343 40.398 4.29974 40.4615 4.36182C40.4716 4.3445 40.4817 4.32862 40.4918 4.31129C40.4644 4.2521 40.4297 4.19723 40.3908 4.14814C40.3763 4.12938 40.3604 4.11205 40.3431 4.09473V4.09617ZM40.0327 4.09473C40.0688 4.05141 40.1063 4.00954 40.1482 3.97056C40.0962 3.95468 40.0414 3.94891 39.9865 3.95901C39.9085 3.97201 39.8378 3.99511 39.7743 4.02831C39.8667 4.04419 39.9533 4.06729 40.0341 4.09617L40.0327 4.09473ZM39.5563 4.23044L39.5317 4.229L39.5274 4.23477L39.5563 4.23044ZM34.5883 4.71554L34.5969 4.72421C34.6792 4.80361 34.75 4.89601 34.8092 4.99852C34.8972 5.03173 34.981 5.07504 35.0575 5.12557C35.1138 4.9913 35.1889 4.86136 35.2813 4.74442C35.3477 4.65924 35.4228 4.57983 35.5065 4.50909C35.3636 4.43112 35.2076 4.39503 35.0416 4.42246C34.8352 4.45711 34.6893 4.56828 34.5854 4.71699L34.5883 4.71554ZM36.289 4.99996L36.2905 4.99852C36.4551 4.83971 36.6442 4.77618 36.8319 4.78051C36.8651 4.78051 36.8983 4.7834 36.9315 4.78917C36.6861 4.66068 36.4045 4.61304 36.1158 4.76174C36.1779 4.83971 36.237 4.92056 36.2905 5.00141L36.289 4.99996ZM34.4785 4.922L34.4757 4.93066H34.4887L34.48 4.92056L34.4785 4.922ZM34.236 4.94799C34.2548 4.89024 34.2764 4.83393 34.301 4.77907C34.2475 4.74875 34.1898 4.72565 34.1277 4.7141C33.9833 4.68378 33.8115 4.70544 33.6123 4.80073C33.4116 4.89601 33.2571 5.01729 33.1373 5.15012C33.2701 5.18043 33.3885 5.24252 33.491 5.31759C33.6123 5.19776 33.7855 5.08659 34.031 5.00285C34.0714 4.98841 34.1104 4.97686 34.1494 4.9682C34.1782 4.96098 34.2086 4.95521 34.2374 4.94943L34.236 4.94799ZM35.8848 4.51486C35.9122 4.5394 35.9382 4.56395 35.9627 4.58994C35.9714 4.58416 35.9815 4.57983 35.9916 4.57405C36.572 4.2622 37.1076 4.57117 37.4686 4.90756L37.4729 4.8989C37.5003 4.84259 37.5335 4.78918 37.5696 4.74009C37.4079 4.57117 37.1842 4.42968 36.8752 4.36038C36.533 4.28386 36.2082 4.34305 35.9353 4.48454C35.918 4.4932 35.9007 4.50331 35.8848 4.51197V4.51486ZM31.8047 5.74928C31.8206 5.7565 31.8365 5.76371 31.8523 5.77093C31.8928 5.79115 31.9318 5.8128 31.9707 5.83879C32.0155 5.71463 32.0819 5.59913 32.1772 5.49517C32.0963 5.50384 32.0169 5.5356 31.9433 5.60057C31.8899 5.64677 31.8451 5.6973 31.8047 5.74928ZM31.6892 5.94418C31.669 5.9875 31.6531 6.03225 31.6401 6.07557C31.7354 6.08423 31.8249 6.10444 31.9101 6.13332C31.9115 6.11455 31.913 6.09434 31.9159 6.07557C31.8653 6.0337 31.8119 5.99905 31.7556 5.97162C31.734 5.96151 31.7123 5.9514 31.6906 5.94418H31.6892ZM31.4077 6.07557C31.4207 6.0207 31.438 5.96728 31.4582 5.91387C31.4048 5.92108 31.3528 5.93985 31.3066 5.97306C31.2416 6.01782 31.1882 6.06979 31.1435 6.1261C31.2344 6.10011 31.3225 6.08423 31.4062 6.07557H31.4077ZM26.9233 10.1138H26.9349C27.0489 10.1181 27.1644 10.1398 27.2756 10.1759C27.3637 10.1412 27.4546 10.1181 27.5456 10.1051C27.498 9.96795 27.4676 9.82068 27.459 9.67053C27.4518 9.56225 27.4561 9.45397 27.4705 9.34424C27.3117 9.38178 27.1717 9.4583 27.0663 9.58824C26.9349 9.75138 26.9002 9.93185 26.9219 10.1109L26.9233 10.1138ZM28.3815 9.19265V9.1912C28.3989 8.96309 28.497 8.78984 28.64 8.66712C28.666 8.64546 28.6919 8.62525 28.7194 8.60648C28.4508 8.67434 28.2097 8.82593 28.0913 9.12912C28.1895 9.145 28.2863 9.16666 28.3801 9.1912L28.3815 9.19265ZM27.8098 9.31681C27.7737 9.31537 27.7376 9.31537 27.7015 9.31537C27.6828 9.42942 27.6755 9.54348 27.6828 9.6561C27.6914 9.80769 27.7246 9.95495 27.7795 10.0892H27.7939C27.8257 10.0892 27.8575 10.0921 27.8892 10.0936C27.8026 9.86544 27.7578 9.60268 27.8098 9.31537V9.31681ZM26.9782 10.339L26.9811 10.3477L26.9912 10.3404L26.9782 10.339ZM26.8136 10.5195C26.7891 10.4646 26.7674 10.4083 26.7501 10.3505C26.6895 10.3635 26.6317 10.3852 26.5768 10.417C26.4483 10.4906 26.3357 10.6205 26.2491 10.8255C26.1625 11.0306 26.1278 11.224 26.1264 11.4016C26.2462 11.3352 26.3747 11.3034 26.5018 11.2919C26.5119 11.1215 26.5682 10.9237 26.6938 10.697C26.714 10.661 26.7357 10.6249 26.7588 10.5917C26.7761 10.5671 26.7934 10.5426 26.8122 10.5195H26.8136ZM27.7564 9.0988C27.7925 9.0988 27.8286 9.10025 27.8647 9.10313C27.8676 9.09303 27.8719 9.08292 27.8748 9.07282C28.1 8.45344 28.7049 8.32783 29.2002 8.33938L29.1973 8.33072C29.1799 8.27008 29.1684 8.20945 29.1641 8.14737C28.9302 8.13004 28.6688 8.17335 28.3931 8.32639C28.087 8.49675 27.8834 8.75808 27.7752 9.04538C27.7679 9.06271 27.7622 9.08148 27.7564 9.10025V9.0988ZM27.6409 10.3188C27.6279 10.3202 27.6149 10.3217 27.6019 10.3231C27.6236 10.3361 27.6438 10.3477 27.664 10.3607C27.6582 10.3505 27.6524 10.3404 27.6467 10.3303L27.6394 10.3173L27.6409 10.3188ZM25.9719 11.8853C25.969 11.8925 25.9647 11.8983 25.9618 11.9055L25.9777 11.9026L25.9719 11.8853ZM25.533 12.7356C25.5489 12.7299 25.5662 12.7241 25.5835 12.7198C25.6268 12.7082 25.6716 12.6981 25.7164 12.6923C25.6673 12.5711 25.6398 12.4382 25.6413 12.2982C25.5864 12.3574 25.5489 12.4339 25.5373 12.5321C25.5287 12.6014 25.5287 12.6707 25.533 12.7356ZM25.5763 12.958C25.5907 13.0027 25.6081 13.0475 25.6268 13.0894C25.7034 13.0331 25.7842 12.9869 25.8665 12.9536C25.855 12.9378 25.8434 12.9219 25.8319 12.906C25.7669 12.9089 25.7034 12.919 25.6427 12.9349C25.6196 12.9421 25.5965 12.9493 25.5749 12.958H25.5763ZM25.4536 13.2438C25.4276 13.1948 25.4045 13.1428 25.3843 13.0894C25.3496 13.1312 25.3237 13.1789 25.3107 13.2337C25.2919 13.3103 25.2861 13.3853 25.2904 13.4561C25.341 13.3767 25.3958 13.3059 25.4536 13.2438ZM25.393 13.7362L25.3828 13.7593L25.3857 13.765L25.393 13.7376V13.7362ZM24.2192 18.5858L24.2293 18.58C24.3289 18.5251 24.4401 18.4861 24.5541 18.4602C24.6119 18.3865 24.6783 18.3201 24.7505 18.2609C24.6393 18.1671 24.5382 18.0559 24.4545 17.9317C24.3939 17.8422 24.3419 17.7469 24.2986 17.6459C24.1816 17.7585 24.0993 17.8956 24.0762 18.0617C24.0474 18.2696 24.108 18.4414 24.2192 18.5858ZM25.0046 17.051V17.0496C24.9035 16.8446 24.8992 16.6453 24.9598 16.4678C24.9699 16.436 24.9829 16.4057 24.9974 16.3754C24.801 16.5703 24.6696 16.8244 24.723 17.1449C24.8154 17.1088 24.9107 17.0785 25.0031 17.051H25.0046ZM24.5758 17.4495C24.544 17.4668 24.5123 17.4842 24.4834 17.5029C24.5253 17.6112 24.5787 17.7123 24.6408 17.8061C24.7259 17.9317 24.8284 18.0415 24.9439 18.1295L24.9555 18.1223C24.9829 18.1064 25.0118 18.092 25.0392 18.0776C24.8487 17.926 24.6768 17.7209 24.5743 17.4481L24.5758 17.4495ZM24.3823 18.7532L24.3895 18.759L24.3939 18.7475L24.3823 18.7532ZM24.3332 18.9929C24.2841 18.9583 24.2365 18.9207 24.1917 18.8803C24.147 18.9222 24.108 18.9712 24.0762 19.0261C24.0041 19.1546 23.9723 19.325 24.0026 19.5444C24.0329 19.7639 24.1008 19.9487 24.1917 20.1032C24.261 19.9848 24.3549 19.8909 24.4588 19.8173C24.3809 19.6657 24.3289 19.4679 24.3217 19.208C24.3202 19.1662 24.3217 19.1243 24.3246 19.0839C24.326 19.0535 24.3303 19.0232 24.3332 18.9943V18.9929ZM24.4199 17.2893C24.4516 17.2705 24.4834 17.2532 24.5151 17.2373C24.5123 17.2272 24.5108 17.2156 24.5094 17.2055C24.3867 16.5587 24.8443 16.1415 25.2746 15.8989L25.2673 15.8931C25.2211 15.8498 25.1807 15.8022 25.1461 15.7531C24.9367 15.8571 24.7332 16.0274 24.5743 16.3003C24.3982 16.6035 24.3549 16.9312 24.4083 17.2344C24.4112 17.2532 24.4155 17.2719 24.4199 17.2907V17.2893ZM24.9425 18.3981C24.9324 18.4053 24.9223 18.414 24.9107 18.4212C24.9353 18.4212 24.9598 18.4212 24.9844 18.4226C24.9743 18.4168 24.9642 18.4111 24.954 18.4053L24.9425 18.3981ZM24.3058 20.5969C24.3058 20.6041 24.3058 20.6128 24.3072 20.62L24.3188 20.6099L24.3058 20.5969ZM24.3621 21.5527C24.3737 21.5397 24.3852 21.5267 24.3968 21.5137C24.4271 21.4819 24.4617 21.4502 24.4978 21.4213C24.3939 21.3419 24.3029 21.2423 24.2322 21.121C24.2148 21.2004 24.2221 21.2856 24.261 21.3751C24.2899 21.4401 24.3231 21.4978 24.3621 21.5527ZM24.5123 21.7216C24.5484 21.7534 24.5844 21.7823 24.6234 21.8082C24.661 21.7202 24.7072 21.6408 24.7606 21.5686C24.7418 21.5614 24.7245 21.5541 24.7072 21.5455C24.6523 21.5801 24.6018 21.622 24.5599 21.6667C24.544 21.6841 24.5281 21.7014 24.5137 21.7202L24.5123 21.7216ZM24.5527 22.0291C24.505 22.0003 24.4588 21.9671 24.4141 21.931C24.404 21.9844 24.4069 22.0392 24.4242 22.0927C24.4473 22.1677 24.4805 22.2356 24.5209 22.2933C24.5238 22.1995 24.5354 22.11 24.5527 22.0277V22.0291ZM24.7505 22.4839L24.7534 22.5085L24.7591 22.5114L24.7505 22.4839ZM25.6904 27.6136L25.6976 27.6035C25.764 27.5111 25.8463 27.4274 25.9387 27.3537C25.9589 27.2613 25.9892 27.1733 26.0297 27.0895C25.8882 27.0534 25.7496 26.9971 25.6196 26.922C25.5258 26.8686 25.4377 26.8051 25.354 26.7329C25.2977 26.8859 25.2832 27.0448 25.3338 27.205C25.3973 27.4043 25.5287 27.5342 25.6889 27.615L25.6904 27.6136ZM25.7308 25.8898L25.7294 25.8883C25.5489 25.7468 25.4594 25.5692 25.4363 25.383C25.4319 25.3498 25.4305 25.3166 25.4305 25.2834C25.3381 25.5447 25.3309 25.8306 25.5186 26.0948C25.5864 26.0226 25.6586 25.9533 25.7308 25.8883V25.8898ZM25.5186 26.4355C25.4969 26.4644 25.4767 26.4947 25.4579 26.525C25.5417 26.6044 25.6341 26.6723 25.7322 26.73C25.8636 26.8065 26.0037 26.86 26.1466 26.8888L26.1553 26.8773C26.1726 26.8513 26.1914 26.8253 26.2116 26.8008C25.9733 26.7473 25.7293 26.6376 25.52 26.4369L25.5186 26.4355ZM25.9098 27.693L25.9199 27.6959L25.9185 27.6829L25.9098 27.693ZM25.969 27.9298C25.9098 27.9197 25.8506 27.9067 25.7929 27.8894C25.7712 27.9471 25.7568 28.0077 25.7524 28.0713C25.7438 28.2185 25.7885 28.386 25.9113 28.5694C26.034 28.7542 26.1755 28.8899 26.3242 28.9895C26.3357 28.8538 26.379 28.7282 26.4397 28.6156C26.304 28.5131 26.1697 28.3571 26.0513 28.1261C26.0325 28.0886 26.0152 28.0511 25.9993 28.0135C25.9878 27.9847 25.9777 27.9572 25.969 27.9298ZM25.3063 26.359C25.3265 26.3287 25.3482 26.2998 25.3699 26.2709C25.3626 26.2622 25.3569 26.2536 25.3496 26.2449C24.9584 25.7151 25.1894 25.1419 25.4709 24.7347L25.4623 24.7319C25.4016 24.7131 25.3453 24.6885 25.2919 24.6582C25.1475 24.843 25.0392 25.0841 25.0147 25.3989C24.9873 25.7483 25.0912 26.063 25.2702 26.3113C25.2818 26.3272 25.2933 26.3417 25.3049 26.3575L25.3063 26.359ZM26.2592 27.1299C26.2534 27.1415 26.2477 27.153 26.2419 27.1646C26.2635 27.1545 26.2866 27.1429 26.3083 27.1328C26.2967 27.1328 26.2852 27.1314 26.2736 27.1299L26.2592 27.1285V27.1299ZM26.6404 29.3865C26.6447 29.3938 26.6476 29.3995 26.6519 29.4068L26.6577 29.3923L26.6404 29.3865ZM27.1067 30.2225C27.111 30.2052 27.1154 30.1893 27.1211 30.1719C27.1341 30.1286 27.1515 30.0868 27.1717 30.0449C27.0432 30.0189 26.9176 29.9684 26.8021 29.8904C26.8208 29.9698 26.8641 30.0435 26.9392 30.107C26.9926 30.1532 27.0489 30.1907 27.1067 30.2225ZM27.316 30.3091C27.3622 30.3221 27.407 30.3322 27.4532 30.3394C27.4489 30.2441 27.4561 30.1517 27.472 30.0637C27.4532 30.0651 27.433 30.0666 27.4142 30.0666C27.381 30.1214 27.3536 30.1806 27.3348 30.2398C27.3276 30.2629 27.3218 30.286 27.316 30.3077V30.3091ZM27.4864 30.569C27.4301 30.5632 27.3752 30.5545 27.3189 30.5416C27.3334 30.5935 27.3594 30.6426 27.3983 30.683C27.4518 30.7408 27.511 30.787 27.573 30.8231C27.5341 30.7379 27.5066 30.6527 27.4864 30.569ZM27.8618 30.8924L27.8748 30.914H27.882L27.8618 30.8924ZM31.4871 34.4931V34.4816C31.4842 34.3675 31.5015 34.2506 31.5318 34.138C31.4928 34.0528 31.4654 33.9633 31.4466 33.8709C31.3124 33.9272 31.1666 33.9633 31.0178 33.9806C30.911 33.9936 30.8013 33.995 30.6916 33.9864C30.7378 34.1423 30.8215 34.278 30.9572 34.3762C31.1276 34.4975 31.3095 34.5234 31.4871 34.4917V34.4931ZM30.4894 33.0855H30.488C30.2599 33.0797 30.0808 32.9916 29.9509 32.8559C29.9278 32.8314 29.9062 32.8068 29.8859 32.7794C29.9682 33.0436 30.1328 33.2775 30.4418 33.3785C30.4519 33.2789 30.4692 33.1807 30.4894 33.0869V33.0855ZM31.7109 34.4253L31.7195 34.4209L31.7109 34.4123V34.4253ZM31.9 34.5798C31.8466 34.6072 31.7917 34.6317 31.7354 34.6534C31.7513 34.7126 31.7773 34.7703 31.8119 34.8223C31.8928 34.9465 32.0285 35.0519 32.2364 35.1269C32.4457 35.202 32.6406 35.2266 32.8182 35.2179C32.746 35.1024 32.7056 34.9753 32.6883 34.8483C32.5179 34.8468 32.3172 34.8021 32.0848 34.688C32.0472 34.6693 32.0112 34.6491 31.9765 34.6288C31.9505 34.613 31.926 34.5971 31.9014 34.5798H31.9ZM30.4302 33.7149C30.4288 33.6788 30.4273 33.6428 30.4288 33.6067C30.4187 33.6038 30.4086 33.6009 30.397 33.598C29.7661 33.4074 29.6087 32.8083 29.5929 32.3145L29.5842 32.3174C29.525 32.3376 29.4644 32.352 29.4037 32.3607C29.3979 32.5946 29.4557 32.853 29.6246 33.1201C29.8123 33.4175 30.0823 33.6067 30.3754 33.6991C30.3941 33.7048 30.4115 33.7106 30.4302 33.7149ZM31.6545 33.764C31.656 33.777 31.6589 33.79 31.6603 33.803C31.6719 33.7814 31.6834 33.7597 31.695 33.738C31.6849 33.7438 31.6762 33.751 31.6661 33.7568L31.6545 33.764ZM33.3091 35.3464C33.3163 35.3493 33.3235 35.3522 33.3308 35.3565L33.3264 35.3406L33.3091 35.3464ZM34.1826 35.7391C34.1754 35.7232 34.1696 35.7059 34.1638 35.69C34.1494 35.6481 34.1378 35.6034 34.1292 35.5586C34.0108 35.6149 33.8794 35.6481 33.7393 35.6554C33.8014 35.7073 33.8808 35.7405 33.9776 35.7463C34.0483 35.7506 34.1162 35.7478 34.1811 35.7391H34.1826ZM34.402 35.6842C34.4468 35.6684 34.4901 35.6481 34.5305 35.6265C34.4699 35.5528 34.4208 35.4749 34.3818 35.394C34.3674 35.407 34.3515 35.4186 34.3371 35.4301C34.3428 35.4951 34.3558 35.5586 34.376 35.6178C34.3833 35.6409 34.3919 35.6626 34.402 35.6842ZM34.6937 35.7911C34.646 35.8199 34.5955 35.8459 34.5435 35.869C34.5868 35.9022 34.6359 35.9253 34.6922 35.9354C34.7702 35.9499 34.8453 35.9513 34.916 35.9427C34.8337 35.8965 34.7601 35.8459 34.6951 35.7911H34.6937ZM35.1889 35.8257L35.212 35.8344L35.2177 35.8315L35.1889 35.8257Z" fill="url(#paint0_linear)"/>
<defs>
<linearGradient id="paint0_linear" x1="36.7323" y1="7.97989" x2="44.3264" y2="32.7794" gradientUnits="userSpaceOnUse">
<stop stop-color="#2B5757"/>
<stop offset="1" stop-color="#080E17"/>
</linearGradient>
</defs>
</svg>
