<svg width="85" height="212" viewBox="0 0 85 212" fill="none" xmlns="http://www.w3.org/2000/svg">
<path d="M35.6358 35.8432C35.4397 36.0777 35.1111 36.2468 34.5671 36.1219C34.5075 36.1084 34.4518 36.093 34.398 36.0757C34.323 36.1123 34.2423 36.1392 34.1558 36.1546C34.0501 36.1738 33.9367 36.1738 33.8175 36.1526C33.6733 36.1257 33.5561 36.0508 33.4677 35.9431C33.362 35.9662 33.2486 35.9739 33.1294 35.9662C32.8622 35.9489 32.6969 35.8067 32.595 35.6202C32.5777 35.6164 32.5624 35.6125 32.5451 35.6068C32.3875 35.5625 32.2644 35.4972 32.1664 35.4203C31.9165 35.4588 31.634 35.4453 31.3245 35.3338C31.067 35.2416 30.894 35.1032 30.7883 34.9398C30.7402 34.8668 30.7056 34.7899 30.6845 34.7091C30.4558 34.7495 30.2193 34.7168 29.9925 34.5534C29.783 34.4035 29.6715 34.1882 29.6235 33.948C29.5735 33.9365 29.5235 33.923 29.4736 33.9076C29.1333 33.8 28.82 33.5789 28.6009 33.2349C28.4049 32.9254 28.3395 32.6275 28.3453 32.3565C28.2223 32.3411 28.107 32.3008 28.0128 32.2373C27.8571 32.1335 27.7533 31.9721 27.7533 31.7664C27.7533 31.7414 27.7533 31.7184 27.7552 31.6934C27.5246 31.6722 27.2708 31.5531 27.019 31.2571C26.9806 31.2109 26.9441 31.1648 26.9114 31.1187C26.8307 31.1033 26.748 31.0764 26.6711 31.0379C26.575 30.9899 26.4847 30.9226 26.4001 30.8323C26.3002 30.7246 26.2521 30.5939 26.2444 30.4555C26.1464 30.4094 26.0503 30.3498 25.958 30.2729C25.7543 30.1 25.7063 29.8866 25.737 29.6771C25.7255 29.6636 25.7159 29.6502 25.7043 29.6367C25.6044 29.5079 25.5448 29.3811 25.5121 29.2619C25.2892 29.1447 25.07 28.964 24.8894 28.6891C24.7375 28.4604 24.6818 28.2471 24.6933 28.0529C24.6991 27.9664 24.7183 27.8838 24.7471 27.805C24.5395 27.7012 24.3685 27.534 24.2839 27.2668C24.2051 27.0208 24.2455 26.7824 24.3493 26.5614C24.3147 26.5229 24.282 26.4806 24.2531 26.4384C24.0456 26.1481 23.9245 25.7848 23.9552 25.3774C23.9841 25.0122 24.109 24.7335 24.2743 24.5201C24.1859 24.4355 24.1167 24.3337 24.0782 24.226C24.0148 24.0492 24.0283 23.8589 24.1513 23.6936C24.1916 23.6398 24.232 23.5937 24.2743 23.5533C24.0533 23.4418 23.8514 23.2208 23.7438 22.8075C23.7284 22.7479 23.7169 22.6903 23.7073 22.6345C23.64 22.5846 23.5785 22.525 23.5266 22.4558C23.4612 22.3712 23.4093 22.2713 23.3728 22.154C23.3286 22.0137 23.3421 21.8753 23.3959 21.7484C23.3267 21.6639 23.2671 21.5697 23.2191 21.4601C23.1114 21.216 23.1595 21.0027 23.2786 20.8278C23.2748 20.8105 23.271 20.7951 23.2671 20.7778C23.2344 20.6183 23.2344 20.4779 23.2575 20.3568C23.1076 20.1531 22.9903 19.8955 22.9442 19.5707C22.9077 19.2978 22.95 19.0825 23.0442 18.9134C23.0864 18.8365 23.1403 18.7711 23.2018 18.7135C23.0595 18.5309 22.9788 18.304 23.0192 18.0273C23.0557 17.7716 23.1941 17.5737 23.3844 17.4199C23.3709 17.3699 23.3594 17.3199 23.3498 17.268C23.2883 16.9163 23.3382 16.5357 23.5439 16.184C23.7284 15.8668 23.9629 15.6708 24.2032 15.5497C24.1609 15.4344 24.1436 15.3133 24.1551 15.1999C24.1705 15.0653 24.2243 14.9404 24.3223 14.8462C24.1859 14.6367 24.1244 14.3445 24.2435 13.9313C24.2608 13.8736 24.2781 13.8179 24.2993 13.7641C24.2666 13.6872 24.2455 13.6045 24.2339 13.518C24.2205 13.4123 24.2262 13.2989 24.2551 13.1797C24.2897 13.0375 24.3723 12.9241 24.4819 12.8434C24.4646 12.7357 24.4627 12.6223 24.4761 12.5051C24.5069 12.2398 24.6587 12.0822 24.849 11.99C24.8528 11.9746 24.8586 11.9573 24.8644 11.9419C24.9182 11.7881 24.9893 11.6671 25.07 11.5748C25.0451 11.323 25.0739 11.0424 25.2027 10.7387C25.3084 10.485 25.4564 10.3216 25.6236 10.2236C25.6986 10.1793 25.7793 10.1505 25.86 10.1313C25.8312 9.90064 25.8773 9.66615 26.0522 9.44703C26.2137 9.24521 26.4347 9.14718 26.6769 9.11066C26.6904 9.06069 26.7057 9.01071 26.725 8.96266C26.8518 8.62822 27.0882 8.32645 27.4438 8.12847C27.7629 7.94972 28.0647 7.89974 28.3357 7.91896C28.3568 7.79787 28.4049 7.68447 28.4722 7.59413C28.5836 7.44421 28.7509 7.35002 28.9565 7.36156C29.0872 7.36924 29.2006 7.39615 29.2948 7.43459C29.2198 7.10399 29.2814 6.68498 29.8291 6.34092C29.881 6.30825 29.931 6.27941 29.9829 6.25251C30.0098 6.1737 30.0483 6.09682 30.0982 6.0257C30.1597 5.93728 30.2386 5.85655 30.3385 5.78736C30.4596 5.70279 30.5961 5.67395 30.7325 5.68741C30.7921 5.59707 30.8652 5.50865 30.9536 5.42985C31.1535 5.25302 31.3707 5.23572 31.5744 5.2953C31.5879 5.28569 31.6032 5.278 31.6186 5.26839C31.7609 5.18766 31.8935 5.14538 32.0165 5.13192C32.1645 4.92818 32.374 4.73597 32.6719 4.59566C32.9199 4.47841 33.139 4.45342 33.3293 4.49187C33.4158 4.50916 33.4946 4.53992 33.5657 4.58028C33.6983 4.38999 33.8886 4.24392 34.1635 4.19778C34.4172 4.1555 34.6498 4.22854 34.8535 4.36309C34.8977 4.33425 34.9419 4.30927 34.9881 4.28428C35.3033 4.11898 35.6819 4.05171 36.0798 4.14012C36.4373 4.21893 36.6949 4.38231 36.8832 4.57836C36.9813 4.50148 37.0908 4.44958 37.2023 4.42651C37.3311 4.39961 37.4618 4.41306 37.579 4.47264C37.7155 4.25545 37.9635 4.07093 38.4075 4.01711C38.4671 4.00942 38.5266 4.00558 38.5824 4.00365C38.64 3.94407 38.7073 3.89217 38.7842 3.84796C38.8765 3.79414 38.9841 3.7557 39.1033 3.73648C39.2474 3.71149 39.3839 3.74417 39.5031 3.81529C39.5953 3.75763 39.6991 3.71149 39.8125 3.67882C40.0682 3.60386 40.2719 3.68266 40.4314 3.82298C40.4487 3.82105 40.466 3.81913 40.4833 3.81913C40.6467 3.8076 40.7851 3.82682 40.9023 3.86718C41.1234 3.74609 41.3944 3.66344 41.725 3.66344C41.9999 3.66344 42.2074 3.73456 42.3631 3.85181C42.4323 3.9037 42.4919 3.96521 42.54 4.03441C42.7399 3.91908 42.9763 3.86911 43.2435 3.94599C43.4914 4.01711 43.6682 4.18049 43.7951 4.38999C43.847 4.38231 43.8989 4.37846 43.9508 4.37654C44.3064 4.36309 44.6773 4.46303 45.0003 4.71483C45.2886 4.93971 45.4519 5.1992 45.5384 5.45484C45.6595 5.42793 45.7806 5.42793 45.8921 5.45484C46.0497 5.49328 46.1843 5.58554 46.2631 5.73546C46.4937 5.62206 46.8013 5.59899 47.2049 5.78736C47.2606 5.81235 47.3125 5.83926 47.3606 5.86809C47.4413 5.84887 47.5259 5.83926 47.6124 5.84118C47.72 5.84502 47.8296 5.86809 47.943 5.91422C48.0795 5.96996 48.1775 6.06798 48.2409 6.191C48.3505 6.191 48.462 6.20638 48.5773 6.23713C48.8348 6.31017 48.9675 6.48124 49.027 6.68498C49.0424 6.69267 49.0578 6.70035 49.0732 6.70804C49.2173 6.78493 49.325 6.87334 49.4038 6.96945C49.6556 6.9829 49.9304 7.05594 50.2091 7.22893C50.4417 7.37309 50.582 7.54415 50.6531 7.72483C50.6839 7.80556 50.7012 7.89013 50.707 7.97278C50.9376 7.98047 51.1644 8.0612 51.3528 8.26878C51.5277 8.45907 51.5911 8.69357 51.5873 8.93767C51.6353 8.95882 51.6815 8.98188 51.7257 9.00879C52.0351 9.18562 52.2965 9.46625 52.4388 9.84875C52.5656 10.1928 52.5695 10.4984 52.508 10.7617C52.6252 10.8021 52.729 10.8655 52.8078 10.9482C52.9385 11.0827 53.0058 11.2615 52.9635 11.4614C52.95 11.5229 52.9327 11.5806 52.9135 11.6325C53.2806 11.5383 53.8457 11.544 54.159 12.3071C54.1821 12.3628 54.2013 12.4186 54.2186 12.4724C54.2917 12.5128 54.3609 12.5627 54.4224 12.6243C54.4973 12.6992 54.5646 12.7915 54.6165 12.903C54.678 13.0356 54.6838 13.1759 54.6473 13.3085C54.7261 13.3816 54.7991 13.47 54.8625 13.5699C55.0028 13.7967 54.9817 14.0139 54.8894 14.2042C54.8952 14.2196 54.901 14.2369 54.9067 14.2523C54.9606 14.406 54.9798 14.5444 54.9721 14.6694C55.147 14.85 55.2988 15.0903 55.3873 15.4075C55.4603 15.6727 55.4468 15.8918 55.3757 16.0725C55.3431 16.1532 55.3008 16.2263 55.2469 16.2916C55.4123 16.455 55.5218 16.6664 55.5199 16.947C55.518 17.2046 55.4065 17.4199 55.2393 17.5967C55.2604 17.6448 55.2777 17.6928 55.2931 17.7428C55.4007 18.083 55.4026 18.4655 55.2469 18.8442C55.1066 19.1824 54.901 19.4093 54.678 19.5611C54.7357 19.6707 54.7683 19.7879 54.7722 19.9013C54.776 20.0166 54.7491 20.1262 54.6915 20.2223C54.9529 20.3588 55.1816 20.6317 55.1989 21.168C55.2008 21.2295 55.2008 21.2871 55.197 21.3448C55.2508 21.4082 55.2969 21.4794 55.3334 21.5582C55.3777 21.6562 55.4084 21.7657 55.418 21.8868C55.4296 22.0329 55.3853 22.1655 55.3046 22.277C55.3527 22.3731 55.3911 22.4808 55.4142 22.598C55.4661 22.8594 55.37 23.0555 55.2162 23.2015C55.2162 23.2188 55.2162 23.2361 55.2162 23.2534C55.2123 23.4168 55.1816 23.5533 55.1316 23.6667C55.2335 23.8973 55.2912 24.1761 55.2623 24.5028C55.2393 24.7757 55.1489 24.9776 55.0182 25.1217C54.9606 25.1871 54.8933 25.239 54.8222 25.2813C54.9202 25.4908 54.949 25.7291 54.8491 25.9905C54.7568 26.2308 54.5781 26.3942 54.3589 26.5018C54.3609 26.5537 54.3609 26.6056 54.3589 26.6575C54.3416 27.0131 54.209 27.3744 53.9303 27.6723C53.6804 27.9395 53.4094 28.0798 53.1461 28.1452C53.1634 28.2682 53.1519 28.3893 53.1153 28.4969C53.0827 28.5949 53.0289 28.6814 52.9539 28.7468C53.198 29.0005 53.3787 29.4099 53.0404 30.0058C53.0096 30.0577 52.9789 30.1076 52.9481 30.1557C52.9616 30.2383 52.9654 30.3229 52.9539 30.4094C52.9424 30.5151 52.9097 30.6247 52.8539 30.7342C52.7867 30.8649 52.681 30.9553 52.5541 31.0091C52.5464 31.1167 52.5214 31.2282 52.4811 31.3397C52.3888 31.5896 52.2062 31.7087 51.9986 31.753C51.9909 31.7683 51.9813 31.7818 51.9717 31.7972C51.8852 31.9356 51.7872 32.0355 51.6853 32.1066C51.6507 32.3565 51.5565 32.6237 51.3624 32.8889C51.2009 33.11 51.0183 33.2368 50.8319 33.2926C50.7473 33.3175 50.6647 33.3272 50.5801 33.3272C50.5551 33.5578 50.4552 33.775 50.2341 33.948C50.0304 34.1056 49.792 34.1517 49.5499 34.1287C49.5249 34.1748 49.498 34.219 49.4691 34.2613C49.2692 34.5573 48.9694 34.7956 48.5754 34.9052C48.2236 35.0032 47.918 34.9821 47.6604 34.9013C47.6105 35.0148 47.5393 35.1128 47.4509 35.1858C47.3068 35.305 47.1222 35.3588 46.9262 35.3011C46.6859 35.23 46.5302 35.1051 46.4303 34.9763C46.3707 34.9917 46.3092 35.0032 46.2496 35.009C45.9728 35.0397 45.6941 34.9782 45.4423 34.8552C45.0925 34.6842 44.7946 34.3939 44.6312 34.0691C44.5293 33.8634 44.5024 33.6616 44.5274 33.4713C44.4909 33.4502 44.4563 33.429 44.4236 33.406C44.0719 33.1619 43.8643 32.7524 44.0065 32.2008C44.0949 31.8567 44.2007 31.5915 44.3102 31.3878C43.897 31.0341 43.8874 30.6977 43.995 30.4421C43.9604 30.4056 43.9277 30.3652 43.8989 30.3191C43.699 30 43.7567 29.6829 43.9027 29.4118C43.8566 29.3061 43.8239 29.185 43.8086 29.0505C43.7528 28.5853 43.8797 28.2682 44.0469 28.0568C44.0258 28.0491 44.0065 28.0414 43.9873 28.0318C43.8239 27.9549 43.6971 27.828 43.6375 27.655C43.5241 27.3244 43.6759 27.1072 43.8643 26.9689C43.7201 26.8343 43.626 26.6729 43.6144 26.5172C43.5952 26.2865 43.6894 26.1385 43.822 26.0424C43.797 25.831 43.8912 25.683 44.0373 25.5792C44.0104 25.5311 43.9892 25.4773 43.9719 25.4196C43.8989 25.1582 43.9469 24.9507 44.0431 24.7873C43.9104 24.6662 43.8278 24.4913 43.847 24.2606C43.8605 24.1011 43.9085 23.9646 43.9777 23.8493C43.7394 23.7224 43.526 23.4822 43.403 23.1093C43.3165 22.8479 43.305 22.6403 43.3415 22.4731C43.2454 22.4423 43.157 22.3981 43.0801 22.3405C42.9109 22.2117 42.7975 22.0195 42.7918 21.7715C42.7898 21.6869 42.7956 21.6101 42.8071 21.5389C42.7802 21.5159 42.7552 21.4909 42.7322 21.4659C42.6284 21.5389 42.5054 21.5889 42.3631 21.6004C42.1882 21.6139 42.0498 21.5697 41.9403 21.4909C41.9134 21.5005 41.8845 21.5082 41.8538 21.514C41.8134 21.5236 41.7731 21.5293 41.7327 21.5332C41.3271 21.5774 41.033 21.3967 40.8389 21.1872C40.7716 21.1142 40.714 21.0373 40.6698 20.9642C40.443 21.02 40.1873 20.97 39.9548 20.7605C39.8317 20.649 39.7529 20.5298 39.7087 20.4068C39.653 20.378 39.5992 20.3415 39.5453 20.2934C39.3935 20.155 39.2974 20.0032 39.2436 19.8456C39.0821 19.7937 38.9495 19.6956 38.8765 19.5515C38.8015 19.4016 38.7727 19.2247 38.7707 19.046C38.7035 18.9979 38.6362 18.9383 38.5728 18.8653C38.5439 18.8307 38.517 18.7961 38.494 18.7615C38.4594 18.7192 38.4305 18.6789 38.4055 18.6404L38.3921 18.6346C38.1999 18.5539 38.0538 18.4309 37.9462 18.2906C37.8789 18.3194 37.8039 18.3425 37.7213 18.3598C37.3003 18.4501 36.9966 18.2598 36.7871 18.0157C36.7372 18.0407 36.6814 18.0619 36.618 18.0792C36.4585 18.1234 36.3105 18.1407 36.1778 18.1349C36.1721 18.1657 36.1644 18.1945 36.1567 18.2252C36.1202 18.3521 36.0644 18.4655 35.9856 18.5558C35.8741 18.6808 35.7204 18.7577 35.5147 18.7557C35.2821 18.7538 35.1015 18.6827 34.9592 18.5808C34.9342 18.6616 34.892 18.725 34.8362 18.7711C34.7805 18.8153 34.7132 18.8442 34.6402 18.8576C34.7094 19.0767 34.6824 19.3016 34.3941 19.4285C34.225 19.5034 34.0578 19.5342 33.904 19.54C33.9059 19.6841 33.8694 19.8379 33.7829 19.9993C33.7656 20.032 33.7464 20.0647 33.7233 20.0974C33.6407 20.2242 33.5446 20.3107 33.4408 20.3645C33.4158 20.378 33.3927 20.3876 33.3677 20.3972C33.36 20.4241 33.3524 20.4491 33.3427 20.4741C33.2832 20.6298 33.1774 20.7643 33.0333 20.8566C32.8968 20.9431 32.7257 20.9931 32.5278 20.9873C32.4201 20.9854 32.3298 20.9758 32.2529 20.9604C31.6974 21.3813 31.1208 22.821 31.2726 23.93C31.4514 25.2351 31.2784 26.0309 31.1669 26.8132C31.09 27.3417 31.1054 27.9376 31.386 28.9256C31.7647 30.2614 32.2933 31.0994 32.9218 33.0657C33.4004 34.5669 35.0207 35.478 35.4686 35.7663C35.5205 35.797 35.5743 35.824 35.63 35.8509L35.6358 35.8432ZM33.1678 20.2031C33.164 20.1358 33.1525 20.0666 33.1371 19.9955L33.1544 19.9686C33.1582 19.982 33.1621 19.9974 33.1659 20.0109C33.1813 20.0762 33.1851 20.1397 33.1832 20.2012H33.1698L33.1678 20.2031ZM34.2 19.2593C34.2653 19.1459 34.2826 18.9864 34.2384 18.8134C34.2846 18.8269 34.3326 18.8384 34.3788 18.8461L34.4133 18.8518C34.4729 19.0018 34.4729 19.1459 34.3115 19.217C34.273 19.2343 34.2365 19.2478 34.1981 19.2593H34.2ZM43.2857 21.5236C43.3415 21.5409 43.3972 21.5543 43.4472 21.5658C43.3895 21.5543 43.3357 21.5389 43.2857 21.5236ZM44.3487 31.8837C44.3564 32.0797 44.4102 32.2873 44.5005 32.4411C44.6274 32.6583 44.7542 32.764 44.8273 32.814C44.7312 32.9466 44.6504 33.0907 44.5966 33.2426L44.5659 33.2214C44.2872 33.0273 44.1219 32.7005 44.2372 32.2546C44.2718 32.1182 44.3102 31.9951 44.3487 31.8837ZM49.029 34.4285C49.0924 34.3401 49.1481 34.2344 49.1885 34.1094C49.1943 34.1018 49.2 34.0921 49.2058 34.0825C49.2116 34.0729 49.2173 34.0652 49.2231 34.0556C49.2577 34.0672 49.2923 34.0768 49.3288 34.0845C49.3192 34.0998 49.3077 34.1171 49.2981 34.1325C49.225 34.2421 49.1347 34.3401 49.0309 34.4266L49.029 34.4285ZM39.4127 4.74943C39.4339 4.76096 39.455 4.76673 39.4762 4.77057C39.4877 4.71483 39.5011 4.65717 39.5184 4.60335L39.5242 4.58413C39.4569 4.50532 39.3724 4.43228 39.2705 4.37654C39.2609 4.39192 39.2513 4.40922 39.2436 4.42459C39.3109 4.49955 39.3647 4.59758 39.4031 4.7206L39.4127 4.75135V4.74943ZM40.91 4.70522L40.9158 4.71098C40.9735 4.60527 41.0638 4.49187 41.1983 4.40345C41.1349 4.29197 41.0465 4.1901 40.9216 4.12282C40.8581 4.16511 40.8005 4.20932 40.7467 4.25545C40.8389 4.44574 40.8908 4.62641 40.91 4.70522ZM43.5625 5.48751C43.5721 5.48559 43.5837 5.48559 43.5933 5.48367C43.6529 5.42216 43.7394 5.35873 43.8585 5.30107C43.8451 5.18574 43.8259 5.06849 43.797 4.95317C43.501 5.0166 43.2761 5.17998 43.1108 5.36642C43.1147 5.3818 43.1166 5.3991 43.1185 5.41447C43.2435 5.43177 43.3953 5.45484 43.5625 5.48751ZM54.4397 18.4982C54.4012 18.6289 54.3416 18.775 54.2821 18.9018C54.2897 18.8922 54.2974 18.8826 54.3051 18.8711C54.3666 18.7884 54.4108 18.6962 54.4301 18.602C54.4358 18.5674 54.4397 18.5347 54.4397 18.4982ZM54.3397 24.9853L54.3416 24.9968L54.3455 24.991L54.3397 24.9853ZM52.9154 27.4321C52.8943 27.4244 52.8732 27.4129 52.8501 27.4013C52.8328 27.4282 52.8155 27.4532 52.802 27.4744C52.8405 27.4628 52.8789 27.4475 52.9154 27.4321ZM31.0036 6.52737C31.0228 6.52352 31.0439 6.51968 31.0631 6.51391L31.0939 6.487C31.0881 6.45625 31.0824 6.42742 31.0785 6.39666L31.0766 6.37744C30.9824 6.33516 30.8748 6.30632 30.7575 6.29864C30.7556 6.31786 30.7537 6.33516 30.7537 6.35438C30.8382 6.3909 30.9228 6.44856 31.0036 6.53121V6.52737ZM33.3024 19.7399C33.3389 19.8148 33.3658 19.8898 33.3831 19.9647C33.3946 20.0186 33.4023 20.0724 33.4042 20.1243C33.4542 20.0878 33.5023 20.0359 33.5465 19.9686C33.5638 19.9417 33.5811 19.9148 33.5945 19.8879C33.6637 19.7591 33.6906 19.638 33.6887 19.5265C33.608 19.5188 33.535 19.5034 33.4715 19.4881C33.4196 19.5553 33.3639 19.6418 33.3005 19.7399H33.3024ZM34.5152 18.5693C34.5287 18.5924 34.5421 18.6154 34.5556 18.6385C34.569 18.6385 34.5806 18.6366 34.594 18.6346C34.6382 18.6289 34.6767 18.6154 34.7055 18.5924C34.7343 18.5693 34.7536 18.5328 34.7632 18.4809C34.7689 18.4482 34.7728 18.4155 34.7747 18.3867C34.7689 18.379 34.7632 18.3713 34.7574 18.3656C34.6767 18.4424 34.5979 18.5136 34.5171 18.5712L34.5152 18.5693ZM34.9746 18.156C34.9842 18.2022 34.9919 18.2502 34.9957 18.3021C35.1168 18.4271 35.2879 18.5251 35.5262 18.5289C35.6608 18.5309 35.7588 18.4828 35.828 18.404C35.8838 18.3406 35.9241 18.256 35.951 18.1618L35.9587 18.133C35.9299 18.1484 35.8972 18.1618 35.8665 18.1714C35.8184 18.1868 35.7684 18.1926 35.7185 18.1926C35.5359 18.1887 35.3225 18.1272 35.1418 18.0119C35.0842 18.058 35.0284 18.1061 34.9765 18.156H34.9746ZM37.0293 17.8331C37.0139 17.8504 36.9986 17.8677 36.9813 17.885C37.1485 18.0696 37.3791 18.2041 37.6848 18.1387C37.7386 18.1272 37.7885 18.1118 37.8347 18.0945C37.8289 18.083 37.8231 18.0715 37.8174 18.058C37.5656 18.0484 37.2657 17.9696 37.0293 17.8312V17.8331ZM40.2719 20.4164C40.1873 20.451 40.0989 20.4722 40.0086 20.4722C40.0374 20.5125 40.0739 20.5529 40.1162 20.5913C40.2681 20.7278 40.4276 20.772 40.5756 20.7547C40.5621 20.7201 40.5525 20.6932 40.5487 20.6778V20.6759C40.4372 20.601 40.3469 20.5125 40.2738 20.4164H40.2719ZM44.1738 23.0978C44.1046 23.1016 44.0315 23.0958 43.9604 23.0747C43.8239 23.0343 43.6913 22.9459 43.5702 22.7902C43.5798 22.8652 43.5971 22.9478 43.6279 23.0382C43.7317 23.3515 43.9027 23.5494 44.0949 23.6513L44.1295 23.6686C44.2064 23.5898 44.2929 23.5245 44.3775 23.4726C44.3064 23.3457 44.2372 23.2208 44.1738 23.0997V23.0978ZM44.7888 24.9507L44.7677 24.9564C44.66 24.9814 44.5447 24.9833 44.4352 24.966C44.3698 24.9545 44.3045 24.9372 44.2449 24.9103C44.1776 25.0295 44.1468 25.1775 44.1968 25.3601C44.2084 25.4004 44.2237 25.4389 44.2449 25.4735C44.3717 25.4235 44.512 25.3908 44.6427 25.3697C44.7119 25.2198 44.76 25.0833 44.7888 24.9507ZM44.1334 26.5325C44.0411 26.4653 43.9623 26.3788 43.9104 26.2807C43.8662 26.3365 43.8412 26.4076 43.8489 26.4999C43.8585 26.6152 43.9469 26.744 44.0815 26.8516C44.0949 26.8458 44.1084 26.8401 44.1219 26.8343C44.1199 26.7324 44.1238 26.6325 44.1353 26.5345L44.1334 26.5325ZM44.3064 28.1144C44.1392 28.2836 43.9892 28.5661 44.0431 29.0236C44.0488 29.0774 44.0584 29.1293 44.0719 29.1773C44.1853 29.0332 44.3121 28.9121 44.4179 28.8218C44.3871 28.5719 44.3467 28.3374 44.3064 28.1144ZM44.464 30.6593C44.3737 30.6477 44.2852 30.6247 44.2064 30.5862C44.1622 30.7612 44.1968 30.9726 44.4428 31.1955C44.464 31.1648 44.4851 31.136 44.5082 31.1091C44.489 30.9649 44.4736 30.815 44.4659 30.6612L44.464 30.6593ZM45.0464 32.887C44.9368 33.0273 44.8446 33.1811 44.7965 33.3444C44.908 33.3887 45.0272 33.4156 45.1483 33.429C45.1771 33.4309 45.204 33.4329 45.2328 33.4348C45.2367 33.3752 45.2405 33.3156 45.2463 33.258C45.1925 33.1676 45.1233 33.0427 45.0483 32.887H45.0464ZM46.0497 34.3516C45.8402 34.565 45.6807 34.6572 45.5615 34.6592C45.7749 34.761 46.0094 34.8129 46.2381 34.7879C46.2669 34.7841 46.2957 34.7803 46.3246 34.7745C46.2842 34.6784 46.2688 34.5957 46.2631 34.5554C46.1939 34.515 46.1228 34.4497 46.0497 34.3516ZM46.4995 34.6053C46.5072 34.6361 46.5187 34.6707 46.5379 34.7091C46.6629 34.6534 46.784 34.5707 46.8954 34.4554C46.907 34.4439 46.9185 34.4324 46.9281 34.4189C46.9051 34.3939 46.882 34.3689 46.8628 34.3459C46.7859 34.4477 46.6571 34.5804 46.4995 34.6053ZM50.0515 32.8889L50.065 32.8985L50.09 32.9158C50.1707 32.8966 50.2495 32.8678 50.3245 32.8236C50.3129 32.7794 50.2995 32.7371 50.2841 32.6929C50.1957 32.7736 50.115 32.8389 50.0515 32.887V32.8889ZM50.4571 32.5276C50.4763 32.5775 50.4955 32.6314 50.5128 32.6852C50.5301 32.6679 50.5493 32.6506 50.5666 32.6314C50.7108 32.4737 50.7935 32.3277 50.8357 32.197C50.8127 32.1893 50.7877 32.1816 50.7646 32.172C50.657 32.3104 50.5532 32.4276 50.4571 32.5276ZM51.2394 31.455C51.299 31.4742 51.3701 31.4954 51.447 31.5146C51.4239 31.4108 51.3912 31.3166 51.3605 31.2398C51.3239 31.307 51.2836 31.3781 51.2394 31.455ZM51.4893 30.986C51.5508 31.1071 51.6353 31.307 51.6815 31.5531C51.743 31.5588 51.8026 31.5588 51.8621 31.555C51.9313 31.3993 51.9467 31.2436 51.9236 31.0975C51.9198 31.0706 51.914 31.0456 51.9083 31.0187L51.8833 31.011C51.766 30.9687 51.6546 30.9072 51.5623 30.8284C51.5412 30.8765 51.5181 30.9284 51.4893 30.988V30.986ZM52.4753 29.1197C52.6752 29.2946 52.7732 29.5214 52.7867 29.7328V29.754C52.8078 29.7828 52.827 29.8136 52.8463 29.8462L52.8655 29.8808C53.1346 29.3907 52.9635 29.0601 52.7578 28.864C52.7501 28.866 52.7444 28.8679 52.7367 28.8698C52.6752 28.8852 52.6156 28.8967 52.5599 28.9025C52.5349 28.9736 52.506 29.0466 52.4753 29.1197ZM52.6675 28.5142C52.7059 28.5373 52.7501 28.5661 52.7944 28.5988C52.852 28.5565 52.8924 28.4969 52.9154 28.4258C52.9404 28.3528 52.9481 28.2682 52.9366 28.1817C52.8597 28.1894 52.7847 28.1913 52.7136 28.1875C52.7059 28.2855 52.6906 28.3951 52.6675 28.5123V28.5142ZM52.7232 27.9645C52.7713 27.9664 52.8213 27.9664 52.8712 27.9626C52.8578 27.9376 52.8443 27.9126 52.829 27.8895C52.8117 27.8646 52.7924 27.8396 52.7713 27.8165C52.754 27.8203 52.7367 27.8242 52.7194 27.828C52.7213 27.8684 52.7232 27.9145 52.7232 27.9664V27.9645ZM53.3748 26.298C53.4056 26.348 53.4344 26.4076 53.4613 26.4768C53.5767 26.473 53.6958 26.4633 53.8131 26.446C53.7804 26.1712 53.6555 25.9482 53.5036 25.7733C53.4786 25.9002 53.4363 26.0905 53.3748 26.298ZM54.1225 24.5393C54.2225 24.6047 54.3301 24.6835 54.4339 24.7738C54.4397 24.7508 54.4474 24.7258 54.4512 24.6989C54.4935 24.4894 54.4877 24.3221 54.455 24.1876C54.3859 24.2049 54.3167 24.2145 54.2532 24.2222C54.2129 24.3298 54.1687 24.4355 54.1225 24.5393ZM54.4531 22.8594C54.5646 22.9344 54.7068 23.0459 54.8433 23.1996C54.899 23.1727 54.951 23.142 54.999 23.1074C54.9779 22.9382 54.9106 22.7979 54.8145 22.6845C54.7972 22.6634 54.7799 22.6441 54.7607 22.6268L54.7338 22.6326C54.6223 22.6557 54.5089 22.6614 54.3993 22.648C54.4204 22.7076 54.4397 22.7787 54.455 22.8613L54.4531 22.8594ZM54.259 20.7086C54.5223 20.7547 54.7222 20.895 54.8433 21.0719L54.8548 21.0892C54.8894 21.1026 54.9221 21.1199 54.9529 21.1372L54.9875 21.1564C54.9682 20.7086 54.7607 20.4952 54.5339 20.3972C54.4281 20.4683 54.3263 20.5145 54.2282 20.5414C54.2379 20.599 54.2475 20.6548 54.2571 20.7086H54.259ZM53.9668 19.6072C54.0898 19.5861 54.2263 19.5515 54.3589 19.49C54.3378 19.4708 54.3167 19.4535 54.2936 19.4362C54.2686 19.4189 54.2436 19.4016 54.2148 19.3881C54.1091 19.4554 54.011 19.5073 53.9361 19.5457C53.9418 19.5669 53.9534 19.588 53.9668 19.6072ZM54.2282 17.739C54.2801 17.7774 54.334 17.8274 54.3916 17.8908C54.4993 17.8466 54.6069 17.7966 54.7107 17.739C54.5819 17.4891 54.3858 17.3238 54.1783 17.2142C54.1936 17.3334 54.2148 17.5218 54.2282 17.739ZM54.4108 15.8649C54.505 15.888 54.605 15.9187 54.7049 15.9572C54.703 15.9322 54.6992 15.9072 54.6953 15.8803C54.6607 15.6689 54.5973 15.5132 54.5204 15.3998C54.4743 15.4305 54.4262 15.4593 54.382 15.4824C54.3993 15.6285 54.4089 15.7573 54.4128 15.863L54.4108 15.8649ZM54.0956 14.1658C54.2206 14.1985 54.3762 14.2523 54.5396 14.3368C54.5819 14.2926 54.6203 14.2446 54.653 14.1946C54.5723 14.0447 54.4608 13.9351 54.332 13.864C54.309 13.8506 54.284 13.839 54.2609 13.8275L54.2378 13.8409C54.1706 13.8832 54.0975 13.9197 54.0226 13.9447C54.0495 14.0178 54.0745 14.0889 54.0975 14.1619L54.0956 14.1658ZM52.977 12.2475C53.2941 12.1399 53.5882 12.2014 53.7938 12.3456L53.8111 12.3571C53.8477 12.359 53.8842 12.3609 53.9207 12.3667L53.9591 12.3725C53.6209 11.5729 52.9251 11.8458 52.7367 11.9381L52.7194 11.9554C52.779 12.0169 52.8655 12.113 52.975 12.2456L52.977 12.2475ZM46.3438 6.47739C46.5053 6.23328 46.7378 6.1045 46.9627 6.07183L46.9819 6.06991C47.0088 6.04684 47.0396 6.02378 47.0684 6.00263L47.1011 5.98149C46.7744 5.83541 46.5283 5.86232 46.3457 5.95843C46.3899 6.16409 46.363 6.33708 46.313 6.47162L46.3419 6.47739H46.3438ZM45.7441 6.31786C45.8056 6.18715 45.9132 6.00263 46.0843 5.85848C46.0382 5.75853 45.9517 5.69702 45.8498 5.67203C45.7749 5.65281 45.6903 5.65281 45.6057 5.67203C45.6442 5.87578 45.6384 6.07183 45.6172 6.24097C45.6672 6.2698 45.7114 6.29671 45.746 6.31978L45.7441 6.31786ZM45.4039 6.12373C45.4135 6.01032 45.4116 5.88731 45.3924 5.75853C45.3693 5.7739 45.3443 5.78928 45.3232 5.8085C45.3001 5.82772 45.277 5.84887 45.2559 5.87193C45.279 5.94689 45.2963 6.01609 45.3097 6.0776C45.3424 6.09489 45.3751 6.11027 45.4039 6.12565V6.12373ZM41.7961 4.96086C41.8634 4.82054 41.9557 4.64756 42.0767 4.48226C42.0518 4.47841 42.0268 4.47457 42.0018 4.47072C41.7884 4.44766 41.6231 4.46688 41.4924 4.51109C41.5424 4.66293 41.5655 4.80901 41.5751 4.91088C41.6539 4.92626 41.7288 4.94356 41.798 4.95893L41.7961 4.96086ZM41.3444 4.87244C41.3348 4.7994 41.3194 4.71098 41.2906 4.6168C41.2003 4.68408 41.1407 4.7648 41.1022 4.83784C41.1868 4.84745 41.2675 4.85899 41.3444 4.87052V4.87244ZM40.0931 4.77634C40.1393 4.67062 40.2584 4.43612 40.4718 4.21124C40.4391 4.15934 40.4045 4.10937 40.3661 4.06516C40.1989 4.10168 40.0662 4.18049 39.9605 4.2862C39.9413 4.30542 39.924 4.32464 39.9067 4.34579L39.9144 4.37077C39.9548 4.5034 39.9701 4.64371 39.9528 4.77634C40.0009 4.77634 40.047 4.77634 40.0912 4.77634H40.0931ZM38.0384 5.08964C38.0423 4.78787 38.173 4.54761 38.3517 4.39768L38.3671 4.38423C38.3786 4.34963 38.3921 4.31503 38.4055 4.28236L38.4228 4.24584C38.0692 4.29197 37.8731 4.44574 37.7693 4.62449C37.9173 4.78595 37.9827 4.95317 38.0077 5.09925L38.0365 5.08772L38.0384 5.08964ZM37.7943 5.1819C37.7847 5.08772 37.752 4.98008 37.6771 4.87052C37.6502 5.00699 37.654 5.13769 37.6655 5.22995C37.7078 5.21457 37.7501 5.19727 37.7924 5.1819H37.7943ZM37.4522 5.30491C37.431 5.16652 37.4137 4.92049 37.4925 4.68215C37.4195 4.64371 37.3369 4.6341 37.2561 4.6514C37.1792 4.66678 37.1043 4.7033 37.0351 4.75519C37.1773 4.95125 37.2619 5.16268 37.3119 5.34335C37.358 5.33374 37.4061 5.32029 37.4541 5.30491H37.4522ZM36.5373 5.27608C36.4623 5.19728 36.372 5.13 36.2778 5.08195C36.1855 5.03582 36.0875 5.00699 35.9895 5.00507C35.8876 5.00314 35.7838 5.03005 35.6896 5.0954C35.9626 5.11462 36.2509 5.16844 36.5373 5.27608ZM31.6821 6.06414C31.6936 5.94305 31.7205 5.79312 31.7724 5.63359C31.7205 5.60092 31.6686 5.57016 31.6129 5.5471C31.4783 5.65089 31.3918 5.78159 31.3418 5.91998C31.3322 5.94497 31.3245 5.96996 31.3188 5.99687L31.3361 6.01609C31.386 6.07183 31.4303 6.13141 31.4668 6.19484C31.5379 6.14679 31.609 6.10258 31.6801 6.06222L31.6821 6.06414ZM29.9752 7.52301C29.8215 7.23085 29.8311 6.93677 29.9349 6.70996L29.9445 6.69074C29.9387 6.65422 29.9368 6.6177 29.9349 6.58118V6.54082C29.3563 6.91563 29.4813 7.39423 29.6196 7.6614L29.6293 7.67101C29.7926 7.55569 29.9041 7.52301 29.9752 7.52109V7.52301ZM29.4486 7.81325L29.437 7.7921C29.3409 7.69408 29.1852 7.60182 28.9469 7.58836C28.8239 7.5826 28.7239 7.64026 28.6547 7.73252C28.6086 7.79403 28.5759 7.87283 28.5586 7.95741C28.7412 7.99777 28.9046 8.06696 29.043 8.14385C29.1737 8.03621 29.3159 7.91896 29.4467 7.81325H29.4486ZM28.8585 8.29762C28.7682 8.25341 28.6663 8.21304 28.5548 8.18613C28.5586 8.21497 28.5644 8.24188 28.574 8.26878C28.5817 8.29762 28.5932 8.32645 28.6048 8.35528C28.6605 8.36105 28.7143 8.36873 28.7643 8.37642L28.8585 8.29762ZM27.5938 9.70843C27.5649 9.63347 27.5457 9.53929 27.5399 9.42012C27.4285 9.38744 27.3112 9.36053 27.1959 9.34131C27.1382 9.63924 27.2036 9.91025 27.3093 10.1351C27.3266 10.139 27.3458 10.1428 27.3631 10.1467C27.3939 10.0967 27.4246 10.0467 27.4573 9.99483C27.5284 9.88142 27.5688 9.78916 27.5938 9.70651V9.70843ZM26.9883 10.7733C26.8595 10.6426 26.6769 10.5138 26.477 10.4292L26.4482 10.4177C26.3751 10.4542 26.3059 10.5023 26.2406 10.5618C26.3194 10.706 26.4194 10.8386 26.5097 10.9482C26.7327 10.8329 26.9422 10.8482 26.9422 10.8482C26.9422 10.8482 26.9575 10.8213 26.9864 10.7714L26.9883 10.7733ZM26.329 11.077C26.2502 10.9809 26.1676 10.8675 26.0926 10.7425C26.0791 10.7637 26.0657 10.7848 26.0522 10.8079C25.9484 10.9943 25.9023 11.1558 25.8927 11.2942C25.985 11.3019 26.0715 11.3172 26.1483 11.3345C26.1695 11.2769 26.206 11.2096 26.2733 11.1346C26.2925 11.1135 26.3098 11.0943 26.329 11.077ZM26.1272 11.5594C26.0638 11.544 25.9888 11.5287 25.91 11.521C25.9292 11.5998 25.9619 11.6651 25.9965 11.7189C26.0176 11.7016 26.0369 11.6882 26.0561 11.6805C26.1214 11.6536 26.1272 11.6152 26.1253 11.5594H26.1272ZM25.712 12.113C25.6428 12.1053 25.5525 12.0995 25.4545 12.0995C25.4967 12.186 25.5429 12.261 25.5871 12.3244C25.6025 12.3013 25.6198 12.2783 25.6371 12.2552C25.6371 12.2552 25.6659 12.1956 25.712 12.113ZM25.4564 12.5243C25.3795 12.4224 25.2911 12.284 25.218 12.1168C25.1585 12.1264 25.0989 12.1399 25.0412 12.1572C25.0105 12.3244 25.0316 12.4801 25.0873 12.6166C25.0969 12.6416 25.1085 12.6646 25.1219 12.6896L25.1488 12.6915C25.2142 12.6992 25.2776 12.7107 25.3391 12.73C25.3737 12.6646 25.4122 12.5954 25.4564 12.5243ZM24.7644 14.8789C24.7375 14.8846 24.7087 14.8923 24.6799 14.9039C24.6972 14.9173 24.7145 14.9308 24.7337 14.9442C24.7433 14.9231 24.7548 14.9 24.7663 14.8808L24.7644 14.8789ZM24.6491 15.1595C24.5857 15.1211 24.5242 15.0768 24.4665 15.023C24.4146 15.0788 24.3839 15.1499 24.3762 15.2287C24.3685 15.3056 24.38 15.3902 24.4088 15.4709C24.4665 15.4517 24.5242 15.4363 24.5818 15.4247C24.603 15.3306 24.6241 15.2422 24.651 15.1595H24.6491ZM24.5338 15.6669L24.5222 15.6708L24.5319 15.6823L24.5338 15.6669ZM24.4415 16.3454C24.3935 16.405 24.355 16.4723 24.33 16.5415C24.2877 16.6664 24.2916 16.8067 24.3627 16.9528L24.3685 16.9663C24.3935 16.751 24.4165 16.5434 24.4396 16.3454H24.4415ZM24.3262 17.3199C24.3089 17.2988 24.2935 17.2738 24.2762 17.2488C24.1647 17.2776 24.0494 17.3142 23.9398 17.3565C24.009 17.5525 24.1224 17.7082 24.2531 17.8312C24.2801 17.6582 24.305 17.4872 24.3262 17.3199ZM24.1032 18.6443C24.0283 18.6443 23.9533 18.6481 23.8783 18.6577L23.8476 18.6616C23.8034 18.7308 23.7669 18.8076 23.7419 18.8922C23.8437 18.9518 23.9495 19.0018 24.0513 19.0421C24.0629 18.9114 24.0802 18.7788 24.1032 18.6423V18.6443ZM24.036 19.2747C23.9302 19.2343 23.8168 19.1844 23.7054 19.1248C23.7034 19.1498 23.7034 19.1748 23.7054 19.2017C23.7111 19.415 23.7534 19.5784 23.8149 19.7014C23.8899 19.6649 23.9629 19.6361 24.0302 19.6149C24.0283 19.5054 24.0302 19.392 24.036 19.2766V19.2747ZM24.0379 19.8456C24.0071 19.8571 23.9764 19.8706 23.9456 19.884C23.9783 19.9167 24.011 19.9436 24.0456 19.9667C24.0417 19.9263 24.0398 19.8859 24.0379 19.8456ZM24.1071 20.4818C24.0398 20.5106 23.9475 20.5567 23.8495 20.6144C23.9629 20.6874 24.0725 20.7413 24.1628 20.7778C24.1436 20.6855 24.1244 20.5875 24.1071 20.4837V20.4818ZM24.2262 21.0373C24.1032 20.9969 23.8803 20.9123 23.6554 20.7509C23.6073 20.7893 23.5631 20.8316 23.5247 20.8758C23.5843 21.0353 23.6804 21.1584 23.7976 21.2468C23.8188 21.2622 23.8418 21.2775 23.863 21.291L23.888 21.2795C24.009 21.2237 24.1397 21.191 24.2685 21.1872C24.2551 21.1411 24.2397 21.0911 24.2262 21.0373ZM24.4876 23.0209C24.3454 22.9844 24.2224 22.9132 24.1263 22.8248L24.1109 22.8114C24.0744 22.8056 24.0398 22.796 24.0033 22.7864L23.9648 22.7748C24.0705 23.1612 24.282 23.3323 24.4973 23.3976C24.5242 23.3841 24.5511 23.3726 24.578 23.3611C24.5415 23.2419 24.5126 23.1285 24.4857 23.0209H24.4876ZM24.6722 23.6571C24.6241 23.6552 24.5761 23.6494 24.5261 23.6417C24.4607 23.6878 24.3935 23.7493 24.33 23.832C24.257 23.93 24.2493 24.0473 24.2877 24.1549C24.3147 24.2279 24.3608 24.2991 24.4223 24.3587C24.5453 24.2395 24.6779 24.1491 24.8067 24.078C24.7721 23.9704 24.7279 23.8339 24.6702 23.6552L24.6722 23.6571ZM24.8759 24.2971C24.7875 24.349 24.6972 24.4125 24.6126 24.4894C24.6376 24.5009 24.6645 24.5124 24.6914 24.5201C24.7202 24.5297 24.751 24.5374 24.7817 24.5413C24.8221 24.4913 24.8625 24.4471 24.9009 24.4067C24.8971 24.3779 24.8874 24.3433 24.8759 24.2971ZM24.8163 25.264C24.8144 25.2947 24.8163 25.3255 24.8202 25.3562C24.8259 25.4062 24.8394 25.4562 24.8605 25.5042C24.8413 25.4216 24.8259 25.3408 24.8163 25.264ZM25.0508 26.0424C24.972 26.1116 24.8932 26.1846 24.8221 26.2634C25.0085 26.446 25.2257 26.5422 25.441 26.5883C25.2776 26.4345 25.1488 26.2442 25.0508 26.0424ZM25.9158 27.2245C25.7332 27.2572 25.5179 27.3398 25.3314 27.4628L25.3065 27.4801C25.2968 27.5609 25.2968 27.6454 25.3122 27.7319C25.541 27.7512 25.7716 27.7281 25.9388 27.7012C25.9542 27.5493 25.958 27.386 25.9177 27.2245H25.9158ZM25.9042 27.9318C25.7543 27.953 25.5698 27.9664 25.3776 27.9587C25.3872 27.9818 25.3987 28.0049 25.4102 28.0279C25.5083 28.2182 25.6178 28.347 25.7255 28.4297C25.7735 28.3681 25.8235 28.3143 25.8716 28.2682C25.8619 28.1817 25.8812 28.0664 25.9023 27.9338L25.9042 27.9318ZM25.9388 28.5238L25.9254 28.5392C25.9331 28.5411 25.9388 28.5431 25.9465 28.545L25.9388 28.5238ZM26.2252 29.1408C26.2022 29.1716 26.1791 29.2043 26.156 29.2389C26.2022 29.2446 26.2483 29.2485 26.2906 29.2504C26.2675 29.2139 26.2464 29.1773 26.2233 29.1408H26.2252ZM26.452 29.4753C26.3348 29.4791 26.1925 29.4733 26.0407 29.4464C26.0157 29.5022 25.9926 29.5579 25.9773 29.6156C26.1003 29.7328 26.2406 29.802 26.3848 29.8309C26.4117 29.8366 26.4366 29.8405 26.4636 29.8424L26.4809 29.8212C26.5289 29.7636 26.5827 29.7098 26.6423 29.6636C26.5789 29.6175 26.5155 29.5522 26.452 29.4733V29.4753ZM27.8244 31.1187C27.6649 31.159 27.5053 31.1513 27.3669 31.111L27.3477 31.1052C27.3131 31.1148 27.2766 31.1225 27.2401 31.1302L27.1997 31.136C27.4035 31.3685 27.6072 31.4589 27.7917 31.4723C27.8206 31.3724 27.8648 31.2878 27.9128 31.2186C27.8821 31.1859 27.8513 31.1533 27.8225 31.1206L27.8244 31.1187ZM28.0781 31.3743C28.0647 31.3954 28.0531 31.4185 28.0416 31.4435C28.0704 31.4358 28.0973 31.4262 28.1243 31.4147C28.1089 31.4012 28.0935 31.3878 28.0781 31.3743ZM28.3222 31.5723C28.2223 31.6261 28.105 31.6722 27.9782 31.6934C27.9762 31.7203 27.9743 31.7472 27.9743 31.7741C27.9743 31.8971 28.0378 31.9951 28.1339 32.0586C28.1992 32.1009 28.278 32.1297 28.3645 32.1412C28.3914 31.9759 28.4433 31.8241 28.5029 31.6934C28.4414 31.6549 28.3818 31.6146 28.3241 31.5723H28.3222ZM28.6951 31.8068C28.6528 31.9048 28.6144 32.0144 28.5913 32.1335C28.6182 32.1278 28.6471 32.1201 28.674 32.1105C28.7028 32.1009 28.7316 32.0893 28.7585 32.0739C28.7624 31.9913 28.7701 31.9144 28.7778 31.8471C28.7489 31.8337 28.722 31.8202 28.6951 31.8049V31.8068ZM29.1449 32.0432C29.1257 32.0682 29.1045 32.0912 29.0834 32.1124V32.1278C29.0815 32.2373 29.0949 32.3488 29.1295 32.4488C29.1622 32.5468 29.2102 32.6352 29.2775 32.7063C29.3678 32.8005 29.4928 32.862 29.6542 32.8678C29.5389 32.6198 29.4966 32.2969 29.1468 32.0451L29.1449 32.0432ZM29.8618 33.158C29.8426 33.2483 29.8291 33.3387 29.8195 33.4309C29.9426 33.4482 30.0579 33.4444 30.1694 33.4271C30.0521 33.3425 29.9483 33.2483 29.8637 33.158H29.8618ZM31.1016 33.7673C31.0401 33.8653 30.9843 33.9749 30.944 34.0883L30.9344 34.1171C30.9747 34.1882 31.0266 34.2555 31.09 34.317C31.2111 34.2421 31.3226 34.1537 31.4187 34.0672C31.3399 33.9326 31.2477 33.8192 31.1035 33.7673H31.1016ZM31.5244 34.2671C31.4495 34.3305 31.3668 34.3958 31.2784 34.4554C31.2996 34.467 31.3226 34.4804 31.3457 34.4919C31.4975 34.5669 31.6321 34.6053 31.7493 34.6188C31.6551 34.515 31.5879 34.3901 31.5244 34.2651V34.2671ZM32.916 35.1243C32.8507 35.1685 32.7757 35.2127 32.695 35.255C32.7065 35.3146 32.7238 35.3742 32.745 35.428C32.9141 35.4491 33.0679 35.4203 33.2005 35.3569C33.2255 35.3454 33.2486 35.3319 33.2716 35.3184L33.2735 35.2915C33.2755 35.2492 33.2812 35.2089 33.287 35.1666C33.1832 35.1647 33.0544 35.1493 32.916 35.1224V35.1243ZM34.7132 35.8297C34.6978 35.8489 34.6805 35.8682 34.6632 35.8874L34.6344 35.9162C34.9746 35.9893 35.2072 35.9181 35.3648 35.7913C35.188 35.8297 34.9477 35.8605 34.7132 35.8297ZM25.8408 11.9073L25.8466 11.8996C25.7735 11.8054 25.7063 11.6824 25.6774 11.5248C25.5486 11.5402 25.4218 11.5825 25.3103 11.6709C25.3238 11.7459 25.343 11.817 25.3641 11.8842C25.5736 11.8727 25.7582 11.8958 25.8408 11.9073ZM27.1767 10.4581L27.2055 10.4119C27.1901 10.3889 27.1767 10.3639 27.1632 10.3389C27.1325 10.335 27.0998 10.3293 27.069 10.3273C27.1017 10.3735 27.1382 10.4177 27.1786 10.46L27.1767 10.4581ZM32.2837 5.78736C32.326 5.77198 32.3682 5.7566 32.4105 5.74315C32.4297 5.66434 32.4605 5.58169 32.5105 5.49904C32.4048 5.42408 32.2817 5.37026 32.1395 5.3645C32.0991 5.42985 32.0665 5.4952 32.0376 5.55863C32.1357 5.63744 32.2202 5.72009 32.2837 5.78736ZM34.4153 5.24725C34.4556 5.23379 34.4979 5.22226 34.5441 5.20881C34.6325 5.03005 34.7593 4.85899 34.9419 4.71675C34.915 4.69176 34.89 4.66678 34.8631 4.64371C34.7728 4.71483 34.6921 4.79748 34.6229 4.8859C34.5344 4.99738 34.4652 5.11847 34.4172 5.24533L34.4153 5.24725ZM38.5958 4.92626C38.6862 4.90512 38.7804 4.8859 38.8822 4.86667C38.8918 4.74943 38.9207 4.62065 38.9706 4.49379C38.9514 4.48418 38.9322 4.47649 38.913 4.47072C38.8476 4.44958 38.7746 4.44958 38.7054 4.46688C38.6573 4.47841 38.6093 4.49955 38.5632 4.52646C38.5439 4.61488 38.542 4.7033 38.5555 4.78787C38.5632 4.83592 38.5766 4.88205 38.5958 4.92626ZM46.8954 6.62731C46.9435 6.64461 46.9915 6.66191 47.0338 6.68113C47.078 6.70035 47.1242 6.72342 47.1703 6.74648C47.2414 6.6523 47.3318 6.56004 47.4394 6.47931C47.4279 6.46009 47.4163 6.44472 47.4029 6.42742C47.3567 6.37552 47.2972 6.33708 47.228 6.31594C47.1799 6.30056 47.128 6.29287 47.0761 6.29287C47.0127 6.35822 46.9646 6.43126 46.932 6.51199C46.9166 6.55043 46.9051 6.58887 46.8974 6.62924L46.8954 6.62731ZM47.3664 6.85412C47.3952 6.87142 47.424 6.88872 47.4529 6.9041C47.4586 6.8868 47.4644 6.86758 47.4682 6.84836C47.4798 6.80415 47.4855 6.76378 47.4894 6.72534C47.4432 6.76763 47.401 6.80991 47.3664 6.85412ZM47.6451 7.02711L47.6681 7.04249C47.72 6.97906 47.7796 6.91947 47.8411 6.86758L47.8565 6.85412C47.8411 6.75033 47.8065 6.64654 47.7508 6.54274C47.7335 6.55043 47.7181 6.56004 47.7027 6.56965C47.72 6.6696 47.7143 6.78108 47.6835 6.9041C47.672 6.9483 47.6585 6.98867 47.6451 7.02519V7.02711ZM48.9905 7.62296C49.0117 7.63449 49.0309 7.64603 49.0482 7.65564C49.1404 7.61527 49.25 7.58452 49.3749 7.58067C49.3807 7.45189 49.3576 7.31927 49.2865 7.19625C49.2116 7.19818 49.1385 7.20587 49.0674 7.2174C49.0501 7.3827 49.0155 7.5307 48.9886 7.62296H48.9905ZM53.79 13.4296C53.8073 13.4623 53.8227 13.495 53.8381 13.5276C53.8592 13.5276 53.8803 13.5276 53.9034 13.5296H53.9226C53.9822 13.4431 54.0283 13.3431 54.0553 13.2297C54.038 13.2239 54.0187 13.2201 54.0014 13.2163C53.9515 13.2931 53.8823 13.3643 53.7881 13.4296H53.79ZM54.2705 14.8404C54.2782 14.875 54.284 14.9077 54.2917 14.9423C54.3762 14.975 54.4627 15.023 54.5454 15.0961C54.6357 15.0057 54.7107 14.8923 54.7414 14.7539C54.6838 14.704 54.6261 14.6598 54.5665 14.6213C54.4589 14.7155 54.3513 14.7905 54.2705 14.8424V14.8404ZM54.3282 21.2641C54.334 21.3621 54.334 21.4601 54.3282 21.562C54.4474 21.5831 54.5742 21.6235 54.6972 21.6831C54.7088 21.6658 54.7184 21.6466 54.7261 21.6274C54.751 21.5639 54.7587 21.4928 54.7472 21.4217C54.7395 21.3717 54.7241 21.3217 54.6992 21.2756C54.6127 21.2487 54.5242 21.2391 54.4397 21.2449C54.4012 21.2487 54.3628 21.2545 54.3263 21.2641H54.3282ZM52.3753 29.3369C52.36 29.3657 52.3465 29.3945 52.3311 29.4234C52.3734 29.4368 52.4157 29.4541 52.4561 29.4753L52.4868 29.4926C52.458 29.4388 52.4195 29.3869 52.3734 29.3388L52.3753 29.3369ZM52.2216 29.6252C52.1697 29.7155 52.1197 29.7963 52.0736 29.8693C52.1716 29.9519 52.2677 30.0577 52.3484 30.1826C52.3677 30.173 52.3849 30.1615 52.4022 30.1499C52.458 30.1076 52.5003 30.0519 52.5272 29.9846C52.5464 29.9385 52.5579 29.8866 52.5637 29.8347C52.5041 29.7674 52.433 29.7117 52.358 29.6732C52.3158 29.6521 52.2696 29.6348 52.2235 29.6252H52.2216ZM51.9467 30.0519C51.9217 30.0846 51.8987 30.1153 51.8775 30.1442C51.9083 30.1576 51.9409 30.173 51.9794 30.1845C52.0217 30.1999 52.062 30.2095 52.1005 30.2153C52.0524 30.1518 52.0005 30.098 51.9486 30.0519H51.9467ZM51.7257 30.3171L51.718 30.3248C51.7968 30.394 51.8679 30.4728 51.9294 30.5574L51.9409 30.5728C52.0447 30.5651 52.1524 30.5401 52.2581 30.4921C52.2504 30.4748 52.2427 30.4575 52.235 30.4421C52.1351 30.4517 52.0236 30.4382 51.9025 30.396C51.8352 30.3729 51.7756 30.346 51.7237 30.3171H51.7257ZM51.1221 31.6549C51.1029 31.6876 51.0818 31.7184 51.0625 31.7491C51.0856 31.8318 51.0991 31.9259 51.0952 32.0278C51.224 32.0432 51.3585 32.0317 51.4854 31.9702C51.4892 31.8952 51.4893 31.8202 51.4816 31.751C51.3393 31.7241 51.2125 31.6857 51.1221 31.653V31.6549ZM49.792 33.1657C49.7843 33.1772 49.7767 33.1907 49.7671 33.2041C49.7767 33.3368 49.7709 33.4713 49.7459 33.6059C49.7267 33.7116 49.6979 33.8173 49.6594 33.9192C49.8228 33.9192 49.9766 33.8788 50.1092 33.775C50.2745 33.6462 50.3514 33.479 50.3706 33.3002L50.3591 33.2964C50.2495 33.2656 50.1419 33.2176 50.0419 33.1561C49.9593 33.1676 49.8747 33.1695 49.792 33.1638V33.1657ZM49.5422 33.4348C49.5076 33.4636 49.4672 33.4925 49.4249 33.5213C49.4076 33.6347 49.3749 33.7519 49.323 33.8692C49.3576 33.8788 49.3922 33.8884 49.4268 33.8942C49.473 33.7885 49.5056 33.677 49.5249 33.5674C49.5326 33.5232 49.5383 33.479 49.5422 33.4348ZM44.1776 26.2827C44.193 26.2269 44.2103 26.1712 44.2333 26.1174C44.1853 26.127 44.1372 26.1404 44.0911 26.1577C44.1122 26.2019 44.1411 26.2442 44.1776 26.2827ZM40.1431 20.23C40.0701 20.0935 40.0239 19.9551 39.9932 19.8263C39.9721 19.834 39.949 19.8398 39.9278 19.8475C39.8913 19.9763 39.8759 20.1127 39.9029 20.2454C39.9836 20.2646 40.0643 20.2569 40.1431 20.2319V20.23ZM38.2768 18.3098C38.2614 18.2022 38.2825 18.1214 38.2998 18.058C38.2556 18.1042 38.2056 18.1464 38.1499 18.1868C38.1864 18.231 38.2287 18.2733 38.2748 18.3098H38.2768ZM33.8925 35.3934C33.8271 35.3338 33.7675 35.2781 33.7118 35.2358C33.7483 35.33 33.8021 35.4222 33.8771 35.5087C33.8905 35.4972 33.9059 35.4857 33.9194 35.4722C33.9098 35.4472 33.9001 35.4203 33.8925 35.3934ZM32.4394 35.0032C32.3125 34.9609 32.1876 34.911 32.078 34.8571C32.1011 34.9763 32.151 35.0916 32.2395 35.1897C32.3125 35.1724 32.3836 35.1493 32.449 35.1243C32.4451 35.082 32.4413 35.0417 32.4394 35.0032ZM30.5653 33.652C30.5211 33.6347 30.4769 33.6155 30.4327 33.5924C30.2443 33.6558 30.0329 33.6866 29.8042 33.6578C29.8042 33.6943 29.8061 33.7308 29.8099 33.7654C29.9253 33.7788 30.0406 33.7788 30.1521 33.7654C30.2981 33.7481 30.4385 33.7096 30.5653 33.652ZM27.5457 30.7554C27.4842 30.6535 27.4304 30.5516 27.39 30.4498C27.3016 30.4901 27.2036 30.5247 27.0978 30.5478C27.0998 30.5689 27.1036 30.5901 27.1094 30.6093C27.1286 30.6766 27.169 30.7362 27.2209 30.7842C27.2574 30.8188 27.3016 30.8476 27.3496 30.8688C27.4227 30.84 27.488 30.8015 27.5457 30.7535V30.7554ZM27.2977 30.248C27.2824 30.2191 27.267 30.1922 27.2516 30.1672C27.242 30.1788 27.2324 30.1903 27.2228 30.2018C27.194 30.2364 27.1709 30.271 27.1517 30.3056C27.2036 30.2902 27.2516 30.271 27.2977 30.2499V30.248ZM27.1132 29.9885C27.1017 29.9789 27.0921 29.9673 27.0806 29.9596C27.019 29.9865 26.9556 30.0096 26.8903 30.0288L26.871 30.0346C26.8422 30.1345 26.8288 30.2441 26.8364 30.3614C26.8557 30.3614 26.873 30.3594 26.8922 30.3575C26.9172 30.2595 26.9691 30.1595 27.0498 30.0615C27.0709 30.0365 27.0921 30.0135 27.1113 29.9904L27.1132 29.9885ZM26.1061 28.9294C26.0849 28.8871 26.0638 28.8448 26.0445 28.8025C25.9657 28.7948 25.8812 28.7756 25.7947 28.7391C25.737 28.8544 25.7005 28.9851 25.7139 29.1254C25.7831 29.1562 25.8523 29.1793 25.9215 29.1985C25.983 29.0947 26.0503 29.0024 26.1061 28.9313V28.9294ZM25.7543 26.8958C25.7428 26.8804 25.7312 26.8651 25.7178 26.8497C25.689 26.8478 25.6582 26.8478 25.6294 26.8439C25.6082 26.867 25.5871 26.892 25.5659 26.917C25.6294 26.915 25.6928 26.9074 25.7543 26.8939V26.8958ZM24.4011 22.5999C24.3819 22.4692 24.3704 22.3501 24.3627 22.2443C24.2877 22.2386 24.2089 22.227 24.1301 22.2097C24.1224 22.229 24.1186 22.2501 24.1148 22.2713C24.1032 22.3405 24.1128 22.4096 24.1397 22.4769C24.159 22.5231 24.184 22.5692 24.2186 22.6095C24.2801 22.6153 24.3435 22.6115 24.4031 22.5999H24.4011ZM24.355 22.0214C24.355 22.0041 24.355 21.9868 24.355 21.9695C24.33 21.9829 24.307 21.9983 24.2858 22.0118C24.3089 22.0156 24.332 22.0175 24.355 22.0195V22.0214ZM24.3704 21.7177C24.3723 21.7004 24.3742 21.685 24.3762 21.6716C24.307 21.6696 24.2378 21.662 24.1686 21.6504L24.1494 21.6466C24.0802 21.7235 24.0206 21.8176 23.9764 21.9253C23.9937 21.933 24.011 21.9387 24.0283 21.9464C24.0936 21.8695 24.184 21.8023 24.2993 21.7484C24.3243 21.7369 24.3473 21.7273 24.3704 21.7177ZM24.0706 20.2607L24.0686 20.2434C23.961 20.1992 23.8437 20.1281 23.7438 20.0128C23.6419 20.0916 23.5516 20.1935 23.5035 20.3261C23.5535 20.3838 23.6054 20.4357 23.6592 20.4818C23.8264 20.3703 23.9917 20.2953 24.0725 20.2627L24.0706 20.2607ZM24.9586 14.6444C24.751 14.5194 24.6203 14.3368 24.5626 14.1466L24.5568 14.1273C24.5299 14.1043 24.503 14.0793 24.478 14.0524L24.4511 14.0235C24.3646 14.3407 24.4127 14.5694 24.5165 14.7328C24.6799 14.6598 24.8298 14.6386 24.9586 14.6463V14.6444ZM25.1085 14.4733C25.1277 14.4349 25.1373 14.3926 25.1431 14.3503C25.0777 14.3522 25.0105 14.3445 24.9451 14.3272L24.9105 14.3176C24.9624 14.3772 25.0297 14.4291 25.1085 14.4714V14.4733ZM25.1315 14.1273C25.1181 14.0255 25.0969 13.9101 25.0873 13.7756C25.0181 13.7295 24.9509 13.6756 24.8855 13.6141C24.8682 13.6276 24.8548 13.643 24.8413 13.6583C24.7971 13.7122 24.7683 13.7775 24.7567 13.8486C24.7491 13.8986 24.7491 13.9505 24.7567 14.0024C24.8298 14.0543 24.9124 14.0908 24.9951 14.112C25.0393 14.1235 25.0854 14.1273 25.1315 14.1273ZM25.1239 13.3008C25.1354 13.2528 25.1469 13.2009 25.1642 13.149C25.0739 13.1797 24.9855 13.2278 24.9009 13.2931C24.9124 13.3085 24.922 13.322 24.9336 13.3374C24.9912 13.3181 25.0547 13.3066 25.1239 13.3008ZM46.6629 34.9013C46.7398 34.9782 46.8455 35.0493 46.9973 35.0936C47.1146 35.1282 47.226 35.0955 47.3145 35.0224C47.374 34.9725 47.424 34.9052 47.4605 34.8264C47.3164 34.7572 47.1934 34.6688 47.0877 34.5804C47.0761 34.5938 47.0646 34.6053 47.0511 34.6188C46.93 34.7437 46.7993 34.8379 46.6629 34.9033V34.9013ZM39.1705 19.2017C39.1148 19.1959 39.0591 19.1844 39.0033 19.1671C39.0129 19.2709 39.0379 19.3708 39.0802 19.4592C39.1052 19.5111 39.1455 19.5515 39.1955 19.5842V19.5765C39.1878 19.4515 39.2032 19.3266 39.232 19.2055C39.2109 19.2055 39.1917 19.2036 39.1705 19.2017ZM39.6857 19.8936C39.6261 19.8994 39.5684 19.9013 39.5107 19.8975C39.5473 19.9667 39.5972 20.0339 39.6607 20.0974C39.6626 20.0282 39.6703 19.959 39.6837 19.8917L39.6857 19.8936ZM44.7523 33.577C44.7465 33.7077 44.7715 33.8423 44.8388 33.9787C44.9484 34.1998 45.1329 34.4016 45.3539 34.5515C45.2367 34.3747 45.2098 34.023 45.2175 33.6674C45.1848 33.6654 45.1521 33.6635 45.1213 33.6616C44.9945 33.6481 44.8696 33.6212 44.7523 33.5789V33.577ZM44.0546 25.9386C44.1622 25.904 44.2699 25.8867 44.3564 25.879C44.291 25.8464 44.2314 25.806 44.1795 25.7579C44.1161 25.806 44.07 25.8637 44.0546 25.9386ZM43.3434 22.2405C43.3357 22.0829 43.3742 21.9387 43.4337 21.81C43.2723 21.785 43.1377 21.7408 43.0243 21.685C43.0224 21.7138 43.0224 21.7427 43.0224 21.7734C43.0263 21.9464 43.1051 22.079 43.2223 22.1694C43.2588 22.1963 43.2992 22.2213 43.3434 22.2405ZM42.6072 21.2948C42.5438 21.1833 42.5054 21.0642 42.4823 20.9508C42.4689 20.9911 42.4516 21.0315 42.4343 21.068C42.3766 21.1853 42.2939 21.2891 42.1902 21.3698C42.2382 21.3852 42.292 21.3909 42.3516 21.3852C42.4496 21.3775 42.5342 21.3448 42.6072 21.2948ZM50.3687 33.0734L50.3667 33.0638L50.3552 33.0696L50.3667 33.0734H50.3687ZM50.5705 32.935C50.582 32.9946 50.5897 33.0542 50.5936 33.1138C50.6551 33.1157 50.7166 33.108 50.7781 33.0888C50.9203 33.0465 51.0606 32.9466 51.1913 32.7678C51.322 32.5891 51.4008 32.4084 51.445 32.2354C51.3124 32.2719 51.1798 32.2738 51.0529 32.2546C51.003 32.418 50.903 32.5968 50.7281 32.787C50.6993 32.8178 50.6704 32.8466 50.6397 32.8755C50.6166 32.8966 50.5936 32.9158 50.5705 32.9331V32.935ZM51.7065 31.8029C51.7122 31.7972 51.7161 31.7914 51.7218 31.7856H51.7065V31.8049V31.8029ZM52.3311 31.0783C52.3138 31.0802 52.2965 31.0802 52.2792 31.0821C52.235 31.0841 52.1889 31.0821 52.1428 31.0783C52.162 31.209 52.1581 31.3435 52.1235 31.4781C52.1908 31.432 52.2446 31.3666 52.2792 31.2744C52.3042 31.209 52.3196 31.1417 52.3311 31.0764V31.0783ZM52.3407 30.8515C52.3369 30.8034 52.3311 30.7573 52.3215 30.7112C52.2331 30.7477 52.1447 30.7746 52.0563 30.7881C52.064 30.8054 52.0716 30.8246 52.0793 30.8419C52.1428 30.8553 52.2081 30.8592 52.2696 30.8573C52.2927 30.8573 52.3177 30.8534 52.3407 30.8515ZM52.5253 30.6016C52.5387 30.6554 52.5502 30.7112 52.556 30.7688C52.6002 30.7362 52.6367 30.6958 52.6617 30.6458C52.6983 30.5747 52.7194 30.5036 52.7328 30.4344C52.6656 30.4997 52.5964 30.5555 52.5253 30.6035V30.6016ZM52.7002 30.1384L52.7156 30.1192L52.7136 30.1134L52.7002 30.1384ZM54.628 25.3812L54.6165 25.3851C54.5069 25.4158 54.3897 25.4312 54.2724 25.4293C54.1994 25.4888 54.1206 25.5388 54.036 25.5792C54.1244 25.6964 54.1975 25.8271 54.2513 25.9655C54.2897 26.0655 54.3205 26.1712 54.3397 26.2788C54.4781 26.1943 54.5896 26.0789 54.6492 25.9213C54.7241 25.7253 54.7011 25.5427 54.6261 25.3793L54.628 25.3812ZM53.5228 26.7055V26.7075C53.5766 26.9304 53.5363 27.1245 53.4383 27.286C53.421 27.3148 53.4017 27.3417 53.3806 27.3687C53.6151 27.2207 53.7996 27.0035 53.8188 26.6786C53.7208 26.694 53.6209 26.7017 53.5248 26.7075L53.5228 26.7055ZM54.0283 26.4115C54.0629 26.4018 54.0975 26.3903 54.1302 26.3788C54.1129 26.2654 54.0841 26.1539 54.0437 26.0482C53.988 25.9059 53.913 25.7772 53.8188 25.6657L53.8054 25.6695C53.7746 25.6791 53.7439 25.6868 53.7131 25.6945C53.865 25.8848 53.988 26.1212 54.0264 26.4115H54.0283ZM54.505 25.1832L54.4993 25.1755L54.4916 25.1852L54.505 25.1832ZM54.6069 24.9603C54.6473 25.0045 54.6857 25.0525 54.7184 25.1006C54.7722 25.0698 54.8202 25.0314 54.8625 24.9833C54.9606 24.8738 55.0298 24.7142 55.049 24.4951C55.0682 24.2741 55.0413 24.0799 54.9875 23.9089C54.8933 24.0088 54.7818 24.0799 54.6646 24.1299C54.7068 24.2952 54.7145 24.499 54.6626 24.7546C54.6549 24.7969 54.6453 24.8353 54.6338 24.8757C54.6242 24.9045 54.6165 24.9334 54.605 24.9603H54.6069ZM54.1456 26.6017C54.111 26.6133 54.0764 26.6229 54.0399 26.6306C54.0399 26.6421 54.0399 26.6517 54.0399 26.6632C54.0168 27.3206 53.4786 27.6262 53.0039 27.7684L53.0096 27.7761C53.0442 27.828 53.0731 27.8838 53.0961 27.9395C53.3229 27.8857 53.5593 27.7627 53.7746 27.532C54.0149 27.2745 54.1283 26.965 54.1437 26.6594C54.1437 26.6402 54.1456 26.621 54.1456 26.6017ZM54.9875 23.4014C54.9894 23.3938 54.9894 23.3861 54.9913 23.3784L54.9779 23.3861L54.9875 23.4014ZM55.1451 22.4577C55.1316 22.4673 55.1162 22.4788 55.1028 22.4885C55.0663 22.5134 55.0259 22.5365 54.9836 22.5557C55.0682 22.6557 55.1335 22.7729 55.1758 22.9075C55.2104 22.8344 55.222 22.7499 55.2027 22.6538C55.1893 22.5846 55.1701 22.5192 55.1432 22.4577H55.1451ZM55.0644 21.9503C55.1047 21.9887 55.1432 22.031 55.1778 22.0771C55.1989 22.0271 55.2085 21.9733 55.2047 21.9157C55.1989 21.8369 55.1816 21.7638 55.1547 21.6985C55.1316 21.7888 55.1009 21.8734 55.0644 21.9503ZM54.9721 21.464L54.9759 21.439L54.9702 21.4351L54.9721 21.464ZM55.0951 16.4569L55.0855 16.4646C54.9932 16.5319 54.8894 16.5857 54.7799 16.628C54.7318 16.7087 54.6761 16.7837 54.6107 16.8509C54.7337 16.9297 54.8472 17.0259 54.949 17.1373C55.0201 17.2181 55.0855 17.3065 55.1432 17.4007C55.2431 17.2738 55.3065 17.1258 55.3085 16.9586C55.3104 16.7491 55.2258 16.5857 55.097 16.4588L55.0951 16.4569ZM54.5223 18.083V18.0849C54.6492 18.2752 54.6799 18.4713 54.6453 18.6558C54.6396 18.6885 54.63 18.7211 54.6203 18.7519C54.7876 18.5328 54.8837 18.2637 54.7876 17.9523C54.7011 18.0004 54.6107 18.0446 54.5223 18.083ZM54.8933 17.6294C54.9221 17.6083 54.9509 17.5852 54.9779 17.564C54.9221 17.4622 54.8568 17.368 54.7799 17.2853C54.678 17.1719 54.5608 17.0778 54.4358 17.0066L54.4243 17.0143C54.3993 17.0335 54.3724 17.0508 54.3474 17.0701C54.5569 17.195 54.7549 17.3738 54.8933 17.6313V17.6294ZM54.9106 16.3108L54.9029 16.3051L54.901 16.3166L54.9125 16.3089L54.9106 16.3108ZM54.9279 16.0667C54.9817 16.0956 55.0336 16.1263 55.0836 16.159C55.122 16.1109 55.1547 16.0571 55.1778 15.9995C55.2316 15.863 55.2412 15.69 55.1816 15.4766C55.122 15.2633 55.0298 15.0903 54.9202 14.9481C54.8683 15.0749 54.7856 15.1806 54.6934 15.2671C54.7914 15.4074 54.8702 15.5958 54.9106 15.8534C54.9183 15.8957 54.9221 15.936 54.924 15.9764C54.926 16.0071 54.9279 16.036 54.9279 16.0667ZM55.072 17.7659C55.0432 17.787 55.0144 17.8101 54.9836 17.8293C54.9875 17.8389 54.9913 17.8504 54.9932 17.86C55.2008 18.4847 54.8049 18.9595 54.4108 19.2574L54.4185 19.2632C54.4704 19.2997 54.5166 19.342 54.5569 19.3862C54.751 19.2555 54.9298 19.0594 55.0509 18.7673C55.1854 18.4424 55.1835 18.1118 55.0893 17.8197C55.0836 17.8005 55.0778 17.7832 55.0701 17.7659H55.072ZM54.7414 14.4733C54.7395 14.4656 54.7395 14.4579 54.7376 14.4502L54.7261 14.4618L54.7414 14.4733ZM54.5569 13.5334C54.5473 13.5488 54.5377 13.5622 54.5281 13.5776C54.5012 13.6141 54.4723 13.6487 54.4416 13.6814C54.555 13.7468 54.6588 13.8333 54.7453 13.9428C54.7511 13.8621 54.7337 13.7794 54.6819 13.6949C54.6453 13.6353 54.603 13.5815 54.5588 13.5334H54.5569ZM54.3859 13.3854C54.3474 13.3585 54.3051 13.3354 54.2648 13.3143C54.2398 13.4065 54.2052 13.493 54.161 13.5699C54.1802 13.5738 54.1994 13.5795 54.2167 13.5853C54.2667 13.543 54.3109 13.495 54.3474 13.445C54.3609 13.4258 54.3743 13.4065 54.3859 13.3854ZM54.3051 13.0856C54.357 13.1086 54.407 13.1336 54.455 13.1644C54.457 13.1105 54.4474 13.0567 54.4243 13.0048C54.3916 12.9337 54.3493 12.8703 54.3013 12.8184C54.3109 12.9126 54.3128 13.001 54.3051 13.0856ZM54.0476 12.6627L54.0418 12.6396L54.036 12.6377L54.0476 12.6646V12.6627ZM50.7012 8.20343L50.6993 8.21497C50.6781 8.32645 50.6378 8.43793 50.5839 8.54172C50.6051 8.63398 50.6128 8.72624 50.6128 8.82043C50.7569 8.79352 50.9049 8.78775 51.0549 8.80121C51.1625 8.81082 51.2701 8.83196 51.3759 8.86271C51.3624 8.70126 51.3105 8.54941 51.1971 8.4264C51.0568 8.27263 50.8838 8.2092 50.7031 8.20343H50.7012ZM51.3855 9.78724H51.3874C51.6103 9.84106 51.766 9.96407 51.8641 10.1236C51.8814 10.1524 51.8967 10.1813 51.9121 10.212C51.8871 9.93716 51.7737 9.67384 51.4931 9.51046C51.4623 9.60464 51.4258 9.6969 51.3874 9.78724H51.3855ZM51.3509 9.20292C51.3585 9.16833 51.3643 9.13181 51.3682 9.09721C51.2586 9.06069 51.1471 9.0357 51.0337 9.02609C50.8819 9.01264 50.7319 9.02225 50.5916 9.05492L50.5897 9.06838C50.5839 9.09913 50.5782 9.12988 50.5705 9.16064C50.8088 9.11066 51.076 9.10682 51.3509 9.20292ZM50.4686 8.22458L50.459 8.2265L50.4648 8.23803L50.4686 8.22458ZM50.3148 8.03429C50.3725 8.01891 50.4321 8.00546 50.4917 7.99777C50.4878 7.93626 50.4763 7.87475 50.4532 7.81517C50.3994 7.67678 50.2899 7.54415 50.1015 7.42883C49.9131 7.31158 49.7267 7.24815 49.5499 7.21932C49.596 7.3481 49.6094 7.48073 49.5998 7.60758C49.7651 7.6441 49.9535 7.72868 50.1572 7.89013C50.1899 7.91704 50.2226 7.94395 50.2514 7.97086C50.2745 7.992 50.2937 8.01315 50.3148 8.03429ZM51.5738 9.18562C51.5681 9.22214 51.5604 9.25674 51.5527 9.29326C51.5623 9.29903 51.5719 9.30287 51.5815 9.30864C52.1581 9.62578 52.1889 10.2447 52.1024 10.731L52.112 10.7291C52.1754 10.7214 52.2369 10.7195 52.2985 10.7252C52.3523 10.4965 52.3504 10.2332 52.2408 9.93524C52.1197 9.60656 51.8929 9.36438 51.6276 9.21253C51.6103 9.20292 51.595 9.19331 51.5777 9.18562H51.5738ZM49.0962 6.99251C49.0905 6.98867 49.0847 6.9829 49.077 6.97906V6.99443L49.0943 6.99251H49.0962ZM48.3236 6.42742C48.3274 6.44472 48.3293 6.46201 48.3312 6.47931C48.337 6.52352 48.3389 6.56965 48.3389 6.61578C48.4677 6.58503 48.6023 6.57926 48.7387 6.60233C48.6888 6.5389 48.6176 6.48892 48.5235 6.46394C48.4562 6.44472 48.3889 6.43318 48.3236 6.42934V6.42742ZM48.0968 6.4351C48.0487 6.44279 48.0045 6.4524 47.9584 6.46586C48.0026 6.55043 48.0352 6.63692 48.0564 6.72342C48.0737 6.71381 48.091 6.70612 48.1083 6.69651C48.116 6.63116 48.116 6.56773 48.1083 6.50622C48.1064 6.48316 48.1025 6.45817 48.0968 6.43703V6.4351ZM47.8334 6.2698C47.8872 6.25251 47.9411 6.23713 47.9968 6.2256C47.9622 6.18523 47.918 6.15063 47.8661 6.12949C47.7931 6.09874 47.72 6.08144 47.6489 6.07567C47.72 6.13718 47.7815 6.20253 47.8334 6.2698ZM47.3567 6.13334L47.3356 6.11988L47.3298 6.1218L47.3567 6.13334ZM42.6476 4.24007L42.6515 4.2516C42.6918 4.35732 42.7168 4.47264 42.7264 4.58989C42.7918 4.65717 42.8494 4.73213 42.8975 4.81093C43.0051 4.71291 43.1301 4.62833 43.2646 4.56298C43.3607 4.51493 43.4626 4.47649 43.5683 4.44574C43.4722 4.31503 43.3473 4.21508 43.1858 4.16895C42.984 4.11129 42.8052 4.14973 42.6476 4.24007ZM44.0623 5.22611H44.0642C44.2814 5.15307 44.4794 5.17613 44.6466 5.2607C44.6773 5.27608 44.7062 5.29146 44.7331 5.31068C44.5659 5.08964 44.3333 4.92626 44.0085 4.93587C44.0315 5.03197 44.0488 5.13 44.0623 5.22611ZM43.724 4.7475C43.7105 4.71291 43.6971 4.68023 43.6836 4.64756C43.5721 4.67446 43.4626 4.71291 43.3626 4.76288C43.2262 4.83015 43.1031 4.91857 43.0013 5.02044L43.007 5.0339C43.0186 5.06273 43.0301 5.09348 43.0397 5.12231C43.2165 4.95317 43.4414 4.81093 43.7259 4.7475H43.724ZM42.2286 4.29773C42.269 4.25353 42.3132 4.21124 42.3593 4.1728C42.3247 4.12282 42.2805 4.07669 42.2305 4.03825C42.1133 3.94983 41.948 3.89409 41.7269 3.89602C41.5059 3.89602 41.3137 3.94022 41.1484 4.0075C41.256 4.09207 41.3367 4.19779 41.3963 4.31119C41.5578 4.25545 41.7615 4.22854 42.0191 4.25737C42.0614 4.26121 42.1017 4.2689 42.1421 4.27659C42.1729 4.28236 42.2017 4.29005 42.2286 4.29773ZM43.9047 4.61296C43.9181 4.64563 43.9316 4.68023 43.9431 4.71483C43.9546 4.71483 43.9642 4.71291 43.9758 4.71291C44.6331 4.67831 44.9849 5.18766 45.1675 5.64705L45.1752 5.64128C45.2232 5.60092 45.277 5.56824 45.3309 5.53941C45.2559 5.31644 45.1156 5.09348 44.8657 4.89935C44.5889 4.68408 44.2699 4.59758 43.9642 4.60911C43.945 4.60911 43.9258 4.61104 43.9066 4.61296H43.9047ZM40.6429 4.05363C40.6352 4.05363 40.6275 4.05171 40.6198 4.05171L40.6294 4.06516L40.6429 4.05363ZM39.6876 3.98059C39.6991 3.99404 39.7106 4.0075 39.7222 4.02095C39.751 4.05555 39.776 4.09399 39.7991 4.13243C39.8913 4.04017 40.0028 3.96329 40.1335 3.90947C40.0566 3.88256 39.9721 3.87679 39.8779 3.9037C39.8106 3.92293 39.7472 3.94983 39.6895 3.97867L39.6876 3.98059ZM39.4992 4.10745C39.4627 4.1382 39.43 4.17088 39.3973 4.20547C39.48 4.25353 39.553 4.31119 39.6165 4.3727C39.6261 4.3554 39.6357 4.34002 39.6472 4.32272C39.6203 4.26314 39.5857 4.20932 39.5473 4.15934C39.5319 4.14012 39.5165 4.12282 39.5011 4.10552L39.4992 4.10745ZM39.1878 4.10552C39.2224 4.06324 39.2609 4.02095 39.3032 3.98059C39.2513 3.96329 39.1974 3.95944 39.1417 3.96906C39.0629 3.98251 38.9918 4.00558 38.9284 4.03825C39.0206 4.05363 39.1071 4.07669 39.1878 4.10552ZM38.7112 4.24007H38.6862L38.6823 4.24584L38.7112 4.24199V4.24007ZM33.7425 4.72444L33.7521 4.73213C33.8348 4.81093 33.9059 4.90512 33.9655 5.00507C34.0539 5.03774 34.1366 5.08195 34.2154 5.13192C34.2711 4.99738 34.3461 4.8686 34.4403 4.74943C34.5075 4.66485 34.5825 4.58605 34.6651 4.51301C34.5229 4.43612 34.3672 4.39961 34.2 4.42651C33.9943 4.46111 33.8483 4.57259 33.7445 4.7206L33.7425 4.72444ZM35.4436 5.00891L35.4455 5.00699C35.6108 4.84938 35.7992 4.78402 35.9875 4.78787C36.0202 4.78787 36.0548 4.79171 36.0875 4.79556C35.8415 4.66678 35.5608 4.61872 35.2706 4.76673C35.334 4.84361 35.3917 4.92434 35.4455 5.00699L35.4436 5.00891ZM33.633 4.9301L33.6291 4.93971H33.6426L33.633 4.9301ZM33.3908 4.95509C33.41 4.89743 33.4312 4.84169 33.4561 4.78595C33.4023 4.75519 33.3447 4.73405 33.2832 4.7206C33.139 4.68984 32.9679 4.71098 32.768 4.80709C32.5681 4.90319 32.4124 5.02429 32.2933 5.15691C32.4259 5.18766 32.5451 5.24917 32.6469 5.32413C32.768 5.20496 32.941 5.09348 33.1871 5.00891C33.2274 4.99545 33.2659 4.98392 33.3062 4.97431C33.3351 4.96662 33.3658 4.96086 33.3946 4.95509H33.3908ZM35.04 4.52262C35.0669 4.54761 35.0938 4.57259 35.1188 4.59758C35.1284 4.59181 35.138 4.58605 35.1476 4.5822C35.7281 4.27082 36.2624 4.58028 36.6257 4.91665L36.6295 4.90896C36.6564 4.8513 36.6891 4.7994 36.7276 4.75135C36.5661 4.5822 36.3412 4.43997 36.0337 4.3727C35.6915 4.29581 35.3667 4.3554 35.0938 4.49763C35.0765 4.50724 35.0592 4.51493 35.0438 4.52454L35.04 4.52262ZM30.9593 5.75661C30.9747 5.76429 30.992 5.77006 31.0074 5.77775C31.0478 5.79697 31.0881 5.82003 31.1246 5.84502C31.1688 5.72201 31.2361 5.60476 31.3303 5.50097C31.2496 5.50865 31.1708 5.54133 31.0977 5.60668C31.0458 5.65281 30.9997 5.70279 30.9593 5.75661ZM30.844 5.95074C30.8248 5.99494 30.8075 6.03723 30.794 6.08336C30.8901 6.09297 30.9805 6.11219 31.0631 6.14102C31.0651 6.1218 31.067 6.10258 31.0689 6.08336C31.0189 6.043 30.9651 6.00648 30.9074 5.97957C30.8863 5.96996 30.8652 5.96035 30.8421 5.95266L30.844 5.95074ZM30.5634 6.08336C30.5768 6.02954 30.5941 5.97572 30.6153 5.92191C30.5615 5.92959 30.5096 5.94881 30.4634 5.97957C30.3981 6.0257 30.3443 6.07759 30.3001 6.13334C30.3904 6.10643 30.4788 6.09105 30.5634 6.08336ZM26.0791 10.1217H26.0907C26.2041 10.1255 26.3194 10.1486 26.4309 10.1851C26.5193 10.1505 26.6096 10.1275 26.7019 10.114C26.6538 9.97561 26.625 9.82953 26.6154 9.6796C26.6096 9.57197 26.6116 9.46241 26.6269 9.35285C26.4693 9.38937 26.329 9.46625 26.2233 9.59695C26.0926 9.76033 26.058 9.94101 26.0791 10.1198V10.1217ZM27.538 9.201V9.19908C27.5553 8.97035 27.6533 8.79736 27.7975 8.67627C27.8225 8.65513 27.8494 8.63398 27.8782 8.61668C27.6091 8.68396 27.3689 8.8358 27.2497 9.13949C27.3477 9.15487 27.4458 9.17794 27.538 9.20292V9.201ZM26.9652 9.32594C26.9287 9.32402 26.8922 9.32402 26.8576 9.32594C26.8384 9.43934 26.8326 9.55467 26.8384 9.66807C26.848 9.81992 26.8807 9.966 26.9345 10.1005H26.9479C26.9787 10.1005 27.0114 10.1025 27.0421 10.1044C26.9556 9.87566 26.9114 9.61233 26.9633 9.32594H26.9652ZM26.1349 10.3485L26.1387 10.3581L26.1483 10.3504L26.1349 10.3485ZM25.9715 10.5292C25.9465 10.4734 25.9254 10.4177 25.9081 10.36C25.8485 10.3735 25.7889 10.3946 25.7351 10.4273C25.6082 10.5003 25.4929 10.631 25.4083 10.8348C25.3218 11.0385 25.2872 11.2327 25.2853 11.4114C25.4045 11.3461 25.5333 11.3134 25.6601 11.3019C25.6717 11.1327 25.7255 10.9347 25.8523 10.7079C25.8735 10.6714 25.8946 10.6349 25.9177 10.6022C25.935 10.5772 25.9523 10.5522 25.9715 10.5292ZM26.9133 9.10874C26.9499 9.10874 26.9864 9.11066 27.0229 9.11258C27.0267 9.10297 27.0306 9.09144 27.0344 9.08183C27.2593 8.46292 27.8648 8.33798 28.3587 8.34759L28.3568 8.33798C28.3395 8.2784 28.328 8.21689 28.3241 8.15538C28.0916 8.13808 27.8302 8.18037 27.5534 8.33414C27.2459 8.5052 27.044 8.76469 26.9345 9.053C26.9268 9.0703 26.921 9.08952 26.9153 9.10682L26.9133 9.10874ZM26.798 10.3293C26.7845 10.3312 26.773 10.3312 26.7596 10.3331C26.7807 10.3446 26.8018 10.3581 26.823 10.3716C26.8172 10.3619 26.8115 10.3523 26.8057 10.3408L26.798 10.3293ZM25.1296 11.8958C25.1258 11.9015 25.1219 11.9092 25.1181 11.9169L25.1335 11.9131L25.1277 11.8958H25.1296ZM24.6914 12.7473C24.7087 12.7415 24.7241 12.7357 24.7414 12.7319C24.7836 12.7204 24.8298 12.7107 24.874 12.705C24.824 12.5839 24.7971 12.4513 24.799 12.311C24.7433 12.3705 24.7068 12.4474 24.6952 12.5454C24.6875 12.6146 24.6856 12.6838 24.6914 12.7492V12.7473ZM24.7337 12.9702C24.7471 13.0164 24.7644 13.0586 24.7836 13.1009C24.8605 13.0452 24.9413 12.9991 25.0239 12.9645C25.0124 12.9491 25.0008 12.9337 24.9893 12.9164C24.924 12.9183 24.8605 12.9279 24.8009 12.9452C24.7779 12.951 24.7548 12.9587 24.7337 12.9683V12.9702ZM24.6126 13.2547C24.5857 13.2047 24.5626 13.1528 24.5434 13.1009C24.5088 13.1413 24.4819 13.1913 24.4684 13.2451C24.4492 13.322 24.4434 13.3969 24.4492 13.4681C24.4992 13.3892 24.5549 13.3181 24.6126 13.2547ZM24.5511 13.7468L24.5415 13.7698L24.5453 13.7756L24.553 13.7468H24.5511ZM23.3767 18.5962L23.3882 18.5904C23.4882 18.5347 23.5996 18.4963 23.713 18.4713C23.7707 18.3963 23.838 18.331 23.9091 18.2733C23.7976 18.1791 23.6977 18.0676 23.6131 17.9446C23.5535 17.8562 23.4997 17.7601 23.4574 17.6582C23.3402 17.7716 23.2575 17.9081 23.2344 18.0753C23.2056 18.2829 23.2671 18.4559 23.3767 18.6001V18.5962ZM24.1628 17.0605V17.0585C24.0629 16.8529 24.0571 16.6549 24.1186 16.4761C24.1301 16.4454 24.1417 16.4127 24.157 16.3839C23.961 16.5799 23.8303 16.8317 23.8841 17.1527C23.9764 17.1162 24.0705 17.0854 24.1647 17.0585L24.1628 17.0605ZM23.7342 17.4602C23.7015 17.4775 23.6708 17.4948 23.6419 17.5141C23.6823 17.6217 23.7361 17.7236 23.7995 17.8178C23.8841 17.9427 23.9879 18.0523 24.1032 18.1407L24.1148 18.133C24.1417 18.1176 24.1705 18.1022 24.1993 18.0888C24.009 17.9369 23.8361 17.7332 23.7342 17.4602ZM23.5401 18.7634L23.5477 18.7692L23.5516 18.7577L23.5401 18.7634ZM23.4901 19.0018C23.4401 18.9672 23.394 18.9287 23.3498 18.8903C23.3056 18.9326 23.2652 18.9806 23.2344 19.0364C23.1614 19.1651 23.1306 19.3343 23.1614 19.5534C23.1922 19.7725 23.2594 19.9571 23.3498 20.1108C23.419 19.9936 23.5131 19.8994 23.6169 19.8244C23.5401 19.6726 23.4862 19.4746 23.4805 19.2151C23.4785 19.1728 23.4805 19.1306 23.4824 19.0902C23.4843 19.0594 23.4882 19.0306 23.492 19.0018H23.4901ZM23.5766 17.2988C23.6073 17.2815 23.64 17.2642 23.6727 17.2469C23.6708 17.2373 23.6688 17.2258 23.6669 17.2142C23.5439 16.5665 24.0014 16.1494 24.4319 15.9072L24.4261 15.9014C24.38 15.8591 24.3396 15.8111 24.305 15.7611C24.0955 15.8649 23.8918 16.036 23.7342 16.3089C23.5574 16.6126 23.5151 16.9394 23.5689 17.2431C23.5727 17.2623 23.5766 17.2815 23.5804 17.2988H23.5766ZM24.0994 18.4078C24.0878 18.4155 24.0782 18.4232 24.0686 18.4309C24.0936 18.4309 24.1186 18.4309 24.1417 18.4309C24.1321 18.4251 24.1205 18.4194 24.1109 18.4136L24.0994 18.4059V18.4078ZM23.4612 20.6067C23.4612 20.6144 23.4612 20.6221 23.4632 20.6298L23.4747 20.6202L23.4612 20.6067ZM23.517 21.562C23.5285 21.5485 23.5401 21.5351 23.5516 21.5236C23.5823 21.4909 23.6169 21.4601 23.6515 21.4313C23.5477 21.3525 23.4555 21.2525 23.3863 21.1315C23.369 21.2103 23.3767 21.2968 23.4151 21.3852C23.4439 21.4505 23.4766 21.5082 23.5151 21.562H23.517ZM23.6669 21.7311C23.7015 21.7638 23.7399 21.7927 23.7784 21.8176C23.8168 21.7292 23.863 21.6504 23.9149 21.5774C23.8976 21.5697 23.8783 21.562 23.861 21.5543C23.8072 21.5889 23.7572 21.6312 23.713 21.6754C23.6957 21.6927 23.6804 21.71 23.6669 21.7292V21.7311ZM23.7073 22.0387C23.6592 22.0099 23.6131 21.9772 23.5689 21.9407C23.5593 21.9945 23.5612 22.0483 23.5785 22.1021C23.6016 22.1771 23.6342 22.2443 23.6746 22.3039C23.6765 22.2097 23.6881 22.1213 23.7073 22.0387ZM23.9052 22.4923L23.9072 22.5173L23.9129 22.5211L23.9052 22.4942V22.4923ZM24.8452 27.6224L24.8528 27.6128C24.9182 27.5205 25.0008 27.4359 25.0931 27.3629C25.1123 27.2706 25.145 27.1822 25.1834 27.0976C25.0412 27.0611 24.9028 27.0054 24.774 26.9304C24.6818 26.8766 24.5914 26.8132 24.5088 26.7401C24.453 26.892 24.4377 27.0515 24.4896 27.211C24.553 27.4109 24.6837 27.5397 24.8452 27.6204V27.6224ZM24.8855 25.8983H24.8836C24.7029 25.7579 24.6126 25.5792 24.5914 25.3927C24.5876 25.3601 24.5857 25.3255 24.5857 25.2928C24.4934 25.5542 24.4857 25.8387 24.6741 26.1058C24.7414 26.0328 24.8144 25.9636 24.8855 25.9002V25.8983ZM24.6722 26.4441C24.651 26.473 24.6299 26.5037 24.6126 26.5325C24.6972 26.6113 24.7894 26.6805 24.8874 26.7363C25.0181 26.8112 25.1585 26.867 25.3007 26.8958L25.3084 26.8843C25.3257 26.8574 25.3449 26.8324 25.3641 26.8074C25.1258 26.7536 24.8817 26.644 24.6722 26.4422V26.4441ZM25.0643 27.7012L25.0739 27.7031L25.072 27.6916L25.0643 27.7012ZM25.1239 27.9376C25.0643 27.928 25.0066 27.9145 24.9489 27.8972C24.9259 27.9549 24.9124 28.0145 24.9086 28.0779C24.899 28.2259 24.9451 28.3912 25.0681 28.5757C25.1911 28.7603 25.3334 28.8967 25.4814 28.9967C25.4929 28.8602 25.5371 28.7353 25.5967 28.6219C25.4602 28.52 25.3276 28.3643 25.2084 28.1317C25.1892 28.0933 25.1719 28.0568 25.1565 28.0183C25.145 27.9895 25.1354 27.9626 25.1258 27.9338L25.1239 27.9376ZM24.4607 26.3672C24.4819 26.3365 24.503 26.3077 24.5242 26.2788C24.5184 26.2711 24.5107 26.2615 24.5049 26.2538C24.1128 25.7233 24.3435 25.1506 24.626 24.745L24.6164 24.7431C24.5568 24.7239 24.4992 24.6989 24.4454 24.67C24.3012 24.8546 24.1936 25.0967 24.1686 25.412C24.1417 25.7618 24.2455 26.0751 24.4242 26.325C24.4357 26.3403 24.4473 26.3557 24.4588 26.3711L24.4607 26.3672ZM25.4141 27.138C25.4083 27.1495 25.4026 27.1611 25.3968 27.1726C25.4179 27.1611 25.441 27.1515 25.4641 27.1418C25.4525 27.1418 25.441 27.1399 25.4295 27.1399L25.416 27.138H25.4141ZM25.7966 29.3945C25.8004 29.4003 25.8043 29.408 25.8081 29.4138L25.8139 29.3984L25.7966 29.3926V29.3945ZM26.2617 30.2307C26.2656 30.2134 26.2714 30.1961 26.2771 30.1807C26.2906 30.1384 26.3079 30.0961 26.3271 30.0538C26.1983 30.0269 26.0734 29.9769 25.958 29.8981C25.9773 29.9769 26.0196 30.05 26.0945 30.1134C26.1483 30.1595 26.2041 30.198 26.2617 30.2287V30.2307ZM26.4712 30.3171C26.5174 30.3306 26.5635 30.3402 26.6077 30.3479C26.6039 30.2518 26.6096 30.1595 26.6269 30.073C26.6077 30.075 26.5885 30.075 26.5693 30.075C26.5347 30.1307 26.5078 30.1884 26.4885 30.248C26.4809 30.271 26.4751 30.2941 26.4712 30.3171ZM26.6423 30.5766C26.5866 30.5709 26.5308 30.5613 26.4751 30.5497C26.4905 30.6016 26.5155 30.6497 26.5539 30.692C26.6077 30.7496 26.6673 30.7958 26.7288 30.8323C26.6904 30.7458 26.6615 30.6612 26.6423 30.5786V30.5766ZM27.019 30.8995L27.0325 30.9207H27.0383L27.019 30.8995ZM30.6441 34.4996V34.4881C30.6422 34.3747 30.6576 34.2574 30.6883 34.144C30.6499 34.0575 30.6211 33.9691 30.6038 33.8769C30.4692 33.9326 30.3231 33.9691 30.1751 33.9864C30.0675 33.998 29.9579 34.0018 29.8484 33.9922C29.8945 34.1479 29.9772 34.2844 30.1136 34.3824C30.2828 34.5035 30.4654 34.5304 30.6441 34.4977V34.4996ZM29.6466 33.0927H29.6446C29.4159 33.0869 29.2371 32.9985 29.1084 32.862C29.0853 32.837 29.0642 32.812 29.043 32.7851C29.1257 33.0504 29.289 33.2829 29.5985 33.3848C29.61 33.2849 29.6254 33.1868 29.6446 33.0927H29.6466ZM30.8671 34.4324L30.8767 34.4285L30.869 34.4189V34.4324H30.8671ZM31.0554 34.5861C31.0016 34.613 30.9459 34.638 30.8901 34.6592C30.9074 34.7188 30.9305 34.7764 30.967 34.8283C31.0478 34.9513 31.1842 35.059 31.3918 35.1339C31.6013 35.2089 31.7955 35.2339 31.9742 35.2243C31.9012 35.1089 31.8627 34.9821 31.8435 34.8552C31.6724 34.8533 31.4725 34.8091 31.24 34.6957C31.2015 34.6765 31.165 34.6572 31.1304 34.6361C31.1035 34.6207 31.0785 34.6034 31.0554 34.5861ZM29.585 33.7212C29.5831 33.6847 29.5831 33.6481 29.5831 33.6116C29.5735 33.6078 29.562 33.6059 29.5524 33.602C28.9219 33.4117 28.7643 32.812 28.7489 32.3181L28.7393 32.3219C28.6797 32.343 28.6182 32.3565 28.5586 32.3642C28.5529 32.5987 28.6105 32.8562 28.7797 33.1234C28.9661 33.4213 29.2371 33.6097 29.5312 33.702C29.5504 33.7077 29.5677 33.7135 29.587 33.7173L29.585 33.7212ZM30.8094 33.7692C30.8113 33.7827 30.8133 33.7942 30.8152 33.8077C30.8267 33.7865 30.8382 33.7635 30.8498 33.7423C30.8402 33.7481 30.8306 33.7558 30.821 33.7615L30.8094 33.7692ZM32.4643 35.3511C32.472 35.355 32.4778 35.3569 32.4855 35.3607L32.4816 35.3454L32.4643 35.3511ZM33.337 35.7432C33.3312 35.7279 33.3235 35.7105 33.3178 35.6933C33.3024 35.651 33.2908 35.6068 33.2832 35.5606C33.164 35.6164 33.0333 35.651 32.8949 35.6567C32.9583 35.7086 33.0352 35.7413 33.1332 35.749C33.2044 35.7528 33.2716 35.7509 33.337 35.7413V35.7432ZM33.5561 35.6875C33.6003 35.6702 33.6426 35.651 33.6849 35.6298C33.6234 35.5568 33.5753 35.478 33.535 35.3972C33.5196 35.4107 33.5042 35.4222 33.4888 35.4338C33.4946 35.4991 33.508 35.5625 33.5292 35.6202C33.5369 35.6433 33.5465 35.6644 33.5561 35.6856V35.6875ZM33.8483 35.7932C33.8002 35.822 33.7502 35.8489 33.6983 35.8701C33.7406 35.9028 33.7906 35.9258 33.8463 35.9374C33.9251 35.9508 33.9982 35.9527 34.0693 35.945C33.9866 35.8989 33.9136 35.8489 33.8483 35.7932ZM34.3422 35.8278L34.3653 35.8374L34.3711 35.8336L34.3422 35.8278Z" fill="url(#paint0_linear)"/>
<defs>
<linearGradient id="paint0_linear" x1="35.9145" y1="7.98047" x2="43.5087" y2="32.7794" gradientUnits="userSpaceOnUse">
<stop stop-color="#C2562E"/>
<stop offset="1" stop-color="#8B402A"/>
</linearGradient>
</defs>
</svg>
