<svg width="85" height="212" viewBox="0 0 85 212" fill="none" xmlns="http://www.w3.org/2000/svg">
<path d="M35.8752 35.8005C35.6783 36.0344 35.3502 36.2044 34.8067 36.0782C34.7478 36.0647 34.6905 36.0496 34.6367 36.0311C34.5627 36.0681 34.4819 36.095 34.3944 36.1101C34.2884 36.1287 34.1756 36.1287 34.0562 36.1068C33.9115 36.0799 33.7954 36.0041 33.7079 35.8981C33.6018 35.92 33.4891 35.9301 33.3696 35.9217C33.1038 35.9049 32.9372 35.7635 32.8362 35.5767C32.8194 35.5734 32.8026 35.5683 32.7857 35.5633C32.6292 35.5178 32.5047 35.4539 32.4071 35.3765C32.1581 35.4152 31.8737 35.4017 31.5641 35.289C31.305 35.1964 31.1333 35.0585 31.0273 34.8952C30.9802 34.8229 30.9449 34.7438 30.923 34.6647C30.6958 34.7051 30.4569 34.6731 30.2297 34.5099C30.0194 34.3601 29.9083 34.1448 29.8612 33.9041C29.8107 33.8924 29.7602 33.8789 29.7098 33.8637C29.3699 33.7561 29.0552 33.5356 28.8381 33.1907C28.6429 32.8811 28.5756 32.5832 28.5823 32.3123C28.4595 32.2972 28.3451 32.2568 28.2509 32.1928C28.0944 32.0885 27.9917 31.927 27.9917 31.7217C27.9917 31.6964 27.9917 31.6729 27.9934 31.6493C27.7629 31.6274 27.5105 31.5096 27.2581 31.2118C27.2194 31.1647 27.1823 31.1193 27.1504 31.0721C27.0696 31.057 26.9871 31.0301 26.9097 30.9914C26.8138 30.9426 26.723 30.8753 26.6388 30.7861C26.5379 30.6784 26.4908 30.5471 26.484 30.4108C26.3847 30.3654 26.2888 30.3048 26.198 30.2274C25.9944 30.0541 25.9456 29.8421 25.9758 29.6318C25.9657 29.6183 25.954 29.6048 25.9439 29.5914C25.8446 29.4618 25.784 29.3356 25.752 29.2161C25.5282 29.0983 25.3095 28.9183 25.1278 28.644C24.9763 28.4152 24.9208 28.2015 24.9326 28.008C24.9376 27.9205 24.9578 27.838 24.9881 27.7606C24.7811 27.6563 24.6095 27.488 24.5254 27.2221C24.4463 26.9765 24.4867 26.7375 24.591 26.5171C24.5573 26.4784 24.5254 26.438 24.4934 26.3942C24.2847 26.1048 24.1653 25.7414 24.1955 25.3325C24.2242 24.9673 24.3487 24.688 24.5153 24.4743C24.4261 24.3885 24.3588 24.2875 24.3201 24.1798C24.2578 24.0031 24.2713 23.8113 24.3924 23.6481C24.4328 23.5942 24.4732 23.5488 24.5153 23.5084C24.2931 23.3974 24.0929 23.1769 23.9852 22.763C23.9701 22.7041 23.9583 22.6469 23.9482 22.5913C23.8809 22.5425 23.8203 22.482 23.7665 22.413C23.7008 22.3288 23.6487 22.2279 23.6117 22.1118C23.5679 21.9721 23.5814 21.8324 23.6352 21.7062C23.5662 21.6221 23.5056 21.5262 23.4568 21.4168C23.3492 21.1728 23.3979 20.9608 23.5157 20.7841C23.5124 20.7673 23.5073 20.7505 23.504 20.7336C23.4703 20.5738 23.4703 20.4341 23.4939 20.313C23.3441 20.1094 23.2263 19.8519 23.1809 19.5255C23.1439 19.2529 23.1859 19.0375 23.2818 18.8675C23.3239 18.7918 23.3778 18.7245 23.4383 18.669C23.297 18.4856 23.2162 18.2601 23.2549 17.9824C23.2919 17.7267 23.4299 17.5298 23.6201 17.375C23.6066 17.3245 23.5948 17.274 23.5864 17.2235C23.5242 16.8718 23.5746 16.4916 23.7799 16.1382C23.9633 15.8218 24.1972 15.625 24.4395 15.5038C24.3958 15.3877 24.379 15.2666 24.3924 15.1538C24.4076 15.0192 24.4614 14.893 24.559 14.7988C24.4227 14.5901 24.3621 14.2956 24.4799 13.8851C24.4968 13.8262 24.5153 13.7706 24.5355 13.7185C24.5035 13.6427 24.4799 13.5603 24.4698 13.4728C24.4564 13.3668 24.4631 13.2524 24.4917 13.1346C24.5254 12.9915 24.6078 12.8788 24.7189 12.798C24.702 12.6903 24.6987 12.5776 24.7138 12.4598C24.7458 12.1939 24.8956 12.0375 25.0874 11.9449C25.0924 11.9281 25.0975 11.9129 25.1025 11.8961C25.1547 11.7413 25.227 11.6218 25.3095 11.5293C25.2843 11.2786 25.3129 10.9959 25.4407 10.693C25.5468 10.4406 25.6948 10.2757 25.8631 10.1781C25.9388 10.1343 26.0179 10.104 26.1004 10.0872C26.0718 9.85667 26.1172 9.6211 26.2922 9.40403C26.4537 9.2021 26.6742 9.10283 26.9165 9.06917C26.9299 9.01869 26.9468 8.96989 26.9653 8.92109C27.0915 8.58792 27.3287 8.28503 27.6855 8.08647C28.0052 7.90811 28.3064 7.85763 28.5756 7.87782C28.5975 7.75667 28.6446 7.64393 28.7136 7.55306C28.8263 7.4033 28.9929 7.30907 29.1982 7.31916C29.3295 7.3259 29.4422 7.35282 29.5364 7.39152C29.4607 7.06003 29.523 6.64104 30.0715 6.29777C30.1237 6.26579 30.1742 6.23551 30.2247 6.21027C30.2516 6.13118 30.2886 6.05546 30.3391 5.9831C30.3997 5.8956 30.4804 5.81483 30.5797 5.74416C30.7009 5.66002 30.8372 5.63142 30.9735 5.6432C31.0324 5.55233 31.1047 5.46483 31.1956 5.38574C31.3958 5.20906 31.6129 5.19223 31.8165 5.25113C31.8316 5.24271 31.8451 5.2343 31.8602 5.22589C32.0033 5.1468 32.1362 5.10305 32.259 5.08959C32.4071 4.88598 32.6175 4.69415 32.9136 4.55281C33.161 4.43502 33.3814 4.40978 33.5716 4.44848C33.6574 4.46699 33.7365 4.49728 33.8088 4.53766C33.9401 4.34752 34.1319 4.20112 34.4079 4.15569C34.6619 4.11362 34.8925 4.18598 35.0978 4.32059C35.1415 4.29199 35.1869 4.26675 35.2324 4.24151C35.5487 4.0766 35.9256 4.00929 36.3244 4.09848C36.6812 4.17756 36.9403 4.34079 37.1288 4.53598C37.2264 4.46026 37.3357 4.40809 37.4485 4.38454C37.5781 4.35761 37.7093 4.37107 37.8254 4.42997C37.9617 4.21122 38.2108 4.0278 38.655 3.97564C38.7156 3.96891 38.7745 3.96386 38.83 3.96218C38.8872 3.90328 38.9545 3.84944 39.0302 3.80737C39.1228 3.75521 39.2305 3.71482 39.3499 3.69463C39.4947 3.66939 39.631 3.70304 39.7487 3.77203C39.8413 3.71482 39.9439 3.66771 40.0584 3.63405C40.3141 3.56001 40.5177 3.63742 40.6776 3.77876C40.6944 3.77708 40.7112 3.7754 40.7281 3.77372C40.8913 3.76194 41.0293 3.78213 41.1471 3.82083C41.3692 3.69968 41.6401 3.61723 41.9682 3.61723C42.2425 3.61723 42.4512 3.6879 42.606 3.80569C42.675 3.85785 42.7338 3.92011 42.7826 3.98742C42.9829 3.87131 43.2185 3.82251 43.4877 3.89824C43.7367 3.96891 43.9134 4.13381 44.0396 4.34247C44.0918 4.33574 44.1423 4.33069 44.1944 4.32901C44.5512 4.31555 44.9214 4.41651 45.2428 4.66723C45.5305 4.89271 45.6954 5.15016 45.7812 5.40762C45.9024 5.38069 46.0235 5.38069 46.1346 5.40762C46.2928 5.44632 46.4274 5.53887 46.5048 5.68863C46.7353 5.57589 47.0432 5.55065 47.4471 5.73911C47.5026 5.76435 47.5548 5.79127 47.6036 5.81988C47.6843 5.79969 47.7685 5.78959 47.856 5.79296C47.962 5.79632 48.0747 5.81988 48.1875 5.86531C48.3238 5.92084 48.4214 6.02012 48.4853 6.14127C48.5947 6.14127 48.7058 6.15642 48.8219 6.18839C49.0793 6.26075 49.2122 6.43406 49.2728 6.63767C49.288 6.6444 49.3031 6.65282 49.3183 6.66123C49.463 6.73695 49.5707 6.82613 49.6497 6.92205C49.9021 6.93551 50.1764 7.00786 50.4558 7.18118C50.6897 7.32589 50.8293 7.49585 50.9 7.67758C50.932 7.75835 50.9488 7.84248 50.9538 7.92494C51.186 7.93167 51.4115 8.01412 51.6 8.22109C51.7733 8.41124 51.8373 8.64513 51.8356 8.88912C51.8827 8.911 51.9298 8.93456 51.9752 8.9598C52.2849 9.13648 52.5474 9.41581 52.6887 9.79946C52.8149 10.1427 52.8183 10.449 52.7577 10.7115C52.8738 10.7519 52.9781 10.8158 53.0572 10.8966C53.1885 11.0312 53.2558 11.2096 53.2137 11.4098C53.2002 11.4721 53.1834 11.5293 53.1632 11.5814C53.53 11.4855 54.0954 11.4923 54.4084 12.2545C54.432 12.3101 54.4522 12.3656 54.469 12.4194C54.5414 12.4598 54.6103 12.5103 54.6726 12.5709C54.7483 12.6466 54.8139 12.7391 54.8661 12.8485C54.9284 12.9814 54.9334 13.1211 54.8964 13.254C54.9755 13.3281 55.0495 13.4156 55.1118 13.5165C55.2514 13.7437 55.2313 13.9608 55.1387 14.1509C55.1454 14.1661 55.1505 14.1829 55.1572 14.1997C55.2111 14.3528 55.2296 14.4925 55.2228 14.6153C55.3978 14.7971 55.551 15.036 55.6385 15.3524C55.7125 15.6166 55.699 15.837 55.6284 16.0187C55.5964 16.0995 55.5527 16.1718 55.5005 16.2375C55.6654 16.4007 55.7765 16.6127 55.7748 16.892C55.7731 17.1495 55.662 17.3649 55.4938 17.5432C55.514 17.5904 55.5325 17.6392 55.5476 17.6896C55.6553 18.0295 55.657 18.4132 55.5022 18.7901C55.3625 19.1283 55.1572 19.3555 54.9334 19.507C54.9923 19.6163 55.0243 19.7324 55.0276 19.8469C55.031 19.9613 55.0058 20.0723 54.9469 20.1683C55.2094 20.3046 55.4365 20.5788 55.4534 21.1139C55.4551 21.1745 55.4551 21.2334 55.4517 21.2906C55.5055 21.3529 55.5527 21.4252 55.5897 21.5043C55.6351 21.6019 55.6637 21.7113 55.6738 21.8324C55.6856 21.9788 55.6418 22.1118 55.5611 22.2228C55.6099 22.3204 55.6469 22.4264 55.6704 22.5442C55.7226 22.8067 55.6267 23.0019 55.4736 23.1483C55.4736 23.1651 55.4736 23.182 55.4736 23.2005C55.4702 23.3637 55.4399 23.5 55.3894 23.6127C55.4904 23.8433 55.5493 24.1209 55.5207 24.449C55.4971 24.7233 55.4079 24.9236 55.2767 25.0683C55.2178 25.1339 55.1522 25.1861 55.0798 25.2281C55.1774 25.4385 55.206 25.6757 55.1067 25.9382C55.0142 26.1789 54.8358 26.3421 54.6154 26.4498C54.6171 26.5019 54.6171 26.5541 54.6154 26.6063C54.5986 26.963 54.4656 27.3231 54.1863 27.6209C53.9373 27.8885 53.6647 28.0298 53.4022 28.0921C53.419 28.2149 53.4089 28.3361 53.3719 28.4438C53.3382 28.5414 53.2844 28.6272 53.2103 28.6945C53.4543 28.9486 53.6344 29.3575 53.2978 29.9532C53.2675 30.0053 53.2373 30.0558 53.2053 30.1029C53.2188 30.1854 53.2221 30.2695 53.212 30.357C53.2002 30.463 53.1683 30.5724 53.1127 30.6818C53.0471 30.813 52.9394 30.9039 52.8132 30.9577C52.8048 31.0654 52.7812 31.1765 52.7392 31.2892C52.6466 31.5399 52.4632 31.6577 52.2562 31.7032C52.2478 31.7183 52.2394 31.7318 52.2293 31.7469C52.1418 31.8849 52.0442 31.9842 51.9433 32.0565C51.9096 32.3072 51.8154 32.5748 51.6202 32.839C51.457 33.0611 51.2769 33.1856 51.0901 33.2411C51.006 33.2664 50.9219 33.2765 50.8394 33.2748C50.8142 33.5053 50.7149 33.7241 50.4928 33.894C50.2892 34.0522 50.0502 34.0976 49.8079 34.0758C49.7827 34.1212 49.7558 34.1649 49.7271 34.2087C49.5269 34.5032 49.2274 34.7421 48.8336 34.8532C48.4819 34.9525 48.1757 34.9306 47.9182 34.8481C47.8694 34.9609 47.7971 35.0601 47.7096 35.1325C47.5649 35.252 47.3815 35.3058 47.1846 35.2469C46.944 35.1763 46.7892 35.0517 46.6899 34.9222C46.6293 34.9373 46.5687 34.9491 46.5081 34.9558C46.2305 34.9861 45.9529 34.9238 45.7004 34.801C45.3504 34.6311 45.0526 34.3399 44.8894 34.0152C44.7867 33.8099 44.7615 33.608 44.7867 33.4178C44.7514 33.3976 44.7161 33.3758 44.6824 33.3522C44.3324 33.1082 44.1221 32.6993 44.2651 32.1457C44.3543 31.8008 44.4586 31.5366 44.5697 31.333C44.1574 30.9779 44.1473 30.6431 44.2533 30.3873C44.218 30.3503 44.186 30.3099 44.1574 30.2628C43.9572 29.9431 44.0144 29.6267 44.1608 29.3558C44.1153 29.2498 44.0817 29.1303 44.0665 28.994C44.011 28.5279 44.1372 28.2116 44.3038 28.0012C44.2836 27.9945 44.2634 27.9861 44.2449 27.976C44.0817 27.9003 43.9538 27.7724 43.8949 27.5991C43.7805 27.2692 43.9336 27.0505 44.1204 26.9125C43.9757 26.7779 43.8831 26.6164 43.8697 26.4616C43.8512 26.231 43.9437 26.0829 44.0783 25.9853C44.0531 25.7733 44.1473 25.6252 44.2937 25.5209C44.2668 25.4721 44.2449 25.42 44.2281 25.3611C44.1557 25.1002 44.2028 24.8916 44.3004 24.7301C44.1675 24.6089 44.0851 24.4339 44.1036 24.2034C44.1153 24.0435 44.1658 23.9072 44.2348 23.7928C43.9959 23.6666 43.7839 23.426 43.661 23.0524C43.5752 22.7916 43.5634 22.5829 43.5988 22.4163C43.5028 22.3861 43.4153 22.3406 43.3379 22.2834C43.168 22.1555 43.0552 21.962 43.0485 21.7147C43.0468 21.6305 43.0519 21.5531 43.0637 21.4824C43.0367 21.4589 43.0115 21.4353 42.9879 21.4101C42.8836 21.4841 42.7625 21.5329 42.6177 21.5447C42.4427 21.5582 42.3048 21.5144 42.1954 21.4353C42.1668 21.4437 42.1382 21.4522 42.1096 21.4589C42.0692 21.4673 42.0288 21.474 41.9884 21.4791C41.5829 21.5245 41.2901 21.3411 41.0949 21.1324C41.0276 21.0601 40.9704 20.9827 40.9266 20.9103C40.6995 20.9659 40.4437 20.9154 40.2115 20.7067C40.0886 20.5957 40.0112 20.4762 39.9641 20.3534C39.9086 20.3247 39.8531 20.2877 39.8009 20.2389C39.6478 20.1009 39.5519 19.9495 39.4997 19.7913C39.3382 19.7392 39.2052 19.6416 39.1329 19.4969C39.0571 19.3471 39.0285 19.1704 39.0285 18.9921C38.9612 18.9449 38.8939 18.8844 38.8317 18.8103C38.8014 18.775 38.7761 18.7413 38.7526 18.706C38.7189 18.6639 38.6886 18.6235 38.6634 18.5848L38.6483 18.5798C38.4547 18.5007 38.31 18.3762 38.2023 18.2365C38.1333 18.2651 38.0593 18.2887 37.9769 18.3072C37.5545 18.3964 37.2516 18.2079 37.0413 17.9622C36.9908 17.9858 36.9353 18.0077 36.873 18.0262C36.7132 18.0716 36.5668 18.0868 36.4338 18.0817C36.4271 18.112 36.4204 18.1423 36.4119 18.1709C36.3766 18.2971 36.3211 18.4115 36.2403 18.5024C36.1293 18.6269 35.9761 18.7043 35.7692 18.7026C35.5369 18.6993 35.3552 18.6286 35.2139 18.5276C35.1903 18.6084 35.1466 18.6707 35.0893 18.7178C35.0338 18.7632 34.9665 18.7901 34.8942 18.8036C34.9631 19.024 34.9379 19.2478 34.6485 19.3757C34.4802 19.4497 34.3119 19.48 34.1588 19.4868C34.1605 19.6315 34.1235 19.7863 34.0377 19.9461C34.0208 19.9781 34.0006 20.0118 33.9788 20.0454C33.8963 20.1716 33.7987 20.2574 33.6961 20.3113C33.6725 20.3247 33.6473 20.3348 33.622 20.3433C33.6153 20.3702 33.6069 20.3954 33.5968 20.4207C33.5379 20.5772 33.4319 20.7101 33.2872 20.8026C33.1509 20.8885 32.9809 20.9389 32.7807 20.9339C32.6747 20.9305 32.5821 20.9221 32.5047 20.907C31.9494 21.3276 31.5372 22.7579 31.6903 23.8685C31.8703 25.1726 31.5977 25.9685 31.485 26.7527C31.4093 27.2827 31.4682 27.8717 31.7492 28.8611C32.0268 29.8404 32.6612 30.9846 33.2889 32.9517C33.7684 34.4527 35.2728 35.427 35.7204 35.7147C35.7725 35.745 35.8247 35.7736 35.8802 35.8005H35.8752ZM33.4066 20.1598C33.4016 20.0942 33.3915 20.0235 33.3764 19.9529L33.3932 19.9259C33.3966 19.9411 33.4016 19.9546 33.405 19.9697C33.4201 20.0336 33.4252 20.0976 33.4218 20.1598H33.4083H33.4066ZM34.4398 19.2158C34.5054 19.1014 34.5223 18.9433 34.4785 18.7699C34.5256 18.7834 34.5728 18.7952 34.6182 18.8036L34.6535 18.8086C34.7124 18.9584 34.7124 19.1031 34.5526 19.1738C34.5155 19.1906 34.4768 19.2041 34.4398 19.2158ZM43.5247 21.4791C43.5819 21.4959 43.6358 21.5094 43.6863 21.5211C43.6274 21.5094 43.5735 21.4959 43.5247 21.4791ZM44.5865 31.8378C44.5949 32.033 44.6471 32.2416 44.7379 32.3947C44.8658 32.6118 44.9904 32.7178 45.0661 32.7683C44.9702 32.9012 44.8894 33.0443 44.8355 33.1957L44.8036 33.1738C44.5259 32.9803 44.3593 32.6539 44.4754 32.208C44.5108 32.07 44.5478 31.9471 44.5865 31.8378ZM49.2678 34.3837C49.3317 34.2945 49.3856 34.1885 49.4276 34.064C49.4344 34.0556 49.4394 34.0472 49.4461 34.0371C49.4529 34.0287 49.4579 34.0186 49.463 34.0101C49.4983 34.0219 49.532 34.0303 49.5673 34.0387C49.5572 34.0556 49.5471 34.0707 49.5353 34.0875C49.4613 34.1969 49.3721 34.2962 49.2678 34.382V34.3837ZM39.6528 4.70425C39.6747 4.71435 39.6949 4.72276 39.7168 4.72612C39.7269 4.66891 39.742 4.61338 39.7605 4.55954L39.7673 4.54103C39.6999 4.46194 39.6158 4.38958 39.5132 4.33237C39.5031 4.34752 39.4947 4.36434 39.4862 4.37949C39.5535 4.45521 39.6074 4.55281 39.6461 4.67564L39.6545 4.70593L39.6528 4.70425ZM41.1504 4.65882L41.1555 4.66555C41.2144 4.55954 41.3036 4.4468 41.4382 4.35761C41.3742 4.24487 41.285 4.14391 41.1605 4.0766C41.0966 4.11867 41.0394 4.16242 40.9855 4.20954C41.0781 4.39968 41.1286 4.57973 41.1504 4.65882ZM43.8024 5.44127C43.8125 5.43959 43.8226 5.43959 43.8326 5.43791C43.8932 5.37565 43.9774 5.31339 44.0985 5.25617C44.0851 5.14175 44.0649 5.02228 44.0363 4.90786C43.7401 4.97012 43.5146 5.13502 43.3497 5.3218C43.3531 5.33863 43.3564 5.35377 43.3581 5.3706C43.4843 5.38743 43.6358 5.41098 43.8024 5.44295V5.44127ZM54.6793 18.4519C54.6423 18.5815 54.5817 18.7279 54.5228 18.8541C54.5313 18.844 54.538 18.8339 54.5464 18.8238C54.6087 18.7413 54.6524 18.6488 54.6709 18.5545C54.6776 18.5209 54.681 18.4872 54.681 18.4519H54.6793ZM54.5784 24.9387L54.5817 24.9505L54.5851 24.9438L54.5784 24.9387ZM53.1548 27.3854C53.1346 27.3769 53.1111 27.3668 53.0892 27.3551C53.0707 27.382 53.0555 27.4072 53.0421 27.4274C53.0808 27.4156 53.1195 27.4022 53.1565 27.3854H53.1548ZM31.2427 6.48118C31.2629 6.47781 31.2831 6.47277 31.3033 6.46772L31.3336 6.4408C31.3268 6.41051 31.3235 6.38022 31.3184 6.34993L31.3167 6.32974C31.2225 6.28599 31.1148 6.25906 30.9987 6.25065C30.997 6.26916 30.9953 6.28767 30.9953 6.30618C31.0812 6.3432 31.1636 6.40041 31.2444 6.48286L31.2427 6.48118ZM33.5413 19.6937C33.5783 19.7678 33.6052 19.8435 33.622 19.9192C33.6338 19.9731 33.6405 20.0252 33.6439 20.0791C33.6944 20.0421 33.7415 19.9899 33.7869 19.9226C33.8054 19.8957 33.8206 19.8687 33.8357 19.8418C33.9047 19.7139 33.9333 19.5928 33.93 19.48C33.8492 19.4716 33.7768 19.4582 33.7129 19.4413C33.6624 19.5086 33.6052 19.5961 33.5429 19.6921L33.5413 19.6937ZM34.7545 18.5226C34.7679 18.5445 34.7814 18.568 34.7949 18.5916C34.8083 18.5916 34.8201 18.5899 34.8336 18.5882C34.8773 18.5815 34.916 18.568 34.9446 18.5461C34.9732 18.5226 34.9934 18.4872 35.0018 18.4351C35.0069 18.4031 35.0103 18.3711 35.0119 18.3408C35.0069 18.3341 35.0002 18.3257 34.9951 18.319C34.9143 18.3964 34.8353 18.467 34.7545 18.5243V18.5226ZM35.2155 18.1086C35.2256 18.1541 35.2324 18.2029 35.2357 18.255C35.3569 18.3812 35.5268 18.4788 35.7658 18.4805C35.8987 18.4822 35.998 18.4334 36.067 18.356C36.1242 18.292 36.1646 18.2079 36.1915 18.1137L36.1999 18.0851C36.1696 18.1002 36.1393 18.1137 36.1074 18.1238C36.0603 18.1389 36.0098 18.1457 35.9593 18.144C35.7759 18.1389 35.5639 18.0783 35.3821 17.9639C35.3249 18.0094 35.2694 18.0582 35.2155 18.1069V18.1086ZM37.2701 17.7856C37.255 17.8041 37.2398 17.8209 37.223 17.8377C37.3896 18.0228 37.6201 18.1574 37.9264 18.0918C37.9802 18.08 38.029 18.0649 38.0761 18.0481C38.0694 18.0363 38.0644 18.0245 38.0576 18.0127C37.8052 18.0026 37.5057 17.9235 37.2701 17.7856ZM40.5144 20.3685C40.4302 20.4022 40.341 20.424 40.2502 20.424C40.2788 20.4644 40.3141 20.5048 40.3562 20.5435C40.5076 20.6798 40.6692 20.7252 40.8156 20.7067C40.8021 20.6731 40.7937 20.6461 40.7903 20.6293V20.626C40.6793 20.5502 40.5884 20.461 40.5144 20.3668V20.3685ZM44.4165 23.0507C44.3459 23.0558 44.2752 23.049 44.2045 23.0272C44.0682 22.9885 43.9353 22.8993 43.8141 22.7428C43.8226 22.8185 43.8411 22.901 43.8714 22.9901C43.9757 23.3031 44.1473 23.5017 44.3375 23.6026L44.3728 23.6195C44.4502 23.5404 44.536 23.4748 44.6218 23.4226C44.5512 23.2964 44.4822 23.1719 44.4182 23.049L44.4165 23.0507ZM45.0307 24.9034L45.0105 24.9084C44.9028 24.932 44.7884 24.9353 44.6774 24.9168C44.6117 24.9051 44.5478 24.8865 44.4872 24.8613C44.4199 24.9808 44.3896 25.1289 44.4401 25.3106C44.4519 25.3527 44.467 25.3897 44.4872 25.425C44.6134 25.3745 44.7548 25.3426 44.8843 25.3224C44.9533 25.1726 45.0021 25.0346 45.0291 24.9034H45.0307ZM44.3745 26.4851C44.2819 26.4161 44.2045 26.332 44.1507 26.2344C44.1069 26.2899 44.0817 26.3606 44.0884 26.4531C44.0985 26.5692 44.186 26.6971 44.3206 26.8048C44.3341 26.7981 44.3492 26.793 44.361 26.7863C44.3593 26.6837 44.3627 26.5844 44.3728 26.4868L44.3745 26.4851ZM44.5478 28.0685C44.3812 28.2385 44.2315 28.5212 44.2853 28.9772C44.292 29.031 44.3021 29.0832 44.3139 29.1303C44.4266 28.9856 44.5545 28.8644 44.6589 28.7753C44.6286 28.5262 44.5882 28.2906 44.5478 28.0685ZM44.706 30.6128C44.6151 30.601 44.5276 30.5774 44.4485 30.5387C44.4031 30.7137 44.4401 30.9241 44.6841 31.1479C44.706 31.1176 44.7278 31.089 44.748 31.062C44.7278 30.9173 44.7127 30.7676 44.7043 30.6145L44.706 30.6128ZM45.2899 32.8407C45.1805 32.9803 45.0896 33.1351 45.0391 33.2984C45.1502 33.3421 45.2697 33.3707 45.3908 33.3825C45.4194 33.3859 45.4464 33.3875 45.475 33.3892C45.4783 33.3286 45.4834 33.2698 45.4884 33.2125C45.4346 33.1217 45.3656 32.9972 45.2899 32.8407ZM46.2928 34.3046C46.0824 34.5183 45.9242 34.6092 45.8031 34.6125C46.0168 34.7152 46.2507 34.7657 46.4795 34.7421C46.5081 34.7388 46.5367 34.7337 46.567 34.7287C46.5267 34.6311 46.5115 34.5503 46.5065 34.5082C46.4375 34.4678 46.3668 34.4022 46.2928 34.3046ZM46.7437 34.5587C46.7521 34.589 46.7639 34.6243 46.7807 34.6613C46.9053 34.6058 47.0264 34.5234 47.1392 34.4089C47.1509 34.3972 47.161 34.3854 47.1728 34.3736C47.1493 34.3484 47.1274 34.3248 47.1072 34.3012C47.0298 34.4039 46.9019 34.5351 46.7437 34.5604V34.5587ZM50.2959 32.8423L50.3094 32.8524L50.3346 32.871C50.4137 32.8524 50.4928 32.8222 50.5702 32.7784C50.5584 32.7347 50.5449 32.6909 50.5298 32.6488C50.4406 32.7296 50.3615 32.7935 50.2959 32.8423ZM50.7014 32.4806C50.7216 32.531 50.7401 32.5849 50.757 32.6387C50.7755 32.6219 50.7923 32.6034 50.8108 32.5849C50.9555 32.4267 51.038 32.282 51.08 32.1508C51.0565 32.1423 51.0329 32.1339 51.0094 32.1255C50.9017 32.2635 50.7973 32.3813 50.7014 32.4822V32.4806ZM51.4839 31.4087C51.5428 31.4289 51.6135 31.4491 51.6909 31.4676C51.6673 31.3633 51.6353 31.2707 51.605 31.1933C51.5697 31.2606 51.5293 31.3313 51.4839 31.4087ZM51.7346 30.9409C51.7952 31.062 51.881 31.2606 51.9264 31.508C51.987 31.513 52.0476 31.5147 52.1082 31.5096C52.1772 31.3532 52.1923 31.1983 52.1704 31.052C52.1671 31.025 52.1603 30.9998 52.1536 30.9729L52.1284 30.9645C52.0106 30.9224 51.9012 30.8618 51.8086 30.7827C51.7885 30.8298 51.7649 30.8837 51.7363 30.9426L51.7346 30.9409ZM52.7207 29.0748C52.9209 29.2498 53.0202 29.4753 53.032 29.689L53.0337 29.7092C53.0555 29.7395 53.0757 29.7697 53.0925 29.8017L53.1111 29.837C53.3803 29.3474 53.2103 29.0176 53.0034 28.819C52.9966 28.8207 52.9899 28.8224 52.9815 28.8257C52.9192 28.8426 52.8603 28.8527 52.8048 28.8577C52.7796 28.9284 52.7526 29.0007 52.719 29.0748H52.7207ZM52.9125 28.4707C52.9512 28.4943 52.995 28.5229 53.0387 28.5548C53.0959 28.5128 53.1363 28.4522 53.1599 28.3832C53.1851 28.3092 53.1918 28.225 53.1817 28.1392C53.1043 28.1459 53.0303 28.1476 52.9579 28.1459C52.9495 28.2452 52.9361 28.3546 52.9108 28.4707H52.9125ZM52.968 27.9221C53.0168 27.9238 53.0656 27.9238 53.1161 27.9205C53.1026 27.8952 53.0892 27.87 53.0724 27.8464C53.0555 27.8212 53.037 27.7976 53.0151 27.7741C52.9966 27.7774 52.9798 27.7808 52.963 27.7842C52.9663 27.8245 52.968 27.8717 52.968 27.9221ZM53.6192 26.2546C53.6495 26.3051 53.6781 26.364 53.705 26.4329C53.8212 26.4296 53.9406 26.4195 54.0567 26.401C54.0231 26.125 53.9002 25.9029 53.7471 25.7279C53.7219 25.8541 53.6798 26.0459 53.6192 26.2529V26.2546ZM54.3664 24.4962C54.4656 24.5618 54.5733 24.6409 54.6777 24.7301C54.6844 24.7065 54.6894 24.6813 54.6962 24.656C54.7382 24.4457 54.7332 24.2791 54.6995 24.1445C54.6289 24.1613 54.5615 24.1714 54.4976 24.1798C54.4572 24.2875 54.4135 24.3935 54.3664 24.4978V24.4962ZM54.6962 22.8151C54.8072 22.8892 54.9502 23.0019 55.0865 23.155C55.1421 23.1281 55.1942 23.0978 55.2414 23.0625C55.2195 22.8942 55.1522 22.7529 55.0563 22.6401C55.0394 22.6199 55.0209 22.5998 55.0024 22.5812L54.9772 22.5863C54.8661 22.6099 54.7517 22.6149 54.6423 22.6014C54.6642 22.662 54.6827 22.731 54.6978 22.8135L54.6962 22.8151ZM54.501 20.6647C54.7635 20.7101 54.9637 20.8514 55.0865 21.0264L55.0983 21.0433C55.132 21.0567 55.1656 21.0735 55.1976 21.0921L55.2313 21.1123C55.2111 20.6647 55.0041 20.4509 54.7786 20.3534C54.6726 20.4257 54.57 20.4711 54.474 20.4981C54.4841 20.5553 54.4926 20.6108 54.5026 20.6663L54.501 20.6647ZM54.2099 19.5625C54.3344 19.5423 54.469 19.5053 54.6019 19.4464C54.5817 19.4279 54.5599 19.4094 54.5363 19.3925C54.5111 19.3757 54.4858 19.3589 54.4572 19.3437C54.3512 19.411 54.2519 19.4632 54.1779 19.5019C54.1846 19.5238 54.1947 19.544 54.2099 19.5625ZM54.4707 17.6947C54.5228 17.7334 54.5767 17.7839 54.6339 17.8478C54.7416 17.8041 54.8493 17.7536 54.9536 17.6947C54.824 17.4456 54.6272 17.2791 54.4219 17.1697C54.437 17.2892 54.4572 17.4776 54.4724 17.6947H54.4707ZM54.6524 15.8202C54.7466 15.8437 54.8476 15.874 54.9469 15.911C54.9452 15.8858 54.9418 15.8605 54.9368 15.8353C54.9031 15.6233 54.8392 15.4685 54.7618 15.3557C54.7147 15.3877 54.6676 15.4146 54.6238 15.4399C54.6406 15.5863 54.6507 15.7158 54.6541 15.8218L54.6524 15.8202ZM54.3361 14.1223C54.4606 14.1543 54.6171 14.2081 54.7786 14.294C54.8207 14.2485 54.8594 14.2014 54.8914 14.1526C54.8123 14.0028 54.6995 13.8935 54.57 13.8211C54.5464 13.8077 54.5228 13.7959 54.4976 13.7858L54.4757 13.8009C54.4084 13.843 54.3344 13.88 54.2603 13.9052C54.2873 13.9776 54.3125 14.05 54.3361 14.1223ZM53.2171 12.2024C53.5351 12.0963 53.8279 12.1569 54.0349 12.3L54.0517 12.3117C54.0887 12.3134 54.124 12.3168 54.1611 12.3218L54.1998 12.3286C53.8599 11.5293 53.1649 11.8019 52.9781 11.8944L52.9613 11.9113C53.0202 11.9735 53.1077 12.0694 53.2171 12.2024ZM46.5839 6.43238C46.7454 6.18839 46.9776 6.05882 47.2031 6.02685L47.2233 6.02517C47.2519 6.00161 47.2805 5.97974 47.3108 5.95786L47.3444 5.93599C47.018 5.78959 46.7723 5.81651 46.5889 5.91411C46.6327 6.1194 46.6057 6.29272 46.5553 6.42733L46.5839 6.43238ZM45.9848 6.27253C46.0454 6.14127 46.1548 5.95618 46.3247 5.81315C46.2793 5.71387 46.1918 5.65161 46.0892 5.62637C46.0134 5.60786 45.9293 5.60786 45.8452 5.62637C45.8822 5.82998 45.8771 6.02685 45.8553 6.19512C45.9057 6.22541 45.9478 6.25065 45.9831 6.27253H45.9848ZM45.6449 6.07733C45.6533 5.96459 45.6533 5.84007 45.6331 5.71219C45.6096 5.72733 45.586 5.74416 45.5641 5.76098C45.5406 5.77949 45.5187 5.80137 45.4968 5.82324C45.5187 5.89728 45.5372 5.96627 45.5507 6.02853C45.5843 6.04536 45.6146 6.06051 45.6449 6.07733ZM42.0372 4.91459C42.1028 4.77492 42.1971 4.6016 42.3182 4.43502C42.293 4.42997 42.2677 4.4266 42.2425 4.42324C42.0288 4.39968 41.8639 4.41987 41.7326 4.46362C41.7831 4.61507 41.805 4.76146 41.8151 4.86411C41.8942 4.87925 41.9682 4.89608 42.0372 4.9129V4.91459ZM41.5862 4.8254C41.5762 4.75136 41.561 4.66218 41.5324 4.57132C41.4432 4.63862 41.3826 4.71939 41.3439 4.79175C41.4281 4.80185 41.5088 4.81362 41.5862 4.8254ZM40.336 4.72949C40.3831 4.62348 40.5009 4.38958 40.7146 4.1641C40.6826 4.11194 40.6473 4.06146 40.6086 4.01771C40.442 4.05473 40.3074 4.13381 40.2031 4.23982C40.1846 4.25833 40.166 4.27853 40.1492 4.29872L40.1576 4.32396C40.198 4.45521 40.2132 4.59656 40.1963 4.72949C40.2435 4.72949 40.2906 4.72949 40.336 4.72949ZM38.2814 5.04247C38.2848 4.74127 38.416 4.50064 38.5944 4.35088L38.6096 4.33742C38.6213 4.30208 38.6331 4.26843 38.6483 4.23478L38.6651 4.19944C38.3117 4.24656 38.1165 4.39968 38.0122 4.57805C38.1586 4.74127 38.2259 4.90617 38.2511 5.05257L38.2797 5.04247H38.2814ZM38.0374 5.13334C38.0273 5.03911 37.9954 4.9331 37.9213 4.82204C37.8944 4.95834 37.8995 5.08959 37.9095 5.18214C37.9516 5.16699 37.9937 5.15016 38.0374 5.13334ZM37.6942 5.25617C37.6723 5.11819 37.6555 4.87252 37.7345 4.63189C37.6622 4.59319 37.5797 4.58478 37.4973 4.6016C37.4216 4.61675 37.3442 4.65377 37.2769 4.70593C37.4182 4.90281 37.504 5.11315 37.5545 5.29488C37.6016 5.28478 37.6487 5.27132 37.6958 5.25617H37.6942ZM36.7788 5.22757C36.7031 5.14848 36.6139 5.08117 36.518 5.03238C36.4254 4.98526 36.3278 4.95834 36.2302 4.95665C36.1276 4.95497 36.0249 4.98189 35.929 5.04752C36.2016 5.06603 36.491 5.11988 36.7771 5.22757H36.7788ZM31.9242 6.01507C31.936 5.89224 31.9629 5.74416 32.0134 5.58598C31.9629 5.55233 31.909 5.52204 31.8552 5.49848C31.7206 5.60281 31.6331 5.73238 31.5843 5.87204C31.5759 5.89728 31.5675 5.92252 31.5607 5.94945L31.5792 5.96964C31.6297 6.02517 31.6735 6.08575 31.7105 6.14969C31.7812 6.10257 31.8518 6.05882 31.9242 6.01675V6.01507ZM30.2179 7.47397C30.0631 7.18287 30.0732 6.88671 30.1792 6.66123L30.1876 6.64272C30.1826 6.6057 30.1792 6.57036 30.1792 6.53334V6.49296C29.6004 6.8682 29.7266 7.34609 29.8646 7.61364L29.873 7.62373C30.0362 7.50763 30.1473 7.47566 30.2196 7.47397H30.2179ZM29.6912 7.7634L29.6795 7.7432C29.5819 7.64561 29.4287 7.55306 29.1898 7.5396C29.067 7.53287 28.966 7.59008 28.897 7.68263C28.8499 7.74489 28.8179 7.82229 28.8011 7.90811C28.9845 7.94849 29.1477 8.01917 29.2857 8.09489C29.4153 7.9872 29.5583 7.86941 29.6896 7.76508L29.6912 7.7634ZM29.1023 8.24801C29.0114 8.20258 28.9088 8.16388 28.7994 8.13696C28.8045 8.16556 28.8095 8.19248 28.8179 8.22109C28.8263 8.2497 28.8364 8.27999 28.8499 8.30691C28.9071 8.31364 28.9593 8.32037 29.0081 8.3271L29.1023 8.24801ZM27.8369 9.65812C27.8083 9.58239 27.7881 9.48816 27.7831 9.37037C27.672 9.3384 27.5559 9.3098 27.4381 9.29129C27.3809 9.58913 27.4448 9.86004 27.5525 10.0855C27.571 10.0889 27.5896 10.0939 27.6064 10.0973C27.6367 10.0468 27.6686 9.99634 27.7006 9.94586C27.7713 9.83312 27.8117 9.74057 27.8369 9.65812ZM27.2311 10.7233C27.1016 10.5937 26.9198 10.4641 26.7196 10.38L26.691 10.3682C26.617 10.4052 26.548 10.4524 26.484 10.5129C26.5631 10.6576 26.6624 10.7906 26.7533 10.8999C26.9754 10.7855 27.1857 10.8007 27.1857 10.8007C27.1857 10.8007 27.2025 10.7721 27.2295 10.7249L27.2311 10.7233ZM26.5715 11.0262C26.4924 10.9302 26.4083 10.8158 26.3343 10.693C26.3208 10.7132 26.3073 10.735 26.2939 10.7586C26.1895 10.9454 26.1424 11.1069 26.134 11.2432C26.2266 11.2499 26.3141 11.2651 26.3898 11.2836C26.41 11.2247 26.447 11.1591 26.5143 11.0834C26.5328 11.0632 26.5513 11.043 26.5715 11.0262ZM26.3696 11.5074C26.3057 11.4906 26.2316 11.4771 26.1525 11.4687C26.1727 11.5461 26.203 11.6134 26.2383 11.6673C26.2585 11.6504 26.2787 11.637 26.2989 11.6286C26.3645 11.6016 26.3713 11.5629 26.3696 11.5074ZM25.9557 12.061C25.8867 12.0543 25.7958 12.0475 25.6982 12.0475C25.7403 12.1334 25.7874 12.2091 25.8311 12.273C25.848 12.2495 25.8631 12.2276 25.8799 12.204C25.8799 12.204 25.9102 12.1435 25.9557 12.0627V12.061ZM25.6999 12.4716C25.6225 12.3689 25.535 12.231 25.4609 12.0644C25.4004 12.0728 25.3415 12.0863 25.2843 12.1048C25.254 12.2713 25.2742 12.4262 25.3314 12.5641C25.3415 12.5894 25.3532 12.6129 25.365 12.6365L25.3919 12.6382C25.4576 12.6449 25.5215 12.6584 25.5838 12.6769C25.6191 12.6113 25.6578 12.5423 25.7016 12.4716H25.6999ZM25.0083 14.8274C24.9814 14.8341 24.9528 14.8408 24.9225 14.8509C24.9393 14.8644 24.9578 14.8778 24.9763 14.8913C24.9864 14.8694 24.9965 14.8476 25.0083 14.8274ZM24.8939 15.1084C24.8316 15.0714 24.7694 15.0259 24.7105 14.9721C24.6583 15.0276 24.628 15.1 24.6196 15.1774C24.6112 15.2548 24.623 15.3389 24.6516 15.4197C24.7088 15.4012 24.7677 15.386 24.8232 15.3726C24.8434 15.2783 24.8669 15.1891 24.8922 15.1084H24.8939ZM24.7794 15.6149L24.7677 15.6182L24.7778 15.63L24.7794 15.6149ZM24.6869 16.2947C24.6381 16.3553 24.5994 16.4209 24.5758 16.4916C24.5338 16.6161 24.5371 16.7557 24.6095 16.9038L24.6162 16.9156C24.6415 16.7002 24.665 16.4916 24.6869 16.2947ZM24.5725 17.269C24.5556 17.2471 24.5388 17.2235 24.522 17.1983C24.4093 17.2269 24.2948 17.2622 24.1855 17.306C24.2561 17.5012 24.3689 17.6577 24.4984 17.7805C24.5254 17.6072 24.5506 17.4356 24.5725 17.269ZM24.3487 18.5932C24.2746 18.5932 24.1989 18.5966 24.1232 18.6084L24.0929 18.6134C24.0492 18.6824 24.0121 18.7582 23.9886 18.844C24.0895 18.9045 24.1972 18.9533 24.2982 18.9937C24.31 18.8642 24.3268 18.7295 24.3487 18.5949V18.5932ZM24.2814 19.2243C24.1754 19.1839 24.0626 19.1351 23.9516 19.0745C23.9499 19.0997 23.9499 19.125 23.9516 19.1519C23.9566 19.3656 23.9987 19.5288 24.0609 19.6517C24.135 19.6146 24.209 19.586 24.2763 19.5642C24.2746 19.4548 24.2763 19.3421 24.283 19.2259L24.2814 19.2243ZM24.283 19.7964C24.2528 19.8082 24.2225 19.8199 24.1922 19.8351C24.2242 19.8671 24.2578 19.894 24.2915 19.9175C24.2881 19.8771 24.2864 19.8368 24.283 19.7964ZM24.352 20.4324C24.2864 20.461 24.1922 20.5065 24.0946 20.5654C24.209 20.6394 24.3184 20.6916 24.4076 20.7286C24.3874 20.6377 24.3689 20.5385 24.352 20.4341V20.4324ZM24.4715 20.9877C24.347 20.949 24.1266 20.8632 23.8994 20.7017C23.8523 20.7404 23.8068 20.7824 23.7681 20.8262C23.827 20.986 23.923 21.1089 24.0424 21.1981C24.0643 21.2149 24.0862 21.2284 24.108 21.2435L24.1316 21.2317C24.2528 21.1762 24.384 21.1425 24.5136 21.1392C24.5001 21.0921 24.485 21.0433 24.4715 20.9894V20.9877ZM24.7323 22.9716C24.591 22.9346 24.4665 22.8656 24.3706 22.7764L24.3554 22.763C24.3201 22.7562 24.2831 22.7478 24.2477 22.7377L24.209 22.726C24.315 23.113 24.5254 23.2829 24.7424 23.3486C24.7693 23.3351 24.7963 23.3233 24.8232 23.3132C24.7879 23.1937 24.7576 23.081 24.7306 22.9733L24.7323 22.9716ZM24.9174 23.6077C24.8703 23.606 24.8215 23.601 24.7727 23.5909C24.7071 23.6363 24.6398 23.6986 24.5775 23.7827C24.5035 23.882 24.4968 23.9964 24.5355 24.1058C24.5624 24.1798 24.6078 24.2488 24.6701 24.3094C24.7929 24.1916 24.9258 24.099 25.0554 24.0301C25.0218 23.9224 24.9763 23.7861 24.9191 23.6077H24.9174ZM25.121 24.2471C25.0335 24.2993 24.9427 24.3615 24.8585 24.4389C24.8838 24.4507 24.9107 24.4608 24.9376 24.4692C24.9662 24.4776 24.9965 24.4861 25.0268 24.4911C25.0672 24.4406 25.1076 24.3969 25.1463 24.3565C25.1412 24.3279 25.1328 24.2926 25.121 24.2471ZM25.0621 25.2147C25.0605 25.2466 25.0621 25.2769 25.0655 25.3072C25.0722 25.3577 25.0857 25.4065 25.1059 25.4553C25.0857 25.3728 25.0706 25.2921 25.0605 25.2147H25.0621ZM25.296 25.9921C25.2169 26.0611 25.1395 26.1351 25.0672 26.2125C25.2523 26.3959 25.471 26.4918 25.6864 26.5373C25.5232 26.3825 25.3936 26.1923 25.296 25.9921ZM26.1609 27.1733C25.9775 27.207 25.7621 27.2878 25.577 27.4123L25.5518 27.4291C25.5417 27.5099 25.5434 27.594 25.5569 27.6815C25.7857 27.7 26.0162 27.6765 26.1828 27.6495C26.1996 27.4981 26.2013 27.3349 26.1609 27.1733ZM26.1508 27.8801C26.0011 27.9003 25.8177 27.9154 25.6258 27.907C25.6359 27.9305 25.646 27.9524 25.6578 27.976C25.7554 28.1661 25.8648 28.294 25.9742 28.3781C26.0213 28.3176 26.0718 28.2637 26.1206 28.2149C26.1105 28.1291 26.1307 28.013 26.1525 27.8801H26.1508ZM26.1845 28.4724L26.1727 28.4875C26.1795 28.4892 26.1862 28.4926 26.1929 28.4943L26.1845 28.4724ZM26.4706 29.0882C26.4487 29.1185 26.4251 29.1522 26.4016 29.1858C26.4487 29.1926 26.4941 29.1959 26.5362 29.1976C26.5143 29.1623 26.4908 29.1253 26.4689 29.0882H26.4706ZM26.696 29.4214C26.5783 29.4248 26.4369 29.4197 26.2838 29.3928C26.2585 29.4483 26.2367 29.5056 26.2198 29.5628C26.3427 29.6806 26.4823 29.7495 26.6287 29.7782C26.6557 29.7832 26.6809 29.7866 26.7078 29.7899L26.7246 29.7697C26.7734 29.7108 26.8273 29.6587 26.8862 29.6116C26.8239 29.5661 26.76 29.5005 26.696 29.4214ZM28.0674 31.0654C27.9076 31.1058 27.7494 31.0991 27.6097 31.057L27.5896 31.0503C27.5542 31.0604 27.5189 31.0688 27.4819 31.0738L27.4432 31.0789C27.6468 31.3128 27.8504 31.402 28.0355 31.4137C28.0658 31.3145 28.1078 31.2303 28.1566 31.1596C28.1263 31.1277 28.096 31.0957 28.0658 31.062L28.0674 31.0654ZM28.3215 31.3212C28.3081 31.3431 28.2963 31.3649 28.2845 31.3902C28.3131 31.3818 28.34 31.3734 28.367 31.3616C28.3518 31.3481 28.3367 31.3346 28.3198 31.3212H28.3215ZM28.5655 31.5181C28.4646 31.5719 28.3485 31.619 28.2206 31.6392C28.2189 31.6645 28.2172 31.6914 28.2172 31.72C28.2172 31.8428 28.2795 31.9404 28.3754 32.0044C28.441 32.0481 28.5201 32.0767 28.6059 32.0885C28.6328 31.9219 28.685 31.7722 28.7456 31.6392C28.685 31.6005 28.6244 31.5601 28.5655 31.5181ZM28.9391 31.752C28.8953 31.8496 28.8583 31.9606 28.8348 32.0801C28.8617 32.075 28.8903 32.0666 28.9172 32.0565C28.9458 32.0464 28.9744 32.0347 29.0013 32.0195C29.0064 31.9371 29.0131 31.8597 29.0215 31.794C28.9929 31.7806 28.966 31.7654 28.9374 31.752H28.9391ZM29.3884 31.9892C29.3682 32.0145 29.348 32.0363 29.3261 32.0582V32.0734C29.3227 32.1827 29.3379 32.2938 29.3715 32.3947C29.4035 32.4923 29.4523 32.5815 29.5196 32.6522C29.6105 32.7464 29.735 32.8087 29.8949 32.8137C29.7787 32.5664 29.7384 32.2416 29.3867 31.9909L29.3884 31.9892ZM30.1052 33.1032C30.0867 33.1923 30.0715 33.2849 30.0614 33.3758C30.1843 33.3926 30.3004 33.3892 30.4114 33.3724C30.2937 33.2883 30.191 33.194 30.1052 33.1032ZM31.3453 33.7123C31.2831 33.8099 31.2275 33.9193 31.1872 34.0337L31.1771 34.0623C31.2175 34.133 31.2679 34.2003 31.3319 34.2609C31.453 34.1851 31.5641 34.096 31.66 34.0118C31.5809 33.8772 31.4884 33.7645 31.3453 33.7123ZM31.7677 34.2121C31.6937 34.276 31.6095 34.3416 31.5203 34.4005C31.5422 34.4123 31.5641 34.4258 31.5876 34.4359C31.7391 34.5099 31.8737 34.5486 31.9915 34.5637C31.8973 34.4594 31.83 34.3349 31.7677 34.2104V34.2121ZM33.1593 35.0686C33.0937 35.1123 33.0196 35.1577 32.9389 35.1981C32.9506 35.2587 32.9675 35.3176 32.9893 35.3714C33.1576 35.3933 33.3107 35.3647 33.4453 35.3008C33.4689 35.289 33.4925 35.2772 33.516 35.2638L33.5177 35.2368C33.5194 35.1948 33.5244 35.1527 33.5312 35.1123C33.4268 35.1106 33.299 35.0955 33.161 35.0686H33.1593ZM34.9564 35.7753C34.9396 35.7955 34.9228 35.814 34.9059 35.8325L34.8773 35.8611C35.2172 35.9351 35.4494 35.8628 35.6076 35.7366C35.4309 35.7736 35.1903 35.8056 34.9564 35.7753ZM26.0852 11.8524L26.0903 11.8439C26.0179 11.7497 25.9506 11.6252 25.9203 11.4704C25.7924 11.4855 25.6645 11.5276 25.5535 11.6168C25.5669 11.6908 25.5855 11.7632 25.6073 11.8288C25.816 11.8187 26.0011 11.8406 26.0835 11.8524H26.0852ZM27.4213 10.4036L27.4499 10.3564C27.4347 10.3329 27.4213 10.3076 27.4078 10.2841C27.3759 10.279 27.3439 10.2757 27.3119 10.2723C27.3456 10.3194 27.3809 10.3632 27.4213 10.4036ZM32.5283 5.73238C32.5703 5.71723 32.6141 5.70209 32.6562 5.68695C32.6747 5.60786 32.7066 5.52541 32.7554 5.44295C32.6494 5.36892 32.5266 5.31507 32.3852 5.30834C32.3449 5.37228 32.3112 5.43791 32.2843 5.50353C32.3819 5.58262 32.466 5.66507 32.53 5.73238H32.5283ZM34.6603 5.19223C34.7006 5.17877 34.7444 5.16699 34.7898 5.15521C34.8773 4.97685 35.0052 4.80521 35.1869 4.66386C35.1617 4.63862 35.1348 4.61507 35.1079 4.59151C35.017 4.66386 34.9362 4.74463 34.8672 4.83382C34.7797 4.94488 34.7107 5.06603 34.6619 5.19392L34.6603 5.19223ZM38.8401 4.87084C38.9293 4.84896 39.0252 4.83045 39.1261 4.81194C39.1362 4.69415 39.1648 4.56627 39.2136 4.43838C39.1951 4.42829 39.1749 4.41987 39.1547 4.41483C39.0891 4.39463 39.0168 4.39463 38.9478 4.41146C38.899 4.42324 38.8502 4.44343 38.8047 4.47204C38.7862 4.55954 38.7829 4.64872 38.7963 4.73286C38.8047 4.78165 38.8182 4.82709 38.8367 4.87084H38.8401ZM47.1408 6.57205C47.1896 6.58887 47.2368 6.60738 47.2788 6.62589C47.3243 6.64608 47.3697 6.66796 47.4151 6.68983C47.4858 6.5956 47.5767 6.50474 47.6827 6.42229C47.6726 6.40378 47.6591 6.38695 47.6456 6.3718C47.6002 6.31964 47.5396 6.28262 47.4706 6.25906C47.4235 6.24392 47.3714 6.23551 47.3175 6.23551C47.2553 6.29945 47.2065 6.37517 47.1728 6.45426C47.1577 6.49296 47.1459 6.53166 47.1392 6.57036L47.1408 6.57205ZM47.612 6.79753C47.6406 6.81435 47.6692 6.83118 47.6978 6.84801C47.7029 6.8295 47.7096 6.81099 47.7146 6.79248C47.7264 6.74873 47.7331 6.70834 47.7348 6.66964C47.6877 6.71171 47.6473 6.75546 47.612 6.79921V6.79753ZM47.8913 6.97085L47.9149 6.98599C47.967 6.92373 48.0259 6.86315 48.0882 6.81099L48.1033 6.79753C48.0882 6.69488 48.0545 6.58887 47.9973 6.48623C47.9805 6.49464 47.9654 6.50306 47.9485 6.51315C47.9654 6.61243 47.9603 6.72517 47.9283 6.84801C47.9166 6.89176 47.9031 6.93214 47.8896 6.96916L47.8913 6.97085ZM49.2375 7.56652C49.2577 7.5783 49.2779 7.5884 49.2964 7.60018C49.3889 7.55979 49.4983 7.52782 49.6228 7.52445C49.6279 7.39489 49.606 7.26195 49.5353 7.13912C49.4596 7.1408 49.3872 7.14753 49.3166 7.15931C49.2997 7.32421 49.2644 7.47229 49.2375 7.56484V7.56652ZM54.0365 13.3735C54.0534 13.4055 54.0702 13.4391 54.0853 13.4711C54.1072 13.4711 54.1291 13.4711 54.1493 13.4728L54.1695 13.4745C54.2284 13.3887 54.2738 13.2877 54.3024 13.175C54.2839 13.1699 54.2671 13.1649 54.2486 13.1615C54.1981 13.2389 54.1291 13.3096 54.0349 13.3752L54.0365 13.3735ZM54.5178 14.7836C54.5245 14.8173 54.5313 14.8509 54.538 14.8846C54.6221 14.9166 54.7096 14.9654 54.7904 15.0377C54.8813 14.9468 54.9553 14.8341 54.9873 14.6961C54.9301 14.6456 54.8712 14.6019 54.8123 14.5632C54.7046 14.6574 54.5969 14.7331 54.5161 14.7853L54.5178 14.7836ZM54.575 21.2065C54.5801 21.3041 54.5817 21.4017 54.575 21.5043C54.6928 21.5245 54.8207 21.5649 54.9452 21.6255C54.957 21.607 54.9671 21.5885 54.9738 21.5699C54.999 21.506 55.0058 21.4353 54.9957 21.363C54.9873 21.3142 54.9721 21.2637 54.9486 21.2166C54.8627 21.1897 54.7736 21.1796 54.6894 21.1863C54.6507 21.1897 54.6137 21.1964 54.5767 21.2065H54.575ZM52.6231 29.2784C52.6079 29.307 52.5945 29.3356 52.5793 29.3642C52.6214 29.3777 52.6635 29.3945 52.7055 29.4147L52.7358 29.4315C52.7072 29.3777 52.6685 29.3272 52.6231 29.2784ZM52.4699 29.5661C52.4178 29.657 52.369 29.7378 52.3219 29.8101C52.4195 29.8926 52.5154 29.9986 52.5962 30.1248C52.6147 30.1147 52.6332 30.1046 52.65 30.0911C52.7055 30.0491 52.7476 29.9919 52.7762 29.9262C52.7947 29.8791 52.8082 29.8286 52.8115 29.7765C52.7526 29.7092 52.682 29.6536 52.6062 29.6149C52.5625 29.5931 52.5171 29.5762 52.4716 29.5661H52.4699ZM52.194 29.9935C52.1687 30.0272 52.1469 30.0575 52.1233 30.0844C52.1536 30.0979 52.1873 30.113 52.2243 30.1248C52.2663 30.1399 52.3067 30.15 52.3454 30.1551C52.2966 30.0928 52.2462 30.0373 52.1923 29.9919L52.194 29.9935ZM51.9736 30.2577L51.9668 30.2645C52.0442 30.3334 52.1166 30.4125 52.1772 30.4983L52.1889 30.5152C52.2933 30.5084 52.401 30.4832 52.507 30.4344C52.5002 30.4176 52.4918 30.4007 52.4851 30.3839C52.3841 30.3923 52.2731 30.3789 52.1519 30.3368C52.0846 30.3132 52.024 30.2863 51.9736 30.2577ZM51.3711 31.5972C51.351 31.6291 51.3324 31.6611 51.3123 31.6914C51.3358 31.7738 51.3493 31.8681 51.3442 31.9707C51.4721 31.9859 51.6067 31.9741 51.7346 31.9135C51.7397 31.8378 51.738 31.7637 51.7312 31.6947C51.5899 31.6678 51.462 31.6291 51.3711 31.5972ZM50.0418 33.1082C50.0334 33.12 50.025 33.1335 50.0166 33.1469C50.0267 33.2798 50.0199 33.4145 49.9964 33.5491C49.9779 33.6551 49.9493 33.7611 49.9089 33.8637C50.0721 33.8637 50.2252 33.8234 50.3582 33.7207C50.5231 33.5928 50.6005 33.4246 50.6207 33.2462L50.6089 33.2428C50.4995 33.2125 50.3918 33.1637 50.2925 33.1032C50.2084 33.1149 50.1259 33.1166 50.0418 33.1116V33.1082ZM49.7928 33.3774C49.7574 33.4061 49.7187 33.4347 49.675 33.4649C49.6582 33.5794 49.6245 33.6955 49.574 33.8116C49.6094 33.8217 49.643 33.8301 49.6784 33.8368C49.7238 33.7308 49.7558 33.6198 49.7759 33.5087C49.7844 33.4649 49.7894 33.4212 49.7928 33.3758V33.3774ZM44.4283 26.226C44.4435 26.1704 44.462 26.1149 44.4839 26.0611C44.4367 26.0712 44.3879 26.0846 44.3425 26.1015C44.3644 26.1469 44.393 26.1873 44.4283 26.226ZM40.3949 20.1733C40.3225 20.037 40.2754 19.8973 40.2451 19.7695C40.2233 19.7762 40.2014 19.7829 40.1795 19.7896C40.1425 19.9192 40.1273 20.0555 40.1543 20.1884C40.235 20.207 40.3158 20.2002 40.3949 20.175V20.1733ZM38.5288 18.2533C38.5136 18.1457 38.5338 18.0649 38.5523 18.0009C38.5086 18.0464 38.4598 18.0901 38.4026 18.1288C38.4396 18.1726 38.4817 18.2146 38.5288 18.2533ZM34.1454 35.3361C34.0797 35.2755 34.0208 35.22 33.9653 35.1779C34.0023 35.2722 34.0562 35.3647 34.1302 35.4505C34.1437 35.4388 34.1588 35.427 34.1723 35.4152C34.1622 35.39 34.1538 35.363 34.147 35.3361H34.1454ZM32.6915 34.9457C32.5636 34.9037 32.4408 34.8532 32.3297 34.7993C32.3533 34.9171 32.4021 35.0349 32.4913 35.1325C32.5653 35.1157 32.6343 35.0921 32.7016 35.0669C32.6965 35.0248 32.6949 34.9844 32.6915 34.9457ZM30.8187 33.5945C30.7732 33.5777 30.7295 33.5575 30.6857 33.5356C30.4973 33.5979 30.2869 33.6298 30.0581 33.6012C30.0581 33.6383 30.0598 33.6736 30.0631 33.7089C30.1775 33.7224 30.2937 33.7224 30.4047 33.7089C30.5511 33.6921 30.6908 33.6534 30.8187 33.5945ZM27.7999 30.6986C27.7376 30.5976 27.6855 30.495 27.6434 30.3923C27.5542 30.4344 27.4566 30.4681 27.3506 30.4916C27.3523 30.5135 27.3573 30.5337 27.3624 30.5539C27.3826 30.6195 27.4213 30.6801 27.4734 30.7289C27.5105 30.7625 27.5542 30.7911 27.6013 30.8147C27.6737 30.7861 27.741 30.7474 27.7982 30.7003L27.7999 30.6986ZM27.5525 30.1904C27.5374 30.1618 27.5222 30.1332 27.5071 30.1096C27.497 30.1197 27.4886 30.1315 27.4785 30.1433C27.4499 30.1786 27.4263 30.2123 27.4078 30.2459C27.46 30.2291 27.5088 30.2106 27.5525 30.1904ZM27.3674 29.9313C27.3573 29.9212 27.3456 29.9111 27.3355 29.901C27.2732 29.9279 27.2093 29.9515 27.1453 29.97L27.1268 29.975C27.0982 30.076 27.0847 30.1854 27.0932 30.3015C27.1117 30.3015 27.1302 30.2998 27.1487 30.2981C27.1739 30.2005 27.2261 30.1012 27.3069 30.0019C27.3271 29.9767 27.3489 29.9532 27.3691 29.9313H27.3674ZM26.3612 28.8729C26.3393 28.8308 26.3191 28.787 26.3006 28.745C26.2215 28.7366 26.1374 28.7181 26.0499 28.681C25.991 28.7955 25.9557 28.9267 25.9691 29.0681C26.0381 29.0983 26.1088 29.1219 26.1761 29.1404C26.2383 29.0361 26.3057 28.9435 26.3612 28.8729ZM26.0078 26.8385C25.996 26.8233 25.9843 26.8082 25.9708 26.793C25.9422 26.7914 25.9119 26.7897 25.8816 26.788C25.8597 26.8116 25.8395 26.8351 25.8194 26.8603C25.8833 26.8587 25.9456 26.8519 26.0078 26.8385ZM24.6549 22.5425C24.6347 22.413 24.623 22.2935 24.6162 22.1858C24.5405 22.1808 24.4631 22.169 24.384 22.1505C24.3773 22.1707 24.3722 22.1909 24.3689 22.2111C24.3571 22.28 24.3672 22.3507 24.3941 22.418C24.4126 22.4651 24.4395 22.5089 24.4732 22.551C24.5355 22.556 24.5977 22.5526 24.6566 22.5425H24.6549ZM24.6095 21.9637C24.6095 21.9452 24.6095 21.9284 24.6095 21.9115C24.5843 21.925 24.5607 21.9401 24.5405 21.9553C24.5641 21.9586 24.5876 21.962 24.6095 21.9637ZM24.6263 21.6591C24.628 21.6423 24.6297 21.6272 24.6331 21.612C24.5641 21.6103 24.4934 21.6019 24.4261 21.5901L24.4059 21.5868C24.3369 21.6642 24.2763 21.7584 24.2343 21.8661C24.2511 21.8728 24.2679 21.8796 24.2847 21.8863C24.3504 21.8106 24.4395 21.7416 24.5556 21.6877C24.5792 21.676 24.6044 21.6659 24.6263 21.6574V21.6591ZM24.3268 20.2036L24.3251 20.1851C24.2174 20.1413 24.1013 20.069 24.0004 19.9546C23.8977 20.032 23.8085 20.1346 23.7597 20.2675C23.8085 20.3247 23.8607 20.3769 23.9145 20.4223C24.0828 20.3113 24.2477 20.2372 24.3268 20.2036ZM25.2136 14.5884C25.0066 14.4639 24.8737 14.2805 24.8165 14.092L24.8114 14.0718C24.7828 14.0483 24.7576 14.023 24.7323 13.9961L24.7054 13.9658C24.6179 14.2822 24.6667 14.511 24.771 14.6742C24.9343 14.6019 25.084 14.58 25.2136 14.5884ZM25.3633 14.4168C25.3819 14.3781 25.3919 14.3377 25.397 14.294C25.3314 14.2956 25.2641 14.2872 25.1984 14.2721L25.1648 14.2637C25.2169 14.3226 25.2843 14.3747 25.3633 14.4168ZM25.3869 14.0702C25.3734 13.9675 25.3516 13.8531 25.3432 13.7185C25.2742 13.673 25.2052 13.6192 25.1412 13.5569C25.1244 13.5704 25.1093 13.5855 25.0958 13.6007C25.052 13.6545 25.0234 13.7202 25.0117 13.7908C25.0032 13.8396 25.0032 13.8918 25.0117 13.9456C25.0857 13.9978 25.1665 14.0348 25.2489 14.055C25.2944 14.0651 25.3398 14.0718 25.3852 14.0702H25.3869ZM25.3785 13.2439C25.3886 13.1951 25.402 13.1447 25.4189 13.0925C25.328 13.1245 25.2388 13.1716 25.1547 13.2355C25.1648 13.2507 25.1766 13.2658 25.1883 13.2793C25.2456 13.2591 25.3095 13.2473 25.3785 13.2439ZM46.917 34.8431C46.9928 34.9205 47.1005 34.9912 47.2519 35.0349C47.3697 35.0702 47.4807 35.0366 47.5699 34.9642C47.6305 34.9137 47.6793 34.8464 47.7146 34.7674C47.5716 34.6984 47.4471 34.6109 47.3411 34.5217C47.3293 34.5351 47.3175 34.5469 47.3057 34.5604C47.1846 34.6849 47.0533 34.7791 46.917 34.8448V34.8431ZM39.424 19.1435C39.3684 19.1384 39.3129 19.1267 39.2574 19.1082C39.2675 19.2125 39.291 19.3118 39.3348 19.3993C39.36 19.4497 39.4004 19.4918 39.4509 19.5255V19.5187C39.4442 19.3942 39.4576 19.268 39.4862 19.1469C39.466 19.1469 39.4459 19.1452 39.4257 19.1435H39.424ZM39.9389 19.8351C39.88 19.8401 39.8211 19.8418 39.7639 19.8401C39.8009 19.9091 39.8514 19.9764 39.9136 20.0404C39.9153 19.9714 39.9237 19.9024 39.9372 19.8351H39.9389ZM45.0055 33.5188C44.9988 33.65 45.024 33.7847 45.093 33.9193C45.2041 34.1397 45.3875 34.3433 45.6079 34.4931C45.4918 34.3164 45.4632 33.9647 45.4716 33.608C45.4396 33.6063 45.4077 33.6046 45.3757 33.6012C45.2495 33.5878 45.125 33.5609 45.0072 33.5188H45.0055ZM44.3089 25.881C44.4165 25.8457 44.5242 25.8289 44.6117 25.8221C44.5461 25.7902 44.4872 25.7498 44.4351 25.701C44.3711 25.7481 44.3257 25.807 44.3105 25.881H44.3089ZM43.5971 22.1824C43.5903 22.0243 43.6274 21.8796 43.6879 21.7517C43.5264 21.7264 43.3918 21.6827 43.2774 21.6272C43.2757 21.6558 43.2757 21.6844 43.2757 21.7163C43.279 21.8897 43.3581 22.0226 43.4759 22.1118C43.5129 22.1404 43.5533 22.1639 43.5954 22.1824H43.5971ZM42.8617 21.2351C42.7995 21.124 42.7608 21.0046 42.7372 20.8918C42.7238 20.9322 42.7069 20.9709 42.6884 21.0096C42.6295 21.1274 42.5471 21.2317 42.4444 21.3108C42.4932 21.326 42.5454 21.331 42.6043 21.326C42.7019 21.3175 42.786 21.2856 42.8601 21.2351H42.8617ZM50.6223 33.014L50.6207 33.0039L50.6089 33.0089L50.6207 33.014H50.6223ZM50.8243 32.876C50.836 32.9349 50.8428 32.9955 50.8478 33.0544C50.9101 33.056 50.9707 33.0476 51.0312 33.0291C51.1726 32.9871 51.3139 32.8861 51.4452 32.7077C51.5764 32.5294 51.6555 32.3493 51.6976 32.176C51.5663 32.213 51.4334 32.2147 51.3072 32.1962C51.2567 32.3594 51.1574 32.5378 50.9824 32.7296C50.9538 32.7599 50.9252 32.7902 50.8949 32.8171C50.8731 32.8373 50.8495 32.8575 50.8259 32.8743L50.8243 32.876ZM51.9601 31.7435C51.9651 31.7385 51.9702 31.7318 51.9752 31.7267L51.9584 31.725L51.9601 31.7435ZM52.5844 31.0183C52.5675 31.02 52.549 31.0217 52.5322 31.0217C52.4868 31.0233 52.4413 31.0217 52.3959 31.0183C52.4161 31.1479 52.4111 31.2825 52.3774 31.4188C52.4447 31.3734 52.4986 31.3077 52.5322 31.2152C52.5574 31.1496 52.5726 31.0822 52.5827 31.0183H52.5844ZM52.5945 30.7911C52.5911 30.744 52.5844 30.6969 52.576 30.6515C52.4885 30.6885 52.3993 30.7137 52.3118 30.7289C52.3202 30.7474 52.3269 30.7642 52.3337 30.7827C52.3976 30.7945 52.4615 30.8012 52.5238 30.7979C52.5474 30.7962 52.5709 30.7945 52.5945 30.7911ZM52.7796 30.5421C52.793 30.5959 52.8048 30.6515 52.8115 30.7087C52.8553 30.6767 52.8923 30.6363 52.9175 30.5858C52.9529 30.5152 52.9764 30.4445 52.9882 30.3738C52.9209 30.4395 52.8519 30.495 52.7796 30.5421ZM52.9529 30.0777L52.968 30.0575L52.9663 30.0507L52.9529 30.076V30.0777ZM54.8796 25.3207L54.8678 25.324C54.7584 25.356 54.6423 25.3695 54.5245 25.3695C54.4522 25.4284 54.3714 25.4789 54.2889 25.5192C54.3764 25.6353 54.4505 25.7666 54.5043 25.9063C54.543 26.0072 54.5733 26.1115 54.5935 26.2192C54.7332 26.1351 54.8426 26.019 54.9031 25.8625C54.9772 25.6673 54.9553 25.4839 54.8796 25.3207ZM53.774 26.645V26.6466C53.8262 26.8688 53.7875 27.064 53.6882 27.2238C53.6714 27.2524 53.6512 27.2793 53.631 27.3063C53.8649 27.1599 54.05 26.9411 54.0685 26.6164C53.9692 26.6315 53.8716 26.6399 53.774 26.645ZM54.2805 26.3505C54.3159 26.3404 54.3495 26.3303 54.3832 26.3185C54.3664 26.2041 54.3377 26.093 54.2957 25.9887C54.2402 25.8474 54.1644 25.7178 54.0702 25.6067L54.0567 25.6101C54.0264 25.6185 53.9962 25.6269 53.9659 25.6353C54.119 25.8255 54.2418 26.0628 54.2805 26.3522V26.3505ZM54.7584 25.1221L54.7517 25.1137L54.745 25.1238L54.7584 25.1204V25.1221ZM54.8594 24.9C54.8998 24.9454 54.9368 24.9926 54.9721 25.0414C55.026 25.0111 55.0748 24.9724 55.1168 24.9252C55.2161 24.8159 55.2834 24.6577 55.3036 24.4373C55.3221 24.2168 55.2969 24.0216 55.243 23.8517C55.1488 23.951 55.0361 24.0216 54.92 24.0721C54.962 24.237 54.9704 24.4423 54.9183 24.6964C54.9099 24.7385 54.8998 24.7772 54.888 24.8176C54.8796 24.8462 54.8695 24.8748 54.8594 24.9017V24.9ZM54.3983 26.5423C54.363 26.5524 54.3293 26.5625 54.294 26.5709C54.294 26.581 54.294 26.5928 54.294 26.6029C54.2704 27.2608 53.732 27.5671 53.2591 27.7084L53.2642 27.7168C53.2995 27.769 53.3281 27.8245 53.3517 27.8801C53.5788 27.8262 53.8144 27.7034 54.0298 27.4729C54.2688 27.2154 54.3832 26.9058 54.3983 26.5995C54.4 26.581 54.4 26.5608 54.4 26.5423H54.3983ZM55.2414 23.3435C55.243 23.3368 55.2447 23.3284 55.2447 23.32L55.2313 23.3284L55.2414 23.3435ZM55.3978 22.3995C55.3844 22.4096 55.3692 22.4197 55.3558 22.4298C55.3188 22.455 55.2784 22.4769 55.238 22.4971C55.3221 22.5981 55.3894 22.7142 55.4298 22.8488C55.4635 22.7748 55.4769 22.6906 55.4567 22.5947C55.4433 22.5257 55.4231 22.4601 55.3978 22.3995ZM55.3171 21.8913C55.3575 21.93 55.3945 21.9721 55.4315 22.0175C55.4517 21.9671 55.4618 21.9132 55.4584 21.8577C55.4517 21.7786 55.4349 21.7062 55.4079 21.6406C55.3844 21.7315 55.3541 21.8156 55.3171 21.893V21.8913ZM55.2245 21.405L55.2279 21.3798L55.2228 21.3748L55.2245 21.4034V21.405ZM55.3474 16.3973L55.3373 16.4041C55.2447 16.4714 55.1404 16.5252 55.031 16.5673C54.9839 16.648 54.9267 16.7238 54.8627 16.7911C54.9856 16.8685 55.1 16.9661 55.201 17.0771C55.2733 17.1579 55.3373 17.2454 55.3945 17.3396C55.4954 17.2118 55.5577 17.0654 55.5594 16.8971C55.5611 16.6884 55.4769 16.5252 55.3474 16.3973ZM54.7752 18.0245V18.0262C54.9031 18.2163 54.9334 18.4132 54.8981 18.5966C54.8914 18.6286 54.8829 18.6622 54.8728 18.6942C55.0411 18.4738 55.137 18.2062 55.0411 17.8949C54.9536 17.9437 54.8644 17.9858 54.7752 18.0245ZM55.1471 17.5719C55.1757 17.55 55.2043 17.5281 55.2313 17.5062C55.1757 17.4053 55.1101 17.311 55.0344 17.2269C54.9334 17.1142 54.8156 17.0182 54.6894 16.9476L54.6777 16.956C54.6524 16.9745 54.6272 16.993 54.6002 17.0115C54.8106 17.136 55.0075 17.3161 55.1454 17.5719H55.1471ZM55.1639 16.2543L55.1555 16.2492L55.1522 16.261L55.1639 16.2543ZM55.1808 16.0103C55.2346 16.0389 55.2868 16.0692 55.3356 16.1029C55.3743 16.0557 55.4063 16.0019 55.4298 15.943C55.4837 15.805 55.4921 15.6334 55.4332 15.4197C55.3743 15.206 55.2801 15.0327 55.1707 14.8913C55.1185 15.0175 55.0361 15.1235 54.9452 15.211C55.0428 15.3507 55.1219 15.5408 55.1623 15.7966C55.169 15.8387 55.174 15.8791 55.1757 15.9194C55.1774 15.9497 55.1791 15.98 55.1791 16.0086L55.1808 16.0103ZM55.3238 17.7098C55.2952 17.7317 55.2666 17.7536 55.2363 17.7738C55.2397 17.7839 55.243 17.794 55.2464 17.8041C55.4551 18.4283 55.0579 18.9029 54.6625 19.2024L54.6709 19.2074C54.7214 19.2445 54.7685 19.2848 54.8106 19.3303C55.0041 19.199 55.1825 19.0038 55.3036 18.711C55.4382 18.3863 55.4366 18.0565 55.3423 17.7637C55.3356 17.7452 55.3305 17.7267 55.3238 17.7098ZM54.9923 14.4185C54.9906 14.4117 54.9889 14.4033 54.9873 14.3966L54.9772 14.4084L54.9923 14.4185ZM54.8089 13.4795C54.7988 13.4947 54.7904 13.5081 54.7786 13.5233C54.7517 13.5603 54.7231 13.594 54.6911 13.6276C54.8055 13.6932 54.9082 13.779 54.994 13.8901C55.0007 13.8093 54.9822 13.7252 54.9301 13.6427C54.893 13.5822 54.851 13.5283 54.8072 13.4812L54.8089 13.4795ZM54.6373 13.3314C54.5986 13.3045 54.5582 13.281 54.5161 13.2608C54.4909 13.3533 54.4555 13.4391 54.4118 13.5165C54.4303 13.5216 54.4488 13.5266 54.4673 13.5317C54.5161 13.4896 54.5615 13.4425 54.5969 13.392C54.6103 13.3718 54.6238 13.3533 54.6356 13.3331L54.6373 13.3314ZM54.5565 13.0319C54.607 13.0538 54.6575 13.0807 54.7063 13.1093C54.7079 13.0555 54.6978 13.0016 54.6743 12.9495C54.6406 12.8771 54.5986 12.8149 54.5514 12.7627C54.5615 12.8569 54.5615 12.9461 54.5548 13.0302L54.5565 13.0319ZM54.299 12.6079L54.294 12.5843L54.2873 12.5826L54.299 12.6096V12.6079ZM50.9538 8.15042L50.9522 8.1622C50.9303 8.27494 50.8899 8.38431 50.8377 8.48864C50.8579 8.58119 50.8663 8.67374 50.8663 8.76629C51.0094 8.73936 51.1591 8.73431 51.3089 8.74778C51.4166 8.75787 51.5243 8.77806 51.6286 8.80835C51.6168 8.64681 51.563 8.49537 51.4502 8.37085C51.3089 8.21604 51.1373 8.15378 50.9555 8.14705L50.9538 8.15042ZM51.637 9.73384H51.6387C51.8608 9.786 52.0173 9.91052 52.1166 10.0704C52.1334 10.099 52.1502 10.1276 52.1637 10.1579C52.1385 9.88192 52.0257 9.61941 51.7447 9.45619C51.7127 9.55042 51.6774 9.64297 51.6387 9.73216L51.637 9.73384ZM51.6017 9.14994C51.6084 9.1146 51.6151 9.07927 51.6185 9.04393C51.5091 9.00691 51.3964 8.98335 51.2836 8.97326C51.1322 8.9598 50.9824 8.96821 50.8411 9.00186L50.8394 9.01533C50.8344 9.0473 50.8276 9.07758 50.8209 9.10787C51.0598 9.05739 51.3257 9.05403 51.6017 9.14994ZM50.7199 8.17061L50.7098 8.17229L50.7166 8.18239L50.7199 8.16893V8.17061ZM50.5668 7.98046C50.6257 7.96532 50.6846 7.95186 50.7435 7.94345C50.7401 7.88119 50.7267 7.82061 50.7048 7.76171C50.6509 7.62373 50.5399 7.4908 50.3531 7.37469C50.1646 7.25859 49.9779 7.19296 49.8029 7.16436C49.85 7.29224 49.8618 7.42517 49.8533 7.55306C50.0199 7.59008 50.2067 7.6759 50.4103 7.83575C50.444 7.86099 50.4743 7.8896 50.5046 7.91652C50.5264 7.93672 50.5483 7.95859 50.5668 7.98046ZM51.8255 9.13143C51.8187 9.16677 51.812 9.2021 51.8053 9.23744C51.8154 9.24249 51.8238 9.24754 51.8339 9.25259C52.4111 9.57062 52.4413 10.1882 52.3538 10.6745L52.3623 10.6728C52.4245 10.6644 52.4868 10.6644 52.5474 10.6694C52.6012 10.4423 52.5978 10.1764 52.4901 9.88023C52.369 9.55042 52.1435 9.3098 51.876 9.15835C51.8591 9.14826 51.8423 9.13984 51.8255 9.13143ZM49.3485 6.93887C49.3418 6.93383 49.3368 6.93046 49.33 6.92541V6.94224L49.3485 6.94056V6.93887ZM48.5762 6.37349C48.5795 6.39031 48.5812 6.40714 48.5846 6.42565C48.5896 6.47108 48.593 6.51483 48.5913 6.56195C48.7192 6.53166 48.8538 6.52493 48.9918 6.54849C48.9413 6.48455 48.8723 6.43575 48.7764 6.40882C48.7091 6.39031 48.6418 6.37854 48.5762 6.37349ZM48.3507 6.3819C48.3036 6.38863 48.2582 6.39873 48.2127 6.41219C48.2565 6.49632 48.2884 6.58382 48.3103 6.66964C48.3271 6.65955 48.344 6.65113 48.3625 6.64272C48.3692 6.57878 48.3709 6.51315 48.3625 6.45089C48.3591 6.42733 48.3557 6.40378 48.3507 6.38022V6.3819ZM48.0882 6.217C48.1404 6.19849 48.1959 6.18334 48.2514 6.17156C48.2161 6.1295 48.1723 6.09752 48.1202 6.07565C48.0461 6.04536 47.9738 6.02853 47.9031 6.0218C47.9738 6.08406 48.036 6.14801 48.0882 6.21531V6.217ZM47.612 6.0807L47.5918 6.06724L47.5851 6.06892L47.612 6.0807ZM42.9038 4.18766L42.9088 4.19944C42.9492 4.30545 42.9745 4.42156 42.9846 4.53766C43.0502 4.60497 43.1074 4.68069 43.1545 4.75978C43.2622 4.66218 43.3867 4.57805 43.5214 4.51074C43.6173 4.46194 43.7199 4.42324 43.8259 4.39463C43.73 4.26338 43.6055 4.1641 43.4439 4.11699C43.242 4.05978 43.0637 4.09679 42.9055 4.18766H42.9038ZM44.319 5.17372H44.3206C44.5377 5.10137 44.7346 5.12492 44.9028 5.20906C44.9331 5.2242 44.9617 5.24103 44.9887 5.25954C44.8221 5.03911 44.5882 4.8742 44.2634 4.8843C44.287 4.98189 44.3038 5.07949 44.319 5.17541V5.17372ZM43.9807 4.69584C43.9673 4.66218 43.9538 4.62853 43.9403 4.59656C43.8276 4.62348 43.7199 4.66218 43.6189 4.71266C43.4827 4.77997 43.3598 4.86747 43.2572 4.97012L43.2622 4.98358C43.274 5.01218 43.2841 5.04247 43.2942 5.07276C43.4709 4.90449 43.6964 4.76146 43.9807 4.69752V4.69584ZM42.4848 4.24656C42.5269 4.2028 42.5689 4.16074 42.6161 4.12204C42.5807 4.07155 42.537 4.02612 42.4865 3.9891C42.3687 3.89992 42.2038 3.84607 41.9834 3.84607C41.7612 3.84607 41.5694 3.88982 41.4045 3.95713C41.5122 4.04127 41.593 4.14728 41.6519 4.26002C41.8134 4.20449 42.0153 4.17756 42.2745 4.20617C42.3165 4.21122 42.3569 4.21795 42.3973 4.22468C42.4276 4.23141 42.4562 4.23814 42.4848 4.24487V4.24656ZM44.1608 4.56122C44.1742 4.59487 44.1877 4.62853 44.1995 4.66386C44.2096 4.66386 44.2214 4.66218 44.2314 4.66218C44.8894 4.62853 45.2411 5.1367 45.4228 5.59608L45.4295 5.59103C45.4783 5.55065 45.5305 5.51699 45.5843 5.49007C45.5103 5.26795 45.369 5.04415 45.1199 4.84896C44.844 4.63358 44.5242 4.54608 44.218 4.55785C44.1995 4.55785 44.1793 4.55954 44.1608 4.56122ZM40.8997 4.00256C40.8913 4.00256 40.8846 4.00088 40.8761 4.00088L40.8846 4.01434L40.898 4.00256H40.8997ZM39.9456 3.92853C39.9574 3.94199 39.9692 3.95545 39.9793 3.96891C40.0079 4.00425 40.0331 4.04127 40.0567 4.08165C40.1492 3.9891 40.2603 3.9117 40.3898 3.85953C40.3124 3.83261 40.2283 3.82756 40.1341 3.85449C40.0668 3.87468 40.0028 3.89992 39.9456 3.93021V3.92853ZM39.7572 4.05473C39.7201 4.08502 39.6865 4.11867 39.6562 4.15232C39.7386 4.20112 39.811 4.25833 39.8749 4.32059C39.885 4.30377 39.8951 4.28694 39.9052 4.27011C39.8783 4.21122 39.843 4.15569 39.8043 4.10689C39.7891 4.08838 39.774 4.06987 39.7572 4.05304V4.05473ZM39.4459 4.05304C39.4812 4.00929 39.5199 3.96891 39.562 3.92853C39.5098 3.9117 39.4559 3.90665 39.4004 3.91675C39.323 3.93021 39.2507 3.95377 39.1884 3.98574C39.2809 4.00088 39.3684 4.02444 39.4475 4.05304H39.4459ZM38.9696 4.18766H38.9444L38.941 4.19271L38.9696 4.18766ZM34.0006 4.67228L34.0091 4.68069C34.0915 4.75978 34.1622 4.85233 34.2211 4.95497C34.3086 4.98694 34.3927 5.03069 34.4701 5.08286C34.5256 4.94824 34.6014 4.81867 34.6939 4.70088C34.7612 4.61675 34.8369 4.53766 34.9194 4.46531C34.7764 4.3879 34.6216 4.35088 34.455 4.37949C34.248 4.41483 34.1016 4.52588 33.999 4.67396L34.0006 4.67228ZM35.7018 4.95665L35.7035 4.95497C35.8684 4.7968 36.0569 4.73286 36.2454 4.73622C36.279 4.73622 36.3127 4.73959 36.3446 4.74463C36.099 4.61675 35.818 4.56795 35.5285 4.71603C35.5908 4.79343 35.6497 4.8742 35.7018 4.95497V4.95665ZM33.8913 4.87757L33.8879 4.88598H33.8997L33.8913 4.87588V4.87757ZM33.649 4.90281C33.6675 4.8456 33.6893 4.78838 33.7129 4.73454C33.6591 4.70425 33.6018 4.68237 33.5396 4.66891C33.3949 4.63862 33.2232 4.6605 33.023 4.75473C32.8228 4.85064 32.6679 4.9718 32.5485 5.10305C32.6814 5.13334 32.7992 5.1956 32.9018 5.27132C33.023 5.15185 33.1963 5.04079 33.442 4.95665C33.4824 4.94319 33.5211 4.93141 33.5615 4.92132C33.5917 4.91459 33.6203 4.90786 33.649 4.90281ZM35.298 4.47035C35.3249 4.49391 35.3502 4.51915 35.3771 4.54608C35.3872 4.54103 35.3956 4.53598 35.4057 4.53093C35.9862 4.21795 36.5213 4.52757 36.8831 4.86579L36.8865 4.85738C36.9134 4.80016 36.947 4.748 36.9841 4.6992C36.8208 4.53093 36.597 4.3879 36.2891 4.32059C35.9458 4.24487 35.6211 4.30208 35.3485 4.44511C35.3317 4.45353 35.3148 4.46362 35.298 4.47204V4.47035ZM31.2175 5.70546C31.2343 5.71219 31.2494 5.71892 31.2646 5.72733C31.305 5.74752 31.3437 5.7694 31.3824 5.79464C31.4261 5.6718 31.4934 5.55401 31.5876 5.45137C31.5069 5.45978 31.4278 5.49175 31.3538 5.55569C31.3016 5.60281 31.2545 5.65329 31.2158 5.70546H31.2175ZM31.1013 5.90065C31.0812 5.9444 31.066 5.98815 31.0525 6.0319C31.1485 6.04031 31.2376 6.06051 31.3218 6.08911C31.3235 6.06892 31.3251 6.05041 31.3268 6.03022C31.2763 5.98815 31.2225 5.95281 31.167 5.92589C31.1451 5.91579 31.1232 5.9057 31.1013 5.89897V5.90065ZM30.8203 6.0319C30.8338 5.97805 30.8506 5.92421 30.8708 5.87036C30.817 5.87709 30.7648 5.89728 30.7194 5.92925C30.6537 5.97469 30.5999 6.02685 30.5562 6.08238C30.647 6.05714 30.7345 6.04031 30.8187 6.0319H30.8203ZM26.3359 10.0704H26.3477C26.4621 10.0737 26.5766 10.0973 26.6893 10.1326C26.7768 10.099 26.8677 10.0754 26.9602 10.062C26.9114 9.92398 26.8828 9.77759 26.8727 9.62783C26.866 9.52013 26.8694 9.41076 26.8845 9.30138C26.7263 9.3384 26.585 9.41581 26.4807 9.54538C26.3494 9.7086 26.3141 9.88865 26.3359 10.0687V10.0704ZM27.7948 9.14994V9.14826C27.8134 8.92109 27.911 8.74778 28.054 8.62494C28.0792 8.60306 28.1061 8.58287 28.1347 8.56436C27.8672 8.63167 27.6249 8.78311 27.5071 9.08768C27.6047 9.10451 27.7023 9.1247 27.7965 9.14994H27.7948ZM27.2227 9.27446C27.1874 9.27278 27.1504 9.27278 27.115 9.27278C27.0948 9.3872 27.0898 9.50163 27.0965 9.61437C27.1066 9.76581 27.1386 9.9122 27.1924 10.0468H27.2059C27.2379 10.0468 27.2698 10.0485 27.3001 10.0519C27.2126 9.82302 27.1689 9.56052 27.221 9.27446H27.2227ZM26.3915 10.2975L26.3948 10.306L26.4049 10.2975L26.3915 10.2959V10.2975ZM26.2266 10.4776C26.2013 10.4221 26.1811 10.3665 26.1626 10.3093C26.102 10.3228 26.0448 10.3447 25.9893 10.3766C25.8614 10.4507 25.747 10.5802 25.6612 10.7855C25.5754 10.9891 25.54 11.1826 25.5383 11.3627C25.6578 11.2971 25.7874 11.2634 25.9136 11.2516C25.9237 11.0817 25.9792 10.8848 26.1071 10.6576C26.1273 10.6206 26.1492 10.5853 26.1727 10.5516C26.1895 10.5264 26.2081 10.5028 26.2266 10.4793V10.4776ZM27.1689 9.05571C27.2059 9.05571 27.2412 9.05739 27.2783 9.05908C27.2816 9.04898 27.285 9.03888 27.2884 9.02879C27.5138 8.40955 28.1196 8.28335 28.6126 8.29513L28.6093 8.28672C28.5924 8.22614 28.5807 8.16556 28.5773 8.1033C28.3434 8.08479 28.0826 8.12854 27.8066 8.28335C27.5004 8.45499 27.2968 8.71412 27.1874 9.00186C27.1807 9.02037 27.1739 9.0372 27.1689 9.05571ZM27.0545 10.2757C27.041 10.2773 27.0292 10.279 27.0158 10.2807C27.0376 10.2925 27.0578 10.306 27.078 10.3194C27.0713 10.3093 27.0662 10.2992 27.0612 10.2891L27.0545 10.2773V10.2757ZM25.3852 11.8423C25.3819 11.849 25.3785 11.8557 25.3751 11.8625L25.3903 11.8591L25.3852 11.8423ZM24.946 12.6937C24.9629 12.6887 24.9797 12.6819 24.9965 12.6786C25.0403 12.6668 25.084 12.6567 25.1294 12.65C25.0806 12.5288 25.052 12.3959 25.0537 12.2562C24.9982 12.3168 24.9612 12.3925 24.9494 12.4901C24.941 12.5608 24.941 12.6281 24.946 12.6937ZM24.9898 12.9158C25.0032 12.9613 25.0218 13.005 25.0403 13.0471C25.1177 12.9899 25.1984 12.9444 25.2809 12.9108C25.2691 12.8956 25.2573 12.8805 25.2456 12.8637C25.1799 12.8653 25.116 12.8754 25.0571 12.8923C25.0335 12.899 25.0117 12.9057 24.9898 12.9158ZM24.8669 13.2019C24.84 13.1531 24.8181 13.1009 24.798 13.0471C24.7626 13.0875 24.7374 13.1363 24.7239 13.1918C24.7054 13.2692 24.7004 13.3432 24.7037 13.4139C24.7542 13.3348 24.8081 13.2641 24.8669 13.2019ZM24.8064 13.6932L24.7963 13.7151L24.7996 13.7202L24.8064 13.6915V13.6932ZM23.6318 18.5428L23.6419 18.536C23.7412 18.4805 23.8523 18.4418 23.9667 18.4166C24.0239 18.3425 24.0912 18.2769 24.1636 18.218C24.0525 18.1238 23.9516 18.0127 23.8674 17.8882C23.8068 17.799 23.7547 17.7031 23.7109 17.6021C23.5931 17.7149 23.5124 17.8529 23.4888 18.0178C23.4585 18.2247 23.5208 18.3981 23.6318 18.5411V18.5428ZM24.4177 17.0081V17.0065C24.3167 16.8012 24.3133 16.6026 24.3739 16.4243C24.384 16.3923 24.3975 16.362 24.4126 16.3317C24.2157 16.5269 24.0845 16.781 24.1383 17.1007C24.2309 17.0637 24.3251 17.0334 24.4193 17.0065L24.4177 17.0081ZM23.9886 17.4069C23.9566 17.4238 23.9263 17.4423 23.896 17.4608C23.9381 17.5685 23.9903 17.6711 24.0542 17.7637C24.14 17.8899 24.2427 17.9993 24.3588 18.0868L24.3706 18.08C24.3975 18.0649 24.4261 18.0497 24.4547 18.0363C24.2629 17.8848 24.0912 17.6795 23.9903 17.4069H23.9886ZM23.7951 18.711L23.8018 18.7178L23.8068 18.706L23.7951 18.711ZM23.7463 18.95C23.6975 18.9146 23.6504 18.8776 23.6049 18.8372C23.5595 18.8793 23.5208 18.9281 23.4905 18.9836C23.4181 19.1115 23.3862 19.2815 23.4165 19.5019C23.4467 19.7223 23.5157 19.9058 23.6049 20.0606C23.6739 19.9428 23.7681 19.8485 23.8725 19.7745C23.7951 19.6231 23.7412 19.4245 23.7345 19.1654C23.7328 19.1233 23.7345 19.0812 23.7362 19.0408C23.7379 19.0106 23.7412 18.9803 23.7446 18.9517L23.7463 18.95ZM23.8321 17.2471C23.8641 17.2286 23.896 17.2118 23.928 17.1949C23.9263 17.1848 23.923 17.1731 23.9213 17.163C23.7984 16.5151 24.2561 16.0995 24.6869 15.8555L24.6802 15.8488C24.6347 15.805 24.5943 15.7579 24.559 15.7091C24.3487 15.8134 24.1468 15.9834 23.9869 16.256C23.8102 16.5589 23.7681 16.887 23.8203 17.1899C23.8237 17.2084 23.827 17.2269 23.8321 17.2471ZM24.3554 18.356C24.3453 18.3644 24.3352 18.3711 24.3251 18.3795C24.3504 18.3795 24.3739 18.3795 24.3992 18.3795C24.3891 18.3745 24.379 18.3678 24.3689 18.3627L24.3571 18.356H24.3554ZM23.7177 20.5553C23.7177 20.5637 23.7177 20.5704 23.7193 20.5788L23.7311 20.5687L23.7177 20.557V20.5553ZM23.7732 21.5111C23.785 21.4976 23.7968 21.4841 23.8085 21.4723C23.8388 21.4404 23.8725 21.4084 23.9095 21.3798C23.8052 21.3007 23.7143 21.2014 23.6436 21.0786C23.6268 21.1577 23.6335 21.2435 23.6739 21.3327C23.7025 21.3966 23.7362 21.4555 23.7749 21.5094L23.7732 21.5111ZM23.923 21.681C23.9583 21.713 23.9953 21.7416 24.034 21.7685C24.071 21.681 24.1181 21.6002 24.1703 21.5296C24.1518 21.5228 24.135 21.5144 24.1165 21.506C24.0626 21.5413 24.0121 21.5817 23.9684 21.6272C23.9516 21.644 23.9364 21.6625 23.923 21.681ZM23.9633 21.9889C23.9162 21.9603 23.8691 21.9267 23.8254 21.8913C23.8153 21.9452 23.8186 21.999 23.8355 22.0529C23.859 22.1286 23.8927 22.1959 23.9314 22.2548C23.9347 22.1606 23.9448 22.0714 23.9633 21.9889ZM24.1619 22.4433L24.1653 22.4685L24.1703 22.4719L24.1619 22.4433ZM25.1025 27.5721L25.1093 27.562C25.1749 27.4695 25.2573 27.3854 25.3499 27.313C25.3701 27.2204 25.4004 27.1329 25.4407 27.0488C25.2994 27.0135 25.1614 26.9563 25.0302 26.8805C24.9376 26.8267 24.8484 26.7628 24.7643 26.6904C24.7088 26.8435 24.6936 27.0017 24.7441 27.1616C24.8081 27.3601 24.9376 27.4897 25.0992 27.5721H25.1025ZM25.1429 25.8474L25.1412 25.8457C24.9612 25.7043 24.8703 25.5277 24.8484 25.3409C24.8451 25.3072 24.8417 25.2752 24.8417 25.2416C24.7492 25.5024 24.7424 25.7885 24.9292 26.0543C24.9965 25.982 25.0689 25.913 25.1412 25.8474H25.1429ZM24.9309 26.3926C24.909 26.4212 24.8888 26.4515 24.8703 26.4817C24.9544 26.5608 25.047 26.6298 25.1446 26.6854C25.2758 26.7611 25.4172 26.8149 25.5585 26.8435L25.5669 26.8317C25.5855 26.8065 25.604 26.7796 25.6225 26.756C25.3835 26.7022 25.1412 26.5928 24.9309 26.3909V26.3926ZM25.323 27.6512L25.3331 27.6529L25.3314 27.6411L25.323 27.6512ZM25.3819 27.8885C25.323 27.8784 25.2641 27.8649 25.2069 27.8481C25.185 27.9053 25.1698 27.9659 25.1665 28.0298C25.1581 28.1779 25.2035 28.3445 25.3246 28.5279C25.4475 28.713 25.5888 28.8493 25.7369 28.9486C25.747 28.8123 25.7924 28.6861 25.853 28.575C25.7167 28.4724 25.5838 28.3159 25.4643 28.0854C25.4441 28.0483 25.4273 28.0096 25.4121 27.9726C25.4004 27.944 25.3903 27.9154 25.3819 27.8885ZM24.7189 26.3168C24.7391 26.2866 24.7609 26.2579 24.7828 26.2277C24.7761 26.2192 24.7694 26.2108 24.7626 26.2024C24.3706 25.6724 24.6011 25.0986 24.8838 24.693L24.8754 24.6897C24.8148 24.6712 24.7576 24.6459 24.7054 24.6156C24.5607 24.8007 24.453 25.0414 24.4278 25.3577C24.4008 25.7077 24.5052 26.0207 24.6835 26.2697C24.6953 26.2849 24.7071 26.3 24.7189 26.3152V26.3168ZM25.6713 27.0875C25.6645 27.0993 25.6595 27.1111 25.6528 27.1229C25.6746 27.1128 25.6965 27.101 25.7201 27.0909C25.7083 27.0909 25.6965 27.0892 25.6847 27.0892L25.6713 27.0875ZM26.0533 29.344C26.0566 29.3507 26.06 29.3575 26.065 29.3642L26.0718 29.3491L26.0549 29.344H26.0533ZM26.5194 30.1803C26.5244 30.1635 26.5278 30.1467 26.5345 30.1298C26.548 30.0878 26.5648 30.044 26.585 30.0036C26.4571 29.9767 26.3309 29.9279 26.2148 29.8488C26.235 29.9279 26.277 30.002 26.3511 30.0642C26.4049 30.1096 26.4605 30.1483 26.5177 30.1803H26.5194ZM26.728 30.2678C26.7734 30.2813 26.8189 30.2914 26.866 30.2981C26.8609 30.2022 26.8677 30.1096 26.8845 30.0221C26.8643 30.0238 26.8458 30.0238 26.8256 30.0255C26.792 30.081 26.765 30.1399 26.7448 30.1988C26.7381 30.2224 26.7314 30.2443 26.7263 30.2678H26.728ZM26.898 30.527C26.8424 30.5219 26.7869 30.5118 26.7314 30.5C26.7465 30.5522 26.7718 30.601 26.8105 30.6414C26.8643 30.6986 26.9232 30.7457 26.9855 30.781C26.9468 30.6952 26.9182 30.6111 26.898 30.527ZM27.2732 30.85L27.2867 30.8719H27.2934L27.2732 30.85ZM30.8994 34.451V34.4392C30.8977 34.3248 30.9129 34.2087 30.9432 34.096C30.9045 34.0101 30.8759 33.921 30.8574 33.8301C30.7227 33.8856 30.578 33.9226 30.4283 33.9395C30.3206 33.9512 30.2112 33.9546 30.1018 33.9462C30.1473 34.1027 30.2314 34.239 30.3677 34.3366C30.5376 34.4577 30.7194 34.4847 30.8977 34.4527L30.8994 34.451ZM29.9016 33.0443H29.8999C29.6711 33.0392 29.4927 32.95 29.3631 32.8137C29.3396 32.7902 29.3194 32.7633 29.2992 32.7363C29.3816 33.0005 29.5449 33.2344 29.8545 33.3354C29.8646 33.2361 29.8814 33.1385 29.9016 33.0426V33.0443ZM31.1232 34.3837L31.1316 34.3803L31.1232 34.3719V34.3854V34.3837ZM31.3117 34.5385C31.2578 34.5654 31.2023 34.5907 31.1468 34.6109C31.1636 34.6698 31.1888 34.727 31.2225 34.7808C31.3033 34.9037 31.4396 35.0113 31.6482 35.0854C31.8569 35.1611 32.0521 35.1847 32.2304 35.1763C32.1581 35.0601 32.1177 34.9339 32.1009 34.8077C31.9309 34.8061 31.7307 34.7623 31.4968 34.6479C31.4581 34.6294 31.4227 34.6092 31.3874 34.589C31.3605 34.5738 31.3369 34.557 31.3117 34.5402V34.5385ZM29.8427 33.6736C29.841 33.6383 29.841 33.6012 29.841 33.5642C29.8309 33.5609 29.8208 33.5575 29.8107 33.5558C29.1797 33.364 29.0232 32.7666 29.0064 32.2719L28.998 32.2753C28.9391 32.2955 28.8785 32.3106 28.8179 32.3173C28.8129 32.5512 28.8701 32.8104 29.0384 33.0779C29.2251 33.3758 29.4961 33.5642 29.7888 33.6568C29.8074 33.6618 29.8259 33.6686 29.8444 33.6736H29.8427ZM31.0677 33.7224C31.0694 33.7359 31.0711 33.7476 31.0744 33.7611C31.0862 33.7392 31.098 33.7174 31.1098 33.6972C31.0997 33.7039 31.0913 33.7106 31.0812 33.7157L31.0694 33.7224H31.0677ZM32.7218 35.3041C32.7285 35.3075 32.7352 35.3109 32.742 35.3142L32.7386 35.2991L32.7218 35.3058V35.3041ZM33.5951 35.6962C33.5884 35.6794 33.5833 35.6642 33.5766 35.6474C33.5615 35.6053 33.5497 35.5616 33.5413 35.5162C33.4218 35.5717 33.2922 35.607 33.1526 35.6121C33.2148 35.6642 33.2939 35.6979 33.3915 35.7029C33.4622 35.708 33.5295 35.7046 33.5951 35.6962ZM33.8155 35.6407C33.861 35.6238 33.903 35.6053 33.9434 35.5835C33.8828 35.5094 33.8324 35.432 33.7937 35.3513C33.7785 35.363 33.7634 35.3765 33.7482 35.3883C33.755 35.4539 33.7667 35.5162 33.7869 35.5751C33.7953 35.5969 33.8038 35.6205 33.8139 35.6407H33.8155ZM34.1066 35.7467C34.0595 35.7753 34.0091 35.8022 33.9569 35.8241C34.0006 35.8577 34.0494 35.8796 34.105 35.8897C34.1824 35.9032 34.2581 35.9049 34.3288 35.8964C34.2463 35.851 34.1723 35.7988 34.1083 35.745L34.1066 35.7467ZM34.6014 35.782L34.6249 35.7904L34.63 35.7871L34.6014 35.782Z" fill="url(#paint0_linear)"/>
<defs>
<linearGradient id="paint0_linear" x1="36.1528" y1="7.93671" x2="43.7468" y2="32.7363" gradientUnits="userSpaceOnUse">
<stop stop-color="#401B0E"/>
<stop offset="1"/>
</linearGradient>
</defs>
</svg>
