<svg width="85" height="212" viewBox="0 0 85 212" fill="none" xmlns="http://www.w3.org/2000/svg">
<path d="M35.8751 35.8005C35.6782 36.0344 35.3501 36.2044 34.8066 36.0782C34.7477 36.0647 34.6905 36.0496 34.6366 36.0311C34.5626 36.0681 34.4818 36.095 34.3943 36.1101C34.2883 36.1287 34.1756 36.1287 34.0561 36.1068C33.9114 36.0799 33.7953 36.0041 33.7078 35.8981C33.6018 35.92 33.489 35.9301 33.3696 35.9217C33.1037 35.9049 32.9371 35.7635 32.8362 35.5767C32.8193 35.5734 32.8025 35.5683 32.7857 35.5633C32.6292 35.5178 32.5047 35.4539 32.4071 35.3765C32.158 35.4152 31.8736 35.4017 31.564 35.289C31.3049 35.1964 31.1333 35.0585 31.0272 34.8952C30.9801 34.8229 30.9448 34.7438 30.9229 34.6647C30.6958 34.7051 30.4568 34.6731 30.2296 34.5099C30.0193 34.3601 29.9083 34.1448 29.8611 33.9041C29.8107 33.8924 29.7602 33.8789 29.7097 33.8637C29.3698 33.7561 29.0551 33.5356 28.8381 33.1907C28.6429 32.8811 28.5756 32.5832 28.5823 32.3123C28.4594 32.2972 28.345 32.2568 28.2508 32.1928C28.0943 32.0885 27.9917 31.927 27.9917 31.7217C27.9917 31.6964 27.9917 31.6729 27.9933 31.6493C27.7628 31.6274 27.5104 31.5096 27.258 31.2118C27.2193 31.1647 27.1823 31.1193 27.1503 31.0721C27.0695 31.057 26.9871 31.0301 26.9097 30.9914C26.8138 30.9426 26.7229 30.8753 26.6388 30.7861C26.5378 30.6784 26.4907 30.5471 26.484 30.4108C26.3847 30.3654 26.2888 30.3048 26.1979 30.2274C25.9943 30.0541 25.9455 29.8421 25.9758 29.6318C25.9657 29.6183 25.9539 29.6048 25.9438 29.5914C25.8445 29.4618 25.784 29.3356 25.752 29.2161C25.5282 29.0983 25.3094 28.9183 25.1277 28.644C24.9763 28.4152 24.9207 28.2015 24.9325 28.008C24.9376 27.9205 24.9578 27.838 24.988 27.7606C24.7811 27.6563 24.6094 27.488 24.5253 27.2221C24.4462 26.9765 24.4866 26.7375 24.5909 26.5171C24.5573 26.4784 24.5253 26.438 24.4933 26.3942C24.2847 26.1048 24.1652 25.7414 24.1955 25.3325C24.2241 24.9673 24.3486 24.688 24.5152 24.4743C24.426 24.3885 24.3587 24.2875 24.32 24.1798C24.2577 24.0031 24.2712 23.8113 24.3924 23.6481C24.4328 23.5942 24.4731 23.5488 24.5152 23.5084C24.2931 23.3974 24.0928 23.1769 23.9851 22.763C23.97 22.7041 23.9582 22.6469 23.9481 22.5913C23.8808 22.5425 23.8202 22.482 23.7664 22.413C23.7008 22.3288 23.6486 22.2279 23.6116 22.1118C23.5678 21.9721 23.5813 21.8324 23.6352 21.7062C23.5662 21.6221 23.5056 21.5262 23.4568 21.4168C23.3491 21.1728 23.3979 20.9608 23.5157 20.7841C23.5123 20.7673 23.5073 20.7505 23.5039 20.7336C23.4702 20.5738 23.4702 20.4341 23.4938 20.313C23.344 20.1094 23.2263 19.8519 23.1808 19.5255C23.1438 19.2529 23.1859 19.0375 23.2818 18.8675C23.3239 18.7918 23.3777 18.7245 23.4383 18.669C23.2969 18.4856 23.2162 18.2601 23.2549 17.9824C23.2919 17.7267 23.4299 17.5298 23.62 17.375C23.6065 17.3245 23.5948 17.274 23.5864 17.2235C23.5241 16.8718 23.5746 16.4916 23.7799 16.1382C23.9633 15.8218 24.1972 15.625 24.4395 15.5038C24.3957 15.3877 24.3789 15.2666 24.3924 15.1538C24.4075 15.0192 24.4614 14.893 24.559 14.7988C24.4227 14.5901 24.3621 14.2956 24.4799 13.8851C24.4967 13.8262 24.5152 13.7706 24.5354 13.7185C24.5034 13.6427 24.4799 13.5603 24.4698 13.4728C24.4563 13.3668 24.463 13.2524 24.4916 13.1346C24.5253 12.9915 24.6077 12.8788 24.7188 12.798C24.702 12.6903 24.6986 12.5776 24.7138 12.4598C24.7457 12.1939 24.8955 12.0375 25.0873 11.9449C25.0924 11.9281 25.0974 11.9129 25.1025 11.8961C25.1546 11.7413 25.227 11.6218 25.3094 11.5293C25.2842 11.2786 25.3128 10.9959 25.4407 10.693C25.5467 10.4406 25.6948 10.2757 25.863 10.1781C25.9388 10.1343 26.0179 10.104 26.1003 10.0872C26.0717 9.85667 26.1171 9.6211 26.2921 9.40403C26.4537 9.2021 26.6741 9.10283 26.9164 9.06917C26.9299 9.01869 26.9467 8.96989 26.9652 8.92109C27.0914 8.58792 27.3287 8.28503 27.6854 8.08647C28.0051 7.90811 28.3063 7.85763 28.5756 7.87782C28.5974 7.75667 28.6445 7.64393 28.7135 7.55306C28.8263 7.4033 28.9929 7.30907 29.1982 7.31916C29.3294 7.3259 29.4421 7.35282 29.5364 7.39152C29.4607 7.06003 29.5229 6.64104 30.0715 6.29777C30.1236 6.26579 30.1741 6.23551 30.2246 6.21027C30.2515 6.13118 30.2885 6.05546 30.339 5.9831C30.3996 5.8956 30.4804 5.81483 30.5796 5.74416C30.7008 5.66002 30.8371 5.63142 30.9734 5.6432C31.0323 5.55233 31.1047 5.46483 31.1955 5.38574C31.3958 5.20906 31.6128 5.19223 31.8164 5.25113C31.8316 5.24271 31.845 5.2343 31.8602 5.22589C32.0032 5.1468 32.1361 5.10305 32.259 5.08959C32.4071 4.88598 32.6174 4.69415 32.9136 4.55281C33.1609 4.43502 33.3813 4.40978 33.5715 4.44848C33.6573 4.46699 33.7364 4.49728 33.8088 4.53766C33.94 4.34752 34.1318 4.20112 34.4078 4.15569C34.6619 4.11362 34.8924 4.18598 35.0977 4.32059C35.1414 4.29199 35.1869 4.26675 35.2323 4.24151C35.5487 4.0766 35.9256 4.00929 36.3244 4.09848C36.6811 4.17756 36.9403 4.34079 37.1287 4.53598C37.2263 4.46026 37.3357 4.40809 37.4484 4.38454C37.578 4.35761 37.7092 4.37107 37.8254 4.42997C37.9617 4.21122 38.2107 4.0278 38.6549 3.97564C38.7155 3.96891 38.7744 3.96386 38.8299 3.96218C38.8871 3.90328 38.9544 3.84944 39.0302 3.80737C39.1227 3.75521 39.2304 3.71482 39.3499 3.69463C39.4946 3.66939 39.6309 3.70304 39.7487 3.77203C39.8412 3.71482 39.9439 3.66771 40.0583 3.63405C40.3141 3.56001 40.5177 3.63742 40.6775 3.77876C40.6944 3.77708 40.7112 3.7754 40.728 3.77372C40.8912 3.76194 41.0292 3.78213 41.147 3.82083C41.3691 3.69968 41.64 3.61723 41.9682 3.61723C42.2424 3.61723 42.4511 3.6879 42.6059 3.80569C42.6749 3.85785 42.7338 3.92011 42.7826 3.98742C42.9828 3.87131 43.2184 3.82251 43.4876 3.89824C43.7367 3.96891 43.9134 4.13381 44.0396 4.34247C44.0917 4.33574 44.1422 4.33069 44.1944 4.32901C44.5511 4.31555 44.9213 4.41651 45.2427 4.66723C45.5304 4.89271 45.6953 5.15016 45.7812 5.40762C45.9023 5.38069 46.0235 5.38069 46.1345 5.40762C46.2927 5.44632 46.4273 5.53887 46.5047 5.68863C46.7352 5.57589 47.0432 5.55065 47.447 5.73911C47.5026 5.76435 47.5547 5.79127 47.6035 5.81988C47.6843 5.79969 47.7684 5.78959 47.8559 5.79296C47.9619 5.79632 48.0747 5.81988 48.1874 5.86531C48.3237 5.92084 48.4213 6.02012 48.4853 6.14127C48.5946 6.14127 48.7057 6.15642 48.8218 6.18839C49.0793 6.26075 49.2122 6.43406 49.2728 6.63767C49.2879 6.6444 49.303 6.65282 49.3182 6.66123C49.4629 6.73695 49.5706 6.82613 49.6497 6.92205C49.9021 6.93551 50.1764 7.00786 50.4557 7.18118C50.6896 7.32589 50.8293 7.49585 50.8999 7.67758C50.9319 7.75835 50.9487 7.84248 50.9538 7.92494C51.186 7.93167 51.4115 8.01412 51.5999 8.22109C51.7732 8.41124 51.8372 8.64513 51.8355 8.88912C51.8826 8.911 51.9297 8.93456 51.9752 8.9598C52.2848 9.13648 52.5473 9.41581 52.6886 9.79946C52.8148 10.1427 52.8182 10.449 52.7576 10.7115C52.8737 10.7519 52.9781 10.8158 53.0571 10.8966C53.1884 11.0312 53.2557 11.2096 53.2136 11.4098C53.2002 11.4721 53.1834 11.5293 53.1632 11.5814C53.53 11.4855 54.0954 11.4923 54.4084 12.2545C54.4319 12.3101 54.4521 12.3656 54.4689 12.4194C54.5413 12.4598 54.6103 12.5103 54.6725 12.5709C54.7483 12.6466 54.8139 12.7391 54.8661 12.8485C54.9283 12.9814 54.9334 13.1211 54.8963 13.254C54.9754 13.3281 55.0495 13.4156 55.1117 13.5165C55.2514 13.7437 55.2312 13.9608 55.1386 14.1509C55.1454 14.1661 55.1504 14.1829 55.1572 14.1997C55.211 14.3528 55.2295 14.4925 55.2228 14.6153C55.3978 14.7971 55.5509 15.036 55.6384 15.3524C55.7124 15.6166 55.699 15.837 55.6283 16.0187C55.5963 16.0995 55.5526 16.1718 55.5004 16.2375C55.6653 16.4007 55.7764 16.6127 55.7747 16.892C55.773 17.1495 55.662 17.3649 55.4937 17.5432C55.5139 17.5904 55.5324 17.6392 55.5475 17.6896C55.6552 18.0295 55.6569 18.4132 55.5021 18.7901C55.3624 19.1283 55.1572 19.3555 54.9334 19.507C54.9923 19.6163 55.0242 19.7324 55.0276 19.8469C55.031 19.9613 55.0057 20.0723 54.9468 20.1683C55.2093 20.3046 55.4365 20.5788 55.4533 21.1139C55.455 21.1745 55.455 21.2334 55.4516 21.2906C55.5055 21.3529 55.5526 21.4252 55.5896 21.5043C55.635 21.6019 55.6636 21.7113 55.6737 21.8324C55.6855 21.9788 55.6418 22.1118 55.561 22.2228C55.6098 22.3204 55.6468 22.4264 55.6704 22.5442C55.7225 22.8067 55.6266 23.0019 55.4735 23.1483C55.4735 23.1651 55.4735 23.182 55.4735 23.2005C55.4701 23.3637 55.4399 23.5 55.3894 23.6127C55.4903 23.8433 55.5492 24.1209 55.5206 24.449C55.4971 24.7233 55.4079 24.9236 55.2766 25.0683C55.2177 25.1339 55.1521 25.1861 55.0798 25.2281C55.1773 25.4385 55.206 25.6757 55.1067 25.9382C55.0141 26.1789 54.8358 26.3421 54.6153 26.4498C54.617 26.5019 54.617 26.5541 54.6153 26.6063C54.5985 26.963 54.4656 27.3231 54.1862 27.6209C53.9372 27.8885 53.6646 28.0298 53.4021 28.0921C53.4189 28.2149 53.4088 28.3361 53.3718 28.4438C53.3382 28.5414 53.2843 28.6272 53.2103 28.6945C53.4543 28.9486 53.6343 29.3575 53.2978 29.9532C53.2675 30.0053 53.2372 30.0558 53.2052 30.1029C53.2187 30.1854 53.2221 30.2695 53.212 30.357C53.2002 30.463 53.1682 30.5724 53.1127 30.6818C53.0471 30.813 52.9394 30.9039 52.8132 30.9577C52.8047 31.0654 52.7812 31.1765 52.7391 31.2892C52.6466 31.5399 52.4632 31.6577 52.2562 31.7032C52.2478 31.7183 52.2394 31.7318 52.2293 31.7469C52.1418 31.8849 52.0442 31.9842 51.9432 32.0565C51.9095 32.3072 51.8153 32.5748 51.6201 32.839C51.4569 33.0611 51.2769 33.1856 51.0901 33.2411C51.0059 33.2664 50.9218 33.2765 50.8394 33.2748C50.8141 33.5053 50.7148 33.7241 50.4927 33.894C50.2891 34.0522 50.0502 34.0976 49.8079 34.0758C49.7826 34.1212 49.7557 34.1649 49.7271 34.2087C49.5268 34.5032 49.2273 34.7421 48.8336 34.8532C48.4819 34.9525 48.1756 34.9306 47.9182 34.8481C47.8694 34.9609 47.797 35.0601 47.7095 35.1325C47.5648 35.252 47.3814 35.3058 47.1845 35.2469C46.9439 35.1763 46.7891 35.0517 46.6898 34.9222C46.6292 34.9373 46.5687 34.9491 46.5081 34.9558C46.2304 34.9861 45.9528 34.9238 45.7004 34.801C45.3504 34.6311 45.0525 34.3399 44.8893 34.0152C44.7867 33.8099 44.7614 33.608 44.7867 33.4178C44.7513 33.3976 44.716 33.3758 44.6824 33.3522C44.3324 33.1082 44.122 32.6993 44.265 32.1457C44.3542 31.8008 44.4586 31.5366 44.5696 31.333C44.1574 30.9779 44.1473 30.6431 44.2533 30.3873C44.2179 30.3503 44.186 30.3099 44.1574 30.2628C43.9571 29.9431 44.0143 29.6267 44.1607 29.3558C44.1153 29.2498 44.0816 29.1303 44.0665 28.994C44.011 28.5279 44.1372 28.2116 44.3037 28.0012C44.2836 27.9945 44.2634 27.9861 44.2449 27.976C44.0816 27.9003 43.9537 27.7724 43.8948 27.5991C43.7804 27.2692 43.9336 27.0505 44.1203 26.9125C43.9756 26.7779 43.8831 26.6164 43.8696 26.4616C43.8511 26.231 43.9437 26.0829 44.0783 25.9853C44.053 25.7733 44.1473 25.6252 44.2937 25.5209C44.2667 25.4721 44.2449 25.42 44.228 25.3611C44.1557 25.1002 44.2028 24.8916 44.3004 24.7301C44.1674 24.6089 44.085 24.4339 44.1035 24.2034C44.1153 24.0435 44.1658 23.9072 44.2348 23.7928C43.9958 23.6666 43.7838 23.426 43.661 23.0524C43.5751 22.7916 43.5634 22.5829 43.5987 22.4163C43.5028 22.3861 43.4153 22.3406 43.3379 22.2834C43.1679 22.1555 43.0552 21.962 43.0485 21.7147C43.0468 21.6305 43.0518 21.5531 43.0636 21.4824C43.0367 21.4589 43.0114 21.4353 42.9879 21.4101C42.8835 21.4841 42.7624 21.5329 42.6177 21.5447C42.4427 21.5582 42.3047 21.5144 42.1953 21.4353C42.1667 21.4437 42.1381 21.4522 42.1095 21.4589C42.0691 21.4673 42.0287 21.474 41.9884 21.4791C41.5828 21.5245 41.29 21.3411 41.0948 21.1324C41.0275 21.0601 40.9703 20.9827 40.9266 20.9103C40.6994 20.9659 40.4436 20.9154 40.2114 20.7067C40.0886 20.5957 40.0112 20.4762 39.9641 20.3534C39.9085 20.3247 39.853 20.2877 39.8008 20.2389C39.6477 20.1009 39.5518 19.9495 39.4996 19.7913C39.3381 19.7392 39.2052 19.6416 39.1328 19.4969C39.0571 19.3471 39.0285 19.1704 39.0285 18.9921C38.9612 18.9449 38.8939 18.8844 38.8316 18.8103C38.8013 18.775 38.7761 18.7413 38.7525 18.706C38.7189 18.6639 38.6886 18.6235 38.6633 18.5848L38.6482 18.5798C38.4547 18.5007 38.31 18.3762 38.2023 18.2365C38.1333 18.2651 38.0592 18.2887 37.9768 18.3072C37.5544 18.3964 37.2516 18.2079 37.0412 17.9622C36.9907 17.9858 36.9352 18.0077 36.8729 18.0262C36.7131 18.0716 36.5667 18.0868 36.4338 18.0817C36.427 18.112 36.4203 18.1423 36.4119 18.1709C36.3765 18.2971 36.321 18.4115 36.2402 18.5024C36.1292 18.6269 35.9761 18.7043 35.7691 18.7026C35.5369 18.6993 35.3552 18.6286 35.2138 18.5276C35.1902 18.6084 35.1465 18.6707 35.0893 18.7178C35.0338 18.7632 34.9664 18.7901 34.8941 18.8036C34.9631 19.024 34.9378 19.2478 34.6484 19.3757C34.4801 19.4497 34.3119 19.48 34.1588 19.4868C34.1604 19.6315 34.1234 19.7863 34.0376 19.9461C34.0208 19.9781 34.0006 20.0118 33.9787 20.0454C33.8962 20.1716 33.7987 20.2574 33.696 20.3113C33.6725 20.3247 33.6472 20.3348 33.622 20.3433C33.6152 20.3702 33.6068 20.3954 33.5967 20.4207C33.5378 20.5772 33.4318 20.7101 33.2871 20.8026C33.1508 20.8885 32.9809 20.9389 32.7806 20.9339C32.6746 20.9305 32.5821 20.9221 32.5047 20.907C31.9494 21.3276 31.5371 22.7579 31.6902 23.8685C31.8703 25.1726 31.5977 25.9685 31.4849 26.7527C31.4092 27.2827 31.4681 27.8717 31.7491 28.8611C32.0268 29.8404 32.6611 30.9846 33.2888 32.9517C33.7684 34.4527 35.2727 35.427 35.7203 35.7147C35.7725 35.745 35.8246 35.7736 35.8802 35.8005H35.8751ZM33.4066 20.1598C33.4015 20.0942 33.3914 20.0235 33.3763 19.9529L33.3931 19.9259C33.3965 19.9411 33.4015 19.9546 33.4049 19.9697C33.42 20.0336 33.4251 20.0976 33.4217 20.1598H33.4083H33.4066ZM34.4398 19.2158C34.5054 19.1014 34.5222 18.9433 34.4785 18.7699C34.5256 18.7834 34.5727 18.7952 34.6181 18.8036L34.6535 18.8086C34.7124 18.9584 34.7124 19.1031 34.5525 19.1738C34.5155 19.1906 34.4768 19.2041 34.4398 19.2158ZM43.5247 21.4791C43.5819 21.4959 43.6357 21.5094 43.6862 21.5211C43.6273 21.5094 43.5735 21.4959 43.5247 21.4791ZM44.5864 31.8378C44.5949 32.033 44.647 32.2416 44.7379 32.3947C44.8658 32.6118 44.9903 32.7178 45.066 32.7683C44.9701 32.9012 44.8893 33.0443 44.8355 33.1957L44.8035 33.1738C44.5259 32.9803 44.3593 32.6539 44.4754 32.208C44.5107 32.07 44.5477 31.9471 44.5864 31.8378ZM49.2677 34.3837C49.3317 34.2945 49.3855 34.1885 49.4276 34.064C49.4343 34.0556 49.4393 34.0472 49.4461 34.0371C49.4528 34.0287 49.4579 34.0186 49.4629 34.0101C49.4982 34.0219 49.5319 34.0303 49.5672 34.0387C49.5571 34.0556 49.547 34.0707 49.5353 34.0875C49.4612 34.1969 49.372 34.2962 49.2677 34.382V34.3837ZM39.6528 4.70425C39.6746 4.71435 39.6948 4.72276 39.7167 4.72612C39.7268 4.66891 39.7419 4.61338 39.7605 4.55954L39.7672 4.54103C39.6999 4.46194 39.6157 4.38958 39.5131 4.33237C39.503 4.34752 39.4946 4.36434 39.4862 4.37949C39.5535 4.45521 39.6073 4.55281 39.646 4.67564L39.6544 4.70593L39.6528 4.70425ZM41.1504 4.65882L41.1554 4.66555C41.2143 4.55954 41.3035 4.4468 41.4381 4.35761C41.3742 4.24487 41.285 4.14391 41.1605 4.0766C41.0965 4.11867 41.0393 4.16242 40.9855 4.20954C41.078 4.39968 41.1285 4.57973 41.1504 4.65882ZM43.8023 5.44127C43.8124 5.43959 43.8225 5.43959 43.8326 5.43791C43.8932 5.37565 43.9773 5.31339 44.0985 5.25617C44.085 5.14175 44.0648 5.02228 44.0362 4.90786C43.74 4.97012 43.5146 5.13502 43.3497 5.3218C43.353 5.33863 43.3564 5.35377 43.3581 5.3706C43.4843 5.38743 43.6357 5.41098 43.8023 5.44295V5.44127ZM54.6793 18.4519C54.6423 18.5815 54.5817 18.7279 54.5228 18.8541C54.5312 18.844 54.5379 18.8339 54.5463 18.8238C54.6086 18.7413 54.6523 18.6488 54.6709 18.5545C54.6776 18.5209 54.681 18.4872 54.681 18.4519H54.6793ZM54.5783 24.9387L54.5817 24.9505L54.585 24.9438L54.5783 24.9387ZM53.1547 27.3854C53.1346 27.3769 53.111 27.3668 53.0891 27.3551C53.0706 27.382 53.0555 27.4072 53.042 27.4274C53.0807 27.4156 53.1194 27.4022 53.1564 27.3854H53.1547ZM31.2426 6.48118C31.2628 6.47781 31.283 6.47277 31.3032 6.46772L31.3335 6.4408C31.3268 6.41051 31.3234 6.38022 31.3184 6.34993L31.3167 6.32974C31.2224 6.28599 31.1147 6.25906 30.9986 6.25065C30.997 6.26916 30.9953 6.28767 30.9953 6.30618C31.0811 6.3432 31.1635 6.40041 31.2443 6.48286L31.2426 6.48118ZM33.5412 19.6937C33.5782 19.7678 33.6051 19.8435 33.622 19.9192C33.6337 19.9731 33.6405 20.0252 33.6438 20.0791C33.6943 20.0421 33.7414 19.9899 33.7869 19.9226C33.8054 19.8957 33.8205 19.8687 33.8357 19.8418C33.9047 19.7139 33.9333 19.5928 33.9299 19.48C33.8491 19.4716 33.7768 19.4582 33.7128 19.4413C33.6624 19.5086 33.6051 19.5961 33.5429 19.6921L33.5412 19.6937ZM34.7544 18.5226C34.7679 18.5445 34.7814 18.568 34.7948 18.5916C34.8083 18.5916 34.8201 18.5899 34.8335 18.5882C34.8773 18.5815 34.916 18.568 34.9446 18.5461C34.9732 18.5226 34.9934 18.4872 35.0018 18.4351C35.0068 18.4031 35.0102 18.3711 35.0119 18.3408C35.0068 18.3341 35.0001 18.3257 34.9951 18.319C34.9143 18.3964 34.8352 18.467 34.7544 18.5243V18.5226ZM35.2155 18.1086C35.2256 18.1541 35.2323 18.2029 35.2357 18.255C35.3568 18.3812 35.5268 18.4788 35.7657 18.4805C35.8987 18.4822 35.9979 18.4334 36.0669 18.356C36.1241 18.292 36.1645 18.2079 36.1915 18.1137L36.1999 18.0851C36.1696 18.1002 36.1393 18.1137 36.1073 18.1238C36.0602 18.1389 36.0097 18.1457 35.9592 18.144C35.7758 18.1389 35.5638 18.0783 35.3821 17.9639C35.3249 18.0094 35.2693 18.0582 35.2155 18.1069V18.1086ZM37.2701 17.7856C37.2549 17.8041 37.2398 17.8209 37.2229 17.8377C37.3895 18.0228 37.6201 18.1574 37.9263 18.0918C37.9802 18.08 38.029 18.0649 38.0761 18.0481C38.0693 18.0363 38.0643 18.0245 38.0576 18.0127C37.8052 18.0026 37.5056 17.9235 37.2701 17.7856ZM40.5143 20.3685C40.4302 20.4022 40.341 20.424 40.2501 20.424C40.2787 20.4644 40.3141 20.5048 40.3561 20.5435C40.5076 20.6798 40.6691 20.7252 40.8155 20.7067C40.802 20.6731 40.7936 20.6461 40.7903 20.6293V20.626C40.6792 20.5502 40.5883 20.461 40.5143 20.3668V20.3685ZM44.4165 23.0507C44.3458 23.0558 44.2751 23.049 44.2045 23.0272C44.0682 22.9885 43.9352 22.8993 43.8141 22.7428C43.8225 22.8185 43.841 22.901 43.8713 22.9901C43.9756 23.3031 44.1473 23.5017 44.3374 23.6026L44.3727 23.6195C44.4501 23.5404 44.536 23.4748 44.6218 23.4226C44.5511 23.2964 44.4821 23.1719 44.4182 23.049L44.4165 23.0507ZM45.0307 24.9034L45.0105 24.9084C44.9028 24.932 44.7884 24.9353 44.6773 24.9168C44.6117 24.9051 44.5477 24.8865 44.4872 24.8613C44.4199 24.9808 44.3896 25.1289 44.44 25.3106C44.4518 25.3527 44.467 25.3897 44.4872 25.425C44.6134 25.3745 44.7547 25.3426 44.8843 25.3224C44.9533 25.1726 45.0021 25.0346 45.029 24.9034H45.0307ZM44.3744 26.4851C44.2819 26.4161 44.2045 26.332 44.1506 26.2344C44.1069 26.2899 44.0816 26.3606 44.0884 26.4531C44.0985 26.5692 44.186 26.6971 44.3206 26.8048C44.334 26.7981 44.3492 26.793 44.361 26.7863C44.3593 26.6837 44.3626 26.5844 44.3727 26.4868L44.3744 26.4851ZM44.5477 28.0685C44.3811 28.2385 44.2314 28.5212 44.2852 28.9772C44.292 29.031 44.3021 29.0832 44.3138 29.1303C44.4266 28.9856 44.5545 28.8644 44.6588 28.7753C44.6285 28.5262 44.5881 28.2906 44.5477 28.0685ZM44.7059 30.6128C44.615 30.601 44.5275 30.5774 44.4485 30.5387C44.403 30.7137 44.44 30.9241 44.684 31.1479C44.7059 31.1176 44.7278 31.089 44.748 31.062C44.7278 30.9173 44.7126 30.7676 44.7042 30.6145L44.7059 30.6128ZM45.2898 32.8407C45.1804 32.9803 45.0896 33.1351 45.0391 33.2984C45.1501 33.3421 45.2696 33.3707 45.3908 33.3825C45.4194 33.3859 45.4463 33.3875 45.4749 33.3892C45.4783 33.3286 45.4833 33.2698 45.4884 33.2125C45.4345 33.1217 45.3655 32.9972 45.2898 32.8407ZM46.2927 34.3046C46.0824 34.5183 45.9242 34.6092 45.803 34.6125C46.0167 34.7152 46.2506 34.7657 46.4795 34.7421C46.5081 34.7388 46.5367 34.7337 46.567 34.7287C46.5266 34.6311 46.5114 34.5503 46.5064 34.5082C46.4374 34.4678 46.3667 34.4022 46.2927 34.3046ZM46.7437 34.5587C46.7521 34.589 46.7639 34.6243 46.7807 34.6613C46.9052 34.6058 47.0264 34.5234 47.1391 34.4089C47.1509 34.3972 47.161 34.3854 47.1727 34.3736C47.1492 34.3484 47.1273 34.3248 47.1071 34.3012C47.0297 34.4039 46.9018 34.5351 46.7437 34.5604V34.5587ZM50.2958 32.8423L50.3093 32.8524L50.3345 32.871C50.4136 32.8524 50.4927 32.8222 50.5701 32.7784C50.5583 32.7347 50.5449 32.6909 50.5297 32.6488C50.4406 32.7296 50.3615 32.7935 50.2958 32.8423ZM50.7014 32.4806C50.7216 32.531 50.7401 32.5849 50.7569 32.6387C50.7754 32.6219 50.7922 32.6034 50.8107 32.5849C50.9555 32.4267 51.0379 32.282 51.08 32.1508C51.0564 32.1423 51.0329 32.1339 51.0093 32.1255C50.9016 32.2635 50.7973 32.3813 50.7014 32.4822V32.4806ZM51.4838 31.4087C51.5427 31.4289 51.6134 31.4491 51.6908 31.4676C51.6672 31.3633 51.6353 31.2707 51.605 31.1933C51.5696 31.2606 51.5293 31.3313 51.4838 31.4087ZM51.7345 30.9409C51.7951 31.062 51.8809 31.2606 51.9264 31.508C51.987 31.513 52.0475 31.5147 52.1081 31.5096C52.1771 31.3532 52.1922 31.1983 52.1704 31.052C52.167 31.025 52.1603 30.9998 52.1535 30.9729L52.1283 30.9645C52.0105 30.9224 51.9011 30.8618 51.8086 30.7827C51.7884 30.8298 51.7648 30.8837 51.7362 30.9426L51.7345 30.9409ZM52.7206 29.0748C52.9209 29.2498 53.0201 29.4753 53.0319 29.689L53.0336 29.7092C53.0555 29.7395 53.0757 29.7697 53.0925 29.8017L53.111 29.837C53.3802 29.3474 53.2103 29.0176 53.0033 28.819C52.9966 28.8207 52.9898 28.8224 52.9814 28.8257C52.9192 28.8426 52.8603 28.8527 52.8047 28.8577C52.7795 28.9284 52.7526 29.0007 52.7189 29.0748H52.7206ZM52.9124 28.4707C52.9511 28.4943 52.9949 28.5229 53.0386 28.5548C53.0959 28.5128 53.1362 28.4522 53.1598 28.3832C53.185 28.3092 53.1918 28.225 53.1817 28.1392C53.1043 28.1459 53.0302 28.1476 52.9579 28.1459C52.9495 28.2452 52.936 28.3546 52.9108 28.4707H52.9124ZM52.968 27.9221C53.0168 27.9238 53.0656 27.9238 53.116 27.9205C53.1026 27.8952 53.0891 27.87 53.0723 27.8464C53.0555 27.8212 53.037 27.7976 53.0151 27.7741C52.9966 27.7774 52.9797 27.7808 52.9629 27.7842C52.9663 27.8245 52.968 27.8717 52.968 27.9221ZM53.6192 26.2546C53.6495 26.3051 53.6781 26.364 53.705 26.4329C53.8211 26.4296 53.9406 26.4195 54.0567 26.401C54.023 26.125 53.9002 25.9029 53.7471 25.7279C53.7218 25.8541 53.6797 26.0459 53.6192 26.2529V26.2546ZM54.3663 24.4962C54.4656 24.5618 54.5733 24.6409 54.6776 24.7301C54.6843 24.7065 54.6894 24.6813 54.6961 24.656C54.7382 24.4457 54.7331 24.2791 54.6995 24.1445C54.6288 24.1613 54.5615 24.1714 54.4975 24.1798C54.4572 24.2875 54.4134 24.3935 54.3663 24.4978V24.4962ZM54.6961 22.8151C54.8072 22.8892 54.9502 23.0019 55.0865 23.155C55.142 23.1281 55.1942 23.0978 55.2413 23.0625C55.2194 22.8942 55.1521 22.7529 55.0562 22.6401C55.0394 22.6199 55.0209 22.5998 55.0023 22.5812L54.9771 22.5863C54.8661 22.6099 54.7516 22.6149 54.6423 22.6014C54.6641 22.662 54.6826 22.731 54.6978 22.8135L54.6961 22.8151ZM54.5009 20.6647C54.7634 20.7101 54.9636 20.8514 55.0865 21.0264L55.0983 21.0433C55.1319 21.0567 55.1656 21.0735 55.1975 21.0921L55.2312 21.1123C55.211 20.6647 55.004 20.4509 54.7786 20.3534C54.6725 20.4257 54.5699 20.4711 54.474 20.4981C54.4841 20.5553 54.4925 20.6108 54.5026 20.6663L54.5009 20.6647ZM54.2098 19.5625C54.3343 19.5423 54.4689 19.5053 54.6019 19.4464C54.5817 19.4279 54.5598 19.4094 54.5362 19.3925C54.511 19.3757 54.4858 19.3589 54.4572 19.3437C54.3511 19.411 54.2519 19.4632 54.1778 19.5019C54.1846 19.5238 54.1947 19.544 54.2098 19.5625ZM54.4706 17.6947C54.5228 17.7334 54.5766 17.7839 54.6338 17.8478C54.7415 17.8041 54.8492 17.7536 54.9535 17.6947C54.824 17.4456 54.6271 17.2791 54.4218 17.1697C54.437 17.2892 54.4572 17.4776 54.4723 17.6947H54.4706ZM54.6523 15.8202C54.7466 15.8437 54.8475 15.874 54.9468 15.911C54.9451 15.8858 54.9418 15.8605 54.9367 15.8353C54.9031 15.6233 54.8391 15.4685 54.7617 15.3557C54.7146 15.3877 54.6675 15.4146 54.6237 15.4399C54.6406 15.5863 54.6507 15.7158 54.654 15.8218L54.6523 15.8202ZM54.336 14.1223C54.4605 14.1543 54.617 14.2081 54.7786 14.294C54.8206 14.2485 54.8593 14.2014 54.8913 14.1526C54.8122 14.0028 54.6995 13.8935 54.5699 13.8211C54.5463 13.8077 54.5228 13.7959 54.4975 13.7858L54.4757 13.8009C54.4084 13.843 54.3343 13.88 54.2603 13.9052C54.2872 13.9776 54.3124 14.05 54.336 14.1223ZM53.217 12.2024C53.535 12.0963 53.8278 12.1569 54.0348 12.3L54.0516 12.3117C54.0886 12.3134 54.124 12.3168 54.161 12.3218L54.1997 12.3286C53.8598 11.5293 53.1648 11.8019 52.9781 11.8944L52.9612 11.9113C53.0201 11.9735 53.1076 12.0694 53.217 12.2024ZM46.5838 6.43238C46.7453 6.18839 46.9776 6.05882 47.203 6.02685L47.2232 6.02517C47.2518 6.00161 47.2804 5.97974 47.3107 5.95786L47.3444 5.93599C47.0179 5.78959 46.7723 5.81651 46.5889 5.91411C46.6326 6.1194 46.6057 6.29272 46.5552 6.42733L46.5838 6.43238ZM45.9848 6.27253C46.0453 6.14127 46.1547 5.95618 46.3247 5.81315C46.2792 5.71387 46.1917 5.65161 46.0891 5.62637C46.0134 5.60786 45.9292 5.60786 45.8451 5.62637C45.8821 5.82998 45.8771 6.02685 45.8552 6.19512C45.9057 6.22541 45.9477 6.25065 45.9831 6.27253H45.9848ZM45.6449 6.07733C45.6533 5.96459 45.6533 5.84007 45.6331 5.71219C45.6095 5.72733 45.586 5.74416 45.5641 5.76098C45.5405 5.77949 45.5187 5.80137 45.4968 5.82324C45.5187 5.89728 45.5372 5.96627 45.5506 6.02853C45.5843 6.04536 45.6146 6.06051 45.6449 6.07733ZM42.0372 4.91459C42.1028 4.77492 42.197 4.6016 42.3182 4.43502C42.2929 4.42997 42.2677 4.4266 42.2424 4.42324C42.0287 4.39968 41.8638 4.41987 41.7326 4.46362C41.7831 4.61507 41.8049 4.76146 41.815 4.86411C41.8941 4.87925 41.9682 4.89608 42.0372 4.9129V4.91459ZM41.5862 4.8254C41.5761 4.75136 41.5609 4.66218 41.5323 4.57132C41.4432 4.63862 41.3826 4.71939 41.3439 4.79175C41.428 4.80185 41.5088 4.81362 41.5862 4.8254ZM40.3359 4.72949C40.3831 4.62348 40.5008 4.38958 40.7146 4.1641C40.6826 4.11194 40.6472 4.06146 40.6085 4.01771C40.442 4.05473 40.3073 4.13381 40.203 4.23982C40.1845 4.25833 40.166 4.27853 40.1492 4.29872L40.1576 4.32396C40.198 4.45521 40.2131 4.59656 40.1963 4.72949C40.2434 4.72949 40.2905 4.72949 40.3359 4.72949ZM38.2814 5.04247C38.2847 4.74127 38.416 4.50064 38.5943 4.35088L38.6095 4.33742C38.6213 4.30208 38.633 4.26843 38.6482 4.23478L38.665 4.19944C38.3117 4.24656 38.1165 4.39968 38.0121 4.57805C38.1585 4.74127 38.2258 4.90617 38.2511 5.05257L38.2797 5.04247H38.2814ZM38.0374 5.13334C38.0273 5.03911 37.9953 4.9331 37.9213 4.82204C37.8943 4.95834 37.8994 5.08959 37.9095 5.18214C37.9516 5.16699 37.9936 5.15016 38.0374 5.13334ZM37.6941 5.25617C37.6722 5.11819 37.6554 4.87252 37.7345 4.63189C37.6621 4.59319 37.5797 4.58478 37.4972 4.6016C37.4215 4.61675 37.3441 4.65377 37.2768 4.70593C37.4181 4.90281 37.504 5.11315 37.5544 5.29488C37.6016 5.28478 37.6487 5.27132 37.6958 5.25617H37.6941ZM36.7787 5.22757C36.703 5.14848 36.6138 5.08117 36.5179 5.03238C36.4253 4.98526 36.3278 4.95834 36.2302 4.95665C36.1275 4.95497 36.0249 4.98189 35.929 5.04752C36.2015 5.06603 36.491 5.11988 36.777 5.22757H36.7787ZM31.9241 6.01507C31.9359 5.89224 31.9628 5.74416 32.0133 5.58598C31.9628 5.55233 31.909 5.52204 31.8551 5.49848C31.7205 5.60281 31.633 5.73238 31.5842 5.87204C31.5758 5.89728 31.5674 5.92252 31.5607 5.94945L31.5792 5.96964C31.6297 6.02517 31.6734 6.08575 31.7104 6.14969C31.7811 6.10257 31.8518 6.05882 31.9241 6.01675V6.01507ZM30.2179 7.47397C30.0631 7.18287 30.0732 6.88671 30.1792 6.66123L30.1876 6.64272C30.1825 6.6057 30.1792 6.57036 30.1792 6.53334V6.49296C29.6003 6.8682 29.7265 7.34609 29.8645 7.61364L29.8729 7.62373C30.0361 7.50763 30.1472 7.47566 30.2196 7.47397H30.2179ZM29.6912 7.7634L29.6794 7.7432C29.5818 7.64561 29.4287 7.55306 29.1897 7.5396C29.0669 7.53287 28.9659 7.59008 28.897 7.68263C28.8498 7.74489 28.8179 7.82229 28.801 7.90811C28.9845 7.94849 29.1477 8.01917 29.2857 8.09489C29.4152 7.9872 29.5583 7.86941 29.6895 7.76508L29.6912 7.7634ZM29.1022 8.24801C29.0114 8.20258 28.9087 8.16388 28.7994 8.13696C28.8044 8.16556 28.8094 8.19248 28.8179 8.22109C28.8263 8.2497 28.8364 8.27999 28.8498 8.30691C28.907 8.31364 28.9592 8.32037 29.008 8.3271L29.1022 8.24801ZM27.8368 9.65812C27.8082 9.58239 27.7881 9.48816 27.783 9.37037C27.6719 9.3384 27.5558 9.3098 27.438 9.29129C27.3808 9.58913 27.4448 9.86004 27.5525 10.0855C27.571 10.0889 27.5895 10.0939 27.6063 10.0973C27.6366 10.0468 27.6686 9.99634 27.7006 9.94586C27.7712 9.83312 27.8116 9.74057 27.8368 9.65812ZM27.2311 10.7233C27.1015 10.5937 26.9198 10.4641 26.7195 10.38L26.6909 10.3682C26.6169 10.4052 26.5479 10.4524 26.484 10.5129C26.563 10.6576 26.6623 10.7906 26.7532 10.8999C26.9753 10.7855 27.1856 10.8007 27.1856 10.8007C27.1856 10.8007 27.2025 10.7721 27.2294 10.7249L27.2311 10.7233ZM26.5715 11.0262C26.4924 10.9302 26.4082 10.8158 26.3342 10.693C26.3207 10.7132 26.3073 10.735 26.2938 10.7586C26.1895 10.9454 26.1424 11.1069 26.134 11.2432C26.2265 11.2499 26.314 11.2651 26.3897 11.2836C26.4099 11.2247 26.4469 11.1591 26.5142 11.0834C26.5328 11.0632 26.5513 11.043 26.5715 11.0262ZM26.3695 11.5074C26.3056 11.4906 26.2316 11.4771 26.1525 11.4687C26.1727 11.5461 26.2029 11.6134 26.2383 11.6673C26.2585 11.6504 26.2787 11.637 26.2989 11.6286C26.3645 11.6016 26.3712 11.5629 26.3695 11.5074ZM25.9556 12.061C25.8866 12.0543 25.7957 12.0475 25.6981 12.0475C25.7402 12.1334 25.7873 12.2091 25.8311 12.273C25.8479 12.2495 25.863 12.2276 25.8799 12.204C25.8799 12.204 25.9102 12.1435 25.9556 12.0627V12.061ZM25.6998 12.4716C25.6224 12.3689 25.5349 12.231 25.4609 12.0644C25.4003 12.0728 25.3414 12.0863 25.2842 12.1048C25.2539 12.2713 25.2741 12.4262 25.3313 12.5641C25.3414 12.5894 25.3532 12.6129 25.365 12.6365L25.3919 12.6382C25.4575 12.6449 25.5215 12.6584 25.5837 12.6769C25.6191 12.6113 25.6578 12.5423 25.7015 12.4716H25.6998ZM25.0082 14.8274C24.9813 14.8341 24.9527 14.8408 24.9224 14.8509C24.9392 14.8644 24.9577 14.8778 24.9763 14.8913C24.9864 14.8694 24.9965 14.8476 25.0082 14.8274ZM24.8938 15.1084C24.8315 15.0714 24.7693 15.0259 24.7104 14.9721C24.6582 15.0276 24.6279 15.1 24.6195 15.1774C24.6111 15.2548 24.6229 15.3389 24.6515 15.4197C24.7087 15.4012 24.7676 15.386 24.8231 15.3726C24.8433 15.2783 24.8669 15.1891 24.8921 15.1084H24.8938ZM24.7794 15.6149L24.7676 15.6182L24.7777 15.63L24.7794 15.6149ZM24.6868 16.2947C24.638 16.3553 24.5993 16.4209 24.5758 16.4916C24.5337 16.6161 24.5371 16.7557 24.6094 16.9038L24.6162 16.9156C24.6414 16.7002 24.665 16.4916 24.6868 16.2947ZM24.5724 17.269C24.5556 17.2471 24.5388 17.2235 24.5219 17.1983C24.4092 17.2269 24.2948 17.2622 24.1854 17.306C24.2561 17.5012 24.3688 17.6577 24.4984 17.7805C24.5253 17.6072 24.5505 17.4356 24.5724 17.269ZM24.3486 18.5932C24.2746 18.5932 24.1989 18.5966 24.1231 18.6084L24.0928 18.6134C24.0491 18.6824 24.0121 18.7582 23.9885 18.844C24.0895 18.9045 24.1972 18.9533 24.2981 18.9937C24.3099 18.8642 24.3267 18.7295 24.3486 18.5949V18.5932ZM24.2813 19.2243C24.1753 19.1839 24.0626 19.1351 23.9515 19.0745C23.9498 19.0997 23.9498 19.125 23.9515 19.1519C23.9565 19.3656 23.9986 19.5288 24.0609 19.6517C24.1349 19.6146 24.209 19.586 24.2763 19.5642C24.2746 19.4548 24.2763 19.3421 24.283 19.2259L24.2813 19.2243ZM24.283 19.7964C24.2527 19.8082 24.2224 19.8199 24.1921 19.8351C24.2241 19.8671 24.2577 19.894 24.2914 19.9175C24.288 19.8771 24.2864 19.8368 24.283 19.7964ZM24.352 20.4324C24.2864 20.461 24.1921 20.5065 24.0945 20.5654C24.209 20.6394 24.3183 20.6916 24.4075 20.7286C24.3873 20.6377 24.3688 20.5385 24.352 20.4341V20.4324ZM24.4714 20.9877C24.3469 20.949 24.1265 20.8632 23.8993 20.7017C23.8522 20.7404 23.8068 20.7824 23.7681 20.8262C23.827 20.986 23.9229 21.1089 24.0424 21.1981C24.0642 21.2149 24.0861 21.2284 24.108 21.2435L24.1315 21.2317C24.2527 21.1762 24.3839 21.1425 24.5135 21.1392C24.5001 21.0921 24.4849 21.0433 24.4714 20.9894V20.9877ZM24.7323 22.9716C24.5909 22.9346 24.4664 22.8656 24.3705 22.7764L24.3553 22.763C24.32 22.7562 24.283 22.7478 24.2477 22.7377L24.2089 22.726C24.315 23.113 24.5253 23.2829 24.7424 23.3486C24.7693 23.3351 24.7962 23.3233 24.8231 23.3132C24.7878 23.1937 24.7575 23.081 24.7306 22.9733L24.7323 22.9716ZM24.9174 23.6077C24.8703 23.606 24.8215 23.601 24.7727 23.5909C24.707 23.6363 24.6397 23.6986 24.5775 23.7827C24.5034 23.882 24.4967 23.9964 24.5354 24.1058C24.5623 24.1798 24.6077 24.2488 24.67 24.3094C24.7928 24.1916 24.9258 24.099 25.0553 24.0301C25.0217 23.9224 24.9763 23.7861 24.919 23.6077H24.9174ZM25.121 24.2471C25.0335 24.2993 24.9426 24.3615 24.8585 24.4389C24.8837 24.4507 24.9106 24.4608 24.9376 24.4692C24.9662 24.4776 24.9965 24.4861 25.0267 24.4911C25.0671 24.4406 25.1075 24.3969 25.1462 24.3565C25.1412 24.3279 25.1328 24.2926 25.121 24.2471ZM25.0621 25.2147C25.0604 25.2466 25.0621 25.2769 25.0654 25.3072C25.0722 25.3577 25.0856 25.4065 25.1058 25.4553C25.0856 25.3728 25.0705 25.2921 25.0604 25.2147H25.0621ZM25.296 25.9921C25.2169 26.0611 25.1395 26.1351 25.0671 26.2125C25.2522 26.3959 25.471 26.4918 25.6864 26.5373C25.5231 26.3825 25.3936 26.1923 25.296 25.9921ZM26.1609 27.1733C25.9775 27.207 25.7621 27.2878 25.577 27.4123L25.5517 27.4291C25.5416 27.5099 25.5433 27.594 25.5568 27.6815C25.7856 27.7 26.0162 27.6765 26.1828 27.6495C26.1996 27.4981 26.2013 27.3349 26.1609 27.1733ZM26.1508 27.8801C26.001 27.9003 25.8176 27.9154 25.6258 27.907C25.6359 27.9305 25.646 27.9524 25.6578 27.976C25.7554 28.1661 25.8647 28.294 25.9741 28.3781C26.0212 28.3176 26.0717 28.2637 26.1205 28.2149C26.1104 28.1291 26.1306 28.013 26.1525 27.8801H26.1508ZM26.1844 28.4724L26.1727 28.4875C26.1794 28.4892 26.1861 28.4926 26.1929 28.4943L26.1844 28.4724ZM26.4705 29.0882C26.4486 29.1185 26.4251 29.1522 26.4015 29.1858C26.4486 29.1926 26.4941 29.1959 26.5361 29.1976C26.5142 29.1623 26.4907 29.1253 26.4688 29.0882H26.4705ZM26.696 29.4214C26.5782 29.4248 26.4368 29.4197 26.2837 29.3928C26.2585 29.4483 26.2366 29.5056 26.2198 29.5628C26.3426 29.6806 26.4823 29.7495 26.6287 29.7782C26.6556 29.7832 26.6808 29.7866 26.7078 29.7899L26.7246 29.7697C26.7734 29.7108 26.8272 29.6587 26.8861 29.6116C26.8239 29.5661 26.7599 29.5005 26.696 29.4214ZM28.0674 31.0654C27.9075 31.1058 27.7494 31.0991 27.6097 31.057L27.5895 31.0503C27.5542 31.0604 27.5188 31.0688 27.4818 31.0738L27.4431 31.0789C27.6467 31.3128 27.8503 31.402 28.0354 31.4137C28.0657 31.3145 28.1078 31.2303 28.1566 31.1596C28.1263 31.1277 28.096 31.0957 28.0657 31.062L28.0674 31.0654ZM28.3215 31.3212C28.308 31.3431 28.2962 31.3649 28.2844 31.3902C28.3131 31.3818 28.34 31.3734 28.3669 31.3616C28.3518 31.3481 28.3366 31.3346 28.3198 31.3212H28.3215ZM28.5655 31.5181C28.4645 31.5719 28.3484 31.619 28.2205 31.6392C28.2188 31.6645 28.2171 31.6914 28.2171 31.72C28.2171 31.8428 28.2794 31.9404 28.3753 32.0044C28.4409 32.0481 28.52 32.0767 28.6058 32.0885C28.6328 31.9219 28.6849 31.7722 28.7455 31.6392C28.6849 31.6005 28.6244 31.5601 28.5655 31.5181ZM28.939 31.752C28.8953 31.8496 28.8582 31.9606 28.8347 32.0801C28.8616 32.075 28.8902 32.0666 28.9171 32.0565C28.9458 32.0464 28.9744 32.0347 29.0013 32.0195C29.0063 31.9371 29.0131 31.8597 29.0215 31.794C28.9929 31.7806 28.9659 31.7654 28.9373 31.752H28.939ZM29.3883 31.9892C29.3681 32.0145 29.3479 32.0363 29.326 32.0582V32.0734C29.3227 32.1827 29.3378 32.2938 29.3715 32.3947C29.4034 32.4923 29.4522 32.5815 29.5195 32.6522C29.6104 32.7464 29.7349 32.8087 29.8948 32.8137C29.7787 32.5664 29.7383 32.2416 29.3866 31.9909L29.3883 31.9892ZM30.1051 33.1032C30.0866 33.1923 30.0715 33.2849 30.0614 33.3758C30.1842 33.3926 30.3003 33.3892 30.4114 33.3724C30.2936 33.2883 30.1909 33.194 30.1051 33.1032ZM31.3453 33.7123C31.283 33.8099 31.2275 33.9193 31.1871 34.0337L31.177 34.0623C31.2174 34.133 31.2679 34.2003 31.3318 34.2609C31.453 34.1851 31.564 34.096 31.6599 34.0118C31.5809 33.8772 31.4883 33.7645 31.3453 33.7123ZM31.7676 34.2121C31.6936 34.276 31.6095 34.3416 31.5203 34.4005C31.5422 34.4123 31.564 34.4258 31.5876 34.4359C31.739 34.5099 31.8736 34.5486 31.9914 34.5637C31.8972 34.4594 31.8299 34.3349 31.7676 34.2104V34.2121ZM33.1592 35.0686C33.0936 35.1123 33.0196 35.1577 32.9388 35.1981C32.9506 35.2587 32.9674 35.3176 32.9893 35.3714C33.1575 35.3933 33.3107 35.3647 33.4453 35.3008C33.4688 35.289 33.4924 35.2772 33.516 35.2638L33.5176 35.2368C33.5193 35.1948 33.5244 35.1527 33.5311 35.1123C33.4268 35.1106 33.2989 35.0955 33.1609 35.0686H33.1592ZM34.9564 35.7753C34.9395 35.7955 34.9227 35.814 34.9059 35.8325L34.8773 35.8611C35.2172 35.9351 35.4494 35.8628 35.6076 35.7366C35.4309 35.7736 35.1902 35.8056 34.9564 35.7753ZM26.0852 11.8524L26.0902 11.8439C26.0179 11.7497 25.9505 11.6252 25.9203 11.4704C25.7924 11.4855 25.6645 11.5276 25.5534 11.6168C25.5669 11.6908 25.5854 11.7632 25.6073 11.8288C25.8159 11.8187 26.001 11.8406 26.0835 11.8524H26.0852ZM27.4212 10.4036L27.4498 10.3564C27.4347 10.3329 27.4212 10.3076 27.4078 10.2841C27.3758 10.279 27.3438 10.2757 27.3118 10.2723C27.3455 10.3194 27.3808 10.3632 27.4212 10.4036ZM32.5282 5.73238C32.5703 5.71723 32.614 5.70209 32.6561 5.68695C32.6746 5.60786 32.7066 5.52541 32.7554 5.44295C32.6494 5.36892 32.5265 5.31507 32.3852 5.30834C32.3448 5.37228 32.3111 5.43791 32.2842 5.50353C32.3818 5.58262 32.466 5.66507 32.5299 5.73238H32.5282ZM34.6602 5.19223C34.7006 5.17877 34.7443 5.16699 34.7898 5.15521C34.8773 4.97685 35.0051 4.80521 35.1869 4.66386C35.1616 4.63862 35.1347 4.61507 35.1078 4.59151C35.0169 4.66386 34.9362 4.74463 34.8672 4.83382C34.7797 4.94488 34.7107 5.06603 34.6619 5.19392L34.6602 5.19223ZM38.84 4.87084C38.9292 4.84896 39.0251 4.83045 39.1261 4.81194C39.1362 4.69415 39.1648 4.56627 39.2136 4.43838C39.1951 4.42829 39.1749 4.41987 39.1547 4.41483C39.0891 4.39463 39.0167 4.39463 38.9477 4.41146C38.8989 4.42324 38.8501 4.44343 38.8047 4.47204C38.7862 4.55954 38.7828 4.64872 38.7963 4.73286C38.8047 4.78165 38.8181 4.82709 38.8367 4.87084H38.84ZM47.1408 6.57205C47.1896 6.58887 47.2367 6.60738 47.2788 6.62589C47.3242 6.64608 47.3696 6.66796 47.4151 6.68983C47.4857 6.5956 47.5766 6.50474 47.6826 6.42229C47.6725 6.40378 47.659 6.38695 47.6456 6.3718C47.6002 6.31964 47.5396 6.28262 47.4706 6.25906C47.4235 6.24392 47.3713 6.23551 47.3175 6.23551C47.2552 6.29945 47.2064 6.37517 47.1727 6.45426C47.1576 6.49296 47.1458 6.53166 47.1391 6.57036L47.1408 6.57205ZM47.6119 6.79753C47.6405 6.81435 47.6691 6.83118 47.6978 6.84801C47.7028 6.8295 47.7095 6.81099 47.7146 6.79248C47.7264 6.74873 47.7331 6.70834 47.7348 6.66964C47.6877 6.71171 47.6473 6.75546 47.6119 6.79921V6.79753ZM47.8913 6.97085L47.9148 6.98599C47.967 6.92373 48.0259 6.86315 48.0881 6.81099L48.1033 6.79753C48.0881 6.69488 48.0545 6.58887 47.9973 6.48623C47.9804 6.49464 47.9653 6.50306 47.9485 6.51315C47.9653 6.61243 47.9603 6.72517 47.9283 6.84801C47.9165 6.89176 47.903 6.93214 47.8896 6.96916L47.8913 6.97085ZM49.2374 7.56652C49.2576 7.5783 49.2778 7.5884 49.2963 7.60018C49.3889 7.55979 49.4982 7.52782 49.6228 7.52445C49.6278 7.39489 49.6059 7.26195 49.5353 7.13912C49.4595 7.1408 49.3872 7.14753 49.3165 7.15931C49.2997 7.32421 49.2643 7.47229 49.2374 7.56484V7.56652ZM54.0365 13.3735C54.0533 13.4055 54.0701 13.4391 54.0853 13.4711C54.1072 13.4711 54.129 13.4711 54.1492 13.4728L54.1694 13.4745C54.2283 13.3887 54.2737 13.2877 54.3023 13.175C54.2838 13.1699 54.267 13.1649 54.2485 13.1615C54.198 13.2389 54.129 13.3096 54.0348 13.3752L54.0365 13.3735ZM54.5177 14.7836C54.5245 14.8173 54.5312 14.8509 54.5379 14.8846C54.6221 14.9166 54.7096 14.9654 54.7903 15.0377C54.8812 14.9468 54.9552 14.8341 54.9872 14.6961C54.93 14.6456 54.8711 14.6019 54.8122 14.5632C54.7045 14.6574 54.5968 14.7331 54.5161 14.7853L54.5177 14.7836ZM54.5749 21.2065C54.58 21.3041 54.5817 21.4017 54.5749 21.5043C54.6927 21.5245 54.8206 21.5649 54.9451 21.6255C54.9569 21.607 54.967 21.5885 54.9737 21.5699C54.999 21.506 55.0057 21.4353 54.9956 21.363C54.9872 21.3142 54.9721 21.2637 54.9485 21.2166C54.8627 21.1897 54.7735 21.1796 54.6894 21.1863C54.6507 21.1897 54.6136 21.1964 54.5766 21.2065H54.5749ZM52.623 29.2784C52.6079 29.307 52.5944 29.3356 52.5793 29.3642C52.6213 29.3777 52.6634 29.3945 52.7055 29.4147L52.7358 29.4315C52.7071 29.3777 52.6684 29.3272 52.623 29.2784ZM52.4699 29.5661C52.4177 29.657 52.3689 29.7378 52.3218 29.8101C52.4194 29.8926 52.5153 29.9986 52.5961 30.1248C52.6146 30.1147 52.6331 30.1046 52.6499 30.0911C52.7055 30.0491 52.7475 29.9919 52.7761 29.9262C52.7947 29.8791 52.8081 29.8286 52.8115 29.7765C52.7526 29.7092 52.6819 29.6536 52.6062 29.6149C52.5624 29.5931 52.517 29.5762 52.4716 29.5661H52.4699ZM52.1939 29.9935C52.1687 30.0272 52.1468 30.0575 52.1233 30.0844C52.1535 30.0979 52.1872 30.113 52.2242 30.1248C52.2663 30.1399 52.3067 30.15 52.3454 30.1551C52.2966 30.0928 52.2461 30.0373 52.1922 29.9919L52.1939 29.9935ZM51.9735 30.2577L51.9668 30.2645C52.0442 30.3334 52.1165 30.4125 52.1771 30.4983L52.1889 30.5152C52.2932 30.5084 52.4009 30.4832 52.5069 30.4344C52.5002 30.4176 52.4918 30.4007 52.485 30.3839C52.3841 30.3923 52.273 30.3789 52.1519 30.3368C52.0845 30.3132 52.024 30.2863 51.9735 30.2577ZM51.3711 31.5972C51.3509 31.6291 51.3324 31.6611 51.3122 31.6914C51.3357 31.7738 51.3492 31.8681 51.3442 31.9707C51.472 31.9859 51.6067 31.9741 51.7345 31.9135C51.7396 31.8378 51.7379 31.7637 51.7312 31.6947C51.5898 31.6678 51.462 31.6291 51.3711 31.5972ZM50.0418 33.1082C50.0333 33.12 50.0249 33.1335 50.0165 33.1469C50.0266 33.2798 50.0199 33.4145 49.9963 33.5491C49.9778 33.6551 49.9492 33.7611 49.9088 33.8637C50.072 33.8637 50.2252 33.8234 50.3581 33.7207C50.523 33.5928 50.6004 33.4246 50.6206 33.2462L50.6088 33.2428C50.4994 33.2125 50.3918 33.1637 50.2925 33.1032C50.2083 33.1149 50.1259 33.1166 50.0418 33.1116V33.1082ZM49.7927 33.3774C49.7574 33.4061 49.7187 33.4347 49.6749 33.4649C49.6581 33.5794 49.6244 33.6955 49.574 33.8116C49.6093 33.8217 49.643 33.8301 49.6783 33.8368C49.7237 33.7308 49.7557 33.6198 49.7759 33.5087C49.7843 33.4649 49.7893 33.4212 49.7927 33.3758V33.3774ZM44.4283 26.226C44.4434 26.1704 44.4619 26.1149 44.4838 26.0611C44.4367 26.0712 44.3879 26.0846 44.3424 26.1015C44.3643 26.1469 44.3929 26.1873 44.4283 26.226ZM40.3948 20.1733C40.3225 20.037 40.2754 19.8973 40.2451 19.7695C40.2232 19.7762 40.2013 19.7829 40.1794 19.7896C40.1424 19.9192 40.1273 20.0555 40.1542 20.1884C40.235 20.207 40.3157 20.2002 40.3948 20.175V20.1733ZM38.5287 18.2533C38.5136 18.1457 38.5338 18.0649 38.5523 18.0009C38.5085 18.0464 38.4597 18.0901 38.4025 18.1288C38.4395 18.1726 38.4816 18.2146 38.5287 18.2533ZM34.1453 35.3361C34.0797 35.2755 34.0208 35.22 33.9652 35.1779C34.0023 35.2722 34.0561 35.3647 34.1301 35.4505C34.1436 35.4388 34.1588 35.427 34.1722 35.4152C34.1621 35.39 34.1537 35.363 34.147 35.3361H34.1453ZM32.6914 34.9457C32.5636 34.9037 32.4407 34.8532 32.3297 34.7993C32.3532 34.9171 32.402 35.0349 32.4912 35.1325C32.5652 35.1157 32.6342 35.0921 32.7015 35.0669C32.6965 35.0248 32.6948 34.9844 32.6914 34.9457ZM30.8186 33.5945C30.7732 33.5777 30.7294 33.5575 30.6857 33.5356C30.4972 33.5979 30.2869 33.6298 30.058 33.6012C30.058 33.6383 30.0597 33.6736 30.0631 33.7089C30.1775 33.7224 30.2936 33.7224 30.4046 33.7089C30.551 33.6921 30.6907 33.6534 30.8186 33.5945ZM27.7998 30.6986C27.7376 30.5976 27.6854 30.495 27.6433 30.3923C27.5542 30.4344 27.4566 30.4681 27.3505 30.4916C27.3522 30.5135 27.3573 30.5337 27.3623 30.5539C27.3825 30.6195 27.4212 30.6801 27.4734 30.7289C27.5104 30.7625 27.5542 30.7911 27.6013 30.8147C27.6736 30.7861 27.7409 30.7474 27.7981 30.7003L27.7998 30.6986ZM27.5525 30.1904C27.5373 30.1618 27.5222 30.1332 27.507 30.1096C27.4969 30.1197 27.4885 30.1315 27.4784 30.1433C27.4498 30.1786 27.4263 30.2123 27.4078 30.2459C27.4599 30.2291 27.5087 30.2106 27.5525 30.1904ZM27.3674 29.9313C27.3573 29.9212 27.3455 29.9111 27.3354 29.901C27.2731 29.9279 27.2092 29.9515 27.1453 29.97L27.1268 29.975C27.0981 30.076 27.0847 30.1854 27.0931 30.3015C27.1116 30.3015 27.1301 30.2998 27.1486 30.2981C27.1739 30.2005 27.226 30.1012 27.3068 30.0019C27.327 29.9767 27.3489 29.9532 27.3691 29.9313H27.3674ZM26.3611 28.8729C26.3392 28.8308 26.3191 28.787 26.3005 28.745C26.2215 28.7366 26.1373 28.7181 26.0498 28.681C25.9909 28.7955 25.9556 28.9267 25.9691 29.0681C26.038 29.0983 26.1087 29.1219 26.176 29.1404C26.2383 29.0361 26.3056 28.9435 26.3611 28.8729ZM26.0078 26.8385C25.996 26.8233 25.9842 26.8082 25.9707 26.793C25.9421 26.7914 25.9118 26.7897 25.8816 26.788C25.8597 26.8116 25.8395 26.8351 25.8193 26.8603C25.8832 26.8587 25.9455 26.8519 26.0078 26.8385ZM24.6549 22.5425C24.6347 22.413 24.6229 22.2935 24.6162 22.1858C24.5404 22.1808 24.463 22.169 24.384 22.1505C24.3772 22.1707 24.3722 22.1909 24.3688 22.2111C24.357 22.28 24.3671 22.3507 24.394 22.418C24.4126 22.4651 24.4395 22.5089 24.4731 22.551C24.5354 22.556 24.5977 22.5526 24.6565 22.5425H24.6549ZM24.6094 21.9637C24.6094 21.9452 24.6094 21.9284 24.6094 21.9115C24.5842 21.925 24.5606 21.9401 24.5404 21.9553C24.564 21.9586 24.5876 21.962 24.6094 21.9637ZM24.6263 21.6591C24.6279 21.6423 24.6296 21.6272 24.633 21.612C24.564 21.6103 24.4933 21.6019 24.426 21.5901L24.4058 21.5868C24.3368 21.6642 24.2763 21.7584 24.2342 21.8661C24.251 21.8728 24.2678 21.8796 24.2847 21.8863C24.3503 21.8106 24.4395 21.7416 24.5556 21.6877C24.5791 21.676 24.6044 21.6659 24.6263 21.6574V21.6591ZM24.3267 20.2036L24.3251 20.1851C24.2174 20.1413 24.1013 20.069 24.0003 19.9546C23.8977 20.032 23.8085 20.1346 23.7597 20.2675C23.8085 20.3247 23.8606 20.3769 23.9145 20.4223C24.0827 20.3113 24.2477 20.2372 24.3267 20.2036ZM25.2135 14.5884C25.0065 14.4639 24.8736 14.2805 24.8164 14.092L24.8114 14.0718C24.7827 14.0483 24.7575 14.023 24.7323 13.9961L24.7053 13.9658C24.6178 14.2822 24.6666 14.511 24.771 14.6742C24.9342 14.6019 25.084 14.58 25.2135 14.5884ZM25.3633 14.4168C25.3818 14.3781 25.3919 14.3377 25.3969 14.294C25.3313 14.2956 25.264 14.2872 25.1984 14.2721L25.1647 14.2637C25.2169 14.3226 25.2842 14.3747 25.3633 14.4168ZM25.3868 14.0702C25.3734 13.9675 25.3515 13.8531 25.3431 13.7185C25.2741 13.673 25.2051 13.6192 25.1412 13.5569C25.1243 13.5704 25.1092 13.5855 25.0957 13.6007C25.052 13.6545 25.0234 13.7202 25.0116 13.7908C25.0032 13.8396 25.0032 13.8918 25.0116 13.9456C25.0856 13.9978 25.1664 14.0348 25.2489 14.055C25.2943 14.0651 25.3397 14.0718 25.3852 14.0702H25.3868ZM25.3784 13.2439C25.3885 13.1951 25.402 13.1447 25.4188 13.0925C25.3279 13.1245 25.2388 13.1716 25.1546 13.2355C25.1647 13.2507 25.1765 13.2658 25.1883 13.2793C25.2455 13.2591 25.3094 13.2473 25.3784 13.2439ZM46.917 34.8431C46.9927 34.9205 47.1004 34.9912 47.2518 35.0349C47.3696 35.0702 47.4807 35.0366 47.5699 34.9642C47.6304 34.9137 47.6792 34.8464 47.7146 34.7674C47.5715 34.6984 47.447 34.6109 47.341 34.5217C47.3292 34.5351 47.3175 34.5469 47.3057 34.5604C47.1845 34.6849 47.0533 34.7791 46.917 34.8448V34.8431ZM39.4239 19.1435C39.3684 19.1384 39.3129 19.1267 39.2573 19.1082C39.2674 19.2125 39.291 19.3118 39.3347 19.3993C39.36 19.4497 39.4004 19.4918 39.4508 19.5255V19.5187C39.4441 19.3942 39.4576 19.268 39.4862 19.1469C39.466 19.1469 39.4458 19.1452 39.4256 19.1435H39.4239ZM39.9388 19.8351C39.8799 19.8401 39.821 19.8418 39.7638 19.8401C39.8008 19.9091 39.8513 19.9764 39.9136 20.0404C39.9153 19.9714 39.9237 19.9024 39.9371 19.8351H39.9388ZM45.0054 33.5188C44.9987 33.65 45.0239 33.7847 45.0929 33.9193C45.204 34.1397 45.3874 34.3433 45.6078 34.4931C45.4917 34.3164 45.4631 33.9647 45.4715 33.608C45.4396 33.6063 45.4076 33.6046 45.3756 33.6012C45.2494 33.5878 45.1249 33.5609 45.0071 33.5188H45.0054ZM44.3088 25.881C44.4165 25.8457 44.5242 25.8289 44.6117 25.8221C44.5461 25.7902 44.4872 25.7498 44.435 25.701C44.3711 25.7481 44.3256 25.807 44.3105 25.881H44.3088ZM43.597 22.1824C43.5903 22.0243 43.6273 21.8796 43.6879 21.7517C43.5263 21.7264 43.3917 21.6827 43.2773 21.6272C43.2756 21.6558 43.2756 21.6844 43.2756 21.7163C43.279 21.8897 43.3581 22.0226 43.4759 22.1118C43.5129 22.1404 43.5533 22.1639 43.5953 22.1824H43.597ZM42.8617 21.2351C42.7994 21.124 42.7607 21.0046 42.7372 20.8918C42.7237 20.9322 42.7069 20.9709 42.6884 21.0096C42.6295 21.1274 42.547 21.2317 42.4444 21.3108C42.4932 21.326 42.5453 21.331 42.6042 21.326C42.7018 21.3175 42.786 21.2856 42.86 21.2351H42.8617ZM50.6223 33.014L50.6206 33.0039L50.6088 33.0089L50.6206 33.014H50.6223ZM50.8242 32.876C50.836 32.9349 50.8427 32.9955 50.8478 33.0544C50.91 33.056 50.9706 33.0476 51.0312 33.0291C51.1725 32.9871 51.3139 32.8861 51.4451 32.7077C51.5764 32.5294 51.6555 32.3493 51.6975 32.176C51.5663 32.213 51.4333 32.2147 51.3071 32.1962C51.2567 32.3594 51.1574 32.5378 50.9824 32.7296C50.9538 32.7599 50.9252 32.7902 50.8949 32.8171C50.873 32.8373 50.8494 32.8575 50.8259 32.8743L50.8242 32.876ZM51.96 31.7435C51.9651 31.7385 51.9701 31.7318 51.9752 31.7267L51.9583 31.725L51.96 31.7435ZM52.5843 31.0183C52.5675 31.02 52.549 31.0217 52.5321 31.0217C52.4867 31.0233 52.4413 31.0217 52.3958 31.0183C52.416 31.1479 52.411 31.2825 52.3773 31.4188C52.4446 31.3734 52.4985 31.3077 52.5321 31.2152C52.5574 31.1496 52.5725 31.0822 52.5826 31.0183H52.5843ZM52.5944 30.7911C52.591 30.744 52.5843 30.6969 52.5759 30.6515C52.4884 30.6885 52.3992 30.7137 52.3117 30.7289C52.3201 30.7474 52.3269 30.7642 52.3336 30.7827C52.3975 30.7945 52.4615 30.8012 52.5237 30.7979C52.5473 30.7962 52.5708 30.7945 52.5944 30.7911ZM52.7795 30.5421C52.793 30.5959 52.8047 30.6515 52.8115 30.7087C52.8552 30.6767 52.8922 30.6363 52.9175 30.5858C52.9528 30.5152 52.9764 30.4445 52.9882 30.3738C52.9208 30.4395 52.8519 30.495 52.7795 30.5421ZM52.9528 30.0777L52.968 30.0575L52.9663 30.0507L52.9528 30.076V30.0777ZM54.8795 25.3207L54.8677 25.324C54.7584 25.356 54.6423 25.3695 54.5245 25.3695C54.4521 25.4284 54.3713 25.4789 54.2889 25.5192C54.3764 25.6353 54.4504 25.7666 54.5043 25.9063C54.543 26.0072 54.5733 26.1115 54.5935 26.2192C54.7331 26.1351 54.8425 26.019 54.9031 25.8625C54.9771 25.6673 54.9552 25.4839 54.8795 25.3207ZM53.774 26.645V26.6466C53.8261 26.8688 53.7874 27.064 53.6882 27.2238C53.6713 27.2524 53.6511 27.2793 53.6309 27.3063C53.8648 27.1599 54.0499 26.9411 54.0685 26.6164C53.9692 26.6315 53.8716 26.6399 53.774 26.645ZM54.2805 26.3505C54.3158 26.3404 54.3495 26.3303 54.3831 26.3185C54.3663 26.2041 54.3377 26.093 54.2956 25.9887C54.2401 25.8474 54.1644 25.7178 54.0701 25.6067L54.0567 25.6101C54.0264 25.6185 53.9961 25.6269 53.9658 25.6353C54.1189 25.8255 54.2418 26.0628 54.2805 26.3522V26.3505ZM54.7584 25.1221L54.7516 25.1137L54.7449 25.1238L54.7584 25.1204V25.1221ZM54.8593 24.9C54.8997 24.9454 54.9367 24.9926 54.9721 25.0414C55.0259 25.0111 55.0747 24.9724 55.1168 24.9252C55.216 24.8159 55.2834 24.6577 55.3036 24.4373C55.3221 24.2168 55.2968 24.0216 55.243 23.8517C55.1487 23.951 55.036 24.0216 54.9199 24.0721C54.962 24.237 54.9704 24.4423 54.9182 24.6964C54.9098 24.7385 54.8997 24.7772 54.8879 24.8176C54.8795 24.8462 54.8694 24.8748 54.8593 24.9017V24.9ZM54.3983 26.5423C54.3629 26.5524 54.3293 26.5625 54.2939 26.5709C54.2939 26.581 54.2939 26.5928 54.2939 26.6029C54.2704 27.2608 53.7319 27.5671 53.2591 27.7084L53.2641 27.7168C53.2995 27.769 53.3281 27.8245 53.3516 27.8801C53.5788 27.8262 53.8144 27.7034 54.0297 27.4729C54.2687 27.2154 54.3831 26.9058 54.3983 26.5995C54.3999 26.581 54.3999 26.5608 54.3999 26.5423H54.3983ZM55.2413 23.3435C55.243 23.3368 55.2447 23.3284 55.2447 23.32L55.2312 23.3284L55.2413 23.3435ZM55.3978 22.3995C55.3843 22.4096 55.3692 22.4197 55.3557 22.4298C55.3187 22.455 55.2783 22.4769 55.2379 22.4971C55.3221 22.5981 55.3894 22.7142 55.4298 22.8488C55.4634 22.7748 55.4769 22.6906 55.4567 22.5947C55.4432 22.5257 55.423 22.4601 55.3978 22.3995ZM55.317 21.8913C55.3574 21.93 55.3944 21.9721 55.4314 22.0175C55.4516 21.9671 55.4617 21.9132 55.4584 21.8577C55.4516 21.7786 55.4348 21.7062 55.4079 21.6406C55.3843 21.7315 55.354 21.8156 55.317 21.893V21.8913ZM55.2245 21.405L55.2278 21.3798L55.2228 21.3748L55.2245 21.4034V21.405ZM55.3473 16.3973L55.3372 16.4041C55.2447 16.4714 55.1403 16.5252 55.031 16.5673C54.9838 16.648 54.9266 16.7238 54.8627 16.7911C54.9855 16.8685 55.0999 16.9661 55.2009 17.0771C55.2733 17.1579 55.3372 17.2454 55.3944 17.3396C55.4954 17.2118 55.5576 17.0654 55.5593 16.8971C55.561 16.6884 55.4769 16.5252 55.3473 16.3973ZM54.7752 18.0245V18.0262C54.9031 18.2163 54.9334 18.4132 54.898 18.5966C54.8913 18.6286 54.8829 18.6622 54.8728 18.6942C55.0411 18.4738 55.137 18.2062 55.0411 17.8949C54.9536 17.9437 54.8644 17.9858 54.7752 18.0245ZM55.1471 17.5719C55.1757 17.55 55.2043 17.5281 55.2312 17.5062C55.1757 17.4053 55.11 17.311 55.0343 17.2269C54.9334 17.1142 54.8156 17.0182 54.6894 16.9476L54.6776 16.956C54.6523 16.9745 54.6271 16.993 54.6002 17.0115C54.8105 17.136 55.0074 17.3161 55.1454 17.5719H55.1471ZM55.1639 16.2543L55.1555 16.2492L55.1521 16.261L55.1639 16.2543ZM55.1807 16.0103C55.2346 16.0389 55.2867 16.0692 55.3355 16.1029C55.3742 16.0557 55.4062 16.0019 55.4298 15.943C55.4836 15.805 55.492 15.6334 55.4331 15.4197C55.3742 15.206 55.28 15.0327 55.1706 14.8913C55.1185 15.0175 55.036 15.1235 54.9451 15.211C55.0427 15.3507 55.1218 15.5408 55.1622 15.7966C55.1689 15.8387 55.174 15.8791 55.1757 15.9194C55.1773 15.9497 55.179 15.98 55.179 16.0086L55.1807 16.0103ZM55.3237 17.7098C55.2951 17.7317 55.2665 17.7536 55.2362 17.7738C55.2396 17.7839 55.243 17.794 55.2463 17.8041C55.455 18.4283 55.0579 18.9029 54.6624 19.2024L54.6709 19.2074C54.7213 19.2445 54.7685 19.2848 54.8105 19.3303C55.004 19.199 55.1824 19.0038 55.3036 18.711C55.4382 18.3863 55.4365 18.0565 55.3423 17.7637C55.3355 17.7452 55.3305 17.7267 55.3237 17.7098ZM54.9923 14.4185C54.9906 14.4117 54.9889 14.4033 54.9872 14.3966L54.9771 14.4084L54.9923 14.4185ZM54.8088 13.4795C54.7987 13.4947 54.7903 13.5081 54.7786 13.5233C54.7516 13.5603 54.723 13.594 54.691 13.6276C54.8055 13.6932 54.9081 13.779 54.9939 13.8901C55.0007 13.8093 54.9822 13.7252 54.93 13.6427C54.893 13.5822 54.8509 13.5283 54.8072 13.4812L54.8088 13.4795ZM54.6372 13.3314C54.5985 13.3045 54.5581 13.281 54.5161 13.2608C54.4908 13.3533 54.4555 13.4391 54.4117 13.5165C54.4302 13.5216 54.4487 13.5266 54.4673 13.5317C54.5161 13.4896 54.5615 13.4425 54.5968 13.392C54.6103 13.3718 54.6237 13.3533 54.6355 13.3331L54.6372 13.3314ZM54.5564 13.0319C54.6069 13.0538 54.6574 13.0807 54.7062 13.1093C54.7079 13.0555 54.6978 13.0016 54.6742 12.9495C54.6406 12.8771 54.5985 12.8149 54.5514 12.7627C54.5615 12.8569 54.5615 12.9461 54.5548 13.0302L54.5564 13.0319ZM54.299 12.6079L54.2939 12.5843L54.2872 12.5826L54.299 12.6096V12.6079ZM50.9538 8.15042L50.9521 8.1622C50.9302 8.27494 50.8898 8.38431 50.8377 8.48864C50.8579 8.58119 50.8663 8.67374 50.8663 8.76629C51.0093 8.73936 51.1591 8.73431 51.3088 8.74778C51.4165 8.75787 51.5242 8.77806 51.6285 8.80835C51.6168 8.64681 51.5629 8.49537 51.4502 8.37085C51.3088 8.21604 51.1372 8.15378 50.9555 8.14705L50.9538 8.15042ZM51.6369 9.73384H51.6386C51.8608 9.786 52.0172 9.91052 52.1165 10.0704C52.1333 10.099 52.1502 10.1276 52.1636 10.1579C52.1384 9.88192 52.0257 9.61941 51.7446 9.45619C51.7127 9.55042 51.6773 9.64297 51.6386 9.73216L51.6369 9.73384ZM51.6016 9.14994C51.6083 9.1146 51.6151 9.07927 51.6184 9.04393C51.5091 9.00691 51.3963 8.98335 51.2836 8.97326C51.1321 8.9598 50.9824 8.96821 50.841 9.00186L50.8394 9.01533C50.8343 9.0473 50.8276 9.07758 50.8208 9.10787C51.0598 9.05739 51.3257 9.05403 51.6016 9.14994ZM50.7199 8.17061L50.7098 8.17229L50.7165 8.18239L50.7199 8.16893V8.17061ZM50.5668 7.98046C50.6257 7.96532 50.6845 7.95186 50.7434 7.94345C50.7401 7.88119 50.7266 7.82061 50.7047 7.76171C50.6509 7.62373 50.5398 7.4908 50.3531 7.37469C50.1646 7.25859 49.9778 7.19296 49.8028 7.16436C49.8499 7.29224 49.8617 7.42517 49.8533 7.55306C50.0199 7.59008 50.2067 7.6759 50.4103 7.83575C50.4439 7.86099 50.4742 7.8896 50.5045 7.91652C50.5264 7.93672 50.5482 7.95859 50.5668 7.98046ZM51.8254 9.13143C51.8187 9.16677 51.812 9.2021 51.8052 9.23744C51.8153 9.24249 51.8237 9.24754 51.8338 9.25259C52.411 9.57062 52.4413 10.1882 52.3538 10.6745L52.3622 10.6728C52.4245 10.6644 52.4867 10.6644 52.5473 10.6694C52.6011 10.4423 52.5978 10.1764 52.4901 9.88023C52.3689 9.55042 52.1434 9.3098 51.8759 9.15835C51.8591 9.14826 51.8422 9.13984 51.8254 9.13143ZM49.3485 6.93887C49.3417 6.93383 49.3367 6.93046 49.33 6.92541V6.94224L49.3485 6.94056V6.93887ZM48.5761 6.37349C48.5795 6.39031 48.5812 6.40714 48.5845 6.42565C48.5896 6.47108 48.5929 6.51483 48.5913 6.56195C48.7191 6.53166 48.8538 6.52493 48.9917 6.54849C48.9413 6.48455 48.8723 6.43575 48.7764 6.40882C48.7091 6.39031 48.6417 6.37854 48.5761 6.37349ZM48.3506 6.3819C48.3035 6.38863 48.2581 6.39873 48.2127 6.41219C48.2564 6.49632 48.2884 6.58382 48.3103 6.66964C48.3271 6.65955 48.3439 6.65113 48.3624 6.64272C48.3691 6.57878 48.3708 6.51315 48.3624 6.45089C48.3591 6.42733 48.3557 6.40378 48.3506 6.38022V6.3819ZM48.0881 6.217C48.1403 6.19849 48.1958 6.18334 48.2514 6.17156C48.216 6.1295 48.1723 6.09752 48.1201 6.07565C48.0461 6.04536 47.9737 6.02853 47.903 6.0218C47.9737 6.08406 48.036 6.14801 48.0881 6.21531V6.217ZM47.6119 6.0807L47.5917 6.06724L47.585 6.06892L47.6119 6.0807ZM42.9037 4.18766L42.9088 4.19944C42.9492 4.30545 42.9744 4.42156 42.9845 4.53766C43.0501 4.60497 43.1073 4.68069 43.1545 4.75978C43.2622 4.66218 43.3867 4.57805 43.5213 4.51074C43.6172 4.46194 43.7199 4.42324 43.8259 4.39463C43.7299 4.26338 43.6054 4.1641 43.4439 4.11699C43.242 4.05978 43.0636 4.09679 42.9054 4.18766H42.9037ZM44.3189 5.17372H44.3206C44.5376 5.10137 44.7345 5.12492 44.9028 5.20906C44.9331 5.2242 44.9617 5.24103 44.9886 5.25954C44.822 5.03911 44.5881 4.8742 44.2634 4.8843C44.2869 4.98189 44.3037 5.07949 44.3189 5.17541V5.17372ZM43.9807 4.69584C43.9672 4.66218 43.9537 4.62853 43.9403 4.59656C43.8275 4.62348 43.7199 4.66218 43.6189 4.71266C43.4826 4.77997 43.3598 4.86747 43.2571 4.97012L43.2622 4.98358C43.2739 5.01218 43.284 5.04247 43.2941 5.07276C43.4708 4.90449 43.6963 4.76146 43.9807 4.69752V4.69584ZM42.4847 4.24656C42.5268 4.2028 42.5689 4.16074 42.616 4.12204C42.5807 4.07155 42.5369 4.02612 42.4864 3.9891C42.3686 3.89992 42.2037 3.84607 41.9833 3.84607C41.7612 3.84607 41.5694 3.88982 41.4045 3.95713C41.5121 4.04127 41.5929 4.14728 41.6518 4.26002C41.8134 4.20449 42.0153 4.17756 42.2744 4.20617C42.3165 4.21122 42.3569 4.21795 42.3972 4.22468C42.4275 4.23141 42.4561 4.23814 42.4847 4.24487V4.24656ZM44.1607 4.56122C44.1742 4.59487 44.1876 4.62853 44.1994 4.66386C44.2095 4.66386 44.2213 4.66218 44.2314 4.66218C44.8893 4.62853 45.241 5.1367 45.4227 5.59608L45.4295 5.59103C45.4783 5.55065 45.5304 5.51699 45.5843 5.49007C45.5102 5.26795 45.3689 5.04415 45.1199 4.84896C44.8439 4.63358 44.5242 4.54608 44.2179 4.55785C44.1994 4.55785 44.1792 4.55954 44.1607 4.56122ZM40.8996 4.00256C40.8912 4.00256 40.8845 4.00088 40.8761 4.00088L40.8845 4.01434L40.898 4.00256H40.8996ZM39.9456 3.92853C39.9573 3.94199 39.9691 3.95545 39.9792 3.96891C40.0078 4.00425 40.0331 4.04127 40.0566 4.08165C40.1492 3.9891 40.2602 3.9117 40.3898 3.85953C40.3124 3.83261 40.2282 3.82756 40.134 3.85449C40.0667 3.87468 40.0028 3.89992 39.9456 3.93021V3.92853ZM39.7571 4.05473C39.7201 4.08502 39.6864 4.11867 39.6561 4.15232C39.7386 4.20112 39.8109 4.25833 39.8749 4.32059C39.885 4.30377 39.8951 4.28694 39.9052 4.27011C39.8782 4.21122 39.8429 4.15569 39.8042 4.10689C39.7891 4.08838 39.7739 4.06987 39.7571 4.05304V4.05473ZM39.4458 4.05304C39.4811 4.00929 39.5198 3.96891 39.5619 3.92853C39.5097 3.9117 39.4559 3.90665 39.4004 3.91675C39.323 3.93021 39.2506 3.95377 39.1883 3.98574C39.2809 4.00088 39.3684 4.02444 39.4475 4.05304H39.4458ZM38.9696 4.18766H38.9443L38.941 4.19271L38.9696 4.18766ZM34.0006 4.67228L34.009 4.68069C34.0914 4.75978 34.1621 4.85233 34.221 4.95497C34.3085 4.98694 34.3926 5.03069 34.4701 5.08286C34.5256 4.94824 34.6013 4.81867 34.6938 4.70088C34.7612 4.61675 34.8369 4.53766 34.9193 4.46531C34.7763 4.3879 34.6215 4.35088 34.4549 4.37949C34.2479 4.41483 34.1015 4.52588 33.9989 4.67396L34.0006 4.67228ZM35.7018 4.95665L35.7035 4.95497C35.8684 4.7968 36.0568 4.73286 36.2453 4.73622C36.279 4.73622 36.3126 4.73959 36.3446 4.74463C36.0989 4.61675 35.8179 4.56795 35.5285 4.71603C35.5907 4.79343 35.6496 4.8742 35.7018 4.95497V4.95665ZM33.8912 4.87757L33.8878 4.88598H33.8996L33.8912 4.87588V4.87757ZM33.6489 4.90281C33.6674 4.8456 33.6893 4.78838 33.7128 4.73454C33.659 4.70425 33.6018 4.68237 33.5395 4.66891C33.3948 4.63862 33.2232 4.6605 33.0229 4.75473C32.8227 4.85064 32.6679 4.9718 32.5484 5.10305C32.6813 5.13334 32.7991 5.1956 32.9018 5.27132C33.0229 5.15185 33.1962 5.04079 33.4419 4.95665C33.4823 4.94319 33.521 4.93141 33.5614 4.92132C33.5917 4.91459 33.6203 4.90786 33.6489 4.90281ZM35.2979 4.47035C35.3249 4.49391 35.3501 4.51915 35.377 4.54608C35.3871 4.54103 35.3955 4.53598 35.4056 4.53093C35.9862 4.21795 36.5213 4.52757 36.883 4.86579L36.8864 4.85738C36.9133 4.80016 36.947 4.748 36.984 4.6992C36.8208 4.53093 36.597 4.3879 36.289 4.32059C35.9458 4.24487 35.621 4.30208 35.3484 4.44511C35.3316 4.45353 35.3148 4.46362 35.2979 4.47204V4.47035ZM31.2174 5.70546C31.2342 5.71219 31.2494 5.71892 31.2645 5.72733C31.3049 5.74752 31.3436 5.7694 31.3823 5.79464C31.426 5.6718 31.4934 5.55401 31.5876 5.45137C31.5068 5.45978 31.4277 5.49175 31.3537 5.55569C31.3015 5.60281 31.2544 5.65329 31.2157 5.70546H31.2174ZM31.1013 5.90065C31.0811 5.9444 31.0659 5.98815 31.0525 6.0319C31.1484 6.04031 31.2376 6.06051 31.3217 6.08911C31.3234 6.06892 31.3251 6.05041 31.3268 6.03022C31.2763 5.98815 31.2224 5.95281 31.1669 5.92589C31.145 5.91579 31.1232 5.9057 31.1013 5.89897V5.90065ZM30.8203 6.0319C30.8337 5.97805 30.8506 5.92421 30.8708 5.87036C30.8169 5.87709 30.7647 5.89728 30.7193 5.92925C30.6537 5.97469 30.5998 6.02685 30.5561 6.08238C30.647 6.05714 30.7345 6.04031 30.8186 6.0319H30.8203ZM26.3359 10.0704H26.3477C26.4621 10.0737 26.5765 10.0973 26.6892 10.1326C26.7767 10.099 26.8676 10.0754 26.9602 10.062C26.9114 9.92398 26.8828 9.77759 26.8727 9.62783C26.8659 9.52013 26.8693 9.41076 26.8844 9.30138C26.7263 9.3384 26.5849 9.41581 26.4806 9.54538C26.3493 9.7086 26.314 9.88865 26.3359 10.0687V10.0704ZM27.7948 9.14994V9.14826C27.8133 8.92109 27.9109 8.74778 28.0539 8.62494C28.0792 8.60306 28.1061 8.58287 28.1347 8.56436C27.8671 8.63167 27.6248 8.78311 27.507 9.08768C27.6046 9.10451 27.7022 9.1247 27.7965 9.14994H27.7948ZM27.2227 9.27446C27.1873 9.27278 27.1503 9.27278 27.115 9.27278C27.0948 9.3872 27.0897 9.50163 27.0965 9.61437C27.1066 9.76581 27.1385 9.9122 27.1924 10.0468H27.2058C27.2378 10.0468 27.2698 10.0485 27.3001 10.0519C27.2126 9.82302 27.1688 9.56052 27.221 9.27446H27.2227ZM26.3914 10.2975L26.3948 10.306L26.4049 10.2975L26.3914 10.2959V10.2975ZM26.2265 10.4776C26.2013 10.4221 26.1811 10.3665 26.1626 10.3093C26.102 10.3228 26.0448 10.3447 25.9892 10.3766C25.8614 10.4507 25.7469 10.5802 25.6611 10.7855C25.5753 10.9891 25.54 11.1826 25.5383 11.3627C25.6578 11.2971 25.7873 11.2634 25.9135 11.2516C25.9236 11.0817 25.9791 10.8848 26.107 10.6576C26.1272 10.6206 26.1491 10.5853 26.1727 10.5516C26.1895 10.5264 26.208 10.5028 26.2265 10.4793V10.4776ZM27.1688 9.05571C27.2058 9.05571 27.2412 9.05739 27.2782 9.05908C27.2816 9.04898 27.2849 9.03888 27.2883 9.02879C27.5138 8.40955 28.1195 8.28335 28.6126 8.29513L28.6092 8.28672C28.5924 8.22614 28.5806 8.16556 28.5772 8.1033C28.3433 8.08479 28.0825 8.12854 27.8066 8.28335C27.5003 8.45499 27.2967 8.71412 27.1873 9.00186C27.1806 9.02037 27.1739 9.0372 27.1688 9.05571ZM27.0544 10.2757C27.0409 10.2773 27.0292 10.279 27.0157 10.2807C27.0376 10.2925 27.0578 10.306 27.078 10.3194C27.0712 10.3093 27.0662 10.2992 27.0611 10.2891L27.0544 10.2773V10.2757ZM25.3852 11.8423C25.3818 11.849 25.3784 11.8557 25.3751 11.8625L25.3902 11.8591L25.3852 11.8423ZM24.946 12.6937C24.9628 12.6887 24.9796 12.6819 24.9965 12.6786C25.0402 12.6668 25.084 12.6567 25.1294 12.65C25.0806 12.5288 25.052 12.3959 25.0537 12.2562C24.9981 12.3168 24.9611 12.3925 24.9493 12.4901C24.9409 12.5608 24.9409 12.6281 24.946 12.6937ZM24.9897 12.9158C25.0032 12.9613 25.0217 13.005 25.0402 13.0471C25.1176 12.9899 25.1984 12.9444 25.2808 12.9108C25.2691 12.8956 25.2573 12.8805 25.2455 12.8637C25.1799 12.8653 25.1159 12.8754 25.057 12.8923C25.0335 12.899 25.0116 12.9057 24.9897 12.9158ZM24.8669 13.2019C24.84 13.1531 24.8181 13.1009 24.7979 13.0471C24.7626 13.0875 24.7373 13.1363 24.7239 13.1918C24.7053 13.2692 24.7003 13.3432 24.7037 13.4139C24.7541 13.3348 24.808 13.2641 24.8669 13.2019ZM24.8063 13.6932L24.7962 13.7151L24.7996 13.7202L24.8063 13.6915V13.6932ZM23.6318 18.5428L23.6419 18.536C23.7412 18.4805 23.8522 18.4418 23.9666 18.4166C24.0239 18.3425 24.0912 18.2769 24.1635 18.218C24.0525 18.1238 23.9515 18.0127 23.8674 17.8882C23.8068 17.799 23.7546 17.7031 23.7109 17.6021C23.5931 17.7149 23.5123 17.8529 23.4888 18.0178C23.4585 18.2247 23.5207 18.3981 23.6318 18.5411V18.5428ZM24.4176 17.0081V17.0065C24.3166 16.8012 24.3133 16.6026 24.3739 16.4243C24.384 16.3923 24.3974 16.362 24.4126 16.3317C24.2157 16.5269 24.0844 16.781 24.1383 17.1007C24.2308 17.0637 24.3251 17.0334 24.4193 17.0065L24.4176 17.0081ZM23.9885 17.4069C23.9565 17.4238 23.9263 17.4423 23.896 17.4608C23.938 17.5685 23.9902 17.6711 24.0541 17.7637C24.14 17.8899 24.2426 17.9993 24.3587 18.0868L24.3705 18.08C24.3974 18.0649 24.426 18.0497 24.4546 18.0363C24.2628 17.8848 24.0912 17.6795 23.9902 17.4069H23.9885ZM23.795 18.711L23.8017 18.7178L23.8068 18.706L23.795 18.711ZM23.7462 18.95C23.6974 18.9146 23.6503 18.8776 23.6049 18.8372C23.5594 18.8793 23.5207 18.9281 23.4904 18.9836C23.4181 19.1115 23.3861 19.2815 23.4164 19.5019C23.4467 19.7223 23.5157 19.9058 23.6049 20.0606C23.6739 19.9428 23.7681 19.8485 23.8724 19.7745C23.795 19.6231 23.7412 19.4245 23.7344 19.1654C23.7327 19.1233 23.7344 19.0812 23.7361 19.0408C23.7378 19.0106 23.7412 18.9803 23.7445 18.9517L23.7462 18.95ZM23.832 17.2471C23.864 17.2286 23.896 17.2118 23.9279 17.1949C23.9263 17.1848 23.9229 17.1731 23.9212 17.163C23.7984 16.5151 24.2561 16.0995 24.6868 15.8555L24.6801 15.8488C24.6347 15.805 24.5943 15.7579 24.559 15.7091C24.3486 15.8134 24.1467 15.9834 23.9868 16.256C23.8102 16.5589 23.7681 16.887 23.8202 17.1899C23.8236 17.2084 23.827 17.2269 23.832 17.2471ZM24.3553 18.356C24.3452 18.3644 24.3352 18.3711 24.3251 18.3795C24.3503 18.3795 24.3739 18.3795 24.3991 18.3795C24.389 18.3745 24.3789 18.3678 24.3688 18.3627L24.357 18.356H24.3553ZM23.7176 20.5553C23.7176 20.5637 23.7176 20.5704 23.7193 20.5788L23.7311 20.5687L23.7176 20.557V20.5553ZM23.7731 21.5111C23.7849 21.4976 23.7967 21.4841 23.8085 21.4723C23.8388 21.4404 23.8724 21.4084 23.9094 21.3798C23.8051 21.3007 23.7142 21.2014 23.6436 21.0786C23.6267 21.1577 23.6335 21.2435 23.6739 21.3327C23.7025 21.3966 23.7361 21.4555 23.7748 21.5094L23.7731 21.5111ZM23.9229 21.681C23.9582 21.713 23.9952 21.7416 24.0339 21.7685C24.071 21.681 24.1181 21.6002 24.1702 21.5296C24.1517 21.5228 24.1349 21.5144 24.1164 21.506C24.0626 21.5413 24.0121 21.5817 23.9683 21.6272C23.9515 21.644 23.9364 21.6625 23.9229 21.681ZM23.9633 21.9889C23.9162 21.9603 23.869 21.9267 23.8253 21.8913C23.8152 21.9452 23.8186 21.999 23.8354 22.0529C23.8589 22.1286 23.8926 22.1959 23.9313 22.2548C23.9347 22.1606 23.9448 22.0714 23.9633 21.9889ZM24.1618 22.4433L24.1652 22.4685L24.1702 22.4719L24.1618 22.4433ZM25.1025 27.5721L25.1092 27.562C25.1748 27.4695 25.2573 27.3854 25.3498 27.313C25.37 27.2204 25.4003 27.1329 25.4407 27.0488C25.2993 27.0135 25.1614 26.9563 25.0301 26.8805C24.9376 26.8267 24.8484 26.7628 24.7642 26.6904C24.7087 26.8435 24.6936 27.0017 24.744 27.1616C24.808 27.3601 24.9376 27.4897 25.0991 27.5721H25.1025ZM25.1428 25.8474L25.1412 25.8457C24.9611 25.7043 24.8703 25.5277 24.8484 25.3409C24.845 25.3072 24.8416 25.2752 24.8416 25.2416C24.7491 25.5024 24.7424 25.7885 24.9291 26.0543C24.9965 25.982 25.0688 25.913 25.1412 25.8474H25.1428ZM24.9308 26.3926C24.909 26.4212 24.8888 26.4515 24.8703 26.4817C24.9544 26.5608 25.0469 26.6298 25.1445 26.6854C25.2758 26.7611 25.4171 26.8149 25.5585 26.8435L25.5669 26.8317C25.5854 26.8065 25.6039 26.7796 25.6224 26.756C25.3835 26.7022 25.1412 26.5928 24.9308 26.3909V26.3926ZM25.3229 27.6512L25.333 27.6529L25.3313 27.6411L25.3229 27.6512ZM25.3818 27.8885C25.3229 27.8784 25.264 27.8649 25.2068 27.8481C25.1849 27.9053 25.1698 27.9659 25.1664 28.0298C25.158 28.1779 25.2034 28.3445 25.3246 28.5279C25.4474 28.713 25.5888 28.8493 25.7368 28.9486C25.7469 28.8123 25.7924 28.6861 25.8529 28.575C25.7166 28.4724 25.5837 28.3159 25.4642 28.0854C25.4441 28.0483 25.4272 28.0096 25.4121 27.9726C25.4003 27.944 25.3902 27.9154 25.3818 27.8885ZM24.7188 26.3168C24.739 26.2866 24.7609 26.2579 24.7828 26.2277C24.776 26.2192 24.7693 26.2108 24.7626 26.2024C24.3705 25.6724 24.601 25.0986 24.8837 24.693L24.8753 24.6897C24.8147 24.6712 24.7575 24.6459 24.7053 24.6156C24.5606 24.8007 24.4529 25.0414 24.4277 25.3577C24.4008 25.7077 24.5051 26.0207 24.6835 26.2697C24.6953 26.2849 24.707 26.3 24.7188 26.3152V26.3168ZM25.6712 27.0875C25.6645 27.0993 25.6594 27.1111 25.6527 27.1229C25.6746 27.1128 25.6965 27.101 25.72 27.0909C25.7082 27.0909 25.6965 27.0892 25.6847 27.0892L25.6712 27.0875ZM26.0532 29.344C26.0566 29.3507 26.0599 29.3575 26.065 29.3642L26.0717 29.3491L26.0549 29.344H26.0532ZM26.5193 30.1803C26.5243 30.1635 26.5277 30.1467 26.5344 30.1298C26.5479 30.0878 26.5647 30.044 26.5849 30.0036C26.457 29.9767 26.3308 29.9279 26.2147 29.8488C26.2349 29.9279 26.277 30.002 26.351 30.0642C26.4049 30.1096 26.4604 30.1483 26.5176 30.1803H26.5193ZM26.728 30.2678C26.7734 30.2813 26.8188 30.2914 26.8659 30.2981C26.8609 30.2022 26.8676 30.1096 26.8844 30.0221C26.8643 30.0238 26.8457 30.0238 26.8255 30.0255C26.7919 30.081 26.765 30.1399 26.7448 30.1988C26.738 30.2224 26.7313 30.2443 26.7263 30.2678H26.728ZM26.8979 30.527C26.8424 30.5219 26.7868 30.5118 26.7313 30.5C26.7465 30.5522 26.7717 30.601 26.8104 30.6414C26.8643 30.6986 26.9231 30.7457 26.9854 30.781C26.9467 30.6952 26.9181 30.6111 26.8979 30.527ZM27.2731 30.85L27.2866 30.8719H27.2933L27.2731 30.85ZM30.8994 34.451V34.4392C30.8977 34.3248 30.9128 34.2087 30.9431 34.096C30.9044 34.0101 30.8758 33.921 30.8573 33.8301C30.7227 33.8856 30.578 33.9226 30.4282 33.9395C30.3205 33.9512 30.2111 33.9546 30.1018 33.9462C30.1472 34.1027 30.2313 34.239 30.3676 34.3366C30.5376 34.4577 30.7193 34.4847 30.8977 34.4527L30.8994 34.451ZM29.9015 33.0443H29.8998C29.671 33.0392 29.4926 32.95 29.3631 32.8137C29.3395 32.7902 29.3193 32.7633 29.2991 32.7363C29.3816 33.0005 29.5448 33.2344 29.8544 33.3354C29.8645 33.2361 29.8813 33.1385 29.9015 33.0426V33.0443ZM31.1232 34.3837L31.1316 34.3803L31.1232 34.3719V34.3854V34.3837ZM31.3116 34.5385C31.2578 34.5654 31.2023 34.5907 31.1467 34.6109C31.1635 34.6698 31.1888 34.727 31.2224 34.7808C31.3032 34.9037 31.4395 35.0113 31.6482 35.0854C31.8568 35.1611 32.052 35.1847 32.2304 35.1763C32.158 35.0601 32.1176 34.9339 32.1008 34.8077C31.9309 34.8061 31.7306 34.7623 31.4967 34.6479C31.458 34.6294 31.4227 34.6092 31.3873 34.589C31.3604 34.5738 31.3369 34.557 31.3116 34.5402V34.5385ZM29.8426 33.6736C29.8409 33.6383 29.8409 33.6012 29.8409 33.5642C29.8308 33.5609 29.8208 33.5575 29.8107 33.5558C29.1796 33.364 29.0232 32.7666 29.0063 32.2719L28.9979 32.2753C28.939 32.2955 28.8784 32.3106 28.8179 32.3173C28.8128 32.5512 28.87 32.8104 29.0383 33.0779C29.2251 33.3758 29.496 33.5642 29.7888 33.6568C29.8073 33.6618 29.8258 33.6686 29.8443 33.6736H29.8426ZM31.0676 33.7224C31.0693 33.7359 31.071 33.7476 31.0744 33.7611C31.0861 33.7392 31.0979 33.7174 31.1097 33.6972C31.0996 33.7039 31.0912 33.7106 31.0811 33.7157L31.0693 33.7224H31.0676ZM32.7217 35.3041C32.7285 35.3075 32.7352 35.3109 32.7419 35.3142L32.7386 35.2991L32.7217 35.3058V35.3041ZM33.595 35.6962C33.5883 35.6794 33.5833 35.6642 33.5765 35.6474C33.5614 35.6053 33.5496 35.5616 33.5412 35.5162C33.4217 35.5717 33.2922 35.607 33.1525 35.6121C33.2148 35.6642 33.2938 35.6979 33.3914 35.7029C33.4621 35.708 33.5294 35.7046 33.595 35.6962ZM33.8155 35.6407C33.8609 35.6238 33.903 35.6053 33.9434 35.5835C33.8828 35.5094 33.8323 35.432 33.7936 35.3513C33.7785 35.363 33.7633 35.3765 33.7482 35.3883C33.7549 35.4539 33.7667 35.5162 33.7869 35.5751C33.7953 35.5969 33.8037 35.6205 33.8138 35.6407H33.8155ZM34.1066 35.7467C34.0595 35.7753 34.009 35.8022 33.9568 35.8241C34.0006 35.8577 34.0494 35.8796 34.1049 35.8897C34.1823 35.9032 34.258 35.9049 34.3287 35.8964C34.2463 35.851 34.1722 35.7988 34.1083 35.745L34.1066 35.7467ZM34.6013 35.782L34.6249 35.7904L34.6299 35.7871L34.6013 35.782Z" fill="url(#paint0_linear)"/>
<defs>
<linearGradient id="paint0_linear" x1="36.1528" y1="7.93671" x2="43.7468" y2="32.7363" gradientUnits="userSpaceOnUse">
<stop stop-color="#2B5757"/>
<stop offset="1" stop-color="#080E17"/>
</linearGradient>
</defs>
</svg>
