<svg width="85" height="212" viewBox="0 0 85 212" fill="none" xmlns="http://www.w3.org/2000/svg">
<path fill-rule="evenodd" clip-rule="evenodd" d="M31.6255 22.459H42.4911V26.9262H31.6255V22.459Z" fill="#75462D"/>
<path fill-rule="evenodd" clip-rule="evenodd" d="M31.928 23.2956C31.928 23.2956 32.5717 22.8128 33.2283 23.1733C33.8848 23.5402 34.7345 24.48 34.9791 24.377C35.2237 24.274 35.1851 24.0101 34.58 23.508C33.975 23.0059 33.2476 22.4974 32.591 22.742C31.9344 22.9866 31.619 23.4694 31.928 23.2956V23.2956Z" fill="#191716"/>
<path fill-rule="evenodd" clip-rule="evenodd" d="M37.6762 24.0679C37.6762 24.0679 38.2105 24.467 38.4808 24.1709C38.7512 23.8748 39.5365 23.0766 40.6179 22.8706C41.6993 22.6646 42.0727 23.0766 42.1885 23.2246C42.298 23.3727 42.4524 23.2504 42.2336 22.98C42.0147 22.7032 40.9848 22.2591 39.8712 22.6582C38.7576 23.0573 37.4123 23.6108 37.6826 24.0679H37.6762Z" fill="#191716"/>
<path fill-rule="evenodd" clip-rule="evenodd" d="M32.4301 24.8538C32.4301 24.8538 33.1446 24.371 33.9235 24.6414C34.7023 24.9117 34.9791 25.4782 34.9791 25.4782C34.9791 25.4782 34.1681 23.5664 32.4301 24.8538Z" fill="#241714"/>
<path fill-rule="evenodd" clip-rule="evenodd" d="M38.6096 25.2074C38.6096 25.2074 39.2147 24.4993 40.251 24.4864C41.2874 24.48 41.9568 24.937 41.9568 24.937C41.9568 24.937 41.3389 24.2161 40.0708 24.3319C38.8027 24.4414 38.616 25.0786 38.6031 25.2074H38.6096Z" fill="#241714"/>
<path fill-rule="evenodd" clip-rule="evenodd" d="M32.3528 25.5294C32.3528 25.5294 32.591 25.9928 32.9965 26.1859C33.4085 26.379 33.8398 26.3082 34.1874 26.2889C34.5414 26.2696 34.8053 26.3404 34.8053 26.3404C34.8053 26.3404 34.8954 26.4112 34.9598 26.2954C35.0242 26.1859 34.844 26.1023 34.844 26.1023C34.844 26.1023 34.6702 25.3749 33.6982 25.214C32.7262 25.053 32.4687 25.4779 32.3464 25.5229L32.3528 25.5294Z" fill="white"/>
<path fill-rule="evenodd" clip-rule="evenodd" d="M38.6353 26.1991C38.6353 26.1991 38.5195 26.3729 38.41 26.2506C38.3006 26.1283 38.5195 25.9159 38.5195 25.9159C38.5195 25.9159 39.131 25.1757 40 25.0855C40.869 24.9954 41.5899 25.4718 41.7058 25.4975C41.8152 25.5233 41.8474 25.5233 41.8216 25.5233C41.7959 25.5233 41.1908 26.2506 40.3025 26.3601C39.4142 26.4695 38.9379 26.1026 38.6418 26.1991H38.6353Z" fill="white"/>
<path fill-rule="evenodd" clip-rule="evenodd" d="M35.2816 24.7832C35.2816 24.7832 35.6614 25.2016 35.7 26.1478C35.7129 26.4053 35.6936 26.6757 35.6614 26.9332H35.7515C35.9253 26.0513 35.9704 24.9892 35.2752 24.7832H35.2816Z" fill="#241714"/>
<path fill-rule="evenodd" clip-rule="evenodd" d="M32.3528 25.5298C32.3528 25.5298 32.591 25.9933 32.9965 26.1864C33.4085 26.3795 33.8398 26.3087 34.1874 26.2894C34.5414 26.2701 34.8053 26.3409 34.8053 26.3409C34.8053 26.3409 34.8246 26.3602 34.8568 26.3602C34.6702 26.1027 33.6982 26.3473 33.151 26.1413C32.7391 25.9869 32.5009 25.6521 32.4043 25.4912C32.3786 25.5105 32.3593 25.5234 32.3464 25.5298H32.3528Z" fill="#D4926F"/>
<path fill-rule="evenodd" clip-rule="evenodd" d="M38.6353 26.1989C38.6353 26.1989 38.5645 26.3083 38.4808 26.2954C38.6997 25.7998 39.6202 26.3791 40.3926 26.2053C41.017 26.0637 41.4933 25.6517 41.6607 25.4844C41.68 25.4908 41.6929 25.4972 41.7058 25.4972C41.8152 25.523 41.8474 25.523 41.8216 25.523C41.7959 25.523 41.1908 26.2504 40.3025 26.3598C39.4142 26.4692 38.9379 26.1023 38.6418 26.1989H38.6353Z" fill="#D4926F"/>
<path fill-rule="evenodd" clip-rule="evenodd" d="M38.468 25.967C38.4937 25.9348 38.5195 25.9091 38.5195 25.9091C38.5195 25.9091 39.131 25.1688 40 25.0787C40.8689 24.9886 41.5899 25.4649 41.7058 25.4907C41.8152 25.5164 41.8474 25.5164 41.8216 25.5164C41.8152 25.5164 41.7444 25.5872 41.6285 25.6967C40.0643 25.098 38.9057 25.6838 38.4744 25.967H38.468Z" fill="#ADA89F"/>
<path fill-rule="evenodd" clip-rule="evenodd" d="M32.3721 25.5294C32.3721 25.5294 32.4043 25.5937 32.4687 25.6903C32.8871 25.5422 34.1101 25.2333 34.9727 26.3147C34.9791 26.3082 34.9791 26.3018 34.9855 26.2954C35.0499 26.1859 34.8697 26.1023 34.8697 26.1023C34.8697 26.1023 34.6959 25.3749 33.7239 25.214C32.7519 25.053 32.4944 25.4779 32.3721 25.5229V25.5294Z" fill="#ADA89F"/>
<path fill-rule="evenodd" clip-rule="evenodd" d="M34.5478 25.6195C34.3869 25.4521 34.1359 25.2912 33.7625 25.2268C33.5887 25.1946 33.4407 25.1882 33.3184 25.1946C33.254 25.2976 33.2154 25.4135 33.2154 25.5487C33.2154 25.9091 33.5179 26.1988 33.8848 26.1988C34.226 26.1988 34.5092 25.9478 34.5478 25.6259V25.6195Z" fill="#1C1412"/>
<path fill-rule="evenodd" clip-rule="evenodd" d="M39.5751 25.1823C39.7103 25.1372 39.8519 25.0986 40 25.0858C40.2446 25.06 40.4699 25.0793 40.6823 25.1244C40.766 25.2338 40.8175 25.3754 40.8175 25.5235C40.8175 25.8904 40.5214 26.1929 40.148 26.1929C39.7811 26.1929 39.4786 25.8968 39.4786 25.5235C39.4786 25.4012 39.5108 25.2853 39.5751 25.1823Z" fill="#1C1412"/>
<path fill-rule="evenodd" clip-rule="evenodd" d="M40.148 25.2402C40.3025 25.2402 40.4248 25.3625 40.4248 25.517C40.4248 25.6715 40.3025 25.7938 40.148 25.7938C39.9935 25.7938 39.8712 25.6715 39.8712 25.517C39.8712 25.3625 39.9935 25.2402 40.148 25.2402Z" fill="black"/>
<path fill-rule="evenodd" clip-rule="evenodd" d="M33.8655 25.2656C34.0136 25.2656 34.1359 25.3879 34.1359 25.5424C34.1359 25.6969 34.0136 25.8192 33.8655 25.8192C33.7175 25.8192 33.5952 25.6969 33.5952 25.5424C33.5952 25.3879 33.7175 25.2656 33.8655 25.2656Z" fill="black"/>
<path fill-rule="evenodd" clip-rule="evenodd" d="M31.9602 25.3367C31.9602 25.3367 32.1018 25.4719 32.2112 25.5169C32.3206 25.562 32.3721 25.5555 32.3721 25.5555C32.3721 25.5555 32.8356 25.1371 33.6917 25.2916C34.5478 25.4461 34.8568 26.1027 34.8568 26.1027C34.8568 26.1027 34.683 25.1436 33.711 24.9376C32.739 24.7316 32.2048 25.3689 31.9666 25.3302L31.9602 25.3367Z" fill="#191716"/>
<path fill-rule="evenodd" clip-rule="evenodd" d="M38.4036 26.0635C38.4036 26.0635 38.6611 25.6515 39.3434 25.3876C40.0193 25.1237 40.5149 25.1365 41.0363 25.3103C41.5577 25.4906 41.7637 25.6064 41.9826 25.4906C42.2014 25.3747 42.2143 25.2266 42.2143 25.2266C42.2143 25.2266 42.1049 25.3103 41.9697 25.2524C41.8281 25.1945 39.2597 23.9714 38.41 26.0635H38.4036Z" fill="#191716"/>
<path fill-rule="evenodd" clip-rule="evenodd" d="M33.4729 25.4395C33.5823 25.4395 33.666 25.5231 33.666 25.6326C33.666 25.742 33.5823 25.8257 33.4729 25.8257C33.3634 25.8257 33.2798 25.742 33.2798 25.6326C33.2798 25.5231 33.3634 25.4395 33.4729 25.4395Z" fill="white"/>
<path fill-rule="evenodd" clip-rule="evenodd" d="M39.5494 25.4395C39.6588 25.4395 39.7425 25.5231 39.7425 25.6326C39.7425 25.742 39.6588 25.8257 39.5494 25.8257C39.4399 25.8257 39.3563 25.742 39.3563 25.6326C39.3563 25.5231 39.4399 25.4395 39.5494 25.4395Z" fill="white"/>
</svg>
