<svg width="85" height="212" viewBox="0 0 85 212" fill="none" xmlns="http://www.w3.org/2000/svg">
<path fill-rule="evenodd" clip-rule="evenodd" d="M32.3615 22.46H43.2301V26.929H32.3615V22.46Z" fill="#75462D"/>
<path fill-rule="evenodd" clip-rule="evenodd" d="M32.6058 23.3005C32.6058 23.3005 33.1957 22.8179 33.7916 23.1813C34.3875 23.5448 35.1621 24.4863 35.3885 24.385C35.6149 24.2837 35.5732 24.0215 35.025 23.515C34.4768 23.0085 33.8095 22.508 33.2136 22.7523C32.6177 22.9966 32.3258 23.4793 32.6058 23.3005Z" fill="#191716"/>
<path fill-rule="evenodd" clip-rule="evenodd" d="M38.0639 24.0749C38.0639 24.0749 38.5943 24.4741 38.8684 24.1762C39.1365 23.8782 39.9231 23.0857 41.0075 22.8772C42.092 22.6746 42.4614 23.0798 42.5747 23.2287C42.6879 23.3777 42.8368 23.2585 42.6164 22.9844C42.3959 22.7103 41.365 22.2634 40.2567 22.6627C39.1484 23.0619 37.7958 23.616 38.0699 24.0689L38.0639 24.0749Z" fill="#191716"/>
<path fill-rule="evenodd" clip-rule="evenodd" d="M33.0646 24.8554C33.0646 24.8554 33.7201 24.3727 34.4292 24.6409C35.1383 24.909 35.3885 25.4811 35.3885 25.4811C35.3885 25.4811 34.6496 23.5683 33.0646 24.8554Z" fill="#241714"/>
<path fill-rule="evenodd" clip-rule="evenodd" d="M38.9995 25.2133C38.9995 25.2133 39.6073 24.5042 40.6441 24.4923C41.6809 24.4804 42.3542 24.9392 42.3542 24.9392C42.3542 24.9392 41.7405 24.2182 40.4713 24.3314C39.2021 24.4446 39.0173 25.0762 39.0054 25.2073L38.9995 25.2133Z" fill="#241714"/>
<path fill-rule="evenodd" clip-rule="evenodd" d="M32.9931 25.5346C32.9931 25.5346 33.2076 25.9994 33.583 26.1901C33.9584 26.3867 34.3458 26.3093 34.6675 26.2914C34.9893 26.2735 35.2336 26.345 35.2336 26.345C35.2336 26.345 35.3111 26.4165 35.3706 26.3033C35.4302 26.1901 35.2693 26.1126 35.2693 26.1126C35.2693 26.1126 35.1085 25.3857 34.2266 25.2248C33.3387 25.0639 33.1063 25.487 32.9931 25.5346V25.5346Z" fill="white"/>
<path fill-rule="evenodd" clip-rule="evenodd" d="M39.0233 26.1956C39.0233 26.1956 38.9101 26.3684 38.7969 26.2493C38.6837 26.1241 38.9101 25.9156 38.9101 25.9156C38.9101 25.9156 39.5238 25.1767 40.3878 25.0873C41.2578 24.9979 41.9788 25.4746 42.092 25.4985C42.2052 25.5223 42.235 25.5223 42.2112 25.5223C42.1814 25.5223 41.5796 26.2493 40.6917 26.3565C39.7979 26.4638 39.3272 26.1003 39.0293 26.1956H39.0233Z" fill="white"/>
<path fill-rule="evenodd" clip-rule="evenodd" d="M35.6686 24.7842C35.6686 24.7842 36.0499 25.2013 36.0857 26.1487C36.0976 26.4109 36.0797 26.679 36.0499 26.9353H36.1393C36.3121 26.0534 36.3598 24.9927 35.6626 24.7842H35.6686Z" fill="#241714"/>
<path fill-rule="evenodd" clip-rule="evenodd" d="M32.9931 25.5348C32.9931 25.5348 33.2076 25.9996 33.583 26.1902C33.9584 26.3869 34.3458 26.3094 34.6675 26.2915C34.9893 26.2736 35.2336 26.3452 35.2336 26.3452C35.2336 26.3452 35.2515 26.363 35.2813 26.369C35.1085 26.1128 34.2266 26.3571 33.732 26.1485C33.3566 25.9936 33.1421 25.6599 33.0527 25.499C33.0289 25.5169 33.011 25.5288 32.9991 25.5348H32.9931Z" fill="#D4926F"/>
<path fill-rule="evenodd" clip-rule="evenodd" d="M39.0233 26.1965C39.0233 26.1965 38.9518 26.3037 38.8684 26.2918C39.0888 25.7973 40.0065 26.3752 40.7811 26.2024C41.4068 26.0654 41.8775 25.6483 42.0503 25.4814C42.0682 25.4874 42.0861 25.4934 42.092 25.4993C42.2052 25.5232 42.235 25.5232 42.2112 25.5232C42.1814 25.5232 41.5796 26.2501 40.6917 26.3574C39.7979 26.4646 39.3272 26.1011 39.0293 26.1965H39.0233Z" fill="#D4926F"/>
<path fill-rule="evenodd" clip-rule="evenodd" d="M38.8565 25.9692C38.8863 25.9335 38.9101 25.9156 38.9101 25.9156C38.9101 25.9156 39.5238 25.1767 40.3878 25.0873C41.2578 24.9979 41.9788 25.4746 42.092 25.4985C42.2052 25.5223 42.235 25.5223 42.2112 25.5223C42.2052 25.5223 42.1337 25.5938 42.0205 25.7011C40.4593 25.0992 39.2974 25.6891 38.8624 25.9692H38.8565Z" fill="#ADA89F"/>
<path fill-rule="evenodd" clip-rule="evenodd" d="M32.9931 25.5346C32.9931 25.5346 33.0229 25.6002 33.0825 25.6955C33.4639 25.5466 34.5781 25.2427 35.3647 26.3212C35.3706 26.3152 35.3706 26.3093 35.3766 26.3033C35.4362 26.1901 35.2753 26.1126 35.2753 26.1126C35.2753 26.1126 35.1144 25.3857 34.2325 25.2248C33.3447 25.0639 33.1123 25.487 32.9991 25.5346H32.9931Z" fill="#ADA89F"/>
<path fill-rule="evenodd" clip-rule="evenodd" d="M34.9893 25.618C34.8284 25.4512 34.59 25.2903 34.2266 25.2247C34.0597 25.1949 33.9167 25.183 33.7916 25.189C33.726 25.2903 33.6903 25.4095 33.6903 25.5406C33.6903 25.904 33.9823 26.196 34.3457 26.196C34.6794 26.196 34.9535 25.9457 34.9952 25.618H34.9893Z" fill="#367EA8"/>
<path fill-rule="evenodd" clip-rule="evenodd" d="M39.9648 25.1832C40.0959 25.1355 40.2389 25.0997 40.3878 25.0878C40.6321 25.064 40.8586 25.0819 41.0671 25.1236C41.1505 25.2368 41.2042 25.3738 41.2042 25.5228C41.2042 25.8922 40.9062 26.1902 40.5368 26.1902C40.1674 26.1902 39.8694 25.8922 39.8694 25.5228C39.8694 25.3977 39.9052 25.2845 39.9648 25.1832V25.1832Z" fill="#367EA8"/>
<path fill-rule="evenodd" clip-rule="evenodd" d="M40.5368 25.2422C40.6917 25.2422 40.8169 25.3673 40.8169 25.5222C40.8169 25.6772 40.6917 25.8023 40.5368 25.8023C40.3819 25.8023 40.2567 25.6772 40.2567 25.5222C40.2567 25.3673 40.3819 25.2422 40.5368 25.2422Z" fill="#191716"/>
<path fill-rule="evenodd" clip-rule="evenodd" d="M34.3398 25.2666C34.4888 25.2666 34.6139 25.3917 34.6139 25.5407C34.6139 25.6897 34.4888 25.8148 34.3398 25.8148C34.1908 25.8148 34.0657 25.6897 34.0657 25.5407C34.0657 25.3917 34.1908 25.2666 34.3398 25.2666Z" fill="#191716"/>
<path fill-rule="evenodd" clip-rule="evenodd" d="M32.6356 25.3383C32.6356 25.3383 32.7667 25.4754 32.862 25.523C32.9574 25.5707 33.0051 25.5647 33.0051 25.5647C33.0051 25.5647 33.4281 25.1476 34.2027 25.3025C34.9774 25.4515 35.2634 26.1129 35.2634 26.1129C35.2634 26.1129 35.1025 25.1536 34.2206 24.945C33.3328 24.7365 32.8501 25.38 32.6297 25.3383H32.6356Z" fill="#191716"/>
<path fill-rule="evenodd" clip-rule="evenodd" d="M38.7909 26.0713C38.7909 26.0713 39.0531 25.6602 39.7264 25.398C40.4057 25.1358 40.9003 25.1477 41.4187 25.3205C41.9431 25.4993 42.1456 25.6185 42.3661 25.5052C42.5866 25.3861 42.5926 25.2371 42.5926 25.2371C42.5926 25.2371 42.4853 25.3205 42.3423 25.2609C42.2052 25.2014 39.6311 23.9798 38.785 26.0713H38.7909Z" fill="#191716"/>
<path fill-rule="evenodd" clip-rule="evenodd" d="M33.8631 25.4453C33.9704 25.4453 34.0538 25.5287 34.0538 25.636C34.0538 25.7432 33.9644 25.8267 33.8631 25.8267C33.7558 25.8267 33.6724 25.7373 33.6724 25.636C33.6724 25.5287 33.7558 25.4453 33.8631 25.4453Z" fill="white"/>
<path fill-rule="evenodd" clip-rule="evenodd" d="M39.9409 25.4453C40.0482 25.4453 40.1316 25.5287 40.1316 25.636C40.1316 25.7432 40.0482 25.8267 39.9409 25.8267C39.8337 25.8267 39.7503 25.7373 39.7503 25.636C39.7503 25.5287 39.8396 25.4453 39.9409 25.4453Z" fill="white"/>
</svg>
