<svg width="85" height="212" viewBox="0 0 85 212" fill="none" xmlns="http://www.w3.org/2000/svg">
<path fill-rule="evenodd" clip-rule="evenodd" d="M31.8439 22.4102H42.7083V26.8848H31.8439V22.4102Z" fill="#75462D"/>
<path fill-rule="evenodd" clip-rule="evenodd" d="M32.0298 23.2531C32.0298 23.2531 32.6186 22.7697 33.2136 23.1292C33.8086 23.4948 34.5833 24.4369 34.8064 24.3315C35.0295 24.2261 34.9923 23.9659 34.4407 23.4638C33.8891 22.9618 33.226 22.4536 32.631 22.7015C32.036 22.9432 31.7447 23.4267 32.0236 23.2531H32.0298Z" fill="#191716"/>
<path fill-rule="evenodd" clip-rule="evenodd" d="M37.4899 24.0278C37.4899 24.0278 38.0229 24.4306 38.2894 24.1331C38.5621 23.8357 39.343 23.0424 40.4276 22.8378C41.5122 22.6333 41.884 23.0424 41.9956 23.1911C42.1071 23.3398 42.2559 23.2221 42.039 22.9432C41.822 22.6705 40.787 22.2181 39.6777 22.6209C38.5683 23.0238 37.2172 23.5754 37.4899 24.0278V24.0278Z" fill="#191716"/>
<path fill-rule="evenodd" clip-rule="evenodd" d="M32.4885 24.8084C32.4885 24.8084 33.1392 24.3249 33.8519 24.5914C34.5585 24.8641 34.8126 25.4343 34.8126 25.4343C34.8126 25.4343 34.0751 23.5193 32.4885 24.8084Z" fill="#241714"/>
<path fill-rule="evenodd" clip-rule="evenodd" d="M38.4196 25.1623C38.4196 25.1623 39.0269 24.4558 40.0619 24.4434C41.0969 24.431 41.7725 24.8896 41.7725 24.8896C41.7725 24.8896 41.1589 24.1707 39.8884 24.2823C38.6179 24.3938 38.4319 25.026 38.4258 25.1623H38.4196Z" fill="#241714"/>
<path fill-rule="evenodd" clip-rule="evenodd" d="M32.4141 25.4841C32.4141 25.4841 32.631 25.9489 33.0029 26.141C33.3747 26.3394 33.7652 26.265 34.0874 26.2464C34.4097 26.2278 34.6514 26.296 34.6514 26.296C34.6514 26.296 34.732 26.3642 34.794 26.2526C34.856 26.141 34.6886 26.0605 34.6886 26.0605C34.6886 26.0605 34.5275 25.3353 33.6412 25.1742C32.755 25.0131 32.5195 25.4345 32.4079 25.4841H32.4141Z" fill="white"/>
<path fill-rule="evenodd" clip-rule="evenodd" d="M38.4444 26.1534C38.4444 26.1534 38.3328 26.327 38.215 26.203C38.1035 26.0791 38.3266 25.8684 38.3266 25.8684C38.3266 25.8684 38.9402 25.1246 39.8078 25.0379C40.6755 24.9511 41.4006 25.4283 41.5122 25.4531C41.6237 25.4779 41.6547 25.4779 41.6299 25.4779C41.5989 25.4779 40.9978 26.203 40.1115 26.3146C39.2191 26.4199 38.748 26.0543 38.4506 26.1534H38.4444Z" fill="white"/>
<path fill-rule="evenodd" clip-rule="evenodd" d="M35.0915 24.7344C35.0915 24.7344 35.4757 25.1558 35.5129 26.0978C35.5253 26.3581 35.5067 26.6308 35.4757 26.8849H35.5687C35.7422 26.0049 35.7856 24.9389 35.0915 24.7344V24.7344Z" fill="#241714"/>
<path fill-rule="evenodd" clip-rule="evenodd" d="M32.4141 25.4841C32.4141 25.4841 32.4451 25.5523 32.5071 25.6452C32.8913 25.4965 34.0007 25.1928 34.7878 26.2712C34.794 26.265 34.794 26.2588 34.8002 26.2526C34.8622 26.141 34.6948 26.0605 34.6948 26.0605C34.6948 26.0605 34.5337 25.3353 33.6474 25.1742C32.7612 25.0131 32.5257 25.4345 32.4141 25.4841V25.4841Z" fill="#ADA89F"/>
<path fill-rule="evenodd" clip-rule="evenodd" d="M32.4141 25.4838C32.4141 25.4838 32.631 25.9486 33.0029 26.1408C33.3747 26.3391 33.7652 26.2647 34.0874 26.2461C34.4097 26.2275 34.6514 26.2957 34.6514 26.2957C34.6514 26.2957 34.67 26.3143 34.6948 26.3143C34.5213 26.054 33.6412 26.3019 33.1454 26.0912C32.7736 25.9362 32.5504 25.6016 32.4637 25.4404C32.4389 25.459 32.4265 25.4714 32.4079 25.4776L32.4141 25.4838Z" fill="#D4926F"/>
<path fill-rule="evenodd" clip-rule="evenodd" d="M38.277 25.9241C38.308 25.8931 38.3266 25.8684 38.3266 25.8684C38.3266 25.8684 38.9402 25.1246 39.8078 25.0379C40.6755 24.9511 41.4006 25.4283 41.5122 25.4531C41.6237 25.4779 41.6547 25.4779 41.6299 25.4779C41.6237 25.4779 41.5555 25.5523 41.4378 25.6576C39.876 25.0565 38.7108 25.6452 38.2832 25.9303L38.277 25.9241Z" fill="#ADA89F"/>
<path fill-rule="evenodd" clip-rule="evenodd" d="M38.4444 26.1535C38.4444 26.1535 38.37 26.265 38.2894 26.2465C38.5063 25.7506 39.4298 26.3332 40.1983 26.1597C40.8243 26.0233 41.2953 25.6081 41.4688 25.4346C41.4874 25.4408 41.4998 25.447 41.5122 25.4532C41.6237 25.478 41.6547 25.478 41.6299 25.478C41.599 25.478 40.9978 26.2031 40.1115 26.3146C39.2191 26.42 38.7481 26.0543 38.4506 26.1535H38.4444Z" fill="#D4926F"/>
<path fill-rule="evenodd" clip-rule="evenodd" d="M34.4097 25.5705C34.2548 25.4032 34.0131 25.2421 33.6474 25.1739C33.4801 25.1429 33.3375 25.1367 33.2136 25.1367C33.1516 25.2359 33.1082 25.3598 33.1082 25.49C33.1082 25.8494 33.3995 26.1407 33.759 26.1407C34.0936 26.1407 34.3663 25.8866 34.4097 25.5644V25.5705Z" fill="#1C1412"/>
<path fill-rule="evenodd" clip-rule="evenodd" d="M39.3864 25.1366C39.5165 25.0871 39.6591 25.0561 39.8078 25.0375C40.0495 25.0127 40.2789 25.0313 40.4896 25.0747C40.5763 25.1862 40.6259 25.3226 40.6259 25.4775C40.6259 25.8432 40.3284 26.1468 39.9566 26.1468C39.5909 26.1468 39.2872 25.8494 39.2872 25.4775C39.2872 25.3535 39.3244 25.2358 39.3802 25.1366H39.3864Z" fill="#1C1412"/>
<path fill-rule="evenodd" clip-rule="evenodd" d="M39.9566 25.1992C40.1115 25.1992 40.2355 25.3232 40.2355 25.4781C40.2355 25.6331 40.1115 25.757 39.9566 25.757C39.8016 25.757 39.6777 25.6331 39.6777 25.4781C39.6777 25.3232 39.8016 25.1992 39.9566 25.1992Z" fill="black"/>
<path fill-rule="evenodd" clip-rule="evenodd" d="M33.7652 25.2236C33.9139 25.2236 34.0379 25.3476 34.0379 25.4963C34.0379 25.6451 33.9139 25.769 33.7652 25.769C33.6164 25.769 33.4925 25.6451 33.4925 25.4963C33.4925 25.3476 33.6164 25.2236 33.7652 25.2236Z" fill="black"/>
<path fill-rule="evenodd" clip-rule="evenodd" d="M32.0546 25.2916C32.0546 25.2916 32.1848 25.428 32.2839 25.4714C32.3831 25.521 32.4265 25.5148 32.4265 25.5148C32.4265 25.5148 32.8479 25.0995 33.6288 25.2483C34.4035 25.397 34.6886 26.0602 34.6886 26.0602C34.6886 26.0602 34.5275 25.0995 33.6412 24.895C32.755 24.6905 32.2715 25.3288 32.0484 25.2916H32.0546Z" fill="#191716"/>
<path fill-rule="evenodd" clip-rule="evenodd" d="M38.2151 26.0233C38.2151 26.0233 38.4754 25.6081 39.1509 25.3478C39.8264 25.0875 40.3222 25.0937 40.8428 25.2734C41.3634 25.4532 41.568 25.5709 41.7911 25.4532C42.008 25.3354 42.0204 25.1867 42.0204 25.1867C42.0204 25.1867 41.915 25.2734 41.7725 25.2115C41.6299 25.1495 39.0641 23.9286 38.2151 26.0233V26.0233Z" fill="#191716"/>
<path fill-rule="evenodd" clip-rule="evenodd" d="M33.2818 25.3975C33.3871 25.3975 33.4739 25.4842 33.4739 25.5896C33.4739 25.6949 33.3871 25.7817 33.2818 25.7817C33.1764 25.7817 33.0896 25.6949 33.0896 25.5896C33.0896 25.4842 33.1764 25.3975 33.2818 25.3975Z" fill="white"/>
<path fill-rule="evenodd" clip-rule="evenodd" d="M39.3616 25.3975C39.467 25.3975 39.5537 25.4842 39.5537 25.5896C39.5537 25.6949 39.467 25.7817 39.3616 25.7817C39.2563 25.7817 39.1695 25.6949 39.1695 25.5896C39.1695 25.4842 39.2563 25.3975 39.3616 25.3975Z" fill="white"/>
</svg>
