<?xml version="1.0" encoding="UTF-8"?>
<!DOCTYPE svg PUBLIC "-//W3C//DTD SVG 1.1//EN" "http://www.w3.org/Graphics/SVG/1.1/DTD/svg11.dtd">
<!-- Creator: CorelDRAW 2020 (64-Bit) -->
<svg xmlns="http://www.w3.org/2000/svg" xml:space="preserve" width="84.6667mm" height="211.667mm" version="1.1" style="shape-rendering:geometricPrecision; text-rendering:geometricPrecision; image-rendering:optimizeQuality; fill-rule:evenodd; clip-rule:evenodd"
viewBox="0 0 759.16 1897.9"
 xmlns:xlink="http://www.w3.org/1999/xlink"
 xmlns:xodm="http://www.corel.com/coreldraw/odm/2003">
 <defs>
  <style type="text/css">
   <![CDATA[
    .fil0 {fill:none}
    .fil13 {fill:#182234}
    .fil4 {fill:#192233}
    .fil3 {fill:#23314B}
    .fil22 {fill:#402F24}
    .fil16 {fill:#413024}
    .fil1 {fill:#424852}
    .fil2 {fill:#58606D}
    .fil21 {fill:#625D54}
    .fil24 {fill:#8F7756}
    .fil17 {fill:#A38965}
    .fil20 {fill:#ADA89F}
    .fil18 {fill:#C2A67E}
    .fil15 {fill:#D2B58D}
    .fil14 {fill:#EAD6BA}
    .fil23 {fill:#EDE4D3}
    .fil19 {fill:white}
    .fil12 {fill:#182234;fill-rule:nonzero}
    .fil9 {fill:#192233;fill-rule:nonzero}
    .fil10 {fill:#23314B;fill-rule:nonzero}
    .fil11 {fill:#35496E;fill-rule:nonzero}
    .fil7 {fill:#C4C2CC;fill-rule:nonzero}
    .fil6 {fill:#D2B58D;fill-rule:nonzero}
    .fil5 {fill:#EAD6BA;fill-rule:nonzero}
    .fil8 {fill:#F2F1F6;fill-rule:nonzero}
   ]]>
  </style>
 </defs>
 <g id="Слой_x0020_1">
  <metadata id="CorelCorpID_0Corel-Layer"/>
  <rect class="fil0" x="-0" y="-0" width="759.16" height="1897.91"/>
  <g id="_1218069875648">
   <path class="fil1" d="M330.51 1722.75c0,0 2.59,7.64 3.98,19.78 1.39,12.14 1.28,17.68 1.28,17.68 0,0 -6.09,9.01 -19.15,14.09 -13.06,5.08 -20.19,5.11 -20.19,5.11l-13 -2.31c0,0 -5.15,4.78 -15.04,19.35 -9.89,14.57 -23.89,24.14 -44.14,26.88 -20.26,2.74 -57.25,1.86 -66.07,-2.05 -8.82,-3.92 -16.76,-13.91 -16.84,-17.08 -0.09,-3.17 -3.2,-10.81 8.13,-21.16 11.33,-10.35 67.29,-39.67 79.13,-60.32 11.84,-20.65 94.2,-21.58 101.92,0.03z"/>
   <path class="fil2" d="M326.56 1751.55c0,0 -16.83,7.21 -28.79,14.13 -11.96,6.92 -16.49,9.98 -24.45,18.21 -7.96,8.22 -17.27,24.9 -35.71,30.93 -18.45,6.03 -66.2,7.45 -75.29,3.54 -9.09,-3.92 -16.21,-13.25 -16.21,-13.25 0,0 12.22,12.09 27.28,12.41 15.06,0.32 50.77,-2.09 61.76,-5.58 10.99,-3.49 22.41,-10.94 35.55,-32.12 13.14,-21.18 47.83,-27.16 55.86,-28.26zm-120.13 48.11c0,0 -16.21,1 -34.71,-4.45 -18.5,-5.46 -15.56,-13.52 -15.56,-13.52 0,0 -11.11,13.65 9.27,20.02 20.38,6.37 41,-2.05 41,-2.05zm34.84 -62.48c0,0 -3.86,3.71 -1.38,7.4 2.48,3.68 8.93,26.89 8.93,26.89 0,0 -8.95,-18.04 -12.28,-23.83 -3.33,-5.79 -3.81,-8.83 -3.2,-10.81 0.61,-1.98 0.97,-3.04 0.97,-3.04 0,0 4.09,-0.57 6.96,3.4z"/>
  </g>
  <g id="_1218069876320">
   <path class="fil1" d="M545.18 1713.3c0,0 20.12,40.42 22.41,47.46 2.28,7.04 2.97,31.3 2.97,31.3 0,0 1.83,33.19 -34.02,35.35 -35.86,2.16 -50.89,-18.65 -51.95,-36.04 -1.06,-17.38 -3.03,-41.07 -8.49,-52.48 -5.46,-11.41 -5.46,-11.41 -5.46,-11.41 0,0 -3.94,-21.23 0.33,-29.32 4.27,-8.08 65.59,8.06 74.22,15.12z"/>
   <path class="fil2" d="M562.01 1791.08c0,0 -2.31,21.47 -27.63,23.49 -25.32,2.02 -37.19,-16.54 -38.72,-23.87 -1.53,-7.33 3.8,13.32 27.62,14.52 23.82,1.2 34.41,-7.65 38.72,-14.15zm-37.98 -63.9c0,0 5.81,14.17 11.47,18.31 5.67,4.14 18.3,7.09 18.3,7.09 0,0 -17.1,-6.61 -19.66,-13.37 -2.57,-6.77 -4.43,-11.98 -4.43,-11.98 0,0 -1.98,-4.55 -5.68,-0.05zm-20.58 1.44c0,0 3.7,9.63 2.29,15.76 -1.42,6.13 -8.33,14.31 -8.33,14.31 0,0 11.48,-10.2 12.61,-17.11 1.13,-6.91 -1.27,-12.36 -1.27,-12.36 0,0 -2.3,-1.89 -5.3,-0.59z"/>
  </g>
  <path class="fil3" d="M532.14 774.19c0,0 44.61,78.04 38.91,162.49 -5.7,84.46 -23.2,297.75 -23.2,297.75l-5.91 405.89 3.13 72.75c0,0 -34.49,9.32 -52.28,10 -17.79,0.68 -25.28,-1.56 -25.28,-1.56 0,0 -10.78,-28.31 -9.87,-38.88 0.91,-10.56 2.33,-57.12 0.46,-66.31 -1.87,-9.2 -37.11,-312.61 -35.93,-347.61 1.19,-35.01 -1.42,-48.8 -2.15,-54.25 -0.73,-5.45 -22.25,-179.57 -22.25,-179.57 0,0 -41.84,278.1 -35.67,291.34 6.17,13.24 -5.75,214.67 -20.81,287.69 -15.05,73.02 -11.83,73.28 -11.83,73.28l2.85 42.37c0,0 -24.31,10.37 -55.89,6.52 -31.57,-3.85 -45.5,-17.8 -45.5,-17.8 0,0 12.87,-18.63 13.08,-37.17 0.21,-18.54 -7.23,-386.34 -8.6,-404.82 -1.37,-18.48 -18.09,-288.25 -20.63,-342.91 -2.54,-54.66 31.97,-162.67 31.97,-162.67 0,0 218.2,3.93 285.39,3.48z"/>
  <path class="fil4" d="M368.39 854.37c0,0 -1.19,100.63 -0.4,111.7 0.79,11.07 24.51,27.68 24.51,27.68 0,0 -17.4,-24.12 -16.61,-30.05 0.79,-5.93 2.37,-110.12 2.37,-110.12 0,0 -4.75,-0.79 -9.88,0.79z"/>
  <g id="_1218069879104">
   <path class="fil5" d="M147.54 930.7c0,0 15.78,13.46 15.51,37.32 -0.07,6.08 -4.59,17.68 -6.38,23.49 -1.01,3.29 -3.4,9.83 -3.6,13.24 -0.31,5.22 2.32,15.62 2.03,20.84 -0.37,6.54 -4.93,23.13 -11.45,23.57 -6.47,0.44 -11.11,-16.73 -11.58,-23.2 -0.42,-5.85 6.49,-19.8 1.85,-23.38 -1.59,-1.22 -5.15,1.15 -6.81,2.25 -1.39,0.91 -4.53,2.96 -5.15,4.49 -0.84,2.1 -1.79,6.16 -2.48,7.91 -0.29,0.75 -2.74,5.01 -2.1,7.64 1.31,5.35 3.58,23.31 3.58,23.31 0,0 8.44,4.31 12.13,8.29 1.74,1.86 10.32,4.77 12.42,6.1 3.14,1.99 7.87,9.01 5.55,11.93 -3.25,4.07 -18.72,0.48 -24.19,-2.83 -7.64,-4.62 -21.17,-9.97 -24.28,-16.5 -2.96,-6.23 -5.13,-26.41 -7.16,-32.21 -1.68,-4.79 -2.38,-6.43 -3.82,-11.69 -1.55,-5.61 3.87,-26.23 8.4,-43.09 3.71,-13.74 13.23,-36.57 13.23,-36.57l34.31 -0.91z"/>
   <path class="fil6" d="M153.39 1034.61c0.78,1.4 1.89,3.4 2.4,4.28 1.39,2.43 5.86,6.87 5.61,9.65 -0.11,1.22 -3.21,3.73 -3.21,3.73 0,0 8.44,8.24 8.38,11.87 -0.02,1.19 -2.83,3.76 -2.83,3.76 0,0 0.02,6.08 -1.46,7.16 -1.95,1.43 -7.43,0.48 -11.32,-0.46l0.08 -0.09c2.32,-2.92 -2.41,-9.94 -5.55,-11.93 -2.1,-1.33 -10.69,-4.24 -12.42,-6.1 -2.96,-3.19 -9.86,-7.07 -12.13,-8.29l-0.06 -0.48c-0.37,-2.88 -2.33,-18 -3.52,-22.83 -0.64,-2.63 1.81,-6.89 2.1,-7.64 0.69,-1.75 1.64,-5.81 2.48,-7.91 0.62,-1.54 3.76,-3.58 5.15,-4.49 1.66,-1.1 5.23,-3.47 6.81,-2.25 4.64,3.58 -2.26,17.54 -1.85,23.38 0.48,6.47 5.11,23.64 11.58,23.2 4.33,-0.29 7.8,-7.7 9.75,-14.56zm-40.21 -103.01c0,0 -2.08,5.22 -2.87,7.12 -0.86,2.1 -2.45,6.26 -2.45,6.26 0,0 17.76,-1.06 23.91,-1.06 14.05,0.02 28.1,5.64 28.1,5.64 0,0 -1.75,-4.68 -3.98,-8.57 -1.95,-3.4 -6.12,-9.44 -6.12,-9.44l-19.44 -2.16 -17.15 2.19z"/>
  </g>
  <path class="fil7" d="M109.87 916.16l-0.77 19.49c0,0 18.84,-0.48 25.41,0.11 22.1,1.97 28.67,5.39 28.67,5.39l4.08 -24.95 -57.38 -0.04z"/>
  <path class="fil5" d="M324.01 254.25c52.83,0 59.16,-5.14 113.1,-5.14 -1.28,10.78 -0.13,65.69 11.08,78.81l-8.21 65.55 -19.73 136.57 -102.94 -92.18 -7.27 -84.23c21.77,-18.3 16.85,-80.91 13.97,-99.38z"/>
  <path class="fil6" d="M324.01 254.25c52.83,0 59.16,-5.14 113.1,-5.14 -0.45,3.82 -0.6,13.19 -0.1,24.27 -6.16,9.5 -17.75,22.15 -39.35,37.74 -26.24,18.94 -52.48,11.3 -71.7,-2.59 1.73,-21.69 -0.41,-44.36 -1.95,-54.29zm118.23 60.11c1.56,5.9 3.52,10.71 5.95,13.56l-8.21 65.55 -12.74 88.21c-6.02,14.21 -12.88,26.93 -20.24,36.48l-86.8 -77.73c-1.26,-3.8 -2.48,-7.61 -3.65,-11.44l-6.5 -75.38c8.67,-7.29 13.1,-21.6 15.12,-37.36l0 0c0,0 7.25,39.14 16.15,62.07 8.9,22.93 14.03,39.54 12.65,46.85 -1.38,7.31 0.59,11.47 4.15,17.59 3.56,6.13 17.59,26.49 18.39,22.74 0.79,-3.76 2.97,-24.12 12.85,-37.96 9.88,-13.84 21.35,-23.33 17.2,-31.43 -4.15,-8.11 -3.36,-13.64 4.94,-26.69 7.14,-11.22 25.7,-38.4 30.75,-55.09zm-64.35 19.3c0,0 -1.19,9.29 1.58,15.22 2.77,5.93 7.12,2.97 7.12,2.97 0,0 -7.51,-3.91 -8.7,-18.19z"/>
  <path class="fil8" d="M289.68 809.18c93.88,27.22 163.07,24.98 233.02,-16.39 -14.27,-34.31 -26.41,-63.56 -40.67,-97.87 -45.13,-126.8 -26.53,-297.43 -20.96,-356.98 -9.24,-10.87 -11.47,-19.75 -11.47,-19.75 0,0 -4.11,-3.43 -6.31,-0.21 -4.07,24.87 -36.1,56.31 -36.62,63.56 -2.32,9.59 7.14,9.23 6.12,14.76 -1.99,10.74 -16.26,27.84 -21.08,37.54 -5.9,11.86 -10.72,55.02 -10.72,55.02 0,0 -17.54,-25.59 -21.63,-31.48 -17.7,-26.68 -9.6,-23.08 -9.85,-37.54 -0.08,-4.66 -0.14,-7.64 -3.98,-21.24 -3.63,-12.84 -16.27,-42.18 -20.6,-80.59 -0.19,-1.7 -4.29,0.79 -5.28,2.87 -7.89,17.79 -9.61,32.74 -18.14,58.49 -20.14,99.31 66.3,312.83 -11.83,429.8z"/>
  <path class="fil7" d="M452.88 326.24c0,0 -9.27,38.62 -17.39,81.08 -0.86,-6.01 -3.64,-16.08 -3.88,-19.26 -1.09,-14.35 -7.86,-17.02 -12.52,-17.13 -5.79,-0.13 -11.72,6.27 -12.76,11.97 -0.42,2.3 0.26,4.56 1.53,6.51 -1.15,-2.76 -1.1,-5.93 3.53,-12.06 4.63,-6.13 15.57,0.93 16.97,7.02 1.8,7.82 5.7,19.7 6.96,23.81 -3.93,20.65 -7.57,42.15 -9.72,60.51 -6,51.19 -0.99,156.59 12.31,205.61 11.22,41.29 51.34,87.87 55.19,124.97 -46.08,28.27 -117.83,33 -168.55,7.6 2.73,-31.02 16.55,-117.02 16.55,-154.32 0,-49.03 -18.19,-173.98 -23.81,-214.69 -0.65,-4.72 -1.15,-9.85 -1.52,-15.23 2.61,-1.87 5.51,-4.72 7.74,-9.01 5.34,-10.28 16.41,-3.76 19.57,2.37 3.16,6.13 4.15,11.07 4.15,11.07 0,0 4.55,-15.02 -5.93,-25.5 -10.48,-10.48 -16.61,1.38 -22.14,12.26 -1.25,2.46 -2.46,4.42 -3.57,5.99 -2.46,-40.74 1.85,-93.98 1.85,-93.98 -66.59,115.02 34.35,380.04 -34.39,482.47 109.79,34.26 166.15,22.02 241.05,-11.65 -110.61,-261.64 -41.79,-305.41 -63.04,-458.71 -2.73,-3.9 -5.46,-7.8 -8.19,-11.71z"/>
  <path class="fil6" d="M581.27 875.96c0,0 -3.95,7.14 -4.66,9.04 -2.17,5.64 -8.7,26.8 -8.7,26.8l-37.01 -68.47 10.89 -8.28 39.48 40.9z"/>
  <path class="fil7" d="M533.63 841.26l-4.29 11.99c0,0 19.58,10.52 26.14,13.97 8.8,4.52 25.14,11.55 25.14,11.55 0,0 2.87,-7.2 3.51,-9.75 0.44,-1.75 3.16,-10.71 3.16,-10.71l-53.65 -17.05z"/>
  <path class="fil9" d="M200.62 970.5c0,0 35.44,33.7 49.16,24.35 29.84,-20.31 57.29,-122.51 64.44,-198.54 -15.05,48.69 -44.05,149.47 -61.13,170.35 -17.08,20.88 -52.47,3.84 -52.47,3.84z"/>
  <path class="fil10" d="M317.38 326.1c0,0 -30.32,26.03 -58.4,34.01 -84.42,23.95 -97.49,43.1 -101.59,127.13 -1.12,22.92 -2.11,42.48 -3.63,60.75 -1.04,6.55 -2.06,12.56 -2.73,17.81 -1.15,9.08 -3.62,27.11 -5.39,36.02 -3.06,15.33 -5.83,29.4 -8.35,42.73 -13.88,53.49 -18.09,81.74 -20.6,122.88 -2.54,41.67 -8.08,151.97 -8.08,151.97 14.73,-0.3 45.58,1.38 58.2,4.08 0,0 20.87,-105.96 27.45,-137.63 5.48,-26.38 21.7,-95.9 21.7,-95.9l20.84 -70.97c0,0 -0.46,33.72 0,38.96 1.08,12.55 -0.64,37.91 -3.27,50.24 -2.06,9.7 -6.54,35.84 -9.52,45.3 -6.41,20.31 -13.35,60.59 -16.88,81.6 -5.57,33.21 -12.86,129.08 -12.86,129.08 0,0 35.44,33.7 49.16,24.35 30.09,-20.48 49.74,-98.79 72.8,-201.18 10.23,-45.41 13.96,-139.42 11.29,-182.22 -2.41,-38.86 -16.53,-118.05 -19.8,-154.05 -2.65,-29.19 9.65,-124.97 9.65,-124.97z"/>
  <path class="fil10" d="M452.88 326.24c0,0 -20.27,96.28 -21.28,130.2 -0.62,21.1 -1.63,63.37 -0.64,84.45 1.42,30.45 2.7,97.6 10.81,126.98 6.12,22.14 24.59,55.15 41.12,71.68 32.26,32.26 40.06,106.37 40.06,106.37 26.44,12.05 47.14,21.26 62.32,27.65 0,0 15.82,-42.88 38.19,-87.77 19.76,-39.62 42.89,-112.18 44.35,-132.09 0.44,-5.92 -16.95,-59.5 -34.51,-111.56 -19.22,-57.01 -26.51,-118.81 -40.59,-138.52 -12.12,-16.96 -107.32,-55.39 -139.84,-77.39zm78.01 353.05c-4.84,-36.43 12.37,-121.26 12.37,-121.26 0,0 12.64,37.12 23.11,65.14 11.69,31.29 15.31,45.19 14.89,48.92 -1.12,9.99 -10.11,38.56 -19.92,67.71 -10.45,-10.41 -28.49,-45.8 -30.45,-60.52z"/>
  <path class="fil11" d="M275.33 358.39c-3.64,7.84 -40.71,71.21 -41.1,77.36 2.18,8.91 26.38,59.39 36.72,81.58 -8.99,-29.8 -21.9,-68.78 -20.56,-80.83 1.28,-11.38 18.12,-57.69 24.95,-78.1z"/>
  <path class="fil12" d="M581.25 672.09c-11.05,56.32 -38.64,107.8 -51.2,176.02 17.69,-43.97 54.33,-133.86 51.2,-176.02z"/>
  <path class="fil13" d="M513.54 432.51l-36.14 8.67 36.16 -0.22c-5.99,21.44 -40.91,148.44 -58.83,218.67 20.26,-61.16 67.52,-223.17 67.52,-223.17 0,0 -9.3,-50.6 -44.17,-91.47 20.14,27.51 29.6,54.52 35.46,87.51z"/>
  <path class="fil13" d="M233.75 432.51l36.14 8.67 -36.16 -0.22c5.99,21.44 65.85,134.1 83.77,204.33 -20.26,-61.16 -92.46,-208.83 -92.46,-208.83 0,0 11.16,-33.14 49.35,-77.57 -20.14,27.51 -34.2,50.95 -40.64,73.61z"/>
  <path class="fil11" d="M269.34 359.75c-88.92,32.27 -99.33,36.66 -103.77,127.66 -1.12,22.9 -2.11,42.43 -3.63,60.69 -1.04,6.54 -2.06,12.55 -2.73,17.8 -1.15,9.07 -3.62,27.08 -5.39,35.99 -3.06,15.31 -5.83,29.37 -8.35,42.69 -1.71,6.59 -3.27,12.79 -4.71,18.69 9.06,14.41 36.79,-163.08 40.5,-205.93 4.27,-49.3 38.91,-75.37 70.7,-88.64 6.97,-2.91 12.69,-5.96 17.37,-8.94z"/>
  <path class="fil4" d="M305.65 833.41c49.71,26.36 131.4,15.32 214.29,-12.6l2.45 5.55c-61.84,25.86 -157.03,44.4 -218.68,15.12l1.93 -8.07z"/>
  <path class="fil11" d="M628.05 540.58c-12.54,-52.89 -29,-124.45 -38.6,-137.03 -8.22,-10.79 -70.54,-38.45 -100.65,-52.69l-0 0c0,0 76.88,44.69 88.71,55.5 11.83,10.82 30.68,70.75 50.54,134.22z"/>
  <path class="fil14" d="M448.64 185.85c0,0 9.29,-2.37 10.97,1.28 1.68,3.66 3.95,19.87 1.78,29.75 -2.17,9.89 -11.27,23.72 -15.42,23.72 -4.15,0 -4.35,-1.38 -4.35,-1.38 -2.55,36.4 -13.56,40.43 -42.9,67.81 -5.83,5.44 -32.67,5.23 -38.27,0 -29.34,-27.38 -40.94,-30.82 -42.9,-67.81 0,0 -0.2,1.38 -4.35,1.38 -4.15,0 -13.25,-13.84 -15.42,-23.72 -2.17,-9.89 0.1,-26.1 1.78,-29.75 1.68,-3.66 10.97,-1.28 10.97,-1.28 -7.21,-41.12 -5.04,-78.09 27.78,-91.53 26.48,-10.85 56.07,-10.85 82.55,0 32.82,13.44 34.99,50.41 27.78,91.53z"/>
  <path class="fil15" d="M312.01 212.65c0,0 -4.76,-1.88 -3.59,-7.81 1.17,-5.93 1.5,-9.98 -1.34,-10.87 -2.84,-0.89 -6.1,9.69 -5.35,18.19 0.75,8.5 7.44,18.48 7.44,18.48 0,0 -8.44,-9.19 -8.61,-22.44 -0.17,-13.25 2.34,-18.09 5.77,-18.09 3.43,0 5.1,4.75 5.1,5.63 0,0.89 -1.09,8.7 0.58,16.9zm133.05 0c0,0 5.64,-1.88 4.25,-7.81 -1.38,-5.93 -1.78,-9.98 1.58,-10.87 3.36,-0.89 7.22,9.69 6.33,18.19 -0.89,8.5 -8.8,18.48 -8.8,18.48 0,0 9.98,-9.19 10.18,-22.44 0.2,-13.25 -2.77,-18.09 -6.82,-18.09 -4.05,0 -6.03,4.75 -6.03,5.63 0,0.89 1.28,8.7 -0.69,16.9z"/>
  <path class="fil15" d="M317.55 239.52l-0.01 -0.29c0,0 -0.2,1.38 -4.35,1.38 -0.71,0 -1.57,-0.41 -2.51,-1.13 0.53,0.33 1.89,0.7 3.7,-2.1 2.37,-3.66 4.09,-18.38 3.92,-12.41 -0.08,2.91 -0.33,9 -0.76,14.54zm124.09 0l0.01 -0.29c0,0 0.2,1.38 4.35,1.38 0.71,0 1.57,-0.41 2.51,-1.13 -0.53,0.33 -1.89,0.7 -3.7,-2.1 -2.37,-3.66 -4.09,-18.38 -3.92,-12.41 0.08,2.91 0.33,9 0.76,14.54z"/>
  <path class="fil16" d="M328.15 187.97c0,0 0.99,0.94 1.79,0.66 0.8,-0.28 2.35,-1.03 3.62,-1.27 1.27,-0.23 10.78,0.53 19.27,1.93 8.49,1.39 12.4,2.46 13.48,1.89 1.08,-0.56 1.44,-5.14 -0.21,-5.8 -1.65,-0.66 -16.29,-2.53 -22.96,-3.66 -6.67,-1.13 -7,-1.08 -8.31,-0.65 -1.32,0.42 -5.13,3.52 -6.68,6.9z"/>
  <path class="fil15" d="M357.72 192.82c0,0 5.78,2.3 8.83,7.12 3.06,4.82 2.96,9.47 3.24,5 0.28,-4.46 -0.49,-9.82 -4.11,-11.51 -3.62,-1.69 -9.37,-1.74 -7.96,-0.61z"/>
  <g id="_1218069873248">
   <path class="fil17" d="M335.56 198.49c0,0 6.72,-4.3 15.98,-3.08 9.26,1.22 11,4.25 10.81,3.31 -0.19,-0.94 -1.77,-2.96 -12.01,-3.76 -10.24,-0.8 -15.25,2.07 -14.78,3.52z"/>
   <path class="fil18" d="M343.45 207.58c0,0 5.08,1.36 10.01,0.66 4.93,-0.7 6.01,-2.96 6.01,-1.97 0,0.99 -6.77,5.73 -16.02,1.32z"/>
   <path class="fil19" d="M339.79 199.5c0,0 4.32,-3.9 11.18,-3.38 6.86,0.52 9.96,4.23 11.23,5.4 1.27,1.17 0.19,2.02 -0.56,1.27 -0.75,-0.75 -1.22,-0.89 -1.88,-0.75 -0.66,0.14 -11.61,4.32 -19.97,-2.54z"/>
   <path class="fil15" d="M339.79 199.5c0,0 0.22,-0.2 0.64,-0.5 1.35,1.29 4.84,3.97 10.59,4 5.57,0.03 8.7,-1.73 9.96,-2.66 0.53,0.48 0.93,0.9 1.23,1.18 1.27,1.17 0.19,2.02 -0.56,1.27 -0.75,-0.75 -1.22,-0.89 -1.88,-0.75 -0.66,0.14 -11.61,4.32 -19.97,-2.54z"/>
   <path class="fil20" d="M339.79 199.5c0,0 4.32,-3.9 11.18,-3.38 5.1,0.38 8.12,2.53 9.86,4.09 -1.44,-0.75 -4.57,-2.15 -10.23,-2.17 -6.28,-0.02 -9.13,1.22 -10.23,1.91 -0.19,-0.15 -0.39,-0.3 -0.58,-0.45z"/>
   <path class="fil21" d="M347.35 196.24c1.11,-0.16 2.32,-0.22 3.62,-0.13 1.78,0.13 3.31,0.48 4.62,0.95 0.17,0.48 0.27,1 0.27,1.54 0,2.53 -2.05,4.58 -4.58,4.58 -2.53,0 -4.58,-2.05 -4.58,-4.58 0,-0.87 0.24,-1.68 0.66,-2.37z"/>
   <circle class="fil22" cx="351.28" cy="198.61" r="1.95"/>
   <circle class="fil19" cx="349.33" cy="198.61" r="0.87"/>
   <path class="fil16" d="M360.83 200.21c0,0 -2.05,-3.81 -9.29,-4.8 -7.24,-0.99 -14.99,3.64 -14.99,3.64 0,0 2.93,0.7 3.24,0.45 0.31,-0.26 5.34,-3.66 10.81,-3.24 5.47,0.42 8.66,2.7 10.23,3.95z"/>
  </g>
  <g id="_1218070937328">
   <path class="fil18" d="M368.09 229.28c0,0 -2.95,1.83 -2.57,5.62 0.38,3.79 2.6,5.26 5.34,5.21 2.74,-0.06 2.7,-0.62 2.68,-0.12 -0.01,0.5 -5.46,1.07 -7.94,-1.12 -2.48,-2.19 -2.45,-7.78 2.48,-9.59zm22.99 0c0,0 2.95,1.83 2.57,5.62 -0.38,3.79 -2.6,5.26 -5.34,5.21 -2.74,-0.06 -2.7,-0.62 -2.68,-0.12 0.01,0.5 5.46,1.07 7.94,-1.12 2.48,-2.19 2.45,-7.78 -2.48,-9.59z"/>
   <path class="fil23" d="M377.25 229.15c0,0 -2.41,1.01 -1.46,3.16 0.95,2.15 4.13,1.41 4.36,-0.62 0.23,-2.04 -1.62,-2.92 -2.9,-2.53z"/>
   <path class="fil24" d="M376.61 240.55c0,0 -1.37,-2.8 -3.65,-2.74 -2.28,0.05 -1.17,2.3 -0.5,2.27 0.67,-0.03 2.8,-0.14 4.14,0.47zm5.94 0c0,0 1.23,-2.35 3.5,-2.3 2.28,0.06 1.34,1.86 0.67,1.83 -0.67,-0.03 -2.83,-0.14 -4.17,0.47z"/>
  </g>
  <path class="fil18" d="M381.44 253.4c0,0 0.46,2.69 -1.38,2.84 -1.84,0.15 -2.38,-1.38 -2.38,-1.38 0,0 3.42,0.82 3.77,-1.46z"/>
  <path class="fil18" d="M351.23 264.37c-0.61,-0.66 -0.81,-1.69 -0.39,-2.36 0.78,-1.23 2.5,0.08 3.62,0.62 1.12,0.54 6.28,0.92 9.72,-1.38 3.44,-2.31 8.78,-4.3 11.88,-3 2.56,1.08 4.48,1.08 7.04,0 3.1,-1.31 8.43,0.69 11.88,3 3.44,2.31 8.61,1.92 9.72,1.38 1.12,-0.54 2.84,-1.84 3.62,-0.62 0.44,0.7 0.21,1.78 -0.46,2.44 -1.46,0.25 -3.58,-0.11 -4.43,-0.11 -1.34,0 -8.57,0.38 -19.33,0.69 -10.76,0.31 -21.13,-1.54 -28.74,-0.62 -1.72,0.21 -3.07,0.18 -4.13,-0.04z"/>
  <path class="fil23" d="M373.92 271.48c0,0 5.69,0.46 10.37,0.31 4.69,-0.15 4.76,3.53 -3.23,4.46 -7.99,0.92 -12.37,-4.53 -7.15,-4.76z"/>
  <path class="fil18" d="M371.48 278.01c0,0 1.96,3.11 8.22,2.88 6.26,-0.23 7.98,-3.2 7.98,-3.2 0,0 -5.52,1.32 -16.2,0.32z"/>
  <path class="fil16" d="M431.02 187.97c0,0 -0.99,0.94 -1.79,0.66 -0.8,-0.28 -2.35,-1.03 -3.62,-1.27 -1.27,-0.23 -10.78,0.53 -19.27,1.93 -8.49,1.39 -12.4,2.46 -13.48,1.89 -1.08,-0.56 -1.44,-5.14 0.21,-5.8 1.65,-0.66 16.29,-2.53 22.96,-3.66 6.67,-1.13 7,-1.08 8.31,-0.65 1.32,0.42 5.13,3.52 6.68,6.9z"/>
  <path class="fil15" d="M401.44 192.82c0,0 -5.78,2.3 -8.83,7.12 -3.06,4.82 -2.96,9.47 -3.24,5 -0.28,-4.46 0.49,-9.82 4.11,-11.51 3.62,-1.69 9.37,-1.74 7.96,-0.61z"/>
  <g id="_1218070939296">
   <path class="fil17" d="M423.6 198.49c0,0 -6.72,-4.3 -15.98,-3.08 -9.26,1.22 -11,4.25 -10.81,3.31 0.19,-0.94 1.77,-2.96 12.01,-3.76 10.24,-0.8 15.25,2.07 14.78,3.52z"/>
   <path class="fil18" d="M415.71 207.58c0,0 -5.08,1.36 -10.01,0.66 -4.93,-0.7 -6.01,-2.96 -6.01,-1.97 0,0.99 6.77,5.73 16.02,1.32z"/>
   <path class="fil19" d="M419.37 199.5c0,0 -4.32,-3.9 -11.18,-3.38 -6.86,0.52 -9.96,4.23 -11.23,5.4 -1.27,1.17 -0.19,2.02 0.56,1.27 0.75,-0.75 1.22,-0.89 1.88,-0.75 0.66,0.14 11.61,4.32 19.97,-2.54z"/>
   <path class="fil15" d="M419.37 199.5c0,0 -0.22,-0.2 -0.64,-0.5 -1.35,1.29 -4.85,3.97 -10.59,4 -5.57,0.03 -8.7,-1.73 -9.96,-2.66 -0.53,0.48 -0.93,0.9 -1.23,1.18 -1.27,1.17 -0.19,2.02 0.56,1.27 0.75,-0.75 1.22,-0.89 1.88,-0.75 0.66,0.14 11.61,4.32 19.97,-2.54z"/>
   <path class="fil20" d="M419.37 199.5c0,0 -4.32,-3.9 -11.18,-3.38 -5.1,0.38 -8.12,2.53 -9.86,4.09 1.44,-0.75 4.57,-2.15 10.23,-2.17 6.28,-0.02 9.13,1.22 10.23,1.91 0.19,-0.15 0.39,-0.3 0.58,-0.45z"/>
   <path class="fil21" d="M411.81 196.24c-1.11,-0.16 -2.32,-0.22 -3.62,-0.13 -1.78,0.13 -3.31,0.48 -4.62,0.95 -0.17,0.48 -0.27,1 -0.27,1.54 0,2.53 2.05,4.58 4.58,4.58 2.53,0 4.58,-2.05 4.58,-4.58 0,-0.87 -0.24,-1.68 -0.66,-2.37z"/>
   <circle class="fil22" cx="407.89" cy="198.61" r="1.95"/>
   <circle class="fil19" cx="405.94" cy="198.61" r="0.87"/>
   <path class="fil16" d="M398.33 200.21c0,0 2.05,-3.81 9.29,-4.8 7.24,-0.99 14.99,3.64 14.99,3.64 0,0 -2.93,0.7 -3.24,0.45 -0.31,-0.26 -5.34,-3.66 -10.81,-3.24 -5.47,0.42 -8.66,2.7 -10.23,3.95z"/>
  </g>
 </g>
</svg>
