<?xml version="1.0" encoding="UTF-8"?>
<!DOCTYPE svg PUBLIC "-//W3C//DTD SVG 1.1//EN" "http://www.w3.org/Graphics/SVG/1.1/DTD/svg11.dtd">
<!-- Creator: CorelDRAW 2020 (64-Bit) -->
<svg xmlns="http://www.w3.org/2000/svg" xml:space="preserve" width="84.6667mm" height="211.667mm" version="1.1" style="shape-rendering:geometricPrecision; text-rendering:geometricPrecision; image-rendering:optimizeQuality; fill-rule:evenodd; clip-rule:evenodd"
viewBox="0 0 966.18 2415.44"
 xmlns:xlink="http://www.w3.org/1999/xlink"
 xmlns:xodm="http://www.corel.com/coreldraw/odm/2003">
 <defs>
  <style type="text/css">
   <![CDATA[
    .fil0 {fill:none}
    .fil13 {fill:#182234}
    .fil4 {fill:#192233}
    .fil3 {fill:#23314B}
    .fil22 {fill:#402F24}
    .fil16 {fill:#413024}
    .fil1 {fill:#424852}
    .fil2 {fill:#58606D}
    .fil21 {fill:#625D54}
    .fil24 {fill:#8F7756}
    .fil17 {fill:#A38965}
    .fil20 {fill:#ADA89F}
    .fil18 {fill:#C2A67E}
    .fil15 {fill:#D2B58D}
    .fil14 {fill:#EAD6BA}
    .fil23 {fill:#EDE4D3}
    .fil19 {fill:white}
    .fil12 {fill:#182234;fill-rule:nonzero}
    .fil9 {fill:#192233;fill-rule:nonzero}
    .fil10 {fill:#23314B;fill-rule:nonzero}
    .fil11 {fill:#35496E;fill-rule:nonzero}
    .fil6 {fill:#C2A67E;fill-rule:nonzero}
    .fil7 {fill:#C4C2CC;fill-rule:nonzero}
    .fil5 {fill:#EAD6BA;fill-rule:nonzero}
    .fil8 {fill:#F2F1F6;fill-rule:nonzero}
   ]]>
  </style>
 </defs>
 <g id="Слой_x0020_1">
  <metadata id="CorelCorpID_0Corel-Layer"/>
  <rect class="fil0" x="-0" y="-0" width="966.18" height="2415.44"/>
  <g id="_1218065806944">
   <g>
    <path class="fil1" d="M418.09 2192.02c0,0 3.3,9.73 5.07,25.17 1.77,15.45 1.63,22.5 1.63,22.5 0,0 -7.75,11.46 -24.37,17.93 -16.62,6.46 -25.7,6.51 -25.7,6.51l-16.55 -2.94c0,0 -6.55,6.08 -19.15,24.62 -12.59,18.54 -30.4,30.72 -56.18,34.21 -25.78,3.49 -72.86,2.37 -84.08,-2.61 -11.23,-4.98 -21.32,-17.71 -21.44,-21.74 -0.11,-4.03 -4.08,-13.76 10.34,-26.93 14.42,-13.17 85.64,-50.48 100.7,-76.76 15.07,-26.28 119.88,-27.47 129.72,0.04z"/>
    <path class="fil2" d="M413.05 2228.67c0,0 -21.42,9.18 -36.64,17.99 -15.22,8.81 -20.99,12.7 -31.12,23.17 -10.13,10.46 -21.98,31.69 -45.45,39.37 -23.48,7.67 -84.25,9.49 -95.82,4.5 -11.56,-4.98 -20.63,-16.87 -20.63,-16.87 0,0 15.55,15.38 34.72,15.79 19.16,0.41 64.62,-2.67 78.61,-7.1 13.99,-4.44 28.52,-13.92 45.24,-40.88 16.73,-26.96 60.88,-34.57 71.09,-35.97zm-152.89 61.23c0,0 -20.63,1.28 -44.18,-5.66 -23.55,-6.94 -19.8,-17.21 -19.8,-17.21 0,0 -14.14,17.38 11.79,25.48 25.93,8.1 52.18,-2.61 52.18,-2.61zm44.34 -79.51c0,0 -4.91,4.73 -1.76,9.42 3.15,4.69 11.36,34.22 11.36,34.22 0,0 -11.39,-22.96 -15.63,-30.33 -4.23,-7.37 -4.85,-11.23 -4.08,-13.76 0.77,-2.52 1.24,-3.87 1.24,-3.87 0,0 5.2,-0.73 8.86,4.32z"/>
   </g>
   <g>
    <path class="fil1" d="M691.29 2179.99c0,0 25.61,51.44 28.52,60.4 2.9,8.96 3.77,39.84 3.77,39.84 0,0 2.33,42.25 -43.3,44.99 -45.63,2.75 -64.76,-23.74 -66.11,-45.86 -1.35,-22.12 -3.86,-52.27 -10.81,-66.79 -6.95,-14.52 -6.95,-14.52 -6.95,-14.52 0,0 -5.02,-27.02 0.42,-37.31 5.43,-10.29 83.47,10.26 94.46,19.25z"/>
    <path class="fil2" d="M712.71 2278.98c0,0 -2.94,27.33 -35.16,29.9 -32.22,2.57 -47.34,-21.04 -49.28,-30.38 -1.94,-9.33 4.84,16.95 35.16,18.48 30.31,1.53 43.79,-9.73 49.28,-18.01zm-48.33 -81.32c0,0 7.39,18.03 14.6,23.3 7.21,5.27 23.29,9.02 23.29,9.02 0,0 -21.76,-8.41 -25.03,-17.02 -3.27,-8.61 -5.64,-15.24 -5.64,-15.24 0,0 -2.52,-5.78 -7.23,-0.06zm-26.19 1.84c0,0 4.71,12.25 2.91,20.05 -1.8,7.8 -10.6,18.21 -10.6,18.21 0,0 14.61,-12.99 16.05,-21.78 1.44,-8.79 -1.61,-15.73 -1.61,-15.73 0,0 -2.93,-2.41 -6.75,-0.75z"/>
   </g>
   <path class="fil3" d="M674.7 984.8c0,0 39.86,52.21 49.52,206.8 9.66,154.59 -29.52,378.94 -29.52,378.94l-7.52 516.58 3.98 92.59c0,0 -43.89,11.86 -66.54,12.72 -22.65,0.86 -32.17,-1.99 -32.17,-1.99 0,0 -13.72,-36.03 -12.56,-49.48 1.16,-13.44 2.97,-72.69 0.59,-84.39 -1.37,-6.74 -30.12,-166.69 -42.7,-285.05 -9.26,-87.14 -3.67,-138.47 -3.03,-157.36 1.51,-44.55 -1.81,-62.11 -2.74,-69.04 -0.93,-6.93 -28.32,-228.54 -28.32,-228.54 -0.87,18.76 -56.87,295.96 -45.39,370.79 11.48,74.82 -7.32,273.21 -26.48,366.14 -19.16,92.93 -15.05,93.26 -15.05,93.26l3.63 53.92c0,0 -30.94,13.2 -71.13,8.3 -40.18,-4.9 -57.91,-22.65 -57.91,-22.65 0,0 16.37,-23.71 16.64,-47.31 0.27,-23.6 -9.2,-491.69 -10.94,-515.21 -1.74,-23.52 -44.15,-294.39 -34.1,-421.93 10.05,-127.53 48.54,-221.53 48.54,-221.53 0,0 277.7,5.01 363.22,4.43z"/>
   <path class="fil4" d="M466.3 1086.84c0,0 -1.51,128.07 -0.5,142.16 1.01,14.09 31.2,35.23 31.2,35.23 0,0 -22.14,-30.69 -21.14,-38.24 1.01,-7.55 3.02,-140.14 3.02,-140.14 0,0 -6.04,-1.01 -12.58,1.01z"/>
   <g>
    <path class="fil5" d="M185.21 1183.99c0,0 20.09,17.13 19.74,47.5 -0.09,7.74 -5.84,22.5 -8.11,29.9 -1.28,4.19 -4.32,12.51 -4.58,16.85 -0.39,6.65 2.95,19.88 2.58,26.53 -0.47,8.32 -6.28,29.43 -14.58,29.99 -8.23,0.56 -14.14,-21.3 -14.74,-29.53 -0.53,-7.44 8.25,-25.2 2.35,-29.76 -2.02,-1.56 -6.56,1.47 -8.67,2.86 -1.77,1.16 -5.77,3.77 -6.56,5.72 -1.07,2.67 -2.28,7.83 -3.16,10.07 -0.37,0.95 -3.49,6.37 -2.67,9.72 1.67,6.81 4.56,29.67 4.56,29.67 0,0 10.74,5.49 15.44,10.55 2.21,2.37 13.14,6.07 15.81,7.77 4,2.53 10.02,11.46 7.07,15.18 -4.14,5.18 -23.83,0.6 -30.78,-3.6 -9.72,-5.88 -26.95,-12.69 -30.9,-20.99 -3.77,-7.93 -6.53,-33.62 -9.11,-40.99 -2.14,-6.09 -3.02,-8.18 -4.86,-14.88 -1.98,-7.14 4.93,-33.39 10.69,-54.84 4.72,-17.48 16.83,-46.55 16.83,-46.55l43.66 -1.16z"/>
    <path class="fil6" d="M192.67 1316.23c0.99,1.78 2.41,4.32 3.06,5.44 1.77,3.09 7.46,8.74 7.14,12.28 -0.14,1.56 -4.09,4.74 -4.09,4.74 0,0 10.74,10.48 10.67,15.11 -0.02,1.51 -3.6,4.79 -3.6,4.79 0,0 0.02,7.74 -1.86,9.11 -2.48,1.81 -9.45,0.6 -14.4,-0.58l0.1 -0.12c2.95,-3.72 -3.07,-12.65 -7.07,-15.18 -2.67,-1.7 -13.6,-5.39 -15.81,-7.77 -3.76,-4.06 -12.62,-8.47 -15.5,-10.03l-0.01 -1.14c-0.47,-3.66 -2.97,-22.91 -4.48,-29.06 -0.81,-3.35 2.3,-8.77 2.67,-9.72 0.88,-2.23 2.09,-7.39 3.16,-10.07 0.79,-1.95 4.79,-4.56 6.56,-5.72 2.12,-1.39 6.65,-4.42 8.67,-2.86 5.91,4.56 -2.88,22.32 -2.35,29.76 0.6,8.23 6.51,30.08 14.74,29.53 5.51,-0.37 9.92,-9.8 12.4,-18.53zm-51.18 -131.1c0,0 -2.65,6.65 -3.65,9.07 -1.09,2.67 -3.12,7.97 -3.12,7.97 0,0 22.6,-1.35 30.43,-1.35 17.88,0.02 35.76,7.18 35.76,7.18 0,0 -2.23,-5.95 -5.07,-10.9 -2.49,-4.32 -7.79,-12.02 -7.79,-12.02l-24.74 -2.74 -21.83 2.79z"/>
   </g>
   <path class="fil7" d="M137.28 1165.49l-0.98 24.81c0,0 23.98,-0.61 32.33,0.14 28.13,2.51 36.49,6.86 36.49,6.86l5.19 -31.76 -73.03 -0.05z"/>
   <path class="fil5" d="M409.81 323.07c67.23,0 75.3,-6.54 143.95,-6.54 -1.63,13.71 3.17,93.4 39.47,102.55l-35.83 81.18 -25.11 173.81 -131.01 -117.31 -25.14 -128.74c41,-26.92 37.32,-81.43 33.66,-104.94z"/>
   <path class="fil6" d="M409.81 323.07c67.23,0 75.3,-6.54 143.95,-6.54 -0.58,4.86 -0.77,16.78 -0.13,30.89 -7.85,12.09 -19.64,26.06 -50.08,48.03 -30.44,21.97 -72.85,10.07 -97.31,-7.6 8.7,-24.44 5.54,-52.15 3.58,-64.78zm160.17 75.42c4.56,10.23 9.32,11.59 12.42,15.21l-24.99 86.55 -16.22 112.27c-7.66,18.09 -16.39,34.28 -25.76,46.43l-110.47 -98.92c-1.61,-4.83 -3.16,-9.69 -4.64,-14.56l-20.92 -119.72c11.03,-9.28 17.08,-15.65 23.23,-28.76 0,0 0,0 0,0 0,0 -2.6,25.28 3.12,42.69 11.19,34.05 22.4,38.95 28.06,52.33 12.19,28.83 15.9,39.3 14.14,48.61 -1.76,9.31 0.75,14.59 5.28,22.39 4.53,7.8 22.39,33.72 23.4,28.94 1.01,-4.78 3.77,-30.7 16.36,-48.31 12.58,-17.61 27.17,-29.69 21.89,-40.01 -5.28,-10.32 -3.54,-18.52 6.29,-33.97 9.83,-15.45 42.4,-49.94 48.83,-71.18zm-91.6 25.64c0,0 -1.51,11.83 2.01,19.37 3.52,7.55 9.06,3.77 9.06,3.77 0,0 -9.56,-4.97 -11.07,-23.15z"/>
   <path class="fil8" d="M366.12 1029.33c119.48,34.64 207.54,31.79 296.57,-20.86 -18.16,-43.66 -33.61,-80.89 -51.77,-124.55 -57.44,-161.37 -17.68,-375.94 -10.59,-451.72 -5.39,-6.33 -8.9,-12.14 -11.13,-16.57 -1.7,-3.39 -6.61,-16.82 -12.81,-7.71 -5.18,31.65 -60.72,67.95 -61.38,77.17 -2.95,12.21 9.09,11.74 7.79,18.79 -2.53,13.67 -20.69,35.43 -26.83,47.78 -7.51,15.09 -13.65,70.03 -13.65,70.03 0,0 -22.32,-32.57 -27.53,-40.06 -22.53,-33.96 -12.22,-29.37 -12.53,-47.78 -0.1,-5.93 -0.18,-9.73 -5.07,-27.04 -4.62,-16.34 -38.35,-45.8 -43.86,-94.69 -0.24,-2.16 -7.54,-0.38 -8.49,4.68 -62.68,144.13 87.4,453.64 -18.73,612.54z"/>
   <path class="fil7" d="M589.68 415.61c0,0 -27.66,48.25 -37.98,102.28 -1.09,-7.65 -4.63,-20.46 -4.94,-24.52 -1.39,-18.26 -10,-21.66 -15.93,-21.8 -7.37,-0.16 -14.91,7.98 -16.24,15.23 -0.53,2.92 0.33,5.81 1.94,8.29 -1.46,-3.52 -1.4,-7.55 4.49,-15.35 5.89,-7.8 19.82,1.18 21.6,8.93 2.29,9.95 7.26,25.07 8.86,30.3 -5,26.28 -9.64,53.65 -12.38,77.01 -7.63,65.15 -1.26,199.29 15.67,261.68 14.28,52.55 65.34,111.83 70.24,159.05 -58.65,35.99 -149.96,42 -214.51,9.68 3.48,-39.47 21.06,-148.93 21.06,-196.41 0,-62.4 -23.15,-221.42 -30.3,-273.23 -0.83,-6 -1.46,-12.53 -1.93,-19.38 3.33,-2.38 7.01,-6.01 9.85,-11.47 6.79,-13.08 20.88,-4.78 24.91,3.02 4.03,7.8 5.28,14.09 5.28,14.09 0,0 5.79,-19.12 -7.55,-32.46 -13.33,-13.34 -21.14,1.76 -28.18,15.6 -1.59,3.13 -3.13,5.63 -4.54,7.63 -3.12,-51.85 -14.27,-117 -14.27,-117 -1.65,2.85 -7.6,5.78 -9.08,8.77 -74.67,150.67 67.71,474.82 -18.07,602.65 139.73,43.61 211.46,28.02 306.78,-14.82 -140.77,-332.98 -37.34,-387.79 -64.38,-582.89 -3.47,-4.97 -6.95,-9.93 -10.42,-14.9z"/>
   <path class="fil6" d="M737.22 1114.31c0,0 -5.02,9.09 -5.93,11.51 -2.77,7.18 -11.07,34.11 -11.07,34.11l-47.1 -87.14 13.86 -10.53 50.24 52.05z"/>
   <path class="fil7" d="M676.59 1070.16l-5.47 15.25c0,0 24.92,13.39 33.27,17.78 11.2,5.75 31.99,14.7 31.99,14.7 0,0 3.65,-9.16 4.46,-12.41 0.56,-2.23 4.02,-13.62 4.02,-13.62l-68.28 -21.7z"/>
   <path class="fil9" d="M252.78 1234.64c0,0 45.1,42.89 62.56,30.99 37.98,-25.85 72.91,-155.92 82.02,-252.68 -19.16,61.96 -56.06,190.23 -77.8,216.8 -21.74,26.57 -66.78,4.88 -66.78,4.88z"/>
   <path class="fil10" d="M382.51 419.09c-123.08,77.62 -209.15,15.6 -214.86,177.57 -7.22,205.17 -36.8,395.76 -33.17,572.96 0.38,18.74 58.03,1.76 74.14,5.19 24.28,-132.32 63.82,-224.64 83.85,-387.54 -0,73.19 30.8,142.19 8.98,214.66 -32.55,107.72 -51.18,160.84 -57.18,224.65 0,0 45.68,42.89 62.98,30.99 37.94,-26.06 61.61,-125.73 89.19,-256.04 12.24,-57.8 15.37,-177.44 11.24,-231.91 -3.73,-49.45 -23.06,-150.24 -27.84,-196.06 -3.87,-37.15 2.66,-154.48 2.66,-154.48z"/>
   <path class="fil10" d="M591.21 417.75c0,0 -32.85,119.48 -34.91,162.65 -1.27,26.85 -3.52,80.65 -2.75,107.48 1.12,38.76 1.21,124.22 10.86,161.6 7.28,28.18 30.03,70.19 50.69,91.23 40.32,41.06 48.54,135.38 48.54,135.38 33.38,15.33 59.5,27.06 78.68,35.19 0,0 21.11,-54.58 50.62,-111.7 26.06,-50.43 57.16,-142.77 59.47,-168.11 0.69,-7.53 -2.53,-78.79 -23.28,-147.43 -22.05,-72.92 -11.34,-141.11 -40.87,-178.41 -35.12,-44.35 -156.16,-59.88 -197.05,-87.88zm104.86 291.94c0,0 15.24,47.24 27.92,82.91 14.16,39.83 18.45,57.52 17.83,62.26 -1.65,12.72 -30.77,95.76 -43.92,132.86 -48.39,-74.57 -19.1,-206.92 -1.83,-278.03z"/>
   <path class="fil11" d="M337.01 455.62c-4.5,9.97 -50.59,90.63 -50.98,98.45 2.93,11.34 34.59,75.58 48.13,103.82 -11.95,-37.93 -29.05,-87.53 -27.56,-102.88 1.43,-14.48 22.07,-73.43 30.41,-99.4z"/>
   <path class="fil12" d="M741.61 856.25c-14.06,71.68 -53.58,135.81 -69.57,222.63 22.51,-55.95 73.55,-168.97 69.57,-222.63z"/>
   <path class="fil13" d="M661.13 549.94l-46.19 11.04 46.02 -0.28c-8.11,27.28 -55.47,188.92 -79.88,278.3 27.18,-77.84 91.04,-284.03 91.04,-284.03 0,0 -10.68,-64.4 -54.12,-116.41 25,35.01 36.43,69.39 43.13,111.38z"/>
   <path class="fil13" d="M285.37 549.94l46.14 11.04 -46.02 -0.28c7.99,27.28 86.11,170.66 110.12,260.04 -26.83,-77.84 -121.25,-265.78 -121.25,-265.78 0,0 13.63,-42.18 61.48,-98.72 -25.15,35.01 -42.65,64.84 -50.46,93.69z"/>
   <path class="fil11" d="M288.23 463.39c-92.39,23.86 -111.3,40.02 -115.38,155.83 -3.03,85.86 0.42,85.05 -11.36,169.11 14.49,-38.73 26.54,-148.74 30.83,-207.38 5.31,-72.67 38.06,-98.78 95.91,-117.56z"/>
   <path class="fil4" d="M386.44 1060.17c63.26,33.55 167.23,19.5 272.73,-16.04l3.12 7.07c-78.7,32.91 -199.85,56.5 -278.31,19.24l2.46 -10.27z"/>
   <path class="fil11" d="M820.18 661.82c-14.75,-67.31 -17.29,-122.52 -35.73,-153.26 -14.1,-23.51 -97.94,-49.84 -135.94,-67.96l-0 0c0,0 96.43,45.4 120.68,71.54 24.25,26.14 27.18,68.91 51,149.68z"/>
  </g>
  <g id="_1218065787888">
   <path class="fil14" d="M570.97 236.02c0,0 11.83,-3.02 13.96,1.64 2.14,4.65 5.03,25.29 2.27,37.87 -2.77,12.58 -14.34,30.19 -19.63,30.19 -5.28,0 -5.54,-1.76 -5.54,-1.76 -3.25,46.33 -17.26,51.45 -54.6,86.31 -7.42,6.93 -41.57,6.66 -48.71,0 -37.34,-34.85 -52.11,-39.22 -54.6,-86.31 0,0 -0.25,1.76 -5.54,1.76 -5.28,0 -16.86,-17.61 -19.63,-30.19 -2.77,-12.58 0.13,-33.21 2.27,-37.87 2.14,-4.65 13.96,-1.64 13.96,-1.64 -9.18,-52.33 -6.41,-99.38 35.35,-116.49 33.7,-13.81 71.36,-13.81 105.06,0 41.77,17.11 44.54,64.16 35.35,116.49z"/>
   <path class="fil15" d="M397.09 270.13c0,0 -6.06,-2.39 -4.57,-9.94 1.49,-7.55 1.91,-12.71 -1.7,-13.84 -3.62,-1.13 -7.76,12.33 -6.8,23.15 0.96,10.82 9.46,23.52 9.46,23.52 0,0 -10.74,-11.7 -10.95,-28.56 -0.21,-16.86 2.98,-23.02 7.34,-23.02 4.36,0 6.49,6.04 6.49,7.17 0,1.13 -1.38,11.07 0.74,21.51zm169.33 0c0,0 7.17,-2.39 5.41,-9.94 -1.76,-7.55 -2.26,-12.71 2.01,-13.84 4.28,-1.13 9.18,12.33 8.05,23.15 -1.13,10.82 -11.2,23.52 -11.2,23.52 0,0 12.71,-11.7 12.96,-28.56 0.25,-16.86 -3.52,-23.02 -8.68,-23.02 -5.16,0 -7.67,6.04 -7.67,7.17 0,1.13 1.64,11.07 -0.88,21.51z"/>
   <path class="fil15" d="M404.14 304.33l-0.01 -0.37c0,0 -0.25,1.76 -5.54,1.76 -0.9,0 -1.99,-0.52 -3.19,-1.43 0.68,0.42 2.4,0.9 4.72,-2.67 3.02,-4.65 5.2,-23.4 4.99,-15.79 -0.1,3.71 -0.42,11.45 -0.97,18.5zm157.92 0l0.01 -0.37c0,0 0.25,1.76 5.54,1.76 0.9,0 1.99,-0.52 3.19,-1.43 -0.68,0.42 -2.4,0.9 -4.72,-2.67 -3.02,-4.65 -5.2,-23.4 -4.99,-15.79 0.1,3.71 0.42,11.45 0.97,18.5z"/>
   <path class="fil16" d="M417.63 238.73c0,0 1.26,1.2 2.27,0.84 1.02,-0.36 2.99,-1.32 4.6,-1.62 1.61,-0.3 13.72,0.68 24.52,2.45 10.8,1.77 15.79,3.13 17.16,2.41 1.38,-0.72 1.83,-6.54 -0.26,-7.38 -2.09,-0.84 -20.73,-3.23 -29.22,-4.66 -8.49,-1.43 -8.91,-1.37 -10.58,-0.83 -1.68,0.54 -6.52,4.48 -8.5,8.78z"/>
   <path class="fil15" d="M455.26 244.9c0,0 7.35,2.93 11.24,9.06 3.89,6.13 3.77,12.05 4.13,6.37 0.36,-5.68 -0.63,-12.5 -5.23,-14.65 -4.6,-2.15 -11.93,-2.21 -10.14,-0.78z"/>
   <g>
    <path class="fil17" d="M427.06 252.11c0,0 8.55,-5.47 20.33,-3.92 11.78,1.56 14,5.41 13.76,4.22 -0.24,-1.2 -2.25,-3.77 -15.28,-4.78 -13.03,-1.02 -19.41,2.63 -18.81,4.49z"/>
    <path class="fil18" d="M437.11 263.69c0,0 6.46,1.73 12.74,0.84 6.28,-0.9 7.65,-3.77 7.65,-2.51 0,1.26 -8.61,7.3 -20.39,1.68z"/>
    <path class="fil19" d="M432.44 253.4c0,0 5.5,-4.96 14.23,-4.31 8.73,0.66 12.68,5.38 14.29,6.88 1.62,1.49 0.24,2.57 -0.72,1.62 -0.96,-0.96 -1.55,-1.14 -2.39,-0.96 -0.84,0.18 -14.77,5.5 -25.42,-3.23z"/>
    <path class="fil15" d="M432.44 253.4c0,0 0.28,-0.25 0.81,-0.64 1.72,1.64 6.17,5.05 13.48,5.09 7.09,0.04 11.07,-2.2 12.67,-3.38 0.67,0.62 1.18,1.15 1.56,1.5 1.62,1.49 0.24,2.57 -0.72,1.62 -0.96,-0.96 -1.55,-1.14 -2.39,-0.96 -0.84,0.18 -14.77,5.5 -25.42,-3.23z"/>
    <path class="fil20" d="M432.44 253.4c0,0 5.5,-4.96 14.23,-4.31 6.49,0.49 10.34,3.22 12.55,5.21 -1.83,-0.96 -5.82,-2.74 -13.02,-2.76 -7.99,-0.02 -11.62,1.56 -13.02,2.43 -0.25,-0.19 -0.49,-0.38 -0.74,-0.58z"/>
    <path class="fil21" d="M442.07 249.26c1.41,-0.21 2.95,-0.29 4.61,-0.16 2.27,0.17 4.21,0.62 5.88,1.21 0.22,0.61 0.34,1.27 0.34,1.96 0,3.22 -2.61,5.83 -5.83,5.83 -3.22,0 -5.83,-2.61 -5.83,-5.83 0,-1.1 0.3,-2.13 0.83,-3.01z"/>
    <circle class="fil22" cx="447.07" cy="252.27" r="2.48"/>
    <circle class="fil19" cx="444.58" cy="252.27" r="1.11"/>
    <path class="fil16" d="M459.22 254.3c0,0 -2.61,-4.85 -11.83,-6.11 -9.21,-1.25 -19.08,4.64 -19.08,4.64 0,0 3.73,0.9 4.13,0.57 0.4,-0.33 6.8,-4.65 13.76,-4.13 6.96,0.53 11.02,3.43 13.02,5.03z"/>
   </g>
   <g>
    <path class="fil18" d="M468.46 291.3c0,0 -3.75,2.33 -3.27,7.16 0.48,4.83 3.3,6.7 6.8,6.63 3.49,-0.07 3.43,-0.79 3.42,-0.16 -0.02,0.63 -6.95,1.36 -10.1,-1.43 -3.16,-2.79 -3.12,-9.91 3.16,-12.2zm29.26 0c0,0 3.75,2.33 3.27,7.16 -0.48,4.83 -3.31,6.7 -6.8,6.63 -3.49,-0.07 -3.43,-0.79 -3.42,-0.16 0.02,0.63 6.95,1.36 10.1,-1.43 3.16,-2.79 3.12,-9.91 -3.16,-12.2z"/>
    <path class="fil23" d="M480.12 291.13c0,0 -3.06,1.29 -1.86,4.02 1.21,2.73 5.25,1.8 5.55,-0.79 0.3,-2.59 -2.06,-3.72 -3.7,-3.23z"/>
    <path class="fil24" d="M479.31 305.64c0,0 -1.74,-3.56 -4.64,-3.49 -2.9,0.07 -1.49,2.93 -0.63,2.89 0.85,-0.04 3.57,-0.18 5.27,0.6zm7.56 0c0,0 1.56,-3 4.46,-2.93 2.9,0.07 1.71,2.36 0.86,2.33 -0.85,-0.04 -3.6,-0.18 -5.31,0.6z"/>
   </g>
   <path class="fil18" d="M485.45 322c0,0 0.59,3.42 -1.76,3.62 -2.35,0.2 -3.03,-1.76 -3.03,-1.76 0,0 4.35,1.04 4.79,-1.86z"/>
   <path class="fil18" d="M447.01 335.96c-0.78,-0.84 -1.04,-2.15 -0.49,-3.01 0.99,-1.56 3.18,0.1 4.6,0.78 1.42,0.68 7.99,1.17 12.37,-1.76 4.38,-2.93 11.17,-5.48 15.12,-3.81 3.25,1.37 5.7,1.37 8.96,0 3.94,-1.66 10.73,0.88 15.12,3.81 4.38,2.94 10.95,2.45 12.38,1.76 1.42,-0.68 3.61,-2.35 4.6,-0.78 0.56,0.89 0.27,2.27 -0.58,3.1 -1.86,0.31 -4.56,-0.14 -5.64,-0.14 -1.71,0 -10.9,0.49 -24.6,0.88 -13.69,0.39 -26.89,-1.96 -36.58,-0.78 -2.19,0.26 -3.91,0.23 -5.25,-0.05z"/>
   <path class="fil23" d="M475.89 345.01c0,0 7.24,0.59 13.2,0.39 5.96,-0.2 6.06,4.5 -4.11,5.67 -10.17,1.17 -15.74,-5.77 -9.09,-6.06z"/>
   <path class="fil18" d="M472.78 353.32c0,0 2.49,3.96 10.46,3.67 7.97,-0.29 10.15,-4.07 10.15,-4.07 0,0 -7.02,1.68 -20.62,0.41z"/>
   <path class="fil16" d="M548.55 238.73c0,0 -1.26,1.2 -2.27,0.84 -1.02,-0.36 -2.99,-1.32 -4.6,-1.62 -1.61,-0.3 -13.72,0.68 -24.52,2.45 -10.8,1.77 -15.79,3.13 -17.16,2.41 -1.38,-0.72 -1.83,-6.54 0.26,-7.38 2.09,-0.84 20.73,-3.23 29.22,-4.66 8.49,-1.43 8.91,-1.37 10.58,-0.83 1.68,0.54 6.52,4.48 8.5,8.78z"/>
   <path class="fil15" d="M510.91 244.9c0,0 -7.35,2.93 -11.24,9.06 -3.89,6.13 -3.77,12.05 -4.13,6.37 -0.36,-5.68 0.63,-12.5 5.23,-14.65 4.6,-2.15 11.93,-2.21 10.14,-0.78z"/>
   <g>
    <path class="fil17" d="M539.12 252.11c0,0 -8.55,-5.47 -20.33,-3.92 -11.78,1.56 -14,5.41 -13.76,4.22 0.24,-1.2 2.25,-3.77 15.28,-4.78 13.03,-1.02 19.41,2.63 18.81,4.49z"/>
    <path class="fil18" d="M529.07 263.69c0,0 -6.46,1.73 -12.74,0.84 -6.28,-0.9 -7.65,-3.77 -7.65,-2.51 0,1.26 8.61,7.3 20.39,1.68z"/>
    <path class="fil19" d="M533.73 253.4c0,0 -5.5,-4.96 -14.23,-4.31 -8.73,0.66 -12.68,5.38 -14.29,6.88 -1.62,1.49 -0.24,2.57 0.72,1.62 0.96,-0.96 1.55,-1.14 2.39,-0.96 0.84,0.18 14.77,5.5 25.42,-3.23z"/>
    <path class="fil15" d="M533.73 253.4c0,0 -0.28,-0.25 -0.81,-0.64 -1.72,1.64 -6.17,5.05 -13.48,5.09 -7.09,0.04 -11.07,-2.2 -12.67,-3.38 -0.67,0.62 -1.18,1.15 -1.56,1.5 -1.62,1.49 -0.24,2.57 0.72,1.62 0.96,-0.96 1.55,-1.14 2.39,-0.96 0.84,0.18 14.77,5.5 25.42,-3.23z"/>
    <path class="fil20" d="M533.73 253.4c0,0 -5.5,-4.96 -14.23,-4.31 -6.49,0.49 -10.34,3.22 -12.55,5.21 1.83,-0.96 5.82,-2.74 13.02,-2.76 7.99,-0.02 11.62,1.56 13.02,2.43 0.25,-0.19 0.49,-0.38 0.74,-0.58z"/>
    <path class="fil21" d="M524.11 249.26c-1.41,-0.21 -2.95,-0.29 -4.61,-0.16 -2.27,0.17 -4.21,0.62 -5.88,1.21 -0.22,0.61 -0.34,1.27 -0.34,1.96 0,3.22 2.61,5.83 5.83,5.83 3.22,0 5.83,-2.61 5.83,-5.83 0,-1.1 -0.3,-2.13 -0.83,-3.01z"/>
    <circle class="fil22" cx="519.11" cy="252.27" r="2.48"/>
    <circle class="fil19" cx="516.63" cy="252.27" r="1.11"/>
    <path class="fil16" d="M506.95 254.3c0,0 2.61,-4.85 11.83,-6.11 9.21,-1.25 19.08,4.64 19.08,4.64 0,0 -3.73,0.9 -4.13,0.57 -0.4,-0.33 -6.8,-4.65 -13.76,-4.13 -6.96,0.53 -11.02,3.43 -13.02,5.03z"/>
   </g>
  </g>
 </g>
</svg>
