<?xml version="1.0" encoding="UTF-8"?>
<!DOCTYPE svg PUBLIC "-//W3C//DTD SVG 1.1//EN" "http://www.w3.org/Graphics/SVG/1.1/DTD/svg11.dtd">
<!-- Creator: CorelDRAW 2020 (64-Bit) -->
<svg xmlns="http://www.w3.org/2000/svg" xml:space="preserve" width="84.6667mm" height="211.667mm" version="1.1" style="shape-rendering:geometricPrecision; text-rendering:geometricPrecision; image-rendering:optimizeQuality; fill-rule:evenodd; clip-rule:evenodd"
viewBox="0 0 1329.29 3323.22"
 xmlns:xlink="http://www.w3.org/1999/xlink"
 xmlns:xodm="http://www.corel.com/coreldraw/odm/2003">
 <defs>
  <style type="text/css">
   <![CDATA[
    .fil0 {fill:none}
    .fil12 {fill:#182234}
    .fil4 {fill:#192233}
    .fil3 {fill:#23314B}
    .fil22 {fill:#402F24}
    .fil16 {fill:#413024}
    .fil1 {fill:#424852}
    .fil2 {fill:#58606D}
    .fil21 {fill:#625D54}
    .fil24 {fill:#8F7756}
    .fil17 {fill:#A38965}
    .fil20 {fill:#ADA89F}
    .fil18 {fill:#C2A67E}
    .fil15 {fill:#D2B58D}
    .fil14 {fill:#EAD6BA}
    .fil23 {fill:#EDE4D3}
    .fil19 {fill:white}
    .fil11 {fill:#182234;fill-rule:nonzero}
    .fil13 {fill:#192233;fill-rule:nonzero}
    .fil9 {fill:#23314B;fill-rule:nonzero}
    .fil10 {fill:#35496E;fill-rule:nonzero}
    .fil7 {fill:#C4C2CC;fill-rule:nonzero}
    .fil6 {fill:#D2B58D;fill-rule:nonzero}
    .fil5 {fill:#EAD6BA;fill-rule:nonzero}
    .fil8 {fill:#F2F1F6;fill-rule:nonzero}
   ]]>
  </style>
 </defs>
 <g id="Слой_x0020_1">
  <metadata id="CorelCorpID_0Corel-Layer"/>
  <rect class="fil0" x="-0" y="-0" width="1329.29" height="3323.22"/>
  <g id="_1218034078864">
   <g>
    <path class="fil1" d="M576.33 3016.53c0,0 4.53,13.38 6.97,34.64 2.44,21.26 2.24,30.96 2.24,30.96 0,0 -10.66,15.77 -33.53,24.67 -22.87,8.89 -35.35,8.96 -35.35,8.96l-22.77 -4.05c0,0 -9.02,8.36 -26.34,33.87 -17.33,25.51 -41.83,42.27 -77.3,47.07 -35.47,4.8 -100.24,3.26 -115.69,-3.59 -15.45,-6.86 -29.34,-24.36 -29.49,-29.91 -0.15,-5.54 -5.61,-18.93 14.23,-37.05 19.84,-18.13 117.82,-69.45 138.55,-105.61 20.73,-36.16 164.94,-37.79 178.47,0.05z"/>
    <path class="fil2" d="M569.41 3066.95c0,0 -29.47,12.62 -50.4,24.75 -20.93,12.12 -28.88,17.48 -42.81,31.88 -13.93,14.4 -30.23,43.6 -62.54,54.16 -32.3,10.56 -115.92,13.05 -131.83,6.19 -15.91,-6.86 -28.38,-23.21 -28.38,-23.21 0,0 21.39,21.16 47.76,21.73 26.37,0.57 88.9,-3.67 108.15,-9.77 19.25,-6.1 39.23,-19.15 62.25,-56.24 23.01,-37.09 83.75,-47.56 97.81,-49.48zm-210.35 84.24c0,0 -28.39,1.76 -60.78,-7.79 -32.4,-9.55 -27.24,-23.68 -27.24,-23.68 0,0 -19.45,23.91 16.23,35.06 35.68,11.15 71.8,-3.59 71.8,-3.59zm61 -109.4c0,0 -6.76,6.5 -2.42,12.95 4.34,6.45 15.64,47.08 15.64,47.08 0,0 -15.67,-31.59 -21.5,-41.73 -5.83,-10.14 -6.67,-15.46 -5.61,-18.93 1.06,-3.47 1.7,-5.32 1.7,-5.32 0,0 7.16,-1 12.18,5.95z"/>
   </g>
   <g>
    <path class="fil1" d="M952.22 2999.98c0,0 35.23,70.78 39.23,83.1 3.99,12.33 5.19,54.81 5.19,54.81 0,0 3.21,58.12 -59.58,61.9 -62.79,3.78 -89.1,-32.66 -90.96,-63.1 -1.86,-30.44 -5.31,-71.92 -14.87,-91.89 -9.56,-19.98 -9.56,-19.98 -9.56,-19.98 0,0 -6.9,-37.18 0.58,-51.34 7.48,-14.15 114.85,14.11 129.96,26.48z"/>
    <path class="fil2" d="M981.69 3136.17c0,0 -4.05,37.6 -48.38,41.14 -44.33,3.54 -65.12,-28.95 -67.8,-41.79 -2.67,-12.84 6.66,23.32 48.37,25.43 41.71,2.11 60.25,-13.39 67.8,-24.77zm-66.5 -111.88c0,0 10.17,24.81 20.09,32.06 9.92,7.25 32.04,12.41 32.04,12.41 0,0 -29.94,-11.57 -34.43,-23.42 -4.49,-11.85 -7.75,-20.97 -7.75,-20.97 0,0 -3.46,-7.96 -9.95,-0.08zm-36.03 2.53c0,0 6.49,16.86 4.01,27.59 -2.48,10.73 -14.58,25.05 -14.58,25.05 0,0 20.1,-17.87 22.08,-29.96 1.98,-12.1 -2.22,-21.64 -2.22,-21.64 0,0 -4.03,-3.31 -9.29,-1.03z"/>
   </g>
   <path class="fil3" d="M929.39 1355.61c0,0 105.33,144.26 95.35,292.14 -9.98,147.88 -22.17,518.86 -22.17,518.86l5.83 193.9 -35.26 537.45 -8.64 103.29c0,0 -72.85,14.65 -104.01,15.84 -31.16,1.19 -44.26,-2.74 -44.26,-2.74 0,0 -30.51,-50.4 -28.92,-68.9 1.59,-18.5 4.09,-100.01 0.81,-116.11 -3.28,-16.1 -67.48,-501.68 -65.4,-562.98 2.08,-61.29 -2.49,-85.46 -3.77,-94.99 -1.28,-9.54 -24.84,-359.29 -24.84,-359.29 0,0 -73.26,486.95 -62.45,510.14 10.81,23.19 14.53,377.73 -11.83,505.59 -26.36,127.86 -15.41,132.29 -15.41,132.29l-24.92 68.38c0,0 -42.57,18.16 -97.86,11.42 -55.29,-6.74 -79.68,-31.16 -79.68,-31.16 0,0 10.07,-40.1 10.43,-72.56 0.37,-32.46 -34.67,-666.52 -37.07,-698.87 -2.4,-32.36 -30.84,-468.18 -35.29,-563.88 -4.45,-95.71 89.63,-323.89 89.63,-323.89 0,0 382.06,6.89 499.72,6.09z"/>
   <path class="fil4" d="M642.25 1501.61c0,0 -1.66,170.59 -0.28,189.98 1.38,19.39 42.92,48.46 42.92,48.46 0,0 -30.46,-42.23 -29.08,-52.62 1.38,-10.39 3.74,-187.21 3.74,-187.21 0,0 -8.31,-1.38 -17.31,1.38z"/>
   <g>
    <path class="fil5" d="M258.61 1629.66c0,0 30.16,23.57 29.64,65.35 -0.14,10.65 -8.76,30.96 -12.18,41.13 -1.92,5.76 -6.49,17.21 -6.88,23.19 -0.59,9.15 4.43,27.35 3.87,36.5 -0.7,11.45 -9.42,40.5 -21.89,41.26 -12.36,0.77 -21.23,-29.3 -22.13,-40.62 -0.8,-10.23 12.39,-34.67 3.52,-40.94 -3.03,-2.14 -9.84,2.02 -13.02,3.93 -2.65,1.6 -8.66,5.18 -9.84,7.87 -1.6,3.68 -3.42,10.78 -4.75,13.85 -0.56,1.31 -5.24,8.77 -4.01,13.37 2.51,9.37 6.84,40.81 6.84,40.81 0,0 16.13,7.55 23.18,14.52 3.32,3.26 19.72,8.35 23.74,10.68 6,3.49 15.05,15.77 10.61,20.89 -6.21,7.13 -35.78,0.83 -46.22,-4.96 -14.59,-8.09 -40.46,-17.46 -46.39,-28.88 -5.65,-10.91 -9.81,-46.25 -13.68,-56.39 -3.21,-8.38 -4.54,-11.26 -7.3,-20.47 -2.97,-9.82 7.4,-45.93 16.06,-75.46 7.09,-24.05 25.27,-64.04 25.27,-64.04l65.56 -1.6z"/>
    <path class="fil6" d="M269.8 1811.59c1.49,2.45 3.62,5.95 4.59,7.49 2.65,4.25 11.21,12.03 10.72,16.89 -0.21,2.14 -6.14,6.53 -6.14,6.53 0,0 16.13,14.43 16.02,20.79 -0.04,2.08 -5.41,6.59 -5.41,6.59 0,0 0.03,10.65 -2.79,12.54 -3.72,2.5 -14.19,0.83 -21.62,-0.8l0.16 -0.16c4.44,-5.12 -4.61,-17.4 -10.61,-20.89 -4.01,-2.33 -20.42,-7.42 -23.74,-10.68 -5.65,-5.59 -18.84,-11.54 -23.18,-13.69l-0.11 -1.67c-0.7,-5.04 -4.46,-31.51 -6.73,-39.98 -1.22,-4.61 3.46,-12.06 4.01,-13.37 1.33,-3.07 3.14,-10.17 4.75,-13.85 1.19,-2.69 7.19,-6.27 9.84,-7.87 3.18,-1.92 9.99,-6.08 13.02,-3.93 8.87,6.27 -4.33,30.71 -3.53,40.94 0.91,11.32 9.77,41.39 22.13,40.62 8.27,-0.51 14.9,-13.48 18.62,-25.5zm-76.85 -180.37c0,0 -3.98,9.15 -5.48,12.48 -1.64,3.68 -4.68,10.97 -4.68,10.97 0,0 33.93,-1.85 45.69,-1.85 26.84,0.03 53.69,9.88 53.69,9.88 0,0 -3.35,-8.19 -7.61,-15 -3.73,-5.95 -11.69,-16.54 -11.69,-16.54l-37.14 -3.77 -32.78 3.84z"/>
   </g>
   <path class="fil7" d="M180.56 1604.2l-1.52 34.13c0,0 37.43,-0.84 50.48,0.19 43.91,3.46 56.96,9.44 56.96,9.44l8.1 -43.69 -114.01 -0.06z"/>
   <path class="fil5" d="M559.22 445.18c100.2,0 106.02,-8.99 208.33,-8.99 -2.43,18.87 12.57,113.14 33.83,136.12l-24.51 116.65 -37.42 239.13 -195.24 -161.4 -17.11 -163.07c41.3,-32.05 35.11,-127.13 32.12,-158.44z"/>
   <path class="fil6" d="M558.91 445.18c100.75,0 107.34,-8.17 210.22,-8.17 -0.87,6.69 1.19,23.09 2.14,42.5 -11.76,16.64 -28.84,35.03 -74.46,65.26 -45.62,30.23 -102.32,17.91 -138.96,-6.4 3.3,-37.98 4.02,-75.8 1.07,-93.19zm228.68 101.04c2.98,10.33 7.39,18.41 12.03,23.39l-22.1 119.35 -24.3 154.46c-11.48,24.89 -24.56,47.16 -38.6,63.88l-165.54 -136.1c-2.41,-6.65 -4.73,-13.33 -6.95,-20.03l-15.01 -147.56c16.54,-12.76 22.49,-28.87 28.77,-54.47l2.68 4.63c0,0 13.83,68.53 30.8,108.68 16.97,40.15 26.76,69.23 24.12,82.04 -2.64,12.81 1.13,20.08 7.92,30.81 6.79,10.73 33.55,46.39 35.06,39.81 1.51,-6.58 5.66,-42.23 24.51,-66.46 18.85,-24.23 40.72,-40.85 32.8,-55.04 -7.92,-14.19 -5.3,-25.48 9.43,-46.73 14.73,-21.25 54.77,-71.45 64.39,-100.67zm-128.48 38.01c0,0 -2.26,16.27 3.02,26.66 5.28,10.38 13.57,5.19 13.57,5.19 0,0 -14.33,-6.84 -16.59,-31.85z"/>
   <path class="fil8" d="M487.76 1416.87c188.82,47.66 327.77,43.74 467.9,-28.7 -28.96,-60.07 -53.61,-111.3 -82.58,-171.37 -91.79,-222.02 -55.97,-520.8 -45.3,-625.07 -18.67,-19.03 -23.22,-34.59 -23.22,-34.59 0,0 -8.29,-6.01 -12.67,-0.36 -7.96,43.54 -72.01,98.6 -72.98,111.29 -4.57,16.79 14.43,16.15 12.43,25.85 -3.9,18.81 -32.41,48.75 -42,65.73 -11.75,20.76 -21.04,96.34 -21.04,96.34 0,0 -35.45,-44.81 -43.73,-55.11 -35.79,-46.72 -19.5,-40.41 -20.12,-65.74 -0.2,-8.16 -0.35,-13.38 -8.19,-37.2 -7.41,-22.48 -33.06,-73.86 -42.11,-141.12 -0.4,-2.97 -12.57,6.79 -14.53,10.42 -15.69,31.14 -15.06,51.93 -31.96,97.02 -39.55,173.88 135.99,547.76 -19.89,752.58z"/>
   <path class="fil7" d="M811.21 571.25c0,0 -18.28,67.63 -34.19,141.96 -1.77,-10.52 -7.45,-28.15 -7.96,-33.73 -2.32,-25.13 -15.94,-29.8 -25.3,-29.99 -11.63,-0.22 -23.48,10.97 -25.52,20.95 -0.82,4.02 0.55,7.99 3.13,11.4 -2.34,-4.84 -2.27,-10.38 6.97,-21.12 9.24,-10.74 31.29,1.62 34.16,12.29 3.68,13.69 11.63,34.5 14.2,41.69 -7.71,36.16 -14.83,73.81 -18.99,105.95 -11.58,89.63 -0.58,274.18 26.58,360.02 22.92,72.3 103.92,153.86 111.98,218.83 -92.3,49.51 -236.37,57.78 -338.47,13.31 5.21,-54.31 32.18,-204.89 31.85,-270.22 -0.44,-85.85 -38.1,-304.63 -49.75,-375.91 -1.35,-8.26 -2.39,-17.25 -3.19,-26.67 5.23,-3.27 11.02,-8.26 15.46,-15.78 10.63,-18 32.93,-6.58 39.33,4.15 6.41,10.73 8.44,19.39 8.44,19.39 0,0 8.99,-26.31 -12.14,-44.65 -21.14,-18.35 -33.34,2.42 -44.36,21.46 -2.49,4.31 -4.89,7.74 -7.12,10.5 -5.3,-71.33 -0.73,-159.15 -0.73,-159.15 -4.43,5.58 -7.3,7.7 -10.64,12.19 -121.43,203.13 81.87,651.13 -50.89,824.76 220.83,60 334.32,40.99 484.46,-17.95 -224.53,-458.12 -86.69,-534.77 -130.76,-803.2 -5.52,-6.83 -11.04,-13.67 -16.56,-20.5z"/>
   <path class="fil6" d="M1015.41 1533.79c0,0 -6.91,12.51 -8.15,15.83 -3.81,9.88 -15.23,46.92 -15.23,46.92l-64.8 -119.89 19.06 -14.49 69.12 71.62z"/>
   <path class="fil7" d="M931.99 1473.05l-7.52 20.99c0,0 34.29,18.42 45.77,24.47 15.4,7.91 44.02,20.22 44.02,20.22 0,0 5.02,-12.6 6.14,-17.08 0.77,-3.07 5.53,-18.74 5.53,-18.74l-93.95 -29.85z"/>
   <path class="fil9" d="M525.86 586.75c0,0 -38.77,29.84 -87.77,43.82 -147.33,41.94 -180.07,71.75 -185.5,218.87 -3.7,100.31 -14.74,178.4 -31.94,275.47 -23.19,93.66 -30.89,146.39 -34.46,218.88 -3.57,72.49 -11.01,266.1 -11.01,266.1 25.78,-0.52 96.82,2.42 118.98,7.14 26.58,-112.67 68.08,-322.6 84.94,-363.74 1.46,47.74 -23.16,125.96 -35.7,206.32 -9.07,58.15 -18.72,225.45 -18.72,225.45 0,0 75.34,62.21 99.17,45.84 52.26,-35.86 85.06,-172.98 123.32,-352.27 16.98,-79.52 21.56,-244.12 16.01,-319.06 -5.02,-68.04 -31.38,-206.7 -37.85,-269.74 -5.24,-51.12 0.52,-203.08 0.52,-203.08z"/>
   <path class="fil9" d="M812.43 572.72c0,0 -41.69,167.11 -44.63,226.51 -1.82,36.94 -5.04,110.96 -4.05,147.87 1.44,53.32 1.35,170.9 14.54,222.34 9.95,38.77 41.14,96.57 69.52,125.52 55.37,56.49 66.45,186.26 66.45,186.26 45.88,21.09 85.54,38.89 111.91,50.07 0,0 41.99,-76.23 81.38,-155.49 39.93,-80.36 67.74,-196.07 70.99,-230.94 0.97,-10.36 -7.58,-108.62 -31.87,-206.13 -27.3,-109.62 -55.14,-201.8 -82.39,-238.63 -21.5,-29.06 -198.78,-98.47 -251.84,-127.38zm161.94 599.73c-6.03,-61.13 -23.17,-152.96 -23.17,-152.96 0,0 8.5,36.6 25.85,85.67 19.39,54.79 28.86,62.06 29.75,66.16 -2.94,16.15 -7.06,31.67 -17.14,69.99 -2.13,-8.58 -13.96,-53.48 -15.29,-68.86z"/>
   <path class="fil10" d="M479.7 627.55c-6.38,13.72 -71.28,124.69 -71.97,135.45 3.82,15.6 46.19,103.99 64.29,142.84 -15.74,-52.18 -38.34,-120.43 -36.01,-141.54 2.24,-19.93 31.72,-101.02 43.68,-136.76z"/>
   <path class="fil11" d="M1011.41 1179.87c-18.65,95.06 -68.66,174.87 -91.17,287.89 0.49,3.35 5.41,13.22 6.69,19.42 30.97,-76.98 89.95,-233.5 84.48,-307.32z"/>
   <path class="fil12" d="M896.82 757.31l-63.28 15.19 63.31 -0.38c-10.48,37.54 -71.64,259.91 -103.01,382.89 35.47,-107.09 118.22,-390.78 118.22,-390.78 0,0 -16.28,-88.6 -77.34,-160.16 35.26,48.17 51.83,95.47 62.1,153.24z"/>
   <path class="fil12" d="M406.91 757.31l63.28 15.19 -63.31 -0.38c10.48,37.54 115.31,234.8 146.68,357.78 -35.47,-107.09 -161.89,-365.66 -161.89,-365.66 0,0 19.53,-58.03 86.41,-135.82 -35.26,48.17 -59.88,89.21 -71.16,128.9z"/>
   <path class="fil10" d="M444.29 634.91c-155.7,56.5 -173.93,64.2 -181.69,223.54 -1.95,40.09 -3.7,74.3 -6.35,106.27 -1.83,11.45 -3.61,21.98 -4.78,31.16 -2.01,15.88 -6.33,47.42 -9.43,63.02 -5.36,26.82 -10.2,51.43 -14.61,74.76 -3,11.54 -5.73,22.4 -8.24,32.72 15.86,25.23 64.42,-285.55 70.91,-360.59 7.48,-86.32 68.13,-131.97 123.79,-155.21 12.21,-5.1 22.22,-10.43 30.41,-15.66z"/>
   <path class="fil4" d="M532.8 1459.3c87.04,46.15 230.08,26.83 375.23,-22.07l4.3 9.73c-108.27,45.28 -274.96,77.74 -382.91,26.47l3.38 -14.13z"/>
   <path class="fil10" d="M1162.79 1065.21c-4.99,-35.68 -12.65,-79.63 -23.56,-123.44 -26.64,-106.98 -53.81,-196.94 -80.41,-232.88 -18.3,-24.73 -152.23,-79.42 -220.53,-111.71l-0 0c0,0 165.06,92.15 193.44,118.1 25.29,23.12 86.01,205.97 131.06,349.94z"/>
   <path class="fil13" d="M336.87 1693.8c0,0 62.05,59.01 86.08,42.64 52.26,-35.57 106.54,-213.27 119.07,-346.39 -26.36,85.25 -83.37,260.48 -113.27,297.04 -29.91,36.55 -91.87,6.72 -91.87,6.72z"/>
  </g>
  <g id="_1218034090288">
   <path class="fil14" d="M785.56 325.42c0,0 16.27,-4.15 19.21,2.25 2.94,6.4 6.92,34.79 3.12,52.1 -3.81,17.31 -19.73,41.54 -27,41.54 -7.27,0 -7.62,-2.42 -7.62,-2.42 -4.47,63.74 -23.75,70.79 -75.12,118.74 -10.21,9.53 -57.2,9.16 -67.01,0 -51.37,-47.95 -71.69,-53.96 -75.12,-118.74 0,0 -0.35,2.42 -7.62,2.42 -7.27,0 -23.19,-24.23 -27,-41.54 -3.81,-17.31 0.17,-45.69 3.12,-52.1 2.94,-6.4 19.21,-2.25 19.21,-2.25 -12.63,-72 -8.82,-136.73 48.64,-160.27 46.37,-18.99 98.18,-18.99 144.55,0 57.46,23.54 61.27,88.27 48.64,160.27z"/>
   <path class="fil15" d="M546.32 372.35c0,0 -8.34,-3.29 -6.29,-13.67 2.05,-10.39 2.63,-17.48 -2.34,-19.04 -4.97,-1.56 -10.68,16.96 -9.36,31.85 1.32,14.89 13.02,32.37 13.02,32.37 0,0 -14.78,-16.1 -15.07,-39.29 -0.29,-23.19 4.1,-31.68 10.1,-31.68 6,0 8.92,8.31 8.92,9.87 0,1.56 -1.9,15.23 1.02,29.6zm232.97 0c0,0 9.87,-3.29 7.44,-13.67 -2.42,-10.39 -3.11,-17.48 2.77,-19.04 5.88,-1.56 12.63,16.96 11.08,31.85 -1.56,14.89 -15.4,32.37 -15.4,32.37 0,0 17.48,-16.1 17.83,-39.29 0.35,-23.19 -4.85,-31.68 -11.94,-31.68 -7.1,0 -10.56,8.31 -10.56,9.87 0,1.56 2.25,15.23 -1.21,29.6z"/>
   <path class="fil15" d="M556.03 419.39l-0.01 -0.51c0,0 -0.35,2.42 -7.62,2.42 -1.24,0 -2.74,-0.71 -4.39,-1.97 0.93,0.58 3.3,1.23 6.49,-3.67 4.15,-6.4 7.15,-32.19 6.87,-21.72 -0.14,5.1 -0.58,15.76 -1.34,25.45zm217.27 0l0.01 -0.51c0,0 0.35,2.42 7.62,2.42 1.24,0 2.74,-0.71 4.39,-1.97 -0.93,0.58 -3.3,1.23 -6.49,-3.67 -4.15,-6.4 -7.15,-32.19 -6.87,-21.72 0.14,5.1 0.58,15.76 1.34,25.45z"/>
   <path class="fil16" d="M574.58 329.14c0,0 1.73,1.65 3.13,1.15 1.4,-0.49 4.12,-1.81 6.34,-2.22 2.22,-0.41 18.88,0.93 33.74,3.38 14.86,2.44 21.72,4.31 23.61,3.32 1.89,-0.99 2.52,-9 -0.36,-10.15 -2.88,-1.15 -28.52,-4.44 -40.2,-6.41 -11.68,-1.97 -12.25,-1.88 -14.56,-1.14 -2.3,0.74 -8.97,6.16 -11.69,12.09z"/>
   <path class="fil15" d="M626.36 337.63c0,0 10.12,4.03 15.47,12.47 5.35,8.43 5.19,16.58 5.68,8.76 0.49,-7.82 -0.87,-17.19 -7.2,-20.16 -6.34,-2.96 -16.41,-3.04 -13.95,-1.07z"/>
   <g>
    <path class="fil17" d="M587.56 347.56c0,0 11.77,-7.53 27.98,-5.39 16.21,2.14 19.26,7.45 18.93,5.8 -0.33,-1.65 -3.1,-5.18 -21.02,-6.58 -17.93,-1.4 -26.7,3.62 -25.88,6.17z"/>
    <path class="fil18" d="M601.38 363.48c0,0 8.89,2.38 17.53,1.15 8.64,-1.23 10.53,-5.18 10.53,-3.46 0,1.73 -11.85,10.04 -28.06,2.3z"/>
    <path class="fil19" d="M594.97 349.33c0,0 7.57,-6.83 19.58,-5.93 12.01,0.91 17.44,7.4 19.66,9.46 2.22,2.06 0.33,3.54 -0.99,2.22 -1.32,-1.32 -2.14,-1.57 -3.29,-1.32 -1.15,0.25 -20.33,7.57 -34.97,-4.44z"/>
    <path class="fil15" d="M594.97 349.33c0,0 0.39,-0.35 1.12,-0.88 2.36,2.25 8.48,6.94 18.54,7.01 9.76,0.06 15.23,-3.02 17.43,-4.66 0.92,0.85 1.62,1.58 2.15,2.06 2.22,2.06 0.33,3.54 -0.99,2.22 -1.32,-1.32 -2.14,-1.57 -3.29,-1.32 -1.15,0.25 -20.33,7.57 -34.97,-4.44z"/>
    <path class="fil20" d="M594.97 349.33c0,0 7.57,-6.83 19.58,-5.93 8.93,0.67 14.22,4.44 17.26,7.17 -2.52,-1.32 -8,-3.76 -17.92,-3.79 -11,-0.03 -15.99,2.14 -17.91,3.34 -0.34,-0.26 -0.68,-0.52 -1.01,-0.79z"/>
    <path class="fil21" d="M608.21 343.62c1.94,-0.29 4.06,-0.39 6.34,-0.22 3.12,0.24 5.8,0.85 8.09,1.66 0.3,0.84 0.47,1.75 0.47,2.7 0,4.43 -3.59,8.02 -8.02,8.02 -4.43,0 -8.02,-3.59 -8.02,-8.02 0,-1.52 0.42,-2.93 1.15,-4.14z"/>
    <circle class="fil22" cx="615.08" cy="347.77" r="3.42"/>
    <circle class="fil19" cx="611.67" cy="347.77" r="1.52"/>
    <path class="fil16" d="M631.81 350.57c0,0 -3.6,-6.68 -16.27,-8.4 -12.67,-1.73 -26.25,6.38 -26.25,6.38 0,0 5.13,1.23 5.68,0.78 0.55,-0.45 9.35,-6.4 18.93,-5.68 9.57,0.73 15.16,4.72 17.92,6.92z"/>
   </g>
   <g>
    <path class="fil18" d="M644.52 401.47c0,0 -5.16,3.2 -4.49,9.85 0.66,6.64 4.55,9.22 9.35,9.12 4.8,-0.1 4.73,-1.09 4.7,-0.22 -0.03,0.87 -9.56,1.87 -13.9,-1.96 -4.34,-3.83 -4.29,-13.63 4.34,-16.78zm40.25 0c0,0 5.16,3.2 4.5,9.85 -0.67,6.64 -4.55,9.22 -9.35,9.12 -4.8,-0.1 -4.73,-1.09 -4.7,-0.22 0.03,0.87 9.56,1.87 13.9,-1.96 4.34,-3.83 4.29,-13.63 -4.34,-16.78z"/>
    <path class="fil23" d="M660.56 401.24c0,0 -4.21,1.77 -2.55,5.53 1.66,3.76 7.23,2.47 7.64,-1.09 0.41,-3.57 -2.84,-5.12 -5.08,-4.44z"/>
    <path class="fil24" d="M659.45 421.2c0,0 -2.4,-4.9 -6.39,-4.8 -3.99,0.1 -2.05,4.03 -0.87,3.98 1.18,-0.05 4.91,-0.24 7.26,0.82zm10.4 0c0,0 2.15,-4.12 6.13,-4.03 3.99,0.1 2.35,3.25 1.18,3.2 -1.18,-0.05 -4.96,-0.24 -7.31,0.82z"/>
   </g>
   <path class="fil18" d="M667.9 443.7c0,0 0.81,4.71 -2.42,4.98 -3.23,0.27 -4.17,-2.42 -4.17,-2.42 0,0 5.99,1.43 6.59,-2.56z"/>
   <path class="fil18" d="M615.01 462.91c-1.07,-1.15 -1.43,-2.95 -0.68,-4.14 1.36,-2.15 4.37,0.14 6.33,1.08 1.96,0.94 11,1.62 17.03,-2.42 6.03,-4.04 15.37,-7.54 20.8,-5.25 4.48,1.89 7.85,1.89 12.32,0 5.42,-2.29 14.77,1.21 20.8,5.25 6.03,4.04 15.07,3.36 17.03,2.42 1.96,-0.94 4.97,-3.23 6.33,-1.08 0.78,1.23 0.37,3.12 -0.8,4.26 -2.55,0.43 -6.28,-0.19 -7.77,-0.19 -2.35,0 -15,0.67 -33.84,1.21 -18.84,0.54 -37,-2.69 -50.32,-1.08 -3.01,0.36 -5.38,0.32 -7.23,-0.07z"/>
   <path class="fil23" d="M654.74 475.36c0,0 9.96,0.81 18.17,0.54 8.21,-0.27 8.34,6.19 -5.65,7.8 -13.99,1.62 -21.66,-7.94 -12.51,-8.34z"/>
   <path class="fil18" d="M650.46 486.8c0,0 3.43,5.45 14.4,5.04 10.97,-0.4 13.97,-5.6 13.97,-5.6 0,0 -9.66,2.31 -28.37,0.56z"/>
   <path class="fil16" d="M754.71 329.14c0,0 -1.73,1.65 -3.13,1.15 -1.4,-0.49 -4.11,-1.81 -6.34,-2.22 -2.22,-0.41 -18.88,0.93 -33.74,3.38 -14.86,2.44 -21.72,4.31 -23.61,3.32 -1.89,-0.99 -2.52,-9 0.36,-10.15 2.88,-1.15 28.52,-4.44 40.2,-6.41 11.68,-1.97 12.25,-1.88 14.56,-1.14 2.3,0.74 8.97,6.16 11.69,12.09z"/>
   <path class="fil15" d="M702.93 337.63c0,0 -10.12,4.03 -15.47,12.47 -5.35,8.43 -5.19,16.58 -5.68,8.76 -0.49,-7.82 0.87,-17.19 7.2,-20.16 6.34,-2.96 16.41,-3.04 13.95,-1.07z"/>
   <g>
    <path class="fil17" d="M741.73 347.56c0,0 -11.77,-7.53 -27.98,-5.39 -16.21,2.14 -19.26,7.45 -18.93,5.8 0.33,-1.65 3.1,-5.18 21.02,-6.58 17.93,-1.4 26.7,3.62 25.88,6.17z"/>
    <path class="fil18" d="M727.9 363.48c0,0 -8.89,2.38 -17.53,1.15 -8.64,-1.23 -10.53,-5.18 -10.53,-3.46 0,1.73 11.85,10.04 28.06,2.3z"/>
    <path class="fil19" d="M734.32 349.33c0,0 -7.57,-6.83 -19.58,-5.93 -12.01,0.91 -17.44,7.4 -19.66,9.46 -2.22,2.06 -0.33,3.54 0.99,2.22 1.32,-1.32 2.14,-1.57 3.29,-1.32 1.15,0.25 20.33,7.57 34.97,-4.44z"/>
    <path class="fil15" d="M734.32 349.33c0,0 -0.39,-0.35 -1.12,-0.88 -2.36,2.25 -8.48,6.94 -18.55,7.01 -9.76,0.06 -15.23,-3.02 -17.43,-4.66 -0.92,0.85 -1.62,1.58 -2.15,2.06 -2.22,2.06 -0.33,3.54 0.99,2.22 1.32,-1.32 2.14,-1.57 3.29,-1.32 1.15,0.25 20.33,7.57 34.97,-4.44z"/>
    <path class="fil20" d="M734.32 349.33c0,0 -7.57,-6.83 -19.58,-5.93 -8.93,0.67 -14.22,4.44 -17.26,7.17 2.52,-1.32 8,-3.76 17.92,-3.79 11,-0.03 15.99,2.14 17.91,3.34 0.34,-0.26 0.68,-0.52 1.01,-0.79z"/>
    <path class="fil21" d="M721.08 343.62c-1.94,-0.29 -4.06,-0.39 -6.34,-0.22 -3.12,0.24 -5.8,0.85 -8.09,1.66 -0.3,0.84 -0.47,1.75 -0.47,2.7 0,4.43 3.59,8.02 8.02,8.02 4.43,0 8.02,-3.59 8.02,-8.02 0,-1.52 -0.42,-2.93 -1.15,-4.14z"/>
    <circle class="fil22" cx="714.21" cy="347.77" r="3.42"/>
    <circle class="fil19" cx="710.79" cy="347.77" r="1.52"/>
    <path class="fil16" d="M697.48 350.57c0,0 3.6,-6.68 16.27,-8.4 12.67,-1.73 26.25,6.38 26.25,6.38 0,0 -5.13,1.23 -5.68,0.78 -0.55,-0.45 -9.35,-6.4 -18.93,-5.68 -9.57,0.73 -15.16,4.72 -17.92,6.92z"/>
   </g>
  </g>
 </g>
</svg>
