<svg width="85" height="212" viewBox="0 0 85 212" fill="none" xmlns="http://www.w3.org/2000/svg">
<g clip-path="url(#clip0)">
<path fill-rule="evenodd" clip-rule="evenodd" d="M36.2473 19.7227H48.4506V24.0878H36.2473V19.7227Z" fill="#EAD6BA"/>
<path fill-rule="evenodd" clip-rule="evenodd" d="M36.5986 20.9641C36.5986 20.9641 36.709 21.069 36.7983 21.0377C36.8875 21.0065 37.0604 20.9229 37.202 20.8961C37.3436 20.8704 38.4043 20.9552 39.3511 21.1113C40.298 21.2675 40.734 21.3857 40.8545 21.3221C40.9749 21.2597 41.0151 20.7489 40.8311 20.6753C40.6482 20.6017 39.0154 20.3931 38.2704 20.2671C37.5265 20.141 37.4897 20.1466 37.3436 20.1946C37.1964 20.2414 36.7715 20.5872 36.5986 20.9641Z" fill="#413024"/>
<path fill-rule="evenodd" clip-rule="evenodd" d="M39.8965 21.5048C39.8965 21.5048 40.5411 21.7614 40.8813 22.2989C41.2226 22.8365 41.2114 23.3551 41.2426 22.8577C41.2739 22.3591 41.188 21.7625 40.7843 21.574C40.3805 21.3855 39.7393 21.3799 39.8965 21.506V21.5048Z" fill="#D2B58D"/>
<path fill-rule="evenodd" clip-rule="evenodd" d="M37.425 22.1376C37.425 22.1376 38.1745 21.6581 39.2072 21.7941C40.2399 21.9302 40.434 22.2681 40.4128 22.1633C40.3916 22.0584 40.2154 21.8332 39.0734 21.7439C37.9313 21.6547 37.3726 21.9748 37.425 22.1376Z" fill="#A38965"/>
<path fill-rule="evenodd" clip-rule="evenodd" d="M38.306 23.1512C38.306 23.1512 38.8726 23.3029 39.4224 23.2248C39.9722 23.1467 40.0927 22.8947 40.0927 23.0051C40.0927 23.1155 39.3377 23.6441 38.306 23.1523V23.1512Z" fill="#C2A67E"/>
<path fill-rule="evenodd" clip-rule="evenodd" d="M37.8967 22.2504C37.8967 22.2504 38.3785 21.8155 39.1436 21.8735C39.9087 21.9315 40.2544 22.3452 40.396 22.4757C40.5377 22.6073 40.4172 22.701 40.3336 22.6174C40.2499 22.5337 40.1975 22.5181 40.1239 22.5337C40.0503 22.5493 38.8291 23.0155 37.8967 22.2504Z" fill="white"/>
<path fill-rule="evenodd" clip-rule="evenodd" d="M37.8967 22.2501C37.8967 22.2501 37.9213 22.2278 37.9681 22.1943C38.1187 22.3382 38.509 22.636 39.1492 22.6404C39.7704 22.6438 40.1183 22.4475 40.26 22.3438C40.3191 22.3973 40.3637 22.4442 40.3972 22.4754C40.5388 22.607 40.4184 22.7007 40.3347 22.617C40.2511 22.5334 40.1986 22.5178 40.125 22.5334C40.0514 22.549 38.8302 23.0152 37.8978 22.2501H37.8967Z" fill="#D2B58D"/>
<path fill-rule="evenodd" clip-rule="evenodd" d="M37.8967 22.2504C37.8967 22.2504 38.3785 21.8155 39.1436 21.8735C39.7124 21.9159 40.0492 22.1557 40.2433 22.3296C40.0827 22.246 39.7336 22.0898 39.1023 22.0876C38.4019 22.0854 38.0841 22.2237 37.9614 22.3006C37.9402 22.2839 37.9179 22.2672 37.8967 22.2504Z" fill="#ADA89F"/>
<path fill-rule="evenodd" clip-rule="evenodd" d="M38.7411 21.8869C38.8649 21.869 38.9998 21.8623 39.1448 21.8724C39.3433 21.888 39.514 21.9259 39.6601 21.9783C39.679 22.0318 39.6902 22.0898 39.6902 22.1501C39.6902 22.4322 39.4615 22.6608 39.1794 22.6608C38.8972 22.6608 38.6686 22.4322 38.6686 22.1501C38.6686 22.053 38.6953 21.9638 38.7422 21.8857L38.7411 21.8869Z" fill="#262014"/>
<path fill-rule="evenodd" clip-rule="evenodd" d="M39.1782 21.9336C39.2986 21.9336 39.3956 22.0306 39.3956 22.1511C39.3956 22.2715 39.2986 22.3685 39.1782 22.3685C39.0577 22.3685 38.9607 22.2715 38.9607 22.1511C38.9607 22.0306 39.0577 21.9336 39.1782 21.9336Z" fill="#140D08"/>
<path fill-rule="evenodd" clip-rule="evenodd" d="M38.9607 22.0542C39.0142 22.0542 39.0577 22.0977 39.0577 22.1512C39.0577 22.2048 39.0142 22.2483 38.9607 22.2483C38.9071 22.2483 38.8636 22.2048 38.8636 22.1512C38.8636 22.0977 38.9071 22.0542 38.9607 22.0542Z" fill="white"/>
<path fill-rule="evenodd" clip-rule="evenodd" d="M40.2433 22.3294C40.2433 22.3294 40.0146 21.9044 39.2072 21.794C38.3997 21.6847 37.5354 22.2 37.5354 22.2C37.5354 22.2 37.8622 22.2781 37.8967 22.2502C37.9313 22.2212 38.4923 21.842 39.1024 21.8888C39.7124 21.9345 40.0682 22.1899 40.2433 22.3294Z" fill="#413024"/>
<path fill-rule="evenodd" clip-rule="evenodd" d="M48.0714 20.9641C48.0714 20.9641 47.961 21.069 47.8718 21.0377C47.7826 21.0065 47.6097 20.9229 47.4681 20.8961C47.3264 20.8704 46.2658 20.9552 45.3189 21.1113C44.3721 21.2675 43.936 21.3857 43.8156 21.3221C43.6951 21.2597 43.655 20.7489 43.839 20.6753C44.023 20.6017 45.6546 20.3931 46.3996 20.2671C47.1435 20.141 47.1803 20.1466 47.3264 20.1946C47.4736 20.2414 47.8986 20.5872 48.0714 20.9641Z" fill="#413024"/>
<path fill-rule="evenodd" clip-rule="evenodd" d="M44.7736 21.505C44.7736 21.505 44.129 21.7615 43.7888 22.2991C43.4475 22.8366 43.4587 23.3552 43.4275 22.8567C43.3962 22.3582 43.4821 21.7615 43.8858 21.573C44.2896 21.3845 44.9308 21.379 44.7736 21.505Z" fill="#D2B58D"/>
<path fill-rule="evenodd" clip-rule="evenodd" d="M47.245 22.1376C47.245 22.1376 46.4956 21.6581 45.4628 21.7941C44.4301 21.9302 44.236 22.2681 44.2572 22.1633C44.2784 22.0584 44.4546 21.8332 45.5967 21.7439C46.7387 21.6547 47.2975 21.9748 47.245 22.1376Z" fill="#A38965"/>
<path fill-rule="evenodd" clip-rule="evenodd" d="M46.3639 23.1512C46.3639 23.1512 45.7974 23.3029 45.2475 23.2248C44.6977 23.1467 44.5773 22.8947 44.5773 23.0051C44.5773 23.1155 45.3323 23.6441 46.3639 23.1523V23.1512Z" fill="#C2A67E"/>
<path fill-rule="evenodd" clip-rule="evenodd" d="M46.7733 22.2504C46.7733 22.2504 46.2915 21.8155 45.5264 21.8735C44.7613 21.9315 44.4156 22.3452 44.274 22.4757C44.1323 22.6073 44.2528 22.701 44.3364 22.6174C44.4201 22.5337 44.4725 22.5181 44.5461 22.5337C44.6197 22.5493 45.8409 23.0155 46.7733 22.2504Z" fill="white"/>
<path fill-rule="evenodd" clip-rule="evenodd" d="M46.7733 22.2501C46.7733 22.2501 46.7487 22.2278 46.7019 22.1943C46.5513 22.3382 46.161 22.636 45.5208 22.6404C44.8996 22.6438 44.5517 22.4475 44.4111 22.3438C44.352 22.3973 44.3074 22.4442 44.274 22.4754C44.1323 22.607 44.2528 22.7007 44.3364 22.617C44.4201 22.5334 44.4725 22.5178 44.5461 22.5334C44.6197 22.549 45.8409 23.0152 46.7733 22.2501Z" fill="#D2B58D"/>
<path fill-rule="evenodd" clip-rule="evenodd" d="M46.7733 22.2504C46.7733 22.2504 46.2915 21.8155 45.5264 21.8735C44.9576 21.9159 44.6208 22.1557 44.4268 22.3296C44.5874 22.246 44.9364 22.0898 45.5677 22.0876C46.2681 22.0854 46.5859 22.2237 46.7086 22.3006C46.7298 22.2839 46.7521 22.2672 46.7733 22.2504Z" fill="#ADA89F"/>
<path fill-rule="evenodd" clip-rule="evenodd" d="M45.9302 21.8869C45.8064 21.869 45.6714 21.8623 45.5264 21.8724C45.3279 21.888 45.1573 21.9259 45.0112 21.9783C44.9922 22.0318 44.9811 22.0898 44.9811 22.1501C44.9811 22.4322 45.2097 22.6608 45.4919 22.6608C45.774 22.6608 46.0027 22.4322 46.0027 22.1501C46.0027 22.053 45.9759 21.9627 45.9291 21.8857L45.9302 21.8869Z" fill="#262014"/>
<path fill-rule="evenodd" clip-rule="evenodd" d="M45.4919 21.9336C45.3714 21.9336 45.2744 22.0306 45.2744 22.1511C45.2744 22.2715 45.3714 22.3685 45.4919 22.3685C45.6123 22.3685 45.7094 22.2715 45.7094 22.1511C45.7094 22.0306 45.6123 21.9336 45.4919 21.9336Z" fill="#140D08"/>
<path fill-rule="evenodd" clip-rule="evenodd" d="M45.2744 22.0542C45.2209 22.0542 45.1774 22.0977 45.1774 22.1512C45.1774 22.2048 45.2209 22.2483 45.2744 22.2483C45.3279 22.2483 45.3714 22.2048 45.3714 22.1512C45.3714 22.0977 45.3279 22.0542 45.2744 22.0542Z" fill="white"/>
<path fill-rule="evenodd" clip-rule="evenodd" d="M44.4268 22.3294C44.4268 22.3294 44.6554 21.9044 45.4628 21.794C46.2703 21.6847 47.1346 22.2 47.1346 22.2C47.1346 22.2 46.8079 22.2781 46.7733 22.2502C46.7387 22.2212 46.1777 21.842 45.5677 21.8888C44.9576 21.9345 44.6019 22.1899 44.4268 22.3294Z" fill="#413024"/>
</g>
<defs>
<clipPath id="clip0">
<rect width="84.6667" height="211.667" fill="white"/>
</clipPath>
</defs>
</svg>
