<svg width="86" height="212" viewBox="0 0 86 212" fill="none" xmlns="http://www.w3.org/2000/svg">
<g clip-path="url(#clip0)">
<path fill-rule="evenodd" clip-rule="evenodd" d="M36.9141 19.7227H49.1173V24.0878H36.9141V19.7227Z" fill="#EAD6BA"/>
<path fill-rule="evenodd" clip-rule="evenodd" d="M37.2654 20.9641C37.2654 20.9641 37.3758 21.069 37.465 21.0377C37.5542 21.0065 37.7271 20.9229 37.8687 20.8961C38.0104 20.8704 39.071 20.9552 40.0179 21.1113C40.9647 21.2675 41.4008 21.3857 41.5212 21.3221C41.6417 21.2597 41.6818 20.7489 41.4978 20.6753C41.3149 20.6017 39.6822 20.3931 38.9372 20.2671C38.1933 20.141 38.1565 20.1466 38.0104 20.1946C37.8632 20.2414 37.4382 20.5872 37.2654 20.9641Z" fill="#413024"/>
<path fill-rule="evenodd" clip-rule="evenodd" d="M40.5633 21.5048C40.5633 21.5048 41.2079 21.7614 41.548 22.2989C41.8893 22.8365 41.8782 23.3551 41.9094 22.8577C41.9406 22.3591 41.8547 21.7625 41.451 21.574C41.0473 21.3855 40.406 21.3799 40.5633 21.506V21.5048Z" fill="#D2B58D"/>
<path fill-rule="evenodd" clip-rule="evenodd" d="M38.0918 22.1376C38.0918 22.1376 38.8412 21.6581 39.8739 21.7941C40.9067 21.9302 41.1007 22.2681 41.0796 22.1633C41.0584 22.0584 40.8822 21.8332 39.7401 21.7439C38.5981 21.6547 38.0393 21.9748 38.0918 22.1376Z" fill="#A38965"/>
<path fill-rule="evenodd" clip-rule="evenodd" d="M38.9728 23.1512C38.9728 23.1512 39.5393 23.3029 40.0892 23.2248C40.639 23.1467 40.7594 22.8947 40.7594 23.0051C40.7594 23.1155 40.0044 23.6441 38.9728 23.1523V23.1512Z" fill="#C2A67E"/>
<path fill-rule="evenodd" clip-rule="evenodd" d="M38.5635 22.2504C38.5635 22.2504 39.0453 21.8155 39.8103 21.8735C40.5754 21.9315 40.9212 22.3452 41.0628 22.4757C41.2044 22.6073 41.084 22.701 41.0003 22.6174C40.9167 22.5337 40.8643 22.5181 40.7907 22.5337C40.7171 22.5493 39.4958 23.0155 38.5635 22.2504Z" fill="white"/>
<path fill-rule="evenodd" clip-rule="evenodd" d="M38.5635 22.2501C38.5635 22.2501 38.588 22.2278 38.6349 22.1943C38.7854 22.3382 39.1758 22.636 39.8159 22.6404C40.4371 22.6438 40.7851 22.4475 40.9267 22.3438C40.9858 22.3973 41.0305 22.4442 41.0639 22.4754C41.2055 22.607 41.0851 22.7007 41.0015 22.617C40.9178 22.5334 40.8654 22.5178 40.7918 22.5334C40.7182 22.549 39.497 23.0152 38.5646 22.2501H38.5635Z" fill="#D2B58D"/>
<path fill-rule="evenodd" clip-rule="evenodd" d="M38.5635 22.2504C38.5635 22.2504 39.0453 21.8155 39.8103 21.8735C40.3791 21.9159 40.7159 22.1557 40.91 22.3296C40.7494 22.246 40.4003 22.0898 39.7691 22.0876C39.0687 22.0854 38.7508 22.2237 38.6282 22.3006C38.607 22.2839 38.5847 22.2672 38.5635 22.2504Z" fill="#ADA89F"/>
<path fill-rule="evenodd" clip-rule="evenodd" d="M39.4078 21.8869C39.5316 21.869 39.6666 21.8623 39.8115 21.8724C40.0101 21.888 40.1807 21.9259 40.3268 21.9783C40.3458 22.0318 40.3569 22.0898 40.3569 22.1501C40.3569 22.4322 40.1283 22.6608 39.8461 22.6608C39.564 22.6608 39.3353 22.4322 39.3353 22.1501C39.3353 22.053 39.3621 21.9638 39.4089 21.8857L39.4078 21.8869Z" fill="#293D45"/>
<path fill-rule="evenodd" clip-rule="evenodd" d="M39.8449 21.9336C39.9654 21.9336 40.0624 22.0306 40.0624 22.1511C40.0624 22.2715 39.9654 22.3685 39.8449 22.3685C39.7245 22.3685 39.6274 22.2715 39.6274 22.1511C39.6274 22.0306 39.7245 21.9336 39.8449 21.9336Z" fill="#081A1C"/>
<path fill-rule="evenodd" clip-rule="evenodd" d="M39.6274 22.0542C39.681 22.0542 39.7245 22.0977 39.7245 22.1512C39.7245 22.2048 39.681 22.2483 39.6274 22.2483C39.5739 22.2483 39.5304 22.2048 39.5304 22.1512C39.5304 22.0977 39.5739 22.0542 39.6274 22.0542Z" fill="white"/>
<path fill-rule="evenodd" clip-rule="evenodd" d="M40.91 22.3294C40.91 22.3294 40.6814 21.9044 39.8739 21.794C39.0665 21.6847 38.2021 22.2 38.2021 22.2C38.2021 22.2 38.5289 22.2781 38.5635 22.2502C38.5981 22.2212 39.159 21.842 39.7691 21.8888C40.3792 21.9345 40.7349 22.1899 40.91 22.3294Z" fill="#413024"/>
<path fill-rule="evenodd" clip-rule="evenodd" d="M48.7382 20.9641C48.7382 20.9641 48.6278 21.069 48.5385 21.0377C48.4493 21.0065 48.2765 20.9229 48.1348 20.8961C47.9932 20.8704 46.9326 20.9552 45.9857 21.1113C45.0388 21.2675 44.6028 21.3857 44.4823 21.3221C44.3619 21.2597 44.3217 20.7489 44.5057 20.6753C44.6898 20.6017 46.3214 20.3931 47.0664 20.2671C47.8103 20.141 47.8471 20.1466 47.9932 20.1946C48.1404 20.2414 48.5653 20.5872 48.7382 20.9641Z" fill="#413024"/>
<path fill-rule="evenodd" clip-rule="evenodd" d="M45.4403 21.505C45.4403 21.505 44.7957 21.7615 44.4556 22.2991C44.1143 22.8366 44.1254 23.3552 44.0942 22.8567C44.063 22.3582 44.1489 21.7615 44.5526 21.573C44.9563 21.3845 45.5976 21.379 45.4403 21.505Z" fill="#D2B58D"/>
<path fill-rule="evenodd" clip-rule="evenodd" d="M47.9118 22.1376C47.9118 22.1376 47.1623 21.6581 46.1296 21.7941C45.0969 21.9302 44.9028 22.2681 44.924 22.1633C44.9452 22.0584 45.1214 21.8332 46.2634 21.7439C47.4055 21.6547 47.9642 21.9748 47.9118 22.1376Z" fill="#A38965"/>
<path fill-rule="evenodd" clip-rule="evenodd" d="M47.0307 23.1512C47.0307 23.1512 46.4641 23.3029 45.9143 23.2248C45.3645 23.1467 45.244 22.8947 45.244 23.0051C45.244 23.1155 45.9991 23.6441 47.0307 23.1523V23.1512Z" fill="#C2A67E"/>
<path fill-rule="evenodd" clip-rule="evenodd" d="M47.44 22.2504C47.44 22.2504 46.9582 21.8155 46.1932 21.8735C45.4281 21.9315 45.0824 22.3452 44.9407 22.4757C44.7991 22.6073 44.9195 22.701 45.0032 22.6174C45.0868 22.5337 45.1392 22.5181 45.2128 22.5337C45.2864 22.5493 46.5077 23.0155 47.44 22.2504Z" fill="white"/>
<path fill-rule="evenodd" clip-rule="evenodd" d="M47.44 22.2501C47.44 22.2501 47.4155 22.2278 47.3687 22.1943C47.2181 22.3382 46.8277 22.636 46.1876 22.6404C45.5664 22.6438 45.2184 22.4475 45.0779 22.3438C45.0188 22.3973 44.9742 22.4442 44.9407 22.4754C44.7991 22.607 44.9195 22.7007 45.0032 22.617C45.0868 22.5334 45.1392 22.5178 45.2128 22.5334C45.2864 22.549 46.5077 23.0152 47.44 22.2501Z" fill="#D2B58D"/>
<path fill-rule="evenodd" clip-rule="evenodd" d="M47.44 22.2504C47.44 22.2504 46.9582 21.8155 46.1932 21.8735C45.6244 21.9159 45.2876 22.1557 45.0935 22.3296C45.2541 22.246 45.6032 22.0898 46.2344 22.0876C46.9348 22.0854 47.2527 22.2237 47.3753 22.3006C47.3965 22.2839 47.4188 22.2672 47.44 22.2504Z" fill="#ADA89F"/>
<path fill-rule="evenodd" clip-rule="evenodd" d="M46.5969 21.8869C46.4731 21.869 46.3382 21.8623 46.1932 21.8724C45.9947 21.888 45.824 21.9259 45.6779 21.9783C45.659 22.0318 45.6478 22.0898 45.6478 22.1501C45.6478 22.4322 45.8765 22.6608 46.1586 22.6608C46.4408 22.6608 46.6694 22.4322 46.6694 22.1501C46.6694 22.053 46.6426 21.9627 46.5958 21.8857L46.5969 21.8869Z" fill="#293D45"/>
<path fill-rule="evenodd" clip-rule="evenodd" d="M46.1586 21.9336C46.0382 21.9336 45.9412 22.0306 45.9412 22.1511C45.9412 22.2715 46.0382 22.3685 46.1586 22.3685C46.2791 22.3685 46.3761 22.2715 46.3761 22.1511C46.3761 22.0306 46.2791 21.9336 46.1586 21.9336Z" fill="#081A1C"/>
<path fill-rule="evenodd" clip-rule="evenodd" d="M45.9411 22.0542C45.8876 22.0542 45.8441 22.0977 45.8441 22.1512C45.8441 22.2048 45.8876 22.2483 45.9411 22.2483C45.9947 22.2483 46.0382 22.2048 46.0382 22.1512C46.0382 22.0977 45.9947 22.0542 45.9411 22.0542Z" fill="white"/>
<path fill-rule="evenodd" clip-rule="evenodd" d="M45.0935 22.3294C45.0935 22.3294 45.3221 21.9044 46.1296 21.794C46.937 21.6847 47.8014 22.2 47.8014 22.2C47.8014 22.2 47.4746 22.2781 47.44 22.2502C47.4055 22.2212 46.8445 21.842 46.2344 21.8888C45.6244 21.9345 45.2686 22.1899 45.0935 22.3294Z" fill="#413024"/>
</g>
<defs>
<clipPath id="clip0">
<rect width="84.6667" height="211.667" fill="white" transform="translate(0.666748)"/>
</clipPath>
</defs>
</svg>
