<svg width="85" height="212" viewBox="0 0 85 212" fill="none" xmlns="http://www.w3.org/2000/svg">
<path fill-rule="evenodd" clip-rule="evenodd" d="M36.1258 34.9229C36.1258 34.9229 36.9282 36.7912 37.3369 39.0326C37.7456 41.2729 37.6906 42.1773 36.3341 42.8607C34.9776 43.5441 31.984 44.9316 30.8244 45.5612C29.6647 46.1908 28.5692 47.7809 28.7638 50.7561C28.9584 53.7314 29.6647 56.2453 29.6647 56.2453C29.6647 56.2453 47.3032 61.1838 49.9488 58.8473C52.5943 56.5097 55.9027 41.4549 52.4558 40.9192C52.2852 40.8929 50.9493 40.6891 50.7913 40.6685C47.7485 40.2667 46.8911 40.783 45.7818 38.0458C44.6142 35.1667 45.4304 30.1836 45.4304 30.1836C45.4304 30.1836 39.7295 35.0385 36.1258 34.9241V34.9229Z" fill="#D7A485"/>
<path fill-rule="evenodd" clip-rule="evenodd" d="M48.0189 48.8672C48.0189 48.8672 47.0882 53.7347 45.7214 55.8296C44.3545 57.9246 47.5072 60.5919 47.8827 57.3957C48.257 54.1984 48.0201 48.8683 48.0201 48.8683L48.0189 48.8672Z" fill="#BE8766"/>
<path fill-rule="evenodd" clip-rule="evenodd" d="M30.173 111.068C30.173 111.068 30.1341 114.071 31.4002 121.843C31.6394 123.312 31.9073 125.059 32.1855 126.924C33.7263 122.057 36.0823 114.908 36.7989 112.74C32.7624 111.183 30.4947 111.076 30.173 111.068V111.068ZM35.7915 152.465C36.8767 160.223 38.3912 171.736 38.2562 174.592C38.0467 179.002 34.9512 186.466 34.9512 186.466C34.9512 186.466 33.7572 187.449 35.163 188.694C36.5688 189.938 37.9757 189.956 37.9757 189.956L38.3351 189.413C38.3203 189.176 38.3615 189.019 38.3615 189.019C38.3615 189.019 38.3615 189.019 38.9922 183.441C39.623 177.864 40.2503 175.627 39.1617 166.189C38.6751 161.973 37.2923 157.018 35.7915 152.465ZM44.8855 149.092C44.9416 147.099 44.9038 145.313 44.7035 144.099C43.9101 139.293 43.0241 138.228 43.0241 138.228C43.0241 138.228 43.5839 133.59 44.075 128.342C41.4581 132.892 38.959 137.068 38.959 137.068C38.959 137.068 40.7323 138.586 43.3343 143.967C44.138 145.628 44.613 147.338 44.8843 149.093L44.8855 149.092Z" fill="#C99371"/>
<path fill-rule="evenodd" clip-rule="evenodd" d="M30.6141 54.7146C31.2208 55.2354 32.63 55.8696 35.8457 55.6086C40.0527 55.2663 43.4343 53.6545 44.5699 53.0535C46.5332 43.6619 49.7545 41.1686 51.2084 40.5115C51.988 40.1589 52.3039 40.4451 52.4333 40.7725C52.4207 40.7736 47.6917 41.2979 45.203 53.4805C45.5762 54.5165 46.4244 56.6572 47.7936 58.9719C49.7122 62.2128 48.2847 73.5837 48.2847 73.5837C48.2847 73.5837 49.7992 77.184 51.8495 80.8667C53.8997 84.5494 58.2201 92.1163 56.8097 100.493C55.3994 108.869 49.3115 119.121 49.3115 119.121C49.3115 119.121 44.7691 116.259 38.9823 113.655C33.1967 111.051 30.1322 111.069 30.1322 111.069C30.1322 111.069 29.2106 90.4197 30.4538 84.309C31.6971 78.1982 31.6249 75.5802 30.8797 72.4252C30.1344 69.2714 29.1591 66.0798 29.1591 66.0798C29.1591 66.0798 25.0849 61.6266 30.0051 54.3585C30.0383 54.2944 30.0738 54.2292 30.1093 54.1628C31.2472 52.0931 33.278 48.945 32.7102 44.5971C32.6781 44.106 33.3547 44.0213 33.3718 44.343C33.8813 49.0113 31.918 52.33 30.7263 54.5028C30.6862 54.576 30.6484 54.647 30.6118 54.718L30.6141 54.7146Z" fill="#D5C1B5"/>
<path fill-rule="evenodd" clip-rule="evenodd" d="M36.7993 112.739C35.8491 115.615 32.0153 127.25 31.0228 130.706C29.8872 134.661 29.8403 135.5 31.1648 139.556C32.4892 143.613 38.0734 156.749 39.1621 166.188C40.2507 175.627 39.6234 177.863 38.9926 183.441C38.3619 189.018 38.3619 189.018 38.3619 189.018C38.3619 189.018 37.7872 191.216 41.6977 191.546C45.6082 191.877 45.907 189.67 45.8452 187.533C45.7845 185.395 46.1829 183.037 46.6225 180.843C47.0632 178.648 47.0117 177.408 46.0123 174.401C45.013 171.394 44.8286 167.63 44.9695 161.442C45.1114 155.255 45.9379 149.346 43.3359 143.965C40.7338 138.585 38.9606 137.067 38.9606 137.067C38.9606 137.067 46.6511 124.217 49.1753 119.033C48.3774 118.541 44.183 115.993 38.9835 113.653C38.2051 113.303 37.477 113 36.7981 112.738L36.7993 112.739Z" fill="#D7A485"/>
<path fill-rule="evenodd" clip-rule="evenodd" d="M34.9875 186.378C34.2549 186.956 32.7152 188.275 31.1137 190.292C28.8951 193.086 29.5007 193.226 30.1738 193.228C30.8057 193.231 35.5462 193.571 36.9542 192.745C37.0676 192.37 37.1855 192.007 37.3011 191.668C37.5736 190.87 37.7945 190.326 37.9696 189.955C37.8632 189.952 36.5124 189.888 35.1638 188.693C33.7581 187.448 34.9521 186.465 34.9521 186.465L34.9887 186.377L34.9875 186.378Z" fill="#BA9F8A"/>
<path fill-rule="evenodd" clip-rule="evenodd" d="M38.3323 189.317C38.1514 189.553 37.8183 190.15 37.3008 191.668C36.456 194.144 35.4646 197.982 37.1852 197.849C38.9046 197.716 46.0834 195.162 46.3307 192.019C46.578 188.875 47.2545 186.876 47.693 184.43C48.1314 181.985 49.2258 180.476 49.2853 178.805C49.3403 177.259 48.1383 175.919 46.0754 174.592C47.013 177.459 47.0531 178.693 46.6226 180.84C46.1819 183.034 45.7835 185.393 45.8453 187.53C45.906 189.667 45.6072 191.874 41.6979 191.543C38.686 191.289 38.3345 189.926 38.3334 189.315L38.3323 189.317Z" fill="#D4C1B5"/>
<path fill-rule="evenodd" clip-rule="evenodd" d="M48.9408 180.473C48.8744 181.004 48.7691 181.661 48.6054 182.405C48.1189 184.611 48.2975 187.892 48.2803 188.689C48.1784 188.884 47.3805 188.86 47.3828 188.725L47.4263 185.771C47.5213 185.333 47.6118 184.89 47.6942 184.432C47.9861 182.806 48.5676 181.595 48.942 180.473H48.9408Z" fill="#A68C7A"/>
<path fill-rule="evenodd" clip-rule="evenodd" d="M40.1271 178.237C40.1271 178.237 38.9801 185.866 38.8484 187.806C38.7156 189.747 42.2003 177.685 40.1271 178.237Z" fill="#EDBA9D"/>
<path fill-rule="evenodd" clip-rule="evenodd" d="M30.9395 111.479C30.9395 111.479 31.0425 114.34 31.6378 118.749C32.233 123.159 32.6303 124.306 32.5696 123.937C32.5089 123.569 32.0567 111.849 32.0567 111.849C32.0567 111.849 31.6355 111.348 30.9395 111.479Z" fill="#D7A485"/>
<path fill-rule="evenodd" clip-rule="evenodd" d="M36.7989 112.74L36.4131 113.911C40.2915 114.257 47.0892 117.802 48.4457 120.477C48.7193 119.951 48.9666 119.466 49.1761 119.035C48.3782 118.543 44.1837 115.995 38.9842 113.655C38.2058 113.305 37.4777 113.002 36.7989 112.74V112.74Z" fill="#C99371"/>
<path fill-rule="evenodd" clip-rule="evenodd" d="M29.9171 90.0589C29.9171 90.0589 27.5543 99.6257 27.9058 104.631C28.2572 109.637 28.2641 108.296 28.8296 110.279C29.3951 112.263 29.6458 113.164 29.6458 113.164C29.6458 113.164 30.3384 114.264 30.3143 113.957C30.2915 113.65 29.9434 106.176 29.9434 106.176C29.9434 106.176 30.3292 107.409 30.7379 108.269C31.1454 109.128 31.3446 109.316 31.5976 109.183C31.8506 109.051 31.5782 107.573 31.2679 106.581C30.9577 105.59 31.0894 104.222 30.7368 102.91C30.3842 101.598 29.8484 100.827 29.8484 100.827C29.8519 96.6264 29.8107 94.7193 29.916 90.0566L29.9171 90.0589Z" fill="#D7A485"/>
<path fill-rule="evenodd" clip-rule="evenodd" d="M55.5558 92.8027C56.0217 95.1575 56.1694 97.7 55.7275 100.325C54.3801 108.329 48.5613 118.127 48.5613 118.127C48.5613 118.127 48.2121 117.907 47.5859 117.535C48.7834 115.526 50.8954 111.529 53.2891 104.957C55.2559 99.5568 55.6348 95.4597 55.5558 92.8027V92.8027Z" fill="#B99E8A"/>
<path fill-rule="evenodd" clip-rule="evenodd" d="M49.112 75.4375C49.7531 76.8284 50.3037 78.0808 51.4348 80.1116L51.5721 80.3577C50.6231 80.9656 49.7222 81.9741 47.4705 87.1542C45.2187 92.3342 45.0367 95.4285 45.3504 98.3774C45.664 101.326 45.7922 101.213 45.5324 104.263C45.2725 107.312 44.5868 111.514 44.0591 112.327C43.5313 113.14 43.1673 113.13 43.1673 113.13C43.1673 113.13 42.9532 114.751 42.5136 115.342L42.2503 115.209C42.1519 114.029 41.6802 108.42 41.552 107.908C41.4089 107.334 41.0449 110.498 41.0449 110.498C41.0449 110.498 41.0335 110.906 41.0472 112.941C41.0529 113.801 41.0449 114.309 41.0346 114.611C40.6122 114.408 40.1795 114.203 39.7387 113.999L39.5018 107.763C39.5018 107.763 39.2739 110.317 38.8733 111.92C38.6901 112.649 38.4348 113.072 38.2093 113.314L38.0468 113.246C37.9563 113.026 37.9105 112.784 37.9243 112.518C38.0296 110.429 37.7652 104.961 42.9692 91.202C47.3422 79.6399 46.431 75.8519 49.112 75.4386V75.4375Z" fill="#A38976"/>
<path d="M32.9863 93.9238C32.9898 93.9318 34.0853 96.5694 40.4513 98.5143L40.3494 98.8509C33.8232 96.8567 33.1512 94.3577 33.1477 94.3497L32.9863 93.9238V93.9238ZM33.0069 100.371C33.0184 100.378 36.9117 102.887 40.7158 101.85L40.8085 102.189C36.8522 103.269 33.5244 100.996 33.5129 100.988L33.0069 100.371V100.371Z" fill="#B99E8A"/>
<path fill-rule="evenodd" clip-rule="evenodd" d="M36.1261 34.9229C36.1261 34.9229 36.9286 36.7912 37.3373 39.0326C37.3694 39.2089 37.3991 39.3772 37.4243 39.5375C38.3218 39.8053 39.6852 39.8374 41.1986 38.5495C42.8276 37.1632 44.2757 35.4071 45.156 34.2486C45.1148 32.1034 45.4296 30.1836 45.4296 30.1836C45.4296 30.1836 39.7287 35.0385 36.125 34.9241L36.1261 34.9229Z" fill="#C99371"/>
<path fill-rule="evenodd" clip-rule="evenodd" d="M36.126 34.9229C36.126 34.9229 36.4488 35.675 36.7899 36.798C38.8185 37.5639 40.1246 36.7179 42.3123 35.3717C43.6791 34.5314 44.5904 33.5332 45.1845 32.6746C45.2566 31.2471 45.4306 30.1836 45.4306 30.1836C45.4306 30.1836 39.7297 35.0385 36.126 34.9241V34.9229Z" fill="#BE8766"/>
<path fill-rule="evenodd" clip-rule="evenodd" d="M44.4315 15.7804C47.448 18.1981 48.1795 21.3084 47.3232 24.8892C46.4669 28.4701 46.1372 29.7156 45.6587 31.2324C45.1802 32.7492 45.0852 33.0331 42.8815 34.4354C40.679 35.8378 38.8004 36.8417 37.3248 36.2407C35.8492 35.6386 34.5511 34.8361 33.8551 33.0983C33.159 31.3617 32.8523 29.8816 32.3108 28.4048C31.7705 26.9292 32.2432 26.5446 32.2329 24.9774C32.2226 23.4102 32.0555 23.3381 31.9513 21.8591C31.8895 20.9902 31.5255 19.1048 33.214 16.8255C35.9775 13.0959 40.8645 12.9207 44.4304 15.7792L44.4315 15.7804Z" fill="#D6A384"/>
<path fill-rule="evenodd" clip-rule="evenodd" d="M47.5084 23.976C47.7328 23.8592 48.0305 23.7779 48.3441 23.8947C49.0012 24.1385 49.4603 25.4115 48.6315 27.0485C47.8027 28.6855 47.4214 29.4686 47.2245 29.7479C47.0414 30.0077 46.4175 30.2665 46.1416 29.6025C46.437 28.5367 46.7712 27.1985 47.323 24.8884C47.3963 24.5804 47.4581 24.2759 47.5073 23.976H47.5084Z" fill="#D6A384"/>
<path fill-rule="evenodd" clip-rule="evenodd" d="M46.288 29.8439C46.233 29.7833 46.1838 29.7043 46.1426 29.6035C46.4379 28.5378 46.7722 27.1995 47.324 24.8894C47.364 24.72 47.4018 24.5505 47.435 24.3834C47.6056 24.3193 47.8208 24.2724 48.083 24.2827C48.8179 24.3124 48.8602 25.7434 48.5958 26.3879C48.3314 27.0324 48.3314 27.0324 48.3314 27.0324C48.3314 27.0324 48.5901 26.1944 48.5294 25.4664C48.4687 24.7383 47.846 24.7658 47.68 24.9478C47.5152 25.1298 47.2393 25.6255 47.3606 26.2208C47.482 26.816 47.3492 27.5544 47.0412 27.7536C46.7882 27.9162 46.3109 29.2166 46.2891 29.8416L46.288 29.8439Z" fill="#C99371"/>
<path fill-rule="evenodd" clip-rule="evenodd" d="M32.916 25.6669C32.916 25.6669 33.6063 26.2061 34.2096 26.1901C34.8129 26.1741 35.8123 25.9474 35.8123 25.9474C35.8123 25.9474 35.9989 26.0722 36.0504 25.9783C36.1019 25.8844 35.7218 25.4586 35.2479 25.193C34.774 24.9263 33.7196 24.8381 32.916 25.6669V25.6669Z" fill="white"/>
<path fill-rule="evenodd" clip-rule="evenodd" d="M35.8469 23.7877C35.8469 23.7877 36.7318 24.4666 36.9058 25.2599C37.0799 26.0532 36.9024 27.5872 36.9024 27.5872C36.9024 27.5872 37.0867 26.1528 36.4789 25.2404C35.8698 24.3292 34.9014 23.7305 34.9014 23.7305L35.8481 23.7877H35.8469Z" fill="#CB9877"/>
<path fill-rule="evenodd" clip-rule="evenodd" d="M39.0887 24.0137C39.0887 24.0137 38.3481 24.2918 38.134 25.3485C37.9199 26.4051 37.96 26.5619 37.96 26.5619C37.96 26.5619 38.553 24.4327 39.0887 24.0137V24.0137Z" fill="#BE8766"/>
<path fill-rule="evenodd" clip-rule="evenodd" d="M38.8394 23.3545L38.7295 23.9257C38.7295 23.9257 40.9664 23.129 41.9199 23.1965C42.8735 23.2652 43.4677 23.493 43.5306 23.5113C43.5936 23.5296 43.6451 23.5205 43.5512 23.422C43.4574 23.3224 42.3962 22.568 41.3911 22.7192C40.386 22.8703 38.8909 23.1908 38.8394 23.3534V23.3545Z" fill="#413024"/>
<path fill-rule="evenodd" clip-rule="evenodd" d="M32.4377 23.9548C32.4377 23.9548 33.0731 23.521 33.5493 23.4958C34.0267 23.4717 35.7701 23.8907 35.8846 23.9228C36.0002 23.9537 36.014 23.9262 35.9854 23.8552C35.9556 23.7843 35.7919 23.3538 35.5996 23.3149C35.4061 23.276 33.6352 22.9039 33.1876 23.2039C32.74 23.5026 32.5007 23.7797 32.4503 23.822C32.4 23.8644 32.2717 24.0556 32.4377 23.9548V23.9548Z" fill="#413024"/>
<path fill-rule="evenodd" clip-rule="evenodd" d="M33.3848 24.6367C33.3848 24.6367 34.2204 24.331 35 24.5874C35.7796 24.8439 36.1391 25.4174 36.1391 25.4174C36.1391 25.4174 35.4682 23.7254 33.3848 24.6367Z" fill="#BE8766"/>
<path fill-rule="evenodd" clip-rule="evenodd" d="M39.2363 25.3881C39.2363 25.3881 39.6542 24.7368 40.3696 24.4586C41.0851 24.1804 41.7811 24.1552 41.7811 24.1552C41.7811 24.1552 39.7686 23.7523 39.2375 25.3881H39.2363Z" fill="#BE8766"/>
<path fill-rule="evenodd" clip-rule="evenodd" d="M32.916 25.666C32.916 25.666 33.6063 26.2052 34.2096 26.1892C34.8129 26.1731 35.8123 25.9465 35.8123 25.9465C35.8123 25.9465 35.9989 26.0713 36.0504 25.9774C36.0607 25.9591 36.0538 25.927 36.0321 25.8858C35.6634 25.8469 34.6583 26.1857 34.0264 26.0827C33.4403 25.9865 33.0889 25.6992 32.9824 25.5996C32.9595 25.6214 32.9378 25.6431 32.916 25.666Z" fill="#EDBA9D"/>
<path fill-rule="evenodd" clip-rule="evenodd" d="M32.916 25.6658C32.916 25.6658 32.9675 25.7059 33.0557 25.7642C33.2068 25.6578 33.9074 25.3968 34.711 25.5273C35.5146 25.6566 35.8832 25.8077 36.0435 25.9886C36.0458 25.9852 36.0481 25.9818 36.0504 25.9783C36.1019 25.8844 35.7218 25.4586 35.2479 25.193C34.774 24.9263 33.7196 24.8381 32.916 25.6669V25.6658Z" fill="#ADA89F"/>
<path fill-rule="evenodd" clip-rule="evenodd" d="M34.4784 26.1726C34.6775 26.1531 34.895 26.1222 35.0942 26.0879C35.2511 25.9711 35.3529 25.7834 35.3529 25.5727C35.3529 25.4239 35.3026 25.2865 35.2167 25.1766C35.0187 25.0736 34.7302 25.0015 34.4051 25.0061C34.2036 25.1148 34.0674 25.3277 34.0674 25.5727C34.0674 25.8463 34.238 26.0799 34.4784 26.1726V26.1726Z" fill="#625D54"/>
<path d="M34.7098 25.8572C34.8673 25.8572 34.9949 25.7296 34.9949 25.5722C34.9949 25.4147 34.8673 25.2871 34.7098 25.2871C34.5524 25.2871 34.4248 25.4147 34.4248 25.5722C34.4248 25.7296 34.5524 25.8572 34.7098 25.8572Z" fill="#402F24"/>
<path d="M34.0689 25.7549C34.1479 25.7549 34.212 25.6909 34.212 25.6118C34.212 25.5328 34.1479 25.4688 34.0689 25.4688C33.9898 25.4688 33.9258 25.5328 33.9258 25.6118C33.9258 25.6909 33.9898 25.7549 34.0689 25.7549Z" fill="white"/>
<path fill-rule="evenodd" clip-rule="evenodd" d="M42.9635 25.4395C42.9635 25.4395 42.2194 26.0783 41.5428 26.0909C40.8662 26.1046 39.7375 25.902 39.7375 25.902C39.7375 25.902 39.5349 26.0508 39.4731 25.949C39.4113 25.8471 39.8142 25.3514 40.3305 25.0286C40.8468 24.7057 42.0236 24.5535 42.9635 25.4395Z" fill="white"/>
<path fill-rule="evenodd" clip-rule="evenodd" d="M42.9635 25.4393C42.9635 25.4393 42.2194 26.0781 41.5428 26.0907C40.8662 26.1044 39.7375 25.9018 39.7375 25.9018C39.7375 25.9018 39.5349 26.0506 39.4731 25.9487C39.4605 25.9281 39.4673 25.8926 39.4891 25.8446C39.9001 25.7816 41.0414 26.109 41.7431 25.9613C42.3945 25.8239 42.7723 25.484 42.8856 25.3672C42.9119 25.3901 42.9383 25.413 42.9635 25.4382V25.4393Z" fill="#EDBA9D"/>
<path fill-rule="evenodd" clip-rule="evenodd" d="M42.9638 25.4384C42.9638 25.4384 42.9077 25.4865 42.8127 25.5563C42.6387 25.4441 41.692 25.1144 40.799 25.301C39.9073 25.4876 39.6497 25.7509 39.4803 25.9604C39.4768 25.957 39.4746 25.9535 39.4711 25.949C39.4093 25.8471 39.8123 25.3514 40.3285 25.0286C40.8448 24.7057 42.0217 24.5535 42.9615 25.4395L42.9638 25.4384Z" fill="#ADA89F"/>
<path fill-rule="evenodd" clip-rule="evenodd" d="M41.3038 26.0794C41.1298 26.068 40.9466 26.0508 40.7726 26.0302C40.57 25.9203 40.4292 25.7108 40.4177 25.4635C40.4086 25.2655 40.4853 25.0846 40.6135 24.9541C40.7955 24.8683 41.029 24.803 41.29 24.7812C41.5591 24.8614 41.7605 25.1052 41.7743 25.4006C41.7892 25.7131 41.5888 25.9867 41.3038 26.0783V26.0794Z" fill="#625D54"/>
<path d="M41.0817 25.736C40.9152 25.7436 40.774 25.6148 40.7664 25.4483C40.7587 25.2818 40.8875 25.1406 41.054 25.133C41.2205 25.1253 41.3617 25.2541 41.3693 25.4206C41.377 25.5871 41.2482 25.7283 41.0817 25.736Z" fill="#402F24"/>
<path d="M40.4345 25.7201C40.3424 25.7243 40.2643 25.6531 40.2601 25.561C40.2558 25.4689 40.3271 25.3908 40.4192 25.3866C40.5113 25.3823 40.5894 25.4536 40.5936 25.5457C40.5978 25.6378 40.5266 25.7159 40.4345 25.7201Z" fill="white"/>
<path fill-rule="evenodd" clip-rule="evenodd" d="M43.6476 25.2343C43.6476 25.2343 43.3855 25.3373 43.2115 25.4117C43.0375 25.4861 42.9253 25.4712 42.9253 25.4712C42.9253 25.4712 42.014 24.7947 41.0994 24.9069C40.1859 25.0191 39.5391 25.7586 39.5391 25.7586C39.5391 25.7586 39.9558 24.6722 41.0856 24.5314C42.2144 24.3906 43.0535 25.0522 43.0535 25.0522C43.0535 25.0522 43.4564 25.2812 43.6488 25.2331L43.6476 25.2343Z" fill="#402F24"/>
<path fill-rule="evenodd" clip-rule="evenodd" d="M32.299 25.4968C32.299 25.4968 32.536 25.5941 32.6939 25.6537C32.8519 25.712 32.9515 25.6949 32.9515 25.6949C32.9515 25.6949 33.7368 25.055 34.5565 25.1168C35.3761 25.1797 35.9828 25.8128 35.9828 25.8128C35.9828 25.8128 35.5226 24.8672 34.5107 24.7882C33.4987 24.7092 32.8199 25.3274 32.8199 25.3274C32.8199 25.3274 32.4707 25.5312 32.2979 25.498L32.299 25.4968Z" fill="#402F24"/>
<path d="M37.2319 28.6145C37.3897 28.6309 37.5261 28.5684 37.5367 28.4749C37.5472 28.3814 37.4278 28.2922 37.27 28.2758C37.1123 28.2594 36.9758 28.3219 36.9653 28.4154C36.9548 28.509 37.0742 28.5981 37.2319 28.6145Z" fill="#EDBA9D"/>
<path fill-rule="evenodd" clip-rule="evenodd" d="M38.9216 28.6836C38.9216 28.6836 39.1425 28.8828 38.9639 29.4391C38.7853 29.9955 38.4053 29.8306 38.4053 29.8306C38.4053 29.8306 38.7876 30.2199 39.0864 29.7345C39.3852 29.2491 39.107 28.8107 38.9216 28.6847V28.6836Z" fill="#BE8766"/>
<path fill-rule="evenodd" clip-rule="evenodd" d="M36.1705 28.8828C36.1705 28.8828 36.016 29.0477 36.0538 29.4483C36.0915 29.849 36.3674 30.0631 36.4773 30.0482C36.5872 30.0333 36.2129 30.1833 36.016 29.7425C35.8191 29.3018 36.1705 28.8828 36.1705 28.8828V28.8828Z" fill="#BE8766"/>
<path fill-rule="evenodd" clip-rule="evenodd" d="M36.506 29.6977C36.506 29.6977 36.4441 29.4218 36.6662 29.5225C36.8883 29.6233 36.9284 29.8454 37.1447 29.9919C37.3622 30.1384 37.637 30.0938 37.6576 29.882C37.6782 29.6702 37.7228 29.4126 37.9644 29.4687C38.2059 29.5237 38.3879 29.8122 38.3879 29.8122C38.3879 29.8122 38.1762 29.5809 37.9552 29.6015C37.7343 29.621 37.7068 29.7664 37.6438 29.9438C37.5809 30.1213 37.2787 30.1693 36.9833 29.8889C36.688 29.6084 36.5563 29.6668 36.506 29.6988V29.6977Z" fill="#9E6B4C"/>
<path fill-rule="evenodd" clip-rule="evenodd" d="M35.421 31.9504C35.2276 31.7455 35.1898 31.7627 35.0742 31.7959C34.9585 31.8291 34.8257 31.52 35.0959 31.6081C35.3661 31.6963 35.2619 31.7959 35.7747 31.6734C36.2876 31.5498 36.7386 31.2556 37.8021 31.2727C38.8656 31.2887 40.2874 31.4273 40.4877 31.4341C40.6881 31.441 40.8209 31.188 40.8838 31.2704C40.9468 31.3529 40.7739 31.4467 40.6549 31.4776C40.5358 31.5074 40.4832 31.6974 40.0413 32.2595C39.5994 32.8227 38.1639 33.6126 37.2057 33.355C36.2475 33.0975 35.6362 32.1851 35.421 31.9516V31.9504Z" fill="#B14F49"/>
<path fill-rule="evenodd" clip-rule="evenodd" d="M36.008 31.9726C36.008 31.9726 36.696 32.1283 37.8236 32.0012C38.9512 31.8742 39.7044 31.707 39.7044 31.707C39.7044 31.707 38.8115 32.379 37.6645 32.4179C36.5174 32.4569 36.0068 31.9726 36.0068 31.9726H36.008Z" fill="white"/>
<path fill-rule="evenodd" clip-rule="evenodd" d="M36.7155 32.5129C36.7155 32.5129 37.4562 32.7556 38.4349 32.5278C39.4137 32.3 39.8487 32.0081 39.756 32.1512C39.6621 32.2943 38.8757 33.1758 37.7 33.1517C36.5243 33.1265 36.3171 32.3595 36.7155 32.5129Z" fill="#C25F5B"/>
<path fill-rule="evenodd" clip-rule="evenodd" d="M31.8382 45.4082C31.4925 45.5799 31.1914 45.7322 30.9705 45.8524C29.9826 46.3881 29.0496 47.7424 29.2156 50.2769C29.3186 51.8475 29.5888 53.2659 29.7788 54.1187C29.7788 54.1187 29.1686 51.2087 29.8349 48.4453C30.2619 46.6732 31.212 45.8043 31.8382 45.4093V45.4082Z" fill="#EDBA9D"/>
<path fill-rule="evenodd" clip-rule="evenodd" d="M37.8172 100.475C37.2528 101.129 36.9002 103.514 36.9472 105.632C36.9953 107.75 36.8281 109.689 36.8281 109.689C36.8281 109.689 37.8893 110.457 38.1732 107.969C38.2957 106.899 37.9992 105.096 37.8367 104.078C37.6203 102.731 37.8172 100.475 37.8172 100.475V100.475Z" fill="#C99371"/>
<path fill-rule="evenodd" clip-rule="evenodd" d="M52.5157 40.9277C53.412 41.1155 54.4916 41.444 55.215 42.0061C56.6529 43.1245 57.3145 44.4032 56.5212 48.4385C55.7279 52.4738 55.6638 51.0577 55.0983 55.2579C54.5328 59.458 54.3714 60.5123 53.7589 62.9473C53.1465 65.3822 52.4424 68.0037 52.1173 69.9566C51.7911 71.9096 51.6606 75.416 49.8118 80.6957C47.963 85.9753 46.7484 88.021 45.7616 91.1199C44.7748 94.2188 44.7542 94.2348 44.7233 94.782C44.6924 95.328 44.8206 95.6554 44.6523 96.3274C44.484 96.9994 44.6729 97.542 44.8137 98.3433C44.9557 99.1447 45.4491 100.532 45.1388 103.118C44.8286 105.704 44.7004 106.862 44.6088 107.768C44.5172 108.675 44.484 110.781 44.1967 111.817C43.9105 112.853 43.4125 112.684 43.3198 111.749C43.2271 110.813 43.266 108.885 43.2156 107.683C43.1653 106.481 43.187 105.957 43.187 105.957C43.187 105.957 42.7463 109.48 42.7967 110.66C42.847 111.84 42.8047 115.306 42.238 115.238C41.6714 115.169 41.3634 110.66 41.3405 109.822C41.3188 108.984 41.4722 106.944 41.4722 106.944C41.4722 106.944 41.2409 106.757 41.1528 107.331C41.0646 107.904 40.7098 110.821 40.7098 110.821C40.7098 110.821 40.7338 113.801 40.6342 114.76C40.5346 115.72 40.2862 116.107 39.921 116.075C39.5558 116.043 39.4551 115.611 39.3269 113.956C39.1987 112.3 39.2353 110.936 39.2754 110.318C39.3154 109.699 39.3887 107.077 39.3887 107.077C39.3887 107.077 39.1128 106.757 39.0579 107.253C39.0029 107.749 38.8346 109.53 38.8346 109.53C38.8346 109.53 38.6606 111.686 38.4179 112.524C38.1752 113.362 37.6338 113.608 37.541 112.89C37.4483 112.171 37.5078 109.946 37.5399 109.488C37.572 109.031 37.6372 105.599 37.5136 104.52C37.3899 103.442 37.3567 101.558 37.6727 100.768C39.1437 97.0841 39.2639 96.0218 40.3617 92.4272C40.9753 90.4193 42.4418 86.9541 43.3461 81.6355C44.5974 74.2827 46.9762 69.6853 46.9773 69.4976C46.9773 69.208 47.6665 49.7756 47.8096 47.7105C48.0259 44.591 50.5845 41.3158 52.5157 40.9277V40.9277Z" fill="#D7A485"/>
<path fill-rule="evenodd" clip-rule="evenodd" d="M30.5431 55.2194C31.1499 55.7403 32.5591 56.3745 35.7747 56.1135C39.9623 55.7735 43.3324 54.1743 44.4829 53.5664C43.5614 54.2578 38.1432 56.9011 34.6803 56.7637C31.0915 56.6206 30.542 55.2194 30.542 55.2194H30.5431Z" fill="#E0D0C4"/>
<path fill-rule="evenodd" clip-rule="evenodd" d="M32.2881 52.6641C32.2881 52.6641 33.1902 53.2433 33.7122 54.4671C33.8564 54.8036 33.9434 55.1036 33.9949 55.3623C34.1541 55.3657 34.32 55.3668 34.4906 55.3657C34.2536 54.4075 33.679 53.1037 32.2881 52.6641V52.6641Z" fill="#EDBA9D"/>
<path fill-rule="evenodd" clip-rule="evenodd" d="M40.1773 52.3867C40.1773 52.3867 39.2489 52.7073 38.3697 53.4124C37.7641 53.8978 37.2398 54.7255 36.9502 55.2463C37.1872 55.2189 37.4207 55.1868 37.6519 55.1513C38.0503 54.3649 38.8562 53.1011 40.1773 52.3867Z" fill="#EDBA9D"/>
<path fill-rule="evenodd" clip-rule="evenodd" d="M35.4681 55.6361C35.2552 54.8175 34.85 53.8697 34.0898 53.002C34.0898 53.002 34.5993 54.1937 34.6084 55.6693C34.8786 55.6658 35.1648 55.6555 35.4681 55.6361V55.6361Z" fill="#BE8766"/>
</svg>
