<svg width="85" height="212" viewBox="0 0 85 212" fill="none" xmlns="http://www.w3.org/2000/svg">
<path fill-rule="evenodd" clip-rule="evenodd" d="M35.2556 34.6437C35.2556 34.6437 36.1143 36.5151 36.5519 38.7588C36.9894 41.0024 36.9305 41.9083 35.4794 42.5921C34.0283 43.2769 30.8253 44.6655 29.5844 45.296C28.3434 45.9264 27.1713 47.5188 27.3796 50.498C27.588 53.4772 28.3434 55.9945 28.3434 55.9945C28.3434 55.9945 47.2141 60.9402 50.0448 58.5996C52.8754 56.259 56.4144 41.1827 52.7268 40.6456C52.5448 40.6193 51.1154 40.4155 50.946 40.3946C47.6906 39.9925 46.7739 40.5088 45.5864 37.7678C44.3373 34.8846 45.2105 29.8945 45.2105 29.8945C45.2105 29.8945 39.1108 34.7569 35.2565 34.6419L35.2556 34.6437Z" fill="#D7A485"/>
<path fill-rule="evenodd" clip-rule="evenodd" d="M47.9792 48.6094C47.9792 48.6094 46.9837 53.4835 45.5208 55.5814C44.058 57.6792 47.4312 60.3504 47.8325 57.1493C48.2337 53.9473 47.9792 48.6094 47.9792 48.6094Z" fill="#BE8766"/>
<path fill-rule="evenodd" clip-rule="evenodd" d="M28.8866 110.898C28.8866 110.898 28.845 113.906 30.1992 121.688C30.4555 123.159 30.7417 124.909 31.0388 126.777C32.6874 121.902 35.2083 114.743 35.9737 112.572C31.6548 111.013 29.2299 110.907 28.8857 110.899L28.8866 110.898ZM34.8967 152.355C36.057 160.124 37.6784 171.654 37.5335 174.514C37.3088 178.931 33.9981 186.405 33.9981 186.405C33.9981 186.405 32.7209 187.389 34.2246 188.636C35.7282 189.882 37.2346 189.9 37.2346 189.9L37.6186 189.355C37.6032 189.118 37.6467 188.96 37.6467 188.96C37.6467 188.96 37.6467 188.96 38.3206 183.374C38.9946 177.788 39.6667 175.549 38.5018 166.097C37.9819 161.874 36.5018 156.913 34.8967 152.353V152.355ZM44.626 148.976C44.6857 146.98 44.6459 145.191 44.4312 143.977C43.5816 139.163 42.6341 138.096 42.6341 138.096C42.6341 138.096 43.2337 133.452 43.7591 128.197C40.9602 132.754 38.2862 136.935 38.2862 136.935C38.2862 136.935 40.183 138.455 42.9665 143.843C43.8261 145.506 44.3352 147.219 44.625 148.976H44.626Z" fill="#C99371"/>
<path fill-rule="evenodd" clip-rule="evenodd" d="M29.3589 54.4652C30.0084 54.987 31.5156 55.6219 34.9559 55.3602C39.4559 55.0178 43.0746 53.4036 44.2902 52.8013C46.3899 43.3954 49.8365 40.899 51.3917 40.2404C52.226 39.8872 52.5639 40.1734 52.7024 40.5013C52.6889 40.5022 47.6299 41.0276 44.9678 53.2279C45.3672 54.2651 46.2739 56.41 47.7395 58.7271C49.7921 61.9726 48.2649 73.3595 48.2649 73.3595C48.2649 73.3595 49.8854 76.9655 52.0792 80.653C54.2731 84.3406 58.8945 91.9186 57.3855 100.307C55.8764 108.696 49.3636 118.963 49.3636 118.963C49.3636 118.963 44.5031 116.097 38.3137 113.489C32.1234 110.882 28.8453 110.9 28.8453 110.9C28.8453 110.9 27.829 90.2301 28.8806 84.0561C30.0654 77.1041 28.8281 70.2535 27.8045 65.8449C27.8045 65.8449 23.4467 61.3856 28.7094 54.1065C28.7448 54.0422 28.7828 53.977 28.8217 53.9109C30.0391 51.8384 32.2122 48.6862 31.6044 44.3311C31.5691 43.8392 32.2937 43.7541 32.3118 44.0765C32.8571 48.7514 30.7565 52.0757 29.4821 54.2506C29.4395 54.3239 29.3987 54.3955 29.3598 54.4652H29.3589Z" fill="#D5C1B5"/>
<path fill-rule="evenodd" clip-rule="evenodd" d="M35.9747 112.573C34.9584 115.454 30.8569 127.105 29.7953 130.567C28.5806 134.527 28.5299 135.367 29.9465 139.429C31.3632 143.492 37.337 156.648 38.5019 166.1C39.6668 175.552 38.9947 177.791 38.3207 183.377C37.6468 188.964 37.6468 188.963 37.6468 188.963C37.6468 188.963 37.0318 191.165 41.2157 191.495C45.3987 191.827 45.7185 189.617 45.6532 187.475C45.588 185.335 46.0138 182.973 46.4848 180.775C46.9558 178.578 46.9014 177.336 45.8317 174.324C44.7619 171.313 44.5654 167.543 44.7166 161.346C44.8679 155.151 45.7529 149.232 42.9693 143.844C40.1858 138.457 38.289 136.937 38.289 136.937C38.289 136.937 46.6641 124.153 49.3634 118.962C48.5102 118.468 41.511 114.835 38.3135 113.488C35.116 112.141 36.7021 112.835 35.9756 112.572L35.9747 112.573Z" fill="#D7A485"/>
<path fill-rule="evenodd" clip-rule="evenodd" d="M34.0364 186.318C33.2529 186.897 31.6052 188.218 29.8914 190.239C27.5182 193.038 28.1659 193.177 28.8851 193.179C29.5608 193.182 34.6324 193.521 36.1397 192.695C36.2611 192.319 36.387 191.955 36.5111 191.616C36.8027 190.817 37.0391 190.272 37.2266 189.902C37.1125 189.898 35.6678 189.834 34.2248 188.637C32.7212 187.391 33.9983 186.406 33.9983 186.406L34.0373 186.318H34.0364Z" fill="#BA9F8A"/>
<path fill-rule="evenodd" clip-rule="evenodd" d="M37.6157 189.261C37.4228 189.497 37.0659 190.096 36.5115 191.616C35.6075 194.097 34.5477 197.939 36.3874 197.807C38.2271 197.675 45.9075 195.116 46.172 191.968C46.4365 188.82 47.1602 186.818 47.6294 184.369C48.0986 181.92 49.2698 180.41 49.3332 178.736C49.3912 177.189 48.1059 175.845 45.8993 174.518C46.9029 177.39 46.9446 178.625 46.4845 180.775C46.0134 182.972 45.5877 185.334 45.6529 187.475C45.7182 189.616 45.3984 191.826 41.2154 191.495C37.9934 191.24 37.6175 189.876 37.6157 189.262V189.261Z" fill="#D4C1B5"/>
<path fill-rule="evenodd" clip-rule="evenodd" d="M48.9654 180.404C48.8939 180.937 48.7825 181.594 48.6067 182.34C48.0859 184.548 48.277 187.835 48.258 188.633C48.1493 188.828 47.296 188.805 47.2979 188.67L47.3441 185.711C47.4455 185.273 47.5424 184.83 47.6303 184.371C47.9428 182.742 48.5651 181.528 48.9654 180.405V180.404Z" fill="#A68C7A"/>
<path fill-rule="evenodd" clip-rule="evenodd" d="M39.5358 178.165C39.5358 178.165 38.3093 185.804 38.168 187.747C38.0267 189.69 41.7532 177.612 39.5358 178.165Z" fill="#EDBA9D"/>
<path fill-rule="evenodd" clip-rule="evenodd" d="M29.707 111.311C29.707 111.311 29.8166 114.176 30.4533 118.592C31.0901 123.008 31.515 124.156 31.4497 123.788C31.3845 123.419 30.9008 111.681 30.9008 111.681C30.9008 111.681 30.4506 111.18 29.7061 111.311H29.707Z" fill="#D7A485"/>
<path fill-rule="evenodd" clip-rule="evenodd" d="M35.9746 112.573L35.5615 113.745C39.711 114.091 47.1305 117.727 48.5816 120.406C48.8751 119.879 49.1387 119.394 49.3624 118.962C48.9013 118.696 46.7138 117.408 44.2346 116.165C42.1232 115.106 39.7826 114.108 38.3116 113.488C35.1141 112.141 36.7001 112.835 35.9737 112.572L35.9746 112.573Z" fill="#C99371"/>
<path fill-rule="evenodd" clip-rule="evenodd" d="M28.4274 89.8359C28.4274 89.8359 26.0841 99.4402 26.4609 104.453C26.8378 109.466 26.8441 108.123 27.4492 110.11C28.0543 112.096 28.3224 112.999 28.3224 112.999C28.3224 112.999 29.0633 114.101 29.038 113.794C29.0135 113.487 28.6412 106.002 28.6412 106.002C28.6412 106.002 29.0543 107.236 29.4909 108.097C29.9275 108.958 30.1394 109.146 30.4112 109.014C30.682 108.881 30.3903 107.401 30.0588 106.408C29.7273 105.414 29.8677 104.045 29.4909 102.732C29.1131 101.418 28.5398 100.646 28.5398 100.646C28.5434 96.4402 28.3151 94.5063 28.4274 89.8368V89.8359Z" fill="#D7A485"/>
<path fill-rule="evenodd" clip-rule="evenodd" d="M56.0419 92.6074C56.541 94.9661 56.6977 97.5115 56.2249 100.141C54.7828 108.157 48.559 117.969 48.559 117.969C48.559 117.969 48.1849 117.749 47.5146 117.377C48.7955 115.365 51.0554 111.361 53.6171 104.78C55.7213 99.372 56.1262 95.2696 56.0419 92.6083V92.6074Z" fill="#B99E8A"/>
<path fill-rule="evenodd" clip-rule="evenodd" d="M49.1486 75.2168C49.8343 76.6099 50.424 77.8636 51.6332 79.8971L51.78 80.1435C50.7646 80.7522 49.8008 81.7622 47.3922 86.9497C44.9828 92.1373 44.788 95.236 45.1241 98.189C45.4602 101.142 45.5969 101.029 45.3188 104.082C45.0408 107.136 44.3071 111.344 43.7427 112.158C43.1784 112.973 42.7889 112.962 42.7889 112.962C42.7889 112.962 42.5598 114.585 42.0896 115.176L41.8079 115.044C41.7029 113.863 41.1974 108.246 41.0606 107.733C40.9076 107.158 40.5181 110.327 40.5181 110.327C40.5181 110.327 40.5063 110.735 40.5208 112.773C40.5271 113.634 40.519 114.144 40.5072 114.445C40.0552 114.242 39.5923 114.037 39.1204 113.832L38.8668 107.589C38.8668 107.589 38.6231 110.146 38.1947 111.751C37.999 112.482 37.7255 112.904 37.4845 113.147L37.3106 113.078C37.2137 112.858 37.1648 112.615 37.1793 112.349C37.2925 110.257 37.009 104.781 42.5761 91.0023C47.2546 79.4243 46.2799 75.6298 49.1486 75.2168V75.2168Z" fill="#A38976"/>
<path d="M31.8965 93.7305C31.9001 93.7377 33.0713 96.38 39.883 98.3274L39.7743 98.6644C32.7923 96.668 32.0731 94.1653 32.0695 94.1571L31.8965 93.7305ZM31.9191 100.187C31.9309 100.194 36.0967 102.707 40.1665 101.668L40.2652 102.008C36.0324 103.088 32.4726 100.813 32.4599 100.806L31.9191 100.188V100.187Z" fill="#B99E8A"/>
<path fill-rule="evenodd" clip-rule="evenodd" d="M35.2559 34.6447C35.2559 34.6447 36.1146 36.5161 36.5521 38.7598C36.5865 38.9364 36.6182 39.1049 36.6454 39.2652C37.6055 39.5343 39.0648 39.5651 40.6835 38.2752C42.4262 36.8866 43.9752 35.1284 44.9172 33.9681C44.8737 31.8195 45.2098 29.8965 45.2098 29.8965C45.2098 29.8965 39.1101 34.7589 35.2559 34.6438V34.6447Z" fill="#C99371"/>
<path fill-rule="evenodd" clip-rule="evenodd" d="M35.2559 34.6429C35.2559 34.6429 35.6019 35.3965 35.966 36.5207C37.5412 37.8386 39.3773 36.7933 41.2786 35.6982C43.1799 34.6031 44.7904 33.2172 44.9462 32.3911C45.0232 30.9608 45.2098 29.8965 45.2098 29.8965C45.2098 29.8965 39.1101 34.7589 35.2559 34.6438V34.6429Z" fill="#BE8766"/>
<path fill-rule="evenodd" clip-rule="evenodd" d="M43.8153 15.7374C46.8316 18.155 47.5635 21.2656 46.7075 24.8462C45.8515 28.4269 45.482 30.1479 45.1088 31.1724C44.7365 32.1978 44.4412 33.0501 42.2383 34.4523C40.0353 35.8545 38.1848 36.7658 36.7092 36.1969C35.2337 35.6281 33.8586 34.7848 33.163 33.0474C32.4673 31.3101 31.9139 29.7702 31.5769 28.301C31.2399 26.8309 31.6285 26.5021 31.6177 24.935C31.6068 23.368 31.4401 23.2955 31.336 21.8172C31.2744 20.9476 30.9102 19.0627 32.5987 16.7846C35.3623 13.0554 40.2491 12.8796 43.8153 15.7374V15.7374Z" fill="#D6A384"/>
<path fill-rule="evenodd" clip-rule="evenodd" d="M46.8915 23.9343C47.1161 23.8184 47.4132 23.7369 47.7275 23.8537C48.3851 24.0974 48.8435 25.37 48.0147 27.0068C47.1858 28.6436 46.7982 29.4362 46.6079 29.7052C46.4177 29.9743 45.8407 30.2424 45.5645 29.5784C45.8597 28.5123 46.3933 26.1545 46.7058 24.8465C47.0183 23.5376 46.8407 24.2342 46.8906 23.9343H46.8915Z" fill="#D6A384"/>
<path fill-rule="evenodd" clip-rule="evenodd" d="M45.6717 29.8007C45.6173 29.7391 45.5983 29.7119 45.5566 29.6123C45.8519 28.5462 46.4108 26.086 46.707 24.8469C47.0032 23.6068 46.7849 24.5081 46.8175 24.3405C46.9878 24.2762 47.2034 24.23 47.4652 24.24C48.1998 24.2689 48.2424 25.701 47.9779 26.346C47.7134 26.9909 47.7134 26.9909 47.7134 26.9909C47.7134 26.9909 47.9724 26.153 47.9117 25.4257C47.8511 24.6983 47.2279 24.7255 47.063 24.9075C46.8972 25.0896 46.6219 25.586 46.7432 26.1811C46.8646 26.7762 46.7324 27.5154 46.4235 27.7137C46.1699 27.8768 45.6934 29.1766 45.6717 29.8016V29.8007Z" fill="#C99371"/>
<path fill-rule="evenodd" clip-rule="evenodd" d="M32.2988 25.6234C32.2988 25.6234 32.9891 26.1624 33.5923 26.147C34.1965 26.1316 35.1947 25.9042 35.1947 25.9042C35.1947 25.9042 35.3822 26.0292 35.4329 25.935C35.4836 25.8417 35.1041 25.416 34.6304 25.1497C34.1566 24.8834 33.1014 24.7955 32.2988 25.6234V25.6234Z" fill="white"/>
<path fill-rule="evenodd" clip-rule="evenodd" d="M35.2307 23.7446C35.2307 23.7446 36.1157 24.423 36.2887 25.2165C36.4626 26.01 36.286 27.5435 36.286 27.5435C36.286 27.5435 36.4708 26.1087 35.8621 25.1975C35.2534 24.2853 34.2842 23.6875 34.2842 23.6875L35.2307 23.7455V23.7446Z" fill="#CB9877"/>
<path fill-rule="evenodd" clip-rule="evenodd" d="M38.4714 23.9707C38.4714 23.9707 37.7305 24.2488 37.5167 25.3059C37.3029 26.3629 37.3428 26.5187 37.3428 26.5187C37.3428 26.5187 37.9361 24.3901 38.4714 23.9707V23.9707Z" fill="#BE8766"/>
<path fill-rule="evenodd" clip-rule="evenodd" d="M38.2219 23.3112L38.1123 23.8828C38.1123 23.8828 40.3496 23.0856 41.3026 23.1536C42.2564 23.2215 42.8497 23.4507 42.9131 23.4688C42.9765 23.4869 43.0272 23.4788 42.9339 23.3791C42.8406 23.2795 41.779 22.525 40.7736 22.6762C39.7681 22.8275 38.2726 23.1481 38.2219 23.3103V23.3112Z" fill="#413024"/>
<path fill-rule="evenodd" clip-rule="evenodd" d="M31.8207 23.9113C31.8207 23.9113 32.4557 23.4774 32.9321 23.453C33.4086 23.4285 35.1522 23.8488 35.2682 23.8796C35.3832 23.9113 35.3977 23.8832 35.3687 23.8126C35.3397 23.7419 35.1758 23.3116 34.9829 23.2718C34.789 23.2328 33.0182 22.8615 32.5707 23.1604C32.1232 23.4593 31.8841 23.7365 31.8334 23.779C31.7826 23.8216 31.654 24.0127 31.8216 23.9113H31.8207Z" fill="#413024"/>
<path fill-rule="evenodd" clip-rule="evenodd" d="M32.7675 24.5937C32.7675 24.5937 33.6036 24.2884 34.3826 24.5439C35.1616 24.8002 35.5212 25.3745 35.5212 25.3745C35.5212 25.3745 34.85 23.6824 32.7666 24.5937H32.7675Z" fill="#BE8766"/>
<path fill-rule="evenodd" clip-rule="evenodd" d="M38.6191 25.3429C38.6191 25.3429 39.0367 24.6917 39.7523 24.4136C40.4679 24.1355 41.1636 24.1101 41.1636 24.1101C41.1636 24.1101 39.1518 23.708 38.6191 25.3429Z" fill="#BE8766"/>
<path fill-rule="evenodd" clip-rule="evenodd" d="M32.2988 25.6237C32.2988 25.6237 32.9891 26.1626 33.5923 26.1472C34.1965 26.1318 35.1947 25.9045 35.1947 25.9045C35.1947 25.9045 35.3822 26.0295 35.4329 25.9353C35.4429 25.9162 35.4365 25.8845 35.4148 25.8429C35.0461 25.8039 34.0416 26.1427 33.4093 26.0394C32.8233 25.9434 32.4718 25.6554 32.3659 25.5566C32.3432 25.5784 32.3215 25.6001 32.2988 25.6228V25.6237Z" fill="#EDBA9D"/>
<path fill-rule="evenodd" clip-rule="evenodd" d="M32.2988 25.6234C32.2988 25.6234 32.3505 25.6642 32.4383 25.7221C32.5896 25.6153 33.2907 25.3553 34.0941 25.4848C34.8976 25.6143 35.2672 25.7656 35.4266 25.9459C35.4293 25.9422 35.432 25.9386 35.4338 25.935C35.4846 25.8417 35.105 25.416 34.6313 25.1497C34.1575 24.8834 33.1023 24.7955 32.2997 25.6234H32.2988Z" fill="#ADA89F"/>
<path fill-rule="evenodd" clip-rule="evenodd" d="M33.8614 26.1299C34.0607 26.1108 34.2781 26.0791 34.4774 26.0447C34.6341 25.9279 34.7355 25.7404 34.7355 25.5293C34.7355 25.3798 34.6848 25.2422 34.5997 25.1335C34.4013 25.0302 34.1132 24.9577 33.7881 24.9632C33.587 25.0719 33.4502 25.2847 33.4502 25.5293C33.4502 25.8029 33.6214 26.0366 33.8614 26.129V26.1299Z" fill="#625D54"/>
<path d="M34.0939 25.8148C34.2515 25.8148 34.3793 25.6871 34.3793 25.5295C34.3793 25.3719 34.2515 25.2441 34.0939 25.2441C33.9363 25.2441 33.8086 25.3719 33.8086 25.5295C33.8086 25.6871 33.9363 25.8148 34.0939 25.8148Z" fill="#402F24"/>
<path d="M33.4516 25.7138C33.5312 25.7138 33.5957 25.6493 33.5957 25.5698C33.5957 25.4903 33.5312 25.4258 33.4516 25.4258C33.3721 25.4258 33.3076 25.4903 33.3076 25.5698C33.3076 25.6493 33.3721 25.7138 33.4516 25.7138Z" fill="white"/>
<path fill-rule="evenodd" clip-rule="evenodd" d="M42.3467 25.394C42.3467 25.394 41.6022 26.0326 40.9255 26.0462C40.2489 26.0598 39.1203 25.8569 39.1203 25.8569C39.1203 25.8569 38.9174 26.0064 38.8549 25.904C38.7933 25.8017 39.1964 25.3062 39.7127 24.9837C40.229 24.6612 41.4056 24.5082 42.3458 25.394H42.3467Z" fill="white"/>
<path fill-rule="evenodd" clip-rule="evenodd" d="M42.347 25.3938C42.347 25.3938 41.6024 26.0324 40.9258 26.046C40.2491 26.0596 39.1205 25.8567 39.1205 25.8567C39.1205 25.8567 38.9176 26.0062 38.8551 25.9038C38.8424 25.883 38.8487 25.8476 38.8714 25.7996C39.2826 25.7371 40.4239 26.0641 41.125 25.9165C41.7763 25.7788 42.1549 25.4382 42.2682 25.3223C42.2944 25.3449 42.3207 25.3685 42.3461 25.3929L42.347 25.3938Z" fill="#EDBA9D"/>
<path fill-rule="evenodd" clip-rule="evenodd" d="M42.3467 25.394C42.3467 25.394 42.2915 25.442 42.1964 25.5118C42.0225 25.3995 41.0759 25.0698 40.1828 25.2564C39.2906 25.4429 39.0333 25.7056 38.8639 25.9158C38.8612 25.9122 38.8576 25.9085 38.8549 25.904C38.7933 25.8017 39.1964 25.3062 39.7127 24.9837C40.229 24.6612 41.4056 24.5082 42.3458 25.394H42.3467Z" fill="#ADA89F"/>
<path fill-rule="evenodd" clip-rule="evenodd" d="M40.6864 26.0364C40.5125 26.0256 40.3295 26.0075 40.1556 25.9875C39.9536 25.8779 39.8114 25.6678 39.8005 25.4214C39.7915 25.2239 39.8676 25.0419 39.9971 24.9123C40.1792 24.8263 40.412 24.762 40.6737 24.7402C40.9428 24.8209 41.1438 25.0636 41.1574 25.3598C41.1719 25.6732 40.9717 25.9459 40.6873 26.0374L40.6864 26.0364Z" fill="#625D54"/>
<path d="M40.4645 25.691C40.298 25.6986 40.1568 25.5699 40.1492 25.4034C40.1415 25.2369 40.2703 25.0957 40.4368 25.0881C40.6033 25.0804 40.7445 25.2092 40.7521 25.3757C40.7598 25.5422 40.631 25.6834 40.4645 25.691Z" fill="#402F24"/>
<path d="M39.8183 25.6771C39.7262 25.6813 39.6481 25.6101 39.6439 25.518C39.6396 25.4259 39.7109 25.3478 39.803 25.3436C39.8951 25.3394 39.9732 25.4106 39.9774 25.5027C39.9816 25.5948 39.9104 25.6729 39.8183 25.6771Z" fill="white"/>
<path fill-rule="evenodd" clip-rule="evenodd" d="M43.0306 25.1893C43.0306 25.1893 42.7688 25.2925 42.5949 25.3668C42.421 25.4411 42.3087 25.4266 42.3087 25.4266C42.3087 25.4266 41.3965 24.75 40.4826 24.8623C39.5686 24.9746 38.9219 25.7137 38.9219 25.7137C38.9219 25.7137 39.3395 24.6277 40.4681 24.4864C41.5967 24.346 42.4364 25.0072 42.4364 25.0072C42.4364 25.0072 42.8395 25.2355 43.0315 25.1884L43.0306 25.1893Z" fill="#402F24"/>
<path fill-rule="evenodd" clip-rule="evenodd" d="M31.6826 25.4518C31.6826 25.4518 31.9199 25.5496 32.0776 25.6085C32.2361 25.6673 32.3357 25.6501 32.3357 25.6501C32.3357 25.6501 33.121 25.0097 33.9408 25.0722C34.7606 25.1347 35.3674 25.7679 35.3674 25.7679C35.3674 25.7679 34.9073 24.8231 33.8955 24.7434C32.8828 24.6637 32.2053 25.2824 32.2053 25.2824C32.2053 25.2824 31.8565 25.4862 31.6835 25.4527L31.6826 25.4518Z" fill="#402F24"/>
<path d="M36.6145 28.5717C36.7722 28.5881 36.9085 28.5256 36.9191 28.432C36.9296 28.3384 36.8103 28.2492 36.6527 28.2328C36.495 28.2164 36.3586 28.279 36.3481 28.3726C36.3376 28.4662 36.4569 28.5553 36.6145 28.5717Z" fill="#EDBA9D"/>
<path fill-rule="evenodd" clip-rule="evenodd" d="M38.3044 28.6406C38.3044 28.6406 38.5263 28.839 38.347 29.3961C38.1676 29.9522 37.7881 29.7874 37.7881 29.7874C37.7881 29.7874 38.1703 30.176 38.4693 29.6914C38.7682 29.2058 38.4901 28.7674 38.3044 28.6415V28.6406Z" fill="#BE8766"/>
<path fill-rule="evenodd" clip-rule="evenodd" d="M35.5539 28.8398C35.5539 28.8398 35.3999 29.0047 35.4379 29.4051C35.476 29.8054 35.7513 30.0201 35.8609 30.0056C35.9705 29.9902 35.5964 30.1406 35.399 29.6995C35.2015 29.2583 35.5539 28.8398 35.5539 28.8398Z" fill="#BE8766"/>
<path fill-rule="evenodd" clip-rule="evenodd" d="M35.8897 29.655C35.8897 29.655 35.8281 29.3787 36.05 29.4792C36.2728 29.5807 36.3118 29.8026 36.5292 29.9484C36.7466 30.0943 37.021 30.0508 37.0419 29.8388C37.0627 29.6269 37.1071 29.3696 37.348 29.4258C37.5899 29.4811 37.771 29.7691 37.771 29.7691C37.771 29.7691 37.56 29.5381 37.339 29.558C37.118 29.578 37.0899 29.7229 37.0274 29.9004C36.9649 30.078 36.6623 30.126 36.367 29.8452C36.0718 29.5644 35.9404 29.6224 35.8897 29.655V29.655Z" fill="#9E6B4C"/>
<path fill-rule="evenodd" clip-rule="evenodd" d="M34.8049 31.9076C34.611 31.7028 34.5739 31.7191 34.458 31.7527C34.342 31.7862 34.2098 31.4773 34.4797 31.5652C34.7496 31.653 34.6455 31.7536 35.1581 31.6295C35.6708 31.5063 36.1219 31.2119 37.1862 31.2282C38.2506 31.2445 39.6718 31.3822 39.872 31.3894C40.0721 31.3967 40.2044 31.1431 40.2678 31.2255C40.3312 31.3079 40.1573 31.4021 40.0386 31.432C39.92 31.4619 39.8665 31.6512 39.4245 32.2146C38.9825 32.7771 37.5468 33.5679 36.5893 33.3106C35.6319 33.0534 35.0196 32.1413 34.804 31.9066L34.8049 31.9076Z" fill="#B14F49"/>
<path fill-rule="evenodd" clip-rule="evenodd" d="M35.3906 31.9305C35.3906 31.9305 36.0781 32.0863 37.2058 31.9595C38.3335 31.8327 39.0872 31.666 39.0872 31.666C39.0872 31.666 38.194 32.3381 37.0473 32.3762C35.9005 32.4151 35.3896 31.9305 35.3896 31.9305H35.3906Z" fill="white"/>
<path fill-rule="evenodd" clip-rule="evenodd" d="M36.099 32.47C36.099 32.47 36.8399 32.7128 37.8182 32.4845C38.7974 32.2571 39.2322 31.9646 39.1389 32.1086C39.0456 32.2517 38.2584 33.1331 37.0827 33.1086C35.907 33.0842 35.6995 32.316 36.099 32.47V32.47Z" fill="#C25F5B"/>
<path fill-rule="evenodd" clip-rule="evenodd" d="M30.6666 45.1435C30.2971 45.3147 29.9755 45.4678 29.7382 45.5882C28.682 46.1254 27.6829 47.4814 27.8604 50.0185C27.971 51.591 28.259 53.0122 28.4628 53.8655C28.4628 53.8655 27.8106 50.9515 28.5226 48.1834C28.9791 46.4089 29.9954 45.5384 30.6657 45.1426L30.6666 45.1435Z" fill="#EDBA9D"/>
<path fill-rule="evenodd" clip-rule="evenodd" d="M37.0639 100.289C36.4606 100.945 36.082 103.333 36.1336 105.454C36.1853 107.575 36.0068 109.517 36.0068 109.517C36.0068 109.517 37.1418 110.286 37.4462 107.795C37.5766 106.723 37.2605 104.917 37.0857 103.899C36.8547 102.549 37.0648 100.29 37.0648 100.29L37.0639 100.289Z" fill="#C99371"/>
<path fill-rule="evenodd" clip-rule="evenodd" d="M52.7895 40.6572C53.7487 40.8456 54.9036 41.1744 55.6772 41.7369C57.2153 42.8565 57.8792 43.7994 57.1953 48.2116C56.6047 52.0205 55.333 58.1863 54.1183 62.709C53.4634 65.1475 52.8094 67.806 52.4607 69.7616C52.1119 71.7173 51.8728 75.1956 49.8945 80.4828C47.9162 85.77 46.6173 87.8189 45.5611 90.9222C44.505 94.0246 44.4832 94.0418 44.4506 94.5898C44.4171 95.1369 44.5548 95.4648 44.3745 96.1378C44.1943 96.8109 44.3963 97.3534 44.5475 98.156C44.6988 98.9585 45.2269 100.348 44.8954 102.938C44.5639 105.527 44.4262 106.686 44.3283 107.594C44.2296 108.503 44.1943 110.612 43.8881 111.649C43.5811 112.687 43.0493 112.517 42.9497 111.58C42.8501 110.643 42.8917 108.713 42.8383 107.509C42.7848 106.306 42.8084 105.781 42.8084 105.781C42.8084 105.781 42.3365 109.309 42.3908 110.49C42.4452 111.672 42.399 115.144 41.793 115.075C41.187 115.006 40.8573 110.49 40.8328 109.651C40.8093 108.812 40.9741 106.768 40.9741 106.768C40.9741 106.768 40.7269 106.581 40.6326 107.155C40.5384 107.729 40.1589 110.651 40.1589 110.651C40.1589 110.651 40.1843 113.635 40.0783 114.595C39.9723 115.556 39.706 115.943 39.3156 115.912C38.9252 115.88 38.8165 115.448 38.6797 113.789C38.543 112.131 38.581 110.766 38.6245 110.146C38.667 109.527 38.7459 106.901 38.7459 106.901C38.7459 106.901 38.4506 106.581 38.3917 107.077C38.3328 107.574 38.1535 109.357 38.1535 109.357C38.1535 109.357 37.9678 111.516 37.7078 112.355C37.4487 113.193 36.869 113.441 36.7694 112.72C36.6697 112.001 36.7331 109.771 36.7676 109.314C36.802 108.856 36.8726 105.42 36.7395 104.339C36.6072 103.258 36.5719 101.373 36.9089 100.582C38.4823 96.8933 38.6118 95.8281 39.7866 92.2293C40.4433 90.2184 42.0113 86.7482 42.9796 81.4221C44.3184 74.0588 46.8637 69.4546 46.8637 69.2671C46.8637 68.9772 47.601 49.5169 47.7541 47.4489C47.986 44.3248 50.7233 41.0448 52.7895 40.6562V40.6572Z" fill="#D7A485"/>
<path fill-rule="evenodd" clip-rule="evenodd" d="M29.2822 54.9703C29.9316 55.492 31.4389 56.127 34.8791 55.8652C39.3584 55.5246 42.9644 53.9241 44.1954 53.3145C43.2089 54.0065 37.4136 56.6542 33.7088 56.5156C29.8691 56.3725 29.2812 54.9694 29.2812 54.9694L29.2822 54.9703Z" fill="#E0D0C4"/>
<path fill-rule="evenodd" clip-rule="evenodd" d="M31.1484 52.4121C31.1484 52.4121 32.1131 52.9927 32.672 54.2183C32.826 54.5562 32.9193 54.856 32.9745 55.1141C33.1448 55.1178 33.3215 55.1187 33.5044 55.1178C33.2508 54.1585 32.6358 52.8523 31.1484 52.413V52.4121Z" fill="#EDBA9D"/>
<path fill-rule="evenodd" clip-rule="evenodd" d="M39.5887 52.1328C39.5887 52.1328 38.5951 52.4544 37.6548 53.16C37.0063 53.6464 36.4465 54.4743 36.1367 54.9961C36.3903 54.968 36.6403 54.9363 36.8867 54.901C37.3134 54.1129 38.1757 52.8484 39.5887 52.1328V52.1328Z" fill="#EDBA9D"/>
<path fill-rule="evenodd" clip-rule="evenodd" d="M34.5508 55.3877C34.3226 54.568 33.8896 53.6187 33.0762 52.75C33.0762 52.75 33.6206 53.9439 33.6314 55.4203C33.9204 55.4167 34.2265 55.4067 34.5508 55.3877V55.3877Z" fill="#BE8766"/>
</svg>
