<svg width="85" height="212" viewBox="0 0 85 212" fill="none" xmlns="http://www.w3.org/2000/svg">
<path fill-rule="evenodd" clip-rule="evenodd" d="M34.7154 34.3119C35.6457 36.2526 37.0619 41.6207 35.2899 42.4618C33.787 43.1749 30.5935 44.7097 29.2973 45.3401C28.001 45.9706 26.7761 47.5634 26.9941 50.5423C27.212 53.522 28.001 56.0391 28.001 56.0391C28.001 56.0391 47.7182 60.9854 50.6759 58.6449C53.6335 56.3043 57.3316 41.2275 53.4776 40.6911C53.287 40.6644 51.7935 40.4611 51.6169 40.4398C48.2161 40.0373 47.257 40.5538 46.0168 37.8134C44.7119 34.9297 45.6236 29.9395 45.6236 29.9395C45.6236 29.9395 38.7433 34.4266 34.7161 34.3119H34.7154Z" fill="#D7A485"/>
<path fill-rule="evenodd" clip-rule="evenodd" d="M48.5166 48.6523C48.5166 48.6523 47.4763 53.5267 45.9482 55.6246C44.4201 57.7219 47.9448 60.3943 48.3634 57.1921C48.7825 53.9905 48.5166 48.6523 48.5166 48.6523Z" fill="#BE8766"/>
<path fill-rule="evenodd" clip-rule="evenodd" d="M28.5685 110.943C28.5685 110.943 28.5252 113.95 29.94 121.733C30.2073 123.204 30.5072 124.953 30.8177 126.822C32.5405 121.947 35.1742 114.787 35.9746 112.617C31.4622 111.058 28.9277 110.951 28.5685 110.943V110.943ZM33.9007 148.365C35.1136 156.134 37.2815 170.873 37.0882 174.512C36.895 178.151 33.7054 186.131 33.7054 186.131C33.7054 186.131 32.5744 187.436 34.1459 188.682C35.7174 189.929 37.2908 189.947 37.2908 189.947L37.6927 189.402C37.6767 189.166 37.722 189.008 37.722 189.008C37.722 189.008 37.722 189.008 38.4264 183.422C38.739 180.946 39.1435 178.613 39.2435 176.187C39.3688 173.142 39.1055 169.951 38.6157 166.144C37.736 159.307 35.5774 152.925 33.9007 148.366V148.365ZM45.7206 151.689C45.7832 149.694 45.5879 147.279 45.1648 144.397C44.7416 141.515 42.9349 138.142 42.9349 138.142C42.9349 138.142 43.5613 133.498 44.1105 128.242C41.1855 132.799 38.3924 136.98 38.3924 136.98C38.3924 136.98 41.3801 140.363 43.2834 143.888C45.1861 147.413 45.4187 149.933 45.7212 151.689H45.7206Z" fill="#C99371"/>
<path fill-rule="evenodd" clip-rule="evenodd" d="M29.0609 54.5084C29.7394 55.0302 31.3142 55.6653 34.9096 55.4034C39.612 55.0609 43.3926 53.4468 44.6622 52.8443C46.8561 43.4389 50.4575 40.9418 52.0823 40.2833C52.954 39.9301 53.3072 40.2167 53.4518 40.5439C53.4372 40.5452 48.1523 41.0704 45.37 53.2702C45.7871 54.3078 46.7348 56.4517 48.2656 58.7689C50.4095 62.0145 48.8148 73.4012 48.8148 73.4012C48.8148 73.4012 50.5082 77.0073 52.8001 80.6947C55.0919 84.382 60.0975 92.1814 58.5654 101.893C57.0326 111.604 51.0573 119.7 51.0573 119.7C51.0573 119.7 44.8848 116.139 38.417 113.531C31.9493 110.924 28.5238 110.942 28.5238 110.942C28.5238 110.942 27.6148 90.9444 27.4282 84.672C27.2009 77.0146 27.4382 74.045 27.4682 70.8534C27.4782 69.7964 26.5411 66.5496 26.4658 66.0184C26.4658 66.0184 22.4086 61.472 27.908 54.1932C27.9453 54.1292 27.984 54.0639 28.0246 53.9972C29.2969 51.9246 32.0412 48.7284 31.4061 44.3732C31.3695 43.8807 32.1265 43.7968 32.1452 44.1187C32.715 48.7937 30.5204 52.1172 29.1889 54.2925C29.1442 54.3658 29.1016 54.4371 29.0616 54.5077L29.0609 54.5084Z" fill="#D5C1B5"/>
<path fill-rule="evenodd" clip-rule="evenodd" d="M35.9741 112.617C34.9124 115.498 30.6266 127.149 29.5176 130.611C28.2488 134.571 28.1954 135.411 29.6763 139.473C31.1571 143.536 37.3983 156.692 38.6152 166.144C39.8321 175.597 39.1303 177.835 38.4259 183.421C37.7215 189.007 37.7215 189.007 37.7215 189.007C37.7215 189.007 37.079 191.207 41.4502 191.539C45.8207 191.87 46.1552 189.66 46.0866 187.519C46.0179 185.378 46.4638 183.016 46.9556 180.819C47.4474 178.621 47.3908 177.379 46.2732 174.368C45.1556 171.356 45.5668 167.719 45.7254 161.523C45.8833 155.327 46.8077 149.408 43.8993 144.021C40.991 138.634 39.8467 137.422 39.8467 137.422C39.8467 137.422 48.3611 124.719 51.1821 119.528C50.2911 119.035 41.7581 114.88 38.4172 113.533C35.0764 112.186 36.7331 112.88 35.9747 112.617H35.9741Z" fill="#D7A485"/>
<path fill-rule="evenodd" clip-rule="evenodd" d="M33.7198 186.074C32.9014 186.653 31.7538 187.873 29.6186 190.282C27.4833 192.692 27.8159 193.22 28.5676 193.222C29.2733 193.224 34.5735 193.565 36.147 192.739C36.2736 192.363 36.4055 191.999 36.5348 191.66C36.8394 190.861 37.0866 190.316 37.2819 189.946C37.1626 189.942 35.6851 189.902 34.145 188.681C32.6049 187.46 33.6792 186.162 33.6792 186.162L33.7191 186.074H33.7198Z" fill="#BA9F8A"/>
<path fill-rule="evenodd" clip-rule="evenodd" d="M37.6883 189.305C37.4864 189.541 36.7846 189.725 36.0229 191.725C35.2611 193.725 34.4827 197.983 36.4054 197.85C38.3281 197.718 46.3526 195.159 46.6292 192.012C46.9051 188.864 47.6622 186.862 48.1527 184.412C48.6432 181.963 49.8661 180.453 49.9327 178.779C49.994 177.232 48.6505 175.889 46.3446 174.561C47.3929 177.432 47.4369 178.668 46.9558 180.818C46.4639 183.016 46.0181 185.377 46.0867 187.518C46.1554 189.659 45.8208 191.869 41.4503 191.538C38.0835 191.283 37.691 189.919 37.689 189.305H37.6883Z" fill="#D4C1B5"/>
<path fill-rule="evenodd" clip-rule="evenodd" d="M49.5468 180.447C49.4721 180.98 49.3555 181.637 49.1716 182.383C48.6277 184.591 48.827 187.877 48.8077 188.675C48.6944 188.871 47.8027 188.848 47.8047 188.712L47.8527 185.753C47.9586 185.315 48.0599 184.871 48.1519 184.413C48.4778 182.784 49.1282 181.57 49.5468 180.447Z" fill="#A68C7A"/>
<path fill-rule="evenodd" clip-rule="evenodd" d="M39.6944 178.21C39.6944 178.21 38.4128 185.85 38.2649 187.793C38.1169 189.736 42.0109 177.657 39.6944 178.21Z" fill="#EDBA9D"/>
<path fill-rule="evenodd" clip-rule="evenodd" d="M29.4248 111.354C29.4248 111.354 29.5394 114.219 30.2052 118.635C30.871 123.05 31.3148 124.199 31.2468 123.83C31.1789 123.461 30.6737 111.724 30.6737 111.724C30.6737 111.724 30.2032 111.223 29.4255 111.354H29.4248Z" fill="#D7A485"/>
<path fill-rule="evenodd" clip-rule="evenodd" d="M35.9748 112.617L35.543 113.789C39.8788 114.135 47.6315 117.771 49.1476 120.45C49.4542 119.924 49.7294 119.438 49.964 119.006C49.4828 118.74 47.1969 117.452 44.6065 116.209C42.4006 115.15 39.9541 114.152 38.418 113.533C35.0771 112.186 36.7339 112.88 35.9755 112.617H35.9748Z" fill="#C99371"/>
<path fill-rule="evenodd" clip-rule="evenodd" d="M27.4986 90.0762C27.4986 90.0762 25.6399 99.4849 26.0331 104.498C26.4263 109.511 26.433 108.169 27.0654 110.155C27.6979 112.141 27.9778 113.044 27.9778 113.044C27.9778 113.044 28.7515 114.146 28.7255 113.839C28.6995 113.531 28.311 106.047 28.311 106.047C28.311 106.047 28.7422 107.281 29.1987 108.142C29.6545 109.003 29.8765 109.191 30.1597 109.058C30.4429 108.926 30.1384 107.445 29.7918 106.453C29.4453 105.46 29.5926 104.09 29.198 102.776C28.8035 101.463 28.205 100.69 28.205 100.69C27.9045 99.7428 27.6819 93.7289 27.498 90.0768L27.4986 90.0762Z" fill="#D7A485"/>
<path fill-rule="evenodd" clip-rule="evenodd" d="M56.9428 92.6504C57.4639 95.0089 57.6285 97.5547 57.1341 100.184C55.6272 108.2 49.1242 118.012 49.1242 118.012C49.1242 118.012 48.7336 117.791 48.0332 117.418C49.3714 115.407 51.7326 111.403 54.409 104.822C56.6082 99.4134 57.0308 95.3108 56.9428 92.6504V92.6504Z" fill="#B99E8A"/>
<path fill-rule="evenodd" clip-rule="evenodd" d="M49.7387 75.2598C50.4551 76.6526 51.2008 78.1194 52.4651 80.1534L52.6897 80.5159C51.6294 81.1244 50.4204 81.8055 47.9033 86.993C45.3862 92.1806 45.1829 95.2795 45.5335 98.2325C45.8847 101.185 46.0273 101.072 45.7367 104.126C45.4462 107.179 44.6791 111.387 44.0893 112.202C43.4995 113.016 43.093 113.005 43.093 113.005C43.093 113.005 42.8537 114.627 42.3626 115.219L42.068 115.087C41.958 113.905 41.4302 108.288 41.2869 107.775C41.127 107.201 40.7198 110.37 40.7198 110.37C40.7198 110.37 40.7078 110.778 40.7225 112.816C40.7291 113.676 40.7205 114.186 40.7085 114.488C40.236 114.284 39.7521 114.08 39.2596 113.875L38.9944 107.631C38.9944 107.631 38.7398 110.189 38.292 111.794C38.088 112.525 37.8015 112.947 37.5496 113.19L37.3683 113.121C37.267 112.9 37.2163 112.658 37.231 112.392C37.3496 110.3 37.0531 104.824 42.8697 91.0456C47.758 79.467 46.7397 75.673 49.7367 75.2598H49.7387Z" fill="#A38976"/>
<path d="M31.7129 93.7741C31.7162 93.7814 32.9405 96.4232 40.058 98.3712L39.944 98.7077C32.6492 96.7111 31.8968 94.208 31.8935 94.2L31.7129 93.7734V93.7741ZM31.7362 100.231C31.7489 100.238 36.1007 102.75 40.3532 101.711L40.4565 102.051C36.0334 103.131 32.3147 100.856 32.3014 100.848L31.7362 100.23V100.231Z" fill="#B99E8A"/>
<path fill-rule="evenodd" clip-rule="evenodd" d="M34.5645 34.6878C34.5645 34.6878 35.5181 36.5591 36.004 38.803C36.0419 38.9796 36.0773 39.1482 36.1079 39.3088C37.1742 39.5774 38.7957 39.6087 40.5944 38.3192C42.5304 36.931 44.2511 35.1723 45.2981 34.0127C45.2494 31.8641 45.6233 29.9414 45.6233 29.9414C45.6233 29.9414 38.847 34.8037 34.5645 34.6884V34.6878Z" fill="#C99371"/>
<path fill-rule="evenodd" clip-rule="evenodd" d="M34.5645 34.6865C34.5645 34.6865 34.9483 35.4402 35.3535 36.5645C37.1029 37.8827 39.1435 36.8371 41.2561 35.7421C43.3687 34.6472 45.1581 33.2616 45.3307 32.4346C45.4167 31.0044 45.6233 29.9395 45.6233 29.9395C45.6233 29.9395 38.847 34.8018 34.5645 34.6865V34.6865Z" fill="#BE8766"/>
<path fill-rule="evenodd" clip-rule="evenodd" d="M43.9489 15.7798C47.0878 18.1976 47.8488 21.3086 46.9585 24.8893C46.0675 28.4701 45.6829 30.1908 45.2951 31.2158C44.9072 32.2408 44.6006 33.0938 42.3081 34.4953C40.0156 35.8975 38.0902 36.8085 36.5547 36.2401C35.0199 35.6716 33.5884 34.8279 32.8647 33.0905C32.1409 31.3531 31.5651 29.8136 31.2146 28.3441C30.8634 26.8746 31.2686 26.5447 31.2572 24.978C31.2466 23.4112 31.0726 23.3385 30.964 21.8604C30.9 20.9913 30.5208 19.106 32.2776 16.8274C35.1539 13.0981 40.2381 12.9228 43.9489 15.7805V15.7798Z" fill="#D6A384"/>
<path fill-rule="evenodd" clip-rule="evenodd" d="M47.013 23.9765C47.2376 23.8599 47.5062 23.7153 47.9927 23.8959C48.4785 24.0758 49.109 25.4127 48.2799 27.0494C47.4509 28.6862 47.0637 29.4793 46.8737 29.7485C46.6838 30.0177 45.952 30.287 45.6748 29.6232C45.9707 28.5569 46.5152 26.1984 46.8284 24.8895C47.1416 23.5806 46.9637 24.2777 47.013 23.9772V23.9765Z" fill="#D6A384"/>
<path fill-rule="evenodd" clip-rule="evenodd" d="M45.9366 29.8438C45.8819 29.7825 45.8633 29.7552 45.8213 29.6552C46.1172 28.5889 46.6757 26.1291 46.9722 24.8896C47.2688 23.65 47.0495 24.551 47.0829 24.3831C47.2528 24.3191 47.4694 24.2724 47.7306 24.2824C48.465 24.3118 48.5077 25.7433 48.2431 26.3884C47.9785 27.0335 47.9785 27.0335 47.9785 27.0335C47.9785 27.0335 48.2378 26.1958 48.1771 25.468C48.1165 24.7403 47.4934 24.7676 47.3281 24.9495C47.1628 25.1315 46.8869 25.628 47.0082 26.2231C47.1295 26.8182 46.9969 27.5573 46.6883 27.7552C46.4351 27.9178 45.9586 29.2181 45.9366 29.8432V29.8438Z" fill="#C99371"/>
<path fill-rule="evenodd" clip-rule="evenodd" d="M32.5 25.6667C32.5 25.6667 33.1898 26.2052 33.7936 26.1898C34.3973 26.1745 35.3957 25.9473 35.3957 25.9473C35.3957 25.9473 35.5829 26.0719 35.6342 25.9786C35.6856 25.8853 35.305 25.4594 34.8312 25.1929C34.3574 24.9263 33.3024 24.8383 32.5 25.6667V25.6667Z" fill="white"/>
<path fill-rule="evenodd" clip-rule="evenodd" d="M35.4317 23.7865C35.4317 23.7865 36.3161 24.4649 36.49 25.258C36.6639 26.0517 36.4867 27.5852 36.4867 27.5852C36.4867 27.5852 36.6713 26.1503 36.0628 25.2387C35.4537 24.327 34.4854 23.7285 34.4854 23.7285L35.4317 23.7865V23.7865Z" fill="#CB9877"/>
<path fill-rule="evenodd" clip-rule="evenodd" d="M38.6729 24.0124C38.6729 24.0124 37.9318 24.2903 37.7179 25.3473C37.504 26.4042 37.544 26.5602 37.544 26.5602C37.544 26.5602 38.1371 24.4316 38.6723 24.0117L38.6729 24.0124Z" fill="#BE8766"/>
<path fill-rule="evenodd" clip-rule="evenodd" d="M38.4244 23.3549L38.3145 23.9267C38.3145 23.9267 40.5517 23.1297 41.5047 23.1976C42.4584 23.2656 43.0521 23.4949 43.1155 23.5129C43.1788 23.5309 43.2301 23.5222 43.1361 23.4236C43.0422 23.3243 41.9812 22.5699 40.9755 22.7211C39.9706 22.8724 38.4751 23.193 38.4237 23.3556L38.4244 23.3549Z" fill="#413024"/>
<path fill-rule="evenodd" clip-rule="evenodd" d="M32.0229 23.954C32.0229 23.954 32.658 23.5201 33.1345 23.4955C33.611 23.4708 35.355 23.8907 35.4703 23.9227C35.5856 23.954 35.6003 23.926 35.571 23.8553C35.5416 23.7847 35.3777 23.3542 35.1844 23.3149C34.9912 23.2755 33.2198 22.9043 32.7726 23.2036C32.3247 23.5028 32.0862 23.78 32.0355 23.822C31.9849 23.864 31.8562 24.0559 32.0235 23.9546L32.0229 23.954Z" fill="#413024"/>
<path fill-rule="evenodd" clip-rule="evenodd" d="M32.9697 24.6362C32.9697 24.6362 33.8054 24.3303 34.5852 24.5869C35.3649 24.8428 35.7241 25.4173 35.7241 25.4173C35.7241 25.4173 35.053 23.7252 32.9697 24.6369V24.6362Z" fill="#BE8766"/>
<path fill-rule="evenodd" clip-rule="evenodd" d="M38.821 25.3861C38.821 25.3861 39.2388 24.7343 39.9539 24.4564C40.669 24.1785 41.3648 24.1532 41.3648 24.1532C41.3648 24.1532 39.3528 23.7506 38.8203 25.3861H38.821Z" fill="#BE8766"/>
<path fill-rule="evenodd" clip-rule="evenodd" d="M32.5 25.6656C32.5 25.6656 33.1898 26.2041 33.7936 26.1887C34.3973 26.1734 35.3957 25.9462 35.3957 25.9462C35.3957 25.9462 35.5829 26.0708 35.6342 25.9775C35.6442 25.9588 35.6376 25.9268 35.6156 25.8855C35.2464 25.8462 34.2421 26.1854 33.6103 26.0821C33.0238 25.9861 32.6726 25.6982 32.5666 25.5996C32.544 25.6209 32.522 25.6429 32.5 25.6656V25.6656Z" fill="#EDBA9D"/>
<path fill-rule="evenodd" clip-rule="evenodd" d="M32.5 25.6667C32.5 25.6667 32.5513 25.7073 32.6393 25.7653C32.7899 25.658 33.4917 25.3981 34.2947 25.5281C35.0978 25.658 35.4676 25.8086 35.6269 25.9892C35.6296 25.9859 35.6322 25.9826 35.6342 25.9786C35.6856 25.8853 35.305 25.4594 34.8312 25.1929C34.3574 24.9263 33.3024 24.8383 32.5 25.6667V25.6667Z" fill="#ADA89F"/>
<path fill-rule="evenodd" clip-rule="evenodd" d="M34.0635 26.1723C34.2628 26.153 34.4801 26.1217 34.6793 26.0877C34.8359 25.9704 34.9379 25.7831 34.9379 25.5725C34.9379 25.4233 34.8872 25.286 34.8019 25.1767C34.6033 25.0734 34.3154 25.0014 33.9902 25.0061C33.789 25.1147 33.6523 25.3273 33.6523 25.5725C33.6523 25.8464 33.823 26.0797 34.0635 26.1723V26.1723Z" fill="#625D54"/>
<path d="M34.2947 25.8589C34.4526 25.8589 34.5806 25.7309 34.5806 25.573C34.5806 25.4151 34.4526 25.2871 34.2947 25.2871C34.1368 25.2871 34.0088 25.4151 34.0088 25.573C34.0088 25.7309 34.1368 25.8589 34.2947 25.8589Z" fill="#402F24"/>
<path d="M33.6527 25.7567C33.7322 25.7567 33.7967 25.6922 33.7967 25.6127C33.7967 25.5332 33.7322 25.4688 33.6527 25.4688C33.5732 25.4688 33.5088 25.5332 33.5088 25.6127C33.5088 25.6922 33.5732 25.7567 33.6527 25.7567Z" fill="white"/>
<path fill-rule="evenodd" clip-rule="evenodd" d="M42.5485 25.4384C42.5485 25.4384 41.8041 26.0768 41.1277 26.0902C40.4513 26.1042 39.3223 25.9016 39.3223 25.9016C39.3223 25.9016 39.1191 26.0508 39.0571 25.9489C38.9951 25.8469 39.3983 25.3511 39.9148 25.0285C40.4313 24.706 41.6075 24.5534 42.5479 25.439L42.5485 25.4384Z" fill="white"/>
<path fill-rule="evenodd" clip-rule="evenodd" d="M42.5486 25.4378C42.5486 25.4378 41.8042 26.0763 41.1278 26.0896C40.4513 26.1036 39.3224 25.901 39.3224 25.901C39.3224 25.901 39.1191 26.0503 39.0572 25.9483C39.0445 25.9277 39.0512 25.8917 39.0731 25.8444C39.4843 25.7817 40.6253 26.1089 41.327 25.961C41.9781 25.8237 42.3567 25.4831 42.47 25.3672C42.4966 25.3905 42.5226 25.4132 42.5479 25.4378H42.5486Z" fill="#EDBA9D"/>
<path fill-rule="evenodd" clip-rule="evenodd" d="M42.5479 25.439C42.5479 25.439 42.4919 25.487 42.3973 25.557C42.2227 25.445 41.2763 25.1152 40.384 25.3018C39.4916 25.4884 39.2344 25.7509 39.0657 25.9609C39.0624 25.9575 39.0597 25.9535 39.0571 25.9489C38.9951 25.8469 39.3983 25.3511 39.9148 25.0285C40.4313 24.706 41.6075 24.5534 42.5479 25.439Z" fill="#ADA89F"/>
<path fill-rule="evenodd" clip-rule="evenodd" d="M40.8881 26.0801C40.7142 26.0694 40.5309 26.0514 40.357 26.0308C40.1544 25.9208 40.0131 25.7115 40.0017 25.465C39.9924 25.267 40.0691 25.0858 40.1983 24.9558C40.3803 24.8698 40.6135 24.8052 40.8748 24.7832C41.1433 24.8638 41.3446 25.1064 41.3586 25.403C41.3733 25.7162 41.1727 25.9895 40.8881 26.0808V26.0801Z" fill="#625D54"/>
<path d="M40.6659 25.7334C40.4996 25.7411 40.3585 25.6124 40.3509 25.4461C40.3433 25.2797 40.4719 25.1387 40.6383 25.131C40.8046 25.1234 40.9456 25.252 40.9533 25.4184C40.9609 25.5847 40.8323 25.7258 40.6659 25.7334Z" fill="#402F24"/>
<path d="M40.0196 25.7198C39.9276 25.724 39.8496 25.6528 39.8453 25.5608C39.8411 25.4688 39.9123 25.3908 40.0043 25.3866C40.0963 25.3823 40.1743 25.4535 40.1786 25.5455C40.1828 25.6375 40.1116 25.7156 40.0196 25.7198Z" fill="white"/>
<path fill-rule="evenodd" clip-rule="evenodd" d="M43.2313 25.2338C43.2313 25.2338 42.9694 25.337 42.7955 25.411C42.6215 25.485 42.5089 25.471 42.5089 25.471C42.5089 25.471 41.5972 24.7946 40.6829 24.9065C39.7692 25.0185 39.1221 25.7582 39.1221 25.7582C39.1221 25.7582 39.5393 24.6719 40.6682 24.5313C41.7971 24.3907 42.6362 25.0525 42.6362 25.0525C42.6362 25.0525 43.0387 25.2811 43.2313 25.2338V25.2338Z" fill="#402F24"/>
<path fill-rule="evenodd" clip-rule="evenodd" d="M31.8828 25.4967C31.8828 25.4967 32.1194 25.594 32.278 25.6533C32.436 25.712 32.5359 25.6946 32.5359 25.6946C32.5359 25.6946 33.3216 25.0542 34.1407 25.1168C34.9604 25.1795 35.5675 25.8126 35.5675 25.8126C35.5675 25.8126 35.1077 24.8676 34.0954 24.7883C33.0831 24.709 32.4053 25.3268 32.4053 25.3268C32.4053 25.3268 32.0561 25.5307 31.8835 25.4967H31.8828Z" fill="#402F24"/>
<path d="M36.8158 28.6142C36.9736 28.6306 37.1099 28.5682 37.1205 28.4747C37.131 28.3813 37.0116 28.2922 36.8539 28.2758C36.6962 28.2594 36.5598 28.3218 36.5493 28.4153C36.5388 28.5087 36.6581 28.5978 36.8158 28.6142Z" fill="#EDBA9D"/>
<path fill-rule="evenodd" clip-rule="evenodd" d="M38.5057 28.6836C38.5057 28.6836 38.727 28.8822 38.5484 29.4387C38.3691 29.9951 37.9893 29.8299 37.9893 29.8299C37.9893 29.8299 38.3718 30.2191 38.6704 29.7332C38.9689 29.2481 38.691 28.8096 38.5057 28.6836Z" fill="#BE8766"/>
<path fill-rule="evenodd" clip-rule="evenodd" d="M35.7553 28.8828C35.7553 28.8828 35.6007 29.0474 35.6387 29.448C35.6767 29.8485 35.9519 30.0631 36.0619 30.0484C36.1718 30.0331 35.7973 30.183 35.6 29.7425C35.4027 29.3013 35.7553 28.8828 35.7553 28.8828V28.8828Z" fill="#BE8766"/>
<path fill-rule="evenodd" clip-rule="evenodd" d="M36.0909 29.6972C36.0909 29.6972 36.029 29.4206 36.2516 29.5219C36.4741 29.6232 36.5135 29.8451 36.7307 29.9911C36.948 30.137 37.2232 30.093 37.2432 29.8818C37.2639 29.6698 37.3079 29.4133 37.5498 29.4686C37.7917 29.5239 37.973 29.8118 37.973 29.8118C37.973 29.8118 37.7617 29.5812 37.5404 29.6005C37.3192 29.6198 37.2919 29.7658 37.2285 29.9431C37.1659 30.1203 36.8633 30.169 36.5681 29.8878C36.2729 29.6072 36.1416 29.6652 36.0909 29.6978V29.6972Z" fill="#9E6B4C"/>
<path fill-rule="evenodd" clip-rule="evenodd" d="M35.0055 31.9503C34.8116 31.7457 34.7749 31.7623 34.659 31.795C34.543 31.8283 34.4111 31.5191 34.681 31.6077C34.9509 31.6957 34.8469 31.7957 35.3601 31.6724C35.8725 31.5491 36.3237 31.2552 37.388 31.2712C38.4517 31.2878 39.8732 31.4251 40.0731 31.4325C40.2737 31.4398 40.4056 31.1859 40.469 31.2685C40.5323 31.3512 40.3583 31.4451 40.2404 31.4751C40.1217 31.5051 40.0684 31.6944 39.6266 32.2575C39.1847 32.82 37.7486 33.611 36.7909 33.3538C35.8332 33.0959 35.2208 32.1842 35.0055 31.9503V31.9503Z" fill="#B14F49"/>
<path fill-rule="evenodd" clip-rule="evenodd" d="M35.5928 31.9742C35.5928 31.9742 36.2805 32.1302 37.4081 32.0029C38.5358 31.8756 39.2895 31.709 39.2895 31.709C39.2895 31.709 38.3965 32.3814 37.2502 32.4194C36.1039 32.4581 35.5928 31.9736 35.5928 31.9736V31.9742Z" fill="white"/>
<path fill-rule="evenodd" clip-rule="evenodd" d="M36.3006 32.5128C36.3006 32.5128 37.041 32.7554 38.02 32.5275C38.999 32.2995 39.4341 32.0076 39.3408 32.1516C39.2475 32.2949 38.4605 33.1766 37.2849 33.1519C36.1093 33.1272 35.902 32.3595 36.3006 32.5135V32.5128Z" fill="#C25F5B"/>
<path fill-rule="evenodd" clip-rule="evenodd" d="M30.4289 45.1875C30.0423 45.3588 29.7065 45.5121 29.4585 45.6327C28.3543 46.1692 27.3113 47.526 27.4972 50.0631C27.6125 51.6359 27.9137 53.0568 28.127 53.9105C28.127 53.9105 27.4452 50.9962 28.189 48.2284C28.6661 46.4537 29.7278 45.584 30.4289 45.1875Z" fill="#EDBA9D"/>
<path fill-rule="evenodd" clip-rule="evenodd" d="M37.1118 100.334C36.4813 100.99 36.0861 103.378 36.1395 105.499C36.1928 107.62 36.0068 109.561 36.0068 109.561C36.0068 109.561 37.1931 110.331 37.5103 107.839C37.6469 106.768 37.3157 104.962 37.1338 103.943C36.8925 102.593 37.1118 100.335 37.1118 100.335V100.334Z" fill="#C99371"/>
<path fill-rule="evenodd" clip-rule="evenodd" d="M53.5428 40.6992C54.5445 40.8878 55.7521 41.217 56.5598 41.7795C58.1672 42.8991 59.1036 44.4159 58.3885 48.8271C57.7714 52.6358 56.7297 58.5817 55.4602 63.1041C54.7757 65.5426 54.0927 68.201 53.7281 70.1564C53.3642 72.1117 52.9151 75.3259 50.8484 80.6134C48.7818 85.9009 47.0937 87.8616 45.9901 90.9645C44.8865 94.0674 44.8645 94.0841 44.8292 94.6319C44.7945 95.179 44.9378 95.5069 44.7492 96.18C44.5606 96.8531 44.7719 97.3963 44.9298 98.1987C45.0878 99.001 45.6396 100.391 45.293 102.98C44.9465 105.57 44.8032 106.729 44.6999 107.637C44.5973 108.545 44.56 110.654 44.2394 111.691C43.9188 112.729 43.3624 112.559 43.2591 111.622C43.1551 110.685 43.1984 108.755 43.1431 107.551C43.0871 106.346 43.1118 105.822 43.1118 105.822C43.1118 105.822 42.6186 109.35 42.6753 110.532C42.7319 111.713 42.6846 115.185 42.0508 115.116C41.4177 115.047 41.0725 110.532 41.0478 109.693C41.0232 108.854 41.1951 106.81 41.1951 106.81C41.1951 106.81 40.9365 106.623 40.8379 107.198C40.7393 107.771 40.3427 110.694 40.3427 110.694C40.3427 110.694 40.3694 113.678 40.2588 114.639C40.1481 115.599 39.8702 115.986 39.4617 115.955C39.0532 115.923 38.9406 115.491 38.7979 113.833C38.6553 112.174 38.6953 110.809 38.74 110.19C38.7846 109.571 38.8666 106.944 38.8666 106.944C38.8666 106.944 38.5587 106.624 38.4967 107.121C38.4354 107.617 38.2475 109.401 38.2475 109.401C38.2475 109.401 38.0529 111.559 37.7823 112.398C37.5111 113.237 36.9059 113.484 36.802 112.765C36.698 112.045 36.7646 109.816 36.8006 109.358C36.8366 108.9 36.9099 105.463 36.7713 104.383C36.6327 103.303 36.596 101.417 36.9486 100.626C38.5927 96.9371 38.7273 95.8721 39.9549 92.2734C40.6406 90.2627 42.2794 86.7919 43.2911 81.4664C44.6899 74.103 47.3497 69.4986 47.3497 69.3113C47.3503 69.0214 48.1201 49.5608 48.2807 47.4929C48.5232 44.3693 51.3829 41.0891 53.5422 40.7006L53.5428 40.6992Z" fill="#D7A485"/>
<path fill-rule="evenodd" clip-rule="evenodd" d="M28.9814 55.0129C29.6599 55.5347 31.2347 56.1698 34.8301 55.9079C39.5105 55.5667 43.2778 53.9665 44.5647 53.3574C43.5344 54.0498 37.4785 56.6969 33.6078 56.559C29.5952 56.4157 28.9821 55.0129 28.9821 55.0129H28.9814Z" fill="#E0D0C4"/>
<path fill-rule="evenodd" clip-rule="evenodd" d="M30.9316 52.4551C30.9316 52.4551 31.94 53.0355 32.5231 54.2611C32.6837 54.599 32.7817 54.8989 32.839 55.1568C33.0176 55.1601 33.2015 55.1615 33.3928 55.1601C33.1275 54.2011 32.4851 52.8943 30.9316 52.4551Z" fill="#EDBA9D"/>
<path fill-rule="evenodd" clip-rule="evenodd" d="M39.751 52.1758C39.751 52.1758 38.7127 52.497 37.7297 53.2028C37.0526 53.6886 36.4668 54.5176 36.1436 55.0395C36.4081 55.0115 36.6694 54.9795 36.9273 54.9448C37.3731 54.1571 38.2735 52.8922 39.751 52.1764V52.1758Z" fill="#EDBA9D"/>
<path fill-rule="evenodd" clip-rule="evenodd" d="M34.4861 55.4307C34.2482 54.6103 33.795 53.662 32.9453 52.793C32.9453 52.793 33.5144 53.9866 33.5251 55.4634C33.827 55.46 34.1469 55.4494 34.4861 55.4307Z" fill="#BE8766"/>
</svg>
