<svg width="85" height="212" viewBox="0 0 85 212" fill="none" xmlns="http://www.w3.org/2000/svg">
<path fill-rule="evenodd" clip-rule="evenodd" d="M36.1267 34.922C36.1267 34.922 36.9297 36.7903 37.338 39.0322C37.7463 41.2726 37.3064 42.3996 35.753 43.1499C34.1982 43.9002 31.9864 44.9322 30.8263 45.5605C29.6661 46.1903 27.9531 47.4936 28.1489 50.4692C28.3433 53.4448 29.6676 56.2442 29.6676 56.2442C29.6676 56.2442 47.3061 61.183 49.9517 58.8462C52.5974 56.5094 55.906 41.4534 52.4588 40.9185C52.2886 40.8914 50.9522 40.6865 50.794 40.6684C49.9171 40.569 46.8932 40.7829 45.7843 38.0453C44.6167 35.1661 45.4333 30.1836 45.4333 30.1836C45.4333 30.1836 39.7321 35.038 36.1297 34.9235L36.1267 34.922Z" fill="#D7A485"/>
<path fill-rule="evenodd" clip-rule="evenodd" d="M48.0202 48.8662C48.0202 48.8662 47.0891 53.7342 45.7226 55.8285C44.356 57.9227 47.508 60.591 47.8831 57.3939C48.2583 54.1968 48.0202 48.8662 48.0202 48.8662V48.8662Z" fill="#BE8766"/>
<path fill-rule="evenodd" clip-rule="evenodd" d="M29.8484 111.069C29.8484 111.069 29.6345 113.961 30.3863 118.58C31.1396 123.201 31.908 125.059 32.1852 126.925C33.7266 122.057 36.083 114.908 36.7986 112.74C32.7623 111.184 30.1693 111.077 29.8469 111.069H29.8484ZM35.7922 152.466C36.877 160.224 38.3927 171.738 38.2571 174.594C38.0476 179.004 34.953 186.468 34.953 186.468C34.953 186.468 33.7582 187.451 35.1639 188.697C36.5696 189.941 37.9768 189.959 37.9768 189.959L38.3354 189.415C38.3204 189.179 38.3625 189.022 38.3625 189.022C38.3625 189.022 38.3625 189.022 38.9923 183.445C39.6221 177.867 40.2504 175.631 39.1611 166.192C38.6744 161.975 37.2913 157.021 35.7907 152.468L35.7922 152.466ZM45.0626 150.283C45.1184 148.291 45.3338 146.824 44.8366 143.813C44.3394 140.803 43.0904 140.059 42.3416 137.281C41.5913 134.502 45.2615 129.446 45.1786 125.212C44.8773 124.317 37.4842 134.225 38.4981 137.003C39.5121 139.782 41.6335 140.448 43.336 143.967C45.0385 147.487 44.7914 148.529 45.0626 150.283V150.283Z" fill="#C99371"/>
<path fill-rule="evenodd" clip-rule="evenodd" d="M30.6153 54.7152C31.2225 55.2365 32.6312 55.8708 35.8479 55.6087C40.0545 55.2667 43.437 53.6545 44.573 53.0534C46.5362 43.6609 49.7574 41.1689 51.2113 40.5105C51.9918 40.1579 52.3066 40.4442 52.4362 40.7711C52.4227 40.7726 47.6948 41.297 45.2058 53.4783C45.5794 54.5148 46.4277 56.6558 47.7957 58.9685C49.7137 62.2093 48.2869 73.5801 48.2869 73.5801C48.2869 73.5801 49.8011 77.181 51.8516 80.8632C53.9022 84.5455 58.2218 92.1134 56.8115 100.489C55.4013 108.866 49.3129 119.117 49.3129 119.117C49.3129 119.117 44.7704 116.256 38.9833 113.651C33.1977 111.048 29.8469 111.067 29.8469 111.067C29.8469 111.067 29.7143 109.08 29.6676 106.372C29.5577 99.936 29.5787 88.6059 30.4541 84.3044C31.1532 80.8632 31.2948 79.5434 31.3295 77.0695C31.3747 73.8407 30.3185 74.6558 29.9253 71.2719C29.3964 66.7278 29.1599 66.0754 29.1599 66.0754C29.1599 66.0754 25.0859 61.6217 30.0066 54.3536C30.0398 54.2888 30.0744 54.2241 30.1106 54.1578C31.2481 52.0876 33.2791 48.9402 32.7111 44.592C32.6779 44.1008 33.3559 44.0165 33.3725 44.3374C33.8818 49.0065 31.9186 52.3242 30.7268 54.4968C30.6861 54.5691 30.6485 54.6414 30.6123 54.7122L30.6153 54.7152Z" fill="#D5C1B5"/>
<path fill-rule="evenodd" clip-rule="evenodd" d="M36.7986 112.74C33.82 116.102 32.015 127.251 31.0221 130.709C29.8861 134.664 29.8394 135.501 31.1637 139.559C31.7694 141.415 32.9823 145.483 34.5326 149.918C36.3707 155.174 38.5705 161.072 39.1596 166.192C40.2474 175.631 39.6206 177.867 38.9908 183.445C38.361 189.022 38.361 189.022 38.361 189.022C38.361 189.022 37.787 191.22 41.6968 191.55C45.6065 191.88 45.9049 189.675 45.8446 187.537C45.7828 185.399 46.1821 183.041 46.622 180.847C47.062 178.653 47.0107 177.412 46.0118 174.405C45.0114 171.397 45.254 169.597 45.7406 162.107C46.2273 154.618 47.5366 149.489 44.9361 144.461C42.3341 139.434 39.9536 139.584 38.9607 137.071C37.9693 134.558 46.7396 126.956 49.1758 119.037C48.3788 118.544 44.1843 115.996 38.9848 113.656C38.2074 113.307 37.4781 113.004 36.8001 112.742L36.7986 112.74Z" fill="#D7A485"/>
<path fill-rule="evenodd" clip-rule="evenodd" d="M34.9877 186.379C34.2554 186.956 32.7156 188.276 31.114 190.294C28.8947 193.089 29.5004 193.227 30.1739 193.23C30.8052 193.233 35.5466 193.572 36.9538 192.747C37.0668 192.371 37.1859 192.008 37.3004 191.669C37.5731 190.871 37.7946 190.327 37.9693 189.956C37.8624 189.953 36.5124 189.888 35.1639 188.694C33.7582 187.449 34.953 186.465 34.953 186.465L34.9892 186.378L34.9877 186.379Z" fill="#BA9F8A"/>
<path fill-rule="evenodd" clip-rule="evenodd" d="M38.3324 189.318C38.1516 189.553 37.8187 190.151 37.3004 191.67C36.4551 194.147 35.4653 197.983 37.1843 197.852C38.9049 197.719 46.0827 195.166 46.3297 192.021C46.5768 188.878 47.2533 186.879 47.6918 184.434C48.1302 181.988 49.2255 180.48 49.2843 178.809C49.3385 177.265 48.1377 175.923 46.0751 174.597C47.0138 177.464 47.0529 178.699 46.622 180.845C46.1821 183.038 45.7828 185.398 45.8446 187.534C45.9064 189.672 45.6066 191.88 41.6968 191.548C38.685 191.293 38.3339 189.931 38.3324 189.318V189.318Z" fill="#D4C1B5"/>
<path fill-rule="evenodd" clip-rule="evenodd" d="M48.9423 180.473C48.876 181.005 48.7705 181.66 48.6063 182.406C48.1197 184.611 48.299 187.893 48.2809 188.688C48.1799 188.884 47.3814 188.86 47.3829 188.725L47.4266 185.77C47.5215 185.333 47.6119 184.89 47.6933 184.432C47.9856 182.805 48.5671 181.594 48.9408 180.473H48.9423Z" fill="#A68C7A"/>
<path fill-rule="evenodd" clip-rule="evenodd" d="M40.1268 178.237C40.1268 178.237 38.9803 185.865 38.8477 187.806C38.7151 189.746 42.1985 177.686 40.1268 178.237Z" fill="#EDBA9D"/>
<path fill-rule="evenodd" clip-rule="evenodd" d="M30.9408 111.479C30.9408 111.479 31.0432 114.34 31.6383 118.75C32.2335 123.16 32.6312 124.307 32.5695 123.937C32.5092 123.568 32.0572 111.848 32.0572 111.848C32.0572 111.848 31.6368 111.348 30.9408 111.479V111.479Z" fill="#D7A485"/>
<path fill-rule="evenodd" clip-rule="evenodd" d="M37.3531 113.957L39.0029 114.441C39.0029 114.441 36.7926 118.679 34.1816 124.712C31.5706 130.744 31.2617 131.428 31.2617 131.428C33.5669 125.49 34.4166 117.504 37.3516 113.957H37.3531Z" fill="#EDBA9D"/>
<path fill-rule="evenodd" clip-rule="evenodd" d="M36.7986 112.74L36.0468 113.784C40.3438 114.063 47.3121 117.802 48.6681 120.476C48.882 119.939 49.0357 119.467 49.1743 119.033C48.3773 118.54 44.1828 115.993 38.9833 113.653C38.2058 113.303 37.4766 113 36.7986 112.738V112.74Z" fill="#C99371"/>
<path fill-rule="evenodd" clip-rule="evenodd" d="M29.9178 90.0605C29.9178 90.0605 27.4062 99.6263 27.6804 104.633C27.9546 109.638 27.9817 108.299 28.5166 110.281C29.0514 112.264 29.288 113.167 29.288 113.167C29.288 113.167 29.963 114.266 29.9449 113.959C29.9268 113.652 29.6948 106.179 29.6948 106.179C29.6948 106.179 30.0624 107.411 30.4556 108.271C30.8504 109.132 31.0462 109.319 31.3009 109.186C31.557 109.053 31.3069 107.575 31.0116 106.584C30.7163 105.593 30.87 104.225 30.537 102.914C30.204 101.602 29.6812 100.83 29.6812 100.83C29.749 96.6296 29.7385 94.7236 29.9163 90.0605H29.9178Z" fill="#D7A485"/>
<path fill-rule="evenodd" clip-rule="evenodd" d="M55.5565 92.8018C56.0221 95.1567 56.1697 97.6984 55.7283 100.324C54.3798 108.329 48.5626 118.127 48.5626 118.127C48.5626 118.127 48.2131 117.907 47.5863 117.535C48.7841 115.525 50.8964 111.528 53.2905 104.956C55.2582 99.5561 55.6364 95.4595 55.5565 92.8018Z" fill="#B99E8A"/>
<path fill-rule="evenodd" clip-rule="evenodd" d="M49.1125 75.4375C49.7529 76.8281 50.3043 78.0802 51.4358 80.1111L51.5729 80.3567C50.6237 80.9639 49.7227 81.9734 47.4718 87.1533C45.2193 92.3331 45.0385 95.4278 45.3519 98.3763C45.6653 101.325 45.7934 101.212 45.5342 104.261C45.2736 107.311 44.588 111.513 44.0607 112.326C43.5334 113.14 43.1688 113.128 43.1688 113.128C43.1688 113.128 42.9548 114.749 42.5149 115.34L42.2512 115.207C42.1533 114.027 41.6802 108.418 41.5521 107.906C41.409 107.332 41.0444 110.497 41.0444 110.497C41.0444 110.497 41.0338 110.906 41.0474 112.941C41.0534 113.8 41.0459 114.309 41.0354 114.611C40.6135 114.407 40.1796 114.202 39.7396 113.999L39.5031 107.764C39.5031 107.764 39.2756 110.318 38.8748 111.921C38.6925 112.65 38.4364 113.072 38.2104 113.315L38.0477 113.246C37.9573 113.026 37.9121 112.783 37.9256 112.518C38.0311 110.43 37.7659 104.96 42.9699 91.2031C47.3422 79.6411 46.4322 75.8533 49.1125 75.4405V75.4375Z" fill="#A38976"/>
<path d="M32.9868 93.9248C32.9898 93.9323 34.0852 96.5705 40.4523 98.5156L40.3498 98.8516C33.8245 96.8583 33.151 94.3587 33.148 94.3512L32.9868 93.9248ZM33.0079 100.372C33.02 100.379 36.9132 102.888 40.716 101.85L40.8079 102.189C36.8514 103.268 33.5247 100.996 33.5126 100.988L33.0064 100.37L33.0079 100.372Z" fill="#B99E8A"/>
<path fill-rule="evenodd" clip-rule="evenodd" d="M36.1267 34.922C36.1267 34.922 36.9297 36.7903 37.338 39.0322C37.3697 39.2085 37.3998 39.3772 37.4254 39.5369C38.3234 39.8051 39.6869 39.8367 41.1996 38.5485C42.8283 37.1624 44.2762 35.4057 45.1576 34.2486C45.1169 32.1031 45.4303 30.1836 45.4303 30.1836C45.4303 30.1836 39.7291 35.038 36.1267 34.9235V34.922Z" fill="#C99371"/>
<path fill-rule="evenodd" clip-rule="evenodd" d="M36.1267 34.9221C36.1267 34.9221 36.4491 35.6739 36.7911 36.7964C38.8191 37.5618 40.1253 36.7165 42.313 35.3696C43.6795 34.5289 44.5911 33.5315 45.1847 32.6727C45.257 31.2444 45.4303 30.1807 45.4303 30.1807C45.4303 30.1807 39.7291 35.0351 36.1267 34.9206V34.9221Z" fill="#BE8766"/>
<path fill-rule="evenodd" clip-rule="evenodd" d="M44.4314 15.7805C47.4477 18.1986 48.1799 21.3084 47.3241 24.8897C46.4684 28.471 46.1384 29.7155 45.6593 31.2327C45.1817 32.7499 45.0852 33.0332 42.8825 34.4359C40.6798 35.837 38.801 36.842 37.326 36.2408C35.851 35.6397 34.5522 34.8366 33.8561 33.0995C33.1601 31.3623 32.8527 29.8827 32.3118 28.4062C31.7709 26.9297 32.244 26.5455 32.2335 24.9786C32.2229 23.4117 32.0557 23.3393 31.9517 21.8613C31.89 20.992 31.5253 19.1071 33.2143 16.8276C35.979 13.0986 40.8651 12.9223 44.4314 15.7805V15.7805Z" fill="#D6A384"/>
<path fill-rule="evenodd" clip-rule="evenodd" d="M47.5094 23.9765C47.7339 23.8605 48.0307 23.7791 48.3456 23.8951C49.0025 24.1392 49.4621 25.4123 48.6334 27.0486C47.8047 28.6863 47.4236 29.4683 47.2277 29.747C47.0439 30.0076 46.4216 30.2653 46.1444 29.6024C46.4397 28.5356 46.7742 27.1977 47.3256 24.888C47.3995 24.5807 47.4612 24.2763 47.5109 23.975L47.5094 23.9765Z" fill="#D6A384"/>
<path fill-rule="evenodd" clip-rule="evenodd" d="M46.2891 29.8435C46.2348 29.7817 46.1851 29.7033 46.1429 29.6039C46.4382 28.5372 46.7727 27.1993 47.3241 24.8896C47.3648 24.7193 47.401 24.5506 47.4356 24.3833C47.6059 24.3186 47.8213 24.2734 48.0835 24.2824C48.8187 24.311 48.8609 25.7423 48.5957 26.3887C48.3306 27.0336 48.3306 27.0336 48.3306 27.0336C48.3306 27.0336 48.5897 26.1959 48.5295 25.4681C48.4692 24.7404 47.8454 24.7675 47.6812 24.9499C47.5155 25.1322 47.2398 25.6278 47.3618 26.223C47.4838 26.8181 47.3513 27.5564 47.0424 27.7552C46.7893 27.918 46.3132 29.2182 46.2906 29.8435H46.2891Z" fill="#C99371"/>
<path fill-rule="evenodd" clip-rule="evenodd" d="M32.916 25.6669C32.916 25.6669 33.606 26.2063 34.2102 26.1897C34.8144 26.1746 35.8118 25.9471 35.8118 25.9471C35.8118 25.9471 35.9986 26.0722 36.0498 25.9787C36.1011 25.8853 35.7214 25.459 35.2468 25.1938C34.7737 24.9271 33.7175 24.8397 32.916 25.6669V25.6669Z" fill="white"/>
<path fill-rule="evenodd" clip-rule="evenodd" d="M35.8479 23.7867C35.8479 23.7867 36.7324 24.4647 36.9056 25.2587C37.0789 26.0528 36.9026 27.585 36.9026 27.585C36.9026 27.585 37.0879 26.1507 36.4792 25.2392C35.8705 24.3276 34.9018 23.7295 34.9018 23.7295L35.8479 23.7867Z" fill="#CB9877"/>
<path fill-rule="evenodd" clip-rule="evenodd" d="M39.0888 24.0127C39.0888 24.0127 38.3475 24.2914 38.1335 25.3476C37.9196 26.4053 37.9603 26.5604 37.9603 26.5604C37.9603 26.5604 38.5539 24.4315 39.0888 24.0127V24.0127Z" fill="#BE8766"/>
<path fill-rule="evenodd" clip-rule="evenodd" d="M38.8402 23.3561L38.7302 23.9286C38.7302 23.9286 40.9675 23.1316 41.9213 23.1994C42.875 23.2672 43.4686 23.4962 43.5319 23.5143C43.5952 23.5324 43.6464 23.5233 43.553 23.4254C43.4596 23.326 42.3974 22.5711 41.3924 22.7233C40.3875 22.874 38.8914 23.1949 38.8417 23.3576L38.8402 23.3561Z" fill="#413024"/>
<path fill-rule="evenodd" clip-rule="evenodd" d="M32.4384 23.9536C32.4384 23.9536 33.0727 23.5197 33.5503 23.4956C34.0264 23.4715 35.7711 23.8904 35.8856 23.922C36.0016 23.9536 36.0152 23.925 35.9866 23.8542C35.9579 23.7834 35.7937 23.3525 35.6009 23.3133C35.408 23.2741 33.6362 22.902 33.1887 23.2018C32.7412 23.5001 32.5017 23.7789 32.4519 23.821C32.4007 23.8632 32.2727 24.0546 32.4399 23.9536H32.4384Z" fill="#413024"/>
<path fill-rule="evenodd" clip-rule="evenodd" d="M33.3861 24.6368C33.3861 24.6368 34.2223 24.331 35.0012 24.5871C35.7802 24.8432 36.1402 25.4173 36.1402 25.4173C36.1402 25.4173 35.4683 23.7253 33.3861 24.6368V24.6368Z" fill="#BE8766"/>
<path fill-rule="evenodd" clip-rule="evenodd" d="M39.2364 25.3866C39.2364 25.3866 39.6538 24.7342 40.3694 24.457C41.0851 24.1782 41.7812 24.1541 41.7812 24.1541C41.7812 24.1541 39.7698 23.7518 39.2364 25.3866V25.3866Z" fill="#BE8766"/>
<path fill-rule="evenodd" clip-rule="evenodd" d="M32.916 25.6669C32.916 25.6669 33.606 26.2063 34.2102 26.1897C34.8144 26.1746 35.8118 25.9471 35.8118 25.9471C35.8118 25.9471 35.9986 26.0722 36.0498 25.9788C36.0604 25.9607 36.0528 25.9275 36.0317 25.8869C35.6626 25.8477 34.6577 26.1867 34.0264 26.0827C33.4403 25.9863 33.0893 25.6985 32.9823 25.6006C32.9597 25.6217 32.9371 25.6443 32.916 25.6669Z" fill="#EDBA9D"/>
<path fill-rule="evenodd" clip-rule="evenodd" d="M32.916 25.6673C32.916 25.6673 32.9672 25.708 33.0546 25.7668C33.2053 25.6598 33.9074 25.3991 34.7104 25.5302C35.5135 25.6598 35.8826 25.8105 36.0423 25.9913C36.0453 25.9882 36.0468 25.9837 36.0498 25.9807C36.1011 25.8873 35.7214 25.4609 35.2468 25.1957C34.7737 24.9291 33.7175 24.8417 32.916 25.6688V25.6673Z" fill="#ADA89F"/>
<path fill-rule="evenodd" clip-rule="evenodd" d="M34.4799 26.1733C34.6788 26.1538 34.8957 26.1221 35.0961 26.089C35.2528 25.9714 35.3553 25.7846 35.3553 25.5737C35.3553 25.4245 35.304 25.2874 35.2197 25.1774C35.0208 25.0735 34.733 25.0012 34.4076 25.0072C34.2057 25.1157 34.0701 25.3281 34.0701 25.5737C34.0701 25.8479 34.2404 26.0814 34.4814 26.1733H34.4799Z" fill="#625D54"/>
<path d="M34.7104 25.8587C34.8685 25.8587 34.9967 25.7305 34.9967 25.5724C34.9967 25.4143 34.8685 25.2861 34.7104 25.2861C34.5523 25.2861 34.4242 25.4143 34.4242 25.5724C34.4242 25.7305 34.5523 25.8587 34.7104 25.8587Z" fill="#402F24"/>
<path d="M34.0686 25.756C34.1476 25.756 34.2117 25.6919 34.2117 25.6129C34.2117 25.5338 34.1476 25.4697 34.0686 25.4697C33.9895 25.4697 33.9254 25.5338 33.9254 25.6129C33.9254 25.6919 33.9895 25.756 34.0686 25.756Z" fill="white"/>
<path fill-rule="evenodd" clip-rule="evenodd" d="M42.9639 25.4382C42.9639 25.4382 42.2196 26.077 41.5431 26.0905C40.8666 26.1041 39.7381 25.9022 39.7381 25.9022C39.7381 25.9022 39.5347 26.0514 39.473 25.9489C39.4112 25.8465 39.815 25.3508 40.3302 25.0283C40.847 24.7059 42.0222 24.5537 42.9639 25.4382Z" fill="white"/>
<path fill-rule="evenodd" clip-rule="evenodd" d="M42.9639 25.4384C42.9639 25.4384 42.2196 26.0773 41.5431 26.0908C40.8666 26.1044 39.7381 25.9025 39.7381 25.9025C39.7381 25.9025 39.5347 26.0517 39.4729 25.9492C39.4609 25.9281 39.4669 25.8919 39.4895 25.8452C39.9008 25.782 41.0414 26.1104 41.7435 25.9628C42.3943 25.8257 42.7725 25.4852 42.887 25.3691C42.9141 25.3917 42.9398 25.4158 42.9654 25.44L42.9639 25.4384Z" fill="#EDBA9D"/>
<path fill-rule="evenodd" clip-rule="evenodd" d="M42.9639 25.4382C42.9639 25.4382 42.9081 25.4864 42.8132 25.5557C42.6384 25.4442 41.6923 25.1142 40.8003 25.301C39.9084 25.4879 39.6507 25.75 39.482 25.961C39.479 25.958 39.476 25.9534 39.473 25.9489C39.4112 25.8465 39.815 25.3508 40.3302 25.0283C40.847 24.7059 42.0222 24.5537 42.9639 25.4382V25.4382Z" fill="#ADA89F"/>
<path fill-rule="evenodd" clip-rule="evenodd" d="M41.3035 26.0804C41.1288 26.0699 40.9465 26.0518 40.7717 26.0307C40.5698 25.9207 40.4282 25.7113 40.4161 25.4642C40.4071 25.2668 40.4839 25.0845 40.612 24.955C40.7943 24.8691 41.0263 24.8043 41.2885 24.7832C41.5567 24.8631 41.7586 25.1071 41.7721 25.4024C41.7872 25.7158 41.5868 25.9885 41.302 26.0804H41.3035Z" fill="#625D54"/>
<path d="M41.0824 25.7352C40.9158 25.7428 40.7746 25.614 40.7669 25.4475C40.7593 25.2809 40.8881 25.1397 41.0546 25.132C41.2212 25.1244 41.3624 25.2532 41.3701 25.4198C41.3777 25.5863 41.2489 25.7275 41.0824 25.7352Z" fill="#402F24"/>
<path d="M40.4352 25.7202C40.3431 25.7245 40.265 25.6532 40.2607 25.5611C40.2565 25.4689 40.3278 25.3908 40.4199 25.3866C40.512 25.3823 40.5902 25.4536 40.5944 25.5457C40.5986 25.6379 40.5274 25.716 40.4352 25.7202Z" fill="white"/>
<path fill-rule="evenodd" clip-rule="evenodd" d="M43.6479 25.2329C43.6479 25.2329 43.3857 25.3353 43.2125 25.4106C43.0392 25.4845 42.9262 25.4709 42.9262 25.4709C42.9262 25.4709 42.0147 24.7944 41.1001 24.9059C40.1856 25.0174 39.5392 25.7572 39.5392 25.7572C39.5392 25.7572 39.9566 24.6709 41.0851 24.5293C42.2136 24.3891 43.0528 25.0506 43.0528 25.0506C43.0528 25.0506 43.455 25.2796 43.6479 25.2314V25.2329Z" fill="#402F24"/>
<path fill-rule="evenodd" clip-rule="evenodd" d="M32.2998 25.4955C32.2998 25.4955 32.5363 25.5934 32.6945 25.6522C32.8527 25.711 32.9521 25.6944 32.9521 25.6944C32.9521 25.6944 33.7371 25.0541 34.5567 25.1158C35.3763 25.1776 35.9835 25.8119 35.9835 25.8119C35.9835 25.8119 35.524 24.8672 34.5115 24.7874C33.4991 24.7075 32.8211 25.3268 32.8211 25.3268C32.8211 25.3268 32.4715 25.5317 32.2982 25.497L32.2998 25.4955Z" fill="#402F24"/>
<path d="M37.2321 28.6152C37.3901 28.6317 37.5268 28.569 37.5373 28.4753C37.5479 28.3816 37.4283 28.2923 37.2703 28.2759C37.1123 28.2594 36.9757 28.3221 36.9651 28.4158C36.9546 28.5095 37.0741 28.5988 37.2321 28.6152Z" fill="#EDBA9D"/>
<path fill-rule="evenodd" clip-rule="evenodd" d="M38.9215 28.6846C38.9215 28.6846 39.143 28.8834 38.9637 29.4394C38.7844 29.9954 38.4047 29.8311 38.4047 29.8311C38.4047 29.8311 38.7874 30.2199 39.0857 29.7347C39.3841 29.2496 39.1068 28.8111 38.9215 28.6846Z" fill="#BE8766"/>
<path fill-rule="evenodd" clip-rule="evenodd" d="M36.1719 28.8828C36.1719 28.8828 36.0182 29.047 36.0559 29.4478C36.0935 29.8486 36.3692 30.0625 36.4792 30.0475C36.5892 30.0324 36.2141 30.1831 36.0167 29.7416C35.8193 29.3002 36.1719 28.8828 36.1719 28.8828Z" fill="#BE8766"/>
<path fill-rule="evenodd" clip-rule="evenodd" d="M36.5079 29.6987C36.5079 29.6987 36.4461 29.423 36.6691 29.5239C36.892 29.6248 36.9312 29.8463 37.1482 29.9925C37.3651 30.1386 37.6409 30.0949 37.6604 29.8825C37.6815 29.67 37.7252 29.4139 37.9663 29.4697C38.2074 29.5254 38.3897 29.8132 38.3897 29.8132C38.3897 29.8132 38.1787 29.5827 37.9573 29.6022C37.7358 29.6218 37.7087 29.768 37.6454 29.9443C37.5821 30.122 37.2808 30.1703 36.9855 29.8885C36.6902 29.6083 36.5591 29.6655 36.5079 29.6987V29.6987Z" fill="#9E6B4C"/>
<path fill-rule="evenodd" clip-rule="evenodd" d="M35.4216 31.9515C35.2272 31.7466 35.191 31.7632 35.075 31.7963C34.959 31.8295 34.8264 31.5206 35.0976 31.6095C35.3673 31.6984 35.2634 31.7978 35.7771 31.6743C36.2894 31.5507 36.7414 31.257 37.8051 31.2735C38.8688 31.2901 40.2896 31.4272 40.4899 31.4347C40.6903 31.4423 40.8229 31.1876 40.8862 31.2705C40.9495 31.3534 40.7762 31.4468 40.6572 31.4769C40.5382 31.5071 40.4854 31.6969 40.044 32.2589C39.6025 32.8224 38.1667 33.6119 37.2084 33.3542C36.2502 33.0966 35.6385 32.185 35.4231 31.95L35.4216 31.9515Z" fill="#B14F49"/>
<path fill-rule="evenodd" clip-rule="evenodd" d="M36.0092 31.9742C36.0092 31.9742 36.6977 32.1293 37.8247 32.0028C38.9517 31.8762 39.7065 31.709 39.7065 31.709C39.7065 31.709 38.813 32.381 37.6665 32.4201C36.5199 32.4593 36.0092 31.9742 36.0092 31.9742V31.9742Z" fill="white"/>
<path fill-rule="evenodd" clip-rule="evenodd" d="M36.7158 32.5138C36.7158 32.5138 37.457 32.7563 38.4349 32.5288C39.4142 32.3013 39.8496 32.009 39.7562 32.1522C39.6628 32.2953 38.8763 33.1767 37.6996 33.1526C36.5244 33.1285 36.3165 32.3601 36.7158 32.5138V32.5138Z" fill="#C25F5B"/>
<path fill-rule="evenodd" clip-rule="evenodd" d="M31.0523 45.7705C30.7072 45.9423 30.4059 46.0944 30.1844 46.215C29.1976 46.7513 28.2634 48.1058 28.4292 50.6385C28.5316 52.2084 28.8028 53.6277 28.9927 54.4805C28.9927 54.4805 28.3825 51.5711 29.0484 48.8064C29.4748 47.0346 30.4255 46.1653 31.0523 45.7705V45.7705Z" fill="#EDBA9D"/>
<path fill-rule="evenodd" clip-rule="evenodd" d="M37.8171 100.474C37.2536 101.129 36.8996 103.513 36.9478 105.631C36.996 107.749 36.8288 109.687 36.8288 109.687C36.8288 109.687 37.8895 110.455 38.1742 107.968C38.2962 106.898 38.0009 105.095 37.8382 104.078C37.6228 102.729 37.8186 100.474 37.8186 100.474H37.8171Z" fill="#C99371"/>
<path fill-rule="evenodd" clip-rule="evenodd" d="M52.5161 40.9263C53.4125 41.1146 54.4928 41.4431 55.2145 42.0051C56.6518 43.123 57.8647 44.2922 57.0722 48.327C56.2782 52.3618 55.7027 50.6382 55.6484 55.1461C55.5972 59.4205 55.2009 60.6484 54.419 63.1224C53.637 65.5963 52.3594 68.5523 52.0324 70.505C51.707 72.4576 51.6588 75.4152 49.8086 80.6945C47.9599 85.9738 46.7456 88.0198 45.7587 91.119C44.7719 94.2167 44.7523 94.2348 44.7206 94.7802C44.689 95.3271 44.8186 95.6541 44.6498 96.326C44.4811 96.998 44.6694 97.5404 44.811 98.3419C44.9527 99.1435 45.4453 100.531 45.1365 103.117C44.8261 105.703 44.698 106.859 44.6061 107.766C44.5142 108.673 44.4811 110.778 44.1948 111.814C43.9086 112.851 43.4099 112.681 43.3179 111.745C43.2245 110.81 43.2637 108.882 43.214 107.68C43.1643 106.478 43.1854 105.954 43.1854 105.954C43.1854 105.954 42.7439 109.476 42.7951 110.656C42.8464 111.836 42.8027 115.302 42.2362 115.235C41.6697 115.165 41.3608 110.656 41.3397 109.818C41.3171 108.98 41.4708 106.94 41.4708 106.94C41.4708 106.94 41.2403 106.754 41.1514 107.326C41.0625 107.9 40.7084 110.817 40.7084 110.817C40.7084 110.817 40.7325 113.797 40.6331 114.757C40.5336 115.717 40.285 116.102 39.9204 116.071C39.5558 116.039 39.4549 115.607 39.3268 113.951C39.1987 112.295 39.2349 110.932 39.2741 110.314C39.3133 109.696 39.3871 107.073 39.3871 107.073C39.3871 107.073 39.1114 106.754 39.0556 107.249C38.9999 107.745 38.8326 109.526 38.8326 109.526C38.8326 109.526 38.6594 111.68 38.4168 112.52C38.1742 113.357 37.6333 113.604 37.5399 112.886C37.4465 112.167 37.5068 109.94 37.5384 109.484C37.5701 109.027 37.6363 105.595 37.5128 104.516C37.3893 103.437 37.3561 101.554 37.671 100.765C39.1415 97.0809 39.262 96.0187 40.3604 92.4238C40.9736 90.4154 42.3356 85.5173 42.771 79.6263C43.3179 72.2497 46.4925 69.4563 46.5347 69.274C47.0861 66.8438 46.2695 64.2749 46.4804 58.6129C46.6537 53.9724 48.5822 53.1784 47.8078 47.7078C48.0247 44.589 50.583 41.3135 52.5146 40.9248L52.5161 40.9263Z" fill="#D7A485"/>
<path fill-rule="evenodd" clip-rule="evenodd" d="M30.543 55.2202C31.1502 55.7415 32.5589 56.3758 35.7756 56.1136C39.9626 55.7731 43.333 54.1746 44.4841 53.5674C43.562 54.2589 38.1441 56.9031 34.6818 56.7645C31.0929 56.6214 30.543 55.2202 30.543 55.2202Z" fill="#E0D0C4"/>
<path fill-rule="evenodd" clip-rule="evenodd" d="M32.2877 52.665C32.2877 52.665 33.1902 53.2451 33.7115 54.4685C33.8546 54.806 33.942 55.1058 33.9948 55.3635C34.1545 55.3665 34.3187 55.368 34.4904 55.3665C34.2524 54.4082 33.6784 53.1035 32.2877 52.665V52.665Z" fill="#EDBA9D"/>
<path fill-rule="evenodd" clip-rule="evenodd" d="M40.1781 52.3877C40.1781 52.3877 39.25 52.7086 38.3701 53.4137C37.7644 53.8989 37.2401 54.726 36.9508 55.2473C37.1874 55.2187 37.4209 55.1871 37.6514 55.1524C38.0507 54.3659 38.8567 53.1018 40.1766 52.3877H40.1781Z" fill="#EDBA9D"/>
<path fill-rule="evenodd" clip-rule="evenodd" d="M35.4683 55.6356C35.2558 54.816 34.8505 53.8698 34.0897 53.002C34.0897 53.002 34.5989 54.1937 34.608 55.6687C34.8776 55.6657 35.1639 55.6552 35.4683 55.6356V55.6356Z" fill="#BE8766"/>
</svg>
