<svg width="85" height="212" viewBox="0 0 85 212" fill="none" xmlns="http://www.w3.org/2000/svg">
<path d="M54.4515 41.5461C54.4515 41.5461 49.1967 37.2114 49.9702 22.7098C50.3359 15.8834 44.2308 11.7006 38.7021 12.5576C31.4003 13.6906 31.4745 20.6532 31.952 22.8437C31.4904 25.4574 31.1666 29.0306 31.8522 32.4831C33.2145 39.3489 36.9246 40.6056 36.9246 40.6056C36.9246 40.6056 32.7083 37.5471 32.5219 30.6044C32.3739 25.3077 33.3859 23.5611 34.8127 20.3015C35.9417 17.7179 37.1424 17.2214 37.3054 17.1644L37.3164 17.1635V17.1604L37.3239 17.1582L37.316 17.1564C37.3146 17.0968 37.3058 16.6776 37.3888 16.216C37.4873 15.6682 37.9105 14.7954 37.9105 14.7954C37.9105 14.7954 37.869 15.3855 37.8195 16.3088C37.8041 16.5999 37.835 17.1476 37.835 17.1476H37.8381C37.8602 17.152 40.0003 17.588 43.2422 25.3788C47.8163 36.3376 41.8998 40.1608 41.8998 40.1608C41.8998 40.1608 43.9582 38.8268 44.995 35.429C45.0003 35.6004 45.0078 35.7435 45.0184 35.8451C45.1558 37.0833 45.8073 38.7327 46.5909 39.6961C47.447 40.7439 50.6054 40.751 51.3815 40.8437C52.6709 40.9868 54.4515 41.5456 54.4515 41.5456V41.5461ZM40.7164 17.4524C45.4031 18.7864 45.2658 24.2259 46.2755 25.4958C46.7659 26.1204 47.1811 24.956 47.352 24.3553C47.5155 23.9242 48.0606 23.6914 48.421 24.0986C48.7634 24.49 49.202 24.9967 48.5562 26.7274C48.1904 27.7009 47.7902 28.3622 47.5049 28.8941C47.1961 29.4683 47.2792 29.8159 46.9523 29.7841C46.5035 29.7338 46.5035 29.2258 46.3087 29.4506C46.0132 29.7811 45.7596 30.1044 45.5586 30.4467C45.4831 28.807 45.1801 26.9262 44.5475 24.7811C43.5664 21.4509 41.7677 18.805 40.7164 17.4524Z" fill="url(#paint0_linear)"/>
<defs>
<linearGradient id="paint0_linear" x1="40.439" y1="16.3202" x2="45.8625" y2="38.514" gradientUnits="userSpaceOnUse">
<stop stop-color="#C2562E"/>
<stop offset="1" stop-color="#8B402A"/>
</linearGradient>
</defs>
</svg>
