<svg width="85" height="212" viewBox="0 0 85 212" fill="none" xmlns="http://www.w3.org/2000/svg">
<path d="M54.4515 41.546C54.4515 41.546 49.1968 37.2111 49.9699 22.7094C50.3356 15.8831 44.2308 11.7 38.7016 12.5571C31.3998 13.6901 31.4741 20.6525 31.9514 22.8433C31.4896 25.4571 31.1658 29.0299 31.8517 32.4831C33.2138 39.349 36.9241 40.6056 36.9241 40.6056C36.9241 40.6056 32.708 37.547 32.5212 30.6046C32.3731 25.3076 33.385 23.5612 34.812 20.3015C35.9415 17.718 37.142 17.2211 37.3048 17.1646L37.316 17.1638V17.1606L37.3235 17.1584L37.3155 17.1566C37.3142 17.097 37.3053 16.678 37.388 16.2163C37.4868 15.6687 37.9098 14.7955 37.9098 14.7955C37.9098 14.7955 37.868 15.3853 37.8191 16.3088C37.8035 16.5997 37.8346 17.1477 37.8346 17.1477H37.8377C37.86 17.1522 40 17.5881 43.2419 25.3788C47.8161 36.3379 41.8994 40.1612 41.8994 40.1612C41.8994 40.1612 43.9581 38.8272 44.995 35.4292C44.9999 35.6009 45.0079 35.7437 45.0181 35.8451C45.1556 37.0835 45.8072 38.7329 46.5906 39.6959C47.4469 40.7435 50.6051 40.7511 51.3809 40.8436C52.6704 40.9864 54.4511 41.5455 54.4511 41.5455L54.4515 41.546ZM40.7162 17.4524C45.4029 18.7865 45.2654 24.2262 46.2752 25.4958C46.7654 26.1203 47.1809 24.9558 47.3521 24.3552C47.5154 23.9238 48.0607 23.6911 48.421 24.0986C48.7635 24.49 49.2021 24.9967 48.5562 26.727C48.1902 27.7008 47.7903 28.3618 47.5047 28.8933C47.196 29.4676 47.2787 29.8155 46.9518 29.7834C46.5029 29.7332 46.5029 29.2252 46.3086 29.4498C46.0132 29.7803 45.7592 30.1037 45.5586 30.4458C45.483 28.8057 45.18 26.9254 44.5475 24.7805C43.5666 21.4501 41.7673 18.8043 40.7167 17.4516L40.7162 17.4524Z" fill="#402F26"/>
</svg>
