<svg width="85" height="212" viewBox="0 0 85 212" fill="none" xmlns="http://www.w3.org/2000/svg">
<path d="M53.9392 40.9386C53.9392 40.9386 48.6724 37.2667 49.4609 22.7645C49.8341 15.9383 43.6082 11.7555 37.9704 12.6122C30.3216 13.7759 31.1128 20.6321 31.3038 21.7965C30.7377 24.4432 30.181 28.5701 30.9853 32.5381C32.3741 39.4038 36.1579 40.661 36.1579 40.661C36.1579 40.661 31.8584 37.6023 31.6681 30.6595C31.5174 25.3627 32.5494 23.6164 34.0044 20.3565C35.1565 17.7719 36.3817 17.276 36.5467 17.2194L36.5577 17.2187V17.216L36.5658 17.2132L36.5577 17.2119C36.5563 17.1518 36.5467 16.733 36.632 16.2719C36.7323 15.7241 37.1641 14.851 37.1641 14.851C37.1641 14.851 37.1218 15.441 37.0713 16.3647C37.0556 16.6559 37.087 17.2037 37.087 17.2037H37.0904C37.1129 17.2078 39.2951 17.6437 42.6014 25.435C47.2658 36.3942 42.2439 39.9529 42.2439 39.9529C42.2439 39.9529 43.8667 38.8035 44.6758 35.7605C44.6798 35.8246 44.6839 35.8812 44.6887 35.929C44.8292 37.1671 45.5039 38.7735 46.3026 39.7367C47.1758 40.7844 50.1096 40.8083 50.9009 40.9011C52.2161 41.0436 53.9398 40.9406 53.9398 40.9406L53.9392 40.9386ZM40.025 17.5072C44.804 18.8408 44.6642 24.2808 45.6935 25.5503C46.1935 26.1744 46.6171 25.0107 46.7917 24.4098C46.9582 23.9787 47.5141 23.7454 47.8818 24.1533C48.231 24.5448 48.6785 25.0517 48.0196 26.7815C47.6465 27.755 47.2385 28.4159 46.9473 28.948C46.6321 29.5224 46.4309 29.9753 46.0973 29.9439C45.6396 29.8935 45.6396 29.3859 45.4411 29.6104C45.2515 29.8184 45.1219 30.0176 45.0318 30.2175C44.8831 28.6533 44.5427 26.8682 43.9315 24.8354C42.9309 21.5052 41.0966 18.8592 40.025 17.5065V17.5072Z" fill="#402F26"/>
</svg>
