<svg width="85" height="212" viewBox="0 0 85 212" fill="none" xmlns="http://www.w3.org/2000/svg">
<path d="M54.6253 40.9495C54.6253 40.9495 48.7572 37.3113 49.546 22.8095C49.9192 15.9829 43.6934 11.8002 38.0547 12.6572C29.6948 13.9298 30.8337 22.2059 30.8347 22.2124C30.514 24.7557 30.279 28.6805 31.0696 32.5831C32.4584 39.4493 36.2421 40.7062 36.2421 40.7062C36.2421 40.7062 31.9423 37.6477 31.7525 30.705C31.6014 25.4082 32.6335 23.6619 34.0885 20.4025C35.2404 17.8177 36.4651 17.3219 36.631 17.2657L36.642 17.2648V17.262L36.6503 17.2592L36.642 17.2574C36.6402 17.1975 36.631 16.7782 36.7167 16.3175C36.8171 15.7701 37.2484 14.8965 37.2484 14.8965C37.2484 14.8965 37.206 15.4862 37.1562 16.4096C37.1406 16.7008 37.1719 17.2482 37.1719 17.2482H37.1747C37.1977 17.2528 39.3798 17.6887 42.6853 25.4791C47.35 36.4387 42.3278 39.9966 42.3278 39.9966C42.3278 39.9966 43.9505 38.8475 44.7596 35.8037C44.7633 35.8683 44.7679 35.9245 44.7725 35.9724C44.9126 37.2109 45.5872 38.8171 46.3861 39.7801C47.2588 40.8278 50.5394 40.568 51.3309 40.6601C52.6459 40.803 54.6244 40.9495 54.6244 40.9495H54.6253ZM40.1097 17.5523C44.8886 18.8866 44.7486 24.3263 45.7788 25.5952C46.2792 26.22 46.7022 25.0552 46.8773 24.4544C47.0441 24.0231 47.5997 23.79 47.9674 24.1982C48.3167 24.5899 48.7636 25.0967 48.1056 26.8264C47.7324 27.8004 47.3242 28.4611 47.033 28.9929C46.7178 29.567 46.516 30.0203 46.1834 29.989C45.7254 29.9383 45.7254 29.4306 45.5273 29.6554C45.3374 29.8637 45.2084 30.0627 45.1181 30.2627C44.9697 28.6989 44.6288 26.913 44.0178 24.8811C43.0171 21.5507 41.1832 18.9051 40.1115 17.5523H40.1097Z" fill="#402F26"/>
</svg>
