<svg width="85" height="212" viewBox="0 0 85 212" fill="none" xmlns="http://www.w3.org/2000/svg">
<path d="M54.4516 41.5455C54.4516 41.5455 49.1968 37.2111 49.9703 22.7092C50.336 15.8829 44.2311 11.6998 38.7022 12.5572C31.4005 13.6901 31.4743 20.6528 31.952 22.8434C31.4902 25.4572 31.1662 29.0303 31.8523 32.4829C33.2145 39.3486 36.9249 40.6057 36.9249 40.6057C36.9249 40.6057 32.7087 37.5469 32.522 30.6045C32.3739 25.3076 33.3858 23.5612 34.8127 20.3016C35.942 17.7182 37.1429 17.2215 37.3055 17.1644L37.3169 17.1635V17.1608L37.3246 17.1585L37.3169 17.1567C37.3155 17.0969 37.3065 16.6777 37.3894 16.2164C37.4882 15.6686 37.911 14.7958 37.911 14.7958C37.911 14.7958 37.8693 15.3858 37.8203 16.3093C37.8049 16.6002 37.8357 17.1481 37.8357 17.1481H37.8389C37.8611 17.1526 40.0014 17.5881 43.2428 25.3792C47.8169 36.3383 41.9005 40.1616 41.9005 40.1616C41.9005 40.1616 43.9592 38.8275 44.996 35.4297C45.001 35.6015 45.0087 35.7442 45.0192 35.8457C45.1565 37.0842 45.8081 38.7337 46.5916 39.6967C47.4476 40.7444 50.6061 40.7516 51.3819 40.844C52.6716 40.9868 54.452 41.546 54.452 41.546L54.4516 41.5455ZM40.7164 17.4517C45.403 18.7858 45.2657 24.2255 46.2753 25.4952C46.7656 26.1197 47.1807 24.9555 47.352 24.3546C47.5156 23.9232 48.0603 23.6903 48.421 24.0981C48.7636 24.4897 49.2022 24.9963 48.556 26.7269C48.1903 27.7007 47.7897 28.3614 47.5047 28.8934C47.1961 29.4676 47.279 29.8156 46.9519 29.7839C46.5032 29.7336 46.5032 29.2256 46.3084 29.4504C46.0129 29.7807 45.7592 30.1043 45.5584 30.4464C45.4832 28.8064 45.1796 26.9258 44.5474 24.7811C43.5663 21.4508 41.7673 18.8048 40.7164 17.4522V17.4517Z" fill="url(#paint0_linear)"/>
<defs>
<linearGradient id="paint0_linear" x1="43.7403" y1="17.7417" x2="43.7403" y2="40.9678" gradientUnits="userSpaceOnUse">
<stop stop-color="#9B6B50"/>
<stop offset="1" stop-color="#734A39"/>
</linearGradient>
</defs>
</svg>
