<svg width="85" height="212" viewBox="0 0 85 212" fill="none" xmlns="http://www.w3.org/2000/svg">
<path d="M54.4515 41.5456C54.4515 41.5456 49.1966 37.2111 49.97 22.7092C50.3359 15.8829 44.2307 11.6998 38.7018 12.5572C31.4 13.6903 31.4741 20.6525 31.9519 22.8433C31.4901 25.4572 31.1664 29.0302 31.852 32.4828C33.2142 39.3486 36.9244 40.6056 36.9244 40.6056C36.9244 40.6056 32.7085 37.5468 32.5216 30.6046C32.3737 25.3075 33.3856 23.5612 34.8127 20.3017C35.9418 17.7184 37.1424 17.2216 37.3054 17.1647L37.3165 17.1639V17.1607L37.324 17.1585L37.316 17.1567C37.3147 17.0968 37.3058 16.6781 37.3889 16.2163C37.4874 15.6684 37.9106 14.7955 37.9106 14.7955C37.9106 14.7955 37.8688 15.3856 37.82 16.3087C37.8045 16.6 37.8355 17.1474 37.8355 17.1474H37.8386C37.8608 17.1519 40.001 17.5874 43.2428 25.3786C47.817 36.3378 41.9005 40.1607 41.9005 40.1607C41.9005 40.1607 43.9589 38.8265 44.9957 35.4289C45.0006 35.6003 45.0086 35.7432 45.0188 35.8449C45.1565 37.0833 45.8078 38.7328 46.5915 39.6959C47.4476 40.7437 50.6063 40.7508 51.382 40.8436C52.6714 40.9866 54.4519 41.5456 54.4519 41.5456H54.4515ZM40.7163 17.452C45.4029 18.7858 45.2657 24.2259 46.2754 25.4954C46.7656 26.1196 47.1807 24.9554 47.3521 24.3551C47.5155 23.924 48.0603 23.6909 48.4213 24.0985C48.7636 24.4901 49.2023 24.9967 48.5563 26.7271C48.1904 27.7008 47.7904 28.3619 47.5049 28.8934C47.1963 29.4675 47.2788 29.8156 46.9521 29.7837C46.5032 29.7335 46.5032 29.2255 46.3087 29.4502C46.0134 29.7806 45.7594 30.1042 45.5587 30.4461C45.4833 28.8064 45.18 26.9255 44.5477 24.7805C43.5669 21.4499 41.7677 18.804 40.7167 17.4516L40.7163 17.452Z" fill="url(#paint0_linear)"/>
<defs>
<linearGradient id="paint0_linear" x1="42.6997" y1="17.7548" x2="44.1787" y2="38.9162" gradientUnits="userSpaceOnUse">
<stop stop-color="#F5EFC7"/>
<stop offset="0.501961" stop-color="#E0C899"/>
<stop offset="1" stop-color="#C1A16A"/>
</linearGradient>
</defs>
</svg>
