<svg width="85" height="212" viewBox="0 0 85 212" fill="none" xmlns="http://www.w3.org/2000/svg">
<path d="M48.833 32.8438C48.833 32.8438 50.3163 27.3298 48.9727 21.7128C46.3009 10.5658 38.4175 12.9182 38.4175 12.9182C38.4175 12.9182 33.8884 11.9156 31.459 16.0588C26.7822 24.0202 30.1733 33.2489 30.1733 33.2489C30.1733 33.2489 30.5686 34.1696 31.2747 35.3867C31.8098 36.3154 36.1951 37.1678 36.5981 37.816C35.9607 36.3422 30.307 31.433 33.6243 22.0615C34.7334 18.9288 37.1321 17.0669 37.1321 17.0669C37.1321 17.0669 37.1847 16.6092 37.2718 16.117C37.3746 15.5718 37.7407 14.6856 37.7407 14.6856C37.7407 14.6856 37.6958 15.2838 37.6459 16.2044C37.6303 16.4929 37.662 17.0513 37.662 17.0513C37.662 17.0513 38.9766 20.4803 42.0884 21.5703C45.6192 22.8087 45.8902 26.7958 46.3622 26.7746C46.6256 26.7666 46.5597 25.7055 46.8311 25.0046C47.0286 24.4887 47.1237 24.3114 47.3449 24.1209C47.5664 23.9303 48.167 23.5677 48.5411 24.1951C49.2448 25.3749 48.8414 26.7669 47.7848 28.5288C46.5148 30.6454 46.1748 29.5425 46.1748 29.5425C46.1748 29.5425 45.8191 30.4893 45.7164 30.775C45.6216 31.0554 45.3266 31.8886 45.3266 31.8886C45.3266 31.8886 44.9894 32.7591 45.034 34.2699C45.0629 35.2515 45.3949 36.725 45.3949 36.725C45.3949 36.725 46.0484 35.8124 46.915 34.8464C47.8556 33.7961 48.833 32.8434 48.833 32.8434V32.8438Z" fill="url(#paint0_linear)"/>
<defs>
<linearGradient id="paint0_linear" x1="39.6723" y1="34.4371" x2="39.6723" y2="18.5509" gradientUnits="userSpaceOnUse">
<stop stop-color="#744B3A"/>
<stop offset="1" stop-color="#9A6B50"/>
</linearGradient>
</defs>
</svg>
