<svg width="85" height="212" viewBox="0 0 85 212" fill="none" xmlns="http://www.w3.org/2000/svg">
<path d="M48.4951 32.8439C48.4951 32.8439 50.0092 27.3301 48.6377 21.7129C45.9108 10.566 37.8644 12.9181 37.8644 12.9181C37.8644 12.9181 33.2416 11.9154 30.7621 16.0588C25.9886 24.02 29.4497 33.2487 29.4497 33.2487C29.4497 33.2487 29.8531 34.1695 30.5739 35.3865C31.1198 36.3151 35.5957 37.1676 36.0071 37.8158C35.3563 36.3422 29.5861 31.4329 32.9717 22.0612C34.1039 18.9286 36.552 17.0668 36.552 17.0668C36.552 17.0668 36.6058 16.6091 36.6945 16.1169C36.7994 15.5718 37.1732 14.6854 37.1732 14.6854C37.1732 14.6854 37.1275 15.2834 37.0764 16.2041C37.0601 16.4925 37.0925 17.0508 37.0925 17.0508C37.0925 17.0508 38.4345 20.4798 41.6105 21.5699C45.2141 22.808 45.4911 26.7954 45.9725 26.7742C46.2415 26.7662 46.1743 25.7052 46.4513 25.0042C46.653 24.4881 46.7497 24.3109 46.9757 24.1205C47.2016 23.93 47.8146 23.5675 48.1965 24.1946C48.9146 25.3746 48.5032 26.7663 47.4248 28.5284C46.1285 30.6452 45.7816 29.5422 45.7816 29.5422C45.7816 29.5422 45.4185 30.489 45.3136 30.7748C45.2169 31.0551 44.9156 31.8885 44.9156 31.8885C44.9156 31.8885 44.5714 32.759 44.6172 34.2698C44.6468 35.2513 44.9855 36.7251 44.9855 36.7251C44.9855 36.7251 45.6525 35.8123 46.5373 34.8466C47.4973 33.7962 48.4951 32.8438 48.4951 32.8438V32.8439Z" fill="url(#paint0_linear)"/>
<defs>
<linearGradient id="paint0_linear" x1="39.2004" y1="34.4373" x2="39.2004" y2="18.551" gradientUnits="userSpaceOnUse">
<stop stop-color="#C0A06A"/>
<stop offset="1" stop-color="#F2EEC7"/>
</linearGradient>
</defs>
</svg>
