<svg width="85" height="212" viewBox="0 0 85 212" fill="none" xmlns="http://www.w3.org/2000/svg">
<path d="M48.2958 32.799C48.2958 32.799 49.7854 27.285 48.4361 21.6679C45.7532 10.5211 37.8368 12.8732 37.8368 12.8732C37.8368 12.8732 33.2888 11.8704 30.8493 16.0138C26.1529 23.9751 29.5581 33.2038 29.5581 33.2038C29.5581 33.2038 29.9549 34.1246 30.6641 35.3416C31.2012 36.2703 35.6048 37.1228 36.0095 37.7709C35.3692 36.2972 29.6922 31.3879 33.0232 22.0163C34.1371 18.8837 36.5456 17.022 36.5456 17.022C36.5456 17.022 36.5986 16.5643 36.6859 16.0721C36.789 15.5271 37.1569 14.6406 37.1569 14.6406C37.1569 14.6406 37.1119 15.2387 37.0616 16.1594C37.0458 16.4478 37.0775 17.006 37.0775 17.006C37.0775 17.006 38.3978 20.435 41.5225 21.5251C45.0679 22.7633 45.3404 26.7506 45.814 26.7294C46.0786 26.7215 46.0126 25.6604 46.2851 24.9594C46.4835 24.4434 46.5788 24.2662 46.8009 24.0756C47.0232 23.8851 47.6265 23.5227 48.0021 24.1497C48.7086 25.3296 48.3038 26.7214 47.2428 28.4835C45.9675 30.6002 45.6261 29.4972 45.6261 29.4972C45.6261 29.4972 45.269 30.4441 45.1658 30.7298C45.0707 31.0102 44.7742 31.8436 44.7742 31.8436C44.7742 31.8436 44.4357 32.7141 44.4805 34.2249C44.5096 35.2065 44.843 36.6802 44.843 36.6802C44.843 36.6802 45.4992 35.7674 46.3697 34.8017C47.3143 33.7513 48.2958 32.7988 48.2958 32.7988V32.799Z" fill="url(#paint0_linear)"/>
<defs>
<linearGradient id="paint0_linear" x1="39.2006" y1="34.4952" x2="39.2006" y2="18.6088" gradientUnits="userSpaceOnUse">
<stop stop-color="#8B3F2A"/>
<stop offset="1" stop-color="#C1562E"/>
</linearGradient>
</defs>
</svg>
