<svg width="85" height="212" viewBox="0 0 85 212" fill="none" xmlns="http://www.w3.org/2000/svg">
<path fill-rule="evenodd" clip-rule="evenodd" d="M31.9072 22.4512H43.7216V27.2702H31.9072V22.4512Z" fill="#D6A384"/>
<path fill-rule="evenodd" clip-rule="evenodd" d="M32.5625 25.6668C32.5625 25.6668 33.252 26.2054 33.8566 26.1898C34.4603 26.1742 35.4589 25.9475 35.4589 25.9475C35.4589 25.9475 35.646 26.0722 35.697 25.9787C35.748 25.8851 35.3682 25.4592 34.8941 25.1927C34.4207 24.9263 33.3654 24.8384 32.5625 25.6668V25.6668Z" fill="white"/>
<path fill-rule="evenodd" clip-rule="evenodd" d="M35.4946 23.7879C35.4946 23.7879 36.3791 24.4661 36.5527 25.2598C36.6774 25.8289 36.6214 26.7785 36.5803 27.2703H36.5726C36.5903 26.7955 36.557 25.887 36.1254 25.2407C35.5166 24.3286 34.5479 23.7305 34.5479 23.7305L35.4946 23.7886V23.7879Z" fill="#CB9877"/>
<path fill-rule="evenodd" clip-rule="evenodd" d="M38.7357 24.0137C38.7357 24.0137 37.9952 24.2915 37.7812 25.3488C37.5671 26.4062 37.6075 26.5621 37.6075 26.5621C37.6075 26.5621 38.2007 24.4332 38.7365 24.0137H38.7357Z" fill="#BE8766"/>
<path fill-rule="evenodd" clip-rule="evenodd" d="M38.4868 23.3553L38.377 23.9272C38.377 23.9272 40.6143 23.13 41.5674 23.1987C42.5206 23.2667 43.1145 23.4956 43.1783 23.5134C43.2413 23.5311 43.2924 23.5233 43.1988 23.4241C43.1053 23.3249 42.0437 22.5701 41.0388 22.7211C40.0331 22.872 38.5378 23.193 38.4875 23.3553H38.4868Z" fill="#413024"/>
<path fill-rule="evenodd" clip-rule="evenodd" d="M32.0851 23.9548C32.0851 23.9548 32.7201 23.5211 33.1963 23.4963C33.6733 23.4714 35.4166 23.8917 35.5321 23.9229C35.6476 23.9541 35.6618 23.9264 35.6328 23.8556C35.6037 23.7854 35.44 23.3545 35.2465 23.3148C35.0531 23.2751 33.2821 22.9045 32.8342 23.2036C32.3863 23.5026 32.1475 23.7797 32.0972 23.8222C32.0461 23.8648 31.9179 24.0561 32.0851 23.9548Z" fill="#413024"/>
<path fill-rule="evenodd" clip-rule="evenodd" d="M33.032 24.6367C33.032 24.6367 33.8682 24.3312 34.647 24.5871C35.4266 24.8429 35.7859 25.4177 35.7859 25.4177C35.7859 25.4177 35.1148 23.7253 33.0312 24.6367H33.032Z" fill="#BE8766"/>
<path fill-rule="evenodd" clip-rule="evenodd" d="M38.8838 25.3863C38.8838 25.3863 39.3019 24.7343 40.017 24.4565C40.732 24.1787 41.428 24.1532 41.428 24.1532C41.428 24.1532 39.416 23.7506 38.8838 25.3863Z" fill="#BE8766"/>
<path fill-rule="evenodd" clip-rule="evenodd" d="M32.5625 25.6662C32.5625 25.6662 33.252 26.2048 33.8566 26.1892C34.4603 26.1736 35.4589 25.9469 35.4589 25.9469C35.4589 25.9469 35.646 26.0716 35.697 25.978C35.7069 25.9596 35.7005 25.927 35.6786 25.8859C35.3093 25.8469 34.3051 26.1857 33.6737 26.0822C33.0876 25.9865 32.7361 25.6981 32.6298 25.5996C32.6071 25.6209 32.5852 25.6428 32.5632 25.6662H32.5625Z" fill="#EDBA9D"/>
<path fill-rule="evenodd" clip-rule="evenodd" d="M32.5632 25.6668C32.5632 25.6668 32.6149 25.7072 32.7021 25.7653C32.8531 25.6583 33.5547 25.3982 34.3576 25.5279C35.1605 25.6576 35.5304 25.8086 35.6899 25.9893C35.6927 25.9857 35.6949 25.9822 35.697 25.9787C35.748 25.8851 35.3682 25.4592 34.8941 25.1927C34.4207 24.9263 33.3654 24.8384 32.5625 25.6668H32.5632Z" fill="#ADA89F"/>
<path fill-rule="evenodd" clip-rule="evenodd" d="M34.1259 26.1727C34.3257 26.1535 34.5419 26.1216 34.7417 26.0876C34.8983 25.9707 35.0004 25.7829 35.0004 25.5724C35.0004 25.4229 34.9494 25.2854 34.8643 25.1763C34.6659 25.0728 34.3782 25.0005 34.0529 25.0062C33.8516 25.1146 33.7148 25.3279 33.7148 25.5724C33.7148 25.846 33.8856 26.0798 34.1266 26.1727H34.1259Z" fill="#6F969E"/>
<path fill-rule="evenodd" clip-rule="evenodd" d="M34.3569 25.2871C34.5149 25.2871 34.6425 25.4147 34.6425 25.5727C34.6425 25.7307 34.5149 25.8583 34.3569 25.8583C34.1989 25.8583 34.0713 25.7307 34.0713 25.5727C34.0713 25.4147 34.1989 25.2871 34.3569 25.2871Z" fill="#402F24"/>
<path fill-rule="evenodd" clip-rule="evenodd" d="M33.7161 25.4707C33.7955 25.4707 33.86 25.5352 33.86 25.6146C33.86 25.6939 33.7955 25.7584 33.7161 25.7584C33.6368 25.7584 33.5723 25.6939 33.5723 25.6146C33.5723 25.5352 33.6368 25.4707 33.7161 25.4707Z" fill="white"/>
<path fill-rule="evenodd" clip-rule="evenodd" d="M42.6115 25.4396C42.6115 25.4396 41.8673 26.0782 41.1905 26.0916C40.5145 26.1051 39.3855 25.9024 39.3855 25.9024C39.3855 25.9024 39.1829 26.0512 39.1205 25.9492C39.0588 25.8471 39.4621 25.3511 39.9787 25.0286C40.4953 24.7062 41.671 24.5531 42.6122 25.4389L42.6115 25.4396Z" fill="white"/>
<path fill-rule="evenodd" clip-rule="evenodd" d="M42.6114 25.4388C42.6114 25.4388 41.8673 26.0773 41.1905 26.0907C40.5144 26.1042 39.3855 25.9015 39.3855 25.9015C39.3855 25.9015 39.1828 26.0504 39.1205 25.9483C39.1084 25.9278 39.1141 25.8916 39.136 25.8441C39.5471 25.7818 40.6888 26.1092 41.3904 25.9611C42.0416 25.8236 42.4201 25.4834 42.5335 25.3672C42.5597 25.3899 42.5859 25.4133 42.6114 25.4381V25.4388Z" fill="#EDBA9D"/>
<path fill-rule="evenodd" clip-rule="evenodd" d="M42.6115 25.4396C42.6115 25.4396 42.5555 25.4878 42.4605 25.5573C42.2862 25.4453 41.3394 25.1151 40.4471 25.3022C39.5549 25.4885 39.2977 25.7515 39.129 25.9612C39.1262 25.9577 39.1226 25.9541 39.1205 25.9492C39.0588 25.8471 39.4621 25.3511 39.978 25.0286C40.4946 24.7062 41.6703 24.5531 42.6115 25.4389V25.4396Z" fill="#ADA89F"/>
<path fill-rule="evenodd" clip-rule="evenodd" d="M40.9511 26.0801C40.7767 26.0695 40.5939 26.051 40.4203 26.0312C40.2183 25.9213 40.0765 25.7116 40.0652 25.465C40.056 25.2672 40.1325 25.0858 40.2615 24.9554C40.4436 24.8697 40.6768 24.8045 40.9383 24.7832C41.2069 24.8633 41.4082 25.1064 41.4223 25.4026C41.4365 25.7158 41.2366 25.9887 40.9518 26.0801H40.9511Z" fill="#6F969E"/>
<path fill-rule="evenodd" clip-rule="evenodd" d="M40.7011 25.1331C40.5346 25.1409 40.4063 25.282 40.4134 25.4485C40.4212 25.615 40.5622 25.7433 40.7287 25.7362C40.8953 25.7284 41.0235 25.5874 41.0165 25.4209C41.0087 25.2543 40.8676 25.1254 40.7011 25.1331Z" fill="#402F24"/>
<path fill-rule="evenodd" clip-rule="evenodd" d="M40.0662 25.3876C39.974 25.3919 39.9032 25.4705 39.9074 25.5619C39.9117 25.6541 39.9896 25.7249 40.0817 25.7207C40.1739 25.7164 40.2447 25.6385 40.2412 25.5464C40.2369 25.4542 40.1583 25.3826 40.0669 25.3869L40.0662 25.3876Z" fill="white"/>
<path fill-rule="evenodd" clip-rule="evenodd" d="M43.2947 25.2337C43.2947 25.2337 43.0325 25.3372 42.8589 25.4109C42.6853 25.4853 42.5726 25.4711 42.5726 25.4711C42.5726 25.4711 41.6605 24.7951 40.747 24.907C39.8328 25.019 39.1865 25.7589 39.1865 25.7589C39.1865 25.7589 39.6039 24.6725 40.7329 24.5314C41.8618 24.3904 42.7009 25.0523 42.7009 25.0523C42.7009 25.0523 43.1034 25.2805 43.2962 25.2337H43.2947Z" fill="#402F24"/>
<path fill-rule="evenodd" clip-rule="evenodd" d="M31.946 25.497C31.946 25.497 32.1827 25.5941 32.3408 25.6536C32.4988 25.7124 32.5987 25.6954 32.5987 25.6954C32.5987 25.6954 33.3839 25.0548 34.2039 25.1171C35.0238 25.1795 35.6304 25.813 35.6304 25.813C35.6304 25.813 35.1705 24.8677 34.1578 24.7883C33.1451 24.7089 32.4676 25.3269 32.4676 25.3269C32.4676 25.3269 32.1189 25.531 31.9453 25.497H31.946Z" fill="#402F24"/>
</svg>
