<svg width="85" height="212" viewBox="0 0 85 212" fill="none" xmlns="http://www.w3.org/2000/svg">
<path fill-rule="evenodd" clip-rule="evenodd" d="M31.9072 22.4512H43.7215V27.2695H31.9072V22.4512Z" fill="#D6A384"/>
<path fill-rule="evenodd" clip-rule="evenodd" d="M32.5635 25.6669C32.5635 25.6669 33.2536 26.2058 33.8575 26.1898C34.4614 26.1744 35.4597 25.9473 35.4597 25.9473C35.4597 25.9473 35.6467 26.0722 35.6978 25.9787C35.7489 25.8852 35.3684 25.4595 34.8952 25.1929C34.4213 24.9264 33.3668 24.838 32.5635 25.6669V25.6669Z" fill="white"/>
<path fill-rule="evenodd" clip-rule="evenodd" d="M35.4945 23.7869C35.4945 23.7869 36.3789 24.4654 36.5527 25.2584C36.6776 25.8273 36.6213 26.7774 36.5804 27.2689H36.5731C36.5907 26.7942 36.5578 25.885 36.1262 25.2387C35.5172 24.3266 34.5488 23.7285 34.5488 23.7285L35.4953 23.7862L35.4945 23.7869Z" fill="#CB9877"/>
<path fill-rule="evenodd" clip-rule="evenodd" d="M38.7348 24.0124C38.7348 24.0124 37.9943 24.2907 37.7803 25.3474C37.5663 26.4048 37.6065 26.5604 37.6065 26.5604C37.6065 26.5604 38.1995 24.4316 38.7348 24.0117V24.0124Z" fill="#BE8766"/>
<path fill-rule="evenodd" clip-rule="evenodd" d="M38.4865 23.3557L38.377 23.9275C38.377 23.9275 40.6138 23.1301 41.5675 23.1987C42.5212 23.2674 43.1149 23.4959 43.1785 23.5135C43.242 23.5317 43.2931 23.523 43.1989 23.4236C43.1054 23.3243 42.0436 22.57 41.0388 22.7211C40.0332 22.8723 38.5383 23.1929 38.4872 23.3557H38.4865Z" fill="#413024"/>
<path fill-rule="evenodd" clip-rule="evenodd" d="M32.0854 23.954C32.0854 23.954 32.72 23.5202 33.1969 23.4954C33.6738 23.4705 35.4169 23.8912 35.5323 23.9226C35.6477 23.954 35.6623 23.9255 35.6323 23.8554C35.6031 23.7853 35.4396 23.3544 35.246 23.315C35.0525 23.2756 33.2816 22.9046 32.834 23.2033C32.3863 23.5019 32.1475 23.7794 32.0971 23.8218C32.046 23.8642 31.9182 24.0555 32.0847 23.9547L32.0854 23.954Z" fill="#413024"/>
<path fill-rule="evenodd" clip-rule="evenodd" d="M33.0322 24.6367C33.0322 24.6367 33.8684 24.3315 34.6476 24.5871C35.4268 24.8434 35.7868 25.4174 35.7868 25.4174C35.7868 25.4174 35.1157 23.7254 33.0322 24.6367V24.6367Z" fill="#BE8766"/>
<path fill-rule="evenodd" clip-rule="evenodd" d="M38.8838 25.3878C38.8838 25.3878 39.3015 24.7364 40.0172 24.4582C40.7328 24.1799 41.428 24.1551 41.428 24.1551C41.428 24.1551 39.4162 23.7527 38.8838 25.3878Z" fill="#BE8766"/>
<path fill-rule="evenodd" clip-rule="evenodd" d="M32.5635 25.668C32.5635 25.668 33.2536 26.207 33.8575 26.1909C34.4614 26.1756 35.4597 25.9484 35.4597 25.9484C35.4597 25.9484 35.6467 26.0733 35.6978 25.9798C35.708 25.9609 35.7007 25.9295 35.6795 25.8878C35.3107 25.8484 34.3059 26.188 33.6742 26.0843C33.0878 25.9886 32.7365 25.7001 32.6307 25.6016C32.608 25.6227 32.5861 25.6446 32.5642 25.668H32.5635Z" fill="#EDBA9D"/>
<path fill-rule="evenodd" clip-rule="evenodd" d="M32.5635 25.6676C32.5635 25.6676 32.6153 25.7078 32.703 25.7662C32.8541 25.6589 33.5552 25.3989 34.3585 25.5289C35.1618 25.6589 35.5313 25.81 35.6905 25.9897C35.6934 25.9867 35.6956 25.9831 35.6978 25.9787C35.7489 25.8852 35.3684 25.4595 34.8952 25.1929C34.4213 24.9264 33.3668 24.838 32.5635 25.6669V25.6676Z" fill="#CFC9BF"/>
<path fill-rule="evenodd" clip-rule="evenodd" d="M34.1257 26.1724C34.3251 26.1534 34.542 26.1212 34.7414 26.0876C34.8984 25.9708 34.9999 25.7831 34.9999 25.5721C34.9999 25.4231 34.9488 25.2851 34.8633 25.1763C34.6647 25.0733 34.3769 25.001 34.052 25.0061C33.8504 25.1149 33.7139 25.3274 33.7139 25.5721C33.7139 25.8459 33.8847 26.0796 34.125 26.1724H34.1257Z" fill="#9B9B99"/>
<path fill-rule="evenodd" clip-rule="evenodd" d="M34.3568 25.2871C34.5146 25.2871 34.6424 25.4149 34.6424 25.5726C34.6424 25.7304 34.5146 25.8582 34.3568 25.8582C34.1991 25.8582 34.0713 25.7304 34.0713 25.5726C34.0713 25.4149 34.1991 25.2871 34.3568 25.2871Z" fill="#402F24"/>
<path fill-rule="evenodd" clip-rule="evenodd" d="M33.7161 25.4688C33.7957 25.4688 33.86 25.533 33.86 25.6126C33.86 25.6922 33.7957 25.7565 33.7161 25.7565C33.6365 25.7565 33.5723 25.6922 33.5723 25.6126C33.5723 25.533 33.6365 25.4688 33.7161 25.4688Z" fill="white"/>
<path fill-rule="evenodd" clip-rule="evenodd" d="M42.611 25.4391C42.611 25.4391 41.8669 26.0774 41.1899 26.0912C40.5137 26.1051 39.3847 25.9021 39.3847 25.9021C39.3847 25.9021 39.1817 26.0511 39.1196 25.9488C39.0575 25.8466 39.4614 25.3508 39.9777 25.0287C40.494 24.7059 41.6704 24.5533 42.611 25.4391Z" fill="white"/>
<path fill-rule="evenodd" clip-rule="evenodd" d="M42.6109 25.4388C42.6109 25.4388 41.8668 26.077 41.1898 26.0909C40.5136 26.1048 39.3846 25.9017 39.3846 25.9017C39.3846 25.9017 39.1816 26.0507 39.1195 25.9485C39.1071 25.928 39.1137 25.8915 39.1356 25.8441C39.5467 25.7813 40.6881 26.1091 41.3899 25.9609C42.0413 25.8236 42.4196 25.4833 42.5328 25.3672C42.5591 25.3898 42.5854 25.4132 42.6109 25.438V25.4388Z" fill="#EDBA9D"/>
<path fill-rule="evenodd" clip-rule="evenodd" d="M42.6113 25.4384C42.6113 25.4384 42.5558 25.4866 42.4608 25.556C42.2863 25.4442 41.3399 25.1141 40.4475 25.3011C39.5551 25.488 39.298 25.7509 39.1293 25.9605C39.1264 25.9569 39.1235 25.9532 39.1206 25.9488C39.0585 25.8466 39.4623 25.3508 39.9786 25.0287C40.4949 24.7059 41.6714 24.5533 42.612 25.4391L42.6113 25.4384Z" fill="#CFC9BF"/>
<path fill-rule="evenodd" clip-rule="evenodd" d="M40.951 26.0802C40.7764 26.0692 40.5939 26.0517 40.42 26.0312C40.2178 25.9217 40.0761 25.7114 40.0651 25.4653C40.0564 25.2674 40.1323 25.0863 40.2616 24.9555C40.4434 24.8701 40.6764 24.8051 40.9385 24.7832C41.2073 24.8635 41.4088 25.1067 41.422 25.4025C41.4366 25.7158 41.2365 25.9889 40.9517 26.0802H40.951Z" fill="#9B9B99"/>
<path fill-rule="evenodd" clip-rule="evenodd" d="M40.7011 25.1328C40.5346 25.1401 40.4061 25.2818 40.4134 25.4483C40.4207 25.6148 40.5624 25.7433 40.7281 25.736C40.8946 25.7287 41.0232 25.587 41.0159 25.4213C41.0078 25.2548 40.8669 25.1262 40.7004 25.1335L40.7011 25.1328Z" fill="#402F24"/>
<path fill-rule="evenodd" clip-rule="evenodd" d="M40.0666 25.3867C39.9745 25.3911 39.9037 25.4692 39.9074 25.5613C39.9117 25.6533 39.9899 25.7241 40.0819 25.7205C40.1739 25.7161 40.2455 25.6379 40.2411 25.5466C40.2367 25.4546 40.1586 25.3831 40.0666 25.3874V25.3867Z" fill="white"/>
<path fill-rule="evenodd" clip-rule="evenodd" d="M43.294 25.2339C43.294 25.2339 43.0319 25.3369 42.8581 25.4114C42.6843 25.4851 42.5718 25.4713 42.5718 25.4713C42.5718 25.4713 41.6597 24.795 40.7461 24.9068C39.8318 25.0185 39.1855 25.7582 39.1855 25.7582C39.1855 25.7582 39.6025 24.6716 40.7315 24.5314C41.8605 24.3905 42.6996 25.0528 42.6996 25.0528C42.6996 25.0528 43.1027 25.2814 43.2948 25.2339H43.294Z" fill="#402F24"/>
<path fill-rule="evenodd" clip-rule="evenodd" d="M31.9463 25.4967C31.9463 25.4967 32.1829 25.5938 32.3414 25.653C32.4991 25.7121 32.5992 25.6946 32.5992 25.6946C32.5992 25.6946 33.3842 25.0541 34.2043 25.1169C35.0236 25.179 35.6312 25.8129 35.6312 25.8129C35.6312 25.8129 35.1719 24.8679 34.159 24.7883C33.1469 24.7087 32.4684 25.3273 32.4684 25.3273C32.4684 25.3273 32.1194 25.5317 31.9463 25.4974V25.4967Z" fill="#402F24"/>
</svg>
