<svg width="85" height="212" viewBox="0 0 85 212" fill="none" xmlns="http://www.w3.org/2000/svg">
<path fill-rule="evenodd" clip-rule="evenodd" d="M32.2607 22.4512H44.0744V27.2703H32.2607V22.4512Z" fill="#D6A384"/>
<path fill-rule="evenodd" clip-rule="evenodd" d="M32.916 25.6687C32.916 25.6687 33.6062 26.2072 34.2094 26.1916C34.8138 26.176 35.8117 25.9496 35.8117 25.9496C35.8117 25.9496 35.999 26.0745 36.0503 25.9809C36.1016 25.8872 35.7214 25.4613 35.2475 25.1948C34.7736 24.9283 33.7188 24.8402 32.916 25.6687Z" fill="white"/>
<path fill-rule="evenodd" clip-rule="evenodd" d="M35.848 23.7884C35.848 23.7884 36.7322 24.4664 36.9062 25.2603C37.0311 25.8289 36.9753 26.7789 36.934 27.2707H36.9262C36.9441 26.7957 36.9106 25.8869 36.4791 25.2402C35.8703 24.3281 34.9014 23.7305 34.9014 23.7305L35.848 23.7884V23.7884Z" fill="#CB9877"/>
<path fill-rule="evenodd" clip-rule="evenodd" d="M39.0894 24.0137C39.0894 24.0137 38.349 24.2913 38.1349 25.3483C37.9209 26.4054 37.961 26.5615 37.961 26.5615C37.961 26.5615 38.5542 24.4329 39.0894 24.0137Z" fill="#BE8766"/>
<path fill-rule="evenodd" clip-rule="evenodd" d="M38.8409 23.3546L38.7305 23.9266C38.7305 23.9266 40.9672 23.1293 41.9205 23.1973C42.8739 23.2654 43.4682 23.4939 43.5317 23.5129C43.5953 23.5307 43.6466 23.5229 43.5529 23.4237C43.4593 23.3245 42.3978 22.5696 41.392 22.7212C40.3863 22.8729 38.891 23.1929 38.8409 23.3557V23.3546Z" fill="#413024"/>
<path fill-rule="evenodd" clip-rule="evenodd" d="M32.4385 23.9537C32.4385 23.9537 33.0729 23.52 33.5502 23.4954C34.0274 23.4709 35.7702 23.8913 35.8861 23.9225C36.001 23.9537 36.0155 23.9258 35.9865 23.8556C35.9575 23.7853 35.7936 23.3549 35.6007 23.3148C35.4078 23.2758 33.636 22.9045 33.1889 23.2033C32.7407 23.5021 32.502 23.7798 32.4519 23.8221C32.4006 23.8645 32.2724 24.0563 32.4396 23.9548L32.4385 23.9537Z" fill="#413024"/>
<path fill-rule="evenodd" clip-rule="evenodd" d="M33.3857 24.6379C33.3857 24.6379 34.222 24.3323 35.0014 24.5888C35.7808 24.8453 36.141 25.4195 36.141 25.4195C36.141 25.4195 35.4697 23.7269 33.3869 24.639L33.3857 24.6379Z" fill="#BE8766"/>
<path fill-rule="evenodd" clip-rule="evenodd" d="M39.2363 25.3864C39.2363 25.3864 39.6545 24.7352 40.3692 24.4564C41.085 24.1788 41.7808 24.1532 41.7808 24.1532C41.7808 24.1532 39.7693 23.7506 39.2363 25.3864V25.3864Z" fill="#BE8766"/>
<path fill-rule="evenodd" clip-rule="evenodd" d="M32.916 25.6685C32.916 25.6685 33.6062 26.207 34.2094 26.1914C34.8138 26.1758 35.8117 25.9494 35.8117 25.9494C35.8117 25.9494 35.999 26.0743 36.0503 25.9807C36.0604 25.9617 36.0537 25.9305 36.0314 25.8881C35.6623 25.8491 34.6577 26.1881 34.0266 26.0844C33.4401 25.9885 33.0888 25.7008 32.9829 25.6016C32.9606 25.6227 32.9383 25.645 32.916 25.6673V25.6685Z" fill="#EDBA9D"/>
<path fill-rule="evenodd" clip-rule="evenodd" d="M32.916 25.6678C32.916 25.6678 32.9673 25.708 33.0554 25.7671C33.2059 25.66 33.9073 25.4002 34.7112 25.5296C35.514 25.66 35.8842 25.8105 36.0436 25.9901C36.0459 25.9867 36.0492 25.9834 36.0514 25.9789C36.1027 25.8852 35.7225 25.4593 35.2486 25.1928C34.7748 24.9263 33.7199 24.8382 32.9171 25.6667L32.916 25.6678Z" fill="#ADA89F"/>
<path fill-rule="evenodd" clip-rule="evenodd" d="M34.4798 26.1724C34.6794 26.1534 34.8957 26.1211 35.0953 26.0876C35.2525 25.9705 35.354 25.7832 35.354 25.5725C35.354 25.4231 35.3027 25.2859 35.2179 25.1767C35.0195 25.073 34.7318 25.0016 34.4062 25.0061C34.2044 25.1142 34.0684 25.3272 34.0684 25.5725C34.0684 25.8457 34.239 26.0798 34.4798 26.1724Z" fill="#667F30"/>
<path fill-rule="evenodd" clip-rule="evenodd" d="M34.7102 25.2871C34.8686 25.2871 34.9957 25.4153 34.9957 25.5726C34.9957 25.7309 34.8675 25.858 34.7102 25.858C34.553 25.858 34.4248 25.7298 34.4248 25.5726C34.4248 25.4142 34.553 25.2871 34.7102 25.2871Z" fill="#402F24"/>
<path fill-rule="evenodd" clip-rule="evenodd" d="M34.0696 25.4707C34.1488 25.4707 34.2135 25.5354 34.2135 25.6145C34.2135 25.6937 34.1488 25.7584 34.0696 25.7584C33.9904 25.7584 33.9258 25.6937 33.9258 25.6145C33.9258 25.5354 33.9904 25.4707 34.0696 25.4707Z" fill="white"/>
<path fill-rule="evenodd" clip-rule="evenodd" d="M42.9633 25.4398C42.9633 25.4398 42.2185 26.0787 41.5428 26.0921C40.866 26.1055 39.7376 25.9025 39.7376 25.9025C39.7376 25.9025 39.5346 26.0519 39.4722 25.9494C39.4098 25.8479 39.8134 25.3517 40.3297 25.0284C40.8459 24.7061 42.0223 24.5534 42.9633 25.4387V25.4398Z" fill="white"/>
<path fill-rule="evenodd" clip-rule="evenodd" d="M42.964 25.4394C42.964 25.4394 42.2192 26.0783 41.5435 26.0917C40.8667 26.1051 39.7383 25.9021 39.7383 25.9021C39.7383 25.9021 39.5354 26.0515 39.4729 25.9489C39.4606 25.9289 39.4673 25.8921 39.4885 25.8453C39.9 25.7828 41.0406 26.1106 41.742 25.9623C42.3931 25.8252 42.7711 25.484 42.8849 25.3691C42.9105 25.3914 42.9373 25.416 42.9629 25.4394H42.964Z" fill="#EDBA9D"/>
<path fill-rule="evenodd" clip-rule="evenodd" d="M42.9633 25.4387C42.9633 25.4387 42.9076 25.4866 42.8128 25.5569C42.6389 25.4454 41.6922 25.1153 40.7991 25.3015C39.9071 25.4877 39.6495 25.7509 39.4811 25.9605C39.4778 25.9572 39.4755 25.9527 39.4722 25.9494C39.4098 25.8479 39.8134 25.3517 40.3297 25.0284C40.8459 24.7061 42.0223 24.5534 42.9633 25.4387V25.4387Z" fill="#ADA89F"/>
<path fill-rule="evenodd" clip-rule="evenodd" d="M41.304 26.0811C41.1301 26.0699 40.9472 26.0521 40.7733 26.032C40.5714 25.9228 40.4298 25.712 40.4187 25.4656C40.4098 25.2682 40.4856 25.0865 40.6149 24.956C40.7967 24.8702 41.0297 24.8055 41.2917 24.7832C41.5605 24.8635 41.7623 25.1066 41.7757 25.4032C41.7902 25.7165 41.5894 25.9897 41.3051 26.0811H41.304Z" fill="#667F30"/>
<path fill-rule="evenodd" clip-rule="evenodd" d="M41.0546 25.1331C40.8885 25.141 40.7591 25.2814 40.7669 25.4487C40.7747 25.6148 40.9152 25.7442 41.0825 25.7364C41.2486 25.7286 41.378 25.5881 41.3702 25.4208C41.3624 25.2547 41.2219 25.1253 41.0546 25.1331Z" fill="#402F24"/>
<path fill-rule="evenodd" clip-rule="evenodd" d="M40.4193 25.3869C40.3279 25.3914 40.2565 25.4694 40.2599 25.5609C40.2643 25.6534 40.3424 25.7237 40.4338 25.7203C40.5264 25.7158 40.5966 25.6378 40.5933 25.5464C40.5888 25.4538 40.5108 25.3825 40.4193 25.3869Z" fill="white"/>
<path fill-rule="evenodd" clip-rule="evenodd" d="M43.6469 25.2338C43.6469 25.2338 43.3849 25.3375 43.211 25.4111C43.037 25.4847 42.9244 25.4713 42.9244 25.4713C42.9244 25.4713 42.0123 24.7956 41.0991 24.9071C40.1848 25.0186 39.5381 25.7589 39.5381 25.7589C39.5381 25.7589 39.9551 24.6729 41.0846 24.5313C42.213 24.3908 43.0526 25.052 43.0526 25.052C43.0526 25.052 43.4551 25.2806 43.648 25.2338H43.6469Z" fill="#402F24"/>
<path fill-rule="evenodd" clip-rule="evenodd" d="M32.2998 25.4955C32.2998 25.4955 32.5362 25.5925 32.6945 25.6516C32.8529 25.7107 32.9521 25.6928 32.9521 25.6928C32.9521 25.6928 33.7371 25.0528 34.5577 25.1152C35.3773 25.1777 35.9849 25.811 35.9849 25.811C35.9849 25.811 35.5256 24.8655 34.5131 24.7863C33.5007 24.7071 32.8227 25.3249 32.8227 25.3249C32.8227 25.3249 32.4737 25.5289 32.3009 25.4955H32.2998Z" fill="#402F24"/>
</svg>
