<svg width="85" height="212" viewBox="0 0 85 212" fill="none" xmlns="http://www.w3.org/2000/svg">
<g clip-path="url(#clip0)">
<path fill-rule="evenodd" clip-rule="evenodd" d="M31.9082 22.4512H43.7227V27.2693H31.9082V22.4512Z" fill="#D6A384"/>
<path fill-rule="evenodd" clip-rule="evenodd" d="M32.5642 25.6663C32.5642 25.6663 33.2539 26.2051 33.8579 26.1895C34.4618 26.1739 35.4599 25.947 35.4599 25.947C35.4599 25.947 35.647 26.0718 35.698 25.9782C35.7491 25.8847 35.3691 25.4594 34.8949 25.1928C34.4214 24.9263 33.3659 24.8384 32.5635 25.6663H32.5642Z" fill="white"/>
<path fill-rule="evenodd" clip-rule="evenodd" d="M35.4949 23.7866C35.4949 23.7866 36.3795 24.465 36.5532 25.2582C36.678 25.8274 36.622 26.7773 36.5809 27.2686H36.5731C36.5908 26.7943 36.5575 25.8849 36.1258 25.2384C35.5169 24.3268 34.5479 23.7285 34.5479 23.7285L35.4942 23.7866H35.4949Z" fill="#CB9877"/>
<path fill-rule="evenodd" clip-rule="evenodd" d="M38.737 24.0137C38.737 24.0137 37.9962 24.2915 37.7822 25.3492C37.5681 26.4061 37.6085 26.562 37.6085 26.562C37.6085 26.562 38.2018 24.4333 38.737 24.0137V24.0137Z" fill="#BE8766"/>
<path fill-rule="evenodd" clip-rule="evenodd" d="M38.4878 23.3548L38.3779 23.9268C38.3779 23.9268 40.6151 23.1301 41.5685 23.1981C42.5219 23.2662 43.1159 23.4952 43.179 23.5129C43.2421 23.5306 43.2931 23.5228 43.1996 23.4236C43.106 23.3243 42.0441 22.5701 41.039 22.7211C40.0338 22.8721 38.5381 23.1932 38.4878 23.3555V23.3548Z" fill="#413024"/>
<path fill-rule="evenodd" clip-rule="evenodd" d="M32.0861 23.953C32.0861 23.953 32.7212 23.5192 33.1976 23.4944C33.6747 23.4696 35.4177 23.8899 35.5333 23.9211C35.6488 23.9523 35.663 23.9247 35.6339 23.8538C35.6049 23.7836 35.4411 23.3526 35.2476 23.3129C35.0541 23.2732 33.2834 22.9025 32.8354 23.2016C32.3874 23.5008 32.1492 23.7779 32.0982 23.8205C32.0471 23.863 31.9188 24.0544 32.0861 23.953V23.953Z" fill="#413024"/>
<path fill-rule="evenodd" clip-rule="evenodd" d="M33.0332 24.6368C33.0332 24.6368 33.8689 24.3313 34.6487 24.5872C35.4284 24.8431 35.7878 25.4173 35.7878 25.4173C35.7878 25.4173 35.1165 23.7252 33.0332 24.6368Z" fill="#BE8766"/>
<path fill-rule="evenodd" clip-rule="evenodd" d="M38.8838 25.3866C38.8838 25.3866 39.3013 24.7352 40.0165 24.4566C40.7318 24.1787 41.4279 24.1532 41.4279 24.1532C41.4279 24.1532 39.4161 23.7506 38.8838 25.3859V25.3866Z" fill="#BE8766"/>
<path fill-rule="evenodd" clip-rule="evenodd" d="M32.5635 25.6682C32.5635 25.6682 33.2532 26.2069 33.8571 26.1913C34.4611 26.1757 35.4592 25.9489 35.4592 25.9489C35.4592 25.9489 35.6463 26.0737 35.6973 25.9801C35.7073 25.9617 35.7009 25.9291 35.6789 25.8879C35.3096 25.849 34.3051 26.1878 33.6735 26.0843C33.0873 25.9886 32.7357 25.7001 32.6301 25.6016C32.6074 25.6228 32.5855 25.6448 32.5635 25.6682V25.6682Z" fill="#EDBA9D"/>
<path fill-rule="evenodd" clip-rule="evenodd" d="M32.5639 25.6663C32.5639 25.6663 32.6157 25.7067 32.7029 25.7649C32.8538 25.6578 33.5549 25.3977 34.358 25.5281C35.1612 25.6578 35.5305 25.8088 35.69 25.9889C35.6928 25.9853 35.6949 25.9818 35.6971 25.9782C35.7481 25.8847 35.3682 25.4594 34.8939 25.1928C34.4204 24.9263 33.3649 24.8384 32.5625 25.6663H32.5639Z" fill="#ADA89F"/>
<path fill-rule="evenodd" clip-rule="evenodd" d="M34.127 26.1735C34.3261 26.1543 34.5431 26.1224 34.743 26.0891C34.8996 25.9722 35.0017 25.785 35.0017 25.5738C35.0017 25.4242 34.9507 25.2874 34.8656 25.1782C34.6671 25.0748 34.3793 25.0025 34.0539 25.0081C33.8526 25.1166 33.7158 25.3299 33.7158 25.5745C33.7158 25.8481 33.8867 26.082 34.1277 26.1742L34.127 26.1735Z" fill="#667F30"/>
<path fill-rule="evenodd" clip-rule="evenodd" d="M34.3579 25.2871C34.516 25.2871 34.6436 25.4147 34.6436 25.5728C34.6436 25.7309 34.516 25.8584 34.3579 25.8584C34.2006 25.8584 34.0723 25.7309 34.0723 25.5728C34.0723 25.4147 34.1999 25.2871 34.3579 25.2871Z" fill="#402F24"/>
<path fill-rule="evenodd" clip-rule="evenodd" d="M33.7162 25.4688C33.7956 25.4688 33.8601 25.5333 33.8601 25.6126C33.8601 25.692 33.7956 25.7565 33.7162 25.7565C33.6368 25.7565 33.5723 25.692 33.5723 25.6126C33.5723 25.5333 33.6368 25.4688 33.7162 25.4688Z" fill="white"/>
<path fill-rule="evenodd" clip-rule="evenodd" d="M42.6116 25.4379C42.6116 25.4379 41.8673 26.0765 41.1911 26.09C40.5148 26.1035 39.3856 25.9007 39.3856 25.9007C39.3856 25.9007 39.1829 26.0496 39.1205 25.9475C39.0588 25.8455 39.4622 25.3493 39.9782 25.0267C40.4943 24.7042 41.671 24.5511 42.6116 25.4372V25.4379Z" fill="white"/>
<path fill-rule="evenodd" clip-rule="evenodd" d="M42.6116 25.4388C42.6116 25.4388 41.8673 26.0775 41.191 26.0909C40.5148 26.1044 39.3856 25.9017 39.3856 25.9017C39.3856 25.9017 39.1828 26.0505 39.1205 25.9485C39.1084 25.9279 39.1141 25.8917 39.1361 25.8442C39.5472 25.7819 40.6885 26.1094 41.3902 25.9612C42.0417 25.8237 42.4195 25.4834 42.5336 25.3672C42.5598 25.3899 42.5861 25.4133 42.6116 25.4381V25.4388Z" fill="#EDBA9D"/>
<path fill-rule="evenodd" clip-rule="evenodd" d="M42.6116 25.4379C42.6116 25.4379 42.5556 25.4861 42.4606 25.5555C42.2863 25.4435 41.3399 25.1139 40.4475 25.3003C39.555 25.4868 39.2984 25.7498 39.129 25.9596C39.1262 25.956 39.1226 25.9525 39.1205 25.9475C39.0588 25.8455 39.4622 25.35 39.9782 25.0267C40.4943 24.7042 41.671 24.5511 42.6116 25.4372V25.4379Z" fill="#ADA89F"/>
<path fill-rule="evenodd" clip-rule="evenodd" d="M40.9522 26.0804C40.7779 26.0698 40.5957 26.0514 40.4213 26.0315C40.2193 25.9216 40.0775 25.7118 40.0662 25.4651C40.057 25.2674 40.1335 25.0859 40.2625 24.9555C40.444 24.8697 40.6772 24.8045 40.9388 24.7832C41.2074 24.8633 41.4088 25.1064 41.4222 25.4027C41.4364 25.7161 41.2365 25.989 40.9515 26.0804H40.9522Z" fill="#667F30"/>
<path fill-rule="evenodd" clip-rule="evenodd" d="M40.7025 25.1318C40.5359 25.1396 40.4076 25.2807 40.4154 25.4473C40.4232 25.6139 40.5642 25.7422 40.7308 25.7344C40.8974 25.7266 41.0257 25.5855 41.0186 25.4189C41.0108 25.2524 40.8698 25.1241 40.7032 25.1311L40.7025 25.1318Z" fill="#402F24"/>
<path fill-rule="evenodd" clip-rule="evenodd" d="M40.0681 25.3876C39.976 25.3919 39.9051 25.4705 39.9094 25.562C39.9136 25.6541 39.9916 25.725 40.0837 25.7208C40.1759 25.7165 40.2468 25.6385 40.2432 25.5464C40.239 25.4542 40.1603 25.3826 40.0689 25.3869L40.0681 25.3876Z" fill="white"/>
<path fill-rule="evenodd" clip-rule="evenodd" d="M43.2958 25.2332C43.2958 25.2332 43.0335 25.3367 42.8598 25.4104C42.6862 25.4849 42.5734 25.4707 42.5734 25.4707C42.5734 25.4707 41.6619 24.7944 40.7474 24.9064C39.8337 25.0184 39.1865 25.7585 39.1865 25.7585C39.1865 25.7585 39.604 24.6725 40.7325 24.5314C41.8618 24.3904 42.7003 25.0524 42.7003 25.0524C42.7003 25.0524 43.103 25.2807 43.2951 25.2339L43.2958 25.2332Z" fill="#402F24"/>
<path fill-rule="evenodd" clip-rule="evenodd" d="M31.947 25.4964C31.947 25.4964 32.1838 25.5936 32.3418 25.6531C32.4999 25.7119 32.5999 25.6949 32.5999 25.6949C32.5999 25.6949 33.3853 25.0548 34.2047 25.1172C35.0241 25.1796 35.6316 25.8126 35.6316 25.8126C35.6316 25.8126 35.1716 24.8677 34.1593 24.7883C33.1471 24.7089 32.4687 25.327 32.4687 25.327C32.4687 25.327 32.12 25.5312 31.9463 25.4971L31.947 25.4964Z" fill="#402F24"/>
</g>
<defs>
<clipPath id="clip0">
<rect width="84.6667" height="211.667" fill="white"/>
</clipPath>
</defs>
</svg>
