<svg width="85" height="212" viewBox="0 0 85 212" fill="none" xmlns="http://www.w3.org/2000/svg">
<path fill-rule="evenodd" clip-rule="evenodd" d="M31.6025 22.412L43.4162 22.3086L43.4585 27.1278L31.6448 27.2302L31.6025 22.412Z" fill="#D6A384"/>
<path fill-rule="evenodd" clip-rule="evenodd" d="M32.2852 25.6213C32.2852 25.6213 32.9795 26.1541 33.5837 26.1334C34.1879 26.1128 35.1838 25.8769 35.1838 25.8769C35.1838 25.8769 35.3718 26 35.4225 25.906C35.4732 25.8121 35.0889 25.3902 34.6126 25.1271C34.1362 24.865 33.081 24.786 32.2852 25.6213V25.6213Z" fill="white"/>
<path fill-rule="evenodd" clip-rule="evenodd" d="M35.2011 23.7168C35.2011 23.7168 36.0918 24.3877 36.2722 25.1798C36.4019 25.7482 36.354 26.6982 36.3173 27.1896H36.3098C36.3229 26.7151 36.2825 25.8065 35.8456 25.1638C35.2293 24.2571 34.2549 23.668 34.2549 23.668L35.202 23.7178L35.2011 23.7168Z" fill="#CB9877"/>
<path fill-rule="evenodd" clip-rule="evenodd" d="M38.4443 23.9141C38.4443 23.9141 37.7057 24.1988 37.5009 25.2577C37.2961 26.3166 37.3374 26.4726 37.3374 26.4726C37.3374 26.4726 37.9124 24.3388 38.4443 23.915V23.9141Z" fill="#BE8766"/>
<path fill-rule="evenodd" clip-rule="evenodd" d="M38.1892 23.2592L38.084 23.8324C38.084 23.8324 40.3137 23.0159 41.2683 23.076C42.222 23.1361 42.8177 23.3598 42.8816 23.3767C42.9455 23.3945 42.9962 23.3851 42.9013 23.2865C42.8064 23.1878 41.739 22.4427 40.7346 22.6024C39.7302 22.7622 38.2381 23.0967 38.1883 23.2592H38.1892Z" fill="#413024"/>
<path fill-rule="evenodd" clip-rule="evenodd" d="M31.7934 23.913C31.7934 23.913 32.4248 23.4732 32.9012 23.4441C33.3776 23.415 35.1253 23.8199 35.2408 23.8509C35.3564 23.881 35.3705 23.8528 35.3404 23.7824C35.3104 23.7119 35.1431 23.2825 34.9496 23.2449C34.756 23.2073 32.982 22.8512 32.5367 23.1547C32.0913 23.4573 31.8554 23.7373 31.8047 23.7795C31.754 23.8228 31.6281 24.0144 31.7934 23.912V23.913Z" fill="#413024"/>
<path fill-rule="evenodd" clip-rule="evenodd" d="M32.7461 24.5885C32.7461 24.5885 33.5795 24.2756 34.3613 24.5246C35.143 24.7736 35.5076 25.3448 35.5076 25.3448C35.5076 25.3448 34.8217 23.6583 32.7461 24.5885Z" fill="#BE8766"/>
<path fill-rule="evenodd" clip-rule="evenodd" d="M38.6035 25.2868C38.6035 25.2868 39.016 24.6319 39.7282 24.3472C40.4414 24.0625 41.1367 24.0315 41.1367 24.0315C41.1367 24.0315 39.1212 23.6463 38.6035 25.2868V25.2868Z" fill="#BE8766"/>
<path fill-rule="evenodd" clip-rule="evenodd" d="M32.2852 25.6214C32.2852 25.6214 32.9795 26.1542 33.5837 26.1335C34.1879 26.1128 35.1838 25.877 35.1838 25.877C35.1838 25.877 35.3718 26.0001 35.4225 25.9061C35.4328 25.8873 35.4253 25.8554 35.4028 25.814C35.0335 25.7783 34.0319 26.126 33.3995 26.0282C32.8123 25.9371 32.458 25.6524 32.3519 25.5547C32.3293 25.5763 32.3077 25.5988 32.2861 25.6214H32.2852Z" fill="#EDBA9D"/>
<path fill-rule="evenodd" clip-rule="evenodd" d="M32.2852 25.6213C32.2852 25.6213 32.3368 25.6608 32.4252 25.7191C32.5755 25.611 33.2736 25.3442 34.0789 25.4673C34.8832 25.5903 35.2543 25.7379 35.415 25.9164C35.4178 25.9136 35.4197 25.9098 35.4225 25.906C35.4732 25.8121 35.0889 25.3902 34.6126 25.1271C34.1362 24.865 33.081 24.786 32.2852 25.6213V25.6213Z" fill="#CFC9BF"/>
<path fill-rule="evenodd" clip-rule="evenodd" d="M33.8538 26.1139C34.053 26.0932 34.27 26.0594 34.4692 26.0237C34.6252 25.9053 34.7248 25.7174 34.7229 25.5059C34.722 25.3565 34.6694 25.2194 34.5829 25.1113C34.3837 25.0098 34.0953 24.9403 33.7702 24.9478C33.57 25.0587 33.4347 25.272 33.4375 25.5172C33.4394 25.7906 33.6123 26.0227 33.8538 26.1139V26.1139Z" fill="#9B9B99"/>
<path fill-rule="evenodd" clip-rule="evenodd" d="M34.0768 25.2266C34.2346 25.2256 34.3633 25.3515 34.3652 25.5094C34.3662 25.6672 34.2403 25.796 34.0824 25.7978C33.9246 25.7988 33.7958 25.6729 33.794 25.515C33.793 25.3572 33.9189 25.2284 34.0768 25.2266Z" fill="#402F24"/>
<path fill-rule="evenodd" clip-rule="evenodd" d="M33.4368 25.4141C33.5166 25.4131 33.5805 25.477 33.5815 25.5569C33.5824 25.6368 33.5185 25.7007 33.4387 25.7016C33.3588 25.7025 33.294 25.6386 33.294 25.5597C33.293 25.4798 33.3569 25.415 33.4368 25.415V25.4141Z" fill="white"/>
<path fill-rule="evenodd" clip-rule="evenodd" d="M42.3323 25.3052C42.3323 25.3052 41.5937 25.9498 40.9172 25.9695C40.2407 25.9892 39.1104 25.7966 39.1104 25.7966C39.1104 25.7966 38.9084 25.9479 38.8454 25.8464C38.7825 25.7449 39.1818 25.2451 39.6958 24.9181C40.2097 24.5911 41.3842 24.4285 42.3323 25.3052Z" fill="white"/>
<path fill-rule="evenodd" clip-rule="evenodd" d="M42.3321 25.3059C42.3321 25.3059 41.5936 25.9504 40.917 25.9702C40.2405 25.9899 39.1102 25.7973 39.1102 25.7973C39.1102 25.7973 38.9082 25.9485 38.8452 25.8471C38.833 25.8264 38.8386 25.7907 38.8602 25.7428C39.2709 25.6761 40.4153 25.9946 41.1153 25.8405C41.7655 25.6977 42.1404 25.3538 42.2532 25.2363C42.2795 25.2589 42.3058 25.2824 42.3321 25.3059Z" fill="#EDBA9D"/>
<path fill-rule="evenodd" clip-rule="evenodd" d="M42.3323 25.3052C42.3323 25.3052 42.2769 25.3541 42.1829 25.4245C42.0072 25.3146 41.0582 24.9923 40.1675 25.1868C39.2767 25.3813 39.0221 25.6463 38.8548 25.8577C38.852 25.8539 38.8492 25.8502 38.8464 25.8464C38.7834 25.7449 39.1828 25.246 39.6958 24.9181C40.2098 24.5911 41.3843 24.4285 42.3323 25.3052V25.3052Z" fill="#CFC9BF"/>
<path fill-rule="evenodd" clip-rule="evenodd" d="M40.6768 25.9627C40.5021 25.9533 40.3198 25.9373 40.145 25.9185C39.942 25.8105 39.7983 25.6019 39.7851 25.3557C39.7748 25.1584 39.849 24.9761 39.9768 24.8445C40.1582 24.7572 40.3902 24.6904 40.6514 24.666C40.9211 24.744 41.1241 24.9855 41.141 25.2815C41.1579 25.5943 40.9606 25.8696 40.6768 25.9636V25.9627Z" fill="#9B9B99"/>
<path fill-rule="evenodd" clip-rule="evenodd" d="M40.42 25.0161C40.2536 25.0255 40.1259 25.1674 40.1353 25.3337C40.1446 25.5 40.2865 25.6278 40.4528 25.6184C40.6191 25.609 40.7469 25.4671 40.7375 25.3008C40.7281 25.1345 40.5863 25.0067 40.42 25.0161Z" fill="#402F24"/>
<path fill-rule="evenodd" clip-rule="evenodd" d="M39.786 25.2766C39.6939 25.2812 39.6235 25.3602 39.6282 25.4523C39.6328 25.5443 39.7118 25.6148 39.8039 25.6092C39.8959 25.6045 39.9664 25.5255 39.9617 25.4335C39.957 25.3414 39.8781 25.2709 39.786 25.2756V25.2766Z" fill="white"/>
<path fill-rule="evenodd" clip-rule="evenodd" d="M43.0134 25.0953C43.0134 25.0953 42.7522 25.2005 42.5793 25.2766C42.4064 25.3518 42.2937 25.3387 42.2937 25.3387C42.2937 25.3387 41.3757 24.6706 40.4633 24.7899C39.55 24.9102 38.9102 25.6553 38.9102 25.6553C38.9102 25.6553 39.3179 24.5654 40.4455 24.415C41.573 24.2647 42.4177 24.9187 42.4177 24.9187C42.4177 24.9187 42.8227 25.1432 43.0143 25.0953H43.0134Z" fill="#402F24"/>
<path fill-rule="evenodd" clip-rule="evenodd" d="M31.667 25.4564C31.667 25.4564 31.9047 25.5522 32.0635 25.6096C32.2223 25.6669 32.3219 25.649 32.3219 25.649C32.3219 25.649 33.1018 25.0016 33.922 25.0571C34.7423 25.1125 35.3549 25.7402 35.3549 25.7402C35.3549 25.7402 34.887 24.7987 33.8741 24.7282C32.8612 24.6577 32.1885 25.2816 32.1885 25.2816C32.1885 25.2816 31.8408 25.4893 31.6679 25.4564H31.667Z" fill="#402F24"/>
</svg>
