<svg width="85" height="212" viewBox="0 0 85 212" fill="none" xmlns="http://www.w3.org/2000/svg">
<path fill-rule="evenodd" clip-rule="evenodd" d="M31.6025 22.4134L43.4169 22.3105L43.4586 27.1289L31.6452 27.2318L31.6025 22.4134Z" fill="#D6A384"/>
<path fill-rule="evenodd" clip-rule="evenodd" d="M32.2861 25.6239C32.2861 25.6239 32.9811 26.1567 33.5843 26.1354C34.1885 26.1141 35.1846 25.8787 35.1846 25.8787C35.1846 25.8787 35.3727 26.002 35.4227 25.9075C35.4728 25.8139 35.0891 25.3913 34.6129 25.1291C34.1366 24.8669 33.0812 24.7881 32.2861 25.623V25.6239Z" fill="white"/>
<path fill-rule="evenodd" clip-rule="evenodd" d="M35.2019 23.72C35.2019 23.72 36.0924 24.3908 36.2731 25.1822C36.4028 25.7502 36.3555 26.7 36.3175 27.192H36.3101C36.3231 26.7176 36.2823 25.8086 35.8459 25.1664C35.2288 24.2602 34.2549 23.6699 34.2549 23.6699L35.2019 23.719V23.72Z" fill="#CB9877"/>
<path fill-rule="evenodd" clip-rule="evenodd" d="M38.4439 23.916C38.4439 23.916 37.7053 24.2005 37.5006 25.2596C37.2958 26.3187 37.3375 26.4744 37.3375 26.4744C37.3375 26.4744 37.912 24.3404 38.4439 23.916Z" fill="#BE8766"/>
<path fill-rule="evenodd" clip-rule="evenodd" d="M38.1897 23.2606L38.085 23.8332C38.085 23.8332 40.3144 23.0169 41.2688 23.0771C42.2232 23.1373 42.819 23.3606 42.882 23.3782C42.946 23.3958 42.9969 23.3866 42.9015 23.2884C42.807 23.1901 41.7386 22.4442 40.7351 22.6045C39.7306 22.7648 38.2388 23.0984 38.1887 23.2606H38.1897Z" fill="#413024"/>
<path fill-rule="evenodd" clip-rule="evenodd" d="M31.7935 23.9163C31.7935 23.9163 32.4245 23.4771 32.9008 23.4484C33.3771 23.4196 35.1247 23.8246 35.2405 23.8552C35.3564 23.8857 35.3703 23.857 35.3406 23.7866C35.311 23.7162 35.1432 23.2871 34.9496 23.2491C34.7559 23.2112 32.9814 22.8553 32.5367 23.1583C32.0919 23.4613 31.8556 23.7403 31.8046 23.7829C31.7546 23.8255 31.6277 24.0182 31.7935 23.9154V23.9163Z" fill="#413024"/>
<path fill-rule="evenodd" clip-rule="evenodd" d="M32.7461 24.589C32.7461 24.589 33.5791 24.2758 34.3612 24.5251C35.1423 24.7743 35.5074 25.3451 35.5074 25.3451C35.5074 25.3451 34.8217 23.6587 32.7461 24.5881V24.589Z" fill="#BE8766"/>
<path fill-rule="evenodd" clip-rule="evenodd" d="M38.6045 25.288C38.6045 25.288 39.0168 24.6329 39.7294 24.3484C40.442 24.0639 41.1379 24.0334 41.1379 24.0334C41.1379 24.0334 39.1225 23.6488 38.6045 25.288V25.288Z" fill="#BE8766"/>
<path fill-rule="evenodd" clip-rule="evenodd" d="M32.2861 25.6243C32.2861 25.6243 32.9811 26.1571 33.5843 26.1358C34.1885 26.1145 35.1846 25.8791 35.1846 25.8791C35.1846 25.8791 35.3727 26.0023 35.4227 25.9078C35.4329 25.8893 35.4255 25.8569 35.4033 25.8161C35.0335 25.78 34.0328 26.1274 33.3999 26.0301C32.8125 25.9393 32.4585 25.6539 32.3519 25.5566C32.3297 25.578 32.3074 25.6002 32.2861 25.6234V25.6243Z" fill="#EDBA9D"/>
<path fill-rule="evenodd" clip-rule="evenodd" d="M32.2861 25.6249C32.2861 25.6249 32.338 25.6648 32.4261 25.7222C32.5762 25.6138 33.2748 25.3479 34.0791 25.4711C34.8834 25.5944 35.2541 25.7417 35.4153 25.9205C35.4181 25.9178 35.4199 25.914 35.4227 25.9094C35.4728 25.8158 35.0891 25.3933 34.6129 25.1311C34.1366 24.8688 33.0812 24.7901 32.2861 25.6249V25.6249Z" fill="#ADA89F"/>
<path fill-rule="evenodd" clip-rule="evenodd" d="M33.8536 26.1147C34.0528 26.0943 34.2696 26.06 34.4689 26.0248C34.6245 25.9062 34.7246 25.7181 34.7228 25.5077C34.7218 25.3585 34.669 25.2214 34.5828 25.113C34.3836 25.0111 34.0945 24.9416 33.7702 24.9499C33.57 25.0602 33.4348 25.2742 33.4375 25.5188C33.4394 25.7922 33.6127 26.0248 33.8545 26.1156L33.8536 26.1147Z" fill="#667F30"/>
<path fill-rule="evenodd" clip-rule="evenodd" d="M34.0775 25.2285C34.235 25.2267 34.3638 25.3536 34.3657 25.5121C34.3675 25.6696 34.2406 25.7984 34.0821 25.8003C33.9246 25.8021 33.7958 25.6752 33.794 25.5167C33.793 25.3592 33.919 25.2304 34.0766 25.2285H34.0775Z" fill="#402F24"/>
<path fill-rule="evenodd" clip-rule="evenodd" d="M33.4376 25.416C33.5173 25.4151 33.5822 25.479 33.5822 25.5587C33.5831 25.6384 33.5192 25.7033 33.4395 25.7033C33.3598 25.7042 33.2949 25.6403 33.2949 25.5606C33.294 25.4809 33.3579 25.416 33.4376 25.416Z" fill="white"/>
<path fill-rule="evenodd" clip-rule="evenodd" d="M42.3323 25.3076C42.3323 25.3076 41.5938 25.9525 40.9173 25.972C40.2409 25.9914 39.1104 25.7987 39.1104 25.7987C39.1104 25.7987 38.9084 25.9497 38.8454 25.8478C38.7824 25.7459 39.1818 25.2474 39.6951 24.9203C40.2085 24.5932 41.3834 24.4301 42.3323 25.3076Z" fill="white"/>
<path fill-rule="evenodd" clip-rule="evenodd" d="M42.332 25.3087C42.332 25.3087 41.5935 25.9536 40.917 25.9731C40.2406 25.9925 39.1101 25.7998 39.1101 25.7998C39.1101 25.7998 38.9081 25.9508 38.8451 25.8489C38.8331 25.8285 38.8386 25.7924 38.86 25.7451C39.2704 25.6784 40.4148 25.9963 41.1144 25.8424C41.764 25.6997 42.1402 25.356 42.2523 25.2383C42.2782 25.2605 42.3051 25.2846 42.3311 25.3087H42.332Z" fill="#EDBA9D"/>
<path fill-rule="evenodd" clip-rule="evenodd" d="M42.3323 25.3076C42.3323 25.3076 42.2767 25.3558 42.1822 25.4271C42.007 25.3169 41.0573 24.9953 40.1668 25.189C39.2763 25.3836 39.0215 25.6486 38.8538 25.8599C38.851 25.8562 38.8473 25.8524 38.8454 25.8478C38.7824 25.7459 39.1818 25.2474 39.6951 24.9203C40.2085 24.5932 41.3834 24.4301 42.3323 25.3076V25.3076Z" fill="#ADA89F"/>
<path fill-rule="evenodd" clip-rule="evenodd" d="M40.6766 25.9642C40.5024 25.9549 40.3199 25.9383 40.1447 25.9197C39.9418 25.8122 39.7982 25.6028 39.7843 25.3563C39.7732 25.159 39.8482 24.9764 39.9761 24.8449C40.1568 24.7577 40.3894 24.6901 40.6516 24.666C40.9212 24.7439 41.1242 24.9857 41.1409 25.2813C41.1575 25.5945 40.9602 25.8688 40.6766 25.9633V25.9642Z" fill="#667F30"/>
<path fill-rule="evenodd" clip-rule="evenodd" d="M40.4197 25.0181C40.2529 25.0273 40.126 25.1691 40.1352 25.3359C40.1445 25.5017 40.2863 25.6296 40.4531 25.6204C40.6189 25.6111 40.7468 25.4693 40.7375 25.3025C40.7283 25.1357 40.5865 25.0088 40.4197 25.0181Z" fill="#402F24"/>
<path fill-rule="evenodd" clip-rule="evenodd" d="M39.7876 25.2793C39.6959 25.2849 39.6255 25.3636 39.6301 25.4554C39.6357 25.5471 39.7135 25.6175 39.8062 25.6129C39.8979 25.6082 39.9683 25.5295 39.9637 25.4377C39.9581 25.346 39.8794 25.2747 39.7876 25.2802V25.2793Z" fill="white"/>
<path fill-rule="evenodd" clip-rule="evenodd" d="M43.0131 25.0962C43.0131 25.0962 42.7518 25.2019 42.5785 25.2769C42.4052 25.3529 42.2922 25.339 42.2922 25.339C42.2922 25.339 41.3749 24.6709 40.4612 24.7905C39.5485 24.91 38.9082 25.6559 38.9082 25.6559C38.9082 25.6559 39.3159 24.5662 40.4436 24.4152C41.5713 24.2642 42.4164 24.9193 42.4164 24.9193C42.4164 24.9193 42.8213 25.1444 43.0131 25.0953V25.0962Z" fill="#402F24"/>
<path fill-rule="evenodd" clip-rule="evenodd" d="M31.668 25.4575C31.668 25.4575 31.9061 25.5529 32.0646 25.6103C32.223 25.6678 32.3231 25.6493 32.3231 25.6493C32.3231 25.6493 33.1033 25.0025 33.9234 25.0572C34.7434 25.1127 35.3559 25.7401 35.3559 25.7401C35.3559 25.7401 34.888 24.7986 33.8742 24.7282C32.8614 24.6578 32.1887 25.2814 32.1887 25.2814C32.1887 25.2814 31.8412 25.489 31.668 25.4556V25.4575Z" fill="#402F24"/>
</svg>
