<svg width="85" height="212" viewBox="0 0 85 212" fill="none" xmlns="http://www.w3.org/2000/svg">
<path d="M60.432 95.4496C59.7074 91.8083 57.7821 86.911 55.3933 84.3559C54.8905 83.8155 53.5754 82.0029 52.899 80.8613C52.8883 80.8613 51.6555 84.9517 51.226 86.3939C50.7465 96.8059 45.7275 116.009 45.6201 116.401C48.8999 118.088 51.2457 119.591 51.2457 119.591C51.2457 119.591 56.1556 111.095 57.3508 108.413C59.0596 104.572 61.4681 100.669 60.4303 95.4514L60.432 95.4496Z" fill="#D5C3B6"/>
<path d="M60.0223 98.4139C60.0223 98.4139 59.2619 102.517 55.9284 108.724C54.9568 110.536 50.9004 117.288 50.9004 117.288C50.9004 117.288 53.9064 111.61 54.8709 109.764C57.8107 104.122 60.0241 98.4121 60.0241 98.4121L60.0223 98.4139Z" fill="#B9A08C"/>
</svg>
