<svg width="85" height="212" viewBox="0 0 85 212" fill="none" xmlns="http://www.w3.org/2000/svg">
<path d="M59.4223 95.2226C58.7527 91.5817 56.9036 86.6839 54.5539 84.128C54.0594 83.5886 52.7714 81.7751 52.1127 80.6328C52.1018 80.6328 50.8076 84.7232 50.355 86.1646C49.718 96.5757 44.4047 115.78 44.29 116.172C47.545 117.86 49.8668 119.363 49.8668 119.363C49.8668 119.363 54.9073 110.868 56.1426 108.185C57.9095 104.343 60.3786 100.441 59.4207 95.2226H59.4223Z" fill="#D5C3B6"/>
<path d="M58.967 98.1895C58.967 98.1895 58.144 102.294 54.7155 108.5C53.7158 110.312 49.5557 117.065 49.5557 117.065C49.5557 117.065 52.6478 111.387 53.6414 109.54C56.6684 103.899 58.967 98.1895 58.967 98.1895Z" fill="#B9A08C"/>
</svg>
