<svg width="85" height="212" viewBox="0 0 85 212" fill="none" xmlns="http://www.w3.org/2000/svg">
<path d="M59.7237 94.2309C58.6631 88.0312 52.2444 81.526 51.5863 80.3828C51.5758 80.3828 50.2491 82.9864 49.7942 84.4285C49.1571 94.8405 46.9231 104.828 44.0901 114.858C43.976 115.25 43.8855 115.554 43.7715 115.946C47.0254 117.635 49.3734 119.112 49.3734 119.112C49.3734 119.112 54.6698 111 56.1787 108.463C58.7077 104.201 60.6073 99.4617 59.7237 94.2309Z" fill="#D5C3B6"/>
<path d="M58.8195 98.4427C58.8195 98.4427 58.261 102.745 54.8328 108.949C53.8325 110.761 49.4092 117.314 49.4092 117.314C49.4092 117.314 52.5018 111.637 53.4942 109.789C56.5213 104.151 58.8208 98.4414 58.8208 98.4414L58.8195 98.4427Z" fill="#B9A08C"/>
</svg>
