<svg width="85" height="212" viewBox="0 0 85 212" fill="none" xmlns="http://www.w3.org/2000/svg">
<path d="M61.1892 94.6756C60.0333 88.4756 53.5167 81.9715 52.8403 80.8281C52.8296 80.8281 51.543 83.4316 51.11 84.8738C50.6323 95.2858 48.5513 105.272 45.8709 115.303C45.7636 115.695 45.6777 115.999 45.5703 116.391C48.8501 118.078 51.221 119.558 51.221 119.558C51.221 119.558 56.3939 111.445 57.8629 108.908C60.3268 104.646 62.1537 99.9076 61.191 94.6756H61.1892Z" fill="#D5C3B6"/>
<path d="M60.3483 98.8867C60.3483 98.8867 59.8563 103.188 56.521 109.394C55.5494 111.206 51.2246 117.76 51.2246 117.76C51.2246 117.76 54.2307 112.083 55.1951 110.236C58.1367 104.598 60.3483 98.8885 60.3483 98.8885V98.8867Z" fill="#B9A08C"/>
</svg>
