<svg width="85" height="212" viewBox="0 0 85 212" fill="none" xmlns="http://www.w3.org/2000/svg">
<path d="M58.8955 94.9716C58.2256 91.3309 56.3771 86.4331 54.0265 83.8779C53.5322 83.3378 52.2435 81.526 51.5854 80.3828C51.5749 80.3828 50.2797 84.4731 49.8274 85.9152C49.1902 96.3271 43.8768 115.531 43.7627 115.921C47.0166 117.61 49.3397 119.112 49.3397 119.112C49.3397 119.112 54.3804 110.617 55.6154 107.933C57.3826 104.092 59.8512 100.189 58.8942 94.9716H58.8955Z" fill="#D5C3B6"/>
<path d="M58.4406 97.9375C58.4406 97.9375 57.6173 102.041 54.189 108.248C53.1888 110.06 49.0303 116.813 49.0303 116.813C49.0303 116.813 52.1229 111.135 53.1153 109.288C56.1424 103.647 58.4419 97.9375 58.4419 97.9375H58.4406Z" fill="#B9A08C"/>
</svg>
