<svg width="85" height="212" viewBox="0 0 85 212" fill="none" xmlns="http://www.w3.org/2000/svg">
<path d="M60.1909 94.4508C59.1291 88.251 52.7123 81.7458 52.0536 80.6035C52.0427 80.6035 50.716 83.2075 50.2618 84.6489C49.6248 95.06 47.3913 105.048 44.558 115.079C44.4448 115.471 44.3534 115.775 44.2402 116.167C47.4951 117.855 49.8418 119.334 49.8418 119.334C49.8418 119.334 55.1395 111.221 56.6477 108.684C59.1772 104.422 61.0774 99.6835 60.1924 94.4524L60.1909 94.4508Z" fill="#D5C3B6"/>
<path d="M59.2854 98.6621C59.2854 98.6621 58.7274 102.965 55.2973 109.169C54.2976 110.981 49.874 117.536 49.874 117.536C49.874 117.536 52.9662 111.858 53.9597 110.011C56.9868 104.372 59.2854 98.6621 59.2854 98.6621Z" fill="#B9A08C"/>
</svg>
