<svg width="85" height="212" viewBox="0 0 85 212" fill="none" xmlns="http://www.w3.org/2000/svg">
<path fill-rule="evenodd" clip-rule="evenodd" d="M36.127 34.9237C36.127 34.9237 36.9295 36.7924 37.3381 39.033C37.7467 41.2737 37.6917 42.1776 36.3358 42.8612C34.9798 43.5447 31.9855 44.9319 30.8258 45.5614C29.6661 46.1909 28.5704 47.7815 28.7653 50.7562C28.9602 53.7314 29.6661 56.2447 29.6661 56.2447C29.6661 56.2447 47.3047 61.1838 49.9504 58.8466C52.5961 56.5094 55.9043 41.4543 52.4571 40.9187C52.2863 40.8923 50.9505 40.6889 50.7922 40.6679C47.7496 40.266 46.8921 40.7819 45.7825 38.0455C44.6153 35.1664 45.4307 30.1831 45.4307 30.1831C45.4307 30.1831 39.7294 35.0381 36.1265 34.9232L36.127 34.9237Z" fill="#E3A06B"/>
<path fill-rule="evenodd" clip-rule="evenodd" d="M48.0196 48.8677C48.0196 48.8677 47.0888 53.7352 45.7217 55.8297C44.3546 57.9241 47.5077 60.5922 47.8823 57.3953C48.257 54.1984 48.0191 48.8677 48.0191 48.8677H48.0196Z" fill="#BD814F"/>
<path fill-rule="evenodd" clip-rule="evenodd" d="M30.1735 111.069C30.1735 111.069 30.1346 114.072 31.4006 121.843C31.6398 123.312 31.908 125.059 32.1857 126.925C33.7267 122.057 36.0827 114.908 36.7988 112.74C32.7619 111.184 30.4949 111.077 30.1735 111.069ZM35.7916 152.466C36.8766 160.224 38.3917 171.737 38.2558 174.593C38.0461 179.004 34.9512 186.467 34.9512 186.467C34.9512 186.467 33.7571 187.45 35.1626 188.695C36.5686 189.939 37.9755 189.958 37.9755 189.958L38.3349 189.414C38.3202 189.177 38.3613 189.02 38.3613 189.02C38.3613 189.02 38.3613 189.02 38.9917 183.442C39.622 177.865 40.2497 175.629 39.1606 166.19C38.6742 161.974 37.2911 157.019 35.7907 152.466H35.7916ZM44.8861 149.092C44.942 147.1 44.9049 145.313 44.7046 144.101C43.9111 139.294 43.025 138.228 43.025 138.228C43.025 138.228 43.5852 133.591 44.0765 128.343C41.4599 132.893 38.9613 137.069 38.9613 137.069C38.9613 137.069 40.7347 138.587 43.3362 143.967C44.1391 145.627 44.6152 147.339 44.8861 149.092Z" fill="#BD814F"/>
<path fill-rule="evenodd" clip-rule="evenodd" d="M30.6148 54.716C31.2219 55.2372 32.6306 55.8712 35.8467 55.6101C40.053 55.2681 43.4355 53.656 44.5714 53.0547C46.5345 43.6629 49.7555 41.1697 51.2093 40.5121C51.989 40.1594 52.3051 40.4455 52.4347 40.7727C52.4218 40.7741 47.6937 41.2985 45.2045 53.4803C45.5778 54.5161 46.4258 56.6575 47.7952 58.9715C49.7135 62.2127 48.2865 73.5831 48.2865 73.5831C48.2865 73.5831 49.8011 77.1837 51.8518 80.8661C53.9024 84.5485 58.2223 92.1158 56.8119 100.492C55.4014 108.868 49.3134 119.121 49.3134 119.121C49.3134 119.121 44.7704 116.259 38.9846 113.655C33.1988 111.051 30.1338 111.069 30.1338 111.069C30.1338 111.069 29.2124 90.4197 30.4556 84.3089C31.6989 78.1981 31.6274 75.5797 30.8817 72.4252C30.136 69.2708 29.161 66.0801 29.161 66.0801C29.161 66.0801 25.0874 61.627 30.0072 54.3588C30.0403 54.2948 30.0756 54.2296 30.1118 54.163C31.2496 52.0931 33.281 48.9458 32.7128 44.5968C32.6802 44.1055 33.3575 44.021 33.374 44.3425C33.8837 49.0111 31.9206 52.3296 30.7292 54.5018C30.6894 54.5747 30.6514 54.6462 30.6152 54.7164L30.6148 54.716Z" fill="#D5C1B5"/>
<path fill-rule="evenodd" clip-rule="evenodd" d="M36.7989 112.74C35.8489 115.616 32.0154 127.252 31.0229 130.708C29.8874 134.662 29.84 135.501 31.1647 139.557C32.4893 143.614 38.073 156.751 39.1616 166.19C40.2502 175.629 39.6225 177.865 38.9926 183.442C38.3623 189.02 38.3623 189.02 38.3623 189.02C38.3623 189.02 37.7878 191.217 41.6978 191.548C45.6077 191.879 45.9063 189.672 45.8455 187.534C45.7843 185.396 46.1826 183.038 46.623 180.843C47.0633 178.649 47.0124 177.409 46.0127 174.402C45.0131 171.395 44.8289 167.63 44.9702 161.443C45.1119 155.257 45.9385 149.347 43.3367 143.967C40.7348 138.587 38.9618 137.069 38.9618 137.069C38.9618 137.069 46.6529 124.218 49.1761 119.035C48.3786 118.542 44.1838 115.994 38.9846 113.654C38.2067 113.304 37.478 113.002 36.7994 112.74H36.7989Z" fill="#E3A06B"/>
<path fill-rule="evenodd" clip-rule="evenodd" d="M34.988 186.379C34.2557 186.957 32.7156 188.276 31.1138 190.293C28.895 193.088 29.5008 193.227 30.1736 193.23C30.8049 193.232 35.5463 193.572 36.9541 192.747C37.0677 192.372 37.1857 192.008 37.301 191.67C37.5733 190.872 37.7946 190.328 37.9694 189.958C37.863 189.954 36.5124 189.89 35.1632 188.695C33.7572 187.451 34.9518 186.467 34.9518 186.467L34.988 186.379V186.379Z" fill="#BA9F8A"/>
<path fill-rule="evenodd" clip-rule="evenodd" d="M38.3327 189.319C38.1521 189.554 37.819 190.152 37.3009 191.67C36.4559 194.147 35.4653 197.983 37.1851 197.851C38.9049 197.719 46.0837 195.164 46.331 192.021C46.5782 188.877 47.255 186.878 47.6936 184.433C48.1322 181.987 49.2266 180.479 49.286 178.808C49.3406 177.263 48.1389 175.922 46.0761 174.595C47.0141 177.463 47.0534 178.697 46.6229 180.844C46.1825 183.038 45.7842 185.396 45.8455 187.534C45.9067 189.672 45.6081 191.878 41.6977 191.548C38.6859 191.293 38.3349 189.931 38.3327 189.319Z" fill="#D4C1B5"/>
<path fill-rule="evenodd" clip-rule="evenodd" d="M48.9413 180.473C48.8747 181.005 48.7701 181.661 48.606 182.406C48.1196 184.611 48.298 187.892 48.2805 188.689C48.1791 188.885 47.3811 188.861 47.3833 188.726L47.4262 185.771C47.521 185.334 47.6113 184.891 47.6936 184.433C47.9855 182.806 48.5671 181.594 48.9417 180.473H48.9413Z" fill="#A68C7A"/>
<path fill-rule="evenodd" clip-rule="evenodd" d="M40.1272 178.238C40.1272 178.238 38.9805 185.867 38.8487 187.807C38.7163 189.748 42.2002 177.687 40.1272 178.238Z" fill="#E8AE7F"/>
<path fill-rule="evenodd" clip-rule="evenodd" d="M30.9397 111.48C30.9397 111.48 31.0425 114.341 31.6376 118.751C32.233 123.16 32.63 124.307 32.5692 123.939C32.5084 123.57 32.0564 111.85 32.0564 111.85C32.0564 111.85 31.6358 111.35 30.9397 111.48Z" fill="#E3A06B"/>
<path fill-rule="evenodd" clip-rule="evenodd" d="M37.4613 113.648L39.0028 114.441C39.0028 114.441 36.7925 118.679 34.1817 124.712C31.5709 130.745 31.2625 131.428 31.2625 131.428C31.2625 131.428 32.98 126.401 37.4613 113.648Z" fill="#E8AE7F"/>
<path fill-rule="evenodd" clip-rule="evenodd" d="M36.7989 112.74L36.4126 113.911C40.2913 114.257 47.0892 117.802 48.4451 120.477C48.7192 119.951 48.9655 119.466 49.1752 119.035C48.3776 118.542 44.1829 115.994 38.9836 113.654C38.2057 113.304 37.477 113.002 36.7984 112.74H36.7989Z" fill="#BD814F"/>
<path fill-rule="evenodd" clip-rule="evenodd" d="M29.9169 90.0605C29.9169 90.0605 27.5543 99.6271 27.9061 104.633C28.2579 109.638 28.2637 108.298 28.8297 110.281C29.3952 112.265 29.646 113.167 29.646 113.167C29.646 113.167 30.3385 114.266 30.3153 113.96C30.292 113.653 29.9447 106.179 29.9447 106.179C29.9447 106.179 30.3305 107.412 30.7386 108.272C31.1464 109.132 31.3448 109.319 31.5983 109.187C31.8518 109.055 31.5791 107.577 31.2688 106.585C30.9586 105.593 31.0905 104.226 30.7377 102.914C30.385 101.602 29.849 100.831 29.849 100.831C29.8526 96.6305 29.8114 94.7233 29.9165 90.0605H29.9169Z" fill="#CF8F5B"/>
<path fill-rule="evenodd" clip-rule="evenodd" d="M55.557 92.8037C56.0233 95.1588 56.1704 97.7012 55.7282 100.326C54.3804 108.331 48.5624 118.128 48.5624 118.128C48.5624 118.128 48.2128 117.908 47.5864 117.536C48.7841 115.527 50.896 111.53 53.2904 104.957C55.2575 99.5569 55.6357 95.4606 55.557 92.8037Z" fill="#B99E8A"/>
<path fill-rule="evenodd" clip-rule="evenodd" d="M49.1128 75.439C49.7534 76.8298 50.3046 78.082 51.4352 80.1125L51.572 80.3584C50.6234 80.9664 49.7225 81.9749 47.4707 87.155C45.2189 92.335 45.0369 95.4296 45.3508 98.3783C45.6646 101.327 45.7925 101.214 45.5327 104.263C45.2725 107.312 44.5868 111.514 44.0592 112.327C43.5317 113.141 43.1678 113.129 43.1678 113.129C43.1678 113.129 42.9537 114.75 42.5147 115.341L42.2509 115.209C42.1525 114.029 41.6804 108.42 41.5526 107.908C41.4091 107.335 41.0452 110.498 41.0452 110.498C41.0452 110.498 41.034 110.906 41.0479 112.942C41.0537 113.801 41.0461 114.31 41.0353 114.611C40.6129 114.408 40.1801 114.203 39.7393 113.999L39.5024 107.764C39.5024 107.764 39.2748 110.318 38.8738 111.921C38.6914 112.65 38.4348 113.072 38.2099 113.315L38.0477 113.246C37.9569 113.026 37.9118 112.784 37.9252 112.518C38.0311 110.429 37.766 104.961 42.9698 91.2026C47.3424 79.6409 46.4318 75.852 49.1132 75.4394L49.1128 75.439Z" fill="#A38976"/>
<path d="M32.9868 93.9253C32.9899 93.9329 34.0852 96.5705 40.4522 98.5157L40.3503 98.8519C33.8242 96.858 33.1513 94.3589 33.1482 94.3509L32.9868 93.9253ZM33.0074 100.372C33.0186 100.379 36.912 102.888 40.716 101.851L40.8085 102.19C36.8516 103.269 33.5246 100.996 33.513 100.989L33.0074 100.372V100.372Z" fill="#B99E8A"/>
<path fill-rule="evenodd" clip-rule="evenodd" d="M36.127 34.9237C36.127 34.9237 36.9294 36.7924 37.338 39.033C37.3702 39.2096 37.3997 39.3773 37.4257 39.5378C38.3229 39.806 39.6869 39.8373 41.2002 38.5493C42.8288 37.163 44.2768 35.4065 45.1575 34.2486C45.1168 32.1037 45.4311 30.1831 45.4311 30.1831C45.4311 30.1831 39.7298 35.0381 36.127 34.9232V34.9237Z" fill="#CF8F5B"/>
<path fill-rule="evenodd" clip-rule="evenodd" d="M36.127 34.9237C36.127 34.9237 36.4502 35.6761 36.7908 36.7987C38.8196 37.5649 40.125 36.7182 42.3133 35.3721C43.6795 34.5317 44.5915 33.5334 45.1852 32.675C45.2576 31.2471 45.4315 30.1836 45.4315 30.1836C45.4315 30.1836 39.7302 35.0386 36.1274 34.9237H36.127Z" fill="#AD7140"/>
<path fill-rule="evenodd" clip-rule="evenodd" d="M44.4319 15.781C47.4487 18.1987 48.18 21.3093 47.3239 24.8902C46.4678 28.4707 46.1374 29.7162 45.6591 31.2331C45.1807 32.7499 45.0855 33.0338 42.8824 34.4358C40.6793 35.8378 38.8012 36.8427 37.326 36.241C35.8507 35.6393 34.552 34.8359 33.8564 33.0991C33.1607 31.3618 32.8532 29.8816 32.3127 28.4059C31.7722 26.9302 32.2456 26.5457 32.2349 24.9787C32.2246 23.4118 32.0578 23.3394 31.9528 21.861C31.8911 20.9919 31.5267 19.1062 33.2153 16.828C35.9794 13.0987 40.8658 12.923 44.4315 15.7815L44.4319 15.781Z" fill="#E3A06B"/>
<path fill-rule="evenodd" clip-rule="evenodd" d="M47.509 23.978C47.7334 23.8618 48.0307 23.7804 48.345 23.8971C49.0026 24.1407 49.4613 25.4135 48.6325 27.0506C47.8036 28.6877 47.4227 29.4705 47.226 29.7495C47.0427 30.0097 46.4196 30.2685 46.1428 29.6047C46.4383 28.5384 46.7718 27.2008 47.3239 24.8904C47.3977 24.5829 47.459 24.2784 47.5086 23.978H47.509Z" fill="#E3A06B"/>
<path fill-rule="evenodd" clip-rule="evenodd" d="M46.2886 29.8443C46.234 29.783 46.1844 29.7039 46.1428 29.6042C46.4383 28.538 46.7718 27.2004 47.3239 24.89C47.3646 24.7201 47.4013 24.5516 47.4348 24.3839C47.6047 24.3195 47.8211 24.273 48.0822 24.2838C48.8167 24.3133 48.8591 25.7443 48.5949 26.3894C48.3303 27.0345 48.3303 27.0345 48.3303 27.0345C48.3303 27.0345 48.5891 26.1967 48.5288 25.4689C48.468 24.7411 47.8452 24.7688 47.6798 24.9508C47.5144 25.1327 47.2386 25.629 47.3597 26.224C47.4809 26.8195 47.3485 27.558 47.0401 27.7565C46.7866 27.9192 46.31 29.2197 46.2886 29.8443Z" fill="#CF8F5B"/>
<path fill-rule="evenodd" clip-rule="evenodd" d="M31.838 45.4082C31.4924 45.5794 31.1916 45.7323 30.9698 45.8525C29.9823 46.3886 29.0488 47.7431 29.2151 50.2766C29.318 51.8471 29.588 53.2656 29.7784 54.1182C29.7784 54.1182 29.1686 51.2083 29.8343 48.4441C30.2608 46.6724 31.2108 45.8034 31.838 45.4077V45.4082Z" fill="#E8AE7F"/>
<path fill-rule="evenodd" clip-rule="evenodd" d="M37.8168 100.475C37.2531 101.13 36.8995 103.515 36.9473 105.633C36.9951 107.751 36.8284 109.689 36.8284 109.689C36.8284 109.689 37.8897 110.457 38.1736 107.97C38.2956 106.9 37.9997 105.096 37.8369 104.079C37.621 102.731 37.8173 100.475 37.8173 100.475H37.8168Z" fill="#CF8F5B"/>
<path fill-rule="evenodd" clip-rule="evenodd" d="M52.516 40.9281C53.4124 41.1163 54.4925 41.4449 55.2149 42.0064C56.6531 43.1245 57.3143 44.4035 56.5208 48.4382C55.7268 52.4729 55.6633 51.0575 55.0978 55.2576C54.5323 59.4581 54.3709 60.5123 53.7584 62.9474C53.1459 65.3825 52.4423 68.0036 52.1164 69.9564C51.7905 71.9091 51.6595 75.4158 49.8104 80.6956C47.9614 85.9753 46.7472 88.0215 45.7601 91.1196C44.773 94.2181 44.7529 94.2347 44.7216 94.7814C44.6903 95.3282 44.8191 95.655 44.6501 96.3273C44.4811 96.9997 44.6702 97.5416 44.8119 98.3427C44.9536 99.1438 45.4467 100.531 45.1369 103.118C44.8271 105.704 44.6988 106.861 44.6067 107.768C44.5146 108.674 44.4815 110.78 44.195 111.817C43.9084 112.853 43.4108 112.683 43.3179 111.748C43.2249 110.812 43.2638 108.885 43.2137 107.683C43.1641 106.48 43.1855 105.957 43.1855 105.957C43.1855 105.957 42.7443 109.479 42.7948 110.659C42.8453 111.839 42.8028 115.306 42.2364 115.237C41.67 115.168 41.3615 110.659 41.3392 109.821C41.3173 108.984 41.4711 106.944 41.4711 106.944C41.4711 106.944 41.2399 106.757 41.1519 107.33C41.0638 107.903 40.7093 110.821 40.7093 110.821C40.7093 110.821 40.7334 113.801 40.6342 114.76C40.5349 115.72 40.2864 116.106 39.9211 116.074C39.5559 116.043 39.4548 115.611 39.327 113.955C39.1991 112.299 39.2349 110.935 39.2751 110.317C39.3149 109.699 39.3882 107.076 39.3882 107.076C39.3882 107.076 39.1124 106.756 39.0574 107.253C39.0024 107.749 38.8343 109.529 38.8343 109.529C38.8343 109.529 38.6604 111.684 38.4181 112.522C38.1758 113.36 37.634 113.606 37.541 112.888C37.448 112.169 37.5075 109.943 37.5396 109.486C37.5718 109.029 37.6376 105.597 37.5137 104.518C37.3899 103.439 37.3568 101.556 37.6724 100.766C39.1432 97.0824 39.2639 96.0193 40.3619 92.4254C40.9753 90.4177 42.4416 86.9521 43.3465 81.6339C44.5978 74.2808 46.977 69.6837 46.9775 69.4964C46.9779 69.2071 47.6664 49.7745 47.8099 47.7095C48.0267 44.5904 50.5852 41.3148 52.5165 40.9268L52.516 40.9281Z" fill="#E3A06B"/>
<path fill-rule="evenodd" clip-rule="evenodd" d="M30.5437 55.2201C31.1508 55.7414 32.5594 56.3753 35.7756 56.1143C39.9627 55.7736 43.3326 54.1754 44.4838 53.5674C43.5619 54.2585 38.1445 56.9024 34.6816 56.7643C31.0922 56.6212 30.5432 55.2206 30.5432 55.2206L30.5437 55.2201Z" fill="#E0D0C4"/>
<path fill-rule="evenodd" clip-rule="evenodd" d="M32.2876 52.665C32.2876 52.665 33.1893 53.2444 33.7114 54.468C33.8549 54.8051 33.9426 55.1051 33.994 55.3626C34.1536 55.3657 34.3185 55.367 34.4893 55.3662C34.2519 54.4086 33.677 53.1036 32.2871 52.665H32.2876Z" fill="#E8AE7F"/>
<path fill-rule="evenodd" clip-rule="evenodd" d="M40.1778 52.3877C40.1778 52.3877 39.2488 52.7086 38.3699 53.4128C37.7637 53.8983 37.2402 54.7253 36.9509 55.2466C37.1879 55.2189 37.4217 55.1871 37.6519 55.1518C38.0507 54.365 38.8567 53.1021 40.1778 52.3872V52.3877Z" fill="#E8AE7F"/>
<path fill-rule="evenodd" clip-rule="evenodd" d="M35.4681 55.637C35.2553 54.818 34.8498 53.8707 34.0898 53.0029C34.0898 53.0029 34.599 54.1952 34.6084 55.6696C34.8785 55.6665 35.1646 55.6558 35.4681 55.637Z" fill="#BD814F"/>
<path fill-rule="evenodd" clip-rule="evenodd" d="M42.8145 25.258C43.0801 25.4257 43.102 25.6407 42.4032 26.039C41.704 26.4373 41.721 26.2152 41.8936 26.1177C42.0666 26.0198 41.7098 25.8955 41.5789 25.9286C41.4479 25.9617 41.9624 24.7211 42.8145 25.258Z" fill="#CF8F5B"/>
<path fill-rule="evenodd" clip-rule="evenodd" d="M34.9893 31.7956C34.7774 31.5408 34.7367 31.5596 34.6097 31.5967C34.4832 31.6338 34.3384 31.2538 34.6339 31.3687C34.9294 31.484 34.8158 31.6029 35.3769 31.4675C35.6992 31.3897 36.0327 31.1903 36.4503 31.0892C36.7596 31.0146 36.8933 31.167 37.3533 31.1796C37.5773 31.1854 37.9948 30.9753 38.2577 31.0267C39.6932 31.3096 40.3629 31.302 40.535 31.3132C40.7541 31.3275 40.8994 31.0226 40.9687 31.125C41.0379 31.2278 40.8479 31.3369 40.7183 31.37C40.5887 31.4035 40.5296 31.6324 40.0459 32.3052C39.6329 32.8797 39.1107 33.7573 37.4731 33.7349C35.8901 33.7135 35.6684 32.6365 34.9888 31.7947L34.9893 31.7956Z" fill="#B14F49"/>
<path fill-rule="evenodd" clip-rule="evenodd" d="M36.1575 31.9073C36.5831 32.0088 38.2564 31.9073 39.1322 31.8447C39.1322 31.8447 38.424 32.3119 37.4973 32.3199C36.5701 32.328 36.1579 31.9073 36.1579 31.9073H36.1575Z" fill="white"/>
<path fill-rule="evenodd" clip-rule="evenodd" d="M36.4055 32.5185C36.4055 32.5185 37.216 32.8359 38.2876 32.5869C39.3592 32.3379 39.8354 31.995 39.7334 32.1671C39.6311 32.3392 38.7486 33.2843 37.4619 33.2195C36.1753 33.1547 35.9692 32.32 36.4055 32.5185Z" fill="#C25F5B"/>
<path fill-rule="evenodd" clip-rule="evenodd" d="M44.7965 28.4736C44.7965 28.4736 44.2717 30.0106 43.2783 31.1542C42.2845 32.2978 43.9346 31.9415 44.7965 28.4736Z" fill="#CF8F5B"/>
<path fill-rule="evenodd" clip-rule="evenodd" d="M33.032 29.7495C33.032 29.7495 33.5001 30.6244 33.8376 31.2485C34.1751 31.8726 33.1862 30.7304 33.032 29.7495Z" fill="#CF8F5B"/>
<path fill-rule="evenodd" clip-rule="evenodd" d="M38.5706 23.3463C38.5706 23.3463 38.55 24.0214 38.8746 23.9932C39.1991 23.9651 41.1867 23.5667 41.978 23.548C42.7693 23.5292 43.3572 23.7822 43.621 23.9512C43.8847 24.1197 43.9151 24.1479 43.9151 24.1479C43.9151 24.1479 44.0671 24.1948 43.8847 23.9512C43.7023 23.7076 43.0733 23.1639 42.1099 23.0325C41.1465 22.9015 38.9153 23.1308 38.5706 23.3463Z" fill="#413024"/>
<path fill-rule="evenodd" clip-rule="evenodd" d="M33.1782 25.3428C32.9484 25.2883 32.96 25.5874 33.5685 26.0174C34.1769 26.4475 34.1309 26.1498 33.9784 26.0639C33.8264 25.9781 34.1743 25.903 34.2891 25.9321C34.4045 25.9611 33.6744 25.2919 33.1778 25.3428H33.1782Z" fill="#CF8F5B"/>
<path fill-rule="evenodd" clip-rule="evenodd" d="M39.8984 25.6862C39.8984 25.6862 39.7491 25.7502 39.7209 25.6576C39.6927 25.5651 39.8385 25.4735 39.8385 25.4735C39.8385 25.4735 40.1376 24.9799 41.1104 24.9124C42.0831 24.8449 42.6576 25.3559 42.6576 25.3559C42.6576 25.3559 42.1037 26.0032 41.1841 26.0162C40.265 26.0296 40.0754 25.7614 39.8984 25.6858V25.6862Z" fill="white"/>
<path fill-rule="evenodd" clip-rule="evenodd" d="M39.8984 25.6864C39.8984 25.6864 39.7491 25.7503 39.7209 25.6578C39.6927 25.5653 39.8385 25.4736 39.8385 25.4736C39.8385 25.4736 39.8483 25.4575 39.8698 25.4311C39.8966 25.5027 39.9547 25.6252 40.0575 25.6828C40.2073 25.7669 40.5305 25.99 41.2936 25.952C41.9191 25.9207 42.4439 25.4781 42.6125 25.3198C42.6424 25.3426 42.6576 25.356 42.6576 25.356C42.6576 25.356 42.1037 26.0034 41.1841 26.0163C40.265 26.0298 40.0754 25.7615 39.8984 25.686V25.6864Z" fill="#EDBA9D"/>
<path fill-rule="evenodd" clip-rule="evenodd" d="M39.8386 25.4735C39.8386 25.4735 40.1377 24.9799 41.1105 24.9124C42.0833 24.8449 42.6578 25.3559 42.6578 25.3559C42.6578 25.3559 42.622 25.3979 42.5536 25.4605C41.1856 24.8248 39.8386 25.4735 39.8386 25.4735Z" fill="#ADA89F"/>
<path fill-rule="evenodd" clip-rule="evenodd" d="M40.7398 25.0085C40.8922 24.9625 41.0728 24.9276 41.2852 24.9129C41.5306 24.8959 41.7505 24.9156 41.9428 24.9549C41.9777 25.0291 41.9987 25.1114 42.0031 25.1981C42.021 25.5575 41.7443 25.8633 41.3849 25.8812C41.0254 25.8991 40.7196 25.6224 40.7018 25.2629C40.6973 25.1735 40.7111 25.0877 40.7398 25.0085Z" fill="#625D54"/>
<path d="M41.3678 25.537C41.5372 25.5285 41.6676 25.3843 41.6592 25.215C41.6507 25.0456 41.5065 24.9152 41.3372 24.9236C41.1678 24.9321 41.0374 25.0763 41.0458 25.2456C41.0543 25.415 41.1985 25.5454 41.3678 25.537Z" fill="#413024"/>
<path d="M41.6107 25.3058C41.6702 25.3028 41.716 25.2521 41.713 25.1927C41.71 25.1332 41.6594 25.0873 41.5999 25.0903C41.5404 25.0933 41.4946 25.1439 41.4976 25.2034C41.5005 25.2629 41.5512 25.3087 41.6107 25.3058Z" fill="white"/>
<path fill-rule="evenodd" clip-rule="evenodd" d="M39.8134 25.4913C39.8134 25.4913 40.2355 25.0241 41.1296 24.9839C42.0241 24.9441 42.5405 25.4202 42.743 25.4381C42.9455 25.456 43.3988 25.2235 43.3988 25.2235C43.3988 25.2235 42.9035 25.3643 42.6129 25.1819C42.4716 25.0934 41.9991 24.8529 41.4523 24.8126C40.8739 24.7706 40.2131 24.9445 39.813 25.4913H39.8134Z" fill="#413024"/>
<path fill-rule="evenodd" clip-rule="evenodd" d="M35.9804 25.6697C35.9804 25.6697 36.1186 25.7318 36.1441 25.6393C36.1695 25.5467 36.035 25.4564 36.035 25.4564C36.035 25.4564 35.7565 24.966 34.8588 24.9079C33.9611 24.8498 33.4331 25.3666 33.4331 25.3666C33.4331 25.3666 33.9477 26.0085 34.7957 26.0126C35.6438 26.0166 35.8173 25.747 35.9804 25.6697Z" fill="white"/>
<path fill-rule="evenodd" clip-rule="evenodd" d="M35.9804 25.6698C35.9804 25.6698 36.1186 25.7319 36.1441 25.6394C36.1695 25.5469 36.035 25.4566 36.035 25.4566C36.035 25.4566 36.026 25.4405 36.0059 25.4141C35.9818 25.4856 35.9281 25.609 35.8338 25.6676C35.6961 25.753 35.3988 25.9792 34.6947 25.9488C34.1171 25.9237 33.6312 25.4861 33.4747 25.3296C33.4474 25.3524 33.4331 25.3662 33.4331 25.3662C33.4331 25.3662 33.9477 26.0082 34.7957 26.0122C35.6438 26.0163 35.8173 25.7467 35.9804 25.6694V25.6698Z" fill="#EDBA9D"/>
<path fill-rule="evenodd" clip-rule="evenodd" d="M36.0345 25.4564C36.0345 25.4564 35.756 24.966 34.8583 24.9079C33.9606 24.8498 33.4326 25.3666 33.4326 25.3666C33.4326 25.3666 33.4657 25.4081 33.5292 25.4698C34.7881 24.8207 36.034 25.4564 36.034 25.4564H36.0345Z" fill="#ADA89F"/>
<path fill-rule="evenodd" clip-rule="evenodd" d="M35.4609 24.9919C35.3084 24.9472 35.1274 24.9136 34.9146 24.9007C34.6691 24.8859 34.4492 24.9074 34.2574 24.9485C34.2234 25.0231 34.2029 25.1054 34.1993 25.1921C34.1845 25.5516 34.4639 25.8551 34.8234 25.8699C35.1828 25.8846 35.4864 25.6052 35.5011 25.2458C35.5047 25.1564 35.4904 25.0705 35.4609 24.9919Z" fill="#625D54"/>
<path d="M34.8373 25.5257C34.6679 25.5187 34.5362 25.3757 34.5432 25.2063C34.5502 25.0368 34.6932 24.9052 34.8627 24.9121C35.0321 24.9191 35.1638 25.0622 35.1568 25.2316C35.1498 25.401 35.0068 25.5327 34.8373 25.5257Z" fill="#413024"/>
<path d="M35.1045 25.2828C35.045 25.2804 34.9988 25.2302 35.0012 25.1706C35.0037 25.1111 35.0539 25.0649 35.1134 25.0673C35.1729 25.0698 35.2192 25.12 35.2167 25.1795C35.2143 25.2391 35.1641 25.2853 35.1045 25.2828Z" fill="white"/>
<path fill-rule="evenodd" clip-rule="evenodd" d="M36.0577 25.4737C36.0577 25.4737 35.6661 25.0106 34.8409 24.9793C34.0156 24.948 33.5413 25.4295 33.3544 25.4492C33.1675 25.4693 32.7947 25.1809 32.7947 25.1809C32.7947 25.1809 33.2011 25.3271 33.4684 25.142C33.598 25.0522 34.0393 24.8698 34.544 24.8246C35.0773 24.7768 35.6862 24.931 36.0582 25.4737H36.0577Z" fill="#413024"/>
<path fill-rule="evenodd" clip-rule="evenodd" d="M35.98 28.1658C35.98 28.1658 35.6997 28.4577 35.6403 28.9919C35.5808 29.5262 35.9778 29.6433 36.1486 29.7466C36.3193 29.8498 35.5039 29.6996 35.474 29.1234C35.444 28.5471 35.8598 28.2494 35.98 28.1658ZM38.9217 28.0996C38.9217 28.0996 39.1742 28.4282 39.1841 28.9392C39.1939 29.4502 38.8108 29.6433 38.64 29.7466C38.4692 29.8498 39.2878 29.6469 39.3508 29.0702C39.4139 28.4939 39.0486 28.2355 38.9221 28.0996H38.9217Z" fill="#AD7140"/>
<path fill-rule="evenodd" clip-rule="evenodd" d="M36.1026 29.671C36.1026 29.671 35.8978 29.5588 36.04 29.4555C36.1817 29.3522 36.2349 29.4837 36.4741 29.6522C36.7137 29.8207 36.8277 29.924 37.0843 29.9334C37.3409 29.9428 36.8948 29.992 36.7016 29.8422C36.508 29.692 36.1804 29.6196 36.1026 29.671ZM38.3986 29.671C38.3986 29.671 38.5895 29.5588 38.4349 29.4555C38.2802 29.3522 38.2435 29.4837 38.0249 29.6522C37.8063 29.8207 37.7048 29.924 37.4495 29.9334C37.1943 29.9428 37.6463 29.992 37.8211 29.8422C37.9959 29.692 38.3146 29.6196 38.3986 29.671Z" fill="#7D4B23"/>
<path fill-rule="evenodd" clip-rule="evenodd" d="M37.0029 28.7187C36.9188 28.8689 36.9023 29.1063 37.2228 29.1206C37.5429 29.1349 37.6359 28.9092 37.492 28.7134C37.348 28.5171 37.0869 28.569 37.0029 28.7192V28.7187Z" fill="#E8AE7F"/>
<path fill-rule="evenodd" clip-rule="evenodd" d="M36.5629 24.1175C36.5629 24.1175 36.7918 24.5655 36.7502 25.7967C36.7082 27.0279 36.444 27.8219 36.444 27.8219C36.444 27.8219 36.6621 26.757 36.6223 25.6322C36.5825 24.5078 36.1936 23.9517 36.1936 23.9517C36.1936 23.9517 36.3581 23.8001 36.5633 24.1175H36.5629Z" fill="#CF8F5B"/>
<path fill-rule="evenodd" clip-rule="evenodd" d="M38.6012 24.2046C38.6012 24.2046 38.2136 24.5837 38.1872 25.8507C38.1608 27.1176 38.2279 26.4247 38.4 25.5797C38.5721 24.7352 38.9329 24.3561 38.961 24.302C38.9892 24.248 38.8189 23.9878 38.6016 24.2046H38.6012Z" fill="#CF8F5B"/>
<path fill-rule="evenodd" clip-rule="evenodd" d="M32.6794 24.2418C32.6794 24.2418 32.9802 23.7639 33.5574 23.6231C34.1345 23.4827 34.912 23.5949 35.5812 23.7733C36.25 23.9512 36.3922 24.0589 36.5343 23.9467C36.6765 23.8345 36.6264 23.3562 36.4758 23.2998C36.3251 23.2435 34.1801 22.8497 33.4693 23.1125C32.7585 23.3749 32.6186 24.139 32.6186 24.139C32.6186 24.139 32.5703 24.3638 32.6794 24.2422V24.2418Z" fill="#413024"/>
<path fill-rule="evenodd" clip-rule="evenodd" d="M35.4072 24.7664C35.6732 24.842 35.9629 24.5143 35.8109 24.2304C35.6585 23.9465 36.0756 23.7409 36.2808 24.4951C36.486 25.2492 36.2642 25.6485 36.1699 25.4585C36.0756 25.2689 35.6835 24.9064 35.4394 24.7731L35.4072 24.766V24.7664Z" fill="#CF8F5B"/>
<path fill-rule="evenodd" clip-rule="evenodd" d="M41.3001 24.6074C41.0341 24.6829 39.9589 24.4751 40.1842 24.0986C40.4095 23.7222 39.43 23.8872 39.2248 24.6409C39.0196 25.3951 39.506 25.7282 39.6003 25.5386C39.6522 25.4344 39.7792 25.2297 39.9634 25.0902C40.3773 24.7759 40.6943 24.7138 41.3001 24.6074Z" fill="#CF8F5B"/>
<path fill-rule="evenodd" clip-rule="evenodd" d="M39.8215 25.2584C39.8215 25.2584 40.1103 24.7515 41.1372 24.7282C42.1637 24.705 42.8356 25.2817 42.8356 25.2817C42.8356 25.2817 42.3054 24.6277 41.3004 24.6075C40.2954 24.5874 39.9306 25.0796 39.822 25.2584H39.8215Z" fill="#BD814F"/>
<path fill-rule="evenodd" clip-rule="evenodd" d="M33.2378 25.0543C33.2378 25.0543 33.7868 24.5983 34.7448 24.6801C35.7029 24.7619 36.2594 25.601 36.2434 25.5299C36.2277 25.4588 35.9993 24.7458 34.9223 24.5839C33.8453 24.4226 33.3518 24.9036 33.2378 25.0538V25.0543Z" fill="#BD814F"/>
</svg>
