<svg width="85" height="212" viewBox="0 0 85 212" fill="none" xmlns="http://www.w3.org/2000/svg">
<path fill-rule="evenodd" clip-rule="evenodd" d="M35.2556 34.6442C35.2556 34.6442 36.1145 36.5157 36.5515 38.7596C36.9892 41.0036 36.9302 41.9091 35.4793 42.5931C34.0284 43.2777 30.8254 44.6669 29.5844 45.2967C28.3434 45.9271 27.1716 47.52 27.3802 50.4994C27.5887 53.4788 28.344 55.9958 28.344 55.9958C28.344 55.9958 47.2143 60.9419 50.0448 58.6012C52.8753 56.2606 56.4151 41.184 52.7264 40.6475C52.5439 40.6208 51.1143 40.4177 50.9455 40.3964C47.6904 39.9938 46.7732 40.5103 45.5857 37.7704C44.3364 34.8871 45.2091 29.897 45.2091 29.897C45.2091 29.897 39.1097 34.7595 35.255 34.6442H35.2556Z" fill="#E3A06B"/>
<path fill-rule="evenodd" clip-rule="evenodd" d="M47.9792 48.6086C47.9792 48.6086 46.9838 53.4834 45.5212 55.5806C44.0586 57.6784 47.4318 60.3498 47.8331 57.1481C48.2344 53.9465 47.9799 48.6079 47.9799 48.6079L47.9792 48.6086Z" fill="#BD814F"/>
<path fill-rule="evenodd" clip-rule="evenodd" d="M28.8869 110.899C28.8869 110.899 28.8457 113.907 30.1999 121.689C30.4558 123.161 30.7432 124.909 31.0396 126.778C32.6881 121.903 35.2092 114.744 35.9748 112.573C31.6563 111.014 29.2305 110.906 28.8869 110.899ZM34.897 152.356C36.0578 160.125 37.6788 171.655 37.5334 174.516C37.3091 178.932 33.9977 186.406 33.9977 186.406C33.9977 186.406 32.7203 187.391 34.2241 188.637C35.7278 189.884 37.2336 189.902 37.2336 189.902L37.6178 189.358C37.602 189.121 37.6459 188.963 37.6459 188.963C37.6459 188.963 37.6459 188.963 38.3203 183.378C38.9946 177.792 39.6662 175.553 38.5014 166.1C37.9814 161.878 36.5009 156.917 34.8964 152.357L34.897 152.356ZM44.6268 148.977C44.6865 146.982 44.6467 145.193 44.4327 143.978C43.5834 139.165 42.636 138.098 42.636 138.098C42.636 138.098 43.2356 133.454 43.7611 128.198C40.9621 132.755 38.2887 136.936 38.2887 136.936C38.2887 136.936 40.1855 138.457 42.9694 143.845C43.8283 145.508 44.338 147.221 44.6275 148.977H44.6268Z" fill="#BD814F"/>
<path fill-rule="evenodd" clip-rule="evenodd" d="M29.3587 54.4654C30.0077 54.9874 31.5149 55.6227 34.9559 55.3606C39.4562 55.0183 43.0749 53.4041 44.2899 52.8018C46.3898 43.3965 49.8363 40.8994 51.3915 40.2408C52.2257 39.8875 52.5639 40.1743 52.7025 40.5015C52.6888 40.5029 47.6301 41.0277 44.9676 53.2278C45.3669 54.2651 46.2738 56.4095 47.7391 58.7269C49.791 61.9725 48.2646 73.3596 48.2646 73.3596C48.2646 73.3596 49.885 76.9653 52.0789 80.6534C54.2728 84.3407 58.8945 91.9191 57.3852 100.308C55.876 108.696 49.3629 118.963 49.3629 118.963C49.3629 118.963 44.5025 116.097 38.3126 113.489C32.1227 110.882 28.8435 110.9 28.8435 110.9C28.8435 110.9 27.8269 90.2301 28.8792 84.0567C30.064 77.1046 28.8271 70.254 27.8028 65.8457C27.8028 65.8457 23.4446 61.3859 28.7084 54.1073C28.7441 54.0428 28.7811 53.9776 28.8202 53.9111C30.0372 51.8379 32.2105 48.6864 31.6027 44.3309C31.5677 43.839 32.2921 43.7539 32.31 44.0764C32.8554 48.7516 30.7548 52.0753 29.4802 54.2507C29.4376 54.3241 29.3965 54.3954 29.358 54.4661L29.3587 54.4654Z" fill="#D5C1B5"/>
<path fill-rule="evenodd" clip-rule="evenodd" d="M35.9746 112.574C34.9586 115.454 30.8569 127.106 29.7949 130.567C28.58 134.528 28.5293 135.367 29.9466 139.429C31.3639 143.492 37.337 156.647 38.5019 166.1C39.6667 175.553 38.9951 177.792 38.3208 183.377C37.6464 188.963 37.6464 188.963 37.6464 188.963C37.6464 188.963 37.0317 191.164 41.2151 191.495C45.3984 191.826 45.7181 189.616 45.6522 187.475C45.587 185.334 46.0131 182.973 46.4837 180.775C46.955 178.578 46.9001 177.336 45.8306 174.324C44.7611 171.312 44.5642 167.543 44.7151 161.347C44.8667 155.151 45.751 149.232 42.9678 143.844C40.1847 138.457 38.2871 136.936 38.2871 136.936C38.2871 136.936 46.662 124.153 49.3622 118.962C48.5088 118.469 41.5094 114.835 38.3118 113.488C35.1143 112.141 36.7004 112.835 35.9739 112.572L35.9746 112.574Z" fill="#E3A06B"/>
<path fill-rule="evenodd" clip-rule="evenodd" d="M34.0373 186.319C33.2538 186.897 31.606 188.218 29.8923 190.239C27.5187 193.038 28.167 193.177 28.8866 193.179C29.5624 193.181 34.6348 193.521 36.1406 192.695C36.262 192.319 36.3882 191.955 36.5117 191.617C36.8033 190.818 37.0399 190.273 37.2272 189.902C37.1133 189.898 35.6686 189.834 34.2252 188.638C32.7215 187.391 33.9988 186.407 33.9988 186.407L34.0373 186.319Z" fill="#BA9F8A"/>
<path fill-rule="evenodd" clip-rule="evenodd" d="M37.6155 189.262C37.4227 189.498 37.066 190.097 36.5117 191.617C35.6075 194.097 34.5476 197.94 36.3875 197.807C38.2274 197.675 45.9081 195.116 46.1722 191.969C46.4363 188.821 47.1607 186.819 47.63 184.37C48.0992 181.921 49.2702 180.411 49.3333 178.737C49.3917 177.19 48.1061 175.846 45.8992 174.519C46.9028 177.39 46.9446 178.626 46.4843 180.776C46.0137 182.974 45.587 185.336 45.6529 187.476C45.718 189.617 45.3984 191.827 41.2157 191.496C37.9935 191.241 37.6183 189.876 37.6155 189.264V189.262Z" fill="#D4C1B5"/>
<path fill-rule="evenodd" clip-rule="evenodd" d="M48.9651 180.404C48.8938 180.936 48.782 181.594 48.6063 182.339C48.0856 184.548 48.277 187.834 48.2578 188.631C48.1494 188.827 47.296 188.804 47.2981 188.668L47.3441 185.709C47.4456 185.271 47.5423 184.827 47.6301 184.368C47.9423 182.74 48.5645 181.526 48.9651 180.403V180.404Z" fill="#A68C7A"/>
<path fill-rule="evenodd" clip-rule="evenodd" d="M39.5357 178.166C39.5357 178.166 38.3091 185.807 38.1678 187.749C38.0264 189.692 41.7529 177.614 39.5357 178.166Z" fill="#E8AE7F"/>
<path fill-rule="evenodd" clip-rule="evenodd" d="M29.7065 111.311C29.7065 111.311 29.8163 114.176 30.4529 118.592C31.0895 123.008 31.5148 124.156 31.4497 123.787C31.3845 123.418 30.9009 111.68 30.9009 111.68C30.9009 111.68 30.4508 111.179 29.7058 111.31L29.7065 111.311Z" fill="#D7A485"/>
<path fill-rule="evenodd" clip-rule="evenodd" d="M35.9748 112.573L35.5618 113.746C39.7115 114.092 47.1307 117.728 48.5817 120.406C48.8746 119.88 49.138 119.394 49.363 118.962C48.902 118.696 46.715 117.408 44.2358 116.165C42.1249 115.107 39.7835 114.108 38.3127 113.489C35.1152 112.142 36.7012 112.835 35.9748 112.573V112.573Z" fill="#BD814F"/>
<path fill-rule="evenodd" clip-rule="evenodd" d="M28.4277 89.8369C28.4277 89.8369 26.0843 99.4411 26.4609 104.454C26.8375 109.467 26.8437 108.125 27.4488 110.111C28.0538 112.097 28.3221 113 28.3221 113C28.3221 113 29.063 114.102 29.0376 113.795C29.0129 113.487 28.6411 106.003 28.6411 106.003C28.6411 106.003 29.054 107.237 29.4903 108.099C29.9267 108.96 30.1393 109.148 30.4103 109.015C30.6813 108.883 30.3897 107.402 30.0577 106.409C29.7256 105.416 29.867 104.046 29.4897 102.733C29.1124 101.419 28.5388 100.646 28.5388 100.646C28.5423 96.4405 28.3145 94.5073 28.427 89.8369H28.4277Z" fill="#CF8F5B"/>
<path fill-rule="evenodd" clip-rule="evenodd" d="M56.0428 92.6074C56.5415 94.9659 56.6993 97.5117 56.226 100.141C54.784 108.157 48.5597 117.968 48.5597 117.968C48.5597 117.968 48.1859 117.748 47.5156 117.375C48.7964 115.363 51.0562 111.36 53.6177 104.779C55.7224 99.3708 56.1272 95.2685 56.0428 92.6074Z" fill="#B99E8A"/>
<path fill-rule="evenodd" clip-rule="evenodd" d="M49.1489 75.2178C49.8343 76.6104 50.4242 77.8651 51.6337 79.8985L51.7805 80.1447C50.7652 80.7532 49.802 81.7637 47.3927 86.9514C44.9835 92.139 44.7886 95.2378 45.1248 98.1911C45.4609 101.144 45.5974 101.03 45.3196 104.084C45.0411 107.137 44.3077 111.345 43.7431 112.16C43.1786 112.974 42.7896 112.963 42.7896 112.963C42.7896 112.963 42.5604 114.586 42.0905 115.178L41.8086 115.045C41.7036 113.864 41.1987 108.247 41.0615 107.734C40.9085 107.159 40.5189 110.328 40.5189 110.328C40.5189 110.328 40.5072 110.736 40.5216 112.774C40.5278 113.635 40.5196 114.145 40.5079 114.447C40.0558 114.242 39.5927 114.038 39.1215 113.834L38.8676 107.59C38.8676 107.59 38.6241 110.148 38.1953 111.752C37.9998 112.483 37.7261 112.905 37.4853 113.148L37.3117 113.079C37.215 112.859 37.1663 112.617 37.1807 112.35C37.2939 110.258 37.0106 104.782 42.5776 91.0037C47.2555 79.4251 46.2814 75.6308 49.1496 75.2178H49.1489Z" fill="#A38976"/>
<path d="M31.8962 93.7307C31.8996 93.7382 33.0713 96.3801 39.8828 98.3277L39.7737 98.6645C32.7921 96.6682 32.0718 94.1649 32.0684 94.1567L31.8955 93.73L31.8962 93.7307ZM31.9181 100.187C31.9305 100.194 36.0953 102.707 40.1654 101.669L40.2642 102.008C36.0308 103.089 32.4718 100.813 32.4594 100.806L31.9181 100.188V100.187Z" fill="#B99E8A"/>
<path fill-rule="evenodd" clip-rule="evenodd" d="M35.2558 34.6442C35.2558 34.6442 36.1147 36.5157 36.5517 38.7596C36.586 38.9359 36.6176 39.1047 36.645 39.2652C37.6054 39.5341 39.0646 39.565 40.6829 38.2753C42.4254 36.8868 43.9744 35.1278 44.917 33.9685C44.8731 31.8199 45.2092 29.897 45.2092 29.897C45.2092 29.897 39.1098 34.7595 35.2551 34.6442H35.2558Z" fill="#CF8F5B"/>
<path fill-rule="evenodd" clip-rule="evenodd" d="M35.2558 34.6442C35.2558 34.6442 35.6016 35.3974 35.9658 36.5218C37.5409 37.8403 39.3774 36.7942 41.2783 35.6993C43.18 34.6044 44.7901 33.2187 44.9458 32.392C45.0233 30.9617 45.2092 29.897 45.2092 29.897C45.2092 29.897 39.1098 34.7595 35.2551 34.6442H35.2558Z" fill="#AD7140"/>
<path fill-rule="evenodd" clip-rule="evenodd" d="M43.8145 15.7368C46.8309 18.1543 47.5629 21.2654 46.7067 24.8457C45.8506 28.4267 45.4808 30.1473 45.1083 31.1722C44.7358 32.1971 44.4408 33.0498 42.238 34.452C40.0352 35.8542 38.1844 36.7653 36.7094 36.1966C35.2338 35.6278 33.8583 34.784 33.1627 33.0471C32.4671 31.3101 31.9142 29.77 31.5767 28.3005C31.2391 26.8311 31.6281 26.5011 31.6178 24.9342C31.6075 23.3674 31.4408 23.2953 31.3359 21.8163C31.2741 20.9471 30.9098 19.0612 32.5981 16.783C35.3621 13.0538 40.2486 12.8782 43.8145 15.7361V15.7368Z" fill="#E3A06B"/>
<path fill-rule="evenodd" clip-rule="evenodd" d="M46.8796 23.9322C47.104 23.8156 47.2419 23.6729 47.7282 23.8533C48.2146 24.0337 48.8444 25.3701 48.0157 27.0069C47.187 28.6437 46.7994 29.4361 46.6093 29.7057C46.4193 29.9753 45.8424 30.2428 45.5659 29.5795C46.0427 27.861 46.3768 25.6026 46.8796 23.9329V23.9322Z" fill="#E3A06B"/>
<path fill-rule="evenodd" clip-rule="evenodd" d="M45.6714 29.8002C45.6165 29.7392 45.598 29.7117 45.5562 29.6122C45.8518 28.5462 46.4102 26.0861 46.7066 24.8465C47.003 23.6069 46.7841 24.5083 46.8177 24.3402C46.9879 24.2757 47.204 24.2298 47.4653 24.2401C48.2001 24.2696 48.2426 25.7006 47.9778 26.3454C47.713 26.9903 47.713 26.9903 47.713 26.9903C47.713 26.9903 47.9723 26.1527 47.9112 25.4248C47.8509 24.6969 47.228 24.7244 47.0626 24.9069C46.8973 25.0887 46.6215 25.5846 46.743 26.1801C46.8644 26.7756 46.732 27.5144 46.4233 27.7127C46.1695 27.8753 45.6934 29.1759 45.6714 29.8002Z" fill="#CF8F5B"/>
<path fill-rule="evenodd" clip-rule="evenodd" d="M30.667 45.144C30.2972 45.3155 29.9755 45.4685 29.7381 45.5893C28.6816 46.1257 27.6828 47.4827 27.8605 50.0196C27.9709 51.5919 28.2591 53.0133 28.4635 53.8667C28.4635 53.8667 27.8111 50.9525 28.5232 48.1845C28.9801 46.4097 29.996 45.5399 30.667 45.144Z" fill="#E8AE7F"/>
<path fill-rule="evenodd" clip-rule="evenodd" d="M37.064 100.291C36.461 100.946 36.0823 103.334 36.1337 105.456C36.1852 107.577 36.0068 109.518 36.0068 109.518C36.0068 109.518 37.1422 110.287 37.4454 107.796C37.5758 106.724 37.2595 104.918 37.0853 103.9C36.8548 102.55 37.064 100.291 37.064 100.291Z" fill="#CF8F5B"/>
<path fill-rule="evenodd" clip-rule="evenodd" d="M52.7897 40.6572C53.7488 40.8452 54.904 41.1752 55.6772 41.737C57.2159 42.8566 57.8793 43.7999 57.1953 48.2116C56.6046 52.0204 55.3335 58.187 54.1185 62.7092C53.4634 65.1473 52.8096 67.8056 52.4611 69.7614C52.1126 71.7173 51.8732 75.1954 49.8954 80.4832C47.9176 85.771 46.6183 87.8194 45.5619 90.9223C44.5054 94.0251 44.4841 94.0423 44.4512 94.5897C44.4176 95.1372 44.5555 95.4644 44.3744 96.1381C44.1939 96.8117 44.3956 97.3544 44.5472 98.1563C44.6988 98.959 45.2264 100.348 44.895 102.939C44.5637 105.528 44.4258 106.687 44.3277 107.595C44.2296 108.504 44.1939 110.612 43.8873 111.65C43.5806 112.688 43.0483 112.518 42.9488 111.581C42.8493 110.644 42.8905 108.714 42.8377 107.51C42.7842 106.306 42.8075 105.781 42.8075 105.781C42.8075 105.781 42.3355 109.31 42.3897 110.491C42.4439 111.672 42.3979 115.145 41.7922 115.076C41.1864 115.006 40.8558 110.491 40.8325 109.652C40.8091 108.813 40.9731 106.77 40.9731 106.77C40.9731 106.77 40.7261 106.583 40.6315 107.157C40.5375 107.731 40.1574 110.653 40.1574 110.653C40.1574 110.653 40.1828 113.638 40.0772 114.598C39.9708 115.558 39.7053 115.946 39.3143 115.914C38.9233 115.882 38.8156 115.449 38.6791 113.791C38.5425 112.133 38.581 110.767 38.6235 110.149C38.666 109.53 38.7449 106.903 38.7449 106.903C38.7449 106.903 38.4499 106.583 38.3909 107.08C38.3319 107.577 38.1522 109.36 38.1522 109.36C38.1522 109.36 37.9663 111.518 37.707 112.357C37.4477 113.196 36.868 113.443 36.7685 112.723C36.669 112.004 36.7328 109.774 36.7671 109.316C36.8014 108.859 36.8721 105.422 36.739 104.341C36.6066 103.261 36.5716 101.375 36.9085 100.584C38.4822 96.8954 38.6111 95.8307 39.7856 92.2319C40.4421 90.2212 42.0103 86.7506 42.979 81.4251C44.3181 74.0614 46.8632 69.4575 46.8632 69.2696C46.8639 68.9801 47.6 49.5192 47.7537 47.4508C47.9855 44.3274 50.7227 41.0469 52.789 40.6586L52.7897 40.6572Z" fill="#E3A06B"/>
<path fill-rule="evenodd" clip-rule="evenodd" d="M29.2825 54.9698C29.9314 55.4919 31.4393 56.1271 34.8797 55.8651C39.3594 55.5241 42.9644 53.9236 44.1965 53.3145C43.2106 54.0066 37.4145 56.654 33.71 56.5161C29.8697 56.3727 29.2825 54.9698 29.2825 54.9698Z" fill="#E0D0C4"/>
<path fill-rule="evenodd" clip-rule="evenodd" d="M31.1484 52.4111C31.1484 52.4111 32.1137 52.9915 32.6721 54.2167C32.8257 54.5542 32.9197 54.8547 32.9746 55.1127C33.1454 55.1161 33.3217 55.1168 33.5049 55.1161C33.2511 54.157 32.6364 52.8502 31.1491 52.4111H31.1484Z" fill="#E8AE7F"/>
<path fill-rule="evenodd" clip-rule="evenodd" d="M39.59 52.1333C39.59 52.1333 38.5966 52.455 37.6561 53.1603C37.0078 53.6466 36.4473 54.4747 36.1379 54.9967C36.3911 54.9686 36.6415 54.937 36.8878 54.9021C37.3145 54.1138 38.1768 52.8488 39.59 52.1333Z" fill="#E8AE7F"/>
<path fill-rule="evenodd" clip-rule="evenodd" d="M34.5512 55.3872C34.3234 54.5675 33.8898 53.618 33.0769 52.7495C33.0769 52.7495 33.6216 53.9432 33.6319 55.4202C33.9207 55.4167 34.2267 55.4065 34.5512 55.3872Z" fill="#BD814F"/>
<path fill-rule="evenodd" clip-rule="evenodd" d="M42.2084 25.2142C42.4739 25.3816 42.4958 25.597 41.7968 25.9956C41.0977 26.3941 41.1142 26.1719 41.2871 26.0738C41.4599 25.9764 41.1032 25.8515 40.9722 25.8844C40.8412 25.9174 41.3557 24.677 42.2077 25.2142H42.2084Z" fill="#CF8F5B"/>
<path fill-rule="evenodd" clip-rule="evenodd" d="M34.3831 31.7522C34.1711 31.4977 34.1307 31.5162 34.0038 31.5533C33.8768 31.5903 33.7328 31.2103 34.0278 31.3255C34.3234 31.4408 34.2096 31.5601 34.7707 31.4243C35.0931 31.3468 35.4266 31.1472 35.8443 31.0463C36.1537 30.9715 36.2875 31.1238 36.7478 31.1362C36.9715 31.1424 37.3892 30.9318 37.6527 30.9832C39.0885 31.2665 39.7574 31.2583 39.9302 31.27C40.1491 31.2844 40.2945 30.9791 40.3638 31.082C40.4331 31.1849 40.2431 31.294 40.1134 31.3269C39.9838 31.3605 39.9248 31.5896 39.4411 32.2626C39.0281 32.8368 38.5061 33.7149 36.8686 33.6923C35.2852 33.671 35.0636 32.594 34.3845 31.7522H34.3831Z" fill="#B14F49"/>
<path fill-rule="evenodd" clip-rule="evenodd" d="M35.5513 31.8637C35.9773 31.9652 37.6498 31.8637 38.5258 31.8013C38.5258 31.8013 37.8179 32.2684 36.8911 32.2767C35.9643 32.2849 35.5513 31.8637 35.5513 31.8637Z" fill="white"/>
<path fill-rule="evenodd" clip-rule="evenodd" d="M35.7991 32.4749C35.7991 32.4749 36.6093 32.7919 37.6808 32.5435C38.7524 32.2945 39.2285 31.9515 39.1263 32.1237C39.024 32.2959 38.1418 33.2405 36.8549 33.176C35.5679 33.1115 35.3621 32.2767 35.7984 32.4749H35.7991Z" fill="#C25F5B"/>
<path fill-rule="evenodd" clip-rule="evenodd" d="M44.1904 28.4297C44.1904 28.4297 43.6656 29.967 42.6722 31.1106C41.6789 32.2542 43.328 31.8982 44.1904 28.4297Z" fill="#CF8F5B"/>
<path fill-rule="evenodd" clip-rule="evenodd" d="M32.4258 29.7056C32.4258 29.7056 32.8936 30.5802 33.2312 31.2045C33.5687 31.8288 32.5801 30.6866 32.4258 29.7056Z" fill="#CF8F5B"/>
<path fill-rule="evenodd" clip-rule="evenodd" d="M37.9641 23.3031C37.9641 23.3031 37.9435 23.9781 38.268 23.95C38.5925 23.9219 40.5806 23.5233 41.3716 23.5048C42.1625 23.4862 42.7505 23.7394 43.0146 23.9081C43.278 24.0769 43.3089 24.105 43.3089 24.105C43.3089 24.105 43.4612 24.1517 43.2787 23.9081C43.0962 23.6646 42.4671 23.1206 41.504 22.9896C40.5408 22.8585 38.3092 23.0877 37.9641 23.3038V23.3031Z" fill="#413024"/>
<path fill-rule="evenodd" clip-rule="evenodd" d="M32.572 25.2985C32.3422 25.2436 32.3539 25.5434 32.9624 25.9728C33.5709 26.403 33.5249 26.1052 33.3726 26.0195C33.2203 25.9337 33.5681 25.8583 33.6834 25.8878C33.7986 25.9173 33.0687 25.2477 32.572 25.2985Z" fill="#CF8F5B"/>
<path fill-rule="evenodd" clip-rule="evenodd" d="M39.2921 25.6422C39.2921 25.6422 39.1426 25.706 39.1145 25.6134C39.0863 25.5208 39.2318 25.4296 39.2318 25.4296C39.2318 25.4296 39.5309 24.9356 40.5036 24.8684C41.4764 24.8012 42.0506 25.3116 42.0506 25.3116C42.0506 25.3116 41.4963 25.9592 40.577 25.9722C39.6578 25.9852 39.4684 25.7177 39.2914 25.6422H39.2921Z" fill="white"/>
<path fill-rule="evenodd" clip-rule="evenodd" d="M39.2921 25.6422C39.2921 25.6422 39.1426 25.706 39.1145 25.6134C39.0863 25.5208 39.2318 25.4295 39.2318 25.4295C39.2318 25.4295 39.2414 25.4138 39.2633 25.387C39.2901 25.4584 39.3484 25.5812 39.4513 25.6388C39.6008 25.7225 39.9239 25.9461 40.6875 25.9077C41.3131 25.8768 41.8372 25.4337 42.006 25.2759C42.0362 25.2985 42.0513 25.3122 42.0513 25.3122C42.0513 25.3122 41.497 25.9598 40.5777 25.9729C39.6585 25.9859 39.4691 25.7184 39.2921 25.6429V25.6422Z" fill="#EDBA9D"/>
<path fill-rule="evenodd" clip-rule="evenodd" d="M39.2317 25.4296C39.2317 25.4296 39.5308 24.9356 40.5036 24.8684C41.4763 24.8012 42.0505 25.3116 42.0505 25.3116C42.0505 25.3116 42.0149 25.3534 41.9463 25.4158C40.5783 24.7799 39.2317 25.4289 39.2317 25.4289V25.4296Z" fill="#ADA89F"/>
<path fill-rule="evenodd" clip-rule="evenodd" d="M40.1338 24.9645C40.2861 24.9186 40.4665 24.8836 40.6792 24.8685C40.9248 24.8514 41.145 24.8712 41.3364 24.9103C41.3714 24.9844 41.3927 25.0668 41.3968 25.1539C41.4146 25.5134 41.1381 25.8193 40.7787 25.8372C40.4192 25.855 40.1132 25.5785 40.0954 25.2191C40.0906 25.1299 40.105 25.0434 40.1331 24.9645H40.1338Z" fill="#625D54"/>
<path d="M40.7616 25.4929C40.9309 25.4844 41.0613 25.3403 41.0528 25.171C41.0444 25.0016 40.9002 24.8712 40.7309 24.8797C40.5616 24.8882 40.4312 25.0323 40.4396 25.2016C40.4481 25.3709 40.5922 25.5014 40.7616 25.4929Z" fill="#413024"/>
<path d="M41.0042 25.2618C41.0637 25.2588 41.1095 25.2082 41.1065 25.1487C41.1035 25.0892 41.0529 25.0434 40.9934 25.0464C40.934 25.0493 40.8882 25.1 40.8911 25.1595C40.8941 25.2189 40.9447 25.2647 41.0042 25.2618Z" fill="white"/>
<path fill-rule="evenodd" clip-rule="evenodd" d="M39.207 25.4475C39.207 25.4475 39.6289 24.9803 40.5235 24.9398C41.4181 24.9 41.9346 25.3761 42.137 25.394C42.3394 25.4118 42.7928 25.1792 42.7928 25.1792C42.7928 25.1792 42.2975 25.3199 42.0073 25.1374C41.866 25.0489 41.394 24.8081 40.8466 24.7683C40.2683 24.7258 39.6077 24.9 39.2077 25.4468L39.207 25.4475Z" fill="#413024"/>
<path fill-rule="evenodd" clip-rule="evenodd" d="M35.3735 25.626C35.3735 25.626 35.5114 25.6885 35.5368 25.5958C35.5622 25.5032 35.4277 25.4127 35.4277 25.4127C35.4277 25.4127 35.1492 24.9222 34.2512 24.8639C33.3532 24.8062 32.8257 25.3221 32.8257 25.3221C32.8257 25.3221 33.3402 25.9642 34.1881 25.9684C35.036 25.9725 35.2096 25.7029 35.3729 25.6253L35.3735 25.626Z" fill="white"/>
<path fill-rule="evenodd" clip-rule="evenodd" d="M35.3736 25.6259C35.3736 25.6259 35.5115 25.6883 35.5369 25.5957C35.5622 25.5031 35.4278 25.4126 35.4278 25.4126C35.4278 25.4126 35.4189 25.3968 35.399 25.37C35.375 25.4421 35.3215 25.5649 35.2268 25.6239C35.0889 25.7096 34.7919 25.936 34.088 25.9051C33.5104 25.8797 33.0247 25.4427 32.8683 25.2856C32.8408 25.3083 32.8264 25.322 32.8264 25.322C32.8264 25.322 33.3409 25.9641 34.1888 25.9682C35.0368 25.9723 35.2103 25.7027 35.3736 25.6252V25.6259Z" fill="#EDBA9D"/>
<path fill-rule="evenodd" clip-rule="evenodd" d="M35.4277 25.4127C35.4277 25.4127 35.1492 24.9222 34.2512 24.8639C33.3532 24.8062 32.8257 25.3221 32.8257 25.3221C32.8257 25.3221 32.8593 25.3633 32.9224 25.4257C34.1813 24.7767 35.4277 25.4127 35.4277 25.4127Z" fill="#ADA89F"/>
<path fill-rule="evenodd" clip-rule="evenodd" d="M34.8542 24.9481C34.7019 24.9035 34.5208 24.8699 34.3081 24.8568C34.0625 24.8417 33.8423 24.8637 33.6509 24.9048C33.6166 24.9796 33.5961 25.0619 33.5926 25.1484C33.5775 25.5079 33.8574 25.8111 34.2169 25.8262C34.5764 25.8413 34.8796 25.5614 34.8947 25.2019C34.8981 25.1127 34.8837 25.027 34.8542 24.9481Z" fill="#625D54"/>
<path d="M34.231 25.4821C34.0616 25.4751 33.9299 25.3321 33.9369 25.1628C33.9439 24.9934 34.0869 24.8617 34.2563 24.8687C34.4257 24.8757 34.5573 25.0187 34.5503 25.1881C34.5433 25.3575 34.4004 25.4891 34.231 25.4821Z" fill="#413024"/>
<path d="M34.4981 25.2389C34.4386 25.2364 34.3924 25.1862 34.3948 25.1267C34.3973 25.0672 34.4475 25.0209 34.507 25.0234C34.5665 25.0258 34.6128 25.0761 34.6103 25.1356C34.6078 25.1951 34.5576 25.2413 34.4981 25.2389Z" fill="white"/>
<path fill-rule="evenodd" clip-rule="evenodd" d="M35.4511 25.4304C35.4511 25.4304 35.0594 24.9673 34.2341 24.9358C33.4089 24.9042 32.9341 25.3858 32.7475 25.4057C32.5609 25.4256 32.1877 25.1374 32.1877 25.1374C32.1877 25.1374 32.5945 25.2836 32.8614 25.0983C32.9911 25.0085 33.4322 24.826 33.9371 24.7807C34.4701 24.7327 35.0793 24.8871 35.4511 25.4297V25.4304Z" fill="#413024"/>
<path fill-rule="evenodd" clip-rule="evenodd" d="M35.3736 28.1215C35.3736 28.1215 35.093 28.4138 35.034 28.9475C34.9743 29.4819 35.3715 29.5992 35.5424 29.7021C35.7132 29.805 34.8982 29.6548 34.868 29.0785C34.8378 28.5023 35.2542 28.2045 35.3743 28.1208L35.3736 28.1215ZM38.3152 28.0557C38.3152 28.0557 38.5677 28.3843 38.578 28.8953C38.5876 29.4064 38.2048 29.5999 38.034 29.7028C37.8632 29.8057 38.6816 29.6026 38.7447 29.0264C38.8078 28.4501 38.4422 28.1922 38.3159 28.0557H38.3152Z" fill="#AD7140"/>
<path fill-rule="evenodd" clip-rule="evenodd" d="M35.4964 29.6273C35.4964 29.6273 35.292 29.5148 35.434 29.4119C35.576 29.309 35.6288 29.44 35.8682 29.6088C36.1076 29.7775 36.2222 29.8804 36.4781 29.89C36.7347 29.8996 36.2888 29.9483 36.0953 29.7988C35.9018 29.6486 35.5739 29.5765 35.4964 29.628V29.6273ZM37.7925 29.6273C37.7925 29.6273 37.9832 29.5148 37.8289 29.4119C37.6745 29.309 37.6375 29.44 37.4186 29.6088C37.1998 29.7775 37.0983 29.8804 36.8431 29.89C36.5879 29.8996 37.0399 29.9483 37.2149 29.7988C37.3898 29.6486 37.7088 29.5765 37.7925 29.628V29.6273Z" fill="#7D4B23"/>
<path fill-rule="evenodd" clip-rule="evenodd" d="M36.3964 28.6748C36.3127 28.825 36.2963 29.0624 36.616 29.0768C36.9363 29.0912 37.0289 28.8655 36.8856 28.6693C36.7415 28.4731 36.4801 28.5252 36.3964 28.6748Z" fill="#E8AE7F"/>
<path fill-rule="evenodd" clip-rule="evenodd" d="M35.9567 24.0743C35.9567 24.0743 36.1858 24.5222 36.144 25.7536C36.1021 26.985 35.8373 27.7787 35.8373 27.7787C35.8373 27.7787 36.0555 26.714 36.0157 25.589C35.9759 24.4646 35.5869 23.9082 35.5869 23.9082C35.5869 23.9082 35.7509 23.7566 35.9567 24.0743Z" fill="#CF8F5B"/>
<path fill-rule="evenodd" clip-rule="evenodd" d="M37.9948 24.1604C37.9948 24.1604 37.6072 24.539 37.5812 25.8061C37.5551 27.0732 37.6216 26.3803 37.7938 25.5351C37.966 24.6907 38.3268 24.3113 38.355 24.2571C38.3831 24.2029 38.213 23.9429 37.9955 24.1597L37.9948 24.1604Z" fill="#CF8F5B"/>
<path fill-rule="evenodd" clip-rule="evenodd" d="M32.0732 24.1977C32.0732 24.1977 32.3744 23.7195 32.9513 23.5789C33.5282 23.4383 34.3062 23.5508 34.9751 23.7292C35.6439 23.9075 35.7859 24.0152 35.9286 23.9027C36.0706 23.7902 36.0205 23.3121 35.8703 23.2558C35.7201 23.1995 33.5749 22.8058 32.8642 23.0685C32.1535 23.3306 32.0135 24.0948 32.0135 24.0948C32.0135 24.0948 31.9655 24.3198 32.0739 24.1977H32.0732Z" fill="#413024"/>
<path fill-rule="evenodd" clip-rule="evenodd" d="M34.8007 24.7231C35.0662 24.7986 35.3564 24.4713 35.2041 24.1873C35.0518 23.9033 35.4689 23.6982 35.674 24.4521C35.8792 25.2061 35.6576 25.6053 35.5629 25.416C35.4689 25.226 35.0765 24.8637 34.8323 24.7307L34.8 24.7238L34.8007 24.7231Z" fill="#CF8F5B"/>
<path fill-rule="evenodd" clip-rule="evenodd" d="M40.6938 24.5638C40.4283 24.6392 39.3526 24.4314 39.5776 24.0547C39.8027 23.6781 38.8237 23.8434 38.6186 24.5974C38.4135 25.3513 38.8999 25.6847 38.9938 25.4947C39.046 25.3904 39.1729 25.186 39.3567 25.046C39.7711 24.7318 40.0873 24.6694 40.6938 24.5638Z" fill="#CF8F5B"/>
<path fill-rule="evenodd" clip-rule="evenodd" d="M39.2153 25.2151C39.2153 25.2151 39.5041 24.7081 40.5311 24.6848C41.5574 24.6615 42.2297 25.2384 42.2297 25.2384C42.2297 25.2384 41.6994 24.5846 40.6944 24.5641C39.6894 24.5442 39.3244 25.036 39.216 25.2151H39.2153Z" fill="#BD814F"/>
<path fill-rule="evenodd" clip-rule="evenodd" d="M32.6309 25.0106C32.6309 25.0106 33.1797 24.5544 34.138 24.6367C35.0964 24.7183 35.6528 25.5573 35.637 25.4867C35.6212 25.416 35.3928 24.7025 34.3157 24.5406C33.2387 24.3787 32.7454 24.8603 32.6315 25.0106H32.6309Z" fill="#BD814F"/>
</svg>
