<svg width="85" height="212" viewBox="0 0 85 212" fill="none" xmlns="http://www.w3.org/2000/svg">
<g clip-path="url(#clip0)">
<path fill-rule="evenodd" clip-rule="evenodd" d="M34.7151 34.314C35.6451 36.2545 37.0619 41.6227 35.2898 42.4639C33.787 43.1764 30.5934 44.7117 29.297 45.3418C28.0005 45.972 26.7753 47.5646 26.9937 50.5444C27.2121 53.5241 28.0005 56.0412 28.0005 56.0412C28.0005 56.0412 47.7178 60.9874 50.6753 58.6471C53.6329 56.3068 57.3307 41.2294 53.4774 40.6936C53.2868 40.6668 51.7932 40.4632 51.6164 40.4428C48.2156 40.0403 47.2569 40.5567 46.016 37.8166C44.7112 34.9331 45.6227 29.9434 45.6227 29.9434C45.6227 29.9434 38.7424 34.4306 34.7151 34.3158V34.314Z" fill="#E3A06B"/>
<path fill-rule="evenodd" clip-rule="evenodd" d="M48.5165 48.6528C48.5165 48.6528 47.4764 53.5277 45.9476 55.6247C44.4198 57.7225 47.9437 60.3941 48.3629 57.1923C48.7821 53.9904 48.5156 48.6519 48.5156 48.6519L48.5165 48.6528Z" fill="#CF8F5B"/>
<path fill-rule="evenodd" clip-rule="evenodd" d="M28.5678 110.943C28.5678 110.943 28.5243 113.951 29.9392 121.733C30.2067 123.205 30.5065 124.954 30.8165 126.822C32.5396 121.947 35.1733 114.787 35.9728 112.616C31.4606 111.058 28.9259 110.951 28.5669 110.943H28.5678ZM33.8999 148.365C35.1122 156.135 37.2804 170.873 37.0879 174.512C36.8945 178.151 33.7047 186.131 33.7047 186.131C33.7047 186.131 32.5738 187.435 34.1451 188.682C35.7165 189.928 37.2896 189.947 37.2896 189.947L37.6912 189.402C37.6746 189.165 37.7208 189.007 37.7208 189.007C37.7208 189.007 37.7209 189.007 38.4251 183.422C38.7369 180.945 39.1422 178.613 39.2422 176.187C39.368 173.142 39.1043 169.951 38.6139 166.144C37.7338 159.306 35.5758 152.925 33.899 148.365H33.8999ZM45.7199 151.69C45.7828 149.695 45.5876 147.28 45.1638 144.398C44.7409 141.516 42.9336 138.142 42.9336 138.142C42.9336 138.142 43.5601 133.499 44.1088 128.243C41.1837 132.8 38.3908 136.981 38.3908 136.981C38.3908 136.981 41.3789 140.363 43.2815 143.889C45.1841 147.414 45.4173 149.934 45.7199 151.69Z" fill="#BD814F"/>
<path fill-rule="evenodd" clip-rule="evenodd" d="M29.0611 54.5095C29.7394 55.0315 31.3144 55.6663 34.9095 55.4044C39.6114 55.062 43.3926 53.4481 44.6622 52.8457C46.8563 43.44 50.457 40.9433 52.082 40.2854C52.9537 39.9319 53.3063 40.2187 53.4516 40.5463C53.4367 40.5473 48.1518 41.0729 45.3692 53.2723C45.7865 54.3097 46.7341 56.4538 48.2647 58.771C50.4089 62.0163 48.8135 73.4032 48.8135 73.4032C48.8135 73.4032 50.507 77.0095 52.7992 80.6962C55.0913 84.3839 60.0968 92.1831 58.5643 101.894C57.0319 111.605 51.0557 119.701 51.0557 119.701C51.0557 119.701 44.8834 116.141 38.4149 113.533C31.9473 110.925 28.5215 110.944 28.5215 110.944C28.5215 110.944 27.6128 90.9458 27.4259 84.6736C27.1982 77.016 27.4361 74.0464 27.4657 70.8547C27.4749 69.7979 26.5384 66.5507 26.4635 66.0195C26.4635 66.0195 22.4056 61.4731 27.9052 54.194C27.9423 54.1301 27.9811 54.0644 28.0218 53.9978C29.2933 51.9249 32.039 48.7286 31.4032 44.3738C31.3671 43.8814 32.1241 43.7972 32.1426 44.1193C32.7126 48.7943 30.5176 52.1183 29.186 54.293C29.1416 54.3661 29.099 54.4383 29.0583 54.5077L29.0611 54.5095Z" fill="#D5C1B5"/>
<path fill-rule="evenodd" clip-rule="evenodd" d="M35.9737 112.618C34.9114 115.497 30.6268 127.15 29.5173 130.611C28.2477 134.571 28.1949 135.411 29.6755 139.473C31.1562 143.536 37.3979 156.692 38.6148 166.144C39.8317 175.597 39.1303 177.835 38.426 183.421C37.7218 189.007 37.7218 189.007 37.7218 189.007C37.7218 189.007 37.0796 191.207 41.4502 191.539C45.8208 191.87 46.1549 189.66 46.0864 187.519C46.0179 185.378 46.463 183.017 46.9554 180.819C47.4477 178.621 47.3903 177.379 46.2733 174.368C45.1555 171.357 45.5673 167.719 45.7255 161.523C45.8837 155.327 46.8082 149.408 43.8997 144.021C40.9912 138.633 39.8465 137.422 39.8465 137.422C39.8465 137.422 48.361 124.719 51.1816 119.528C50.2905 119.034 41.7574 114.879 38.4168 113.532C35.0761 112.185 36.7326 112.879 35.9737 112.617V112.618Z" fill="#E3A06B"/>
<path fill-rule="evenodd" clip-rule="evenodd" d="M33.7196 186.075C32.9006 186.653 31.7531 187.873 29.6182 190.282C27.4833 192.692 27.8156 193.221 28.567 193.223C29.2731 193.225 34.5728 193.566 36.1468 192.739C36.2736 192.364 36.406 191.999 36.5346 191.661C36.839 190.862 37.0861 190.318 37.2823 189.947C37.1629 189.944 35.6851 189.904 34.1452 188.682C32.6054 187.461 33.6798 186.164 33.6798 186.164L33.7196 186.076V186.075Z" fill="#BA9F8A"/>
<path fill-rule="evenodd" clip-rule="evenodd" d="M37.6885 189.306C37.4867 189.542 36.7844 189.725 36.0228 191.725C35.2612 193.726 34.4829 197.984 36.405 197.851C38.3279 197.719 46.352 195.16 46.6287 192.012C46.9044 188.864 47.6614 186.862 48.1519 184.413C48.6423 181.964 49.8657 180.453 49.9314 178.78C49.9925 177.233 48.6488 175.889 46.3436 174.561C47.3921 177.433 47.4356 178.669 46.9544 180.819C46.4621 183.016 46.017 185.378 46.0855 187.518C46.1539 189.659 45.8199 191.87 41.4493 191.538C38.0827 191.283 37.6903 189.919 37.6875 189.305L37.6885 189.306Z" fill="#D4C1B5"/>
<path fill-rule="evenodd" clip-rule="evenodd" d="M49.5473 180.449C49.4732 180.981 49.3557 181.639 49.1725 182.384C48.6283 184.593 48.8282 187.879 48.8088 188.676C48.6959 188.872 47.8038 188.849 47.8057 188.713L47.8538 185.755C47.9593 185.317 48.0611 184.874 48.1527 184.415C48.4784 182.786 49.129 181.572 49.5473 180.45V180.449Z" fill="#A68C7A"/>
<path fill-rule="evenodd" clip-rule="evenodd" d="M39.6946 178.21C39.6946 178.21 38.4129 185.85 38.2649 187.794C38.1168 189.737 42.0109 177.659 39.6946 178.21Z" fill="#E8AE7F"/>
<path fill-rule="evenodd" clip-rule="evenodd" d="M29.4248 111.355C29.4248 111.355 29.5396 114.22 30.2049 118.636C30.8703 123.052 31.3145 124.2 31.246 123.831C31.1784 123.462 30.6732 111.724 30.6732 111.724C30.6732 111.724 30.2031 111.224 29.4248 111.354V111.355Z" fill="#E3A06B"/>
<path fill-rule="evenodd" clip-rule="evenodd" d="M36.7149 113.527L38.438 114.321C38.438 114.321 35.9672 118.565 33.0485 124.607C30.1298 130.649 29.7847 131.334 29.7847 131.334C29.7847 131.334 31.7049 126.3 36.714 113.528L36.7149 113.527Z" fill="#E8AE7F"/>
<path fill-rule="evenodd" clip-rule="evenodd" d="M35.9737 112.618L35.5415 113.79C39.877 114.136 48.8486 118.294 50.3644 120.972C50.6707 120.446 50.9455 119.96 51.1806 119.528C50.6994 119.262 47.1949 117.453 44.6038 116.21C42.3977 115.151 39.9519 114.153 38.4148 113.534C35.0742 112.187 36.7306 112.88 35.9718 112.619L35.9737 112.618Z" fill="#BD814F"/>
<path fill-rule="evenodd" clip-rule="evenodd" d="M27.4981 90.0761C27.4981 90.0761 25.6399 99.4845 26.0332 104.497C26.4265 109.51 26.4329 108.168 27.0659 110.154C27.6979 112.14 27.9783 113.043 27.9783 113.043C27.9783 113.043 28.752 114.145 28.7261 113.837C28.7001 113.53 28.3115 106.046 28.3115 106.046C28.3115 106.046 28.7427 107.28 29.1989 108.141C29.6551 109.002 29.8772 109.19 30.1604 109.057C30.4436 108.924 30.1391 107.444 29.7921 106.451C29.4451 105.458 29.5931 104.088 29.1989 102.774C28.8047 101.46 28.206 100.688 28.206 100.688C27.9052 99.7408 27.6831 93.7267 27.499 90.0742L27.4981 90.0761Z" fill="#CF8F5B"/>
<path fill-rule="evenodd" clip-rule="evenodd" d="M56.9421 92.6523C57.4631 95.0111 57.6278 97.5569 57.1337 100.186C55.6271 108.202 49.1235 118.014 49.1235 118.014C49.1235 118.014 48.733 117.793 48.0325 117.42C49.3706 115.409 51.7322 111.405 54.4084 104.823C56.6071 99.415 57.03 95.3128 56.9421 92.6514V92.6523Z" fill="#B99E8A"/>
<path fill-rule="evenodd" clip-rule="evenodd" d="M49.7389 75.2622C50.4552 76.6549 51.201 78.1226 52.4651 80.1557L52.69 80.5184C51.6295 81.1273 50.4209 81.8084 47.9039 86.9952C45.3868 92.183 45.1832 95.2821 45.5339 98.235C45.8847 101.188 46.0281 101.075 45.7375 104.128C45.4469 107.182 44.6798 111.389 44.0903 112.204C43.5009 113.018 43.0937 113.007 43.0937 113.007C43.0937 113.007 42.854 114.63 42.3635 115.221L42.0684 115.089C41.9582 113.907 41.4308 108.291 41.2873 107.778C41.1272 107.204 40.7201 110.372 40.7201 110.372C40.7201 110.372 40.708 110.781 40.7228 112.819C40.7293 113.68 40.721 114.19 40.709 114.491C40.237 114.287 39.753 114.082 39.2598 113.879L38.9951 107.635C38.9951 107.635 38.7406 110.193 38.2928 111.798C38.0882 112.529 37.8023 112.951 37.5506 113.194L37.3692 113.125C37.2684 112.904 37.2175 112.662 37.2323 112.395C37.3507 110.304 37.0546 104.827 42.8716 91.0494C47.7595 79.4709 46.7416 75.6768 49.7389 75.2631V75.2622Z" fill="#A38976"/>
<path d="M31.7124 93.7749C31.7161 93.7823 32.9404 96.4243 40.0576 98.3722L39.9437 98.7091C32.6489 96.7121 31.8966 94.2098 31.8929 94.2015L31.7124 93.7749ZM31.7355 100.231C31.7485 100.239 36.1006 102.751 40.3528 101.712L40.4564 102.052C36.033 103.132 32.3139 100.857 32.3009 100.85L31.7355 100.231Z" fill="#B99E8A"/>
<path fill-rule="evenodd" clip-rule="evenodd" d="M34.5644 34.6886C34.5644 34.6886 35.5185 36.5597 36.0043 38.8038C36.0423 38.9806 36.0774 39.149 36.108 39.3091C37.1749 39.5774 38.7962 39.6089 40.5942 38.3189C42.5302 36.9308 44.2514 35.1717 45.298 34.0121C45.249 31.8634 45.6228 29.9404 45.6228 29.9404C45.6228 29.9404 38.8462 34.8024 34.5635 34.6877L34.5644 34.6886Z" fill="#CF8F5B"/>
<path fill-rule="evenodd" clip-rule="evenodd" d="M34.5644 34.6887C34.5644 34.6887 34.9484 35.4419 35.3528 36.5663C37.1027 37.885 39.1432 36.8383 41.2559 35.7436C43.3686 34.6489 45.1573 33.2626 45.3304 32.4363C45.4164 31.0065 45.6228 29.9414 45.6228 29.9414C45.6228 29.9414 38.8462 34.8034 34.5635 34.6887H34.5644Z" fill="#AD7140"/>
<path fill-rule="evenodd" clip-rule="evenodd" d="M43.9488 15.781C47.0877 18.199 47.8493 21.3092 46.9582 24.8905C46.067 28.4708 45.682 30.1921 45.2952 31.2165C44.9075 32.2418 44.6012 33.0941 42.3081 34.496C40.0159 35.898 38.0901 36.8095 36.5549 36.2404C35.0197 35.6722 33.5881 34.8283 32.8645 33.0913C32.1408 31.3543 31.5652 29.8145 31.2145 28.345C30.8638 26.8755 31.2682 26.546 31.2571 24.9784C31.246 23.4117 31.0729 23.3395 30.9637 21.8608C30.8999 20.9918 30.5205 19.1059 32.2778 16.8276C35.1539 13.0982 40.238 12.9224 43.9488 15.781Z" fill="#E3A06B"/>
<path fill-rule="evenodd" clip-rule="evenodd" d="M47.0127 23.9783C47.2366 23.8617 47.5059 23.7173 47.9917 23.8978C48.4776 24.0782 49.1078 25.4145 48.2795 27.0515C47.4504 28.6885 47.0636 29.4807 46.8729 29.7499C46.6832 30.0192 45.9513 30.2885 45.6746 29.6241C45.9698 28.558 46.5148 26.1992 46.8276 24.8907C47.1404 23.5822 46.9627 24.279 47.0127 23.9783Z" fill="#E3A06B"/>
<path fill-rule="evenodd" clip-rule="evenodd" d="M45.9365 29.8439C45.8819 29.7828 45.8624 29.755 45.8208 29.656C46.116 28.59 46.6749 26.1303 46.9711 24.8903C47.2672 23.6502 47.0488 24.5516 47.0821 24.3841C47.2524 24.3202 47.468 24.273 47.7299 24.2841C48.4646 24.3137 48.5072 25.7444 48.2425 26.3894C47.9779 27.0344 47.9779 27.0344 47.9779 27.0344C47.9779 27.0344 48.237 26.1969 48.1759 25.4686C48.1158 24.7413 47.4921 24.7681 47.3273 24.9504C47.1617 25.1327 46.8859 25.6287 47.0072 26.2237C47.1284 26.8188 46.996 27.5582 46.6879 27.7562C46.4343 27.9191 45.9578 29.2192 45.9365 29.8439Z" fill="#CF8F5B"/>
<path fill-rule="evenodd" clip-rule="evenodd" d="M30.4279 45.188C30.0411 45.3592 29.7052 45.5128 29.4572 45.6331C28.3532 46.1698 27.3102 47.5264 27.4953 50.0639C27.6101 51.6361 27.9118 53.0575 28.1246 53.9107C28.1246 53.9107 27.4426 50.9967 28.1866 48.2288C28.6641 46.4539 29.7255 45.5841 30.426 45.188H30.4279Z" fill="#E8AE7F"/>
<path fill-rule="evenodd" clip-rule="evenodd" d="M37.112 100.334C36.4818 100.99 36.0867 103.378 36.1403 105.499C36.194 107.62 36.0071 109.561 36.0071 109.561C36.0071 109.561 37.1934 110.33 37.5108 107.839C37.6469 106.767 37.3165 104.961 37.1342 103.943C36.8927 102.593 37.112 100.334 37.112 100.334Z" fill="#CF8F5B"/>
<path fill-rule="evenodd" clip-rule="evenodd" d="M53.5431 40.7007C54.5452 40.8885 55.752 41.218 56.5598 41.7806C58.1672 42.9003 59.1037 44.4171 58.3884 48.8284C57.7712 52.6373 56.7292 58.5829 55.4605 63.1053C54.7766 65.5437 54.0927 68.2023 53.7281 70.1577C53.3635 72.113 52.9156 75.3269 50.8483 80.6146C48.7819 85.9023 47.0931 87.8632 45.99 90.966C44.886 94.0688 44.8638 94.0855 44.8296 94.6333C44.7944 95.1802 44.9388 95.5078 44.75 96.1815C44.5612 96.8552 44.7722 97.3975 44.9304 98.1998C45.0887 99.0021 45.6402 100.392 45.2932 102.981C44.9471 105.571 44.8037 106.73 44.7 107.638C44.5973 108.546 44.5603 110.655 44.2401 111.693C43.9199 112.73 43.3638 112.561 43.2592 111.623C43.1555 110.686 43.199 108.757 43.1426 107.553C43.0871 106.349 43.1111 105.824 43.1111 105.824C43.1111 105.824 42.6179 109.352 42.6743 110.533C42.7308 111.715 42.6836 115.187 42.0497 115.118C41.4167 115.048 41.0716 110.533 41.0466 109.694C41.0216 108.855 41.1937 106.812 41.1937 106.812C41.1937 106.812 40.9355 106.625 40.8365 107.199C40.7375 107.773 40.3414 110.695 40.3414 110.695C40.3414 110.695 40.3683 113.68 40.2572 114.64C40.1462 115.601 39.8686 115.988 39.4605 115.956C39.0524 115.925 38.9395 115.492 38.796 113.833C38.6535 112.175 38.6933 110.809 38.7377 110.19C38.7822 109.571 38.8645 106.945 38.8645 106.945C38.8645 106.945 38.5564 106.625 38.4944 107.121C38.4324 107.618 38.2454 109.402 38.2454 109.402C38.2454 109.402 38.0511 111.56 37.78 112.399C37.5088 113.238 36.9036 113.484 36.799 112.765C36.6954 112.045 36.762 109.816 36.7972 109.359C36.8333 108.901 36.9064 105.465 36.7676 104.384C36.6288 103.304 36.5927 101.417 36.9453 100.627C38.5897 96.9385 38.7239 95.8734 39.9519 92.2745C40.6376 90.2636 42.2764 86.7934 43.2879 81.4678C44.6871 74.1045 47.3466 69.4997 47.3466 69.3128C47.3476 69.0232 48.1166 49.5622 48.2776 47.494C48.52 44.3699 51.3795 41.0903 53.5384 40.7016L53.5431 40.7007Z" fill="#E3A06B"/>
<path fill-rule="evenodd" clip-rule="evenodd" d="M28.9814 55.0149C29.6597 55.5368 31.2347 56.1716 34.8299 55.9097C39.5105 55.5692 43.2777 53.9683 44.564 53.3594C43.5331 54.0516 37.4774 56.6991 33.6065 56.5612C29.594 56.4178 28.9805 55.0149 28.9805 55.0149H28.9814Z" fill="#E0D0C4"/>
<path fill-rule="evenodd" clip-rule="evenodd" d="M30.9312 52.4551C30.9312 52.4551 31.9389 53.0353 32.5228 54.2605C32.6838 54.5983 32.781 54.8981 32.8393 55.1563C33.0179 55.1591 33.2021 55.1609 33.3927 55.16C33.1271 54.2013 32.4849 52.8946 30.9312 52.4551Z" fill="#E8AE7F"/>
<path fill-rule="evenodd" clip-rule="evenodd" d="M39.7512 52.1772C39.7512 52.1772 38.7129 52.4984 37.7302 53.2044C37.0528 53.6903 36.467 54.5194 36.144 55.0413C36.4087 55.0136 36.6697 54.9812 36.9278 54.9469C37.3739 54.1594 38.2743 52.8944 39.7512 52.1782V52.1772Z" fill="#E8AE7F"/>
<path fill-rule="evenodd" clip-rule="evenodd" d="M34.4856 55.4313C34.2478 54.6114 33.7943 53.6619 32.9448 52.793C32.9448 52.793 33.5139 53.9867 33.5241 55.4636C33.8258 55.4609 34.146 55.4498 34.4847 55.4313H34.4856Z" fill="#CF8F5B"/>
<path fill-rule="evenodd" clip-rule="evenodd" d="M42.1803 25.356C42.4459 25.5235 42.4681 25.7392 41.7685 26.1371C41.0698 26.5359 41.0865 26.3138 41.2586 26.2157C41.4317 26.1176 41.0745 25.9936 40.944 26.027C40.8135 26.0603 41.3271 24.8193 42.1794 25.356H42.1803Z" fill="#CF8F5B"/>
<path fill-rule="evenodd" clip-rule="evenodd" d="M34.3551 31.8939C34.1432 31.6394 34.1025 31.658 33.9757 31.695C33.8489 31.732 33.7046 31.3517 33.9998 31.4673C34.295 31.583 34.1811 31.7014 34.7428 31.5663C35.0649 31.4886 35.3989 31.2887 35.8163 31.1879C36.1254 31.1129 36.2596 31.2656 36.7195 31.2776C36.9434 31.2832 37.3608 31.0731 37.6245 31.1249C39.0598 31.4081 39.7298 31.3998 39.9019 31.4118C40.1212 31.4266 40.2665 31.1212 40.335 31.2239C40.4044 31.3267 40.2137 31.4359 40.0842 31.4692C39.9546 31.5025 39.8954 31.732 39.4114 32.4047C38.9987 32.9794 38.4759 33.8567 36.8389 33.8345C35.2555 33.8132 35.0343 32.736 34.3551 31.8939Z" fill="#B14F49"/>
<path fill-rule="evenodd" clip-rule="evenodd" d="M35.5239 32.0058C35.9496 32.1067 37.6227 32.0058 38.4981 31.9429C38.4981 31.9429 37.7902 32.4102 36.8629 32.4185C35.9357 32.4269 35.5229 32.0058 35.5229 32.0058H35.5239Z" fill="white"/>
<path fill-rule="evenodd" clip-rule="evenodd" d="M35.7718 32.6164C35.7718 32.6164 36.5824 32.9338 37.6541 32.6849C38.7257 32.4359 39.2022 32.0926 39.0995 32.2647C38.9977 32.4369 38.1149 33.3817 36.8286 33.3169C35.5423 33.2521 35.336 32.4174 35.7727 32.6164H35.7718Z" fill="#C25F5B"/>
<path fill-rule="evenodd" clip-rule="evenodd" d="M44.1624 28.5718C44.1624 28.5718 43.6377 30.1089 42.6438 31.2526C41.6499 32.3964 43.2999 32.0401 44.1624 28.5718Z" fill="#CF8F5B"/>
<path fill-rule="evenodd" clip-rule="evenodd" d="M31.7834 29.6694C31.7834 29.6694 32.4099 30.6374 32.8625 31.3277C33.314 32.0181 31.9907 30.754 31.7834 29.6694Z" fill="#CF8F5B"/>
<path fill-rule="evenodd" clip-rule="evenodd" d="M37.9363 23.445C37.9363 23.445 37.9159 24.1196 38.2407 24.0919C38.5656 24.0641 40.5533 23.6653 41.3445 23.6468C42.1357 23.6283 42.7233 23.8809 42.9871 24.0502C43.2508 24.2187 43.2813 24.2473 43.2813 24.2473C43.2813 24.2473 43.4331 24.2945 43.2508 24.0502C43.0685 23.8069 42.4392 23.2627 41.4759 23.1313C40.5126 22.9999 38.2815 23.2294 37.9363 23.445Z" fill="#413024"/>
<path fill-rule="evenodd" clip-rule="evenodd" d="M32.5441 25.441C32.3146 25.3864 32.3257 25.6853 32.9346 26.1156C33.5435 26.5459 33.4972 26.2479 33.3446 26.1619C33.1928 26.0758 33.5398 26.0009 33.6555 26.0295C33.7702 26.0592 33.041 25.3892 32.5441 25.4401V25.441Z" fill="#CF8F5B"/>
<path fill-rule="evenodd" clip-rule="evenodd" d="M39.2642 25.7842C39.2642 25.7842 39.1152 25.848 39.0865 25.7555C39.0588 25.663 39.2041 25.5713 39.2041 25.5713C39.2041 25.5713 39.503 25.0781 40.4755 25.0105C41.4481 24.943 42.0228 25.4538 42.0228 25.4538C42.0228 25.4538 41.4685 26.1016 40.5496 26.1145C39.6307 26.1275 39.441 25.8601 39.2642 25.7842Z" fill="white"/>
<path fill-rule="evenodd" clip-rule="evenodd" d="M39.2642 25.7844C39.2642 25.7844 39.1152 25.8483 39.0865 25.7557C39.0588 25.6632 39.2041 25.5716 39.2041 25.5716C39.2041 25.5716 39.2142 25.5559 39.2355 25.529C39.2624 25.6003 39.3207 25.7233 39.4234 25.7807C39.5733 25.8649 39.8963 26.0879 40.6597 26.05C41.2853 26.0185 41.81 25.5762 41.9784 25.418C42.008 25.4402 42.0237 25.4541 42.0237 25.4541C42.0237 25.4541 41.4694 26.1018 40.5505 26.1148C39.6316 26.1277 39.4419 25.8603 39.2651 25.7844H39.2642Z" fill="#EDBA9D"/>
<path fill-rule="evenodd" clip-rule="evenodd" d="M39.204 25.5713C39.204 25.5713 39.503 25.0781 40.4755 25.0105C41.4481 24.943 42.0228 25.4538 42.0228 25.4538C42.0228 25.4538 41.9867 25.4955 41.9182 25.5584C40.5505 24.9226 39.2031 25.5713 39.2031 25.5713H39.204Z" fill="#ADA89F"/>
<path fill-rule="evenodd" clip-rule="evenodd" d="M40.1055 25.1061C40.2582 25.0599 40.4386 25.0247 40.6514 25.0099C40.8967 24.9932 41.1169 25.0127 41.3085 25.0515C41.3427 25.1256 41.3649 25.2079 41.3686 25.2949C41.3862 25.654 41.1095 25.9603 40.7505 25.9779C40.3914 25.9954 40.0851 25.7187 40.0675 25.3597C40.0629 25.2709 40.0768 25.1848 40.1055 25.1052V25.1061Z" fill="#625D54"/>
<path d="M40.7338 25.6351C40.9032 25.6266 41.0336 25.4825 41.0251 25.3131C41.0167 25.1438 40.8725 25.0133 40.7031 25.0218C40.5338 25.0302 40.4033 25.1744 40.4118 25.3438C40.4203 25.5131 40.5644 25.6436 40.7338 25.6351Z" fill="#413024"/>
<path d="M40.9764 25.4039C41.0359 25.4009 41.0817 25.3503 41.0787 25.2908C41.0758 25.2313 41.0251 25.1855 40.9656 25.1885C40.9061 25.1914 40.8603 25.2421 40.8633 25.3016C40.8663 25.3611 40.9169 25.4069 40.9764 25.4039Z" fill="white"/>
<path fill-rule="evenodd" clip-rule="evenodd" d="M39.1792 25.5892C39.1792 25.5892 39.6012 25.1219 40.4951 25.0821C41.39 25.0423 41.9063 25.5189 42.109 25.5365C42.3116 25.554 42.7651 25.3218 42.7651 25.3218C42.7651 25.3218 42.27 25.4624 41.9794 25.2801C41.8388 25.1913 41.3659 24.9507 40.819 24.9109C40.2406 24.8683 39.5799 25.0432 39.1801 25.5892H39.1792Z" fill="#413024"/>
<path fill-rule="evenodd" clip-rule="evenodd" d="M35.3462 25.7676C35.3462 25.7676 35.4841 25.8296 35.51 25.7371C35.5359 25.6445 35.4008 25.5538 35.4008 25.5538C35.4008 25.5538 35.1223 25.0634 34.2247 25.0051C33.327 24.9468 32.7996 25.4641 32.7996 25.4641C32.7996 25.4641 33.3141 26.1063 34.1617 26.11C35.0103 26.1146 35.1834 25.8444 35.3462 25.7676Z" fill="white"/>
<path fill-rule="evenodd" clip-rule="evenodd" d="M35.3462 25.7678C35.3462 25.7678 35.4841 25.8298 35.51 25.7373C35.5359 25.6447 35.4008 25.554 35.4008 25.554C35.4008 25.554 35.3916 25.5383 35.3721 25.5115C35.3481 25.5827 35.2944 25.7067 35.2 25.765C35.0621 25.8502 34.7651 26.0769 34.0609 26.0463C33.4834 26.0213 32.9976 25.5836 32.8412 25.4272C32.8134 25.4504 32.7996 25.4643 32.7996 25.4643C32.7996 25.4643 33.3141 26.1065 34.1617 26.1102C35.0103 26.1148 35.1834 25.8446 35.3462 25.7678Z" fill="#EDBA9D"/>
<path fill-rule="evenodd" clip-rule="evenodd" d="M35.3999 25.5548C35.3999 25.5548 35.1213 25.0643 34.2237 25.006C33.3261 24.9477 32.7986 25.465 32.7986 25.465C32.7986 25.465 32.8319 25.5067 32.8948 25.5687C34.1543 24.92 35.3999 25.5557 35.3999 25.5557V25.5548Z" fill="#ADA89F"/>
<path fill-rule="evenodd" clip-rule="evenodd" d="M34.8271 25.0895C34.6744 25.0451 34.4939 25.0109 34.2811 24.9988C34.0358 24.984 33.8156 25.0053 33.624 25.047C33.5898 25.1219 33.5694 25.2034 33.5657 25.2903C33.5509 25.6494 33.8304 25.9529 34.1895 25.9677C34.5485 25.9825 34.852 25.7031 34.8668 25.344C34.8705 25.2552 34.8557 25.1691 34.8261 25.0895H34.8271Z" fill="#625D54"/>
<path d="M34.2033 25.6239C34.0339 25.6169 33.9022 25.4738 33.9092 25.3044C33.9162 25.135 34.0592 25.0033 34.2286 25.0103C34.398 25.0173 34.5297 25.1603 34.5227 25.3297C34.5157 25.4992 34.3727 25.6309 34.2033 25.6239Z" fill="#413024"/>
<path d="M34.4705 25.381C34.411 25.3785 34.3647 25.3283 34.3672 25.2688C34.3696 25.2093 34.4199 25.163 34.4794 25.1655C34.5389 25.1679 34.5852 25.2182 34.5827 25.2777C34.5803 25.3372 34.53 25.3835 34.4705 25.381Z" fill="white"/>
<path fill-rule="evenodd" clip-rule="evenodd" d="M35.4238 25.5725C35.4238 25.5725 35.0324 25.1089 34.2069 25.0783C33.3815 25.0469 32.9077 25.5281 32.7207 25.5484C32.5338 25.5688 32.1609 25.2801 32.1609 25.2801C32.1609 25.2801 32.5671 25.4263 32.8346 25.2412C32.9641 25.1515 33.4055 24.9692 33.9099 24.9238C34.4429 24.8757 35.0518 25.0302 35.4238 25.5734V25.5725Z" fill="#413024"/>
<path fill-rule="evenodd" clip-rule="evenodd" d="M35.3463 28.2634C35.3463 28.2634 35.0659 28.5558 35.0067 29.0897C34.9475 29.6237 35.3445 29.7412 35.5147 29.8439C35.685 29.9466 34.8707 29.7967 34.8401 29.2202C34.8105 28.6437 35.226 28.3457 35.3463 28.2624V28.2634ZM38.2881 28.1967C38.2881 28.1967 38.5408 28.5252 38.5509 29.0361C38.5611 29.5469 38.1771 29.7403 38.0068 29.843C37.8356 29.9457 38.6546 29.7431 38.7175 29.1665C38.7804 28.59 38.4149 28.3318 38.2891 28.1958L38.2881 28.1967Z" fill="#AD7140"/>
<path fill-rule="evenodd" clip-rule="evenodd" d="M35.4683 29.769C35.4683 29.769 35.2638 29.657 35.4054 29.5534C35.547 29.4497 35.6007 29.5811 35.8394 29.7505C36.0791 29.9189 36.1929 30.0225 36.4492 30.0318C36.7056 30.041 36.2595 30.0901 36.0661 29.9402C35.8727 29.7903 35.5451 29.7171 35.4674 29.769H35.4683ZM37.7642 29.769C37.7642 29.769 37.9548 29.657 37.8003 29.5534C37.6458 29.4497 37.6088 29.5811 37.3904 29.7505C37.172 29.9189 37.0702 30.0225 36.8148 30.0318C36.5594 30.041 37.0119 30.0901 37.1868 29.9402C37.3617 29.7903 37.6809 29.7171 37.7642 29.769Z" fill="#7D4B23"/>
<path fill-rule="evenodd" clip-rule="evenodd" d="M36.3687 28.817C36.2845 28.967 36.2679 29.2048 36.589 29.2187C36.9092 29.2335 37.0026 29.0077 36.8583 28.8115C36.7139 28.6153 36.4529 28.6671 36.3687 28.817Z" fill="#E8AE7F"/>
<path fill-rule="evenodd" clip-rule="evenodd" d="M35.9293 24.2161C35.9293 24.2161 36.1588 24.664 36.1162 25.8956C36.0746 27.1264 35.8099 27.9204 35.8099 27.9204C35.8099 27.9204 36.0283 26.8553 35.9885 25.7309C35.9487 24.6066 35.5601 24.0504 35.5601 24.0504C35.5601 24.0504 35.7248 23.8987 35.9293 24.2161Z" fill="#CF8F5B"/>
<path fill-rule="evenodd" clip-rule="evenodd" d="M37.9669 24.3031C37.9669 24.3031 37.5792 24.6816 37.5533 25.9494C37.5273 27.2162 37.594 26.5231 37.7661 25.6782C37.9382 24.8333 38.2991 24.4548 38.3269 24.4003C38.3546 24.3466 38.1853 24.0865 37.9669 24.3031Z" fill="#CF8F5B"/>
<path fill-rule="evenodd" clip-rule="evenodd" d="M32.0454 24.34C32.0454 24.34 32.3461 23.8616 32.9236 23.721C33.501 23.5803 34.2783 23.6932 34.9474 23.8709C35.6164 24.0485 35.758 24.1568 35.9005 24.0439C36.0431 23.9319 35.9922 23.4535 35.8422 23.3971C35.6914 23.3406 33.5463 22.9473 32.8356 23.2092C32.1249 23.472 31.9843 24.2355 31.9843 24.2355C31.9843 24.2355 31.9362 24.4603 32.0444 24.3382L32.0454 24.34Z" fill="#413024"/>
<path fill-rule="evenodd" clip-rule="evenodd" d="M34.7734 24.8644C35.039 24.9403 35.3296 24.6127 35.1769 24.3286C35.0242 24.0445 35.4416 23.8391 35.647 24.5933C35.8524 25.3475 35.6304 25.7463 35.536 25.5566C35.4416 25.3669 35.0501 25.0042 34.8058 24.8709L34.7734 24.8635V24.8644Z" fill="#CF8F5B"/>
<path fill-rule="evenodd" clip-rule="evenodd" d="M40.6653 24.7055C40.3997 24.7813 39.3244 24.5731 39.5493 24.1965C39.7741 23.8199 38.7951 23.9846 38.5896 24.7388C38.3842 25.493 38.871 25.8261 38.9653 25.6364C39.0172 25.5318 39.1439 25.3273 39.3281 25.1876C39.7418 24.8739 40.0592 24.811 40.6653 24.7045V24.7055Z" fill="#CF8F5B"/>
<path fill-rule="evenodd" clip-rule="evenodd" d="M39.1875 25.3567C39.1875 25.3567 39.4762 24.8496 40.5034 24.8265C41.5297 24.8033 42.2015 25.3799 42.2015 25.3799C42.2015 25.3799 41.6712 24.7256 40.6663 24.7062C39.6613 24.6858 39.2967 25.1781 39.1875 25.3567Z" fill="#BD814F"/>
<path fill-rule="evenodd" clip-rule="evenodd" d="M32.6033 25.1523C32.6033 25.1523 33.152 24.6961 34.1107 24.7785C35.0685 24.8599 35.6256 25.6992 35.6099 25.628C35.5941 25.5567 35.3656 24.8442 34.2884 24.6822C33.2113 24.5203 32.718 25.0024 32.6042 25.1523H32.6033Z" fill="#BD814F"/>
</g>
<defs>
<clipPath id="clip0">
<rect width="84.6667" height="211.667" fill="white"/>
</clipPath>
</defs>
</svg>
