<svg width="85" height="212" viewBox="0 0 85 212" fill="none" xmlns="http://www.w3.org/2000/svg">
<g clip-path="url(#clip0)">
<path fill-rule="evenodd" clip-rule="evenodd" d="M36.1197 34.9263C36.1197 34.9263 36.928 36.7955 37.3321 39.0309C37.7363 41.2662 37.3069 42.4029 35.7409 43.148C34.1875 43.8931 31.9773 44.9287 30.8154 45.5602C29.6535 46.1917 27.9486 47.4925 28.138 50.473C28.3275 53.4535 29.6535 56.2446 29.6535 56.2446C29.6535 56.2446 47.2967 61.1826 49.9362 58.8462C52.5757 56.5098 55.8846 41.4557 52.4368 40.9253C52.26 40.9 50.9339 40.6979 50.7697 40.6727C49.8983 40.5716 46.8673 40.7863 45.7559 38.0458C44.594 35.1663 45.4023 30.1777 45.4023 30.1777C45.4023 30.1777 39.7065 35.0274 36.0945 34.9137L36.1197 34.9263Z" fill="#E3A06B"/>
<path fill-rule="evenodd" clip-rule="evenodd" d="M48.0165 48.8691C48.0165 48.8691 47.082 53.7314 45.718 55.8279C44.354 57.9243 47.4987 60.5891 47.8776 57.3939C48.2565 54.1987 48.0165 48.8691 48.0165 48.8691Z" fill="#BD814F"/>
<path fill-rule="evenodd" clip-rule="evenodd" d="M29.843 111.068C29.843 111.068 29.6283 113.96 30.3861 118.583C31.1438 123.205 31.9142 125.062 32.1794 126.931C33.7202 122.068 36.0819 114.92 36.7891 112.748C32.7477 111.195 30.1587 111.081 29.843 111.081V111.068ZM35.7914 152.467C36.8775 160.222 38.393 171.739 38.2541 174.594C38.0394 179.001 34.9452 186.465 34.9452 186.465C34.9452 186.465 33.7454 187.45 35.1599 188.688C36.5618 189.938 37.9763 189.951 37.9763 189.951L38.3299 189.408C38.3172 189.168 38.3551 189.016 38.3551 189.016C38.3551 189.016 38.3551 189.016 38.9866 183.434C39.6181 177.852 40.2495 175.617 39.1508 166.183C38.6582 161.964 37.2816 157.014 35.7788 152.455L35.7914 152.467ZM45.0613 150.282C45.1118 148.287 45.3265 146.822 44.834 143.816C44.3414 140.81 43.0911 140.065 42.3334 137.287C41.5882 134.508 45.2507 129.457 45.1749 125.213C44.8718 124.316 37.4837 134.23 38.4941 137.009C39.5044 139.787 41.6261 140.457 43.3311 143.968C45.036 147.491 44.7834 148.527 45.0613 150.282Z" fill="#BD814F"/>
<path fill-rule="evenodd" clip-rule="evenodd" d="M30.6134 54.7162C31.2196 55.234 32.6341 55.8654 35.8419 55.6129C40.0474 55.2719 43.4321 53.6553 44.5687 53.0617C46.5263 43.6656 49.7467 41.1776 51.2117 40.5209C51.9947 40.1672 52.3105 40.4577 52.4368 40.7861C52.4241 40.7861 47.7008 41.3165 45.2128 53.4911C45.5917 54.5267 46.4379 56.6737 47.8018 58.9849C49.7215 62.2306 48.2944 73.597 48.2944 73.597C48.2944 73.597 49.8099 77.1963 51.8558 80.8841C53.9018 84.5718 58.221 92.1367 56.8191 100.51C55.4047 108.883 49.3173 119.138 49.3173 119.138C49.3173 119.138 44.7708 116.271 38.9866 113.67C33.2024 111.068 29.8556 111.081 29.8556 111.081C29.8556 111.081 29.7167 109.098 29.6788 106.383C29.5651 99.9416 29.5904 88.6132 30.4618 84.3192C31.1564 80.8841 31.308 79.558 31.3332 77.0826C31.3838 73.8495 30.3229 74.6704 29.9314 71.2858C29.401 66.7393 29.161 66.0952 29.161 66.0952C29.161 66.0952 25.0817 61.637 30.0072 54.3752C30.0451 54.312 30.0703 54.2489 30.1082 54.1731C31.2448 52.1019 33.2782 48.9572 32.7098 44.6128C32.6719 44.1202 33.3539 44.0318 33.3666 44.3602C33.8717 49.033 31.9142 52.3419 30.727 54.5141C30.6891 54.5899 30.6513 54.653 30.6134 54.7288V54.7162Z" fill="#D5C1B5"/>
<path fill-rule="evenodd" clip-rule="evenodd" d="M36.8017 112.748C33.8212 116.107 32.0152 127.259 31.0301 130.72C29.8935 134.672 29.843 135.519 31.1691 139.573C31.7753 141.429 32.9877 145.496 34.5411 149.929C36.385 155.182 38.5824 161.08 39.1634 166.195C40.2495 175.629 39.6307 177.865 38.9992 183.447C38.3677 189.029 38.3677 189.029 38.3677 189.029C38.3677 189.029 37.7994 191.226 41.7019 191.555C45.617 191.883 45.9074 189.673 45.8443 187.539C45.7811 185.404 46.1853 183.043 46.6273 180.845C47.0693 178.648 47.0188 177.41 46.0211 174.404C45.0234 171.398 45.2633 169.592 45.7559 162.103C46.2484 154.614 47.5492 149.487 44.9476 144.46C42.346 139.434 39.959 139.585 38.974 137.072C37.9762 134.559 46.7536 126.956 49.191 119.037C48.3954 118.545 44.2025 115.994 38.9992 113.657C38.2162 113.304 37.4963 113.001 36.8143 112.748H36.8017Z" fill="#E3A06B"/>
<path fill-rule="evenodd" clip-rule="evenodd" d="M34.9831 186.377C34.2506 186.958 32.7098 188.271 31.1059 190.292C28.8832 193.083 29.4894 193.222 30.1713 193.235C30.8028 193.235 35.5388 193.576 36.9533 192.755C37.0669 192.376 37.1806 192.01 37.2943 191.681C37.5721 190.886 37.7868 190.343 37.9636 189.964C37.8626 189.964 36.5112 189.901 35.1599 188.701C33.7581 187.45 34.9452 186.478 34.9452 186.478L34.9831 186.39V186.377Z" fill="#BA9F8A"/>
<path fill-rule="evenodd" clip-rule="evenodd" d="M38.3299 189.319C38.153 189.559 37.8121 190.153 37.2943 191.668C36.4481 194.144 35.463 197.983 37.1806 197.844C38.8982 197.718 46.0842 195.154 46.3242 192.009C46.5768 188.865 47.2461 186.869 47.6882 184.419C48.1302 181.969 49.2163 180.466 49.2794 178.799C49.33 177.258 48.1302 175.907 46.0716 174.581C47.0062 177.448 47.0441 178.686 46.6147 180.833C46.1726 183.03 45.7811 185.379 45.8317 187.526C45.8948 189.66 45.5917 191.871 41.6892 191.542C38.6835 191.29 38.3299 189.926 38.3299 189.307V189.319Z" fill="#D4C1B5"/>
<path fill-rule="evenodd" clip-rule="evenodd" d="M48.9385 180.478C48.8753 181.009 48.7617 181.666 48.5975 182.411C48.1049 184.621 48.2944 187.892 48.2691 188.687C48.1681 188.877 47.3724 188.864 47.3724 188.725L47.4103 185.77C47.4987 185.328 47.5998 184.886 47.6755 184.431C47.966 182.802 48.547 181.59 48.9258 180.466L48.9385 180.478Z" fill="#A68C7A"/>
<path fill-rule="evenodd" clip-rule="evenodd" d="M40.1232 178.243C40.1232 178.243 38.974 185.871 38.8477 187.816C38.7214 189.761 42.1944 177.7 40.1232 178.243Z" fill="#E8AE7F"/>
<path fill-rule="evenodd" clip-rule="evenodd" d="M30.9417 111.485C30.9417 111.485 31.0428 114.352 31.6364 118.76C32.2299 123.167 32.6341 124.317 32.5709 123.95C32.5078 123.584 32.0531 111.864 32.0531 111.864C32.0531 111.864 31.6364 111.359 30.9417 111.498V111.485Z" fill="#E3A06B"/>
<path fill-rule="evenodd" clip-rule="evenodd" d="M37.3574 113.96L39.0119 114.44C39.0119 114.44 36.8017 118.683 34.1875 124.707C31.5732 130.744 31.2701 131.426 31.2701 131.426C33.5813 125.49 34.4274 117.496 37.3574 113.96Z" fill="#E8AE7F"/>
<path fill-rule="evenodd" clip-rule="evenodd" d="M36.8017 112.748L36.0566 113.796C40.3505 114.074 47.3219 117.812 48.6732 120.49C48.8879 119.947 49.0395 119.479 49.1784 119.05C48.3828 118.558 44.1898 116.006 38.9866 113.67C38.2036 113.316 37.4837 113.013 36.8017 112.761V112.748Z" fill="#875B43"/>
<path fill-rule="evenodd" clip-rule="evenodd" d="M29.9188 90.0654C29.9188 90.0654 27.4055 99.6257 27.6834 104.64C27.9612 109.641 27.9865 108.302 28.5169 110.285C29.0473 112.268 29.2873 113.164 29.2873 113.164C29.2873 113.164 29.9566 114.263 29.944 113.96C29.9314 113.657 29.6914 106.18 29.6914 106.18C29.6914 106.18 30.0577 107.418 30.4492 108.277C30.8407 109.136 31.0428 109.325 31.2954 109.186C31.5479 109.06 31.2953 107.582 31.0049 106.584C30.7144 105.587 30.866 104.223 30.525 102.909C30.1966 101.596 29.6662 100.826 29.6662 100.826C29.7293 96.62 29.7293 94.7129 29.9061 90.0527L29.9188 90.0654Z" fill="#CF8F5B"/>
<path fill-rule="evenodd" clip-rule="evenodd" d="M55.5562 92.8066C56.0235 95.1557 56.175 97.7068 55.733 100.334C54.3817 108.341 48.5722 118.141 48.5722 118.141C48.5722 118.141 48.2186 117.926 47.5998 117.547C48.7995 115.539 50.9086 111.536 53.3082 104.969C55.2784 99.5633 55.6572 95.4714 55.5688 92.8193L55.5562 92.8066Z" fill="#B99E8A"/>
<path fill-rule="evenodd" clip-rule="evenodd" d="M49.1153 75.4414C49.7594 76.8306 50.3024 78.0809 51.4391 80.1142L51.578 80.3542C50.6308 80.9604 49.7341 81.9707 47.4735 87.1488C45.2255 92.3268 45.036 95.4209 45.3518 98.3762C45.6675 101.319 45.7938 101.218 45.5286 104.261C45.2633 107.305 44.5814 111.511 44.0509 112.332C43.5205 113.14 43.1543 113.14 43.1543 113.14C43.1543 113.14 42.9396 114.756 42.4975 115.35L42.2323 115.224C42.1313 114.049 41.664 108.442 41.5377 107.924C41.3988 107.356 41.0325 110.513 41.0325 110.513C41.0325 110.513 41.0199 110.917 41.0325 112.95C41.0325 113.809 41.0325 114.314 41.0199 114.617C40.6031 114.415 40.1611 114.213 39.7191 114.011L39.4791 107.772C39.4791 107.772 39.2518 110.323 38.8477 111.927C38.6709 112.66 38.4056 113.077 38.1783 113.317L38.0141 113.253C37.9257 113.039 37.8752 112.786 37.8878 112.521C37.9889 110.437 37.7237 104.969 42.9269 91.2027C47.2967 79.647 46.3873 75.8582 49.0648 75.4414H49.1153Z" fill="#A38976"/>
<path d="M32.9877 93.9307C32.9877 93.9433 34.0864 96.5702 40.4516 98.5151L40.3505 98.8561C33.8212 96.8606 33.1519 94.3601 33.1519 94.3601L32.9877 93.9307V93.9307ZM33.0129 100.372C33.0256 100.384 36.9154 102.885 40.7168 101.849L40.8052 102.19C36.8522 103.264 33.5181 101.003 33.5055 100.99L33.0003 100.372H33.0129Z" fill="#B99E8A"/>
<path fill-rule="evenodd" clip-rule="evenodd" d="M36.1198 34.9263C36.1198 34.9263 36.928 36.7955 37.3322 39.0309C37.37 39.2077 37.3953 39.3719 37.4206 39.536C38.3172 39.8012 39.6812 39.8391 41.1967 38.5509C42.8259 37.1617 44.2783 35.4063 45.1497 34.2444C45.1118 32.0974 45.4275 30.1777 45.4275 30.1777C45.4275 30.1777 39.7317 35.0274 36.1198 34.9137V34.9263Z" fill="#CF8F5B"/>
<path fill-rule="evenodd" clip-rule="evenodd" d="M36.1197 34.9263C36.1197 34.9263 36.4481 35.6841 36.7891 36.7955C38.8224 37.5659 40.1232 36.7197 42.3081 35.3684C43.6721 34.5222 44.5814 33.5245 45.1749 32.6657C45.2507 31.2386 45.4149 30.1777 45.4149 30.1777C45.4149 30.1777 39.7191 35.0274 36.1071 34.9137L36.1197 34.9263Z" fill="#AD7140"/>
<path fill-rule="evenodd" clip-rule="evenodd" d="M31.1312 45.75C30.7902 45.9268 30.4871 46.0784 30.2597 46.192C29.2747 46.7225 28.3401 48.0864 28.5043 50.6123C28.6053 52.1783 28.8832 53.6054 29.0726 54.4516C29.0726 54.4516 28.4664 51.5468 29.1231 48.781C29.5525 47.0129 30.4997 46.1415 31.1312 45.75V45.75Z" fill="#E8AE7F"/>
<path fill-rule="evenodd" clip-rule="evenodd" d="M37.8121 100.473C37.2437 101.129 36.8901 103.516 36.9406 105.625C36.9911 107.747 36.827 109.679 36.827 109.679C36.827 109.679 37.8878 110.45 38.1657 107.962C38.292 106.888 37.9889 105.082 37.8247 104.072C37.61 102.721 37.7994 100.473 37.7994 100.473H37.8121Z" fill="#CF8F5B"/>
<path fill-rule="evenodd" clip-rule="evenodd" d="M52.5125 40.9375C53.4092 41.1269 54.4827 41.4553 55.2152 42.011C56.6549 43.135 57.8673 44.2969 57.0717 48.3383C56.2761 52.367 55.7077 50.6494 55.6446 55.1581C55.5941 59.4268 55.2026 60.6644 54.4196 63.1398C53.6365 65.6151 52.361 68.5704 52.0326 70.5279C51.7043 72.4854 51.6537 75.4407 49.8099 80.7197C47.966 85.9988 46.741 88.0447 45.7559 91.1389C44.7708 94.2331 44.7455 94.2583 44.7203 94.8014C44.695 95.3444 44.8213 95.6728 44.6445 96.3422C44.4803 97.0115 44.6697 97.5546 44.8087 98.3628C44.9476 99.1585 45.4401 100.548 45.137 103.137C44.8213 105.726 44.695 106.875 44.6066 107.784C44.5182 108.694 44.4803 110.803 44.1898 111.838C43.8994 112.874 43.4068 112.71 43.3184 111.775C43.23 110.841 43.2679 108.908 43.2174 107.709C43.1669 106.509 43.1921 105.978 43.1921 105.978C43.1921 105.978 42.7501 109.502 42.8006 110.676C42.8511 111.851 42.8132 115.324 42.2449 115.248C41.6766 115.185 41.3735 110.676 41.3483 109.83C41.323 108.997 41.4745 106.951 41.4745 106.951C41.4745 106.951 41.2472 106.761 41.1588 107.342C41.0704 107.911 40.7168 110.828 40.7168 110.828C40.7168 110.828 40.742 113.808 40.641 114.768C40.54 115.728 40.2874 116.12 39.9338 116.082C39.5675 116.044 39.4665 115.614 39.3402 113.96C39.2139 112.306 39.2518 110.942 39.2897 110.323C39.3276 109.704 39.4033 107.077 39.4033 107.077C39.4033 107.077 39.1255 106.761 39.075 107.254C39.0245 107.746 38.8477 109.527 38.8477 109.527C38.8477 109.527 38.6708 111.687 38.4309 112.52C38.1909 113.354 37.6479 113.606 37.5595 112.887C37.4711 112.167 37.5216 109.944 37.5595 109.489C37.5974 109.035 37.6605 105.599 37.5342 104.526C37.4079 103.452 37.3827 101.558 37.6984 100.775C39.1634 97.0873 39.2897 96.0264 40.3884 92.4397C41.0073 90.4317 42.3586 85.5315 42.8006 79.6462C43.3437 72.2707 46.5263 69.4797 46.5641 69.2902C47.1198 66.8654 46.2989 64.289 46.5136 58.6311C46.6904 53.9962 48.6101 53.2005 47.8397 47.7194C48.0544 44.6 50.6181 41.329 52.5504 40.9375H52.5125Z" fill="#E3A06B"/>
<path fill-rule="evenodd" clip-rule="evenodd" d="M30.5376 55.2218C31.1438 55.7396 32.5583 56.3711 35.7661 56.1185C39.959 55.7775 43.3184 54.1736 44.4803 53.5674C43.5584 54.262 38.1404 56.9015 34.68 56.7626C31.0933 56.6237 30.5376 55.2218 30.5376 55.2218Z" fill="#E0D0C4"/>
<path fill-rule="evenodd" clip-rule="evenodd" d="M32.2931 52.6709C32.2931 52.6709 33.1897 53.2518 33.7202 54.4769C33.8591 54.8179 33.9475 55.1083 33.998 55.3736C34.1622 55.3736 34.3264 55.3736 34.4906 55.3736C34.2506 54.4137 33.6823 53.1129 32.2931 52.6709Z" fill="#E8AE7F"/>
<path fill-rule="evenodd" clip-rule="evenodd" d="M40.1737 52.3926C40.1737 52.3926 39.2392 52.7083 38.3678 53.4156C37.7616 53.8955 37.2438 54.729 36.9533 55.2468C37.1932 55.2215 37.4206 55.1836 37.6605 55.1584C38.0647 54.3754 38.8603 53.1124 40.1864 52.3926H40.1737Z" fill="#E8AE7F"/>
<path fill-rule="evenodd" clip-rule="evenodd" d="M35.463 55.6385C35.2483 54.8176 34.8442 53.8704 34.0864 52.999C34.0864 52.999 34.5916 54.1862 34.6042 55.6638C34.8694 55.6638 35.1599 55.6512 35.463 55.6259V55.6385Z" fill="#BD814F"/>
<path fill-rule="evenodd" clip-rule="evenodd" d="M44.4298 15.7811C47.4482 18.1933 48.1807 21.3127 47.3219 24.8868C46.4631 28.4735 46.1348 29.7112 45.6549 31.2267C45.1749 32.7422 45.0865 33.0327 42.8764 34.4346C40.6789 35.8364 38.7972 36.8467 37.3195 36.2405C35.8419 35.6343 34.5411 34.8387 33.8465 33.0959C33.1519 31.353 32.8488 29.8754 32.3057 28.3978C31.7627 26.9201 32.2426 26.5413 32.2299 24.9752C32.2173 23.4092 32.0531 23.3334 31.9521 21.8558C31.8889 20.9844 31.5227 19.1026 33.215 16.8167C35.9808 13.0911 40.8684 12.9143 44.4298 15.7685V15.7811Z" fill="#E3A06B"/>
<path fill-rule="evenodd" clip-rule="evenodd" d="M47.5114 23.9775C47.7387 23.8638 48.0292 23.7754 48.3449 23.9017C49.0016 24.1416 49.4563 25.4172 48.6354 27.059C47.8018 28.7008 47.423 29.4838 47.2335 29.7617C47.0441 30.0269 46.4252 30.2795 46.1474 29.6227C46.4379 28.5619 46.7789 27.2232 47.3346 24.912C47.4103 24.6089 47.4735 24.3058 47.524 24.0027L47.5114 23.9775Z" fill="#E3A06B"/>
<path fill-rule="evenodd" clip-rule="evenodd" d="M46.2863 29.8498C46.2358 29.7867 46.1853 29.7109 46.1348 29.6099C46.4252 28.549 46.7662 27.2103 47.3219 24.8992C47.3598 24.735 47.3977 24.5582 47.4356 24.394C47.5998 24.3309 47.8271 24.2803 48.0797 24.293C48.8122 24.3182 48.8627 25.758 48.5975 26.4021C48.3323 27.0461 48.3323 27.0461 48.3323 27.0461C48.3323 27.0461 48.5975 26.2126 48.5343 25.4801C48.4712 24.7476 47.8523 24.7855 47.6882 24.9623C47.524 25.1391 47.2461 25.6443 47.3724 26.2379C47.4987 26.8315 47.3598 27.5766 47.0567 27.766C46.8041 27.9302 46.3242 29.231 46.2989 29.8498H46.2863Z" fill="#CF8F5B"/>
<path fill-rule="evenodd" clip-rule="evenodd" d="M42.8133 25.2658C43.0785 25.43 43.1037 25.6447 42.3965 26.0488C41.7019 26.453 41.7145 26.2256 41.8913 26.1246C42.0681 26.0236 41.7019 25.8973 41.5756 25.9352C41.4493 25.9731 41.9545 24.7228 42.8133 25.2658Z" fill="#CF8F5B"/>
<path fill-rule="evenodd" clip-rule="evenodd" d="M34.9831 31.8078C34.7684 31.5552 34.7305 31.5678 34.6042 31.6057C34.4779 31.6436 34.339 31.2647 34.6295 31.3784C34.92 31.4921 34.8063 31.6184 35.3746 31.4794C35.703 31.4037 36.0313 31.2016 36.4481 31.1006C36.7512 31.0248 36.8901 31.1763 37.3574 31.189C37.5847 31.189 38.0015 30.9869 38.2667 31.0374C39.7065 31.3152 40.3758 31.3152 40.54 31.3279C40.7547 31.3405 40.9062 31.0374 40.9694 31.1384C41.0325 31.2395 40.8431 31.3531 40.7168 31.3784C40.5905 31.4163 40.5274 31.6436 40.0475 32.313C39.6307 32.8813 39.1129 33.7653 37.4711 33.7401C35.8924 33.7148 35.6651 32.6413 34.9831 31.7952V31.8078Z" fill="#B14F49"/>
<path fill-rule="evenodd" clip-rule="evenodd" d="M36.1577 31.9089C36.587 32.0099 38.2541 31.9088 39.1382 31.8457C39.1382 31.8457 38.4309 32.313 37.509 32.3256C36.5871 32.3382 36.1703 31.9089 36.1703 31.9089H36.1577Z" fill="white"/>
<path fill-rule="evenodd" clip-rule="evenodd" d="M36.4102 32.5275C36.4102 32.5275 37.2185 32.8432 38.292 32.5906C39.3655 32.338 39.8454 31.9971 39.7317 32.1739C39.6307 32.3507 38.7466 33.2852 37.4585 33.2221C36.1703 33.159 35.9682 32.3254 36.3976 32.5275H36.4102Z" fill="#C25F5B"/>
<path fill-rule="evenodd" clip-rule="evenodd" d="M44.7961 28.4736C44.7961 28.4736 44.2657 30.0144 43.2806 31.151C42.2829 32.3003 43.9373 31.9341 44.7961 28.4736Z" fill="#CF8F5B"/>
<path fill-rule="evenodd" clip-rule="evenodd" d="M33.0256 29.7617C33.0256 29.7617 33.4929 30.6331 33.8338 31.2646C34.1748 31.8834 33.1771 30.7468 33.0256 29.7617Z" fill="#CF8F5B"/>
<path fill-rule="evenodd" clip-rule="evenodd" d="M38.5698 23.3588C38.5698 23.3588 38.5446 24.0282 38.8729 24.0029C39.2013 23.9777 41.1841 23.5735 41.9798 23.5609C42.7754 23.5483 43.3563 23.8009 43.6216 23.965C43.8868 24.1292 43.912 24.1671 43.912 24.1671C43.912 24.1671 44.0636 24.2176 43.8868 23.965C43.71 23.7251 43.0785 23.182 42.106 23.0431C41.1462 22.9168 38.9108 23.1441 38.5698 23.3588V23.3588Z" fill="#413024"/>
<path fill-rule="evenodd" clip-rule="evenodd" d="M33.1771 25.3543C32.9498 25.3038 32.9624 25.5943 33.5686 26.0237C34.1748 26.4531 34.137 26.15 33.9728 26.0742C33.8212 25.9858 34.1622 25.91 34.2885 25.9479C34.4022 25.9732 33.6697 25.3038 33.1771 25.3543Z" fill="#CF8F5B"/>
<path fill-rule="evenodd" clip-rule="evenodd" d="M39.8959 25.6948C39.8959 25.6948 39.7444 25.7579 39.7191 25.6695C39.6938 25.5811 39.8328 25.4801 39.8328 25.4801C39.8328 25.4801 40.1359 24.9876 41.1083 24.9244C42.0808 24.8613 42.6617 25.3664 42.6617 25.3664C42.6617 25.3664 42.106 26.0105 41.1841 26.0232C40.2622 26.0358 40.0727 25.7706 39.8959 25.6948V25.6948Z" fill="white"/>
<path fill-rule="evenodd" clip-rule="evenodd" d="M39.8959 25.6954C39.8959 25.6954 39.7444 25.7585 39.7191 25.6701C39.6938 25.5817 39.8328 25.4807 39.8328 25.4807C39.8328 25.4807 39.8454 25.468 39.858 25.4428C39.8833 25.5185 39.9464 25.6322 40.0475 25.6954C40.199 25.7838 40.5147 25.9985 41.2851 25.9606C41.9166 25.9353 42.4344 25.4807 42.5986 25.3291C42.6238 25.3544 42.6491 25.367 42.6491 25.367C42.6491 25.367 42.0934 26.0111 41.1715 26.0237C40.2495 26.0363 40.0601 25.7711 39.8833 25.6954H39.8959Z" fill="#EDBA9D"/>
<path fill-rule="evenodd" clip-rule="evenodd" d="M39.8328 25.4801C39.8328 25.4801 40.1359 24.9876 41.1083 24.9244C42.0808 24.8613 42.6617 25.3664 42.6617 25.3664C42.6617 25.3664 42.6238 25.4043 42.5607 25.4675C41.1967 24.836 39.8454 25.4801 39.8454 25.4801H39.8328Z" fill="#ADA89F"/>
<path fill-rule="evenodd" clip-rule="evenodd" d="M40.7421 25.013C40.8936 24.9625 41.0704 24.9372 41.2851 24.912C41.5251 24.8993 41.7524 24.912 41.9419 24.9499C41.9797 25.0256 41.9924 25.1014 42.005 25.1898C42.0176 25.5434 41.7524 25.8592 41.3862 25.8718C41.0326 25.8844 40.7168 25.6192 40.7042 25.253C40.7042 25.1645 40.7168 25.0761 40.7421 25.0004V25.013Z" fill="#625D54"/>
<path d="M41.3667 25.5426C41.5356 25.5342 41.6657 25.3904 41.6572 25.2215C41.6488 25.0526 41.505 24.9226 41.3361 24.931C41.1672 24.9394 41.0372 25.0832 41.0456 25.2521C41.0541 25.421 41.1978 25.5511 41.3667 25.5426Z" fill="#413024"/>
<path d="M41.6094 25.312C41.6687 25.309 41.7144 25.2585 41.7114 25.1992C41.7085 25.1399 41.658 25.0942 41.5987 25.0972C41.5393 25.1001 41.4936 25.1506 41.4966 25.21C41.4996 25.2693 41.5501 25.315 41.6094 25.312Z" fill="white"/>
<path fill-rule="evenodd" clip-rule="evenodd" d="M39.8075 25.4929C39.8075 25.4929 40.2243 25.0256 41.1209 24.9877C42.0176 24.9498 42.5354 25.4297 42.7375 25.4424C42.9396 25.455 43.3942 25.2277 43.3942 25.2277C43.3942 25.2277 42.9017 25.3666 42.6112 25.1898C42.4723 25.1014 41.9924 24.8614 41.4493 24.8235C40.8684 24.7857 40.2116 24.9498 39.8075 25.5055V25.4929Z" fill="#413024"/>
<path fill-rule="evenodd" clip-rule="evenodd" d="M35.9808 25.6704C35.9808 25.6704 36.1198 25.7335 36.145 25.6451C36.1703 25.5567 36.0314 25.4683 36.0314 25.4683C36.0314 25.4683 35.7535 24.9758 34.8568 24.9253C33.9601 24.8621 33.4297 25.3799 33.4297 25.3799C33.4297 25.3799 33.9475 26.024 34.7937 26.024C35.6398 26.024 35.8167 25.7588 35.9808 25.683V25.6704Z" fill="white"/>
<path fill-rule="evenodd" clip-rule="evenodd" d="M35.9808 25.6702C35.9808 25.6702 36.1198 25.7333 36.145 25.6449C36.1703 25.5565 36.0314 25.4681 36.0314 25.4681C36.0314 25.4681 36.0187 25.4555 36.0061 25.4302C35.9808 25.506 35.9303 25.6196 35.8293 25.6828C35.6904 25.7712 35.3999 25.9985 34.6926 25.9606C34.1117 25.9354 33.6318 25.4933 33.4676 25.3418C33.4423 25.3671 33.4297 25.3797 33.4297 25.3797C33.4297 25.3797 33.9475 26.0238 34.7937 26.0238C35.6398 26.0238 35.8167 25.7586 35.9808 25.6828V25.6702Z" fill="#EDBA9D"/>
<path fill-rule="evenodd" clip-rule="evenodd" d="M36.0314 25.4683C36.0314 25.4683 35.7535 24.9758 34.8568 24.9253C33.9601 24.8621 33.4297 25.3799 33.4297 25.3799C33.4297 25.3799 33.4676 25.4178 33.5308 25.481C34.7937 24.8369 36.0314 25.4683 36.0314 25.4683V25.4683Z" fill="#ADA89F"/>
<path fill-rule="evenodd" clip-rule="evenodd" d="M35.463 25.0009C35.3115 24.9504 35.1347 24.9251 34.92 24.9125C34.68 24.8998 34.4527 24.9251 34.2633 24.963C34.2254 25.0388 34.2128 25.1145 34.2001 25.2029C34.1875 25.5566 34.4653 25.8597 34.819 25.8849C35.1726 25.8975 35.4757 25.6197 35.5009 25.2661C35.5009 25.1777 35.4883 25.0893 35.463 25.0135V25.0009Z" fill="#625D54"/>
<path d="M34.8365 25.5319C34.6676 25.5249 34.5362 25.3823 34.5432 25.2133C34.5502 25.0443 34.6928 24.913 34.8618 24.92C35.0307 24.927 35.162 25.0696 35.1551 25.2385C35.1481 25.4075 35.0055 25.5388 34.8365 25.5319Z" fill="#413024"/>
<path d="M35.1036 25.2896C35.0443 25.2871 34.9981 25.237 35.0006 25.1777C35.003 25.1183 35.0531 25.0722 35.1125 25.0747C35.1718 25.0771 35.218 25.1272 35.2155 25.1866C35.2131 25.2459 35.163 25.292 35.1036 25.2896Z" fill="white"/>
<path fill-rule="evenodd" clip-rule="evenodd" d="M36.0566 25.4804C36.0566 25.4804 35.6651 25.0131 34.8442 24.9878C34.0233 24.9626 33.5434 25.4425 33.3539 25.4551C33.1645 25.4804 32.7982 25.1899 32.7982 25.1899C32.7982 25.1899 33.2024 25.3415 33.4676 25.152C33.5939 25.0636 34.0359 24.8742 34.5411 24.8363C35.0715 24.7858 35.6777 24.9373 36.0566 25.4804Z" fill="#413024"/>
<path fill-rule="evenodd" clip-rule="evenodd" d="M35.9808 28.1705C35.9808 28.1705 35.703 28.461 35.6398 28.9914C35.5767 29.5218 35.9808 29.6481 36.145 29.7492C36.3218 29.8502 35.5009 29.6986 35.4756 29.1303C35.4504 28.5494 35.8672 28.2589 35.9808 28.1705V28.1705ZM38.9234 28.1074C38.9234 28.1074 39.176 28.4357 39.1887 28.9409C39.2013 29.4461 38.8098 29.6481 38.6456 29.7492C38.4688 29.8502 39.2897 29.6481 39.3528 29.0672C39.416 28.4862 39.0497 28.2336 38.9234 28.0947V28.1074Z" fill="#AD7140"/>
<path fill-rule="evenodd" clip-rule="evenodd" d="M36.1071 29.6735C36.1071 29.6735 35.905 29.5598 36.044 29.4588C36.1829 29.3577 36.2334 29.484 36.4734 29.6608C36.7133 29.825 36.827 29.9387 37.0796 29.9387C37.3322 29.9513 36.8901 30.0018 36.7007 29.8503C36.5113 29.6987 36.1829 29.623 36.1071 29.6735V29.6735ZM38.4056 29.6735C38.4056 29.6735 38.5951 29.5598 38.4435 29.4588C38.292 29.3577 38.2541 29.484 38.0394 29.6608C37.8247 29.825 37.7237 29.9387 37.4584 29.9387C37.2059 29.9513 37.6605 30.0018 37.8247 29.8503C38.0015 29.6987 38.3172 29.623 38.4056 29.6735V29.6735Z" fill="#7D4B23"/>
<path fill-rule="evenodd" clip-rule="evenodd" d="M37.0038 28.7266C36.9154 28.8782 36.9028 29.1181 37.2185 29.1307C37.5342 29.1434 37.6353 28.916 37.4837 28.7266C37.3448 28.5245 37.0796 28.5877 36.9912 28.7266H37.0038Z" fill="#E8AE7F"/>
<path fill-rule="evenodd" clip-rule="evenodd" d="M36.5618 24.1292C36.5618 24.1292 36.7891 24.5713 36.7512 25.8089C36.7133 27.034 36.4481 27.8296 36.4481 27.8296C36.4481 27.8296 36.6628 26.7688 36.6249 25.6448C36.587 24.5208 36.1955 23.9651 36.1955 23.9651C36.1955 23.9651 36.3597 23.8135 36.5618 24.1292V24.1292Z" fill="#CF8F5B"/>
<path fill-rule="evenodd" clip-rule="evenodd" d="M38.5951 24.2048C38.5951 24.2048 38.2036 24.5837 38.1783 25.8466C38.1531 27.1095 38.2162 26.4149 38.393 25.5814C38.5698 24.7352 38.9234 24.3563 38.9487 24.3058C38.974 24.2553 38.8098 23.9901 38.5951 24.2048V24.2048Z" fill="#CF8F5B"/>
<path fill-rule="evenodd" clip-rule="evenodd" d="M32.6846 24.2428C32.6846 24.2428 32.9877 23.7628 33.5686 23.6239C34.1496 23.485 34.92 23.5987 35.5893 23.7755C36.2587 23.9523 36.3976 24.0659 36.5365 23.9523C36.6754 23.8386 36.6249 23.3587 36.4734 23.3082C36.3218 23.2577 34.1748 22.8535 33.4676 23.1187C32.7604 23.384 32.6214 24.1417 32.6214 24.1417C32.6214 24.1417 32.5709 24.369 32.6846 24.2428Z" fill="#413024"/>
<path fill-rule="evenodd" clip-rule="evenodd" d="M35.3999 24.7737C35.6651 24.8495 35.9556 24.5211 35.804 24.2433C35.6525 23.9654 36.0692 23.7507 36.2713 24.5085C36.4734 25.2663 36.2587 25.6578 36.1577 25.4683C36.0692 25.2789 35.6777 24.9126 35.4252 24.7863L35.3873 24.7737H35.3999Z" fill="#CF8F5B"/>
<path fill-rule="evenodd" clip-rule="evenodd" d="M41.2978 24.6095C41.0326 24.6853 39.9591 24.4832 40.1864 24.1044C40.4137 23.7255 39.4286 23.8897 39.2266 24.6474C39.0245 25.4052 39.5044 25.7335 39.6054 25.5441C39.656 25.4431 39.7823 25.241 39.9717 25.0894C40.3885 24.7737 40.7042 24.7106 41.3104 24.6095H41.2978Z" fill="#CF8F5B"/>
<path fill-rule="evenodd" clip-rule="evenodd" d="M39.8201 25.2661C39.8201 25.2661 40.1106 24.761 41.1336 24.7357C42.1565 24.7104 42.8259 25.2914 42.8259 25.2914C42.8259 25.2914 42.2955 24.6347 41.2851 24.622C40.2748 24.5968 39.9212 25.0893 39.8075 25.2788L39.8201 25.2661Z" fill="#BD814F"/>
<path fill-rule="evenodd" clip-rule="evenodd" d="M33.2403 25.0635C33.2403 25.0635 33.7834 24.6088 34.7432 24.6846C35.703 24.7604 36.2587 25.6065 36.2461 25.5308C36.2334 25.455 36.0061 24.7477 34.92 24.5836C33.8465 24.4194 33.354 24.8993 33.2403 25.0509V25.0635Z" fill="#BD814F"/>
</g>
<defs>
<clipPath id="clip0">
<rect width="84.6667" height="211.667" fill="white"/>
</clipPath>
</defs>
</svg>
