<svg width="85" height="212" viewBox="0 0 85 212" fill="none" xmlns="http://www.w3.org/2000/svg">
<g clip-path="url(#clip0)">
<path fill-rule="evenodd" clip-rule="evenodd" d="M31.6409 22.792H43.5738V27.766H31.6409V22.792Z" fill="#E3A06B"/>
<path fill-rule="evenodd" clip-rule="evenodd" d="M42.1801 25.3565C42.4456 25.524 42.4679 25.7396 41.7683 26.1376C41.0696 26.5364 41.0862 26.3143 41.2584 26.2162C41.4314 26.1181 41.0742 25.9941 40.9437 26.0274C40.8133 26.0608 41.3268 24.8198 42.1791 25.3565H42.1801Z" fill="#CF8F5B"/>
<path fill-rule="evenodd" clip-rule="evenodd" d="M37.9363 23.4455C37.9363 23.4455 37.9159 24.1201 38.2407 24.0924C38.5656 24.0646 40.5533 23.6658 41.3445 23.6472C42.1357 23.6287 42.7233 23.8814 42.9871 24.0507C43.2508 24.2191 43.2813 24.2478 43.2813 24.2478C43.2813 24.2478 43.4331 24.295 43.2508 24.0507C43.0685 23.8073 42.4392 23.2632 41.4759 23.1318C40.5126 23.0004 38.2815 23.2299 37.9363 23.4455Z" fill="#413024"/>
<path fill-rule="evenodd" clip-rule="evenodd" d="M32.5441 25.4415C32.3146 25.3869 32.3257 25.6858 32.9346 26.1161C33.5435 26.5464 33.4972 26.2484 33.3446 26.1624C33.1928 26.0763 33.5398 26.0013 33.6555 26.03C33.7702 26.0596 33.041 25.3897 32.5441 25.4406V25.4415Z" fill="#CF8F5B"/>
<path fill-rule="evenodd" clip-rule="evenodd" d="M39.2642 25.7847C39.2642 25.7847 39.1152 25.8485 39.0865 25.756C39.0588 25.6634 39.2041 25.5718 39.2041 25.5718C39.2041 25.5718 39.503 25.0777 40.4755 25.011C41.4481 24.9435 42.0228 25.4543 42.0228 25.4543C42.0228 25.4543 41.4685 26.1011 40.5496 26.115C39.6307 26.128 39.441 25.8605 39.2633 25.7847H39.2642Z" fill="white"/>
<path fill-rule="evenodd" clip-rule="evenodd" d="M39.2642 25.7849C39.2642 25.7849 39.1152 25.8488 39.0865 25.7562C39.0588 25.6637 39.2041 25.5721 39.2041 25.5721C39.2041 25.5721 39.2142 25.5563 39.2355 25.5295C39.2624 25.6008 39.3207 25.7238 39.4234 25.7812C39.5733 25.8654 39.8963 26.0884 40.6597 26.0505C41.2853 26.019 41.81 25.5767 41.9784 25.4185C42.008 25.4407 42.0237 25.4545 42.0237 25.4545C42.0237 25.4545 41.4694 26.1023 40.5505 26.1153C39.6316 26.1282 39.4419 25.8608 39.2651 25.7849H39.2642Z" fill="#EDBA9D"/>
<path fill-rule="evenodd" clip-rule="evenodd" d="M39.204 25.5718C39.204 25.5718 39.503 25.0777 40.4755 25.011C41.4481 24.9435 42.0228 25.4543 42.0228 25.4543C42.0228 25.4543 41.9867 25.4959 41.9182 25.5589C40.5505 24.9231 39.2031 25.5718 39.2031 25.5718H39.204Z" fill="#ADA89F"/>
<path fill-rule="evenodd" clip-rule="evenodd" d="M40.1055 25.1067C40.2582 25.0604 40.4387 25.0262 40.6515 25.0114C40.8967 24.9947 41.117 25.0141 41.3095 25.053C41.3437 25.127 41.365 25.2094 41.3696 25.2964C41.3872 25.6554 41.1105 25.9617 40.7514 25.9793C40.3924 25.9969 40.0861 25.7202 40.0685 25.3612C40.0639 25.2723 40.0778 25.1853 40.1064 25.1067H40.1055Z" fill="#9E5311"/>
<path fill-rule="evenodd" clip-rule="evenodd" d="M40.7033 25.0224C40.8726 25.014 41.017 25.1445 41.0253 25.3138C41.0336 25.4832 40.9031 25.6276 40.7338 25.6359C40.5644 25.6442 40.4201 25.5137 40.4118 25.3444C40.4034 25.175 40.5339 25.0307 40.7033 25.0224Z" fill="#413024"/>
<path fill-rule="evenodd" clip-rule="evenodd" d="M40.9661 25.1891C41.0263 25.1863 41.0762 25.2317 41.079 25.2918C41.0818 25.351 41.0365 25.4019 40.9763 25.4047C40.9171 25.4075 40.8662 25.3621 40.8634 25.302C40.8606 25.2428 40.906 25.1919 40.9652 25.1891H40.9661Z" fill="white"/>
<path fill-rule="evenodd" clip-rule="evenodd" d="M39.1792 25.5897C39.1792 25.5897 39.6012 25.1224 40.496 25.0826C41.39 25.0428 41.9072 25.5194 42.1099 25.537C42.3126 25.5545 42.766 25.3223 42.766 25.3223C42.766 25.3223 42.2709 25.4629 41.9804 25.2806C41.8397 25.1918 41.3668 24.9512 40.8199 24.9114C40.2415 24.8688 39.5808 25.0437 39.181 25.5897H39.1792Z" fill="#413024"/>
<path fill-rule="evenodd" clip-rule="evenodd" d="M35.3462 25.7684C35.3462 25.7684 35.4841 25.8304 35.51 25.7379C35.535 25.6454 35.4008 25.5547 35.4008 25.5547C35.4008 25.5547 35.1223 25.0642 34.2247 25.0059C33.327 24.9485 32.7996 25.4649 32.7996 25.4649C32.7996 25.4649 33.3141 26.1071 34.1617 26.1108C35.0103 26.1145 35.1834 25.8452 35.3462 25.7675V25.7684Z" fill="white"/>
<path fill-rule="evenodd" clip-rule="evenodd" d="M35.3462 25.7683C35.3462 25.7683 35.4841 25.8303 35.51 25.7377C35.5359 25.6452 35.4008 25.5545 35.4008 25.5545C35.4008 25.5545 35.3916 25.5388 35.3721 25.5119C35.3481 25.5832 35.2944 25.7072 35.2 25.7655C35.0621 25.8506 34.7651 26.0774 34.0609 26.0468C33.4834 26.0218 32.9976 25.5841 32.8412 25.4277C32.8134 25.4509 32.7996 25.4648 32.7996 25.4648C32.7996 25.4648 33.3141 26.107 34.1617 26.1107C35.0103 26.1153 35.1834 25.8451 35.3462 25.7683Z" fill="#EDBA9D"/>
<path fill-rule="evenodd" clip-rule="evenodd" d="M35.4008 25.5552C35.4008 25.5552 35.1223 25.0647 34.2247 25.0064C33.327 24.949 32.7996 25.4654 32.7996 25.4654C32.7996 25.4654 32.8329 25.507 32.8958 25.569C34.1553 24.9203 35.4008 25.5561 35.4008 25.5561V25.5552Z" fill="#ADA89F"/>
<path fill-rule="evenodd" clip-rule="evenodd" d="M34.8271 25.09C34.6744 25.0456 34.4939 25.0123 34.2811 24.9993C34.0358 24.9845 33.8156 25.0058 33.624 25.0465C33.5898 25.1215 33.5694 25.2029 33.5657 25.2899C33.5509 25.649 33.8304 25.9525 34.1904 25.9673C34.5494 25.9821 34.853 25.7026 34.8678 25.3436C34.8715 25.2547 34.8567 25.1687 34.8271 25.0891V25.09Z" fill="#9E5311"/>
<path fill-rule="evenodd" clip-rule="evenodd" d="M34.2292 25.0115C34.0599 25.0041 33.9164 25.1365 33.91 25.3058C33.9026 25.4751 34.0349 25.6186 34.2042 25.6251C34.3736 25.6325 34.5161 25.5001 34.5235 25.3308C34.53 25.1614 34.3986 25.018 34.2292 25.0115Z" fill="#413024"/>
<path fill-rule="evenodd" clip-rule="evenodd" d="M34.479 25.1661C34.4198 25.1634 34.3689 25.2096 34.3671 25.2698C34.3643 25.329 34.4106 25.3799 34.4707 25.3817C34.5299 25.3845 34.5808 25.3383 34.5827 25.2781C34.5855 25.2189 34.5392 25.168 34.479 25.1661Z" fill="white"/>
<path fill-rule="evenodd" clip-rule="evenodd" d="M35.4238 25.573C35.4238 25.573 35.0324 25.1094 34.2069 25.0788C33.3815 25.0474 32.9077 25.5286 32.7207 25.5489C32.5338 25.5693 32.1609 25.2806 32.1609 25.2806C32.1609 25.2806 32.5671 25.4268 32.8346 25.2417C32.9641 25.1519 33.4055 24.9696 33.9099 24.9243C34.4429 24.8762 35.0527 25.0307 35.4238 25.5739V25.573Z" fill="#413024"/>
<path fill-rule="evenodd" clip-rule="evenodd" d="M35.9292 24.2166C35.9292 24.2166 36.1587 24.6644 36.1162 25.8961C36.0856 26.8076 35.932 27.4795 35.8543 27.7673H35.8376C35.895 27.4332 36.0181 26.6004 35.9875 25.7314C35.9477 24.6071 35.5591 24.0509 35.5591 24.0509C35.5591 24.0509 35.7238 23.8991 35.9283 24.2166H35.9292Z" fill="#CF8F5B"/>
<path fill-rule="evenodd" clip-rule="evenodd" d="M37.9669 24.3036C37.9669 24.3036 37.5792 24.6821 37.5533 25.9498C37.5273 27.2167 37.594 26.5236 37.7661 25.6787C37.9382 24.8338 38.2991 24.4553 38.3269 24.4007C38.3546 24.3471 38.1853 24.087 37.9669 24.3036Z" fill="#CF8F5B"/>
<path fill-rule="evenodd" clip-rule="evenodd" d="M32.0453 24.3405C32.0453 24.3405 32.346 23.8621 32.9235 23.7214C33.5009 23.5808 34.2782 23.6937 34.9473 23.8714C35.6163 24.05 35.7579 24.1573 35.9004 24.0444C36.043 23.9324 35.9921 23.454 35.8421 23.3976C35.6913 23.3411 33.5462 22.9478 32.8356 23.2097C32.1249 23.4725 31.9842 24.236 31.9842 24.236C31.9842 24.236 31.9361 24.4608 32.0453 24.3387V24.3405Z" fill="#413024"/>
<path fill-rule="evenodd" clip-rule="evenodd" d="M34.7734 24.8649C35.039 24.9408 35.3296 24.6132 35.1769 24.3291C35.0242 24.045 35.4416 23.8396 35.647 24.5938C35.8524 25.348 35.6304 25.7468 35.536 25.5571C35.4416 25.3674 35.0501 25.0047 34.8058 24.8714L34.7734 24.864V24.8649Z" fill="#CF8F5B"/>
<path fill-rule="evenodd" clip-rule="evenodd" d="M40.6653 24.706C40.3997 24.7818 39.3244 24.5736 39.5493 24.197C39.7741 23.8204 38.7951 23.9851 38.5896 24.7393C38.3842 25.4935 38.871 25.8266 38.9653 25.6369C39.0172 25.5323 39.1439 25.3278 39.3281 25.1881C39.7418 24.8744 40.0592 24.8114 40.6653 24.705V24.706Z" fill="#CF8F5B"/>
<path fill-rule="evenodd" clip-rule="evenodd" d="M39.1875 25.3572C39.1875 25.3572 39.4762 24.8501 40.5034 24.8269C41.5297 24.8038 42.2015 25.3803 42.2015 25.3803C42.2015 25.3803 41.6712 24.726 40.6663 24.7057C39.6613 24.6853 39.2958 25.1776 39.1875 25.3562V25.3572Z" fill="#BD814F"/>
<path fill-rule="evenodd" clip-rule="evenodd" d="M32.6033 25.1528C32.6033 25.1528 33.152 24.6966 34.1107 24.779C35.0694 24.8604 35.6256 25.6997 35.6099 25.6285C35.5941 25.5572 35.3656 24.8447 34.2884 24.6827C33.2113 24.5208 32.718 25.0029 32.6042 25.1528H32.6033Z" fill="#BD814F"/>
</g>
<defs>
<clipPath id="clip0">
<rect width="84.6667" height="211.667" fill="white"/>
</clipPath>
</defs>
</svg>
