<svg width="85" height="212" viewBox="0 0 85 212" fill="none" xmlns="http://www.w3.org/2000/svg">
<path fill-rule="evenodd" clip-rule="evenodd" d="M32.3396 22.7915H44.2724V27.7655H32.3396V22.7915Z" fill="#E3A06B"/>
<path fill-rule="evenodd" clip-rule="evenodd" d="M42.8145 25.258C43.0801 25.4257 43.102 25.6407 42.4032 26.039C41.704 26.4373 41.721 26.2152 41.8936 26.1177C42.0666 26.0198 41.7098 25.8955 41.5789 25.9286C41.4479 25.9617 41.9624 24.7211 42.8145 25.258Z" fill="#CF8F5B"/>
<path fill-rule="evenodd" clip-rule="evenodd" d="M38.5708 23.3465C38.5708 23.3465 38.5507 24.0216 38.8752 23.9934C39.1998 23.9652 41.1874 23.5669 41.9787 23.5481C42.77 23.5293 43.3579 23.7824 43.6216 23.9514C43.8854 24.1199 43.9163 24.1481 43.9163 24.1481C43.9163 24.1481 44.0683 24.195 43.8859 23.9514C43.7035 23.7077 43.0744 23.1637 42.111 23.0327C41.1476 22.9012 38.9164 23.131 38.5712 23.3465H38.5708Z" fill="#413024"/>
<path fill-rule="evenodd" clip-rule="evenodd" d="M33.1782 25.3428C32.9484 25.2883 32.96 25.5874 33.5685 26.0174C34.1769 26.4475 34.1309 26.1498 33.9784 26.0639C33.8264 25.9781 34.1743 25.903 34.2891 25.9321C34.4045 25.9611 33.6744 25.2919 33.1778 25.3428H33.1782Z" fill="#CF8F5B"/>
<path fill-rule="evenodd" clip-rule="evenodd" d="M39.8984 25.6862C39.8984 25.6862 39.7491 25.7502 39.7209 25.6576C39.6927 25.5651 39.8385 25.4735 39.8385 25.4735C39.8385 25.4735 40.1376 24.9799 41.1104 24.9124C42.0831 24.8449 42.6576 25.3559 42.6576 25.3559C42.6576 25.3559 42.1033 26.0032 41.1846 26.0162C40.2654 26.0296 40.0759 25.7618 39.8988 25.6858L39.8984 25.6862Z" fill="white"/>
<path fill-rule="evenodd" clip-rule="evenodd" d="M39.8984 25.6864C39.8984 25.6864 39.7491 25.7503 39.7209 25.6578C39.6927 25.5653 39.8385 25.4736 39.8385 25.4736C39.8385 25.4736 39.8483 25.4575 39.8698 25.4311C39.8966 25.5027 39.9547 25.6252 40.0575 25.6828C40.2073 25.7669 40.5305 25.99 41.2936 25.952C41.9191 25.9207 42.4439 25.4781 42.6125 25.3198C42.6424 25.3426 42.6576 25.356 42.6576 25.356C42.6576 25.356 42.1037 26.0034 41.1841 26.0163C40.265 26.0298 40.0754 25.7615 39.8984 25.686V25.6864Z" fill="#EDBA9D"/>
<path fill-rule="evenodd" clip-rule="evenodd" d="M39.8386 25.4735C39.8386 25.4735 40.1377 24.9799 41.1105 24.9124C42.0833 24.8449 42.6578 25.3559 42.6578 25.3559C42.6578 25.3559 42.622 25.3979 42.5536 25.4605C41.1856 24.8248 39.8391 25.4735 39.8391 25.4735H39.8386Z" fill="#ADA89F"/>
<path fill-rule="evenodd" clip-rule="evenodd" d="M40.7398 25.0081C40.8922 24.962 41.0724 24.9271 41.2852 24.9124C41.5306 24.8954 41.7505 24.9151 41.9428 24.9544C41.9772 25.0286 41.9987 25.1109 42.0031 25.1976C42.021 25.557 41.7443 25.8628 41.3849 25.8807C41.0254 25.8986 40.7196 25.6219 40.7018 25.2624C40.6973 25.173 40.7111 25.0872 40.7398 25.0081Z" fill="#42717D"/>
<path fill-rule="evenodd" clip-rule="evenodd" d="M41.3375 24.9237C41.507 24.9152 41.6509 25.0458 41.6594 25.2152C41.6679 25.3846 41.5374 25.5286 41.3679 25.5371C41.1985 25.5456 41.0545 25.415 41.046 25.2456C41.0376 25.0762 41.1681 24.9322 41.3375 24.9237Z" fill="#413024"/>
<path fill-rule="evenodd" clip-rule="evenodd" d="M41.6 25.0904C41.66 25.0878 41.71 25.1334 41.7132 25.1928C41.7163 25.2523 41.6702 25.3032 41.6108 25.3059C41.5513 25.3086 41.5008 25.263 41.4977 25.2036C41.495 25.1441 41.5406 25.0936 41.6 25.0904Z" fill="white"/>
<path fill-rule="evenodd" clip-rule="evenodd" d="M39.8135 25.4914C39.8135 25.4914 40.2355 25.0242 41.1301 24.984C42.0242 24.9442 42.541 25.4203 42.7435 25.4382C42.946 25.4561 43.3993 25.2236 43.3993 25.2236C43.3993 25.2236 42.904 25.3644 42.6134 25.182C42.4721 25.0935 41.9996 24.853 41.4528 24.8127C40.8743 24.7703 40.2136 24.9446 39.8135 25.4914Z" fill="#413024"/>
<path fill-rule="evenodd" clip-rule="evenodd" d="M35.9799 25.67C35.9799 25.67 36.1181 25.7326 36.1436 25.6396C36.169 25.5467 36.0345 25.4564 36.0345 25.4564C36.0345 25.4564 35.756 24.9659 34.8583 24.9078C33.9606 24.8501 33.4326 25.3665 33.4326 25.3665C33.4326 25.3665 33.9472 26.0085 34.7952 26.0125C35.6433 26.0165 35.8168 25.7469 35.9799 25.6696V25.67Z" fill="white"/>
<path fill-rule="evenodd" clip-rule="evenodd" d="M35.9804 25.6698C35.9804 25.6698 36.1186 25.7319 36.1441 25.6394C36.1695 25.5469 36.035 25.4566 36.035 25.4566C36.035 25.4566 36.026 25.4405 36.0059 25.4141C35.9818 25.4856 35.9281 25.609 35.8338 25.6676C35.6961 25.753 35.3988 25.9792 34.6947 25.9488C34.1171 25.9237 33.6312 25.4861 33.4747 25.3296C33.4474 25.3524 33.4331 25.3662 33.4331 25.3662C33.4331 25.3662 33.9477 26.0082 34.7957 26.0122C35.6438 26.0163 35.8173 25.7467 35.9804 25.6694V25.6698Z" fill="#EDBA9D"/>
<path fill-rule="evenodd" clip-rule="evenodd" d="M36.0345 25.4568C36.0345 25.4568 35.756 24.9664 34.8583 24.9083C33.9606 24.8506 33.4326 25.367 33.4326 25.367C33.4326 25.367 33.4657 25.4086 33.5292 25.4703C34.7885 24.8211 36.0345 25.4568 36.0345 25.4568Z" fill="#ADA89F"/>
<path fill-rule="evenodd" clip-rule="evenodd" d="M35.4609 24.9919C35.3084 24.9472 35.1274 24.9141 34.9146 24.9011C34.6691 24.8864 34.4492 24.9079 34.2574 24.9485C34.2234 25.0232 34.2029 25.1055 34.1993 25.1922C34.1845 25.5516 34.4639 25.8552 34.8234 25.8699C35.1828 25.8847 35.4864 25.6053 35.5011 25.2458C35.5047 25.1564 35.4904 25.0706 35.4609 24.9915V24.9919Z" fill="#42717D"/>
<path fill-rule="evenodd" clip-rule="evenodd" d="M34.8626 24.9129C34.6932 24.9057 34.5502 25.0376 34.543 25.207C34.5358 25.3765 34.6677 25.5195 34.8372 25.5262C35.0066 25.5334 35.1492 25.4015 35.1564 25.2321C35.1631 25.0626 35.0316 24.9196 34.8626 24.9129Z" fill="#413024"/>
<path fill-rule="evenodd" clip-rule="evenodd" d="M35.1135 25.0675C35.0541 25.0648 35.004 25.1113 35.0013 25.1708C34.9986 25.2302 35.0451 25.2807 35.1046 25.283C35.1641 25.2852 35.2146 25.2392 35.2168 25.1797C35.2195 25.1202 35.173 25.0702 35.1135 25.0675Z" fill="white"/>
<path fill-rule="evenodd" clip-rule="evenodd" d="M36.0577 25.4742C36.0577 25.4742 35.6661 25.0111 34.8409 24.9798C34.0156 24.9485 33.5413 25.4295 33.3544 25.4496C33.1675 25.4698 32.7947 25.1814 32.7947 25.1814C32.7947 25.1814 33.2015 25.3276 33.4684 25.1425C33.598 25.0527 34.0393 24.8703 34.544 24.8251C35.0773 24.7773 35.6862 24.9315 36.0582 25.4742H36.0577Z" fill="#413024"/>
<path fill-rule="evenodd" clip-rule="evenodd" d="M36.5631 24.1175C36.5631 24.1175 36.792 24.5655 36.7504 25.7967C36.7151 26.837 36.5206 27.5648 36.4611 27.7655H36.4544C36.4978 27.5322 36.6565 26.6045 36.6221 25.6322C36.5823 24.5078 36.1934 23.9517 36.1934 23.9517C36.1934 23.9517 36.3579 23.8001 36.5631 24.1175Z" fill="#CF8F5B"/>
<path fill-rule="evenodd" clip-rule="evenodd" d="M38.6012 24.2051C38.6012 24.2051 38.2136 24.5842 38.1872 25.8511C38.1608 27.1181 38.2279 26.4252 38.4 25.5802C38.5721 24.7357 38.9329 24.3566 38.961 24.3025C38.9892 24.2484 38.8189 23.9883 38.6016 24.2051H38.6012Z" fill="#CF8F5B"/>
<path fill-rule="evenodd" clip-rule="evenodd" d="M32.6794 24.2421C32.6794 24.2421 32.9803 23.7642 33.5574 23.6234C34.1346 23.483 34.912 23.5952 35.5812 23.7736C36.25 23.9519 36.3922 24.0597 36.5344 23.947C36.6765 23.8348 36.6265 23.3565 36.4758 23.3001C36.3251 23.2438 34.1802 22.8504 33.4694 23.1128C32.7585 23.3752 32.6182 24.1393 32.6182 24.1393C32.6182 24.1393 32.5703 24.3641 32.679 24.2425L32.6794 24.2421Z" fill="#413024"/>
<path fill-rule="evenodd" clip-rule="evenodd" d="M35.4072 24.7669C35.6732 24.8425 35.9629 24.5148 35.8109 24.2309C35.6585 23.947 36.0756 23.7414 36.2808 24.4956C36.486 25.2497 36.2642 25.649 36.1699 25.459C36.0756 25.2694 35.6835 24.9068 35.4394 24.7736L35.4072 24.7665V24.7669Z" fill="#CF8F5B"/>
<path fill-rule="evenodd" clip-rule="evenodd" d="M41.3001 24.6079C41.0341 24.6834 39.9589 24.4756 40.1842 24.0991C40.4095 23.7227 39.43 23.8877 39.2248 24.6414C39.0196 25.3956 39.506 25.7287 39.6003 25.5391C39.6522 25.4349 39.7792 25.2302 39.9634 25.0907C40.3773 24.7764 40.6943 24.7143 41.3001 24.6079Z" fill="#CF8F5B"/>
<path fill-rule="evenodd" clip-rule="evenodd" d="M39.8215 25.2584C39.8215 25.2584 40.1108 24.7515 41.1372 24.7282C42.1637 24.705 42.8356 25.2817 42.8356 25.2817C42.8356 25.2817 42.3054 24.6277 41.3004 24.6075C40.2954 24.5874 39.9302 25.0796 39.822 25.2584H39.8215Z" fill="#BD814F"/>
<path fill-rule="evenodd" clip-rule="evenodd" d="M33.2378 25.0543C33.2378 25.0543 33.7868 24.5983 34.7448 24.6801C35.7033 24.7619 36.2594 25.601 36.2434 25.5299C36.2273 25.4588 35.9993 24.7458 34.9223 24.5839C33.8453 24.4226 33.3518 24.9036 33.2378 25.0538V25.0543Z" fill="#BD814F"/>
</svg>
