<svg width="85" height="212" viewBox="0 0 85 212" fill="none" xmlns="http://www.w3.org/2000/svg">
<path fill-rule="evenodd" clip-rule="evenodd" d="M31.7029 22.7476H43.6361V27.7212H31.7029V22.7476Z" fill="#E3A06B"/>
<path fill-rule="evenodd" clip-rule="evenodd" d="M42.2086 25.2137C42.4741 25.3811 42.4961 25.5965 41.797 25.9951C41.098 26.3937 41.1144 26.1714 41.2873 26.0733C41.4602 25.9759 41.1035 25.851 40.9724 25.8839C40.8414 25.9169 41.3559 24.6766 42.2079 25.2137H42.2086Z" fill="#CF8F5B"/>
<path fill-rule="evenodd" clip-rule="evenodd" d="M37.9641 23.3024C37.9641 23.3024 37.9435 23.9774 38.2687 23.9493C38.5932 23.9211 40.5806 23.5226 41.3723 23.5041C42.1632 23.4855 42.7511 23.7387 43.0153 23.9074C43.2794 24.0762 43.3096 24.1043 43.3096 24.1043C43.3096 24.1043 43.4619 24.151 43.2787 23.9074C43.0962 23.6639 42.4671 23.1199 41.504 22.9889C40.5408 22.8571 38.3092 23.087 37.9641 23.3031V23.3024Z" fill="#413024"/>
<path fill-rule="evenodd" clip-rule="evenodd" d="M32.572 25.298C32.3422 25.2431 32.3539 25.5429 32.9624 25.9723C33.5709 26.4025 33.5249 26.1047 33.3726 26.019C33.2203 25.9332 33.5681 25.8578 33.6834 25.8873C33.7986 25.9168 33.0687 25.2472 32.572 25.298Z" fill="#CF8F5B"/>
<path fill-rule="evenodd" clip-rule="evenodd" d="M39.2924 25.6417C39.2924 25.6417 39.1428 25.7055 39.1147 25.6129C39.0866 25.5203 39.232 25.4291 39.232 25.4291C39.232 25.4291 39.5311 24.9351 40.5039 24.8679C41.4766 24.8007 42.0508 25.3111 42.0508 25.3111C42.0508 25.3111 41.4965 25.958 40.578 25.9717C39.6587 25.9848 39.4694 25.7172 39.2924 25.6417Z" fill="white"/>
<path fill-rule="evenodd" clip-rule="evenodd" d="M39.2924 25.6417C39.2924 25.6417 39.1428 25.7055 39.1147 25.6129C39.0866 25.5203 39.232 25.4291 39.232 25.4291C39.232 25.4291 39.2416 25.4133 39.2636 25.3865C39.2903 25.4579 39.3486 25.5807 39.4515 25.6383C39.6011 25.722 39.9242 25.9456 40.6877 25.9072C41.3134 25.8763 41.8375 25.4332 42.0063 25.2754C42.0364 25.298 42.0515 25.3117 42.0515 25.3117C42.0515 25.3117 41.4972 25.9593 40.578 25.9724C39.6587 25.9854 39.4694 25.7179 39.2924 25.6424V25.6417Z" fill="#EDBA9D"/>
<path fill-rule="evenodd" clip-rule="evenodd" d="M39.2327 25.4291C39.2327 25.4291 39.5318 24.9351 40.5045 24.8679C41.4773 24.8007 42.0515 25.3111 42.0515 25.3111C42.0515 25.3111 42.0158 25.3529 41.9472 25.4154C40.5793 24.7794 39.2327 25.4284 39.2327 25.4284V25.4291Z" fill="#ADA89F"/>
<path fill-rule="evenodd" clip-rule="evenodd" d="M40.1341 24.9641C40.2864 24.9181 40.4668 24.8831 40.6795 24.868C40.9251 24.8509 41.1453 24.8708 41.3367 24.9099C41.371 24.9839 41.3923 25.0663 41.3971 25.1534C41.4149 25.5129 41.1385 25.8188 40.779 25.8367C40.4195 25.8545 40.1136 25.578 40.0957 25.2186C40.0916 25.1294 40.1046 25.0429 40.1334 24.9641H40.1341Z" fill="#4C7012"/>
<path fill-rule="evenodd" clip-rule="evenodd" d="M40.7309 24.8793C40.9003 24.871 41.0444 25.0014 41.0526 25.1708C41.0609 25.3403 40.9305 25.4843 40.7611 25.4926C40.5916 25.5008 40.4476 25.3705 40.4393 25.201C40.4311 25.0316 40.5614 24.8875 40.7309 24.8793Z" fill="#413024"/>
<path fill-rule="evenodd" clip-rule="evenodd" d="M40.9937 25.0455C41.0534 25.0428 41.1035 25.0887 41.1069 25.1477C41.1096 25.2074 41.0643 25.2582 41.0047 25.2609C40.945 25.2637 40.8949 25.2184 40.8915 25.1587C40.8887 25.099 40.934 25.049 40.9937 25.0455Z" fill="white"/>
<path fill-rule="evenodd" clip-rule="evenodd" d="M39.2072 25.447C39.2072 25.447 39.6291 24.9798 40.5237 24.9393C41.4183 24.8996 41.9348 25.3756 42.1372 25.3935C42.3396 25.4113 42.793 25.1788 42.793 25.1788C42.793 25.1788 42.2977 25.3194 42.0069 25.1369C41.8655 25.0484 41.3936 24.8076 40.8461 24.7678C40.2678 24.7253 39.6072 24.8996 39.2065 25.4463L39.2072 25.447Z" fill="#413024"/>
<path fill-rule="evenodd" clip-rule="evenodd" d="M35.3738 25.6251C35.3738 25.6251 35.5117 25.6875 35.5371 25.5949C35.5624 25.5023 35.428 25.4117 35.428 25.4117C35.428 25.4117 35.1495 24.9212 34.2515 24.8629C33.3535 24.8053 32.8259 25.3211 32.8259 25.3211C32.8259 25.3211 33.3404 25.9633 34.1884 25.9674C35.0363 25.9715 35.2098 25.7019 35.3731 25.6244L35.3738 25.6251Z" fill="white"/>
<path fill-rule="evenodd" clip-rule="evenodd" d="M35.3738 25.6254C35.3738 25.6254 35.5117 25.6878 35.5371 25.5952C35.5625 25.5026 35.428 25.4121 35.428 25.4121C35.428 25.4121 35.4191 25.3963 35.3992 25.3695C35.3752 25.4416 35.3217 25.5644 35.227 25.6234C35.0891 25.7091 34.7921 25.9355 34.0882 25.9046C33.5106 25.8792 33.0249 25.4423 32.8685 25.2852C32.8411 25.3078 32.8267 25.3215 32.8267 25.3215C32.8267 25.3215 33.3412 25.9636 34.1891 25.9677C35.037 25.9719 35.2106 25.7023 35.3738 25.6247V25.6254Z" fill="#EDBA9D"/>
<path fill-rule="evenodd" clip-rule="evenodd" d="M35.4287 25.4117C35.4287 25.4117 35.1502 24.9212 34.2522 24.8629C33.3542 24.8053 32.8267 25.3211 32.8267 25.3211C32.8267 25.3211 32.8603 25.363 32.9234 25.4247C34.1829 24.7758 35.4287 25.411 35.4287 25.411V25.4117Z" fill="#ADA89F"/>
<path fill-rule="evenodd" clip-rule="evenodd" d="M34.8545 24.9476C34.7022 24.903 34.521 24.8694 34.3084 24.8563C34.0628 24.8413 33.8426 24.8632 33.6512 24.9037C33.6169 24.9785 33.5963 25.0608 33.5929 25.1472C33.5778 25.5067 33.8577 25.8099 34.2171 25.825C34.5766 25.8401 34.8798 25.5602 34.8949 25.2007C34.8984 25.1115 34.884 25.0251 34.8545 24.9462V24.9476Z" fill="#4C7012"/>
<path fill-rule="evenodd" clip-rule="evenodd" d="M34.2569 24.8679C34.0875 24.8611 33.9441 24.9928 33.9373 25.1622C33.9304 25.3317 34.0621 25.4744 34.2316 25.4819C34.401 25.4888 34.5437 25.3571 34.5506 25.1876C34.5574 25.0182 34.4257 24.8755 34.2569 24.8679Z" fill="#413024"/>
<path fill-rule="evenodd" clip-rule="evenodd" d="M34.5074 25.0231C34.4478 25.0203 34.3977 25.067 34.3956 25.126C34.3929 25.1857 34.4395 25.2357 34.4985 25.2385C34.5582 25.2405 34.6083 25.1946 34.611 25.1349C34.6138 25.0752 34.5671 25.0251 34.5074 25.0231Z" fill="white"/>
<path fill-rule="evenodd" clip-rule="evenodd" d="M35.4514 25.4299C35.4514 25.4299 35.0596 24.9668 34.2344 24.9353C33.4091 24.9037 32.9344 25.3853 32.7478 25.4052C32.5612 25.4251 32.188 25.137 32.188 25.137C32.188 25.137 32.5948 25.2831 32.8617 25.0979C32.9913 25.008 33.4324 24.8255 33.9373 24.7802C34.4704 24.7322 35.0795 24.8866 35.4514 25.4292V25.4299Z" fill="#413024"/>
<path fill-rule="evenodd" clip-rule="evenodd" d="M35.957 24.0733C35.957 24.0733 36.1861 24.5212 36.1442 25.7526C36.1093 26.7926 35.9144 27.5205 35.8554 27.7215H35.8493C35.8925 27.4883 36.051 26.5608 36.0167 25.588C35.9769 24.4636 35.5879 23.9073 35.5879 23.9073C35.5879 23.9073 35.7518 23.7556 35.9577 24.0733H35.957Z" fill="#CF8F5B"/>
<path fill-rule="evenodd" clip-rule="evenodd" d="M37.9951 24.1599C37.9951 24.1599 37.6075 24.5386 37.5814 25.8056C37.5553 27.0727 37.6219 26.3798 37.7941 25.5346C37.9662 24.6902 38.3271 24.3108 38.3552 24.2566C38.3833 24.2024 38.2132 23.9424 37.9957 24.1592L37.9951 24.1599Z" fill="#CF8F5B"/>
<path fill-rule="evenodd" clip-rule="evenodd" d="M32.0734 24.1967C32.0734 24.1967 32.3739 23.7186 32.9515 23.5779C33.5284 23.4373 34.3064 23.5498 34.9752 23.7282C35.6441 23.9065 35.7861 24.0142 35.9288 23.9017C36.0708 23.7892 36.0207 23.3111 35.8705 23.2548C35.7202 23.1986 33.5751 22.8048 32.8644 23.0675C32.1536 23.3296 32.0137 24.0938 32.0137 24.0938C32.0137 24.0938 31.9657 24.3188 32.0748 24.1967H32.0734Z" fill="#413024"/>
<path fill-rule="evenodd" clip-rule="evenodd" d="M34.801 24.7226C35.0665 24.7981 35.3567 24.4709 35.2044 24.1868C35.0521 23.9028 35.4692 23.6977 35.6743 24.4516C35.8794 25.2056 35.6578 25.6048 35.5631 25.4155C35.4692 25.2255 35.0768 24.8632 34.8325 24.7302L34.8003 24.7233L34.801 24.7226Z" fill="#CF8F5B"/>
<path fill-rule="evenodd" clip-rule="evenodd" d="M40.6938 24.5633C40.4283 24.6387 39.3526 24.4309 39.5776 24.0542C39.8027 23.6776 38.8237 23.843 38.6186 24.5969C38.4135 25.3508 38.8999 25.6842 38.9938 25.4942C39.046 25.3899 39.1729 25.1855 39.3567 25.0455C39.7711 24.7313 40.0873 24.6689 40.6938 24.5633Z" fill="#CF8F5B"/>
<path fill-rule="evenodd" clip-rule="evenodd" d="M39.2156 25.2142C39.2156 25.2142 39.5044 24.7072 40.5314 24.6839C41.5576 24.6605 42.2292 25.2375 42.2292 25.2375C42.2292 25.2375 41.699 24.5837 40.6939 24.5631C39.6889 24.5425 39.324 25.0351 39.2156 25.2142Z" fill="#BD814F"/>
<path fill-rule="evenodd" clip-rule="evenodd" d="M32.6311 25.0101C32.6311 25.0101 33.1799 24.5539 34.1383 24.6362C35.0966 24.7178 35.653 25.5568 35.6372 25.4862C35.6214 25.4155 35.393 24.7021 34.316 24.5402C33.2389 24.3783 32.7457 24.8598 32.6318 25.0101H32.6311Z" fill="#BD814F"/>
</svg>
