<svg width="85" height="212" viewBox="0 0 85 212" fill="none" xmlns="http://www.w3.org/2000/svg">
<path fill-rule="evenodd" clip-rule="evenodd" d="M36.1244 34.9234C36.1244 34.9234 36.9269 36.792 37.3357 39.0329C37.7446 41.2734 37.6893 42.1777 36.3334 42.861C34.9775 43.5446 31.9834 44.9316 30.8237 45.5608C29.664 46.1903 28.5682 47.7806 28.7634 50.7558C28.9584 53.731 29.6643 56.2444 29.6643 56.2444C29.6643 56.2444 47.3028 61.1833 49.9488 58.8462C52.5946 56.5091 55.9029 41.4541 52.4556 40.9184C52.285 40.8918 50.949 40.6886 50.7907 40.6678C47.748 40.2656 46.8905 40.7818 45.7809 38.0452C44.6136 35.166 45.4292 30.1831 45.4292 30.1831C45.4292 30.1831 39.7279 35.0383 36.125 34.9234H36.1244Z" fill="#825740"/>
<path fill-rule="evenodd" clip-rule="evenodd" d="M48.0166 48.8677C48.0166 48.8677 47.0858 53.7354 45.7189 55.8299C44.352 57.9243 47.5051 60.5924 47.8797 57.3954C48.2544 54.1983 48.0166 48.8677 48.0166 48.8677Z" fill="#5F3722"/>
<path fill-rule="evenodd" clip-rule="evenodd" d="M30.1705 111.069C30.1705 111.069 30.1317 114.072 31.3978 121.843C31.637 123.313 31.9054 125.059 32.1828 126.925C33.7239 122.057 36.08 114.908 36.796 112.74C32.7592 111.184 30.492 111.077 30.1705 111.069ZM35.7887 152.466C36.8736 160.224 38.389 171.737 38.2533 174.594C38.0434 179.004 34.9487 186.468 34.9487 186.468C34.9487 186.468 33.7545 187.451 35.1602 188.695C36.5659 189.94 37.9734 189.958 37.9734 189.958L38.3328 189.414C38.3181 189.178 38.3593 189.02 38.3593 189.02C38.3593 189.02 38.3593 189.02 38.9895 183.443C39.6196 177.865 40.2473 175.629 39.1588 166.19C38.6726 161.974 37.2892 157.019 35.7891 152.466L35.7887 152.466ZM44.8833 149.093C44.9392 147.1 44.9019 145.314 44.7018 144.1C43.9082 139.294 43.0223 138.228 43.0223 138.228C43.0223 138.228 43.5824 133.591 44.0738 128.343C41.4574 132.893 38.9583 137.069 38.9583 137.069C38.9583 137.069 40.7316 138.587 43.3334 143.967C44.1365 145.627 44.6126 147.338 44.8833 149.092V149.093Z" fill="#5F3722"/>
<path fill-rule="evenodd" clip-rule="evenodd" d="M30.612 54.716C31.2189 55.2374 32.6276 55.8715 35.8439 55.6099C40.0503 55.2679 43.4329 53.656 44.5687 53.0546C46.5315 43.6627 49.753 41.1694 51.2067 40.5121C51.9862 40.1594 52.3022 40.4455 52.4321 40.7724C52.419 40.7736 47.6909 41.298 45.2019 53.4802C45.575 54.5162 46.423 56.6574 47.7924 58.9713C49.7105 62.2124 48.2838 73.5826 48.2838 73.5826C48.2838 73.5826 49.7982 77.1834 51.8487 80.8657C53.8992 84.548 58.2193 92.1152 56.8087 100.492C55.3981 108.868 49.3102 119.121 49.3102 119.121C49.3102 119.121 44.7671 116.259 38.9811 113.655C33.1951 111.051 30.1304 111.069 30.1304 111.069C30.1304 111.069 29.2091 90.4195 30.4522 84.3087C31.6953 78.1979 31.6238 75.5796 30.8782 72.4251C30.1325 69.2708 29.1574 66.0799 29.1574 66.0799C29.1574 66.0799 25.0836 61.6269 30.0036 54.3585C30.0369 54.2943 30.0717 54.2292 30.1081 54.1626C31.2458 52.0926 33.2773 48.9453 32.7092 44.5965C32.6765 44.1052 33.3537 44.0205 33.3705 44.3423C33.8802 49.011 31.9172 52.3297 30.7254 54.5018C30.6853 54.5749 30.6474 54.6464 30.6114 54.7166L30.612 54.716Z" fill="#D5C1B5"/>
<path fill-rule="evenodd" clip-rule="evenodd" d="M36.7963 112.74C35.8465 115.616 32.0126 127.252 31.0204 130.708C29.8851 134.662 29.8375 135.501 31.1622 139.558C32.4866 143.614 38.0703 156.751 39.1591 166.19C40.2476 175.629 39.6202 177.865 38.9898 183.443C38.3597 189.02 38.3597 189.02 38.3597 189.02C38.3597 189.02 37.7852 191.218 41.6951 191.548C45.6051 191.879 45.904 189.672 45.8429 187.534C45.7817 185.397 46.1799 183.039 46.6203 180.844C47.0606 178.65 47.0096 177.409 46.01 174.402C45.0101 171.395 44.8262 167.631 44.9677 161.444C45.1091 155.257 45.9361 149.347 43.3343 143.967C40.7325 138.587 38.9592 137.069 38.9592 137.069C38.9592 137.069 46.6502 124.219 49.1738 119.035C48.3765 118.543 44.1817 115.995 38.9821 113.655C38.2041 113.305 37.4756 113.003 36.7969 112.741L36.7963 112.74Z" fill="#825740"/>
<path fill-rule="evenodd" clip-rule="evenodd" d="M34.985 186.379C34.2525 186.957 32.7126 188.276 31.1108 190.294C28.8922 193.089 29.4979 193.228 30.1705 193.23C30.8018 193.233 35.543 193.572 36.9511 192.747C37.0645 192.372 37.1828 192.008 37.2983 191.67C37.5706 190.872 37.7918 190.328 37.9669 189.958C37.8603 189.955 36.5102 189.89 35.1607 188.695C33.755 187.45 34.9492 186.467 34.9492 186.467L34.9853 186.379H34.985Z" fill="#BA9F8A"/>
<path fill-rule="evenodd" clip-rule="evenodd" d="M38.33 189.319C38.1497 189.554 37.8163 190.152 37.2983 191.67C36.4531 194.147 35.4626 197.984 37.1825 197.851C38.9023 197.719 46.0812 195.164 46.3284 192.021C46.5753 188.877 47.2525 186.878 47.691 184.433C48.1298 181.987 49.2241 180.479 49.2831 178.808C49.3378 177.263 48.1362 175.921 46.0735 174.595C47.0117 177.463 47.0508 178.697 46.6202 180.844C46.1799 183.038 45.7817 185.396 45.8428 187.534C45.9039 189.672 45.6051 191.879 41.6951 191.548C38.6832 191.293 38.3324 189.931 38.33 189.319Z" fill="#D4C1B5"/>
<path fill-rule="evenodd" clip-rule="evenodd" d="M48.9386 180.473C48.8719 181.005 48.7674 181.661 48.603 182.406C48.1165 184.611 48.295 187.892 48.2776 188.689C48.1761 188.884 47.3782 188.861 47.3804 188.726L47.4235 185.771C47.5182 185.334 47.6086 184.891 47.6909 184.433C47.9827 182.806 48.5645 181.594 48.9389 180.473H48.9386Z" fill="#A68C7A"/>
<path fill-rule="evenodd" clip-rule="evenodd" d="M40.1244 178.239C40.1244 178.239 38.9778 185.868 38.8455 187.808C38.7132 189.748 42.1969 177.687 40.1244 178.239Z" fill="#96664C"/>
<path fill-rule="evenodd" clip-rule="evenodd" d="M30.937 111.48C30.937 111.48 31.0397 114.341 31.635 118.751C32.2303 123.16 32.6275 124.307 32.5667 123.939C32.5059 123.57 32.0539 111.849 32.0539 111.849C32.0539 111.849 31.6331 111.35 30.937 111.48Z" fill="#825740"/>
<path fill-rule="evenodd" clip-rule="evenodd" d="M37.4588 113.649L39.0005 114.442C39.0005 114.442 36.7901 118.679 34.1795 124.712C31.5689 130.746 31.2603 131.429 31.2603 131.429C31.2603 131.429 32.9777 126.402 37.4591 113.649H37.4588Z" fill="#96664C"/>
<path fill-rule="evenodd" clip-rule="evenodd" d="M36.7959 112.74L36.4097 113.911C40.2885 114.257 47.0862 117.802 48.4424 120.476C48.7166 119.951 48.9629 119.466 49.1728 119.035C48.3755 118.542 44.1807 115.994 38.9812 113.655C38.2032 113.304 37.4746 113.002 36.7959 112.74Z" fill="#5F3722"/>
<path fill-rule="evenodd" clip-rule="evenodd" d="M29.9141 90.0601C29.9141 90.0601 27.5517 99.6264 27.9034 104.632C28.2551 109.638 28.2612 108.297 28.8269 110.281C29.3925 112.264 29.6431 113.166 29.6431 113.166C29.6431 113.166 30.4083 114.306 30.3851 113.999C30.3618 113.692 29.9416 106.179 29.9416 106.179C29.9416 106.179 30.3276 107.412 30.7356 108.271C31.1435 109.131 31.3418 109.319 31.5955 109.186C31.8491 109.054 31.5762 107.576 31.2661 106.584C30.9559 105.592 31.0879 104.225 30.735 102.913C30.3823 101.601 29.8463 100.83 29.8463 100.83C29.8497 96.6302 29.8087 94.723 29.9141 90.0601Z" fill="#6B412B"/>
<path fill-rule="evenodd" clip-rule="evenodd" d="M55.5538 92.8037C56.0201 95.1589 56.1671 97.701 55.7249 100.326C54.377 108.331 48.5592 118.128 48.5592 118.128C48.5592 118.128 48.2099 117.908 47.5835 117.536C48.7811 115.527 50.8933 111.53 53.2873 104.958C55.2543 99.5572 55.6326 95.4608 55.5538 92.8037Z" fill="#B99E8A"/>
<path fill-rule="evenodd" clip-rule="evenodd" d="M49.11 75.4388C49.7505 76.8295 50.3018 78.0821 51.4325 80.1124L51.5694 80.3584C50.6205 80.9662 49.7197 81.975 47.4678 87.155C45.2159 92.335 45.0341 95.4296 45.3479 98.3782C45.6621 101.327 45.7898 101.214 45.5298 104.263C45.2697 107.312 44.5837 111.514 44.0562 112.327C43.5288 113.141 43.1648 113.129 43.1648 113.129C43.1648 113.129 42.9506 114.75 42.5115 115.341L42.2478 115.208C42.1494 114.028 41.6775 108.42 41.5492 107.907C41.4059 107.334 41.0419 110.498 41.0419 110.498C41.0419 110.498 41.0309 110.906 41.0447 112.941C41.0505 113.8 41.0428 114.309 41.0318 114.611C40.6092 114.407 40.1765 114.202 39.7355 113.999L39.4984 107.764C39.4984 107.764 39.271 110.318 38.8701 111.92C38.6874 112.65 38.4313 113.071 38.2061 113.314L38.0438 113.245C37.9534 113.025 37.9078 112.783 37.9213 112.517C38.027 110.428 37.7624 104.96 42.9659 91.2015C47.3388 79.6397 46.4279 75.851 49.1091 75.4385L49.11 75.4388Z" fill="#A38976"/>
<path d="M32.9839 93.9248C32.9869 93.9324 34.0825 96.5703 40.4494 98.5153L40.3473 98.8515C33.8212 96.8575 33.1486 94.3584 33.1452 94.3505L32.9839 93.9248ZM33.0047 100.372C33.016 100.379 36.9095 102.888 40.7134 101.851L40.8057 102.19C36.8489 103.269 33.5217 100.997 33.5101 100.989L33.0044 100.372H33.0047Z" fill="#B99E8A"/>
<path fill-rule="evenodd" clip-rule="evenodd" d="M36.124 34.9234C36.124 34.9234 36.9265 36.792 37.3354 39.0329C37.3675 39.2092 37.3968 39.3773 37.4228 39.5377C38.3203 39.806 39.6841 39.8372 41.1974 38.5491C42.8261 37.1627 44.274 35.4065 45.155 34.2486C45.1141 32.1034 45.4285 30.1831 45.4285 30.1831C45.4285 30.1831 39.7272 35.0383 36.1243 34.9234H36.124Z" fill="#6B412B"/>
<path fill-rule="evenodd" clip-rule="evenodd" d="M31.8347 45.4087C31.4891 45.5798 31.1884 45.7329 30.9669 45.853C29.9792 46.389 29.046 47.7434 29.2122 50.2773C29.3152 51.8477 29.585 53.2665 29.7757 54.1188C29.7757 54.1188 29.1658 51.2087 29.8313 48.445C30.2579 46.6732 31.208 45.8041 31.8347 45.4087Z" fill="#96664C"/>
<path fill-rule="evenodd" clip-rule="evenodd" d="M37.8143 100.475C37.2504 101.13 36.8969 103.514 36.9446 105.632C36.9925 107.75 36.8257 109.689 36.8257 109.689C36.8257 109.689 37.8867 110.457 38.1706 107.969C38.2925 106.899 37.9967 105.095 37.8338 104.078C37.6181 102.73 37.814 100.475 37.814 100.475L37.8143 100.475Z" fill="#6B412B"/>
<path fill-rule="evenodd" clip-rule="evenodd" d="M52.5133 40.9277C53.4096 41.1157 54.4898 41.4445 55.2122 42.0061C56.6503 43.1243 57.3119 44.4032 56.518 48.4381C55.7241 52.4731 55.6605 51.0573 55.0949 55.2576C54.5293 59.4582 54.3679 60.5125 53.7555 62.9474C53.1431 65.3823 52.4393 68.0036 52.1133 69.9566C51.7872 71.9093 51.6564 75.4159 49.8076 80.6958C47.9585 85.9758 46.7444 88.0217 45.7571 91.12C44.7697 94.2183 44.7499 94.2355 44.7187 94.7818C44.6875 95.3285 44.8159 95.6555 44.6472 96.3278C44.4785 97.0001 44.6674 97.5422 44.8089 98.3431C44.9503 99.1444 45.4439 100.532 45.1337 103.118C44.8238 105.704 44.6955 106.861 44.6035 107.768C44.5115 108.675 44.4785 110.781 44.1919 111.817C43.9052 112.853 43.4074 112.684 43.3145 111.748C43.2216 110.812 43.2604 108.885 43.2106 107.683C43.1608 106.481 43.1825 105.957 43.1825 105.957C43.1825 105.957 42.7413 109.48 42.7917 110.66C42.8421 111.839 42.7996 115.307 42.2334 115.237C41.6671 115.169 41.3585 110.66 41.3362 109.822C41.3142 108.984 41.4679 106.944 41.4679 106.944C41.4679 106.944 41.2366 106.757 41.1485 107.33C41.0602 107.903 40.7057 110.821 40.7057 110.821C40.7057 110.821 40.7299 113.801 40.6306 114.76C40.5313 115.72 40.2828 116.106 39.9176 116.074C39.5525 116.043 39.4513 115.611 39.3236 113.955C39.1958 112.299 39.2316 110.935 39.2716 110.318C39.3117 109.699 39.385 107.077 39.385 107.077C39.385 107.077 39.1094 106.757 39.0541 107.253C38.999 107.749 38.831 109.529 38.831 109.529C38.831 109.529 38.6571 111.685 38.4145 112.523C38.1718 113.361 37.6303 113.607 37.5374 112.888C37.4445 112.17 37.5038 109.944 37.5362 109.487C37.5683 109.03 37.634 105.598 37.5102 104.519C37.3865 103.44 37.3535 101.557 37.6688 100.767C39.1396 97.0838 39.2603 96.0204 40.3583 92.4267C40.9719 90.4187 42.4381 86.9533 43.343 81.6352C44.5943 74.2822 46.9736 69.6849 46.9739 69.4976C46.9742 69.2082 47.663 49.7757 47.8067 47.7108C48.0236 44.5917 50.582 41.3164 52.5133 40.9283V40.9277Z" fill="#825740"/>
<path fill-rule="evenodd" clip-rule="evenodd" d="M30.5405 55.2203C31.1474 55.7416 32.5562 56.3757 35.7725 56.1141C39.9596 55.7737 43.3296 54.1752 44.4808 53.5674C43.5591 54.2586 38.1414 56.9022 34.6788 56.7641C31.0894 56.6208 30.5405 55.2203 30.5405 55.2203Z" fill="#E0D0C4"/>
<path fill-rule="evenodd" clip-rule="evenodd" d="M32.2847 52.665C32.2847 52.665 33.1865 53.2444 33.7087 54.4683C33.8523 54.8054 33.94 55.1054 33.9914 55.3631C34.1509 55.3661 34.3159 55.3673 34.4867 55.3664C34.2493 54.4087 33.6745 53.1039 32.2847 52.665Z" fill="#96664C"/>
<path fill-rule="evenodd" clip-rule="evenodd" d="M40.1751 52.388C40.1751 52.388 39.2464 52.7089 38.3669 53.4132C37.7609 53.8985 37.2371 54.726 36.9478 55.2471C37.1846 55.2193 37.4184 55.1875 37.6491 55.1523C38.0479 54.3655 38.8537 53.1025 40.1747 52.3877L40.1751 52.388Z" fill="#96664C"/>
<path fill-rule="evenodd" clip-rule="evenodd" d="M35.4651 55.6366C35.2521 54.8176 34.8469 53.8703 34.0869 53.0024C34.0869 53.0024 34.596 54.1945 34.6055 55.6693C34.8753 55.6662 35.1617 55.6555 35.4651 55.6366Z" fill="#5F3722"/>
<path fill-rule="evenodd" clip-rule="evenodd" d="M36.124 34.9235C36.124 34.9235 36.447 35.6759 36.7878 36.7986C38.8162 37.5647 40.122 36.7183 42.3103 35.3721C43.6766 34.5315 44.5885 33.5334 45.1822 32.675C45.2543 31.247 45.4285 30.1836 45.4285 30.1836C45.4285 30.1836 39.7272 35.0388 36.1243 34.9239L36.124 34.9235Z" fill="#5F3722"/>
<path fill-rule="evenodd" clip-rule="evenodd" d="M45.5755 15.6927C48.68 18.4629 48.3426 22.059 47.5087 24.9123C46.6747 27.7652 46.1347 29.7164 45.6565 31.2333C45.1783 32.7502 45.0829 33.0341 42.8799 34.4362C40.677 35.8382 38.7988 36.843 37.3235 36.2413C35.8481 35.6396 34.5493 34.8365 33.8538 33.0992C33.1583 31.3623 32.8506 29.882 32.31 28.406C31.7694 26.9304 32.2428 26.5459 32.2324 24.9789C32.222 23.4118 32.0552 23.3397 31.9503 21.861C31.8886 20.9916 31.5243 19.1061 33.213 16.828C35.977 13.0989 42.1664 12.6506 45.5758 15.693L45.5755 15.6927Z" fill="#825740"/>
<path fill-rule="evenodd" clip-rule="evenodd" d="M47.5061 23.9775C47.7304 23.8611 48.0277 23.7801 48.3422 23.8965C48.9998 24.1401 49.4585 25.4131 48.6297 27.0502C47.801 28.6872 47.4202 29.4701 47.2234 29.7491C47.0401 30.0092 46.4167 30.268 46.1401 29.6043C46.4356 28.5381 46.7693 27.2002 47.3215 24.8903C47.3952 24.5826 47.4566 24.2785 47.5064 23.9778L47.5061 23.9775Z" fill="#825740"/>
<path fill-rule="evenodd" clip-rule="evenodd" d="M46.2859 29.8441C46.2312 29.783 46.1817 29.7039 46.1401 29.6039C46.4356 28.5378 46.7693 27.1999 47.3215 24.89C47.3622 24.7201 47.3992 24.5514 47.4325 24.3839C47.6027 24.3197 47.8187 24.2733 48.08 24.2837C48.8146 24.313 48.8571 25.7444 48.5925 26.3895C48.3278 27.0346 48.3278 27.0346 48.3278 27.0346C48.3278 27.0346 48.587 26.1967 48.5262 25.4691C48.4656 24.7415 47.8426 24.769 47.6772 24.9508C47.5119 25.1326 47.236 25.6289 47.3573 26.2242C47.4786 26.8194 47.3463 27.558 47.0376 27.7567C46.784 27.9195 46.3076 29.2198 46.2859 29.8444V29.8441Z" fill="#5F3722"/>
<path fill-rule="evenodd" clip-rule="evenodd" d="M35.1797 24.3042C34.6504 24.0661 34.7103 24.5242 33.8317 24.7965C32.9535 25.0688 35.1088 26.0946 35.3667 25.8764C35.6246 25.6582 35.907 24.8597 35.1794 24.3042H35.1797Z" fill="#784C35"/>
<path fill-rule="evenodd" clip-rule="evenodd" d="M39.0385 24.3042C39.5678 24.0661 39.5079 24.5242 40.3864 24.7965C41.2647 25.0688 39.1094 26.0946 38.8515 25.8764C38.5935 25.6582 38.3112 24.8597 39.0388 24.3042H39.0385Z" fill="#784C35"/>
<path fill-rule="evenodd" clip-rule="evenodd" d="M35.5039 24.7713C35.5039 24.7713 35.9119 25.1463 36.0066 25.9885C36.101 26.8306 35.8501 27.8061 35.8501 27.8061C35.8501 27.8061 36.7486 25.0961 35.5039 24.771V24.7713Z" fill="#5F3722"/>
<path fill-rule="evenodd" clip-rule="evenodd" d="M34.7362 31.7735C34.7362 31.7735 34.4932 31.7393 34.4538 31.5434C34.4144 31.3475 34.5378 31.4502 34.6466 31.5343C34.7554 31.6183 34.8886 31.6088 34.9036 31.5575C34.9183 31.5061 35.0518 30.8018 35.714 30.6105C36.3762 30.4192 36.4655 30.6759 36.6137 30.7318C36.7619 30.7877 36.8905 30.7037 36.9746 30.6291C37.0586 30.5545 37.6071 30.2792 38.3485 30.7737C39.0898 31.2684 39.7304 31.6504 39.8193 31.7109C39.9082 31.7714 40.0909 31.7295 40.0763 31.6223C40.0616 31.515 40.2147 31.515 40.3036 31.6223C40.3926 31.7295 39.9479 31.8463 39.9479 31.8463C39.9479 31.8463 39.3172 32.7144 38.413 33.2229C37.5084 33.7314 36.2234 33.6801 35.7046 33.2648C35.1857 32.8495 34.87 32.0204 34.7365 31.7735H34.7362Z" fill="#632F13"/>
<path fill-rule="evenodd" clip-rule="evenodd" d="M36.7912 32.8587C36.7912 32.8587 37.3101 32.9519 37.755 32.6769C38.2 32.4016 38.5508 32.3502 38.5658 32.5883C38.5804 32.8263 37.686 33.0454 37.1078 33.0082C36.5296 32.9709 36.6332 32.8123 36.7915 32.8587H36.7912Z" fill="#8F3B2E"/>
<path fill-rule="evenodd" clip-rule="evenodd" d="M35.3914 31.6828C35.3914 31.6828 35.5772 31.7228 35.9182 31.9306C36.2596 32.1384 36.8775 32.3254 37.3209 32.1457C37.7646 31.966 38.0766 31.7864 38.4448 31.7696C38.4448 31.7696 37.3258 31.4783 36.7439 31.4991C36.0695 31.5232 35.9867 31.71 35.3911 31.6828H35.3914Z" fill="white"/>
<path fill-rule="evenodd" clip-rule="evenodd" d="M32.7983 25.0224C32.7983 25.0224 33.5067 24.3556 34.3452 24.5356C35.1841 24.7156 35.3561 25.3775 35.4465 25.3167C35.537 25.2556 34.4137 23.4752 32.7983 25.0224Z" fill="#542F1B"/>
<path fill-rule="evenodd" clip-rule="evenodd" d="M32.9819 25.4675C32.9819 25.4675 33.2542 25.8981 33.6493 26.0445C34.0448 26.1908 34.4237 26.0665 34.7406 26.0069C35.0575 25.947 35.3071 25.9852 35.3071 25.9852C35.3071 25.9852 35.3948 26.0445 35.4407 25.9256C35.4865 25.8067 35.3145 25.749 35.3145 25.749C35.3145 25.749 35.0636 25.0473 34.1642 25.0039C33.2649 24.9605 33.0874 25.4067 32.9822 25.4675H32.9819Z" fill="white"/>
<path fill-rule="evenodd" clip-rule="evenodd" d="M32.9818 25.4676C32.9818 25.4676 33.254 25.8982 33.6492 26.0445C34.0446 26.1909 34.4235 26.0665 34.7404 26.007C35.0573 25.9471 35.307 25.9853 35.307 25.9853C35.307 25.9853 35.3283 25.9996 35.3552 25.9999C35.1529 25.7652 34.3104 26.1231 33.7882 25.9791C33.3983 25.8716 33.1382 25.5687 33.0313 25.4224C33.012 25.4434 32.9961 25.4593 32.9814 25.4676H32.9818Z" fill="#96664C"/>
<path fill-rule="evenodd" clip-rule="evenodd" d="M32.9819 25.4675C32.9819 25.4675 33.0214 25.5299 33.0916 25.6148C33.4516 25.4186 34.5172 24.9719 35.4324 25.9436C35.4352 25.9381 35.4379 25.932 35.4404 25.9256C35.4862 25.8067 35.3142 25.749 35.3142 25.749C35.3142 25.749 35.0633 25.0473 34.1639 25.0039C33.2646 24.9605 33.0871 25.4067 32.9819 25.4675Z" fill="#ADA89F"/>
<path fill-rule="evenodd" clip-rule="evenodd" d="M34.9723 25.2974C34.7942 25.1513 34.5338 25.022 34.1638 25.004C33.9942 24.9957 33.8505 25.0049 33.728 25.0257C33.6766 25.1345 33.655 25.2589 33.6715 25.3872C33.7179 25.745 34.0455 25.9975 34.403 25.951C34.7346 25.9082 34.9757 25.6234 34.9723 25.297V25.2974Z" fill="#625D54"/>
<path d="M34.3544 25.5753C34.5045 25.5559 34.6104 25.4185 34.591 25.2683C34.5716 25.1182 34.4341 25.0123 34.284 25.0317C34.1339 25.0511 34.028 25.1886 34.0474 25.3387C34.0668 25.4888 34.2043 25.5948 34.3544 25.5753Z" fill="#191716"/>
<path fill-rule="evenodd" clip-rule="evenodd" d="M32.6025 25.3231C32.6025 25.3231 32.7495 25.4408 32.8525 25.4741C32.9555 25.5077 33.0016 25.4967 33.0016 25.4967C33.0016 25.4967 33.3674 25.0304 34.1583 25.0814C34.9488 25.1322 35.3143 25.7488 35.3143 25.7488C35.3143 25.7488 35.0326 24.8192 34.1283 24.7276C33.2241 24.6359 32.8247 25.332 32.6025 25.3231Z" fill="#191716"/>
<path d="M33.8797 25.6511C33.9855 25.6374 34.0601 25.5406 34.0464 25.4349C34.0327 25.3291 33.9359 25.2545 33.8301 25.2682C33.7244 25.2819 33.6498 25.3787 33.6635 25.4844C33.6771 25.5902 33.774 25.6648 33.8797 25.6511Z" fill="white"/>
<path fill-rule="evenodd" clip-rule="evenodd" d="M39.0981 25.014C39.0981 25.014 39.5969 24.2895 40.7459 24.3888C41.8952 24.4881 42.4562 25.1467 42.4562 25.1467C42.4562 25.1467 42.0012 24.328 40.7281 24.287C39.4548 24.2461 39.1232 24.8851 39.0981 25.014Z" fill="#542F1B"/>
<path fill-rule="evenodd" clip-rule="evenodd" d="M39.0265 25.8195C39.0265 25.8195 38.8923 25.9787 38.7958 25.8436C38.6992 25.7086 38.947 25.5255 38.947 25.5255C38.947 25.5255 39.6426 24.863 40.5147 24.8792C41.3868 24.8954 42.0478 25.4549 42.156 25.4928C42.2642 25.5304 42.2966 25.5344 42.2688 25.531C42.241 25.5277 41.5564 26.1767 40.6586 26.1773C39.7608 26.1776 39.3345 25.7581 39.0265 25.8195Z" fill="white"/>
<path fill-rule="evenodd" clip-rule="evenodd" d="M39.0267 25.8191C39.0267 25.8191 38.9427 25.9188 38.8599 25.8937C39.1361 25.4268 39.982 26.114 40.767 26.0364C41.4057 25.9735 41.9228 25.6202 42.1156 25.4717C42.133 25.4821 42.1468 25.4894 42.1562 25.4928C42.2644 25.5307 42.2968 25.5343 42.269 25.531C42.2412 25.5276 41.5567 26.1767 40.6589 26.1773C39.761 26.1779 39.3347 25.7577 39.0267 25.8194V25.8191Z" fill="#96664C"/>
<path fill-rule="evenodd" clip-rule="evenodd" d="M38.8896 25.5747C38.9211 25.5445 38.9471 25.5255 38.9471 25.5255C38.9471 25.5255 39.6426 24.863 40.5148 24.8792C41.3869 24.8954 42.0479 25.4549 42.1561 25.4928C42.2642 25.5307 42.2966 25.5344 42.2688 25.531C42.26 25.5298 42.1842 25.5952 42.0561 25.6847C40.5774 24.9009 39.3532 25.344 38.8896 25.5747Z" fill="#ADA89F"/>
<path fill-rule="evenodd" clip-rule="evenodd" d="M40.0821 24.9244C40.2193 24.8939 40.3644 24.8764 40.5148 24.8792C40.758 24.8838 40.9848 24.9305 41.1877 24.9965C41.2579 25.1175 41.2913 25.2618 41.2729 25.4115C41.2286 25.7773 40.8964 26.038 40.5307 25.994C40.1649 25.9497 39.9042 25.6175 39.9482 25.2517C39.9632 25.1282 40.0112 25.0164 40.0821 24.9247V24.9244Z" fill="#625D54"/>
<path d="M40.577 25.6094C40.7305 25.628 40.87 25.5186 40.8885 25.3651C40.9071 25.2116 40.7976 25.0721 40.6441 25.0536C40.4906 25.035 40.3512 25.1445 40.3327 25.298C40.3141 25.4515 40.4235 25.5909 40.577 25.6094Z" fill="#191716"/>
<path fill-rule="evenodd" clip-rule="evenodd" d="M38.8133 25.6636C38.8133 25.6636 39.121 25.2853 39.8239 25.1071C40.5267 24.929 41.0166 24.9974 41.5141 25.2361C42.0116 25.4747 42.2007 25.6199 42.4327 25.5304C42.6643 25.4408 42.6915 25.2935 42.6915 25.2935C42.6915 25.2935 42.5748 25.3641 42.4431 25.2871C42.3113 25.2101 39.9058 23.6886 38.813 25.6639L38.8133 25.6636Z" fill="#191716"/>
<path d="M39.9799 25.5642C40.0857 25.577 40.1819 25.5015 40.1947 25.3957C40.2075 25.2898 40.132 25.1936 40.0262 25.1809C39.9203 25.1681 39.8241 25.2435 39.8113 25.3494C39.7985 25.4553 39.874 25.5514 39.9799 25.5642Z" fill="white"/>
<path fill-rule="evenodd" clip-rule="evenodd" d="M35.1833 28.5479C35.1833 28.5479 34.9709 28.733 34.9611 29.148C34.9513 29.563 35.3904 29.7042 35.5683 29.7219C35.7461 29.7396 35.7559 29.7219 35.7559 29.7219C35.7559 29.7219 34.7784 29.6336 35.183 28.5482L35.1833 28.5479Z" fill="#5F3722"/>
<path fill-rule="evenodd" clip-rule="evenodd" d="M35.6509 27.9667C35.6509 27.9667 36.0124 27.665 36.6755 27.6754C37.3389 27.6861 37.7059 28.0354 37.7059 28.0354C37.7059 28.0354 37.2913 27.5697 36.622 27.5645C35.9528 27.5593 35.6509 27.9667 35.6509 27.9667Z" fill="#96664C"/>
<path d="M36.3956 28.6338C36.5768 28.6338 36.7238 28.5262 36.7238 28.3933C36.7238 28.2605 36.5768 28.1528 36.3956 28.1528C36.2143 28.1528 36.0674 28.2605 36.0674 28.3933C36.0674 28.5262 36.2143 28.6338 36.3956 28.6338Z" fill="#96664C"/>
<path fill-rule="evenodd" clip-rule="evenodd" d="M36.2759 29.5207C36.2759 29.5207 36.0956 29.4213 35.8118 29.4458C35.5279 29.4702 35.5575 29.3908 35.6489 29.289C35.7402 29.1876 35.9202 29.2362 36.0782 29.3443C36.2362 29.4522 36.2756 29.521 36.2756 29.521L36.2759 29.5207Z" fill="#241714"/>
<path fill-rule="evenodd" clip-rule="evenodd" d="M36.9761 29.5165C36.9761 29.5165 37.0772 29.4214 37.3614 29.4459C37.6453 29.4703 37.6157 29.3905 37.5243 29.2891C37.366 29.1131 37.0231 29.3438 36.9761 29.5165Z" fill="#241714"/>
<path fill-rule="evenodd" clip-rule="evenodd" d="M38.2802 28.3623C38.2802 28.3623 38.744 28.6975 38.7343 29.1211C38.7245 29.5449 38.3248 29.6815 38.1469 29.7081C37.9691 29.7347 37.7271 29.6595 37.7271 29.6595C37.7271 29.6595 38.2854 29.7625 38.4776 29.3772C38.6698 28.9915 38.4033 28.6315 38.2802 28.3623Z" fill="#5F3722"/>
<path fill-rule="evenodd" clip-rule="evenodd" d="M32.6345 23.914C33.2295 23.748 34.7287 24.1746 35.1562 24.4998C35.4205 24.7012 35.4997 24.8766 35.6204 24.8384C35.8441 24.7675 36.1377 24.2679 35.5143 23.7786C34.8909 23.2894 33.2227 23.2897 32.6455 23.5974C32.0682 23.9051 32.3543 24.0371 32.6342 23.914H32.6345Z" fill="#191716"/>
<path fill-rule="evenodd" clip-rule="evenodd" d="M38.0836 24.4595C38.0836 24.4595 38.4189 24.8067 38.6908 24.5983C38.9625 24.3898 39.7112 24.0137 40.7985 23.8703C41.8861 23.727 42.8037 23.9143 42.9165 24.0186C43.029 24.1228 43.2652 23.9715 43.0451 23.7793C42.8248 23.5871 41.5252 23.1204 40.2833 23.2485C39.0414 23.3762 37.4398 23.5418 38.084 24.4595H38.0836Z" fill="#191716"/>
<path fill-rule="evenodd" clip-rule="evenodd" d="M38.0037 24.8838C38.0037 24.8838 37.8316 25.3996 37.7855 25.876C37.7391 26.3524 37.8848 27.4107 37.8848 27.4107C37.8848 27.4107 37.865 26.0282 38.0037 24.8838Z" fill="#5F3722"/>
<path fill-rule="evenodd" clip-rule="evenodd" d="M33.0985 25.9424C33.0985 25.9424 33.4028 26.2412 33.9119 26.3179C34.4213 26.3947 35.0628 26.1801 35.0628 26.1801C35.0628 26.1801 33.6671 26.4408 33.0981 25.9424H33.0985Z" fill="#5F3722"/>
<path fill-rule="evenodd" clip-rule="evenodd" d="M39.5107 26.0361C39.5107 26.0361 39.879 26.4267 40.4477 26.4643C41.0164 26.5018 41.6978 26.096 41.6978 26.096C41.6978 26.096 40.1925 26.6785 39.5107 26.0361Z" fill="#5F3722"/>
</svg>
