<svg width="85" height="212" viewBox="0 0 85 212" fill="none" xmlns="http://www.w3.org/2000/svg">
<path fill-rule="evenodd" clip-rule="evenodd" d="M35.2559 34.6442C35.2559 34.6442 36.1146 36.5158 36.5519 38.7599C36.9891 41.004 36.9303 41.909 35.4797 42.5935C34.029 43.278 30.826 44.6671 29.585 45.2971C28.3445 45.9272 27.1721 47.52 27.3807 50.4997C27.5892 53.4789 28.3445 55.9963 28.3445 55.9963C28.3445 55.9963 47.2151 60.9424 50.0457 58.602C52.8762 56.2615 56.4157 41.1848 52.7275 40.6484C52.5451 40.6217 51.1157 40.418 50.9463 40.3973C47.691 39.9949 46.774 40.5117 45.5864 37.771C44.3372 34.8877 45.2101 29.8975 45.2101 29.8975C45.2101 29.8975 39.1107 34.7597 35.2559 34.6448V34.6442Z" fill="#825740"/>
<path fill-rule="evenodd" clip-rule="evenodd" d="M47.9788 48.6089C47.9788 48.6089 46.9828 53.4836 45.5207 55.5812C44.0581 57.6788 47.4315 60.3509 47.8323 57.149C48.2331 53.947 47.9788 48.6089 47.9788 48.6089Z" fill="#5F3722"/>
<path fill-rule="evenodd" clip-rule="evenodd" d="M28.8873 110.9C28.8873 110.9 28.8459 113.907 30.2002 121.69C30.4561 123.161 30.7431 124.91 31.0398 126.778C32.6887 121.904 35.2089 114.744 35.975 112.573C31.6563 111.014 29.2309 110.906 28.8867 110.899L28.8873 110.9ZM34.8979 152.356C36.0584 160.126 37.68 171.655 37.5346 174.516C37.3103 178.932 33.9994 186.406 33.9994 186.406C33.9994 186.406 32.7219 187.391 34.226 188.637C35.73 189.884 37.2357 189.902 37.2357 189.902L37.6201 189.357C37.6043 189.12 37.6484 188.962 37.6484 188.962C37.6484 188.962 37.6484 188.962 38.3226 183.377C38.9967 177.791 39.6681 175.551 38.5034 166.099C37.9833 161.877 36.5032 156.916 34.8985 152.356L34.8979 152.356ZM44.6278 148.978C44.6877 146.982 44.648 145.194 44.4334 143.978C43.5845 139.164 42.637 138.098 42.637 138.098C42.637 138.098 43.2365 133.454 43.762 128.198C40.9631 132.755 38.2894 136.937 38.2894 136.937C38.2894 136.937 40.1865 138.457 42.9697 143.845C43.829 145.508 44.3381 147.222 44.6278 148.978Z" fill="#5F3722"/>
<path fill-rule="evenodd" clip-rule="evenodd" d="M29.3586 54.4654C30.0077 54.987 31.515 55.6225 34.956 55.3606C39.4561 55.0181 43.0751 53.4041 44.29 52.8018C46.3897 43.3964 49.8362 40.8997 51.3914 40.2414C52.2256 39.8879 52.5638 40.1749 52.7026 40.5022C52.6885 40.5033 47.6302 41.0288 44.9674 53.2282C45.3665 54.2655 46.2738 56.4099 47.7391 58.727C49.7915 61.973 48.2646 73.3594 48.2646 73.3594C48.2646 73.3594 49.8852 76.9654 52.0786 80.653C54.2726 84.3407 58.8941 91.9191 57.3852 100.307C55.8762 108.695 49.3629 118.963 49.3629 118.963C49.3629 118.963 44.5029 116.097 38.3125 113.489C32.1227 110.881 28.844 110.9 28.844 110.9C28.844 110.9 27.8273 90.2299 28.8794 84.0564C30.0643 77.1042 28.8271 70.2533 27.8028 65.8452C27.8028 65.8452 23.4443 61.386 28.7079 54.1065C28.7433 54.0423 28.7808 53.9769 28.8195 53.9105C30.0366 51.8374 32.2098 48.6856 31.6021 44.3303C31.5673 43.8381 32.2915 43.7537 32.3095 44.076C32.8546 48.7515 30.7543 52.0748 29.48 54.2503C29.437 54.3232 29.3967 54.3951 29.3581 54.4654H29.3586Z" fill="#D5C1B5"/>
<path fill-rule="evenodd" clip-rule="evenodd" d="M35.9749 112.574C34.9587 115.454 30.8572 127.106 29.7954 130.568C28.5805 134.528 28.5299 135.367 29.9468 139.43C31.3637 143.492 37.3373 156.649 38.5021 166.101C39.6669 175.553 38.9954 177.792 38.3213 183.378C37.6471 188.964 37.6471 188.964 37.6471 188.964C37.6471 188.964 37.0324 191.164 41.2155 191.495C45.3987 191.827 45.7184 189.616 45.6525 187.476C45.5871 185.335 46.0135 182.973 46.484 180.776C46.955 178.578 46.9006 177.336 45.8311 174.324C44.7616 171.313 44.5645 167.543 44.7159 161.347C44.8672 155.152 45.7521 149.233 42.9684 143.845C40.1847 138.458 38.2881 136.937 38.2881 136.937C38.2881 136.937 46.6632 124.154 49.363 118.963C48.5097 118.47 41.5101 114.836 38.3126 113.489C35.115 112.142 36.7007 112.836 35.9749 112.574Z" fill="#825740"/>
<path fill-rule="evenodd" clip-rule="evenodd" d="M34.0371 186.319C33.2535 186.897 31.6062 188.218 29.892 190.239C27.5184 193.038 28.1664 193.177 28.8862 193.18C29.5615 193.182 34.6339 193.522 36.1407 192.696C36.2621 192.32 36.3884 191.956 36.512 191.617C36.8034 190.818 37.0402 190.273 37.227 189.902C37.1132 189.899 35.6685 189.834 34.225 188.638C32.7209 187.392 33.9984 186.407 33.9984 186.407L34.0371 186.319Z" fill="#BA9F8A"/>
<path fill-rule="evenodd" clip-rule="evenodd" d="M37.6155 189.262C37.4227 189.498 37.066 190.096 36.5117 191.617C35.6077 194.097 34.5475 197.94 36.3875 197.807C38.2275 197.675 45.9078 195.116 46.1719 191.968C46.436 188.82 47.1602 186.818 47.6296 184.369C48.099 181.92 49.2698 180.41 49.333 178.736C49.3912 177.189 48.1061 175.845 45.8991 174.517C46.9027 177.389 46.9446 178.625 46.4839 180.774C46.0129 182.972 45.5865 185.333 45.6524 187.474C45.7177 189.615 45.3981 191.825 41.2155 191.494C37.9928 191.239 37.6177 189.875 37.6155 189.262V189.262Z" fill="#D4C1B5"/>
<path fill-rule="evenodd" clip-rule="evenodd" d="M48.9652 180.404C48.8939 180.936 48.7823 181.594 48.6064 182.339C48.0858 184.548 48.2769 187.834 48.2579 188.631C48.1495 188.827 47.2957 188.803 47.2979 188.668L47.3436 185.709C47.4449 185.271 47.5418 184.828 47.6295 184.369C47.9415 182.74 48.5639 181.526 48.9647 180.403L48.9652 180.404Z" fill="#A68C7A"/>
<path fill-rule="evenodd" clip-rule="evenodd" d="M39.5354 178.166C39.5354 178.166 38.3086 185.806 38.1675 187.749C38.0259 189.692 41.7528 177.614 39.5354 178.166Z" fill="#96664C"/>
<path fill-rule="evenodd" clip-rule="evenodd" d="M29.7065 111.311C29.7065 111.311 29.8165 114.176 30.4531 118.592C31.0902 123.009 31.515 124.157 31.4502 123.788C31.3854 123.419 30.9018 111.681 30.9018 111.681C30.9018 111.681 30.4515 111.181 29.7071 111.311H29.7065Z" fill="#855034"/>
<path fill-rule="evenodd" clip-rule="evenodd" d="M36.6838 113.483L38.3332 114.277C38.3332 114.277 35.9682 118.52 33.1753 124.562C30.3823 130.604 30.0518 131.288 30.0518 131.288C30.0518 131.288 31.889 126.254 36.6832 113.483H36.6838Z" fill="#96664C"/>
<path fill-rule="evenodd" clip-rule="evenodd" d="M35.9748 112.574L35.5615 113.746C39.7109 114.092 47.1309 117.728 48.5816 120.407C48.8745 119.881 49.1381 119.395 49.363 118.963C48.9023 118.697 46.7149 117.409 44.2356 116.166C42.1244 115.107 39.7828 114.108 38.3126 113.489C35.115 112.142 36.7007 112.836 35.9748 112.574Z" fill="#5F3722"/>
<path fill-rule="evenodd" clip-rule="evenodd" d="M28.4282 89.837C28.4282 89.837 26.085 99.4411 26.4613 104.454C26.8376 109.467 26.8441 108.124 27.4491 110.11C28.0541 112.096 28.3226 113 28.3226 113C28.3226 113 29.1056 114.151 29.0806 113.843C29.0555 113.536 28.6417 106.002 28.6417 106.002C28.6417 106.002 29.0544 107.236 29.4912 108.097C29.9273 108.959 30.1397 109.146 30.4109 109.014C30.6821 108.881 30.3902 107.401 30.0586 106.408C29.7269 105.415 29.868 104.046 29.4906 102.732C29.1132 101.418 28.5398 100.646 28.5398 100.646C28.5437 96.4396 28.3155 94.5064 28.4277 89.8364L28.4282 89.837Z" fill="#6B412B"/>
<path fill-rule="evenodd" clip-rule="evenodd" d="M56.0426 92.608C56.5414 94.9664 56.6988 97.5121 56.2256 100.141C54.7836 108.157 48.5595 117.969 48.5595 117.969C48.5595 117.969 48.186 117.748 47.5156 117.376C48.7969 115.364 51.0562 111.361 53.6178 104.779C55.7224 99.3712 56.127 95.2686 56.0426 92.6074V92.608Z" fill="#B99E8A"/>
<path fill-rule="evenodd" clip-rule="evenodd" d="M49.1483 75.2178C49.8339 76.6107 50.4236 77.8648 51.6331 79.8981L51.7795 80.1443C50.7645 80.7531 49.8007 81.7632 47.3916 86.9505C44.9825 92.1378 44.7876 95.2374 45.1236 98.1899C45.4596 101.143 45.5962 101.03 45.318 104.083C45.0397 107.136 44.3057 111.345 43.7415 112.159C43.1774 112.973 42.788 112.962 42.788 112.962C42.788 112.962 42.5588 114.585 42.0894 115.177L41.8073 115.044C41.7022 113.862 41.1974 108.246 41.0602 107.732C40.9066 107.159 40.5178 110.327 40.5178 110.327C40.5178 110.327 40.5059 110.736 40.5206 112.774C40.5265 113.634 40.5184 114.144 40.5069 114.446C40.055 114.242 39.5921 114.037 39.12 113.833L38.8662 107.589C38.8662 107.589 38.6228 110.147 38.1937 111.752C37.9982 112.483 37.7243 112.905 37.4836 113.148L37.3099 113.079C37.213 112.858 37.1645 112.616 37.1787 112.35C37.292 110.258 37.0088 104.782 42.5757 91.0035C47.2538 79.4249 46.2791 75.6311 49.1478 75.2178H49.1483Z" fill="#A38976"/>
<path d="M31.8965 93.7305C31.8998 93.7381 33.0716 96.3797 39.8833 98.3276L39.7744 98.6641C32.7928 96.6672 32.0729 94.1645 32.0691 94.1564L31.8965 93.73V93.7305ZM31.9188 100.187C31.9308 100.194 36.096 102.707 40.1659 101.668L40.265 102.007C36.0317 103.087 32.4726 100.812 32.4601 100.805L31.9194 100.187L31.9188 100.187Z" fill="#B99E8A"/>
<path fill-rule="evenodd" clip-rule="evenodd" d="M35.2559 34.6443C35.2559 34.6443 36.1146 36.5159 36.5519 38.76C36.5862 38.9364 36.6178 39.1047 36.6455 39.2653C37.6056 39.5338 39.0649 39.5653 40.6839 38.2753C42.4264 36.8867 43.9756 35.1279 44.9177 33.9685C44.8741 31.8203 45.2101 29.897 45.2101 29.897C45.2101 29.897 39.1107 34.7592 35.2559 34.6443Z" fill="#6B412B"/>
<path fill-rule="evenodd" clip-rule="evenodd" d="M35.2559 34.6443C35.2559 34.6443 35.6017 35.3979 35.966 36.5219C37.5408 37.8402 39.3776 36.7942 41.2786 35.6996C43.1801 34.6046 44.7903 33.2187 44.9461 32.3921C45.0234 30.9621 45.2096 29.897 45.2096 29.897C45.2096 29.897 39.1102 34.7592 35.2554 34.6443H35.2559Z" fill="#5F3722"/>
<path fill-rule="evenodd" clip-rule="evenodd" d="M30.667 45.1441C30.2973 45.3156 29.9755 45.4686 29.7386 45.589C28.6822 46.1259 27.6835 47.4824 27.8615 50.0194C27.9715 51.592 28.2607 53.0128 28.4643 53.8666C28.4643 53.8666 27.812 50.9522 28.5237 48.1843C28.98 46.4096 29.9967 45.5394 30.667 45.1436V45.1441Z" fill="#96664C"/>
<path fill-rule="evenodd" clip-rule="evenodd" d="M37.0639 100.29C36.4606 100.946 36.0821 103.334 36.1333 105.455C36.1845 107.576 36.0059 109.517 36.0059 109.517C36.0059 109.517 37.1412 110.287 37.4445 107.795C37.5752 106.724 37.2583 104.917 37.0846 103.899C36.8537 102.549 37.0634 100.29 37.0634 100.29H37.0639Z" fill="#6B412B"/>
<path fill-rule="evenodd" clip-rule="evenodd" d="M52.7899 40.6573C53.7489 40.8457 54.9044 41.1751 55.6771 41.7371C57.2155 42.8567 57.8792 43.7998 57.1953 48.2112C56.605 52.0197 55.3335 58.1861 54.1186 62.7086C53.4635 65.147 52.8095 67.8055 52.461 69.7609C52.1125 71.7164 51.8735 75.195 49.8952 80.4825C47.9168 85.77 46.6181 87.8186 45.5617 90.9219C44.5053 94.0247 44.484 94.0416 44.4508 94.5889C44.4176 95.1361 44.5548 95.4634 44.3746 96.137C44.1938 96.8106 44.3964 97.353 44.5477 98.1551C44.6991 98.9572 45.2268 100.347 44.8952 102.937C44.5635 105.527 44.4263 106.685 44.3277 107.594C44.2292 108.502 44.1938 110.61 43.8872 111.648C43.5806 112.686 43.0481 112.516 42.949 111.579C42.8493 110.642 42.8907 108.712 42.8379 107.508C42.7845 106.304 42.8079 105.78 42.8079 105.78C42.8079 105.78 42.3358 109.308 42.3897 110.489C42.4436 111.671 42.3984 115.143 41.7923 115.073C41.1863 115.004 40.8563 110.489 40.8323 109.65C40.8089 108.811 40.9734 106.768 40.9734 106.768C40.9734 106.768 40.7261 106.58 40.6319 107.155C40.5377 107.729 40.1582 110.651 40.1582 110.651C40.1582 110.651 40.1838 113.635 40.0776 114.596C39.9714 115.557 39.7057 115.944 39.3147 115.912C38.9237 115.881 38.8159 115.448 38.6792 113.789C38.5425 112.131 38.5806 110.766 38.6236 110.146C38.6661 109.527 38.7451 106.901 38.7451 106.901C38.7451 106.901 38.4499 106.581 38.3911 107.077C38.3323 107.574 38.1526 109.357 38.1526 109.357C38.1526 109.357 37.9664 111.516 37.7072 112.355C37.448 113.194 36.868 113.44 36.7689 112.721C36.6693 112.002 36.733 109.772 36.7673 109.314C36.8016 108.856 36.8719 105.42 36.7395 104.339C36.6072 103.259 36.5718 101.373 36.9094 100.582C38.4832 96.8934 38.6122 95.8288 39.7868 92.2299C40.443 90.2189 42.0118 86.7485 42.98 81.4229C44.319 74.059 46.8642 69.4555 46.8642 69.2676C46.8648 68.9779 47.6015 49.517 47.7551 47.4494C47.9871 44.3259 50.7239 41.0455 52.7905 40.6567L52.7899 40.6573Z" fill="#825740"/>
<path fill-rule="evenodd" clip-rule="evenodd" d="M29.2822 54.9708C29.9313 55.4925 31.4386 56.128 34.8796 55.8661C39.359 55.5252 42.9644 53.9242 44.1962 53.3154C43.21 54.0075 37.4144 56.6551 33.7094 56.5168C29.8692 56.3736 29.2822 54.9708 29.2822 54.9708Z" fill="#E0D0C4"/>
<path fill-rule="evenodd" clip-rule="evenodd" d="M31.1484 52.4112C31.1484 52.4112 32.1134 52.9917 32.6715 54.2169C32.8251 54.5545 32.9187 54.8546 32.9743 55.1127C33.1447 55.1159 33.3217 55.117 33.5041 55.1159C33.2504 54.157 32.6356 52.8501 31.1484 52.4106V52.4112Z" fill="#96664C"/>
<path fill-rule="evenodd" clip-rule="evenodd" d="M39.5896 52.1338C39.5896 52.1338 38.5958 52.4551 37.6554 53.1608C37.0068 53.6471 36.4471 54.4753 36.1372 54.9975C36.3904 54.9698 36.6404 54.9376 36.887 54.9028C37.314 54.1148 38.176 52.8499 39.5891 52.1343L39.5896 52.1338Z" fill="#96664C"/>
<path fill-rule="evenodd" clip-rule="evenodd" d="M34.5508 55.3873C34.3226 54.5672 33.8897 53.6186 33.0762 52.7495C33.0762 52.7495 33.6207 53.9431 33.6311 55.42C33.9197 55.4167 34.2262 55.4063 34.5508 55.3873Z" fill="#5F3722"/>
<path fill-rule="evenodd" clip-rule="evenodd" d="M44.9966 15.6491C48.1011 18.4192 47.7634 22.0154 46.9297 24.8683C46.0961 27.7211 45.5559 29.6722 45.0778 31.1893C44.5996 32.7064 44.5044 32.9901 42.3011 34.3918C40.0979 35.7934 38.2198 36.7987 36.7446 36.1969C35.2694 35.5952 33.858 34.7844 33.1626 33.0473C32.4672 31.3102 31.9412 29.9641 31.5714 28.4279C31.2017 26.8918 31.6286 26.5019 31.6177 24.9347C31.6074 23.3675 31.4762 23.2956 31.3716 21.8166C31.3101 20.9476 30.9458 19.0618 32.6344 16.7834C35.3985 13.0544 41.5878 12.6062 44.9972 15.6486L44.9966 15.6491Z" fill="#825740"/>
<path fill-rule="evenodd" clip-rule="evenodd" d="M46.9273 23.9337C47.1516 23.8172 47.449 23.7361 47.7637 23.8526C48.421 24.096 48.88 25.3691 48.0512 27.006C47.2224 28.6429 46.8418 29.426 46.6447 29.7048C46.4612 29.9645 45.8382 30.2238 45.561 29.56C45.8567 28.4937 46.19 27.1558 46.7421 24.8458C46.8157 24.5382 46.8772 24.2338 46.9268 23.9332L46.9273 23.9337Z" fill="#825740"/>
<path fill-rule="evenodd" clip-rule="evenodd" d="M45.7075 29.8001C45.653 29.7391 45.6035 29.6602 45.5615 29.56C45.8572 28.4938 46.1905 27.1558 46.7426 24.8459C46.7835 24.676 46.82 24.5072 46.8532 24.3394C47.0231 24.2752 47.2393 24.2289 47.5006 24.2392C48.2352 24.2686 48.2777 25.6997 48.0131 26.345C47.7484 26.9897 47.7484 26.9897 47.7484 26.9897C47.7484 26.9897 48.0076 26.1517 47.9466 25.4242C47.8862 24.6967 47.2632 24.7239 47.0977 24.9058C46.9321 25.0876 46.6566 25.5837 46.778 26.1789C46.8995 26.7741 46.7671 27.513 46.4584 27.7113C46.2046 27.8741 45.7287 29.1744 45.7069 29.799L45.7075 29.8001Z" fill="#5F3722"/>
<path fill-rule="evenodd" clip-rule="evenodd" d="M34.6517 24.2602C34.1224 24.0222 34.1823 24.4802 33.3039 24.7525C32.4256 25.0247 34.5809 26.0507 34.839 25.8323C35.0971 25.6139 35.3792 24.8156 34.6517 24.2602Z" fill="#784C35"/>
<path fill-rule="evenodd" clip-rule="evenodd" d="M38.511 24.2602C39.0403 24.0222 38.9804 24.4802 39.8587 24.7525C40.7371 25.0247 38.5818 26.0507 38.3237 25.8323C38.0656 25.6139 37.7835 24.8156 38.511 24.2602Z" fill="#784C35"/>
<path fill-rule="evenodd" clip-rule="evenodd" d="M34.9766 24.7275C34.9766 24.7275 35.3844 25.1027 35.4792 25.9446C35.5739 26.787 35.3229 27.7623 35.3229 27.7623C35.3229 27.7623 36.2214 25.0526 34.9766 24.7275Z" fill="#5F3722"/>
<path fill-rule="evenodd" clip-rule="evenodd" d="M34.2082 31.7293C34.2082 31.7293 33.9653 31.695 33.9256 31.499C33.8858 31.3029 34.0094 31.4059 34.1183 31.4897C34.2273 31.5736 34.3607 31.5643 34.3754 31.5131C34.3901 31.4619 34.5235 30.7573 35.1857 30.5662C35.8478 30.375 35.9371 30.6315 36.0852 30.6876C36.2334 30.7437 36.3619 30.6598 36.4463 30.5852C36.5301 30.5106 37.079 30.2351 37.8202 30.7301C38.5618 31.2245 39.2022 31.6068 39.291 31.6672C39.3797 31.7277 39.5627 31.6858 39.548 31.5785C39.5333 31.4712 39.6863 31.4712 39.7751 31.5785C39.8638 31.6858 39.4195 31.8023 39.4195 31.8023C39.4195 31.8023 38.7889 32.6703 37.8844 33.1789C36.9799 33.6875 35.6948 33.6363 35.1759 33.2208C34.6569 32.8059 34.3416 31.9765 34.2077 31.7293H34.2082Z" fill="#632F13"/>
<path fill-rule="evenodd" clip-rule="evenodd" d="M36.2635 32.815C36.2635 32.815 36.7825 32.9081 37.2274 32.6331C37.6723 32.3575 38.023 32.3064 38.0382 32.5443C38.0529 32.7823 37.1582 33.0017 36.5799 32.9642C36.0016 32.9271 36.1056 32.7681 36.2635 32.815Z" fill="#8F3B2E"/>
<path fill-rule="evenodd" clip-rule="evenodd" d="M34.8638 31.6387C34.8638 31.6387 35.0495 31.679 35.3909 31.8865C35.7323 32.094 36.3498 32.2813 36.7936 32.1016C37.2374 31.9219 37.5495 31.7422 37.9176 31.7253C37.9176 31.7253 36.7985 31.434 36.217 31.4547C35.5428 31.4786 35.46 31.6654 34.8643 31.6382L34.8638 31.6387Z" fill="white"/>
<path fill-rule="evenodd" clip-rule="evenodd" d="M32.2705 24.9787C32.2705 24.9787 32.979 24.3116 33.8176 24.4918C34.6562 24.6721 34.8282 25.3337 34.9186 25.2727C35.009 25.2117 33.8856 23.4311 32.2705 24.9787Z" fill="#542F1B"/>
<path fill-rule="evenodd" clip-rule="evenodd" d="M32.4541 25.4234C32.4541 25.4234 32.7264 25.8542 33.1217 26.0001C33.5171 26.1466 33.8961 26.0224 34.213 25.9625C34.5299 25.9026 34.7793 25.9407 34.7793 25.9407C34.7793 25.9407 34.867 26.0001 34.9127 25.8814C34.9585 25.7627 34.7864 25.705 34.7864 25.705C34.7864 25.705 34.5353 25.0036 33.6363 24.96C32.7367 24.9165 32.5592 25.363 32.4541 25.4234Z" fill="white"/>
<path fill-rule="evenodd" clip-rule="evenodd" d="M32.4541 25.4237C32.4541 25.4237 32.7264 25.8544 33.1217 26.0003C33.5171 26.1468 33.8961 26.0227 34.213 25.9628C34.5299 25.9029 34.7793 25.941 34.7793 25.941C34.7793 25.941 34.8005 25.9551 34.8278 25.9557C34.6252 25.721 33.7828 26.0788 33.2611 25.935C32.8712 25.8272 32.6109 25.525 32.5042 25.3779C32.4851 25.3992 32.4693 25.415 32.4546 25.4231L32.4541 25.4237Z" fill="#96664C"/>
<path fill-rule="evenodd" clip-rule="evenodd" d="M32.4541 25.4234C32.4541 25.4234 32.4933 25.4854 32.5641 25.5709C32.924 25.3749 33.9897 24.9278 34.9051 25.8998C34.9078 25.8944 34.9105 25.8884 34.9133 25.8819C34.959 25.7632 34.7869 25.7054 34.7869 25.7054C34.7869 25.7054 34.5359 25.0041 33.6369 24.9605C32.7373 24.9169 32.5597 25.3635 32.4546 25.4239L32.4541 25.4234Z" fill="#ADA89F"/>
<path fill-rule="evenodd" clip-rule="evenodd" d="M34.4449 25.2535C34.2669 25.1076 34.0066 24.978 33.6363 24.96C33.4669 24.9518 33.3232 24.9611 33.2006 24.9818C33.1495 25.0907 33.1277 25.2148 33.144 25.3433C33.1903 25.7011 33.5181 25.9538 33.8759 25.9075C34.2075 25.8645 34.4487 25.5797 34.4455 25.2535H34.4449Z" fill="#625D54"/>
<path d="M33.827 25.5314C33.9771 25.5119 34.0831 25.3745 34.0636 25.2244C34.0442 25.0743 33.9068 24.9683 33.7567 24.9878C33.6066 25.0072 33.5006 25.1446 33.52 25.2947C33.5395 25.4449 33.6769 25.5508 33.827 25.5314Z" fill="#191716"/>
<path fill-rule="evenodd" clip-rule="evenodd" d="M32.0752 25.2793C32.0752 25.2793 32.2222 25.3969 32.3251 25.4302C32.4281 25.4639 32.4743 25.453 32.4743 25.453C32.4743 25.453 32.8403 24.9869 33.631 25.0375C34.4216 25.0882 34.787 25.7051 34.787 25.7051C34.787 25.7051 34.5055 24.7756 33.601 24.6836C32.6965 24.5921 32.2974 25.288 32.0752 25.2793Z" fill="#191716"/>
<path d="M33.3524 25.6072C33.4581 25.5935 33.5327 25.4967 33.519 25.3909C33.5054 25.2852 33.4085 25.2106 33.3028 25.2242C33.1971 25.2379 33.1224 25.3347 33.1361 25.4405C33.1498 25.5462 33.2466 25.6209 33.3524 25.6072Z" fill="white"/>
<path fill-rule="evenodd" clip-rule="evenodd" d="M38.5708 24.9701C38.5708 24.9701 39.0696 24.2458 40.2186 24.3449C41.3676 24.4446 41.929 25.1029 41.929 25.1029C41.929 25.1029 41.4738 24.2845 40.2006 24.2431C38.9275 24.2022 38.5958 24.841 38.5708 24.9701Z" fill="#542F1B"/>
<path fill-rule="evenodd" clip-rule="evenodd" d="M38.4992 25.7752C38.4992 25.7752 38.3647 25.9347 38.2684 25.7992C38.172 25.6641 38.4197 25.4811 38.4197 25.4811C38.4197 25.4811 39.1151 24.8184 39.9875 24.8348C40.8598 24.8511 41.5204 25.4104 41.6287 25.4485C41.7371 25.486 41.7692 25.4899 41.7415 25.4866C41.7137 25.4833 41.0292 26.1324 40.1312 26.133C39.2333 26.1335 38.8075 25.7137 38.4992 25.7752Z" fill="white"/>
<path fill-rule="evenodd" clip-rule="evenodd" d="M38.4991 25.7756C38.4991 25.7756 38.4153 25.8753 38.3325 25.8502C38.6086 25.3836 39.4548 26.0702 40.2401 25.9929C40.8788 25.9297 41.3961 25.5769 41.5883 25.4282C41.6058 25.4386 41.6194 25.4462 41.6286 25.4495C41.737 25.487 41.7691 25.4914 41.7414 25.4876C41.7136 25.4843 41.0291 26.1334 40.1311 26.134C39.2332 26.1345 38.8074 25.7147 38.4991 25.7762V25.7756Z" fill="#96664C"/>
<path fill-rule="evenodd" clip-rule="evenodd" d="M38.3619 25.5307C38.3935 25.5002 38.4191 25.4811 38.4191 25.4811C38.4191 25.4811 39.1144 24.8184 39.9868 24.8348C40.8592 24.8511 41.5197 25.4104 41.628 25.4485C41.7364 25.486 41.7685 25.4904 41.7408 25.4866C41.7321 25.4855 41.6558 25.5508 41.5278 25.6402C40.0494 24.8566 38.8253 25.2998 38.3613 25.5302L38.3619 25.5307Z" fill="#ADA89F"/>
<path fill-rule="evenodd" clip-rule="evenodd" d="M39.5543 24.8804C39.6916 24.8499 39.8364 24.8325 39.9867 24.8352C40.2301 24.8396 40.4567 24.8864 40.6598 24.9523C40.73 25.0732 40.7632 25.2175 40.7453 25.3673C40.7012 25.7332 40.369 25.994 40.0031 25.9499C39.6371 25.9058 39.3763 25.5736 39.4204 25.2077C39.4351 25.0841 39.483 24.9725 39.5543 24.8804Z" fill="#625D54"/>
<path d="M40.0497 25.5655C40.2032 25.584 40.3426 25.4746 40.3612 25.3211C40.3797 25.1676 40.2703 25.0282 40.1168 25.0096C39.9633 24.9911 39.8238 25.1005 39.8053 25.254C39.7868 25.4075 39.8962 25.5469 40.0497 25.5655Z" fill="#191716"/>
<path fill-rule="evenodd" clip-rule="evenodd" d="M38.2856 25.6195C38.2856 25.6195 38.5933 25.2411 39.2963 25.063C39.9993 24.885 40.4889 24.9536 40.9866 25.1921C41.4843 25.4306 41.6732 25.576 41.9052 25.4861C42.1367 25.3963 42.1639 25.2493 42.1639 25.2493C42.1639 25.2493 42.0473 25.3195 41.9156 25.2427C41.7838 25.1659 39.3785 23.6439 38.2856 25.6195Z" fill="#191716"/>
<path d="M39.4525 25.5207C39.5584 25.5335 39.6546 25.4581 39.6673 25.3522C39.6801 25.2464 39.6047 25.1502 39.4988 25.1374C39.3929 25.1246 39.2968 25.2001 39.284 25.3059C39.2712 25.4118 39.3467 25.508 39.4525 25.5207Z" fill="white"/>
<path fill-rule="evenodd" clip-rule="evenodd" d="M34.6549 28.5039C34.6549 28.5039 34.4426 28.6891 34.4328 29.104C34.423 29.5189 34.8624 29.66 35.0399 29.6779C35.218 29.6954 35.2278 29.6779 35.2278 29.6779C35.2278 29.6779 34.2504 29.5897 34.6549 28.5039Z" fill="#5F3722"/>
<path fill-rule="evenodd" clip-rule="evenodd" d="M35.1226 27.9225C35.1226 27.9225 35.4841 27.6208 36.1474 27.6312C36.8106 27.6415 37.1777 27.9911 37.1777 27.9911C37.1777 27.9911 36.7627 27.5255 36.094 27.5201C35.4248 27.5146 35.1226 27.9225 35.1226 27.9225Z" fill="#96664C"/>
<path d="M35.8674 28.5903C36.0488 28.5903 36.1958 28.4825 36.1958 28.3496C36.1958 28.2166 36.0488 28.1089 35.8674 28.1089C35.6861 28.1089 35.5391 28.2166 35.5391 28.3496C35.5391 28.4825 35.6861 28.5903 35.8674 28.5903Z" fill="#96664C"/>
<path fill-rule="evenodd" clip-rule="evenodd" d="M35.748 29.477C35.748 29.477 35.5677 29.3779 35.284 29.4018C34.9998 29.4263 35.0297 29.3468 35.1212 29.245C35.2127 29.1437 35.3924 29.1922 35.5509 29.3C35.7088 29.4078 35.7485 29.4764 35.7485 29.4764L35.748 29.477Z" fill="#241714"/>
<path fill-rule="evenodd" clip-rule="evenodd" d="M36.4483 29.4728C36.4483 29.4728 36.5496 29.378 36.8333 29.402C37.1175 29.4265 37.0876 29.347 36.9961 29.2451C36.8376 29.0692 36.4951 29.2996 36.4478 29.4722L36.4483 29.4728Z" fill="#241714"/>
<path fill-rule="evenodd" clip-rule="evenodd" d="M37.7525 28.3184C37.7525 28.3184 38.2164 28.6533 38.2066 29.0774C38.1968 29.5011 37.7971 29.6378 37.6191 29.6645C37.441 29.6912 37.1992 29.616 37.1992 29.616C37.1992 29.616 37.7574 29.7189 37.9496 29.3334C38.1418 28.9478 37.8755 28.5879 37.7519 28.3184H37.7525Z" fill="#5F3722"/>
<path fill-rule="evenodd" clip-rule="evenodd" d="M32.1067 23.8707C32.7019 23.7051 34.201 24.1315 34.6285 24.4566C34.8931 24.6581 34.9721 24.8334 35.093 24.7953C35.3168 24.7245 35.6103 24.2246 34.9873 23.7356C34.3638 23.2466 32.6959 23.2466 32.1187 23.5543C31.5415 23.8619 31.8273 23.9943 32.1072 23.8707H32.1067Z" fill="#191716"/>
<path fill-rule="evenodd" clip-rule="evenodd" d="M37.5561 24.4156C37.5561 24.4156 37.8916 24.763 38.1633 24.5544C38.435 24.3459 39.1832 23.9696 40.2712 23.8264C41.3587 23.6832 42.2768 23.8705 42.389 23.9745C42.5017 24.0785 42.738 23.9277 42.5175 23.7354C42.2975 23.5432 40.9976 23.0765 39.7555 23.2045C38.5134 23.3325 36.9119 23.498 37.5561 24.4156Z" fill="#191716"/>
<path fill-rule="evenodd" clip-rule="evenodd" d="M37.476 24.8398C37.476 24.8398 37.3039 25.3555 37.2576 25.832C37.2113 26.3085 37.3567 27.3665 37.3567 27.3665C37.3567 27.3665 37.3366 25.9839 37.476 24.8398Z" fill="#5F3722"/>
<path fill-rule="evenodd" clip-rule="evenodd" d="M32.5713 25.8984C32.5713 25.8984 32.8757 26.1974 33.3848 26.2742C33.894 26.351 34.536 26.1364 34.536 26.1364C34.536 26.1364 33.1403 26.3972 32.5713 25.8984Z" fill="#5F3722"/>
<path fill-rule="evenodd" clip-rule="evenodd" d="M38.9834 25.9927C38.9834 25.9927 39.3515 26.3831 39.9206 26.4207C40.4891 26.4583 41.1703 26.0526 41.1703 26.0526C41.1703 26.0526 39.6646 26.6352 38.9834 25.9927Z" fill="#5F3722"/>
</svg>
