<svg width="85" height="212" viewBox="0 0 85 212" fill="none" xmlns="http://www.w3.org/2000/svg">
<path fill-rule="evenodd" clip-rule="evenodd" d="M34.7154 34.313C35.6459 36.2532 37.0617 41.6215 35.29 42.4627C33.7872 43.176 30.5935 44.7109 29.2977 45.3412C28.0011 45.9715 26.7766 47.5644 26.9946 50.5441C27.2125 53.5238 28.0011 56.0409 28.0011 56.0409C28.0011 56.0409 47.7183 60.9867 50.676 58.6467C53.6337 56.3059 57.3315 41.2296 53.4777 40.6926C53.2872 40.6659 51.7939 40.4621 51.6167 40.4417C48.2153 40.0388 47.2573 40.5562 46.0164 37.8156C44.7111 34.9323 45.6236 29.9419 45.6236 29.9419C45.6236 29.9419 38.7432 34.4291 34.7162 34.3138L34.7154 34.313Z" fill="#825740"/>
<path fill-rule="evenodd" clip-rule="evenodd" d="M48.5172 48.6523C48.5172 48.6523 47.4769 53.5268 45.9491 55.6245C44.4212 57.7223 47.9457 60.3939 48.3643 57.1924C48.7829 53.9908 48.5172 48.6523 48.5172 48.6523Z" fill="#5F3722"/>
<path fill-rule="evenodd" clip-rule="evenodd" d="M28.568 110.943C28.568 110.943 28.5249 113.95 29.9399 121.733C30.2072 123.205 30.5074 124.954 30.8179 126.822C32.5409 121.947 35.1741 114.788 35.9745 112.617C31.4622 111.059 28.9278 110.951 28.568 110.943ZM33.9002 148.365C35.113 156.134 37.2813 170.872 37.0877 174.511C36.8948 178.15 33.705 186.131 33.705 186.131C33.705 186.131 32.5738 187.435 34.1456 188.682C35.7174 189.928 37.2899 189.946 37.2899 189.946L37.6913 189.401C37.6748 189.164 37.7211 189.007 37.7211 189.007C37.7211 189.007 37.7211 189.007 38.4258 183.421C38.7378 180.945 39.1431 178.612 39.2426 176.187C39.3681 173.141 39.1047 169.95 38.6147 166.144C37.7344 159.307 35.5763 152.925 33.9002 148.365V148.365ZM45.7202 151.689C45.7829 149.694 45.5877 147.279 45.1644 144.397C44.7411 141.515 42.9341 138.141 42.9341 138.141C42.9341 138.141 43.5605 133.498 44.1092 128.241C41.1844 132.798 38.3913 136.98 38.3913 136.98C38.3913 136.98 41.3788 140.362 43.2822 143.888C45.1855 147.413 45.4176 149.932 45.7202 151.688V151.689Z" fill="#5F3722"/>
<path fill-rule="evenodd" clip-rule="evenodd" d="M29.0609 54.5091C29.739 55.0312 31.3139 55.6662 34.9089 55.4044C39.6109 55.0618 43.3925 53.4477 44.6617 52.8457C46.8559 43.4402 50.4564 40.9434 52.0815 40.2849C52.9532 39.9314 53.306 40.2183 53.451 40.546C53.4361 40.5475 48.1509 41.0727 45.3688 53.2721C45.7858 54.3092 46.7336 56.454 48.2646 58.7713C50.4086 62.0167 48.8133 73.404 48.8133 73.404C48.8133 73.404 50.5066 77.01 52.7988 80.6975C55.091 84.3851 60.0963 92.1843 58.5637 101.896C57.0312 111.607 51.0553 119.703 51.0553 119.703C51.0553 119.703 44.8828 116.142 38.4146 113.534C31.9473 110.927 28.5208 110.945 28.5208 110.945C28.5208 110.945 27.6114 90.9473 27.4256 84.6752C27.1983 77.0178 27.4358 74.0483 27.4656 70.857C27.475 69.8003 26.539 66.5533 26.463 66.0226C26.463 66.0226 22.4054 61.4758 27.9054 54.1971C27.9422 54.1329 27.9814 54.0678 28.0222 54.0012C29.2937 51.9285 32.039 48.7324 31.404 44.377C31.368 43.8847 32.1245 43.8 32.1433 44.1222C32.7132 48.7975 30.5182 52.1213 29.1863 54.2959C29.1416 54.3688 29.0993 54.4409 29.0585 54.5107L29.0609 54.5091Z" fill="#D5C1B5"/>
<path fill-rule="evenodd" clip-rule="evenodd" d="M35.9742 112.617C34.912 115.497 30.6271 127.149 29.5179 130.611C28.2487 134.572 28.1954 135.411 29.6762 139.474C31.1571 143.536 37.3986 156.692 38.6153 166.145C39.8319 175.597 39.1303 177.836 38.4263 183.422C37.7216 189.008 37.7216 189.008 37.7216 189.008C37.7216 189.008 37.0796 191.208 41.4499 191.54C45.8203 191.871 46.155 189.661 46.086 187.52C46.0178 185.379 46.4631 183.018 46.9554 180.82C47.4477 178.622 47.3905 177.38 46.2734 174.369C45.1555 171.358 45.5671 167.72 45.7254 161.524C45.8838 155.327 46.808 149.409 43.8997 144.022C40.9913 138.634 39.8468 137.423 39.8468 137.423C39.8468 137.423 48.3617 124.72 51.1823 119.529C50.291 119.036 41.758 114.88 38.4169 113.534C35.0759 112.187 36.7331 112.88 35.9742 112.618V112.617Z" fill="#825740"/>
<path fill-rule="evenodd" clip-rule="evenodd" d="M33.7198 186.074C32.9014 186.653 31.7537 187.873 29.6183 190.282C27.4829 192.692 27.8153 193.22 28.5671 193.223C29.2726 193.225 34.5727 193.565 36.1468 192.739C36.2738 192.364 36.4055 191.999 36.5348 191.66C36.839 190.861 37.0867 190.317 37.2819 189.945C37.1627 189.942 35.6851 189.902 34.1454 188.681C32.6058 187.459 33.6798 186.162 33.6798 186.162L33.7198 186.074Z" fill="#BA9F8A"/>
<path fill-rule="evenodd" clip-rule="evenodd" d="M37.6886 189.306C37.4871 189.542 36.7847 189.725 36.0227 191.725C35.2608 193.726 34.4831 197.983 36.4053 197.851C38.3275 197.719 46.3525 195.16 46.6292 192.012C46.9051 188.864 47.6624 186.862 48.1523 184.413C48.6423 181.964 49.866 180.453 49.9318 178.78C49.993 177.232 48.6493 175.889 46.3438 174.562C47.3927 177.434 47.4366 178.669 46.9553 180.819C46.463 183.016 46.0177 185.378 46.0859 187.519C46.1541 189.66 45.8202 191.87 41.4498 191.539C38.0829 191.284 37.6909 189.919 37.6886 189.306Z" fill="#D4C1B5"/>
<path fill-rule="evenodd" clip-rule="evenodd" d="M49.5472 180.448C49.4728 180.981 49.356 181.638 49.1725 182.384C48.6285 184.592 48.8284 187.878 48.8088 188.676C48.6951 188.872 47.8038 188.849 47.8062 188.713L47.854 185.755C47.9598 185.316 48.0609 184.873 48.1526 184.414C48.4788 182.785 49.1294 181.572 49.548 180.449L49.5472 180.448Z" fill="#A68C7A"/>
<path fill-rule="evenodd" clip-rule="evenodd" d="M39.6947 178.21C39.6947 178.21 38.413 185.85 38.2649 187.792C38.1167 189.736 42.0112 177.657 39.6947 178.21Z" fill="#96664C"/>
<path fill-rule="evenodd" clip-rule="evenodd" d="M29.4248 111.355C29.4248 111.355 29.5393 114.22 30.2048 118.636C30.8704 123.052 31.3141 124.2 31.2466 123.832C31.1784 123.462 30.6736 111.725 30.6736 111.725C30.6736 111.725 30.2032 111.224 29.4248 111.355Z" fill="#825740"/>
<path fill-rule="evenodd" clip-rule="evenodd" d="M36.7145 113.526L38.4376 114.32C38.4376 114.32 35.9667 118.564 33.0481 124.606C30.1296 130.648 29.7847 131.332 29.7847 131.332C29.7847 131.332 31.7045 126.298 36.7137 113.526H36.7145Z" fill="#96664C"/>
<path fill-rule="evenodd" clip-rule="evenodd" d="M35.9744 112.617L35.5425 113.79C39.8783 114.136 48.8495 118.294 50.3656 120.972C50.6721 120.446 50.9473 119.96 51.1817 119.528C50.7004 119.262 47.1954 117.452 44.6054 116.209C42.3994 115.151 39.9528 114.152 38.4163 113.533C35.0753 112.186 36.7325 112.879 35.9736 112.617H35.9744Z" fill="#5F3722"/>
<path fill-rule="evenodd" clip-rule="evenodd" d="M27.624 90.0786C27.624 90.0786 25.6407 99.4849 26.0334 104.498C26.4269 109.511 26.4332 108.168 27.0658 110.155C27.6985 112.141 27.9783 113.044 27.9783 113.044C27.9783 113.044 28.8383 114.172 28.8124 113.865C28.7865 113.558 28.3123 106.047 28.3123 106.047C28.3123 106.047 28.7434 107.282 29.1997 108.142C29.6559 109.004 29.8778 109.191 30.1608 109.059C30.4445 108.926 30.1396 107.446 29.7923 106.453C29.4458 105.46 29.5932 104.09 29.1989 102.777C28.8046 101.463 28.2057 100.691 28.2057 100.691C27.9046 99.7428 27.8074 93.7309 27.624 90.0794V90.0786Z" fill="#5F3722"/>
<path fill-rule="evenodd" clip-rule="evenodd" d="M56.9425 92.6514C57.4638 95.0102 57.6284 97.5556 57.1337 100.185C55.627 108.201 49.1236 118.013 49.1236 118.013C49.1236 118.013 48.7332 117.792 48.0332 117.42C49.3714 115.408 51.7325 111.405 54.4088 104.823C56.6077 99.415 57.0303 95.3128 56.9425 92.6522V92.6514Z" fill="#B99E8A"/>
<path fill-rule="evenodd" clip-rule="evenodd" d="M49.7391 75.2617C50.4548 76.6547 51.2011 78.1215 52.4656 80.1549L52.6905 80.5171C51.6299 81.1254 50.4211 81.8067 47.9039 86.9939C45.3868 92.1811 45.1829 95.2807 45.5341 98.2337C45.8853 101.187 46.028 101.073 45.7372 104.127C45.4463 107.181 44.6797 111.389 44.0902 112.203C43.5006 113.018 43.0938 113.007 43.0938 113.007C43.0938 113.007 42.8547 114.629 42.364 115.221L42.0692 115.089C41.9595 113.907 41.4319 108.291 41.2884 107.777C41.1285 107.203 40.7217 110.372 40.7217 110.372C40.7217 110.372 40.7091 110.78 40.7248 112.819C40.7311 113.679 40.7224 114.189 40.7107 114.491C40.238 114.287 39.7543 114.082 39.262 113.878L38.997 107.634C38.997 107.634 38.7423 110.191 38.2946 111.796C38.0908 112.527 37.8039 112.949 37.5523 113.192L37.3712 113.123C37.2701 112.903 37.2191 112.661 37.234 112.394C37.3524 110.303 37.056 104.826 42.8727 91.0483C47.7605 79.4698 46.7422 75.6756 49.7399 75.2625L49.7391 75.2617Z" fill="#A38976"/>
<path d="M31.7129 93.7749C31.716 93.7827 32.9405 96.4238 40.0577 98.3718L39.9441 98.7089C32.6489 96.7123 31.8971 94.2092 31.8932 94.2014L31.7129 93.7749ZM31.7356 100.231C31.7482 100.238 36.1005 102.751 40.3525 101.712L40.4559 102.052C36.0331 103.132 32.3142 100.857 32.3008 100.85L31.7356 100.231Z" fill="#B99E8A"/>
<path fill-rule="evenodd" clip-rule="evenodd" d="M34.564 34.6878C34.564 34.6878 35.518 36.5591 36.004 38.8034C36.0424 38.9798 36.0769 39.1484 36.1083 39.3091C37.1752 39.5779 38.7964 39.6093 40.5947 38.319C42.5309 36.9306 44.2516 35.1715 45.2982 34.0121C45.2496 31.8642 45.6235 29.9404 45.6235 29.9404C45.6235 29.9404 38.8465 34.8023 34.5647 34.6878H34.564Z" fill="#6B412B"/>
<path fill-rule="evenodd" clip-rule="evenodd" d="M34.564 34.6878C34.564 34.6878 34.9481 35.4412 35.3526 36.5653C37.1023 37.8839 39.1428 36.8381 41.2555 35.743C43.3682 34.6479 45.1571 33.2627 45.3303 32.4356C45.4166 31.0058 45.6227 29.9404 45.6227 29.9404C45.6227 29.9404 38.8457 34.8023 34.564 34.6878Z" fill="#5F3722"/>
<path fill-rule="evenodd" clip-rule="evenodd" d="M30.4281 45.1885C30.0416 45.3602 29.7053 45.513 29.4576 45.6337C28.3538 46.1707 27.3104 47.5269 27.4962 50.0645C27.6114 51.637 27.9132 53.0582 28.1257 53.9112C28.1257 53.9112 27.4437 50.9973 28.1876 48.2293C28.665 46.4545 29.7265 45.5844 30.4273 45.1885H30.4281Z" fill="#96664C"/>
<path fill-rule="evenodd" clip-rule="evenodd" d="M37.1117 100.334C36.4814 100.99 36.0863 103.378 36.1396 105.499C36.1929 107.621 36.0063 109.562 36.0063 109.562C36.0063 109.562 37.1924 110.331 37.5099 107.839C37.6463 106.768 37.3155 104.961 37.1336 103.943C36.8922 102.593 37.1117 100.334 37.1117 100.334Z" fill="#5F3722"/>
<path fill-rule="evenodd" clip-rule="evenodd" d="M53.5435 40.701C54.5454 40.8891 55.7526 41.2184 56.5601 41.7812C58.1679 42.9007 59.1039 44.4175 58.3889 48.8287C57.772 52.6377 56.7302 58.5838 55.461 63.1054C54.7766 65.5434 54.0931 68.2025 53.7293 70.1576C53.3648 72.1134 52.9164 75.3267 50.85 80.6143C48.7836 85.9018 47.095 87.8624 45.9913 90.9651C44.8875 94.0679 44.8655 94.0851 44.8303 94.6323C44.795 95.1795 44.9392 95.5072 44.7503 96.1806C44.5614 96.854 44.773 97.3964 44.9314 98.1992C45.0897 99.0011 45.6408 100.391 45.2943 102.981C44.9479 105.571 44.8044 106.73 44.7017 107.638C44.599 108.545 44.5622 110.654 44.2415 111.692C43.9209 112.73 43.3651 112.56 43.2609 111.623C43.1574 110.686 43.2005 108.756 43.1448 107.552C43.0892 106.348 43.1135 105.824 43.1135 105.824C43.1135 105.824 42.6204 109.351 42.6768 110.533C42.7333 111.715 42.6855 115.187 42.0528 115.118C41.4194 115.049 41.0745 110.533 41.0502 109.694C41.0251 108.855 41.1976 106.811 41.1976 106.811C41.1976 106.811 40.9389 106.624 40.8409 107.199C40.7421 107.772 40.3462 110.695 40.3462 110.695C40.3462 110.695 40.3729 113.679 40.2624 114.64C40.1518 115.601 39.8735 115.988 39.4651 115.957C39.0567 115.924 38.9438 115.492 38.8011 113.834C38.6585 112.176 38.6984 110.81 38.7431 110.191C38.7878 109.571 38.8701 106.945 38.8701 106.945C38.8701 106.945 38.562 106.626 38.5001 107.122C38.4382 107.619 38.2508 109.401 38.2508 109.401C38.2508 109.401 38.0564 111.56 37.7852 112.399C37.5139 113.238 36.9088 113.485 36.8045 112.765C36.7002 112.046 36.7669 109.816 36.8029 109.358C36.839 108.9 36.9119 105.464 36.7739 104.384C36.6352 103.303 36.5983 101.417 36.9511 100.626C38.595 96.9378 38.7298 95.8725 39.9574 92.2735C40.6433 90.2627 42.2825 86.7923 43.2938 81.4664C44.6923 74.103 47.3521 69.4991 47.3521 69.3109C47.3529 69.0209 48.1219 49.5608 48.2826 47.4929C48.5249 44.3689 51.3846 41.089 53.5443 40.7002L53.5435 40.701Z" fill="#825740"/>
<path fill-rule="evenodd" clip-rule="evenodd" d="M28.9819 55.014C29.66 55.5361 31.2349 56.1711 34.83 55.9093C39.5108 55.5683 43.2775 53.9675 44.5647 53.3584C43.5338 54.0506 37.4781 56.6979 33.6078 56.5599C29.5957 56.4165 28.9819 55.014 28.9819 55.014Z" fill="#E0D0C4"/>
<path fill-rule="evenodd" clip-rule="evenodd" d="M30.9314 52.4551C30.9314 52.4551 31.9396 53.0352 32.5228 54.2612C32.6835 54.5991 32.7815 54.8993 32.8387 55.1572C33.0167 55.1604 33.2017 55.162 33.3922 55.1604C33.1272 54.2017 32.4844 52.8949 30.9307 52.4551H30.9314Z" fill="#96664C"/>
<path fill-rule="evenodd" clip-rule="evenodd" d="M39.7513 52.1768C39.7513 52.1768 38.7134 52.4982 37.7304 53.2037C37.0531 53.6897 36.4675 54.5183 36.1445 55.0404C36.4095 55.0122 36.6705 54.9808 36.9285 54.9456C37.3745 54.1577 38.2752 52.8925 39.7521 52.1768H39.7513Z" fill="#96664C"/>
<path fill-rule="evenodd" clip-rule="evenodd" d="M34.4862 55.4309C34.2479 54.6109 33.7956 53.6623 32.9458 52.793C32.9458 52.793 33.5149 53.9869 33.5251 55.4638C33.8269 55.4606 34.1468 55.4497 34.4862 55.4309Z" fill="#5F3722"/>
<path fill-rule="evenodd" clip-rule="evenodd" d="M45.1039 15.6925C48.3101 18.4628 47.9613 22.0587 47.1006 24.9121C46.239 27.7656 45.8118 29.7105 45.2952 31.2164C44.7794 32.7223 44.6524 33.0524 42.3767 34.454C40.1017 35.8557 38.1043 36.8426 36.5811 36.2406C35.0572 35.6385 33.5999 34.8279 32.8818 33.0908C32.1638 31.3536 31.6205 30.0076 31.2379 28.4711C30.8562 26.9347 31.2967 26.5451 31.2858 24.978C31.2748 23.4109 31.14 23.3388 31.0318 21.8603C30.9683 20.991 30.592 19.1057 32.3354 16.8276C35.1897 13.0985 41.5818 12.6501 45.1031 15.6925H45.1039Z" fill="#825740"/>
<path fill-rule="evenodd" clip-rule="evenodd" d="M47.1161 23.9769C47.3403 23.8609 47.6374 23.7794 47.9525 23.8962C48.6102 24.14 49.0688 25.413 48.2402 27.0499C47.4116 28.6867 47.0306 29.4698 46.8339 29.7489C46.6504 30.0092 46.0272 30.2679 45.7505 29.6039C46.046 28.5377 46.38 27.1996 46.9319 24.8902C47.0055 24.5821 47.0667 24.2779 47.1169 23.9777L47.1161 23.9769Z" fill="#825740"/>
<path fill-rule="evenodd" clip-rule="evenodd" d="M45.8958 29.844C45.8409 29.7828 45.7915 29.7037 45.75 29.6041C46.0455 28.538 46.3795 27.1998 46.9314 24.8904C46.9721 24.7203 47.009 24.5517 47.0419 24.384C47.212 24.3197 47.4284 24.2734 47.6894 24.2836C48.424 24.3126 48.4663 25.7441 48.2021 26.3892C47.9379 27.0344 47.9379 27.0344 47.9379 27.0344C47.9379 27.0344 48.1966 26.1964 48.1363 25.4689C48.0759 24.7414 47.4527 24.7689 47.2873 24.9508C47.1219 25.1326 46.8459 25.6288 46.9674 26.2238C47.0889 26.8188 46.9565 27.5581 46.6476 27.7564C46.3944 27.9195 45.9178 29.2192 45.8958 29.844Z" fill="#6B412B"/>
<path fill-rule="evenodd" clip-rule="evenodd" d="M34.5159 24.3043C33.9867 24.0659 34.0463 24.5245 33.1683 24.7966C32.2896 25.0686 34.4453 26.0947 34.7032 25.8768C34.9612 25.6589 35.2434 24.8601 34.5159 24.3043Z" fill="#784C35"/>
<path fill-rule="evenodd" clip-rule="evenodd" d="M38.3752 24.3043C38.9043 24.0659 38.8447 24.5245 39.7227 24.7966C40.6015 25.0686 38.4457 26.0947 38.1878 25.8768C37.9299 25.6589 37.6477 24.8601 38.3752 24.3043Z" fill="#784C35"/>
<path fill-rule="evenodd" clip-rule="evenodd" d="M34.8406 24.7715C34.8406 24.7715 35.2491 25.1462 35.3431 25.9889C35.438 26.8308 35.1863 27.8068 35.1863 27.8068C35.1863 27.8068 36.0847 25.0968 34.8398 24.7715H34.8406Z" fill="#5F3722"/>
<path fill-rule="evenodd" clip-rule="evenodd" d="M34.0724 31.7731C34.0724 31.7731 33.8294 31.7386 33.7902 31.5426C33.751 31.3466 33.874 31.4493 33.983 31.5332C34.092 31.6171 34.2252 31.6077 34.2401 31.5567C34.255 31.5057 34.3883 30.801 35.0507 30.6097C35.7131 30.4184 35.8017 30.6748 35.9506 30.7312C36.0988 30.7869 36.2274 30.703 36.3112 30.6285C36.3951 30.5541 36.9439 30.2789 37.6855 30.7728C38.427 31.2674 39.0675 31.6492 39.1561 31.7103C39.2447 31.7707 39.4281 31.7292 39.4132 31.6218C39.3983 31.5144 39.552 31.5144 39.6406 31.6218C39.7291 31.7292 39.2847 31.846 39.2847 31.846C39.2847 31.846 38.6536 32.7145 37.7497 33.2225C36.8451 33.7313 35.5603 33.6796 35.0413 33.2649C34.5223 32.8494 34.2064 32.0208 34.0732 31.7738L34.0724 31.7731Z" fill="#632F13"/>
<path fill-rule="evenodd" clip-rule="evenodd" d="M36.1277 32.8588C36.1277 32.8588 36.6467 32.9521 37.0912 32.6769C37.5357 32.4018 37.8869 32.35 37.9018 32.5884C37.9167 32.8267 37.0222 33.0454 36.4437 33.0085C35.8651 32.9709 35.9694 32.8126 36.1277 32.8596V32.8588Z" fill="#8F3B2E"/>
<path fill-rule="evenodd" clip-rule="evenodd" d="M34.7278 31.683C34.7278 31.683 34.9136 31.723 35.2546 31.9307C35.5956 32.1385 36.2134 32.3258 36.6571 32.1463C37.1008 31.9668 37.4128 31.7873 37.7812 31.77C37.7812 31.77 36.6618 31.4792 36.0801 31.4996C35.4059 31.5239 35.3228 31.7104 34.7271 31.683H34.7278Z" fill="white"/>
<path fill-rule="evenodd" clip-rule="evenodd" d="M32.1348 25.0231C32.1348 25.0231 32.8434 24.356 33.6814 24.5363C34.5202 24.7166 34.6919 25.3782 34.7828 25.317C34.8738 25.2559 33.7496 23.4756 32.1348 25.0231Z" fill="#542F1B"/>
<path fill-rule="evenodd" clip-rule="evenodd" d="M32.3188 25.4677C32.3188 25.4677 32.5909 25.8981 32.986 26.0447C33.3811 26.1913 33.7605 26.0666 34.0772 26.007C34.3939 25.9475 34.644 25.9851 34.644 25.9851C34.644 25.9851 34.7318 26.0447 34.7772 25.9255C34.8227 25.8063 34.651 25.7491 34.651 25.7491C34.651 25.7491 34.4002 25.0475 33.501 25.0044C32.6018 24.9613 32.4239 25.4073 32.3188 25.4677Z" fill="white"/>
<path fill-rule="evenodd" clip-rule="evenodd" d="M32.3187 25.4673C32.3187 25.4673 32.5907 25.8977 32.9858 26.0443C33.3809 26.1909 33.7603 26.0663 34.077 26.0067C34.3937 25.9471 34.6438 25.9847 34.6438 25.9847C34.6438 25.9847 34.6649 25.9988 34.6924 25.9996C34.4901 25.7652 33.6474 26.1227 33.1253 25.9785C32.7357 25.8711 32.4754 25.5685 32.368 25.4219C32.3492 25.443 32.3328 25.4587 32.3179 25.4673H32.3187Z" fill="#96664C"/>
<path fill-rule="evenodd" clip-rule="evenodd" d="M32.3188 25.4677C32.3188 25.4677 32.358 25.5296 32.4286 25.6151C32.7884 25.4191 33.8545 24.9723 34.7694 25.9435C34.7725 25.938 34.7749 25.9318 34.7772 25.9255C34.8227 25.8063 34.651 25.7491 34.651 25.7491C34.651 25.7491 34.4002 25.0475 33.501 25.0044C32.6018 24.9613 32.4239 25.4073 32.3188 25.4677Z" fill="#ADA89F"/>
<path fill-rule="evenodd" clip-rule="evenodd" d="M34.3093 25.2975C34.1314 25.1517 33.8711 25.0224 33.5011 25.0043C33.3318 24.9965 33.1875 25.0051 33.0652 25.0263C33.0143 25.1352 32.9923 25.2599 33.0088 25.3877C33.0551 25.7451 33.3827 25.9975 33.7402 25.9513C34.0718 25.9082 34.3132 25.6236 34.3093 25.2975Z" fill="#625D54"/>
<path d="M33.6913 25.5753C33.8414 25.5559 33.9473 25.4184 33.9279 25.2683C33.9085 25.1182 33.771 25.0123 33.6209 25.0317C33.4708 25.0511 33.3649 25.1886 33.3843 25.3387C33.4037 25.4888 33.5412 25.5947 33.6913 25.5753Z" fill="#191716"/>
<path fill-rule="evenodd" clip-rule="evenodd" d="M31.9395 25.3233C31.9395 25.3233 32.086 25.4409 32.1895 25.4746C32.293 25.5084 32.3385 25.4974 32.3385 25.4974C32.3385 25.4974 32.7046 25.0309 33.4947 25.0819C34.2857 25.1329 34.651 25.749 34.651 25.749C34.651 25.749 34.3696 24.8193 33.465 24.7276C32.5603 24.6358 32.1613 25.332 31.9395 25.3233Z" fill="#191716"/>
<path d="M33.2166 25.6511C33.3224 25.6374 33.397 25.5406 33.3833 25.4349C33.3696 25.3291 33.2728 25.2545 33.1671 25.2682C33.0613 25.2819 32.9867 25.3787 33.0004 25.4844C33.0141 25.5902 33.1109 25.6648 33.2166 25.6511Z" fill="white"/>
<path fill-rule="evenodd" clip-rule="evenodd" d="M38.4346 25.0142C38.4346 25.0142 38.9331 24.2899 40.0824 24.3894C41.2316 24.489 41.7929 25.1475 41.7929 25.1475C41.7929 25.1475 41.3382 24.3291 40.0643 24.2875C38.7913 24.2467 38.4597 24.8856 38.4346 25.0142Z" fill="#542F1B"/>
<path fill-rule="evenodd" clip-rule="evenodd" d="M38.3626 25.8191C38.3626 25.8191 38.2286 25.9783 38.1321 25.8434C38.0357 25.7086 38.2834 25.5252 38.2834 25.5252C38.2834 25.5252 38.9788 24.8627 39.8513 24.8792C40.7238 24.8957 41.3846 25.4546 41.4928 25.493C41.601 25.5306 41.6331 25.5346 41.6057 25.5314C41.5783 25.5283 40.8931 26.1774 39.9955 26.1774C39.0979 26.1782 38.6715 25.758 38.3634 25.8199L38.3626 25.8191Z" fill="white"/>
<path fill-rule="evenodd" clip-rule="evenodd" d="M38.3628 25.8194C38.3628 25.8194 38.2789 25.919 38.1958 25.8939C38.4717 25.4267 39.3184 26.1142 40.1031 26.0366C40.742 25.9739 41.2586 25.6203 41.4514 25.4722C41.4687 25.4824 41.4828 25.4902 41.4922 25.4933C41.6004 25.531 41.6325 25.5349 41.6051 25.5317C41.5776 25.5286 40.8925 26.1777 39.9949 26.1777C39.0973 26.1785 38.6709 25.7583 38.3628 25.8202V25.8194Z" fill="#96664C"/>
<path fill-rule="evenodd" clip-rule="evenodd" d="M38.2261 25.5745C38.2574 25.544 38.2833 25.5252 38.2833 25.5252C38.2833 25.5252 38.9786 24.8627 39.8511 24.8792C40.7236 24.8957 41.3845 25.4546 41.4927 25.493C41.6008 25.5306 41.633 25.5346 41.6056 25.5314C41.5969 25.5306 41.5209 25.5957 41.3931 25.6851C39.9146 24.9012 38.6902 25.3449 38.2269 25.5753L38.2261 25.5745Z" fill="#ADA89F"/>
<path fill-rule="evenodd" clip-rule="evenodd" d="M39.4184 24.9241C39.5556 24.8935 39.7006 24.8763 39.8511 24.8786C40.0941 24.8833 40.3214 24.9296 40.5245 24.9962C40.595 25.1169 40.628 25.2612 40.6099 25.4117C40.566 25.7778 40.2336 26.038 39.8676 25.9941C39.5015 25.9503 39.2412 25.6179 39.2851 25.2518C39.3 25.1279 39.3478 25.0166 39.4192 24.9249L39.4184 24.9241Z" fill="#625D54"/>
<path d="M39.9135 25.6089C40.0669 25.6275 40.2064 25.5181 40.2249 25.3646C40.2435 25.2111 40.1341 25.0716 39.9806 25.0531C39.8271 25.0346 39.6876 25.144 39.6691 25.2975C39.6506 25.451 39.76 25.5904 39.9135 25.6089Z" fill="#191716"/>
<path fill-rule="evenodd" clip-rule="evenodd" d="M38.1492 25.6635C38.1492 25.6635 38.4573 25.2849 39.1597 25.1069C39.8629 24.929 40.3528 24.9972 40.8498 25.2355C41.3476 25.4738 41.5365 25.6188 41.7686 25.5295C42.0006 25.4401 42.0273 25.2927 42.0273 25.2927C42.0273 25.2927 41.9105 25.3633 41.7788 25.2865C41.6471 25.2096 39.2412 23.688 38.1484 25.6635H38.1492Z" fill="#191716"/>
<path d="M39.3163 25.5642C39.4221 25.577 39.5183 25.5015 39.5311 25.3957C39.5439 25.2898 39.4684 25.1936 39.3626 25.1809C39.2567 25.1681 39.1605 25.2435 39.1478 25.3494C39.135 25.4552 39.2104 25.5514 39.3163 25.5642Z" fill="white"/>
<path fill-rule="evenodd" clip-rule="evenodd" d="M34.5194 28.5474C34.5194 28.5474 34.3069 28.7324 34.2975 29.1478C34.2873 29.5625 34.7271 29.7044 34.9051 29.7217C35.083 29.7389 35.0924 29.7217 35.0924 29.7217C35.0924 29.7217 34.1149 29.6331 34.5194 28.5481V28.5474Z" fill="#5F3722"/>
<path fill-rule="evenodd" clip-rule="evenodd" d="M34.9873 27.9667C34.9873 27.9667 35.3487 27.6649 36.0119 27.6758C36.6751 27.6868 37.0427 28.0356 37.0427 28.0356C37.0427 28.0356 36.6281 27.57 35.9586 27.5645C35.2891 27.559 34.9873 27.9667 34.9873 27.9667Z" fill="#96664C"/>
<path d="M35.7323 28.6346C35.9137 28.6346 36.0607 28.5269 36.0607 28.394C36.0607 28.2611 35.9137 28.1533 35.7323 28.1533C35.5509 28.1533 35.4038 28.2611 35.4038 28.394C35.4038 28.5269 35.5509 28.6346 35.7323 28.6346Z" fill="#96664C"/>
<path fill-rule="evenodd" clip-rule="evenodd" d="M35.6122 29.5213C35.6122 29.5213 35.4318 29.4218 35.1481 29.4461C34.8643 29.4704 34.8941 29.3912 34.985 29.2893C35.0767 29.1882 35.2563 29.2368 35.4146 29.3442C35.573 29.4524 35.6122 29.5206 35.6122 29.5206V29.5213Z" fill="#241714"/>
<path fill-rule="evenodd" clip-rule="evenodd" d="M36.313 29.5162C36.313 29.5162 36.4141 29.4214 36.6979 29.4457C36.9817 29.47 36.9519 29.3908 36.8609 29.2889C36.7026 29.1133 36.36 29.3438 36.313 29.5162Z" fill="#241714"/>
<path fill-rule="evenodd" clip-rule="evenodd" d="M37.6164 28.3623C37.6164 28.3623 38.0805 28.697 38.0703 29.1211C38.0601 29.5452 37.6603 29.6816 37.4832 29.7083C37.3052 29.7349 37.063 29.6597 37.063 29.6597C37.063 29.6597 37.6211 29.7632 37.8132 29.3775C38.0053 28.9918 37.7387 28.632 37.6157 28.3623H37.6164Z" fill="#5F3722"/>
<path fill-rule="evenodd" clip-rule="evenodd" d="M31.9707 23.9143C32.5657 23.7481 34.0645 24.1753 34.4925 24.4999C34.7567 24.7013 34.8359 24.8769 34.9566 24.8385C35.18 24.768 35.474 24.2678 34.8508 23.7787C34.2276 23.2895 32.5594 23.2895 31.9817 23.5976C31.4047 23.9049 31.6908 24.0373 31.9707 23.9143Z" fill="#191716"/>
<path fill-rule="evenodd" clip-rule="evenodd" d="M37.4206 24.46C37.4206 24.46 37.7562 24.8073 38.0274 24.5988C38.2994 24.3903 39.0473 24.014 40.1353 23.8705C41.2226 23.7271 42.1406 23.9144 42.2535 24.0187C42.3664 24.123 42.6023 23.9717 42.3821 23.7796C42.1618 23.5875 40.862 23.1211 39.6203 23.2489C38.3786 23.3767 36.777 23.5421 37.4206 24.46Z" fill="#191716"/>
<path fill-rule="evenodd" clip-rule="evenodd" d="M37.3398 24.8843C37.3398 24.8843 37.1681 25.4001 37.1219 25.8767C37.0756 26.3533 37.2214 27.4116 37.2214 27.4116C37.2214 27.4116 37.2018 26.0296 37.3406 24.8851L37.3398 24.8843Z" fill="#5F3722"/>
<path fill-rule="evenodd" clip-rule="evenodd" d="M32.4355 25.9424C32.4355 25.9424 32.7397 26.2411 33.2493 26.3179C33.7588 26.3947 34.4001 26.1799 34.4001 26.1799C34.4001 26.1799 33.0047 26.441 32.4355 25.9424Z" fill="#5F3722"/>
<path fill-rule="evenodd" clip-rule="evenodd" d="M38.8472 26.0366C38.8472 26.0366 39.2156 26.427 39.784 26.4646C40.3523 26.5023 41.0343 26.0962 41.0343 26.0962C41.0343 26.0962 39.5292 26.6787 38.8472 26.0366Z" fill="#5F3722"/>
</svg>
