<svg width="85" height="212" viewBox="0 0 85 212" fill="none" xmlns="http://www.w3.org/2000/svg">
<g clip-path="url(#clip0)">
<path fill-rule="evenodd" clip-rule="evenodd" d="M36.1264 34.926C36.1264 34.926 36.9299 36.7954 37.3399 39.042C37.7499 41.2887 37.3071 42.4038 35.7492 43.1581C34.1914 43.9125 31.9775 44.9456 30.8296 45.5687C29.6653 46.1919 27.9598 47.5038 28.1566 50.472C28.3534 53.4401 29.6817 56.2443 29.6817 56.2443C29.6817 56.2443 47.3103 61.1803 49.9669 58.8517C52.6071 56.5067 55.9197 41.4691 52.4759 40.9279C52.312 40.8951 50.9673 40.6983 50.8033 40.6819C49.9341 40.5835 46.9004 40.7967 45.8017 38.0581C44.6373 35.1719 45.4573 30.2031 45.4573 30.2031C45.4573 30.2031 39.7505 35.0572 36.1592 34.9424L36.1264 34.926Z" fill="#825740"/>
<path fill-rule="evenodd" clip-rule="evenodd" d="M48.0155 48.8809C48.0155 48.8809 47.0808 53.7513 45.7197 55.8503C44.3586 57.9494 47.5071 60.606 47.8843 57.4082C48.2615 54.2105 48.0155 48.8809 48.0155 48.8809Z" fill="#5F3722"/>
<path fill-rule="evenodd" clip-rule="evenodd" d="M29.8457 111.065C29.8457 111.065 29.6325 113.952 30.3869 118.576C31.1412 123.201 31.9119 125.054 32.1907 126.923C33.7322 122.053 36.0936 114.903 36.7988 112.738C32.7647 111.18 30.1737 111.082 29.8457 111.065V111.065ZM35.782 152.456C36.8644 160.212 38.3894 171.724 38.2419 174.578C38.0287 178.989 34.9457 186.45 34.9457 186.45C34.9457 186.45 33.7486 187.434 35.1589 188.681C36.5692 189.927 37.9795 189.943 37.9795 189.943L38.3402 189.402C38.3238 189.173 38.373 189.009 38.373 189.009C38.373 189.009 38.373 189.009 38.9962 183.433C39.6194 177.858 40.2589 175.627 39.1602 166.182C38.6682 161.967 37.2907 157.015 35.7984 152.456H35.782ZM45.0473 150.275C45.0965 148.291 45.3261 146.815 44.8178 143.814C44.3258 140.796 43.0795 140.058 42.3251 137.287C41.5708 134.516 45.2441 129.448 45.1621 125.218C44.8669 124.316 37.4711 134.237 38.4878 137.008C39.5046 139.78 41.62 140.452 43.3255 143.978C45.0309 147.503 44.785 148.537 45.0473 150.291V150.275Z" fill="#5F3722"/>
<path fill-rule="evenodd" clip-rule="evenodd" d="M30.6164 54.7191C31.2232 55.2439 32.6335 55.867 35.8476 55.6211C40.0457 55.2767 43.4403 53.6696 44.5718 53.0629C46.5396 43.6664 49.7538 41.1738 51.2133 40.5178C52.0004 40.1571 52.312 40.4522 52.4432 40.7802C52.4268 40.7802 47.7039 41.305 45.2113 53.4892C45.5885 54.5224 46.4248 56.6706 47.8023 58.9828C49.721 62.2298 48.2943 73.5941 48.2943 73.5941C48.2943 73.5941 49.803 77.2018 51.8528 80.8751C53.9027 84.5648 58.2155 92.1247 56.8052 100.504C55.3949 108.884 49.311 119.133 49.311 119.133C49.311 119.133 44.7686 116.28 38.9798 113.673C33.191 111.065 29.8457 111.082 29.8457 111.082C29.8457 111.082 29.7145 109.097 29.6653 106.392C29.5505 99.9633 29.5833 88.6317 30.4525 84.3189C31.1576 80.8751 31.2888 79.5632 31.3216 77.087C31.3708 73.8565 30.3049 74.6764 29.9113 71.2983C29.3865 66.7558 29.1406 66.0999 29.1406 66.0999C29.1406 66.0999 25.0737 61.6394 29.9933 54.3748C30.0261 54.3092 30.0589 54.2436 30.0917 54.178C31.2232 52.1117 33.2566 48.9632 32.6991 44.6175C32.6663 44.1256 33.3386 44.0436 33.355 44.3715C33.8634 49.0452 31.8955 52.3577 30.7148 54.5224C30.682 54.588 30.6328 54.6699 30.6 54.7355L30.6164 54.7191Z" fill="#D5C1B5"/>
<path fill-rule="evenodd" clip-rule="evenodd" d="M36.7988 112.738C33.8142 116.1 32.0103 127.251 31.0264 130.711C29.8949 134.663 29.8457 135.5 31.174 139.566C31.7807 141.419 32.9943 145.486 34.5357 149.93C36.3724 155.178 38.5698 161.082 39.1602 166.198C40.2425 175.644 39.6193 177.874 38.9962 183.449C38.373 189.025 38.373 189.025 38.373 189.025C38.373 189.025 37.7991 191.222 41.702 191.55C45.6049 191.878 45.9165 189.681 45.8509 187.533C45.7853 185.401 46.1952 183.039 46.6216 180.842C47.0644 178.645 47.0152 177.415 46.0149 174.397C45.0145 171.396 45.2605 169.593 45.7525 162.098C46.2444 154.604 47.5563 149.488 44.9489 144.453C42.3415 139.419 39.9637 139.583 38.9798 137.057C37.9959 134.548 46.7528 126.939 49.1962 119.019C48.3927 118.527 44.211 115.985 39.0126 113.64C38.2418 113.296 37.5039 112.984 36.8316 112.722L36.7988 112.738Z" fill="#825740"/>
<path fill-rule="evenodd" clip-rule="evenodd" d="M34.9785 186.368C34.2406 186.942 32.6991 188.27 31.1084 190.287C28.8946 193.075 29.5013 193.223 30.1737 193.223C30.7968 193.223 35.5525 193.567 36.9464 192.747C37.0612 192.37 37.176 192.009 37.2907 191.665C37.5695 190.861 37.7827 190.32 37.9631 189.959C37.8647 189.959 36.5036 189.894 35.1589 188.697C33.7486 187.45 34.9457 186.467 34.9457 186.467L34.9785 186.385V186.368Z" fill="#BA9F8A"/>
<path fill-rule="evenodd" clip-rule="evenodd" d="M38.3239 189.32C38.1435 189.549 37.8155 190.156 37.2907 191.665C36.438 194.141 35.4541 197.978 37.176 197.847C38.8978 197.716 46.0805 195.158 46.3265 192.009C46.5724 188.86 47.2448 186.86 47.6875 184.416C48.1303 181.973 49.2126 180.464 49.2782 178.792C49.3274 177.25 48.1303 175.905 46.0641 174.577C46.9988 177.447 47.048 178.677 46.6052 180.825C46.1625 183.023 45.7689 185.384 45.8345 187.516C45.9001 189.648 45.6049 191.861 41.6856 191.533C38.6682 191.271 38.3239 189.91 38.3239 189.303V189.32Z" fill="#D4C1B5"/>
<path fill-rule="evenodd" clip-rule="evenodd" d="M48.9338 180.465C48.8682 180.99 48.7698 181.646 48.6059 182.4C48.1139 184.597 48.2943 187.893 48.2779 188.681C48.1795 188.877 47.3759 188.845 47.3759 188.713L47.4251 185.762C47.5235 185.319 47.6055 184.876 47.6875 184.417C47.9827 182.793 48.5567 181.58 48.9338 180.465V180.465Z" fill="#A68C7A"/>
<path fill-rule="evenodd" clip-rule="evenodd" d="M40.1277 178.235C40.1277 178.235 38.9798 185.86 38.8486 187.795C38.7174 189.73 42.1939 177.677 40.1277 178.235Z" fill="#96664C"/>
<path fill-rule="evenodd" clip-rule="evenodd" d="M30.9444 111.475C30.9444 111.475 31.0428 114.329 31.6496 118.74C32.2399 123.151 32.6499 124.299 32.5843 123.922C32.5187 123.561 32.0759 111.836 32.0759 111.836C32.0759 111.836 31.6496 111.344 30.9608 111.459L30.9444 111.475Z" fill="#825740"/>
<path fill-rule="evenodd" clip-rule="evenodd" d="M37.3563 113.968L39.0126 114.443C39.0126 114.443 36.7988 118.674 34.1914 124.709C31.584 130.744 31.2724 131.432 31.2724 131.432C33.5846 125.496 34.421 117.51 37.3563 113.968Z" fill="#96664C"/>
<path fill-rule="evenodd" clip-rule="evenodd" d="M36.7988 112.737L36.0444 113.787C40.3409 114.066 47.3104 117.805 48.6715 120.478C48.8846 119.936 49.0322 119.461 49.1798 119.034C48.3763 118.542 44.1946 116.001 38.9962 113.656C38.2255 113.311 37.4875 113 36.8152 112.737H36.7988Z" fill="#5F3722"/>
<path fill-rule="evenodd" clip-rule="evenodd" d="M29.9113 90.0586C29.9113 90.0586 27.4023 99.6191 27.6811 104.637C27.9599 109.639 27.9763 108.294 28.5174 110.278C29.0586 112.262 29.2882 113.164 29.2882 113.164C29.2882 113.164 29.9605 114.263 29.9441 113.952C29.9277 113.64 29.6981 106.179 29.6981 106.179C29.6981 106.179 30.0589 107.408 30.4525 108.278C30.846 109.13 31.0428 109.327 31.3052 109.196C31.5676 109.065 31.3052 107.589 31.01 106.589C30.7148 105.605 30.8624 104.227 30.5345 102.915C30.2065 101.603 29.6817 100.833 29.6817 100.833C29.7473 96.6345 29.7309 94.7322 29.9113 90.0586V90.0586Z" fill="#6B412B"/>
<path fill-rule="evenodd" clip-rule="evenodd" d="M55.5589 92.8135C56.0181 95.1749 56.1657 97.7167 55.7229 100.34C54.3782 108.343 48.5567 118.133 48.5567 118.133C48.5567 118.133 48.2123 117.92 47.5891 117.543C48.7862 115.526 50.9017 111.541 53.2959 104.965C55.2638 99.5698 55.6409 95.4701 55.5589 92.8135Z" fill="#B99E8A"/>
<path fill-rule="evenodd" clip-rule="evenodd" d="M49.1142 75.4473C49.7538 76.8412 50.3113 78.0875 51.4429 80.1209L51.574 80.3669C50.6229 80.9736 49.721 81.9904 47.4744 87.156C45.2277 92.338 45.0473 95.4373 45.3589 98.3727C45.6705 101.324 45.8017 101.21 45.5393 104.26C45.2769 107.31 44.5882 111.508 44.0634 112.328C43.5387 113.148 43.1779 113.132 43.1779 113.132C43.1779 113.132 42.9647 114.755 42.5219 115.345L42.2596 115.214C42.1612 114.034 41.6856 108.425 41.5544 107.917C41.4068 107.343 41.046 110.508 41.046 110.508C41.046 110.508 41.0296 110.918 41.046 112.951C41.046 113.804 41.046 114.312 41.0296 114.624C40.6033 114.427 40.1769 114.214 39.7341 114.017L39.5046 107.786C39.5046 107.786 39.275 110.344 38.8814 111.934C38.701 112.656 38.4386 113.082 38.2255 113.328L38.0615 113.263C37.9631 113.05 37.9303 112.804 37.9467 112.541C38.0451 110.459 37.7827 104.981 42.9975 91.2229C47.376 79.6617 46.4576 75.8736 49.147 75.4637L49.1142 75.4473Z" fill="#A38976"/>
<path d="M32.9779 93.9287C32.9779 93.9287 34.0766 96.5689 40.4393 98.5204L40.3409 98.8483C33.8142 96.8477 33.1419 94.3551 33.1419 94.3551L32.9779 93.9287ZM32.9943 100.373C33.0107 100.373 36.8972 102.882 40.7017 101.849L40.8001 102.194C36.848 103.276 33.519 100.997 33.5026 100.997L32.9943 100.373Z" fill="#B99E8A"/>
<path fill-rule="evenodd" clip-rule="evenodd" d="M36.1264 34.926C36.1264 34.926 36.9299 36.7954 37.3399 39.042C37.3727 39.2224 37.4055 39.3864 37.4219 39.5504C38.3238 39.8128 39.6849 39.8456 41.1936 38.5665C42.8171 37.1726 44.2766 35.4179 45.1457 34.27C45.1129 32.1218 45.4245 30.2031 45.4245 30.2031C45.4245 30.2031 39.7177 35.0572 36.1264 34.9424V34.926Z" fill="#6B412B"/>
<path fill-rule="evenodd" clip-rule="evenodd" d="M36.1264 34.9258C36.1264 34.9258 36.4544 35.6801 36.7824 36.7952C38.8158 37.566 40.1113 36.7132 42.3087 35.3685C43.6698 34.5322 44.5882 33.5319 45.1785 32.6791C45.2441 31.2524 45.4245 30.1865 45.4245 30.1865C45.4245 30.1865 39.7177 35.0406 36.1264 34.9258Z" fill="#5F3722"/>
<path fill-rule="evenodd" clip-rule="evenodd" d="M31.1248 45.749C30.7804 45.913 30.4852 46.077 30.2557 46.1918C29.2717 46.7329 28.337 48.0776 28.501 50.6195C28.5994 52.1937 28.8782 53.604 29.0586 54.4568C29.0586 54.4568 28.4518 51.5542 29.1078 48.7828C29.5341 47.0117 30.4852 46.1426 31.1084 45.749H31.1248Z" fill="#96664C"/>
<path fill-rule="evenodd" clip-rule="evenodd" d="M37.8155 100.471C37.2579 101.127 36.8972 103.505 36.9464 105.621C36.9956 107.736 36.8316 109.671 36.8316 109.671C36.8316 109.671 37.8975 110.442 38.1763 107.949C38.2911 106.883 37.9959 105.08 37.8319 104.063C37.6187 102.718 37.8155 100.455 37.8155 100.455V100.471Z" fill="#6B412B"/>
<path fill-rule="evenodd" clip-rule="evenodd" d="M52.5088 40.9443C53.4107 41.1247 54.493 41.4691 55.2145 42.0267C56.6576 43.1418 57.8711 44.3061 57.0676 48.3402C56.2805 52.3743 55.6901 50.6524 55.6409 55.162C55.5917 59.4421 55.1981 60.672 54.411 63.1318C53.6239 65.608 52.3448 68.5598 52.0332 70.5113C51.7052 72.4627 51.656 75.4145 49.803 80.6949C47.9499 85.9753 46.7364 88.0251 45.7525 91.1245C44.7685 94.2238 44.7521 94.2402 44.7193 94.7814C44.6866 95.3226 44.8177 95.6505 44.6538 96.3229C44.4898 96.9952 44.6702 97.5364 44.8177 98.3399C44.9653 99.1435 45.4573 100.521 45.1457 103.112C44.8341 105.703 44.7029 106.851 44.621 107.769C44.5226 108.671 44.4898 110.787 44.211 111.82C43.9322 112.853 43.4238 112.689 43.3419 111.754C43.2435 110.819 43.2927 108.884 43.2435 107.687C43.1943 106.49 43.2107 105.965 43.2107 105.965C43.2107 105.965 42.7679 109.491 42.8171 110.672C42.8663 111.852 42.8171 115.313 42.2595 115.247C41.6856 115.181 41.3904 110.672 41.3576 109.835C41.3412 108.999 41.4888 106.966 41.4888 106.966C41.4888 106.966 41.2592 106.785 41.1772 107.359C41.0952 107.933 40.7345 110.852 40.7345 110.852C40.7345 110.852 40.7509 113.837 40.6525 114.788C40.5541 115.739 40.3081 116.133 39.9473 116.1C39.5865 116.067 39.4882 115.641 39.357 113.984C39.2258 112.328 39.2586 110.967 39.3078 110.344C39.3406 109.721 39.4226 107.097 39.4226 107.097C39.4226 107.097 39.1438 106.785 39.0946 107.277C39.0454 107.769 38.865 109.557 38.865 109.557C38.865 109.557 38.6846 111.705 38.455 112.558C38.209 113.394 37.6679 113.64 37.5859 112.918C37.4875 112.197 37.5531 109.967 37.5859 109.524C37.6187 109.065 37.6843 105.637 37.5531 104.555C37.4219 103.473 37.3891 101.587 37.7171 100.8C39.193 97.11 39.3078 96.0605 40.4065 92.4528C41.0132 90.4521 42.3743 85.5489 42.8171 79.6618C43.3583 72.2823 46.5396 69.4945 46.5724 69.3142C47.13 66.8871 46.31 64.3125 46.5232 58.655C46.7036 54.0141 48.6222 53.227 47.8515 47.7498C48.0647 44.6341 50.6229 41.3543 52.5579 40.9607L52.5088 40.9443Z" fill="#825740"/>
<path fill-rule="evenodd" clip-rule="evenodd" d="M30.5345 55.2278C31.1412 55.7525 32.5515 56.3757 35.7657 56.1297C39.9473 55.7853 43.3255 54.1946 44.4734 53.5879C43.5551 54.2766 38.1271 56.9168 34.6669 56.7856C31.0756 56.6381 30.5345 55.2442 30.5345 55.2442V55.2278Z" fill="#E0D0C4"/>
<path fill-rule="evenodd" clip-rule="evenodd" d="M32.2891 52.6689C32.2891 52.6689 33.1911 53.2429 33.7158 54.4728C33.8634 54.8172 33.9454 55.1124 33.9946 55.3747C34.1586 55.3747 34.3226 55.3747 34.4866 55.3747C34.257 54.4236 33.6666 53.1117 32.2891 52.6689V52.6689Z" fill="#96664C"/>
<path fill-rule="evenodd" clip-rule="evenodd" d="M40.1769 52.3906C40.1769 52.3906 39.2422 52.7186 38.373 53.4237C37.7663 53.9157 37.2415 54.7356 36.9464 55.2604C37.1759 55.2276 37.4219 55.1948 37.6515 55.162C38.0451 54.3749 38.8486 53.1122 40.1769 52.3906V52.3906Z" fill="#96664C"/>
<path fill-rule="evenodd" clip-rule="evenodd" d="M35.4705 55.6373C35.2573 54.8173 34.8473 53.8662 34.093 52.9971C34.093 52.9971 34.6013 54.1942 34.6177 55.6701C34.8801 55.6701 35.1753 55.6537 35.4705 55.6373Z" fill="#5F3722"/>
<path fill-rule="evenodd" clip-rule="evenodd" d="M45.5721 15.706C48.6715 18.4774 48.3435 22.0687 47.5072 24.9221C46.6708 27.7755 46.1297 29.727 45.6541 31.2356C45.1785 32.7443 45.0801 33.0395 42.8827 34.4334C40.6853 35.8273 38.7994 36.844 37.3235 36.2373C35.8477 35.6305 34.5522 34.827 33.847 33.0887C33.1583 31.3504 32.8467 29.8745 32.3055 28.3987C31.7644 26.9228 32.2399 26.5456 32.2235 24.9713C32.2071 23.397 32.0431 23.3315 31.9448 21.8556C31.8792 20.9864 31.5184 19.1006 33.2075 16.8212C35.9788 13.0986 42.1612 12.6395 45.5721 15.6896V15.706Z" fill="#825740"/>
<path fill-rule="evenodd" clip-rule="evenodd" d="M47.5072 23.9879C47.7367 23.8731 48.0319 23.7911 48.3435 23.9059C48.9994 24.1519 49.4586 25.4146 48.6387 27.0544C47.8023 28.6943 47.4252 29.4814 47.2284 29.7602C47.048 30.0226 46.4248 30.285 46.1461 29.6126C46.4412 28.5467 46.7692 27.202 47.3268 24.9062C47.3924 24.5946 47.458 24.2994 47.5072 23.9879V23.9879Z" fill="#825740"/>
<path fill-rule="evenodd" clip-rule="evenodd" d="M46.2773 29.8583C46.2281 29.7927 46.1789 29.7107 46.1297 29.6123C46.4248 28.5463 46.7528 27.2017 47.3104 24.9058C47.3432 24.7418 47.3924 24.5615 47.4252 24.3975C47.5892 24.3319 47.8187 24.2827 48.0647 24.2991C48.8027 24.3319 48.8355 25.7586 48.5731 26.3981C48.3107 27.0377 48.3107 27.0377 48.3107 27.0377C48.3107 27.0377 48.5731 26.2013 48.5075 25.4798C48.4419 24.7582 47.8187 24.7746 47.6548 24.955C47.4908 25.1354 47.212 25.6274 47.3268 26.2341C47.4416 26.8245 47.3104 27.5624 47.0152 27.7592C46.7692 27.9232 46.2773 29.2187 46.2609 29.8419L46.2773 29.8583Z" fill="#5F3722"/>
<path fill-rule="evenodd" clip-rule="evenodd" d="M35.1753 24.3161C34.6505 24.0702 34.6997 24.5293 33.8306 24.8081C32.9451 25.0869 35.1097 26.1036 35.3721 25.8904C35.6345 25.6772 35.9132 24.8737 35.1917 24.3161H35.1753Z" fill="#784C35"/>
<path fill-rule="evenodd" clip-rule="evenodd" d="M39.029 24.3161C39.5537 24.0702 39.5046 24.5293 40.3737 24.8081C41.2592 25.0869 39.0946 26.1036 38.8322 25.8904C38.5698 25.6772 38.291 24.8737 39.0126 24.3161H39.029Z" fill="#784C35"/>
<path fill-rule="evenodd" clip-rule="evenodd" d="M35.5033 24.7744C35.5033 24.7744 35.9132 25.1516 36.0116 25.9879C36.11 26.8243 35.8476 27.8082 35.8476 27.8082C35.8476 27.8082 36.7496 25.1024 35.5033 24.7744V24.7744Z" fill="#5F3722"/>
<path fill-rule="evenodd" clip-rule="evenodd" d="M34.7325 31.7775C34.7325 31.7775 34.4865 31.7447 34.4537 31.5479C34.4209 31.3512 34.5357 31.4495 34.6505 31.5315C34.7653 31.6135 34.8965 31.6135 34.9129 31.5479C34.9293 31.4987 35.0605 30.7936 35.7165 30.5968C36.3724 30.4 36.4708 30.6624 36.6184 30.7116C36.766 30.7608 36.8972 30.6788 36.9792 30.6132C37.0611 30.5312 37.6187 30.2688 38.3566 30.7608C39.0946 31.2528 39.7341 31.6299 39.8325 31.6955C39.9145 31.7611 40.1113 31.7119 40.0949 31.6135C40.0785 31.4987 40.2261 31.4987 40.3245 31.6135C40.4065 31.7283 39.9637 31.8431 39.9637 31.8431C39.9637 31.8431 39.3406 32.7123 38.4222 33.2206C37.5203 33.729 36.2248 33.6798 35.7165 33.2698C35.1917 32.8598 34.8801 32.0235 34.7489 31.7775H34.7325Z" fill="#632F13"/>
<path fill-rule="evenodd" clip-rule="evenodd" d="M36.7824 32.8763C36.7824 32.8763 37.3071 32.9747 37.7499 32.6959C38.1927 32.4171 38.5534 32.3679 38.5534 32.6139C38.5698 32.8599 37.6679 33.0731 37.0939 33.0403C36.52 33.0075 36.6184 32.8435 36.7824 32.8927V32.8763Z" fill="#8F3B2E"/>
<path fill-rule="evenodd" clip-rule="evenodd" d="M35.3885 31.6946C35.3885 31.6946 35.5689 31.7274 35.9132 31.9406C36.2576 32.1538 36.8644 32.3342 37.3235 32.1538C37.7663 31.9734 38.0779 31.793 38.4551 31.7766C38.4551 31.7766 37.3399 31.4815 36.7496 31.5143C36.0772 31.5307 35.9952 31.7274 35.4049 31.6946H35.3885Z" fill="white"/>
<path fill-rule="evenodd" clip-rule="evenodd" d="M32.7975 25.0376C32.7975 25.0376 33.5026 24.3653 34.339 24.5457C35.1753 24.726 35.3557 25.382 35.4377 25.3328C35.5361 25.2672 34.4046 23.4961 32.7975 25.0376V25.0376Z" fill="#542F1B"/>
<path fill-rule="evenodd" clip-rule="evenodd" d="M32.9779 25.4804C32.9779 25.4804 33.2567 25.9068 33.6502 26.0544C34.0438 26.202 34.421 26.0708 34.7489 26.0216C35.0605 25.956 35.3229 26.0052 35.3229 26.0052C35.3229 26.0052 35.4049 26.0708 35.4541 25.9396C35.5033 25.8248 35.3229 25.7592 35.3229 25.7592C35.3229 25.7592 35.0769 25.0541 34.175 25.0213C33.2731 24.9721 33.0927 25.4312 32.9943 25.4804H32.9779Z" fill="white"/>
<path fill-rule="evenodd" clip-rule="evenodd" d="M32.9779 25.4801C32.9779 25.4801 33.2567 25.9064 33.6502 26.054C34.0438 26.2016 34.421 26.0704 34.7489 26.0212C35.0605 25.9556 35.3229 26.0048 35.3229 26.0048C35.3229 26.0048 35.3393 26.0212 35.3721 26.0212C35.1753 25.7916 34.3226 26.1524 33.7978 26.0048C33.4042 25.89 33.1419 25.5949 33.0435 25.4473C33.0271 25.4637 33.0107 25.4801 32.9943 25.4965L32.9779 25.4801Z" fill="#96664C"/>
<path fill-rule="evenodd" clip-rule="evenodd" d="M32.9779 25.4804C32.9779 25.4804 33.0107 25.546 33.0927 25.628C33.4534 25.4312 34.5194 24.9885 35.4377 25.956V25.9396C35.4869 25.8248 35.3065 25.7592 35.3065 25.7592C35.3065 25.7592 35.0605 25.0541 34.1586 25.0213C33.2567 24.9721 33.0763 25.4312 32.9779 25.4804V25.4804Z" fill="#ADA89F"/>
<path fill-rule="evenodd" clip-rule="evenodd" d="M34.9621 25.3001C34.7817 25.1525 34.5193 25.0213 34.1586 25.0049C33.9946 25.0049 33.847 25.0049 33.7158 25.0213C33.6666 25.1361 33.6502 25.2509 33.6666 25.3821C33.7158 25.7428 34.0438 25.9888 34.4046 25.9396C34.7325 25.8904 34.9785 25.6116 34.9785 25.2837L34.9621 25.3001Z" fill="#625D54"/>
<path d="M34.3513 25.5858C34.5012 25.5664 34.607 25.4292 34.5876 25.2793C34.5682 25.1294 34.431 25.0236 34.2811 25.043C34.1312 25.0624 34.0254 25.1996 34.0448 25.3495C34.0642 25.4994 34.2014 25.6052 34.3513 25.5858Z" fill="#191716"/>
<path fill-rule="evenodd" clip-rule="evenodd" d="M32.6007 25.3332C32.6007 25.3332 32.7483 25.448 32.8467 25.4808C32.9451 25.5136 32.9943 25.4972 32.9943 25.4972C32.9943 25.4972 33.3551 25.038 34.1586 25.0872C34.9457 25.1364 35.3065 25.7595 35.3065 25.7595C35.3065 25.7595 35.0277 24.8248 34.1258 24.7428C33.2239 24.6444 32.8303 25.3496 32.6007 25.3332Z" fill="#191716"/>
<path d="M33.8767 25.6614C33.9823 25.6477 34.0568 25.551 34.0431 25.4454C34.0295 25.3398 33.9328 25.2653 33.8272 25.279C33.7216 25.2926 33.6471 25.3893 33.6607 25.4949C33.6744 25.6005 33.7711 25.675 33.8767 25.6614Z" fill="white"/>
<path fill-rule="evenodd" clip-rule="evenodd" d="M39.0946 25.0206C39.0946 25.0206 39.5866 24.2991 40.7345 24.3975C41.8824 24.4959 42.4399 25.1518 42.4399 25.1518C42.4399 25.1518 41.9808 24.3319 40.7181 24.2991C39.439 24.2663 39.111 24.8895 39.0946 25.0206Z" fill="#542F1B"/>
<path fill-rule="evenodd" clip-rule="evenodd" d="M39.029 25.8237C39.029 25.8237 38.8978 25.9877 38.7994 25.8401C38.701 25.7089 38.947 25.5285 38.947 25.5285C38.947 25.5285 39.6358 24.8726 40.5213 24.889C41.3904 24.9054 42.0464 25.4629 42.1612 25.4957C42.2759 25.5285 42.3087 25.5449 42.2759 25.5285C42.2432 25.5285 41.5708 26.1681 40.6689 26.1681C39.7669 26.1681 39.3406 25.7417 39.029 25.8073V25.8237Z" fill="white"/>
<path fill-rule="evenodd" clip-rule="evenodd" d="M39.029 25.8241C39.029 25.8241 38.947 25.9225 38.865 25.9061C39.1438 25.4469 39.9801 26.1192 40.7673 26.0537C41.4068 25.9881 41.9152 25.6437 42.112 25.4961C42.1284 25.5125 42.1448 25.5125 42.1448 25.5125C42.2596 25.5453 42.2924 25.5617 42.2596 25.5453C42.2268 25.5453 41.5544 26.1848 40.6525 26.1848C39.7506 26.1848 39.3242 25.7585 39.0126 25.8241H39.029Z" fill="#96664C"/>
<path fill-rule="evenodd" clip-rule="evenodd" d="M38.8814 25.5777C38.9142 25.5449 38.9306 25.5285 38.9306 25.5285C38.9306 25.5285 39.6194 24.8726 40.5049 24.889C41.374 24.9054 42.03 25.4629 42.1448 25.4957C42.2596 25.5285 42.2923 25.5449 42.2596 25.5285C42.2432 25.5285 42.1776 25.5941 42.0464 25.6761C40.5705 24.889 39.3406 25.3317 38.8814 25.5613V25.5777Z" fill="#ADA89F"/>
<path fill-rule="evenodd" clip-rule="evenodd" d="M40.0785 24.9388C40.2097 24.906 40.3573 24.8896 40.5049 24.8896C40.7509 24.8896 40.9804 24.9388 41.1772 25.0044C41.2428 25.1192 41.2756 25.2668 41.2592 25.4144C41.21 25.7752 40.8821 26.0376 40.5213 26.0048C40.1605 25.9556 39.8981 25.6276 39.9309 25.2668C39.9473 25.1356 39.9965 25.0372 40.0621 24.9388H40.0785Z" fill="#625D54"/>
<path d="M40.5732 25.6189C40.7265 25.6374 40.8657 25.5281 40.8842 25.3748C40.9028 25.2215 40.7935 25.0823 40.6402 25.0638C40.4869 25.0453 40.3477 25.1545 40.3292 25.3078C40.3107 25.4611 40.4199 25.6004 40.5732 25.6189Z" fill="#191716"/>
<path fill-rule="evenodd" clip-rule="evenodd" d="M38.8158 25.677C38.8158 25.677 39.1274 25.2999 39.8325 25.1195C40.5377 24.9391 41.0296 25.0047 41.5216 25.2507C42.0135 25.4966 42.2103 25.6278 42.4399 25.5458C42.6695 25.4638 42.7023 25.3163 42.7023 25.3163C42.7023 25.3163 42.5875 25.3818 42.4563 25.3163C42.3251 25.2343 39.9145 23.7256 38.8322 25.6934L38.8158 25.677Z" fill="#191716"/>
<path d="M39.976 25.5739C40.0817 25.5867 40.1778 25.5113 40.1905 25.4056C40.2033 25.2999 40.128 25.2038 40.0222 25.1911C39.9165 25.1783 39.8205 25.2537 39.8077 25.3594C39.795 25.4651 39.8703 25.5611 39.976 25.5739Z" fill="white"/>
<path fill-rule="evenodd" clip-rule="evenodd" d="M35.1753 28.5625C35.1753 28.5625 34.9621 28.7429 34.9457 29.1693C34.9293 29.5792 35.3721 29.7268 35.5525 29.7432C35.7329 29.7596 35.7329 29.7432 35.7329 29.7432C35.7329 29.7432 34.7489 29.6612 35.1589 28.5625H35.1753Z" fill="#5F3722"/>
<path fill-rule="evenodd" clip-rule="evenodd" d="M35.6509 27.9725C35.6509 27.9725 36.0117 27.6773 36.6676 27.6773C37.3236 27.6937 37.7007 28.0381 37.7007 28.0381C37.7007 28.0381 37.2908 27.5789 36.6184 27.5625C35.9461 27.5625 35.6509 27.9725 35.6509 27.9725Z" fill="#96664C"/>
<path d="M36.3888 28.6453C36.57 28.6453 36.7168 28.5352 36.7168 28.3993C36.7168 28.2634 36.57 28.1533 36.3888 28.1533C36.2077 28.1533 36.0609 28.2634 36.0609 28.3993C36.0609 28.5352 36.2077 28.6453 36.3888 28.6453Z" fill="#96664C"/>
<path fill-rule="evenodd" clip-rule="evenodd" d="M36.274 29.5301C36.274 29.5301 36.0936 29.4317 35.8149 29.4481C35.5361 29.4645 35.5525 29.3989 35.6509 29.2841C35.7493 29.1857 35.9296 29.2349 36.0772 29.3333C36.2412 29.4481 36.274 29.5137 36.274 29.5137V29.5301Z" fill="#241714"/>
<path fill-rule="evenodd" clip-rule="evenodd" d="M36.9792 29.5306C36.9792 29.5306 37.0776 29.4322 37.3564 29.465C37.6351 29.4814 37.6023 29.4158 37.5203 29.301C37.3564 29.1206 37.012 29.3502 36.9792 29.5306V29.5306Z" fill="#241714"/>
<path fill-rule="evenodd" clip-rule="evenodd" d="M38.2747 28.3662C38.2747 28.3662 38.7338 28.6942 38.7338 29.1206C38.7174 29.5469 38.3239 29.6781 38.1435 29.7109C37.9631 29.7437 37.7171 29.6617 37.7171 29.6617C37.7171 29.6617 38.2747 29.7601 38.4714 29.3829C38.6682 28.9894 38.3895 28.645 38.2747 28.3662V28.3662Z" fill="#5F3722"/>
<path fill-rule="evenodd" clip-rule="evenodd" d="M32.6335 23.922C33.2238 23.7581 34.7325 24.1844 35.1589 24.5124C35.4213 24.7092 35.5033 24.8896 35.6181 24.8568C35.8476 24.7912 36.1428 24.2828 35.5197 23.7909C34.8965 23.2989 33.2238 23.2989 32.6499 23.6105C32.0759 23.922 32.3547 24.0532 32.6335 23.922Z" fill="#191716"/>
<path fill-rule="evenodd" clip-rule="evenodd" d="M38.0779 24.4633C38.0779 24.4633 38.4059 24.8076 38.6846 24.5945C38.9634 24.3813 39.7014 24.0041 40.8001 23.8729C41.8824 23.7253 42.8007 23.9221 42.9155 24.0205C43.0303 24.1189 43.2599 23.9713 43.0467 23.7745C42.8335 23.5777 41.5216 23.1186 40.2917 23.2498C39.0454 23.381 37.4547 23.5449 38.0943 24.4633H38.0779Z" fill="#191716"/>
<path fill-rule="evenodd" clip-rule="evenodd" d="M37.9959 24.8896C37.9959 24.8896 37.8319 25.398 37.7827 25.8736C37.7335 26.3491 37.8811 27.4151 37.8811 27.4151C37.8811 27.4151 37.8647 26.0376 37.9959 24.8896V24.8896Z" fill="#5F3722"/>
<path fill-rule="evenodd" clip-rule="evenodd" d="M33.0927 25.9551C33.0927 25.9551 33.4042 26.2503 33.9126 26.3322C34.4209 26.4142 35.0605 26.2011 35.0605 26.2011C35.0605 26.2011 33.6666 26.4634 33.0927 25.9715V25.9551Z" fill="#5F3722"/>
<path fill-rule="evenodd" clip-rule="evenodd" d="M39.5046 26.0537C39.5046 26.0537 39.8653 26.4473 40.4393 26.4801C41.0133 26.5129 41.6856 26.1193 41.6856 26.1193C41.6856 26.1193 40.1769 26.7097 39.5046 26.0537V26.0537Z" fill="#5F3722"/>
</g>
<defs>
<clipPath id="clip0">
<rect width="84.6667" height="211.667" fill="white"/>
</clipPath>
</defs>
</svg>
