<svg width="85" height="212" viewBox="0 0 85 212" fill="none" xmlns="http://www.w3.org/2000/svg">
<path fill-rule="evenodd" clip-rule="evenodd" d="M31.8652 23.0991H42.9906V27.0344H31.8652V23.0991Z" fill="#825740"/>
<path fill-rule="evenodd" clip-rule="evenodd" d="M34.8494 24.3043C34.3202 24.0659 34.3798 24.5245 33.5018 24.7966C32.6231 25.0686 34.7788 26.0947 35.0367 25.8768C35.2947 25.6589 35.5769 24.8601 34.8494 24.3043Z" fill="#784C35"/>
<path fill-rule="evenodd" clip-rule="evenodd" d="M38.7087 24.3043C39.2378 24.0659 39.1782 24.5245 40.0562 24.7966C40.935 25.0686 38.7792 26.0947 38.5213 25.8768C38.2634 25.6589 37.9812 24.8601 38.7087 24.3043Z" fill="#784C35"/>
<path fill-rule="evenodd" clip-rule="evenodd" d="M35.1743 24.7715C35.1743 24.7715 35.5827 25.1462 35.6768 25.9889C35.716 26.3417 35.6956 26.7172 35.658 27.0347H35.7191C35.8861 26.2076 35.9849 24.9831 35.1743 24.7715Z" fill="#5F3722"/>
<path fill-rule="evenodd" clip-rule="evenodd" d="M32.4678 25.0231C32.4678 25.0231 33.1757 24.356 34.0144 24.5363C34.8532 24.7166 35.0249 25.3782 35.1159 25.317C35.2068 25.2559 34.0826 23.4756 32.4678 25.0231Z" fill="#542F1B"/>
<path fill-rule="evenodd" clip-rule="evenodd" d="M32.6523 25.4677C32.6523 25.4677 32.9244 25.8988 33.3195 26.0447C33.7146 26.1913 34.094 26.0666 34.4107 26.007C34.7274 25.9475 34.9775 25.9851 34.9775 25.9851C34.9775 25.9851 35.0653 26.0447 35.1107 25.9255C35.1562 25.8063 34.9845 25.7491 34.9845 25.7491C34.9845 25.7491 34.7337 25.0475 33.8345 25.0044C32.9346 24.9613 32.7574 25.4073 32.6523 25.4677Z" fill="white"/>
<path fill-rule="evenodd" clip-rule="evenodd" d="M32.6523 25.4673C32.6523 25.4673 32.9244 25.8985 33.3195 26.0443C33.7146 26.1909 34.094 26.0663 34.4107 26.0067C34.7274 25.9471 34.9775 25.9847 34.9775 25.9847C34.9775 25.9847 34.9986 25.9988 35.0261 25.9996C34.8238 25.7652 33.9811 26.1227 33.459 25.9785C33.0694 25.8711 32.8091 25.5685 32.7025 25.4219C32.6837 25.443 32.6672 25.4587 32.6523 25.4673Z" fill="#96664C"/>
<path fill-rule="evenodd" clip-rule="evenodd" d="M32.6523 25.4677C32.6523 25.4677 32.6915 25.5296 32.7621 25.6151C33.1219 25.4191 34.188 24.9723 35.1029 25.9435C35.106 25.938 35.1084 25.9318 35.1107 25.9255C35.1562 25.8063 34.9845 25.7491 34.9845 25.7491C34.9845 25.7491 34.7337 25.0475 33.8345 25.0044C32.9346 24.9613 32.7574 25.4073 32.6523 25.4677Z" fill="#ADA89F"/>
<path fill-rule="evenodd" clip-rule="evenodd" d="M34.6423 25.2975C34.4644 25.1517 34.2041 25.0224 33.8341 25.0043C33.6648 24.9965 33.5205 25.0051 33.3983 25.0263C33.3473 25.1352 33.3254 25.2599 33.3418 25.3877C33.3881 25.7451 33.7157 25.9975 34.0732 25.9513C34.4048 25.9082 34.6463 25.6236 34.6423 25.2975Z" fill="#8A5608"/>
<path fill-rule="evenodd" clip-rule="evenodd" d="M33.9544 25.0316C34.1041 25.012 34.2421 25.1179 34.2617 25.2684C34.2813 25.4181 34.1755 25.5561 34.025 25.5749C33.8752 25.5945 33.7373 25.4887 33.7177 25.3381C33.6981 25.1876 33.8047 25.0504 33.9544 25.0308V25.0316Z" fill="#191716"/>
<path fill-rule="evenodd" clip-rule="evenodd" d="M32.2728 25.3233C32.2728 25.3233 32.4201 25.4409 32.5228 25.4746C32.6263 25.5084 32.6718 25.4974 32.6718 25.4974C32.6718 25.4974 33.0379 25.0309 33.8281 25.0819C34.6182 25.1329 34.9843 25.749 34.9843 25.749C34.9843 25.749 34.7029 24.8193 33.7983 24.7276C32.8944 24.6358 32.4946 25.332 32.272 25.3233H32.2728Z" fill="#191716"/>
<path fill-rule="evenodd" clip-rule="evenodd" d="M33.5005 25.2683C33.6064 25.2542 33.7028 25.3294 33.7169 25.4353C33.7302 25.5411 33.6558 25.6375 33.5499 25.6516C33.4441 25.6658 33.3477 25.5905 33.3336 25.4855C33.3202 25.3796 33.3947 25.2824 33.5005 25.2691V25.2683Z" fill="white"/>
<path fill-rule="evenodd" clip-rule="evenodd" d="M38.7686 25.0142C38.7686 25.0142 39.2671 24.2899 40.4164 24.3894C41.5656 24.489 42.1269 25.1475 42.1269 25.1475C42.1269 25.1475 41.6722 24.3291 40.3983 24.2875C39.1252 24.2467 38.7936 24.8856 38.7686 25.0142Z" fill="#542F1B"/>
<path fill-rule="evenodd" clip-rule="evenodd" d="M38.6964 25.8194C38.6964 25.8194 38.5624 25.9785 38.4652 25.8437C38.3687 25.7081 38.6165 25.5254 38.6165 25.5254C38.6165 25.5254 39.3118 24.863 40.1843 24.8787C41.0568 24.8952 41.7176 25.4541 41.8258 25.4925C41.934 25.5301 41.9661 25.534 41.9387 25.5309C41.9105 25.5278 41.2261 26.1769 40.3285 26.1776C39.4309 26.1776 39.0045 25.7583 38.6964 25.8202V25.8194Z" fill="white"/>
<path fill-rule="evenodd" clip-rule="evenodd" d="M38.6963 25.8192C38.6963 25.8192 38.6124 25.9188 38.5293 25.8937C38.8052 25.4273 39.6519 26.114 40.4366 26.0364C41.0755 25.9729 41.5929 25.6201 41.7849 25.4712C41.8022 25.4814 41.8163 25.4892 41.8257 25.4924C41.9339 25.53 41.966 25.5339 41.9386 25.5308C41.9103 25.5276 41.226 26.1767 40.3284 26.1775C39.4308 26.1775 39.0044 25.7581 38.6963 25.82V25.8192Z" fill="#96664C"/>
<path fill-rule="evenodd" clip-rule="evenodd" d="M38.5591 25.5748C38.5904 25.5442 38.6163 25.5254 38.6163 25.5254C38.6163 25.5254 39.3116 24.863 40.1841 24.8787C41.0567 24.8952 41.7175 25.4541 41.8257 25.4925C41.9339 25.5301 41.966 25.534 41.9386 25.5309C41.9299 25.5301 41.8539 25.5952 41.7261 25.6846C40.2476 24.9006 39.0232 25.3443 38.5591 25.5748Z" fill="#ADA89F"/>
<path fill-rule="evenodd" clip-rule="evenodd" d="M39.7524 24.9241C39.8895 24.8935 40.0346 24.8763 40.1851 24.8786C40.4281 24.8833 40.6554 24.9296 40.8585 24.9962C40.929 25.1169 40.9619 25.2612 40.9439 25.4117C40.9 25.7778 40.5676 26.038 40.2015 25.9941C39.8354 25.9503 39.5752 25.6179 39.6191 25.2518C39.634 25.1279 39.6818 25.0166 39.7531 24.9249L39.7524 24.9241Z" fill="#8A5608"/>
<path fill-rule="evenodd" clip-rule="evenodd" d="M40.3146 25.0532C40.4683 25.072 40.5772 25.2116 40.5592 25.3644C40.5404 25.5181 40.4016 25.627 40.248 25.609C40.0943 25.5902 39.9854 25.4507 40.0034 25.2978C40.0222 25.1442 40.1618 25.0352 40.3146 25.0532Z" fill="#191716"/>
<path fill-rule="evenodd" clip-rule="evenodd" d="M38.4834 25.6632C38.4834 25.6632 38.7907 25.2846 39.4939 25.1066C40.197 24.9287 40.687 24.9969 41.184 25.236C41.6818 25.4743 41.8707 25.6193 42.1028 25.53C42.334 25.4406 42.3615 25.2932 42.3615 25.2932C42.3615 25.2932 42.2446 25.3638 42.1129 25.287C41.9813 25.2101 39.5754 23.6885 38.4834 25.664V25.6632Z" fill="#191716"/>
<path fill-rule="evenodd" clip-rule="evenodd" d="M39.6966 25.1811C39.8025 25.1936 39.8777 25.29 39.8652 25.3958C39.8526 25.5017 39.7562 25.5769 39.6504 25.5644C39.5445 25.5518 39.4693 25.4554 39.4818 25.3496C39.4944 25.2438 39.5908 25.1685 39.6966 25.1811Z" fill="white"/>
<path fill-rule="evenodd" clip-rule="evenodd" d="M32.3042 23.9143C32.8992 23.7481 34.398 24.1753 34.826 24.4999C35.0902 24.7013 35.1694 24.8769 35.2901 24.8385C35.5135 24.768 35.8075 24.2678 35.1843 23.7787C34.5611 23.2895 32.8929 23.2895 32.3151 23.5976C31.7382 23.9049 32.0243 24.0373 32.3042 23.9143Z" fill="#191716"/>
<path fill-rule="evenodd" clip-rule="evenodd" d="M37.7541 24.46C37.7541 24.46 38.0896 24.8073 38.3609 24.5988C38.6329 24.3903 39.3808 24.014 40.4688 23.8705C41.5561 23.7271 42.4741 23.9144 42.587 24.0187C42.6999 24.123 42.9358 23.9717 42.7156 23.7796C42.4953 23.5875 41.1955 23.1211 39.9538 23.2489C38.7121 23.3767 37.1105 23.5421 37.7541 24.46Z" fill="#191716"/>
<path fill-rule="evenodd" clip-rule="evenodd" d="M37.6732 24.8843C37.6732 24.8843 37.5015 25.4001 37.4553 25.8767C37.427 26.1699 37.4709 26.6834 37.5094 27.0354H37.5548C37.5587 26.5454 37.5799 25.6604 37.674 24.8843H37.6732Z" fill="#5F3722"/>
<path fill-rule="evenodd" clip-rule="evenodd" d="M32.769 25.9424C32.769 25.9424 33.0732 26.2411 33.5828 26.3179C34.0923 26.3947 34.7335 26.1799 34.7335 26.1799C34.7335 26.1799 33.3382 26.441 32.769 25.9424Z" fill="#5F3722"/>
<path fill-rule="evenodd" clip-rule="evenodd" d="M39.1807 26.0366C39.1807 26.0366 39.5491 26.427 40.1174 26.4646C40.6858 26.5023 41.3678 26.0962 41.3678 26.0962C41.3678 26.0962 39.8627 26.6787 39.1807 26.0366Z" fill="#5F3722"/>
</svg>
