<svg width="85" height="212" viewBox="0 0 85 212" fill="none" xmlns="http://www.w3.org/2000/svg">
<path fill-rule="evenodd" clip-rule="evenodd" d="M32.2827 23.1782H43.4085V26.9354H32.2827V23.1782Z" fill="#825740"/>
<path fill-rule="evenodd" clip-rule="evenodd" d="M35.1797 24.3042C34.6504 24.0661 34.7103 24.5242 33.8317 24.7965C32.9535 25.0688 35.1088 26.0946 35.3667 25.8764C35.6246 25.6582 35.907 24.8597 35.1794 24.3042H35.1797Z" fill="#784C35"/>
<path fill-rule="evenodd" clip-rule="evenodd" d="M39.0385 24.3042C39.5678 24.0661 39.5079 24.5242 40.3864 24.7965C41.2647 25.0688 39.1094 26.0946 38.8515 25.8764C38.5935 25.6582 38.3112 24.8597 39.0388 24.3042H39.0385Z" fill="#784C35"/>
<path fill-rule="evenodd" clip-rule="evenodd" d="M35.5037 24.7713C35.5037 24.7713 35.9117 25.1463 36.0064 25.9885C36.0419 26.3047 36.0287 26.64 35.9982 26.9349H36.0675C36.2219 26.1119 36.2824 24.9745 35.5034 24.771L35.5037 24.7713Z" fill="#5F3722"/>
<path fill-rule="evenodd" clip-rule="evenodd" d="M32.7983 25.0224C32.7983 25.0224 33.5067 24.3556 34.3452 24.5356C35.1837 24.7156 35.3561 25.3775 35.4465 25.3167C35.537 25.2556 34.4137 23.4752 32.7983 25.0224Z" fill="#542F1B"/>
<path fill-rule="evenodd" clip-rule="evenodd" d="M32.9819 25.4675C32.9819 25.4675 33.2542 25.8984 33.6493 26.0448C34.0448 26.1911 34.4237 26.0668 34.7406 26.0069C35.0575 25.947 35.3071 25.9852 35.3071 25.9852C35.3071 25.9852 35.3945 26.0448 35.4404 25.9256C35.4862 25.8067 35.3142 25.749 35.3142 25.749C35.3142 25.749 35.0633 25.0473 34.1639 25.0039C33.2643 24.9605 33.0867 25.4067 32.9819 25.4672V25.4675Z" fill="white"/>
<path fill-rule="evenodd" clip-rule="evenodd" d="M32.9822 25.4671C32.9822 25.4671 33.2545 25.898 33.6496 26.0444C34.0451 26.1907 34.424 26.0664 34.7409 26.0065C35.0578 25.9466 35.3074 25.9848 35.3074 25.9848C35.3074 25.9848 35.3288 25.9991 35.3557 25.9994C35.1534 25.7647 34.3109 26.1226 33.7887 25.9787C33.3991 25.8711 33.1387 25.5683 33.0317 25.4219C33.0125 25.4427 32.9966 25.4585 32.9819 25.4671H32.9822Z" fill="#96664C"/>
<path fill-rule="evenodd" clip-rule="evenodd" d="M32.9819 25.4673C32.9819 25.4673 33.0214 25.5297 33.0916 25.6146C33.4516 25.4184 34.5175 24.9717 35.4324 25.9431C35.4352 25.9376 35.4379 25.9318 35.4404 25.9251C35.4862 25.8062 35.3142 25.7485 35.3142 25.7485C35.3142 25.7485 35.0633 25.0468 34.1639 25.0035C33.2643 24.9601 33.0867 25.4062 32.9819 25.4667V25.4673Z" fill="#ADA89F"/>
<path fill-rule="evenodd" clip-rule="evenodd" d="M34.9725 25.2974C34.7943 25.1513 34.5339 25.022 34.1639 25.004C33.9943 24.9957 33.8503 25.0049 33.7278 25.0257C33.6768 25.1345 33.6548 25.2589 33.6716 25.3872C33.718 25.7447 34.0453 25.9971 34.4032 25.951C34.7347 25.9079 34.9758 25.6234 34.9725 25.297V25.2974Z" fill="#506E15"/>
<path fill-rule="evenodd" clip-rule="evenodd" d="M34.2843 25.0316C34.4343 25.0121 34.5718 25.1181 34.5914 25.2685C34.6109 25.4185 34.5049 25.5557 34.3548 25.5753C34.2048 25.5948 34.0673 25.4888 34.0477 25.3387C34.0282 25.1884 34.1345 25.0509 34.2843 25.0316Z" fill="#191716"/>
<path fill-rule="evenodd" clip-rule="evenodd" d="M32.6025 25.3233C32.6025 25.3233 32.7495 25.441 32.8528 25.4743C32.9558 25.5082 33.0019 25.4972 33.0019 25.4972C33.0019 25.4972 33.3677 25.0306 34.1586 25.0819C34.9491 25.1326 35.3146 25.7493 35.3146 25.7493C35.3146 25.7493 35.0329 24.8197 34.1286 24.728C33.2244 24.6364 32.8253 25.3325 32.6028 25.3236L32.6025 25.3233Z" fill="#191716"/>
<path fill-rule="evenodd" clip-rule="evenodd" d="M33.8306 25.2682C33.9363 25.2545 34.0332 25.329 34.0466 25.4351C34.0604 25.5408 33.9855 25.6377 33.8798 25.6511C33.7741 25.6649 33.6775 25.59 33.6637 25.4846C33.65 25.3786 33.7249 25.282 33.8306 25.2682Z" fill="white"/>
<path fill-rule="evenodd" clip-rule="evenodd" d="M39.0981 25.014C39.0981 25.014 39.5969 24.2895 40.7459 24.3888C41.8952 24.4881 42.4562 25.1467 42.4562 25.1467C42.4562 25.1467 42.0012 24.328 40.7278 24.287C39.4548 24.2461 39.1229 24.8851 39.0981 25.014Z" fill="#542F1B"/>
<path fill-rule="evenodd" clip-rule="evenodd" d="M39.0262 25.8193C39.0262 25.8193 38.8917 25.9785 38.7952 25.8434C38.6989 25.7081 38.9464 25.5253 38.9464 25.5253C38.9464 25.5253 39.6423 24.8625 40.5141 24.8787C41.3862 24.8952 42.0472 25.4544 42.1554 25.4923C42.2636 25.5302 42.296 25.5339 42.2682 25.5305C42.2404 25.5272 41.5555 26.1765 40.658 26.1768C39.7602 26.1771 39.3339 25.7573 39.0256 25.819L39.0262 25.8193Z" fill="white"/>
<path fill-rule="evenodd" clip-rule="evenodd" d="M39.0262 25.8193C39.0262 25.8193 38.9422 25.9189 38.8594 25.8935C39.1356 25.4269 39.9818 26.1138 40.7665 26.0362C41.4052 25.973 41.9226 25.6203 42.1151 25.4712C42.1325 25.4816 42.1463 25.4889 42.1557 25.4923C42.2639 25.5302 42.2963 25.5338 42.2685 25.5305C42.2407 25.5271 41.5559 26.1765 40.6584 26.1768C39.7605 26.1771 39.3343 25.7572 39.0259 25.8189L39.0262 25.8193Z" fill="#96664C"/>
<path fill-rule="evenodd" clip-rule="evenodd" d="M38.8895 25.575C38.9212 25.5448 38.9469 25.5258 38.9469 25.5258C38.9469 25.5258 39.6427 24.863 40.5146 24.8792C41.3867 24.8957 42.0477 25.4549 42.1559 25.4928C42.2641 25.5307 42.2964 25.5344 42.2686 25.531C42.2598 25.5301 42.184 25.5955 42.056 25.6847C40.5772 24.9012 39.353 25.3443 38.8892 25.575H38.8895Z" fill="#ADA89F"/>
<path fill-rule="evenodd" clip-rule="evenodd" d="M40.0816 24.9242C40.2188 24.8936 40.3639 24.8762 40.5143 24.8786C40.7575 24.8832 40.9843 24.93 41.1872 24.996C41.2575 25.117 41.2908 25.2612 41.2724 25.411C41.2284 25.7768 40.8963 26.0374 40.5302 25.9934C40.1644 25.9494 39.9037 25.6169 39.9477 25.2512C39.9627 25.1274 40.0107 25.0162 40.0816 24.9242Z" fill="#506E15"/>
<path fill-rule="evenodd" clip-rule="evenodd" d="M40.6438 25.0533C40.7972 25.072 40.9066 25.2113 40.888 25.3647C40.8694 25.5181 40.73 25.6275 40.5766 25.6092C40.4232 25.5906 40.3135 25.4512 40.3321 25.2978C40.3508 25.1444 40.4901 25.0347 40.6435 25.0533H40.6438Z" fill="#191716"/>
<path fill-rule="evenodd" clip-rule="evenodd" d="M38.813 25.6639C38.813 25.6639 39.1207 25.2856 39.8236 25.1074C40.5267 24.9293 41.0166 24.9977 41.5141 25.2364C42.0116 25.475 42.2007 25.6199 42.4327 25.5304C42.6643 25.4408 42.6915 25.2938 42.6915 25.2938C42.6915 25.2938 42.5748 25.3641 42.4431 25.2871C42.3113 25.2101 39.9058 23.6886 38.8133 25.6639H38.813Z" fill="#191716"/>
<path fill-rule="evenodd" clip-rule="evenodd" d="M40.0263 25.1813C40.1323 25.1941 40.2075 25.2901 40.1947 25.3961C40.1818 25.5019 40.0859 25.5776 39.9799 25.5648C39.8741 25.552 39.7986 25.4557 39.8115 25.35C39.8243 25.2439 39.9206 25.1688 40.0263 25.1816V25.1813Z" fill="white"/>
<path fill-rule="evenodd" clip-rule="evenodd" d="M32.6345 23.914C33.2295 23.748 34.7287 24.1746 35.1562 24.4998C35.4205 24.7012 35.4997 24.8766 35.6204 24.8384C35.8441 24.7675 36.1377 24.2679 35.5143 23.7786C34.8909 23.2894 33.2227 23.2897 32.6455 23.5974C32.0682 23.9051 32.3543 24.0371 32.6342 23.914H32.6345Z" fill="#191716"/>
<path fill-rule="evenodd" clip-rule="evenodd" d="M38.0836 24.4595C38.0836 24.4595 38.4189 24.8067 38.6908 24.5983C38.9625 24.3898 39.7112 24.0137 40.7985 23.8703C41.8861 23.727 42.8037 23.9143 42.9165 24.0186C43.029 24.1228 43.2652 23.9715 43.0451 23.7793C42.8248 23.5871 41.5252 23.1204 40.2833 23.2485C39.0414 23.3762 37.4398 23.5418 38.084 24.4595H38.0836Z" fill="#191716"/>
<path fill-rule="evenodd" clip-rule="evenodd" d="M38.0037 24.8838C38.0037 24.8838 37.8316 25.3996 37.7855 25.876C37.7595 26.1428 37.7937 26.5917 37.8289 26.9355H37.8854C37.8912 26.4316 37.9154 25.6099 38.0037 24.8838Z" fill="#5F3722"/>
<path fill-rule="evenodd" clip-rule="evenodd" d="M33.0985 25.9424C33.0985 25.9424 33.4028 26.2412 33.9119 26.3179C34.4213 26.3947 35.0628 26.1801 35.0628 26.1801C35.0628 26.1801 33.6671 26.4408 33.0981 25.9424H33.0985Z" fill="#5F3722"/>
<path fill-rule="evenodd" clip-rule="evenodd" d="M39.5107 26.0361C39.5107 26.0361 39.879 26.4267 40.4477 26.4643C41.0164 26.5018 41.6978 26.096 41.6978 26.096C41.6978 26.096 40.1925 26.6785 39.5107 26.0361Z" fill="#5F3722"/>
</svg>
