<svg width="85" height="212" viewBox="0 0 85 212" fill="none" xmlns="http://www.w3.org/2000/svg">
<path fill-rule="evenodd" clip-rule="evenodd" d="M31.6909 23.0552H42.817V26.9906H31.6909V23.0552Z" fill="#825740"/>
<path fill-rule="evenodd" clip-rule="evenodd" d="M34.6522 24.2602C34.1229 24.0222 34.1828 24.4802 33.3044 24.7525C32.4261 25.0247 34.5814 26.0507 34.8395 25.8323C35.0976 25.6139 35.3797 24.8156 34.6522 24.2602Z" fill="#784C35"/>
<path fill-rule="evenodd" clip-rule="evenodd" d="M38.5115 24.2602C39.0408 24.0222 38.9809 24.4802 39.8592 24.7525C40.7376 25.0247 38.5823 26.0507 38.3242 25.8323C38.066 25.6139 37.784 24.8156 38.5115 24.2602Z" fill="#784C35"/>
<path fill-rule="evenodd" clip-rule="evenodd" d="M34.9771 24.7275C34.9771 24.7275 35.3849 25.1027 35.4797 25.9446C35.5194 26.2969 35.4982 26.6726 35.4606 26.9907H35.5221C35.6893 26.1635 35.7879 24.9394 34.9776 24.7275H34.9771Z" fill="#5F3722"/>
<path fill-rule="evenodd" clip-rule="evenodd" d="M32.271 24.9787C32.271 24.9787 32.9794 24.3116 33.818 24.4918C34.6566 24.6721 34.8287 25.3337 34.9191 25.2727C35.0095 25.2117 33.8861 23.4311 32.271 24.9787Z" fill="#542F1B"/>
<path fill-rule="evenodd" clip-rule="evenodd" d="M32.4546 25.4234C32.4546 25.4234 32.7269 25.8541 33.1222 26.0006C33.5175 26.1471 33.8965 26.0224 34.2135 25.963C34.5304 25.9031 34.7803 25.9412 34.7803 25.9412C34.7803 25.9412 34.868 26.0006 34.9137 25.8819C34.9595 25.7632 34.7874 25.7054 34.7874 25.7054C34.7874 25.7054 34.5364 25.0041 33.6373 24.9605C32.7378 24.9169 32.5602 25.3635 32.4551 25.4239L32.4546 25.4234Z" fill="white"/>
<path fill-rule="evenodd" clip-rule="evenodd" d="M32.4546 25.4236C32.4546 25.4236 32.7269 25.8543 33.1222 26.0008C33.5175 26.1473 33.8965 26.0226 34.2135 25.9633C34.5304 25.9034 34.7803 25.9415 34.7803 25.9415C34.7803 25.9415 34.8016 25.9562 34.8288 25.9562C34.6268 25.7215 33.7838 26.0792 33.2621 25.9355C32.8723 25.8277 32.612 25.5254 32.5052 25.3784C32.4862 25.3991 32.4698 25.4154 32.4551 25.4236H32.4546Z" fill="#96664C"/>
<path fill-rule="evenodd" clip-rule="evenodd" d="M32.4546 25.4234C32.4546 25.4234 32.4938 25.4855 32.5646 25.571C32.9245 25.375 33.9902 24.9279 34.9056 25.8994C34.9083 25.8939 34.911 25.8879 34.9137 25.8814C34.9595 25.7627 34.7874 25.705 34.7874 25.705C34.7874 25.705 34.5364 25.0036 33.6373 24.96C32.7378 24.9165 32.5602 25.363 32.4551 25.4234H32.4546Z" fill="#ADA89F"/>
<path fill-rule="evenodd" clip-rule="evenodd" d="M34.4457 25.2535C34.2676 25.1076 34.0073 24.978 33.6371 24.96C33.4677 24.9518 33.3234 24.9611 33.2009 24.9818C33.1497 25.0907 33.1279 25.2148 33.1448 25.3433C33.1911 25.7011 33.5183 25.9532 33.8761 25.9075C34.2077 25.8645 34.449 25.5797 34.4457 25.2535Z" fill="#8A5608"/>
<path fill-rule="evenodd" clip-rule="evenodd" d="M33.7572 24.9877C33.907 24.9681 34.0447 25.0743 34.0643 25.2246C34.0839 25.3743 33.9778 25.5121 33.828 25.5311C33.6783 25.5507 33.5405 25.4446 33.5209 25.2948C33.5013 25.1445 33.6075 25.0067 33.7572 24.9877Z" fill="#191716"/>
<path fill-rule="evenodd" clip-rule="evenodd" d="M32.0752 25.2794C32.0752 25.2794 32.2222 25.397 32.3251 25.4302C32.4281 25.464 32.4743 25.4531 32.4743 25.4531C32.4743 25.4531 32.8403 24.9864 33.631 25.0376C34.4216 25.0882 34.787 25.7047 34.787 25.7047C34.787 25.7047 34.5055 24.7751 33.601 24.6831C32.6971 24.5916 32.2974 25.2875 32.0752 25.2788V25.2794Z" fill="#191716"/>
<path fill-rule="evenodd" clip-rule="evenodd" d="M33.303 25.2243C33.4086 25.2106 33.5056 25.2852 33.5192 25.3909C33.5328 25.4965 33.4582 25.5935 33.3526 25.6071C33.2469 25.6207 33.15 25.5461 33.1364 25.4404C33.1228 25.3348 33.1974 25.2379 33.303 25.2243Z" fill="white"/>
<path fill-rule="evenodd" clip-rule="evenodd" d="M38.5713 24.9701C38.5713 24.9701 39.0701 24.2458 40.2191 24.3449C41.3681 24.4446 41.9295 25.1029 41.9295 25.1029C41.9295 25.1029 41.4742 24.2845 40.2011 24.2431C38.928 24.2022 38.5963 24.841 38.5713 24.9701Z" fill="#542F1B"/>
<path fill-rule="evenodd" clip-rule="evenodd" d="M38.4997 25.7752C38.4997 25.7752 38.3652 25.9347 38.2688 25.7992C38.1725 25.6636 38.4202 25.4811 38.4202 25.4811C38.4202 25.4811 39.1162 24.8184 39.988 24.8348C40.8603 24.8511 41.5209 25.4104 41.6292 25.4485C41.7376 25.486 41.7697 25.4904 41.7419 25.4866C41.7142 25.4833 41.0297 26.1324 40.1317 26.133C39.2338 26.1335 38.8074 25.7131 38.4992 25.7752H38.4997Z" fill="white"/>
<path fill-rule="evenodd" clip-rule="evenodd" d="M38.4996 25.7752C38.4996 25.7752 38.4158 25.8749 38.333 25.8493C38.6091 25.3826 39.4553 26.0698 40.2405 25.9919C40.8793 25.9288 41.3966 25.5759 41.5888 25.4272C41.6063 25.4376 41.6199 25.4452 41.6297 25.4485C41.738 25.4861 41.7702 25.4904 41.7424 25.4866C41.7146 25.4833 41.0301 26.1324 40.1322 26.133C39.2342 26.1335 38.8078 25.7131 38.4996 25.7752Z" fill="#96664C"/>
<path fill-rule="evenodd" clip-rule="evenodd" d="M38.3624 25.5307C38.3939 25.5002 38.4195 25.4811 38.4195 25.4811C38.4195 25.4811 39.1155 24.8184 39.9873 24.8348C40.8596 24.8511 41.5202 25.4104 41.6285 25.4485C41.7369 25.486 41.769 25.4904 41.7413 25.4866C41.7325 25.4855 41.6563 25.5508 41.5283 25.6402C40.0499 24.8566 38.8252 25.2998 38.3618 25.5302L38.3624 25.5307Z" fill="#ADA89F"/>
<path fill-rule="evenodd" clip-rule="evenodd" d="M39.5548 24.8804C39.6921 24.8499 39.8369 24.8325 39.9872 24.8352C40.2306 24.8396 40.4571 24.8864 40.6603 24.9523C40.7305 25.0732 40.7637 25.2175 40.7458 25.3673C40.7016 25.7332 40.3695 25.994 40.0035 25.9494C39.6376 25.9053 39.3768 25.5731 39.4209 25.2072C39.4356 25.0836 39.4835 24.9719 39.5548 24.8799V24.8804Z" fill="#8A5608"/>
<path fill-rule="evenodd" clip-rule="evenodd" d="M40.1172 25.0099C40.2708 25.0284 40.3802 25.1678 40.3617 25.3213C40.3432 25.4749 40.2038 25.5843 40.0503 25.5658C39.8967 25.5473 39.7872 25.4079 39.8058 25.2544C39.8243 25.1008 39.9637 24.9913 40.1172 25.0099Z" fill="#191716"/>
<path fill-rule="evenodd" clip-rule="evenodd" d="M38.2861 25.6195C38.2861 25.6195 38.5938 25.241 39.2968 25.063C39.9998 24.8849 40.4899 24.953 40.9871 25.192C41.4848 25.4305 41.6737 25.5754 41.9057 25.4861C42.1371 25.3968 42.1644 25.2497 42.1644 25.2497C42.1644 25.2497 42.0478 25.32 41.9161 25.2432C41.7843 25.1664 39.379 23.6444 38.2861 25.62V25.6195Z" fill="#191716"/>
<path fill-rule="evenodd" clip-rule="evenodd" d="M39.4987 25.1372C39.6044 25.1497 39.6801 25.2461 39.667 25.3517C39.6539 25.4573 39.5581 25.533 39.4524 25.5205C39.3468 25.5074 39.2711 25.4116 39.2842 25.306C39.2973 25.2003 39.3931 25.1246 39.4993 25.1377L39.4987 25.1372Z" fill="white"/>
<path fill-rule="evenodd" clip-rule="evenodd" d="M32.1072 23.8707C32.7024 23.7051 34.2015 24.1315 34.629 24.4566C34.8936 24.6581 34.9726 24.8334 35.0935 24.7953C35.3173 24.7245 35.6108 24.2246 34.9878 23.7356C34.3643 23.2466 32.6964 23.2466 32.1192 23.5543C31.5419 23.8619 31.8278 23.9943 32.1077 23.8707H32.1072Z" fill="#191716"/>
<path fill-rule="evenodd" clip-rule="evenodd" d="M37.5566 24.4156C37.5566 24.4156 37.8921 24.763 38.1638 24.5544C38.4355 24.3459 39.1837 23.9696 40.2717 23.8264C41.3592 23.6832 42.2773 23.8705 42.3894 23.9745C42.5022 24.0785 42.7385 23.9277 42.518 23.7354C42.298 23.5432 40.9981 23.0765 39.756 23.2045C38.5139 23.3325 36.9124 23.498 37.5566 24.4156Z" fill="#191716"/>
<path fill-rule="evenodd" clip-rule="evenodd" d="M37.4764 24.8398C37.4764 24.8398 37.3043 25.3555 37.258 25.832C37.2297 26.1255 37.2738 26.639 37.3119 26.9908H37.3571C37.361 26.5012 37.3822 25.6158 37.4764 24.8398Z" fill="#5F3722"/>
<path fill-rule="evenodd" clip-rule="evenodd" d="M32.5718 25.8984C32.5718 25.8984 32.8762 26.1974 33.3853 26.2742C33.8945 26.351 34.5365 26.1364 34.5365 26.1364C34.5365 26.1364 33.1408 26.3972 32.5718 25.8984Z" fill="#5F3722"/>
<path fill-rule="evenodd" clip-rule="evenodd" d="M38.9839 25.9927C38.9839 25.9927 39.352 26.3831 39.921 26.4207C40.4895 26.4583 41.1708 26.0526 41.1708 26.0526C41.1708 26.0526 39.6651 26.6347 38.9839 25.9927Z" fill="#5F3722"/>
</svg>
