<svg width="85" height="212" viewBox="0 0 85 212" fill="none" xmlns="http://www.w3.org/2000/svg">
<path fill-rule="evenodd" clip-rule="evenodd" d="M31.5317 23.0991H42.6571V27.0344H31.5317V23.0991Z" fill="#825740"/>
<path fill-rule="evenodd" clip-rule="evenodd" d="M34.5159 24.3043C33.9867 24.0659 34.0463 24.5245 33.1683 24.7966C32.2896 25.0686 34.4453 26.0947 34.7032 25.8768C34.9612 25.6589 35.2434 24.8601 34.5159 24.3043Z" fill="#784C35"/>
<path fill-rule="evenodd" clip-rule="evenodd" d="M38.3752 24.3043C38.9043 24.0659 38.8447 24.5245 39.7227 24.7966C40.6015 25.0686 38.4457 26.0947 38.1878 25.8768C37.9299 25.6589 37.6477 24.8601 38.3752 24.3043Z" fill="#784C35"/>
<path fill-rule="evenodd" clip-rule="evenodd" d="M34.8408 24.7715C34.8408 24.7715 35.2492 25.1462 35.3433 25.9889C35.3825 26.3417 35.3621 26.7172 35.3245 27.0347H35.3856C35.5526 26.2076 35.6514 24.9831 34.8408 24.7715Z" fill="#5F3722"/>
<path fill-rule="evenodd" clip-rule="evenodd" d="M32.1343 25.0231C32.1343 25.0231 32.8422 24.356 33.6809 24.5363C34.5197 24.7166 34.6914 25.3782 34.7824 25.317C34.8733 25.2559 33.7492 23.4756 32.1343 25.0231Z" fill="#542F1B"/>
<path fill-rule="evenodd" clip-rule="evenodd" d="M32.3188 25.4677C32.3188 25.4677 32.5909 25.8988 32.986 26.0447C33.3811 26.1913 33.7605 26.0666 34.0772 26.007C34.3939 25.9475 34.644 25.9851 34.644 25.9851C34.644 25.9851 34.7318 26.0447 34.7772 25.9255C34.8227 25.8063 34.651 25.7491 34.651 25.7491C34.651 25.7491 34.4002 25.0475 33.501 25.0044C32.6011 24.9613 32.4239 25.4073 32.3188 25.4677Z" fill="white"/>
<path fill-rule="evenodd" clip-rule="evenodd" d="M32.3188 25.4673C32.3188 25.4673 32.5909 25.8985 32.986 26.0443C33.3811 26.1909 33.7605 26.0663 34.0772 26.0067C34.3939 25.9471 34.644 25.9847 34.644 25.9847C34.644 25.9847 34.6651 25.9988 34.6926 25.9996C34.4903 25.7652 33.6476 26.1227 33.1255 25.9785C32.7359 25.8711 32.4756 25.5685 32.369 25.4219C32.3502 25.443 32.3337 25.4587 32.3188 25.4673Z" fill="#96664C"/>
<path fill-rule="evenodd" clip-rule="evenodd" d="M32.3188 25.4677C32.3188 25.4677 32.358 25.5296 32.4286 25.6151C32.7884 25.4191 33.8545 24.9723 34.7694 25.9435C34.7725 25.938 34.7749 25.9318 34.7772 25.9255C34.8227 25.8063 34.651 25.7491 34.651 25.7491C34.651 25.7491 34.4002 25.0475 33.501 25.0044C32.6011 24.9613 32.4239 25.4073 32.3188 25.4677Z" fill="#ADA89F"/>
<path fill-rule="evenodd" clip-rule="evenodd" d="M34.3088 25.2975C34.1309 25.1517 33.8706 25.0224 33.5006 25.0043C33.3313 24.9965 33.1871 25.0051 33.0648 25.0263C33.0138 25.1352 32.9919 25.2599 33.0083 25.3877C33.0546 25.7451 33.3822 25.9975 33.7397 25.9513C34.0713 25.9082 34.3128 25.6236 34.3088 25.2975Z" fill="#506E15"/>
<path fill-rule="evenodd" clip-rule="evenodd" d="M33.6209 25.0316C33.7706 25.012 33.9086 25.1179 33.9282 25.2684C33.9478 25.4181 33.842 25.5561 33.6915 25.5749C33.5417 25.5945 33.4038 25.4887 33.3842 25.3381C33.3646 25.1876 33.4712 25.0504 33.6209 25.0308V25.0316Z" fill="#191716"/>
<path fill-rule="evenodd" clip-rule="evenodd" d="M31.9393 25.3233C31.9393 25.3233 32.0866 25.4409 32.1893 25.4746C32.2928 25.5084 32.3383 25.4974 32.3383 25.4974C32.3383 25.4974 32.7044 25.0309 33.4946 25.0819C34.2847 25.1329 34.6508 25.749 34.6508 25.749C34.6508 25.749 34.3694 24.8193 33.4648 24.7276C32.5609 24.6358 32.1611 25.332 31.9385 25.3233H31.9393Z" fill="#191716"/>
<path fill-rule="evenodd" clip-rule="evenodd" d="M33.1671 25.2683C33.2729 25.2542 33.3693 25.3294 33.3834 25.4353C33.3967 25.5411 33.3223 25.6375 33.2164 25.6516C33.1106 25.6658 33.0142 25.5905 33.0001 25.4855C32.9868 25.3796 33.0612 25.2824 33.1671 25.2691V25.2683Z" fill="white"/>
<path fill-rule="evenodd" clip-rule="evenodd" d="M38.4351 25.0142C38.4351 25.0142 38.9336 24.2899 40.0829 24.3894C41.2321 24.489 41.7934 25.1475 41.7934 25.1475C41.7934 25.1475 41.3387 24.3291 40.0648 24.2875C38.7917 24.2467 38.4601 24.8856 38.4351 25.0142Z" fill="#542F1B"/>
<path fill-rule="evenodd" clip-rule="evenodd" d="M38.3629 25.8194C38.3629 25.8194 38.2289 25.9785 38.1317 25.8437C38.0352 25.7081 38.283 25.5254 38.283 25.5254C38.283 25.5254 38.9783 24.863 39.8508 24.8787C40.7233 24.8952 41.3841 25.4541 41.4923 25.4925C41.6005 25.5301 41.6326 25.534 41.6052 25.5309C41.577 25.5278 40.8926 26.1769 39.995 26.1776C39.0974 26.1776 38.671 25.7583 38.3629 25.8202V25.8194Z" fill="white"/>
<path fill-rule="evenodd" clip-rule="evenodd" d="M38.3628 25.8192C38.3628 25.8192 38.2789 25.9188 38.1958 25.8937C38.4717 25.4273 39.3184 26.114 40.1031 26.0364C40.742 25.9729 41.2594 25.6201 41.4514 25.4712C41.4687 25.4814 41.4828 25.4892 41.4922 25.4924C41.6004 25.53 41.6325 25.5339 41.6051 25.5308C41.5768 25.5276 40.8925 26.1767 39.9949 26.1775C39.0973 26.1775 38.6709 25.7581 38.3628 25.82V25.8192Z" fill="#96664C"/>
<path fill-rule="evenodd" clip-rule="evenodd" d="M38.2256 25.5748C38.2569 25.5442 38.2828 25.5254 38.2828 25.5254C38.2828 25.5254 38.9781 24.863 39.8507 24.8787C40.7232 24.8952 41.384 25.4541 41.4922 25.4925C41.6004 25.5301 41.6325 25.534 41.6051 25.5309C41.5964 25.5301 41.5204 25.5952 41.3926 25.6846C39.9142 24.9006 38.6897 25.3443 38.2256 25.5748Z" fill="#ADA89F"/>
<path fill-rule="evenodd" clip-rule="evenodd" d="M39.4189 24.9241C39.556 24.8935 39.7011 24.8763 39.8516 24.8786C40.0946 24.8833 40.3219 24.9296 40.525 24.9962C40.5955 25.1169 40.6284 25.2612 40.6104 25.4117C40.5665 25.7778 40.2341 26.038 39.868 25.9941C39.502 25.9503 39.2417 25.6179 39.2856 25.2518C39.3005 25.1279 39.3483 25.0166 39.4196 24.9249L39.4189 24.9241Z" fill="#506E15"/>
<path fill-rule="evenodd" clip-rule="evenodd" d="M39.9811 25.0532C40.1348 25.072 40.2437 25.2116 40.2257 25.3644C40.2069 25.5181 40.0682 25.627 39.9145 25.609C39.7609 25.5902 39.6519 25.4507 39.6699 25.2978C39.6887 25.1442 39.8283 25.0352 39.9811 25.0532Z" fill="#191716"/>
<path fill-rule="evenodd" clip-rule="evenodd" d="M38.1499 25.6632C38.1499 25.6632 38.4572 25.2846 39.1604 25.1066C39.8636 24.9287 40.3535 24.9969 40.8505 25.236C41.3483 25.4743 41.5372 25.6193 41.7693 25.53C42.0005 25.4406 42.028 25.2932 42.028 25.2932C42.028 25.2932 41.9112 25.3638 41.7795 25.287C41.6478 25.2101 39.2419 23.6885 38.1499 25.664V25.6632Z" fill="#191716"/>
<path fill-rule="evenodd" clip-rule="evenodd" d="M39.3631 25.1811C39.469 25.1936 39.5442 25.29 39.5317 25.3958C39.5191 25.5017 39.4227 25.5769 39.3169 25.5644C39.2111 25.5518 39.1358 25.4554 39.1483 25.3496C39.1609 25.2438 39.2573 25.1685 39.3631 25.1811Z" fill="white"/>
<path fill-rule="evenodd" clip-rule="evenodd" d="M31.9707 23.9143C32.5657 23.7481 34.0645 24.1753 34.4925 24.4999C34.7567 24.7013 34.8359 24.8769 34.9566 24.8385C35.18 24.768 35.474 24.2678 34.8508 23.7787C34.2276 23.2895 32.5594 23.2895 31.9817 23.5976C31.4047 23.9049 31.6908 24.0373 31.9707 23.9143Z" fill="#191716"/>
<path fill-rule="evenodd" clip-rule="evenodd" d="M37.4206 24.46C37.4206 24.46 37.7562 24.8073 38.0274 24.5988C38.2994 24.3903 39.0473 24.014 40.1353 23.8705C41.2226 23.7271 42.1406 23.9144 42.2535 24.0187C42.3664 24.123 42.6023 23.9717 42.3821 23.7796C42.1618 23.5875 40.862 23.1211 39.6203 23.2489C38.3786 23.3767 36.777 23.5421 37.4206 24.46Z" fill="#191716"/>
<path fill-rule="evenodd" clip-rule="evenodd" d="M37.3397 24.8843C37.3397 24.8843 37.168 25.4001 37.1218 25.8767C37.0936 26.1699 37.1375 26.6834 37.1759 27.0354H37.2213C37.2253 26.5454 37.2464 25.6604 37.3405 24.8843H37.3397Z" fill="#5F3722"/>
<path fill-rule="evenodd" clip-rule="evenodd" d="M32.4355 25.9424C32.4355 25.9424 32.7397 26.2411 33.2493 26.3179C33.7588 26.3947 34.4001 26.1799 34.4001 26.1799C34.4001 26.1799 33.0047 26.441 32.4355 25.9424Z" fill="#5F3722"/>
<path fill-rule="evenodd" clip-rule="evenodd" d="M38.8472 26.0366C38.8472 26.0366 39.2156 26.427 39.784 26.4646C40.3523 26.5023 41.0343 26.0962 41.0343 26.0962C41.0343 26.0962 39.5292 26.6787 38.8472 26.0366Z" fill="#5F3722"/>
</svg>
