<svg width="86" height="212" viewBox="0 0 86 212" fill="none" xmlns="http://www.w3.org/2000/svg">
<path fill-rule="evenodd" clip-rule="evenodd" d="M32.1982 23.0991H43.3236V27.0344H32.1982V23.0991Z" fill="#825740"/>
<path fill-rule="evenodd" clip-rule="evenodd" d="M35.1824 24.3043C34.6532 24.0659 34.7128 24.5245 33.8348 24.7966C32.9561 25.0686 35.1118 26.0947 35.3698 25.8768C35.6277 25.6589 35.9099 24.8601 35.1824 24.3043Z" fill="#784C35"/>
<path fill-rule="evenodd" clip-rule="evenodd" d="M39.0417 24.3043C39.5708 24.0659 39.5112 24.5245 40.3892 24.7966C41.268 25.0686 39.1122 26.0947 38.8543 25.8768C38.5964 25.6589 38.3142 24.8601 39.0417 24.3043Z" fill="#784C35"/>
<path fill-rule="evenodd" clip-rule="evenodd" d="M35.5073 24.7715C35.5073 24.7715 35.9157 25.1462 36.0098 25.9889C36.049 26.3417 36.0286 26.7172 35.991 27.0347H36.0521C36.2191 26.2076 36.3179 24.9831 35.5073 24.7715Z" fill="#5F3722"/>
<path fill-rule="evenodd" clip-rule="evenodd" d="M32.8008 25.0231C32.8008 25.0231 33.5087 24.356 34.3475 24.5363C35.1862 24.7166 35.3579 25.3782 35.4489 25.317C35.5398 25.2559 34.4157 23.4756 32.8008 25.0231Z" fill="#542F1B"/>
<path fill-rule="evenodd" clip-rule="evenodd" d="M32.9854 25.4677C32.9854 25.4677 33.2574 25.8988 33.6525 26.0447C34.0476 26.1913 34.427 26.0666 34.7437 26.007C35.0604 25.9475 35.3105 25.9851 35.3105 25.9851C35.3105 25.9851 35.3983 26.0447 35.4437 25.9255C35.4892 25.8063 35.3175 25.7491 35.3175 25.7491C35.3175 25.7491 35.0667 25.0475 34.1675 25.0044C33.2676 24.9613 33.0904 25.4073 32.9854 25.4677Z" fill="white"/>
<path fill-rule="evenodd" clip-rule="evenodd" d="M32.9854 25.4673C32.9854 25.4673 33.2574 25.8985 33.6525 26.0443C34.0476 26.1909 34.427 26.0663 34.7437 26.0067C35.0604 25.9471 35.3105 25.9847 35.3105 25.9847C35.3105 25.9847 35.3316 25.9988 35.3591 25.9996C35.1568 25.7652 34.3141 26.1227 33.792 25.9785C33.4024 25.8711 33.1421 25.5685 33.0355 25.4219C33.0167 25.443 33.0002 25.4587 32.9854 25.4673Z" fill="#96664C"/>
<path fill-rule="evenodd" clip-rule="evenodd" d="M32.9854 25.4677C32.9854 25.4677 33.0245 25.5296 33.0951 25.6151C33.4549 25.4191 34.5211 24.9723 35.4359 25.9435C35.439 25.938 35.4414 25.9318 35.4437 25.9255C35.4892 25.8063 35.3175 25.7491 35.3175 25.7491C35.3175 25.7491 35.0667 25.0475 34.1675 25.0044C33.2676 24.9613 33.0904 25.4073 32.9854 25.4677Z" fill="#ADA89F"/>
<path fill-rule="evenodd" clip-rule="evenodd" d="M34.9753 25.2975C34.7974 25.1517 34.5371 25.0224 34.1671 25.0043C33.9978 24.9965 33.8536 25.0051 33.7313 25.0263C33.6803 25.1352 33.6584 25.2599 33.6748 25.3877C33.7211 25.7451 34.0488 25.9975 34.4062 25.9513C34.7378 25.9082 34.9793 25.6236 34.9753 25.2975Z" fill="#367EA8"/>
<path fill-rule="evenodd" clip-rule="evenodd" d="M34.2874 25.0316C34.4371 25.012 34.5751 25.1179 34.5947 25.2684C34.6143 25.4181 34.5085 25.5561 34.358 25.5749C34.2082 25.5945 34.0703 25.4887 34.0507 25.3381C34.0311 25.1876 34.1377 25.0504 34.2874 25.0308V25.0316Z" fill="#191716"/>
<path fill-rule="evenodd" clip-rule="evenodd" d="M32.6058 25.3233C32.6058 25.3233 32.7531 25.4409 32.8558 25.4746C32.9593 25.5084 33.0048 25.4974 33.0048 25.4974C33.0048 25.4974 33.3709 25.0309 34.1611 25.0819C34.9513 25.1329 35.3173 25.749 35.3173 25.749C35.3173 25.749 35.0359 24.8193 34.1313 24.7276C33.2274 24.6358 32.8276 25.332 32.605 25.3233H32.6058Z" fill="#191716"/>
<path fill-rule="evenodd" clip-rule="evenodd" d="M33.8336 25.2683C33.9394 25.2542 34.0358 25.3294 34.0499 25.4353C34.0632 25.5411 33.9888 25.6375 33.8829 25.6516C33.7771 25.6658 33.6807 25.5905 33.6666 25.4855C33.6533 25.3796 33.7277 25.2824 33.8336 25.2691V25.2683Z" fill="white"/>
<path fill-rule="evenodd" clip-rule="evenodd" d="M39.1016 25.0142C39.1016 25.0142 39.6001 24.2899 40.7494 24.3894C41.8986 24.489 42.4599 25.1475 42.4599 25.1475C42.4599 25.1475 42.0052 24.3291 40.7313 24.2875C39.4582 24.2467 39.1266 24.8856 39.1016 25.0142Z" fill="#542F1B"/>
<path fill-rule="evenodd" clip-rule="evenodd" d="M39.0294 25.8194C39.0294 25.8194 38.8954 25.9785 38.7982 25.8437C38.7017 25.7081 38.9495 25.5254 38.9495 25.5254C38.9495 25.5254 39.6448 24.863 40.5173 24.8787C41.3898 24.8952 42.0506 25.4541 42.1588 25.4925C42.267 25.5301 42.2991 25.534 42.2717 25.5309C42.2435 25.5278 41.5591 26.1769 40.6615 26.1776C39.764 26.1776 39.3375 25.7583 39.0294 25.8202V25.8194Z" fill="white"/>
<path fill-rule="evenodd" clip-rule="evenodd" d="M39.0293 25.8192C39.0293 25.8192 38.9454 25.9188 38.8623 25.8937C39.1382 25.4273 39.9849 26.114 40.7696 26.0364C41.4085 25.9729 41.9259 25.6201 42.1179 25.4712C42.1352 25.4814 42.1493 25.4892 42.1587 25.4924C42.2669 25.53 42.299 25.5339 42.2716 25.5308C42.2434 25.5276 41.559 26.1767 40.6614 26.1775C39.7638 26.1775 39.3374 25.7581 39.0293 25.82V25.8192Z" fill="#96664C"/>
<path fill-rule="evenodd" clip-rule="evenodd" d="M38.8921 25.5748C38.9234 25.5442 38.9493 25.5254 38.9493 25.5254C38.9493 25.5254 39.6447 24.863 40.5172 24.8787C41.3897 24.8952 42.0505 25.4541 42.1587 25.4925C42.2669 25.5301 42.299 25.534 42.2716 25.5309C42.2629 25.5301 42.1869 25.5952 42.0591 25.6846C40.5807 24.9006 39.3562 25.3443 38.8921 25.5748Z" fill="#ADA89F"/>
<path fill-rule="evenodd" clip-rule="evenodd" d="M40.0854 24.9241C40.2225 24.8935 40.3676 24.8763 40.5181 24.8786C40.7611 24.8833 40.9884 24.9296 41.1915 24.9962C41.262 25.1169 41.2949 25.2612 41.2769 25.4117C41.233 25.7778 40.9006 26.038 40.5345 25.9941C40.1685 25.9503 39.9082 25.6179 39.9521 25.2518C39.967 25.1279 40.0148 25.0166 40.0861 24.9249L40.0854 24.9241Z" fill="#367EA8"/>
<path fill-rule="evenodd" clip-rule="evenodd" d="M40.6476 25.0532C40.8013 25.072 40.9103 25.2116 40.8922 25.3644C40.8734 25.5181 40.7347 25.627 40.581 25.609C40.4274 25.5902 40.3184 25.4507 40.3364 25.2978C40.3552 25.1442 40.4948 25.0352 40.6476 25.0532Z" fill="#191716"/>
<path fill-rule="evenodd" clip-rule="evenodd" d="M38.8164 25.6632C38.8164 25.6632 39.1237 25.2846 39.8269 25.1066C40.5301 24.9287 41.02 24.9969 41.517 25.236C42.0148 25.4743 42.2037 25.6193 42.4358 25.53C42.667 25.4406 42.6945 25.2932 42.6945 25.2932C42.6945 25.2932 42.5777 25.3638 42.446 25.287C42.3143 25.2101 39.9084 23.6885 38.8164 25.664V25.6632Z" fill="#191716"/>
<path fill-rule="evenodd" clip-rule="evenodd" d="M40.0296 25.1811C40.1355 25.1936 40.2107 25.29 40.1982 25.3958C40.1856 25.5017 40.0892 25.5769 39.9834 25.5644C39.8776 25.5518 39.8023 25.4554 39.8148 25.3496C39.8274 25.2438 39.9238 25.1685 40.0296 25.1811Z" fill="white"/>
<path fill-rule="evenodd" clip-rule="evenodd" d="M32.6372 23.9143C33.2322 23.7481 34.731 24.1753 35.1591 24.4999C35.4232 24.7013 35.5024 24.8769 35.6231 24.8385C35.8465 24.768 36.1405 24.2678 35.5173 23.7787C34.8941 23.2895 33.2259 23.2895 32.6482 23.5976C32.0712 23.9049 32.3573 24.0373 32.6372 23.9143Z" fill="#191716"/>
<path fill-rule="evenodd" clip-rule="evenodd" d="M38.0871 24.46C38.0871 24.46 38.4227 24.8073 38.6939 24.5988C38.9659 24.3903 39.7138 24.014 40.8019 23.8705C41.8892 23.7271 42.8071 23.9144 42.92 24.0187C43.0329 24.123 43.2688 23.9717 43.0486 23.7796C42.8283 23.5875 41.5285 23.1211 40.2868 23.2489C39.0451 23.3767 37.4435 23.5421 38.0871 24.46Z" fill="#191716"/>
<path fill-rule="evenodd" clip-rule="evenodd" d="M38.0062 24.8843C38.0062 24.8843 37.8345 25.4001 37.7883 25.8767C37.7601 26.1699 37.804 26.6834 37.8424 27.0354H37.8878C37.8918 26.5454 37.9129 25.6604 38.007 24.8843H38.0062Z" fill="#5F3722"/>
<path fill-rule="evenodd" clip-rule="evenodd" d="M33.1021 25.9424C33.1021 25.9424 33.4062 26.2411 33.9158 26.3179C34.4253 26.3947 35.0666 26.1799 35.0666 26.1799C35.0666 26.1799 33.6712 26.441 33.1021 25.9424Z" fill="#5F3722"/>
<path fill-rule="evenodd" clip-rule="evenodd" d="M39.5137 26.0366C39.5137 26.0366 39.8821 26.427 40.4505 26.4646C41.0188 26.5023 41.7008 26.0962 41.7008 26.0962C41.7008 26.0962 40.1957 26.6787 39.5137 26.0366Z" fill="#5F3722"/>
</svg>
