<svg width="85" height="212" viewBox="0 0 85 212" fill="none" xmlns="http://www.w3.org/2000/svg">
<g clip-path="url(#clip0)">
<path fill-rule="evenodd" clip-rule="evenodd" d="M36.8614 192.132C36.8614 192.132 37.1498 192.985 37.3061 194.337C37.4603 195.691 37.4483 196.31 37.4483 196.31C37.4483 196.31 36.7693 197.315 35.3132 197.88C33.8571 198.447 33.0619 198.451 33.0619 198.451L31.6118 198.192C31.6118 198.192 31.037 198.725 29.9334 200.349C28.8298 201.974 27.2695 203.041 25.0102 203.348C22.751 203.654 18.625 203.556 17.6416 203.119C16.6581 202.683 15.7729 201.567 15.7628 201.215C15.7528 200.862 15.4063 200.009 16.6702 198.855C17.934 197.702 24.175 194.431 25.495 192.13C26.8149 189.826 36.0002 189.722 36.8614 192.134V192.132Z" fill="#424852"/>
<path fill-rule="evenodd" clip-rule="evenodd" d="M36.4188 195.342C36.4188 195.342 34.5421 196.146 33.2081 196.919C31.8742 197.69 31.3695 198.032 30.4822 198.95C29.5949 199.867 28.5574 201.728 26.4984 202.399C24.4414 203.072 19.1157 203.23 18.1022 202.793C17.0888 202.357 16.2936 201.315 16.2936 201.315C16.2936 201.315 17.6556 202.663 19.336 202.699C21.0145 202.735 24.9982 202.465 26.224 202.076C27.4498 201.688 28.7236 200.856 30.1877 198.495C31.6539 196.132 35.5215 195.467 36.4168 195.342H36.4188ZM23.0214 200.708C23.0214 200.708 21.2127 200.82 19.1497 200.212C17.0868 199.603 17.4152 198.703 17.4152 198.703C17.4152 198.703 16.1754 200.226 18.4487 200.937C20.722 201.648 23.0214 200.708 23.0214 200.708ZM26.907 193.74C26.907 193.74 26.4764 194.155 26.7528 194.565C27.0292 194.976 27.7482 197.564 27.7482 197.564C27.7482 197.564 26.7508 195.551 26.3782 194.906C26.0077 194.261 25.9536 193.922 26.0217 193.7C26.0898 193.48 26.1299 193.362 26.1299 193.362C26.1299 193.362 26.5865 193.298 26.905 193.74H26.907Z" fill="#58606D"/>
<path fill-rule="evenodd" clip-rule="evenodd" d="M60.8021 191.078C60.8021 191.078 63.0454 195.586 63.3017 196.371C63.5561 197.156 63.6322 199.862 63.6322 199.862C63.6322 199.862 63.8365 203.564 59.8367 203.806C55.8369 204.046 54.1625 201.725 54.0443 199.786C53.9261 197.847 53.7058 195.206 53.097 193.934C52.4881 192.662 52.4881 192.662 52.4881 192.662C52.4881 192.662 52.0494 190.294 52.5241 189.393C53.0008 188.492 59.8387 190.292 60.8021 191.08V191.078Z" fill="#424852"/>
<path fill-rule="evenodd" clip-rule="evenodd" d="M62.6788 199.752C62.6788 199.752 62.4205 202.147 59.5984 202.371C56.7743 202.598 55.4504 200.527 55.2801 199.71C55.1099 198.892 55.7047 201.196 58.3606 201.33C61.0164 201.464 62.1981 200.477 62.6788 199.752ZM58.4427 192.625C58.4427 192.625 59.0916 194.206 59.7225 194.666C60.3535 195.129 61.7635 195.457 61.7635 195.457C61.7635 195.457 59.8567 194.72 59.5703 193.965C59.2839 193.21 59.0756 192.629 59.0756 192.629C59.0756 192.629 58.8553 192.123 58.4427 192.623V192.625ZM56.1474 192.786C56.1474 192.786 56.56 193.859 56.4017 194.542C56.2435 195.225 55.4724 196.138 55.4724 196.138C55.4724 196.138 56.7522 195.001 56.8784 194.23C57.0046 193.459 56.7362 192.852 56.7362 192.852C56.7362 192.852 56.4798 192.641 56.1454 192.786H56.1474Z" fill="#58606D"/>
<path fill-rule="evenodd" clip-rule="evenodd" d="M59.348 86.3437C59.348 86.3437 64.3232 95.0463 63.6883 104.466C63.0534 113.886 61.1006 137.672 61.1006 137.672L60.4416 182.94L60.7901 191.053C60.7901 191.053 56.9445 192.093 54.9597 192.169C52.9748 192.245 52.1416 191.995 52.1416 191.995C52.1416 191.995 50.9398 188.838 51.04 187.659C51.1421 186.481 51.3004 181.289 51.0921 180.264C50.8837 179.238 46.9521 145.399 47.0842 141.496C47.2164 137.592 46.926 136.054 46.8439 135.445C46.7618 134.838 44.3623 115.418 44.3623 115.418C44.3623 115.418 39.6955 146.433 40.3845 147.909C41.0735 149.385 39.7436 171.85 38.0632 179.993C36.3847 188.137 36.7433 188.165 36.7433 188.165L37.0617 192.89C37.0617 192.89 34.3498 194.046 30.8287 193.617C27.3076 193.189 25.7533 191.632 25.7533 191.632C25.7533 191.632 27.1874 189.555 27.2114 187.486C27.2355 185.419 26.4063 144.4 26.2521 142.339C26.0998 140.278 24.2351 110.19 23.9507 104.095C23.6663 97.9986 27.5159 85.9531 27.5159 85.9531C27.5159 85.9531 51.8512 86.3918 59.344 86.3417L59.348 86.3437Z" fill="#23314B"/>
<path fill-rule="evenodd" clip-rule="evenodd" d="M41.0855 95.285C41.0855 95.285 40.9533 106.507 41.0415 107.743C41.1296 108.977 43.7754 110.829 43.7754 110.829C43.7754 110.829 41.8346 108.14 41.9227 107.479C42.0109 106.818 42.1871 95.1968 42.1871 95.1968C42.1871 95.1968 41.6584 95.1087 41.0855 95.285Z" fill="#192233"/>
<path d="M16.4538 103.798C16.4538 103.798 18.2144 105.3 18.1844 107.96C18.1763 108.639 17.6736 109.933 17.4733 110.58C17.3612 110.946 17.0948 111.675 17.0727 112.056C17.0387 112.639 17.3311 113.798 17.2991 114.381C17.259 115.11 16.7483 116.961 16.0212 117.009C15.3002 117.057 14.7834 115.142 14.7293 114.421C14.6833 113.77 15.4524 112.212 14.9356 111.814C14.7594 111.677 14.3608 111.942 14.1765 112.064C14.0223 112.166 13.6718 112.394 13.6017 112.565C13.5076 112.799 13.4014 113.252 13.3253 113.446C13.2933 113.53 13.0189 114.005 13.091 114.297C13.2372 114.894 13.4895 116.897 13.4895 116.897C13.4895 116.897 14.4309 117.378 14.8415 117.822C15.0358 118.031 15.9932 118.355 16.2275 118.503C16.578 118.726 17.1048 119.507 16.8464 119.833C16.4839 120.288 14.7574 119.885 14.1485 119.517C13.2973 119.002 11.7871 118.405 11.4406 117.676C11.1101 116.981 10.8677 114.73 10.6414 114.085C10.4531 113.552 10.377 113.368 10.2148 112.781C10.0426 112.156 10.6474 109.855 11.1522 107.976C11.5648 106.444 12.6263 103.898 12.6263 103.898L16.4518 103.796L16.4538 103.798Z" fill="#D6A384"/>
<path d="M17.1068 115.386C17.1929 115.543 17.3171 115.765 17.3752 115.863C17.5294 116.133 18.0301 116.628 18.0001 116.939C17.9881 117.075 17.6416 117.353 17.6416 117.353C17.6416 117.353 18.5829 118.273 18.5769 118.677C18.5749 118.809 18.2604 119.096 18.2604 119.096C18.2604 119.096 18.2625 119.775 18.0982 119.895C17.8819 120.053 17.269 119.947 16.8364 119.845L16.8464 119.835C17.1048 119.508 16.578 118.727 16.2275 118.505C15.9932 118.357 15.0358 118.032 14.8415 117.824C14.511 117.467 13.7359 117.083 13.4835 116.945V116.844C13.4435 116.524 13.2231 114.838 13.091 114.299C13.0189 114.006 13.2932 113.532 13.3253 113.448C13.4034 113.251 13.5096 112.801 13.6017 112.566C13.6718 112.396 14.0223 112.168 14.1765 112.066C14.3628 111.943 14.7594 111.679 14.9356 111.815C15.4524 112.214 14.6833 113.772 14.7293 114.423C14.7814 115.144 15.3002 117.059 16.0212 117.011C16.5039 116.979 16.8905 116.151 17.1088 115.386H17.1068ZM12.6223 103.898C12.6223 103.898 12.3899 104.481 12.3018 104.693C12.2057 104.927 12.0294 105.392 12.0294 105.392C12.0294 105.392 14.0103 105.274 14.6973 105.274C16.2636 105.276 17.8298 105.903 17.8298 105.903C17.8298 105.903 17.6335 105.382 17.3852 104.947C17.1669 104.569 16.7022 103.894 16.7022 103.894L14.535 103.653L12.6223 103.898Z" fill="#BD8868"/>
<path d="M12.2538 102.177L12.1676 104.35C12.1676 104.35 14.2687 104.296 15.0017 104.362C17.4673 104.582 18.1984 104.963 18.1984 104.963L18.653 102.181L12.2538 102.177Z" fill="#C4C2CC"/>
<path d="M36.1344 28.356C42.0269 28.356 42.7319 27.7832 48.7486 27.7832C48.6064 28.9849 48.7346 35.1098 49.9844 36.5719L49.0691 43.8825L46.8679 59.1126L35.3873 48.8317L34.5761 39.4381C37.0036 37.3971 36.4548 30.415 36.1344 28.354V28.356Z" fill="#D6A384"/>
<path d="M36.1344 28.356C42.0269 28.356 42.7319 27.7832 48.7486 27.7832C48.6986 28.2098 48.6806 29.2533 48.7366 30.4911C48.0496 31.5507 46.7558 32.9627 44.3483 34.7012C41.422 36.8143 38.4958 35.9611 36.3527 34.4128C36.545 31.9933 36.3066 29.4656 36.1344 28.358V28.356ZM49.3195 35.0597C49.4937 35.7187 49.712 36.2555 49.9824 36.5719L49.0671 43.8825L47.6451 53.7208C46.9741 55.3051 46.209 56.7251 45.3878 57.7887L35.7077 49.1201C35.5675 48.6975 35.4313 48.2709 35.3012 47.8443L34.5761 39.4381C35.5435 38.6249 36.0382 37.0286 36.2626 35.2721C36.2626 35.2721 37.0717 39.6364 38.0632 42.1941C39.0546 44.7518 39.6274 46.6045 39.4732 47.4197C39.319 48.2348 39.5393 48.6975 39.9359 49.3825C40.3325 50.0655 41.8987 52.3368 41.9869 51.9182C42.075 51.4996 42.3173 49.2283 43.4209 47.684C44.5225 46.1398 45.8024 45.0823 45.3397 44.179C44.877 43.2757 44.9652 42.6568 45.8905 41.2027C46.6877 39.9508 48.7567 36.9204 49.3195 35.0597ZM42.1431 37.2129C42.1431 37.2129 42.0109 38.2484 42.3193 38.9113C42.6278 39.5723 43.1125 39.2418 43.1125 39.2418C43.1125 39.2418 42.2753 38.8072 42.1431 37.2129Z" fill="#BD8868"/>
<path d="M32.3068 90.2453C42.778 93.2817 50.4932 93.0313 58.2945 88.4166C56.7042 84.5911 55.3502 81.3284 53.7579 77.5028C48.7246 63.3623 50.7996 44.3327 51.4205 37.6911C50.389 36.4794 50.1407 35.4879 50.1407 35.4879C50.1407 35.4879 49.682 35.1054 49.4376 35.4639C48.983 38.2379 45.4118 41.743 45.3537 42.5522C45.0954 43.6217 46.1509 43.5817 46.0367 44.1985C45.8144 45.3963 44.2241 47.303 43.6853 48.3846C43.0264 49.7065 42.4896 54.5215 42.4896 54.5215C42.4896 54.5215 40.5347 51.6674 40.0781 51.0104C38.1032 48.0341 39.0065 48.4367 38.9805 46.8244C38.9725 46.3036 38.9645 45.9711 38.5358 44.4549C38.1313 43.0228 36.7212 39.7501 36.2385 35.4679C36.2165 35.2776 35.7598 35.556 35.6497 35.7884C34.7704 37.7712 34.5781 39.4397 33.6267 42.3118C31.3815 53.3879 41.0215 77.2004 32.3068 90.2453Z" fill="#F2F1F6"/>
<path d="M50.5072 36.386C50.5072 36.386 49.4737 40.6942 48.5684 45.4291C48.4722 44.7581 48.1618 43.6365 48.1358 43.28C48.0136 41.6796 47.2585 41.3812 46.7397 41.3692C46.0948 41.3552 45.4338 42.0682 45.3177 42.7031C45.2716 42.9595 45.3457 43.2119 45.4879 43.4302C45.3597 43.1217 45.3657 42.7692 45.8805 42.0842C46.3972 41.4012 47.617 42.1884 47.7732 42.8674C47.9735 43.7386 48.4102 45.0645 48.5504 45.5232C48.1117 47.8265 47.7051 50.224 47.4668 52.271C46.7978 57.9793 47.3566 69.7343 48.8408 75.2022C50.0926 79.8069 54.5671 85.0024 54.9957 89.1404C49.8563 92.293 41.8547 92.8197 36.1985 89.9876C36.5029 86.5286 38.0431 76.9367 38.0431 72.7767C38.0431 67.3088 36.0142 53.3746 35.3873 48.834C35.3152 48.3072 35.2591 47.7364 35.217 47.1355C35.5095 46.9272 35.8319 46.6088 36.0803 46.1301C36.6752 44.9844 37.9109 45.7115 38.2635 46.3945C38.616 47.0775 38.7261 47.6283 38.7261 47.6283C38.7261 47.6283 39.2329 45.9518 38.0652 44.7841C36.8975 43.6164 36.2125 44.9384 35.5956 46.1501C35.4554 46.4245 35.3212 46.6428 35.197 46.8191C34.9226 42.2765 35.4033 36.3379 35.4033 36.3379C27.9765 49.1665 39.2329 78.7213 31.5677 90.1459C43.8115 93.9674 50.0986 92.6014 58.4507 88.846C46.1148 59.6677 53.79 54.7846 51.4205 37.6878C51.1161 37.2532 50.8116 36.8166 50.5072 36.382V36.386Z" fill="#C4C2CC"/>
<path fill-rule="evenodd" clip-rule="evenodd" d="M50.0345 20.7274C50.0345 20.7274 51.07 20.4631 51.2583 20.8716C51.4466 21.2802 51.6989 23.0869 51.4566 24.1905C51.2142 25.2921 50.2008 26.8363 49.7361 26.8363C49.2734 26.8363 49.2514 26.6821 49.2514 26.6821C49.2073 28.7731 49.4096 29.6764 47.7512 31.3348C46.6276 32.4584 44.7969 33.9366 44.4664 34.245C43.8155 34.8519 40.8232 34.8279 40.1983 34.245C39.8678 33.9366 38.0371 32.4584 36.9135 31.3348C35.2551 29.6764 35.4594 28.7731 35.4133 26.6821C35.4133 26.6821 35.3913 26.8363 34.9286 26.8363C34.466 26.8363 33.4505 25.2921 33.2081 24.1905C32.9658 23.0889 33.2201 21.2802 33.4064 20.8716C33.5947 20.4631 34.6302 20.7274 34.6302 20.7274C33.825 16.1428 34.0674 12.0188 37.7287 10.5186C40.683 9.30889 43.9817 9.30889 46.936 10.5186C50.5953 12.0168 50.8397 16.1408 50.0345 20.7274Z" fill="#D6A384"/>
<path fill-rule="evenodd" clip-rule="evenodd" d="M40.2784 25.9873C40.2784 25.9873 40.0801 26.3238 40.1762 26.6923C40.2723 27.0609 40.9053 27.2491 40.9053 27.2491C40.9053 27.2491 40.052 26.8626 40.2784 25.9873Z" fill="#B58060"/>
<path fill-rule="evenodd" clip-rule="evenodd" d="M41.0295 27.191C41.0295 27.191 40.7711 27.1029 40.8031 26.9927C40.8372 26.8826 40.9333 26.8946 41.2498 27.0668C41.5662 27.2391 41.7125 27.3693 42.0409 27.3513C42.3694 27.3312 42.4716 27.149 42.8241 27.0068C43.1766 26.8625 43.3809 26.8105 43.3949 26.9807C43.4089 27.151 43.2947 27.1429 43.2767 27.1429C42.9703 27.0328 42.5737 27.2131 42.2713 27.3032C41.9688 27.3933 41.8386 27.3973 41.5542 27.2872C41.2698 27.177 41.0936 27.0989 41.0315 27.193L41.0295 27.191Z" fill="#82563B"/>
<path fill-rule="evenodd" clip-rule="evenodd" d="M43.6873 25.4922C43.6873 25.4922 44.184 26.2192 44.0158 26.6939C43.8476 27.1686 43.2867 27.2507 43.2867 27.2507C43.2867 27.2507 43.7154 27.0845 43.8636 26.6799C44.0378 26.2052 43.7594 25.7706 43.6873 25.4922Z" fill="#A16F50"/>
<path d="M42.0249 26.6801C42.2019 26.6801 42.3454 26.5618 42.3454 26.4158C42.3454 26.2697 42.2019 26.1514 42.0249 26.1514C41.8479 26.1514 41.7044 26.2697 41.7044 26.4158C41.7044 26.5618 41.8479 26.6801 42.0249 26.6801Z" fill="#EDBA9D"/>
<path fill-rule="evenodd" clip-rule="evenodd" d="M38.5018 21.1436C38.5018 21.1436 39.7636 21.5522 40.2664 21.9528C40.7671 22.3554 41.0996 22.798 41.1316 23.1585C41.1637 23.5191 41.2798 21.9047 40.7671 21.3699C40.2543 20.8352 38.4577 20.9373 38.5018 21.1416V21.1436Z" fill="#BD8868"/>
<path fill-rule="evenodd" clip-rule="evenodd" d="M40.8893 21.6328C40.8893 21.6328 41.2538 22.1896 41.2698 22.8706C41.2858 23.5516 41.1276 24.2887 41.1276 24.2887C41.1276 24.2887 41.2277 22.4981 40.8893 21.6328Z" fill="#A16F50"/>
<path fill-rule="evenodd" clip-rule="evenodd" d="M35.892 21.0139C35.892 21.0139 37.0457 20.0225 37.266 20.0225C37.4863 20.0225 38.0371 20.0725 39.325 20.2949C40.1502 20.4371 40.8832 20.387 40.8692 21.1521C40.8612 21.5367 40.725 21.5226 40.4606 21.4806C40.1962 21.4405 37.9029 21.07 37.5604 21.0139C37.0637 20.9338 36.4548 21.1641 35.9942 21.3103C35.9942 21.3103 35.7498 21.1922 35.892 21.0139Z" fill="#413024"/>
<path fill-rule="evenodd" clip-rule="evenodd" d="M36.7693 22.0817C36.7693 22.0817 37.0998 21.6411 38.4557 21.567C39.8097 21.4909 40.3044 21.8995 40.4987 22.0457C40.693 22.1919 40.699 22.2219 40.699 22.2219C40.699 22.2219 39.9239 21.6211 38.7882 21.609C37.6546 21.597 36.7693 22.0817 36.7693 22.0817Z" fill="#A16F50"/>
<path fill-rule="evenodd" clip-rule="evenodd" d="M37.266 22.2195C37.266 22.2195 37.8589 21.6747 38.6901 21.6867C39.5233 21.6987 40.1642 22.2996 40.1642 22.2996C40.1642 22.2996 40.6068 22.4518 40.6068 22.56C40.6068 22.6681 40.1702 22.5119 40.1702 22.5119C40.1702 22.5119 39.3811 22.8885 38.3696 22.7663C37.3561 22.6441 37.266 22.2215 37.266 22.2215V22.2195Z" fill="white"/>
<path fill-rule="evenodd" clip-rule="evenodd" d="M37.266 22.2195C37.266 22.2195 37.8589 21.6747 38.6901 21.6867C39.4592 21.6967 40.0641 22.2095 40.1522 22.2896C39.7196 22.1314 39.1628 21.9591 38.654 21.9531C37.927 21.9451 37.5304 22.2175 37.3601 22.3757C37.28 22.2876 37.264 22.2195 37.264 22.2195H37.266Z" fill="#ADA89F"/>
<path fill-rule="evenodd" clip-rule="evenodd" d="M37.266 22.22C37.266 22.22 37.288 22.2 37.3261 22.1699C37.4262 22.3081 37.7126 22.5845 38.4297 22.6887C39.325 22.8169 39.9719 22.5104 40.1742 22.3041C40.2423 22.3282 40.6068 22.4623 40.6068 22.5605C40.6068 22.6686 40.1702 22.5124 40.1702 22.5124C40.1702 22.5124 39.3811 22.889 38.3696 22.7668C37.3561 22.6446 37.266 22.222 37.266 22.222V22.22Z" fill="#EDBA9D"/>
<path fill-rule="evenodd" clip-rule="evenodd" d="M38.1693 21.7517C38.3275 21.7096 38.5038 21.6856 38.6901 21.6876C38.9504 21.6916 39.1908 21.7517 39.3991 21.8338C39.4251 21.9039 39.4392 21.98 39.4392 22.0602C39.4392 22.4307 39.1387 22.7331 38.7662 22.7331C38.3956 22.7331 38.0932 22.4327 38.0932 22.0602C38.0932 21.948 38.1212 21.8438 38.1693 21.7517Z" fill="#625D54"/>
<path d="M38.7682 22.3637C38.9352 22.3637 39.0706 22.2283 39.0706 22.0612C39.0706 21.8942 38.9352 21.7588 38.7682 21.7588C38.6012 21.7588 38.4658 21.8942 38.4658 22.0612C38.4658 22.2283 38.6012 22.3637 38.7682 22.3637Z" fill="#402F24"/>
<path d="M38.9224 22.1418C38.9788 22.1418 39.0245 22.0961 39.0245 22.0396C39.0245 21.9832 38.9788 21.9375 38.9224 21.9375C38.866 21.9375 38.8203 21.9832 38.8203 22.0396C38.8203 22.0961 38.866 22.1418 38.9224 22.1418Z" fill="white"/>
<path fill-rule="evenodd" clip-rule="evenodd" d="M37.4022 22.9809C37.4022 22.9809 37.7547 23.2052 38.6821 23.2473C39.6094 23.2894 40.0641 22.9629 40.0641 22.9629C40.0641 22.9629 39.6815 23.3755 38.646 23.3635C38.2635 23.3595 37.7207 23.2293 37.4022 22.9809Z" fill="#C99371"/>
<path fill-rule="evenodd" clip-rule="evenodd" d="M36.7473 22.1942C36.7473 22.1942 36.8835 22.2242 37.3181 21.9759C37.7527 21.7275 38.0151 21.5893 38.7902 21.6093C39.5653 21.6294 39.7556 21.8697 39.9439 22.04C40.1322 22.2102 40.2543 22.3324 40.2543 22.3324L40.1402 22.2843C40.1402 22.2843 39.4952 21.7816 38.7582 21.7235C38.0211 21.6654 37.5785 22.06 37.4423 22.1481C37.3061 22.2362 37.1098 22.3945 36.7473 22.1942Z" fill="#413024"/>
<path fill-rule="evenodd" clip-rule="evenodd" d="M34.7964 23.7177C34.7964 23.7177 34.2657 23.5074 34.3958 22.8464C34.526 22.1855 34.5641 21.7328 34.2476 21.6347C33.9312 21.5345 33.5666 22.7142 33.6508 23.6636C33.7349 24.611 34.48 25.7246 34.48 25.7246C34.48 25.7246 33.5386 24.6991 33.5206 23.223C33.5025 21.7448 33.781 21.2061 34.1635 21.2061C34.5461 21.2061 34.7323 21.7348 34.7323 21.835C34.7323 21.9351 34.6102 22.8044 34.7984 23.7197L34.7964 23.7177ZM49.6359 23.7177C49.6359 23.7177 50.2648 23.5074 50.1106 22.8464C49.9564 22.1855 49.9123 21.7328 50.2869 21.6347C50.6614 21.5345 51.092 22.7142 50.9919 23.6636C50.8917 24.611 50.0105 25.7246 50.0105 25.7246C50.0105 25.7246 51.1241 24.6991 51.1461 23.223C51.1681 21.7448 50.8377 21.2061 50.385 21.2061C49.9324 21.2061 49.712 21.7348 49.712 21.835C49.712 21.9351 49.8562 22.8044 49.6339 23.7197L49.6359 23.7177Z" fill="#BD8868"/>
<path fill-rule="evenodd" clip-rule="evenodd" d="M46.4313 21.0239C45.6422 21.2061 44.7469 21.9672 44.158 22.1856C43.491 22.4319 42.9743 23.4854 42.9422 23.846C42.9102 24.2065 42.9903 21.9071 43.503 21.3724C44.0158 20.8376 46.4734 20.8196 46.4293 21.0239H46.4313Z" fill="#C99371"/>
<path fill-rule="evenodd" clip-rule="evenodd" d="M47.5008 22.0817C47.5008 22.0817 47.1704 21.6411 45.8144 21.567C44.4604 21.4909 43.9657 21.8995 43.7714 22.0457C43.5771 22.1919 43.5711 22.2219 43.5711 22.2219C43.5711 22.2219 44.3463 21.6211 45.4819 21.609C46.6156 21.597 47.5008 22.0817 47.5008 22.0817Z" fill="#A16F50"/>
<path fill-rule="evenodd" clip-rule="evenodd" d="M47.0041 22.2195C47.0041 22.2195 46.4113 21.6747 45.58 21.6867C44.7468 21.6987 44.1059 22.2996 44.1059 22.2996C44.1059 22.2996 43.6633 22.4518 43.6633 22.56C43.6633 22.6681 44.0999 22.5119 44.0999 22.5119C44.0999 22.5119 44.889 22.8885 45.9005 22.7663C46.914 22.6441 47.0041 22.2215 47.0041 22.2215V22.2195Z" fill="white"/>
<path fill-rule="evenodd" clip-rule="evenodd" d="M47.0041 22.2195C47.0041 22.2195 46.4112 21.6747 45.58 21.6867C44.8109 21.6967 44.206 22.2095 44.1179 22.2896C44.5505 22.1314 45.1074 21.9591 45.6161 21.9531C46.3431 21.9451 46.7397 22.2175 46.91 22.3757C46.9901 22.2876 47.0061 22.2195 47.0061 22.2195H47.0041Z" fill="#ADA89F"/>
<path fill-rule="evenodd" clip-rule="evenodd" d="M47.0041 22.22C47.0041 22.22 46.9821 22.2 46.944 22.1699C46.8439 22.3081 46.5575 22.5845 45.8404 22.6887C44.9451 22.8169 44.2982 22.5104 44.0959 22.3041C44.0278 22.3282 43.6633 22.4623 43.6633 22.5605C43.6633 22.6686 44.0999 22.5124 44.0999 22.5124C44.0999 22.5124 44.889 22.889 45.9005 22.7668C46.914 22.6446 47.0041 22.222 47.0041 22.222V22.22Z" fill="#EDBA9D"/>
<path fill-rule="evenodd" clip-rule="evenodd" d="M46.1008 21.7517C45.9426 21.7096 45.7663 21.6856 45.58 21.6876C45.3197 21.6916 45.0793 21.7517 44.871 21.8338C44.845 21.9039 44.831 21.98 44.831 22.0602C44.831 22.4307 45.1314 22.7331 45.5039 22.7331C45.8745 22.7331 46.1769 22.4327 46.1769 22.0602C46.1769 21.948 46.1489 21.8438 46.1008 21.7517Z" fill="#625D54"/>
<path d="M45.5039 22.3637C45.671 22.3637 45.8064 22.2283 45.8064 22.0612C45.8064 21.8942 45.671 21.7588 45.5039 21.7588C45.3369 21.7588 45.2015 21.8942 45.2015 22.0612C45.2015 22.2283 45.3369 22.3637 45.5039 22.3637Z" fill="#402F24"/>
<path d="M45.6361 22.1418C45.6926 22.1418 45.7383 22.0961 45.7383 22.0396C45.7383 21.9832 45.6926 21.9375 45.6361 21.9375C45.5797 21.9375 45.534 21.9832 45.534 22.0396C45.534 22.0961 45.5797 22.1418 45.6361 22.1418Z" fill="white"/>
<path fill-rule="evenodd" clip-rule="evenodd" d="M46.8679 22.9809C46.8679 22.9809 46.5154 23.2052 45.5881 23.2473C44.6607 23.2894 44.2061 22.9629 44.2061 22.9629C44.2061 22.9629 44.5886 23.3755 45.6241 23.3635C46.0067 23.3595 46.5494 23.2293 46.8679 22.9809Z" fill="#C99371"/>
<path fill-rule="evenodd" clip-rule="evenodd" d="M47.5229 22.1942C47.5229 22.1942 47.3867 22.2242 46.952 21.9759C46.5174 21.7275 46.255 21.5893 45.4799 21.6093C44.7048 21.6294 44.5145 21.8697 44.3262 22.04C44.138 22.2102 44.0158 22.3324 44.0158 22.3324L44.1299 22.2843C44.1299 22.2843 44.7749 21.7816 45.5119 21.7235C46.249 21.6654 46.6917 22.06 46.8279 22.1481C46.9641 22.2362 47.1603 22.3945 47.5229 22.1942Z" fill="#413024"/>
<path fill-rule="evenodd" clip-rule="evenodd" d="M43.1906 21.5181C43.1906 21.5181 42.9102 22.0069 42.8521 22.8801C42.794 23.7534 42.9002 24.6166 42.9002 24.6166C42.9002 24.6166 42.9002 23.5611 43.1525 22.5857C43.4049 21.6103 43.9657 21.2698 43.9657 21.2698C43.9657 21.2698 43.453 21.2017 43.1906 21.5201V21.5181Z" fill="#A16F50"/>
<path fill-rule="evenodd" clip-rule="evenodd" d="M48.3801 21.0139C48.3801 21.0139 47.2264 20.0225 47.0061 20.0225C46.7858 20.0225 46.235 20.0725 44.9471 20.2949C44.122 20.4371 43.3889 20.387 43.4029 21.1521C43.4109 21.5367 43.5471 21.5226 43.8115 21.4806C44.0759 21.4405 46.3692 21.07 46.7117 21.0139C47.2084 20.9338 47.8173 21.1641 48.278 21.3103C48.278 21.3103 48.5223 21.1922 48.3801 21.0139Z" fill="#413024"/>
<path fill-rule="evenodd" clip-rule="evenodd" d="M42.3494 27.9316C42.3494 27.9316 42.5196 28.6026 42.5437 28.9191C42.5677 29.2355 41.9828 29.1995 41.9828 29.1995C41.9828 29.1995 42.5677 29.1514 42.3494 27.9316Z" fill="#C99371"/>
<path fill-rule="evenodd" clip-rule="evenodd" d="M45.7263 29.3797C45.9005 29.3917 45.8665 29.2915 45.8104 29.2114C45.7543 29.1333 45.7042 29.2455 45.6301 29.2775C45.556 29.3096 44.6707 29.4678 44.156 29.3096C43.6412 29.1513 43.441 29.0872 43.0884 29.2054C42.2713 29.4778 42.3394 29.5219 41.392 29.2054C41.0375 29.0872 40.8372 29.1533 40.3244 29.3096C39.8097 29.4678 38.9945 29.2976 38.9204 29.2635C38.8463 29.2315 38.7141 29.1634 38.664 29.2335C38.612 29.3056 38.5879 29.3757 38.67 29.3977C38.7341 29.3997 38.6039 29.4197 38.8843 29.3857C39.1648 29.3516 39.8297 29.62 40.2744 29.7662C41.2838 30.1007 42.8321 30.0506 43.8576 29.8604C44.2862 29.7823 45.4298 29.3236 45.7283 29.3777L45.7263 29.3797Z" fill="#A16F50"/>
<path fill-rule="evenodd" clip-rule="evenodd" d="M41.6504 30.3534C41.6504 30.3534 42.3574 30.4275 43.2547 30.2012C44.15 29.9749 43.6933 30.4876 43.0043 30.6639C42.3153 30.8401 41.3399 30.6459 41.2498 30.4816C41.1577 30.3174 41.366 30.3294 41.6524 30.3534H41.6504Z" fill="#EDBA9D"/>
<path fill-rule="evenodd" clip-rule="evenodd" d="M40.701 30.7022C40.701 30.7022 41.0154 31.1048 42.097 31.1749C43.1465 31.2109 43.6332 30.8304 43.7794 30.7282C43.1886 31.0307 41.7886 31.1288 40.701 30.7002V30.7022Z" fill="#A16F50"/>
<path fill-rule="evenodd" clip-rule="evenodd" d="M47.0582 28.1582C47.0582 28.1582 46.94 29.4981 46.6857 30.5517C46.4313 31.6052 46.0187 31.9617 46.0187 31.9617C46.0187 31.9617 47.2285 31.3008 47.0582 28.1582ZM37.6085 28.1582C37.6085 28.1582 37.7267 29.4981 37.9811 30.5517C38.2354 31.6052 38.648 31.9617 38.648 31.9617C38.648 31.9617 37.4383 31.3008 37.6085 28.1582Z" fill="#C99371"/>
<path fill-rule="evenodd" clip-rule="evenodd" d="M35.4153 26.7144V26.6823C35.4153 26.6823 35.3933 26.8365 34.9306 26.8365C34.8505 26.8365 34.7564 26.7905 34.6502 26.7104C34.7103 26.7464 34.8605 26.7885 35.0628 26.476C35.3272 26.0674 35.5195 24.4251 35.4994 25.092C35.4914 25.4165 35.4614 26.0955 35.4133 26.7124L35.4153 26.7144ZM49.2534 26.7144V26.6823C49.2534 26.6823 49.2754 26.8365 49.7381 26.8365C49.8182 26.8365 49.9123 26.7905 50.0185 26.7104C49.9584 26.7464 49.8082 26.7885 49.6059 26.476C49.3415 26.0674 49.1492 24.4251 49.1692 25.092C49.1773 25.4165 49.2073 26.0955 49.2554 26.7124L49.2534 26.7144Z" fill="#BD8868"/>
<path d="M64.8259 97.6925C64.8259 97.6925 64.3853 98.4896 64.3072 98.7C64.0648 99.3289 63.3378 101.688 63.3378 101.688L59.2098 94.0532L60.4236 93.1299L64.8259 97.6905V97.6925Z" fill="#BD8868"/>
<path d="M59.5122 93.8232L59.0335 95.1592C59.0335 95.1592 61.2167 96.3329 61.9498 96.7174C62.9312 97.2202 64.7538 98.0053 64.7538 98.0053C64.7538 98.0053 65.0743 97.2021 65.1444 96.9177C65.1925 96.7214 65.4969 95.724 65.4969 95.724L59.5142 93.8232H59.5122Z" fill="#C4C2CC"/>
<path d="M22.3744 108.236C22.3744 108.236 26.3262 111.995 27.8564 110.952C31.1852 108.686 34.2456 97.2879 35.0428 88.8096C33.3644 94.2394 30.1297 105.48 28.2249 107.807C26.3202 110.134 22.3724 108.236 22.3724 108.236H22.3744Z" fill="#192233"/>
<path d="M35.3953 36.3701C35.3953 36.3701 32.0124 39.2723 28.8819 40.1636C19.4662 42.8355 18.0081 44.9706 17.5534 54.3422C17.4293 56.8979 17.3171 59.079 17.1489 61.118C17.0327 61.847 16.9185 62.52 16.8444 63.1049C16.7162 64.1183 16.4418 66.1272 16.2435 67.1227C15.903 68.8332 15.5946 70.4014 15.3122 71.8896C13.7639 77.8542 13.2953 81.0068 13.0149 85.5935C12.7325 90.2402 12.1136 102.542 12.1136 102.542C13.7559 102.51 17.1969 102.696 18.605 102.997C18.605 102.997 20.9323 91.1796 21.6654 87.6464C22.2763 84.7042 24.0849 76.9509 24.0849 76.9509L26.4103 69.0355C26.4103 69.0355 26.3602 72.7969 26.4103 73.3818C26.5304 74.7818 26.3382 77.6099 26.0457 78.9839C25.8154 80.0654 25.3167 82.9817 24.9842 84.0372C24.2692 86.3025 23.494 90.795 23.1015 93.1384C22.4806 96.8418 21.6674 107.533 21.6674 107.533C21.6674 107.533 25.6191 111.293 27.1493 110.249C30.5042 107.966 32.6974 99.2312 35.2671 87.8127C36.4088 82.7473 36.8234 72.2641 36.5269 67.4912C36.2585 63.1569 34.6823 54.3261 34.3177 50.3103C34.0233 47.0556 35.3933 36.3741 35.3933 36.3741L35.3953 36.3701Z" fill="#23314B"/>
<path d="M50.5072 36.3857C50.5072 36.3857 48.2459 47.1233 48.1337 50.9068C48.0636 53.2602 47.9515 57.975 48.0616 60.3244C48.2199 63.7214 48.3641 71.2102 49.2674 74.485C49.9504 76.9545 52.0094 80.6359 53.854 82.4785C57.4512 86.0758 58.3205 94.3417 58.3205 94.3417C61.2688 95.6857 63.5781 96.7132 65.2706 97.4262C65.2706 97.4262 67.0351 92.6433 69.5307 87.638C71.7359 83.2196 74.3137 75.1279 74.4779 72.9067C74.526 72.2457 72.5872 66.2711 70.6303 60.4646C68.4872 54.1054 67.6741 47.2134 66.1038 45.0162C64.7518 43.1255 54.1344 38.8393 50.5072 36.3857ZM59.2078 75.7588C58.667 71.6969 60.5878 62.2352 60.5878 62.2352C60.5878 62.2352 61.9978 66.3752 63.1655 69.4997C64.4694 72.9888 64.872 74.539 64.8259 74.9556C64.7018 76.0693 63.6983 79.2559 62.6047 82.5066C61.439 81.3469 59.4261 77.3992 59.2098 75.7568L59.2078 75.7588Z" fill="#23314B"/>
<path d="M30.7065 39.9708C30.2999 40.844 26.1659 47.9123 26.1219 48.5973C26.3662 49.5907 29.0641 55.2208 30.2158 57.6944C29.2143 54.3716 27.7743 50.0233 27.9225 48.6794C28.0647 47.4095 29.9434 42.2461 30.7045 39.9688L30.7065 39.9708Z" fill="#35496E"/>
<path d="M64.8239 74.9561C63.5922 81.2372 60.5157 86.9795 59.1137 94.5865C61.0865 89.6834 65.1725 79.6569 64.8239 74.9561Z" fill="#182234"/>
<path fill-rule="evenodd" clip-rule="evenodd" d="M57.273 48.2367L53.2432 49.2041L57.275 49.1801C56.608 51.5715 52.7124 65.7341 50.7135 73.5674C52.9728 66.7475 58.2424 48.6773 58.2424 48.6773C58.2424 48.6773 57.2049 43.0332 53.3153 38.4766C55.5605 41.545 56.6161 44.5574 57.271 48.2367H57.273Z" fill="#182234"/>
<path fill-rule="evenodd" clip-rule="evenodd" d="M26.0698 48.2372L30.0996 49.2046L26.0678 49.1806C26.7347 51.5721 33.4124 64.1363 35.4093 71.9676C33.15 65.1477 25.0984 48.6779 25.0984 48.6779C25.0984 48.6779 26.3422 44.9825 30.6023 40.0273C28.3571 43.0958 26.7888 45.7096 26.0698 48.2372Z" fill="#182234"/>
<path d="M30.0375 40.123C20.1212 43.7223 18.9595 44.213 18.4648 54.3617C18.3406 56.9154 18.2284 59.0945 18.0602 61.1295C17.944 61.8585 17.8299 62.5295 17.7557 63.1144C17.6276 64.1258 17.3532 66.1347 17.1549 67.1282C16.8144 68.8367 16.5059 70.4049 16.2235 71.8891C16.0332 72.6242 15.859 73.3151 15.6988 73.9741C16.7082 75.5804 19.8007 55.7857 20.2153 51.0068C20.692 45.5089 24.5536 42.6006 28.1007 41.1205C28.8779 40.796 29.5168 40.4555 30.0375 40.123Z" fill="#35496E"/>
<path fill-rule="evenodd" clip-rule="evenodd" d="M34.0874 92.948C39.6314 95.8883 48.7406 94.6565 57.986 91.542L58.2604 92.1609C51.3644 95.0451 40.747 97.1121 33.8731 93.8473L34.0894 92.948H34.0874Z" fill="#192233"/>
<path d="M70.0435 60.2885C68.6455 54.39 66.8088 46.4104 65.7393 45.0064C64.8219 43.8027 57.8719 40.7182 54.513 39.1299C54.513 39.1299 63.0874 44.1131 64.4073 45.3189C65.7273 46.5246 67.8283 53.2103 70.0435 60.2865V60.2885Z" fill="#35496E"/>
</g>
<defs>
<clipPath id="clip0">
<rect width="84.6667" height="211.667" fill="white"/>
</clipPath>
</defs>
</svg>
