<svg width="85" height="212" viewBox="0 0 85 212" fill="none" xmlns="http://www.w3.org/2000/svg">
<path fill-rule="evenodd" clip-rule="evenodd" d="M36.8613 192.133C36.8613 192.133 37.1501 192.985 37.305 194.339C37.46 195.694 37.4477 196.312 37.4477 196.312C37.4477 196.312 36.768 197.315 35.3117 197.882C33.8554 198.449 33.0595 198.453 33.0595 198.453L31.6102 198.196C31.6102 198.196 31.0362 198.729 29.9321 200.353C28.828 201.978 27.2678 203.045 25.0086 203.35C22.7493 203.655 18.6235 203.558 17.6409 203.121C16.6565 202.684 15.7725 201.57 15.762 201.216C15.7514 200.862 15.4045 200.01 16.6688 198.856C17.9332 197.701 24.1739 194.433 25.4928 192.129C26.8135 189.826 35.9984 189.722 36.8595 192.133H36.8613Z" fill="#424852"/>
<path fill-rule="evenodd" clip-rule="evenodd" d="M36.4193 195.345C36.4193 195.345 34.5422 196.149 33.2091 196.921C31.8761 197.692 31.369 198.033 30.4815 198.951C29.594 199.868 28.555 201.728 26.4983 202.401C24.4415 203.073 19.1148 203.232 18.1022 202.795C17.0897 202.358 16.2938 201.318 16.2938 201.318C16.2938 201.318 17.6567 202.665 19.3366 202.702C21.0165 202.737 24.9997 202.467 26.2253 202.078C27.4509 201.689 28.7241 200.858 30.1892 198.497C31.6543 196.133 35.523 195.468 36.4193 195.345ZM23.0222 200.71C23.0222 200.71 21.2138 200.823 19.15 200.213C17.0862 199.604 17.4155 198.706 17.4155 198.706C17.4155 198.706 16.1758 200.229 18.4491 200.939C20.7225 201.649 23.0222 200.71 23.0222 200.71ZM26.9086 193.742C26.9086 193.742 26.4789 194.156 26.7554 194.568C27.0318 194.978 27.7521 197.567 27.7521 197.567C27.7521 197.567 26.7536 195.554 26.3821 194.91C26.0105 194.263 25.9577 193.925 26.0246 193.703C26.0915 193.481 26.1338 193.364 26.1338 193.364C26.1338 193.364 26.5899 193.3 26.9103 193.742H26.9086Z" fill="#58606D"/>
<path fill-rule="evenodd" clip-rule="evenodd" d="M60.8028 191.078C60.8028 191.078 63.0462 195.586 63.3015 196.372C63.5551 197.157 63.6325 199.864 63.6325 199.864C63.6325 199.864 63.8368 203.565 59.8378 203.806C55.8387 204.048 54.1623 201.727 54.0443 199.788C53.9264 197.849 53.7063 195.208 53.097 193.935C52.4877 192.661 52.4877 192.661 52.4877 192.661C52.4877 192.661 52.0475 190.293 52.5247 189.391C53.0001 188.49 59.8395 190.289 60.8028 191.078Z" fill="#424852"/>
<path fill-rule="evenodd" clip-rule="evenodd" d="M62.6799 199.753C62.6799 199.753 62.4228 202.147 59.5983 202.373C56.7755 202.598 55.4496 200.529 55.2805 199.71C55.1097 198.893 55.7049 201.197 58.3621 201.33C61.0194 201.464 62.1992 200.478 62.6799 199.753ZM58.4449 192.626C58.4449 192.626 59.0929 194.206 59.7251 194.669C60.3573 195.13 61.766 195.459 61.766 195.459C61.766 195.459 59.8589 194.722 59.5736 193.968C59.2866 193.213 59.0806 192.633 59.0806 192.633C59.0806 192.633 58.8605 192.126 58.4467 192.628L58.4449 192.626ZM56.1504 192.786C56.1504 192.786 56.5642 193.861 56.4058 194.544C56.2473 195.227 55.4777 196.139 55.4777 196.139C55.4777 196.139 56.7579 195.002 56.8847 194.23C57.0115 193.461 56.7438 192.852 56.7438 192.852C56.7438 192.852 56.4868 192.64 56.1522 192.786H56.1504Z" fill="#58606D"/>
<path fill-rule="evenodd" clip-rule="evenodd" d="M59.3482 86.344C59.3482 86.344 62.8419 90.9189 63.6871 104.466C64.5341 118.012 61.1003 137.671 61.1003 137.671L60.4417 182.939L60.7904 191.052C60.7904 191.052 56.9446 192.091 54.96 192.166C52.9755 192.242 52.1408 191.992 52.1408 191.992C52.1408 191.992 50.9381 188.835 51.0402 187.657C51.1423 186.479 51.3008 181.287 51.0913 180.261C50.9715 179.671 48.4517 165.654 47.3493 155.282C46.5375 147.647 47.0271 143.148 47.0834 141.492C47.2155 137.589 46.9249 136.049 46.8439 135.442C46.7629 134.834 44.3628 115.415 44.3628 115.415C44.2871 117.058 39.3794 141.35 40.3849 147.908C41.3904 154.465 39.7439 171.849 38.064 179.993C36.3858 188.137 36.7451 188.166 36.7451 188.166L37.062 192.89C37.062 192.89 34.3502 194.047 30.8284 193.617C27.3066 193.188 25.7534 191.633 25.7534 191.633C25.7534 191.633 27.1886 189.555 27.2115 187.488C27.2344 185.42 26.405 144.4 26.2535 142.339C26.1003 140.279 22.3848 116.542 23.2652 105.365C24.1457 94.1889 27.5179 85.9531 27.5179 85.9531C27.5179 85.9531 51.852 86.3916 59.3465 86.3405L59.3482 86.344Z" fill="#23314B"/>
<path fill-rule="evenodd" clip-rule="evenodd" d="M41.0857 95.2858C41.0857 95.2858 40.9537 106.508 41.0417 107.743C41.1298 108.977 43.7764 110.829 43.7764 110.829C43.7764 110.829 41.8359 108.141 41.9239 107.478C42.012 106.816 42.1881 95.1978 42.1881 95.1978C42.1881 95.1978 41.658 95.1097 41.0857 95.2858Z" fill="#192233"/>
<path d="M16.454 103.799C16.454 103.799 18.2149 105.301 18.1832 107.962C18.1744 108.64 17.6726 109.934 17.4718 110.582C17.3591 110.948 17.0932 111.677 17.0703 112.059C17.0351 112.642 17.3292 113.801 17.2957 114.384C17.2552 115.113 16.7463 116.963 16.0191 117.013C15.2971 117.062 14.7811 115.146 14.7266 114.426C14.679 113.774 15.4503 112.218 14.9326 111.818C14.7547 111.681 14.3585 111.947 14.1719 112.068C14.0169 112.17 13.6665 112.397 13.5978 112.57C13.5045 112.804 13.3988 113.257 13.3213 113.452C13.2879 113.535 13.0149 114.01 13.0871 114.304C13.2333 114.901 13.4869 116.904 13.4869 116.904C13.4869 116.904 14.4272 117.384 14.8393 117.828C15.033 118.036 15.9909 118.36 16.2251 118.508C16.5755 118.73 17.1038 119.512 16.8449 119.837C16.4822 120.292 14.7565 119.89 14.1472 119.522C13.2949 119.006 11.7858 118.409 11.4389 117.682C11.1096 116.986 10.8666 114.736 10.6395 114.09C10.4528 113.556 10.3753 113.373 10.2133 112.787C10.0407 112.161 10.6447 109.862 11.1501 107.981C11.5639 106.449 12.6258 103.903 12.6258 103.903L16.4523 103.801L16.454 103.799Z" fill="#D6A384"/>
<path d="M17.1073 115.387C17.1936 115.542 17.3186 115.766 17.375 115.864C17.5299 116.135 18.0283 116.63 18.0001 116.94C17.9878 117.078 17.6409 117.356 17.6409 117.356C17.6409 117.356 18.5812 118.275 18.5759 118.68C18.5742 118.812 18.2607 119.099 18.2607 119.099C18.2607 119.099 18.2625 119.777 18.097 119.899C17.8804 120.057 17.2693 119.951 16.8344 119.848L16.8432 119.837C17.102 119.511 16.5738 118.729 16.2233 118.507C15.9891 118.36 15.0312 118.036 14.8375 117.828C14.5082 117.472 13.7316 117.086 13.4781 116.949L13.4763 116.849C13.4358 116.528 13.2157 114.841 13.0836 114.302C13.0132 114.008 13.2861 113.535 13.3178 113.45C13.3953 113.255 13.501 112.802 13.5943 112.568C13.663 112.397 14.0134 112.168 14.1684 112.066C14.3533 111.945 14.7512 111.679 14.9291 111.816C15.4468 112.216 14.6773 113.772 14.723 114.424C14.7759 115.146 15.2936 117.06 16.0156 117.011C16.498 116.979 16.8855 116.151 17.102 115.387H17.1073ZM12.6223 103.899C12.6223 103.899 12.3898 104.482 12.3018 104.693C12.2067 104.927 12.0288 105.392 12.0288 105.392C12.0288 105.392 14.0099 105.274 14.6949 105.274C16.2621 105.276 17.8275 105.903 17.8275 105.903C17.8275 105.903 17.6321 105.382 17.3838 104.947C17.1654 104.568 16.7006 103.894 16.7006 103.894L14.5329 103.652L12.6205 103.897L12.6223 103.899Z" fill="#BD8868"/>
<path d="M12.2542 102.177L12.1679 104.35C12.1679 104.35 14.2687 104.297 15.0013 104.362C17.4665 104.582 18.1991 104.963 18.1991 104.963L18.6534 102.18L12.2542 102.177Z" fill="#C4C2CC"/>
<path d="M36.1358 28.3553C42.0278 28.3553 42.734 27.7812 48.7493 27.7812C48.6066 28.9822 49.0275 35.966 52.2077 36.769L49.068 43.8831L46.8668 59.1133L35.3874 48.833L33.1845 37.5508C36.7768 35.1912 36.4545 30.4156 36.134 28.3553H36.1358Z" fill="#D6A384"/>
<path d="M36.1358 28.3553C42.0278 28.3553 42.734 27.7812 48.7493 27.7812C48.6982 28.2074 48.6823 29.2516 48.7369 30.4878C48.0502 31.5479 47.0165 32.7717 44.3487 34.6964C41.6809 36.6211 37.9654 35.5786 35.8206 34.0307C36.5831 31.8895 36.3066 29.4612 36.134 28.3535L36.1358 28.3553ZM50.1721 34.964C50.5718 35.8603 50.9891 35.9801 51.2603 36.297L49.0697 43.8813L47.6487 53.7196C46.9778 55.3044 46.2118 56.7237 45.3912 57.7891L35.7114 49.1201C35.5705 48.6974 35.435 48.2713 35.3046 47.8452L33.4715 37.3536C34.4383 36.5401 34.9683 35.9818 35.5071 34.8337C35.5071 34.8337 35.2782 37.049 35.7801 38.5739C36.7609 41.5569 37.7435 41.9866 38.2383 43.1593C39.3072 45.6863 39.6312 46.6037 39.4763 47.419C39.3213 48.2343 39.5432 48.6974 39.9394 49.3807C40.3356 50.0639 41.901 52.3355 41.9891 51.9164C42.0771 51.4973 42.3201 49.2257 43.4225 47.6831C44.5248 46.1406 45.8032 45.0805 45.3401 44.1772C44.877 43.2738 45.0302 42.5536 45.8913 41.2012C46.7524 39.8471 49.6068 36.8253 50.1703 34.964H50.1721ZM42.1458 37.211C42.1458 37.211 42.0137 38.2481 42.3219 38.9085C42.6301 39.5706 43.1161 39.2395 43.1161 39.2395C43.1161 39.2395 42.2779 38.8046 42.1458 37.211Z" fill="#BD8868"/>
<path d="M32.3075 90.2468C42.778 93.2826 50.4943 93.0325 58.2952 88.4189C56.7033 84.5924 55.3492 81.3295 53.7591 77.5048C48.7263 63.3646 52.2094 44.5615 52.831 37.9193C52.3591 37.3646 52.051 36.8557 51.8555 36.4666C51.7058 36.169 51.2762 34.9927 50.732 35.7904C50.2777 38.5638 45.4105 41.744 45.3542 42.5523C45.0953 43.6212 46.1501 43.5807 46.0374 44.1988C45.8155 45.3962 44.2237 47.3033 43.6866 48.3862C43.028 49.7087 42.4909 54.523 42.4909 54.523C42.4909 54.523 40.5346 51.6686 40.0785 51.0135C38.1045 48.0376 39.0078 48.439 38.9797 46.826C38.9709 46.3066 38.9638 45.9738 38.5359 44.4576C38.1309 43.026 35.1743 40.4445 34.6918 36.1602C34.6707 35.97 34.0315 36.1267 33.947 36.5705C28.4547 49.2015 41.607 76.3232 32.3058 90.2485L32.3075 90.2468Z" fill="#F2F1F6"/>
<path d="M51.8978 36.4645C51.8978 36.4645 49.4747 40.6924 48.5696 45.4275C48.4745 44.7566 48.1646 43.6349 48.1364 43.2792C48.0149 41.6785 47.2595 41.3809 46.74 41.3686C46.0938 41.3545 45.4334 42.0677 45.3172 42.7034C45.2714 42.9605 45.3454 43.2123 45.488 43.4289C45.3595 43.1207 45.3648 42.7685 45.8807 42.0835C46.3967 41.4003 47.617 42.1874 47.7737 42.8654C47.9744 43.7371 48.4094 45.063 48.5503 45.5209C48.1118 47.8241 47.705 50.2225 47.4655 52.2687C46.7964 57.9776 47.3546 69.7317 48.8391 75.1994C50.0911 79.8042 54.5656 84.9989 54.9935 89.137C49.8551 92.2908 41.8535 92.8174 36.1957 89.9858C36.5003 86.5274 38.0411 76.9356 38.0411 72.7746C38.0411 67.3069 36.0125 53.371 35.3856 48.8314C35.3134 48.3049 35.2571 47.7326 35.2166 47.1321C35.5089 46.9243 35.8312 46.6056 36.0794 46.1266C36.6746 44.9803 37.909 45.7075 38.263 46.3908C38.6152 47.074 38.7261 47.6252 38.7261 47.6252C38.7261 47.6252 39.2332 45.9505 38.064 44.7813C36.8947 43.612 36.2115 44.9362 35.5952 46.1477C35.4561 46.4225 35.3205 46.6408 35.1972 46.8169C34.9243 42.2737 33.947 36.5648 33.947 36.5648C33.8026 36.8149 33.2813 37.072 33.151 37.3344C26.6075 50.5377 39.0836 78.9431 31.568 90.1443C43.8116 93.9655 50.0981 92.599 58.4519 88.8447C46.1167 59.6646 55.1801 54.8625 52.8099 37.7658C52.5053 37.3308 52.2006 36.8959 51.896 36.4609L51.8978 36.4645Z" fill="#C4C2CC"/>
<path d="M64.8264 97.6936C64.8264 97.6936 64.3862 98.4895 64.307 98.7026C64.064 99.3312 63.3367 101.691 63.3367 101.691L59.2091 94.0555L60.4241 93.1328L64.8264 97.6936Z" fill="#BD8868"/>
<path d="M59.5138 93.824L59.0348 95.1606C59.0348 95.1606 61.2183 96.3333 61.9509 96.719C62.9317 97.2226 64.7543 98.0062 64.7543 98.0062C64.7543 98.0062 65.0747 97.2032 65.1452 96.918C65.1945 96.7225 65.4974 95.7241 65.4974 95.7241L59.5138 93.8223V93.824Z" fill="#C4C2CC"/>
<path d="M22.3742 108.238C22.3742 108.238 26.3257 111.998 27.856 110.953C31.1841 108.689 34.2446 97.2903 35.0423 88.8115C33.3641 94.2422 30.1293 105.482 28.224 107.81C26.3187 110.138 22.3725 108.238 22.3725 108.238H22.3742Z" fill="#192233"/>
<path d="M33.7427 36.7703C22.9571 43.5727 15.4151 38.1368 14.915 52.3315C14.281 70.3105 11.6907 87.0128 12.0077 102.541C12.0411 104.182 17.0932 102.694 18.5037 102.995C20.6309 91.3993 24.0964 83.3096 25.852 69.0339C25.852 75.4471 28.5515 81.4941 26.6392 87.844C23.7865 97.2843 22.1541 101.938 21.6276 107.531C21.6276 107.531 25.6302 111.291 27.1463 110.246C30.4709 107.962 32.5453 99.2283 34.963 87.8088C36.0354 82.7444 36.3101 72.2599 35.9474 67.486C35.6198 63.1524 33.9258 54.3214 33.5067 50.3047C33.1669 47.0488 33.7392 36.7686 33.7392 36.7686L33.7427 36.7703Z" fill="#23314B"/>
<path d="M52.0316 36.6523C52.0316 36.6523 49.1525 47.1228 48.9729 50.9052C48.862 53.2578 48.6647 57.9718 48.7316 60.3244C48.8303 63.7212 48.8373 71.2104 49.6825 74.4857C50.32 76.9545 52.3134 80.6366 54.1253 82.4802C57.6577 86.0778 58.3797 94.3435 58.3797 94.3435C61.3046 95.6871 63.5938 96.7155 65.2755 97.4269C65.2755 97.4269 67.1262 92.6443 69.7112 87.638C71.9951 83.2198 74.7193 75.1266 74.9235 72.9061C74.9852 72.2458 74.7017 66.0016 72.8826 59.9863C70.9509 53.5959 71.8895 47.6211 69.3009 44.3528C66.2228 40.4665 55.6168 39.1053 52.0334 36.6523H52.0316ZM61.2201 62.235C61.2201 62.235 62.5548 66.3749 63.666 69.5005C64.9074 72.9906 65.2825 74.5403 65.2279 74.9558C65.0835 76.0705 62.532 83.3466 61.3803 86.599C57.14 80.0643 59.7057 68.4669 61.2201 62.235Z" fill="#23314B"/>
<path d="M29.756 39.9717C29.3615 40.8451 25.3238 47.9134 25.2885 48.5984C25.5456 49.5916 28.3191 55.2212 29.5059 57.6971C28.4582 54.3742 26.9597 50.0265 27.0917 48.6812C27.2167 47.4116 29.0252 42.2468 29.756 39.9717Z" fill="#35496E"/>
<path d="M65.2121 75.0781C63.9794 81.3593 60.5175 86.9802 59.1158 94.5873C61.088 89.6832 65.5607 79.7798 65.2121 75.0781Z" fill="#182234"/>
<path fill-rule="evenodd" clip-rule="evenodd" d="M58.1578 48.2362L54.1095 49.2029L58.142 49.1783C57.4323 51.5696 53.2818 65.7326 51.1423 73.5652C53.5249 66.7452 59.1193 48.6746 59.1193 48.6746C59.1193 48.6746 58.1842 43.0309 54.3771 38.4736C56.5677 41.5412 57.5697 44.5541 58.1561 48.2344L58.1578 48.2362Z" fill="#182234"/>
<path fill-rule="evenodd" clip-rule="evenodd" d="M25.2304 48.2366L29.2735 49.2033L25.241 49.1786C25.9401 51.57 32.7865 64.1341 34.8908 71.9667C32.54 65.1466 24.2654 48.6768 24.2654 48.6768C24.2654 48.6768 25.4593 44.9806 29.6521 40.0254C27.4474 43.0929 25.9154 45.7079 25.2304 48.2348V48.2366Z" fill="#182234"/>
<path d="M25.4822 40.6514C17.3873 42.7416 15.7285 44.1591 15.371 54.3073C15.1051 61.8317 15.408 61.7612 14.3761 69.1254C15.6458 65.7321 16.7023 56.0911 17.0774 50.9527C17.5423 44.5835 20.4126 42.2961 25.4822 40.6514Z" fill="#35496E"/>
<path fill-rule="evenodd" clip-rule="evenodd" d="M34.0878 92.9472C39.6312 95.8862 48.7422 94.6553 57.987 91.542L58.26 92.1618C51.3642 95.0462 40.7476 97.1135 33.8712 93.847L34.0861 92.9472H34.0878Z" fill="#192233"/>
<path d="M72.0955 58.0412C70.803 52.1421 70.5811 47.3049 68.9646 44.6107C67.7284 42.5504 60.3819 40.2436 57.052 38.6553C57.052 38.6553 65.5026 42.6332 67.6263 44.9241C69.7517 47.2151 70.007 50.9623 72.0955 58.0412Z" fill="#35496E"/>
<path fill-rule="evenodd" clip-rule="evenodd" d="M50.0347 20.7267C50.0347 20.7267 51.0702 20.4625 51.2586 20.8693C51.4452 21.2779 51.6988 23.0846 51.4576 24.1869C51.2146 25.2892 50.2003 26.8335 49.7371 26.8335C49.274 26.8335 49.2529 26.6786 49.2529 26.6786C49.2089 28.7688 49.4114 29.6739 47.7543 31.3309C46.6291 32.4562 44.7995 33.9318 44.4685 34.2417C43.8187 34.8492 40.8251 34.8246 40.2 34.2417C39.869 33.9336 38.0394 32.4562 36.9141 31.3309C35.2554 29.6721 35.4596 28.7688 35.4156 26.6786C35.4156 26.6786 35.3927 26.8335 34.9313 26.8335C34.4682 26.8335 33.4539 25.291 33.2109 24.1869C32.9679 23.0846 33.2215 21.2761 33.4099 20.8693C33.5966 20.4608 34.6337 20.7267 34.6337 20.7267C33.829 16.1413 34.072 12.0172 37.7312 10.5186C40.6843 9.30889 43.9842 9.30889 46.9373 10.5186C50.5982 12.0172 50.8395 16.1413 50.0347 20.7267Z" fill="#D6A384"/>
<path fill-rule="evenodd" clip-rule="evenodd" d="M40.2793 25.9863C40.2793 25.9863 40.0803 26.3227 40.1771 26.6925C40.274 27.0622 40.9061 27.2489 40.9061 27.2489C40.9061 27.2489 40.0521 26.8633 40.2793 25.9863Z" fill="#B58060"/>
<path fill-rule="evenodd" clip-rule="evenodd" d="M41.0294 27.1909C41.0294 27.1909 40.7706 27.1028 40.804 26.9919C40.8375 26.8809 40.9343 26.8933 41.2513 27.0676C41.5682 27.2402 41.7144 27.3705 42.0419 27.3511C42.3695 27.3317 42.4716 27.1486 42.8238 27.006C43.176 26.8633 43.3802 26.8105 43.3943 26.9796C43.4084 27.1486 43.2939 27.1416 43.2746 27.1416C42.9682 27.0306 42.572 27.2102 42.2691 27.3018C41.9662 27.3934 41.8359 27.3951 41.5524 27.286C41.2689 27.175 41.0928 27.0975 41.0294 27.1909Z" fill="#82563B"/>
<path fill-rule="evenodd" clip-rule="evenodd" d="M43.6884 25.4922C43.6884 25.4922 44.185 26.2194 44.0177 26.6931C43.8486 27.1668 43.2887 27.2496 43.2887 27.2496C43.2887 27.2496 43.7166 27.0841 43.8662 26.679C44.0406 26.2036 43.7624 25.7704 43.6902 25.4922H43.6884Z" fill="#A16F50"/>
<path d="M42.0243 26.6787C42.2013 26.6787 42.3448 26.5604 42.3448 26.4145C42.3448 26.2686 42.2013 26.1504 42.0243 26.1504C41.8473 26.1504 41.7038 26.2686 41.7038 26.4145C41.7038 26.5604 41.8473 26.6787 42.0243 26.6787Z" fill="#EDBA9D"/>
<path fill-rule="evenodd" clip-rule="evenodd" d="M38.5025 21.1438C38.5025 21.1438 39.7651 21.5524 40.2669 21.9539C40.7688 22.3554 41.0998 22.7991 41.1333 23.1601C41.165 23.5211 41.283 21.9063 40.7688 21.3728C40.2563 20.8392 38.4585 20.9413 38.5025 21.1456V21.1438Z" fill="#BD8868"/>
<path fill-rule="evenodd" clip-rule="evenodd" d="M40.8885 21.6318C40.8885 21.6318 41.253 22.1883 41.2689 22.8698C41.2847 23.5512 41.128 24.2891 41.128 24.2891C41.128 24.2891 41.2284 22.4982 40.8903 21.6336L40.8885 21.6318Z" fill="#A16F50"/>
<path fill-rule="evenodd" clip-rule="evenodd" d="M35.891 21.0139C35.891 21.0139 37.0444 20.0225 37.2645 20.0225C37.4847 20.0225 38.0358 20.0735 39.3231 20.2954C40.1489 20.438 40.8815 20.387 40.8656 21.1512C40.8586 21.5351 40.723 21.521 40.4571 21.4805C40.193 21.44 37.9002 21.0702 37.5569 21.0139C37.0603 20.9346 36.4528 21.1653 35.9896 21.3097C35.9896 21.3097 35.7449 21.1917 35.8875 21.0139H35.891Z" fill="#413024"/>
<path fill-rule="evenodd" clip-rule="evenodd" d="M36.7697 22.0809C36.7697 22.0809 37.1008 21.6407 38.4549 21.5649C39.8091 21.4892 40.3039 21.8978 40.4976 22.0439C40.6913 22.1901 40.6983 22.22 40.6983 22.22C40.6983 22.22 39.9218 21.6195 38.7877 21.6072C37.6537 21.5949 36.768 22.0809 36.768 22.0809H36.7697Z" fill="#A16F50"/>
<path fill-rule="evenodd" clip-rule="evenodd" d="M37.2663 22.2203C37.2663 22.2203 37.8597 21.6744 38.6909 21.6867C39.5238 21.6991 40.1648 22.2995 40.1648 22.2995C40.1648 22.2995 40.6068 22.451 40.6068 22.5601C40.6068 22.6693 40.1701 22.5108 40.1701 22.5108C40.1701 22.5108 39.3812 22.8877 38.3687 22.7662C37.3561 22.6447 37.2646 22.2203 37.2646 22.2203H37.2663Z" fill="white"/>
<path fill-rule="evenodd" clip-rule="evenodd" d="M37.2663 22.2203C37.2663 22.2203 37.8597 21.6744 38.6909 21.6867C39.4587 21.6973 40.0644 22.2097 40.1525 22.289C39.7193 22.1322 39.1628 21.9579 38.6539 21.9526C37.9267 21.9456 37.5305 22.2168 37.3596 22.3752C37.2786 22.2872 37.2646 22.2203 37.2646 22.2203H37.2663Z" fill="#ADA89F"/>
<path fill-rule="evenodd" clip-rule="evenodd" d="M37.2663 22.22C37.2663 22.22 37.2875 22.2006 37.328 22.1689C37.4283 22.3081 37.7136 22.5845 38.4321 22.6867C39.3284 22.8152 39.9746 22.5088 40.1771 22.3028C40.2458 22.3274 40.6085 22.4613 40.6085 22.5599C40.6085 22.669 40.1718 22.5106 40.1718 22.5106C40.1718 22.5106 39.3829 22.8874 38.3704 22.7659C37.3579 22.6444 37.2663 22.22 37.2663 22.22Z" fill="#EDBA9D"/>
<path fill-rule="evenodd" clip-rule="evenodd" d="M38.1697 21.7502C38.3282 21.7097 38.5043 21.6833 38.6909 21.6868C38.9515 21.6904 39.191 21.752 39.4006 21.833C39.4252 21.9034 39.4393 21.9809 39.4393 22.0602C39.4393 22.4317 39.1382 22.7328 38.7666 22.7328C38.3951 22.7328 38.094 22.4317 38.094 22.0602C38.094 21.9492 38.1204 21.8436 38.1697 21.7502Z" fill="#625D54"/>
<path d="M38.7684 22.3626C38.9357 22.3626 39.0713 22.227 39.0713 22.0597C39.0713 21.8924 38.9357 21.7568 38.7684 21.7568C38.6011 21.7568 38.4655 21.8924 38.4655 22.0597C38.4655 22.227 38.6011 22.3626 38.7684 22.3626Z" fill="#402F24"/>
<path d="M38.9216 22.1408C38.978 22.1408 39.0237 22.0951 39.0237 22.0387C39.0237 21.9823 38.978 21.9365 38.9216 21.9365C38.8652 21.9365 38.8195 21.9823 38.8195 22.0387C38.8195 22.0951 38.8652 22.1408 38.9216 22.1408Z" fill="white"/>
<path fill-rule="evenodd" clip-rule="evenodd" d="M37.4019 22.9805C37.4019 22.9805 37.7541 23.2059 38.6821 23.2482C39.6101 23.2904 40.0644 22.9629 40.0644 22.9629C40.0644 22.9629 39.6823 23.3749 38.6451 23.3644C38.263 23.3609 37.7189 23.2306 37.4019 22.9805Z" fill="#C99371"/>
<path fill-rule="evenodd" clip-rule="evenodd" d="M36.7469 22.1936C36.7469 22.1936 36.8824 22.2236 37.3174 21.9753C37.7523 21.727 38.0147 21.5879 38.7895 21.6073C39.5643 21.6266 39.7563 21.8679 39.9429 22.0387C40.1313 22.2077 40.2528 22.3328 40.2528 22.3328L40.1384 22.2852C40.1384 22.2852 39.4939 21.7816 38.7561 21.7252C38.02 21.6689 37.5762 22.0616 37.4407 22.1496C37.3051 22.2377 37.1078 22.3944 36.7469 22.1954V22.1936Z" fill="#413024"/>
<path fill-rule="evenodd" clip-rule="evenodd" d="M34.7975 23.7167C34.7975 23.7167 34.2657 23.5072 34.396 22.8451C34.5263 22.183 34.5633 21.7322 34.2463 21.6318C33.9294 21.5332 33.5666 22.713 33.6494 23.6604C33.7339 24.6078 34.4788 25.7224 34.4788 25.7224C34.4788 25.7224 33.5384 24.6976 33.5191 23.2202C33.4997 21.7428 33.7797 21.2021 34.1618 21.2021C34.5439 21.2021 34.7306 21.7322 34.7306 21.8308C34.7306 21.9294 34.6091 22.8011 34.7957 23.7167H34.7975ZM49.6368 23.7167C49.6368 23.7167 50.2654 23.5072 50.1104 22.8451C49.9555 22.183 49.9115 21.7322 50.2865 21.6318C50.6616 21.5332 51.0913 22.713 50.9927 23.6604C50.894 24.6078 50.0118 25.7224 50.0118 25.7224C50.0118 25.7224 51.1247 24.6976 51.1476 23.2202C51.1688 21.7428 50.8395 21.2021 50.3869 21.2021C49.9344 21.2021 49.7142 21.7322 49.7142 21.8308C49.7142 21.9294 49.8569 22.8011 49.6368 23.7167Z" fill="#BD8868"/>
<path fill-rule="evenodd" clip-rule="evenodd" d="M46.4319 21.0247C45.643 21.206 44.7485 21.9685 44.1586 22.1851C43.4912 22.4316 42.9752 23.4847 42.9435 23.8457C42.9118 24.2067 42.9928 21.9069 43.5053 21.3733C44.0177 20.8398 46.4759 20.8222 46.4319 21.0247Z" fill="#C99371"/>
<path fill-rule="evenodd" clip-rule="evenodd" d="M47.5025 22.0809C47.5025 22.0809 47.1715 21.6407 45.8173 21.5649C44.4632 21.4892 43.9684 21.8978 43.7747 22.0439C43.581 22.1901 43.5739 22.22 43.5739 22.22C43.5739 22.22 44.3505 21.6195 45.4845 21.6072C46.6185 21.5949 47.5043 22.0809 47.5043 22.0809H47.5025Z" fill="#A16F50"/>
<path fill-rule="evenodd" clip-rule="evenodd" d="M47.0059 22.2203C47.0059 22.2203 46.4125 21.6744 45.5813 21.6867C44.7484 21.6991 44.1075 22.2995 44.1075 22.2995C44.1075 22.2995 43.6655 22.451 43.6655 22.5601C43.6655 22.6693 44.1022 22.5108 44.1022 22.5108C44.1022 22.5108 44.8911 22.8877 45.9036 22.7662C46.9161 22.6447 47.0077 22.2203 47.0077 22.2203H47.0059Z" fill="white"/>
<path fill-rule="evenodd" clip-rule="evenodd" d="M47.006 22.2203C47.006 22.2203 46.4125 21.6744 45.5814 21.6867C44.8136 21.6973 44.2079 22.2097 44.1198 22.289C44.553 22.1322 45.1094 21.9579 45.6184 21.9526C46.3456 21.9456 46.7418 22.2168 46.9126 22.3752C46.9936 22.2872 47.0077 22.2203 47.0077 22.2203H47.006Z" fill="#ADA89F"/>
<path fill-rule="evenodd" clip-rule="evenodd" d="M47.0059 22.22C47.0059 22.22 46.9848 22.2006 46.9443 22.1689C46.8439 22.3081 46.5587 22.5845 45.8402 22.6867C44.9439 22.8152 44.2977 22.5088 44.0952 22.3028C44.0265 22.3274 43.6637 22.4613 43.6637 22.5599C43.6637 22.669 44.1004 22.5106 44.1004 22.5106C44.1004 22.5106 44.8893 22.8874 45.9019 22.7659C46.9144 22.6444 47.0059 22.22 47.0059 22.22Z" fill="#EDBA9D"/>
<path fill-rule="evenodd" clip-rule="evenodd" d="M46.1008 21.7502C45.9423 21.7097 45.7663 21.6833 45.5796 21.6868C45.319 21.6904 45.0795 21.752 44.8699 21.833C44.8453 21.9034 44.8312 21.9809 44.8312 22.0602C44.8312 22.4317 45.1323 22.7328 45.5039 22.7328C45.8754 22.7328 46.1766 22.4317 46.1766 22.0602C46.1766 21.9492 46.1501 21.8436 46.1008 21.7502Z" fill="#625D54"/>
<path d="M45.5039 22.3626C45.6711 22.3626 45.8067 22.227 45.8067 22.0597C45.8067 21.8924 45.6711 21.7568 45.5039 21.7568C45.3366 21.7568 45.201 21.8924 45.201 22.0597C45.201 22.227 45.3366 22.3626 45.5039 22.3626Z" fill="#402F24"/>
<path d="M45.6377 22.1408C45.6941 22.1408 45.7399 22.0951 45.7399 22.0387C45.7399 21.9823 45.6941 21.9365 45.6377 21.9365C45.5813 21.9365 45.5356 21.9823 45.5356 22.0387C45.5356 22.0951 45.5813 22.1408 45.6377 22.1408Z" fill="white"/>
<path fill-rule="evenodd" clip-rule="evenodd" d="M46.8686 22.9805C46.8686 22.9805 46.5164 23.2059 45.5884 23.2482C44.6604 23.2904 44.2061 22.9629 44.2061 22.9629C44.2061 22.9629 44.5882 23.3749 45.6254 23.3644C46.0075 23.3609 46.5516 23.2306 46.8686 22.9805Z" fill="#C99371"/>
<path fill-rule="evenodd" clip-rule="evenodd" d="M47.5237 22.1936C47.5237 22.1936 47.3881 22.2236 46.9531 21.9753C46.5182 21.727 46.2558 21.5879 45.481 21.6073C44.7062 21.6266 44.5142 21.8679 44.3276 22.0387C44.1392 22.2077 44.0177 22.3328 44.0177 22.3328L44.1321 22.2852C44.1321 22.2852 44.7766 21.7816 45.5145 21.7252C46.2505 21.6689 46.6943 22.0616 46.8299 22.1496C46.9654 22.2377 47.1627 22.3944 47.5237 22.1954V22.1936Z" fill="#413024"/>
<path fill-rule="evenodd" clip-rule="evenodd" d="M43.19 21.519C43.19 21.519 42.9101 22.0067 42.852 22.8819C42.7938 23.7553 42.8995 24.6182 42.8995 24.6182C42.8995 24.6182 42.8995 23.5634 43.1513 22.5861C43.4031 21.6105 43.9649 21.2689 43.9649 21.2689C43.9649 21.2689 43.4524 21.2002 43.19 21.519Z" fill="#A16F50"/>
<path fill-rule="evenodd" clip-rule="evenodd" d="M48.3795 21.0139C48.3795 21.0139 47.2261 20.0225 47.006 20.0225C46.7858 20.0225 46.2347 20.0735 44.9474 20.2954C44.1216 20.438 43.389 20.387 43.4049 21.1512C43.4119 21.5351 43.5475 21.521 43.8134 21.4805C44.0776 21.44 46.3703 21.0702 46.7136 21.0139C47.2102 20.9346 47.8177 21.1653 48.2809 21.3097C48.2809 21.3097 48.5256 21.1917 48.383 21.0139H48.3795Z" fill="#413024"/>
<path fill-rule="evenodd" clip-rule="evenodd" d="M42.3483 27.9326C42.3483 27.9326 42.5191 28.6035 42.5438 28.9205C42.5685 29.2375 41.9838 29.2005 41.9838 29.2005C41.9838 29.2005 42.5685 29.1512 42.3501 27.9326H42.3483Z" fill="#C99371"/>
<path fill-rule="evenodd" clip-rule="evenodd" d="M45.7275 29.3803C45.9018 29.3926 45.8684 29.2922 45.8103 29.213C45.7539 29.1337 45.7029 29.2464 45.6307 29.2799C45.5567 29.3134 44.671 29.4701 44.1568 29.3116C43.6426 29.1549 43.4418 29.088 43.0897 29.2059C42.2726 29.4789 42.3395 29.5229 41.3939 29.2059C41.04 29.088 40.8392 29.1531 40.3268 29.3116C39.8126 29.4683 38.9955 29.2993 38.9233 29.2658C38.8494 29.2324 38.7173 29.1654 38.6662 29.2359C38.6152 29.3063 38.5888 29.3785 38.6733 29.3996C38.7367 29.4014 38.6081 29.4208 38.8881 29.3873C39.1681 29.3539 39.8337 29.6215 40.2775 29.7677C41.2882 30.1022 42.8343 30.0512 43.8609 29.8628C44.2888 29.7835 45.4334 29.3257 45.731 29.3803H45.7275Z" fill="#A16F50"/>
<path fill-rule="evenodd" clip-rule="evenodd" d="M41.651 30.3534C41.651 30.3534 42.3589 30.4273 43.2552 30.2019C44.1515 29.9765 43.6937 30.4872 43.0051 30.6651C42.3166 30.8412 41.3411 30.6475 41.2495 30.4819C41.1579 30.3182 41.3657 30.3305 41.651 30.3534Z" fill="#EDBA9D"/>
<path fill-rule="evenodd" clip-rule="evenodd" d="M40.7001 30.7021C40.7001 30.7021 41.0153 31.1036 42.0948 31.1758C43.1443 31.2111 43.6303 30.8325 43.7782 30.7303C43.1883 31.0332 41.7866 31.1301 40.7001 30.7021Z" fill="#A16F50"/>
<path fill-rule="evenodd" clip-rule="evenodd" d="M47.057 28.1582C47.057 28.1582 46.939 29.4983 46.6855 30.5513C46.4301 31.6043 46.0199 31.9618 46.0199 31.9618C46.0199 31.9618 47.2296 31.3014 47.0588 28.1582H47.057ZM37.6079 28.1582C37.6079 28.1582 37.7259 29.4983 37.9795 30.5513C38.2348 31.6043 38.6451 31.9618 38.6451 31.9618C38.6451 31.9618 37.4354 31.3014 37.6062 28.1582H37.6079Z" fill="#C99371"/>
<path fill-rule="evenodd" clip-rule="evenodd" d="M35.4156 26.7134V26.6799C35.4156 26.6799 35.3927 26.8349 34.9314 26.8349C34.8521 26.8349 34.757 26.7891 34.6514 26.7098C34.7112 26.7468 34.8627 26.7891 35.0652 26.4756C35.3293 26.0671 35.5213 24.4259 35.5019 25.0915C35.4931 25.4156 35.4649 26.0953 35.4174 26.7134H35.4156ZM49.2547 26.7134V26.6799C49.2547 26.6799 49.2776 26.8349 49.7389 26.8349C49.8182 26.8349 49.9132 26.7891 50.0189 26.7098C49.959 26.7468 49.8076 26.7891 49.6051 26.4756C49.3409 26.0671 49.149 24.4259 49.1684 25.0915C49.1772 25.4156 49.2054 26.0953 49.2529 26.7134H49.2547Z" fill="#BD8868"/>
</svg>
