<svg width="85" height="212" viewBox="0 0 85 212" fill="none" xmlns="http://www.w3.org/2000/svg">
<g clip-path="url(#clip0)">
<path fill-rule="evenodd" clip-rule="evenodd" d="M36.6924 192.132C36.6924 192.132 36.9805 192.984 37.136 194.338C37.2915 195.692 37.2793 196.311 37.2793 196.311C37.2793 196.311 36.6009 197.315 35.1434 197.881C33.6874 198.448 32.8916 198.451 32.8916 198.451L31.4417 198.194C31.4417 198.194 30.8669 198.726 29.7646 200.351C28.6608 201.976 27.1011 203.043 24.8417 203.348C22.5823 203.653 18.4567 203.556 17.4733 203.12C16.49 202.682 15.6042 201.568 15.5951 201.215C15.5859 200.862 15.2383 200.009 16.5022 198.855C17.7661 197.701 24.0062 194.431 25.3265 192.129C26.6468 189.825 35.8325 189.721 36.6939 192.132H36.6924Z" fill="#424852"/>
<path fill-rule="evenodd" clip-rule="evenodd" d="M36.2518 195.344C36.2518 195.344 34.375 196.148 33.041 196.921C31.7069 197.692 31.2023 198.034 30.3135 198.952C29.4262 199.868 28.3879 201.729 26.3297 202.402C24.273 203.074 18.9461 203.233 17.9338 202.797C16.9199 202.361 16.1256 201.318 16.1256 201.318C16.1256 201.318 17.4886 202.666 19.1672 202.702C20.8473 202.739 24.8295 202.469 26.0553 202.08C27.2811 201.691 28.5541 200.86 30.0192 198.497C31.4844 196.134 35.3538 195.468 36.2487 195.346L36.2518 195.344ZM22.8536 200.711C22.8536 200.711 21.0455 200.822 18.9827 200.214C16.9199 199.606 17.2477 198.706 17.2477 198.706C17.2477 198.706 16.0082 200.229 18.2814 200.94C20.5546 201.65 22.8536 200.711 22.8536 200.711ZM26.7398 193.744C26.7398 193.744 26.3099 194.158 26.5858 194.568C26.8618 194.98 27.5814 197.567 27.5814 197.567C27.5814 197.567 26.5828 195.555 26.2123 194.91C25.8418 194.263 25.787 193.925 25.8556 193.704C25.9226 193.483 25.9638 193.366 25.9638 193.366C25.9638 193.366 26.4197 193.301 26.7398 193.745V193.744Z" fill="#58606D"/>
<path fill-rule="evenodd" clip-rule="evenodd" d="M60.633 191.079C60.633 191.079 62.8772 195.587 63.1318 196.372C63.3864 197.157 63.4627 199.863 63.4627 199.863C63.4627 199.863 63.667 203.565 59.6679 203.806C55.6689 204.047 53.9934 201.727 53.8745 199.787C53.7556 197.848 53.536 195.207 52.9277 193.934C52.3194 192.661 52.3194 192.661 52.3194 192.661C52.3194 192.661 51.8803 190.294 52.356 189.391C52.8317 188.49 59.671 190.291 60.6345 191.077L60.633 191.079Z" fill="#424852"/>
<path fill-rule="evenodd" clip-rule="evenodd" d="M62.5113 199.753C62.5113 199.753 62.2537 202.149 59.4301 202.374C56.6066 202.6 55.2817 200.529 55.1125 199.712C54.9417 198.895 55.5363 201.197 58.1937 201.331C60.8495 201.466 62.0311 200.479 62.5128 199.753H62.5113ZM58.276 192.627C58.276 192.627 58.9239 194.207 59.5551 194.669C60.1863 195.131 61.5966 195.46 61.5966 195.46C61.5966 195.46 59.6893 194.724 59.4042 193.969C59.1176 193.214 58.9102 192.634 58.9102 192.634C58.9102 192.634 58.6892 192.127 58.276 192.629V192.627ZM55.9815 192.789C55.9815 192.789 56.3946 193.862 56.2361 194.547C56.0775 195.23 55.3076 196.143 55.3076 196.143C55.3076 196.143 56.5883 195.006 56.7133 194.234C56.8398 193.464 56.5715 192.856 56.5715 192.856C56.5715 192.856 56.3154 192.646 55.98 192.791L55.9815 192.789Z" fill="#58606D"/>
<path fill-rule="evenodd" clip-rule="evenodd" d="M59.1801 86.3442C59.1801 86.3442 65.8883 95.5329 65.2526 104.952C64.6168 114.371 63.8408 138 63.8408 138L64.2113 150.351L61.9655 184.583L61.4152 191.161C61.4152 191.161 56.7743 192.094 54.7908 192.171C52.8058 192.247 51.9718 191.997 51.9718 191.997C51.9718 191.997 50.0295 188.786 50.1301 187.609C50.2307 186.431 50.3908 181.239 50.182 180.213C49.9731 179.187 45.8841 148.259 46.0168 144.355C46.1494 140.45 45.8582 138.912 45.7759 138.304C45.6951 137.697 44.1934 115.42 44.1934 115.42C44.1934 115.42 39.5266 146.434 40.2157 147.912C40.9048 149.389 41.1411 171.971 39.4626 180.114C37.784 188.257 38.4807 188.541 38.4807 188.541L36.8936 192.896C36.8936 192.896 34.1814 194.054 30.6611 193.624C27.1393 193.194 25.5857 191.639 25.5857 191.639C25.5857 191.639 26.2276 189.085 26.2504 187.018C26.2733 184.95 24.0428 144.565 23.8888 142.504C23.7364 140.443 21.9252 112.685 21.6416 106.589C21.358 100.494 27.3497 85.96 27.3497 85.96C27.3497 85.96 51.6852 86.399 59.1786 86.3472L59.1801 86.3442Z" fill="#23314B"/>
<path fill-rule="evenodd" clip-rule="evenodd" d="M40.8911 95.6422C40.8911 95.6422 40.7859 106.508 40.8728 107.743C40.9612 108.978 43.6064 110.83 43.6064 110.83C43.6064 110.83 41.6656 108.141 41.754 107.479C41.8424 106.817 41.9919 95.5553 41.9919 95.5553C41.9919 95.5553 41.4628 95.4669 40.8896 95.6437L40.8911 95.6422Z" fill="#192233"/>
<path d="M16.4549 103.799C16.4549 103.799 18.3759 105.301 18.3424 107.961C18.3332 108.639 17.7844 109.934 17.5664 110.58C17.4444 110.948 17.1532 111.676 17.1288 112.058C17.0907 112.64 17.4108 113.8 17.3758 114.383C17.3316 115.111 16.7751 116.962 15.9823 117.011C15.1956 117.06 14.63 115.145 14.5721 114.424C14.5202 113.771 15.3618 112.215 14.7962 111.817C14.6025 111.679 14.1696 111.945 13.9668 112.067C13.7976 112.169 13.4149 112.396 13.3402 112.568C13.238 112.803 13.1222 113.254 13.0383 113.451C13.0032 113.535 12.7044 114.009 12.7822 114.303C12.9423 114.901 13.2182 116.903 13.2182 116.903C13.2182 116.903 14.2458 117.383 14.694 117.828C14.9059 118.035 15.9503 118.36 16.2064 118.508C16.5891 118.731 17.1654 119.513 16.8818 119.839C16.4854 120.293 14.6025 119.892 13.9378 119.523C13.0078 119.008 11.3613 118.411 10.9832 117.683C10.6234 116.988 10.3581 114.738 10.1111 114.091C9.9068 113.558 9.82142 113.375 9.6461 112.788C9.45705 112.163 10.1172 109.862 10.6691 107.982C11.1204 106.45 12.2791 103.904 12.2791 103.904L16.4549 103.802V103.799Z" fill="#D6A384"/>
<path d="M17.1684 115.386C17.2629 115.541 17.3986 115.764 17.4611 115.863C17.6304 116.134 18.1747 116.628 18.1442 116.939C18.1304 117.076 17.7523 117.355 17.7523 117.355C17.7523 117.355 18.7799 118.275 18.7723 118.68C18.7692 118.813 18.4277 119.1 18.4277 119.1C18.4277 119.1 18.4293 119.778 18.2494 119.898C18.013 120.057 17.3453 119.952 16.8726 119.848L16.8818 119.837C17.1638 119.511 16.5891 118.729 16.2064 118.506C15.9503 118.357 14.9059 118.034 14.694 117.826C14.3342 117.471 13.4926 117.084 13.2167 116.948L13.2106 116.849C13.1664 116.529 12.927 114.841 12.7822 114.303C12.7044 114.01 13.0017 113.535 13.0383 113.451C13.1222 113.256 13.238 112.803 13.3402 112.568C13.4164 112.397 13.7991 112.169 13.9668 112.067C14.1695 111.945 14.6025 111.679 14.7962 111.817C15.3603 112.216 14.5202 113.773 14.572 114.424C14.63 115.145 15.1941 117.06 15.9823 117.011C16.5098 116.979 16.9306 116.152 17.1684 115.387V115.386ZM12.2745 103.898C12.2745 103.898 12.0214 104.48 11.9253 104.692C11.8202 104.927 11.6281 105.39 11.6281 105.39C11.6281 105.39 13.7884 105.273 14.5385 105.273C16.2476 105.275 17.9582 105.903 17.9582 105.903C17.9582 105.903 17.7447 105.381 17.4733 104.947C17.2355 104.567 16.7278 103.893 16.7278 103.893L14.3616 103.652L12.2745 103.896V103.898Z" fill="#BD8868"/>
<path d="M11.4848 102.177L11.3872 104.351C11.3872 104.351 13.7716 104.297 14.6025 104.363C17.3986 104.583 18.2311 104.964 18.2311 104.964L18.7464 102.181L11.4848 102.177Z" fill="#C4C2CC"/>
<path d="M35.4559 28.3565C41.8379 28.3565 42.3547 27.7832 48.8723 27.7832C48.7183 28.9846 49.6727 34.99 51.0266 36.4536L49.4654 43.8844L47.0825 59.1151L34.6464 48.8348L33.5563 38.4477C36.1862 36.4063 35.8035 30.4162 35.4559 28.3565Z" fill="#D6A384"/>
<path d="M35.4559 28.3558C41.8729 28.3558 42.4203 27.8359 48.9714 27.8359C48.9165 28.2613 49.0477 29.3072 49.1071 30.5436C48.3585 31.6032 47.27 32.7741 44.3641 34.6997C41.4582 36.6252 37.8465 35.84 35.5123 34.2911C35.7227 31.8715 35.6419 29.4627 35.4544 28.3558H35.4559ZM50.1469 34.7911C50.3375 35.4497 50.618 35.9635 50.9138 36.2807L49.5066 43.8823L47.9591 53.7205C47.2273 55.306 46.3949 56.7239 45.4999 57.7896L34.9559 49.1208C34.8019 48.6969 34.654 48.2716 34.5137 47.8447L33.5578 38.4456C34.6113 37.633 34.9909 36.6069 35.3904 34.9771L35.5611 35.2714C35.5611 35.2714 36.4423 39.6363 37.5233 42.193C38.6042 44.7513 39.2278 46.6021 39.0601 47.4178C38.8924 48.2335 39.1317 48.6969 39.5647 49.38C39.9962 50.063 41.7022 52.3346 41.7982 51.9153C41.8943 51.4961 42.158 49.226 43.3594 47.6816C44.5608 46.1387 45.9527 45.0791 45.4481 44.175C44.9435 43.2709 45.1112 42.5513 46.0488 41.199C46.9864 39.8452 49.5371 36.6481 50.1499 34.7866L50.1469 34.7911ZM41.9629 37.2122C41.9629 37.2122 41.818 38.2489 42.155 38.9106C42.4919 39.5722 43.0194 39.2414 43.0194 39.2414C43.0194 39.2414 42.1062 38.8054 41.9629 37.2122Z" fill="#BD8868"/>
<path d="M31.0498 90.2454C43.0758 93.2809 51.9261 93.0308 60.851 88.4174C59.0063 84.5907 57.436 81.3281 55.5912 77.5029C49.7444 63.3623 52.0267 44.3308 52.7051 37.6897C51.516 36.4776 51.2263 35.4866 51.2263 35.4866C51.2263 35.4866 50.6988 35.104 50.4198 35.4638C49.9136 38.237 45.8338 41.7436 45.7713 42.5516C45.4801 43.6219 46.6906 43.5807 46.5626 44.1981C46.3141 45.3965 44.4983 47.3022 43.8869 48.3847C43.1383 49.7065 42.5468 54.5212 42.5468 54.5212C42.5468 54.5212 40.2889 51.6671 39.7614 51.0116C37.4821 48.0355 38.5203 48.438 38.4807 46.825C38.4685 46.3051 38.4594 45.9728 37.9593 44.4558C37.4882 43.0242 35.8538 39.7509 35.2775 35.4683C35.2516 35.2793 34.4771 35.9013 34.3521 36.1315C33.3535 38.115 33.3931 39.4399 32.3168 42.3107C29.7981 53.3853 40.978 77.1995 31.0498 90.2454Z" fill="#F2F1F6"/>
<path d="M51.6516 36.3848C51.6516 36.3848 50.4869 40.6917 49.4745 45.4271C49.3617 44.7563 49.0004 43.6342 48.9668 43.279C48.819 41.6781 47.9515 41.3809 47.3553 41.3687C46.6144 41.3549 45.8597 42.0669 45.7301 42.7027C45.6783 42.9588 45.7652 43.2119 45.9299 43.4284C45.7804 43.1204 45.785 42.7667 46.3735 42.0837C46.962 41.3991 48.3662 42.1874 48.5491 42.8658C48.7839 43.7379 49.2901 45.0627 49.4532 45.5216C48.9623 47.8253 48.5079 50.222 48.2442 52.2695C47.5063 57.9791 48.2076 69.7337 49.938 75.2009C51.397 79.8052 56.5563 85.001 57.07 89.1387C51.1912 92.2916 42.0147 92.8191 35.5123 89.9864C35.8447 86.5271 37.5614 76.9359 37.54 72.7753C37.5126 67.3065 35.1129 53.3718 34.3704 48.8315C34.285 48.3056 34.2179 47.7338 34.1676 47.1331C34.5015 46.9243 34.8689 46.6072 35.1525 46.1284C35.8294 44.9819 37.2503 45.7092 37.6574 46.3937C38.066 47.0767 38.1956 47.6286 38.1956 47.6286C38.1956 47.6286 38.7688 45.9531 37.4226 44.7853C36.0764 43.6159 35.2989 44.9393 34.5976 46.1528C34.439 46.4273 34.2865 46.6468 34.1448 46.8206C33.8078 42.2773 34.099 36.6836 34.099 36.6836C33.817 37.0388 33.634 37.1745 33.4206 37.4596C25.6863 50.3973 38.6347 78.9316 30.1793 89.991C44.2452 93.8116 51.4733 92.6026 61.037 88.8475C46.7364 59.6683 55.515 54.7866 52.7082 37.6898C52.356 37.2553 52.0054 36.8193 51.6532 36.3848H51.6516Z" fill="#C4C2CC"/>
<path fill-rule="evenodd" clip-rule="evenodd" d="M50.0356 20.7269C50.0356 20.7269 51.0723 20.4616 51.2598 20.8702C51.4473 21.2788 51.7004 23.0855 51.458 24.1893C51.2156 25.2915 50.2018 26.8344 49.7383 26.8344C49.2748 26.8344 49.2535 26.6804 49.2535 26.6804C49.2092 28.7707 49.412 29.6747 47.7548 31.3335C46.6296 32.4587 44.8001 33.9345 44.4693 34.2439C43.8183 34.8507 40.8255 34.8279 40.2004 34.2439C39.8696 33.936 38.0401 32.4587 36.9149 31.3335C35.2562 29.6747 35.4605 28.7707 35.4163 26.6804C35.4163 26.6804 35.3949 26.8344 34.9314 26.8344C34.468 26.8344 33.4541 25.2915 33.2117 24.1893C32.9693 23.087 33.2224 21.2788 33.4099 20.8702C33.5974 20.4616 34.6341 20.7269 34.6341 20.7269C33.8292 16.1409 34.0716 12.0184 37.7321 10.5182C40.6853 9.30772 43.986 9.30772 46.9391 10.5182C50.5997 12.0169 50.8421 16.1409 50.0371 20.7269H50.0356Z" fill="#D6A384"/>
<path fill-rule="evenodd" clip-rule="evenodd" d="M40.2797 25.9863C40.2797 25.9863 40.08 26.3233 40.1775 26.6922C40.2736 27.0612 40.9063 27.2487 40.9063 27.2487C40.9063 27.2487 40.0525 26.863 40.2797 25.9863Z" fill="#B58060"/>
<path fill-rule="evenodd" clip-rule="evenodd" d="M41.0298 27.19C41.0298 27.19 40.7706 27.1016 40.8042 26.9918C40.8377 26.8805 40.9338 26.8942 41.2509 27.0665C41.568 27.2388 41.7144 27.3699 42.0421 27.3501C42.3699 27.3303 42.4721 27.1473 42.8243 27.004C43.1764 26.8607 43.3807 26.8089 43.3945 26.9781C43.4082 27.1473 43.2954 27.1412 43.2755 27.1412C42.9691 27.0299 42.5727 27.2114 42.2693 27.3013C41.9659 27.3928 41.8363 27.3958 41.5527 27.2845C41.2692 27.1732 41.0923 27.0955 41.0283 27.19H41.0298Z" fill="#82563B"/>
<path fill-rule="evenodd" clip-rule="evenodd" d="M43.6872 25.4893C43.6872 25.4893 44.1842 26.2165 44.0149 26.6906C43.8472 27.1648 43.2862 27.2471 43.2862 27.2471C43.2862 27.2471 43.7146 27.0809 43.864 26.6769C44.0393 26.2028 43.7603 25.7683 43.6872 25.4893Z" fill="#A16F50"/>
<path d="M42.0254 26.6769C42.2022 26.6769 42.3455 26.5588 42.3455 26.4132C42.3455 26.2675 42.2022 26.1494 42.0254 26.1494C41.8485 26.1494 41.7052 26.2675 41.7052 26.4132C41.7052 26.5588 41.8485 26.6769 42.0254 26.6769Z" fill="#EDBA9D"/>
<path fill-rule="evenodd" clip-rule="evenodd" d="M38.502 21.1429C38.502 21.1429 39.7644 21.5515 40.266 21.9525C40.7676 22.355 41.0999 22.7987 41.1319 23.1585C41.164 23.5198 41.2814 21.9037 40.7676 21.3701C40.2553 20.8365 38.4578 20.9386 38.502 21.1414V21.1429Z" fill="#BD8868"/>
<path fill-rule="evenodd" clip-rule="evenodd" d="M40.8896 21.6309C40.8896 21.6309 41.2539 22.1873 41.2692 22.8688C41.2859 23.5503 41.1274 24.2882 41.1274 24.2882C41.1274 24.2882 41.2265 22.4984 40.8896 21.6324V21.6309Z" fill="#A16F50"/>
<path fill-rule="evenodd" clip-rule="evenodd" d="M35.8919 21.014C35.8919 21.014 37.046 20.0215 37.2656 20.0215C37.4867 20.0215 38.037 20.0718 39.3238 20.2944C40.1501 20.4377 40.8819 20.3859 40.8667 21.1512C40.859 21.5354 40.7234 21.5217 40.4581 21.4805C40.1928 21.4394 37.8998 21.0689 37.5583 21.014C37.0613 20.9347 36.453 21.1649 35.9926 21.3098C35.9926 21.3098 35.7471 21.1908 35.8904 21.014H35.8919Z" fill="#413024"/>
<path fill-rule="evenodd" clip-rule="evenodd" d="M36.7701 22.079C36.7701 22.079 37.1009 21.6384 38.4563 21.5637C39.8116 21.489 40.3056 21.8976 40.4992 22.0425C40.6929 22.1873 40.699 22.2178 40.699 22.2178C40.699 22.2178 39.9229 21.6171 38.7886 21.6049C37.6543 21.5927 36.7701 22.0775 36.7701 22.0775V22.079Z" fill="#A16F50"/>
<path fill-rule="evenodd" clip-rule="evenodd" d="M37.2671 22.2194C37.2671 22.2194 37.8602 21.6736 38.6926 21.6857C39.525 21.6979 40.1654 22.2986 40.1654 22.2986C40.1654 22.2986 40.6075 22.4511 40.6075 22.5593C40.6075 22.6691 40.1715 22.5106 40.1715 22.5106C40.1715 22.5106 39.3833 22.8871 38.3709 22.7652C37.3586 22.6432 37.2671 22.2194 37.2671 22.2194Z" fill="white"/>
<path fill-rule="evenodd" clip-rule="evenodd" d="M37.2671 22.2194C37.2671 22.2194 37.8602 21.6736 38.6926 21.6857C39.461 21.6964 40.0663 22.2087 40.1547 22.288C39.7217 22.1309 39.1652 21.9571 38.656 21.9526C37.9303 21.9449 37.5324 22.2163 37.3632 22.3749C37.2824 22.2864 37.2686 22.2194 37.2686 22.2194H37.2671Z" fill="#ADA89F"/>
<path fill-rule="evenodd" clip-rule="evenodd" d="M37.2671 22.2193C37.2671 22.2193 37.2885 22.1994 37.3281 22.1689C37.4287 22.3077 37.7138 22.5836 38.4319 22.6873C39.3284 22.8154 39.9748 22.5089 40.1776 22.3031C40.2462 22.3275 40.609 22.4617 40.609 22.5592C40.609 22.669 40.173 22.5105 40.173 22.5105C40.173 22.5105 39.3848 22.887 38.3724 22.7651C37.3601 22.6431 37.2686 22.2193 37.2686 22.2193H37.2671Z" fill="#EDBA9D"/>
<path fill-rule="evenodd" clip-rule="evenodd" d="M38.1712 21.7498C38.3298 21.7087 38.5051 21.6827 38.6926 21.6858C38.9518 21.6888 39.1942 21.7498 39.4031 21.8321C39.429 21.9038 39.4427 21.9785 39.4427 22.0593C39.4427 22.4313 39.1408 22.7317 38.7704 22.7317C38.3984 22.7317 38.098 22.4313 38.098 22.0593C38.098 21.948 38.1255 21.8428 38.1727 21.7498H38.1712Z" fill="#625D54"/>
<path d="M38.7673 22.3615C38.9349 22.3615 39.0707 22.2264 39.0707 22.0597C39.0707 21.893 38.9349 21.7578 38.7673 21.7578C38.5998 21.7578 38.4639 21.893 38.4639 22.0597C38.4639 22.2264 38.5998 22.3615 38.7673 22.3615Z" fill="#402F24"/>
<path d="M38.9228 22.1398C38.9792 22.1398 39.025 22.0941 39.025 22.0377C39.025 21.9813 38.9792 21.9355 38.9228 21.9355C38.8664 21.9355 38.8207 21.9813 38.8207 22.0377C38.8207 22.0941 38.8664 22.1398 38.9228 22.1398Z" fill="white"/>
<path fill-rule="evenodd" clip-rule="evenodd" d="M37.4028 22.9802C37.4028 22.9802 37.755 23.2043 38.6819 23.247C39.6089 23.2897 40.0647 22.9619 40.0647 22.9619C40.0647 22.9619 39.6836 23.3736 38.6453 23.3629C38.2627 23.3583 37.7199 23.2287 37.4028 22.9802Z" fill="#C99371"/>
<path fill-rule="evenodd" clip-rule="evenodd" d="M36.7472 22.1918C36.7472 22.1918 36.8829 22.2208 37.3174 21.9738C37.7519 21.7268 38.0142 21.5865 38.7887 21.6063C39.5631 21.6262 39.7552 21.8671 39.9428 22.0378C40.1303 22.207 40.2523 22.3305 40.2523 22.3305L40.1379 22.2817C40.1379 22.2817 39.493 21.7786 38.7566 21.7207C38.0203 21.6628 37.5766 22.0576 37.4409 22.1445C37.3052 22.233 37.107 22.39 36.7472 22.1903V22.1918Z" fill="#413024"/>
<path fill-rule="evenodd" clip-rule="evenodd" d="M34.7973 23.7171C34.7973 23.7171 34.2667 23.5082 34.3963 22.8465C34.5274 22.1848 34.564 21.7336 34.2469 21.6345C33.9298 21.5354 33.5669 22.7154 33.6508 23.6637C33.7346 24.612 34.4802 25.7249 34.4802 25.7249C34.4802 25.7249 33.5395 24.7004 33.5212 23.2231C33.5029 21.7458 33.7819 21.2061 34.1646 21.2061C34.5473 21.2061 34.7333 21.7351 34.7333 21.8342C34.7333 21.9333 34.6128 22.8038 34.7988 23.7201L34.7973 23.7171ZM49.6361 23.7171C49.6361 23.7171 50.2643 23.5082 50.1103 22.8465C49.9563 22.1848 49.9121 21.7336 50.2871 21.6345C50.6622 21.5354 51.0921 22.7154 50.993 23.6637C50.8939 24.612 50.0112 25.7249 50.0112 25.7249C50.0112 25.7249 51.1241 24.7004 51.147 23.2231C51.1684 21.7458 50.839 21.2061 50.3862 21.2061C49.935 21.2061 49.7139 21.7351 49.7139 21.8342C49.7139 21.9333 49.8572 22.8038 49.6361 23.7201V23.7171Z" fill="#BD8868"/>
<path fill-rule="evenodd" clip-rule="evenodd" d="M46.4314 21.0229C45.6417 21.2043 44.7468 21.9666 44.1583 22.1831C43.492 22.4285 42.9752 23.4836 42.9432 23.8434C42.9112 24.2047 42.992 21.9041 43.5042 21.3705C44.0165 20.8369 46.4757 20.8186 46.4314 21.0229Z" fill="#C99371"/>
<path fill-rule="evenodd" clip-rule="evenodd" d="M47.5017 22.079C47.5017 22.079 47.1709 21.6384 45.8155 21.5637C44.4601 21.489 43.9662 21.8976 43.7725 22.0425C43.5789 22.1873 43.5728 22.2178 43.5728 22.2178C43.5728 22.2178 44.3488 21.6171 45.4831 21.6049C46.6174 21.5927 47.5017 22.0775 47.5017 22.0775V22.079Z" fill="#A16F50"/>
<path fill-rule="evenodd" clip-rule="evenodd" d="M47.0047 22.2194C47.0047 22.2194 46.4116 21.6736 45.5792 21.6857C44.7468 21.6979 44.1064 22.2986 44.1064 22.2986C44.1064 22.2986 43.6643 22.4511 43.6643 22.5593C43.6643 22.6691 44.1003 22.5106 44.1003 22.5106C44.1003 22.5106 44.8886 22.8871 45.9009 22.7652C46.9132 22.6432 47.0047 22.2194 47.0047 22.2194Z" fill="white"/>
<path fill-rule="evenodd" clip-rule="evenodd" d="M47.0047 22.2194C47.0047 22.2194 46.4116 21.6736 45.5792 21.6857C44.8108 21.6964 44.2055 22.2087 44.1171 22.288C44.5501 22.1309 45.1066 21.9571 45.6158 21.9526C46.3415 21.9449 46.7394 22.2163 46.9086 22.3749C46.9894 22.2864 47.0031 22.2194 47.0031 22.2194H47.0047Z" fill="#ADA89F"/>
<path fill-rule="evenodd" clip-rule="evenodd" d="M47.0047 22.2193C47.0047 22.2193 46.9833 22.1994 46.9437 22.1689C46.8431 22.3077 46.558 22.5836 45.8399 22.6873C44.9434 22.8154 44.297 22.5089 44.0942 22.3031C44.0256 22.3275 43.6628 22.4617 43.6628 22.5592C43.6628 22.669 44.0988 22.5105 44.0988 22.5105C44.0988 22.5105 44.887 22.887 45.8994 22.7651C46.9117 22.6431 47.0032 22.2193 47.0032 22.2193H47.0047Z" fill="#EDBA9D"/>
<path fill-rule="evenodd" clip-rule="evenodd" d="M46.1006 21.7498C45.942 21.7087 45.7667 21.6827 45.5792 21.6858C45.32 21.6888 45.0776 21.7498 44.8687 21.8321C44.8428 21.9038 44.8291 21.9785 44.8291 22.0593C44.8291 22.4313 45.1309 22.7317 45.5014 22.7317C45.8734 22.7317 46.1738 22.4313 46.1738 22.0593C46.1738 21.948 46.1463 21.8428 46.0991 21.7498H46.1006Z" fill="#625D54"/>
<path d="M45.5045 22.3615C45.672 22.3615 45.8079 22.2264 45.8079 22.0597C45.8079 21.893 45.672 21.7578 45.5045 21.7578C45.3369 21.7578 45.2011 21.893 45.2011 22.0597C45.2011 22.2264 45.3369 22.3615 45.5045 22.3615Z" fill="#402F24"/>
<path d="M45.6371 22.1398C45.6935 22.1398 45.7393 22.0941 45.7393 22.0377C45.7393 21.9813 45.6935 21.9355 45.6371 21.9355C45.5807 21.9355 45.535 21.9813 45.535 22.0377C45.535 22.0941 45.5807 22.1398 45.6371 22.1398Z" fill="white"/>
<path fill-rule="evenodd" clip-rule="evenodd" d="M46.869 22.9802C46.869 22.9802 46.5168 23.2043 45.5898 23.247C44.6629 23.2897 44.207 22.9619 44.207 22.9619C44.207 22.9619 44.5882 23.3736 45.6264 23.3629C46.0091 23.3583 46.5519 23.2287 46.869 22.9802Z" fill="#C99371"/>
<path fill-rule="evenodd" clip-rule="evenodd" d="M47.5246 22.1918C47.5246 22.1918 47.3889 22.2208 46.9544 21.9738C46.5199 21.7268 46.2576 21.5865 45.4831 21.6063C44.7086 21.6262 44.5165 21.8671 44.329 22.0378C44.1415 22.207 44.0195 22.3305 44.0195 22.3305L44.1339 22.2817C44.1339 22.2817 44.7788 21.7786 45.5152 21.7207C46.2515 21.6628 46.6952 22.0576 46.8309 22.1445C46.9666 22.233 47.1648 22.39 47.5246 22.1903V22.1918Z" fill="#413024"/>
<path fill-rule="evenodd" clip-rule="evenodd" d="M43.1902 21.5185C43.1902 21.5185 42.9096 22.0064 42.8517 22.88C42.7938 23.7536 42.9005 24.6165 42.9005 24.6165C42.9005 24.6165 42.9005 23.5615 43.152 22.5842C43.4036 21.6085 43.9647 21.267 43.9647 21.267C43.9647 21.267 43.4509 21.1984 43.1902 21.517V21.5185Z" fill="#A16F50"/>
<path fill-rule="evenodd" clip-rule="evenodd" d="M48.3799 21.014C48.3799 21.014 47.2258 20.0215 47.0062 20.0215C46.7852 20.0215 46.2348 20.0718 44.948 20.2944C44.1217 20.4377 43.3899 20.3859 43.4051 21.1512C43.4128 21.5354 43.5485 21.5217 43.8137 21.4805C44.079 21.4394 46.372 21.0689 46.7135 21.014C47.2105 20.9347 47.8188 21.1649 48.2793 21.3098C48.2793 21.3098 48.5247 21.1908 48.3814 21.014H48.3799Z" fill="#413024"/>
<path fill-rule="evenodd" clip-rule="evenodd" d="M42.3486 27.9326C42.3486 27.9326 42.5193 28.6034 42.5437 28.9206C42.5681 29.2377 41.9827 29.2011 41.9827 29.2011C41.9827 29.2011 42.5681 29.1523 42.3486 27.9341V27.9326Z" fill="#C99371"/>
<path fill-rule="evenodd" clip-rule="evenodd" d="M45.7271 29.3785C45.9009 29.3923 45.8673 29.2901 45.8109 29.2108C45.7545 29.1316 45.7042 29.2444 45.631 29.2764C45.5578 29.3099 44.6705 29.467 44.1568 29.3084C43.643 29.1514 43.4432 29.0858 43.0895 29.2032C42.2724 29.4761 42.3394 29.5188 41.3942 29.2032C41.0405 29.0843 40.8408 29.1514 40.327 29.3084C39.8132 29.4654 38.996 29.2962 38.9228 29.2627C38.8496 29.2291 38.717 29.162 38.6652 29.2337C38.6133 29.3054 38.5889 29.377 38.6713 29.3968C38.7353 29.3984 38.6057 29.4182 38.8847 29.3846C39.1652 29.3511 39.83 29.6179 40.2751 29.7643C41.2844 30.0981 42.8319 30.0478 43.8579 29.8588C44.2863 29.7795 45.4298 29.3221 45.7286 29.377L45.7271 29.3785Z" fill="#A16F50"/>
<path fill-rule="evenodd" clip-rule="evenodd" d="M41.6518 30.3534C41.6518 30.3534 42.3592 30.4266 43.2557 30.201C44.1522 29.9753 43.6933 30.4876 43.0041 30.6629C42.315 30.8398 41.3408 30.6446 41.2493 30.48C41.1579 30.3153 41.3652 30.3275 41.6518 30.3519V30.3534Z" fill="#EDBA9D"/>
<path fill-rule="evenodd" clip-rule="evenodd" d="M40.7005 30.7027C40.7005 30.7027 41.0161 31.1037 42.0955 31.1753C43.1444 31.2119 43.6308 30.8308 43.7787 30.7286C43.1886 31.032 41.7875 31.1296 40.7005 30.7012V30.7027Z" fill="#A16F50"/>
<path fill-rule="evenodd" clip-rule="evenodd" d="M47.058 28.1582C47.058 28.1582 46.9406 29.4968 46.686 30.5518C46.4314 31.6053 46.0198 31.9621 46.0198 31.9621C46.0198 31.9621 47.2303 31.3019 47.058 28.1582ZM37.6086 28.1582C37.6086 28.1582 37.726 29.4968 37.9806 30.5518C38.2352 31.6053 38.6469 31.9621 38.6469 31.9621C38.6469 31.9621 37.4363 31.3019 37.6086 28.1582Z" fill="#C99371"/>
<path fill-rule="evenodd" clip-rule="evenodd" d="M35.4147 26.7125V26.6805C35.4147 26.6805 35.3934 26.8344 34.9299 26.8344C34.8506 26.8344 34.7546 26.7887 34.6509 26.7094C34.7104 26.746 34.8613 26.7887 35.0641 26.4762C35.3294 26.0676 35.5199 24.4256 35.5016 25.0934C35.4925 25.4181 35.465 26.0965 35.4163 26.714L35.4147 26.7125ZM49.2535 26.7125V26.6805C49.2535 26.6805 49.2748 26.8344 49.7383 26.8344C49.8176 26.8344 49.9136 26.7887 50.0173 26.7094C49.9578 26.746 49.8069 26.7887 49.6041 26.4762C49.3388 26.0676 49.1483 24.4256 49.1666 25.0934C49.1757 25.4181 49.2031 26.0965 49.2519 26.714L49.2535 26.7125Z" fill="#BD8868"/>
<path d="M64.6579 97.6934C64.6579 97.6934 64.2173 98.4893 64.1381 98.7012C63.8957 99.3308 63.1684 101.689 63.1684 101.689L59.0414 94.0542L60.2549 93.1318L64.6579 97.6934Z" fill="#BD8868"/>
<path d="M59.3448 93.8232L58.866 95.1603C58.866 95.1603 61.0508 96.3342 61.7811 96.7184C62.7629 97.2216 64.5848 98.0067 64.5848 98.0067C64.5848 98.0067 64.9049 97.2033 64.9766 96.9182C65.0254 96.723 65.3288 95.7244 65.3288 95.7244L59.3448 93.8232Z" fill="#C4C2CC"/>
<path d="M33.477 37.3726C33.477 37.3726 31.0072 39.2738 27.8863 40.1641C18.5025 42.8352 16.4168 44.7334 16.0707 54.105C15.8344 60.4946 15.1316 65.4678 14.0369 71.65C12.5596 77.6158 12.0687 80.9744 11.8415 85.5909C11.6143 90.2089 11.1402 102.54 11.1402 102.54C12.7822 102.506 17.3072 102.694 18.7189 102.994C20.4112 95.8179 23.0549 82.4472 24.1282 79.8264C24.2212 82.8665 22.6539 87.8488 21.855 92.9669C21.2772 96.6701 20.6628 107.327 20.6628 107.327C20.6628 107.327 25.4622 111.289 26.9792 110.247C30.3074 107.963 32.3976 99.2284 34.8339 87.8092C35.9148 82.7445 36.2075 72.2599 35.8538 67.4864C35.5337 63.1535 33.8551 54.3215 33.4435 50.3057C33.1096 47.0507 33.477 37.3711 33.477 37.3711V37.3726Z" fill="#23314B"/>
<path d="M51.7294 36.4795C51.7294 36.4795 49.0736 47.1227 48.8876 50.9067C48.7717 53.2592 48.5659 57.9747 48.6299 60.3256C48.7214 63.7224 48.7153 71.2112 49.5553 74.4876C50.1896 76.9574 52.1761 80.6378 53.9828 82.4825C57.5091 86.0806 58.215 94.3454 58.215 94.3454C61.1377 95.6886 63.6639 96.8228 65.3425 97.5348C65.3425 97.5348 68.0166 92.679 70.5261 87.6311C73.0691 82.513 74.8407 75.1431 75.048 72.9218C75.1105 72.2617 74.5647 66.0032 73.0188 59.792C71.2793 52.8109 69.5061 46.9382 67.7712 44.5934C66.4021 42.7425 55.111 38.3212 51.7309 36.4795H51.7294ZM62.0433 74.6782C61.6591 70.7843 60.5675 64.936 60.5675 64.936C60.5675 64.936 61.1087 67.2671 62.214 70.3925C63.4489 73.8823 64.0527 74.3443 64.1091 74.6065C63.9216 75.6356 63.6593 76.6235 63.0175 79.0644C62.8818 78.5171 62.1287 75.6585 62.0433 74.6782Z" fill="#23314B"/>
<path d="M30.5376 39.9707C30.1305 40.8443 25.9973 47.9123 25.9531 48.5984C26.1971 49.5924 28.8956 55.2212 30.0482 57.6971C29.0465 54.3735 27.6058 50.0269 27.7552 48.6822C27.8985 47.4138 29.7753 42.2484 30.5376 39.9722V39.9707Z" fill="#35496E"/>
<path d="M64.4034 75.15C63.2157 81.2041 60.0308 86.2871 58.5962 93.4862C58.6267 93.6997 58.9408 94.3278 59.0216 94.7227C60.9944 89.8196 64.751 79.8503 64.4018 75.1484L64.4034 75.15Z" fill="#182234"/>
<path fill-rule="evenodd" clip-rule="evenodd" d="M57.1051 48.2366L53.0741 49.2032L57.1066 49.1788C56.4389 51.5693 52.5435 65.7343 50.5463 73.5661C52.8058 66.7451 58.0763 48.6757 58.0763 48.6757C58.0763 48.6757 57.0396 43.0316 53.1503 38.4746C55.3961 41.5421 56.4511 44.5547 57.1051 48.235V48.2366Z" fill="#182234"/>
<path fill-rule="evenodd" clip-rule="evenodd" d="M25.9013 48.2363L29.9323 49.2029L25.8998 49.1785C26.5675 51.5691 33.2437 64.1332 35.2425 71.9666C32.983 65.1455 24.9316 48.6769 24.9316 48.6769C24.9316 48.6769 26.1757 44.9813 30.4354 40.0264C28.1897 43.0938 26.6209 45.7085 25.9028 48.2363H25.9013Z" fill="#182234"/>
<path d="M28.2812 40.4395C18.3637 44.0375 17.2035 44.5284 16.708 54.6776C16.583 57.2313 16.4717 59.41 16.304 61.4468C16.1881 62.1756 16.0738 62.8464 15.9991 63.4318C15.871 64.4426 15.595 66.452 15.3984 67.4461C15.0569 69.1536 14.7489 70.7224 14.4684 72.2074C14.2778 72.9422 14.1025 73.6344 13.9439 74.2915C14.9547 75.8984 18.0466 56.1031 18.4613 51.325C18.9369 45.8274 22.8003 42.92 26.3465 41.4396C27.124 41.1148 27.7613 40.7749 28.2842 40.4425L28.2812 40.4395Z" fill="#35496E"/>
<path fill-rule="evenodd" clip-rule="evenodd" d="M33.9191 92.9467C39.4625 95.8861 48.5735 94.6558 57.8186 91.541L58.0931 92.16C51.1973 95.0445 40.5801 97.1119 33.7042 93.8462L33.9191 92.9467Z" fill="#192233"/>
<path d="M74.0449 67.8475C73.7262 65.5758 73.2399 62.7751 72.5447 59.9851C70.8478 53.1717 69.1174 47.4408 67.4236 45.1524C66.2573 43.5775 57.7272 40.0938 53.3775 38.0371C53.3775 38.0371 63.8911 43.9068 65.6977 45.5594C67.3092 47.0322 71.1756 58.6786 74.0449 67.8475Z" fill="#35496E"/>
<path d="M21.4403 107.883C21.4403 107.883 25.3921 111.641 26.9228 110.599C30.251 108.333 33.7087 97.0144 34.5076 88.5361C32.829 93.9667 29.1975 105.127 27.2932 107.455C25.3875 109.783 21.4419 107.883 21.4419 107.883H21.4403Z" fill="#192233"/>
</g>
<defs>
<clipPath id="clip0">
<rect width="84.6667" height="211.667" fill="white"/>
</clipPath>
</defs>
</svg>
