<svg width="85" height="212" viewBox="0 0 85 212" fill="none" xmlns="http://www.w3.org/2000/svg">
<g clip-path="url(#clip0)">
<path d="M33.6888 20.6513C34.8145 21.5606 34.3678 23.209 34.7644 24.2886C35.161 25.3681 35.189 25.0937 35.193 24.8854C35.197 24.6751 35.195 22.9106 35.221 21.9171C35.2671 20.2127 35.7198 14.1719 37.7647 14.5505C37.4383 13.9716 37.3942 13.4809 37.3942 13.4809C37.3942 13.4809 37.5384 13.9115 37.957 14.4063C38.0712 14.5425 38.2134 14.6546 38.3596 14.7467C42.5336 15.9184 47.9235 12.7158 48.7987 18.7886C49.023 20.3489 48.9429 25.1098 48.997 25.0497C49.1953 24.8294 49.4977 24.1684 49.6079 22.6242C49.7181 21.0799 50.4091 20.6894 50.5312 20.6453C50.4972 18.6284 51.1862 17.0541 50.9879 14.4163C50.4111 6.74515 38.8543 6.48277 36.0823 10.094C31.5678 9.53319 33.6107 18.8487 33.6908 20.6493L33.6888 20.6513Z" fill="#402F26"/>
</g>
<defs>
<clipPath id="clip0">
<rect width="84.6667" height="211.667" fill="white"/>
</clipPath>
</defs>
</svg>
