<svg width="85" height="212" viewBox="0 0 85 212" fill="none" xmlns="http://www.w3.org/2000/svg">
<g clip-path="url(#clip0)">
<path fill-rule="evenodd" clip-rule="evenodd" d="M35.6777 19.5391H48.6265V24.7646H35.6777V19.5391Z" fill="#D6A384"/>
<path fill-rule="evenodd" clip-rule="evenodd" d="M38.5038 21.1436C38.5038 21.1436 39.7656 21.5522 40.2684 21.9528C40.7691 22.3554 41.1016 22.798 41.1336 23.1585C41.1657 23.5191 41.2818 21.9047 40.7691 21.3699C40.2563 20.8352 38.4597 20.9373 38.5038 21.1416V21.1436Z" fill="#BD8868"/>
<path fill-rule="evenodd" clip-rule="evenodd" d="M40.8913 21.6318C40.8913 21.6318 41.2558 22.1886 41.2718 22.8696C41.2878 23.5506 41.1296 24.2877 41.1296 24.2877C41.1296 24.2877 41.2298 22.4971 40.8913 21.6318Z" fill="#A16F50"/>
<path fill-rule="evenodd" clip-rule="evenodd" d="M35.892 21.0129C35.892 21.0129 37.0457 20.0215 37.266 20.0215C37.4863 20.0215 38.0371 20.0716 39.325 20.2939C40.1502 20.4361 40.8833 20.386 40.8692 21.1491C40.8612 21.5337 40.725 21.5197 40.4606 21.4776C40.1963 21.4355 37.9029 21.067 37.5604 21.0109C37.0637 20.9308 36.4548 21.1611 35.9942 21.3073C35.9942 21.3073 35.7498 21.1892 35.892 21.0109V21.0129Z" fill="#413024"/>
<path fill-rule="evenodd" clip-rule="evenodd" d="M36.7713 22.0807C36.7713 22.0807 37.1018 21.6401 38.4577 21.566C39.8117 21.4899 40.3064 21.8985 40.5007 22.0447C40.695 22.1909 40.701 22.221 40.701 22.221C40.701 22.221 39.9259 21.6201 38.7902 21.6081C37.6566 21.596 36.7713 22.0807 36.7713 22.0807Z" fill="#A16F50"/>
<path fill-rule="evenodd" clip-rule="evenodd" d="M37.268 22.2185C37.268 22.2185 37.8609 21.6737 38.6921 21.6857C39.5253 21.6978 40.1662 22.2986 40.1662 22.2986C40.1662 22.2986 40.6088 22.4509 40.6088 22.559C40.6088 22.6672 40.1722 22.5109 40.1722 22.5109C40.1722 22.5109 39.3831 22.8875 38.3716 22.7653C37.3581 22.6431 37.268 22.2205 37.268 22.2205V22.2185Z" fill="white"/>
<path fill-rule="evenodd" clip-rule="evenodd" d="M37.268 22.2185C37.268 22.2185 37.8609 21.6737 38.6921 21.6857C39.4612 21.6958 40.0661 22.2085 40.1542 22.2886C39.7216 22.1304 39.1648 21.9581 38.656 21.9521C37.929 21.9441 37.5324 22.2165 37.3621 22.3747C37.282 22.2866 37.266 22.2185 37.266 22.2185H37.268Z" fill="#ADA89F"/>
<path fill-rule="evenodd" clip-rule="evenodd" d="M37.268 22.219C37.268 22.219 37.29 22.199 37.3281 22.1689C37.4282 22.3071 37.7147 22.5835 38.4317 22.6877C39.327 22.8159 39.9739 22.5094 40.1762 22.3031C40.2443 22.3272 40.6088 22.4614 40.6088 22.5595C40.6088 22.6677 40.1722 22.5114 40.1722 22.5114C40.1722 22.5114 39.3831 22.888 38.3716 22.7658C37.3581 22.6436 37.268 22.221 37.268 22.221V22.219Z" fill="#EDBA9D"/>
<path fill-rule="evenodd" clip-rule="evenodd" d="M38.1713 21.7507C38.3295 21.7087 38.5058 21.6846 38.6921 21.6866C38.9524 21.6906 39.1928 21.7507 39.4011 21.8329C39.4271 21.903 39.4412 21.9791 39.4412 22.0592C39.4412 22.4297 39.1407 22.7322 38.7682 22.7322C38.3976 22.7322 38.0952 22.4317 38.0952 22.0592C38.0952 21.947 38.1232 21.8429 38.1713 21.7507Z" fill="#6F969E"/>
<path fill-rule="evenodd" clip-rule="evenodd" d="M38.7702 21.7559C38.9364 21.7559 39.0726 21.8921 39.0726 22.0583C39.0726 22.2245 38.9364 22.3607 38.7702 22.3607C38.6039 22.3607 38.4677 22.2245 38.4677 22.0583C38.4677 21.8921 38.6039 21.7559 38.7702 21.7559Z" fill="#402F24"/>
<path fill-rule="evenodd" clip-rule="evenodd" d="M38.9244 21.9365C38.9805 21.9365 39.0266 21.9826 39.0266 22.0387C39.0266 22.0948 38.9805 22.1408 38.9244 22.1408C38.8683 22.1408 38.8223 22.0948 38.8223 22.0387C38.8223 21.9826 38.8683 21.9365 38.9244 21.9365Z" fill="white"/>
<path fill-rule="evenodd" clip-rule="evenodd" d="M37.4042 22.9799C37.4042 22.9799 37.7567 23.2043 38.6841 23.2463C39.6114 23.2884 40.0661 22.9619 40.0661 22.9619C40.0661 22.9619 39.6835 23.3745 38.648 23.3625C38.2655 23.3585 37.7227 23.2283 37.4042 22.9799Z" fill="#C99371"/>
<path fill-rule="evenodd" clip-rule="evenodd" d="M36.7493 22.1932C36.7493 22.1932 36.8855 22.2233 37.3201 21.9749C37.7547 21.7265 38.0171 21.5883 38.7922 21.6084C39.5673 21.6284 39.7576 21.8687 39.9459 22.039C40.1342 22.2092 40.2563 22.3314 40.2563 22.3314L40.1422 22.2833C40.1422 22.2833 39.4972 21.7806 38.7602 21.7225C38.0231 21.6644 37.5805 22.059 37.4443 22.1471C37.3081 22.2353 37.1118 22.3935 36.7493 22.1932Z" fill="#413024"/>
<path fill-rule="evenodd" clip-rule="evenodd" d="M46.4333 21.0229C45.6441 21.2052 44.7488 21.9663 44.16 22.1826C43.493 22.429 42.9763 23.4825 42.9442 23.843C42.9122 24.2036 42.9923 21.9042 43.505 21.3694C44.0178 20.8347 46.4754 20.8166 46.4313 21.0209L46.4333 21.0229Z" fill="#C99371"/>
<path fill-rule="evenodd" clip-rule="evenodd" d="M47.5028 22.0807C47.5028 22.0807 47.1724 21.6401 45.8164 21.566C44.4624 21.4899 43.9677 21.8985 43.7734 22.0447C43.5792 22.1909 43.5732 22.221 43.5732 22.221C43.5732 22.221 44.3483 21.6201 45.4839 21.6081C46.6176 21.596 47.5028 22.0807 47.5028 22.0807Z" fill="#A16F50"/>
<path fill-rule="evenodd" clip-rule="evenodd" d="M47.0061 22.2185C47.0061 22.2185 46.4133 21.6737 45.5821 21.6857C44.7489 21.6978 44.1079 22.2986 44.1079 22.2986C44.1079 22.2986 43.6653 22.4509 43.6653 22.559C43.6653 22.6672 44.1019 22.5109 44.1019 22.5109C44.1019 22.5109 44.8911 22.8875 45.9025 22.7653C46.916 22.6431 47.0061 22.2205 47.0061 22.2205V22.2185Z" fill="white"/>
<path fill-rule="evenodd" clip-rule="evenodd" d="M47.0061 22.2185C47.0061 22.2185 46.4133 21.6737 45.5821 21.6857C44.8129 21.6958 44.2081 22.2085 44.1199 22.2886C44.5526 22.1304 45.1094 21.9581 45.6181 21.9521C46.3452 21.9441 46.7417 22.2165 46.912 22.3747C46.9921 22.2866 47.0081 22.2185 47.0081 22.2185H47.0061Z" fill="#ADA89F"/>
<path fill-rule="evenodd" clip-rule="evenodd" d="M47.0061 22.219C47.0061 22.219 46.9841 22.199 46.946 22.1689C46.8459 22.3071 46.5595 22.5835 45.8424 22.6877C44.9471 22.8159 44.3002 22.5094 44.0979 22.3031C44.0298 22.3272 43.6653 22.4614 43.6653 22.5595C43.6653 22.6677 44.1019 22.5114 44.1019 22.5114C44.1019 22.5114 44.8911 22.888 45.9025 22.7658C46.916 22.6436 47.0061 22.221 47.0061 22.221V22.219Z" fill="#EDBA9D"/>
<path fill-rule="evenodd" clip-rule="evenodd" d="M46.1028 21.7507C45.9446 21.7087 45.7683 21.6846 45.5821 21.6866C45.3217 21.6906 45.0813 21.7507 44.873 21.8329C44.847 21.903 44.833 21.9791 44.833 22.0592C44.833 22.4297 45.1334 22.7322 45.506 22.7322C45.8765 22.7322 46.1789 22.4317 46.1789 22.0592C46.1789 21.947 46.1509 21.8429 46.1028 21.7507Z" fill="#6F969E"/>
<path fill-rule="evenodd" clip-rule="evenodd" d="M45.506 21.7559C45.3397 21.7559 45.2035 21.8921 45.2035 22.0583C45.2035 22.2245 45.3397 22.3607 45.506 22.3607C45.6722 22.3607 45.8084 22.2245 45.8084 22.0583C45.8084 21.8921 45.6722 21.7559 45.506 21.7559Z" fill="#402F24"/>
<path fill-rule="evenodd" clip-rule="evenodd" d="M45.6381 21.9365C45.5821 21.9365 45.536 21.9826 45.536 22.0387C45.536 22.0948 45.5821 22.1408 45.6381 22.1408C45.6942 22.1408 45.7403 22.0948 45.7403 22.0387C45.7403 21.9826 45.6942 21.9365 45.6381 21.9365Z" fill="white"/>
<path fill-rule="evenodd" clip-rule="evenodd" d="M46.8699 22.9799C46.8699 22.9799 46.5174 23.2043 45.5901 23.2463C44.6627 23.2884 44.2081 22.9619 44.2081 22.9619C44.2081 22.9619 44.5906 23.3745 45.6261 23.3625C46.0087 23.3585 46.5515 23.2283 46.8699 22.9799Z" fill="#C99371"/>
<path fill-rule="evenodd" clip-rule="evenodd" d="M47.5249 22.1932C47.5249 22.1932 47.3887 22.2233 46.954 21.9749C46.5194 21.7265 46.257 21.5883 45.4819 21.6084C44.7068 21.6284 44.5165 21.8687 44.3282 22.039C44.14 22.2092 44.0178 22.3314 44.0178 22.3314L44.132 22.2833C44.132 22.2833 44.7769 21.7806 45.514 21.7225C46.251 21.6644 46.6937 22.059 46.8299 22.1471C46.9661 22.2353 47.1623 22.3935 47.5249 22.1932Z" fill="#413024"/>
<path fill-rule="evenodd" clip-rule="evenodd" d="M43.1926 21.5181C43.1926 21.5181 42.9122 22.0069 42.8541 22.8801C42.796 23.7534 42.9022 24.6166 42.9022 24.6166C42.9022 24.6166 42.9022 23.5611 43.1545 22.5857C43.4069 21.6103 43.9677 21.2698 43.9677 21.2698C43.9677 21.2698 43.455 21.2017 43.1926 21.5201V21.5181Z" fill="#A16F50"/>
<path fill-rule="evenodd" clip-rule="evenodd" d="M48.3821 21.0129C48.3821 21.0129 47.2284 20.0215 47.0081 20.0215C46.7878 20.0215 46.237 20.0716 44.9491 20.2939C44.1239 20.4361 43.3909 20.386 43.4049 21.1491C43.4129 21.5337 43.5491 21.5197 43.8135 21.4776C44.0779 21.4355 46.3712 21.067 46.7137 21.0109C47.2104 20.9308 47.8193 21.1611 48.28 21.3073C48.28 21.3073 48.5243 21.1892 48.3821 21.0109V21.0129Z" fill="#413024"/>
</g>
<defs>
<clipPath id="clip0">
<rect width="84.6667" height="211.667" fill="white"/>
</clipPath>
</defs>
</svg>
