<svg width="85" height="212" viewBox="0 0 85 212" fill="none" xmlns="http://www.w3.org/2000/svg">
<path fill-rule="evenodd" clip-rule="evenodd" d="M36.127 34.9233C36.127 34.9233 36.9294 36.792 37.3384 39.0328C37.747 41.2737 37.6921 42.1775 36.336 42.861C34.9799 43.5445 31.9858 44.9316 30.8263 45.5609C29.6665 46.1904 28.5707 47.7809 28.7658 50.7558C28.961 53.731 29.6665 56.2444 29.6665 56.2444C29.6665 56.2444 47.305 61.1834 49.9509 58.8462C52.5968 56.5091 55.9051 41.454 52.4575 40.9185C52.2868 40.8921 50.9508 40.6887 50.7927 40.6679C47.7502 40.266 46.8924 40.7819 45.7828 38.0452C44.6153 35.1659 45.431 30.1831 45.431 30.1831C45.431 30.1831 39.7298 35.0383 36.1268 34.9233H36.127Z" fill="#C99676"/>
<path fill-rule="evenodd" clip-rule="evenodd" d="M48.0196 48.8677C48.0196 48.8677 47.0889 53.7353 45.7219 55.8298C44.3549 57.9244 47.508 60.5923 47.8828 57.3954C48.2576 54.1982 48.0196 48.8677 48.0196 48.8677Z" fill="#B07C5C"/>
<path fill-rule="evenodd" clip-rule="evenodd" d="M30.1735 111.069C30.1735 111.069 30.1347 114.072 31.4008 121.843C31.64 123.312 31.9083 125.059 32.186 126.925C33.7271 122.057 36.0831 114.908 36.7991 112.74C32.7625 111.183 30.4952 111.076 30.1737 111.069L30.1735 111.069ZM35.7916 152.466C36.8763 160.224 38.392 171.737 38.2559 174.593C38.046 179.003 34.9512 186.467 34.9512 186.467C34.9512 186.467 33.7571 187.45 35.1628 188.695C36.5686 189.94 37.976 189.958 37.976 189.958L38.3353 189.414C38.3208 189.177 38.3617 189.02 38.3617 189.02C38.3617 189.02 38.3617 189.02 38.992 183.442C39.6222 177.864 40.2498 175.628 39.1612 166.19C38.6748 161.973 37.2916 157.019 35.7916 152.466V152.466ZM44.8861 149.092C44.9421 147.1 44.9048 145.313 44.7045 144.1C43.9109 139.294 43.0252 138.228 43.0252 138.228C43.0252 138.228 43.5855 133.591 44.0765 128.343C41.4601 132.893 38.961 137.069 38.961 137.069C38.961 137.069 40.7343 138.587 43.3361 143.967C44.1392 145.627 44.6152 147.338 44.8859 149.092H44.8861Z" fill="#B07C5C"/>
<path fill-rule="evenodd" clip-rule="evenodd" d="M30.6148 54.7156C31.2218 55.2369 32.6305 55.871 35.8468 55.6095C40.0534 55.2674 43.4358 53.6556 44.5716 53.0542C46.5344 43.6623 49.7558 41.169 51.2095 40.5116C51.9892 40.1589 52.3051 40.445 52.4349 40.7721C52.4218 40.7734 47.6937 41.2978 45.2047 53.4801C45.5778 54.5161 46.426 56.6572 47.7954 58.9711C49.7137 62.2121 48.2867 73.5826 48.2867 73.5826C48.2867 73.5826 49.8014 77.1834 51.8519 80.8655C53.9024 84.5477 58.2225 92.1151 56.8119 100.492C55.4014 108.868 49.3132 119.12 49.3132 119.12C49.3132 119.12 44.7703 116.259 38.9842 113.655C33.1982 111.051 30.1335 111.069 30.1335 111.069C30.1335 111.069 29.2122 90.4193 30.4552 84.3085C31.6983 78.1976 31.6269 75.5793 30.8811 72.425C30.1356 69.2706 29.1604 66.0797 29.1604 66.0797C29.1604 66.0797 25.0865 61.6267 30.0066 54.3582C30.04 54.2941 30.0749 54.2289 30.1112 54.1623C31.2489 52.0925 33.2803 48.9451 32.7123 44.5962C32.6796 44.1047 33.3568 44.0202 33.3735 44.342C33.8832 49.0105 31.9201 52.3293 30.7286 54.5013C30.6886 54.5744 30.6506 54.6459 30.6146 54.7161L30.6148 54.7156Z" fill="#D5C1B5"/>
<path fill-rule="evenodd" clip-rule="evenodd" d="M36.7988 112.74C35.849 115.616 32.0153 127.251 31.0228 130.707C29.8875 134.662 29.84 135.5 31.1644 139.557C32.4888 143.613 38.0726 156.751 39.1612 166.189C40.2498 175.628 39.6222 177.864 38.9919 183.442C38.3617 189.02 38.3617 189.02 38.3617 189.02C38.3617 189.02 37.7872 191.217 41.6971 191.548C45.6071 191.878 45.9059 189.672 45.8447 187.534C45.7834 185.396 46.1819 183.038 46.6221 180.843C47.0623 178.649 47.0114 177.409 46.0117 174.402C45.012 171.395 44.8278 167.63 44.9694 161.443C45.1108 155.256 45.9379 149.346 43.3361 143.966C40.7342 138.587 38.9609 137.068 38.9609 137.068C38.9609 137.068 46.6519 124.218 49.1753 119.034C48.378 118.542 44.183 115.994 38.9837 113.654C38.2058 113.304 37.4772 113.001 36.7986 112.74H36.7988Z" fill="#C99676"/>
<path fill-rule="evenodd" clip-rule="evenodd" d="M34.9879 186.379C34.2555 186.957 32.7156 188.276 31.1138 190.294C28.8952 193.088 29.5007 193.228 30.1734 193.23C30.8048 193.232 35.546 193.572 36.9539 192.747C37.0675 192.372 37.1856 192.008 37.3009 191.67C37.5733 190.872 37.7946 190.328 37.9694 189.957C37.8628 189.954 36.5125 189.889 35.1632 188.695C33.7575 187.45 34.9516 186.467 34.9516 186.467L34.9877 186.379L34.9879 186.379Z" fill="#BA9F8A"/>
<path fill-rule="evenodd" clip-rule="evenodd" d="M38.3327 189.319C38.1523 189.554 37.8191 190.152 37.3007 191.67C36.4557 194.146 35.465 197.984 37.1848 197.851C38.9048 197.719 46.0837 195.164 46.3306 192.021C46.5776 188.877 47.2545 186.878 47.6933 184.433C48.132 181.987 49.2264 180.479 49.2854 178.808C49.3402 177.263 48.1385 175.921 46.0757 174.595C47.0136 177.463 47.0529 178.697 46.6224 180.844C46.1822 183.038 45.7837 185.396 45.8449 187.534C45.9062 189.672 45.6074 191.879 41.6974 191.548C38.6854 191.294 38.3346 189.931 38.3324 189.319L38.3327 189.319Z" fill="#D4C1B5"/>
<path fill-rule="evenodd" clip-rule="evenodd" d="M48.9418 180.473C48.8752 181.005 48.7707 181.661 48.6063 182.406C48.1198 184.611 48.2983 187.893 48.2806 188.689C48.1792 188.884 47.3814 188.861 47.3833 188.726L47.4264 185.771C47.5211 185.334 47.6116 184.891 47.6937 184.433C47.9855 182.806 48.5673 181.595 48.9416 180.474L48.9418 180.473Z" fill="#A68C7A"/>
<path fill-rule="evenodd" clip-rule="evenodd" d="M40.1273 178.238C40.1273 178.238 38.9808 185.867 38.8484 187.807C38.7162 189.748 42.1998 177.687 40.1273 178.238Z" fill="#E6B79A"/>
<path fill-rule="evenodd" clip-rule="evenodd" d="M30.9399 111.48C30.9399 111.48 31.0426 114.341 31.638 118.75C32.2333 123.16 32.6304 124.307 32.5696 123.938C32.5089 123.57 32.0568 111.849 32.0568 111.849C32.0568 111.849 31.636 111.349 30.9399 111.48Z" fill="#C99676"/>
<path fill-rule="evenodd" clip-rule="evenodd" d="M37.4617 113.648L39.0033 114.441C39.0033 114.441 36.793 118.679 34.1822 124.712C31.5714 130.745 31.2627 131.429 31.2627 131.429C31.2627 131.429 32.9801 126.402 37.4615 113.649L37.4617 113.648Z" fill="#E6B79A"/>
<path fill-rule="evenodd" clip-rule="evenodd" d="M36.7993 112.74L36.4131 113.911C40.2918 114.256 47.0896 117.802 48.4457 120.476C48.7198 119.951 48.966 119.466 49.176 119.034C48.3787 118.542 44.1837 115.994 38.9844 113.654C38.2065 113.304 37.4779 113.001 36.7993 112.74V112.74Z" fill="#B07C5C"/>
<path fill-rule="evenodd" clip-rule="evenodd" d="M29.9171 90.0601C29.9171 90.0601 27.5545 99.6265 27.9063 104.632C28.2581 109.638 28.2642 108.298 28.8298 110.281C29.3954 112.264 29.646 113.166 29.646 113.166C29.646 113.166 30.3384 114.266 30.3152 113.959C30.2919 113.652 29.9445 106.179 29.9445 106.179C29.9445 106.179 30.3304 107.411 30.7384 108.271C31.1464 109.131 31.3449 109.319 31.5984 109.186C31.8519 109.054 31.5793 107.576 31.2691 106.584C30.959 105.592 31.0909 104.225 30.7382 102.913C30.3854 101.602 29.8496 100.83 29.8496 100.83C29.853 96.6302 29.8121 94.7233 29.9174 90.0603L29.9171 90.0601Z" fill="#B88667"/>
<path fill-rule="evenodd" clip-rule="evenodd" d="M55.5573 92.8032C56.0236 95.1583 56.1706 97.7006 55.7284 100.326C54.3806 108.33 48.5627 118.128 48.5627 118.128C48.5627 118.128 48.2133 117.908 47.5869 117.536C48.7844 115.526 50.8967 111.529 53.2908 104.957C55.258 99.5569 55.6362 95.4602 55.5573 92.8032Z" fill="#B99E8A"/>
<path fill-rule="evenodd" clip-rule="evenodd" d="M49.1126 75.4382C49.7533 76.829 50.3046 78.0815 51.4353 80.1119L51.5723 80.3579C50.6234 80.9656 49.7227 81.9745 47.4708 87.1544C45.2188 92.3343 45.037 95.4291 45.351 98.3776C45.6651 101.326 45.7929 101.213 45.5329 104.262C45.2728 107.311 44.5869 111.514 44.0593 112.327C43.5317 113.14 43.1681 113.129 43.1681 113.129C43.1681 113.129 42.9538 114.75 42.5148 115.34L42.2512 115.208C42.1529 114.028 41.681 108.419 41.5526 107.907C41.4093 107.333 41.0454 110.497 41.0454 110.497C41.0454 110.497 41.0345 110.905 41.0481 112.94C41.0539 113.799 41.0461 114.309 41.0355 114.61C40.613 114.406 40.1801 114.202 39.7392 113.998L39.5021 107.763C39.5021 107.763 39.2745 110.317 38.8738 111.919C38.6913 112.649 38.4351 113.07 38.2099 113.314L38.0477 113.245C37.9572 113.024 37.9116 112.783 37.9252 112.516C38.031 110.428 37.7661 104.959 42.9698 91.201C47.3425 79.6393 46.4316 75.8506 49.1131 75.438L49.1126 75.4382Z" fill="#A38976"/>
<path d="M32.9868 93.9248C32.99 93.9323 34.0853 96.5702 40.4523 98.5154L40.3504 98.8517C33.8243 96.8578 33.1517 94.3587 33.1483 94.3507L32.9871 93.9248H32.9868ZM33.0074 100.372C33.0188 100.379 36.9121 102.888 40.7163 101.851L40.8087 102.19C36.852 103.269 33.5248 100.997 33.5132 100.989L33.0074 100.372Z" fill="#B99E8A"/>
<path fill-rule="evenodd" clip-rule="evenodd" d="M36.1267 34.9233C36.1267 34.9233 36.9291 36.792 37.338 39.0328C37.3702 39.2093 37.3995 39.3771 37.4254 39.5377C38.3227 39.8059 39.6868 39.8372 41.1998 38.5491C42.8286 37.1627 44.2765 35.4064 45.1573 34.2485C45.1164 32.1034 45.4307 30.1831 45.4307 30.1831C45.4307 30.1831 39.7295 35.0383 36.1265 34.9233H36.1267Z" fill="#B07C5C"/>
<path fill-rule="evenodd" clip-rule="evenodd" d="M36.127 34.9233C36.127 34.9233 36.4499 35.6758 36.7906 36.7983C38.8191 37.5644 40.1248 36.7179 42.3131 35.3717C43.6794 34.5311 44.5912 33.5331 45.1849 32.6745C45.2571 31.2465 45.4311 30.1831 45.4311 30.1831C45.4311 30.1831 39.7299 35.0383 36.127 34.9233Z" fill="#996A4C"/>
<path fill-rule="evenodd" clip-rule="evenodd" d="M44.4318 15.7807C47.4484 18.1985 48.1801 21.3093 47.3239 24.89C46.468 28.4707 46.1376 29.716 45.6591 31.2328C45.1809 32.7497 45.0855 33.0337 42.8825 34.4356C40.6794 35.8375 38.8013 36.8425 37.3261 36.2406C35.8508 35.6389 34.5519 34.8358 33.8565 33.0986C33.1609 31.3614 32.8534 29.8813 32.3125 28.4056C31.7718 26.9299 32.2452 26.5454 32.2348 24.9784C32.2244 23.4114 32.0578 23.3392 31.9527 21.8606C31.8912 20.9914 31.5266 19.106 33.2154 16.8274C35.9794 13.0983 40.8659 12.9225 44.4318 15.7807Z" fill="#C99676"/>
<path fill-rule="evenodd" clip-rule="evenodd" d="M47.5089 23.9775C47.7333 23.8613 48.0304 23.7799 48.3451 23.8966C49.0027 24.1402 49.4616 25.413 48.6325 27.0502C47.8038 28.6872 47.4229 29.4702 47.2261 29.7491C47.0425 30.0092 46.4196 30.2682 46.1426 29.6043C46.4382 28.5383 46.7716 27.2003 47.3239 24.8903C47.3975 24.5825 47.459 24.2784 47.5086 23.9777L47.5089 23.9775Z" fill="#C99676"/>
<path fill-rule="evenodd" clip-rule="evenodd" d="M46.2886 29.844C46.2339 29.7827 46.1845 29.7038 46.1426 29.6038C46.4382 28.5377 46.7716 27.1998 47.3239 24.8897C47.3646 24.72 47.4014 24.5512 47.4348 24.3834C47.605 24.3193 47.821 24.2728 48.0822 24.2832C48.8168 24.3125 48.8594 25.7439 48.5948 26.3889C48.3304 27.0339 48.3304 27.0339 48.3304 27.0339C48.3304 27.0339 48.5894 26.1959 48.5287 25.4684C48.4681 24.7408 47.8452 24.7682 47.6798 24.9502C47.5144 25.1321 47.2387 25.6284 47.36 26.2235C47.4813 26.8189 47.3491 27.5576 47.0404 27.7559C46.7869 27.9189 46.3104 29.2191 46.2886 29.8437V29.844Z" fill="#B07C5C"/>
<path fill-rule="evenodd" clip-rule="evenodd" d="M31.8377 45.4082C31.492 45.5794 31.1915 45.7324 30.9697 45.8525C29.9821 46.3885 29.049 47.743 29.2151 50.2768C29.318 51.8471 29.588 53.266 29.7785 54.1182C29.7785 54.1182 29.1686 51.2082 29.8342 48.4444C30.2608 46.6726 31.2109 45.8036 31.8377 45.4082Z" fill="#E6B79A"/>
<path fill-rule="evenodd" clip-rule="evenodd" d="M37.8172 100.475C37.2533 101.13 36.8998 103.514 36.9475 105.632C36.9954 107.75 36.8286 109.689 36.8286 109.689C36.8286 109.689 37.8898 110.457 38.1736 107.969C38.2956 106.899 37.9995 105.095 37.8368 104.078C37.6211 102.73 37.8169 100.475 37.8169 100.475H37.8172Z" fill="#B88667"/>
<path fill-rule="evenodd" clip-rule="evenodd" d="M52.5162 40.9275C53.4123 41.1154 54.4927 41.4442 55.2152 42.0059C56.6534 43.124 57.3148 44.4029 56.5209 48.4378C55.727 52.4727 55.6636 51.0568 55.0977 55.2574C54.5321 59.4579 54.3706 60.5123 53.7583 62.9471C53.146 65.3821 52.4422 68.0033 52.1163 69.9562C51.7904 71.9089 51.6596 75.4156 49.8106 80.6955C47.9615 85.9754 46.7475 88.021 45.7601 91.1194C44.7728 94.2179 44.7529 94.2348 44.7217 94.7813C44.6904 95.328 44.819 95.6548 44.6503 96.3272C44.4815 96.9996 44.6703 97.5414 44.812 98.3426C44.9534 99.1438 45.4468 100.531 45.1369 103.118C44.827 105.704 44.6987 106.861 44.6067 107.768C44.5147 108.674 44.4817 110.78 44.1951 111.816C43.9084 112.853 43.4108 112.683 43.3179 111.747C43.2249 110.812 43.2636 108.885 43.2138 107.682C43.1639 106.48 43.1857 105.956 43.1857 105.956C43.1857 105.956 42.7445 109.479 42.7949 110.659C42.8455 111.839 42.8029 115.306 42.2366 115.237C41.6702 115.168 41.3615 110.659 41.3395 109.821C41.3175 108.983 41.4712 106.943 41.4712 106.943C41.4712 106.943 41.24 106.756 41.1519 107.33C41.0637 107.903 40.709 110.821 40.709 110.821C40.709 110.821 40.733 113.801 40.6337 114.76C40.5345 115.719 40.286 116.106 39.9207 116.074C39.5556 116.042 39.4544 115.61 39.3268 113.955C39.1992 112.299 39.2348 110.935 39.2747 110.317C39.3147 109.699 39.388 107.076 39.388 107.076C39.388 107.076 39.1122 106.756 39.0573 107.252C39.0021 107.748 38.8343 109.529 38.8343 109.529C38.8343 109.529 38.6604 111.684 38.4178 112.522C38.1752 113.36 37.6339 113.606 37.5406 112.888C37.4477 112.169 37.5072 109.943 37.5394 109.486C37.5716 109.029 37.6372 105.597 37.5133 104.518C37.3893 103.44 37.3564 101.556 37.6719 100.766C39.1428 97.0829 39.2633 96.0197 40.3616 92.4259C40.9751 90.418 42.4414 86.9526 43.3462 81.6344C44.5977 74.2815 46.9768 69.6841 46.977 69.4967C46.9775 69.2073 47.6661 49.7748 47.8097 47.7098C48.0266 44.5905 50.5849 41.3154 52.5165 40.9272L52.5162 40.9275Z" fill="#C99676"/>
<path fill-rule="evenodd" clip-rule="evenodd" d="M30.5435 55.2203C31.1505 55.7416 32.5591 56.3757 35.7754 56.1142C39.9624 55.7738 43.3327 54.1753 44.4838 53.5674C43.562 54.2584 38.1446 56.9023 34.6818 56.7641C31.0926 56.621 30.5435 55.2201 30.5435 55.2201V55.2203Z" fill="#E0D0C4"/>
<path fill-rule="evenodd" clip-rule="evenodd" d="M32.2881 52.6646C32.2881 52.6646 33.19 53.2439 33.712 54.4679C33.8558 54.8049 33.9432 55.1049 33.9948 55.3625C34.1543 55.3656 34.3195 55.3669 34.4902 55.3659C34.2529 54.4083 33.6781 53.1033 32.2881 52.6646Z" fill="#E6B79A"/>
<path fill-rule="evenodd" clip-rule="evenodd" d="M40.1781 52.3877C40.1781 52.3877 39.2494 52.7087 38.3702 53.4131C37.7642 53.8985 37.2407 54.7259 36.9512 55.2469C37.188 55.219 37.4219 55.1873 37.6524 55.1522C38.0514 54.3653 38.8569 53.1024 40.1781 52.3877Z" fill="#E6B79A"/>
<path fill-rule="evenodd" clip-rule="evenodd" d="M35.468 55.6365C35.2549 54.8176 34.8499 53.8702 34.0898 53.0024C34.0898 53.0024 34.599 54.1946 34.6085 55.6691C34.8784 55.666 35.1646 55.6553 35.468 55.6365Z" fill="#B07C5C"/>
<path fill-rule="evenodd" clip-rule="evenodd" d="M39.6885 25.3291C39.6885 25.3291 40.14 24.326 41.4448 24.1885C42.7496 24.051 43.6069 24.1897 43.5297 24.6415C43.4525 25.0935 42.6036 25.6819 41.4681 25.6819C40.3325 25.6819 39.6885 25.3291 39.6885 25.3291Z" fill="#B07C5C"/>
<path fill-rule="evenodd" clip-rule="evenodd" d="M36.1533 25.5291C36.1533 25.5291 35.8983 24.5292 34.6795 24.3236C33.4604 24.1185 32.4922 24.1858 32.5643 24.642C32.6365 25.0979 33.4655 25.533 34.5262 25.5918C35.5872 25.6507 36.153 25.5291 36.153 25.5291H36.1533Z" fill="#B07C5C"/>
<path fill-rule="evenodd" clip-rule="evenodd" d="M38.5707 24.1315C38.5707 24.1315 38.3983 24.0538 38.3637 23.8383C38.3293 23.6228 38.407 23.3209 38.6569 23.2262C38.9067 23.1313 41.7587 22.5071 41.8553 22.5064C42.2875 22.502 43.7917 23.0289 44.0106 23.4676C44.0106 23.4676 43.8985 23.6228 43.6918 23.5279C43.4847 23.4332 42.5276 22.9245 41.8381 23.0538C41.1485 23.1831 38.976 23.8898 38.5707 24.1315Z" fill="#413024"/>
<path fill-rule="evenodd" clip-rule="evenodd" d="M35.2646 23.2695C35.2646 23.2695 35.7859 24.0709 36.0014 24.5619C36.2111 25.0403 36.3307 25.4297 36.2423 25.9667C36.0619 27.0611 35.691 28.2995 35.7992 27.8903C36.1225 26.6662 36.2217 25.6488 35.9201 25.1488C35.6184 24.6488 34.463 23.5455 33.9717 23.2523C33.4802 22.9591 34.8165 23.054 35.2649 23.2697L35.2646 23.2695Z" fill="#B07C5C"/>
<path fill-rule="evenodd" clip-rule="evenodd" d="M32.4374 23.4588C32.4374 23.4588 32.8507 23.0726 33.086 23.114C33.3213 23.1554 34.6353 23.5365 35.0234 23.6486C35.4116 23.7607 35.4631 23.7694 35.4631 23.7694C35.4631 23.7694 35.7689 23.3125 35.0878 23.0624C34.407 22.8123 33.2906 22.5622 33.1441 22.5365C32.9976 22.5106 32.5061 23.0709 32.5061 23.0709C32.5061 23.0709 32.3984 23.2174 32.4371 23.459L32.4374 23.4588Z" fill="#413024"/>
<path fill-rule="evenodd" clip-rule="evenodd" d="M38.756 24.1661C38.756 24.1661 38.41 24.5782 38.2207 25.3113C38.0311 26.0442 38.058 26.5452 38.0924 26.3815C38.1267 26.2176 38.2045 25.2092 39.0236 24.5194C39.8424 23.8296 40.1787 23.709 39.9632 23.709C39.7477 23.709 38.9461 24.0366 38.7563 24.1659L38.756 24.1661Z" fill="#B07C5C"/>
<path fill-rule="evenodd" clip-rule="evenodd" d="M32.8291 24.7649C32.8291 24.7649 33.1954 24.1485 34.3162 24.1528C35.437 24.1572 35.9285 25.0496 35.9285 24.9847C35.9285 24.9201 35.5835 24.1657 34.5535 23.9933C33.5233 23.8209 32.894 24.4632 32.8293 24.7649H32.8291Z" fill="#805438"/>
<path fill-rule="evenodd" clip-rule="evenodd" d="M39.2861 25.0969C39.2861 25.0969 39.9631 24.5882 40.1742 24.4117C40.3854 24.2349 40.6829 24.2262 41.4027 24.3468C42.1223 24.4676 42.4158 24.6443 42.5969 24.9547C42.778 25.2651 42.7867 25.386 42.7867 25.386C42.7867 25.386 42.778 24.7049 42.2177 24.4548C41.6572 24.2047 40.5193 24.0841 40.2866 24.1703C40.0539 24.2565 39.5278 24.7221 39.2864 25.0969H39.2861Z" fill="#805438"/>
<path fill-rule="evenodd" clip-rule="evenodd" d="M35.5901 28.7671C35.5901 28.7671 35.4608 28.9823 35.4681 29.2983C35.4753 29.6143 35.7194 29.815 35.9777 29.8438C36.2361 29.8726 36.2433 29.8368 36.2433 29.8368C36.2433 29.8368 35.3676 29.9588 35.5901 28.7671Z" fill="#805438"/>
<path fill-rule="evenodd" clip-rule="evenodd" d="M38.5045 28.7097C38.5045 28.7097 38.6912 29.0184 38.6408 29.3918C38.5905 29.7649 38.1958 29.8438 38.1958 29.8438C38.1958 29.8438 38.5762 29.9157 38.8059 29.5494C39.0357 29.1833 38.5045 28.7095 38.5045 28.7095V28.7097Z" fill="#B07C5C"/>
<path fill-rule="evenodd" clip-rule="evenodd" d="M36.1894 29.7254C36.1894 29.7254 35.8482 29.7325 35.8591 29.6071C35.87 29.4814 36.0531 29.5606 36.1678 29.6393C36.2829 29.7182 36.4765 29.9729 36.8748 29.9155C37.2731 29.8581 37.3845 29.4778 37.7041 29.4417C38.0235 29.4058 38.1382 29.6824 37.9949 29.6715C37.8513 29.6606 37.4564 29.632 37.4206 29.6499C37.3847 29.6678 37.114 29.9751 36.7109 29.9218C36.308 29.8688 36.254 29.709 36.1896 29.7252L36.1894 29.7254Z" fill="#805438"/>
<path d="M36.7312 29.1008C36.8143 29.1008 36.8818 29.0405 36.8818 28.9662C36.8818 28.8918 36.8143 28.8315 36.7312 28.8315C36.648 28.8315 36.5806 28.8918 36.5806 28.9662C36.5806 29.0405 36.648 29.1008 36.7312 29.1008Z" fill="#E6B79A"/>
<path fill-rule="evenodd" clip-rule="evenodd" d="M33.1265 25.1552C33.1265 25.1552 33.4887 24.7119 34.1782 24.6472C34.6923 24.5991 35.4929 24.8569 35.6956 25.5058C35.6956 25.5058 35.8421 25.6872 35.7259 25.7678C35.6096 25.8484 35.4629 25.7436 35.4629 25.7436C35.4629 25.7436 35.1784 25.7031 34.256 25.683C33.3335 25.6629 33.1267 25.4494 33.1265 25.1552Z" fill="white"/>
<path fill-rule="evenodd" clip-rule="evenodd" d="M39.8081 25.697C39.8081 25.697 39.4889 25.7832 39.4243 25.6455C39.3587 25.5055 39.5526 25.3484 39.6885 25.329C39.6885 25.329 40.2434 24.6106 41.2174 24.6453C42.1917 24.6799 42.7864 25.3857 42.7864 25.3857C42.7864 25.3857 42.5542 25.8045 41.4935 25.8048C40.433 25.805 40.17 25.5978 39.8078 25.697H39.8081Z" fill="white"/>
<path fill-rule="evenodd" clip-rule="evenodd" d="M33.1265 25.1554C33.1265 25.1554 33.1415 25.137 33.1715 25.1069C33.2081 25.2524 33.3349 25.4977 33.7734 25.5573C34.407 25.6435 34.976 25.5357 35.2777 25.6219C35.531 25.6941 35.7234 25.7454 35.7152 25.5333C35.7508 25.5871 35.8142 25.7067 35.7259 25.7682C35.6096 25.8485 35.4629 25.744 35.4629 25.744C35.4629 25.744 35.1784 25.7035 34.256 25.6834C33.3335 25.6633 33.1267 25.4498 33.1265 25.1554Z" fill="#EDBA9D"/>
<path fill-rule="evenodd" clip-rule="evenodd" d="M39.808 25.6972C39.808 25.6972 39.4889 25.7834 39.4243 25.6456C39.3632 25.5151 39.5274 25.3698 39.6601 25.335C39.631 25.389 39.5986 25.4621 39.6025 25.5139C39.609 25.6064 39.7255 25.6088 39.8632 25.5657C40.0012 25.5226 40.0915 25.5204 40.2448 25.5442C40.3978 25.5679 40.9128 25.727 41.706 25.6713C42.2878 25.6303 42.5936 25.4846 42.7493 25.3454C42.7737 25.3708 42.7863 25.3858 42.7863 25.3858C42.7863 25.3858 42.5541 25.8047 41.4934 25.8049C40.4329 25.8052 40.17 25.5979 39.8078 25.6972H39.808Z" fill="#EDBA9D"/>
<path fill-rule="evenodd" clip-rule="evenodd" d="M33.1262 25.155C33.1262 25.155 33.4884 24.7116 34.178 24.6472C34.6896 24.5993 35.4859 24.855 35.6927 25.498C35.4411 25.2278 34.9569 24.9555 34.2787 24.9688C33.5499 24.9831 33.2606 25.1753 33.1485 25.3034C33.1328 25.2569 33.126 25.2075 33.126 25.155H33.1262Z" fill="#ADA89F"/>
<path fill-rule="evenodd" clip-rule="evenodd" d="M39.7734 25.2343C39.9633 25.0406 40.4654 24.6184 41.2174 24.6453C42.1917 24.6799 42.7864 25.3857 42.7864 25.3857C42.7864 25.3857 42.7547 25.4428 42.661 25.5152C42.437 25.2934 42.0375 25.0114 41.4252 24.96C40.6255 24.8932 40.0114 25.1256 39.7737 25.2343H39.7734Z" fill="#ADA89F"/>
<path fill-rule="evenodd" clip-rule="evenodd" d="M41.0475 24.6468C41.1027 24.6439 41.1594 24.6432 41.2177 24.6451C41.5691 24.6577 41.8705 24.7575 42.1131 24.8797C42.146 24.9589 42.1644 25.0456 42.1644 25.1366C42.1644 25.5044 41.8664 25.8022 41.4986 25.8022C41.1308 25.8022 40.833 25.5044 40.833 25.1366C40.833 24.9429 40.9158 24.7686 41.0478 24.6468H41.0475Z" fill="#625D54"/>
<path fill-rule="evenodd" clip-rule="evenodd" d="M34.0803 24.6591C34.1121 24.6545 34.1448 24.6504 34.1782 24.6472C34.4651 24.6204 34.8418 24.6891 35.1537 24.868C35.19 24.9504 35.2101 25.0412 35.2101 25.1368C35.2101 25.3765 35.0835 25.5867 34.8931 25.7038C34.7263 25.6961 34.5166 25.6888 34.2559 25.6833L34.16 25.6804C33.9898 25.5598 33.8789 25.3612 33.8789 25.1368C33.8789 24.9494 33.9561 24.7804 34.0806 24.6593L34.0803 24.6591Z" fill="#625D54"/>
<path d="M34.5446 25.4364C34.71 25.4364 34.8441 25.3023 34.8441 25.1369C34.8441 24.9715 34.71 24.8374 34.5446 24.8374C34.3792 24.8374 34.2451 24.9715 34.2451 25.1369C34.2451 25.3023 34.3792 25.4364 34.5446 25.4364Z" fill="#402F24"/>
<path d="M34.4089 25.2015C34.478 25.2015 34.534 25.1455 34.534 25.0763C34.534 25.0072 34.478 24.9512 34.4089 24.9512C34.3397 24.9512 34.2837 25.0072 34.2837 25.0763C34.2837 25.1455 34.3397 25.2015 34.4089 25.2015Z" fill="white"/>
<path d="M41.4982 25.4364C41.6636 25.4364 41.7977 25.3023 41.7977 25.1369C41.7977 24.9715 41.6636 24.8374 41.4982 24.8374C41.3328 24.8374 41.1987 24.9715 41.1987 25.1369C41.1987 25.3023 41.3328 25.4364 41.4982 25.4364Z" fill="#402F24"/>
<path d="M41.3625 25.2015C41.4316 25.2015 41.4877 25.1455 41.4877 25.0763C41.4877 25.0072 41.4316 24.9512 41.3625 24.9512C41.2933 24.9512 41.2373 25.0072 41.2373 25.0763C41.2373 25.1455 41.2933 25.2015 41.3625 25.2015Z" fill="white"/>
<path fill-rule="evenodd" clip-rule="evenodd" d="M39.4468 25.4835C39.4468 25.4835 39.4737 25.3695 39.547 25.3177C39.6204 25.2659 39.6506 25.253 39.6506 25.253C39.6506 25.253 39.9264 24.7228 40.7496 24.4727C41.5728 24.2226 42.0764 24.4458 42.3101 24.5763C42.5437 24.7068 42.8403 24.8133 43.0774 24.7746C43.3144 24.7359 43.3619 24.6322 43.3619 24.6322C43.3619 24.6322 43.3575 24.8736 43.1851 25.115C43.0127 25.3564 42.7866 25.3855 42.7866 25.3855C42.7866 25.3855 42.1767 24.7983 41.4675 24.7078C40.7583 24.6172 40.2029 24.9196 39.9932 25.0719C39.7833 25.2242 39.6887 25.3288 39.6887 25.3288C39.6887 25.3288 39.4933 25.3763 39.4468 25.4835Z" fill="#413024"/>
<path fill-rule="evenodd" clip-rule="evenodd" d="M33.128 25.199C33.128 25.199 32.8655 25.2726 32.6973 25.1346C32.5292 24.9966 32.5723 24.6259 32.5723 24.6259C32.5723 24.6259 32.6883 24.9019 32.9253 24.7767C33.1624 24.6518 33.5418 24.3455 34.2185 24.3802C34.8952 24.4148 35.3262 24.6949 35.5073 24.9707C35.6884 25.2465 35.723 25.406 35.723 25.406C35.723 25.406 35.7896 25.5007 35.7983 25.5719C35.8071 25.6431 35.7678 25.707 35.7678 25.707C35.7678 25.707 35.7729 25.6331 35.7441 25.5828C35.7153 25.5326 35.6889 25.4842 35.6889 25.4842C35.6889 25.4842 35.501 24.9317 34.7899 24.7637C34.0788 24.5956 33.4754 24.783 33.1282 25.1988L33.128 25.199Z" fill="#413024"/>
<path fill-rule="evenodd" clip-rule="evenodd" d="M35.0873 31.998C35.1304 31.9544 35.2256 32.113 35.3769 31.9084C35.528 31.7038 36.3964 31.2259 36.6843 31.3409C36.9722 31.4559 37.1129 31.3617 37.232 31.3121C37.3509 31.2624 38.1131 31.2225 38.8482 31.4966C39.5832 31.7704 39.8578 31.9743 40.0479 31.9639C40.2377 31.9534 40.6352 31.5162 40.6272 31.814C40.6193 32.1118 40.2147 31.9946 40.0658 32.1186C39.9169 32.2425 39.22 33.5812 37.3354 33.6236C35.4505 33.6662 35.2844 32.1592 35.2844 32.1592C35.2844 32.1592 34.9968 32.09 35.0875 31.9982L35.0873 31.998Z" fill="#B14F49"/>
<path fill-rule="evenodd" clip-rule="evenodd" d="M35.8481 32.1286C35.8481 32.1286 36.0385 31.9833 37.3655 31.9528C38.6923 31.9223 39.2504 32.1288 39.2504 32.1288C38.3105 32.422 36.6825 32.6474 35.8484 32.1288L35.8481 32.1286Z" fill="white"/>
<path fill-rule="evenodd" clip-rule="evenodd" d="M36.7356 32.7514C36.7356 32.7514 37.3368 32.8717 38.1876 32.7013C39.0382 32.5308 39.1525 32.4727 39.1111 32.5965C39.0699 32.7199 38.1535 33.1243 37.4068 33.1286C36.6601 33.1332 36.3678 32.7751 36.7356 32.7514Z" fill="#C25F5B"/>
<path fill-rule="evenodd" clip-rule="evenodd" d="M45.4593 28.6318C45.4593 28.6318 44.7097 29.4035 43.2102 30.4397C41.711 31.476 41.9754 31.5201 43.1221 31.1673C44.2685 30.8145 45.5694 28.8522 45.4593 28.6318Z" fill="#B88667"/>
<path fill-rule="evenodd" clip-rule="evenodd" d="M32.6299 29.0039C32.6299 29.0039 34.3276 31.1205 33.9308 31.5614C33.534 32.0023 32.6739 29.3564 32.6299 29.0039Z" fill="#B88667"/>
</svg>
