<svg width="85" height="212" viewBox="0 0 85 212" fill="none" xmlns="http://www.w3.org/2000/svg">
<path fill-rule="evenodd" clip-rule="evenodd" d="M35.2559 34.6442C35.2559 34.6442 36.1147 36.5156 36.552 38.7599C36.9893 41.0036 36.9306 41.909 35.4797 42.5936C34.0287 43.2781 30.8257 44.667 29.585 45.2977C28.3443 45.9279 27.1719 47.5208 27.3807 50.5001C27.5895 53.4794 28.3443 55.9969 28.3443 55.9969C28.3443 55.9969 47.2146 60.9428 50.0452 58.6024C52.8759 56.2619 56.4152 41.185 52.7267 40.6486C52.5444 40.6221 51.1151 40.4186 50.9458 40.3974C47.6908 39.9948 46.7734 40.5115 45.5861 37.7713C44.3372 34.8877 45.2099 29.8975 45.2099 29.8975C45.2099 29.8975 39.1103 34.7597 35.2559 34.6447V34.6442Z" fill="#C99676"/>
<path fill-rule="evenodd" clip-rule="evenodd" d="M47.979 48.6084C47.979 48.6084 46.9831 53.4832 45.5207 55.5806C44.0582 57.6781 47.4315 60.3501 47.8322 57.1485C48.2334 53.9469 47.979 48.6084 47.979 48.6084Z" fill="#B07C5C"/>
<path fill-rule="evenodd" clip-rule="evenodd" d="M28.8869 110.899C28.8869 110.899 28.8455 113.907 30.1997 121.689C30.4556 123.16 30.7429 124.909 31.0397 126.778C32.6883 121.903 35.2092 114.744 35.975 112.573C31.6564 111.014 29.2308 110.907 28.8869 110.899ZM34.8974 152.356C36.0578 160.125 37.6795 171.655 37.5337 174.516C37.3096 178.932 33.9983 186.406 33.9983 186.406C33.9983 186.406 32.7206 187.391 34.2249 188.638C35.7287 189.884 37.2345 189.902 37.2345 189.902L37.6189 189.357C37.603 189.121 37.6473 188.963 37.6473 188.963C37.6473 188.963 37.6473 188.963 38.3213 183.377C38.9952 177.791 39.6668 175.552 38.5021 166.1C37.9821 161.877 36.5018 156.916 34.897 152.356H34.8974ZM44.6272 148.978C44.6874 146.982 44.6474 145.193 44.4329 143.978C43.5838 139.165 42.636 138.098 42.636 138.098C42.636 138.098 43.2355 133.454 43.7608 128.198C40.9619 132.755 38.2881 136.936 38.2881 136.936C38.2881 136.936 40.185 138.456 42.9685 143.844C43.8277 145.507 44.3371 147.221 44.6267 148.977L44.6272 148.978Z" fill="#B07C5C"/>
<path fill-rule="evenodd" clip-rule="evenodd" d="M29.3589 54.4648C30.0078 54.9868 31.515 55.6218 34.9562 55.3601C39.4567 55.0176 43.0753 53.4036 44.2901 52.8013C46.39 43.3957 49.8364 40.8989 51.3917 40.2408C52.2259 39.8877 52.5641 40.174 52.7026 40.5016C52.6887 40.503 47.6302 41.0279 44.9679 53.228C45.3672 54.2657 46.2745 56.4098 47.7394 58.7267C49.7916 61.9725 48.2652 73.3591 48.2652 73.3591C48.2652 73.3591 49.8855 76.9648 52.0792 80.6528C54.2729 84.3402 58.8946 91.9186 57.3855 100.307C55.8763 108.696 49.363 118.963 49.363 118.963C49.363 118.963 44.5027 116.097 38.3127 113.489C32.1226 110.881 28.8441 110.9 28.8441 110.9C28.8441 110.9 27.8276 90.23 28.8797 84.0569C30.0646 77.1048 28.8273 70.2538 27.8035 65.8457C27.8035 65.8457 23.4455 61.3861 28.7089 54.1074C28.7445 54.0434 28.782 53.978 28.821 53.9116C30.0381 51.8386 32.2116 48.6866 31.604 44.3314C31.5689 43.8393 32.2934 43.7546 32.3112 44.0769C32.8563 48.752 30.7564 52.0758 29.4815 54.2508C29.4387 54.3239 29.3983 54.3956 29.3598 54.4658L29.3589 54.4648Z" fill="#D5C1B5"/>
<path fill-rule="evenodd" clip-rule="evenodd" d="M35.9751 112.573C34.9586 115.453 30.8574 127.105 29.7957 130.566C28.581 134.527 28.5304 135.366 29.9472 139.429C31.364 143.491 37.338 156.648 38.5022 166.1C39.6669 175.552 38.9953 177.791 38.3213 183.377C37.6473 188.963 37.6473 188.963 37.6473 188.963C37.6473 188.963 37.0325 191.164 41.216 191.495C45.3989 191.826 45.7189 189.616 45.6529 187.475C45.5875 185.334 46.0138 182.973 46.4847 180.775C46.9557 178.578 46.9013 177.335 45.8319 174.324C44.7625 171.313 44.5652 167.543 44.7168 161.347C44.8683 155.151 45.7525 149.232 42.9695 143.845C40.186 138.457 38.2891 136.937 38.2891 136.937C38.2891 136.937 46.6642 124.154 49.364 118.962C48.511 118.469 41.5109 114.836 38.3136 113.489C35.1164 112.142 36.702 112.835 35.9756 112.573L35.9751 112.573Z" fill="#C99676"/>
<path fill-rule="evenodd" clip-rule="evenodd" d="M34.0375 186.318C33.2538 186.897 31.6066 188.217 29.8925 190.238C27.5189 193.037 28.1669 193.177 28.8866 193.179C29.562 193.181 34.6345 193.522 36.1407 192.696C36.262 192.32 36.3885 191.956 36.5121 191.617C36.8037 190.817 37.0404 190.273 37.2275 189.902C37.1135 189.899 35.6688 189.834 34.2256 188.638C32.7217 187.391 33.999 186.406 33.999 186.406L34.0375 186.318V186.318Z" fill="#BA9F8A"/>
<path fill-rule="evenodd" clip-rule="evenodd" d="M37.6156 189.262C37.4227 189.497 37.0662 190.096 36.5115 191.617C35.6076 194.096 34.5477 197.939 36.3874 197.807C38.2275 197.674 45.9079 195.115 46.172 191.968C46.4361 188.82 47.1606 186.817 47.6297 184.369C48.0992 181.92 49.2697 180.409 49.3332 178.736C49.3914 177.189 48.1059 175.845 45.8992 174.517C46.9028 177.389 46.9446 178.625 46.4842 180.774C46.0133 182.972 45.587 185.334 45.6524 187.474C45.7179 189.615 45.3984 191.825 41.2155 191.494C37.9932 191.239 37.618 189.875 37.6156 189.262Z" fill="#D4C1B5"/>
<path fill-rule="evenodd" clip-rule="evenodd" d="M48.9653 180.404C48.8941 180.936 48.782 181.594 48.6064 182.339C48.0859 184.548 48.2768 187.834 48.2581 188.632C48.1494 188.827 47.2959 188.804 47.2979 188.668L47.344 185.71C47.4451 185.271 47.5422 184.828 47.6303 184.369C47.9425 182.74 48.565 181.527 48.9653 180.404V180.404Z" fill="#A68C7A"/>
<path fill-rule="evenodd" clip-rule="evenodd" d="M39.5357 178.165C39.5357 178.165 38.309 185.805 38.1675 187.748C38.0261 189.691 41.753 177.614 39.5357 178.165Z" fill="#E6B79A"/>
<path fill-rule="evenodd" clip-rule="evenodd" d="M29.7065 111.311C29.7065 111.311 29.8162 114.176 30.4532 118.592C31.0901 123.008 31.5149 124.157 31.45 123.788C31.385 123.419 30.9015 111.681 30.9015 111.681C30.9015 111.681 30.4513 111.18 29.7065 111.311Z" fill="#C99676"/>
<path fill-rule="evenodd" clip-rule="evenodd" d="M36.6839 113.482L38.333 114.276C38.333 114.276 35.9685 118.52 33.1754 124.562C30.3823 130.603 30.0522 131.288 30.0522 131.288C30.0522 131.288 31.8895 126.254 36.6839 113.482Z" fill="#E6B79A"/>
<path fill-rule="evenodd" clip-rule="evenodd" d="M35.9753 112.573L35.562 113.745C39.7118 114.091 47.131 117.727 48.5819 120.406C48.8749 119.879 49.1385 119.393 49.3632 118.962C48.9023 118.695 46.7148 117.408 44.2358 116.165C42.1249 115.106 39.7835 114.108 38.3128 113.488C35.1156 112.141 36.7012 112.835 35.9748 112.573H35.9753Z" fill="#B07C5C"/>
<path fill-rule="evenodd" clip-rule="evenodd" d="M28.428 89.8364C28.428 89.8364 26.0847 99.4402 26.4614 104.453C26.8376 109.466 26.8443 108.124 27.4495 110.11C28.0547 112.097 28.3227 113 28.3227 113C28.3227 113 29.0635 114.101 29.0385 113.794C29.0135 113.487 28.6421 106.002 28.6421 106.002C28.6421 106.002 29.0549 107.237 29.4917 108.098C29.928 108.959 30.1402 109.147 30.4115 109.014C30.6829 108.882 30.3908 107.402 30.0594 106.408C29.7279 105.415 29.8689 104.046 29.4912 102.732C29.1141 101.418 28.5406 100.646 28.5406 100.646C28.544 96.4397 28.316 94.5062 28.4285 89.8364H28.428Z" fill="#B88667"/>
<path fill-rule="evenodd" clip-rule="evenodd" d="M56.0427 92.6074C56.5416 94.9661 56.6989 97.512 56.226 100.141C54.7842 108.157 48.5601 117.968 48.5601 117.968C48.5601 117.968 48.1863 117.748 47.5161 117.376C48.7972 115.364 51.0568 111.36 53.6181 104.779C55.7228 99.3709 56.1274 95.2683 56.0427 92.6074Z" fill="#B99E8A"/>
<path fill-rule="evenodd" clip-rule="evenodd" d="M49.1485 75.2178C49.834 76.6105 50.4238 77.8647 51.6332 79.8982L51.7799 80.1445C50.7649 80.753 49.8013 81.7633 47.392 86.9508C44.9828 92.1382 44.7885 95.2373 45.1242 98.1902C45.46 101.143 45.5971 101.03 45.3186 104.083C45.0405 107.137 44.3064 111.345 43.7421 112.16C43.1778 112.974 42.7886 112.963 42.7886 112.963C42.7886 112.963 42.5596 114.586 42.0896 115.177L41.8077 115.045C41.7023 113.863 41.1977 108.247 41.0606 107.733C40.9071 107.159 40.5179 110.327 40.5179 110.327C40.5179 110.327 40.5059 110.736 40.5208 112.774C40.5271 113.635 40.5189 114.145 40.5073 114.446C40.0551 114.242 39.5923 114.037 39.1209 113.833L38.8674 107.589C38.8674 107.589 38.6239 110.147 38.1953 111.752C38 112.482 37.7258 112.905 37.4852 113.148L37.3116 113.079C37.2149 112.858 37.1658 112.616 37.1802 112.349C37.2933 110.258 37.0099 104.781 42.5769 91.0034C47.2549 79.4248 46.2808 75.631 49.1494 75.2173L49.1485 75.2178Z" fill="#A38976"/>
<path d="M31.8965 93.7305C31.8998 93.7382 33.0717 96.3798 39.8833 98.3276L39.7741 98.6644C32.7922 96.6679 32.0725 94.1649 32.0687 94.1567L31.896 93.7305H31.8965ZM31.9186 100.187C31.9306 100.194 36.0958 102.707 40.1657 101.668L40.2648 102.007C36.0318 103.088 32.4723 100.812 32.4598 100.805L31.9186 100.187Z" fill="#B99E8A"/>
<path fill-rule="evenodd" clip-rule="evenodd" d="M35.2559 34.6442C35.2559 34.6442 36.1146 36.5156 36.5519 38.7599C36.5865 38.9364 36.6178 39.1048 36.6457 39.2655C37.6059 39.5344 39.065 39.5657 40.6839 38.2754C42.4263 36.887 43.9754 35.1282 44.9178 33.9688C44.874 31.8203 45.2103 29.8975 45.2103 29.8975C45.2103 29.8975 39.1107 34.7597 35.2563 34.6447L35.2559 34.6442Z" fill="#B07C5C"/>
<path fill-rule="evenodd" clip-rule="evenodd" d="M35.2559 34.6442C35.2559 34.6442 35.6018 35.3976 35.9659 36.5219C37.5405 37.8405 39.3772 36.7942 41.2789 35.6997C43.1802 34.6048 44.7908 33.2188 44.9467 32.3923C45.0237 30.9621 45.2103 29.8975 45.2103 29.8975C45.2103 29.8975 39.1107 34.7597 35.2563 34.6447L35.2559 34.6442Z" fill="#996A4C"/>
<path fill-rule="evenodd" clip-rule="evenodd" d="M43.8147 15.7367C46.8316 18.1546 47.5628 21.2653 46.707 24.8459C45.8511 28.4266 45.4812 30.1474 45.1083 31.1721C44.736 32.1973 44.4411 33.0502 42.2377 34.4521C40.0344 35.8539 38.1842 36.7651 36.7087 36.1965C35.2333 35.6278 33.8579 34.784 33.1622 33.0468C32.4666 31.3097 31.9133 29.7697 31.5761 28.3001C31.2389 26.8304 31.6276 26.5008 31.6175 24.934C31.6069 23.3671 31.4404 23.2949 31.3356 21.8161C31.274 20.9468 30.9093 19.0614 32.5984 16.7831C35.3622 13.0538 40.249 12.8782 43.8147 15.7362V15.7367Z" fill="#C99676"/>
<path fill-rule="evenodd" clip-rule="evenodd" d="M46.8918 23.9331C47.1159 23.8167 47.4133 23.7354 47.7279 23.8523C48.3855 24.0958 48.844 25.3687 48.0156 27.0058C47.1867 28.6429 46.7994 29.4352 46.6094 29.7046C46.4193 29.974 45.8425 30.242 45.5659 29.5781C45.8613 28.512 46.3943 26.1543 46.7075 24.8458C47.0202 23.5367 46.8427 24.2338 46.8922 23.9331H46.8918Z" fill="#C99676"/>
<path fill-rule="evenodd" clip-rule="evenodd" d="M45.6716 29.7998C45.6168 29.7387 45.598 29.7113 45.5562 29.6117C45.8515 28.5457 46.4105 26.0859 46.7069 24.8457C47.0032 23.606 46.7843 24.507 46.8175 24.3396C46.9878 24.2756 47.2038 24.229 47.4651 24.2395C48.1997 24.2689 48.242 25.7001 47.9779 26.3452C47.7133 26.9903 47.7133 26.9903 47.7133 26.9903C47.7133 26.9903 47.9721 26.1523 47.9115 25.4249C47.8509 24.6975 47.2279 24.7249 47.0624 24.9068C46.8969 25.0886 46.6213 25.5851 46.7425 26.1802C46.8637 26.7753 46.7314 27.5142 46.4226 27.7124C46.169 27.8755 45.6928 29.1754 45.6706 29.8003L45.6716 29.7998Z" fill="#B07C5C"/>
<path fill-rule="evenodd" clip-rule="evenodd" d="M30.6672 45.144C30.2972 45.3153 29.9759 45.4688 29.7387 45.589C28.6822 46.1259 27.6835 47.4821 27.8615 50.0198C27.9717 51.5924 28.2603 53.013 28.4643 53.8669C28.4643 53.8669 27.812 50.9526 28.524 48.1849C28.9805 46.4102 29.9965 45.5405 30.6676 45.144H30.6672Z" fill="#E6B79A"/>
<path fill-rule="evenodd" clip-rule="evenodd" d="M37.0642 100.29C36.461 100.946 36.0828 103.334 36.1338 105.455C36.1853 107.576 36.0068 109.518 36.0068 109.518C36.0068 109.518 37.1422 110.287 37.4457 107.795C37.5761 106.724 37.2596 104.918 37.0854 103.899C36.8545 102.549 37.0642 100.29 37.0642 100.29Z" fill="#B88667"/>
<path fill-rule="evenodd" clip-rule="evenodd" d="M52.7898 40.6567C53.7485 40.8448 54.9041 41.1744 55.6772 41.7367C57.2157 42.8562 57.8796 43.7996 57.1955 48.2111C56.6052 52.0198 55.3337 58.1862 54.119 62.7083C53.4637 65.1464 52.81 67.8049 52.4612 69.7604C52.1124 71.716 51.8733 75.1947 49.8956 80.4822C47.9174 85.7697 46.6185 87.8186 45.5625 90.9216C44.5061 94.0245 44.4849 94.0414 44.4517 94.5889C44.4185 95.1363 44.5556 95.4634 44.3752 96.137C44.1948 96.8105 44.3969 97.3531 44.5484 98.1551C44.7 98.9575 45.2277 100.347 44.8958 102.937C44.5643 105.527 44.4267 106.686 44.3286 107.594C44.2299 108.502 44.1948 110.611 43.8884 111.648C43.5815 112.686 43.0494 112.516 42.9498 111.579C42.8502 110.642 42.8916 108.712 42.8387 107.508C42.7853 106.304 42.8084 105.78 42.8084 105.78C42.8084 105.78 42.3364 109.307 42.3903 110.489C42.4442 111.67 42.399 115.142 41.7928 115.074C41.1867 115.005 40.8566 110.489 40.8331 109.65C40.8095 108.811 40.974 106.768 40.974 106.768C40.974 106.768 40.7267 106.581 40.6325 107.155C40.5382 107.729 40.1586 110.651 40.1586 110.651C40.1586 110.651 40.1841 113.635 40.0783 114.596C39.9719 115.557 39.7064 115.944 39.3157 115.912C38.9251 115.88 38.8169 115.447 38.6802 113.789C38.5436 112.131 38.5821 110.766 38.6244 110.146C38.6673 109.527 38.7457 106.901 38.7457 106.901C38.7457 106.901 38.4508 106.581 38.3916 107.077C38.3329 107.574 38.153 109.357 38.153 109.357C38.153 109.357 37.9668 111.515 37.7075 112.355C37.4482 113.194 36.8685 113.44 36.7689 112.721C36.6693 112.001 36.7333 109.772 36.7675 109.314C36.8021 108.856 36.8724 105.419 36.7396 104.339C36.6073 103.259 36.5717 101.372 36.9094 100.581C38.483 96.8927 38.6119 95.8276 39.7867 92.2287C40.4429 90.2178 42.0117 86.7473 42.9801 81.4218C44.3189 74.0579 46.8643 69.454 46.8648 69.2664C46.8653 68.9768 47.6018 49.5162 47.7553 47.4481C47.9872 44.3245 50.7245 41.0445 52.7907 40.6558L52.7898 40.6567Z" fill="#C99676"/>
<path fill-rule="evenodd" clip-rule="evenodd" d="M29.2822 54.9698C29.9317 55.4918 31.4389 56.1268 34.8796 55.8651C39.3589 55.524 42.9645 53.9235 44.1961 53.3145C43.2099 54.0067 37.4139 56.6541 33.7096 56.516C29.8696 56.3727 29.2822 54.9698 29.2822 54.9698Z" fill="#E0D0C4"/>
<path fill-rule="evenodd" clip-rule="evenodd" d="M31.1484 52.4106C31.1484 52.4106 32.1135 52.9908 32.6715 54.2166C32.8255 54.5543 32.9188 54.8545 32.9741 55.1124C33.1449 55.1157 33.3215 55.1167 33.5043 55.1157C33.2503 54.1565 32.6354 52.8499 31.1484 52.4106Z" fill="#E6B79A"/>
<path fill-rule="evenodd" clip-rule="evenodd" d="M39.5899 52.1333C39.5899 52.1333 38.5965 52.4547 37.6555 53.1599C37.007 53.6458 36.447 54.4747 36.1372 54.9962C36.3907 54.9683 36.6404 54.9365 36.8872 54.9014C37.3139 54.1134 38.176 52.8487 39.5894 52.1328L39.5899 52.1333Z" fill="#E6B79A"/>
<path fill-rule="evenodd" clip-rule="evenodd" d="M34.5512 55.3873C34.3231 54.567 33.8897 53.6183 33.0767 52.7495C33.0767 52.7495 33.6212 53.9435 33.6313 55.42C33.92 55.4166 34.2264 55.406 34.5512 55.3873Z" fill="#B07C5C"/>
<path fill-rule="evenodd" clip-rule="evenodd" d="M39.0708 25.2847C39.0708 25.2847 39.5225 24.2817 40.8272 24.1441C42.1319 24.0065 42.9892 24.1451 42.9122 24.5973C42.8352 25.0495 41.9861 25.6374 40.8503 25.6374C39.715 25.6374 39.0708 25.2847 39.0708 25.2847Z" fill="#B07C5C"/>
<path fill-rule="evenodd" clip-rule="evenodd" d="M35.5354 25.4847C35.5354 25.4847 35.2805 24.4845 34.0614 24.2791C32.8424 24.0741 31.8744 24.1415 31.9461 24.5975C32.0183 25.0536 32.8472 25.4885 33.908 25.5477C34.9687 25.6064 35.535 25.4847 35.535 25.4847H35.5354Z" fill="#B07C5C"/>
<path fill-rule="evenodd" clip-rule="evenodd" d="M37.9529 24.087C37.9529 24.087 37.7802 24.0096 37.7461 23.7941C37.7114 23.5785 37.7894 23.2764 38.0395 23.1821C38.2892 23.0873 41.1415 22.4629 41.2377 22.4624C41.6702 22.4581 43.1741 22.9849 43.393 23.4236C43.393 23.4236 43.2809 23.5785 43.074 23.4838C42.8671 23.389 41.9098 22.8805 41.2204 23.0099C40.531 23.1393 38.358 23.846 37.9529 24.0875V24.087Z" fill="#413024"/>
<path fill-rule="evenodd" clip-rule="evenodd" d="M34.6466 23.2255C34.6466 23.2255 35.1681 24.027 35.3836 24.5177C35.5934 24.9959 35.7131 25.3856 35.6246 25.9225C35.4442 27.0169 35.0733 28.2552 35.1816 27.8463C35.5048 26.622 35.6039 25.6045 35.3023 25.1046C35.0007 24.6048 33.8451 23.5012 33.3539 23.2082C32.8628 22.9153 34.1987 23.01 34.6471 23.2255H34.6466Z" fill="#B07C5C"/>
<path fill-rule="evenodd" clip-rule="evenodd" d="M31.8195 23.4143C31.8195 23.4143 32.2328 23.028 32.468 23.0694C32.7033 23.1108 34.0176 23.4918 34.4053 23.6039C34.7935 23.7159 34.845 23.7246 34.845 23.7246C34.845 23.7246 35.151 23.2676 34.4698 23.0179C33.7891 22.7677 32.6725 22.5176 32.5257 22.4921C32.379 22.4661 31.8878 23.0266 31.8878 23.0266C31.8878 23.0266 31.7801 23.1733 31.819 23.4148L31.8195 23.4143Z" fill="#413024"/>
<path fill-rule="evenodd" clip-rule="evenodd" d="M38.1379 24.1216C38.1379 24.1216 37.792 24.5339 37.6025 25.267C37.413 25.9997 37.4399 26.501 37.4741 26.3374C37.5087 26.1738 37.5861 25.165 38.4049 24.4752C39.2237 23.7853 39.56 23.6646 39.3445 23.6646C39.129 23.6646 38.3275 23.9922 38.1375 24.1216H38.1379Z" fill="#B07C5C"/>
<path fill-rule="evenodd" clip-rule="evenodd" d="M32.2109 24.7204C32.2109 24.7204 32.5775 24.1042 33.6979 24.1085C34.8189 24.1128 35.31 25.0052 35.31 24.9403C35.31 24.8758 34.9651 24.121 33.9351 23.9488C32.9051 23.7766 32.2754 24.4188 32.2109 24.7204Z" fill="#805438"/>
<path fill-rule="evenodd" clip-rule="evenodd" d="M38.668 25.0524C38.668 25.0524 39.3448 24.5439 39.556 24.3669C39.7672 24.1898 40.065 24.1812 40.7847 24.3019C41.5044 24.4227 41.7979 24.5992 41.9787 24.91C42.1601 25.2203 42.1688 25.341 42.1688 25.341C42.1688 25.341 42.1601 24.6598 41.5997 24.4101C41.0392 24.16 39.901 24.0397 39.6686 24.1258C39.4358 24.2119 38.9099 24.6776 38.6684 25.0524H38.668Z" fill="#805438"/>
<path fill-rule="evenodd" clip-rule="evenodd" d="M34.9721 28.7227C34.9721 28.7227 34.8427 28.9382 34.8499 29.2538C34.8571 29.5698 35.101 29.7704 35.3594 29.7993C35.6177 29.8282 35.6249 29.7921 35.6249 29.7921C35.6249 29.7921 34.7494 29.9143 34.9716 28.7227H34.9721Z" fill="#805438"/>
<path fill-rule="evenodd" clip-rule="evenodd" d="M37.8865 28.6655C37.8865 28.6655 38.0731 28.9744 38.0226 29.3477C37.9721 29.721 37.5776 29.7999 37.5776 29.7999C37.5776 29.7999 37.9582 29.8716 38.1876 29.5055C38.4176 29.1394 37.886 28.6655 37.886 28.6655H37.8865Z" fill="#B07C5C"/>
<path fill-rule="evenodd" clip-rule="evenodd" d="M35.5715 29.6816C35.5715 29.6816 35.2304 29.6888 35.2415 29.5633C35.2521 29.4377 35.4353 29.5166 35.5503 29.5955C35.6653 29.6744 35.8592 29.9294 36.2575 29.8716C36.6558 29.8144 36.767 29.4339 37.0869 29.3978C37.4063 29.3617 37.5213 29.6383 37.3775 29.6277C37.2341 29.6171 36.8391 29.5883 36.8031 29.6061C36.767 29.6239 36.4966 29.9313 36.0935 29.8779C35.6903 29.825 35.6364 29.6653 35.572 29.6811L35.5715 29.6816Z" fill="#805438"/>
<path d="M36.113 29.0565C36.1961 29.0565 36.2636 28.9962 36.2636 28.9218C36.2636 28.8474 36.1961 28.7871 36.113 28.7871C36.0298 28.7871 35.9624 28.8474 35.9624 28.9218C35.9624 28.9962 36.0298 29.0565 36.113 29.0565Z" fill="#E6B79A"/>
<path fill-rule="evenodd" clip-rule="evenodd" d="M32.5083 25.1108C32.5083 25.1108 32.8706 24.6673 33.5599 24.6028C34.0737 24.5547 34.8747 24.8126 35.0773 25.4615C35.0773 25.4615 35.224 25.6429 35.1076 25.7232C34.9911 25.8041 34.8449 25.6992 34.8449 25.6992C34.8449 25.6992 34.5606 25.6588 33.6379 25.6386C32.7156 25.6184 32.5088 25.4048 32.5083 25.1108Z" fill="white"/>
<path fill-rule="evenodd" clip-rule="evenodd" d="M39.19 25.6529C39.19 25.6529 38.8705 25.7391 38.8061 25.6015C38.7406 25.4615 38.9345 25.3046 39.0702 25.2849C39.0702 25.2849 39.6249 24.5667 40.599 24.6013C41.5732 24.6359 42.1678 25.3417 42.1678 25.3417C42.1678 25.3417 41.9355 25.7607 40.8752 25.7607C39.8149 25.7607 39.5517 25.5538 39.1895 25.6529H39.19Z" fill="white"/>
<path fill-rule="evenodd" clip-rule="evenodd" d="M32.5083 25.1106C32.5083 25.1106 32.5232 25.0923 32.5535 25.062C32.5901 25.2078 32.7171 25.4526 33.1554 25.5123C33.7889 25.5984 34.358 25.4906 34.6597 25.5768C34.9132 25.6489 35.1056 25.7004 35.097 25.4882C35.1326 25.5421 35.1961 25.6614 35.1076 25.723C34.9911 25.8034 34.8449 25.699 34.8449 25.699C34.8449 25.699 34.5606 25.6585 33.6379 25.6383C32.7156 25.6181 32.5088 25.4045 32.5083 25.1101V25.1106Z" fill="#EDBA9D"/>
<path fill-rule="evenodd" clip-rule="evenodd" d="M39.19 25.6528C39.19 25.6528 38.8706 25.7389 38.8061 25.6013C38.745 25.4709 38.9095 25.3256 39.0418 25.2905C39.013 25.3444 38.9803 25.4175 38.9841 25.4695C38.9908 25.5619 39.1068 25.5643 39.2448 25.521C39.3829 25.4777 39.4734 25.4757 39.6263 25.4993C39.7793 25.5229 40.2941 25.6821 41.0874 25.6263C41.6695 25.5854 41.975 25.4397 42.1308 25.3006C42.1554 25.3261 42.1679 25.341 42.1679 25.341C42.1679 25.341 41.9355 25.7601 40.8752 25.7601C39.8149 25.7601 39.5518 25.5532 39.1895 25.6523L39.19 25.6528Z" fill="#EDBA9D"/>
<path fill-rule="evenodd" clip-rule="evenodd" d="M32.5083 25.1109C32.5083 25.1109 32.8706 24.6678 33.5599 24.6028C34.0718 24.5547 34.868 24.8107 35.0748 25.4534C34.8232 25.183 34.3388 24.9107 33.661 24.9242C32.9321 24.9386 32.643 25.1306 32.5309 25.259C32.515 25.2124 32.5083 25.1628 32.5083 25.1109Z" fill="#ADA89F"/>
<path fill-rule="evenodd" clip-rule="evenodd" d="M39.1553 25.1901C39.3453 24.9962 39.8471 24.5743 40.5995 24.6008C41.5736 24.6354 42.1683 25.3412 42.1683 25.3412C42.1683 25.3412 42.1365 25.3984 42.0427 25.4706C41.819 25.2488 41.4192 24.9669 40.8068 24.9154C40.0073 24.8486 39.3929 25.0809 39.1553 25.1896V25.1901Z" fill="#ADA89F"/>
<path fill-rule="evenodd" clip-rule="evenodd" d="M40.4294 24.6025C40.4847 24.5996 40.541 24.5987 40.5997 24.6006C40.9509 24.6131 41.2525 24.7127 41.495 24.8354C41.5282 24.9143 41.5465 25.0013 41.5465 25.0923C41.5465 25.4598 41.2487 25.7581 40.8807 25.7581C40.5131 25.7581 40.2148 25.4603 40.2148 25.0923C40.2148 24.8984 40.2976 24.7242 40.4294 24.6025Z" fill="#625D54"/>
<path fill-rule="evenodd" clip-rule="evenodd" d="M33.4623 24.6148C33.4941 24.61 33.5268 24.6062 33.5604 24.6028C33.8476 24.5759 34.2239 24.6447 34.5361 24.8236C34.5722 24.9059 34.5924 24.9968 34.5924 25.0926C34.5924 25.3321 34.4658 25.5424 34.2753 25.6597C34.1084 25.652 33.8986 25.6448 33.6379 25.6391L33.5417 25.6362C33.3714 25.5154 33.2603 25.3172 33.2603 25.0926C33.2603 24.9049 33.3372 24.7361 33.4618 24.6148H33.4623Z" fill="#625D54"/>
<path d="M33.9267 25.3924C34.0922 25.3924 34.2264 25.2582 34.2264 25.0927C34.2264 24.9272 34.0922 24.793 33.9267 24.793C33.7611 24.793 33.627 24.9272 33.627 25.0927C33.627 25.2582 33.7611 25.3924 33.9267 25.3924Z" fill="#402F24"/>
<path d="M33.7906 25.1574C33.8597 25.1574 33.9157 25.1014 33.9157 25.0323C33.9157 24.9632 33.8597 24.9072 33.7906 24.9072C33.7215 24.9072 33.6655 24.9632 33.6655 25.0323C33.6655 25.1014 33.7215 25.1574 33.7906 25.1574Z" fill="white"/>
<path d="M40.8808 25.3924C41.0463 25.3924 41.1805 25.2582 41.1805 25.0927C41.1805 24.9272 41.0463 24.793 40.8808 24.793C40.7152 24.793 40.5811 24.9272 40.5811 25.0927C40.5811 25.2582 40.7152 25.3924 40.8808 25.3924Z" fill="#402F24"/>
<path d="M40.7447 25.1574C40.8138 25.1574 40.8698 25.1014 40.8698 25.0323C40.8698 24.9632 40.8138 24.9072 40.7447 24.9072C40.6756 24.9072 40.6196 24.9632 40.6196 25.0323C40.6196 25.1014 40.6756 25.1574 40.7447 25.1574Z" fill="white"/>
<path fill-rule="evenodd" clip-rule="evenodd" d="M38.8286 25.4395C38.8286 25.4395 38.8555 25.3255 38.9287 25.2736C39.0023 25.2216 39.0321 25.2091 39.0321 25.2091C39.0321 25.2091 39.3078 24.6789 40.1314 24.4288C40.9545 24.1786 41.4582 24.4018 41.692 24.5322C41.9258 24.6626 42.2221 24.7694 42.4593 24.7304C42.6965 24.6915 42.7436 24.588 42.7436 24.588C42.7436 24.588 42.7393 24.8295 42.5671 25.071C42.3948 25.3125 42.1682 25.3414 42.1682 25.3414C42.1682 25.3414 41.5582 24.7545 40.8491 24.6635C40.14 24.5731 39.5844 24.8752 39.3746 25.0277C39.1649 25.1802 39.0701 25.2846 39.0701 25.2846C39.0701 25.2846 38.8748 25.3322 38.8281 25.4395H38.8286Z" fill="#413024"/>
<path fill-rule="evenodd" clip-rule="evenodd" d="M32.5102 25.155C32.5102 25.155 32.2476 25.2286 32.0797 25.0905C31.9118 24.9525 31.9546 24.582 31.9546 24.582C31.9546 24.582 32.0705 24.8582 32.3077 24.7331C32.5449 24.608 32.924 24.3021 33.6008 24.3367C34.2777 24.3713 34.7088 24.6513 34.8896 24.9275C35.071 25.2031 35.1052 25.3628 35.1052 25.3628C35.1052 25.3628 35.1716 25.4576 35.1802 25.5288C35.1889 25.6 35.1494 25.664 35.1494 25.664C35.1494 25.664 35.1547 25.5904 35.1259 25.5399C35.097 25.4898 35.0705 25.4413 35.0705 25.4413C35.0705 25.4413 34.8824 24.889 34.1714 24.7206C33.4604 24.5527 32.8571 24.7398 32.5098 25.1555L32.5102 25.155Z" fill="#413024"/>
<path fill-rule="evenodd" clip-rule="evenodd" d="M34.4694 31.9536C34.5122 31.9098 34.6075 32.0686 34.759 31.8641C34.9101 31.6592 35.7784 31.1815 36.0666 31.2965C36.3548 31.4114 36.4952 31.3171 36.6141 31.2676C36.7329 31.218 37.4954 31.1781 38.23 31.4518C38.9651 31.7256 39.2398 31.9295 39.4298 31.919C39.6198 31.9084 40.0172 31.4711 40.0095 31.7689C40.0018 32.0667 39.5967 31.9493 39.4481 32.0734C39.2994 32.1975 38.6024 33.5359 36.7175 33.5787C34.8326 33.621 34.6662 32.1143 34.6662 32.1143C34.6662 32.1143 34.3785 32.045 34.4694 31.9531V31.9536Z" fill="#B14F49"/>
<path fill-rule="evenodd" clip-rule="evenodd" d="M35.23 32.0845C35.23 32.0845 35.4205 31.9392 36.7473 31.9084C38.0741 31.8776 38.6322 32.0845 38.6322 32.0845C37.6921 32.3774 36.0642 32.6031 35.23 32.0845Z" fill="white"/>
<path fill-rule="evenodd" clip-rule="evenodd" d="M36.1176 32.7073C36.1176 32.7073 36.7189 32.8276 37.5695 32.6573C38.42 32.487 38.534 32.4288 38.4931 32.5524C38.4518 32.6761 37.5353 33.0802 36.7891 33.0845C36.0425 33.0888 35.75 32.7309 36.118 32.7073H36.1176Z" fill="#C25F5B"/>
<path fill-rule="evenodd" clip-rule="evenodd" d="M44.8412 28.5874C44.8412 28.5874 44.0917 29.359 42.5922 30.3953C41.0927 31.4315 41.3573 31.4758 42.5042 31.1227C43.6506 30.77 44.9514 28.8077 44.8412 28.5869V28.5874Z" fill="#B88667"/>
<path fill-rule="evenodd" clip-rule="evenodd" d="M32.0117 28.96C32.0117 28.96 33.7094 31.0767 33.3126 31.5174C32.9157 31.9585 32.056 29.3126 32.0117 28.96Z" fill="#B88667"/>
</svg>
