<svg width="85" height="212" viewBox="0 0 85 212" fill="none" xmlns="http://www.w3.org/2000/svg">
<path fill-rule="evenodd" clip-rule="evenodd" d="M34.715 34.3133C35.6451 36.2535 37.0615 41.6216 35.2892 42.4631C33.787 43.1763 30.5925 44.7109 29.2964 45.3413C28.0003 45.9717 26.7749 47.5646 26.9932 50.5437C27.2115 53.5227 28.0003 56.04 28.0003 56.04C28.0003 56.04 47.7169 60.9859 50.6751 58.6451C53.6326 56.3044 57.3306 41.2282 53.4769 40.6915C53.286 40.6648 51.7925 40.4617 51.616 40.4408C48.2148 40.038 47.2566 40.5546 46.016 37.8147C44.7112 34.9315 45.6226 29.9409 45.6226 29.9409C45.6226 29.9409 38.7423 34.4279 34.715 34.3133Z" fill="#C99676"/>
<path fill-rule="evenodd" clip-rule="evenodd" d="M48.5166 48.6523C48.5166 48.6523 47.4763 53.5269 45.9482 55.6249C44.4201 57.7228 47.9446 60.3943 48.3639 57.1926C48.7832 53.9909 48.5173 48.6523 48.5173 48.6523H48.5166Z" fill="#B07C5C"/>
<path fill-rule="evenodd" clip-rule="evenodd" d="M28.568 110.943C28.568 110.943 28.5248 113.951 29.9398 121.733C30.207 123.204 30.5075 124.953 30.8173 126.822C32.5399 121.948 35.1738 114.788 35.9743 112.617C31.4621 111.058 28.9275 110.951 28.568 110.943ZM33.9001 148.365C35.1126 156.134 37.2811 170.873 37.0881 174.512C36.895 178.15 33.7056 186.13 33.7056 186.13C33.7056 186.13 32.5744 187.434 34.1457 188.681C35.7171 189.928 37.2905 189.946 37.2905 189.946L37.6918 189.401C37.6752 189.164 37.7213 189.006 37.7213 189.006C37.7213 189.006 37.7213 189.006 38.4259 183.421C38.7379 180.945 39.1435 178.611 39.2429 176.186C39.3683 173.141 39.1046 169.949 38.6147 166.143C37.735 159.306 35.5766 152.924 33.9001 148.364V148.365ZM45.7198 151.689C45.7825 149.694 45.5872 147.279 45.1643 144.397C44.7414 141.515 42.9345 138.141 42.9345 138.141C42.9345 138.141 43.5606 133.497 44.1096 128.241C41.1846 132.798 38.3914 136.98 38.3914 136.98C38.3914 136.98 41.3791 140.362 43.2818 143.887C45.1845 147.413 45.4172 149.932 45.7198 151.688V151.689Z" fill="#B07C5C"/>
<path fill-rule="evenodd" clip-rule="evenodd" d="M29.0607 54.5089C29.7394 55.0305 31.3136 55.6659 34.9094 55.4037C39.6118 55.0614 43.3927 53.4469 44.6621 52.8446C46.8566 43.4391 50.4574 40.942 52.082 40.2843C52.9538 39.9313 53.3068 40.2173 53.4516 40.5451C53.4372 40.5465 48.152 41.0717 45.3696 53.2711C45.7867 54.3086 46.7349 56.4526 48.2658 58.7703C50.4099 62.016 48.8148 73.4027 48.8148 73.4027C48.8148 73.4027 50.5079 77.0085 52.8003 80.6958C55.0921 84.3831 60.0978 92.182 58.5654 101.894C57.033 111.605 51.0568 119.701 51.0568 119.701C51.0568 119.701 44.884 116.14 38.4165 113.532C31.949 110.924 28.5233 110.943 28.5233 110.943C28.5233 110.943 27.6141 90.945 27.4275 84.6727C27.1998 77.0158 27.4376 74.0461 27.4671 70.8545C27.4765 69.7976 26.5406 66.5505 26.465 66.0195C26.465 66.0195 22.4074 61.4735 27.9073 54.194C27.9448 54.1299 27.9837 54.0643 28.024 53.9981C29.2956 51.9253 32.0405 48.7294 31.4058 44.3736C31.3691 43.8815 32.1263 43.7972 32.145 44.1192C32.7149 48.7942 30.5204 52.1177 29.1883 54.2934C29.1436 54.3669 29.1011 54.4383 29.0607 54.5089Z" fill="#D5C1B5"/>
<path fill-rule="evenodd" clip-rule="evenodd" d="M35.9735 112.617C34.9116 115.497 30.6263 127.149 29.5168 130.611C28.2474 134.571 28.1948 135.411 29.6753 139.473C31.1558 143.536 37.3978 156.692 38.614 166.144C39.8308 175.597 39.1291 177.836 38.4252 183.421C37.7206 189.007 37.7206 189.007 37.7206 189.007C37.7206 189.007 37.0787 191.208 41.4489 191.539C45.8199 191.87 46.1535 189.66 46.085 187.519C46.0166 185.378 46.4618 183.017 46.9539 180.818C47.446 178.621 47.3891 177.379 46.2716 174.368C45.1542 171.356 45.5656 167.718 45.7234 161.523C45.8812 155.327 46.8062 149.408 43.8977 144.021C40.9893 138.633 39.8452 137.421 39.8452 137.421C39.8452 137.421 48.3602 124.719 51.1808 119.528C50.2896 119.034 41.7566 114.879 38.4158 113.532C35.0751 112.185 36.7321 112.878 35.9735 112.616V112.617Z" fill="#C99676"/>
<path fill-rule="evenodd" clip-rule="evenodd" d="M33.7191 186.074C32.9007 186.653 31.753 187.872 29.6176 190.282C27.4822 192.692 27.815 193.22 28.5665 193.223C29.2725 193.225 34.5722 193.566 36.1463 192.74C36.2731 192.364 36.405 192 36.5339 191.661C36.8387 190.862 37.0858 190.318 37.281 189.947C37.1622 189.944 35.6838 189.903 34.1442 188.682C32.6046 187.461 33.6781 186.163 33.6781 186.163L33.7184 186.075L33.7191 186.074Z" fill="#BA9F8A"/>
<path fill-rule="evenodd" clip-rule="evenodd" d="M37.688 189.306C37.4863 189.542 36.7846 189.725 36.0223 191.725C35.2601 193.725 34.4827 197.983 36.4049 197.851C38.3271 197.719 46.3522 195.16 46.6281 192.013C46.904 188.865 47.6612 186.862 48.1511 184.413C48.6418 181.965 49.8651 180.454 49.9307 178.78C49.9919 177.233 48.6483 175.89 46.3428 174.562C47.3911 177.434 47.435 178.67 46.9538 180.82C46.4617 183.017 46.0164 185.379 46.0849 187.52C46.1533 189.661 45.819 191.871 41.4488 191.54C38.0821 191.285 37.6895 189.921 37.6873 189.307L37.688 189.306Z" fill="#D4C1B5"/>
<path fill-rule="evenodd" clip-rule="evenodd" d="M49.5467 180.447C49.4725 180.98 49.3551 181.637 49.1714 182.382C48.6274 184.591 48.827 187.877 48.8076 188.675C48.6945 188.87 47.8025 188.847 47.8047 188.712L47.853 185.753C47.9589 185.315 48.0597 184.872 48.1519 184.413C48.4783 182.784 49.1282 181.57 49.5467 180.447Z" fill="#A68C7A"/>
<path fill-rule="evenodd" clip-rule="evenodd" d="M39.6937 178.21C39.6937 178.21 38.4121 185.849 38.2644 187.793C38.1167 189.736 42.0107 177.657 39.6937 178.21Z" fill="#E6B79A"/>
<path fill-rule="evenodd" clip-rule="evenodd" d="M29.4238 111.355C29.4238 111.355 29.5384 114.221 30.2041 118.636C30.8698 123.053 31.3136 124.2 31.2458 123.831C31.1781 123.463 30.6724 111.725 30.6724 111.725C30.6724 111.725 30.2019 111.224 29.4238 111.355Z" fill="#C99676"/>
<path fill-rule="evenodd" clip-rule="evenodd" d="M36.714 113.527L38.4373 114.321C38.4373 114.321 35.9661 118.564 33.0483 124.606C30.1298 130.648 29.7847 131.332 29.7847 131.332C29.7847 131.332 31.7047 126.298 36.714 113.527Z" fill="#E6B79A"/>
<path fill-rule="evenodd" clip-rule="evenodd" d="M35.9735 112.617L35.542 113.789C39.8777 114.135 48.8494 118.293 50.3653 120.971C50.6715 120.445 50.9467 119.959 51.1815 119.528C50.7003 119.261 47.1953 117.452 44.6053 116.208C42.3992 115.15 39.9533 114.151 38.4166 113.532C35.0759 112.185 36.7329 112.878 35.9743 112.616L35.9735 112.617Z" fill="#B07C5C"/>
<path fill-rule="evenodd" clip-rule="evenodd" d="M27.4979 90.0762C27.4979 90.0762 25.6399 99.4845 26.0325 104.497C26.4259 109.51 26.4324 108.168 27.0649 110.154C27.6975 112.141 27.977 113.044 27.977 113.044C27.977 113.044 28.7508 114.146 28.7248 113.838C28.6989 113.53 28.3106 106.046 28.3106 106.046C28.3106 106.046 28.7421 107.281 29.1982 108.142C29.6542 109.003 29.8761 109.191 30.1593 109.059C30.4424 108.926 30.1377 107.446 29.7911 106.453C29.4446 105.459 29.5915 104.09 29.1975 102.776C28.8034 101.463 28.204 100.69 28.204 100.69C27.9028 99.7425 27.6809 93.7281 27.4972 90.0762H27.4979Z" fill="#B88667"/>
<path fill-rule="evenodd" clip-rule="evenodd" d="M56.9413 92.6516C57.4629 95.0104 57.6272 97.5557 57.133 100.185C55.6265 108.2 49.123 118.012 49.123 118.012C49.123 118.012 48.7325 117.792 48.0322 117.419C49.3708 115.407 51.7317 111.404 54.4082 104.822C56.607 99.4145 57.0299 95.3115 56.942 92.6509L56.9413 92.6516Z" fill="#B99E8A"/>
<path fill-rule="evenodd" clip-rule="evenodd" d="M49.7384 75.2615C50.4546 76.6541 51.201 78.1217 52.4646 80.1548L52.6894 80.5172C51.6289 81.1259 50.42 81.8068 47.9027 86.994C45.3855 92.1813 45.1823 95.2806 45.5332 98.2338C45.884 101.187 46.0274 101.073 45.7363 104.127C45.4453 107.18 44.6787 111.388 44.0894 112.203C43.5001 113.017 43.093 113.007 43.093 113.007C43.093 113.007 42.8538 114.63 42.3632 115.221L42.0685 115.089C41.9583 113.907 41.4309 108.291 41.2876 107.777C41.1276 107.203 40.7206 110.371 40.7206 110.371C40.7206 110.371 40.7083 110.78 40.7234 112.818C40.7299 113.678 40.7213 114.188 40.709 114.49C40.2364 114.286 39.753 114.082 39.2602 113.877L38.9951 107.633C38.9951 107.633 38.7408 110.19 38.2926 111.795C38.0888 112.525 37.802 112.948 37.5506 113.191L37.369 113.122C37.2674 112.901 37.217 112.659 37.2321 112.393C37.3503 110.301 37.0542 104.825 42.8711 91.0465C47.7594 79.4682 46.7406 75.6743 49.7384 75.2607V75.2615Z" fill="#A38976"/>
<path d="M31.7119 93.7749C31.7155 93.7828 32.9396 96.424 40.0569 98.3721L39.9431 98.7086C32.6478 96.7122 31.8963 94.2093 31.892 94.2014L31.7119 93.7749ZM31.735 100.232C31.7472 100.239 36.0995 102.751 40.3523 101.712L40.4553 102.051C36.0325 103.132 32.3135 100.857 32.3005 100.849L31.735 100.231V100.232Z" fill="#B99E8A"/>
<path fill-rule="evenodd" clip-rule="evenodd" d="M34.5642 34.6885C34.5642 34.6885 35.5181 36.5602 36.0037 38.8037C36.0418 38.9802 36.0764 39.1488 36.1074 39.3094C37.1737 39.5782 38.7954 39.6091 40.5937 38.3195C42.5295 36.9312 44.2507 35.1726 45.2975 34.0127C45.2492 31.8643 45.6224 29.9414 45.6224 29.9414C45.6224 29.9414 38.8458 34.8037 34.5635 34.6885H34.5642Z" fill="#B07C5C"/>
<path fill-rule="evenodd" clip-rule="evenodd" d="M34.5645 34.6887C34.5645 34.6887 34.9485 35.4423 35.3533 36.5662C37.1026 37.8846 39.1436 36.8385 41.256 35.7434C43.3684 34.6483 45.158 33.2629 45.3309 32.4358C45.4166 31.0057 45.6234 29.9409 45.6234 29.9409C45.6234 29.9409 38.8468 34.8032 34.5645 34.688V34.6887Z" fill="#996A4C"/>
<path fill-rule="evenodd" clip-rule="evenodd" d="M43.9483 15.7811C47.0873 18.1989 47.8488 21.3098 46.9576 24.8904C46.0671 28.4711 45.6817 30.1915 45.2941 31.2167C44.9065 32.2419 44.5996 33.0949 42.3071 34.4962C40.0146 35.8982 38.0888 36.8096 36.5543 36.2404C35.019 35.672 33.5875 34.8284 32.8641 33.0913C32.1401 31.3543 31.5652 29.8147 31.2136 28.345C30.8627 26.8753 31.2676 26.546 31.2568 24.9791C31.246 23.4121 31.0724 23.34 30.9636 21.861C30.8995 20.9914 30.5205 19.1059 32.277 16.8279C35.153 13.0988 40.2372 12.923 43.9483 15.7811Z" fill="#C99676"/>
<path fill-rule="evenodd" clip-rule="evenodd" d="M47.0132 23.9776C47.2372 23.8616 47.5067 23.7168 47.993 23.8969C48.4793 24.0771 49.109 25.4135 48.2804 27.0504C47.4519 28.6872 47.0643 29.4797 46.8741 29.7492C46.6839 30.0186 45.9519 30.2873 45.6753 29.6238C45.9707 28.5575 46.5161 26.1995 46.8287 24.8904C47.1414 23.5814 46.9642 24.2788 47.0139 23.9776H47.0132Z" fill="#C99676"/>
<path fill-rule="evenodd" clip-rule="evenodd" d="M45.9361 29.8445C45.8813 29.7833 45.8626 29.7559 45.8208 29.6565C46.1162 28.5902 46.6753 26.1306 46.9714 24.8907C47.2675 23.6508 47.0492 24.5521 47.0823 24.3842C47.2523 24.3201 47.4685 24.2733 47.73 24.2841C48.4649 24.3136 48.5074 25.7444 48.2422 26.39C47.9778 27.0348 47.9778 27.0348 47.9778 27.0348C47.9778 27.0348 48.2365 26.1969 48.176 25.4692C48.1154 24.7416 47.4922 24.7689 47.3273 24.9512C47.1616 25.1328 46.8863 25.6292 47.0074 26.225C47.1284 26.8201 46.9966 27.5592 46.6875 27.7574C46.4339 27.9202 45.9577 29.2206 45.9361 29.8452V29.8445Z" fill="#B07C5C"/>
<path fill-rule="evenodd" clip-rule="evenodd" d="M30.4282 45.1885C30.0421 45.3599 29.7056 45.5134 29.4578 45.6337C28.3541 46.1705 27.3108 47.5271 27.4967 50.0645C27.612 51.6372 27.9131 53.058 28.1264 53.9117C28.1264 53.9117 27.4448 50.9975 28.1883 48.2295C28.6653 46.455 29.7272 45.5847 30.4282 45.1885Z" fill="#E6B79A"/>
<path fill-rule="evenodd" clip-rule="evenodd" d="M37.1118 100.334C36.4814 100.99 36.0859 103.378 36.1399 105.499C36.1932 107.62 36.0073 109.562 36.0073 109.562C36.0073 109.562 37.1932 110.331 37.5109 107.839C37.6471 106.768 37.3164 104.961 37.1348 103.943C36.8935 102.593 37.1125 100.334 37.1125 100.334H37.1118Z" fill="#B88667"/>
<path fill-rule="evenodd" clip-rule="evenodd" d="M53.5432 40.7007C54.5454 40.8887 55.7529 41.2179 56.5598 41.7806C58.1671 42.9002 59.1037 44.4167 58.389 48.8281C57.7723 52.6371 56.7305 58.583 55.4611 63.1045C54.7766 65.5425 54.0929 68.201 53.7291 70.157C53.3646 72.1123 52.9164 75.3263 50.8495 80.6137C48.7825 85.9011 47.0945 87.8621 45.9907 90.9644C44.887 94.0674 44.8647 94.0839 44.8301 94.6315C44.7955 95.179 44.9389 95.5061 44.7501 96.1797C44.5614 96.8533 44.7725 97.3958 44.931 98.1977C45.0895 99.0003 45.6406 100.389 45.2941 102.979C44.9475 105.569 44.8042 106.728 44.7011 107.636C44.5981 108.544 44.5614 110.654 44.2408 111.691C43.9202 112.728 43.364 112.559 43.2602 111.622C43.1565 110.685 43.1997 108.754 43.1442 107.551C43.0888 106.347 43.1125 105.822 43.1125 105.822C43.1125 105.822 42.619 109.35 42.6759 110.532C42.7321 111.713 42.6846 115.185 42.052 115.117C41.4188 115.048 41.0737 110.532 41.0492 109.693C41.0247 108.854 41.1961 106.811 41.1961 106.811C41.1961 106.811 40.9375 106.624 40.8388 107.198C40.7401 107.773 40.3438 110.694 40.3438 110.694C40.3438 110.694 40.3705 113.679 40.2596 114.639C40.1486 115.599 39.8705 115.987 39.4627 115.955C39.0542 115.923 38.9411 115.491 38.7985 113.832C38.6558 112.174 38.6955 110.808 38.7401 110.19C38.7848 109.571 38.8669 106.944 38.8669 106.944C38.8669 106.944 38.5586 106.624 38.4973 107.12C38.4354 107.618 38.2481 109.4 38.2481 109.4C38.2481 109.4 38.0535 111.558 37.7826 112.397C37.5118 113.236 36.9059 113.483 36.8021 112.763C36.6984 112.043 36.7646 109.814 36.8007 109.356C36.8367 108.899 36.9102 105.461 36.7711 104.381C36.6328 103.301 36.5961 101.415 36.9484 100.624C38.5924 96.9355 38.7272 95.8707 39.9548 92.272C40.6407 90.2612 42.2797 86.7908 43.2912 81.4652C44.6903 74.1015 47.3495 69.4978 47.3502 69.3098C47.351 69.0202 48.1204 49.5593 48.2811 47.4916C48.5239 44.3678 51.3833 41.0883 53.5425 40.6992L53.5432 40.7007Z" fill="#C99676"/>
<path fill-rule="evenodd" clip-rule="evenodd" d="M28.981 55.0138C29.6596 55.5354 31.2338 56.1708 34.8296 55.9093C39.5096 55.5685 43.2776 53.9677 44.5643 53.3589C43.5341 54.0512 37.478 56.6989 33.607 56.5606C29.5948 56.4172 28.981 55.0145 28.981 55.0145V55.0138Z" fill="#E0D0C4"/>
<path fill-rule="evenodd" clip-rule="evenodd" d="M30.9312 52.4551C30.9312 52.4551 31.9391 53.035 32.5226 54.2605C32.6833 54.5984 32.7813 54.8981 32.8389 55.1568C33.0169 55.1597 33.202 55.1611 33.3929 55.1604C33.1278 54.2015 32.4852 52.8946 30.9319 52.4551H30.9312Z" fill="#E6B79A"/>
<path fill-rule="evenodd" clip-rule="evenodd" d="M39.7509 52.1777C39.7509 52.1777 38.7127 52.4991 37.73 53.2044C37.0528 53.6907 36.467 54.5192 36.1436 55.0408C36.4087 55.0127 36.6695 54.981 36.9274 54.9464C37.3734 54.1583 38.2739 52.8939 39.7509 52.1777Z" fill="#E6B79A"/>
<path fill-rule="evenodd" clip-rule="evenodd" d="M34.4856 55.431C34.2479 54.6112 33.7947 53.6623 32.9453 52.7935C32.9453 52.7935 33.5145 53.9872 33.5253 55.4642C33.8271 55.4613 34.147 55.4505 34.4864 55.4317L34.4856 55.431Z" fill="#B07C5C"/>
<path fill-rule="evenodd" clip-rule="evenodd" d="M38.8589 25.329C38.8589 25.329 39.3106 24.3261 40.6153 24.1885C41.9201 24.0509 42.7774 24.1899 42.7003 24.6417C42.6232 25.0934 41.7738 25.682 40.6384 25.682C39.503 25.682 38.8589 25.329 38.8589 25.329Z" fill="#B07C5C"/>
<path fill-rule="evenodd" clip-rule="evenodd" d="M35.3235 25.5285C35.3235 25.5285 35.0685 24.5285 33.8495 24.3232C32.6305 24.1179 31.6622 24.1856 31.7342 24.6416C31.8063 25.0977 32.6355 25.5328 33.696 25.5912C34.7573 25.6503 35.3228 25.5285 35.3228 25.5285H35.3235Z" fill="#B07C5C"/>
<path fill-rule="evenodd" clip-rule="evenodd" d="M37.7404 24.1317C37.7404 24.1317 37.5682 24.0539 37.5337 23.8385C37.4991 23.6231 37.5769 23.3212 37.8269 23.2261C38.0769 23.131 40.9284 22.5071 41.025 22.5064C41.4572 22.5021 42.9615 23.0287 43.1806 23.4675C43.1806 23.4675 43.0689 23.6224 42.8614 23.528C42.6546 23.4336 41.6971 22.925 41.0077 23.0539C40.3182 23.1829 38.1453 23.8904 37.7404 24.1317Z" fill="#413024"/>
<path fill-rule="evenodd" clip-rule="evenodd" d="M34.4346 23.2695C34.4346 23.2695 34.9562 24.0707 35.1716 24.562C35.3812 25.0404 35.5008 25.4295 35.4122 25.9669C35.2321 27.0613 34.8611 28.2997 34.9691 27.8905C35.2926 26.6665 35.3913 25.6492 35.0902 25.1492C34.7883 24.6492 33.6334 23.5462 33.1421 23.2522C32.6507 22.959 33.9872 23.0541 34.4353 23.2695H34.4346Z" fill="#B07C5C"/>
<path fill-rule="evenodd" clip-rule="evenodd" d="M31.6073 23.4587C31.6073 23.4587 32.0209 23.0725 32.2557 23.1136C32.4913 23.1547 33.8054 23.5358 34.193 23.6482C34.5813 23.7606 34.6325 23.7692 34.6325 23.7692C34.6325 23.7692 34.938 23.3124 34.2571 23.0624C33.5763 22.8124 32.4596 22.5625 32.3134 22.5365C32.1671 22.5106 31.6758 23.0711 31.6758 23.0711C31.6758 23.0711 31.5677 23.2173 31.6066 23.4594L31.6073 23.4587Z" fill="#413024"/>
<path fill-rule="evenodd" clip-rule="evenodd" d="M37.9259 24.1655C37.9259 24.1655 37.5801 24.5776 37.3906 25.311C37.2011 26.0437 37.2278 26.5451 37.2624 26.3809C37.297 26.2173 37.3748 25.2087 38.1932 24.5185C39.0124 23.829 39.3481 23.708 39.1327 23.708C38.9173 23.708 38.1154 24.0358 37.9259 24.1648V24.1655Z" fill="#B07C5C"/>
<path fill-rule="evenodd" clip-rule="evenodd" d="M31.999 24.7648C31.999 24.7648 32.3657 24.1481 33.486 24.1524C34.6071 24.1568 35.0984 25.0494 35.0984 24.9846C35.0984 24.9197 34.7533 24.1654 33.7231 23.9932C32.6928 23.821 32.0639 24.4629 31.999 24.7648Z" fill="#805438"/>
<path fill-rule="evenodd" clip-rule="evenodd" d="M38.4561 25.0971C38.4561 25.0971 39.1333 24.5884 39.3444 24.4119C39.5555 24.2354 39.853 24.2267 40.5727 24.3471C41.2925 24.4681 41.5857 24.6446 41.7672 24.9551C41.9488 25.2656 41.9567 25.386 41.9567 25.386C41.9567 25.386 41.9481 24.7051 41.3876 24.4551C40.8271 24.2051 39.6887 24.0848 39.456 24.1706C39.2233 24.257 38.6974 24.7224 38.4561 25.0971Z" fill="#805438"/>
<path fill-rule="evenodd" clip-rule="evenodd" d="M34.7598 28.7673C34.7598 28.7673 34.6301 28.9827 34.638 29.2983C34.6452 29.6139 34.8895 29.8149 35.1474 29.8437C35.406 29.8725 35.4132 29.8365 35.4132 29.8365C35.4132 29.8365 34.5372 29.9582 34.7598 28.7666V28.7673Z" fill="#805438"/>
<path fill-rule="evenodd" clip-rule="evenodd" d="M37.6743 28.7095C37.6743 28.7095 37.8609 29.0178 37.8105 29.3917C37.76 29.7649 37.3652 29.8442 37.3652 29.8442C37.3652 29.8442 37.7456 29.9162 37.9755 29.5502C38.2053 29.1843 37.6743 28.7102 37.6743 28.7102V28.7095Z" fill="#B07C5C"/>
<path fill-rule="evenodd" clip-rule="evenodd" d="M35.3595 29.7253C35.3595 29.7253 35.0187 29.7325 35.0295 29.6072C35.0404 29.4818 35.2233 29.5604 35.3379 29.6396C35.4525 29.7189 35.6463 29.9732 36.0447 29.9163C36.4431 29.8586 36.554 29.4782 36.8739 29.4422C37.1931 29.4062 37.3083 29.6828 37.1642 29.672C37.0209 29.6612 36.6261 29.6324 36.59 29.6504C36.554 29.6684 36.2831 29.9753 35.8804 29.9227C35.4777 29.8694 35.4236 29.7102 35.3588 29.7261L35.3595 29.7253Z" fill="#805438"/>
<path d="M35.9011 29.1015C35.9842 29.1015 36.0516 29.0412 36.0516 28.9668C36.0516 28.8923 35.9842 28.832 35.9011 28.832C35.8179 28.832 35.7505 28.8923 35.7505 28.9668C35.7505 29.0412 35.8179 29.1015 35.9011 29.1015Z" fill="#E6B79A"/>
<path fill-rule="evenodd" clip-rule="evenodd" d="M32.2959 25.1557C32.2959 25.1557 32.6583 24.7126 33.3478 24.6478C33.8614 24.5995 34.6626 24.8574 34.865 25.5065C34.865 25.5065 35.0113 25.6881 34.8953 25.7688C34.7793 25.8495 34.6323 25.745 34.6323 25.745C34.6323 25.745 34.3477 25.7047 33.4256 25.6845C32.5034 25.6643 32.2966 25.4511 32.2959 25.1564V25.1557Z" fill="white"/>
<path fill-rule="evenodd" clip-rule="evenodd" d="M38.9782 25.6971C38.9782 25.6971 38.6591 25.7836 38.5942 25.6452C38.5287 25.5055 38.7225 25.3484 38.8586 25.329C38.8586 25.329 39.4134 24.6107 40.3874 24.6453C41.3615 24.6798 41.9566 25.3859 41.9566 25.3859C41.9566 25.3859 41.7246 25.8045 40.6641 25.8052C39.6036 25.8052 39.3406 25.5984 38.9782 25.6971Z" fill="white"/>
<path fill-rule="evenodd" clip-rule="evenodd" d="M32.2959 25.1557C32.2959 25.1557 32.311 25.137 32.3413 25.1074C32.378 25.253 32.5048 25.4979 32.9429 25.5577C33.5769 25.6442 34.1453 25.5361 34.4472 25.6225C34.7008 25.6946 34.8931 25.7457 34.8845 25.5339C34.9198 25.588 34.9839 25.7076 34.8953 25.7688C34.7793 25.8495 34.6323 25.7443 34.6323 25.7443C34.6323 25.7443 34.3477 25.704 33.4256 25.6838C32.5034 25.6636 32.2966 25.4504 32.2959 25.1557Z" fill="#EDBA9D"/>
<path fill-rule="evenodd" clip-rule="evenodd" d="M38.9783 25.6973C38.9783 25.6973 38.6591 25.7838 38.5943 25.6455C38.533 25.5151 38.6973 25.3695 38.8298 25.335C38.801 25.389 38.7686 25.4618 38.7722 25.5136C38.7787 25.6059 38.8954 25.6087 39.033 25.5655C39.1713 25.5223 39.2614 25.5201 39.4149 25.5439C39.5683 25.5677 40.0827 25.7269 40.8759 25.6714C41.4581 25.6303 41.7635 25.4848 41.9191 25.3458C41.9436 25.371 41.9559 25.3861 41.9559 25.3861C41.9559 25.3861 41.7239 25.8047 40.6634 25.8054C39.6029 25.8054 39.3399 25.5986 38.9775 25.6973H38.9783Z" fill="#EDBA9D"/>
<path fill-rule="evenodd" clip-rule="evenodd" d="M32.2961 25.1552C32.2961 25.1552 32.6585 24.7121 33.348 24.6473C33.8595 24.599 34.6556 24.8548 34.8624 25.4982C34.6109 25.228 34.1268 24.9557 33.4481 24.9686C32.719 24.983 32.4301 25.1754 32.3177 25.3036C32.3019 25.2568 32.2954 25.2078 32.2954 25.1552H32.2961Z" fill="#ADA89F"/>
<path fill-rule="evenodd" clip-rule="evenodd" d="M38.9438 25.2346C39.134 25.0408 39.6355 24.6186 40.3876 24.6452C41.3617 24.6798 41.9568 25.3859 41.9568 25.3859C41.9568 25.3859 41.9251 25.4428 41.8314 25.5156C41.6074 25.2937 41.2082 25.012 40.5958 24.9608C39.7961 24.8938 39.1823 25.1265 38.9446 25.2353L38.9438 25.2346Z" fill="#ADA89F"/>
<path fill-rule="evenodd" clip-rule="evenodd" d="M40.2176 24.6467C40.2731 24.6439 40.3293 24.6431 40.3877 24.6453C40.7385 24.6575 41.0404 24.7577 41.2832 24.8802C41.3163 24.9594 41.3343 25.0459 41.3343 25.1366C41.3343 25.5041 41.0361 25.8023 40.6686 25.8023C40.3012 25.8023 40.0029 25.5048 40.0029 25.1366C40.0029 24.9428 40.0858 24.7685 40.2176 24.6467Z" fill="#625D54"/>
<path fill-rule="evenodd" clip-rule="evenodd" d="M33.2501 24.6589C33.2818 24.6539 33.3142 24.6503 33.348 24.6467C33.6348 24.62 34.0116 24.6885 34.3235 24.8671C34.3596 24.9493 34.3797 25.04 34.3797 25.1359C34.3797 25.3758 34.2529 25.5854 34.0627 25.7029C33.8963 25.6949 33.6859 25.6877 33.4251 25.682L33.3293 25.6791C33.1593 25.5588 33.0483 25.3599 33.0483 25.1359C33.0483 24.9485 33.1254 24.7792 33.2501 24.6582V24.6589Z" fill="#625D54"/>
<path d="M33.7147 25.4363C33.8803 25.4363 34.0145 25.3021 34.0145 25.1366C34.0145 24.9711 33.8803 24.8369 33.7147 24.8369C33.5492 24.8369 33.415 24.9711 33.415 25.1366C33.415 25.3021 33.5492 25.4363 33.7147 25.4363Z" fill="#402F24"/>
<path d="M33.5785 25.2014C33.6477 25.2014 33.7038 25.1453 33.7038 25.076C33.7038 25.0068 33.6477 24.9507 33.5785 24.9507C33.5092 24.9507 33.4531 25.0068 33.4531 25.076C33.4531 25.1453 33.5092 25.2014 33.5785 25.2014Z" fill="white"/>
<path d="M40.6684 25.4363C40.8339 25.4363 40.9681 25.3021 40.9681 25.1366C40.9681 24.9711 40.8339 24.8369 40.6684 24.8369C40.5028 24.8369 40.3687 24.9711 40.3687 25.1366C40.3687 25.3021 40.5028 25.4363 40.6684 25.4363Z" fill="#402F24"/>
<path d="M40.5321 25.2014C40.6013 25.2014 40.6575 25.1453 40.6575 25.076C40.6575 25.0068 40.6013 24.9507 40.5321 24.9507C40.4629 24.9507 40.4067 25.0068 40.4067 25.076C40.4067 25.1453 40.4629 25.2014 40.5321 25.2014Z" fill="white"/>
<path fill-rule="evenodd" clip-rule="evenodd" d="M38.6167 25.4839C38.6167 25.4839 38.6434 25.37 38.7168 25.3182C38.7903 25.2663 38.8206 25.2533 38.8206 25.2533C38.8206 25.2533 39.0965 24.7231 39.92 24.4731C40.7435 24.2231 41.2463 24.4464 41.4805 24.5768C41.7139 24.7072 42.0107 24.8138 42.2478 24.7749C42.4848 24.736 42.5323 24.6323 42.5323 24.6323C42.5323 24.6323 42.528 24.8736 42.3558 25.115C42.1837 25.3563 41.9574 25.3852 41.9574 25.3852C41.9574 25.3852 41.3472 24.798 40.6383 24.7072C39.9294 24.6164 39.3739 24.919 39.1642 25.0718C38.9546 25.2245 38.8595 25.3282 38.8595 25.3282C38.8595 25.3282 38.6642 25.3758 38.6174 25.4831L38.6167 25.4839Z" fill="#413024"/>
<path fill-rule="evenodd" clip-rule="evenodd" d="M32.2983 25.1997C32.2983 25.1997 32.036 25.2731 31.8674 25.1355C31.6996 24.9979 31.7428 24.6269 31.7428 24.6269C31.7428 24.6269 31.8588 24.9028 32.0958 24.7775C32.3328 24.6528 32.7125 24.3459 33.389 24.3812C34.0655 24.4158 34.4971 24.6961 34.6779 24.972C34.8595 25.2479 34.8933 25.4071 34.8933 25.4071C34.8933 25.4071 34.9596 25.5015 34.9682 25.5729C34.9769 25.6442 34.938 25.7076 34.938 25.7076C34.938 25.7076 34.943 25.6341 34.9142 25.5837C34.8854 25.5332 34.8587 25.485 34.8587 25.485C34.8587 25.485 34.6707 24.9324 33.9596 24.7645C33.2485 24.5966 32.6455 24.784 32.2983 25.1997Z" fill="#413024"/>
<path fill-rule="evenodd" clip-rule="evenodd" d="M34.257 31.9984C34.3002 31.9545 34.3953 32.113 34.5466 31.9091C34.6979 31.7045 35.566 31.2268 35.8542 31.3413C36.1424 31.4559 36.2829 31.3622 36.4018 31.3125C36.5206 31.2628 37.2829 31.2232 38.0177 31.497C38.7526 31.7707 39.0271 31.9746 39.2173 31.9645C39.4075 31.9545 39.8045 31.5164 39.7965 31.8147C39.7886 32.1122 39.3837 31.9955 39.2353 32.1194C39.0862 32.2434 38.3895 33.582 36.5048 33.6245C34.6201 33.667 34.4537 32.1598 34.4537 32.1598C34.4537 32.1598 34.1662 32.0906 34.257 31.9991V31.9984Z" fill="#B14F49"/>
<path fill-rule="evenodd" clip-rule="evenodd" d="M35.0176 32.129C35.0176 32.129 35.2078 31.9835 36.5348 31.9532C37.8619 31.923 38.4196 32.129 38.4196 32.129C37.4801 32.4222 35.8519 32.6477 35.0176 32.129Z" fill="white"/>
<path fill-rule="evenodd" clip-rule="evenodd" d="M35.9048 32.7518C35.9048 32.7518 36.5064 32.8721 37.3565 32.7014C38.2073 32.5306 38.3212 32.473 38.2801 32.5962C38.239 32.7201 37.3226 33.1243 36.5762 33.1286C35.8298 33.1329 35.5373 32.7749 35.9048 32.7511V32.7518Z" fill="#C25F5B"/>
<path fill-rule="evenodd" clip-rule="evenodd" d="M44.6289 28.6318C44.6289 28.6318 43.8789 29.4034 42.3797 30.4402C40.8804 31.4762 41.1448 31.5208 42.2918 31.1678C43.438 30.8148 44.7391 28.853 44.6289 28.6326V28.6318Z" fill="#B88667"/>
<path fill-rule="evenodd" clip-rule="evenodd" d="M31.7998 29.0039C31.7998 29.0039 33.4979 31.1206 33.1009 31.5615C32.704 32.0024 31.8445 29.3569 31.7998 29.0039Z" fill="#B88667"/>
</svg>
