<svg width="85" height="212" viewBox="0 0 85 212" fill="none" xmlns="http://www.w3.org/2000/svg">
<g clip-path="url(#clip0)">
<path fill-rule="evenodd" clip-rule="evenodd" d="M36.1249 34.9307C36.1249 34.9307 36.9313 36.8024 37.3422 39.0392C37.7531 41.2761 37.3118 42.4022 35.7596 43.163C34.2075 43.9086 31.9859 44.9434 30.8294 45.5673C29.6729 46.1912 27.9534 47.4998 28.1512 50.4823C28.349 53.4496 29.6729 56.2495 29.6729 56.2495C29.6729 56.2495 47.3093 61.195 49.957 58.8516C52.6047 56.5082 55.9068 41.4587 52.4678 40.9261C52.3004 40.8957 50.9613 40.6979 50.8091 40.6827C49.9266 40.5762 46.9136 40.7892 45.8028 38.0654C44.6311 35.1894 45.4528 30.1982 45.4528 30.1982C45.4528 30.1982 39.7465 35.0524 36.1553 34.9307H36.1249Z" fill="#C99676"/>
<path fill-rule="evenodd" clip-rule="evenodd" d="M48.0092 48.8691C48.0092 48.8691 47.081 53.7385 45.7115 55.8233C44.342 57.9232 47.4919 60.5861 47.8723 57.3906C48.2527 54.195 48.0092 48.8691 48.0092 48.8691Z" fill="#B07C5C"/>
<path fill-rule="evenodd" clip-rule="evenodd" d="M29.8403 111.061C29.8403 111.061 29.6273 113.952 30.3729 118.578C31.1185 123.204 31.8946 125.06 32.1685 126.917C33.7054 122.047 36.064 114.895 36.7792 112.734C32.7467 111.182 30.1446 111.076 29.8251 111.061H29.8403ZM35.7901 152.45C36.8705 160.211 38.3922 171.715 38.2552 174.576C38.0422 178.989 34.9532 186.445 34.9532 186.445C34.9532 186.445 33.7662 187.434 35.1662 188.667C36.5661 189.914 37.9813 189.93 37.9813 189.93L38.3465 189.382C38.3313 189.138 38.377 188.986 38.377 188.986C38.377 188.986 38.377 188.986 39.0008 183.402C39.6247 177.817 40.2638 175.595 39.1682 166.146C38.6813 161.931 37.2966 156.97 35.8053 152.42L35.7901 152.45ZM45.0572 150.274C45.118 148.281 45.3311 146.82 44.8289 143.807C44.3268 140.794 43.079 140.049 42.3333 137.279C41.5877 134.495 45.255 129.443 45.1637 125.212C44.8593 124.314 37.4639 134.221 38.4835 137.005C39.503 139.79 41.6181 140.444 43.3224 143.975C45.0267 147.49 44.7833 148.54 45.0419 150.29L45.0572 150.274Z" fill="#B07C5C"/>
<path fill-rule="evenodd" clip-rule="evenodd" d="M30.6164 54.7124C31.225 55.2298 32.625 55.8689 35.851 55.6102C40.0508 55.2755 43.4442 53.6625 44.5702 53.0538C46.5332 43.665 49.7592 41.1694 51.2048 40.5151C51.9808 40.1651 52.3004 40.4542 52.4373 40.7738C52.4221 40.7738 47.6897 41.3064 45.2093 53.4799C45.5898 54.5146 46.4267 56.6602 47.7962 58.9732C49.7135 62.2144 48.2831 73.5814 48.2831 73.5814C48.2831 73.5814 49.8048 77.1878 51.8439 80.8702C53.8982 84.5527 58.2198 92.1155 56.8046 100.5C55.3894 108.869 49.3027 119.125 49.3027 119.125C49.3027 119.125 44.7528 116.265 38.9704 113.663C33.188 111.061 29.8403 111.076 29.8403 111.076C29.8403 111.076 29.7033 109.082 29.6577 106.389C29.5512 99.9522 29.5664 88.6308 30.449 84.3245C31.1489 80.8855 31.2859 79.5616 31.3315 77.0965C31.3772 73.8705 30.3272 74.677 29.9316 71.2988C29.399 66.749 29.1707 66.1099 29.1707 66.1099C29.1707 66.1099 25.0926 61.6513 30.0229 54.3929C30.0533 54.332 30.0838 54.2559 30.1294 54.1951C31.2707 52.1256 33.2945 48.9757 32.7315 44.6236C32.7011 44.1367 33.3706 44.0454 33.3858 44.365C33.888 49.0365 31.925 52.3538 30.7381 54.5298C30.6924 54.6059 30.662 54.682 30.6316 54.7429L30.6164 54.7124Z" fill="#D5C1B5"/>
<path fill-rule="evenodd" clip-rule="evenodd" d="M36.7944 112.734C33.8119 116.097 32.0163 127.251 31.012 130.705C29.8707 134.661 29.8251 135.498 31.1489 139.546C31.7576 141.403 32.9598 145.465 34.5119 149.909C36.3531 155.159 38.5444 161.063 39.1378 166.176C40.2334 175.61 39.5943 177.847 38.9704 183.432C38.3465 189.016 38.3465 189.016 38.3465 189.016C38.3465 189.016 37.7683 191.207 41.679 191.542C45.5898 191.877 45.8941 189.67 45.8332 187.525C45.7724 185.395 46.168 183.036 46.6093 180.829C47.0506 178.638 47.0049 177.39 46.0006 174.393C44.9963 171.38 45.2398 169.584 45.7267 162.098C46.2137 154.611 47.5223 149.483 44.9202 144.446C42.3181 139.424 39.9443 139.577 38.94 137.051C37.9509 134.54 46.7158 126.931 49.1505 119.019C48.3592 118.532 44.1594 115.975 38.9552 113.632C38.1791 113.282 37.4487 112.977 36.764 112.719L36.7944 112.734Z" fill="#C99676"/>
<path fill-rule="evenodd" clip-rule="evenodd" d="M34.9836 186.369C34.2532 186.947 32.7163 188.271 31.1033 190.279C28.8816 193.079 29.4903 193.216 30.1598 193.216C30.7837 193.216 35.5314 193.551 36.9466 192.729C37.0531 192.349 37.1748 191.984 37.2966 191.649C37.5705 190.858 37.7835 190.31 37.9661 189.929C37.8596 189.929 36.5053 189.869 35.1662 188.666C33.7662 187.419 34.9532 186.445 34.9532 186.445L34.9836 186.354V186.369Z" fill="#BA9F8A"/>
<path fill-rule="evenodd" clip-rule="evenodd" d="M38.3313 189.305C38.1487 189.533 37.8139 190.142 37.2966 191.664C36.4444 194.144 35.4553 197.979 37.1748 197.842C38.8943 197.705 46.0767 195.148 46.3202 192.014C46.5636 188.864 47.2484 186.87 47.6897 184.421C48.131 181.971 49.2266 180.464 49.2875 178.79C49.3483 177.238 48.1462 175.899 46.0767 174.575C47.0201 177.436 47.0506 178.684 46.6245 180.829C46.1832 183.021 45.7876 185.379 45.8484 187.525C45.9093 189.655 45.605 191.862 41.6942 191.542C38.6813 191.283 38.3313 189.929 38.3313 189.32V189.305Z" fill="#D4C1B5"/>
<path fill-rule="evenodd" clip-rule="evenodd" d="M48.9375 180.465C48.8766 180.997 48.7701 181.652 48.6027 182.397C48.1158 184.604 48.2984 187.891 48.2831 188.682C48.1766 188.88 47.3853 188.849 47.3853 188.712L47.431 185.76C47.5223 185.319 47.6136 184.878 47.7049 184.421C47.994 182.793 48.5723 181.576 48.9527 180.465H48.9375Z" fill="#A68C7A"/>
<path fill-rule="evenodd" clip-rule="evenodd" d="M40.1269 178.227C40.1269 178.227 38.9856 185.851 38.8487 187.799C38.7117 189.731 42.1964 177.679 40.1269 178.227Z" fill="#E6B79A"/>
<path fill-rule="evenodd" clip-rule="evenodd" d="M30.9359 111.471C30.9359 111.471 31.0424 114.332 31.6359 118.745C32.2293 123.158 32.625 124.299 32.5641 123.934C32.5033 123.569 32.0467 111.852 32.0467 111.852C32.0467 111.852 31.6207 111.35 30.9359 111.487V111.471Z" fill="#C99676"/>
<path fill-rule="evenodd" clip-rule="evenodd" d="M37.3422 113.951L38.9856 114.438C38.9856 114.438 36.7792 118.668 34.1619 124.71C31.5446 130.735 31.2402 131.42 31.2402 131.42C33.538 125.486 34.3901 117.497 37.327 113.951H37.3422Z" fill="#E6B79A"/>
<path fill-rule="evenodd" clip-rule="evenodd" d="M36.7944 112.734L36.0488 113.784C40.3399 114.058 47.3093 117.802 48.6636 120.48C48.8766 119.947 49.0288 119.475 49.1657 119.034C48.3745 118.547 44.1746 115.991 38.9704 113.647C38.1944 113.297 37.464 112.993 36.7792 112.734H36.7944Z" fill="#B07C5C"/>
<path fill-rule="evenodd" clip-rule="evenodd" d="M29.9164 90.0605C29.9164 90.0605 27.4056 99.632 27.6795 104.638C27.9534 109.645 27.9838 108.306 28.5164 110.284C29.049 112.262 29.2925 113.175 29.2925 113.175C29.2925 113.175 29.962 114.271 29.9468 113.966C29.9316 113.662 29.7033 106.19 29.7033 106.19C29.7033 106.19 30.0685 107.423 30.4642 108.275C30.8598 109.143 31.0576 109.325 31.3163 109.188C31.575 109.051 31.3163 107.575 31.0272 106.586C30.7381 105.597 30.8903 104.227 30.5555 102.919C30.2207 101.61 29.7033 100.834 29.7033 100.834C29.7794 96.6342 29.7642 94.7321 29.9316 90.0605H29.9164Z" fill="#B88667"/>
<path fill-rule="evenodd" clip-rule="evenodd" d="M55.5568 92.8004C56.0285 95.159 56.1655 97.7002 55.7242 100.318C54.3699 108.322 48.557 118.121 48.557 118.121C48.557 118.121 48.2071 117.908 47.5832 117.528C48.7853 115.519 50.8852 111.517 53.2895 104.943C55.2525 99.5414 55.6329 95.4481 55.5568 92.7852V92.8004Z" fill="#B99E8A"/>
<path fill-rule="evenodd" clip-rule="evenodd" d="M49.1048 75.4381C49.744 76.8228 50.2918 78.0858 51.433 80.1096L51.57 80.3531C50.6265 80.9618 49.7135 81.9661 47.4614 87.1551C45.2093 92.3288 45.0267 95.433 45.3463 98.3699C45.6658 101.322 45.7876 101.2 45.5289 104.259C45.2702 107.302 44.5854 111.502 44.0528 112.324C43.5203 113.13 43.1551 113.13 43.1551 113.13C43.1551 113.13 42.942 114.743 42.5007 115.337L42.242 115.2C42.1507 114.013 41.679 108.413 41.5421 107.896C41.4051 107.317 41.0399 110.483 41.0399 110.483C41.0399 110.483 41.0247 110.893 41.0399 112.932C41.0399 113.785 41.0399 114.302 41.0247 114.606C40.5986 114.408 40.1725 114.195 39.7313 113.998L39.4878 107.759C39.4878 107.759 39.2595 110.315 38.8639 111.913C38.6813 112.643 38.4226 113.069 38.1943 113.313L38.027 113.237C37.9357 113.024 37.89 112.78 37.9052 112.506C38.0117 110.422 37.7531 104.944 42.942 91.1875C47.3093 79.6227 46.3962 75.8337 49.0896 75.4229L49.1048 75.4381Z" fill="#A38976"/>
<path d="M32.9902 93.9258C32.9902 93.9258 34.0858 96.5735 40.4617 98.5213L40.3552 98.856C33.8271 96.8626 33.1576 94.3671 33.1576 94.3519L32.9902 93.9258V93.9258ZM33.0054 100.378C33.0206 100.378 36.9161 102.889 40.7204 101.854L40.8117 102.189C36.8553 103.269 33.5228 101.002 33.5228 100.986L33.0206 100.363L33.0054 100.378Z" fill="#B99E8A"/>
<path fill-rule="evenodd" clip-rule="evenodd" d="M36.1249 34.9303C36.1249 34.9303 36.9314 36.802 37.3422 39.0388C37.3726 39.2214 37.4031 39.3888 37.4335 39.541C38.3313 39.8149 39.7008 39.8453 41.2073 38.5519C42.8355 37.1672 44.2811 35.402 45.1637 34.2455C45.118 32.0999 45.4376 30.1826 45.4376 30.1826C45.4376 30.1826 39.7313 35.0368 36.1401 34.9151L36.1249 34.9303Z" fill="#B07C5C"/>
<path fill-rule="evenodd" clip-rule="evenodd" d="M36.1249 34.9303C36.1249 34.9303 36.4444 35.6759 36.7944 36.802C38.8183 37.5628 40.1269 36.7259 42.3181 35.3716C43.6876 34.5346 44.6007 33.5303 45.1941 32.6782C45.2702 31.2478 45.4376 30.1826 45.4376 30.1826C45.4376 30.1826 39.7313 35.0368 36.1401 34.9151L36.1249 34.9303Z" fill="#996A4C"/>
<path fill-rule="evenodd" clip-rule="evenodd" d="M31.1337 45.7496C30.7837 45.917 30.4946 46.0691 30.2664 46.1909C29.2773 46.7235 28.349 48.0778 28.5164 50.619C28.6229 52.1863 28.8968 53.6015 29.0794 54.4536C29.0794 54.4536 28.4708 51.5472 29.1403 48.7778C29.5664 47.0126 30.5098 46.13 31.1489 45.7344L31.1337 45.7496Z" fill="#E6B79A"/>
<path fill-rule="evenodd" clip-rule="evenodd" d="M37.8139 100.47C37.2509 101.124 36.9009 103.513 36.9466 105.628C36.9922 107.743 36.8248 109.691 36.8248 109.691C36.8248 109.691 37.89 110.452 38.1639 107.972C38.2856 106.906 37.9965 105.096 37.8291 104.076C37.6161 102.722 37.8139 100.47 37.8139 100.47Z" fill="#B88667"/>
<path fill-rule="evenodd" clip-rule="evenodd" d="M52.5134 40.9258C53.4112 41.1084 54.4916 41.4432 55.2068 42.0062C56.6372 43.117 57.8546 44.2887 57.0633 48.3212C56.272 52.3537 55.6938 50.6341 55.6329 55.1383C55.5872 59.4143 55.1916 60.6469 54.4003 63.112C53.6243 65.5923 52.346 68.5444 52.0113 70.4922C51.6917 72.4399 51.6309 75.4072 49.7896 80.6875C47.9484 85.9677 46.731 88.0068 45.7419 91.111C44.7528 94.2153 44.7376 94.2305 44.7072 94.7783C44.6767 95.3261 44.7985 95.6457 44.6311 96.3304C44.4637 97 44.6463 97.5478 44.7985 98.3391C44.9354 99.1456 45.4376 100.53 45.118 103.117C44.8137 105.704 44.6767 106.861 44.5854 107.774C44.4941 108.687 44.4637 110.786 44.1746 111.821C43.8855 112.856 43.3833 112.689 43.292 111.745C43.2007 110.817 43.2311 108.884 43.1855 107.682C43.1398 106.48 43.1551 105.963 43.1551 105.963C43.1551 105.963 42.7138 109.478 42.7594 110.665C42.8051 111.852 42.7746 115.306 42.1964 115.245C41.6334 115.169 41.329 110.665 41.2986 109.828C41.2834 108.991 41.4355 106.952 41.4355 106.952C41.4355 106.952 41.2073 106.769 41.116 107.332C41.0247 107.91 40.6747 110.817 40.6747 110.817C40.6747 110.817 40.7051 113.799 40.5986 114.758C40.4921 115.717 40.2486 116.097 39.8834 116.067C39.5182 116.036 39.4117 115.61 39.29 113.952C39.1682 112.293 39.1987 110.939 39.2443 110.315C39.29 109.691 39.3508 107.074 39.3508 107.074C39.3508 107.074 39.0769 106.754 39.0161 107.256C38.9552 107.758 38.7878 109.539 38.7878 109.539C38.7878 109.539 38.6204 111.699 38.377 112.536C38.1335 113.373 37.5857 113.617 37.4944 112.902C37.4031 112.186 37.4639 109.95 37.4944 109.493C37.5248 109.037 37.5857 105.598 37.4639 104.532C37.3422 103.452 37.3118 101.565 37.6161 100.774C39.0921 97.0913 39.2139 96.0261 40.3095 92.4349C40.9182 90.4263 42.2877 85.5264 42.7138 79.6375C43.2616 72.2573 46.4419 69.4726 46.4723 69.29C47.0201 66.8553 46.2136 64.2989 46.4115 58.623C46.5788 53.9819 48.5114 53.1906 47.7353 47.7125C47.9484 44.5931 50.5048 41.3214 52.4373 40.9258H52.5134Z" fill="#C99676"/>
<path fill-rule="evenodd" clip-rule="evenodd" d="M30.5403 55.2294C31.1489 55.7467 32.5489 56.3858 35.7749 56.1272C39.9595 55.7924 43.3377 54.1946 44.4789 53.5859C43.5507 54.2707 38.1335 56.9184 34.6793 56.7815C31.0881 56.6445 30.5403 55.2446 30.5403 55.2446V55.2294Z" fill="#E0D0C4"/>
<path fill-rule="evenodd" clip-rule="evenodd" d="M32.2902 52.6734C32.2902 52.6734 33.188 53.2517 33.7206 54.469C33.8575 54.8038 33.9488 55.1081 34.0097 55.3668C34.1619 55.3668 34.3293 55.3668 34.5119 55.3668C34.2684 54.4081 33.7054 53.0995 32.3054 52.6582L32.2902 52.6734Z" fill="#E6B79A"/>
<path fill-rule="evenodd" clip-rule="evenodd" d="M40.1725 52.3838C40.1725 52.3838 39.2443 52.7033 38.3617 53.4033C37.7531 53.8903 37.2357 54.712 36.9466 55.2446C37.19 55.2141 37.4183 55.1837 37.6465 55.1533C38.0422 54.362 38.8487 53.099 40.1725 52.3838Z" fill="#E6B79A"/>
<path fill-rule="evenodd" clip-rule="evenodd" d="M35.4705 55.6403C35.2575 54.8186 34.8466 53.8752 34.0858 53.0078C34.0858 53.0078 34.588 54.1947 34.6032 55.6708C34.8771 55.6708 35.1662 55.6555 35.4553 55.6403H35.4705Z" fill="#B07C5C"/>
<path fill-rule="evenodd" clip-rule="evenodd" d="M44.4333 15.7873C47.4462 18.2068 48.1766 21.311 47.3245 24.9022C46.4723 28.4781 46.1376 29.7259 45.6658 31.2476C45.1941 32.7693 45.0876 33.0432 42.8964 34.4432C40.6899 35.8431 38.8182 36.8474 37.3422 36.254C35.8662 35.6453 34.5727 34.854 33.8728 33.1193C33.1728 31.3846 32.8684 29.9085 32.3359 28.4325C31.788 26.9565 32.275 26.576 32.2598 25.0087C32.2446 23.4414 32.0772 23.3653 31.9707 21.8892C31.9098 21.0219 31.5446 19.135 33.2337 16.8525C36.0031 13.1243 40.8877 12.9417 44.4485 15.8025L44.4333 15.7873Z" fill="#C99676"/>
<path fill-rule="evenodd" clip-rule="evenodd" d="M47.5071 23.9893C47.7353 23.8676 48.0245 23.7915 48.344 23.9132C48.9983 24.1567 49.4548 25.4349 48.6331 27.0631C47.8114 28.7065 47.431 29.4826 47.2332 29.7565C47.0506 30.0152 46.4267 30.2739 46.1528 29.6043C46.4419 28.5392 46.7767 27.2001 47.3397 24.8871C47.4158 24.5828 47.4767 24.2784 47.5223 23.9741L47.5071 23.9893Z" fill="#C99676"/>
<path fill-rule="evenodd" clip-rule="evenodd" d="M46.2897 29.8477C46.2289 29.7868 46.1832 29.7107 46.1376 29.6042C46.4267 28.539 46.7615 27.2 47.3245 24.887C47.3701 24.7196 47.4006 24.5522 47.431 24.3848C47.5984 24.324 47.8114 24.2783 48.0853 24.2783C48.8157 24.3088 48.8614 25.7391 48.6027 26.3782C48.344 27.0174 48.344 27.0174 48.344 27.0174C48.344 27.0174 48.6027 26.1804 48.5418 25.45C48.481 24.7196 47.8571 24.75 47.6897 24.9326C47.5223 25.1152 47.2484 25.6174 47.3701 26.2109C47.4919 26.8043 47.3549 27.5499 47.0506 27.7478C46.7919 27.9152 46.3202 29.2086 46.305 29.8325L46.2897 29.8477Z" fill="#B07C5C"/>
<path fill-rule="evenodd" clip-rule="evenodd" d="M39.6856 25.3286C39.6856 25.3286 40.1421 24.3243 41.4355 24.1874C42.7442 24.0504 43.5963 24.1874 43.5203 24.6439C43.4442 25.1004 42.592 25.6786 41.466 25.6786C40.3247 25.6786 39.6856 25.3286 39.6856 25.3286Z" fill="#B07C5C"/>
<path fill-rule="evenodd" clip-rule="evenodd" d="M36.1553 25.5413C36.1553 25.5413 35.8966 24.537 34.6793 24.3392C33.4619 24.1414 32.488 24.2022 32.5641 24.6587C32.6402 25.1153 33.4619 25.5565 34.5271 25.6022C35.5923 25.6631 36.1553 25.5413 36.1553 25.5413V25.5413Z" fill="#B07C5C"/>
<path fill-rule="evenodd" clip-rule="evenodd" d="M38.5596 24.1413C38.5596 24.1413 38.3922 24.0652 38.3465 23.8522C38.3161 23.6392 38.3922 23.3348 38.6357 23.2435C38.8791 23.1522 41.7399 22.5283 41.8312 22.5283C42.2573 22.5283 43.7637 23.0457 43.992 23.487C43.992 23.487 43.8855 23.6392 43.6724 23.5479C43.4594 23.4565 42.516 22.9392 41.816 23.0761C41.1312 23.1979 38.9552 23.9131 38.5444 24.1565L38.5596 24.1413Z" fill="#413024"/>
<path fill-rule="evenodd" clip-rule="evenodd" d="M35.2575 23.2738C35.2575 23.2738 35.7749 24.0803 35.9879 24.5672C36.2009 25.0389 36.3227 25.4346 36.2314 25.9671C36.0488 27.0628 35.6836 28.2953 35.7901 27.8845C36.1096 26.6671 36.2162 25.6476 35.9118 25.1454C35.6075 24.6433 34.451 23.5477 33.9641 23.2433C33.4771 22.9542 34.8162 23.0455 35.2575 23.2585V23.2738Z" fill="#B07C5C"/>
<path fill-rule="evenodd" clip-rule="evenodd" d="M32.4272 23.4568C32.4272 23.4568 32.838 23.0763 33.0815 23.1068C33.3097 23.1524 34.6336 23.5328 35.014 23.6394C35.4097 23.7459 35.4553 23.7611 35.4553 23.7611C35.4553 23.7611 35.7597 23.3046 35.0749 23.0611C34.3901 22.8177 33.2793 22.559 33.1271 22.5285C32.975 22.4981 32.488 23.0611 32.488 23.0611C32.488 23.0611 32.3815 23.2133 32.4119 23.4415L32.4272 23.4568Z" fill="#413024"/>
<path fill-rule="evenodd" clip-rule="evenodd" d="M38.7574 24.1723C38.7574 24.1723 38.4074 24.5832 38.2248 25.3136C38.0422 26.044 38.0574 26.5462 38.1031 26.3788C38.1335 26.2114 38.2096 25.2071 39.0313 24.5223C39.853 23.8376 40.1878 23.7158 39.9747 23.7158C39.7617 23.7158 38.9552 24.0506 38.7726 24.1723H38.7574Z" fill="#B07C5C"/>
<path fill-rule="evenodd" clip-rule="evenodd" d="M32.8228 24.7659C32.8228 24.7659 33.188 24.142 34.3141 24.1572C35.4401 24.1572 35.927 25.055 35.927 24.9941C35.927 24.9333 35.5771 24.1724 34.5575 24.005C33.5228 23.8376 32.8989 24.4768 32.838 24.7811L32.8228 24.7659Z" fill="#805438"/>
<path fill-rule="evenodd" clip-rule="evenodd" d="M39.29 25.1002C39.29 25.1002 39.9595 24.598 40.1725 24.4154C40.3856 24.2328 40.6747 24.2328 41.4051 24.3545C42.1203 24.4763 42.4246 24.6589 42.592 24.9632C42.7746 25.2675 42.7746 25.3893 42.7746 25.3893C42.7746 25.3893 42.7594 24.7045 42.2116 24.4611C41.6486 24.2176 40.5073 24.0959 40.2791 24.1719C40.0508 24.2632 39.5182 24.7197 39.2747 25.1002H39.29Z" fill="#805438"/>
<path fill-rule="evenodd" clip-rule="evenodd" d="M35.5923 28.7676C35.5923 28.7676 35.4553 28.9806 35.4705 29.3002C35.4705 29.6197 35.7292 29.8175 35.9727 29.848C36.2314 29.8784 36.2314 29.848 36.2314 29.848C36.2314 29.848 35.3488 29.9697 35.5771 28.7828L35.5923 28.7676Z" fill="#805438"/>
<path fill-rule="evenodd" clip-rule="evenodd" d="M38.4987 28.7217C38.4987 28.7217 38.6813 29.026 38.6357 29.4064C38.59 29.7869 38.1944 29.8629 38.1944 29.8629C38.1944 29.8629 38.5748 29.939 38.803 29.5738C39.0313 29.2086 38.4987 28.7369 38.4987 28.7369V28.7217Z" fill="#B07C5C"/>
<path fill-rule="evenodd" clip-rule="evenodd" d="M36.1857 29.7261C36.1857 29.7261 35.851 29.7261 35.851 29.6043C35.8662 29.4826 36.0488 29.5587 36.1553 29.6348C36.277 29.7108 36.4596 29.9695 36.8553 29.9087C37.2509 29.8478 37.3574 29.4674 37.677 29.4369C37.9965 29.4065 38.1183 29.6804 37.9661 29.6652C37.8291 29.65 37.4335 29.6195 37.3879 29.65C37.3574 29.6652 37.0835 29.9695 36.6727 29.9239C36.277 29.8782 36.2162 29.7108 36.1553 29.7261H36.1857Z" fill="#805438"/>
<path d="M36.7335 29.102C36.8176 29.102 36.8857 29.0407 36.8857 28.9651C36.8857 28.8894 36.8176 28.8281 36.7335 28.8281C36.6495 28.8281 36.5814 28.8894 36.5814 28.9651C36.5814 29.0407 36.6495 29.102 36.7335 29.102Z" fill="#E6B79A"/>
<path fill-rule="evenodd" clip-rule="evenodd" d="M33.1271 25.1606C33.1271 25.1606 33.4923 24.7193 34.1771 24.6584C34.6945 24.6128 35.4857 24.8715 35.6988 25.5106C35.6988 25.5106 35.851 25.6932 35.7292 25.7693C35.6075 25.8453 35.4705 25.7388 35.4705 25.7388C35.4705 25.7388 35.1814 25.6932 34.2684 25.678C33.3402 25.6627 33.1424 25.4497 33.1424 25.1454L33.1271 25.1606Z" fill="white"/>
<path fill-rule="evenodd" clip-rule="evenodd" d="M39.8073 25.7091C39.8073 25.7091 39.4878 25.8004 39.4269 25.6635C39.3661 25.5265 39.5487 25.3591 39.6856 25.3439C39.6856 25.3439 40.2334 24.6287 41.2073 24.6591C42.1812 24.6896 42.7746 25.4048 42.7746 25.4048C42.7746 25.4048 42.5464 25.8308 41.4812 25.8308C40.416 25.8308 40.1573 25.6178 39.7921 25.7243L39.8073 25.7091Z" fill="white"/>
<path fill-rule="evenodd" clip-rule="evenodd" d="M33.1271 25.1609C33.1271 25.1609 33.1424 25.1457 33.1728 25.1152C33.2032 25.2674 33.3402 25.5109 33.7815 25.5717C34.4206 25.663 34.9836 25.5565 35.2879 25.6326C35.5466 25.7087 35.7292 25.7543 35.7292 25.5413C35.7597 25.6022 35.8357 25.7087 35.7444 25.7696C35.6227 25.8456 35.4858 25.7391 35.4858 25.7391C35.4858 25.7391 35.1966 25.6935 34.2836 25.6783C33.3554 25.663 33.1576 25.45 33.1576 25.1457L33.1271 25.1609Z" fill="#EDBA9D"/>
<path fill-rule="evenodd" clip-rule="evenodd" d="M39.8074 25.7084C39.8074 25.7084 39.4878 25.7997 39.4269 25.6627C39.3661 25.5258 39.5334 25.3888 39.6704 25.3584C39.64 25.4193 39.6095 25.4801 39.6095 25.541C39.6095 25.6323 39.7313 25.6323 39.8682 25.5867C40.0052 25.541 40.0965 25.541 40.2486 25.5714C40.4008 25.6019 40.9182 25.754 41.7095 25.6932C42.2877 25.6475 42.592 25.5106 42.7594 25.3736C42.7899 25.404 42.7899 25.4193 42.7899 25.4193C42.7899 25.4193 42.5616 25.8453 41.4964 25.8453C40.4312 25.8453 40.1726 25.6323 39.8074 25.7388V25.7084Z" fill="#EDBA9D"/>
<path fill-rule="evenodd" clip-rule="evenodd" d="M33.1271 25.1606C33.1271 25.1606 33.4923 24.7193 34.1771 24.6584C34.6945 24.6128 35.4857 24.8715 35.6988 25.5106C35.4401 25.2367 34.9684 24.9628 34.2836 24.978C33.5532 24.9932 33.2641 25.191 33.1576 25.3127C33.1424 25.2671 33.1424 25.2214 33.1424 25.1606H33.1271Z" fill="#ADA89F"/>
<path fill-rule="evenodd" clip-rule="evenodd" d="M39.7769 25.2374C39.9595 25.0396 40.4617 24.6287 41.2225 24.644C42.1964 24.6744 42.7899 25.3896 42.7899 25.3896C42.7899 25.3896 42.7594 25.4505 42.6681 25.5265C42.4399 25.2983 42.0442 25.0244 41.4356 24.9787C40.6291 24.9179 40.0204 25.1461 39.7769 25.2526V25.2374Z" fill="#ADA89F"/>
<path fill-rule="evenodd" clip-rule="evenodd" d="M41.0399 24.6592C41.1008 24.6592 41.1464 24.6592 41.2073 24.6592C41.5573 24.6744 41.8616 24.7657 42.1051 24.8874C42.1355 24.9635 42.1507 25.0548 42.1507 25.1461C42.1507 25.5113 41.8464 25.8157 41.4812 25.8157C41.116 25.8157 40.8117 25.5113 40.8117 25.1461C40.8117 24.9483 40.8877 24.7809 41.0247 24.6592H41.0399Z" fill="#625D54"/>
<path fill-rule="evenodd" clip-rule="evenodd" d="M34.0706 24.6585C34.101 24.6585 34.1315 24.6432 34.1619 24.6432C34.451 24.6128 34.8314 24.6889 35.1358 24.8715C35.1662 24.9476 35.1966 25.0389 35.1966 25.1454C35.1966 25.3889 35.0749 25.6019 34.8771 25.7084C34.7097 25.6932 34.4967 25.6932 34.238 25.6932H34.1467C33.9793 25.5715 33.8728 25.3737 33.8728 25.1454C33.8728 24.9628 33.9489 24.7954 34.0706 24.6737V24.6585Z" fill="#625D54"/>
<path d="M34.5423 25.4505C34.7104 25.4505 34.8467 25.3142 34.8467 25.1461C34.8467 24.9781 34.7104 24.8418 34.5423 24.8418C34.3742 24.8418 34.238 24.9781 34.238 25.1461C34.238 25.3142 34.3742 25.4505 34.5423 25.4505Z" fill="#402F24"/>
<path d="M34.4054 25.2064C34.4726 25.2064 34.5271 25.1519 34.5271 25.0846C34.5271 25.0174 34.4726 24.9629 34.4054 24.9629C34.3381 24.9629 34.2836 25.0174 34.2836 25.0846C34.2836 25.1519 34.3381 25.2064 34.4054 25.2064Z" fill="white"/>
<path d="M41.4964 25.4505C41.6645 25.4505 41.8008 25.3142 41.8008 25.1461C41.8008 24.9781 41.6645 24.8418 41.4964 24.8418C41.3283 24.8418 41.1921 24.9781 41.1921 25.1461C41.1921 25.3142 41.3283 25.4505 41.4964 25.4505Z" fill="#402F24"/>
<path d="M41.3595 25.2064C41.4267 25.2064 41.4812 25.1519 41.4812 25.0846C41.4812 25.0174 41.4267 24.9629 41.3595 24.9629C41.2922 24.9629 41.2377 25.0174 41.2377 25.0846C41.2377 25.1519 41.2922 25.2064 41.3595 25.2064Z" fill="white"/>
<path fill-rule="evenodd" clip-rule="evenodd" d="M39.4421 25.4962C39.4421 25.4962 39.4726 25.3897 39.5487 25.3288C39.6247 25.2832 39.6552 25.268 39.6552 25.268C39.6552 25.268 39.9291 24.7354 40.7508 24.4919C41.5725 24.2484 42.0747 24.4615 42.3181 24.5984C42.5464 24.7354 42.8507 24.8419 43.079 24.7962C43.3224 24.7506 43.3681 24.6593 43.3681 24.6593C43.3681 24.6593 43.3681 24.9028 43.1855 25.1462C43.0181 25.3897 42.7899 25.4201 42.7899 25.4201C42.7899 25.4201 42.1812 24.8267 41.466 24.7354C40.7508 24.6441 40.203 24.9484 39.9899 25.1006C39.7769 25.2527 39.6856 25.3593 39.6856 25.3593C39.6856 25.3593 39.4878 25.4049 39.4421 25.5114V25.4962Z" fill="#413024"/>
<path fill-rule="evenodd" clip-rule="evenodd" d="M33.1271 25.2071C33.1271 25.2071 32.8684 25.2831 32.7011 25.1462C32.5337 25.0092 32.5793 24.644 32.5793 24.644C32.5793 24.644 32.7011 24.9179 32.9293 24.7962C33.1728 24.6745 33.5532 24.3701 34.2227 24.4006C34.8923 24.431 35.3336 24.7201 35.5162 24.994C35.6988 25.2679 35.7292 25.4353 35.7292 25.4353C35.7292 25.4353 35.7901 25.5266 35.8053 25.6027C35.8205 25.6788 35.7749 25.7396 35.7749 25.7396C35.7749 25.7396 35.7749 25.6636 35.7444 25.6179C35.714 25.5723 35.6836 25.5266 35.6836 25.5266C35.6836 25.5266 35.501 24.9788 34.7858 24.8114C34.0706 24.644 33.4771 24.8266 33.1271 25.2527V25.2071Z" fill="#413024"/>
<path fill-rule="evenodd" clip-rule="evenodd" d="M35.0901 32.0083C35.1358 31.9627 35.2271 32.1301 35.3792 31.917C35.5314 31.7192 36.3988 31.2323 36.6879 31.354C36.977 31.4757 37.114 31.3692 37.2357 31.3236C37.3574 31.2779 38.1183 31.2323 38.8487 31.5062C39.5791 31.7801 39.853 31.9779 40.0508 31.9779C40.2334 31.9627 40.6443 31.5366 40.6291 31.8257C40.6139 32.1301 40.2182 32.0083 40.066 32.1301C39.9139 32.2518 39.2139 33.5909 37.3422 33.6365C35.4553 33.6822 35.2879 32.1757 35.2879 32.1757C35.2879 32.1757 34.9988 32.0996 35.0901 32.0083V32.0083Z" fill="#B14F49"/>
<path fill-rule="evenodd" clip-rule="evenodd" d="M35.851 32.1299C35.851 32.1299 36.0488 31.9777 37.3727 31.9473C38.6965 31.9169 39.2595 32.1299 39.2595 32.1299C38.3161 32.419 36.6879 32.6473 35.851 32.1299V32.1299Z" fill="white"/>
<path fill-rule="evenodd" clip-rule="evenodd" d="M36.7336 32.7543C36.7336 32.7543 37.3422 32.876 38.1792 32.7086C39.0313 32.5412 39.1378 32.4804 39.1074 32.6021C39.0617 32.7238 38.1487 33.1347 37.4031 33.1347C36.6575 33.1347 36.3683 32.7847 36.7336 32.7543V32.7543Z" fill="#C25F5B"/>
<path fill-rule="evenodd" clip-rule="evenodd" d="M45.4528 28.6309C45.4528 28.6309 44.7072 29.4069 43.2007 30.4417C41.6942 31.4764 41.9681 31.5221 43.1094 31.1721C44.2507 30.8221 45.5593 28.8591 45.4528 28.6309V28.6309Z" fill="#B88667"/>
<path fill-rule="evenodd" clip-rule="evenodd" d="M32.625 29.0107C32.625 29.0107 34.3293 31.1259 33.9184 31.5672C33.5228 32.0085 32.6554 29.3607 32.625 29.0107Z" fill="#B88667"/>
</g>
<defs>
<clipPath id="clip0">
<rect width="84.6667" height="211.667" fill="white"/>
</clipPath>
</defs>
</svg>
