<svg width="85" height="212" viewBox="0 0 85 212" fill="none" xmlns="http://www.w3.org/2000/svg">
<path fill-rule="evenodd" clip-rule="evenodd" d="M31.5024 21.9092H43.382V27.6512H31.5024V21.9092Z" fill="#C99676"/>
<path fill-rule="evenodd" clip-rule="evenodd" d="M38.8594 25.329C38.8594 25.329 39.3111 24.3261 40.6158 24.1885C41.9206 24.0509 42.7779 24.1899 42.7008 24.6417C42.6237 25.0934 41.7743 25.682 40.6389 25.682C39.5035 25.682 38.8594 25.329 38.8594 25.329Z" fill="#B07C5C"/>
<path fill-rule="evenodd" clip-rule="evenodd" d="M35.324 25.5285C35.324 25.5285 35.069 24.5285 33.85 24.3232C32.631 24.1179 31.6627 24.1856 31.7347 24.6416C31.8068 25.0977 32.636 25.5328 33.6965 25.5912C34.7577 25.6503 35.3233 25.5285 35.3233 25.5285H35.324Z" fill="#B07C5C"/>
<path fill-rule="evenodd" clip-rule="evenodd" d="M37.7409 24.1317C37.7409 24.1317 37.568 24.0539 37.5341 23.8385C37.4996 23.6231 37.5774 23.3212 37.8274 23.2261C38.0774 23.131 40.9289 22.5071 41.0255 22.5064C41.4577 22.5021 42.962 23.0287 43.181 23.4675C43.181 23.4675 43.0694 23.6224 42.8626 23.528C42.6558 23.4329 41.6984 22.925 41.0089 23.0539C40.3194 23.1829 38.1465 23.8904 37.7416 24.1317H37.7409Z" fill="#413024"/>
<path fill-rule="evenodd" clip-rule="evenodd" d="M34.435 23.2695C34.435 23.2695 34.9566 24.0707 35.1721 24.562C35.3817 25.0404 35.5013 25.4295 35.4127 25.9669C35.3097 26.593 35.144 27.2659 35.0417 27.6513H35.0309C35.3046 26.5346 35.3723 25.6161 35.0907 25.1492C34.7888 24.6492 33.6339 23.5462 33.1426 23.2522C32.6512 22.959 33.9876 23.0541 34.4358 23.2695H34.435Z" fill="#B07C5C"/>
<path fill-rule="evenodd" clip-rule="evenodd" d="M31.6078 23.4587C31.6078 23.4587 32.0213 23.0725 32.2562 23.1143C32.4918 23.1554 33.8059 23.5365 34.1935 23.6489C34.5818 23.7606 34.633 23.7692 34.633 23.7692C34.633 23.7692 34.9384 23.3124 34.2576 23.0624C33.5768 22.8124 32.4601 22.5625 32.3138 22.5365C32.1676 22.5106 31.6762 23.0711 31.6762 23.0711C31.6762 23.0711 31.5682 23.2173 31.6071 23.4587H31.6078Z" fill="#413024"/>
<path fill-rule="evenodd" clip-rule="evenodd" d="M37.9264 24.1655C37.9264 24.1655 37.5806 24.5776 37.3911 25.311C37.2016 26.0437 37.2283 26.5451 37.2629 26.3809C37.2974 26.2173 37.3753 25.2087 38.1937 24.5185C39.0128 23.829 39.3486 23.708 39.1332 23.708C38.9177 23.708 38.1159 24.0358 37.9264 24.1648V24.1655Z" fill="#B07C5C"/>
<path fill-rule="evenodd" clip-rule="evenodd" d="M31.999 24.7651C31.999 24.7651 32.3657 24.1484 33.486 24.1534C34.6071 24.1577 35.0984 25.0504 35.0984 24.9855C35.0984 24.9207 34.7533 24.1664 33.7231 23.9942C32.6928 23.822 32.0631 24.4639 31.999 24.7658V24.7651Z" fill="#805438"/>
<path fill-rule="evenodd" clip-rule="evenodd" d="M38.4563 25.0966C38.4563 25.0966 39.1335 24.5879 39.3446 24.4114C39.5557 24.2349 39.8532 24.2263 40.573 24.3466C41.2927 24.4669 41.5859 24.6441 41.7668 24.9546C41.9476 25.2651 41.9562 25.3855 41.9562 25.3855C41.9562 25.3855 41.9476 24.7046 41.3871 24.4546C40.8266 24.2046 39.6883 24.0843 39.4556 24.1701C39.2228 24.2565 38.6969 24.7219 38.4556 25.0966H38.4563Z" fill="#805438"/>
<path fill-rule="evenodd" clip-rule="evenodd" d="M32.2964 25.1557C32.2964 25.1557 32.6588 24.7126 33.3482 24.6478C33.8619 24.5995 34.6631 24.8574 34.8655 25.5065C34.8655 25.5065 35.0118 25.6881 34.8958 25.7688C34.7791 25.8495 34.6328 25.7443 34.6328 25.7443C34.6328 25.7443 34.3482 25.7039 33.4261 25.6838C32.5039 25.6636 32.2964 25.4503 32.2964 25.1557Z" fill="white"/>
<path fill-rule="evenodd" clip-rule="evenodd" d="M38.978 25.6971C38.978 25.6971 38.6588 25.7836 38.5947 25.6452C38.5291 25.5055 38.7229 25.3484 38.8591 25.329C38.8591 25.329 39.4139 24.6107 40.3879 24.6453C41.362 24.6798 41.957 25.3859 41.957 25.3859C41.957 25.3859 41.7251 25.8052 40.6646 25.8052C39.6041 25.8052 39.3411 25.5984 38.9787 25.6971H38.978Z" fill="white"/>
<path fill-rule="evenodd" clip-rule="evenodd" d="M32.2964 25.1557C32.2964 25.1557 32.3115 25.137 32.3418 25.1074C32.3785 25.253 32.5053 25.4979 32.9434 25.5577C33.5773 25.6442 34.1458 25.5361 34.4477 25.6225C34.7005 25.6946 34.8936 25.7457 34.885 25.5339C34.9203 25.5872 34.9844 25.7076 34.8958 25.7688C34.7791 25.8495 34.6328 25.7443 34.6328 25.7443C34.6328 25.7443 34.3482 25.704 33.4261 25.6838C32.5039 25.6636 32.2964 25.4504 32.2964 25.1557Z" fill="#EDBA9D"/>
<path fill-rule="evenodd" clip-rule="evenodd" d="M38.978 25.6973C38.978 25.6973 38.6589 25.7838 38.5947 25.6455C38.5335 25.5151 38.6978 25.3695 38.8303 25.335C38.8015 25.389 38.7691 25.4618 38.7727 25.5136C38.7792 25.6059 38.8959 25.6087 39.0335 25.5655C39.1711 25.5223 39.2619 25.5201 39.4146 25.5439C39.5674 25.5677 40.0825 25.7269 40.8757 25.6714C41.4578 25.6303 41.7633 25.4848 41.9189 25.3458C41.9434 25.371 41.9557 25.3861 41.9557 25.3861C41.9557 25.3861 41.7237 25.8054 40.6632 25.8054C39.6027 25.8054 39.3397 25.5986 38.9773 25.6973H38.978Z" fill="#EDBA9D"/>
<path fill-rule="evenodd" clip-rule="evenodd" d="M32.2964 25.1552C32.2964 25.1552 32.6588 24.7121 33.3482 24.6473C33.8598 24.599 34.6566 24.8548 34.8634 25.4982C34.6119 25.228 34.1278 24.9557 33.4491 24.9686C32.72 24.983 32.4311 25.1754 32.3194 25.3036C32.3036 25.2575 32.2971 25.2078 32.2971 25.1552H32.2964Z" fill="#ADA89F"/>
<path fill-rule="evenodd" clip-rule="evenodd" d="M38.9443 25.2346C39.1345 25.0408 39.636 24.6186 40.3881 24.6452C41.3622 24.6798 41.9573 25.3859 41.9573 25.3859C41.9573 25.3859 41.9256 25.4435 41.8319 25.5156C41.6078 25.2937 41.2087 25.012 40.5963 24.9608C39.7966 24.8938 39.1828 25.1265 38.9451 25.2353L38.9443 25.2346Z" fill="#ADA89F"/>
<path fill-rule="evenodd" clip-rule="evenodd" d="M40.2181 24.6467C40.2736 24.6439 40.3298 24.6431 40.3881 24.6453C40.739 24.6575 41.0409 24.7577 41.2837 24.8802C41.3168 24.9594 41.3348 25.0459 41.3348 25.1366C41.3348 25.5041 41.0373 25.8023 40.6691 25.8023C40.3017 25.8023 40.0034 25.5041 40.0034 25.1366C40.0034 24.9428 40.0863 24.7685 40.2181 24.6467Z" fill="#5B7A1D"/>
<path fill-rule="evenodd" clip-rule="evenodd" d="M33.2503 24.6589C33.282 24.6539 33.3152 24.6503 33.3483 24.6467C33.635 24.62 34.0118 24.6885 34.3238 24.8671C34.3605 24.9493 34.3807 25.04 34.3807 25.1359C34.3807 25.3758 34.2539 25.5861 34.0637 25.7029C33.8966 25.6949 33.6869 25.6877 33.4261 25.6827L33.3303 25.6798C33.1603 25.5595 33.0493 25.3606 33.0493 25.1359C33.0493 24.9485 33.1264 24.7792 33.251 24.6582L33.2503 24.6589Z" fill="#5B7A1D"/>
<path fill-rule="evenodd" clip-rule="evenodd" d="M33.7152 24.8369C33.8809 24.8369 34.0149 24.9709 34.0149 25.1366C34.0149 25.3023 33.8809 25.4363 33.7152 25.4363C33.5495 25.4363 33.4155 25.3023 33.4155 25.1366C33.4155 24.9709 33.5495 24.8369 33.7152 24.8369Z" fill="#402F24"/>
<path fill-rule="evenodd" clip-rule="evenodd" d="M33.5787 24.9517C33.6479 24.9517 33.7041 25.0079 33.7041 25.077C33.7041 25.1462 33.6479 25.2024 33.5787 25.2024C33.5096 25.2024 33.4541 25.1462 33.4541 25.077C33.4541 25.0079 33.5103 24.9517 33.5787 24.9517Z" fill="white"/>
<path fill-rule="evenodd" clip-rule="evenodd" d="M40.6688 24.8369C40.8346 24.8369 40.9686 24.9709 40.9686 25.1366C40.9686 25.3023 40.8346 25.4363 40.6688 25.4363C40.5031 25.4363 40.3691 25.3023 40.3691 25.1366C40.3691 24.9709 40.5031 24.8369 40.6688 24.8369Z" fill="#402F24"/>
<path fill-rule="evenodd" clip-rule="evenodd" d="M40.5326 24.9517C40.6017 24.9517 40.6579 25.0079 40.6579 25.077C40.6579 25.1462 40.6017 25.2024 40.5326 25.2024C40.4634 25.2024 40.4072 25.1462 40.4072 25.077C40.4072 25.0079 40.4634 24.9517 40.5326 24.9517Z" fill="white"/>
<path fill-rule="evenodd" clip-rule="evenodd" d="M38.6172 25.4839C38.6172 25.4839 38.6438 25.3693 38.7173 25.3182C38.7908 25.2663 38.8211 25.2533 38.8211 25.2533C38.8211 25.2533 39.097 24.7231 39.9205 24.4731C40.744 24.2231 41.2468 24.4464 41.481 24.5768C41.7151 24.7072 42.0112 24.8138 42.2483 24.7749C42.4853 24.736 42.5328 24.6323 42.5328 24.6323C42.5328 24.6323 42.5285 24.8736 42.3563 25.115C42.1841 25.3563 41.9579 25.3852 41.9579 25.3852C41.9579 25.3852 41.3477 24.798 40.6388 24.7072C39.9298 24.6164 39.3744 24.919 39.1647 25.0718C38.9551 25.2238 38.86 25.329 38.86 25.329C38.86 25.329 38.6647 25.3765 38.6179 25.4831L38.6172 25.4839Z" fill="#413024"/>
<path fill-rule="evenodd" clip-rule="evenodd" d="M32.2988 25.1986C32.2988 25.1986 32.0365 25.2721 31.868 25.1345C31.7001 24.9969 31.7426 24.6258 31.7426 24.6258C31.7426 24.6258 31.8586 24.9018 32.0956 24.7771C32.3326 24.6518 32.7123 24.3456 33.3888 24.3801C34.0653 24.4147 34.4962 24.695 34.6777 24.9709C34.8585 25.2468 34.8931 25.4061 34.8931 25.4061C34.8931 25.4061 34.9601 25.5012 34.9688 25.5725C34.9774 25.6438 34.9378 25.7072 34.9378 25.7072C34.9378 25.7072 34.9428 25.6337 34.914 25.5833C34.8852 25.5329 34.8585 25.4846 34.8585 25.4846C34.8585 25.4846 34.6705 24.932 33.9594 24.7641C33.2483 24.5963 32.6446 24.7836 32.2981 25.1993L32.2988 25.1986Z" fill="#413024"/>
</svg>
