<svg width="85" height="212" viewBox="0 0 85 212" fill="none" xmlns="http://www.w3.org/2000/svg">
<path fill-rule="evenodd" clip-rule="evenodd" d="M31.7144 21.8652H43.5941V27.6069H31.7144V21.8652Z" fill="#C99676"/>
<path fill-rule="evenodd" clip-rule="evenodd" d="M39.0703 25.2852C39.0703 25.2852 39.522 24.2822 40.8267 24.1446C42.1314 24.007 42.9887 24.1456 42.9117 24.5978C42.8347 25.05 41.9856 25.6379 40.8498 25.6379C39.7145 25.6379 39.0703 25.2852 39.0703 25.2852Z" fill="#B07C5C"/>
<path fill-rule="evenodd" clip-rule="evenodd" d="M35.535 25.4851C35.535 25.4851 35.28 24.485 34.0609 24.2796C32.8419 24.0746 31.874 24.142 31.9456 24.598C32.0178 25.0541 32.8467 25.489 33.9075 25.5482C34.9682 25.6069 35.5345 25.4851 35.5345 25.4851H35.535Z" fill="#B07C5C"/>
<path fill-rule="evenodd" clip-rule="evenodd" d="M37.9523 24.0875C37.9523 24.0875 37.7796 24.0101 37.7454 23.7945C37.7113 23.579 37.7887 23.2769 38.0389 23.1821C38.289 23.0873 41.1409 22.4629 41.2371 22.4624C41.6696 22.4581 43.1739 22.9849 43.3923 23.4236C43.3923 23.4236 43.2802 23.579 43.0738 23.4842C42.867 23.3895 41.9096 22.881 41.2202 23.0104C40.5309 23.1398 38.3578 23.8465 37.9533 24.088L37.9523 24.0875Z" fill="#413024"/>
<path fill-rule="evenodd" clip-rule="evenodd" d="M34.6461 23.226C34.6461 23.226 35.1676 24.0275 35.3831 24.5182C35.5929 24.9964 35.7127 25.3861 35.6241 25.923C35.5207 26.5488 35.3552 27.2223 35.2527 27.6072H35.2417C35.5154 26.4906 35.5832 25.5722 35.3018 25.1051C35.0002 24.6053 33.8446 23.5017 33.3535 23.2087C32.8623 22.9157 34.1982 23.0105 34.6466 23.226H34.6461Z" fill="#B07C5C"/>
<path fill-rule="evenodd" clip-rule="evenodd" d="M31.819 23.4148C31.819 23.4148 32.2323 23.0285 32.4675 23.0699C32.7028 23.1112 34.0171 23.4923 34.4048 23.6043C34.7931 23.7164 34.8445 23.7251 34.8445 23.7251C34.8445 23.7251 35.1505 23.2681 34.4693 23.0184C33.7886 22.7687 32.672 22.5186 32.5253 22.4926C32.3785 22.4666 31.8873 23.0271 31.8873 23.0271C31.8873 23.0271 31.7796 23.1738 31.8186 23.4148H31.819Z" fill="#413024"/>
<path fill-rule="evenodd" clip-rule="evenodd" d="M38.1375 24.1221C38.1375 24.1221 37.7916 24.5343 37.602 25.2675C37.4125 26.0002 37.4394 26.5015 37.4736 26.3379C37.5082 26.1743 37.5857 25.1655 38.4045 24.4757C39.2232 23.7858 39.5595 23.665 39.344 23.665C39.1285 23.665 38.327 23.9927 38.137 24.1221H38.1375Z" fill="#B07C5C"/>
<path fill-rule="evenodd" clip-rule="evenodd" d="M32.2104 24.721C32.2104 24.721 32.577 24.1048 33.6975 24.1091C34.8184 24.1134 35.3095 25.0058 35.3095 24.9409C35.3095 24.876 34.9646 24.1216 33.9346 23.9494C32.9046 23.7767 32.2749 24.4194 32.2104 24.721Z" fill="#805438"/>
<path fill-rule="evenodd" clip-rule="evenodd" d="M38.6675 25.0528C38.6675 25.0528 39.3443 24.5443 39.5555 24.3673C39.7667 24.1907 40.064 24.1821 40.7842 24.3028C41.5039 24.4236 41.7974 24.6001 41.9782 24.9104C42.1591 25.2207 42.1678 25.3415 42.1678 25.3415C42.1678 25.3415 42.1591 24.6607 41.5987 24.4106C41.0382 24.1609 39.9 24.0402 39.6672 24.1263C39.4343 24.2124 38.9085 24.6781 38.667 25.0528H38.6675Z" fill="#805438"/>
<path fill-rule="evenodd" clip-rule="evenodd" d="M32.5078 25.1113C32.5078 25.1113 32.8701 24.6678 33.5594 24.6033C34.0732 24.5552 34.8742 24.813 35.0768 25.462C35.0768 25.462 35.2235 25.6434 35.1071 25.7237C34.9907 25.8045 34.8439 25.6992 34.8439 25.6992C34.8439 25.6992 34.5596 25.6593 33.6374 25.639C32.7147 25.6188 32.5078 25.4052 32.5078 25.1108V25.1113Z" fill="white"/>
<path fill-rule="evenodd" clip-rule="evenodd" d="M39.1897 25.6534C39.1897 25.6534 38.8707 25.7395 38.8062 25.602C38.7403 25.462 38.9342 25.3051 39.0704 25.2859C39.0704 25.2859 39.6255 24.5672 40.5992 24.6018C41.5734 24.6364 42.168 25.3422 42.168 25.3422C42.168 25.3422 41.9357 25.7612 40.8754 25.7617C39.8151 25.7617 39.5519 25.5548 39.1897 25.6539V25.6534Z" fill="white"/>
<path fill-rule="evenodd" clip-rule="evenodd" d="M32.5078 25.1111C32.5078 25.1111 32.5227 25.0923 32.553 25.0625C32.5896 25.2078 32.7166 25.4531 33.1549 25.5128C33.7884 25.5989 34.3576 25.4911 34.6592 25.5773C34.9122 25.6494 35.1047 25.7004 35.0965 25.4887C35.1321 25.5421 35.1956 25.6619 35.1071 25.7235C34.9907 25.8043 34.8439 25.699 34.8439 25.699C34.8439 25.699 34.5596 25.659 33.6374 25.6388C32.7147 25.6186 32.5078 25.405 32.5078 25.1106V25.1111Z" fill="#EDBA9D"/>
<path fill-rule="evenodd" clip-rule="evenodd" d="M39.1896 25.6533C39.1896 25.6533 38.8706 25.7394 38.8061 25.6018C38.745 25.4714 38.9091 25.3261 39.0419 25.291C39.013 25.3454 38.9803 25.418 38.9841 25.47C38.9909 25.5623 39.1073 25.5647 39.2449 25.5215C39.3825 25.4782 39.4729 25.4762 39.6264 25.4998C39.7794 25.5234 40.2946 25.6826 41.0874 25.6268C41.6695 25.5859 41.975 25.4401 42.1309 25.3011C42.1554 25.3266 42.1679 25.3415 42.1679 25.3415C42.1679 25.3415 41.9355 25.7605 40.8752 25.761C39.815 25.761 39.5518 25.5542 39.1896 25.6533Z" fill="#EDBA9D"/>
<path fill-rule="evenodd" clip-rule="evenodd" d="M32.5078 25.1113C32.5078 25.1113 32.8701 24.6678 33.5594 24.6033C34.0713 24.5552 34.8675 24.8107 35.0744 25.4539C34.8228 25.1835 34.3383 24.9112 33.6605 24.9247C32.9316 24.9391 32.6425 25.1311 32.5304 25.2595C32.5145 25.2133 32.5078 25.1633 32.5078 25.1113Z" fill="#ADA89F"/>
<path fill-rule="evenodd" clip-rule="evenodd" d="M39.1548 25.1906C39.3448 24.9967 39.8466 24.5748 40.599 24.6013C41.5732 24.6359 42.1678 25.3417 42.1678 25.3417C42.1678 25.3417 42.136 25.3989 42.0422 25.4711C41.8185 25.2493 41.4187 24.9674 40.8063 24.9159C40.0068 24.849 39.3924 25.0814 39.1548 25.1901V25.1906Z" fill="#ADA89F"/>
<path fill-rule="evenodd" clip-rule="evenodd" d="M40.4289 24.603C40.4842 24.6001 40.5405 24.5992 40.5992 24.6011C40.9504 24.6136 41.252 24.7137 41.4945 24.8359C41.5277 24.9148 41.546 25.0014 41.546 25.0923C41.546 25.4598 41.2482 25.7581 40.8802 25.7581C40.5126 25.7581 40.2148 25.4603 40.2148 25.0923C40.2148 24.8984 40.2976 24.7243 40.4294 24.6025L40.4289 24.603Z" fill="#94470C"/>
<path fill-rule="evenodd" clip-rule="evenodd" d="M33.4618 24.6158C33.4936 24.611 33.5263 24.6072 33.56 24.6038C33.8472 24.5769 34.2234 24.6456 34.5356 24.8246C34.5722 24.9069 34.5924 24.9978 34.5924 25.093C34.5924 25.3331 34.4658 25.5429 34.2753 25.6602C34.1084 25.6525 33.8986 25.6453 33.6379 25.6396L33.5417 25.6367C33.3714 25.5159 33.2603 25.3177 33.2603 25.093C33.2603 24.9059 33.3372 24.7366 33.4618 24.6158Z" fill="#94470C"/>
<path fill-rule="evenodd" clip-rule="evenodd" d="M33.9262 24.7935C34.0917 24.7935 34.2254 24.9277 34.2254 25.0932C34.2254 25.2587 34.0917 25.3929 33.9262 25.3929C33.7607 25.3929 33.6265 25.2587 33.6265 25.0932C33.6265 24.9277 33.7607 24.7935 33.9262 24.7935Z" fill="#402F24"/>
<path fill-rule="evenodd" clip-rule="evenodd" d="M33.7901 24.9077C33.8594 24.9077 33.9152 24.9635 33.9152 25.0328C33.9152 25.1021 33.8594 25.1579 33.7901 25.1579C33.7213 25.1579 33.665 25.1021 33.665 25.0328C33.665 24.9635 33.7208 24.9077 33.7901 24.9077Z" fill="white"/>
<path fill-rule="evenodd" clip-rule="evenodd" d="M40.8803 24.7935C41.0458 24.7935 41.18 24.9277 41.18 25.0932C41.18 25.2587 41.0458 25.3929 40.8803 25.3929C40.7148 25.3929 40.5811 25.2587 40.5811 25.0932C40.5811 24.9277 40.7153 24.7935 40.8803 24.7935Z" fill="#402F24"/>
<path fill-rule="evenodd" clip-rule="evenodd" d="M40.7442 24.9077C40.8135 24.9077 40.8693 24.9635 40.8693 25.0328C40.8693 25.1021 40.8135 25.1579 40.7442 25.1579C40.6749 25.1579 40.6191 25.1021 40.6191 25.0328C40.6191 24.9635 40.6754 24.9077 40.7442 24.9077Z" fill="white"/>
<path fill-rule="evenodd" clip-rule="evenodd" d="M38.8281 25.44C38.8281 25.44 38.8551 25.326 38.9282 25.274C39.0018 25.2226 39.0321 25.2096 39.0321 25.2096C39.0321 25.2096 39.3082 24.6794 40.1314 24.4293C40.955 24.1791 41.4582 24.4023 41.692 24.5327C41.9258 24.6631 42.2221 24.7699 42.4593 24.7309C42.6965 24.6919 42.7436 24.5885 42.7436 24.5885C42.7436 24.5885 42.7393 24.83 42.5671 25.0715C42.3948 25.313 42.1682 25.3419 42.1682 25.3419C42.1682 25.3419 41.5582 24.755 40.8491 24.664C40.14 24.5731 39.5844 24.8757 39.3746 25.0282C39.1649 25.1807 39.0701 25.2851 39.0701 25.2851C39.0701 25.2851 38.8743 25.3327 38.8281 25.4395V25.44Z" fill="#413024"/>
<path fill-rule="evenodd" clip-rule="evenodd" d="M32.5097 25.155C32.5097 25.155 32.2471 25.2286 32.0792 25.0905C31.9113 24.9525 31.9541 24.582 31.9541 24.582C31.9541 24.582 32.07 24.8577 32.3072 24.7331C32.5444 24.608 32.9235 24.3016 33.6004 24.3362C34.2772 24.3708 34.7078 24.6508 34.8892 24.9265C35.07 25.2026 35.1047 25.3619 35.1047 25.3619C35.1047 25.3619 35.1715 25.4566 35.1802 25.5278C35.1889 25.599 35.1494 25.663 35.1494 25.663C35.1494 25.663 35.1547 25.5894 35.1258 25.5389C35.097 25.4889 35.07 25.4403 35.07 25.4403C35.07 25.4403 34.8824 24.888 34.1714 24.7196C33.4604 24.5512 32.8571 24.7389 32.5097 25.1545V25.155Z" fill="#413024"/>
</svg>
