<svg width="85" height="212" viewBox="0 0 85 212" fill="none" xmlns="http://www.w3.org/2000/svg">
<path fill-rule="evenodd" clip-rule="evenodd" d="M32.3125 21.9092H44.1924V27.6508H32.3125V21.9092Z" fill="#C99676"/>
<path fill-rule="evenodd" clip-rule="evenodd" d="M39.6885 25.3291C39.6885 25.3291 40.14 24.326 41.4448 24.1885C42.7496 24.051 43.6069 24.1897 43.5297 24.6415C43.4525 25.0935 42.6036 25.6819 41.4681 25.6819C40.3325 25.6819 39.6885 25.3291 39.6885 25.3291Z" fill="#B07C5C"/>
<path fill-rule="evenodd" clip-rule="evenodd" d="M36.1533 25.5291C36.1533 25.5291 35.8983 24.5292 34.6795 24.3236C33.4604 24.1185 32.4922 24.1858 32.5643 24.642C32.6365 25.0979 33.4655 25.533 34.5262 25.5918C35.5872 25.6507 36.153 25.5291 36.153 25.5291H36.1533Z" fill="#B07C5C"/>
<path fill-rule="evenodd" clip-rule="evenodd" d="M38.5707 24.1312C38.5707 24.1312 38.398 24.0538 38.3637 23.8383C38.3293 23.6228 38.407 23.3209 38.6569 23.2262C38.907 23.1313 41.7587 22.5071 41.855 22.5064C42.2875 22.5023 43.7917 23.0289 44.0104 23.4676C44.0104 23.4676 43.8985 23.6228 43.6918 23.5279C43.4847 23.433 42.5276 22.9245 41.8378 23.0538C41.1485 23.1831 38.9757 23.8901 38.5707 24.1312Z" fill="#413024"/>
<path fill-rule="evenodd" clip-rule="evenodd" d="M35.2644 23.2697C35.2644 23.2697 35.7857 24.0711 36.0012 24.5622C36.2108 25.0406 36.3305 25.4299 36.2421 25.9669C36.1389 26.5931 35.9733 27.2662 35.8707 27.6511H35.8598C36.1334 26.5345 36.2014 25.6159 35.9196 25.1488C35.6179 24.6488 34.4625 23.5455 33.9712 23.2523C33.4797 22.9591 34.816 23.054 35.2644 23.2697Z" fill="#B07C5C"/>
<path fill-rule="evenodd" clip-rule="evenodd" d="M32.4374 23.4585C32.4374 23.4585 32.8507 23.0723 33.086 23.1137C33.3213 23.1551 34.6353 23.536 35.0234 23.6483C35.4116 23.7604 35.4631 23.7689 35.4631 23.7689C35.4631 23.7689 35.7689 23.312 35.0878 23.0619C34.407 22.812 33.2906 22.5619 33.1439 22.536C32.9974 22.5101 32.5061 23.0706 32.5061 23.0706C32.5061 23.0706 32.3984 23.2171 32.4371 23.4585H32.4374Z" fill="#413024"/>
<path fill-rule="evenodd" clip-rule="evenodd" d="M38.756 24.1661C38.756 24.1661 38.41 24.5782 38.2207 25.3113C38.0311 26.0442 38.058 26.5452 38.0924 26.3815C38.1267 26.2176 38.2045 25.2092 39.0236 24.5194C39.8424 23.8296 40.1787 23.709 39.9632 23.709C39.7477 23.709 38.9461 24.0366 38.7563 24.1659L38.756 24.1661Z" fill="#B07C5C"/>
<path fill-rule="evenodd" clip-rule="evenodd" d="M32.8291 24.7649C32.8291 24.7649 33.1954 24.1485 34.3162 24.1528C35.437 24.1572 35.9285 25.0496 35.9285 24.9847C35.9285 24.9199 35.5835 24.1657 34.5535 23.9933C33.5233 23.8209 32.8937 24.4632 32.8291 24.7649Z" fill="#805438"/>
<path fill-rule="evenodd" clip-rule="evenodd" d="M39.2859 25.097C39.2859 25.097 39.9629 24.5883 40.174 24.4118C40.3849 24.2353 40.6827 24.2266 41.4025 24.3471C42.1221 24.4677 42.4155 24.6445 42.5966 24.9549C42.7777 25.2653 42.7862 25.3858 42.7862 25.3858C42.7862 25.3858 42.7775 24.705 42.2172 24.4546C41.6567 24.2048 40.5188 24.0842 40.2858 24.1701C40.0532 24.2563 39.5273 24.7219 39.2856 25.0967L39.2859 25.097Z" fill="#805438"/>
<path fill-rule="evenodd" clip-rule="evenodd" d="M33.1265 25.155C33.1265 25.155 33.4887 24.7117 34.1782 24.6472C34.6923 24.5991 35.4932 24.8569 35.6958 25.5058C35.6958 25.5058 35.8423 25.6872 35.7261 25.7678C35.6096 25.8484 35.4629 25.7436 35.4629 25.7436C35.4629 25.7436 35.1787 25.7034 34.2562 25.6833C33.3337 25.6632 33.1267 25.4496 33.1265 25.1552V25.155Z" fill="white"/>
<path fill-rule="evenodd" clip-rule="evenodd" d="M39.8078 25.6973C39.8078 25.6973 39.4887 25.7835 39.4243 25.6455C39.3587 25.5055 39.5524 25.3486 39.6885 25.3292C39.6885 25.3292 40.2434 24.6106 41.2175 24.6453C42.1917 24.6799 42.7862 25.3857 42.7862 25.3857C42.7862 25.3857 42.554 25.8048 41.4935 25.805C40.433 25.8053 40.17 25.598 39.8078 25.6973Z" fill="white"/>
<path fill-rule="evenodd" clip-rule="evenodd" d="M33.1265 25.1554C33.1265 25.1554 33.1415 25.1367 33.1717 25.1069C33.2083 25.2524 33.3352 25.4977 33.7737 25.5573C34.4073 25.6435 34.9763 25.5357 35.2779 25.6219C35.5312 25.6941 35.7234 25.7452 35.7155 25.5333C35.7508 25.5868 35.8145 25.7067 35.7261 25.7679C35.6096 25.8485 35.4629 25.7437 35.4629 25.7437C35.4629 25.7437 35.1787 25.7035 34.2562 25.6834C33.3337 25.6633 33.1267 25.4498 33.1265 25.1554Z" fill="#EDBA9D"/>
<path fill-rule="evenodd" clip-rule="evenodd" d="M39.8079 25.6969C39.8079 25.6969 39.4887 25.7831 39.4243 25.6451C39.3631 25.5146 39.5275 25.3693 39.6602 25.3345C39.6311 25.3887 39.5987 25.4616 39.6025 25.5134C39.6091 25.6059 39.7255 25.6083 39.8635 25.5652C40.0013 25.5221 40.0919 25.5202 40.2449 25.5437C40.3979 25.5672 40.9129 25.7265 41.7061 25.6708C42.2881 25.6299 42.5937 25.4843 42.7494 25.3449C42.7738 25.3703 42.7864 25.3853 42.7864 25.3853C42.7864 25.3853 42.5542 25.8044 41.4937 25.8047C40.4333 25.8049 40.1703 25.5977 39.8081 25.6969H39.8079Z" fill="#EDBA9D"/>
<path fill-rule="evenodd" clip-rule="evenodd" d="M33.1265 25.155C33.1265 25.155 33.4887 24.7117 34.1782 24.6473C34.6901 24.5991 35.4864 24.8548 35.6929 25.4979C35.4414 25.2277 34.9571 24.9553 34.279 24.9686C33.5502 24.9829 33.2608 25.1751 33.149 25.3032C33.1332 25.2567 33.1265 25.2073 33.1265 25.155Z" fill="#ADA89F"/>
<path fill-rule="evenodd" clip-rule="evenodd" d="M39.7734 25.2346C39.9635 25.0409 40.4654 24.6186 41.2174 24.6452C42.1917 24.6799 42.7861 25.3856 42.7861 25.3856C42.7861 25.3856 42.7544 25.443 42.6607 25.5152C42.4368 25.2934 42.0373 25.0113 41.4249 24.9602C40.6252 24.8934 40.0112 25.1259 39.7734 25.2343V25.2346Z" fill="#ADA89F"/>
<path fill-rule="evenodd" clip-rule="evenodd" d="M41.0475 24.6468C41.103 24.6439 41.1594 24.6432 41.2177 24.6451C41.5688 24.6577 41.8702 24.7577 42.1129 24.88C42.1458 24.9592 42.1642 25.0456 42.1642 25.1366C42.1642 25.5044 41.8664 25.8022 41.4986 25.8022C41.1308 25.8022 40.833 25.5042 40.833 25.1366C40.833 24.9429 40.9156 24.7688 41.0475 24.6471V24.6468Z" fill="#94470C"/>
<path fill-rule="evenodd" clip-rule="evenodd" d="M34.0801 24.6591C34.1118 24.6542 34.1445 24.6504 34.1779 24.6472C34.4648 24.6204 34.8416 24.6891 35.1534 24.8678C35.1897 24.9501 35.2101 25.0409 35.2101 25.1363C35.2101 25.3763 35.0835 25.5864 34.8934 25.7034C34.7266 25.6958 34.5169 25.6883 34.2561 25.6828L34.16 25.6799C33.9898 25.5593 33.8789 25.3608 33.8789 25.1363C33.8789 24.9492 33.9561 24.7799 34.0803 24.6591H34.0801Z" fill="#94470C"/>
<path fill-rule="evenodd" clip-rule="evenodd" d="M34.5446 24.8369C34.7102 24.8369 34.8441 24.971 34.8441 25.1364C34.8441 25.302 34.7102 25.4359 34.5446 25.4359C34.3793 25.4359 34.2451 25.3018 34.2451 25.1364C34.2451 24.971 34.3793 24.8369 34.5446 24.8369Z" fill="#402F24"/>
<path fill-rule="evenodd" clip-rule="evenodd" d="M34.4086 24.9512C34.4776 24.9512 34.5338 25.0071 34.5338 25.0763C34.5338 25.1454 34.4779 25.2013 34.4086 25.2013C34.3396 25.2013 34.2837 25.1454 34.2837 25.0763C34.2837 25.0071 34.3396 24.9512 34.4086 24.9512Z" fill="white"/>
<path fill-rule="evenodd" clip-rule="evenodd" d="M41.4982 24.8369C41.6636 24.8369 41.7977 24.971 41.7977 25.1364C41.7977 25.302 41.6636 25.4359 41.4982 25.4359C41.3329 25.4359 41.1987 25.3018 41.1987 25.1364C41.1987 24.971 41.3326 24.8369 41.4982 24.8369Z" fill="#402F24"/>
<path fill-rule="evenodd" clip-rule="evenodd" d="M41.3625 24.9512C41.4315 24.9512 41.4877 25.0071 41.4877 25.0763C41.4877 25.1454 41.4317 25.2013 41.3625 25.2013C41.2935 25.2013 41.2373 25.1454 41.2373 25.0763C41.2373 25.0071 41.2935 24.9512 41.3625 24.9512Z" fill="white"/>
<path fill-rule="evenodd" clip-rule="evenodd" d="M39.4468 25.4838C39.4468 25.4838 39.4739 25.3696 39.547 25.318C39.6206 25.2662 39.6506 25.2533 39.6506 25.2533C39.6506 25.2533 39.9267 24.7231 40.7496 24.4732C41.5731 24.2231 42.0762 24.4461 42.3101 24.5766C42.544 24.7071 42.8403 24.8137 43.0774 24.7749C43.3146 24.7362 43.3619 24.6326 43.3619 24.6326C43.3619 24.6326 43.3575 24.8739 43.1854 25.1153C43.013 25.3567 42.7866 25.3855 42.7866 25.3855C42.7866 25.3855 42.1767 24.7984 41.4678 24.7078C40.7586 24.6171 40.2032 24.9197 39.9935 25.0722C39.7836 25.2245 39.6889 25.3291 39.6889 25.3291C39.6889 25.3291 39.4933 25.3766 39.447 25.4836L39.4468 25.4838Z" fill="#413024"/>
<path fill-rule="evenodd" clip-rule="evenodd" d="M33.1282 25.199C33.1282 25.199 32.8655 25.2726 32.6974 25.1346C32.5294 24.9966 32.5723 24.6261 32.5723 24.6261C32.5723 24.6261 32.6882 24.9019 32.9253 24.7772C33.1623 24.6523 33.5417 24.346 34.2184 24.3806C34.8952 24.4153 35.3261 24.6952 35.5073 24.9712C35.6884 25.2472 35.723 25.4065 35.723 25.4065C35.723 25.4065 35.7896 25.5014 35.7983 25.5726C35.807 25.6438 35.7675 25.7077 35.7675 25.7077C35.7675 25.7077 35.7726 25.6339 35.744 25.5837C35.715 25.5336 35.6884 25.4852 35.6884 25.4852C35.6884 25.4852 35.5005 24.9327 34.7896 24.7646C34.0785 24.5964 33.4751 24.784 33.1279 25.1995L33.1282 25.199Z" fill="#413024"/>
</svg>
