<svg width="85" height="212" viewBox="0 0 85 212" fill="none" xmlns="http://www.w3.org/2000/svg">
<g clip-path="url(#clip0)">
<path fill-rule="evenodd" clip-rule="evenodd" d="M36.1252 34.9254C36.1252 34.9254 36.9259 36.7938 37.3365 39.0368C37.7472 41.2799 37.6907 42.1833 36.3356 42.8659C34.9806 43.5486 31.9881 44.9345 30.8281 45.5658C29.668 46.1972 28.5747 47.7832 28.7698 50.7603C28.9648 53.7374 29.668 56.2473 29.668 56.2473C29.668 56.2473 47.3046 61.1852 49.9531 58.8497C52.5966 56.5142 55.9073 41.4595 52.458 40.9206C52.2886 40.8949 50.9489 40.6896 50.7949 40.6691C47.7511 40.2687 46.8939 40.782 45.7852 38.0462C44.6201 35.1666 45.4311 30.1826 45.4311 30.1826C45.4311 30.1826 39.7285 35.0383 36.1252 34.9203V34.9254Z" fill="#825740"/>
<path fill-rule="evenodd" clip-rule="evenodd" d="M48.0179 48.8662C48.0179 48.8662 47.0888 53.7322 45.7184 55.8264C44.353 57.9206 47.5046 60.5897 47.8793 57.3919C48.254 54.1941 48.0179 48.8662 48.0179 48.8662Z" fill="#5F3722"/>
<path fill-rule="evenodd" clip-rule="evenodd" d="M30.1711 111.066C30.1711 111.066 30.13 114.069 31.3978 121.84C31.6391 123.308 31.906 125.053 32.1831 126.922C33.723 122.056 36.079 114.906 36.7976 112.74C32.7632 111.184 30.4944 111.077 30.1711 111.066ZM35.7915 152.463C36.8746 160.219 38.3939 171.732 38.2553 174.591C38.0449 179 34.9498 186.463 34.9498 186.463C34.9498 186.463 33.7538 187.449 35.1602 188.691C36.5666 189.938 37.973 189.953 37.973 189.953L38.3323 189.409C38.3169 189.173 38.358 189.014 38.358 189.014C38.358 189.014 38.358 189.014 38.9893 183.435C39.6207 177.855 40.2469 175.623 39.1587 166.183C38.6711 161.969 37.2903 157.011 35.7915 152.458V152.463ZM44.887 149.091C44.9435 147.099 44.9075 145.313 44.7073 144.096C43.9117 139.292 43.0289 138.224 43.0289 138.224C43.0289 138.224 43.5884 133.589 44.0811 128.339C41.4634 132.891 38.9637 137.064 38.9637 137.064C38.9637 137.064 40.7345 138.584 43.3369 143.963C44.1376 145.621 44.6149 147.335 44.887 149.091Z" fill="#5F3722"/>
<path fill-rule="evenodd" clip-rule="evenodd" d="M30.6123 54.7181C31.218 55.2416 32.6295 55.873 35.8427 55.6112C40.0516 55.2673 43.4291 53.6556 44.5686 53.055C46.5293 43.6619 49.7528 41.1724 51.2054 40.5103C51.9856 40.1561 52.2987 40.4435 52.4321 40.7721C52.4167 40.7721 47.6893 41.2956 45.1999 53.481C45.5746 54.5179 46.4215 56.6583 47.792 58.9732C49.7117 62.2121 48.2848 73.5865 48.2848 73.5865C48.2848 73.5865 49.799 77.1846 51.8521 80.87C53.9001 84.5503 58.222 92.1213 56.8105 100.498C55.3989 108.875 49.3113 119.125 49.3113 119.125C49.3113 119.125 44.7687 116.261 38.984 113.659C33.1993 111.056 30.1349 111.072 30.1349 111.072C30.1349 111.072 29.2161 90.4223 30.4583 84.3142C31.7005 78.2009 31.6286 75.5832 30.8843 72.4316C30.1401 69.2749 29.1648 66.0874 29.1648 66.0874C29.1648 66.0874 25.0893 61.632 30.0117 54.3639C30.0425 54.3023 30.0785 54.2356 30.1144 54.1688C31.2539 52.1003 33.2814 48.9538 32.7168 44.6012C32.686 44.1084 33.3635 44.0263 33.3789 44.3445C33.8871 49.0154 31.9263 52.3313 30.7355 54.5025C30.6944 54.5743 30.6585 54.6462 30.6226 54.7181H30.6123Z" fill="#D5C1B5"/>
<path fill-rule="evenodd" clip-rule="evenodd" d="M36.7973 112.74C35.8478 115.614 32.0135 127.25 31.0229 130.705C29.8885 134.657 29.8423 135.499 31.1666 139.554C32.4909 143.609 38.0754 156.749 39.1636 166.188C40.2518 175.628 39.6256 177.86 38.9942 183.44C38.3629 189.019 38.3629 189.019 38.3629 189.019C38.3629 189.019 37.788 191.216 41.6992 191.55C45.6105 191.878 45.9082 189.671 45.8466 187.536C45.785 185.401 46.1854 183.04 46.6217 180.848C47.0631 178.651 47.0117 177.414 46.0108 174.406C45.0099 171.398 44.8251 167.636 44.9689 161.446C45.1126 155.26 45.939 149.347 43.3366 143.968C40.7342 138.589 38.9634 137.07 38.9634 137.07C38.9634 137.07 46.6524 124.222 49.1778 119.038C48.3822 118.545 44.1835 115.999 38.9839 113.659C38.2037 113.309 37.48 113.007 36.7973 112.745V112.74Z" fill="#825740"/>
<path fill-rule="evenodd" clip-rule="evenodd" d="M34.9856 186.376C34.2516 186.956 32.7117 188.275 31.1102 190.292C28.8928 193.09 29.4985 193.228 30.1709 193.228C30.8023 193.228 35.545 193.572 36.9514 192.746C37.0644 192.371 37.1824 192.007 37.3005 191.668C37.5725 190.867 37.7932 190.328 37.9678 189.954C37.86 189.948 36.51 189.887 35.1601 188.691C33.7537 187.444 34.9496 186.463 34.9496 186.463L34.9856 186.376Z" fill="#BA9F8A"/>
<path fill-rule="evenodd" clip-rule="evenodd" d="M38.3269 189.317C38.1473 189.553 37.8136 190.149 37.2952 191.668C36.4483 194.142 35.4576 197.981 37.1772 197.848C38.8967 197.714 46.0775 195.163 46.3239 192.017C46.5703 188.876 47.2478 186.874 47.6841 184.431C48.1204 181.987 49.2189 180.478 49.2753 178.805C49.3318 177.26 48.1307 175.92 46.0673 174.591C47.0066 177.46 47.0425 178.692 46.6165 180.838C46.1751 183.034 45.7798 185.39 45.8414 187.526C45.903 189.661 45.6053 191.868 41.6941 191.54C38.6811 191.283 38.332 189.923 38.3269 189.312V189.317Z" fill="#D4C1B5"/>
<path fill-rule="evenodd" clip-rule="evenodd" d="M48.9366 180.473C48.8699 181.007 48.7672 181.659 48.603 182.403C48.1154 184.61 48.295 187.89 48.2796 188.686C48.1769 188.881 47.3813 188.861 47.3813 188.722L47.4224 185.765C47.5148 185.329 47.6072 184.888 47.6893 184.426C47.9819 182.799 48.5619 181.587 48.9366 180.468V180.473Z" fill="#A68C7A"/>
<path fill-rule="evenodd" clip-rule="evenodd" d="M40.1236 178.235C40.1236 178.235 38.979 185.863 38.8455 187.803C38.7121 189.743 42.1973 177.681 40.1236 178.235Z" fill="#96664C"/>
<path fill-rule="evenodd" clip-rule="evenodd" d="M30.9355 111.477C30.9355 111.477 31.0382 114.336 31.6336 118.745C32.229 123.154 32.6243 124.299 32.5678 123.935C32.5062 123.565 32.0545 111.847 32.0545 111.847C32.0545 111.847 31.6336 111.349 30.9355 111.477Z" fill="#825740"/>
<path fill-rule="evenodd" clip-rule="evenodd" d="M37.4593 113.648L38.9992 114.439C38.9992 114.439 36.7869 118.679 34.1794 124.71C31.5668 130.741 31.2588 131.429 31.2588 131.429C31.2588 131.429 32.9783 126.404 37.4593 113.648Z" fill="#96664C"/>
<path fill-rule="evenodd" clip-rule="evenodd" d="M36.7976 112.74L36.4126 113.91C40.293 114.254 47.089 117.801 48.444 120.475C48.7161 119.951 48.9625 119.464 49.1729 119.033C48.3773 118.54 44.1786 115.994 38.979 113.653C38.1988 113.304 37.4751 113.002 36.7924 112.74H36.7976Z" fill="#5F3722"/>
<path fill-rule="evenodd" clip-rule="evenodd" d="M29.914 90.0579C29.914 90.0579 27.5529 99.6255 27.9019 104.63C28.2561 109.635 28.2612 108.295 28.8258 110.276C29.3904 112.258 29.6419 113.161 29.6419 113.161C29.6419 113.161 30.3349 114.259 30.3092 113.951C30.2836 113.643 29.9397 106.17 29.9397 106.17C29.9397 106.17 30.3246 107.402 30.7353 108.264C31.1407 109.126 31.3409 109.311 31.5976 109.178C31.8491 109.044 31.577 107.566 31.2691 106.575C30.9611 105.585 31.0894 104.214 30.7404 102.905C30.3862 101.591 29.8524 100.821 29.8524 100.821C29.8575 96.6228 29.8165 94.7134 29.9191 90.0527L29.914 90.0579Z" fill="#6B412B"/>
<path fill-rule="evenodd" clip-rule="evenodd" d="M55.5529 92.8037C56.02 95.1597 56.1637 97.7005 55.7223 100.329C54.3723 108.331 48.5568 118.129 48.5568 118.129C48.5568 118.129 48.2078 117.909 47.5815 117.539C48.7775 115.532 50.8922 111.534 53.2842 104.958C55.2501 99.5586 55.6299 95.4625 55.5529 92.8037Z" fill="#B99E8A"/>
<path fill-rule="evenodd" clip-rule="evenodd" d="M49.1113 75.4395C49.7529 76.8305 50.3021 78.0829 51.4313 80.1155L51.5699 80.3619C50.6203 80.9676 49.7221 81.9787 47.4688 87.1578C45.2154 92.3369 45.0358 95.432 45.3489 98.3834C45.662 101.33 45.7903 101.217 45.5285 104.266C45.2667 107.315 44.5841 111.518 44.0554 112.329C43.5267 113.14 43.1623 113.13 43.1623 113.13C43.1623 113.13 42.9467 114.752 42.5104 115.342L42.2486 115.209C42.1511 114.028 41.6789 108.418 41.5506 107.91C41.4068 107.335 41.0424 110.502 41.0424 110.502C41.0424 110.502 41.0321 110.908 41.0475 112.945C41.0527 113.803 41.0475 114.316 41.0373 114.614C40.6164 114.408 40.1801 114.203 39.7386 114.003L39.5025 107.766C39.5025 107.766 39.2767 110.322 38.8763 111.924C38.6915 112.653 38.44 113.074 38.2142 113.32L38.0499 113.253C37.9575 113.033 37.9113 112.791 37.9267 112.524C38.0345 110.435 37.7676 104.969 42.9724 91.2076C47.3456 79.6484 46.4319 75.8552 49.1164 75.4446L49.1113 75.4395Z" fill="#A38976"/>
<path d="M32.9839 93.9226C32.989 93.9277 34.0823 96.566 40.4471 98.5114L40.3444 98.845C33.8205 96.8535 33.1481 94.3538 33.143 94.3435L32.9839 93.9175V93.9226ZM33.0044 100.369C33.0147 100.375 36.9105 102.885 40.714 101.848L40.8064 102.187C36.8489 103.264 33.5228 100.996 33.5126 100.985L33.0044 100.369Z" fill="#B99E8A"/>
<path fill-rule="evenodd" clip-rule="evenodd" d="M36.1248 34.9254C36.1248 34.9254 36.9255 36.7938 37.3361 39.0368C37.3669 39.2113 37.3977 39.3807 37.4234 39.5398C38.3216 39.8067 39.687 39.8375 41.196 38.5492C42.8232 37.1633 44.2706 35.4079 45.1535 34.2479C45.1124 32.1023 45.4255 30.1826 45.4255 30.1826C45.4255 30.1826 39.7229 35.0383 36.1196 34.9203L36.1248 34.9254Z" fill="#6B412B"/>
<path fill-rule="evenodd" clip-rule="evenodd" d="M31.8337 45.4067C31.4898 45.5761 31.1869 45.7301 30.9662 45.8533C29.9807 46.3871 29.0465 47.7422 29.2108 50.2778C29.3134 51.8485 29.5855 53.2652 29.7754 54.1172C29.7754 54.1172 29.1646 51.2069 29.8319 48.4454C30.2579 46.6746 31.2075 45.8071 31.8337 45.4067Z" fill="#96664C"/>
<path fill-rule="evenodd" clip-rule="evenodd" d="M37.8136 100.472C37.249 101.129 36.8949 103.511 36.9462 105.631C36.9924 107.751 36.8281 109.686 36.8281 109.686C36.8281 109.686 37.8906 110.456 38.1729 107.966C38.2961 106.899 37.9984 105.092 37.8342 104.075C37.6186 102.725 37.8136 100.472 37.8136 100.472Z" fill="#6B412B"/>
<path fill-rule="evenodd" clip-rule="evenodd" d="M52.5143 40.926C53.4125 41.1159 54.4904 41.4445 55.2142 42.0039C56.6514 43.1229 57.3135 44.401 56.5179 48.4354C55.7223 52.4699 55.6607 51.0532 55.0961 55.257C54.5315 59.4557 54.3673 60.5131 53.7564 62.946C53.1456 65.379 52.4424 68.0019 52.1139 69.9575C51.7854 71.908 51.6571 75.4189 49.8093 80.6955C47.9614 85.9772 46.7449 88.0201 45.7594 91.1204C44.7739 94.2206 44.7534 94.236 44.7226 94.7801C44.6918 95.3242 44.8201 95.6527 44.6507 96.3251C44.4813 96.9975 44.6713 97.5416 44.815 98.3423C44.9587 99.143 45.4515 100.529 45.1384 103.116C44.8304 105.703 44.7021 106.858 44.6097 107.766C44.5173 108.675 44.4865 110.779 44.199 111.816C43.9116 112.853 43.4137 112.684 43.3213 111.749C43.2289 110.815 43.2649 108.885 43.2187 107.684C43.1673 106.483 43.193 105.959 43.193 105.959C43.193 105.959 42.7516 109.481 42.8029 110.661C42.8542 111.842 42.8132 115.306 42.2434 115.24C41.6788 115.173 41.3708 110.661 41.3452 109.825C41.3246 108.988 41.4786 106.945 41.4786 106.945C41.4786 106.945 41.2476 106.76 41.1604 107.33C41.0731 107.905 40.719 110.82 40.719 110.82C40.719 110.82 40.7446 113.803 40.642 114.757C40.5444 115.717 40.2929 116.102 39.9285 116.071C39.5641 116.04 39.4614 115.609 39.3331 113.951C39.2048 112.293 39.2407 110.933 39.2817 110.312C39.3228 109.696 39.3947 107.073 39.3947 107.073C39.3947 107.073 39.1175 106.755 39.0662 107.248C39.0097 107.746 38.8455 109.527 38.8455 109.527C38.8455 109.527 38.6709 111.683 38.4297 112.519C38.1884 113.356 37.6444 113.602 37.552 112.884C37.4596 112.165 37.516 109.937 37.552 109.481C37.5828 109.024 37.6495 105.59 37.5263 104.512C37.4031 103.434 37.3672 101.55 37.6854 100.76C39.1586 97.0745 39.2766 96.012 40.3751 92.419C40.991 90.412 42.4539 86.9473 43.3572 81.6297C44.6097 74.2743 46.9862 69.6804 46.9862 69.4905C46.9862 69.203 47.674 49.77 47.8177 47.7014C48.0333 44.5806 50.5946 41.3059 52.5246 40.9209L52.5143 40.926Z" fill="#825740"/>
<path fill-rule="evenodd" clip-rule="evenodd" d="M30.5405 55.2211C31.1462 55.7447 32.5577 56.376 35.7709 56.1143C39.9593 55.7755 43.3265 54.174 44.4814 53.5684C43.5575 54.2613 38.1423 56.9047 34.6776 56.7661C31.0897 56.6224 30.5405 55.2211 30.5405 55.2211Z" fill="#E0D0C4"/>
<path fill-rule="evenodd" clip-rule="evenodd" d="M32.2856 52.6646C32.2856 52.6646 33.189 53.2446 33.7074 54.4662C33.8512 54.805 33.9384 55.1027 33.9898 55.3593C34.1489 55.3644 34.3131 55.3644 34.4876 55.3644C34.2515 54.4046 33.6767 53.1008 32.2856 52.6646Z" fill="#96664C"/>
<path fill-rule="evenodd" clip-rule="evenodd" d="M40.1746 52.3877C40.1746 52.3877 39.2456 52.7111 38.3678 53.4143C37.7622 53.9019 37.2386 54.7283 36.9512 55.2467C37.1873 55.221 37.4234 55.1851 37.6544 55.1543C38.0547 54.369 38.8606 53.1063 40.1797 52.3877H40.1746Z" fill="#96664C"/>
<path fill-rule="evenodd" clip-rule="evenodd" d="M35.463 55.6366C35.2526 54.8153 34.8471 53.8709 34.0874 53.0034C34.0874 53.0034 34.5956 54.1942 34.6058 55.6725C34.8779 55.6674 35.1602 55.6571 35.463 55.6417V55.6366Z" fill="#5F3722"/>
<path fill-rule="evenodd" clip-rule="evenodd" d="M36.1252 34.9256C36.1252 34.9256 36.4486 35.6802 36.7874 36.7991C38.8149 37.5639 40.1238 36.717 42.3104 35.3722C43.6757 34.5304 44.5894 33.5346 45.1796 32.6774C45.2515 31.2505 45.426 30.188 45.426 30.188C45.426 30.188 39.7234 35.0437 36.1201 34.9256H36.1252Z" fill="#5F3722"/>
<path fill-rule="evenodd" clip-rule="evenodd" d="M45.5746 15.6927C48.68 18.4645 48.3413 22.0575 47.5097 24.9113C46.6782 27.7652 46.1341 29.7157 45.6568 31.2299C45.1794 32.7492 45.0819 33.0315 42.8799 34.4328C40.6779 35.8341 38.7993 36.8401 37.321 36.2396C35.8478 35.639 34.5492 34.8332 33.8512 33.0983C33.1582 31.3634 32.8503 29.88 32.3062 28.4068C31.7672 26.9286 32.2394 26.5487 32.2292 24.9781C32.2189 23.4125 32.0495 23.3407 31.9469 21.8624C31.8853 20.995 31.5208 19.1061 33.2096 16.8271C35.971 13.0955 42.1613 12.6489 45.5746 15.6927Z" fill="#825740"/>
<path fill-rule="evenodd" clip-rule="evenodd" d="M47.5045 23.9771C47.7304 23.8591 48.0281 23.7821 48.3412 23.895C48.9982 24.1363 49.455 25.4092 48.6286 27.0466C47.8022 28.684 47.4172 29.4642 47.2222 29.7465C47.0374 30.0083 46.4163 30.2649 46.1392 29.6028C46.4369 28.5351 46.7705 27.2006 47.3197 24.8908C47.3916 24.5828 47.4532 24.28 47.5045 23.9771Z" fill="#825740"/>
<path fill-rule="evenodd" clip-rule="evenodd" d="M46.2829 29.8443C46.2264 29.7827 46.1802 29.7057 46.1392 29.603C46.4369 28.5354 46.7705 27.2008 47.3197 24.891C47.3608 24.7217 47.3967 24.5523 47.4326 24.3829C47.602 24.3162 47.8176 24.27 48.0794 24.2802C48.8134 24.311 48.8544 25.7431 48.5927 26.3847C48.3258 27.0315 48.3258 27.0315 48.3258 27.0315C48.3258 27.0315 48.5824 26.1948 48.5259 25.4659C48.4644 24.7371 47.8433 24.7679 47.679 24.9475C47.5148 25.1272 47.2376 25.6251 47.3608 26.2205C47.484 26.8159 47.3505 27.555 47.0425 27.7552C46.791 27.9194 46.3137 29.2181 46.2931 29.8443H46.2829Z" fill="#5F3722"/>
<path fill-rule="evenodd" clip-rule="evenodd" d="M32.604 23.2995C32.604 23.2995 33.1943 22.8119 33.7897 23.1763C34.3851 23.5407 35.1602 24.4852 35.386 24.3825C35.6119 24.2799 35.5708 24.0181 35.0216 23.5151C34.4724 23.012 33.8102 22.509 33.2097 22.7503C32.6143 22.9915 32.3217 23.4791 32.604 23.2995Z" fill="#191716"/>
<path fill-rule="evenodd" clip-rule="evenodd" d="M38.0654 24.0695C38.0654 24.0695 38.5993 24.4699 38.8662 24.1722C39.1382 23.8745 39.9184 23.0789 41.0014 22.8736C42.0845 22.6683 42.4592 23.0789 42.567 23.2277C42.6799 23.3766 42.8287 23.2534 42.608 22.9814C42.3873 22.7042 41.3556 22.2576 40.2469 22.658C39.1382 23.0584 37.7883 23.6076 38.0603 24.0695H38.0654Z" fill="#191716"/>
<path fill-rule="evenodd" clip-rule="evenodd" d="M33.0608 24.8549C33.0608 24.8549 33.7127 24.3673 34.421 24.6393C35.1293 24.9113 35.3809 25.4811 35.3809 25.4811C35.3809 25.4811 34.6417 23.5665 33.0557 24.8549H33.0608Z" fill="#5F3722"/>
<path fill-rule="evenodd" clip-rule="evenodd" d="M38.9995 25.2091C38.9995 25.2091 39.6052 24.5008 40.642 24.4905C41.6789 24.4802 42.3513 24.9371 42.3513 24.9371C42.3513 24.9371 41.7353 24.2185 40.4675 24.3314C39.1997 24.4443 39.0098 25.0756 39.0046 25.2091H38.9995Z" fill="#5F3722"/>
<path fill-rule="evenodd" clip-rule="evenodd" d="M32.9941 25.5322C32.9941 25.5322 33.2097 25.9942 33.5844 26.1892C33.9591 26.3843 34.3492 26.3124 34.6726 26.2919C34.996 26.2713 35.2372 26.3432 35.2372 26.3432C35.2372 26.3432 35.3142 26.4151 35.3758 26.3021C35.4374 26.1892 35.2731 26.1122 35.2731 26.1122C35.2731 26.1122 35.114 25.3833 34.226 25.2242C33.338 25.0651 33.1071 25.486 32.9941 25.5322Z" fill="white"/>
<path fill-rule="evenodd" clip-rule="evenodd" d="M39.025 26.1948C39.025 26.1948 38.9121 26.3693 38.7992 26.2461C38.6863 26.1229 38.9121 25.9125 38.9121 25.9125C38.9121 25.9125 39.5229 25.1733 40.3904 25.081C41.2578 24.9937 41.9816 25.4711 42.0945 25.4916C42.2074 25.5172 42.2382 25.5172 42.2126 25.5172C42.1869 25.5172 41.5812 26.2461 40.6932 26.3539C39.8001 26.4617 39.3279 26.0973 39.0302 26.1948H39.025Z" fill="white"/>
<path fill-rule="evenodd" clip-rule="evenodd" d="M35.668 24.783C35.668 24.783 36.0529 25.2039 36.0889 26.1432C36.1248 27.0876 35.8066 28.1758 35.8066 28.1758C35.8066 28.1758 36.8896 25.1423 35.668 24.7778V24.783Z" fill="#5F3722"/>
<path fill-rule="evenodd" clip-rule="evenodd" d="M35.5914 28.7095C35.5914 28.7095 35.3553 28.884 35.2885 29.2074C35.2218 29.5359 35.3553 29.7771 35.5246 29.8233C35.6992 29.8695 35.0011 29.3767 35.5914 28.7095Z" fill="#5F3722"/>
<path fill-rule="evenodd" clip-rule="evenodd" d="M38.1626 28.7817C38.1626 28.7817 38.5117 28.9871 38.5065 29.3464C38.5014 29.7057 38.2653 29.8699 38.0959 29.9366C37.9265 30.0034 38.4398 30.0136 38.5835 29.5311C38.7272 29.0486 38.3166 28.7561 38.1575 28.7869L38.1626 28.7817Z" fill="#5F3722"/>
<path fill-rule="evenodd" clip-rule="evenodd" d="M35.5706 29.6028C35.5706 29.6028 35.7195 29.4488 35.9043 29.6285C36.0891 29.8081 36.2482 29.9929 36.628 29.9672C37.0078 29.9416 37.1567 29.7414 37.3825 29.6747C37.6135 29.6028 37.6546 29.9108 37.7726 29.8543C37.8958 29.7927 37.7983 29.3718 37.5057 29.4488C37.2183 29.5258 36.9873 29.9724 36.6229 29.9724C36.2584 29.9724 36.1866 29.8133 36.0172 29.6387C35.8427 29.4591 35.3961 29.341 35.5655 29.6131L35.5706 29.6028Z" fill="#241714"/>
<path d="M36.8796 29.2899C36.993 29.2899 37.0849 29.2278 37.0849 29.1513C37.0849 29.0747 36.993 29.0127 36.8796 29.0127C36.7662 29.0127 36.6743 29.0747 36.6743 29.1513C36.6743 29.2278 36.7662 29.2899 36.8796 29.2899Z" fill="#A37055"/>
<path fill-rule="evenodd" clip-rule="evenodd" d="M35.0112 32.0462C35.0112 32.0462 34.657 32.0873 34.6211 31.8871C34.5851 31.6921 34.6981 31.7947 34.8007 31.8768C34.9034 31.959 35.0317 31.9538 35.042 31.9025C35.0574 31.8512 35.1806 31.148 35.8068 30.9529C36.433 30.763 36.5151 31.0197 36.6537 31.0761C36.7923 31.1326 36.9155 31.0504 36.9925 30.9735C37.0695 30.8965 37.5879 30.6244 38.2911 31.1172C38.9891 31.6099 39.2509 31.9487 39.3382 32.0103C39.4203 32.0719 39.5948 32.0308 39.5794 31.923C39.564 31.8152 39.7077 31.8152 39.795 31.923C39.8771 32.0308 39.4614 32.1489 39.4614 32.1489C39.4614 32.1489 39.2099 33.0625 38.3578 33.5707C37.5057 34.0788 36.2893 34.0275 35.8016 33.6118C35.314 33.196 35.1395 32.2926 35.0112 32.0462Z" fill="#A65E53"/>
<path fill-rule="evenodd" clip-rule="evenodd" d="M36.8232 33.2009C36.8232 33.2009 37.3108 33.2933 37.7317 33.0213C38.1526 32.7441 38.4811 32.6928 38.4965 32.934C38.5119 33.1701 37.665 33.3908 37.1209 33.3549C36.5768 33.319 36.6744 33.1599 36.8232 33.2061V33.2009Z" fill="#D48579"/>
<path fill-rule="evenodd" clip-rule="evenodd" d="M35.2678 32.0257C35.2678 32.0257 35.6785 32.0616 36.0018 32.272C36.3252 32.4774 36.9052 32.6673 37.3261 32.4876C37.747 32.308 38.0293 32.231 38.3732 32.2156C38.7223 32.2002 39.0764 32.1335 39.0764 32.1335C38.5426 32.154 37.6136 31.8357 36.7769 31.8409C36.1404 31.846 35.8273 32.0513 35.2627 32.0257H35.2678Z" fill="white"/>
<path fill-rule="evenodd" clip-rule="evenodd" d="M32.9941 25.5325C32.9941 25.5325 33.2097 25.9945 33.5844 26.1895C33.9591 26.3846 34.3492 26.3127 34.6726 26.2922C34.996 26.2716 35.2372 26.3435 35.2372 26.3435C35.2372 26.3435 35.2577 26.3589 35.2834 26.364C35.114 26.1074 34.2312 26.3538 33.7333 26.1433C33.3586 25.9842 33.143 25.6506 33.0557 25.4966C33.0352 25.5171 33.0147 25.5274 32.9993 25.5376L32.9941 25.5325Z" fill="#D4926F"/>
<path fill-rule="evenodd" clip-rule="evenodd" d="M39.0253 26.1947C39.0253 26.1947 38.9535 26.3025 38.8662 26.2871C39.0869 25.7892 40.0057 26.3692 40.7756 26.1998C41.4018 26.0612 41.8741 25.6506 42.0486 25.4761C42.0691 25.4863 42.0794 25.4915 42.0897 25.4915C42.2026 25.5171 42.2334 25.5171 42.2077 25.5171C42.182 25.5171 41.5764 26.246 40.6884 26.3538C39.7953 26.4616 39.323 26.0972 39.0253 26.1947Z" fill="#D4926F"/>
<path fill-rule="evenodd" clip-rule="evenodd" d="M38.8555 25.9689C38.8811 25.933 38.9068 25.9125 38.9068 25.9125C38.9068 25.9125 39.5176 25.1733 40.3851 25.081C41.2525 24.9937 41.9763 25.4711 42.0892 25.4916C42.2021 25.5172 42.2329 25.5172 42.2072 25.5172C42.197 25.5172 42.1302 25.5891 42.0122 25.6969C40.4518 25.0964 39.2866 25.6815 38.8555 25.9689Z" fill="#ADA89F"/>
<path fill-rule="evenodd" clip-rule="evenodd" d="M32.9941 25.5322C32.9941 25.5322 33.0249 25.5989 33.0865 25.6913C33.4664 25.5425 34.5853 25.2345 35.3655 26.3175C35.3707 26.3124 35.3707 26.3073 35.3758 26.3021C35.4374 26.1892 35.2731 26.1122 35.2731 26.1122C35.2731 26.1122 35.114 25.3833 34.226 25.2242C33.338 25.0651 33.1071 25.486 32.9941 25.5322Z" fill="#ADA89F"/>
<path fill-rule="evenodd" clip-rule="evenodd" d="M34.9908 25.6194C34.8316 25.45 34.5904 25.2909 34.226 25.2242C34.0566 25.1934 33.9129 25.1831 33.7897 25.1883C33.7229 25.2909 33.687 25.409 33.687 25.5373C33.687 25.8966 33.9796 26.1892 34.3389 26.1892C34.6725 26.1892 34.9497 25.9377 34.9856 25.6143L34.9908 25.6194Z" fill="#9FABAB"/>
<path fill-rule="evenodd" clip-rule="evenodd" d="M39.9645 25.1836C40.0979 25.1374 40.2365 25.1014 40.3905 25.086C40.6317 25.0604 40.8627 25.0809 41.0732 25.122C41.1553 25.2349 41.2066 25.3735 41.2066 25.5223C41.2066 25.8919 40.9089 26.1896 40.5393 26.1896C40.1698 26.1896 39.8721 25.8919 39.8721 25.5223C39.8721 25.3991 39.908 25.2811 39.9645 25.1836Z" fill="#9FABAB"/>
<path d="M40.5391 25.8044C40.6951 25.8044 40.8215 25.678 40.8215 25.5221C40.8215 25.3661 40.6951 25.2397 40.5391 25.2397C40.3832 25.2397 40.2568 25.3661 40.2568 25.5221C40.2568 25.678 40.3832 25.8044 40.5391 25.8044Z" fill="#191716"/>
<path d="M34.3389 25.8146C34.4892 25.8146 34.611 25.6928 34.611 25.5425C34.611 25.3923 34.4892 25.2705 34.3389 25.2705C34.1887 25.2705 34.0669 25.3923 34.0669 25.5425C34.0669 25.6928 34.1887 25.8146 34.3389 25.8146Z" fill="#191716"/>
<path fill-rule="evenodd" clip-rule="evenodd" d="M32.6348 25.3424C32.6348 25.3424 32.7631 25.4758 32.8657 25.522C32.9633 25.5682 33.0095 25.5631 33.0095 25.5631C33.0095 25.5631 33.4304 25.1473 34.2106 25.3013C34.9856 25.4553 35.2731 26.1123 35.2731 26.1123C35.2731 26.1123 35.1139 25.1525 34.226 24.9471C33.3431 24.7418 32.8555 25.3783 32.6348 25.3424Z" fill="#191716"/>
<path fill-rule="evenodd" clip-rule="evenodd" d="M38.7939 26.066C38.7939 26.066 39.0557 25.6554 39.7281 25.3936C40.4057 25.1319 40.8984 25.1421 41.422 25.3166C41.9455 25.4963 42.1508 25.6144 42.3716 25.4963C42.5923 25.3782 42.6025 25.2294 42.6025 25.2294C42.6025 25.2294 42.4947 25.3115 42.3562 25.2551C42.2176 25.1935 39.646 23.9718 38.7991 26.066H38.7939Z" fill="#191716"/>
<path d="M33.8616 25.83C33.9693 25.83 34.0566 25.7427 34.0566 25.635C34.0566 25.5273 33.9693 25.4399 33.8616 25.4399C33.7538 25.4399 33.6665 25.5273 33.6665 25.635C33.6665 25.7427 33.7538 25.83 33.8616 25.83Z" fill="white"/>
<path d="M39.9387 25.83C40.0464 25.83 40.1338 25.7427 40.1338 25.635C40.1338 25.5273 40.0464 25.4399 39.9387 25.4399C39.831 25.4399 39.7437 25.5273 39.7437 25.635C39.7437 25.7427 39.831 25.83 39.9387 25.83Z" fill="white"/>
</g>
<defs>
<clipPath id="clip0">
<rect width="84.6667" height="211.667" fill="white"/>
</clipPath>
</defs>
</svg>
