<svg width="85" height="212" viewBox="0 0 85 212" fill="none" xmlns="http://www.w3.org/2000/svg">
<path fill-rule="evenodd" clip-rule="evenodd" d="M35.2561 34.6448C35.2561 34.6448 36.1156 36.5142 36.5507 38.7597C36.9859 41.0051 36.9268 41.9076 35.4764 42.5952C34.0259 43.2774 30.8243 44.6688 29.5834 45.2973C28.3425 45.9258 27.1714 47.5212 27.3809 50.4973C27.5904 53.4787 28.3425 55.9927 28.3425 55.9927C28.3425 55.9927 47.214 60.9403 50.045 58.5981C52.876 56.256 56.4161 41.1824 52.7256 40.6452C52.5429 40.6183 51.114 40.4142 50.9421 40.3927C47.6867 39.9898 46.7681 40.5055 45.5809 37.7658C44.3293 34.8811 45.2049 29.8906 45.2049 29.8906C45.2049 29.8906 39.1078 34.7522 35.2507 34.6394L35.2561 34.6448Z" fill="#825740"/>
<path fill-rule="evenodd" clip-rule="evenodd" d="M47.977 48.6118C47.977 48.6118 46.9832 53.4841 45.5167 55.5846C44.0555 57.6796 47.429 60.3548 47.8266 57.1532C48.2295 53.9515 47.9716 48.6118 47.9716 48.6118H47.977Z" fill="#5F3722"/>
<path fill-rule="evenodd" clip-rule="evenodd" d="M28.8849 110.899C28.8849 110.899 28.8419 113.908 30.1957 121.692C30.4535 123.163 30.7382 124.909 31.0337 126.779C32.6829 121.906 35.2023 114.746 35.9705 112.575C31.6515 111.018 29.2287 110.91 28.8849 110.899ZM34.8961 152.354C36.0564 160.122 37.6787 171.656 37.5337 174.514C37.3081 178.929 33.999 186.407 33.999 186.407C33.999 186.407 32.7205 187.39 34.2246 188.636C35.7287 189.883 37.2329 189.899 37.2329 189.899L37.6196 189.356C37.6035 189.12 37.6465 188.964 37.6465 188.964C37.6465 188.964 37.6465 188.964 38.3234 183.377C39.0002 177.79 39.6717 175.55 38.506 166.101C37.9849 161.879 36.5077 156.915 34.9015 152.36L34.8961 152.354ZM44.6246 148.976C44.6837 146.983 44.6461 145.194 44.4312 143.974C43.5825 139.161 42.637 138.092 42.637 138.092C42.637 138.092 43.2387 133.451 43.7597 128.192C40.961 132.747 38.2858 136.932 38.2858 136.932C38.2858 136.932 40.1821 138.452 42.9647 143.84C43.8242 145.505 44.3345 147.219 44.6246 148.976Z" fill="#5F3722"/>
<path fill-rule="evenodd" clip-rule="evenodd" d="M29.3577 54.4672C30.0077 54.9882 31.5118 55.6221 34.9552 55.3643C39.4569 55.0205 43.0722 53.4089 44.2916 52.8072C46.392 43.401 49.8354 40.9031 51.3933 40.2477C52.2259 39.8932 52.5644 40.1832 52.704 40.5109C52.6879 40.5109 47.6329 41.0374 44.9685 53.237C45.366 54.2738 46.2739 56.4172 47.7404 58.7378C49.7925 61.9825 48.2668 73.3709 48.2668 73.3709C48.2668 73.3709 49.8892 76.9755 52.0809 80.666C54.2726 84.3511 58.8979 91.9309 57.3883 100.322C55.8788 108.713 49.3681 118.978 49.3681 118.978C49.3681 118.978 44.5065 116.115 38.3181 113.504C32.1296 110.899 28.8474 110.915 28.8474 110.915C28.8474 110.915 27.8321 90.2441 28.885 84.0718C30.0722 77.1205 28.8313 70.2713 27.8106 65.861C27.8106 65.861 23.454 61.4023 28.7185 54.1234C28.7561 54.0589 28.7937 53.9944 28.8313 53.93C30.0507 51.8564 32.2209 48.7031 31.6139 44.3518C31.5817 43.8576 32.3015 43.777 32.323 44.0994C32.8656 48.7729 30.7705 52.0981 29.492 54.2738C29.449 54.349 29.4061 54.4188 29.3685 54.4886L29.3577 54.4672Z" fill="#D5C1B5"/>
<path fill-rule="evenodd" clip-rule="evenodd" d="M35.9761 112.575C34.9609 115.455 30.8567 127.106 29.7984 130.571C28.5844 134.53 28.5307 135.368 29.9489 139.435C31.367 143.496 37.3406 156.652 38.5063 166.106C39.672 175.561 39.0005 177.796 38.3237 183.382C37.6468 188.969 37.6468 188.969 37.6468 188.969C37.6468 188.969 37.0344 191.172 41.2138 191.499C45.3985 191.832 45.7154 189.619 45.651 187.481C45.5865 185.338 46.0109 182.979 46.4836 180.782C46.9563 178.585 46.9026 177.344 45.8282 174.331C44.7592 171.317 44.5605 167.551 44.7109 161.352C44.8613 155.158 45.7477 149.238 42.965 143.85C40.1824 138.462 38.2861 136.942 38.2861 136.942C38.2861 136.942 46.6609 124.157 49.3629 118.968C48.5088 118.474 41.5092 114.842 38.3129 113.494C35.1166 112.145 36.7014 112.838 35.9761 112.581V112.575Z" fill="#825740"/>
<path fill-rule="evenodd" clip-rule="evenodd" d="M34.0367 186.321C33.2524 186.901 31.6033 188.222 29.8896 190.242C27.5152 193.041 28.1652 193.181 28.8851 193.181C29.5619 193.181 34.633 193.525 36.1372 192.697C36.2607 192.321 36.3843 191.956 36.5078 191.618C36.7979 190.817 37.0343 190.275 37.2223 189.904C37.1095 189.899 35.6644 189.834 34.2194 188.641C32.7153 187.395 33.9938 186.412 33.9938 186.412L34.0314 186.326L34.0367 186.321Z" fill="#BA9F8A"/>
<path fill-rule="evenodd" clip-rule="evenodd" d="M37.6142 189.264C37.4208 189.501 37.0663 190.097 36.513 191.617C35.6105 194.099 34.5468 197.94 36.3894 197.806C38.232 197.672 45.9084 195.114 46.1716 191.967C46.4349 188.819 47.1601 186.815 47.6274 184.365C48.0948 181.916 49.2659 180.406 49.3303 178.73C49.3894 177.183 48.1055 175.84 45.8977 174.513C46.9022 177.387 46.9452 178.623 46.4832 180.771C46.0105 182.969 45.5861 185.332 45.6506 187.47C45.715 189.614 45.3981 191.821 41.2134 191.488C37.9902 191.236 37.6142 189.871 37.6142 189.254V189.264Z" fill="#D4C1B5"/>
<path fill-rule="evenodd" clip-rule="evenodd" d="M48.9651 180.406C48.8953 180.938 48.7825 181.593 48.6052 182.34C48.0841 184.548 48.2775 187.836 48.256 188.631C48.1486 188.824 47.2944 188.803 47.2944 188.668L47.3428 185.708C47.4448 185.268 47.5415 184.827 47.6275 184.365C47.9391 182.738 48.5622 181.524 48.9651 180.401V180.406Z" fill="#A68C7A"/>
<path fill-rule="evenodd" clip-rule="evenodd" d="M39.5373 178.166C39.5373 178.166 38.3125 185.805 38.1674 187.75C38.0278 189.695 41.7505 177.613 39.5373 178.166Z" fill="#96664C"/>
<path fill-rule="evenodd" clip-rule="evenodd" d="M29.707 111.313C29.707 111.313 29.8145 114.176 30.4537 118.592C31.093 123.007 31.5174 124.157 31.4529 123.786C31.3884 123.416 30.905 111.678 30.905 111.678C30.905 111.678 30.4537 111.178 29.7124 111.307L29.707 111.313Z" fill="#855034"/>
<path fill-rule="evenodd" clip-rule="evenodd" d="M36.6851 113.483L38.3343 114.278C38.3343 114.278 35.9706 118.522 33.1772 124.565C30.3838 130.609 30.0562 131.291 30.0562 131.291C30.0562 131.291 31.8933 126.257 36.6905 113.483H36.6851Z" fill="#96664C"/>
<path fill-rule="evenodd" clip-rule="evenodd" d="M35.9761 112.575L35.5625 113.746C39.7096 114.09 47.1336 117.727 48.584 120.407C48.8795 119.881 49.1427 119.398 49.3629 118.962C48.901 118.694 46.7146 117.41 44.2381 116.164C42.127 115.105 39.7848 114.106 38.3129 113.488C35.1166 112.14 36.7013 112.833 35.9761 112.575Z" fill="#5F3722"/>
<path fill-rule="evenodd" clip-rule="evenodd" d="M28.4284 89.8359C28.4284 89.8359 26.0862 99.4409 26.4623 104.453C26.8383 109.465 26.8437 108.122 27.4507 110.11C28.0577 112.097 28.3263 113 28.3263 113C28.3263 113 29.0676 114.101 29.0408 113.795C29.0139 113.488 28.6433 106.005 28.6433 106.005C28.6433 106.005 29.0569 107.241 29.492 108.1C29.9271 108.96 30.142 109.148 30.4106 109.019C30.6792 108.885 30.3891 107.407 30.0561 106.414C29.723 105.42 29.8681 104.05 29.4866 102.739C29.1106 101.423 28.5358 100.655 28.5358 100.655C28.5412 96.4488 28.3102 94.5149 28.423 89.8467L28.4284 89.8359Z" fill="#6B412B"/>
<path fill-rule="evenodd" clip-rule="evenodd" d="M56.0452 92.6079C56.5448 94.9662 56.7006 97.5125 56.2279 100.139C54.7882 108.154 48.5622 117.969 48.5622 117.969C48.5622 117.969 48.1861 117.748 47.52 117.378C48.7985 115.363 51.0601 111.361 53.6225 104.781C55.7283 99.3711 56.1312 95.2724 56.0452 92.6079Z" fill="#B99E8A"/>
<path fill-rule="evenodd" clip-rule="evenodd" d="M49.1479 75.2188C49.8355 76.6101 50.4211 77.8671 51.6351 79.8977L51.7802 80.1448C50.7649 80.7518 49.8033 81.7617 47.3913 86.951C44.9847 92.1403 44.7859 95.2399 45.1244 98.189C45.4628 101.144 45.5971 101.031 45.3178 104.082C45.0384 107.133 44.3078 111.345 43.7438 112.156C43.1797 112.973 42.793 112.962 42.793 112.962C42.793 112.962 42.562 114.584 42.0946 115.175L41.8099 115.041C41.7025 113.859 41.1975 108.24 41.0632 107.73C40.9074 107.155 40.5206 110.324 40.5206 110.324C40.5206 110.324 40.5099 110.732 40.526 112.768C40.5314 113.628 40.526 114.138 40.5099 114.439C40.0587 114.235 39.5967 114.031 39.124 113.827L38.8715 107.585C38.8715 107.585 38.6297 110.142 38.2 111.748C38.0066 112.478 37.7326 112.903 37.4909 113.144L37.319 113.075C37.2223 112.854 37.1739 112.613 37.1901 112.344C37.3029 110.254 37.0182 104.775 42.5888 90.9961C47.2678 79.4196 46.2901 75.6216 49.1587 75.208L49.1479 75.2188Z" fill="#A38976"/>
<path d="M31.8984 93.7305C31.9038 93.7358 33.0749 96.3788 39.8865 98.3288L39.779 98.6673C32.7955 96.6689 32.0757 94.1656 32.0757 94.1602L31.9038 93.7358L31.8984 93.7305ZM31.9199 100.188C31.9307 100.193 36.0993 102.707 40.1658 101.67L40.2625 102.009C36.0294 103.088 32.4679 100.816 32.4571 100.805L31.9146 100.188H31.9199Z" fill="#B99E8A"/>
<path fill-rule="evenodd" clip-rule="evenodd" d="M35.2559 34.6448C35.2559 34.6448 36.1154 36.5142 36.5505 38.7597C36.5827 38.9369 36.615 39.1034 36.6418 39.2646C37.6034 39.5332 39.0592 39.5654 40.6815 38.2762C42.422 36.8902 43.9745 35.1282 44.9146 33.9679C44.8716 31.8191 45.2046 29.896 45.2046 29.896C45.2046 29.896 39.1075 34.7576 35.2505 34.6448H35.2559Z" fill="#6B412B"/>
<path fill-rule="evenodd" clip-rule="evenodd" d="M35.2559 34.6448C35.2559 34.6448 35.5997 35.3968 35.965 36.5249C37.5389 37.8411 39.3761 36.7989 41.2778 35.703C43.1794 34.6072 44.791 33.2212 44.9468 32.3939C45.022 30.965 45.21 29.9014 45.21 29.9014C45.21 29.9014 39.1129 34.7629 35.2559 34.6501V34.6448Z" fill="#5F3722"/>
<path fill-rule="evenodd" clip-rule="evenodd" d="M30.6686 45.147C30.298 45.3189 29.9757 45.4693 29.7393 45.5928C28.681 46.13 27.6818 47.4838 27.8645 50.0247C27.9773 51.5986 28.262 53.0168 28.4661 53.871C28.4661 53.871 27.8161 50.9594 28.5252 48.1875C28.9818 46.4147 29.9971 45.5445 30.6686 45.147Z" fill="#96664C"/>
<path fill-rule="evenodd" clip-rule="evenodd" d="M37.0666 100.29C36.4649 100.945 36.0835 103.335 36.1372 105.452C36.1909 107.574 36.0083 109.513 36.0083 109.513C36.0083 109.513 37.1418 110.281 37.448 107.789C37.5769 106.72 37.26 104.909 37.0881 103.894C36.8571 102.546 37.0666 100.284 37.0666 100.284V100.29Z" fill="#6B412B"/>
<path fill-rule="evenodd" clip-rule="evenodd" d="M52.7901 40.6563C53.7463 40.8443 54.9067 41.172 55.6749 41.736C57.2112 42.8534 57.8773 43.7988 57.1951 48.2092C56.6042 52.0178 55.331 58.1848 54.117 62.708C53.4616 65.1468 52.8062 67.8059 52.4571 69.7613C52.1079 71.7166 51.8715 75.1976 49.8893 80.4836C47.9124 85.7696 46.6124 87.8216 45.5542 90.9212C44.4959 94.0262 44.4744 94.0423 44.4422 94.5902C44.41 95.1382 44.5442 95.4659 44.367 96.1374C44.1843 96.8088 44.3885 97.3514 44.5389 98.1572C44.6893 98.9576 45.2157 100.349 44.8881 102.938C44.555 105.527 44.4207 106.688 44.3186 107.596C44.2219 108.503 44.1843 110.615 43.8781 111.651C43.5719 112.688 43.0401 112.522 42.938 111.582C42.836 110.647 42.879 108.713 42.8252 107.51C42.7715 106.306 42.793 105.78 42.793 105.78C42.793 105.78 42.3203 109.309 42.374 110.491C42.4277 111.673 42.3847 115.143 41.7777 115.073C41.1707 115.004 40.843 110.491 40.8161 109.648C40.7947 108.81 40.9558 106.763 40.9558 106.763C40.9558 106.763 40.7087 106.575 40.612 107.15C40.5153 107.725 40.1393 110.647 40.1393 110.647C40.1393 110.647 40.1661 113.634 40.0587 114.59C39.9513 115.551 39.688 115.938 39.2959 115.906C38.9037 115.874 38.7963 115.444 38.662 113.784C38.5277 112.124 38.5653 110.76 38.6083 110.142C38.6513 109.524 38.7318 106.897 38.7318 106.897C38.7318 106.897 38.4364 106.575 38.3773 107.075C38.3182 107.569 38.1409 109.352 38.1409 109.352C38.1409 109.352 37.9529 111.512 37.6951 112.35C37.4372 113.188 36.857 113.435 36.755 112.715C36.6529 111.995 36.7174 109.766 36.755 109.309C36.7872 108.853 36.857 105.415 36.7281 104.335C36.5938 103.255 36.5616 101.37 36.9 100.58C38.474 96.8894 38.6029 95.8258 39.7794 92.2266C40.4347 90.2175 42.0033 86.7472 42.9703 81.4183C44.3079 74.0534 46.8542 69.4497 46.8542 69.2617C46.8542 68.9716 47.5901 49.5092 47.7459 47.441C47.9769 44.3199 50.7166 41.0377 52.7794 40.6509L52.7901 40.6563Z" fill="#825740"/>
<path fill-rule="evenodd" clip-rule="evenodd" d="M29.2827 54.9724C29.9327 55.4935 31.4369 56.1274 34.8802 55.8695C39.3604 55.5311 42.965 53.9303 44.1951 53.3179C43.2067 54.0108 37.4158 56.6592 33.7092 56.5195C29.8683 56.3745 29.2827 54.9724 29.2827 54.9724Z" fill="#E0D0C4"/>
<path fill-rule="evenodd" clip-rule="evenodd" d="M31.1465 52.4097C31.1465 52.4097 32.1134 52.9898 32.6721 54.2146C32.8279 54.5531 32.9192 54.8539 32.9729 55.1117C33.1448 55.1171 33.3221 55.1171 33.5048 55.1171C33.2523 54.1555 32.6345 52.8502 31.1465 52.4097Z" fill="#96664C"/>
<path fill-rule="evenodd" clip-rule="evenodd" d="M39.5913 52.1357C39.5913 52.1357 38.5975 52.4581 37.6575 53.1618C37.0075 53.6452 36.4488 54.4779 36.1372 54.999C36.3897 54.9721 36.6422 54.9399 36.8893 54.9023C37.3137 54.1126 38.1785 52.8502 39.5913 52.1357Z" fill="#96664C"/>
<path fill-rule="evenodd" clip-rule="evenodd" d="M34.5525 55.3857C34.3268 54.5638 33.8917 53.6183 33.0806 52.748C33.0806 52.748 33.6231 53.9406 33.6339 55.4179C33.924 55.4125 34.2302 55.4018 34.5525 55.3857Z" fill="#5F3722"/>
<path fill-rule="evenodd" clip-rule="evenodd" d="M44.9953 15.6498C48.1003 18.4217 47.7619 22.0155 46.9292 24.868C46.0966 27.7205 45.554 29.6705 45.0759 31.1908C44.5978 32.7056 44.5011 32.9903 42.2986 34.3924C40.0961 35.7945 38.216 36.799 36.7441 36.1974C35.2668 35.5957 33.8594 34.7846 33.161 33.0494C32.468 31.3143 31.9416 29.966 31.5709 28.4296C31.2003 26.8932 31.63 26.5011 31.6193 24.9379C31.6085 23.3693 31.4796 23.2994 31.3722 21.8221C31.3131 20.9519 30.9478 19.0664 32.6346 16.7887C35.4011 13.0606 41.5895 12.6093 44.9953 15.6552V15.6498Z" fill="#825740"/>
<path fill-rule="evenodd" clip-rule="evenodd" d="M46.9294 23.9335C47.155 23.8153 47.4505 23.7347 47.7674 23.8529C48.4228 24.0946 48.8848 25.3678 48.0575 27.0062C47.2302 28.6446 46.8488 29.4236 46.6501 29.7029C46.4674 29.9607 45.8443 30.224 45.5649 29.5579C45.8604 28.4942 46.1935 27.1512 46.7468 24.8413C46.822 24.5351 46.8811 24.2289 46.9294 23.9281V23.9335Z" fill="#825740"/>
<path fill-rule="evenodd" clip-rule="evenodd" d="M45.71 29.7992C45.6563 29.7401 45.6079 29.6596 45.5649 29.5575C45.8604 28.4938 46.1935 27.1509 46.7468 24.8409C46.7897 24.669 46.822 24.5025 46.8596 24.336C47.0315 24.2715 47.2464 24.2232 47.5096 24.2339C48.2455 24.2608 48.2885 25.6951 48.0199 26.3397C47.7567 26.9843 47.7567 26.9843 47.7567 26.9843C47.7567 26.9843 48.0145 26.1463 47.9554 25.4211C47.8963 24.6959 47.2732 24.7228 47.1067 24.9054C46.9402 25.0881 46.6662 25.5823 46.7844 26.1786C46.9079 26.7748 46.7736 27.5108 46.462 27.7095C46.2096 27.8707 45.7315 29.1707 45.71 29.7992Z" fill="#5F3722"/>
<path fill-rule="evenodd" clip-rule="evenodd" d="M32.0274 23.2508C32.0274 23.2508 32.613 22.7674 33.2146 23.1273C33.8109 23.4926 34.5845 24.4327 34.8101 24.3306C35.0357 24.2285 34.9981 23.9653 34.4448 23.4603C33.8969 22.9554 33.2308 22.4504 32.6345 22.6975C32.0382 22.9393 31.7481 23.4281 32.0274 23.2455V23.2508Z" fill="#191716"/>
<path fill-rule="evenodd" clip-rule="evenodd" d="M37.4856 24.0301C37.4856 24.0301 38.0174 24.433 38.286 24.1321C38.5546 23.8313 39.3389 23.0416 40.424 22.8375C41.5038 22.6334 41.8798 23.0416 41.9926 23.192C42.1055 23.3425 42.2559 23.2189 42.0356 22.9449C41.8154 22.671 40.784 22.2197 39.6774 22.6226C38.5654 23.0255 37.217 23.5734 37.491 24.0301H37.4856Z" fill="#191716"/>
<path fill-rule="evenodd" clip-rule="evenodd" d="M32.4844 24.8142C32.4844 24.8142 33.1397 24.3308 33.8488 24.5994C34.5579 24.868 34.8104 25.4374 34.8104 25.4374C34.8104 25.4374 34.0745 23.525 32.4844 24.8142Z" fill="#5F3722"/>
<path fill-rule="evenodd" clip-rule="evenodd" d="M38.4199 25.1689C38.4199 25.1689 39.027 24.4598 40.0637 24.449C41.1005 24.4383 41.772 24.8949 41.772 24.8949C41.772 24.8949 41.1542 24.1751 39.8865 24.2879C38.6187 24.4007 38.4307 25.0346 38.4199 25.1635V25.1689Z" fill="#5F3722"/>
<path fill-rule="evenodd" clip-rule="evenodd" d="M32.4146 25.4856C32.4146 25.4856 32.6294 25.9476 33.0001 26.141C33.3708 26.3344 33.7629 26.2645 34.0852 26.2431C34.4075 26.2269 34.6493 26.2968 34.6493 26.2968C34.6493 26.2968 34.7298 26.3666 34.7889 26.2538C34.848 26.141 34.6869 26.0604 34.6869 26.0604C34.6869 26.0604 34.5257 25.3352 33.6393 25.174C32.753 25.0129 32.522 25.4373 32.4092 25.4802L32.4146 25.4856Z" fill="white"/>
<path fill-rule="evenodd" clip-rule="evenodd" d="M38.4471 26.1517C38.4471 26.1517 38.3343 26.3236 38.2215 26.2054C38.1087 26.0819 38.3343 25.8724 38.3343 25.8724C38.3343 25.8724 38.9467 25.131 39.8116 25.0451C40.6819 24.9591 41.4017 25.4319 41.5145 25.4587C41.6273 25.4856 41.6596 25.4856 41.6327 25.4856C41.6058 25.4856 41.0042 26.2108 40.1124 26.3182C39.2207 26.4257 38.748 26.0604 38.4471 26.1571V26.1517Z" fill="white"/>
<path fill-rule="evenodd" clip-rule="evenodd" d="M35.0894 24.7393C35.0894 24.7393 35.4708 25.1583 35.5084 26.1037C35.546 27.0438 35.229 28.1397 35.229 28.1397C35.229 28.1397 36.3142 25.1045 35.0894 24.7446V24.7393Z" fill="#5F3722"/>
<path fill-rule="evenodd" clip-rule="evenodd" d="M35.0145 28.666C35.0145 28.666 34.7781 28.8379 34.7137 29.1656C34.6492 29.4933 34.7781 29.735 34.95 29.7834C35.1219 29.8317 34.429 29.3375 35.0145 28.666Z" fill="#5F3722"/>
<path fill-rule="evenodd" clip-rule="evenodd" d="M37.5872 28.7409C37.5872 28.7409 37.9364 28.9451 37.931 29.305C37.9257 29.6649 37.6893 29.8261 37.5228 29.8905C37.3562 29.955 37.8666 29.9657 38.0116 29.4823C38.1566 29.0042 37.7484 28.7087 37.5872 28.7356V28.7409Z" fill="#5F3722"/>
<path fill-rule="evenodd" clip-rule="evenodd" d="M34.993 29.563C34.993 29.563 35.1434 29.4072 35.3314 29.5845C35.5194 29.7618 35.6752 29.9498 36.0566 29.9229C36.4326 29.9015 36.5831 29.6973 36.814 29.6275C37.045 29.5577 37.0826 29.8639 37.2062 29.8048C37.3298 29.7457 37.2277 29.3267 36.9376 29.3965C36.6475 29.4717 36.4219 29.9176 36.0566 29.9176C35.6913 29.9176 35.6215 29.7564 35.4496 29.5791C35.2777 29.4019 34.8264 29.2783 34.9983 29.5523L34.993 29.563Z" fill="#241714"/>
<path d="M36.3037 29.2461C36.4165 29.2461 36.5079 29.1836 36.5079 29.1065C36.5079 29.0293 36.4165 28.9668 36.3037 28.9668C36.191 28.9668 36.0996 29.0293 36.0996 29.1065C36.0996 29.1836 36.191 29.2461 36.3037 29.2461Z" fill="#A37055"/>
<path fill-rule="evenodd" clip-rule="evenodd" d="M34.434 32.0022C34.434 32.0022 34.0794 32.0398 34.0418 31.8464C34.0042 31.653 34.1224 31.755 34.2245 31.8356C34.3265 31.9216 34.4555 31.9108 34.4662 31.8571C34.4823 31.8034 34.6059 31.0997 35.229 30.9117C35.8521 30.7183 35.9381 30.9761 36.0778 31.0352C36.2174 31.0889 36.341 31.0084 36.4162 30.9331C36.4968 30.8579 37.0125 30.584 37.7108 31.0782C38.4092 31.5724 38.6724 31.9108 38.7584 31.9699C38.8443 32.029 39.0162 31.986 39.0001 31.8786C38.984 31.7712 39.129 31.7712 39.215 31.8786C39.3009 31.986 38.8765 32.1042 38.8765 32.1042C38.8765 32.1042 38.6241 33.0174 37.7699 33.5278C36.9158 34.0381 35.7017 33.9844 35.2129 33.5708C34.724 33.1571 34.5521 32.2546 34.4232 32.0075L34.434 32.0022Z" fill="#A65E53"/>
<path fill-rule="evenodd" clip-rule="evenodd" d="M36.2498 33.1569C36.2498 33.1569 36.7387 33.2482 37.1577 32.9743C37.5767 32.7003 37.9097 32.6466 37.9205 32.883C37.9366 33.1193 37.0878 33.3396 36.5453 33.302C35.9973 33.2644 36.0994 33.1086 36.2444 33.1515L36.2498 33.1569Z" fill="#D48579"/>
<path fill-rule="evenodd" clip-rule="evenodd" d="M34.6919 31.9856C34.6919 31.9856 35.1055 32.0232 35.4278 32.2327C35.7502 32.4423 36.3357 32.6303 36.7547 32.4476C37.1737 32.2704 37.4584 32.1898 37.8022 32.1737C38.1514 32.1575 38.506 32.0931 38.506 32.0931C37.9741 32.1146 37.0448 31.7923 36.2068 31.803C35.5675 31.8084 35.2559 32.0179 34.6919 31.991V31.9856Z" fill="white"/>
<path fill-rule="evenodd" clip-rule="evenodd" d="M32.4146 25.4856C32.4146 25.4856 32.4468 25.5501 32.5059 25.6468C32.8873 25.4964 34.0046 25.1902 34.7836 26.2753C34.7889 26.2699 34.7889 26.2645 34.7943 26.2592C34.8534 26.1464 34.6922 26.0658 34.6922 26.0658C34.6922 26.0658 34.5311 25.3406 33.6447 25.1794C32.7584 25.0183 32.5274 25.4426 32.4146 25.4856Z" fill="#ADA89F"/>
<path fill-rule="evenodd" clip-rule="evenodd" d="M32.4146 25.4858C32.4146 25.4858 32.6294 25.9478 33.0001 26.1412C33.3708 26.3346 33.7629 26.2648 34.0852 26.2433C34.4075 26.2272 34.6493 26.297 34.6493 26.297C34.6493 26.297 34.6708 26.3131 34.6976 26.3185C34.5257 26.0606 33.6447 26.3077 33.1451 26.0982C32.7745 25.9425 32.5542 25.6094 32.4683 25.4482C32.4468 25.4644 32.4307 25.4805 32.4146 25.4858Z" fill="#D4926F"/>
<path fill-rule="evenodd" clip-rule="evenodd" d="M38.2803 25.9261C38.3071 25.8939 38.3286 25.8724 38.3286 25.8724C38.3286 25.8724 38.941 25.131 39.8059 25.0451C40.6761 24.9591 41.396 25.4319 41.5088 25.4587C41.6216 25.4856 41.6538 25.4856 41.627 25.4856C41.6162 25.4856 41.5518 25.5608 41.4336 25.6629C39.8704 25.0612 38.71 25.6468 38.2749 25.9315L38.2803 25.9261Z" fill="#ADA89F"/>
<path fill-rule="evenodd" clip-rule="evenodd" d="M38.4468 26.152C38.4468 26.152 38.377 26.2594 38.291 26.2433C38.5113 25.7491 39.4299 26.3292 40.2034 26.1573C40.8319 26.0177 41.2993 25.604 41.4766 25.4375C41.4927 25.4482 41.5088 25.4536 41.5195 25.4536C41.6323 25.4805 41.6646 25.4805 41.6377 25.4805C41.6109 25.4805 41.0092 26.2057 40.1175 26.3131C39.2257 26.4206 38.753 26.0553 38.4522 26.152H38.4468Z" fill="#D4926F"/>
<path fill-rule="evenodd" clip-rule="evenodd" d="M34.4128 25.5771C34.257 25.4105 34.0153 25.2494 33.65 25.1849C33.4835 25.1527 33.3384 25.1473 33.2149 25.1527C33.1504 25.2548 33.1128 25.3729 33.1128 25.5019C33.1128 25.8618 33.4029 26.1572 33.7682 26.1572C34.1012 26.1572 34.3806 25.9048 34.4182 25.5824L34.4128 25.5771Z" fill="#9FABAB"/>
<path fill-rule="evenodd" clip-rule="evenodd" d="M39.3872 25.1364C39.5215 25.088 39.6612 25.0558 39.8116 25.0397C40.0533 25.0128 40.2843 25.0343 40.4938 25.0773C40.5798 25.1901 40.6281 25.3298 40.6281 25.4802C40.6281 25.8508 40.3273 26.1463 39.962 26.1463C39.5914 26.1463 39.2959 25.8455 39.2959 25.4802C39.2959 25.3566 39.3281 25.2384 39.3872 25.1417V25.1364Z" fill="#9FABAB"/>
<path d="M39.962 25.7599C40.1162 25.7599 40.2413 25.6348 40.2413 25.4805C40.2413 25.3262 40.1162 25.2012 39.962 25.2012C39.8077 25.2012 39.6826 25.3262 39.6826 25.4805C39.6826 25.6348 39.8077 25.7599 39.962 25.7599Z" fill="#191716"/>
<path d="M33.7627 25.7706C33.914 25.7706 34.0367 25.6479 34.0367 25.4966C34.0367 25.3453 33.914 25.2227 33.7627 25.2227C33.6114 25.2227 33.4888 25.3453 33.4888 25.4966C33.4888 25.6479 33.6114 25.7706 33.7627 25.7706Z" fill="#191716"/>
<path fill-rule="evenodd" clip-rule="evenodd" d="M32.0596 25.2977C32.0596 25.2977 32.1885 25.432 32.2906 25.4804C32.3873 25.5287 32.4356 25.5233 32.4356 25.5233C32.4356 25.5233 32.86 25.1097 33.6335 25.2601C34.4125 25.4105 34.6918 26.0713 34.6918 26.0713C34.6918 26.0713 34.5307 25.1151 33.6443 24.9056C32.7579 24.6961 32.2744 25.3353 32.0542 25.2977H32.0596Z" fill="#191716"/>
<path fill-rule="evenodd" clip-rule="evenodd" d="M38.2158 26.0231C38.2158 26.0231 38.4737 25.6095 39.1505 25.3516C39.8274 25.0884 40.3216 25.0992 40.8427 25.2764C41.3638 25.4537 41.5679 25.5773 41.7881 25.4591C42.0084 25.3409 42.0191 25.1905 42.0191 25.1905C42.0191 25.1905 41.9117 25.2764 41.772 25.212C41.6324 25.1529 39.0592 23.9281 38.2158 26.0231Z" fill="#191716"/>
<path d="M33.2793 25.7867C33.3861 25.7867 33.4727 25.7001 33.4727 25.5933C33.4727 25.4865 33.3861 25.3999 33.2793 25.3999C33.1725 25.3999 33.0859 25.4865 33.0859 25.5933C33.0859 25.7001 33.1725 25.7867 33.2793 25.7867Z" fill="white"/>
<path d="M39.3604 25.7867C39.4672 25.7867 39.5538 25.7001 39.5538 25.5933C39.5538 25.4865 39.4672 25.3999 39.3604 25.3999C39.2536 25.3999 39.167 25.4865 39.167 25.5933C39.167 25.7001 39.2536 25.7867 39.3604 25.7867Z" fill="white"/>
</svg>
