<svg width="85" height="212" viewBox="0 0 85 212" fill="none" xmlns="http://www.w3.org/2000/svg">
<g clip-path="url(#clip0)">
<path fill-rule="evenodd" clip-rule="evenodd" d="M34.7162 34.3137C35.6477 36.2552 37.0617 41.6194 35.2886 42.4611C33.7848 43.1737 30.592 44.7112 29.2958 45.3396C27.9997 45.9681 26.7764 47.5616 26.9953 50.5412C27.2141 53.5207 27.9997 56.0401 27.9997 56.0401C27.9997 56.0401 47.7173 60.9835 50.6743 58.6437C53.6314 56.3038 57.3292 41.2267 53.4743 40.688C53.2835 40.6599 51.791 40.4579 51.6114 40.4355C48.211 40.0315 47.2515 40.5477 46.0115 37.8095C44.7041 34.9253 45.6187 29.937 45.6187 29.937C45.6187 29.937 38.7394 34.4259 34.7106 34.3081L34.7162 34.3137Z" fill="#825740"/>
<path fill-rule="evenodd" clip-rule="evenodd" d="M48.5139 48.6504C48.5139 48.6504 47.4759 53.5265 45.944 55.6251C44.4178 57.7236 47.9416 60.3945 48.3568 57.1906C48.7777 53.9866 48.5083 48.6504 48.5083 48.6504H48.5139Z" fill="#5F3722"/>
<path fill-rule="evenodd" clip-rule="evenodd" d="M28.5662 110.939C28.5662 110.939 28.5213 113.947 29.9353 121.73C30.2046 123.2 30.502 124.95 30.8106 126.819C32.5332 121.943 35.1649 114.783 35.9673 112.612C31.4559 111.052 28.9197 110.945 28.5605 110.939H28.5662ZM33.8968 148.36C35.1088 156.132 37.2803 170.867 37.0839 174.508C36.8931 178.144 33.7004 186.129 33.7004 186.129C33.7004 186.129 32.5669 187.431 34.138 188.682C35.7092 189.928 37.2803 189.945 37.2803 189.945L37.6843 189.4C37.6675 189.165 37.7123 189.007 37.7123 189.007C37.7123 189.007 37.7123 189.007 38.4193 183.424C38.7336 180.95 39.1376 178.616 39.2386 176.192C39.362 173.145 39.0983 169.958 38.6101 166.148C37.7292 159.313 35.5745 152.928 33.8968 148.371V148.36ZM45.7138 151.682C45.7756 149.684 45.5792 147.272 45.1583 144.388C44.7375 141.503 42.9307 138.131 42.9307 138.131C42.9307 138.131 43.5592 133.485 44.1034 128.233C41.18 132.789 38.3857 136.97 38.3857 136.97C38.3857 136.97 41.3708 140.353 43.2786 143.877C45.1808 147.401 45.4165 149.92 45.7138 151.676V151.682Z" fill="#5F3722"/>
<path fill-rule="evenodd" clip-rule="evenodd" d="M29.06 54.5082C29.7389 55.03 31.3157 55.6641 34.9068 55.406C39.6089 55.0637 43.3909 53.4477 44.659 52.8473C46.8529 43.443 50.4553 40.946 52.0769 40.2895C52.9467 39.936 53.3002 40.2222 53.4461 40.5476C53.4292 40.5476 48.1491 41.0751 45.366 53.2737C45.7812 54.3118 46.7295 56.4553 48.2614 58.7727C50.4048 62.0159 48.8112 73.4066 48.8112 73.4066C48.8112 73.4066 50.5058 77.0145 52.7952 80.7011C55.0845 84.3876 60.0953 92.1871 58.5578 101.9C57.026 111.613 51.0501 119.71 51.0501 119.71C51.0501 119.71 44.8778 116.147 38.4082 113.543C31.9385 110.934 28.5157 110.956 28.5157 110.956C28.5157 110.956 27.6067 90.9583 27.4215 84.685C27.1915 77.0258 27.4327 74.0575 27.4608 70.8647C27.472 69.8098 26.535 66.561 26.4564 66.0279C26.4564 66.0279 22.3995 61.4829 27.8985 54.2052C27.9378 54.1435 27.977 54.0761 28.0163 54.0088C29.29 51.9383 32.0339 48.7399 31.3998 44.3857C31.3662 43.8919 32.1181 43.8077 32.1405 44.1332C32.7128 48.8073 30.5133 52.1291 29.1834 54.3062C29.1385 54.3791 29.0936 54.4521 29.0544 54.5194L29.06 54.5082Z" fill="#D5C1B5"/>
<path fill-rule="evenodd" clip-rule="evenodd" d="M35.9728 112.617C34.9123 115.496 30.6254 127.15 29.5144 130.612C28.2462 134.574 28.1901 135.41 29.6715 139.472C31.1528 143.535 37.3924 156.693 38.61 166.142C39.8277 175.597 39.1263 177.836 38.4193 183.419C37.7123 189.002 37.7123 189.002 37.7123 189.002C37.7123 189.002 37.0726 191.201 41.4381 191.532C45.8092 191.864 46.1402 189.653 46.0729 187.515C46.0055 185.371 46.4488 183.015 46.9426 180.815C47.4364 178.616 47.3803 177.376 46.258 174.362C45.1414 171.349 45.551 167.713 45.7082 161.518C45.8653 155.324 46.7911 149.404 43.8845 144.017C40.978 138.631 39.8333 137.418 39.8333 137.418C39.8333 137.418 48.3454 124.715 51.1678 119.525C50.2756 119.031 41.7411 114.878 38.4024 113.532C35.0638 112.185 36.7191 112.881 35.9616 112.617H35.9728Z" fill="#825740"/>
<path fill-rule="evenodd" clip-rule="evenodd" d="M33.7173 186.073C32.898 186.651 31.7534 187.868 29.6155 190.281C27.4777 192.688 27.8143 193.221 28.5662 193.221C29.2732 193.221 34.5702 193.564 36.1469 192.739C36.276 192.363 36.405 191.998 36.5341 191.661C36.8371 190.865 37.084 190.32 37.2804 189.944C37.1625 189.939 35.6812 189.9 34.1437 188.682C32.6063 187.459 33.678 186.163 33.678 186.163L33.7173 186.073Z" fill="#BA9F8A"/>
<path fill-rule="evenodd" clip-rule="evenodd" d="M37.6846 189.305C37.4826 189.541 36.7812 189.726 36.018 191.724C35.2549 193.721 34.4806 197.98 36.3996 197.851C38.3242 197.716 46.3482 195.158 46.6231 192.01C46.8981 188.862 47.6556 186.859 48.1437 184.412C48.6319 181.966 49.8551 180.451 49.9225 178.779C49.9842 177.23 48.6375 175.889 46.337 174.559C47.3862 177.432 47.4311 178.666 46.9486 180.816C46.4548 183.015 46.0115 185.372 46.0788 187.515C46.1462 189.659 45.8151 191.864 41.444 191.533C38.0773 191.28 37.6846 189.911 37.6846 189.3V189.305Z" fill="#D4C1B5"/>
<path fill-rule="evenodd" clip-rule="evenodd" d="M49.5463 180.445C49.4734 180.978 49.3556 181.634 49.1704 182.381C48.6261 184.591 48.8281 187.874 48.8057 188.671C48.6934 188.867 47.8013 188.845 47.8013 188.71L47.8518 185.753C47.9584 185.315 48.0594 184.872 48.1492 184.412C48.4746 182.785 49.1255 181.567 49.5463 180.445Z" fill="#A68C7A"/>
<path fill-rule="evenodd" clip-rule="evenodd" d="M39.6932 178.206C39.6932 178.206 38.4138 185.849 38.2623 187.79C38.1164 189.732 42.0106 177.656 39.6932 178.206Z" fill="#96664C"/>
<path fill-rule="evenodd" clip-rule="evenodd" d="M29.4248 111.355C29.4248 111.355 29.537 114.222 30.2048 118.638C30.8725 123.054 31.3158 124.204 31.2484 123.834C31.1811 123.464 30.6761 111.725 30.6761 111.725C30.6761 111.725 30.2048 111.226 29.4304 111.355H29.4248Z" fill="#855034"/>
<path fill-rule="evenodd" clip-rule="evenodd" d="M36.7135 113.526L38.4361 114.318C38.4361 114.318 35.9672 118.56 33.0494 124.603C30.1316 130.646 29.7837 131.331 29.7837 131.331C29.7837 131.331 31.7027 126.297 36.7135 113.526Z" fill="#96664C"/>
<path fill-rule="evenodd" clip-rule="evenodd" d="M35.9731 112.617L35.541 113.79C39.8784 114.138 48.8507 118.296 50.3657 120.972C50.6743 120.445 50.9492 119.962 51.1793 119.53C50.6967 119.266 47.1954 117.454 44.603 116.214C42.3978 115.153 39.9514 114.155 38.4139 113.537C35.0753 112.191 36.7306 112.887 35.9731 112.623V112.617Z" fill="#5F3722"/>
<path fill-rule="evenodd" clip-rule="evenodd" d="M27.5 90.0774C27.5 90.0774 25.6427 99.4873 26.0355 104.498C26.4283 109.509 26.4339 108.168 27.068 110.154C27.702 112.14 27.9826 113.044 27.9826 113.044C27.9826 113.044 28.7569 114.144 28.7289 113.841C28.7008 113.532 28.3136 106.047 28.3136 106.047C28.3136 106.047 28.7457 107.281 29.2002 108.14C29.6547 108.998 29.8791 109.189 30.1597 109.054C30.4459 108.92 30.1373 107.444 29.7894 106.451C29.4415 105.458 29.5874 104.088 29.1946 102.775C28.8018 101.462 28.2014 100.688 28.2014 100.688C27.8984 99.7398 27.6796 93.7246 27.4944 90.0718L27.5 90.0774Z" fill="#6B412B"/>
<path fill-rule="evenodd" clip-rule="evenodd" d="M56.942 92.6528C57.4638 95.0095 57.6266 97.557 57.1328 100.189C55.6234 108.207 49.1257 118.015 49.1257 118.015C49.1257 118.015 48.7329 117.796 48.0371 117.42C49.3782 115.406 51.7349 111.405 54.4114 104.823C56.611 99.4143 57.0318 95.3125 56.9476 92.6528H56.942Z" fill="#B99E8A"/>
<path fill-rule="evenodd" clip-rule="evenodd" d="M49.7373 75.2637C50.4555 76.6552 51.2018 78.1254 52.4643 80.1566L52.6887 80.5213C51.6282 81.1273 50.4218 81.8119 47.9024 86.9966C45.383 92.1813 45.181 95.2843 45.5345 98.2357C45.888 101.187 46.0283 101.075 45.7365 104.127C45.4447 107.18 44.6816 111.388 44.0868 112.202C43.4977 113.016 43.088 113.004 43.088 113.004C43.088 113.004 42.8468 114.626 42.3586 115.221L42.0612 115.086C41.949 113.902 41.4215 108.285 41.2813 107.775C41.1185 107.202 40.7145 110.367 40.7145 110.367C40.7145 110.367 40.7033 110.777 40.7201 112.814C40.7257 113.672 40.7201 114.183 40.7033 114.486C40.232 114.284 39.7494 114.076 39.2556 113.874L38.9919 107.629C38.9919 107.629 38.7394 110.187 38.2905 111.792C38.0885 112.522 37.8023 112.943 37.5498 113.189L37.3703 113.122C37.2693 112.903 37.2188 112.662 37.2356 112.393C37.3534 110.3 37.0561 104.823 42.8748 91.0478C47.7621 79.472 46.7465 75.6733 49.7429 75.2637H49.7373Z" fill="#A38976"/>
<path d="M31.7139 93.7749C31.7195 93.7805 32.9427 96.4234 40.0577 98.3704L39.9454 98.7071C32.6509 96.7095 31.899 94.207 31.8934 94.2014L31.7139 93.7749ZM31.7363 100.233C31.7475 100.239 36.1018 102.753 40.355 101.715L40.456 102.057C36.0345 103.14 32.3143 100.862 32.303 100.856L31.7363 100.239V100.233Z" fill="#B99E8A"/>
<path fill-rule="evenodd" clip-rule="evenodd" d="M34.5645 34.6897C34.5645 34.6897 35.5183 36.5638 36.0065 38.8026C36.0458 38.9766 36.0795 39.1449 36.1131 39.3076C37.1793 39.577 38.8009 39.605 40.6021 38.3201C42.5379 36.9341 44.2605 35.1722 45.3042 34.0107C45.2537 31.8616 45.6296 29.937 45.6296 29.937C45.6296 29.937 38.8514 34.8019 34.5701 34.684L34.5645 34.6897Z" fill="#6B412B"/>
<path fill-rule="evenodd" clip-rule="evenodd" d="M34.5645 34.6894C34.5645 34.6894 34.946 35.4413 35.3556 36.5692C37.1063 37.8878 39.1432 36.8441 41.2586 35.7443C43.3684 34.6501 45.1583 33.2642 45.3323 32.4393C45.4164 31.0085 45.624 29.9424 45.624 29.9424C45.624 29.9424 38.8458 34.8073 34.5645 34.6894Z" fill="#5F3722"/>
<path fill-rule="evenodd" clip-rule="evenodd" d="M30.4292 45.188C30.0421 45.3619 29.7054 45.5134 29.4585 45.6313C28.3531 46.1699 27.3094 47.5222 27.4946 50.0641C27.6124 51.6352 27.9098 53.0548 28.123 53.9133C28.123 53.9133 27.4385 51.0011 28.1848 48.2292C28.6617 46.4561 29.7222 45.5864 30.4236 45.188H30.4292Z" fill="#96664C"/>
<path fill-rule="evenodd" clip-rule="evenodd" d="M37.1117 100.334C36.4833 100.991 36.0849 103.376 36.141 105.497C36.1971 107.618 36.0063 109.559 36.0063 109.559C36.0063 109.559 37.1903 110.328 37.5101 107.837C37.6448 106.765 37.3137 104.958 37.1342 103.942C36.8929 102.59 37.1117 100.334 37.1117 100.334Z" fill="#6B412B"/>
<path fill-rule="evenodd" clip-rule="evenodd" d="M53.5412 40.6992C54.5456 40.89 55.752 41.2154 56.56 41.7766C58.1648 42.8988 59.1019 44.4138 58.3892 48.8242C57.772 52.6341 56.7283 58.5764 55.4602 63.0989C54.7757 65.5398 54.0911 68.1939 53.7264 70.1522C53.3617 72.1105 52.9128 75.32 50.8479 80.6114C48.783 85.8971 47.094 87.861 45.9886 90.9639C44.8832 94.0669 44.8608 94.0837 44.8271 94.6336C44.7934 95.1835 44.9337 95.509 44.7485 96.1823C44.5578 96.8556 44.771 97.3999 44.9281 98.2023C45.0852 99.0047 45.6351 100.396 45.2928 102.983C44.9449 105.575 44.8046 106.731 44.698 107.64C44.597 108.549 44.5578 110.659 44.2379 111.697C43.9181 112.735 43.3626 112.567 43.256 111.63C43.155 110.693 43.1942 108.763 43.1381 107.556C43.082 106.35 43.1045 105.828 43.1045 105.828C43.1045 105.828 42.6107 109.357 42.6668 110.536C42.7229 111.72 42.678 115.187 42.044 115.12C41.4099 115.053 41.0676 110.536 41.0396 109.694C41.0171 108.852 41.1855 106.81 41.1855 106.81C41.1855 106.81 40.9273 106.625 40.8263 107.197C40.7253 107.769 40.3326 110.693 40.3326 110.693C40.3326 110.693 40.3606 113.678 40.2484 114.637C40.1362 115.597 39.8612 115.984 39.4516 115.956C39.042 115.922 38.9298 115.49 38.7895 113.835C38.6492 112.174 38.6885 110.811 38.7334 110.193C38.7783 109.576 38.8624 106.95 38.8624 106.95C38.8624 106.95 38.5538 106.63 38.4921 107.124C38.4304 107.623 38.2452 109.402 38.2452 109.402C38.2452 109.402 38.0488 111.562 37.7795 112.399C37.5101 113.24 36.9041 113.487 36.7975 112.763C36.6909 112.045 36.7583 109.812 36.7975 109.357C36.8312 108.897 36.9041 105.463 36.7695 104.38C36.6292 103.297 36.5955 101.412 36.949 100.621C38.5931 96.9342 38.7278 95.8681 39.9566 92.2713C40.6412 90.2625 42.2796 86.7892 43.2952 81.4642C44.6924 74.1024 47.3521 69.4957 47.3521 69.3105C47.3521 69.0187 48.1208 49.5592 48.2836 47.4943C48.5248 44.3689 51.3865 41.092 53.5468 40.7048L53.5412 40.6992Z" fill="#825740"/>
<path fill-rule="evenodd" clip-rule="evenodd" d="M28.9814 55.0132C29.6604 55.535 31.2371 56.1691 34.8283 55.911C39.508 55.5687 43.2731 53.9695 44.5636 53.3579C43.5312 54.0481 37.4767 56.6966 33.605 56.5619C29.5931 56.416 28.9814 55.0132 28.9814 55.0132Z" fill="#E0D0C4"/>
<path fill-rule="evenodd" clip-rule="evenodd" d="M30.9287 52.4546C30.9287 52.4546 31.9387 53.0325 32.5223 54.2614C32.685 54.598 32.7804 54.9011 32.8365 55.1592C33.0161 55.1648 33.2012 55.1648 33.392 55.1648C33.1283 54.2053 32.483 52.8979 30.9287 52.4602V52.4546Z" fill="#96664C"/>
<path fill-rule="evenodd" clip-rule="evenodd" d="M39.7491 52.1797C39.7491 52.1797 38.711 52.4995 37.7291 53.2065C37.0501 53.6947 36.4666 54.5195 36.1411 55.0414C36.4048 55.0133 36.6686 54.9797 36.9267 54.946C37.37 54.1604 38.2733 52.8923 39.7491 52.1797Z" fill="#96664C"/>
<path fill-rule="evenodd" clip-rule="evenodd" d="M34.4859 55.4283C34.2503 54.609 33.7958 53.6607 32.9429 52.791C32.9429 52.791 33.5096 53.9862 33.5208 55.4619C33.8238 55.4563 34.1437 55.4507 34.4803 55.4283H34.4859Z" fill="#5F3722"/>
<path fill-rule="evenodd" clip-rule="evenodd" d="M45.1021 15.6959C48.3061 18.4678 47.9582 22.0645 47.0997 24.915C46.2412 27.7655 45.8091 29.7125 45.2929 31.2219C44.7767 32.7257 44.6476 33.0568 42.3751 34.4596C40.1026 35.8624 38.105 36.8499 36.5788 36.2439C35.0526 35.6435 33.5993 34.8299 32.881 33.0961C32.1628 31.3566 31.6185 30.0155 31.237 28.4781C30.8554 26.9406 31.2931 26.5535 31.2875 24.9823C31.2763 23.4168 31.1416 23.3439 31.035 21.8625C30.9733 20.9928 30.5973 19.1075 32.3368 16.8293C35.1928 13.0979 41.5839 12.6546 45.1021 15.6959Z" fill="#825740"/>
<path fill-rule="evenodd" clip-rule="evenodd" d="M47.1167 23.9782C47.3411 23.8603 47.6385 23.7818 47.9527 23.8996C48.6092 24.1409 49.0694 25.4146 48.2389 27.0531C47.4085 28.6915 47.0269 29.4715 46.8305 29.752C46.6453 30.0101 46.0225 30.2683 45.7476 29.6061C46.0449 28.54 46.376 27.2046 46.9315 24.8928C47.0045 24.5842 47.0662 24.2812 47.1167 23.9782Z" fill="#825740"/>
<path fill-rule="evenodd" clip-rule="evenodd" d="M45.8934 29.8474C45.8373 29.7857 45.7868 29.7071 45.7476 29.6061C46.0449 28.54 46.376 27.2045 46.9315 24.8927C46.9708 24.7244 47.0101 24.5561 47.0437 24.3877C47.2121 24.326 47.4309 24.2755 47.689 24.2867C48.4241 24.3148 48.4634 25.7456 48.1996 26.3909C47.9359 27.0362 47.9359 27.0362 47.9359 27.0362C47.9359 27.0362 48.194 26.2001 48.1323 25.4707C48.0706 24.7412 47.4477 24.7693 47.285 24.9545C47.1223 25.134 46.8417 25.6334 46.9652 26.2282C47.0886 26.823 46.954 27.5636 46.6453 27.76C46.3928 27.9228 45.9159 29.2245 45.8934 29.8474Z" fill="#5F3722"/>
<path fill-rule="evenodd" clip-rule="evenodd" d="M31.9275 23.2991C31.9275 23.2991 32.5728 22.8165 33.2293 23.1756C33.8858 23.5404 34.7387 24.483 34.9799 24.382C35.2268 24.281 35.1876 24.0173 34.5816 23.5123C33.9756 23.0073 33.2517 22.5023 32.5952 22.7492C31.9387 22.9905 31.6189 23.4786 31.9275 23.2991Z" fill="#191716"/>
<path fill-rule="evenodd" clip-rule="evenodd" d="M37.6732 24.0732C37.6732 24.0732 38.2063 24.4716 38.4756 24.1742C38.745 23.8768 39.5305 23.08 40.6135 22.878C41.6964 22.6704 42.0668 23.0856 42.179 23.2315C42.2912 23.383 42.4427 23.2596 42.2183 22.9846C41.9994 22.7097 40.967 22.2608 39.856 22.6648C38.745 23.0632 37.3983 23.6187 37.6676 24.0732H37.6732Z" fill="#191716"/>
<path fill-rule="evenodd" clip-rule="evenodd" d="M32.4321 24.8532C32.4321 24.8532 33.1504 24.3706 33.9303 24.64C34.7103 24.9093 34.9852 25.4816 34.9852 25.4816C34.9852 25.4816 34.1772 23.5682 32.4321 24.8588V24.8532Z" fill="#5F3722"/>
<path fill-rule="evenodd" clip-rule="evenodd" d="M38.6045 25.2124C38.6045 25.2124 39.2105 24.5054 40.2486 24.4942C41.2866 24.483 41.9543 24.9431 41.9543 24.9431C41.9543 24.9431 41.3371 24.2249 40.069 24.3371C38.8009 24.4493 38.6157 25.0834 38.6045 25.2124Z" fill="#5F3722"/>
<path fill-rule="evenodd" clip-rule="evenodd" d="M32.3538 25.532C32.3538 25.532 32.5894 25.9922 32.999 26.1885C33.4087 26.3849 33.8407 26.312 34.1942 26.2895C34.5477 26.2727 34.8114 26.34 34.8114 26.34C34.8114 26.34 34.9012 26.4074 34.9629 26.3008C35.0303 26.1885 34.8507 26.11 34.8507 26.11C34.8507 26.11 34.6768 25.3805 33.7004 25.2234C32.7241 25.0663 32.4716 25.4872 32.3481 25.532H32.3538Z" fill="white"/>
<path fill-rule="evenodd" clip-rule="evenodd" d="M38.6328 26.1945C38.6328 26.1945 38.5206 26.3685 38.4084 26.245C38.2962 26.1216 38.5206 25.914 38.5206 25.914C38.5206 25.914 39.1322 25.1733 40.0019 25.0835C40.8717 24.9937 41.5955 25.4707 41.7021 25.4931C41.8143 25.5156 41.848 25.5156 41.82 25.5156C41.7919 25.5156 41.1915 26.2394 40.2993 26.3516C39.4072 26.4582 38.9358 26.0935 38.6384 26.1945H38.6328Z" fill="white"/>
<path fill-rule="evenodd" clip-rule="evenodd" d="M35.2773 24.7803C35.2773 24.7803 35.6589 25.2011 35.6982 26.1438C35.7375 27.0865 35.4176 28.1806 35.4176 28.1806C35.4176 28.1806 36.5006 25.1506 35.2773 24.7859V24.7803Z" fill="#5F3722"/>
<path fill-rule="evenodd" clip-rule="evenodd" d="M35.204 28.708C35.204 28.708 34.9683 28.882 34.901 29.2074C34.8337 29.5328 34.9683 29.7741 35.1367 29.8246C35.3106 29.8695 34.6148 29.3757 35.204 28.708Z" fill="#5F3722"/>
<path fill-rule="evenodd" clip-rule="evenodd" d="M37.7743 28.7812C37.7743 28.7812 38.1222 28.9889 38.1222 29.348C38.1166 29.7071 37.8809 29.8698 37.7126 29.9371C37.5442 30.0045 38.0605 30.0101 38.2007 29.5331C38.3466 29.0506 37.937 28.7588 37.7743 28.7869V28.7812Z" fill="#5F3722"/>
<path fill-rule="evenodd" clip-rule="evenodd" d="M35.1819 29.6061C35.1819 29.6061 35.3334 29.4546 35.5186 29.6285C35.7037 29.8081 35.8665 29.9932 36.2424 29.9708C36.6183 29.9483 36.7699 29.7463 36.9999 29.679C37.23 29.6117 37.2692 29.9147 37.3927 29.8586C37.5161 29.7968 37.4151 29.376 37.129 29.4546C36.8372 29.5275 36.6127 29.9764 36.248 29.9764C35.8833 29.9764 35.816 29.8193 35.642 29.6397C35.4681 29.4602 35.0192 29.3423 35.1875 29.6117L35.1819 29.6061Z" fill="#241714"/>
<path d="M36.4891 29.2918C36.6007 29.2918 36.6911 29.229 36.6911 29.1515C36.6911 29.074 36.6007 29.0112 36.4891 29.0112C36.3775 29.0112 36.2871 29.074 36.2871 29.1515C36.2871 29.229 36.3775 29.2918 36.4891 29.2918Z" fill="#96664C"/>
<path fill-rule="evenodd" clip-rule="evenodd" d="M34.6207 32.0411C34.6207 32.0411 34.2672 32.0803 34.228 31.8839C34.1887 31.6876 34.3065 31.7886 34.4075 31.8727C34.5085 31.9569 34.6376 31.9457 34.6488 31.8952C34.66 31.8447 34.7891 31.1377 35.4119 30.9469C36.0348 30.7561 36.1189 31.0142 36.2592 31.0703C36.3995 31.1264 36.5229 31.0423 36.6015 30.9693C36.68 30.8964 37.1963 30.6214 37.8977 31.1152C38.5991 31.609 38.8572 31.9457 38.9413 32.0074C39.0255 32.0691 39.1994 32.0242 39.1826 31.9176C39.1714 31.811 39.3117 31.811 39.3958 31.9176C39.48 32.0242 39.0592 32.1421 39.0592 32.1421C39.0592 32.1421 38.8067 33.0567 37.9538 33.5673C37.1009 34.0779 35.8889 34.0218 35.3951 33.6066C34.9069 33.1913 34.733 32.2879 34.6039 32.0411H34.6207Z" fill="#A65E53"/>
<path fill-rule="evenodd" clip-rule="evenodd" d="M36.4329 33.2027C36.4329 33.2027 36.9211 33.2981 37.3419 33.0232C37.7628 32.7482 38.0938 32.6977 38.105 32.9334C38.1163 33.1691 37.2746 33.3879 36.7303 33.3542C36.186 33.3149 36.2814 33.1578 36.4329 33.2027Z" fill="#D48579"/>
<path fill-rule="evenodd" clip-rule="evenodd" d="M34.8789 32.03C34.8789 32.03 35.2885 32.0692 35.614 32.2769C35.9338 32.4845 36.5174 32.6696 36.9382 32.4901C37.359 32.3105 37.6396 32.232 37.9875 32.2151C38.3354 32.1983 38.6889 32.1366 38.6889 32.1366C38.1558 32.159 37.23 31.8392 36.3939 31.8448C35.7542 31.8504 35.4456 32.058 34.8789 32.03Z" fill="white"/>
<path fill-rule="evenodd" clip-rule="evenodd" d="M32.3538 25.5322C32.3538 25.5322 32.5894 25.9923 32.999 26.1887C33.4087 26.3851 33.8407 26.3121 34.1942 26.2897C34.5477 26.2729 34.8114 26.3402 34.8114 26.3402C34.8114 26.3402 34.8339 26.357 34.8619 26.3626C34.6768 26.1045 33.706 26.3514 33.1561 26.1382C32.7465 25.9811 32.5053 25.65 32.4099 25.4873C32.3874 25.5041 32.365 25.521 32.3481 25.5266L32.3538 25.5322Z" fill="#D4926F"/>
<path fill-rule="evenodd" clip-rule="evenodd" d="M38.6327 26.1946C38.6327 26.1946 38.5598 26.3012 38.4756 26.2899C38.6944 25.7905 39.6147 26.3741 40.3834 26.2058C41.0118 26.0655 41.4832 25.6559 41.6571 25.4819C41.6739 25.4875 41.6908 25.4932 41.702 25.4988C41.8142 25.5212 41.8479 25.5212 41.8198 25.5212C41.7918 25.5212 41.1914 26.2451 40.2992 26.3573C39.407 26.4639 38.9357 26.0992 38.6383 26.2002L38.6327 26.1946Z" fill="#D4926F"/>
<path fill-rule="evenodd" clip-rule="evenodd" d="M38.4644 25.9701C38.4924 25.9364 38.5149 25.914 38.5149 25.914C38.5149 25.914 39.1265 25.1733 39.9962 25.0835C40.8659 24.9937 41.5898 25.4707 41.6964 25.4931C41.8086 25.5156 41.8423 25.5156 41.8142 25.5156C41.803 25.5156 41.7357 25.5885 41.6234 25.6951C40.0635 25.0947 38.902 25.6783 38.4644 25.9645V25.9701Z" fill="#ADA89F"/>
<path fill-rule="evenodd" clip-rule="evenodd" d="M32.3706 25.5323C32.3706 25.5323 32.4043 25.5996 32.4716 25.695C32.8924 25.5491 34.1157 25.2405 34.9742 26.3235C34.9798 26.3179 34.9798 26.3122 34.9854 26.3066C35.0527 26.1944 34.8732 26.1159 34.8732 26.1159C34.8732 26.1159 34.6992 25.3864 33.7285 25.2293C32.7578 25.0722 32.4997 25.493 32.3762 25.5379L32.3706 25.5323Z" fill="#ADA89F"/>
<path fill-rule="evenodd" clip-rule="evenodd" d="M34.5476 25.6163C34.3849 25.448 34.138 25.2853 33.762 25.2235C33.5881 25.1955 33.4422 25.1843 33.3132 25.1899C33.2458 25.2909 33.2065 25.4143 33.2065 25.5434C33.2065 25.9025 33.5039 26.1943 33.8743 26.1943C34.2165 26.1943 34.5027 25.9418 34.542 25.6163H34.5476Z" fill="#9FABAB"/>
<path fill-rule="evenodd" clip-rule="evenodd" d="M39.5751 25.1787C39.7098 25.1338 39.8501 25.0945 40.0016 25.0833C40.2429 25.0609 40.4729 25.0777 40.6861 25.117C40.7703 25.2292 40.8208 25.3695 40.8208 25.521C40.8208 25.8913 40.5234 26.1887 40.1531 26.1887C39.7827 26.1887 39.4854 25.8913 39.4854 25.521C39.4854 25.3975 39.519 25.2797 39.5807 25.1787H39.5751Z" fill="#9FABAB"/>
<path d="M40.1477 25.8013C40.3027 25.8013 40.4283 25.6757 40.4283 25.5208C40.4283 25.3658 40.3027 25.2402 40.1477 25.2402C39.9928 25.2402 39.8672 25.3658 39.8672 25.5208C39.8672 25.6757 39.9928 25.8013 40.1477 25.8013Z" fill="#191716"/>
<path d="M33.8631 25.8184C34.0118 25.8184 34.1324 25.6954 34.1324 25.5435C34.1324 25.3917 34.0118 25.2686 33.8631 25.2686C33.7143 25.2686 33.5938 25.3917 33.5938 25.5435C33.5938 25.6954 33.7143 25.8184 33.8631 25.8184Z" fill="#191716"/>
<path fill-rule="evenodd" clip-rule="evenodd" d="M31.9609 25.3416C31.9609 25.3416 32.1068 25.4762 32.2134 25.5211C32.3201 25.566 32.3706 25.5604 32.3706 25.5604C32.3706 25.5604 32.8363 25.1452 33.6892 25.2967C34.5421 25.4482 34.8563 26.1047 34.8563 26.1047C34.8563 26.1047 34.6823 25.1452 33.706 24.9376C32.7353 24.7299 32.2022 25.3696 31.9609 25.3303V25.3416Z" fill="#191716"/>
<path fill-rule="evenodd" clip-rule="evenodd" d="M38.4023 26.0653C38.4023 26.0653 38.6605 25.65 39.3394 25.3919C40.0184 25.1282 40.5121 25.1394 41.034 25.319C41.5558 25.4985 41.7634 25.6164 41.9823 25.4985C42.2011 25.3807 42.2123 25.2348 42.2123 25.2348C42.2123 25.2348 42.1057 25.319 41.9654 25.2573C41.8251 25.1955 39.2552 23.9723 38.408 26.0653H38.4023Z" fill="#191716"/>
<path d="M33.4706 25.8239C33.5759 25.8239 33.6613 25.7385 33.6613 25.6332C33.6613 25.5278 33.5759 25.4424 33.4706 25.4424C33.3652 25.4424 33.2798 25.5278 33.2798 25.6332C33.2798 25.7385 33.3652 25.8239 33.4706 25.8239Z" fill="white"/>
<path d="M39.5472 25.8239C39.6526 25.8239 39.738 25.7385 39.738 25.6332C39.738 25.5278 39.6526 25.4424 39.5472 25.4424C39.4419 25.4424 39.3564 25.5278 39.3564 25.6332C39.3564 25.7385 39.4419 25.8239 39.5472 25.8239Z" fill="white"/>
</g>
<defs>
<clipPath id="clip0">
<rect width="84.6667" height="211.667" fill="white"/>
</clipPath>
</defs>
</svg>
