<svg width="85" height="212" viewBox="0 0 85 212" fill="none" xmlns="http://www.w3.org/2000/svg">
<g clip-path="url(#clip0)">
<path fill-rule="evenodd" clip-rule="evenodd" d="M31.7314 22.4126H42.3926V28.1584H31.7314V22.4126Z" fill="#825740"/>
<path fill-rule="evenodd" clip-rule="evenodd" d="M31.9275 23.2991C31.9275 23.2991 32.5728 22.8165 33.2293 23.1756C33.8858 23.5404 34.7331 24.483 34.98 24.382C35.2269 24.281 35.1876 24.0173 34.5816 23.5123C33.9756 23.0073 33.2518 22.5023 32.5953 22.7492C31.9387 22.9905 31.6245 23.4786 31.9275 23.2991Z" fill="#191716"/>
<path fill-rule="evenodd" clip-rule="evenodd" d="M37.6732 24.0737C37.6732 24.0737 38.2063 24.4721 38.4756 24.1747C38.745 23.8773 39.5305 23.0805 40.6135 22.8785C41.6964 22.6709 42.0668 23.0861 42.179 23.232C42.2912 23.3835 42.4427 23.2601 42.2183 22.9851C41.9994 22.7102 40.967 22.2613 39.856 22.6653C38.745 23.0637 37.3983 23.6192 37.6676 24.0737H37.6732Z" fill="#191716"/>
<path fill-rule="evenodd" clip-rule="evenodd" d="M32.4326 24.8537C32.4326 24.8537 33.1508 24.3711 33.9308 24.6404C34.7107 24.9098 34.9857 25.4821 34.9857 25.4821C34.9857 25.4821 34.1777 23.5687 32.4326 24.8593V24.8537Z" fill="#5F3722"/>
<path fill-rule="evenodd" clip-rule="evenodd" d="M38.6055 25.2124C38.6055 25.2124 39.2115 24.5054 40.2495 24.4942C41.2876 24.483 41.9553 24.9431 41.9553 24.9431C41.9553 24.9431 41.3381 24.2249 40.07 24.3371C38.8019 24.4493 38.6167 25.0834 38.6055 25.2124Z" fill="#5F3722"/>
<path fill-rule="evenodd" clip-rule="evenodd" d="M32.3545 25.5325C32.3545 25.5325 32.5902 25.9926 32.9998 26.189C33.4094 26.3854 33.8414 26.3125 34.1949 26.29C34.5485 26.2732 34.8178 26.3405 34.8178 26.3405C34.8178 26.3405 34.9076 26.4135 34.9693 26.3013C35.0366 26.189 34.8571 26.1105 34.8571 26.1105C34.8571 26.1105 34.6831 25.381 33.7068 25.2239C32.7304 25.0668 32.4779 25.4876 32.3545 25.5325Z" fill="white"/>
<path fill-rule="evenodd" clip-rule="evenodd" d="M38.6328 26.1948C38.6328 26.1948 38.5206 26.3687 38.4084 26.2453C38.2962 26.1218 38.5206 25.9086 38.5206 25.9086C38.5206 25.9086 39.1322 25.1679 40.0019 25.0781C40.8717 24.9884 41.5955 25.4653 41.7077 25.4877C41.82 25.5102 41.8536 25.5102 41.8256 25.5102C41.7975 25.5102 41.1971 26.234 40.3049 26.3463C39.4128 26.4529 38.9414 26.0881 38.644 26.1891L38.6328 26.1948Z" fill="white"/>
<path fill-rule="evenodd" clip-rule="evenodd" d="M35.2773 24.7803C35.2773 24.7803 35.6589 25.2011 35.6982 26.1438C35.7318 27.0191 35.4625 28.0235 35.4232 28.1638C35.5074 27.9225 36.4445 25.1338 35.2773 24.7859V24.7803Z" fill="#5F3722"/>
<path fill-rule="evenodd" clip-rule="evenodd" d="M32.3545 25.5322C32.3545 25.5322 32.5902 25.9923 32.9998 26.1887C33.4094 26.3851 33.8414 26.3121 34.1949 26.2897C34.5485 26.2729 34.8178 26.3402 34.8178 26.3402C34.8178 26.3402 34.8402 26.357 34.8683 26.3626C34.6831 26.1045 33.7124 26.3514 33.1625 26.1382C32.7529 25.9811 32.5116 25.65 32.4162 25.4873C32.3938 25.5041 32.3713 25.521 32.3545 25.5266V25.5322Z" fill="#D4926F"/>
<path fill-rule="evenodd" clip-rule="evenodd" d="M38.6327 26.1946C38.6327 26.1946 38.5598 26.3012 38.4756 26.2899C38.6944 25.7962 39.6147 26.3741 40.389 26.2058C41.0174 26.0655 41.4888 25.6559 41.6571 25.4819C41.6739 25.4875 41.6908 25.4932 41.702 25.4988C41.8142 25.5212 41.8479 25.5212 41.8198 25.5212C41.7918 25.5212 41.1914 26.2451 40.2992 26.3573C39.407 26.4639 38.9357 26.0992 38.6383 26.2002L38.6327 26.1946Z" fill="#D4926F"/>
<path fill-rule="evenodd" clip-rule="evenodd" d="M38.4648 25.9701C38.4929 25.9364 38.5153 25.914 38.5153 25.914C38.5153 25.914 39.127 25.1733 39.9967 25.0835C40.8664 24.9937 41.5903 25.4707 41.7025 25.4931C41.8147 25.5156 41.8484 25.5156 41.8203 25.5156C41.8091 25.5156 41.7418 25.5885 41.6295 25.6951C40.0696 25.0947 38.9081 25.6783 38.4705 25.9645L38.4648 25.9701Z" fill="#ADA89F"/>
<path fill-rule="evenodd" clip-rule="evenodd" d="M32.3711 25.5323C32.3711 25.5323 32.4048 25.5996 32.4721 25.695C32.8929 25.5491 34.1162 25.2405 34.9747 26.3235C34.9803 26.3179 34.9803 26.3122 34.9859 26.3066C35.0532 26.1944 34.8737 26.1159 34.8737 26.1159C34.8737 26.1159 34.6997 25.3864 33.729 25.2293C32.7583 25.0722 32.5002 25.493 32.3767 25.5379L32.3711 25.5323Z" fill="#ADA89F"/>
<path fill-rule="evenodd" clip-rule="evenodd" d="M34.5481 25.6163C34.3854 25.448 34.1385 25.2853 33.7625 25.2235C33.5886 25.1955 33.4427 25.1843 33.3136 25.1899C33.2463 25.2909 33.207 25.4143 33.207 25.5434C33.207 25.9025 33.5044 26.1943 33.8748 26.1943C34.217 26.1943 34.5032 25.9418 34.5425 25.6163H34.5481Z" fill="#BD9259"/>
<path fill-rule="evenodd" clip-rule="evenodd" d="M39.5761 25.1787C39.7108 25.1338 39.8511 25.0945 40.0026 25.0833C40.2438 25.0609 40.4739 25.0777 40.6871 25.117C40.7713 25.2292 40.8218 25.3695 40.8218 25.521C40.8218 25.8913 40.5244 26.1887 40.1541 26.1887C39.7837 26.1887 39.4863 25.8913 39.4863 25.521C39.4863 25.3975 39.52 25.2797 39.5817 25.1787H39.5761Z" fill="#BD9259"/>
<path fill-rule="evenodd" clip-rule="evenodd" d="M40.1477 25.2407C40.3049 25.2407 40.4283 25.3642 40.4283 25.5213C40.4283 25.6784 40.3049 25.8018 40.1477 25.8018C39.9906 25.8018 39.8672 25.6784 39.8672 25.5213C39.8672 25.3642 39.9906 25.2407 40.1477 25.2407Z" fill="#191716"/>
<path fill-rule="evenodd" clip-rule="evenodd" d="M33.8641 25.2686C34.0156 25.2686 34.1334 25.392 34.1334 25.5435C34.1334 25.695 34.01 25.8184 33.8641 25.8184C33.7126 25.8184 33.5947 25.695 33.5947 25.5435C33.5947 25.392 33.7182 25.2686 33.8641 25.2686Z" fill="#191716"/>
<path fill-rule="evenodd" clip-rule="evenodd" d="M31.9619 25.3416C31.9619 25.3416 32.1078 25.4762 32.2144 25.5211C32.321 25.566 32.3715 25.5604 32.3715 25.5604C32.3715 25.5604 32.8373 25.1452 33.6902 25.2967C34.543 25.4482 34.8573 26.1047 34.8573 26.1047C34.8573 26.1047 34.6833 25.1452 33.707 24.9376C32.7363 24.7299 32.2032 25.3696 31.9619 25.3303V25.3416Z" fill="#191716"/>
<path fill-rule="evenodd" clip-rule="evenodd" d="M38.4033 26.0653C38.4033 26.0653 38.6614 25.65 39.3404 25.3919C40.0193 25.1282 40.5131 25.1394 41.0349 25.319C41.5568 25.4985 41.7644 25.6164 41.9832 25.4985C42.2021 25.3807 42.2133 25.2348 42.2133 25.2348C42.2133 25.2348 42.1067 25.319 41.9664 25.2573C41.8261 25.1955 39.2562 23.9723 38.4089 26.0653H38.4033Z" fill="#191716"/>
<path fill-rule="evenodd" clip-rule="evenodd" d="M33.4711 25.4424C33.5777 25.4424 33.6618 25.5266 33.6618 25.6332C33.6618 25.7398 33.5777 25.8239 33.4711 25.8239C33.3644 25.8239 33.2803 25.7398 33.2803 25.6332C33.2803 25.5266 33.3644 25.4424 33.4711 25.4424Z" fill="white"/>
<path fill-rule="evenodd" clip-rule="evenodd" d="M39.5482 25.4424C39.6548 25.4424 39.739 25.5266 39.739 25.6332C39.739 25.7398 39.6548 25.8239 39.5482 25.8239C39.4416 25.8239 39.3574 25.7398 39.3574 25.6332C39.3574 25.5266 39.4416 25.4424 39.5482 25.4424Z" fill="white"/>
</g>
<defs>
<clipPath id="clip0">
<rect width="84.6667" height="211.667" fill="white"/>
</clipPath>
</defs>
</svg>
