<svg width="85" height="212" viewBox="0 0 85 212" fill="none" xmlns="http://www.w3.org/2000/svg">
<g clip-path="url(#clip0)">
<path fill-rule="evenodd" clip-rule="evenodd" d="M32.3477 22.4116H43.0086V28.1604H32.3477V22.4116Z" fill="#825740"/>
<path fill-rule="evenodd" clip-rule="evenodd" d="M32.6045 23.2995C32.6045 23.2995 33.1948 22.8119 33.7902 23.1763C34.3856 23.5407 35.1607 24.4852 35.3865 24.3825C35.6124 24.2799 35.5713 24.0181 35.0221 23.5151C34.4729 23.012 33.8107 22.509 33.2102 22.7503C32.6148 22.9915 32.3222 23.4791 32.6045 23.2995Z" fill="#191716"/>
<path fill-rule="evenodd" clip-rule="evenodd" d="M38.0659 24.0695C38.0659 24.0695 38.5997 24.4699 38.8667 24.1722C39.1387 23.8745 39.9189 23.0789 41.0019 22.8736C42.085 22.6683 42.4597 23.0789 42.5675 23.2277C42.6804 23.3766 42.8292 23.2534 42.6085 22.9814C42.3878 22.7042 41.3561 22.2576 40.2474 22.658C39.1387 23.0584 37.7888 23.6076 38.0608 24.0695H38.0659Z" fill="#191716"/>
<path fill-rule="evenodd" clip-rule="evenodd" d="M33.0608 24.8549C33.0608 24.8549 33.7127 24.3673 34.421 24.6393C35.1293 24.9113 35.3809 25.4811 35.3809 25.4811C35.3809 25.4811 34.6417 23.5665 33.0557 24.8549H33.0608Z" fill="#5F3722"/>
<path fill-rule="evenodd" clip-rule="evenodd" d="M39 25.2091C39 25.2091 39.6057 24.5008 40.6425 24.4905C41.6794 24.4802 42.3518 24.9371 42.3518 24.9371C42.3518 24.9371 41.7358 24.2185 40.468 24.3314C39.2002 24.4443 39.0103 25.0756 39.0051 25.2091H39Z" fill="#5F3722"/>
<path fill-rule="evenodd" clip-rule="evenodd" d="M32.9941 25.5322C32.9941 25.5322 33.2097 25.9942 33.5844 26.1892C33.9591 26.3843 34.3492 26.3124 34.6726 26.2919C34.996 26.2713 35.2372 26.3432 35.2372 26.3432C35.2372 26.3432 35.3142 26.4151 35.3758 26.3021C35.4374 26.1892 35.2731 26.1122 35.2731 26.1122C35.2731 26.1122 35.114 25.3833 34.226 25.2242C33.338 25.0651 33.1071 25.486 32.9941 25.5322Z" fill="white"/>
<path fill-rule="evenodd" clip-rule="evenodd" d="M39.025 26.1948C39.025 26.1948 38.9121 26.3693 38.7992 26.2461C38.6863 26.1229 38.9121 25.9125 38.9121 25.9125C38.9121 25.9125 39.5229 25.1733 40.3904 25.081C41.2578 24.9937 41.9816 25.4711 42.0945 25.4916C42.2074 25.5172 42.2382 25.5172 42.2126 25.5172C42.1869 25.5172 41.5812 26.2461 40.6932 26.3539C39.8001 26.4617 39.3279 26.0973 39.0302 26.1948H39.025Z" fill="white"/>
<path fill-rule="evenodd" clip-rule="evenodd" d="M35.6689 24.7832C35.6689 24.7832 36.0539 25.2041 36.0898 26.1434C36.1258 27.016 35.8537 28.022 35.8127 28.1606C35.8948 27.9194 36.8341 25.1271 35.6689 24.7832Z" fill="#5F3722"/>
<path fill-rule="evenodd" clip-rule="evenodd" d="M32.9941 25.5323C32.9941 25.5323 33.2097 25.9942 33.5844 26.1893C33.9591 26.3843 34.3492 26.3125 34.6726 26.2919C34.996 26.2714 35.2372 26.3433 35.2372 26.3433C35.2372 26.3433 35.2577 26.3587 35.2834 26.3638C35.114 26.1072 34.2312 26.3535 33.7333 26.1431C33.3586 25.984 33.143 25.6503 33.0557 25.4912C33.0352 25.5117 33.0147 25.522 32.9993 25.5323H32.9941Z" fill="#D4926F"/>
<path fill-rule="evenodd" clip-rule="evenodd" d="M39.0253 26.1947C39.0253 26.1947 38.9535 26.3025 38.8662 26.2871C39.0869 25.7892 40.0057 26.3692 40.7756 26.1998C41.4018 26.0612 41.8741 25.6506 42.0486 25.4761C42.0691 25.4863 42.0794 25.4915 42.0897 25.4915C42.2026 25.5171 42.2334 25.5171 42.2077 25.5171C42.182 25.5171 41.5764 26.246 40.6884 26.3538C39.7953 26.4616 39.323 26.0972 39.0253 26.1947Z" fill="#D4926F"/>
<path fill-rule="evenodd" clip-rule="evenodd" d="M38.8564 25.9689C38.8821 25.933 38.9078 25.9125 38.9078 25.9125C38.9078 25.9125 39.5186 25.1733 40.386 25.081C41.2535 24.9937 41.9772 25.4711 42.0902 25.4916C42.2031 25.5172 42.2339 25.5172 42.2082 25.5172C42.1979 25.5172 42.1312 25.5891 42.0132 25.6969C40.4528 25.0964 39.2876 25.6815 38.8564 25.9689Z" fill="#ADA89F"/>
<path fill-rule="evenodd" clip-rule="evenodd" d="M32.9941 25.5322C32.9941 25.5322 33.0249 25.5989 33.0865 25.6913C33.4664 25.5425 34.5853 25.2345 35.3655 26.3175C35.3707 26.3124 35.3707 26.3073 35.3758 26.3021C35.4374 26.1892 35.2731 26.1122 35.2731 26.1122C35.2731 26.1122 35.114 25.3833 34.226 25.2242C33.338 25.0651 33.1071 25.486 32.9941 25.5322Z" fill="#ADA89F"/>
<path fill-rule="evenodd" clip-rule="evenodd" d="M34.9912 25.6194C34.8321 25.45 34.5909 25.2909 34.2265 25.2242C34.0571 25.1934 33.9133 25.1831 33.7902 25.1883C33.7234 25.2909 33.6875 25.409 33.6875 25.5373C33.6875 25.8966 33.9801 26.1892 34.3394 26.1892C34.673 26.1892 34.9502 25.9377 34.9861 25.6143L34.9912 25.6194Z" fill="#7FBAC9"/>
<path fill-rule="evenodd" clip-rule="evenodd" d="M39.9645 25.1836C40.0979 25.1374 40.2365 25.1014 40.3905 25.086C40.6317 25.0604 40.8627 25.0809 41.0732 25.122C41.1553 25.2349 41.2066 25.3735 41.2066 25.5223C41.2066 25.8919 40.9089 26.1896 40.5393 26.1896C40.1698 26.1896 39.8721 25.8919 39.8721 25.5223C39.8721 25.3991 39.908 25.2811 39.9645 25.1836Z" fill="#7FBAC9"/>
<path fill-rule="evenodd" clip-rule="evenodd" d="M40.5401 25.2397C40.6941 25.2397 40.8224 25.3629 40.8224 25.5221C40.8224 25.676 40.6992 25.8044 40.5401 25.8044C40.3861 25.8044 40.2578 25.6812 40.2578 25.5221C40.2578 25.3681 40.381 25.2397 40.5401 25.2397Z" fill="#191716"/>
<path fill-rule="evenodd" clip-rule="evenodd" d="M34.3394 25.2656C34.4883 25.2656 34.6115 25.3888 34.6115 25.5377C34.6115 25.6865 34.4883 25.8097 34.3394 25.8097C34.1906 25.8097 34.0674 25.6865 34.0674 25.5377C34.0674 25.3888 34.1906 25.2656 34.3394 25.2656Z" fill="#191716"/>
<path fill-rule="evenodd" clip-rule="evenodd" d="M32.6348 25.3424C32.6348 25.3424 32.7631 25.4758 32.8657 25.522C32.9633 25.5682 33.0095 25.5631 33.0095 25.5631C33.0095 25.5631 33.4304 25.1473 34.2106 25.3013C34.9856 25.4553 35.2731 26.1123 35.2731 26.1123C35.2731 26.1123 35.1139 25.1525 34.226 24.9471C33.3431 24.7418 32.8555 25.3783 32.6348 25.3424Z" fill="#191716"/>
<path fill-rule="evenodd" clip-rule="evenodd" d="M38.7949 26.066C38.7949 26.066 39.0567 25.6554 39.7291 25.3936C40.4066 25.1319 40.8994 25.1421 41.4229 25.3166C41.9465 25.4963 42.1518 25.6144 42.3725 25.4963C42.5932 25.3782 42.6035 25.2294 42.6035 25.2294C42.6035 25.2294 42.4957 25.3115 42.3571 25.2551C42.2185 25.1935 39.647 23.9718 38.8001 26.066H38.7949Z" fill="#191716"/>
<path fill-rule="evenodd" clip-rule="evenodd" d="M33.862 25.4453C33.9698 25.4453 34.0571 25.5326 34.0571 25.6404C34.0571 25.7482 33.9698 25.8354 33.862 25.8354C33.7543 25.8354 33.667 25.7482 33.667 25.6404C33.667 25.5326 33.7543 25.4453 33.862 25.4453Z" fill="white"/>
<path fill-rule="evenodd" clip-rule="evenodd" d="M39.9392 25.4453C40.047 25.4453 40.1342 25.5326 40.1342 25.6404C40.1342 25.7482 40.047 25.8354 39.9392 25.8354C39.8314 25.8354 39.7441 25.7482 39.7441 25.6404C39.7441 25.5326 39.8314 25.4453 39.9392 25.4453Z" fill="white"/>
</g>
<defs>
<clipPath id="clip0">
<rect width="84.6667" height="211.667" fill="white"/>
</clipPath>
</defs>
</svg>
