<svg width="85" height="212" viewBox="0 0 85 212" fill="none" xmlns="http://www.w3.org/2000/svg">
<path fill-rule="evenodd" clip-rule="evenodd" d="M31.7588 22.3701H42.422V28.1181H31.7588V22.3701Z" fill="#825740"/>
<path fill-rule="evenodd" clip-rule="evenodd" d="M32.027 23.2513C32.027 23.2513 32.6125 22.7679 33.2141 23.1278C33.8104 23.4931 34.584 24.4332 34.8096 24.3311C35.0352 24.229 34.9976 23.9658 34.4443 23.4608C33.8964 22.9559 33.2303 22.4509 32.634 22.698C32.0377 22.9398 31.7476 23.4286 32.027 23.246V23.2513Z" fill="#191716"/>
<path fill-rule="evenodd" clip-rule="evenodd" d="M37.4856 24.0301C37.4856 24.0301 38.0174 24.433 38.286 24.1321C38.5546 23.8313 39.3389 23.0416 40.424 22.8375C41.5038 22.6334 41.8798 23.0416 41.9926 23.192C42.1055 23.3425 42.2559 23.2189 42.0356 22.9449C41.8154 22.671 40.784 22.2197 39.6774 22.6226C38.5654 23.0255 37.217 23.5734 37.491 24.0301H37.4856Z" fill="#191716"/>
<path fill-rule="evenodd" clip-rule="evenodd" d="M32.4844 24.8142C32.4844 24.8142 33.1397 24.3308 33.8488 24.5994C34.5579 24.868 34.8104 25.4374 34.8104 25.4374C34.8104 25.4374 34.0745 23.525 32.4844 24.8142Z" fill="#5F3722"/>
<path fill-rule="evenodd" clip-rule="evenodd" d="M38.4199 25.1689C38.4199 25.1689 39.027 24.4598 40.0637 24.449C41.1005 24.4383 41.772 24.8949 41.772 24.8949C41.772 24.8949 41.1542 24.1751 39.8865 24.2879C38.6187 24.4007 38.4307 25.0346 38.4199 25.1635V25.1689Z" fill="#5F3722"/>
<path fill-rule="evenodd" clip-rule="evenodd" d="M32.4146 25.4856C32.4146 25.4856 32.6294 25.9476 33.0001 26.141C33.3708 26.3344 33.7629 26.2645 34.0852 26.2431C34.4075 26.2269 34.6493 26.2968 34.6493 26.2968C34.6493 26.2968 34.7298 26.3666 34.7889 26.2538C34.848 26.141 34.6869 26.0604 34.6869 26.0604C34.6869 26.0604 34.5257 25.3298 33.6393 25.174C32.753 25.0129 32.522 25.4373 32.4092 25.4802L32.4146 25.4856Z" fill="white"/>
<path fill-rule="evenodd" clip-rule="evenodd" d="M38.4467 26.1517C38.4467 26.1517 38.3339 26.3236 38.221 26.2054C38.1082 26.0819 38.3338 25.8724 38.3338 25.8724C38.3338 25.8724 38.9462 25.131 39.8111 25.0451C40.6814 24.9591 41.4012 25.4319 41.514 25.4587C41.6268 25.4856 41.6591 25.4856 41.6322 25.4856C41.6053 25.4856 41.0037 26.2108 40.112 26.3182C39.2202 26.4257 38.7475 26.0604 38.4467 26.1571V26.1517Z" fill="white"/>
<path fill-rule="evenodd" clip-rule="evenodd" d="M35.0898 24.7393C35.0898 24.7393 35.4712 25.1583 35.5089 26.1037C35.5411 26.9793 35.2725 27.9785 35.2349 28.1236C35.3155 27.8818 36.2609 25.0938 35.0898 24.7446V24.7393Z" fill="#5F3722"/>
<path fill-rule="evenodd" clip-rule="evenodd" d="M32.4141 25.4856C32.4141 25.4856 32.4463 25.5501 32.5054 25.6468C32.8868 25.4964 34.0041 25.1902 34.7831 26.2753C34.7884 26.2699 34.7884 26.2645 34.7938 26.2592C34.8529 26.1464 34.6918 26.0658 34.6918 26.0658C34.6918 26.0658 34.5306 25.3352 33.6442 25.1794C32.7579 25.0183 32.5269 25.4426 32.4141 25.4856Z" fill="#ADA89F"/>
<path fill-rule="evenodd" clip-rule="evenodd" d="M32.4141 25.4858C32.4141 25.4858 32.6289 25.9478 32.9996 26.1412C33.3703 26.3346 33.7624 26.2648 34.0847 26.2433C34.407 26.2272 34.6488 26.297 34.6488 26.297C34.6488 26.297 34.6703 26.3131 34.6971 26.3185C34.5252 26.0606 33.6442 26.3077 33.1446 26.0982C32.774 25.9425 32.5537 25.6094 32.4678 25.4482C32.4463 25.4644 32.4302 25.4805 32.4141 25.4858Z" fill="#D4926F"/>
<path fill-rule="evenodd" clip-rule="evenodd" d="M38.2803 25.9261C38.3071 25.8939 38.334 25.8724 38.334 25.8724C38.334 25.8724 38.9464 25.131 39.8113 25.0451C40.6815 24.9591 41.4014 25.4319 41.5142 25.4587C41.627 25.4856 41.6592 25.4856 41.6323 25.4856C41.6216 25.4856 41.5571 25.5608 41.439 25.6629C39.8757 25.0612 38.7154 25.6468 38.2803 25.9315V25.9261Z" fill="#ADA89F"/>
<path fill-rule="evenodd" clip-rule="evenodd" d="M38.4468 26.152C38.4468 26.152 38.377 26.2594 38.291 26.2433C38.5113 25.7491 39.4299 26.3292 40.2034 26.1573C40.8319 26.0177 41.2993 25.604 41.4766 25.4375C41.4927 25.4482 41.5088 25.4536 41.5195 25.4536C41.6323 25.4805 41.6646 25.4805 41.6377 25.4805C41.6109 25.4805 41.0092 26.2057 40.1175 26.3131C39.2257 26.4206 38.753 26.0553 38.4522 26.152H38.4468Z" fill="#D4926F"/>
<path fill-rule="evenodd" clip-rule="evenodd" d="M34.4123 25.5771C34.2565 25.4105 34.0148 25.2494 33.6495 25.1849C33.483 25.1527 33.3379 25.1473 33.2144 25.1527C33.1499 25.2548 33.1123 25.3729 33.1123 25.5019C33.1123 25.8618 33.4024 26.1572 33.7677 26.1572C34.1007 26.1572 34.3801 25.9048 34.4177 25.5824L34.4123 25.5771Z" fill="#BD9259"/>
<path fill-rule="evenodd" clip-rule="evenodd" d="M39.3872 25.1369C39.5215 25.0885 39.6612 25.0563 39.8116 25.0402C40.0533 25.0133 40.2843 25.0348 40.4938 25.0778C40.5798 25.1906 40.6281 25.3302 40.6281 25.4807C40.6281 25.8513 40.3273 26.1468 39.962 26.1468C39.5914 26.1468 39.2959 25.846 39.2959 25.4807C39.2959 25.3571 39.3281 25.2389 39.3872 25.1422V25.1369Z" fill="#BD9259"/>
<path fill-rule="evenodd" clip-rule="evenodd" d="M39.962 25.2012C40.1177 25.2012 40.2413 25.3247 40.2413 25.4805C40.2413 25.6363 40.1177 25.7599 39.962 25.7599C39.8062 25.7599 39.6826 25.6363 39.6826 25.4805C39.6826 25.3247 39.8062 25.2012 39.962 25.2012Z" fill="#191716"/>
<path fill-rule="evenodd" clip-rule="evenodd" d="M33.7622 25.2227C33.9127 25.2227 34.0362 25.3462 34.0362 25.4966C34.0362 25.647 33.9127 25.7706 33.7622 25.7706C33.6118 25.7706 33.4883 25.647 33.4883 25.4966C33.4883 25.3462 33.6118 25.2227 33.7622 25.2227Z" fill="#191716"/>
<path fill-rule="evenodd" clip-rule="evenodd" d="M32.0601 25.2977C32.0601 25.2977 32.189 25.432 32.2911 25.4804C32.3877 25.5287 32.4361 25.5233 32.4361 25.5233C32.4361 25.5233 32.8605 25.1097 33.634 25.2601C34.413 25.4105 34.6923 26.0713 34.6923 26.0713C34.6923 26.0713 34.5311 25.1151 33.6448 24.9056C32.7584 24.6961 32.2749 25.3353 32.0547 25.2977H32.0601Z" fill="#191716"/>
<path fill-rule="evenodd" clip-rule="evenodd" d="M38.2158 26.0231C38.2158 26.0231 38.4737 25.6095 39.1505 25.3516C39.8274 25.0884 40.3216 25.0992 40.8427 25.2764C41.3638 25.4537 41.5733 25.5773 41.7881 25.4591C42.0084 25.3409 42.0191 25.1959 42.0191 25.1959C42.0191 25.1959 41.9117 25.2818 41.772 25.2173C41.6324 25.1582 39.0592 23.9335 38.2158 26.0285V26.0231Z" fill="#191716"/>
<path fill-rule="evenodd" clip-rule="evenodd" d="M33.2793 25.3999C33.3868 25.3999 33.4727 25.4859 33.4727 25.5933C33.4727 25.7007 33.3868 25.7867 33.2793 25.7867C33.1719 25.7867 33.0859 25.7007 33.0859 25.5933C33.0859 25.4859 33.1719 25.3999 33.2793 25.3999Z" fill="white"/>
<path fill-rule="evenodd" clip-rule="evenodd" d="M39.3604 25.3999C39.4678 25.3999 39.5538 25.4859 39.5538 25.5933C39.5538 25.7007 39.4678 25.7867 39.3604 25.7867C39.2529 25.7867 39.167 25.7007 39.167 25.5933C39.167 25.4859 39.2529 25.3999 39.3604 25.3999Z" fill="white"/>
</svg>
