<svg width="85" height="212" viewBox="0 0 85 212" fill="none" xmlns="http://www.w3.org/2000/svg">
<path fill-rule="evenodd" clip-rule="evenodd" d="M36.8604 192.131C36.8604 192.131 37.1497 192.982 37.3047 194.339C37.4597 195.692 37.4459 196.312 37.4459 196.312C37.4459 196.312 36.7674 197.318 35.3105 197.883C33.8536 198.448 33.0579 198.455 33.0579 198.455L31.6079 198.196C31.6079 198.196 31.0327 198.73 29.9306 200.352C28.8284 201.978 27.2647 203.046 25.0087 203.349C22.7493 203.655 18.6231 203.556 17.6415 203.122C16.6564 202.684 15.7712 201.572 15.7643 201.217C15.754 200.862 15.4061 200.011 16.6702 198.858C17.9342 197.704 24.1752 194.435 25.4944 192.131C26.8135 189.827 35.9993 189.723 36.8604 192.134V192.131Z" fill="#424852"/>
<path fill-rule="evenodd" clip-rule="evenodd" d="M36.4196 195.345C36.4196 195.345 34.5425 196.147 33.2095 196.922C31.8766 197.694 31.3703 198.035 30.4817 198.951C29.5931 199.867 28.5564 201.727 26.5001 202.402C24.4439 203.074 19.1156 203.232 18.103 202.798C17.0904 202.361 16.2948 201.32 16.2948 201.32C16.2948 201.32 17.6587 202.667 19.3361 202.705C21.0169 202.739 24.9984 202.471 26.2246 202.082C27.4507 201.692 28.7217 200.862 30.1889 198.5C31.6562 196.137 35.5241 195.472 36.4196 195.348V195.345ZM23.0214 200.711C23.0214 200.711 21.2132 200.824 19.1501 200.215C17.087 199.605 17.4142 198.706 17.4142 198.706C17.4142 198.706 16.1743 200.229 18.4475 200.938C20.7207 201.648 23.0214 200.711 23.0214 200.711ZM26.9066 193.743C26.9066 193.743 26.476 194.156 26.7516 194.57C27.0271 194.98 27.7469 197.57 27.7469 197.57C27.7469 197.57 26.7481 195.558 26.3761 194.911C26.0042 194.263 25.9525 193.926 26.0179 193.705C26.0868 193.485 26.1247 193.368 26.1247 193.368C26.1247 193.368 26.5793 193.302 26.8997 193.747L26.9066 193.743Z" fill="#58606D"/>
<path fill-rule="evenodd" clip-rule="evenodd" d="M60.8014 191.077C60.8014 191.077 63.047 195.586 63.2985 196.371C63.5534 197.156 63.6291 199.864 63.6291 199.864C63.6291 199.864 63.8323 203.566 59.8336 203.807C55.8348 204.048 54.1574 201.727 54.0403 199.788C53.9232 197.849 53.7028 195.207 53.0931 193.936C52.4835 192.665 52.4835 192.665 52.4835 192.665C52.4835 192.665 52.0427 190.295 52.5214 189.396C52.9967 188.494 59.837 190.295 60.798 191.084L60.8014 191.077Z" fill="#424852"/>
<path fill-rule="evenodd" clip-rule="evenodd" d="M62.6785 199.754C62.6785 199.754 62.4201 202.147 59.5958 202.375C56.7716 202.599 55.449 200.532 55.2767 199.712C55.108 198.896 55.7004 201.197 58.3559 201.331C61.0114 201.465 62.1928 200.477 62.675 199.754H62.6785ZM58.442 192.627C58.442 192.627 59.0895 194.208 59.7233 194.67C60.3536 195.131 61.7657 195.462 61.7657 195.462C61.7657 195.462 59.8576 194.725 59.5717 193.971C59.2859 193.216 59.0792 192.634 59.0792 192.634C59.0792 192.634 58.8588 192.128 58.4455 192.627H58.442ZM56.1481 192.789C56.1481 192.789 56.5615 193.864 56.403 194.546C56.2446 195.228 55.4731 196.141 55.4731 196.141C55.4731 196.141 56.7543 195.004 56.8783 194.232C57.0058 193.461 56.7371 192.855 56.7371 192.855C56.7371 192.855 56.4822 192.645 56.1447 192.789H56.1481Z" fill="#58606D"/>
<path fill-rule="evenodd" clip-rule="evenodd" d="M59.348 86.3438C59.348 86.3438 64.3215 95.0474 63.6877 104.467C63.054 113.887 61.1011 137.674 61.1011 137.674L60.4432 182.941L60.7911 191.056C60.7911 191.056 56.9439 192.096 54.96 192.172C52.9761 192.248 52.1426 191.996 52.1426 191.996C52.1426 191.996 50.9405 188.838 51.0404 187.66C51.1403 186.482 51.3022 181.292 51.0921 180.265C50.882 179.239 46.9521 145.402 47.0864 141.497C47.2173 137.594 46.928 136.055 46.8453 135.445C46.7626 134.839 44.362 115.417 44.362 115.417C44.362 115.417 39.695 146.432 40.3839 147.91C41.0727 149.387 39.7433 171.851 38.0625 179.997C36.3851 188.139 36.7433 188.17 36.7433 188.17L37.0602 192.895C37.0602 192.895 34.3496 194.053 30.8261 193.622C27.3061 193.191 25.7527 191.638 25.7527 191.638C25.7527 191.638 27.1889 189.561 27.2096 187.491C27.2337 185.425 26.4037 144.404 26.2521 142.344C26.1006 140.284 24.2338 110.195 23.9513 104.099C23.6689 98.0026 27.5161 85.958 27.5161 85.958C27.5161 85.958 51.8498 86.3954 59.3445 86.3472L59.348 86.3438Z" fill="#23314B"/>
<path fill-rule="evenodd" clip-rule="evenodd" d="M41.0866 95.2858C41.0866 95.2858 40.9557 106.507 41.0418 107.744C41.1313 108.977 43.7765 110.83 43.7765 110.83C43.7765 110.83 41.8374 108.14 41.9235 107.478C42.0131 106.817 42.1887 95.1962 42.1887 95.1962C42.1887 95.1962 41.6583 95.1067 41.0866 95.2858Z" fill="#192233"/>
<path d="M16.4532 103.796C16.4532 103.796 18.2133 105.298 18.1823 107.957C18.1754 108.635 17.6725 109.93 17.4727 110.578C17.3591 110.943 17.0939 111.673 17.0698 112.055C17.0353 112.637 17.3281 113.798 17.2971 114.38C17.2558 115.11 16.746 116.96 16.0193 117.008C15.2994 117.056 14.7793 115.141 14.7277 114.421C14.6795 113.77 15.451 112.214 14.9343 111.814C14.7587 111.676 14.3591 111.942 14.1731 112.066C14.0182 112.169 13.6668 112.396 13.598 112.568C13.505 112.803 13.3982 113.254 13.3224 113.45C13.2914 113.533 13.0159 114.008 13.0882 114.301C13.2363 114.897 13.4877 116.901 13.4877 116.901C13.4877 116.901 14.428 117.383 14.8413 117.828C15.0342 118.034 15.9917 118.358 16.2259 118.51C16.5772 118.73 17.1042 119.515 16.8459 119.839C16.4842 120.294 14.7587 119.891 14.149 119.522C13.2983 119.006 11.7863 118.41 11.4419 117.683C11.1112 116.987 10.8701 114.738 10.6428 114.091C10.4568 113.557 10.3776 113.374 10.2157 112.785C10.0435 112.159 10.6462 109.861 11.1525 107.981C11.5658 106.448 12.6267 103.903 12.6267 103.903L16.4532 103.799V103.796Z" fill="#C78C68"/>
<path d="M17.1076 115.386C17.1937 115.541 17.3177 115.765 17.3762 115.861C17.5312 116.133 18.0307 116.626 18.0031 116.936C17.9893 117.074 17.6449 117.353 17.6449 117.353C17.6449 117.353 18.5852 118.272 18.5783 118.675C18.5748 118.806 18.2614 119.095 18.2614 119.095C18.2614 119.095 18.2649 119.774 18.0995 119.894C17.8826 120.053 17.2729 119.946 16.8389 119.843L16.8493 119.832C17.1076 119.505 16.5806 118.723 16.2293 118.503C15.9951 118.355 15.0376 118.031 14.8447 117.821C14.5141 117.466 13.7391 117.08 13.4877 116.943V116.843C13.4464 116.522 13.2259 114.835 13.095 114.298C13.0227 114.005 13.2982 113.529 13.3292 113.447C13.405 113.25 13.5118 112.799 13.6048 112.565C13.6737 112.393 14.025 112.166 14.18 112.062C14.366 111.942 14.7621 111.676 14.9412 111.811C15.4578 112.21 14.6897 113.767 14.7345 114.418C14.7862 115.138 15.3062 117.053 16.0261 117.005C16.5083 116.974 16.8941 116.147 17.1145 115.382L17.1076 115.386ZM12.6232 103.899C12.6232 103.899 12.3924 104.481 12.3029 104.695C12.2064 104.929 12.0308 105.394 12.0308 105.394C12.0308 105.394 14.0112 105.277 14.6966 105.277C16.2638 105.28 17.8309 105.907 17.8309 105.907C17.8309 105.907 17.6346 105.387 17.3866 104.953C17.1696 104.574 16.7046 103.899 16.7046 103.899L14.5382 103.658L12.6266 103.903L12.6232 103.899Z" fill="#A16D4D"/>
<path d="M12.2547 102.178L12.1686 104.351C12.1686 104.351 14.2696 104.299 15.0032 104.361C17.4693 104.582 18.1995 104.964 18.1995 104.964L18.6541 102.181L12.2547 102.178Z" fill="#C4C2CC"/>
<path d="M36.1337 28.3569C42.0268 28.3569 42.7329 27.7852 48.7466 27.7852C48.6054 28.9872 48.7328 35.1111 49.9831 36.5749L49.0669 43.8871L46.866 59.1176L35.3863 48.8364L34.5769 39.4405C37.0051 37.3981 36.454 30.4166 36.1337 28.3569Z" fill="#C78C68"/>
<path d="M36.1337 28.3569C42.0269 28.3569 42.7329 27.7852 48.7466 27.7852C48.6949 28.2122 48.6846 29.3971 48.7397 30.6336C48.0509 31.6944 47.1932 32.9171 44.4861 34.8252C41.7789 36.7333 38.4931 35.9618 36.3507 34.4119C36.5436 31.994 36.3059 29.466 36.1337 28.3569ZM49.3183 35.0594C49.494 35.7173 49.711 36.2546 49.9831 36.5715L49.0669 43.8836L47.6444 53.7204C46.9728 55.3048 46.2082 56.7238 45.3885 57.7881L35.7066 49.1189C35.5654 48.6952 35.4311 48.2681 35.3002 47.8445L34.5735 39.4371C35.5413 38.6242 36.0339 37.0261 36.2612 35.2695C36.2612 35.2695 37.0706 39.6334 38.0625 42.1925C39.0545 44.7516 39.6262 46.6011 39.4747 47.4174C39.3197 48.2337 39.5401 48.6952 39.9362 49.3806C40.3323 50.0626 41.8994 52.3358 41.9855 51.9156C42.0751 51.4954 42.3162 49.2257 43.4183 47.6826C44.5205 46.1396 45.7983 45.0822 45.3368 44.1764C44.8753 43.274 44.9614 42.654 45.8879 41.2005C46.6835 39.9503 48.7535 36.9193 49.3183 35.056V35.0594ZM42.1405 37.2121C42.1405 37.2121 42.0096 38.2488 42.3162 38.9101C42.6262 39.5714 43.1084 39.2408 43.1084 39.2408C43.1084 39.2408 42.2714 38.8068 42.1371 37.2121H42.1405Z" fill="#A16D4D"/>
<path d="M32.3071 90.2432C42.7777 93.2776 50.4928 93.0296 58.294 88.4143C56.7028 84.5877 55.3492 81.326 53.758 77.4994C48.7259 63.3573 50.7993 44.3278 51.4193 37.6873C50.3895 36.4749 50.1415 35.483 50.1415 35.483C50.1415 35.483 49.6834 35.1006 49.4389 35.4588C48.9842 38.2315 45.4125 41.7377 45.354 42.5471C45.0956 43.6183 46.1496 43.577 46.0359 44.1935C45.8155 45.3921 44.2243 47.2968 43.6835 48.3817C43.0257 49.7043 42.4883 54.5194 42.4883 54.5194C42.4883 54.5194 40.532 51.6641 40.0774 51.0097C38.1038 48.0338 39.0062 48.4368 38.9787 46.8214C38.9683 46.3014 38.9649 45.9707 38.5343 44.4518C38.1279 43.019 36.7192 39.7469 36.237 35.4623C36.2164 35.2729 35.7583 35.5518 35.6481 35.7826C34.7698 37.7665 34.5769 39.4335 33.6263 42.306C31.3806 53.3828 41.0211 77.1929 32.3071 90.2397V90.2432Z" fill="#F2F1F6"/>
<path d="M50.5101 36.3852C50.5101 36.3852 49.4768 40.6939 48.5709 45.4264C48.4745 44.7547 48.1645 43.6319 48.137 43.2771C48.0164 41.6756 47.2587 41.3794 46.742 41.3656C46.0945 41.3518 45.4367 42.0648 45.3196 42.6985C45.2713 42.9534 45.3471 43.2083 45.4883 43.4252C45.3609 43.1187 45.3643 42.7639 45.881 42.0785C46.3976 41.3931 47.6169 42.1819 47.7753 42.8604C47.9751 43.7318 48.4125 45.0578 48.5503 45.5159C48.1129 47.8201 47.7064 50.2173 47.4653 52.2632C46.7971 57.9738 47.3551 69.7256 48.8396 75.1951C50.0899 79.8 54.5639 84.994 54.9945 89.134C49.8556 92.2889 41.8546 92.8159 36.1957 89.9812C36.4988 86.5232 38.0419 76.931 38.0419 72.7703C38.0419 67.3008 36.0132 53.3688 35.3863 48.8258C35.314 48.2989 35.2589 47.7271 35.2176 47.1278C35.5103 46.9212 35.8306 46.6008 36.0821 46.1221C36.6779 44.9752 37.911 45.7019 38.2657 46.3873C38.617 47.0693 38.7273 47.6203 38.7273 47.6203C38.7273 47.6203 39.2336 45.9464 38.066 44.7754C36.8984 43.6078 36.213 44.9304 35.5964 46.1428C35.4552 46.4183 35.3209 46.6353 35.1969 46.8109C34.9248 42.268 35.4036 36.3301 35.4036 36.3301C27.9777 49.1565 39.2336 78.7151 31.5667 90.1397C43.811 93.9594 50.0967 92.5954 58.4491 88.8412C46.1117 59.6615 53.789 54.781 51.4193 37.6837C51.1162 37.2497 50.8097 36.8123 50.5066 36.3783L50.5101 36.3852Z" fill="#C4C2CC"/>
<path d="M64.8278 97.693C64.8278 97.693 64.3869 98.4886 64.3077 98.7022C64.0666 99.3325 63.3364 101.692 63.3364 101.692L59.2102 94.0559L60.426 93.1328L64.8278 97.693Z" fill="#A16D4D"/>
<path d="M59.5133 93.8218L59.0345 95.1582C59.0345 95.1582 61.2182 96.3327 61.9484 96.715C62.93 97.2178 64.752 98.0031 64.752 98.0031C64.752 98.0031 65.0723 97.2006 65.1447 96.9147C65.1929 96.7184 65.496 95.7196 65.496 95.7196L59.5133 93.8184V93.8218Z" fill="#C4C2CC"/>
<path d="M22.3739 108.236C22.3739 108.236 26.3245 111.993 27.8572 110.95C31.1843 108.683 34.2463 97.2864 35.0453 88.8066C33.368 94.2348 30.1338 105.477 28.2291 107.805C26.3245 110.133 22.3773 108.232 22.3773 108.232L22.3739 108.236Z" fill="#192233"/>
<path d="M35.3966 36.3682C35.3966 36.3682 32.0144 39.2717 28.8835 40.1603C19.4669 42.833 18.01 44.9685 17.5554 54.3368C17.4314 56.8925 17.3212 59.0727 17.1524 61.1117C17.0353 61.8419 16.9216 62.5135 16.8493 63.099C16.7219 64.1116 16.4463 66.1231 16.25 67.115C15.909 68.8234 15.599 70.394 15.32 71.8819C13.7736 77.8473 13.3017 80.9988 13.0227 85.5866C12.7403 90.2329 12.1238 102.536 12.1238 102.536C13.7667 102.501 17.2075 102.691 18.6162 102.99C18.6162 102.99 20.9445 91.1732 21.6781 87.6394C22.2878 84.698 24.0995 76.9449 24.0995 76.9449L26.4243 69.03C26.4243 69.03 26.3727 72.7912 26.4243 73.3767C26.5449 74.7751 26.352 77.6028 26.0592 78.9805C25.8285 80.062 25.3291 82.9793 24.9984 84.0332C24.282 86.2995 23.5105 90.7909 23.1144 93.1329C22.4944 96.8355 21.6816 107.53 21.6816 107.53C21.6816 107.53 25.6322 111.288 27.1648 110.244C30.5196 107.96 32.7135 99.2258 35.283 87.8081C36.423 82.7451 36.8398 72.2608 36.5436 67.487C36.2749 63.1541 34.7009 54.3231 34.3358 50.3071C34.0396 47.0522 35.4104 36.3682 35.4104 36.3682H35.3966Z" fill="#23314B"/>
<path d="M50.51 36.3848C50.51 36.3848 48.2505 47.124 48.1369 50.9057C48.068 53.2582 47.9543 57.9734 48.0646 60.3258C48.223 63.7218 48.3677 71.2096 49.27 74.4886C49.952 76.9581 52.0117 80.64 53.8544 82.4827C57.4536 86.0819 58.3216 94.3447 58.3216 94.3447C61.2698 95.688 63.5775 96.7144 65.2721 97.4273C65.2721 97.4273 67.0355 92.6432 69.5326 87.6387C71.7369 83.2198 74.3167 75.1292 74.4786 72.9077C74.5268 72.2464 72.5877 66.2706 70.6313 60.467C68.489 54.1089 67.6761 47.217 66.1056 45.0195C64.7554 43.1286 54.1368 38.8405 50.51 36.3882V36.3848ZM59.2102 75.7595C58.6694 71.6987 60.5879 62.2373 60.5879 62.2373C60.5879 62.2373 61.9966 66.3773 63.1642 69.5013C64.4695 72.9903 64.8725 74.5402 64.8243 74.957C64.7003 76.0729 63.698 79.2589 62.6028 82.5102C61.4386 81.3495 59.4237 77.4024 59.2067 75.7595H59.2102Z" fill="#23314B"/>
<path d="M30.7055 39.9707C30.2991 40.8455 26.166 47.9132 26.1212 48.5986C26.3658 49.594 29.0626 55.2219 30.2164 57.6983C29.2142 54.3746 27.7745 50.0279 27.9226 48.6847C28.0638 47.4172 29.9443 42.2508 30.7055 39.9741V39.9707Z" fill="#35496E"/>
<path d="M64.8243 74.9541C63.5913 81.2364 60.5156 86.978 59.1138 94.5864C61.0873 89.6817 65.1722 79.659 64.8243 74.9541Z" fill="#182234"/>
<path fill-rule="evenodd" clip-rule="evenodd" d="M57.2745 48.2371L53.2448 49.2049L57.278 49.1808C56.6098 51.5711 52.7143 65.7339 50.7167 73.5696C52.9761 66.7499 58.2458 48.6814 58.2458 48.6814C58.2458 48.6814 57.2091 43.0397 53.3205 38.4795C55.5662 41.5483 56.6236 44.5586 57.2745 48.2405V48.2371Z" fill="#182234"/>
<path fill-rule="evenodd" clip-rule="evenodd" d="M26.0696 48.2365L30.0994 49.2043L26.0661 49.1802C26.7343 51.5705 33.4093 64.1352 35.407 71.9674C33.1475 65.1478 25.0948 48.6774 25.0948 48.6774C25.0948 48.6774 26.3382 44.9817 30.5988 40.0254C28.3531 43.0942 26.786 45.7084 26.0661 48.2365H26.0696Z" fill="#182234"/>
<path d="M30.0374 40.1226C20.1213 43.7218 18.9606 44.2109 18.4647 54.3611C18.3407 56.9133 18.2305 59.0935 18.0617 61.1291C17.9446 61.8593 17.8309 62.5275 17.7586 63.113C17.6312 64.1256 17.3556 66.1336 17.1593 67.1256C16.8183 68.8339 16.5083 70.401 16.2293 71.8855C16.0399 72.6191 15.8642 73.3114 15.7058 73.9693C16.715 75.5778 19.8079 55.7802 20.2212 51.003C20.6965 45.506 24.561 42.599 28.1051 41.118C28.8835 40.7942 29.5207 40.4532 30.0408 40.1191L30.0374 40.1226Z" fill="#35496E"/>
<path fill-rule="evenodd" clip-rule="evenodd" d="M34.0878 92.9472C39.6331 95.8886 48.7431 94.6556 57.9875 91.542L58.2596 92.162C51.3642 95.0448 40.7456 97.1148 33.8708 93.8496L34.0878 92.9507V92.9472Z" fill="#192233"/>
<path d="M70.0424 60.2879C68.644 54.3914 66.8082 46.4076 65.737 45.0058C64.8209 43.8037 57.8704 40.7177 54.5122 39.1299C54.5122 39.1299 63.0884 44.1137 64.4076 45.3192C65.7267 46.5247 67.8277 53.21 70.0424 60.2879Z" fill="#35496E"/>
<path fill-rule="evenodd" clip-rule="evenodd" d="M50.4066 20.6729C50.4066 20.6729 51.4916 20.4077 51.6879 20.8175C51.8842 21.2274 52.1494 23.0425 51.8946 24.1481C51.6397 25.2537 50.5754 26.8037 50.0932 26.8037C49.6076 26.8037 49.5835 26.6487 49.5835 26.6487C49.4319 27.0861 49.0427 29.194 49.0393 29.5418C48.1713 32.0596 45.2988 34.288 43.4251 34.5153C42.5675 34.6531 41.6858 34.6703 40.8419 34.4534C39.2369 34.0745 36.6572 31.7772 35.7203 29.5074C35.4655 28.9425 35.2209 27.1688 35.0797 26.6487C35.0797 26.6487 35.0556 26.8037 34.5699 26.8037C34.0843 26.8037 33.02 25.2537 32.7686 24.1481C32.5137 23.0425 32.7789 21.2274 32.9753 20.8175C33.1716 20.4077 34.2565 20.6729 34.2565 20.6729C33.0476 14.6179 34.6939 9.46872 42.4091 9.51694C50.0484 9.56171 51.4571 14.9313 50.4032 20.6729H50.4066Z" fill="#C78C68"/>
<path fill-rule="evenodd" clip-rule="evenodd" d="M34.4321 23.6726C34.4321 23.6726 33.8742 23.4625 34.0119 22.7977C34.1497 22.133 34.1876 21.6783 33.8569 21.5819C33.5263 21.482 33.144 22.6668 33.2335 23.6175C33.3231 24.5681 34.1015 25.6875 34.1015 25.6875C34.1015 25.6875 33.1164 24.6576 33.0958 23.1766C33.0751 21.6921 33.3679 21.1514 33.7708 21.1514C34.1704 21.1514 34.3667 21.6818 34.3667 21.7817C34.3667 21.8816 34.2393 22.7564 34.4356 23.6726H34.4321ZM49.9864 23.6726C49.9864 23.6726 50.6442 23.4625 50.4824 22.7977C50.3205 22.133 50.2757 21.6783 50.6684 21.5819C51.061 21.482 51.5122 22.6668 51.4089 23.6175C51.3055 24.5681 50.379 25.6875 50.379 25.6875C50.379 25.6875 51.5466 24.6576 51.5707 23.1766C51.5949 21.6921 51.247 21.1514 50.7717 21.1514C50.2964 21.1514 50.0656 21.6818 50.0656 21.7817C50.0656 21.8816 50.2172 22.7564 49.9864 23.6726Z" fill="#A16D4D"/>
<path fill-rule="evenodd" clip-rule="evenodd" d="M35.0797 26.683V26.652C35.0797 26.652 35.0556 26.807 34.57 26.807C34.4873 26.807 34.3874 26.7622 34.2772 26.6795C34.3392 26.7174 34.4977 26.7588 34.7112 26.4453C34.9902 26.0355 35.19 24.3857 35.1693 25.0573C35.159 25.3845 35.1314 26.0665 35.0797 26.6864V26.683ZM49.5869 26.683V26.652C49.5869 26.652 49.611 26.807 50.0967 26.807C50.1793 26.807 50.2792 26.7622 50.3895 26.6795C50.3275 26.7174 50.169 26.7588 49.9555 26.4453C49.6765 26.0355 49.4767 24.3857 49.4974 25.0573C49.5077 25.3845 49.5353 26.0665 49.5869 26.6864V26.683Z" fill="#AD7755"/>
<path fill-rule="evenodd" clip-rule="evenodd" d="M40.6697 21.3552C40.6697 21.3552 41.6755 22.2335 41.6479 22.85C41.6203 23.4631 41.4309 23.6628 41.2415 25.0095C41.052 26.3528 41.2311 26.5216 41.4137 26.804C41.5962 27.0864 41.0486 26.5801 40.9556 25.7432C40.8592 24.9062 41.1106 23.7765 41.2243 23.129C41.3379 22.4815 41.0555 21.8546 40.3804 21.3207C39.7053 20.7869 40.3701 21.1175 40.6697 21.3621V21.3552Z" fill="#A16D4D"/>
<path fill-rule="evenodd" clip-rule="evenodd" d="M36.0819 20.9481C36.2955 20.9274 36.5021 20.8585 38.1072 21.0239C39.7122 21.1892 40.5009 21.4475 40.7145 21.5474C40.9314 21.6473 40.8281 21.1995 40.4906 20.893C40.153 20.5864 38.5136 20.3867 37.718 20.0457C36.9189 19.7047 36.4539 20.1697 36.1612 20.4004C35.8684 20.6312 35.6514 20.9929 36.0854 20.9481H36.0819Z" fill="#413024"/>
<path fill-rule="evenodd" clip-rule="evenodd" d="M44.1036 21.2998C44.1036 21.2998 43.5146 21.6649 43.2804 22.4054C43.0462 23.1425 43.1771 23.4662 43.1771 23.4662C43.1771 23.4662 43.3424 21.9818 44.1036 21.2998Z" fill="#A16D4D"/>
<path fill-rule="evenodd" clip-rule="evenodd" d="M40.6904 25.3086C40.6904 25.3086 40.2151 25.7977 40.1427 26.3488C40.0704 26.8998 40.3149 27.1513 40.5767 27.2339C40.8385 27.3166 40.9969 27.2098 40.9969 27.2098C40.9969 27.2098 40.2633 27.5611 39.9809 26.8516C39.6984 26.1421 40.5285 25.436 40.6904 25.3086Z" fill="#A16D4D"/>
<path fill-rule="evenodd" clip-rule="evenodd" d="M40.9349 27.2374C40.9349 27.2374 41.0004 26.8551 41.1588 27.0377C41.3172 27.2202 41.6031 27.6025 41.9441 27.7058C42.1025 27.7541 42.2093 27.7747 42.2782 27.7816H42.2816C42.2885 27.7816 42.3023 27.7816 42.3264 27.7816H42.3333H42.3402C42.3609 27.7816 42.3781 27.7816 42.385 27.7816H42.3884C42.4573 27.7747 42.5675 27.7541 42.7225 27.7058C43.0635 27.6025 43.3494 27.2202 43.5078 27.0377C43.6662 26.8551 43.7317 27.2374 43.7317 27.2374C43.7317 27.2374 43.5181 27.2443 43.1909 27.5336C42.9498 27.7437 42.5675 27.7782 42.385 27.7851C42.3781 27.7851 42.3609 27.7885 42.3333 27.7885C42.3058 27.7885 42.292 27.7885 42.2816 27.7851C42.0957 27.7816 41.7168 27.7472 41.4757 27.5336C41.1485 27.2478 40.9349 27.2374 40.9349 27.2374Z" fill="#78492B"/>
<path fill-rule="evenodd" clip-rule="evenodd" d="M43.9728 25.3086C43.9728 25.3086 44.4481 25.7977 44.5204 26.3488C44.5928 26.8998 44.3482 27.1513 44.0865 27.2339C43.8247 27.3166 43.6663 27.2098 43.6663 27.2098C43.6663 27.2098 44.3999 27.5611 44.6823 26.8516C44.9647 26.1421 44.1347 25.436 43.9728 25.3086Z" fill="#A16D4D"/>
<path fill-rule="evenodd" clip-rule="evenodd" d="M36.7777 22.2192C36.7777 22.2192 36.7812 21.4202 38.028 21.3892C39.2714 21.3582 40.804 21.8266 40.742 22.0952C40.6801 22.3639 40.4355 21.9299 39.9258 21.7543C39.416 21.5752 38.8822 21.3892 38.0383 21.4477C37.1945 21.5063 36.8741 22.0195 36.7812 22.2192H36.7777Z" fill="#A16D4D"/>
<path fill-rule="evenodd" clip-rule="evenodd" d="M37.0016 22.9912C37.0016 22.9912 37.4218 23.5802 38.4137 23.5905C39.4057 23.6008 39.8638 23.3356 39.8638 23.3356C39.8638 23.3356 39.0613 23.7799 38.1313 23.7076C37.2014 23.6353 37.0774 23.2013 37.005 22.9947L37.0016 22.9912Z" fill="#AD7755"/>
<path fill-rule="evenodd" clip-rule="evenodd" d="M37.1428 22.2949C37.1428 22.2949 37.5286 21.7611 38.3759 21.7335C39.2232 21.706 40.0291 22.2088 40.0291 22.2088C40.0291 22.2088 40.4046 22.2915 40.3804 22.4189C40.3563 22.5464 40.0326 22.5498 40.0326 22.5498C40.0326 22.5498 39.3609 22.9287 38.3966 22.8322C37.4322 22.7358 37.1394 22.2949 37.1394 22.2949H37.1428Z" fill="white"/>
<path fill-rule="evenodd" clip-rule="evenodd" d="M37.1428 22.2947C37.1428 22.2947 37.1635 22.2671 37.2048 22.2224C37.3426 22.3739 37.749 22.7424 38.524 22.7769C39.4195 22.8182 40.1256 22.5633 40.0154 22.1982L40.0291 22.2086C40.0291 22.2086 40.4046 22.2912 40.3804 22.4187C40.3563 22.5461 40.0326 22.5496 40.0326 22.5496C40.0326 22.5496 39.3609 22.9284 38.3966 22.832C37.4322 22.7355 37.1394 22.2947 37.1394 22.2947H37.1428Z" fill="#EDBA9D"/>
<path fill-rule="evenodd" clip-rule="evenodd" d="M37.1428 22.2951C37.1428 22.2951 37.5286 21.7612 38.3759 21.7336C39.1749 21.7061 39.9361 22.1538 40.0222 22.2021C39.7605 22.178 39.2059 21.9403 38.5446 21.9506C37.8282 21.9644 37.4356 22.2641 37.2737 22.4294C37.1807 22.3502 37.1428 22.2951 37.1428 22.2951Z" fill="#ADA89F"/>
<path fill-rule="evenodd" clip-rule="evenodd" d="M38.09 21.7643C38.1796 21.7471 38.276 21.7368 38.3793 21.7333C38.7306 21.723 39.0716 21.8022 39.354 21.8987C39.385 21.9744 39.3988 22.0571 39.3988 22.1398C39.3988 22.5186 39.0785 22.8217 38.6859 22.8217C38.2932 22.8217 37.9729 22.5152 37.9729 22.1398C37.9729 22.002 38.0177 21.8711 38.09 21.7643Z" fill="#625D54"/>
<path d="M38.6858 22.46C38.8722 22.46 39.0233 22.3166 39.0233 22.1397C39.0233 21.9627 38.8722 21.8193 38.6858 21.8193C38.4994 21.8193 38.3483 21.9627 38.3483 22.1397C38.3483 22.3166 38.4994 22.46 38.6858 22.46Z" fill="#402F24"/>
<path d="M38.8373 22.3118C38.921 22.3118 38.9889 22.247 38.9889 22.1671C38.9889 22.0872 38.921 22.0225 38.8373 22.0225C38.7536 22.0225 38.6858 22.0872 38.6858 22.1671C38.6858 22.247 38.7536 22.3118 38.8373 22.3118Z" fill="white"/>
<path fill-rule="evenodd" clip-rule="evenodd" d="M36.8638 22.2981C36.8638 22.2981 36.9843 22.3119 37.191 22.119C37.3977 21.9262 37.7111 21.6575 38.4413 21.6437C38.8925 21.6368 39.5193 21.8366 40.0807 22.2189C40.0807 22.2189 39.7294 22.0949 39.5469 22.0123C39.3643 21.9296 38.9407 21.7746 38.2828 21.7918C37.625 21.8091 37.16 22.3154 37.16 22.3154C37.16 22.3154 37.0153 22.4015 36.8604 22.2947L36.8638 22.2981Z" fill="#413024"/>
<path fill-rule="evenodd" clip-rule="evenodd" d="M42.6054 28.8843C42.7362 28.7293 43.1943 28.7259 43.6558 28.7844C44.1208 28.843 45.2402 28.8912 45.5502 28.6535C45.8602 28.4159 46.0599 28.4021 45.9738 28.5674C45.8877 28.7328 45.7465 28.6294 45.6639 28.6639C45.4228 28.7155 45.3745 28.7982 44.9819 28.9704C44.5858 29.1426 44.3171 29.4595 42.2919 29.4939C40.2667 29.5318 39.3471 28.8636 39.1645 28.7706C38.982 28.6776 38.8787 28.6742 38.7926 28.6535C38.3586 28.4779 38.7065 28.4607 39.0371 28.688C39.3264 28.8843 40.4527 28.8395 40.9177 28.781C41.3826 28.7224 41.8235 28.7327 41.9682 28.8809C42.1507 29.0668 42.4745 29.0358 42.6054 28.8809V28.8843Z" fill="#8A5330"/>
<path fill-rule="evenodd" clip-rule="evenodd" d="M41.9372 29.966C41.9372 29.966 43.184 30.0245 44.0692 29.7696C44.9544 29.5113 44.3172 30.2449 42.9774 30.3414C41.6376 30.4413 41.0211 29.9384 41.9372 29.966Z" fill="#D49D7B"/>
<path fill-rule="evenodd" clip-rule="evenodd" d="M40.3115 30.0137C40.3115 30.0137 41.1933 30.5234 42.2575 30.5062C43.3218 30.489 44.3689 30.1342 44.3689 30.1342C44.3689 30.1342 43.7489 30.7921 42.3402 30.861C40.9315 30.9298 40.3115 30.0137 40.3115 30.0137Z" fill="#A16D4D"/>
<path fill-rule="evenodd" clip-rule="evenodd" d="M47.82 22.2192C47.82 22.2192 47.8166 21.4202 46.5698 21.3892C45.3264 21.3582 43.7937 21.8266 43.8557 22.0952C43.9177 22.3639 44.1622 21.9299 44.672 21.7543C45.1817 21.5752 45.7156 21.3892 46.5594 21.4477C47.4033 21.5063 47.7236 22.0195 47.8166 22.2192H47.82Z" fill="#A16D4D"/>
<path fill-rule="evenodd" clip-rule="evenodd" d="M47.5962 22.9912C47.5962 22.9912 47.176 23.5802 46.184 23.5905C45.1921 23.6008 44.734 23.3356 44.734 23.3356C44.734 23.3356 45.5365 23.7799 46.4665 23.7076C47.3964 23.6353 47.5204 23.2013 47.5927 22.9947L47.5962 22.9912Z" fill="#AD7755"/>
<path fill-rule="evenodd" clip-rule="evenodd" d="M47.4515 22.2949C47.4515 22.2949 47.0657 21.7611 46.2184 21.7335C45.3712 21.706 44.5652 22.2088 44.5652 22.2088C44.5652 22.2088 44.1898 22.2915 44.2139 22.4189C44.238 22.5464 44.5618 22.5498 44.5618 22.5498C44.5618 22.5498 45.2334 22.9287 46.1978 22.8322C47.1622 22.7358 47.4549 22.2949 47.4549 22.2949H47.4515Z" fill="white"/>
<path fill-rule="evenodd" clip-rule="evenodd" d="M47.4515 22.2947C47.4515 22.2947 47.4308 22.2671 47.3895 22.2224C47.2517 22.3739 46.8453 22.7424 46.0703 22.7769C45.1748 22.8182 44.4688 22.5633 44.579 22.1982L44.5652 22.2086C44.5652 22.2086 44.1898 22.2912 44.2139 22.4187C44.238 22.5461 44.5618 22.5496 44.5618 22.5496C44.5618 22.5496 45.2334 22.9284 46.1978 22.832C47.1622 22.7355 47.4549 22.2947 47.4549 22.2947H47.4515Z" fill="#EDBA9D"/>
<path fill-rule="evenodd" clip-rule="evenodd" d="M47.4515 22.2951C47.4515 22.2951 47.0658 21.7612 46.2185 21.7336C45.4194 21.7061 44.6582 22.1538 44.5721 22.2021C44.8339 22.178 45.3884 21.9403 46.0497 21.9506C46.7661 21.9644 47.1588 22.2641 47.3207 22.4294C47.4137 22.3502 47.4515 22.2951 47.4515 22.2951Z" fill="#ADA89F"/>
<path fill-rule="evenodd" clip-rule="evenodd" d="M46.5044 21.7643C46.4148 21.7471 46.3184 21.7368 46.2151 21.7333C45.8637 21.723 45.5228 21.8022 45.2403 21.8987C45.2093 21.9744 45.1956 22.0571 45.1956 22.1398C45.1956 22.5186 45.5159 22.8217 45.9085 22.8217C46.3012 22.8217 46.6215 22.5152 46.6215 22.1398C46.6215 22.002 46.5767 21.8711 46.5044 21.7643Z" fill="#625D54"/>
<path d="M45.9085 22.46C46.0949 22.46 46.246 22.3166 46.246 22.1397C46.246 21.9627 46.0949 21.8193 45.9085 21.8193C45.722 21.8193 45.5709 21.9627 45.5709 22.1397C45.5709 22.3166 45.722 22.46 45.9085 22.46Z" fill="#402F24"/>
<path d="M45.7604 22.3118C45.8441 22.3118 45.912 22.247 45.912 22.1671C45.912 22.0872 45.8441 22.0225 45.7604 22.0225C45.6767 22.0225 45.6089 22.0872 45.6089 22.1671C45.6089 22.247 45.6767 22.3118 45.7604 22.3118Z" fill="white"/>
<path fill-rule="evenodd" clip-rule="evenodd" d="M47.7305 22.2981C47.7305 22.2981 47.6099 22.3119 47.4033 22.119C47.1966 21.9262 46.8832 21.6575 46.153 21.6437C45.7018 21.6368 45.075 21.8366 44.5135 22.2189C44.5135 22.2189 44.8649 22.0949 45.0474 22.0123C45.23 21.9296 45.6536 21.7746 46.3115 21.7918C46.9693 21.8091 47.4343 22.3154 47.4343 22.3154C47.4343 22.3154 47.5789 22.4015 47.7339 22.2947L47.7305 22.2981Z" fill="#413024"/>
<path fill-rule="evenodd" clip-rule="evenodd" d="M48.4296 20.9481C48.2161 20.9274 48.0094 20.8585 46.4044 21.0239C44.7994 21.1892 44.0107 21.4475 43.7971 21.5474C43.5801 21.6473 43.7007 21.2236 44.0382 20.9171C44.3758 20.6105 45.998 20.3867 46.7936 20.0457C47.5927 19.7047 48.0577 20.1697 48.3504 20.4004C48.6432 20.6312 48.8602 20.9929 48.4262 20.9481H48.4296Z" fill="#413024"/>
<path d="M42.5021 25.7673C42.5934 25.7673 42.6674 25.058 42.6674 24.183C42.6674 23.308 42.5934 22.5986 42.5021 22.5986C42.4108 22.5986 42.3368 23.308 42.3368 24.183C42.3368 25.058 42.4108 25.7673 42.5021 25.7673Z" fill="#D49D7B"/>
<path d="M42.6467 26.8277C42.7856 26.8277 42.8981 26.7244 42.8981 26.597C42.8981 26.4695 42.7856 26.3662 42.6467 26.3662C42.5078 26.3662 42.3953 26.4695 42.3953 26.597C42.3953 26.7244 42.5078 26.8277 42.6467 26.8277Z" fill="#D49D7B"/>
</svg>
