<svg width="86" height="212" viewBox="0 0 86 212" fill="none" xmlns="http://www.w3.org/2000/svg">
<path fill-rule="evenodd" clip-rule="evenodd" d="M37.5259 192.133C37.5259 192.133 37.8134 192.985 37.9683 194.338C38.1231 195.69 38.112 196.31 38.112 196.31C38.112 196.31 37.4337 197.312 35.9777 197.88C34.5216 198.448 33.7253 198.451 33.7253 198.451L32.2766 198.193C32.2766 198.193 31.7016 198.728 30.5994 200.35C29.4972 201.976 27.9342 203.041 25.6745 203.347C23.4148 203.653 19.2898 203.553 18.3056 203.118C17.3213 202.683 16.4366 201.566 16.4256 201.212C16.4145 200.859 16.068 200.007 17.3324 198.853C18.5968 197.699 24.8377 194.43 26.1574 192.126C27.4771 189.822 36.6633 189.719 37.5259 192.129V192.133Z" fill="#424852"/>
<path fill-rule="evenodd" clip-rule="evenodd" d="M37.0872 195.344C37.0872 195.344 35.2109 196.148 33.8765 196.922C32.542 197.692 32.037 198.035 31.1486 198.953C30.2602 199.871 29.2244 201.729 27.1637 202.403C25.1068 203.074 19.7801 203.233 18.7664 202.798C17.7526 202.363 16.9601 201.319 16.9601 201.319C16.9601 201.319 18.324 202.669 20.0013 202.702C21.6822 202.739 25.6634 202.47 26.8909 202.079C28.1185 201.692 29.3903 200.859 30.8574 198.496C32.3245 196.133 36.1915 195.466 37.0872 195.344ZM23.6912 200.711C23.6912 200.711 21.885 200.822 19.8206 200.214C17.7563 199.605 18.0844 198.706 18.0844 198.706C18.0844 198.706 16.8458 200.228 19.1166 200.94C21.3873 201.651 23.6912 200.711 23.6912 200.711ZM27.5766 193.744C27.5766 193.744 27.1453 194.157 27.4218 194.57C27.6982 194.979 28.4171 197.567 28.4171 197.567C28.4171 197.567 27.4181 195.554 27.0495 194.909C26.6771 194.264 26.6255 193.925 26.6919 193.704C26.7582 193.482 26.7988 193.364 26.7988 193.364C26.7988 193.364 27.2559 193.302 27.5766 193.744Z" fill="#58606D"/>
<path fill-rule="evenodd" clip-rule="evenodd" d="M61.4684 191.079C61.4684 191.079 63.7133 195.588 63.9677 196.373C64.222 197.158 64.2994 199.864 64.2994 199.864C64.2994 199.864 64.5022 203.565 60.5063 203.808C56.5066 204.048 54.8294 201.729 54.7114 199.79C54.5934 197.851 54.3723 195.208 53.764 193.936C53.1558 192.664 53.1558 192.665 53.1558 192.665C53.1558 192.665 52.7171 190.298 53.1927 189.395C53.6682 188.492 60.5063 190.294 61.4721 191.083L61.4684 191.079Z" fill="#424852"/>
<path fill-rule="evenodd" clip-rule="evenodd" d="M63.3447 199.753C63.3447 199.753 63.0867 202.149 60.263 202.374C57.4393 202.599 56.1159 200.531 55.9464 199.713C55.7768 198.895 56.3703 201.198 59.0281 201.331C61.6859 201.464 62.8655 200.48 63.3484 199.753H63.3447ZM59.1092 192.628C59.1092 192.628 59.758 194.209 60.3883 194.67C61.0187 195.131 62.4306 195.459 62.4306 195.459C62.4306 195.459 60.5247 194.722 60.2372 193.966C59.9497 193.21 59.7432 192.631 59.7432 192.631C59.7432 192.631 59.5221 192.123 59.1092 192.628ZM56.8126 192.79C56.8126 192.79 57.2255 193.863 57.067 194.548C56.9085 195.23 56.1381 196.145 56.1381 196.145C56.1381 196.145 57.4172 195.005 57.5425 194.235C57.6679 193.465 57.4025 192.856 57.4025 192.856C57.4025 192.856 57.1444 192.646 56.8126 192.79Z" fill="#58606D"/>
<path fill-rule="evenodd" clip-rule="evenodd" d="M60.016 86.3439C60.016 86.3439 63.5106 90.9186 64.3547 104.466C65.2026 118.013 61.7669 137.672 61.7669 137.672L61.1071 182.939L61.4573 191.053C61.4573 191.053 57.6125 192.092 55.6256 192.166C53.6424 192.244 52.8056 191.993 52.8056 191.993C52.8056 191.993 51.6038 188.834 51.7034 187.658C51.8066 186.478 51.9651 181.288 51.755 180.263C51.6333 179.673 49.1156 165.658 48.0134 155.285C47.2024 147.651 47.6927 143.15 47.748 141.494C47.8807 137.591 47.5895 136.05 47.5084 135.445C47.4273 134.837 45.0275 115.418 45.0275 115.418C44.9501 117.062 40.0436 141.354 41.05 147.909C42.0564 154.466 40.4086 171.851 38.7276 179.994C37.0504 188.137 37.4079 188.167 37.4079 188.167L37.725 192.892C37.725 192.892 35.0119 194.05 31.4914 193.619C27.971 193.191 26.4154 191.635 26.4154 191.635C26.4154 191.635 27.8494 189.556 27.8752 187.488C27.8973 185.42 27.0679 144.399 26.9168 142.339C26.7656 140.278 23.0462 116.542 23.9272 105.365C24.8082 94.1883 28.1812 85.9531 28.1812 85.9531C28.1812 85.9531 52.5144 86.3918 60.0086 86.3402L60.016 86.3439Z" fill="#23314B"/>
<path fill-rule="evenodd" clip-rule="evenodd" d="M41.7541 95.2871C41.7541 95.2871 41.6214 106.508 41.7099 107.743C41.7983 108.978 44.4451 110.829 44.4451 110.829C44.4451 110.829 42.5061 108.138 42.5946 107.478C42.683 106.818 42.86 95.195 42.86 95.195C42.86 95.195 42.3292 95.1065 41.7578 95.2834L41.7541 95.2871Z" fill="#192233"/>
<path d="M17.1223 103.799C17.1223 103.799 18.8843 105.299 18.8512 107.961C18.8438 108.639 18.3388 109.933 18.1397 110.582C18.0291 110.95 17.76 111.676 17.7379 112.06C17.7047 112.642 17.9959 113.803 17.9628 114.386C17.9222 115.116 17.4135 116.966 16.6836 117.014C15.9611 117.062 15.445 115.149 15.3934 114.426C15.3455 113.774 16.1159 112.218 15.5999 111.82C15.4229 111.684 15.0248 111.949 14.8405 112.071C14.6857 112.174 14.3355 112.403 14.2654 112.572C14.1733 112.808 14.0664 113.258 13.989 113.453C13.9558 113.538 13.683 114.01 13.753 114.305C13.9005 114.902 14.1511 116.904 14.1511 116.904C14.1511 116.904 15.0912 117.383 15.504 117.829C15.6994 118.035 16.6541 118.36 16.8901 118.511C17.2403 118.732 17.7674 119.513 17.5094 119.842C17.1481 120.295 15.4229 119.893 14.811 119.525C13.9595 119.008 12.4481 118.411 12.1016 117.685C11.7698 116.992 11.5302 114.74 11.3016 114.095C11.1136 113.56 11.0362 113.376 10.874 112.79C10.7008 112.163 11.3053 109.863 11.8104 107.983C12.2232 106.449 13.2849 103.906 13.2849 103.906L17.1112 103.803L17.1223 103.799Z" fill="#C78C68"/>
<path d="M17.7748 115.388C17.8632 115.543 17.9849 115.768 18.0439 115.864C18.1987 116.133 18.6963 116.63 18.6705 116.94C18.6595 117.077 18.313 117.357 18.313 117.357C18.313 117.357 19.253 118.275 19.2493 118.68C19.2456 118.813 18.9323 119.1 18.9323 119.1C18.9323 119.1 18.936 119.779 18.7701 119.9C18.5526 120.059 17.9407 119.952 17.5094 119.849L17.5167 119.838C17.7748 119.513 17.2476 118.728 16.8974 118.507C16.6615 118.359 15.7068 118.035 15.5114 117.825C15.1833 117.467 14.4055 117.084 14.1512 116.948V116.848C14.1106 116.527 13.8894 114.839 13.7604 114.301C13.6904 114.006 13.9632 113.534 13.9963 113.449C14.0737 113.254 14.1806 112.8 14.2728 112.568C14.3428 112.399 14.693 112.17 14.8479 112.067C15.0322 111.945 15.4303 111.68 15.6072 111.816C16.1233 112.214 15.3529 113.774 15.4008 114.422C15.4524 115.145 15.9722 117.058 16.691 117.01C17.1739 116.977 17.561 116.151 17.7785 115.385L17.7748 115.388ZM13.2886 103.902C13.2886 103.902 13.0563 104.484 12.9679 104.698C12.872 104.934 12.6951 105.398 12.6951 105.398C12.6951 105.398 14.6746 105.28 15.3603 105.28C16.9269 105.284 18.4936 105.911 18.4936 105.911C18.4936 105.911 18.2982 105.391 18.0476 104.956C17.8301 104.576 17.3656 103.902 17.3656 103.902L15.1981 103.662L13.2849 103.905L13.2886 103.902Z" fill="#A16D4D"/>
<path d="M12.9199 102.177L12.8351 104.352C12.8351 104.352 14.9363 104.3 15.6698 104.363C18.136 104.584 18.8659 104.964 18.8659 104.964L19.3193 102.18L12.9199 102.177Z" fill="#C4C2CC"/>
<path d="M36.8034 28.3553C42.6941 28.3553 43.4019 27.7803 49.4179 27.7803C49.2741 28.982 49.6944 35.9638 52.8757 36.7674L49.7349 43.882L47.5342 59.1137L36.0551 48.8327L33.8507 37.5526C37.4448 35.1934 37.1204 30.416 36.7997 28.3553H36.8034Z" fill="#C78C68"/>
<path d="M36.8033 28.3553C42.694 28.3553 43.4018 27.7803 49.4178 27.7803C49.3662 28.2079 49.4215 29.1884 49.5395 30.4344C46.8817 35.3556 41.3559 37.5453 36.49 34.0285C37.2531 31.8868 36.9766 29.4575 36.8033 28.3516V28.3553ZM50.8407 34.9649C51.2389 35.8606 51.6591 35.9823 51.9282 36.2993L49.7385 43.8857L48.3156 53.7244C47.6447 55.3095 46.878 56.7287 46.0596 57.794L36.3794 49.1239C36.2393 48.7 36.103 48.276 35.9739 47.8484L34.1418 37.3573C35.1077 36.5426 35.6385 35.986 36.1767 34.8358C36.1767 34.8358 35.9481 37.0513 36.4495 38.5774C37.43 41.5596 38.4106 41.9909 38.9082 43.1632C39.9772 45.6883 40.3016 46.6062 40.1468 47.4245C39.992 48.2392 40.2132 48.7037 40.6113 49.3856C41.0094 50.0676 42.5724 52.3383 42.6609 51.9218C42.7493 51.5015 42.9926 49.2308 44.0948 47.6899C45.197 46.1454 46.4762 45.0874 46.0117 44.1843C45.5472 43.2811 45.7021 42.5623 46.5646 41.2094C47.4272 39.8566 50.2804 36.8338 50.8444 34.9722L50.8407 34.9649ZM42.8157 37.2135C42.8157 37.2135 42.683 38.2493 42.9926 38.9129C43.3023 39.5727 43.7852 39.2446 43.7852 39.2446C43.7852 39.2446 42.9484 38.8097 42.8157 37.2172V37.2135Z" fill="#A16D4D"/>
<path d="M32.9733 90.2446C43.4424 93.2821 51.1615 93.0314 58.9617 88.4162C57.3692 84.5898 56.0163 81.3274 54.4238 77.5011C49.392 63.3605 52.8756 44.5567 53.4949 37.9177C53.023 37.3611 52.7134 36.8524 52.518 36.4653C52.3669 36.1667 51.9393 34.9908 51.3937 35.7907C50.9403 38.5628 46.0744 41.7441 46.0154 42.5551C45.7574 43.6241 46.8116 43.5835 46.6974 44.2028C46.4762 45.4009 44.8837 47.3067 44.3455 48.3904C43.6857 49.7138 43.1512 54.5281 43.1512 54.5281C43.1512 54.5281 41.1937 51.6749 40.7403 51.0188C38.7682 48.0439 39.6676 48.4457 39.6418 46.8311C39.6344 46.3114 39.6271 45.9796 39.1958 44.4609C38.7903 43.0306 35.8339 40.4465 35.351 36.163C35.3289 35.975 34.6911 36.1298 34.6063 36.5722C29.1138 49.2014 42.2665 76.3252 32.9659 90.2483L32.9733 90.2446Z" fill="#F2F1F6"/>
<path d="M52.566 36.4648C52.566 36.4648 50.1441 40.693 49.2373 45.4262C49.1415 44.7553 48.8318 43.6347 48.806 43.2771C48.6844 41.6773 47.9287 41.3787 47.4089 41.3676C46.7638 41.3529 46.104 42.068 45.986 42.702C45.9381 42.9601 46.0155 43.2108 46.1556 43.4282C46.0266 43.1186 46.0339 42.7684 46.55 42.0828C47.0661 41.3971 48.2862 42.186 48.4448 42.8642C48.6438 43.7342 49.0825 45.0613 49.2226 45.5184C48.7839 47.8223 48.3784 50.2184 48.1388 52.268C47.4716 57.978 48.0282 69.7299 49.5138 75.2004C50.7671 79.8046 55.2386 84.9985 55.6699 89.1382C50.5312 92.29 42.5283 92.8172 36.8735 89.9861C37.1795 86.5283 38.7203 76.9366 38.7203 72.7748C38.7203 67.308 36.6929 53.3702 36.0662 48.8323C35.9925 48.3052 35.9372 47.7338 35.8966 47.133C36.1878 46.9228 36.5122 46.6058 36.7592 46.1266C37.3527 44.9802 38.5876 45.7064 38.9415 46.392C39.2954 47.074 39.406 47.6269 39.406 47.6269C39.406 47.6269 39.9147 45.9497 38.7461 44.7811C37.5776 43.6126 36.8956 44.9359 36.2763 46.1487C36.1362 46.4215 36.0035 46.6427 35.8782 46.8159C35.6054 42.2708 34.6285 36.5644 34.6285 36.5644C34.4848 36.815 33.9613 37.0694 33.8323 37.3348C27.2891 50.5391 39.7672 78.9456 32.2509 90.1446C44.4967 93.9673 50.7819 92.5997 59.135 88.847C46.8007 59.6664 55.8616 54.8631 53.495 37.7698C53.189 37.3348 52.8867 36.8998 52.5808 36.4648H52.566Z" fill="#C4C2CC"/>
<path d="M65.4938 97.6949C65.4938 97.6949 65.0551 98.4912 64.974 98.705C64.7307 99.3353 64.0045 101.695 64.0045 101.695L59.8759 94.0602L61.0886 93.1387L65.4901 97.6986L65.4938 97.6949Z" fill="#A16D4D"/>
<path d="M60.1819 93.8242L59.7026 95.1623C59.7026 95.1623 61.8849 96.3346 62.6185 96.7216C63.599 97.2267 65.4238 98.0082 65.4238 98.0082C65.4238 98.0082 65.7445 97.2045 65.8145 96.9207C65.8624 96.7253 66.1684 95.7263 66.1684 95.7263L60.1855 93.8242H60.1819Z" fill="#C4C2CC"/>
<path d="M23.0425 108.237C23.0425 108.237 26.9942 111.997 28.524 110.954C31.8527 108.687 34.9123 97.289 35.7123 88.8105C34.035 94.2405 30.7984 105.48 28.8926 107.81C26.9868 110.139 23.0425 108.237 23.0425 108.237Z" fill="#192233"/>
<path d="M34.411 36.7713C23.6249 43.5725 16.0828 38.1389 15.5815 52.3311C14.9474 70.3091 12.3559 87.0117 12.6767 102.542C12.7098 104.182 17.7637 102.697 19.1719 102.995C21.2989 91.3984 24.764 83.3107 26.5187 69.0337C26.5187 75.4478 29.217 81.4933 27.3075 87.8448C24.4543 97.2854 22.8213 101.938 22.2979 107.53C22.2979 107.53 26.3012 111.29 27.8162 110.246C31.1413 107.961 33.2167 99.2281 35.6312 87.8079C36.7039 82.743 36.9767 72.2592 36.6154 67.4854C36.2873 63.1504 34.5953 54.3217 34.1751 50.3036C33.836 47.0486 34.4073 36.7676 34.4073 36.7676L34.411 36.7713Z" fill="#23314B"/>
<path d="M52.6987 36.6533C52.6987 36.6533 49.8197 47.1224 49.6391 50.9082C49.5285 53.2601 49.3294 57.9748 49.3995 60.3267C49.499 63.7217 49.5064 71.2123 50.3505 74.4894C50.9883 76.9592 52.9825 80.6418 54.7925 82.485C58.324 86.0828 59.0465 94.3474 59.0465 94.3474C61.9697 95.6893 64.2626 96.7177 65.9399 97.4329C65.9399 97.4329 67.7904 92.6517 70.3745 87.6458C72.66 83.2259 75.3841 75.1345 75.5869 72.9154C75.6459 72.2555 75.3657 66.0109 73.5484 59.9949C71.6167 53.6066 72.5531 47.6274 69.9653 44.3614C66.8872 40.476 56.2818 39.1158 52.6987 36.6607V36.6533ZM61.8886 62.2362C61.8886 62.2362 63.2231 66.3759 64.3363 69.5018C65.5786 72.9928 65.9546 74.541 65.8993 74.9576C65.7555 76.0708 63.2046 83.3475 62.0508 86.5989C57.8116 80.0631 60.3772 68.466 61.8923 62.2362H61.8886Z" fill="#23314B"/>
<path d="M30.4224 39.9705C30.0279 40.8441 25.9878 47.9144 25.9546 48.5964C26.2126 49.5917 28.9847 55.2207 30.1717 57.6942C29.1248 54.3691 27.6245 50.023 27.7572 48.6775C27.8825 47.4094 29.6925 42.2449 30.4224 39.9668V39.9705Z" fill="#35496E"/>
<path d="M65.8771 75.0791C64.6459 81.3605 61.1808 86.9821 59.78 94.5869C61.7522 89.6842 66.2237 79.7791 65.8771 75.0791Z" fill="#182234"/>
<path fill-rule="evenodd" clip-rule="evenodd" d="M58.8253 48.2359L54.7778 49.2017L58.8106 49.1759C58.0991 51.5683 53.9484 65.731 51.8103 73.5644C54.1916 66.7448 59.7874 48.6746 59.7874 48.6746C59.7874 48.6746 58.8511 43.0309 55.0432 38.4746C57.2328 41.5416 58.2355 44.557 58.8216 48.2359H58.8253Z" fill="#182234"/>
<path fill-rule="evenodd" clip-rule="evenodd" d="M25.8994 48.2355L29.9432 49.2013L25.9104 49.1755C26.6108 51.5679 33.4563 64.1308 35.5611 71.9642C33.2093 65.1445 24.9373 48.6742 24.9373 48.6742C24.9373 48.6742 26.1316 44.9768 30.3229 40.0225C28.1185 43.0895 26.585 45.703 25.8994 48.2318V48.2355Z" fill="#182234"/>
<path d="M26.15 40.6531C18.0549 42.7432 16.3961 44.1588 16.0385 54.3071C15.7731 61.8308 16.0754 61.7608 15.0432 69.126C16.315 65.7309 17.3693 56.0913 17.7453 50.9526C18.2097 44.5827 21.0814 42.2972 26.15 40.6494V40.6531Z" fill="#35496E"/>
<path fill-rule="evenodd" clip-rule="evenodd" d="M34.7539 92.9465C40.298 95.8844 49.4069 94.6569 58.6521 91.542L58.9249 92.1613C52.0278 95.044 41.4113 97.112 34.5364 93.8459L34.7502 92.9465H34.7539Z" fill="#192233"/>
<path d="M72.7631 58.0415C71.4692 52.1434 71.248 47.307 69.6334 44.6123C68.3985 42.5517 61.0518 40.2441 57.7194 38.6553C57.7194 38.6553 66.1683 42.6328 68.2953 44.9257C70.4186 47.2148 70.6767 50.9638 72.7631 58.0415Z" fill="#35496E"/>
<path fill-rule="evenodd" clip-rule="evenodd" d="M51.0731 20.6724C51.0731 20.6724 52.1606 20.4069 52.356 20.8161C52.5513 21.2253 52.8167 23.039 52.5624 24.1485C52.308 25.2544 51.2464 26.8063 50.7598 26.8063C50.2732 26.8063 50.2511 26.6515 50.2511 26.6515C50.1 27.0902 49.7092 29.1987 49.7092 29.5453C48.8392 32.063 45.9676 34.2895 44.095 34.5217C43.2398 34.6581 42.3551 34.6766 41.5109 34.4591C39.9037 34.0794 37.327 31.7828 36.3906 29.5121C36.1363 28.9481 35.8893 27.175 35.7492 26.6515C35.7492 26.6515 35.7271 26.8063 35.2405 26.8063C34.7539 26.8063 33.6923 25.2581 33.4379 24.1485C33.1836 23.0426 33.449 21.2253 33.6444 20.8161C33.8397 20.4069 34.9272 20.6724 34.9272 20.6724C33.7181 14.6158 35.3659 9.46972 43.0813 9.51395C50.7192 9.55819 52.1311 14.9291 51.0768 20.6724H51.0731Z" fill="#C78C68"/>
<path fill-rule="evenodd" clip-rule="evenodd" d="M35.1004 23.6728C35.1004 23.6728 34.5438 23.4627 34.6802 22.7991C34.8166 22.1356 34.8571 21.6822 34.5254 21.5827C34.1936 21.4831 33.8139 22.6664 33.8987 23.6175C33.9872 24.5686 34.7687 25.6855 34.7687 25.6855C34.7687 25.6855 33.7807 24.657 33.7623 23.1751C33.7439 21.6933 34.0351 21.1514 34.4369 21.1514C34.8387 21.1514 35.0341 21.6822 35.0341 21.7817C35.0341 21.8813 34.9087 22.7549 35.1041 23.6728H35.1004ZM50.6566 23.6728C50.6566 23.6728 51.3164 23.4627 51.1542 22.7991C50.992 22.1356 50.9478 21.6822 51.3385 21.5827C51.733 21.4831 52.1827 22.6664 52.0795 23.6175C51.9763 24.5686 51.051 25.6855 51.051 25.6855C51.051 25.6855 52.2196 24.657 52.2417 23.1751C52.2638 21.6933 51.9173 21.1514 51.4454 21.1514C50.9699 21.1514 50.7414 21.6822 50.7414 21.7817C50.7414 21.8813 50.8925 22.7549 50.6603 23.6728H50.6566Z" fill="#A16D4D"/>
<path fill-rule="evenodd" clip-rule="evenodd" d="M35.7493 26.681V26.6479C35.7493 26.6479 35.7271 26.8027 35.2406 26.8027C35.1558 26.8027 35.0562 26.7584 34.9493 26.6773C35.012 26.7142 35.1705 26.7548 35.3843 26.4414C35.6608 26.0322 35.8635 24.3845 35.8414 25.0517C35.8304 25.3761 35.8009 26.058 35.753 26.681H35.7493ZM50.2585 26.681V26.6479C50.2585 26.6479 50.2806 26.8027 50.7672 26.8027C50.852 26.8027 50.9515 26.7584 51.0584 26.6773C50.9958 26.7142 50.8372 26.7548 50.6271 26.4414C50.3507 26.0322 50.1479 24.3845 50.17 25.0517C50.1811 25.3761 50.2106 26.058 50.2585 26.681Z" fill="#AD7755"/>
<path fill-rule="evenodd" clip-rule="evenodd" d="M41.3376 21.3544C41.3376 21.3544 42.344 22.2355 42.3182 22.8474C42.2924 23.463 42.1007 23.662 41.9127 25.0039C41.721 26.3494 41.9053 26.5152 42.0859 26.7954C42.2665 27.0792 41.721 26.5705 41.6251 25.7337C41.5293 24.897 41.78 23.7653 41.8942 23.1202C42.0085 22.4714 41.7247 21.8447 41.0501 21.3102C40.3755 20.7757 41.0427 21.1074 41.3413 21.3507L41.3376 21.3544Z" fill="#A16D4D"/>
<path fill-rule="evenodd" clip-rule="evenodd" d="M36.7482 20.9486C36.962 20.9265 37.1684 20.8565 38.772 21.0224C40.3755 21.1882 41.1644 21.4463 41.3819 21.5458C41.5994 21.6453 41.4961 21.1956 41.157 20.8896C40.8179 20.5837 39.1812 20.3846 38.3849 20.0418C37.5887 19.7027 37.1205 20.1671 36.8256 20.3957C36.5307 20.6279 36.3169 20.9892 36.7482 20.9449V20.9486Z" fill="#413024"/>
<path fill-rule="evenodd" clip-rule="evenodd" d="M44.7696 21.2986C44.7696 21.2986 44.1798 21.6636 43.9476 22.4008C43.7153 23.1381 43.8443 23.4625 43.8443 23.4625C43.8443 23.4625 44.0102 21.9769 44.7733 21.2949L44.7696 21.2986Z" fill="#A16D4D"/>
<path fill-rule="evenodd" clip-rule="evenodd" d="M41.3598 25.3096C41.3598 25.3096 40.8843 25.7998 40.8106 26.3528C40.7368 26.9057 40.9801 27.1527 41.2455 27.2375C41.5073 27.3223 41.6658 27.2117 41.6658 27.2117C41.6658 27.2117 40.9322 27.5656 40.652 26.8541C40.3719 26.1427 41.2013 25.4386 41.3635 25.3096H41.3598Z" fill="#A16D4D"/>
<path fill-rule="evenodd" clip-rule="evenodd" d="M41.6031 27.2375C41.6031 27.2375 41.6695 26.8541 41.828 27.0384C41.9865 27.2227 42.2704 27.6024 42.6132 27.7056C42.7717 27.7535 42.8786 27.772 42.9486 27.7793H42.9523C42.9597 27.7793 42.9744 27.7793 42.9966 27.7793H43.0039H43.0113C43.0334 27.7793 43.0482 27.7793 43.0555 27.7793H43.0592C43.1293 27.772 43.2362 27.7535 43.3947 27.7056C43.7375 27.6024 44.0214 27.219 44.1799 27.0384C44.3384 26.8541 44.4047 27.2375 44.4047 27.2375C44.4047 27.2375 44.1909 27.2448 43.8628 27.5324C43.6232 27.7425 43.2399 27.7793 43.0555 27.783C43.0482 27.783 43.0334 27.7867 43.0039 27.7867C42.9781 27.7867 42.9597 27.7867 42.9523 27.783C42.768 27.7793 42.3883 27.7425 42.145 27.5324C41.817 27.2448 41.6031 27.2375 41.6031 27.2375Z" fill="#78492B"/>
<path fill-rule="evenodd" clip-rule="evenodd" d="M44.6406 25.3096C44.6406 25.3096 45.1161 25.7998 45.1898 26.3528C45.2635 26.9057 45.0202 27.1527 44.7548 27.2375C44.4931 27.3223 44.3346 27.2117 44.3346 27.2117C44.3346 27.2117 45.0682 27.5656 45.3483 26.8541C45.6285 26.1427 44.7991 25.4386 44.6369 25.3096H44.6406Z" fill="#A16D4D"/>
<path fill-rule="evenodd" clip-rule="evenodd" d="M37.4449 22.2207C37.4449 22.2207 37.4486 21.4208 38.6946 21.3913C39.9406 21.3581 41.4704 21.83 41.4077 22.0991C41.345 22.3682 41.1017 21.9332 40.593 21.7563C40.0843 21.5793 39.5498 21.3913 38.7057 21.4503C37.8615 21.5093 37.5408 22.0217 37.4486 22.2207H37.4449Z" fill="#A16D4D"/>
<path fill-rule="evenodd" clip-rule="evenodd" d="M37.6698 22.9912C37.6698 22.9912 38.09 23.581 39.0816 23.5884C40.0733 23.5958 40.5304 23.334 40.5304 23.334C40.5304 23.334 39.7268 23.7764 38.7978 23.7064C37.8689 23.6363 37.7435 23.2013 37.6698 22.9912Z" fill="#AD7755"/>
<path fill-rule="evenodd" clip-rule="evenodd" d="M37.8136 22.2947C37.8136 22.2947 38.2007 21.7602 39.0485 21.7344C39.8964 21.7086 40.7037 22.2099 40.7037 22.2099C40.7037 22.2099 41.0797 22.291 41.0575 22.42C41.0354 22.549 40.711 22.5527 40.711 22.5527C40.711 22.5527 40.0401 22.9324 39.0743 22.8366C38.1122 22.7407 37.8173 22.2984 37.8173 22.2984L37.8136 22.2947Z" fill="white"/>
<path fill-rule="evenodd" clip-rule="evenodd" d="M37.8136 22.2941C37.8136 22.2941 37.8357 22.2646 37.8763 22.2204C38.0127 22.3715 38.4218 22.7438 39.196 22.777C40.0917 22.8175 40.7958 22.5632 40.6889 22.1982L40.7037 22.2056C40.7037 22.2056 41.0797 22.2867 41.0575 22.4157C41.0354 22.5448 40.711 22.5484 40.711 22.5484C40.711 22.5484 40.0401 22.9281 39.0743 22.8323C38.1122 22.7364 37.8173 22.2941 37.8173 22.2941H37.8136Z" fill="#EDBA9D"/>
<path fill-rule="evenodd" clip-rule="evenodd" d="M37.8136 22.2948C37.8136 22.2948 38.2007 21.7603 39.0485 21.7345C39.8484 21.7087 40.6115 22.1547 40.6963 22.2026C40.4346 22.1768 39.8816 21.9409 39.2181 21.952C38.5029 21.9667 38.1085 22.2653 37.9463 22.4275C37.8541 22.3501 37.8136 22.2911 37.8136 22.2911V22.2948Z" fill="#ADA89F"/>
<path fill-rule="evenodd" clip-rule="evenodd" d="M38.7573 21.7639C38.8457 21.7492 38.9416 21.7381 39.0448 21.7345C39.395 21.7234 39.7378 21.8008 40.018 21.8967C40.0475 21.9704 40.0659 22.0552 40.0659 22.1399C40.0659 22.5159 39.7452 22.8219 39.3508 22.8219C38.9563 22.8219 38.6356 22.5159 38.6356 22.1399C38.6356 21.9999 38.6799 21.8708 38.7536 21.7639H38.7573Z" fill="#625D54"/>
<path d="M39.3545 22.4608C39.5398 22.4608 39.6899 22.3172 39.6899 22.14C39.6899 21.9629 39.5398 21.8193 39.3545 21.8193C39.1692 21.8193 39.019 21.9629 39.019 22.14C39.019 22.3172 39.1692 22.4608 39.3545 22.4608Z" fill="#402F24"/>
<path d="M39.5018 22.3125C39.5853 22.3125 39.653 22.2465 39.653 22.165C39.653 22.0836 39.5853 22.0176 39.5018 22.0176C39.4184 22.0176 39.3507 22.0836 39.3507 22.165C39.3507 22.2465 39.4184 22.3125 39.5018 22.3125Z" fill="white"/>
<path fill-rule="evenodd" clip-rule="evenodd" d="M37.5334 22.298C37.5334 22.298 37.6551 22.3127 37.8615 22.1173C38.068 21.922 38.3813 21.6565 39.1112 21.6418C39.5646 21.6344 40.1876 21.8335 40.7516 22.2169C40.7516 22.2169 40.4014 22.0915 40.2171 22.0104C40.0328 21.9293 39.6125 21.7745 38.9527 21.7929C38.2928 21.8114 37.832 22.3164 37.832 22.3164C37.832 22.3164 37.6846 22.4049 37.5334 22.298Z" fill="#413024"/>
<path fill-rule="evenodd" clip-rule="evenodd" d="M43.273 28.8817C43.4057 28.7269 43.8591 28.7232 44.3236 28.7822C44.7881 28.8412 45.905 28.8891 46.2147 28.6495C46.5243 28.4136 46.727 28.3988 46.6386 28.5647C46.5538 28.7306 46.4137 28.6274 46.3289 28.6606C46.0893 28.7122 46.0414 28.7969 45.647 28.9665C45.2525 29.1398 44.9797 29.4531 42.956 29.49C40.9322 29.5268 40.0106 28.8596 39.8263 28.7675C39.642 28.6753 39.5388 28.6716 39.454 28.6532C39.019 28.4762 39.3692 28.4615 39.701 28.69C39.9885 28.8891 41.1165 28.8412 41.581 28.7822C42.0455 28.7232 42.4878 28.7343 42.6316 28.8817C42.8159 29.0697 43.1366 29.0366 43.2693 28.8817H43.273Z" fill="#8A5330"/>
<path fill-rule="evenodd" clip-rule="evenodd" d="M42.6057 29.9657C42.6057 29.9657 43.8517 30.0246 44.7401 29.7666C45.6248 29.5086 44.9871 30.2421 43.6489 30.338C42.3108 30.4375 41.6915 29.9325 42.6094 29.962L42.6057 29.9657Z" fill="#D49D7B"/>
<path fill-rule="evenodd" clip-rule="evenodd" d="M40.9801 30.0137C40.9801 30.0137 41.8611 30.5224 42.9265 30.5076C43.9918 30.4892 45.0387 30.1353 45.0387 30.1353C45.0387 30.1353 44.4157 30.7915 43.0112 30.8615C41.6031 30.9316 40.9838 30.0137 40.9838 30.0137H40.9801Z" fill="#A16D4D"/>
<path fill-rule="evenodd" clip-rule="evenodd" d="M48.4854 22.2207C48.4854 22.2207 48.4817 21.4208 47.2357 21.3913C45.9898 21.3581 44.4599 21.83 44.5226 22.0991C44.5853 22.3682 44.8286 21.9332 45.3373 21.7563C45.846 21.5793 46.3805 21.3913 47.2247 21.4503C48.0688 21.5093 48.3895 22.0217 48.4817 22.2207H48.4854Z" fill="#A16D4D"/>
<path fill-rule="evenodd" clip-rule="evenodd" d="M48.2642 22.9912C48.2642 22.9912 47.844 23.581 46.8524 23.5884C45.8608 23.5958 45.4037 23.334 45.4037 23.334C45.4037 23.334 46.2073 23.7764 47.1362 23.7064C48.0652 23.6363 48.1905 23.2013 48.2642 22.9912Z" fill="#AD7755"/>
<path fill-rule="evenodd" clip-rule="evenodd" d="M48.1205 22.2947C48.1205 22.2947 47.7334 21.7602 46.8856 21.7344C46.0377 21.7086 45.2304 22.2099 45.2304 22.2099C45.2304 22.2099 44.8544 22.291 44.8765 22.42C44.8987 22.549 45.2231 22.5527 45.2231 22.5527C45.2231 22.5527 45.894 22.9324 46.8598 22.8366C47.8219 22.7407 48.1168 22.2984 48.1168 22.2984L48.1205 22.2947Z" fill="white"/>
<path fill-rule="evenodd" clip-rule="evenodd" d="M48.1205 22.2941C48.1205 22.2941 48.0984 22.2646 48.0578 22.2204C47.9214 22.3715 47.5122 22.7438 46.7381 22.777C45.8424 22.8175 45.1383 22.5632 45.2452 22.1982L45.2304 22.2056C45.2304 22.2056 44.8544 22.2867 44.8765 22.4157C44.8987 22.5448 45.2231 22.5484 45.2231 22.5484C45.2231 22.5484 45.894 22.9281 46.8598 22.8323C47.8219 22.7364 48.1168 22.2941 48.1168 22.2941H48.1205Z" fill="#EDBA9D"/>
<path fill-rule="evenodd" clip-rule="evenodd" d="M48.1205 22.2948C48.1205 22.2948 47.7334 21.7603 46.8856 21.7345C46.0856 21.7087 45.3226 22.1547 45.2378 22.2026C45.4995 22.1768 46.0525 21.9409 46.716 21.952C47.4311 21.9667 47.8256 22.2653 47.9878 22.4275C48.0799 22.3501 48.1205 22.2911 48.1205 22.2911V22.2948Z" fill="#ADA89F"/>
<path fill-rule="evenodd" clip-rule="evenodd" d="M47.173 21.7639C47.0845 21.7492 46.9887 21.7381 46.8855 21.7345C46.5353 21.7234 46.1925 21.8008 45.9123 21.8967C45.8828 21.9704 45.8644 22.0552 45.8644 22.1399C45.8644 22.5159 46.1851 22.8219 46.5795 22.8219C46.974 22.8219 47.2947 22.5159 47.2947 22.1399C47.2947 21.9999 47.2504 21.8708 47.1767 21.7639H47.173Z" fill="#625D54"/>
<path d="M46.5759 22.4608C46.7612 22.4608 46.9114 22.3172 46.9114 22.14C46.9114 21.9629 46.7612 21.8193 46.5759 21.8193C46.3907 21.8193 46.2405 21.9629 46.2405 22.14C46.2405 22.3172 46.3907 22.4608 46.5759 22.4608Z" fill="#402F24"/>
<path d="M46.4285 22.3125C46.512 22.3125 46.5796 22.2465 46.5796 22.165C46.5796 22.0836 46.512 22.0176 46.4285 22.0176C46.345 22.0176 46.2773 22.0836 46.2773 22.165C46.2773 22.2465 46.345 22.3125 46.4285 22.3125Z" fill="white"/>
<path fill-rule="evenodd" clip-rule="evenodd" d="M48.397 22.298C48.397 22.298 48.2753 22.3127 48.0689 22.1173C47.8625 21.922 47.5491 21.6565 46.8192 21.6418C46.3658 21.6344 45.7428 21.8335 45.1788 22.2169C45.1788 22.2169 45.529 22.0915 45.7133 22.0104C45.8977 21.9293 46.3179 21.7745 46.9777 21.7929C47.6376 21.8114 48.0984 22.3164 48.0984 22.3164C48.0984 22.3164 48.2458 22.4049 48.397 22.298Z" fill="#413024"/>
<path fill-rule="evenodd" clip-rule="evenodd" d="M49.0936 20.9488C48.8798 20.9267 48.6734 20.8567 47.0699 21.0226C45.4663 21.1885 44.6775 21.4465 44.46 21.546C44.2425 21.6456 44.3641 21.2216 44.7033 20.9157C45.0424 20.6097 46.6607 20.3848 47.4606 20.0457C48.2568 19.7066 48.725 20.171 49.0199 20.3996C49.3148 20.6318 49.5286 20.9931 49.0973 20.9488H49.0936Z" fill="#413024"/>
<path d="M43.1697 25.7669C43.2613 25.7669 43.3356 25.0572 43.3356 24.1818C43.3356 23.3064 43.2613 22.5967 43.1697 22.5967C43.0781 22.5967 43.0038 23.3064 43.0038 24.1818C43.0038 25.0572 43.0781 25.7669 43.1697 25.7669Z" fill="#D49D7B"/>
<path d="M43.3135 26.8287C43.452 26.8287 43.5642 26.7248 43.5642 26.5965C43.5642 26.4682 43.452 26.3643 43.3135 26.3643C43.1751 26.3643 43.0629 26.4682 43.0629 26.5965C43.0629 26.7248 43.1751 26.8287 43.3135 26.8287Z" fill="#D49D7B"/>
</svg>
