<svg width="85" height="212" viewBox="0 0 85 212" fill="none" xmlns="http://www.w3.org/2000/svg">
<path fill-rule="evenodd" clip-rule="evenodd" d="M37.026 192.133C37.026 192.133 37.3163 192.984 37.4692 194.337C37.6261 195.69 37.6104 196.31 37.6104 196.31C37.6104 196.31 36.9318 197.314 35.4766 197.879C34.0213 198.444 33.225 198.448 33.225 198.448L31.7736 198.189C31.7736 198.189 31.2009 198.723 30.0948 200.347C28.9925 201.97 27.4313 203.037 25.1719 203.343C22.9125 203.649 18.7859 203.551 17.8053 203.116C16.8207 202.68 15.9381 201.563 15.9264 201.209C15.9185 200.856 15.5694 200.005 16.8325 198.848C18.0956 197.695 24.3364 194.423 25.6583 192.121C26.9802 189.818 36.163 189.712 37.026 192.125V192.133Z" fill="#424852"/>
<path fill-rule="evenodd" clip-rule="evenodd" d="M36.5866 195.345C36.5866 195.345 34.7077 196.149 33.378 196.922C32.0443 197.695 31.5383 198.036 30.6518 198.954C29.7653 199.872 28.7258 201.731 26.6703 202.402C24.6149 203.073 19.288 203.234 18.2721 202.798C17.26 202.363 16.4637 201.319 16.4637 201.319C16.4637 201.319 17.8249 202.669 19.5077 202.704C21.1865 202.739 25.1719 202.469 26.3958 202.08C27.6235 201.692 28.8944 200.86 30.3615 198.499C31.8285 196.138 35.6962 195.471 36.5906 195.349L36.5866 195.345ZM23.1871 200.711C23.1871 200.711 21.3788 200.825 19.3155 200.213C17.2522 199.605 17.5817 198.707 17.5817 198.707C17.5817 198.707 16.3421 200.229 18.6133 200.939C20.8845 201.649 23.1871 200.711 23.1871 200.711ZM27.0744 193.745C27.0744 193.745 26.6429 194.161 26.9214 194.569C27.196 194.98 27.9177 197.565 27.9177 197.565C27.9177 197.565 26.9214 195.553 26.5487 194.906C26.1761 194.259 26.1251 193.921 26.1918 193.702C26.2585 193.482 26.3016 193.364 26.3016 193.364C26.3016 193.364 26.7566 193.302 27.0783 193.745H27.0744Z" fill="#58606D"/>
<path fill-rule="evenodd" clip-rule="evenodd" d="M60.9656 191.077C60.9656 191.077 63.2093 195.584 63.4643 196.369C63.7192 197.153 63.7937 199.86 63.7937 199.86C63.7937 199.86 63.9977 203.563 60.0006 203.802C56.0035 204.042 54.3246 201.723 54.2069 199.782C54.0893 197.844 53.8696 195.2 53.2616 193.929C52.6536 192.658 52.6536 192.658 52.6536 192.658C52.6536 192.658 52.2143 190.289 52.6889 189.387C53.1635 188.485 60.0045 190.285 60.9656 191.073V191.077Z" fill="#424852"/>
<path fill-rule="evenodd" clip-rule="evenodd" d="M62.8444 199.75C62.8444 199.75 62.5855 202.143 59.7613 202.37C56.937 202.594 55.6151 200.527 55.4425 199.707C55.2738 198.887 55.8661 201.193 58.5217 201.327C61.1773 201.46 62.358 200.476 62.8405 199.75H62.8444ZM58.608 192.623C58.608 192.623 59.2553 194.203 59.8868 194.666C60.5183 195.129 61.9265 195.459 61.9265 195.459C61.9265 195.459 60.0202 194.721 59.7338 193.968C59.4475 193.215 59.2396 192.634 59.2396 192.634C59.2396 192.634 59.0199 192.128 58.6041 192.63L58.608 192.623ZM56.3133 192.783C56.3133 192.783 56.7252 193.858 56.5683 194.541C56.4114 195.223 55.6386 196.137 55.6386 196.137C55.6386 196.137 56.9174 195 57.0468 194.227C57.1724 193.458 56.9056 192.85 56.9056 192.85C56.9056 192.85 56.6507 192.638 56.3133 192.783Z" fill="#58606D"/>
<path fill-rule="evenodd" clip-rule="evenodd" d="M59.5142 86.3444C59.5142 86.3444 66.2219 95.5311 65.5864 104.953C64.9509 114.371 64.1743 138.001 64.1743 138.001L64.5469 150.349L62.3032 184.582L61.754 191.16C61.754 191.16 57.1136 192.094 55.1288 192.168C53.1439 192.243 52.3084 191.995 52.3084 191.995C52.3084 191.995 50.3667 188.787 50.4648 187.606C50.5668 186.429 50.7237 181.236 50.5158 180.212C50.3079 179.188 46.2166 148.259 46.35 144.356C46.4834 140.453 46.1892 138.911 46.1107 138.307C46.0283 137.699 44.5299 115.423 44.5299 115.423C44.5299 115.423 39.862 146.438 40.5524 147.913C41.2428 149.392 41.4781 171.971 39.7993 180.114C38.1204 188.257 38.8186 188.54 38.8186 188.54L37.23 192.894C37.23 192.894 34.5195 194.051 30.997 193.619C27.4745 193.192 25.9211 191.635 25.9211 191.635C25.9211 191.635 26.5605 189.081 26.5841 187.014C26.6076 184.947 24.3756 144.56 24.2227 142.5C24.0697 140.441 22.2574 112.681 21.975 106.585C21.6926 100.489 27.6824 85.9561 27.6824 85.9561C27.6824 85.9561 52.0181 86.3954 59.5103 86.3444H59.5142Z" fill="#23314B"/>
<path fill-rule="evenodd" clip-rule="evenodd" d="M41.2233 95.6411C41.2233 95.6411 41.1174 106.507 41.2037 107.742C41.29 108.978 43.9377 110.829 43.9377 110.829C43.9377 110.829 41.996 108.138 42.0862 107.479C42.1725 106.817 42.3255 95.5548 42.3255 95.5548C42.3255 95.5548 41.796 95.4685 41.2233 95.6411Z" fill="#192233"/>
<path d="M16.7893 103.796C16.7893 103.796 18.7114 105.298 18.6761 107.958C18.6683 108.636 18.1191 109.931 17.8994 110.578C17.7778 110.947 17.4876 111.672 17.4601 112.057C17.4209 112.641 17.7425 113.799 17.7072 114.383C17.6641 115.113 17.1071 116.964 16.3147 117.011C15.5263 117.058 14.9614 115.144 14.9065 114.422C14.8555 113.771 15.6949 112.214 15.1301 111.814C14.9379 111.676 14.5025 111.943 14.3024 112.065C14.1337 112.167 13.7493 112.394 13.6748 112.567C13.5728 112.802 13.4551 113.253 13.3728 113.449C13.3375 113.532 13.0393 114.006 13.1178 114.301C13.2786 114.897 13.5532 116.901 13.5532 116.901C13.5532 116.901 14.5809 117.384 15.0281 117.827C15.2399 118.035 16.2833 118.36 16.5383 118.506C16.9188 118.729 17.4954 119.51 17.213 119.835C16.8168 120.29 14.9339 119.89 14.271 119.518C13.3414 119.004 11.6939 118.404 11.3173 117.678C10.9564 116.984 10.6936 114.732 10.4465 114.085C10.2425 113.551 10.1562 113.367 9.98363 112.783C9.79535 112.159 10.4543 109.856 11.0074 107.977C11.4585 106.444 12.6157 103.898 12.6157 103.898L16.7893 103.796Z" fill="#C78C68"/>
<path d="M17.5032 115.387C17.5973 115.544 17.7346 115.767 17.7974 115.865C17.9661 116.136 18.5113 116.63 18.4799 116.94C18.4682 117.077 18.0877 117.356 18.0877 117.356C18.0877 117.356 19.1154 118.274 19.1075 118.682C19.1036 118.815 18.7623 119.101 18.7623 119.101C18.7623 119.101 18.7663 119.78 18.5858 119.902C18.3505 120.063 17.6836 119.957 17.209 119.851L17.2208 119.839C17.5032 119.513 16.9266 118.729 16.5461 118.509C16.2911 118.36 15.2438 118.035 15.0359 117.831C14.675 117.474 13.8356 117.089 13.5571 116.952L13.5531 116.854C13.51 116.532 13.2707 114.845 13.1256 114.308C13.0471 114.014 13.3452 113.539 13.3805 113.457C13.4668 113.261 13.5806 112.81 13.6826 112.574C13.7571 112.402 14.1415 112.174 14.3102 112.072C14.5142 111.951 14.9457 111.684 15.1379 111.821C15.7027 112.221 14.8633 113.779 14.9143 114.43C14.9731 115.151 15.538 117.066 16.3225 117.019C16.8481 116.987 17.2718 116.16 17.5071 115.395L17.5032 115.387ZM12.6078 103.898C12.6078 103.898 12.3528 104.482 12.2587 104.694C12.1528 104.929 11.9606 105.392 11.9606 105.392C11.9606 105.392 14.1219 105.274 14.8711 105.274C16.5814 105.278 18.2916 105.902 18.2916 105.902C18.2916 105.902 18.0798 105.38 17.8052 104.945C17.566 104.564 17.0599 103.89 17.0599 103.89L14.6946 103.65L12.6078 103.894V103.898Z" fill="#A16D4D"/>
<path d="M11.8195 102.176L11.7214 104.349C11.7214 104.349 14.1064 104.294 14.938 104.361C17.7348 104.58 18.5664 104.961 18.5664 104.961L19.0802 102.18L11.8195 102.176Z" fill="#C4C2CC"/>
<path d="M36.0375 28.2118C42.4196 28.2118 42.6902 27.7803 49.2057 27.7803C49.0527 28.9806 50.0059 34.9861 51.3592 36.4492L49.798 43.8786L47.413 59.11L34.9784 48.8289L33.8879 38.4419C36.52 36.4021 36.2062 30.0515 36.0336 28.2078L36.0375 28.2118Z" fill="#C78C68"/>
<path d="M36.0179 28.1135C42.4353 28.1135 42.753 27.835 49.3037 27.835C49.2488 28.2625 49.3783 29.3059 49.441 30.5416C46.4324 34.7976 40.8741 37.6258 35.8493 34.2915C36.0611 31.8713 36.2062 29.2196 36.0218 28.1135H36.0179ZM50.4805 34.7897C50.6688 35.4487 50.9512 35.9626 51.2454 36.2803L49.8372 43.8823L48.2878 53.7201C47.5582 55.3049 46.7227 56.7249 45.8283 57.7879L35.2844 49.1189C35.1314 48.6953 34.9824 48.2717 34.8411 47.8441L33.884 38.4456C34.9353 37.6336 35.3158 36.6059 35.7159 34.978L35.8846 35.2722C35.8846 35.2722 36.7671 39.638 37.8459 42.1956C38.9285 44.7531 39.5522 46.6046 39.3835 47.4205C39.2148 48.2364 39.4541 48.6992 39.8895 49.3818C40.321 50.0643 42.0273 52.3355 42.1215 51.9158C42.2156 51.496 42.4824 49.2249 43.6827 47.6833C44.883 46.1417 46.2755 45.0826 45.7734 44.1765C45.2674 43.2743 45.4361 42.5525 46.3736 41.1992C47.3111 39.8459 49.8608 36.649 50.4766 34.7858L50.4805 34.7897ZM42.298 37.21C42.298 37.21 42.1529 38.2455 42.4902 38.9084C42.8275 39.5714 43.3532 39.2379 43.3532 39.2379C43.3532 39.2379 42.4392 38.8025 42.298 37.21Z" fill="#A16D4D"/>
<path d="M31.3854 90.2431C43.4121 93.2792 52.2614 93.0281 61.1853 88.4152C59.3417 84.5906 57.7688 81.327 55.9251 77.4986C50.0805 63.3576 52.3595 44.3292 53.0381 37.6882C51.8496 36.4761 51.5593 35.4837 51.5593 35.4837C51.5593 35.4837 51.0297 35.0993 50.7512 35.4602C50.2452 38.2334 46.1657 41.7402 46.103 42.5483C45.8127 43.6192 47.0209 43.576 46.8953 44.1958C46.6482 45.3922 44.8321 47.3025 44.2201 48.3812C43.4709 49.7031 42.8786 54.5161 42.8786 54.5161C42.8786 54.5161 40.6192 51.6605 40.0936 51.0054C37.8145 48.0282 38.8501 48.4322 38.8109 46.82C38.7991 46.2983 38.7873 45.9688 38.2892 44.4508C37.8185 43.019 36.1827 39.7476 35.6061 35.4641C35.5787 35.2758 34.8059 35.8956 34.6804 36.127C33.6801 38.1118 33.7233 39.4338 32.6446 42.3051C30.1263 53.3786 41.3056 77.1926 31.3776 90.2392L31.3854 90.2431Z" fill="#F2F1F6"/>
<path d="M51.9868 36.3858C51.9868 36.3858 50.8218 40.6928 49.8097 45.4273C49.696 44.7566 49.3351 43.6347 49.3037 43.2778C49.1547 41.6774 48.2878 41.3792 47.6915 41.3675C46.9502 41.3518 46.197 42.0657 46.0676 42.7011C46.0166 42.9561 46.1029 43.2111 46.2676 43.4268C46.1186 43.1169 46.1225 42.7639 46.7109 42.0814C47.2993 41.3988 48.7036 42.1834 48.8879 42.8659C49.1233 43.7367 49.6293 45.0626 49.7941 45.5215C49.3037 47.8241 48.8487 50.2208 48.5859 52.2684C47.8484 57.9757 48.5506 69.7317 50.2805 75.1998C51.7397 79.805 56.8979 84.9985 57.4117 89.1368C51.5318 92.2906 42.3568 92.8162 35.8532 89.9841C36.1866 86.5243 37.9047 76.9336 37.8811 72.7717C37.8537 67.3036 35.4531 53.3706 34.7117 48.8282C34.6254 48.3026 34.5587 47.7299 34.5077 47.1298C34.8411 46.9219 35.2099 46.6041 35.4923 46.1256C36.1709 44.9802 37.5909 45.7059 37.9988 46.3884C38.4068 47.0709 38.5362 47.624 38.5362 47.624C38.5362 47.624 39.1089 45.9491 37.7635 44.7801C36.418 43.6112 35.6413 44.9331 34.9392 46.1452C34.7823 46.4198 34.6293 46.6394 34.4842 46.812C34.1468 42.2697 34.4371 36.676 34.4371 36.676C34.1547 37.033 33.9703 37.1664 33.7585 37.4527C26.0231 50.3894 38.9716 78.9263 30.5184 89.9841C44.5848 93.8047 51.8142 92.5965 61.3735 88.8426C47.0718 59.6624 55.8505 54.7827 53.0459 37.6842C52.6928 37.2487 52.3437 36.8133 51.9907 36.3779L51.9868 36.3858Z" fill="#C4C2CC"/>
<path d="M64.9941 97.6919C64.9941 97.6919 64.5548 98.4881 64.4763 98.7C64.2331 99.3276 63.5074 101.689 63.5074 101.689L59.3809 94.0517L60.5969 93.1299L64.998 97.6919H64.9941Z" fill="#C78C68"/>
<path d="M59.679 93.8242L59.2004 95.1618C59.2004 95.1618 61.3853 96.3347 62.1149 96.7191C63.0956 97.2212 64.9196 98.0057 64.9196 98.0057C64.9196 98.0057 65.2412 97.2016 65.3118 96.9191C65.3589 96.723 65.6649 95.7267 65.6649 95.7267L59.6829 93.8242H59.679Z" fill="#C4C2CC"/>
<path d="M33.8095 37.3701C33.8095 37.3701 31.3422 39.2726 28.2198 40.1591C18.837 42.8304 16.7501 44.7289 16.405 54.1C16.1696 60.4899 15.4675 65.4637 14.3691 71.6457C12.8903 77.612 12.4 80.9697 12.1725 85.5866C11.945 90.2035 11.4703 102.536 11.4703 102.536C13.1139 102.505 17.6367 102.689 19.0488 102.991C20.7433 95.8167 23.3832 82.4446 24.458 79.8243C24.5522 82.8643 22.9831 87.846 22.1829 92.965C21.6063 96.6679 20.9905 107.326 20.9905 107.326C20.9905 107.326 25.7878 111.287 27.3058 110.244C30.6361 107.961 32.7229 99.2255 35.1589 87.8068C36.2415 82.7427 36.5318 72.2576 36.1787 67.4839C35.8571 63.1494 34.1782 54.3196 33.7664 50.3029C33.4329 47.0472 33.7977 37.3701 33.7977 37.3701H33.8095Z" fill="#23314B"/>
<path d="M52.0653 36.4766C52.0653 36.4766 49.4097 47.1186 49.2214 50.9039C49.1076 53.2574 48.8997 57.9724 48.9625 60.322C49.0527 63.719 49.0488 71.2072 49.8882 74.4826C50.5237 76.9538 52.5085 80.6332 54.3168 82.4768C57.8432 86.0738 58.5493 94.3387 58.5493 94.3387C61.4716 95.6842 63.9978 96.8139 65.6767 97.5278C65.6767 97.5278 68.3519 92.6716 70.8584 87.6233C73.4002 82.5043 75.1733 75.1337 75.3812 72.9135C75.4439 72.2545 74.8987 65.9941 73.3532 59.7846C71.6155 52.8024 69.8425 46.9303 68.1047 44.5846C66.7358 42.7331 55.4426 38.3124 52.0653 36.4727V36.4766ZM62.3778 74.6748C61.9933 70.7796 60.9029 64.9311 60.9029 64.9311C60.9029 64.9311 61.4442 67.2611 62.5504 70.3874C63.786 73.8785 64.39 74.3414 64.445 74.6002C64.2567 75.628 63.9939 76.6165 63.3545 79.0563C63.2172 78.5111 62.4641 75.6515 62.3817 74.6709L62.3778 74.6748Z" fill="#23314B"/>
<path d="M30.8715 39.9717C30.4636 40.8464 26.3331 47.9149 26.286 48.5975C26.5292 49.5899 29.228 55.2188 30.3812 57.694C29.377 54.3715 27.9374 50.0253 28.0865 48.6799C28.2277 47.4089 30.1066 42.2468 30.8676 39.9678L30.8715 39.9717Z" fill="#35496E"/>
<path d="M64.7352 75.1494C63.5467 81.2059 60.3616 86.2857 58.9298 93.4875C58.9612 93.6994 59.275 94.3309 59.3574 94.7231C61.3304 89.8199 65.0883 79.8526 64.7392 75.1494H64.7352Z" fill="#182234"/>
<path fill-rule="evenodd" clip-rule="evenodd" d="M57.4392 48.236L53.4107 49.2049L57.4431 49.1813C56.7763 51.5741 52.8811 65.7347 50.8806 73.5681C53.14 66.7467 58.412 48.6792 58.412 48.6792C58.412 48.6792 57.3764 43.0346 53.4852 38.4766C55.7329 41.544 56.788 44.5566 57.4392 48.236Z" fill="#182234"/>
<path fill-rule="evenodd" clip-rule="evenodd" d="M26.235 48.2363L30.2635 49.2052L26.2311 49.1817C26.8979 51.5745 33.5742 64.1385 35.5747 71.968C33.3153 65.1466 25.2622 48.6796 25.2622 48.6796C25.2622 48.6796 26.5057 44.9845 30.7656 40.0303C28.518 43.0977 26.9528 45.7141 26.2311 48.2403L26.235 48.2363Z" fill="#182234"/>
<path d="M28.616 40.4385C18.6997 44.0355 17.5386 44.5258 17.0444 54.6775C16.9188 57.2311 16.809 59.4081 16.6403 61.4479C16.5227 62.1775 16.4089 62.8482 16.3344 63.4327C16.2049 64.4447 15.9303 66.4531 15.7342 67.4455C15.3929 69.1519 15.0831 70.7209 14.8046 72.2076C14.6124 72.9411 14.4398 73.6354 14.2789 74.2904C15.291 75.8987 18.382 56.1014 18.7938 51.3237C19.2685 45.8242 23.1322 42.9176 26.6782 41.4387C27.4549 41.1132 28.0943 40.7758 28.616 40.4424V40.4385Z" fill="#35496E"/>
<path fill-rule="evenodd" clip-rule="evenodd" d="M34.2527 92.9463C39.7953 95.8843 48.9075 94.6565 58.1531 91.542L58.4277 92.1618C51.5317 95.0449 40.9133 97.1121 34.0409 93.8485L34.2566 92.9502L34.2527 92.9463Z" fill="#192233"/>
<path d="M74.3809 67.8449C74.0632 65.5737 73.5768 62.773 72.8786 59.984C71.1801 53.1705 69.4502 47.4396 67.7557 45.1527C66.5907 43.5758 58.059 40.0925 53.7089 38.0371C53.7089 38.0371 64.2214 43.9053 66.0297 45.5606C67.6419 47.0316 71.5096 58.6778 74.377 67.8488L74.3809 67.8449Z" fill="#35496E"/>
<path d="M21.775 107.883C21.775 107.883 25.729 111.641 27.2588 110.598C30.5852 108.334 34.0449 97.0138 34.8412 88.5332C33.1623 93.9621 29.53 105.126 27.6275 107.452C25.7212 109.782 21.775 107.879 21.775 107.879V107.883Z" fill="#192233"/>
<path fill-rule="evenodd" clip-rule="evenodd" d="M50.7394 20.6718C50.7394 20.6718 51.826 20.4051 52.0221 20.8169C52.2183 21.2249 52.485 23.041 52.23 24.1472C51.9751 25.2534 50.912 26.8028 50.4256 26.8028C49.9392 26.8028 49.9157 26.6459 49.9157 26.6459C49.7666 27.0813 49.3744 29.1917 49.3744 29.5408C48.5075 32.0591 45.6361 34.2871 43.7611 34.5146C42.906 34.6519 42.0195 34.6676 41.1762 34.4519C39.5718 34.0714 36.9947 31.7727 36.0533 29.5055C35.7983 28.9406 35.5512 27.1676 35.4099 26.6459C35.4099 26.6459 35.3864 26.8028 34.9 26.8028C34.4136 26.8028 33.3506 25.2534 33.0956 24.1472C32.8407 23.041 33.1074 21.2249 33.3035 20.8169C33.4996 20.409 34.5862 20.6718 34.5862 20.6718C33.378 14.6153 35.0255 9.46887 42.7413 9.51595C50.3786 9.56302 51.7907 14.9291 50.7355 20.6718H50.7394Z" fill="#C78C68"/>
<path fill-rule="evenodd" clip-rule="evenodd" d="M34.7666 23.6726C34.7666 23.6726 34.2096 23.4608 34.3469 22.7979C34.4842 22.1349 34.5234 21.6799 34.19 21.5819C33.8566 21.4838 33.4761 22.6645 33.5663 23.6177C33.6526 24.5709 34.4371 25.6888 34.4371 25.6888C34.4371 25.6888 33.4486 24.6611 33.4329 23.1784C33.4133 21.6956 33.7075 21.1543 34.1076 21.1543C34.5077 21.1543 34.7039 21.6838 34.7039 21.7858C34.7039 21.8839 34.5783 22.7586 34.7705 23.6765L34.7666 23.6726ZM50.3236 23.6726C50.3236 23.6726 50.9826 23.4608 50.8218 22.7979C50.661 22.1349 50.6139 21.6799 51.0061 21.5819C51.3984 21.4838 51.8495 22.6645 51.7475 23.6177C51.6416 24.5709 50.7198 25.6888 50.7198 25.6888C50.7198 25.6888 51.8887 24.6611 51.9083 23.1784C51.9319 21.6956 51.5867 21.1543 51.1121 21.1543C50.6374 21.1543 50.406 21.6838 50.406 21.7858C50.406 21.8839 50.555 22.7586 50.3236 23.6765V23.6726Z" fill="#A16D4D"/>
<path fill-rule="evenodd" clip-rule="evenodd" d="M35.4139 26.6808V26.6494C35.4139 26.6494 35.3903 26.8063 34.9039 26.8063C34.8216 26.8063 34.7196 26.7592 34.6097 26.6808C34.6725 26.7161 34.8294 26.7592 35.0412 26.4454C35.3197 26.0375 35.5198 24.3861 35.5002 25.0568C35.4923 25.3824 35.4609 26.0649 35.41 26.6847L35.4139 26.6808ZM49.9196 26.6808V26.6494C49.9196 26.6494 49.9432 26.8063 50.4296 26.8063C50.5119 26.8063 50.6139 26.7592 50.7238 26.6808C50.661 26.7161 50.5041 26.7592 50.2923 26.4454C50.0138 26.0375 49.8137 24.3861 49.8333 25.0568C49.8412 25.3824 49.8725 26.0649 49.9235 26.6847L49.9196 26.6808Z" fill="#AD7755"/>
<path fill-rule="evenodd" clip-rule="evenodd" d="M41.0036 21.3541C41.0036 21.3541 42.0078 22.2327 41.9842 22.8486C41.9568 23.4644 41.7685 23.6605 41.5763 25.006C41.3841 26.3514 41.5685 26.5162 41.7489 26.7986C41.9293 27.081 41.3841 26.575 41.2899 25.7356C41.1958 24.8962 41.4468 23.7704 41.5606 23.1192C41.6744 22.472 41.3919 21.8444 40.7133 21.3109C40.0386 20.7774 40.7055 21.1069 41.0036 21.3541Z" fill="#A16D4D"/>
<path fill-rule="evenodd" clip-rule="evenodd" d="M36.4141 20.9468C36.6259 20.9233 36.8338 20.8566 38.4382 21.0213C40.0425 21.1861 40.831 21.445 41.0467 21.543C41.2624 21.6411 41.1605 21.1939 40.8231 20.888C40.4858 20.582 38.8461 20.3819 38.0498 20.0407C37.2536 19.6994 36.7868 20.1662 36.4926 20.3976C36.1984 20.6291 35.9826 20.9899 36.418 20.9468H36.4141Z" fill="#413024"/>
<path fill-rule="evenodd" clip-rule="evenodd" d="M44.4359 21.2998C44.4359 21.2998 43.8475 21.6646 43.6121 22.4021C43.3768 23.1395 43.5062 23.4651 43.5062 23.4651C43.5062 23.4651 43.671 21.9784 44.432 21.2998H44.4359Z" fill="#A16D4D"/>
<path fill-rule="evenodd" clip-rule="evenodd" d="M41.0271 25.3086C41.0271 25.3086 40.5524 25.7989 40.4779 26.352C40.4034 26.9051 40.6466 27.1522 40.9133 27.2346C41.1761 27.317 41.333 27.2111 41.333 27.2111C41.333 27.2111 40.5995 27.5641 40.3171 26.8541C40.0346 26.1441 40.8662 25.438 41.0271 25.3086Z" fill="#A16D4D"/>
<path fill-rule="evenodd" clip-rule="evenodd" d="M41.2703 27.2384C41.2703 27.2384 41.337 26.8579 41.4939 27.0383C41.6508 27.2227 41.9371 27.6032 42.2784 27.7052C42.4353 27.7522 42.5451 27.7718 42.6118 27.7797H42.6157C42.6236 27.7797 42.6393 27.7797 42.6589 27.7797H42.6667H42.6746C42.6981 27.7797 42.7099 27.7797 42.7177 27.7797H42.7217C42.7923 27.7718 42.8982 27.7522 43.0551 27.7052C43.3963 27.6032 43.6827 27.2188 43.8396 27.0383C43.9965 26.854 44.0632 27.2384 44.0632 27.2384C44.0632 27.2384 43.8474 27.2462 43.5219 27.5326C43.2826 27.7444 42.8982 27.7797 42.7138 27.7836C42.706 27.7836 42.6903 27.7875 42.6628 27.7875C42.6354 27.7875 42.6197 27.7875 42.6118 27.7836C42.4275 27.7797 42.047 27.7444 41.8038 27.5326C41.4743 27.2462 41.2625 27.2384 41.2625 27.2384H41.2703Z" fill="#78492B"/>
<path fill-rule="evenodd" clip-rule="evenodd" d="M44.3102 25.3086C44.3102 25.3086 44.7849 25.7989 44.8594 26.352C44.9339 26.9051 44.6907 27.1522 44.424 27.2346C44.1612 27.317 44.0043 27.2111 44.0043 27.2111C44.0043 27.2111 44.7378 27.5641 45.0202 26.8541C45.3026 26.1441 44.4711 25.438 44.3102 25.3086Z" fill="#A16D4D"/>
<path fill-rule="evenodd" clip-rule="evenodd" d="M37.1123 22.2208C37.1123 22.2208 37.1162 21.4206 38.3597 21.3892C39.6032 21.3578 41.133 21.8285 41.0741 22.0953C41.0114 22.3659 40.7682 21.9305 40.2582 21.754C39.7483 21.5775 39.2148 21.3892 38.3715 21.448C37.5281 21.5069 37.2064 22.0168 37.1123 22.2208Z" fill="#A16D4D"/>
<path fill-rule="evenodd" clip-rule="evenodd" d="M37.3359 22.9893C37.3359 22.9893 37.7557 23.5776 38.7481 23.5855C39.7405 23.5933 40.1955 23.3305 40.1955 23.3305C40.1955 23.3305 39.3914 23.7738 38.4617 23.7032C37.5321 23.6326 37.4065 23.1972 37.3359 22.9893Z" fill="#AD7755"/>
<path fill-rule="evenodd" clip-rule="evenodd" d="M37.4771 22.2915C37.4771 22.2915 37.8615 21.758 38.7127 21.7306C39.5599 21.7031 40.368 22.2052 40.368 22.2052C40.368 22.2052 40.7446 22.2876 40.721 22.417C40.6975 22.5465 40.3719 22.5504 40.3719 22.5504C40.3719 22.5504 39.7012 22.9309 38.7362 22.8328C37.7712 22.7387 37.4771 22.2954 37.4771 22.2954V22.2915Z" fill="white"/>
<path fill-rule="evenodd" clip-rule="evenodd" d="M37.4771 22.2914C37.4771 22.2914 37.4967 22.264 37.5398 22.2208C37.6771 22.3738 38.0851 22.7425 38.8617 22.7778C39.7561 22.817 40.4621 22.566 40.3523 22.1973L40.368 22.2051C40.368 22.2051 40.7446 22.2875 40.721 22.4169C40.6975 22.5464 40.3719 22.5503 40.3719 22.5503C40.3719 22.5503 39.7012 22.9308 38.7362 22.8327C37.7712 22.7386 37.4771 22.2953 37.4771 22.2953V22.2914Z" fill="#EDBA9D"/>
<path fill-rule="evenodd" clip-rule="evenodd" d="M37.4771 22.2916C37.4771 22.2916 37.8615 21.7582 38.7127 21.7307C39.5129 21.7032 40.2739 22.1504 40.3602 22.2014C40.0973 22.174 39.5443 21.9386 38.8813 21.9504C38.1635 21.9621 37.7712 22.2642 37.6104 22.4289C37.5163 22.3505 37.4771 22.2956 37.4771 22.2956V22.2916Z" fill="#ADA89F"/>
<path fill-rule="evenodd" clip-rule="evenodd" d="M38.4264 21.762C38.5166 21.7464 38.6108 21.7346 38.7167 21.7307C39.0658 21.7189 39.411 21.7973 39.6895 21.8954C39.7209 21.9699 39.7365 22.0523 39.7365 22.1386C39.7365 22.5152 39.4188 22.8211 39.0226 22.8211C38.6304 22.8211 38.3087 22.5152 38.3087 22.1386C38.3087 22.0013 38.3519 21.8719 38.4264 21.762Z" fill="#625D54"/>
<path d="M39.0226 22.4597C39.209 22.4597 39.36 22.3157 39.36 22.1381C39.36 21.9604 39.209 21.8164 39.0226 21.8164C38.8363 21.8164 38.6853 21.9604 38.6853 22.1381C38.6853 22.3157 38.8363 22.4597 39.0226 22.4597Z" fill="#402F24"/>
<path d="M39.1717 22.3108C39.2561 22.3108 39.3246 22.2458 39.3246 22.1656C39.3246 22.0855 39.2561 22.0205 39.1717 22.0205C39.0872 22.0205 39.0187 22.0855 39.0187 22.1656C39.0187 22.2458 39.0872 22.3108 39.1717 22.3108Z" fill="white"/>
<path fill-rule="evenodd" clip-rule="evenodd" d="M37.1986 22.2988C37.1986 22.2988 37.3202 22.3106 37.5281 22.1184C37.736 21.9262 38.0459 21.6555 38.7755 21.6438C39.2266 21.6359 39.8542 21.836 40.4151 22.2204C40.4151 22.2204 40.0621 22.0949 39.8817 22.0125C39.6973 21.9301 39.2776 21.7771 38.6186 21.7928C37.9596 21.8085 37.4967 22.3185 37.4967 22.3185C37.4967 22.3185 37.3516 22.4048 37.1986 22.2988Z" fill="#413024"/>
<path fill-rule="evenodd" clip-rule="evenodd" d="M42.9414 28.8821C43.0747 28.7252 43.5297 28.7252 43.9926 28.7841C44.4555 28.8429 45.5773 28.89 45.8872 28.6546C46.1971 28.4193 46.3972 28.4036 46.3109 28.5683C46.2246 28.7331 46.0833 28.6311 46.001 28.6625C45.7617 28.7174 45.7146 28.7958 45.3184 28.9684C44.9223 29.141 44.6516 29.4548 42.6275 29.4941C40.6035 29.5294 39.6817 28.8664 39.5012 28.7723C39.3169 28.6782 39.2149 28.6742 39.1286 28.6585C38.6932 28.482 39.0423 28.4663 39.3757 28.6938C39.666 28.89 40.7918 28.8468 41.2546 28.7841C41.7175 28.7252 42.1608 28.7331 42.3059 28.8821C42.4903 29.0704 42.8119 29.039 42.9414 28.8821Z" fill="#8A5330"/>
<path fill-rule="evenodd" clip-rule="evenodd" d="M42.2745 29.9647C42.2745 29.9647 43.5218 30.0236 44.4083 29.7686C45.2948 29.5136 44.6555 30.2432 43.3179 30.3413C41.9763 30.4394 41.3605 29.9373 42.2784 29.9647H42.2745Z" fill="#D49D7B"/>
<path fill-rule="evenodd" clip-rule="evenodd" d="M40.6466 30.0117C40.6466 30.0117 41.5292 30.5217 42.5922 30.506C43.6592 30.4903 44.7026 30.1333 44.7026 30.1333C44.7026 30.1333 44.0828 30.7884 42.6746 30.859C41.2664 30.9296 40.6466 30.0117 40.6466 30.0117Z" fill="#A16D4D"/>
<path fill-rule="evenodd" clip-rule="evenodd" d="M48.1545 22.2208C48.1545 22.2208 48.1506 21.4206 46.9071 21.3892C45.6637 21.3578 44.1338 21.8285 44.1927 22.0953C44.2554 22.3659 44.4986 21.9305 45.0086 21.754C45.5185 21.5775 46.052 21.3892 46.8954 21.448C47.7387 21.5069 48.0604 22.0168 48.1545 22.2208Z" fill="#A16D4D"/>
<path fill-rule="evenodd" clip-rule="evenodd" d="M47.9309 22.9893C47.9309 22.9893 47.5111 23.5776 46.5187 23.5855C45.5263 23.5933 45.0713 23.3305 45.0713 23.3305C45.0713 23.3305 45.8754 23.7738 46.8051 23.7032C47.7347 23.6326 47.8602 23.1972 47.9309 22.9893Z" fill="#AD7755"/>
<path fill-rule="evenodd" clip-rule="evenodd" d="M47.7858 22.2915C47.7858 22.2915 47.4014 21.758 46.5502 21.7306C45.7029 21.7031 44.8949 22.2052 44.8949 22.2052C44.8949 22.2052 44.5183 22.2876 44.5418 22.417C44.5654 22.5465 44.8909 22.5504 44.8909 22.5504C44.8909 22.5504 45.5617 22.9309 46.5267 22.8328C47.4916 22.7387 47.7858 22.2954 47.7858 22.2954V22.2915Z" fill="white"/>
<path fill-rule="evenodd" clip-rule="evenodd" d="M47.7858 22.2914C47.7858 22.2914 47.7662 22.264 47.7231 22.2208C47.5858 22.3738 47.1778 22.7425 46.4011 22.7778C45.5068 22.817 44.8007 22.566 44.9106 22.1973L44.8949 22.2051C44.8949 22.2051 44.5183 22.2875 44.5418 22.4169C44.5654 22.5464 44.8909 22.5503 44.8909 22.5503C44.8909 22.5503 45.5617 22.9308 46.5267 22.8327C47.4916 22.7386 47.7858 22.2953 47.7858 22.2953V22.2914Z" fill="#EDBA9D"/>
<path fill-rule="evenodd" clip-rule="evenodd" d="M47.7858 22.2916C47.7858 22.2916 47.4014 21.7582 46.5502 21.7307C45.75 21.7032 44.989 22.1504 44.9027 22.2014C45.1655 22.174 45.7186 21.9386 46.3815 21.9504C47.0994 21.9621 47.4916 22.2642 47.6524 22.4289C47.7466 22.3505 47.7858 22.2956 47.7858 22.2956V22.2916Z" fill="#ADA89F"/>
<path fill-rule="evenodd" clip-rule="evenodd" d="M46.8404 21.762C46.7502 21.7464 46.6561 21.7346 46.5501 21.7307C46.201 21.7189 45.8558 21.7973 45.5773 21.8954C45.546 21.9699 45.5303 22.0523 45.5303 22.1386C45.5303 22.5152 45.848 22.8211 46.2442 22.8211C46.6364 22.8211 46.9581 22.5152 46.9581 22.1386C46.9581 22.0013 46.9149 21.8719 46.8404 21.762Z" fill="#625D54"/>
<path d="M46.2442 22.4597C46.4305 22.4597 46.5815 22.3157 46.5815 22.1381C46.5815 21.9604 46.4305 21.8164 46.2442 21.8164C46.0579 21.8164 45.9069 21.9604 45.9069 22.1381C45.9069 22.3157 46.0579 22.4597 46.2442 22.4597Z" fill="#402F24"/>
<path d="M46.0951 22.3108C46.1796 22.3108 46.2481 22.2458 46.2481 22.1656C46.2481 22.0855 46.1796 22.0205 46.0951 22.0205C46.0106 22.0205 45.9421 22.0855 45.9421 22.1656C45.9421 22.2458 46.0106 22.3108 46.0951 22.3108Z" fill="white"/>
<path fill-rule="evenodd" clip-rule="evenodd" d="M48.0643 22.2988C48.0643 22.2988 47.9427 22.3106 47.7348 22.1184C47.5269 21.9262 47.217 21.6555 46.4874 21.6438C46.0363 21.6359 45.4087 21.836 44.8478 22.2204C44.8478 22.2204 45.2008 22.0949 45.3812 22.0125C45.5656 21.9301 45.9853 21.7771 46.6443 21.7928C47.3033 21.8085 47.7662 22.3185 47.7662 22.3185C47.7662 22.3185 47.9113 22.4048 48.0643 22.2988Z" fill="#413024"/>
<path fill-rule="evenodd" clip-rule="evenodd" d="M48.7624 20.9468C48.5506 20.9233 48.3427 20.8566 46.7383 21.0213C45.134 21.1861 44.3456 21.445 44.1298 21.543C43.9141 21.6411 44.0357 21.2175 44.373 20.9115C44.7104 20.6055 46.3304 20.3819 47.1306 20.0407C47.9269 19.6994 48.3937 20.1662 48.6879 20.3976C48.9821 20.6291 49.1978 20.9899 48.7624 20.9468Z" fill="#413024"/>
<path d="M42.8354 25.7671C42.9264 25.7671 43.0002 25.0576 43.0002 24.1824C43.0002 23.3072 42.9264 22.5977 42.8354 22.5977C42.7444 22.5977 42.6707 23.3072 42.6707 24.1824C42.6707 25.0576 42.7444 25.7671 42.8354 25.7671Z" fill="#D49D7B"/>
<path d="M42.9805 26.8301C43.1192 26.8301 43.2316 26.7264 43.2316 26.5986C43.2316 26.4708 43.1192 26.3672 42.9805 26.3672C42.8419 26.3672 42.7295 26.4708 42.7295 26.5986C42.7295 26.7264 42.8419 26.8301 42.9805 26.8301Z" fill="#D49D7B"/>
</svg>
