<svg width="85" height="212" viewBox="0 0 85 212" fill="none" xmlns="http://www.w3.org/2000/svg">
<path d="M47.1385 28.4132C47.0058 27.6983 46.5563 27.9931 45.8488 27.8826C45.1634 27.7757 43.9179 27.5251 43.9179 27.5251C43.9179 27.5251 43.8332 27.5067 43.6784 27.6578C42.971 28.3579 42.2561 28.3358 41.5449 27.632C41.3902 27.4809 41.3054 27.4993 41.3054 27.4993C41.3054 27.4993 39.9089 27.7757 39.2235 27.8826C38.5381 27.9894 38.1475 27.7278 37.9928 28.1774C37.1268 30.7088 39.2824 35.1638 42.5914 35.079C46.0515 34.9906 47.2564 30.6057 47.1311 28.4132H47.1385ZM35.1739 24.4594C35.0412 23.4276 34.9565 21.939 35.126 20.7267C35.3028 19.4591 35.5829 19.3375 35.5571 18.571C35.5313 17.8046 35.6861 17.0492 36.4009 16.9055C37.1158 16.7618 36.9205 15.9401 37.4142 15.8737C37.908 15.8074 38.1033 15.6895 38.5197 15.2252C38.6229 15.111 38.8771 14.9857 39.2198 14.8604C39.264 14.8457 39.3119 14.8273 39.3598 14.8125L39.3672 14.8088H39.3709C39.7357 14.6836 40.1779 14.5583 40.6237 14.4514C43.4242 13.8803 45.3956 14.971 46.9321 14.2082C47.2785 14.035 49.2941 15.8553 49.3899 18.4826C49.4194 19.249 49.7731 19.4664 49.95 20.7303C50.1232 21.9758 50.0311 23.505 49.891 24.5404C50.0311 24.5699 50.1711 24.6031 50.3037 24.6399C50.6538 23.2029 50.4769 21.8321 50.8859 20.6456C52.5183 15.9032 53.2848 10.5344 46.2283 9.07894C41.7513 5.85104 36.6441 10.6155 34.4369 11.2898C31.618 12.1484 33.2983 18.6005 34.1348 20.6456C34.5954 21.7731 34.4259 23.1439 34.7464 24.5183C34.8644 24.5036 35.0081 24.4852 35.1812 24.4667L35.1739 24.4594ZM41.5302 31.0368C42.1087 31.2984 42.9931 31.3095 43.5126 31.0257C43.5126 31.0257 43.2252 32.157 42.4919 32.1385C41.7586 32.1201 41.5412 31.2763 41.5265 31.0368H41.5302ZM43.6895 28.1663C44.1685 28.3432 45.0602 28.5458 45.4877 28.5753C45.9151 28.6048 46.0551 28.7817 46.1325 28.7817C46.2099 28.7817 46.2799 29.0322 46.2799 29.5481C46.2799 31.3389 44.3859 32.8608 42.503 32.8497C40.6458 32.8387 38.8071 31.3168 38.8071 29.5481C38.8071 29.0322 38.8771 28.7817 38.9545 28.7817C39.0319 28.7817 39.1866 28.6048 39.6104 28.5753C40.0378 28.5458 40.749 28.3432 41.4086 28.1663C41.8287 28.0521 42.0276 28.2142 42.5583 28.2142C43.0704 28.2142 43.2141 27.9894 43.6932 28.1663H43.6895Z" fill="url(#paint0_linear)"/>
<defs>
<linearGradient id="paint0_linear" x1="40.48" y1="11.5699" x2="44.935" y2="32.2564" gradientUnits="userSpaceOnUse">
<stop stop-color="#C2562E"/>
<stop offset="1" stop-color="#8B402A"/>
</linearGradient>
</defs>
</svg>
