<svg width="85" height="212" viewBox="0 0 85 212" fill="none" xmlns="http://www.w3.org/2000/svg">
<path fill-rule="evenodd" clip-rule="evenodd" d="M46.8052 28.4132C46.6726 27.6983 46.223 27.9931 45.5155 27.8826C44.8302 27.7757 43.5847 27.5251 43.5847 27.5251C43.5847 27.5251 43.4999 27.5067 43.3452 27.6578C42.6377 28.3579 41.9228 28.3358 41.2117 27.632C41.0569 27.4809 40.9722 27.4993 40.9722 27.4993C40.9722 27.4993 39.5756 27.7757 38.8902 27.8826C38.2049 27.9894 37.8143 27.7278 37.6595 28.1774C36.7936 30.7088 38.9492 35.1638 42.2582 35.079C45.7182 34.9906 46.9231 30.6057 46.7979 28.4132H46.8052ZM34.8406 24.4594C34.708 23.4276 34.6232 21.939 34.7927 20.7267C34.9696 19.4591 35.2496 19.3375 35.2238 18.571C35.1981 17.8046 35.3528 17.0492 36.0677 16.9055C36.7825 16.7618 36.5872 15.9401 37.081 15.8737C37.5748 15.8074 37.7701 15.6895 38.1864 15.2252C38.2896 15.111 38.5439 14.9857 38.8866 14.8604C38.9308 14.8457 38.9787 14.8273 39.0266 14.8125L39.0339 14.8088H39.0376C39.4024 14.6836 39.8446 14.5583 40.2905 14.4514C43.0909 13.8803 45.0623 14.971 46.5989 14.2082C46.9453 14.035 48.9608 15.8553 49.0567 18.4826C49.0861 19.249 49.4399 19.4664 49.6167 20.7303C49.7899 21.9758 49.6978 23.505 49.5578 24.5404C49.6978 24.5699 49.8378 24.6031 49.9705 24.6399C50.3205 23.2029 50.1437 21.8321 50.5527 20.6456C52.1851 15.9032 52.9515 10.5344 45.8951 9.07894C41.418 5.85104 36.3109 10.6155 34.1037 11.2898C31.2848 12.1484 32.9651 18.6005 33.8015 20.6456C34.2621 21.7731 34.0926 23.1439 34.4132 24.5183C34.5311 24.5036 34.6748 24.4852 34.848 24.4667L34.8406 24.4594ZM41.1969 31.0368C41.7755 31.2984 42.6598 31.3095 43.1794 31.0257C43.1794 31.0257 42.892 32.157 42.1587 32.1385C41.4254 32.1201 41.208 31.2763 41.1933 31.0368H41.1969ZM43.3562 28.1663C43.8353 28.3432 44.727 28.5458 45.1544 28.5753C45.5819 28.6048 45.7219 28.7817 45.7993 28.7817C45.8767 28.7817 45.9467 29.0322 45.9467 29.5481C45.9467 31.3389 44.0527 32.8608 42.1697 32.8497C40.3126 32.8387 38.4739 31.3168 38.4739 29.5481C38.4739 29.0322 38.5439 28.7817 38.6212 28.7817C38.6986 28.7817 38.8534 28.6048 39.2771 28.5753C39.7046 28.5458 40.4158 28.3432 41.0753 28.1663C41.4954 28.0521 41.6944 28.2142 42.225 28.2142C42.7372 28.2142 42.8809 27.9894 43.3599 28.1663H43.3562Z" fill="#1E3C40"/>
</svg>
