<svg width="86" height="212" viewBox="0 0 86 212" fill="none" xmlns="http://www.w3.org/2000/svg">
<path d="M47.472 28.4132C47.3393 27.6983 46.8898 27.9931 46.1823 27.8826C45.4969 27.7757 44.2514 27.5251 44.2514 27.5251C44.2514 27.5251 44.1667 27.5067 44.0119 27.6578C43.3044 28.3579 42.5896 28.3358 41.8784 27.632C41.7237 27.4809 41.6389 27.4993 41.6389 27.4993C41.6389 27.4993 40.2424 27.7757 39.557 27.8826C38.8716 27.9894 38.481 27.7278 38.3263 28.1774C37.4603 30.7088 39.6159 35.1638 42.9249 35.079C46.385 34.9906 47.5899 30.6057 47.4646 28.4132H47.472ZM35.5074 24.4594C35.3747 23.4276 35.29 21.939 35.4595 20.7267C35.6363 19.4591 35.9164 19.3375 35.8906 18.571C35.8648 17.8046 36.0196 17.0492 36.7344 16.9055C37.4493 16.7618 37.254 15.9401 37.7477 15.8737C38.2415 15.8074 38.4368 15.6895 38.8532 15.2252C38.9564 15.111 39.2106 14.9857 39.5533 14.8604C39.5975 14.8457 39.6454 14.8273 39.6933 14.8125L39.7007 14.8088H39.7044C40.0692 14.6836 40.5114 14.5583 40.9572 14.4514C43.7577 13.8803 45.7291 14.971 47.2656 14.2082C47.612 14.035 49.6276 15.8553 49.7234 18.4826C49.7529 19.249 50.1066 19.4664 50.2835 20.7303C50.4567 21.9758 50.3646 23.505 50.2245 24.5404C50.3646 24.5699 50.5046 24.6031 50.6372 24.6399C50.9873 23.2029 50.8104 21.8321 51.2194 20.6456C52.8518 15.9032 53.6183 10.5344 46.5618 9.07894C42.0848 5.85104 36.9776 10.6155 34.7704 11.2898C31.9515 12.1484 33.6318 18.6005 34.4683 20.6456C34.9289 21.7731 34.7594 23.1439 35.0799 24.5183C35.1978 24.5036 35.3416 24.4852 35.5147 24.4667L35.5074 24.4594ZM41.8637 31.0368C42.4422 31.2984 43.3266 31.3095 43.8461 31.0257C43.8461 31.0257 43.5587 32.157 42.8254 32.1385C42.0921 32.1201 41.8747 31.2763 41.86 31.0368H41.8637ZM44.023 28.1663C44.502 28.3432 45.3937 28.5458 45.8212 28.5753C46.2486 28.6048 46.3886 28.7817 46.466 28.7817C46.5434 28.7817 46.6134 29.0322 46.6134 29.5481C46.6134 31.3389 44.7194 32.8608 42.8365 32.8497C40.9793 32.8387 39.1406 31.3168 39.1406 29.5481C39.1406 29.0322 39.2106 28.7817 39.288 28.7817C39.3654 28.7817 39.5201 28.6048 39.9439 28.5753C40.3713 28.5458 41.0825 28.3432 41.7421 28.1663C42.1622 28.0521 42.3611 28.2142 42.8917 28.2142C43.4039 28.2142 43.5476 27.9894 44.0267 28.1663H44.023Z" fill="url(#paint0_linear)"/>
<defs>
<linearGradient id="paint0_linear" x1="40.8135" y1="11.5699" x2="45.2685" y2="32.2564" gradientUnits="userSpaceOnUse">
<stop stop-color="#401B0E"/>
<stop offset="1"/>
</linearGradient>
</defs>
</svg>
