<svg width="85" height="212" viewBox="0 0 85 212" fill="none" xmlns="http://www.w3.org/2000/svg">
<path fill-rule="evenodd" clip-rule="evenodd" d="M35.6992 18.5615H49.6347V24.6027H35.6992V18.5615Z" fill="#C78C68"/>
<path fill-rule="evenodd" clip-rule="evenodd" d="M41.0034 21.3547C41.0034 21.3547 42.0091 22.233 41.9815 22.8495C41.9574 23.3972 41.8059 23.6141 41.6371 24.6027H41.3133C41.3753 24.0481 41.489 23.5039 41.5579 23.1251C41.6715 22.4775 41.3891 21.8507 40.714 21.3168C40.039 20.783 40.7037 21.1136 41.0034 21.3582V21.3547Z" fill="#A16D4D"/>
<path fill-rule="evenodd" clip-rule="evenodd" d="M36.4156 20.9481C36.6291 20.9274 36.8358 20.8585 38.4408 21.0239C40.0458 21.1892 40.8345 21.4475 41.0481 21.5474C41.2651 21.6473 41.1617 21.1995 40.8242 20.893C40.4867 20.5864 38.8472 20.3867 38.0516 20.0457C37.2525 19.7047 36.7875 20.1697 36.4948 20.4004C36.202 20.6312 35.985 20.9929 36.419 20.9481H36.4156Z" fill="#413024"/>
<path fill-rule="evenodd" clip-rule="evenodd" d="M44.4373 21.2998C44.4373 21.2998 43.8484 21.6649 43.6142 22.4054C43.3799 23.1425 43.5108 23.4662 43.5108 23.4662C43.5108 23.4662 43.6761 21.9818 44.4373 21.2998Z" fill="#A16D4D"/>
<path fill-rule="evenodd" clip-rule="evenodd" d="M37.1113 22.2192C37.1113 22.2192 37.1148 21.4202 38.3616 21.3892C39.605 21.3582 41.1377 21.8266 41.0757 22.0952C41.0137 22.3639 40.7691 21.9299 40.2594 21.7543C39.7496 21.5752 39.2158 21.3892 38.3719 21.4477C37.5281 21.5063 37.2078 22.0195 37.1148 22.2192H37.1113Z" fill="#A16D4D"/>
<path fill-rule="evenodd" clip-rule="evenodd" d="M37.3352 22.9912C37.3352 22.9912 37.7554 23.5802 38.7473 23.5905C39.7393 23.6008 40.1974 23.3356 40.1974 23.3356C40.1974 23.3356 39.3949 23.7799 38.4649 23.7076C37.535 23.6387 37.411 23.2013 37.3387 22.9947L37.3352 22.9912Z" fill="#AD7755"/>
<path fill-rule="evenodd" clip-rule="evenodd" d="M37.4763 22.2949C37.4763 22.2949 37.8621 21.7611 38.7128 21.7335C39.5601 21.706 40.3661 22.2088 40.3661 22.2088C40.3661 22.2088 40.7415 22.2915 40.7174 22.4189C40.6933 22.5464 40.3695 22.5498 40.3695 22.5498C40.3695 22.5498 39.6979 22.9287 38.7335 22.8322C37.7691 22.7358 37.4763 22.2949 37.4763 22.2949Z" fill="white"/>
<path fill-rule="evenodd" clip-rule="evenodd" d="M37.4763 22.2947C37.4763 22.2947 37.497 22.2671 37.5383 22.2224C37.6761 22.3739 38.0825 22.7424 38.8575 22.7769C39.753 22.8182 40.4591 22.5633 40.3489 22.1982L40.3626 22.2086C40.3626 22.2086 40.7381 22.2912 40.7139 22.4187C40.6898 22.5461 40.3661 22.5496 40.3661 22.5496C40.3661 22.5496 39.6944 22.9284 38.7301 22.832C37.7657 22.7355 37.4729 22.2947 37.4729 22.2947H37.4763Z" fill="#EDBA9D"/>
<path fill-rule="evenodd" clip-rule="evenodd" d="M37.4763 22.2948C37.4763 22.2948 37.8621 21.7609 38.7128 21.7334C39.5119 21.7093 40.2731 22.1536 40.3592 22.2018C40.0974 22.1777 39.5429 21.94 38.8816 21.9504C38.1652 21.9641 37.7725 22.2638 37.6106 22.4291C37.5177 22.3499 37.4798 22.2948 37.4798 22.2948H37.4763Z" fill="#ADA89F"/>
<path fill-rule="evenodd" clip-rule="evenodd" d="M38.4235 21.7643C38.5131 21.7471 38.6095 21.7368 38.7128 21.7333C39.0641 21.723 39.4051 21.8022 39.6875 21.8987C39.7185 21.9744 39.7323 22.0571 39.7323 22.1398C39.7323 22.5186 39.412 22.8217 39.0194 22.8217C38.6267 22.8217 38.3064 22.5152 38.3064 22.1398C38.3064 22.002 38.3512 21.8711 38.4235 21.7643Z" fill="#42717D"/>
<path fill-rule="evenodd" clip-rule="evenodd" d="M39.0194 21.8164C39.2054 21.8164 39.357 21.9611 39.357 22.1367C39.357 22.3158 39.2054 22.457 39.0194 22.457C38.8334 22.457 38.6819 22.3124 38.6819 22.1367C38.6819 21.9576 38.8334 21.8164 39.0194 21.8164Z" fill="#402F24"/>
<path fill-rule="evenodd" clip-rule="evenodd" d="M39.1711 22.0225C39.2537 22.0225 39.3226 22.0879 39.3226 22.1671C39.3226 22.2463 39.2537 22.3118 39.1711 22.3118C39.0884 22.3118 39.0195 22.2463 39.0195 22.1671C39.0195 22.0879 39.0884 22.0225 39.1711 22.0225Z" fill="white"/>
<path fill-rule="evenodd" clip-rule="evenodd" d="M37.1975 22.2981C37.1975 22.2981 37.3181 22.3119 37.5247 22.119C37.7314 21.9262 38.0448 21.6575 38.775 21.6437C39.2296 21.6368 39.8531 21.8366 40.4145 22.2189C40.4145 22.2189 40.0632 22.0949 39.8806 22.0123C39.6981 21.9296 39.2744 21.7746 38.6166 21.7918C37.9587 21.8091 37.4937 22.3154 37.4937 22.3154C37.4937 22.3154 37.3491 22.4015 37.1941 22.2947L37.1975 22.2981Z" fill="#413024"/>
<path fill-rule="evenodd" clip-rule="evenodd" d="M48.1537 22.2192C48.1537 22.2192 48.1502 21.4202 46.9034 21.3892C45.66 21.3582 44.1273 21.8266 44.1893 22.0952C44.2513 22.3639 44.4959 21.9299 45.0056 21.7543C45.5154 21.5752 46.0492 21.3892 46.8931 21.4477C47.7369 21.5063 48.0572 22.0195 48.1502 22.2192H48.1537Z" fill="#A16D4D"/>
<path fill-rule="evenodd" clip-rule="evenodd" d="M47.9298 22.9912C47.9298 22.9912 47.5096 23.5802 46.5177 23.5905C45.5257 23.6008 45.0676 23.3356 45.0676 23.3356C45.0676 23.3356 45.8701 23.7799 46.8001 23.7076C47.73 23.6387 47.854 23.2013 47.9264 22.9947L47.9298 22.9912Z" fill="#AD7755"/>
<path fill-rule="evenodd" clip-rule="evenodd" d="M47.7851 22.2949C47.7851 22.2949 47.3993 21.7611 46.5521 21.7335C45.7048 21.706 44.8988 22.2088 44.8988 22.2088C44.8988 22.2088 44.5234 22.2915 44.5475 22.4189C44.5716 22.5464 44.8954 22.5498 44.8954 22.5498C44.8954 22.5498 45.567 22.9287 46.5314 22.8322C47.4958 22.7358 47.7885 22.2949 47.7885 22.2949H47.7851Z" fill="white"/>
<path fill-rule="evenodd" clip-rule="evenodd" d="M47.7851 22.2947C47.7851 22.2947 47.7644 22.2671 47.7231 22.2224C47.5853 22.3739 47.1789 22.7424 46.404 22.7769C45.5084 22.8182 44.8024 22.5633 44.9126 22.1982L44.8988 22.2086C44.8988 22.2086 44.5234 22.2912 44.5475 22.4187C44.5716 22.5461 44.8954 22.5496 44.8954 22.5496C44.8954 22.5496 45.567 22.9284 46.5314 22.832C47.4958 22.7355 47.7885 22.2947 47.7885 22.2947H47.7851Z" fill="#EDBA9D"/>
<path fill-rule="evenodd" clip-rule="evenodd" d="M47.7852 22.2948C47.7852 22.2948 47.3994 21.7609 46.5521 21.7334C45.753 21.7093 44.9919 22.1536 44.9058 22.2018C45.1675 22.1777 45.722 21.94 46.3833 21.9504C47.0998 21.9641 47.4924 22.2638 47.6543 22.4291C47.7473 22.3499 47.7852 22.2948 47.7852 22.2948Z" fill="#ADA89F"/>
<path fill-rule="evenodd" clip-rule="evenodd" d="M46.8379 21.7643C46.7483 21.7471 46.6519 21.7368 46.5485 21.7333C46.1972 21.723 45.8563 21.8022 45.5738 21.8987C45.5428 21.9744 45.5291 22.0571 45.5291 22.1398C45.5291 22.5186 45.8494 22.8217 46.242 22.8217C46.6347 22.8217 46.955 22.5152 46.955 22.1398C46.955 22.002 46.9102 21.8711 46.8379 21.7643Z" fill="#42717D"/>
<path fill-rule="evenodd" clip-rule="evenodd" d="M46.2421 21.8164C46.0561 21.8164 45.9045 21.9611 45.9045 22.1367C45.9045 22.3158 46.0561 22.457 46.2421 22.457C46.4281 22.457 46.5796 22.3124 46.5796 22.1367C46.5796 21.9576 46.4281 21.8164 46.2421 21.8164Z" fill="#402F24"/>
<path fill-rule="evenodd" clip-rule="evenodd" d="M46.0939 22.0225C46.0113 22.0225 45.9424 22.0879 45.9424 22.1671C45.9424 22.2463 46.0113 22.3118 46.0939 22.3118C46.1766 22.3118 46.2455 22.2463 46.2455 22.1671C46.2455 22.0879 46.1766 22.0225 46.0939 22.0225Z" fill="white"/>
<path fill-rule="evenodd" clip-rule="evenodd" d="M48.0641 22.2981C48.0641 22.2981 47.9436 22.3119 47.7369 22.119C47.5302 21.9262 47.2168 21.6575 46.4866 21.6437C46.032 21.6368 45.4086 21.8366 44.8472 22.2189C44.8472 22.2189 45.1985 22.0949 45.381 22.0123C45.5636 21.9296 45.9872 21.7746 46.6451 21.7918C47.3029 21.8091 47.7679 22.3154 47.7679 22.3154C47.7679 22.3154 47.9126 22.4015 48.0675 22.2947L48.0641 22.2981Z" fill="#413024"/>
<path fill-rule="evenodd" clip-rule="evenodd" d="M48.7633 20.9481C48.5497 20.9274 48.3431 20.8585 46.738 21.0239C45.133 21.1892 44.3443 21.4475 44.1307 21.5474C43.9138 21.6473 44.0343 21.2236 44.3718 20.9171C44.7094 20.6105 46.3316 20.3867 47.1272 20.0457C47.9263 19.7047 48.3913 20.1697 48.684 20.4004C48.9768 20.6312 49.1938 20.9929 48.7598 20.9481H48.7633Z" fill="#413024"/>
<path fill-rule="evenodd" clip-rule="evenodd" d="M42.8357 22.5986C42.9253 22.5986 43.0011 23.3081 43.0011 24.183C43.0011 24.3276 42.9976 24.4689 42.9942 24.6032H42.6773C42.6739 24.4689 42.6704 24.3276 42.6704 24.183C42.6704 23.3081 42.7427 22.5986 42.8357 22.5986Z" fill="#D49D7B"/>
</svg>
