<svg width="85" height="212" viewBox="0 0 85 212" fill="none" xmlns="http://www.w3.org/2000/svg">
<path fill-rule="evenodd" clip-rule="evenodd" d="M35.366 18.5615H49.3014V24.6027H35.366V18.5615Z" fill="#C78C68"/>
<path fill-rule="evenodd" clip-rule="evenodd" d="M40.6701 21.3547C40.6701 21.3547 41.6758 22.233 41.6483 22.8495C41.6242 23.3972 41.4726 23.6141 41.3038 24.6027H40.9801C41.0421 24.0481 41.1557 23.5039 41.2246 23.1251C41.3383 22.4775 41.0559 21.8507 40.3808 21.3168C39.7057 20.783 40.3705 21.1136 40.6701 21.3582V21.3547Z" fill="#A16D4D"/>
<path fill-rule="evenodd" clip-rule="evenodd" d="M36.0823 20.9481C36.2958 20.9274 36.5025 20.8585 38.1075 21.0239C39.7125 21.1892 40.5013 21.4475 40.7148 21.5474C40.9318 21.6473 40.8285 21.1995 40.4909 20.893C40.1534 20.5864 38.5139 20.3867 37.7183 20.0457C36.9193 19.7047 36.4543 20.1697 36.1615 20.4004C35.8688 20.6312 35.6518 20.9929 36.0857 20.9481H36.0823Z" fill="#413024"/>
<path fill-rule="evenodd" clip-rule="evenodd" d="M44.1041 21.2998C44.1041 21.2998 43.5151 21.6649 43.2809 22.4054C43.0467 23.1425 43.1776 23.4662 43.1776 23.4662C43.1776 23.4662 43.3429 21.9818 44.1041 21.2998Z" fill="#A16D4D"/>
<path fill-rule="evenodd" clip-rule="evenodd" d="M36.7781 22.2192C36.7781 22.2192 36.7815 21.4202 38.0283 21.3892C39.2717 21.3582 40.8044 21.8266 40.7424 22.0952C40.6804 22.3639 40.4359 21.9299 39.9261 21.7543C39.4164 21.5752 38.8825 21.3892 38.0387 21.4477C37.1948 21.5063 36.8745 22.0195 36.7815 22.2192H36.7781Z" fill="#A16D4D"/>
<path fill-rule="evenodd" clip-rule="evenodd" d="M37.002 22.9912C37.002 22.9912 37.4222 23.5802 38.4141 23.5905C39.406 23.6008 39.8641 23.3356 39.8641 23.3356C39.8641 23.3356 39.0616 23.7799 38.1317 23.7076C37.2017 23.6387 37.0777 23.2013 37.0054 22.9947L37.002 22.9912Z" fill="#AD7755"/>
<path fill-rule="evenodd" clip-rule="evenodd" d="M37.1431 22.2949C37.1431 22.2949 37.5288 21.7611 38.3796 21.7335C39.2268 21.706 40.0328 22.2088 40.0328 22.2088C40.0328 22.2088 40.4082 22.2915 40.3841 22.4189C40.36 22.5464 40.0362 22.5498 40.0362 22.5498C40.0362 22.5498 39.3646 22.9287 38.4002 22.8322C37.4358 22.7358 37.1431 22.2949 37.1431 22.2949Z" fill="white"/>
<path fill-rule="evenodd" clip-rule="evenodd" d="M37.1431 22.2947C37.1431 22.2947 37.1638 22.2671 37.2051 22.2224C37.3429 22.3739 37.7493 22.7424 38.5242 22.7769C39.4197 22.8182 40.1258 22.5633 40.0156 22.1982L40.0294 22.2086C40.0294 22.2086 40.4048 22.2912 40.3807 22.4187C40.3566 22.5461 40.0328 22.5496 40.0328 22.5496C40.0328 22.5496 39.3612 22.9284 38.3968 22.832C37.4324 22.7355 37.1396 22.2947 37.1396 22.2947H37.1431Z" fill="#EDBA9D"/>
<path fill-rule="evenodd" clip-rule="evenodd" d="M37.1431 22.2948C37.1431 22.2948 37.5288 21.7609 38.3796 21.7334C39.1786 21.7093 39.9398 22.1536 40.0259 22.2018C39.7641 22.1777 39.2096 21.94 38.5483 21.9504C37.8319 21.9641 37.4393 22.2638 37.2774 22.4291C37.1844 22.3499 37.1465 22.2948 37.1465 22.2948H37.1431Z" fill="#ADA89F"/>
<path fill-rule="evenodd" clip-rule="evenodd" d="M38.0902 21.7643C38.1798 21.7471 38.2762 21.7368 38.3796 21.7333C38.7309 21.723 39.0719 21.8022 39.3543 21.8987C39.3853 21.9744 39.3991 22.0571 39.3991 22.1398C39.3991 22.5186 39.0788 22.8217 38.6861 22.8217C38.2935 22.8217 37.9731 22.5152 37.9731 22.1398C37.9731 22.002 38.0179 21.8711 38.0902 21.7643Z" fill="#9E5311"/>
<path fill-rule="evenodd" clip-rule="evenodd" d="M38.6862 21.8164C38.8722 21.8164 39.0237 21.9611 39.0237 22.1367C39.0237 22.3158 38.8722 22.457 38.6862 22.457C38.5002 22.457 38.3486 22.3124 38.3486 22.1367C38.3486 21.9576 38.5002 21.8164 38.6862 21.8164Z" fill="#402F24"/>
<path fill-rule="evenodd" clip-rule="evenodd" d="M38.8378 22.0225C38.9205 22.0225 38.9894 22.0879 38.9894 22.1671C38.9894 22.2463 38.9205 22.3118 38.8378 22.3118C38.7552 22.3118 38.6863 22.2463 38.6863 22.1671C38.6863 22.0879 38.7552 22.0225 38.8378 22.0225Z" fill="white"/>
<path fill-rule="evenodd" clip-rule="evenodd" d="M36.8643 22.2981C36.8643 22.2981 36.9848 22.3119 37.1915 22.119C37.3981 21.9262 37.7116 21.6575 38.4418 21.6437C38.8964 21.6368 39.5198 21.8366 40.0812 22.2189C40.0812 22.2189 39.7299 22.0949 39.5474 22.0123C39.3648 21.9296 38.9412 21.7746 38.2833 21.7918C37.6255 21.8091 37.1605 22.3154 37.1605 22.3154C37.1605 22.3154 37.0158 22.4015 36.8608 22.2947L36.8643 22.2981Z" fill="#413024"/>
<path fill-rule="evenodd" clip-rule="evenodd" d="M47.8204 22.2192C47.8204 22.2192 47.817 21.4202 46.5701 21.3892C45.3268 21.3582 43.7941 21.8266 43.8561 22.0952C43.9181 22.3639 44.1626 21.9299 44.6724 21.7543C45.1821 21.5752 45.716 21.3892 46.5598 21.4477C47.4037 21.5063 47.724 22.0195 47.817 22.2192H47.8204Z" fill="#A16D4D"/>
<path fill-rule="evenodd" clip-rule="evenodd" d="M47.5966 22.9912C47.5966 22.9912 47.1763 23.5802 46.1844 23.5905C45.1925 23.6008 44.7344 23.3356 44.7344 23.3356C44.7344 23.3356 45.5369 23.7799 46.4668 23.7076C47.3968 23.6387 47.5208 23.2013 47.5931 22.9947L47.5966 22.9912Z" fill="#AD7755"/>
<path fill-rule="evenodd" clip-rule="evenodd" d="M47.4519 22.2949C47.4519 22.2949 47.0661 21.7611 46.2188 21.7335C45.3715 21.706 44.5656 22.2088 44.5656 22.2088C44.5656 22.2088 44.1901 22.2915 44.2142 22.4189C44.2384 22.5464 44.5621 22.5498 44.5621 22.5498C44.5621 22.5498 45.2338 22.9287 46.1981 22.8322C47.1625 22.7358 47.4553 22.2949 47.4553 22.2949H47.4519Z" fill="white"/>
<path fill-rule="evenodd" clip-rule="evenodd" d="M47.4519 22.2947C47.4519 22.2947 47.4312 22.2671 47.3899 22.2224C47.2521 22.3739 46.8457 22.7424 46.0707 22.7769C45.1752 22.8182 44.4691 22.5633 44.5793 22.1982L44.5656 22.2086C44.5656 22.2086 44.1901 22.2912 44.2142 22.4187C44.2384 22.5461 44.5621 22.5496 44.5621 22.5496C44.5621 22.5496 45.2338 22.9284 46.1981 22.832C47.1625 22.7355 47.4553 22.2947 47.4553 22.2947H47.4519Z" fill="#EDBA9D"/>
<path fill-rule="evenodd" clip-rule="evenodd" d="M47.4519 22.2948C47.4519 22.2948 47.0662 21.7609 46.2189 21.7334C45.4198 21.7093 44.6586 22.1536 44.5725 22.2018C44.8343 22.1777 45.3888 21.94 46.0501 21.9504C46.7665 21.9641 47.1591 22.2638 47.321 22.4291C47.414 22.3499 47.4519 22.2948 47.4519 22.2948Z" fill="#ADA89F"/>
<path fill-rule="evenodd" clip-rule="evenodd" d="M46.5046 21.7643C46.4151 21.7471 46.3186 21.7368 46.2153 21.7333C45.864 21.723 45.523 21.8022 45.2406 21.8987C45.2096 21.9744 45.1958 22.0571 45.1958 22.1398C45.1958 22.5186 45.5161 22.8217 45.9088 22.8217C46.3014 22.8217 46.6217 22.5152 46.6217 22.1398C46.6217 22.002 46.5769 21.8711 46.5046 21.7643Z" fill="#9E5311"/>
<path fill-rule="evenodd" clip-rule="evenodd" d="M45.9088 21.8164C45.7228 21.8164 45.5713 21.9611 45.5713 22.1367C45.5713 22.3158 45.7228 22.457 45.9088 22.457C46.0948 22.457 46.2464 22.3124 46.2464 22.1367C46.2464 21.9576 46.0948 21.8164 45.9088 21.8164Z" fill="#402F24"/>
<path fill-rule="evenodd" clip-rule="evenodd" d="M45.7607 22.0225C45.678 22.0225 45.6091 22.0879 45.6091 22.1671C45.6091 22.2463 45.678 22.3118 45.7607 22.3118C45.8433 22.3118 45.9122 22.2463 45.9122 22.1671C45.9122 22.0879 45.8433 22.0225 45.7607 22.0225Z" fill="white"/>
<path fill-rule="evenodd" clip-rule="evenodd" d="M47.7308 22.2981C47.7308 22.2981 47.6103 22.3119 47.4036 22.119C47.197 21.9262 46.8836 21.6575 46.1534 21.6437C45.6987 21.6368 45.0753 21.8366 44.5139 22.2189C44.5139 22.2189 44.8652 22.0949 45.0478 22.0123C45.2303 21.9296 45.654 21.7746 46.3118 21.7918C46.9697 21.8091 47.4346 22.3154 47.4346 22.3154C47.4346 22.3154 47.5793 22.4015 47.7343 22.2947L47.7308 22.2981Z" fill="#413024"/>
<path fill-rule="evenodd" clip-rule="evenodd" d="M48.43 20.9481C48.2165 20.9274 48.0098 20.8585 46.4048 21.0239C44.7998 21.1892 44.011 21.4475 43.7975 21.5474C43.5805 21.6473 43.701 21.2236 44.0386 20.9171C44.3761 20.6105 45.9984 20.3867 46.794 20.0457C47.5931 19.7047 48.058 20.1697 48.3508 20.4004C48.6436 20.6312 48.8605 20.9929 48.4266 20.9481H48.43Z" fill="#413024"/>
<path fill-rule="evenodd" clip-rule="evenodd" d="M42.5025 22.5986C42.592 22.5986 42.6678 23.3081 42.6678 24.183C42.6678 24.3276 42.6644 24.4689 42.6609 24.6032H42.344C42.3406 24.4689 42.3372 24.3276 42.3372 24.183C42.3372 23.3081 42.4095 22.5986 42.5025 22.5986Z" fill="#D49D7B"/>
</svg>
