<svg width="86" height="212" viewBox="0 0 86 212" fill="none" xmlns="http://www.w3.org/2000/svg">
<path fill-rule="evenodd" clip-rule="evenodd" d="M36.0325 18.5615H49.9679V24.6027H36.0325V18.5615Z" fill="#C78C68"/>
<path fill-rule="evenodd" clip-rule="evenodd" d="M41.3366 21.3547C41.3366 21.3547 42.3423 22.233 42.3148 22.8495C42.2907 23.3972 42.1391 23.6141 41.9703 24.6027H41.6466C41.7086 24.0481 41.8222 23.5039 41.8911 23.1251C42.0048 22.4775 41.7224 21.8507 41.0473 21.3168C40.3722 20.783 41.037 21.1136 41.3366 21.3582V21.3547Z" fill="#A16D4D"/>
<path fill-rule="evenodd" clip-rule="evenodd" d="M36.7488 20.9481C36.9624 20.9274 37.169 20.8585 38.774 21.0239C40.3791 21.1892 41.1678 21.4475 41.3813 21.5474C41.5983 21.6473 41.495 21.1995 41.1575 20.893C40.8199 20.5864 39.1805 20.3867 38.3848 20.0457C37.5858 19.7047 37.1208 20.1697 36.828 20.4004C36.5353 20.6312 36.3183 20.9929 36.7522 20.9481H36.7488Z" fill="#413024"/>
<path fill-rule="evenodd" clip-rule="evenodd" d="M44.7706 21.2998C44.7706 21.2998 44.1816 21.6649 43.9474 22.4054C43.7132 23.1425 43.8441 23.4662 43.8441 23.4662C43.8441 23.4662 44.0094 21.9818 44.7706 21.2998Z" fill="#A16D4D"/>
<path fill-rule="evenodd" clip-rule="evenodd" d="M37.4446 22.2192C37.4446 22.2192 37.448 21.4202 38.6948 21.3892C39.9382 21.3582 41.4709 21.8266 41.4089 22.0952C41.3469 22.3639 41.1024 21.9299 40.5926 21.7543C40.0829 21.5752 39.549 21.3892 38.7052 21.4477C37.8613 21.5063 37.541 22.0195 37.448 22.2192H37.4446Z" fill="#A16D4D"/>
<path fill-rule="evenodd" clip-rule="evenodd" d="M37.6685 22.9912C37.6685 22.9912 38.0887 23.5802 39.0806 23.5905C40.0725 23.6008 40.5306 23.3356 40.5306 23.3356C40.5306 23.3356 39.7281 23.7799 38.7982 23.7076C37.8682 23.6387 37.7442 23.2013 37.6719 22.9947L37.6685 22.9912Z" fill="#AD7755"/>
<path fill-rule="evenodd" clip-rule="evenodd" d="M37.8096 22.2949C37.8096 22.2949 38.1953 21.7611 39.0461 21.7335C39.8933 21.706 40.6993 22.2088 40.6993 22.2088C40.6993 22.2088 41.0747 22.2915 41.0506 22.4189C41.0265 22.5464 40.7027 22.5498 40.7027 22.5498C40.7027 22.5498 40.0311 22.9287 39.0667 22.8322C38.1023 22.7358 37.8096 22.2949 37.8096 22.2949Z" fill="white"/>
<path fill-rule="evenodd" clip-rule="evenodd" d="M37.8096 22.2947C37.8096 22.2947 37.8303 22.2671 37.8716 22.2224C38.0094 22.3739 38.4158 22.7424 39.1907 22.7769C40.0862 22.8182 40.7923 22.5633 40.6821 22.1982L40.6959 22.2086C40.6959 22.2086 41.0713 22.2912 41.0472 22.4187C41.0231 22.5461 40.6993 22.5496 40.6993 22.5496C40.6993 22.5496 40.0277 22.9284 39.0633 22.832C38.0989 22.7355 37.8062 22.2947 37.8062 22.2947H37.8096Z" fill="#EDBA9D"/>
<path fill-rule="evenodd" clip-rule="evenodd" d="M37.8096 22.2948C37.8096 22.2948 38.1953 21.7609 39.0461 21.7334C39.8451 21.7093 40.6063 22.1536 40.6924 22.2018C40.4306 22.1777 39.8761 21.94 39.2148 21.9504C38.4984 21.9641 38.1058 22.2638 37.9439 22.4291C37.8509 22.3499 37.813 22.2948 37.813 22.2948H37.8096Z" fill="#ADA89F"/>
<path fill-rule="evenodd" clip-rule="evenodd" d="M38.7568 21.7643C38.8463 21.7471 38.9427 21.7368 39.0461 21.7333C39.3974 21.723 39.7384 21.8022 40.0208 21.8987C40.0518 21.9744 40.0656 22.0571 40.0656 22.1398C40.0656 22.5186 39.7453 22.8217 39.3526 22.8217C38.96 22.8217 38.6396 22.5152 38.6396 22.1398C38.6396 22.002 38.6844 21.8711 38.7568 21.7643Z" fill="#4C7012"/>
<path fill-rule="evenodd" clip-rule="evenodd" d="M39.3527 21.8164C39.5387 21.8164 39.6902 21.9611 39.6902 22.1367C39.6902 22.3158 39.5387 22.457 39.3527 22.457C39.1667 22.457 39.0151 22.3124 39.0151 22.1367C39.0151 21.9576 39.1667 21.8164 39.3527 21.8164Z" fill="#402F24"/>
<path fill-rule="evenodd" clip-rule="evenodd" d="M39.5043 22.0225C39.587 22.0225 39.6559 22.0879 39.6559 22.1671C39.6559 22.2463 39.587 22.3118 39.5043 22.3118C39.4217 22.3118 39.3528 22.2463 39.3528 22.1671C39.3528 22.0879 39.4217 22.0225 39.5043 22.0225Z" fill="white"/>
<path fill-rule="evenodd" clip-rule="evenodd" d="M37.5308 22.2981C37.5308 22.2981 37.6513 22.3119 37.858 22.119C38.0646 21.9262 38.3781 21.6575 39.1083 21.6437C39.5629 21.6368 40.1863 21.8366 40.7477 22.2189C40.7477 22.2189 40.3964 22.0949 40.2139 22.0123C40.0313 21.9296 39.6077 21.7746 38.9498 21.7918C38.292 21.8091 37.827 22.3154 37.827 22.3154C37.827 22.3154 37.6823 22.4015 37.5273 22.2947L37.5308 22.2981Z" fill="#413024"/>
<path fill-rule="evenodd" clip-rule="evenodd" d="M48.4869 22.2192C48.4869 22.2192 48.4835 21.4202 47.2366 21.3892C45.9933 21.3582 44.4606 21.8266 44.5226 22.0952C44.5846 22.3639 44.8291 21.9299 45.3389 21.7543C45.8486 21.5752 46.3825 21.3892 47.2263 21.4477C48.0702 21.5063 48.3905 22.0195 48.4835 22.2192H48.4869Z" fill="#A16D4D"/>
<path fill-rule="evenodd" clip-rule="evenodd" d="M48.2631 22.9912C48.2631 22.9912 47.8429 23.5802 46.8509 23.5905C45.859 23.6008 45.4009 23.3356 45.4009 23.3356C45.4009 23.3356 46.2034 23.7799 47.1333 23.7076C48.0633 23.6387 48.1873 23.2013 48.2596 22.9947L48.2631 22.9912Z" fill="#AD7755"/>
<path fill-rule="evenodd" clip-rule="evenodd" d="M48.1184 22.2949C48.1184 22.2949 47.7326 21.7611 46.8853 21.7335C46.038 21.706 45.2321 22.2088 45.2321 22.2088C45.2321 22.2088 44.8566 22.2915 44.8808 22.4189C44.9049 22.5464 45.2286 22.5498 45.2286 22.5498C45.2286 22.5498 45.9003 22.9287 46.8646 22.8322C47.829 22.7358 48.1218 22.2949 48.1218 22.2949H48.1184Z" fill="white"/>
<path fill-rule="evenodd" clip-rule="evenodd" d="M48.1184 22.2947C48.1184 22.2947 48.0977 22.2671 48.0564 22.2224C47.9186 22.3739 47.5122 22.7424 46.7372 22.7769C45.8417 22.8182 45.1356 22.5633 45.2458 22.1982L45.2321 22.2086C45.2321 22.2086 44.8566 22.2912 44.8808 22.4187C44.9049 22.5461 45.2286 22.5496 45.2286 22.5496C45.2286 22.5496 45.9003 22.9284 46.8646 22.832C47.829 22.7355 48.1218 22.2947 48.1218 22.2947H48.1184Z" fill="#EDBA9D"/>
<path fill-rule="evenodd" clip-rule="evenodd" d="M48.1184 22.2948C48.1184 22.2948 47.7327 21.7609 46.8854 21.7334C46.0863 21.7093 45.3251 22.1536 45.239 22.2018C45.5008 22.1777 46.0553 21.94 46.7166 21.9504C47.433 21.9641 47.8256 22.2638 47.9875 22.4291C48.0805 22.3499 48.1184 22.2948 48.1184 22.2948Z" fill="#ADA89F"/>
<path fill-rule="evenodd" clip-rule="evenodd" d="M47.1711 21.7643C47.0816 21.7471 46.9851 21.7368 46.8818 21.7333C46.5305 21.723 46.1895 21.8022 45.9071 21.8987C45.8761 21.9744 45.8623 22.0571 45.8623 22.1398C45.8623 22.5186 46.1826 22.8217 46.5753 22.8217C46.9679 22.8217 47.2882 22.5152 47.2882 22.1398C47.2882 22.002 47.2435 21.8711 47.1711 21.7643Z" fill="#4C7012"/>
<path fill-rule="evenodd" clip-rule="evenodd" d="M46.5753 21.8164C46.3893 21.8164 46.2378 21.9611 46.2378 22.1367C46.2378 22.3158 46.3893 22.457 46.5753 22.457C46.7613 22.457 46.9129 22.3124 46.9129 22.1367C46.9129 21.9576 46.7613 21.8164 46.5753 21.8164Z" fill="#402F24"/>
<path fill-rule="evenodd" clip-rule="evenodd" d="M46.4272 22.0225C46.3445 22.0225 46.2756 22.0879 46.2756 22.1671C46.2756 22.2463 46.3445 22.3118 46.4272 22.3118C46.5098 22.3118 46.5787 22.2463 46.5787 22.1671C46.5787 22.0879 46.5098 22.0225 46.4272 22.0225Z" fill="white"/>
<path fill-rule="evenodd" clip-rule="evenodd" d="M48.3974 22.2981C48.3974 22.2981 48.2768 22.3119 48.0702 22.119C47.8635 21.9262 47.5501 21.6575 46.8199 21.6437C46.3652 21.6368 45.7418 21.8366 45.1804 22.2189C45.1804 22.2189 45.5317 22.0949 45.7143 22.0123C45.8968 21.9296 46.3205 21.7746 46.9783 21.7918C47.6362 21.8091 48.1011 22.3154 48.1011 22.3154C48.1011 22.3154 48.2458 22.4015 48.4008 22.2947L48.3974 22.2981Z" fill="#413024"/>
<path fill-rule="evenodd" clip-rule="evenodd" d="M49.0965 20.9481C48.883 20.9274 48.6763 20.8585 47.0713 21.0239C45.4663 21.1892 44.6775 21.4475 44.464 21.5474C44.247 21.6473 44.3676 21.2236 44.7051 20.9171C45.0426 20.6105 46.6649 20.3867 47.4605 20.0457C48.2596 19.7047 48.7245 20.1697 49.0173 20.4004C49.3101 20.6312 49.5271 20.9929 49.0931 20.9481H49.0965Z" fill="#413024"/>
<path fill-rule="evenodd" clip-rule="evenodd" d="M43.169 22.5986C43.2585 22.5986 43.3343 23.3081 43.3343 24.183C43.3343 24.3276 43.3309 24.4689 43.3274 24.6032H43.0106C43.0071 24.4689 43.0037 24.3276 43.0037 24.183C43.0037 23.3081 43.076 22.5986 43.169 22.5986Z" fill="#D49D7B"/>
</svg>
